<?xml version="1.0" encoding="UTF-8" standalone="no"?>
<!DOCTYPE svg PUBLIC "-//W3C//DTD SVG 1.1//EN"
 "http://www.w3.org/Graphics/SVG/1.1/DTD/svg11.dtd">
<!-- Generated by graphviz version 2.43.0 (0)
 -->
<!-- Title: ActuatorInfo.h Pages: 1 -->
<svg width="1057pt" height="247pt"
 viewBox="0.00 0.00 1057.00 247.00" xmlns="http://www.w3.org/2000/svg" xmlns:xlink="http://www.w3.org/1999/xlink">
<g id="graph0" class="graph" transform="scale(1 1) rotate(0) translate(4 243)">
<title>ActuatorInfo.h</title>
<!-- Node1 -->
<g id="Node000001" class="node">
<title>Node1</title>
<g id="a_Node000001"><a xlink:title=" ">
<polygon fill="#999999" stroke="#666666" points="612,-239 526,-239 526,-220 612,-220 612,-239"/>
<text text-anchor="middle" x="569" y="-227" font-family="Helvetica,sans-Serif" font-size="10.00">ActuatorInfo.h</text>
</a>
</g>
</g>
<!-- Node2 -->
<g id="Node000002" class="node">
<title>Node2</title>
<g id="a_Node000002"><a xlink:href="_nalu_parsing_8h.html" target="_top" xlink:title=" ">
<polygon fill="white" stroke="#666666" points="610.5,-184 527.5,-184 527.5,-165 610.5,-165 610.5,-184"/>
<text text-anchor="middle" x="569" y="-172" font-family="Helvetica,sans-Serif" font-size="10.00">NaluParsing.h</text>
</a>
</g>
</g>
<!-- Node1&#45;&gt;Node2 -->
<g id="edge1_Node000001_Node000002" class="edge">
<title>Node1&#45;&gt;Node2</title>
<g id="a_edge1_Node000001_Node000002"><a xlink:title=" ">
<path fill="none" stroke="#63b8ff" d="M569,-219.75C569,-212.8 569,-202.85 569,-194.13"/>
<polygon fill="#63b8ff" stroke="#63b8ff" points="572.5,-194.09 569,-184.09 565.5,-194.09 572.5,-194.09"/>
</a>
</g>
</g>
<!-- Node3 -->
<g id="Node000003" class="node">
<title>Node3</title>
<g id="a_Node000003"><a xlink:href="_boundary_conditions_8h.html" target="_top" xlink:title=" ">
<polygon fill="white" stroke="#666666" points="124,-129 0,-129 0,-110 124,-110 124,-129"/>
<text text-anchor="middle" x="62" y="-117" font-family="Helvetica,sans-Serif" font-size="10.00">BoundaryConditions.h</text>
</a>
</g>
</g>
<!-- Node2&#45;&gt;Node3 -->
<g id="edge2_Node000002_Node000003" class="edge">
<title>Node2&#45;&gt;Node3</title>
<g id="a_edge2_Node000002_Node000003"><a xlink:title=" ">
<path fill="none" stroke="#63b8ff" d="M527.49,-169.51C451.69,-162.16 285.51,-145.81 134.7,-129.17"/>
<polygon fill="#63b8ff" stroke="#63b8ff" points="134.66,-125.65 124.33,-128.02 133.89,-132.6 134.66,-125.65"/>
</a>
</g>
</g>
<!-- Node4 -->
<g id="Node000004" class="node">
<title>Node4</title>
<g id="a_Node000004"><a xlink:href="_enums_8h.html" target="_top" xlink:title=" ">
<polygon fill="white" stroke="#666666" points="320.5,-74 261.5,-74 261.5,-55 320.5,-55 320.5,-74"/>
<text text-anchor="middle" x="291" y="-62" font-family="Helvetica,sans-Serif" font-size="10.00">Enums.h</text>
</a>
</g>
</g>
<!-- Node2&#45;&gt;Node4 -->
<g id="edge10_Node000002_Node000004" class="edge">
<title>Node2&#45;&gt;Node4</title>
<g id="a_edge10_Node000002_Node000004"><a xlink:title=" ">
<path fill="none" stroke="#63b8ff" d="M527.44,-172.85C458.58,-170.81 325.38,-162.52 295,-129 284.23,-117.12 284.39,-98.29 286.55,-84.21"/>
<polygon fill="#63b8ff" stroke="#63b8ff" points="290.03,-84.66 288.53,-74.17 283.16,-83.3 290.03,-84.66"/>
</a>
</g>
</g>
<!-- Node5 -->
<g id="Node000005" class="node">
<title>Node5</title>
<g id="a_Node000005"><a xlink:title=" ">
<polygon fill="#e0e0e0" stroke="#999999" points="409,-19 365,-19 365,0 409,0 409,-19"/>
<text text-anchor="middle" x="387" y="-7" font-family="Helvetica,sans-Serif" font-size="10.00">string</text>
</a>
</g>
</g>
<!-- Node2&#45;&gt;Node5 -->
<g id="edge38_Node000002_Node000005" class="edge">
<title>Node2&#45;&gt;Node5</title>
<g id="a_edge38_Node000002_Node000005"><a xlink:title=" ">
<path fill="none" stroke="#63b8ff" d="M610.86,-169.74C665.17,-164.04 755.84,-151.4 780,-129 804.67,-106.12 818.47,-80.05 796,-55 770.94,-27.06 511.34,-15 419.21,-11.58"/>
<polygon fill="#63b8ff" stroke="#63b8ff" points="419.2,-8.08 409.08,-11.22 418.95,-15.07 419.2,-8.08"/>
</a>
</g>
</g>
<!-- Node7 -->
<g id="Node000007" class="node">
<title>Node7</title>
<g id="a_Node000007"><a xlink:title=" ">
<polygon fill="#e0e0e0" stroke="#999999" points="466.5,-74 419.5,-74 419.5,-55 466.5,-55 466.5,-74"/>
<text text-anchor="middle" x="443" y="-62" font-family="Helvetica,sans-Serif" font-size="10.00">vector</text>
</a>
</g>
</g>
<!-- Node2&#45;&gt;Node7 -->
<g id="edge39_Node000002_Node000007" class="edge">
<title>Node2&#45;&gt;Node7</title>
<g id="a_edge39_Node000002_Node000007"><a xlink:title=" ">
<path fill="none" stroke="#63b8ff" d="M529.6,-164.97C507.93,-158.43 482.07,-147.32 465,-129 453.45,-116.61 447.93,-97.85 445.31,-83.93"/>
<polygon fill="#63b8ff" stroke="#63b8ff" points="448.76,-83.36 443.77,-74.02 441.84,-84.43 448.76,-83.36"/>
</a>
</g>
</g>
<!-- Node9 -->
<g id="Node000009" class="node">
<title>Node9</title>
<g id="a_Node000009"><a xlink:href="_initial_conditions_8h.html" target="_top" xlink:title=" ">
<polygon fill="white" stroke="#666666" points="247.5,-129 142.5,-129 142.5,-110 247.5,-110 247.5,-129"/>
<text text-anchor="middle" x="195" y="-117" font-family="Helvetica,sans-Serif" font-size="10.00">InitialConditions.h</text>
</a>
</g>
</g>
<!-- Node2&#45;&gt;Node9 -->
<g id="edge11_Node000002_Node000009" class="edge">
<title>Node2&#45;&gt;Node9</title>
<g id="a_edge11_Node000002_Node000009"><a xlink:title=" ">
<path fill="none" stroke="#63b8ff" d="M527.19,-167.57C461.61,-158.28 334.16,-140.22 257.61,-129.37"/>
<polygon fill="#63b8ff" stroke="#63b8ff" points="258.01,-125.89 247.62,-127.96 257.03,-132.82 258.01,-125.89"/>
</a>
</g>
</g>
<!-- Node10 -->
<g id="Node000010" class="node">
<title>Node10</title>
<g id="a_Node000010"><a xlink:href="_material_propertys_8h.html" target="_top" xlink:title=" ">
<polygon fill="white" stroke="#666666" points="417.5,-129 304.5,-129 304.5,-110 417.5,-110 417.5,-129"/>
<text text-anchor="middle" x="361" y="-117" font-family="Helvetica,sans-Serif" font-size="10.00">MaterialPropertys.h</text>
</a>
</g>
</g>
<!-- Node2&#45;&gt;Node10 -->
<g id="edge17_Node000002_Node000010" class="edge">
<title>Node2&#45;&gt;Node10</title>
<g id="a_edge17_Node000002_Node000010"><a xlink:title=" ">
<path fill="none" stroke="#63b8ff" d="M535.58,-164.98C500.06,-155.93 443.73,-141.58 404.7,-131.64"/>
<polygon fill="#63b8ff" stroke="#63b8ff" points="405.24,-128.16 394.68,-129.08 403.51,-134.94 405.24,-128.16"/>
</a>
</g>
</g>
<!-- Node11 -->
<g id="Node000011" class="node">
<title>Node11</title>
<g id="a_Node000011"><a xlink:href="_nalu_parsed_types_8h.html" target="_top" xlink:title=" ">
<polygon fill="white" stroke="#666666" points="582,-129 474,-129 474,-110 582,-110 582,-129"/>
<text text-anchor="middle" x="528" y="-117" font-family="Helvetica,sans-Serif" font-size="10.00">NaluParsedTypes.h</text>
</a>
</g>
</g>
<!-- Node2&#45;&gt;Node11 -->
<g id="edge22_Node000002_Node000011" class="edge">
<title>Node2&#45;&gt;Node11</title>
<g id="a_edge22_Node000002_Node000011"><a xlink:title=" ">
<path fill="none" stroke="#63b8ff" d="M562.23,-164.75C556.44,-157.26 547.94,-146.28 540.86,-137.13"/>
<polygon fill="#63b8ff" stroke="#63b8ff" points="543.53,-134.86 534.64,-129.09 537.99,-139.14 543.53,-134.86"/>
</a>
</g>
</g>
<!-- Node12 -->
<g id="Node000012" class="node">
<title>Node12</title>
<g id="a_Node000012"><a xlink:href="_nalu_parsing_helper_8h.html" target="_top" xlink:title=" ">
<polygon fill="white" stroke="#666666" points="753.5,-129 638.5,-129 638.5,-110 753.5,-110 753.5,-129"/>
<text text-anchor="middle" x="696" y="-117" font-family="Helvetica,sans-Serif" font-size="10.00">NaluParsingHelper.h</text>
</a>
</g>
</g>
<!-- Node2&#45;&gt;Node12 -->
<g id="edge25_Node000002_Node000012" class="edge">
<title>Node2&#45;&gt;Node12</title>
<g id="a_edge25_Node000002_Node000012"><a xlink:title=" ">
<path fill="none" stroke="#63b8ff" d="M589.4,-164.98C610.02,-156.38 642.11,-142.99 665.69,-133.15"/>
<polygon fill="#63b8ff" stroke="#63b8ff" points="667.34,-136.25 675.22,-129.17 664.65,-129.79 667.34,-136.25"/>
</a>
</g>
</g>
<!-- Node13 -->
<g id="Node000013" class="node">
<title>Node13</title>
<g id="a_Node000013"><a xlink:title=" ">
<polygon fill="#e0e0e0" stroke="#999999" points="660.5,-74 561.5,-74 561.5,-55 660.5,-55 660.5,-74"/>
<text text-anchor="middle" x="611" y="-62" font-family="Helvetica,sans-Serif" font-size="10.00">yaml&#45;cpp/yaml.h</text>
</a>
</g>
</g>
<!-- Node2&#45;&gt;Node13 -->
<g id="edge35_Node000002_Node000013" class="edge">
<title>Node2&#45;&gt;Node13</title>
<g id="a_edge35_Node000002_Node000013"><a xlink:title=" ">
<path fill="none" stroke="#63b8ff" d="M573.79,-164.82C578.55,-155.98 585.86,-141.79 591,-129 596.93,-114.24 602.27,-96.99 605.93,-84.19"/>
<polygon fill="#63b8ff" stroke="#63b8ff" points="609.39,-84.85 608.7,-74.28 602.64,-82.97 609.39,-84.85"/>
</a>
</g>
</g>
<!-- Node14 -->
<g id="Node000014" class="node">
<title>Node14</title>
<g id="a_Node000014"><a xlink:title=" ">
<polygon fill="#e0e0e0" stroke="#999999" points="787,-74 727,-74 727,-55 787,-55 787,-74"/>
<text text-anchor="middle" x="757" y="-62" font-family="Helvetica,sans-Serif" font-size="10.00">iostream</text>
</a>
</g>
</g>
<!-- Node2&#45;&gt;Node14 -->
<g id="edge36_Node000002_Node000014" class="edge">
<title>Node2&#45;&gt;Node14</title>
<g id="a_edge36_Node000002_Node000014"><a xlink:title=" ">
<path fill="none" stroke="#63b8ff" d="M610.87,-169.84C661.85,-164.41 743.48,-152.28 762,-129 771.99,-116.45 769.05,-97.74 764.63,-83.88"/>
<polygon fill="#63b8ff" stroke="#63b8ff" points="767.89,-82.58 761.15,-74.4 761.32,-85 767.89,-82.58"/>
</a>
</g>
</g>
<!-- Node15 -->
<g id="Node000015" class="node">
<title>Node15</title>
<g id="a_Node000015"><a xlink:title=" ">
<polygon fill="#e0e0e0" stroke="#999999" points="901.5,-74 846.5,-74 846.5,-55 901.5,-55 901.5,-74"/>
<text text-anchor="middle" x="874" y="-62" font-family="Helvetica,sans-Serif" font-size="10.00">fstream</text>
</a>
</g>
</g>
<!-- Node2&#45;&gt;Node15 -->
<g id="edge37_Node000002_Node000015" class="edge">
<title>Node2&#45;&gt;Node15</title>
<g id="a_edge37_Node000002_Node000015"><a xlink:title=" ">
<path fill="none" stroke="#63b8ff" d="M610.56,-170.65C675.69,-165.51 798.08,-152.92 834,-129 850.23,-118.19 861.16,-98.32 867.43,-83.67"/>
<polygon fill="#63b8ff" stroke="#63b8ff" points="870.78,-84.72 871.19,-74.13 864.27,-82.15 870.78,-84.72"/>
</a>
</g>
</g>
<!-- Node16 -->
<g id="Node000016" class="node">
<title>Node16</title>
<g id="a_Node000016"><a xlink:href="_nalu_env_8h.html" target="_top" xlink:title=" ">
<polygon fill="white" stroke="#666666" points="972.5,-129 907.5,-129 907.5,-110 972.5,-110 972.5,-129"/>
<text text-anchor="middle" x="940" y="-117" font-family="Helvetica,sans-Serif" font-size="10.00">NaluEnv.h</text>
</a>
</g>
</g>
<!-- Node2&#45;&gt;Node16 -->
<g id="edge31_Node000002_Node000016" class="edge">
<title>Node2&#45;&gt;Node16</title>
<g id="a_edge31_Node000002_Node000016"><a xlink:title=" ">
<path fill="none" stroke="#63b8ff" d="M610.84,-167.52C681.91,-157.37 825.49,-136.86 897.21,-126.61"/>
<polygon fill="#63b8ff" stroke="#63b8ff" points="897.84,-130.06 907.25,-125.18 896.85,-123.13 897.84,-130.06"/>
</a>
</g>
</g>
<!-- Node3&#45;&gt;Node4 -->
<g id="edge3_Node000003_Node000004" class="edge">
<title>Node3&#45;&gt;Node4</title>
<g id="a_edge3_Node000003_Node000004"><a xlink:title=" ">
<path fill="none" stroke="#63b8ff" d="M98.79,-109.98C140.58,-100.31 208.51,-84.59 251.42,-74.66"/>
<polygon fill="#63b8ff" stroke="#63b8ff" points="252.28,-78.05 261.23,-72.39 250.7,-71.24 252.28,-78.05"/>
</a>
</g>
</g>
<!-- Node3&#45;&gt;Node5 -->
<g id="edge7_Node000003_Node000005" class="edge">
<title>Node3&#45;&gt;Node5</title>
<g id="a_edge7_Node000003_Node000005"><a xlink:title=" ">
<path fill="none" stroke="#63b8ff" d="M64.52,-109.85C69.1,-95.82 80.18,-68.35 100,-55 120.88,-40.94 283.9,-21.73 354.54,-13.96"/>
<polygon fill="#63b8ff" stroke="#63b8ff" points="355.1,-17.42 364.66,-12.86 354.34,-10.47 355.1,-17.42"/>
</a>
</g>
</g>
<!-- Node6 -->
<g id="Node000006" class="node">
<title>Node6</title>
<g id="a_Node000006"><a xlink:title=" ">
<polygon fill="#e0e0e0" stroke="#999999" points="262,-19 224,-19 224,0 262,0 262,-19"/>
<text text-anchor="middle" x="243" y="-7" font-family="Helvetica,sans-Serif" font-size="10.00">map</text>
</a>
</g>
</g>
<!-- Node3&#45;&gt;Node6 -->
<g id="edge6_Node000003_Node000006" class="edge">
<title>Node3&#45;&gt;Node6</title>
<g id="a_edge6_Node000003_Node000006"><a xlink:title=" ">
<path fill="none" stroke="#63b8ff" d="M59.85,-109.95C57.04,-96.55 53.88,-70.55 67,-55 85.72,-32.81 168.65,-19.51 213.67,-13.8"/>
<polygon fill="#63b8ff" stroke="#63b8ff" points="214.22,-17.26 223.72,-12.57 213.37,-10.31 214.22,-17.26"/>
</a>
</g>
</g>
<!-- Node3&#45;&gt;Node7 -->
<g id="edge8_Node000003_Node000007" class="edge">
<title>Node3&#45;&gt;Node7</title>
<g id="a_edge8_Node000003_Node000007"><a xlink:title=" ">
<path fill="none" stroke="#63b8ff" d="M123.21,-109.98C204.51,-98.68 345.29,-79.09 409.43,-70.17"/>
<polygon fill="#63b8ff" stroke="#63b8ff" points="409.98,-73.63 419.4,-68.78 409.01,-66.69 409.98,-73.63"/>
</a>
</g>
</g>
<!-- Node8 -->
<g id="Node000008" class="node">
<title>Node8</title>
<g id="a_Node000008"><a xlink:title=" ">
<polygon fill="#e0e0e0" stroke="#999999" points="167,-74 109,-74 109,-55 167,-55 167,-74"/>
<text text-anchor="middle" x="138" y="-62" font-family="Helvetica,sans-Serif" font-size="10.00">memory</text>
</a>
</g>
</g>
<!-- Node3&#45;&gt;Node8 -->
<g id="edge9_Node000003_Node000008" class="edge">
<title>Node3&#45;&gt;Node8</title>
<g id="a_edge9_Node000003_Node000008"><a xlink:title=" ">
<path fill="none" stroke="#63b8ff" d="M74.21,-109.98C85.78,-101.92 103.38,-89.65 117.16,-80.03"/>
<polygon fill="#63b8ff" stroke="#63b8ff" points="119.37,-82.76 125.57,-74.17 115.36,-77.02 119.37,-82.76"/>
</a>
</g>
</g>
<!-- Node4&#45;&gt;Node5 -->
<g id="edge4_Node000004_Node000005" class="edge">
<title>Node4&#45;&gt;Node5</title>
<g id="a_edge4_Node000004_Node000005"><a xlink:title=" ">
<path fill="none" stroke="#63b8ff" d="M306.42,-54.98C321.45,-46.69 344.54,-33.94 362.16,-24.22"/>
<polygon fill="#63b8ff" stroke="#63b8ff" points="364.23,-27.07 371.3,-19.17 360.85,-20.94 364.23,-27.07"/>
</a>
</g>
</g>
<!-- Node4&#45;&gt;Node6 -->
<g id="edge5_Node000004_Node000006" class="edge">
<title>Node4&#45;&gt;Node6</title>
<g id="a_edge5_Node000004_Node000006"><a xlink:title=" ">
<path fill="none" stroke="#63b8ff" d="M283.07,-54.75C276.15,-47.11 265.93,-35.82 257.55,-26.56"/>
<polygon fill="#63b8ff" stroke="#63b8ff" points="260.09,-24.15 250.78,-19.09 254.9,-28.85 260.09,-24.15"/>
</a>
</g>
</g>
<!-- Node9&#45;&gt;Node4 -->
<g id="edge12_Node000009_Node000004" class="edge">
<title>Node9&#45;&gt;Node4</title>
<g id="a_edge12_Node000009_Node000004"><a xlink:title=" ">
<path fill="none" stroke="#63b8ff" d="M210.42,-109.98C225.45,-101.69 248.54,-88.94 266.16,-79.22"/>
<polygon fill="#63b8ff" stroke="#63b8ff" points="268.23,-82.07 275.3,-74.17 264.85,-75.94 268.23,-82.07"/>
</a>
</g>
</g>
<!-- Node9&#45;&gt;Node5 -->
<g id="edge14_Node000009_Node000005" class="edge">
<title>Node9&#45;&gt;Node5</title>
<g id="a_edge14_Node000009_Node000005"><a xlink:title=" ">
<path fill="none" stroke="#63b8ff" d="M200.58,-109.8C209.72,-96.19 229.18,-69.91 252,-55 283.83,-34.2 326.25,-22.32 354.98,-16.15"/>
<polygon fill="#63b8ff" stroke="#63b8ff" points="355.8,-19.56 364.9,-14.13 354.4,-12.7 355.8,-19.56"/>
</a>
</g>
</g>
<!-- Node9&#45;&gt;Node6 -->
<g id="edge13_Node000009_Node000006" class="edge">
<title>Node9&#45;&gt;Node6</title>
<g id="a_edge13_Node000009_Node000006"><a xlink:title=" ">
<path fill="none" stroke="#63b8ff" d="M197.9,-109.72C202.09,-97.33 210.29,-74.09 219,-55 223.14,-45.92 228.34,-36.12 232.84,-28.04"/>
<polygon fill="#63b8ff" stroke="#63b8ff" points="235.97,-29.61 237.87,-19.19 229.88,-26.16 235.97,-29.61"/>
</a>
</g>
</g>
<!-- Node9&#45;&gt;Node7 -->
<g id="edge15_Node000009_Node000007" class="edge">
<title>Node9&#45;&gt;Node7</title>
<g id="a_edge15_Node000009_Node000007"><a xlink:title=" ">
<path fill="none" stroke="#63b8ff" d="M234.85,-109.98C283.24,-99.64 364.02,-82.38 409.41,-72.68"/>
<polygon fill="#63b8ff" stroke="#63b8ff" points="410.29,-76.07 419.34,-70.56 408.83,-69.22 410.29,-76.07"/>
</a>
</g>
</g>
<!-- Node9&#45;&gt;Node8 -->
<g id="edge16_Node000009_Node000008" class="edge">
<title>Node9&#45;&gt;Node8</title>
<g id="a_edge16_Node000009_Node000008"><a xlink:title=" ">
<path fill="none" stroke="#63b8ff" d="M185.84,-109.98C177.5,-102.23 164.97,-90.58 154.82,-81.14"/>
<polygon fill="#63b8ff" stroke="#63b8ff" points="157.03,-78.42 147.32,-74.17 152.26,-83.54 157.03,-78.42"/>
</a>
</g>
</g>
<!-- Node10&#45;&gt;Node4 -->
<g id="edge18_Node000010_Node000004" class="edge">
<title>Node10&#45;&gt;Node4</title>
<g id="a_edge18_Node000010_Node000004"><a xlink:title=" ">
<path fill="none" stroke="#63b8ff" d="M349.75,-109.98C339.2,-102 323.2,-89.88 310.56,-80.31"/>
<polygon fill="#63b8ff" stroke="#63b8ff" points="312.54,-77.42 302.45,-74.17 308.31,-83 312.54,-77.42"/>
</a>
</g>
</g>
<!-- Node10&#45;&gt;Node5 -->
<g id="edge20_Node000010_Node000005" class="edge">
<title>Node10&#45;&gt;Node5</title>
<g id="a_edge20_Node000010_Node000005"><a xlink:title=" ">
<path fill="none" stroke="#63b8ff" d="M363.13,-109.66C367.36,-92.09 376.9,-52.45 382.56,-28.95"/>
<polygon fill="#63b8ff" stroke="#63b8ff" points="385.98,-29.7 384.92,-19.16 379.17,-28.06 385.98,-29.7"/>
</a>
</g>
</g>
<!-- Node10&#45;&gt;Node6 -->
<g id="edge19_Node000010_Node000006" class="edge">
<title>Node10&#45;&gt;Node6</title>
<g id="a_edge19_Node000010_Node000006"><a xlink:title=" ">
<path fill="none" stroke="#63b8ff" d="M358.49,-109.65C354.31,-96.33 344.8,-70.97 329,-55 313.04,-38.87 290,-27.37 271.78,-20.11"/>
<polygon fill="#63b8ff" stroke="#63b8ff" points="272.82,-16.77 262.23,-16.51 270.35,-23.32 272.82,-16.77"/>
</a>
</g>
</g>
<!-- Node10&#45;&gt;Node7 -->
<g id="edge21_Node000010_Node000007" class="edge">
<title>Node10&#45;&gt;Node7</title>
<g id="a_edge21_Node000010_Node000007"><a xlink:title=" ">
<path fill="none" stroke="#63b8ff" d="M374.17,-109.98C386.77,-101.84 406,-89.41 420.94,-79.76"/>
<polygon fill="#63b8ff" stroke="#63b8ff" points="423.09,-82.54 429.59,-74.17 419.29,-76.66 423.09,-82.54"/>
</a>
</g>
</g>
<!-- Node11&#45;&gt;Node5 -->
<g id="edge23_Node000011_Node000005" class="edge">
<title>Node11&#45;&gt;Node5</title>
<g id="a_edge23_Node000011_Node000005"><a xlink:title=" ">
<path fill="none" stroke="#63b8ff" d="M522.4,-109.73C513.61,-96.5 495.46,-71.26 475,-55 457.93,-41.43 436.05,-30.34 418.38,-22.63"/>
<polygon fill="#63b8ff" stroke="#63b8ff" points="419.63,-19.36 409.06,-18.7 416.91,-25.81 419.63,-19.36"/>
</a>
</g>
</g>
<!-- Node11&#45;&gt;Node7 -->
<g id="edge24_Node000011_Node000007" class="edge">
<title>Node11&#45;&gt;Node7</title>
<g id="a_edge24_Node000011_Node000007"><a xlink:title=" ">
<path fill="none" stroke="#63b8ff" d="M514.34,-109.98C501.16,-101.77 480.97,-89.18 465.43,-79.49"/>
<polygon fill="#63b8ff" stroke="#63b8ff" points="467.24,-76.49 456.91,-74.17 463.54,-82.43 467.24,-76.49"/>
</a>
</g>
</g>
<!-- Node12&#45;&gt;Node5 -->
<g id="edge29_Node000012_Node000005" class="edge">
<title>Node12&#45;&gt;Node5</title>
<g id="a_edge29_Node000012_Node000005"><a xlink:title=" ">
<path fill="none" stroke="#63b8ff" d="M694.99,-109.93C692.86,-96.02 686.57,-68.71 669,-55 630.6,-25.03 484.92,-14.85 419.34,-11.74"/>
<polygon fill="#63b8ff" stroke="#63b8ff" points="419.31,-8.23 409.16,-11.28 419,-15.22 419.31,-8.23"/>
</a>
</g>
</g>
<!-- Node12&#45;&gt;Node7 -->
<g id="edge30_Node000012_Node000007" class="edge">
<title>Node12&#45;&gt;Node7</title>
<g id="a_edge30_Node000012_Node000007"><a xlink:title=" ">
<path fill="none" stroke="#63b8ff" d="M655.35,-109.98C605.74,-99.59 522.79,-82.21 476.61,-72.54"/>
<polygon fill="#63b8ff" stroke="#63b8ff" points="477.3,-69.11 466.8,-70.49 475.87,-75.96 477.3,-69.11"/>
</a>
</g>
</g>
<!-- Node12&#45;&gt;Node13 -->
<g id="edge26_Node000012_Node000013" class="edge">
<title>Node12&#45;&gt;Node13</title>
<g id="a_edge26_Node000012_Node000013"><a xlink:title=" ">
<path fill="none" stroke="#63b8ff" d="M682.34,-109.98C669.16,-101.77 648.97,-89.18 633.43,-79.49"/>
<polygon fill="#63b8ff" stroke="#63b8ff" points="635.24,-76.49 624.91,-74.17 631.54,-82.43 635.24,-76.49"/>
</a>
</g>
</g>
<!-- Node12&#45;&gt;Node14 -->
<g id="edge27_Node000012_Node000014" class="edge">
<title>Node12&#45;&gt;Node14</title>
<g id="a_edge27_Node000012_Node000014"><a xlink:title=" ">
<path fill="none" stroke="#63b8ff" d="M705.8,-109.98C714.82,-102.15 728.41,-90.34 739.32,-80.86"/>
<polygon fill="#63b8ff" stroke="#63b8ff" points="741.77,-83.37 747.02,-74.17 737.18,-78.09 741.77,-83.37"/>
</a>
</g>
</g>
<!-- Node12&#45;&gt;Node15 -->
<g id="edge28_Node000012_Node000015" class="edge">
<title>Node12&#45;&gt;Node15</title>
<g id="a_edge28_Node000012_Node000015"><a xlink:title=" ">
<path fill="none" stroke="#63b8ff" d="M724.6,-109.98C754.97,-100.94 803.1,-86.61 836.5,-76.67"/>
<polygon fill="#63b8ff" stroke="#63b8ff" points="837.77,-79.94 846.35,-73.73 835.77,-73.23 837.77,-79.94"/>
</a>
</g>
</g>
<!-- Node16&#45;&gt;Node15 -->
<g id="edge33_Node000016_Node000015" class="edge">
<title>Node16&#45;&gt;Node15</title>
<g id="a_edge33_Node000016_Node000015"><a xlink:title=" ">
<path fill="none" stroke="#63b8ff" d="M929.4,-109.98C919.54,-102.07 904.65,-90.11 892.78,-80.58"/>
<polygon fill="#63b8ff" stroke="#63b8ff" points="894.79,-77.7 884.8,-74.17 890.4,-83.16 894.79,-77.7"/>
</a>
</g>
</g>
<!-- Node17 -->
<g id="Node000017" class="node">
<title>Node17</title>
<g id="a_Node000017"><a xlink:title=" ">
<polygon fill="#e0e0e0" stroke="#999999" points="1049,-74 1005,-74 1005,-55 1049,-55 1049,-74"/>
<text text-anchor="middle" x="1027" y="-62" font-family="Helvetica,sans-Serif" font-size="10.00">mpi.h</text>
</a>
</g>
</g>
<!-- Node16&#45;&gt;Node17 -->
<g id="edge32_Node000016_Node000017" class="edge">
<title>Node16&#45;&gt;Node17</title>
<g id="a_edge32_Node000016_Node000017"><a xlink:title=" ">
<path fill="none" stroke="#63b8ff" d="M953.98,-109.98C967.47,-101.77 988.13,-89.18 1004.04,-79.49"/>
<polygon fill="#63b8ff" stroke="#63b8ff" points="1006.05,-82.36 1012.77,-74.17 1002.41,-76.38 1006.05,-82.36"/>
</a>
</g>
</g>
<!-- Node18 -->
<g id="Node000018" class="node">
<title>Node18</title>
<g id="a_Node000018"><a xlink:title=" ">
<polygon fill="#e0e0e0" stroke="#999999" points="986.5,-74 919.5,-74 919.5,-55 986.5,-55 986.5,-74"/>
<text text-anchor="middle" x="953" y="-62" font-family="Helvetica,sans-Serif" font-size="10.00">streambuf</text>
</a>
</g>
</g>
<!-- Node16&#45;&gt;Node18 -->
<g id="edge34_Node000016_Node000018" class="edge">
<title>Node16&#45;&gt;Node18</title>
<g id="a_edge34_Node000016_Node000018"><a xlink:title=" ">
<path fill="none" stroke="#63b8ff" d="M942.15,-109.75C943.87,-102.72 946.35,-92.62 948.5,-83.84"/>
<polygon fill="#63b8ff" stroke="#63b8ff" points="951.91,-84.63 950.89,-74.09 945.11,-82.97 951.91,-84.63"/>
</a>
</g>
</g>
</g>
</svg>
