<?xml version="1.0" encoding="UTF-8" standalone="no"?>
<!DOCTYPE svg PUBLIC "-//W3C//DTD SVG 1.1//EN"
 "http://www.w3.org/Graphics/SVG/1.1/DTD/svg11.dtd">
<!-- Generated by graphviz version 2.43.0 (0)
 -->
<!-- Title: ActuatorBulkFAST.h Pages: 1 -->
<svg width="631pt" height="196pt"
 viewBox="0.00 0.00 630.50 196.00" xmlns="http://www.w3.org/2000/svg" xmlns:xlink="http://www.w3.org/1999/xlink">
<g id="graph0" class="graph" transform="scale(1 1) rotate(0) translate(4 192)">
<title>ActuatorBulkFAST.h</title>
<polygon fill="white" stroke="transparent" points="-4,4 -4,-192 626.5,-192 626.5,4 -4,4"/>
<!-- Node1 -->
<g id="node1" class="node">
<title>Node1</title>
<g id="a_node1"><a xlink:title=" ">
<polygon fill="#bfbfbf" stroke="black" points="319.5,-168.5 319.5,-187.5 430.5,-187.5 430.5,-168.5 319.5,-168.5"/>
<text text-anchor="middle" x="375" y="-175.5" font-family="Helvetica,sans-Serif" font-size="10.00">ActuatorBulkFAST.h</text>
</a>
</g>
</g>
<!-- Node2 -->
<g id="node2" class="node">
<title>Node2</title>
<g id="a_node2"><a xlink:href="_actuator_bulk_disk_f_a_s_t_8h.html" target="_top" xlink:title=" ">
<polygon fill="white" stroke="black" points="158.5,-112.5 158.5,-131.5 291.5,-131.5 291.5,-112.5 158.5,-112.5"/>
<text text-anchor="middle" x="225" y="-119.5" font-family="Helvetica,sans-Serif" font-size="10.00">ActuatorBulkDiskFAST.h</text>
</a>
</g>
</g>
<!-- Node1&#45;&gt;Node2 -->
<g id="edge1" class="edge">
<title>Node1&#45;&gt;Node2</title>
<path fill="none" stroke="midnightblue" d="M341.78,-165.04C313.55,-154.88 273.74,-140.55 248.66,-131.52"/>
<polygon fill="midnightblue" stroke="midnightblue" points="340.64,-168.35 351.23,-168.44 343.01,-161.76 340.64,-168.35"/>
</g>
<!-- Node3 -->
<g id="node3" class="node">
<title>Node3</title>
<g id="a_node3"><a xlink:href="_actuator_executors_f_a_s_t_ngp_8h.html" target="_top" xlink:title=" ">
<polygon fill="white" stroke="black" points="0.5,-56.5 0.5,-75.5 157.5,-75.5 157.5,-56.5 0.5,-56.5"/>
<text text-anchor="middle" x="79" y="-63.5" font-family="Helvetica,sans-Serif" font-size="10.00">ActuatorExecutorsFASTNgp.h</text>
</a>
</g>
</g>
<!-- Node1&#45;&gt;Node3 -->
<g id="edge5" class="edge">
<title>Node1&#45;&gt;Node3</title>
<path fill="none" stroke="midnightblue" d="M309.24,-173.42C262.4,-168.66 199.11,-157.61 149,-132 121.53,-117.96 97.03,-90.01 85.68,-75.77"/>
<polygon fill="midnightblue" stroke="midnightblue" points="308.99,-176.92 319.28,-174.37 309.65,-169.95 308.99,-176.92"/>
</g>
<!-- Node6 -->
<g id="node6" class="node">
<title>Node6</title>
<g id="a_node6"><a xlink:href="_actuator_functors_f_a_s_t_8h.html" target="_top" xlink:title=" ">
<polygon fill="white" stroke="black" points="309.5,-112.5 309.5,-131.5 440.5,-131.5 440.5,-112.5 309.5,-112.5"/>
<text text-anchor="middle" x="375" y="-119.5" font-family="Helvetica,sans-Serif" font-size="10.00">ActuatorFunctorsFAST.h</text>
</a>
</g>
</g>
<!-- Node1&#45;&gt;Node6 -->
<g id="edge6" class="edge">
<title>Node1&#45;&gt;Node6</title>
<path fill="none" stroke="midnightblue" d="M375,-157.8C375,-148.91 375,-138.78 375,-131.75"/>
<polygon fill="midnightblue" stroke="midnightblue" points="371.5,-158.08 375,-168.08 378.5,-158.08 371.5,-158.08"/>
</g>
<!-- Node7 -->
<g id="node7" class="node">
<title>Node7</title>
<g id="a_node7"><a xlink:href="_actuator_bulk_f_a_s_t_8_c.html" target="_top" xlink:title=" ">
<polygon fill="white" stroke="black" points="478,-56.5 478,-75.5 590,-75.5 590,-56.5 478,-56.5"/>
<text text-anchor="middle" x="534" y="-63.5" font-family="Helvetica,sans-Serif" font-size="10.00">ActuatorBulkFAST.C</text>
</a>
</g>
</g>
<!-- Node1&#45;&gt;Node7 -->
<g id="edge11" class="edge">
<title>Node1&#45;&gt;Node7</title>
<path fill="none" stroke="midnightblue" d="M399.63,-163.21C414.49,-154.64 433.65,-143.17 450,-132 477.56,-113.17 508.14,-88.47 523.69,-75.62"/>
<polygon fill="midnightblue" stroke="midnightblue" points="397.51,-160.39 390.56,-168.38 400.98,-166.47 397.51,-160.39"/>
</g>
<!-- Node9 -->
<g id="node9" class="node">
<title>Node9</title>
<g id="a_node9"><a xlink:href="_actuator_parsing_f_a_s_t_8_c.html" target="_top" xlink:title=" ">
<polygon fill="white" stroke="black" points="497.5,-112.5 497.5,-131.5 622.5,-131.5 622.5,-112.5 497.5,-112.5"/>
<text text-anchor="middle" x="560" y="-119.5" font-family="Helvetica,sans-Serif" font-size="10.00">ActuatorParsingFAST.C</text>
</a>
</g>
</g>
<!-- Node1&#45;&gt;Node9 -->
<g id="edge12" class="edge">
<title>Node1&#45;&gt;Node9</title>
<path fill="none" stroke="midnightblue" d="M414.17,-165.57C449.07,-155.38 499.35,-140.7 530.82,-131.52"/>
<polygon fill="midnightblue" stroke="midnightblue" points="412.93,-162.28 404.31,-168.44 414.89,-169 412.93,-162.28"/>
</g>
<!-- Node2&#45;&gt;Node3 -->
<g id="edge2" class="edge">
<title>Node2&#45;&gt;Node3</title>
<path fill="none" stroke="midnightblue" d="M192.3,-108.91C164.85,-98.75 126.33,-84.51 102.03,-75.52"/>
<polygon fill="midnightblue" stroke="midnightblue" points="191.27,-112.26 201.87,-112.44 193.7,-105.69 191.27,-112.26"/>
</g>
<!-- Node5 -->
<g id="node5" class="node">
<title>Node5</title>
<g id="a_node5"><a xlink:href="_actuator_bulk_disk_f_a_s_t_8_c.html" target="_top" xlink:title=" ">
<polygon fill="white" stroke="black" points="176,-56.5 176,-75.5 310,-75.5 310,-56.5 176,-56.5"/>
<text text-anchor="middle" x="243" y="-63.5" font-family="Helvetica,sans-Serif" font-size="10.00">ActuatorBulkDiskFAST.C</text>
</a>
</g>
</g>
<!-- Node2&#45;&gt;Node5 -->
<g id="edge4" class="edge">
<title>Node2&#45;&gt;Node5</title>
<path fill="none" stroke="midnightblue" d="M231.2,-102.4C234.21,-93.36 237.69,-82.94 240.08,-75.75"/>
<polygon fill="midnightblue" stroke="midnightblue" points="227.81,-101.49 227.97,-112.08 234.46,-103.7 227.81,-101.49"/>
</g>
<!-- Node4 -->
<g id="node4" class="node">
<title>Node4</title>
<g id="a_node4"><a xlink:href="_actuator_executors_f_a_s_t_ngp_8_c.html" target="_top" xlink:title=" ">
<polygon fill="white" stroke="black" points="0,-0.5 0,-19.5 158,-19.5 158,-0.5 0,-0.5"/>
<text text-anchor="middle" x="79" y="-7.5" font-family="Helvetica,sans-Serif" font-size="10.00">ActuatorExecutorsFASTNgp.C</text>
</a>
</g>
</g>
<!-- Node3&#45;&gt;Node4 -->
<g id="edge3" class="edge">
<title>Node3&#45;&gt;Node4</title>
<path fill="none" stroke="midnightblue" d="M79,-45.8C79,-36.91 79,-26.78 79,-19.75"/>
<polygon fill="midnightblue" stroke="midnightblue" points="75.5,-46.08 79,-56.08 82.5,-46.08 75.5,-46.08"/>
</g>
<!-- Node6&#45;&gt;Node3 -->
<g id="edge7" class="edge">
<title>Node6&#45;&gt;Node3</title>
<path fill="none" stroke="midnightblue" d="M318,-110.6C262.06,-100.4 177.77,-85.02 125.68,-75.52"/>
<polygon fill="midnightblue" stroke="midnightblue" points="317.63,-114.09 328.1,-112.44 318.89,-107.21 317.63,-114.09"/>
</g>
<!-- Node6&#45;&gt;Node5 -->
<g id="edge8" class="edge">
<title>Node6&#45;&gt;Node5</title>
<path fill="none" stroke="midnightblue" d="M344.78,-108.64C320.01,-98.5 285.6,-84.43 263.82,-75.52"/>
<polygon fill="midnightblue" stroke="midnightblue" points="343.5,-111.9 354.08,-112.44 346.15,-105.42 343.5,-111.9"/>
</g>
<!-- Node6&#45;&gt;Node7 -->
<g id="edge9" class="edge">
<title>Node6&#45;&gt;Node7</title>
<path fill="none" stroke="midnightblue" d="M409.83,-109.17C439.77,-99 482.22,-84.59 508.92,-75.52"/>
<polygon fill="midnightblue" stroke="midnightblue" points="408.54,-105.91 400.19,-112.44 410.79,-112.54 408.54,-105.91"/>
</g>
<!-- Node8 -->
<g id="node8" class="node">
<title>Node8</title>
<g id="a_node8"><a xlink:href="_actuator_functors_f_a_s_t_8_c.html" target="_top" xlink:title=" ">
<polygon fill="white" stroke="black" points="328.5,-56.5 328.5,-75.5 459.5,-75.5 459.5,-56.5 328.5,-56.5"/>
<text text-anchor="middle" x="394" y="-63.5" font-family="Helvetica,sans-Serif" font-size="10.00">ActuatorFunctorsFAST.C</text>
</a>
</g>
</g>
<!-- Node6&#45;&gt;Node8 -->
<g id="edge10" class="edge">
<title>Node6&#45;&gt;Node8</title>
<path fill="none" stroke="midnightblue" d="M381.55,-102.4C384.72,-93.36 388.39,-82.94 390.92,-75.75"/>
<polygon fill="midnightblue" stroke="midnightblue" points="378.15,-101.49 378.14,-112.08 384.76,-103.81 378.15,-101.49"/>
</g>
</g>
</svg>
