<?xml version="1.0" encoding="UTF-8" standalone="no"?>
<!DOCTYPE svg PUBLIC "-//W3C//DTD SVG 1.1//EN"
 "http://www.w3.org/Graphics/SVG/1.1/DTD/svg11.dtd">
<!-- Generated by graphviz version 2.43.0 (0)
 -->
<!-- Title: ActuatorBulkDiskFAST.h Pages: 1 -->
<svg width="318pt" height="140pt"
 viewBox="0.00 0.00 318.00 140.00" xmlns="http://www.w3.org/2000/svg" xmlns:xlink="http://www.w3.org/1999/xlink">
<g id="graph0" class="graph" transform="scale(1 1) rotate(0) translate(4 136)">
<title>ActuatorBulkDiskFAST.h</title>
<polygon fill="white" stroke="transparent" points="-4,4 -4,-136 314,-136 314,4 -4,4"/>
<!-- Node1 -->
<g id="node1" class="node">
<title>Node1</title>
<g id="a_node1"><a xlink:title=" ">
<polygon fill="#bfbfbf" stroke="black" points="94.5,-112.5 94.5,-131.5 227.5,-131.5 227.5,-112.5 94.5,-112.5"/>
<text text-anchor="middle" x="161" y="-119.5" font-family="Helvetica,sans-Serif" font-size="10.00">ActuatorBulkDiskFAST.h</text>
</a>
</g>
</g>
<!-- Node2 -->
<g id="node2" class="node">
<title>Node2</title>
<g id="a_node2"><a xlink:href="_actuator_executors_f_a_s_t_ngp_8h.html" target="_top" xlink:title=" ">
<polygon fill="white" stroke="black" points="0.5,-56.5 0.5,-75.5 157.5,-75.5 157.5,-56.5 0.5,-56.5"/>
<text text-anchor="middle" x="79" y="-63.5" font-family="Helvetica,sans-Serif" font-size="10.00">ActuatorExecutorsFASTNgp.h</text>
</a>
</g>
</g>
<!-- Node1&#45;&gt;Node2 -->
<g id="edge1" class="edge">
<title>Node1&#45;&gt;Node2</title>
<path fill="none" stroke="midnightblue" d="M139.17,-106.62C124.19,-96.76 104.8,-83.99 92.14,-75.65"/>
<polygon fill="midnightblue" stroke="midnightblue" points="137.55,-109.75 147.83,-112.32 141.4,-103.9 137.55,-109.75"/>
</g>
<!-- Node4 -->
<g id="node4" class="node">
<title>Node4</title>
<g id="a_node4"><a xlink:href="_actuator_bulk_disk_f_a_s_t_8_c.html" target="_top" xlink:title=" ">
<polygon fill="white" stroke="black" points="176,-56.5 176,-75.5 310,-75.5 310,-56.5 176,-56.5"/>
<text text-anchor="middle" x="243" y="-63.5" font-family="Helvetica,sans-Serif" font-size="10.00">ActuatorBulkDiskFAST.C</text>
</a>
</g>
</g>
<!-- Node1&#45;&gt;Node4 -->
<g id="edge3" class="edge">
<title>Node1&#45;&gt;Node4</title>
<path fill="none" stroke="midnightblue" d="M182.83,-106.62C197.81,-96.76 217.2,-83.99 229.86,-75.65"/>
<polygon fill="midnightblue" stroke="midnightblue" points="180.6,-103.9 174.17,-112.32 184.45,-109.75 180.6,-103.9"/>
</g>
<!-- Node3 -->
<g id="node3" class="node">
<title>Node3</title>
<g id="a_node3"><a xlink:href="_actuator_executors_f_a_s_t_ngp_8_c.html" target="_top" xlink:title=" ">
<polygon fill="white" stroke="black" points="0,-0.5 0,-19.5 158,-19.5 158,-0.5 0,-0.5"/>
<text text-anchor="middle" x="79" y="-7.5" font-family="Helvetica,sans-Serif" font-size="10.00">ActuatorExecutorsFASTNgp.C</text>
</a>
</g>
</g>
<!-- Node2&#45;&gt;Node3 -->
<g id="edge2" class="edge">
<title>Node2&#45;&gt;Node3</title>
<path fill="none" stroke="midnightblue" d="M79,-45.8C79,-36.91 79,-26.78 79,-19.75"/>
<polygon fill="midnightblue" stroke="midnightblue" points="75.5,-46.08 79,-56.08 82.5,-46.08 75.5,-46.08"/>
</g>
</g>
</svg>
