<?xml version="1.0" encoding="UTF-8" standalone="no"?>
<!DOCTYPE svg PUBLIC "-//W3C//DTD SVG 1.1//EN"
 "http://www.w3.org/Graphics/SVG/1.1/DTD/svg11.dtd">
<!-- Generated by graphviz version 2.43.0 (0)
 -->
<!-- Title: ActuatorBulkSimple.h Pages: 1 -->
<svg width="832pt" height="192pt"
 viewBox="0.00 0.00 831.50 192.00" xmlns="http://www.w3.org/2000/svg" xmlns:xlink="http://www.w3.org/1999/xlink">
<g id="graph0" class="graph" transform="scale(1 1) rotate(0) translate(4 188)">
<title>ActuatorBulkSimple.h</title>
<!-- Node1 -->
<g id="Node000001" class="node">
<title>Node1</title>
<g id="a_Node000001"><a xlink:title=" ">
<polygon fill="#999999" stroke="#666666" points="476,-184 354,-184 354,-165 476,-165 476,-184"/>
<text text-anchor="middle" x="415" y="-172" font-family="Helvetica,sans-Serif" font-size="10.00">ActuatorBulkSimple.h</text>
</a>
</g>
</g>
<!-- Node2 -->
<g id="Node000002" class="node">
<title>Node2</title>
<g id="a_Node000002"><a xlink:href="_actuator_blade_distributor_8_c.html" target="_top" xlink:title=" ">
<polygon fill="white" stroke="#666666" points="146,-129 0,-129 0,-110 146,-110 146,-129"/>
<text text-anchor="middle" x="73" y="-117" font-family="Helvetica,sans-Serif" font-size="10.00">ActuatorBladeDistributor.C</text>
</a>
</g>
</g>
<!-- Node1&#45;&gt;Node2 -->
<g id="edge1_Node000001_Node000002" class="edge">
<title>Node1&#45;&gt;Node2</title>
<g id="a_edge1_Node000001_Node000002"><a xlink:title=" ">
<path fill="none" stroke="#63b8ff" d="M350.04,-163.43C285.82,-153.48 188.64,-138.42 128.1,-129.04"/>
<polygon fill="#63b8ff" stroke="#63b8ff" points="349.63,-166.91 360.05,-164.98 350.71,-159.99 349.63,-166.91"/>
</a>
</g>
</g>
<!-- Node3 -->
<g id="Node000003" class="node">
<title>Node3</title>
<g id="a_Node000003"><a xlink:href="_actuator_bulk_simple_8_c.html" target="_top" xlink:title=" ">
<polygon fill="white" stroke="#666666" points="287.5,-129 164.5,-129 164.5,-110 287.5,-110 287.5,-129"/>
<text text-anchor="middle" x="226" y="-117" font-family="Helvetica,sans-Serif" font-size="10.00">ActuatorBulkSimple.C</text>
</a>
</g>
</g>
<!-- Node1&#45;&gt;Node3 -->
<g id="edge2_Node000001_Node000003" class="edge">
<title>Node1&#45;&gt;Node3</title>
<g id="a_edge2_Node000001_Node000003"><a xlink:title=" ">
<path fill="none" stroke="#63b8ff" d="M374.65,-162.18C339.3,-152.27 288.7,-138.08 256.6,-129.08"/>
<polygon fill="#63b8ff" stroke="#63b8ff" points="374.06,-165.65 384.63,-164.98 375.95,-158.91 374.06,-165.65"/>
</a>
</g>
</g>
<!-- Node4 -->
<g id="Node000004" class="node">
<title>Node4</title>
<g id="a_Node000004"><a xlink:href="_actuator_executors_simple_ngp_8h.html" target="_top" xlink:title=" ">
<polygon fill="white" stroke="#666666" points="325.5,-74 158.5,-74 158.5,-55 325.5,-55 325.5,-74"/>
<text text-anchor="middle" x="242" y="-62" font-family="Helvetica,sans-Serif" font-size="10.00">ActuatorExecutorsSimpleNgp.h</text>
</a>
</g>
</g>
<!-- Node1&#45;&gt;Node4 -->
<g id="edge3_Node000001_Node000004" class="edge">
<title>Node1&#45;&gt;Node4</title>
<g id="a_edge3_Node000001_Node000004"><a xlink:title=" ">
<path fill="none" stroke="#63b8ff" d="M389.32,-159.99C373.46,-151.45 352.8,-140 335,-129 305.06,-110.51 271.25,-86.63 253.81,-74.08"/>
<polygon fill="#63b8ff" stroke="#63b8ff" points="388.04,-163.27 398.51,-164.9 391.33,-157.1 388.04,-163.27"/>
</a>
</g>
</g>
<!-- Node6 -->
<g id="Node000006" class="node">
<title>Node6</title>
<g id="a_Node000006"><a xlink:href="_actuator_model_8_c.html" target="_top" xlink:title=" ">
<polygon fill="white" stroke="#666666" points="503,-19 405,-19 405,0 503,0 503,-19"/>
<text text-anchor="middle" x="454" y="-7" font-family="Helvetica,sans-Serif" font-size="10.00">ActuatorModel.C</text>
</a>
</g>
</g>
<!-- Node1&#45;&gt;Node6 -->
<g id="edge9_Node000001_Node000006" class="edge">
<title>Node1&#45;&gt;Node6</title>
<g id="a_edge9_Node000001_Node000006"><a xlink:title=" ">
<path fill="none" stroke="#63b8ff" d="M455.37,-161.01C470.56,-154.12 486.26,-143.86 495,-129 511.67,-100.65 506.96,-85.64 495,-55 489.19,-40.13 475.83,-27.23 465.93,-19.2"/>
<polygon fill="#63b8ff" stroke="#63b8ff" points="453.94,-157.81 446.05,-164.87 456.62,-164.28 453.94,-157.81"/>
</a>
</g>
</g>
<!-- Node7 -->
<g id="Node000007" class="node">
<title>Node7</title>
<g id="a_Node000007"><a xlink:href="_actuator_functors_simple_8h.html" target="_top" xlink:title=" ">
<polygon fill="white" stroke="#666666" points="486,-129 344,-129 344,-110 486,-110 486,-129"/>
<text text-anchor="middle" x="415" y="-117" font-family="Helvetica,sans-Serif" font-size="10.00">ActuatorFunctorsSimple.h</text>
</a>
</g>
</g>
<!-- Node1&#45;&gt;Node7 -->
<g id="edge6_Node000001_Node000007" class="edge">
<title>Node1&#45;&gt;Node7</title>
<g id="a_edge6_Node000001_Node000007"><a xlink:title=" ">
<path fill="none" stroke="#63b8ff" d="M415,-154.66C415,-145.93 415,-135.99 415,-129.09"/>
<polygon fill="#63b8ff" stroke="#63b8ff" points="411.5,-154.75 415,-164.75 418.5,-154.75 411.5,-154.75"/>
</a>
</g>
</g>
<!-- Node9 -->
<g id="Node000009" class="node">
<title>Node9</title>
<g id="a_Node000009"><a xlink:href="_actuator_parsing_simple_8_c.html" target="_top" xlink:title=" ">
<polygon fill="white" stroke="#666666" points="680.5,-129 543.5,-129 543.5,-110 680.5,-110 680.5,-129"/>
<text text-anchor="middle" x="612" y="-117" font-family="Helvetica,sans-Serif" font-size="10.00">ActuatorParsingSimple.C</text>
</a>
</g>
</g>
<!-- Node1&#45;&gt;Node9 -->
<g id="edge10_Node000001_Node000009" class="edge">
<title>Node1&#45;&gt;Node9</title>
<g id="a_edge10_Node000001_Node000009"><a xlink:title=" ">
<path fill="none" stroke="#63b8ff" d="M456.59,-162.31C493.45,-152.39 546.5,-138.12 580.1,-129.08"/>
<polygon fill="#63b8ff" stroke="#63b8ff" points="455.4,-159.01 446.65,-164.98 457.22,-165.77 455.4,-159.01"/>
</a>
</g>
</g>
<!-- Node10 -->
<g id="Node000010" class="node">
<title>Node10</title>
<g id="a_Node000010"><a xlink:href="_actuator_scaling_f_l_l_c_8h.html" target="_top" xlink:title=" ">
<polygon fill="white" stroke="#666666" points="823.5,-129 698.5,-129 698.5,-110 823.5,-110 823.5,-129"/>
<text text-anchor="middle" x="761" y="-117" font-family="Helvetica,sans-Serif" font-size="10.00">ActuatorScalingFLLC.h</text>
</a>
</g>
</g>
<!-- Node1&#45;&gt;Node10 -->
<g id="edge11_Node000001_Node000010" class="edge">
<title>Node1&#45;&gt;Node10</title>
<g id="a_edge11_Node000001_Node000010"><a xlink:title=" ">
<path fill="none" stroke="#63b8ff" d="M480.72,-163.43C545.69,-153.48 644,-138.42 705.26,-129.04"/>
<polygon fill="#63b8ff" stroke="#63b8ff" points="479.95,-160.01 470.59,-164.98 481.01,-166.93 479.95,-160.01"/>
</a>
</g>
</g>
<!-- Node5 -->
<g id="Node000005" class="node">
<title>Node5</title>
<g id="a_Node000005"><a xlink:href="_actuator_executors_simple_ngp_8_c.html" target="_top" xlink:title=" ">
<polygon fill="white" stroke="#666666" points="326,-19 158,-19 158,0 326,0 326,-19"/>
<text text-anchor="middle" x="242" y="-7" font-family="Helvetica,sans-Serif" font-size="10.00">ActuatorExecutorsSimpleNgp.C</text>
</a>
</g>
</g>
<!-- Node4&#45;&gt;Node5 -->
<g id="edge4_Node000004_Node000005" class="edge">
<title>Node4&#45;&gt;Node5</title>
<g id="a_edge4_Node000004_Node000005"><a xlink:title=" ">
<path fill="none" stroke="#63b8ff" d="M242,-44.66C242,-35.93 242,-25.99 242,-19.09"/>
<polygon fill="#63b8ff" stroke="#63b8ff" points="238.5,-44.75 242,-54.75 245.5,-44.75 238.5,-44.75"/>
</a>
</g>
</g>
<!-- Node4&#45;&gt;Node6 -->
<g id="edge5_Node000004_Node000006" class="edge">
<title>Node4&#45;&gt;Node6</title>
<g id="a_edge5_Node000004_Node000006"><a xlink:title=" ">
<path fill="none" stroke="#63b8ff" d="M286,-52.5C325.69,-42.58 383.28,-28.18 419.67,-19.08"/>
<polygon fill="#63b8ff" stroke="#63b8ff" points="284.91,-49.16 276.06,-54.98 286.61,-55.95 284.91,-49.16"/>
</a>
</g>
</g>
<!-- Node7&#45;&gt;Node4 -->
<g id="edge7_Node000007_Node000004" class="edge">
<title>Node7&#45;&gt;Node4</title>
<g id="a_edge7_Node000007_Node000004"><a xlink:title=" ">
<path fill="none" stroke="#63b8ff" d="M377.23,-106.93C344.91,-97.03 299.14,-83.01 270.01,-74.08"/>
<polygon fill="#63b8ff" stroke="#63b8ff" points="376.62,-110.4 387.2,-109.98 378.67,-103.71 376.62,-110.4"/>
</a>
</g>
</g>
<!-- Node8 -->
<g id="Node000008" class="node">
<title>Node8</title>
<g id="a_Node000008"><a xlink:href="_actuator_functors_simple_8_c.html" target="_top" xlink:title=" ">
<polygon fill="white" stroke="#666666" points="486.5,-74 343.5,-74 343.5,-55 486.5,-55 486.5,-74"/>
<text text-anchor="middle" x="415" y="-62" font-family="Helvetica,sans-Serif" font-size="10.00">ActuatorFunctorsSimple.C</text>
</a>
</g>
</g>
<!-- Node7&#45;&gt;Node8 -->
<g id="edge8_Node000007_Node000008" class="edge">
<title>Node7&#45;&gt;Node8</title>
<g id="a_edge8_Node000007_Node000008"><a xlink:title=" ">
<path fill="none" stroke="#63b8ff" d="M415,-99.66C415,-90.93 415,-80.99 415,-74.09"/>
<polygon fill="#63b8ff" stroke="#63b8ff" points="411.5,-99.75 415,-109.75 418.5,-99.75 411.5,-99.75"/>
</a>
</g>
</g>
<!-- Node11 -->
<g id="Node000011" class="node">
<title>Node11</title>
<g id="a_Node000011"><a xlink:href="_actuator_f_l_l_c_8_c.html" target="_top" xlink:title=" ">
<polygon fill="white" stroke="#666666" points="806.5,-74 715.5,-74 715.5,-55 806.5,-55 806.5,-74"/>
<text text-anchor="middle" x="761" y="-62" font-family="Helvetica,sans-Serif" font-size="10.00">ActuatorFLLC.C</text>
</a>
</g>
</g>
<!-- Node10&#45;&gt;Node11 -->
<g id="edge12_Node000010_Node000011" class="edge">
<title>Node10&#45;&gt;Node11</title>
<g id="a_edge12_Node000010_Node000011"><a xlink:title=" ">
<path fill="none" stroke="#63b8ff" d="M761,-99.66C761,-90.93 761,-80.99 761,-74.09"/>
<polygon fill="#63b8ff" stroke="#63b8ff" points="757.5,-99.75 761,-109.75 764.5,-99.75 757.5,-99.75"/>
</a>
</g>
</g>
</g>
</svg>
