<?xml version="1.0" encoding="UTF-8" standalone="no"?>
<!DOCTYPE svg PUBLIC "-//W3C//DTD SVG 1.1//EN"
 "http://www.w3.org/Graphics/SVG/1.1/DTD/svg11.dtd">
<!-- Generated by graphviz version 2.43.0 (0)
 -->
<!-- Title: ActuatorBladeDistributor.h Pages: 1 -->
<svg width="972pt" height="302pt"
 viewBox="0.00 0.00 972.00 302.00" xmlns="http://www.w3.org/2000/svg" xmlns:xlink="http://www.w3.org/1999/xlink">
<g id="graph0" class="graph" transform="scale(1 1) rotate(0) translate(4 298)">
<title>ActuatorBladeDistributor.h</title>
<!-- Node1 -->
<g id="Node000001" class="node">
<title>Node1</title>
<g id="a_Node000001"><a xlink:title=" ">
<polygon fill="#999999" stroke="#666666" points="247,-294 101,-294 101,-275 247,-275 247,-294"/>
<text text-anchor="middle" x="174" y="-282" font-family="Helvetica,sans-Serif" font-size="10.00">ActuatorBladeDistributor.h</text>
</a>
</g>
</g>
<!-- Node2 -->
<g id="Node000002" class="node">
<title>Node2</title>
<g id="a_Node000002"><a xlink:href="_actuator_blade_distributor_8_c.html" target="_top" xlink:title=" ">
<polygon fill="white" stroke="#666666" points="146,-239 0,-239 0,-220 146,-220 146,-239"/>
<text text-anchor="middle" x="73" y="-227" font-family="Helvetica,sans-Serif" font-size="10.00">ActuatorBladeDistributor.C</text>
</a>
</g>
</g>
<!-- Node1&#45;&gt;Node2 -->
<g id="edge1_Node000001_Node000002" class="edge">
<title>Node1&#45;&gt;Node2</title>
<g id="a_edge1_Node000001_Node000002"><a xlink:title=" ">
<path fill="none" stroke="#63b8ff" d="M148.72,-270.23C130.2,-260.51 105.58,-247.6 89.52,-239.17"/>
<polygon fill="#63b8ff" stroke="#63b8ff" points="147.29,-273.44 157.77,-274.98 150.54,-267.24 147.29,-273.44"/>
</a>
</g>
</g>
<!-- Node3 -->
<g id="Node000003" class="node">
<title>Node3</title>
<g id="a_Node000003"><a xlink:href="_actuator_f_l_l_c_8_c.html" target="_top" xlink:title=" ">
<polygon fill="white" stroke="#666666" points="219.5,-184 128.5,-184 128.5,-165 219.5,-165 219.5,-184"/>
<text text-anchor="middle" x="174" y="-172" font-family="Helvetica,sans-Serif" font-size="10.00">ActuatorFLLC.C</text>
</a>
</g>
</g>
<!-- Node1&#45;&gt;Node3 -->
<g id="edge2_Node000001_Node000003" class="edge">
<title>Node1&#45;&gt;Node3</title>
<g id="a_edge2_Node000001_Node000003"><a xlink:title=" ">
<path fill="none" stroke="#63b8ff" d="M174,-264.48C174,-240.84 174,-201.5 174,-184.16"/>
<polygon fill="#63b8ff" stroke="#63b8ff" points="170.5,-264.66 174,-274.66 177.5,-264.66 170.5,-264.66"/>
</a>
</g>
</g>
<!-- Node4 -->
<g id="Node000004" class="node">
<title>Node4</title>
<g id="a_Node000004"><a xlink:href="_actuator_f_l_l_c_8h.html" target="_top" xlink:title=" ">
<polygon fill="white" stroke="#666666" points="293,-239 203,-239 203,-220 293,-220 293,-239"/>
<text text-anchor="middle" x="248" y="-227" font-family="Helvetica,sans-Serif" font-size="10.00">ActuatorFLLC.h</text>
</a>
</g>
</g>
<!-- Node1&#45;&gt;Node4 -->
<g id="edge3_Node000001_Node000004" class="edge">
<title>Node1&#45;&gt;Node4</title>
<g id="a_edge3_Node000001_Node000004"><a xlink:title=" ">
<path fill="none" stroke="#63b8ff" d="M194.03,-269.15C207.41,-259.57 224.56,-247.29 235.89,-239.17"/>
<polygon fill="#63b8ff" stroke="#63b8ff" points="191.98,-266.32 185.89,-274.98 196.06,-272.01 191.98,-266.32"/>
</a>
</g>
</g>
<!-- Node4&#45;&gt;Node3 -->
<g id="edge18_Node000004_Node000003" class="edge">
<title>Node4&#45;&gt;Node3</title>
<g id="a_edge18_Node000004_Node000003"><a xlink:title=" ">
<path fill="none" stroke="#63b8ff" d="M227.97,-214.15C214.59,-204.57 197.44,-192.29 186.11,-184.17"/>
<polygon fill="#63b8ff" stroke="#63b8ff" points="225.94,-217.01 236.11,-219.98 230.02,-211.32 225.94,-217.01"/>
</a>
</g>
</g>
<!-- Node5 -->
<g id="Node000005" class="node">
<title>Node5</title>
<g id="a_Node000005"><a xlink:href="_actuator_executor_8h.html" target="_top" xlink:title=" ">
<polygon fill="white" stroke="#666666" points="560,-184 452,-184 452,-165 560,-165 560,-184"/>
<text text-anchor="middle" x="506" y="-172" font-family="Helvetica,sans-Serif" font-size="10.00">ActuatorExecutor.h</text>
</a>
</g>
</g>
<!-- Node4&#45;&gt;Node5 -->
<g id="edge4_Node000004_Node000005" class="edge">
<title>Node4&#45;&gt;Node5</title>
<g id="a_edge4_Node000004_Node000005"><a xlink:title=" ">
<path fill="none" stroke="#63b8ff" d="M299.4,-217.94C347.76,-208.01 419.28,-193.31 464.22,-184.08"/>
<polygon fill="#63b8ff" stroke="#63b8ff" points="298.54,-214.54 289.45,-219.98 299.95,-221.4 298.54,-214.54"/>
</a>
</g>
</g>
<!-- Node10 -->
<g id="Node000010" class="node">
<title>Node10</title>
<g id="a_Node000010"><a xlink:href="_actuator_executors_simple_ngp_8_c.html" target="_top" xlink:title=" ">
<polygon fill="white" stroke="#666666" points="332,-74 164,-74 164,-55 332,-55 332,-74"/>
<text text-anchor="middle" x="248" y="-62" font-family="Helvetica,sans-Serif" font-size="10.00">ActuatorExecutorsSimpleNgp.C</text>
</a>
</g>
</g>
<!-- Node4&#45;&gt;Node10 -->
<g id="edge17_Node000004_Node000010" class="edge">
<title>Node4&#45;&gt;Node10</title>
<g id="a_edge17_Node000004_Node000010"><a xlink:title=" ">
<path fill="none" stroke="#63b8ff" d="M248,-209.37C248,-174.03 248,-99.79 248,-74.31"/>
<polygon fill="#63b8ff" stroke="#63b8ff" points="244.5,-209.74 248,-219.74 251.5,-209.74 244.5,-209.74"/>
</a>
</g>
</g>
<!-- Node12 -->
<g id="Node000012" class="node">
<title>Node12</title>
<g id="a_Node000012"><a xlink:href="_actuator_model_8h.html" target="_top" xlink:title=" ">
<polygon fill="white" stroke="#666666" points="860.5,-129 763.5,-129 763.5,-110 860.5,-110 860.5,-129"/>
<text text-anchor="middle" x="812" y="-117" font-family="Helvetica,sans-Serif" font-size="10.00">ActuatorModel.h</text>
</a>
</g>
</g>
<!-- Node4&#45;&gt;Node12 -->
<g id="edge19_Node000004_Node000012" class="edge">
<title>Node4&#45;&gt;Node12</title>
<g id="a_edge19_Node000004_Node000012"><a xlink:title=" ">
<path fill="none" stroke="#63b8ff" d="M303.51,-222.82C367.77,-215.77 476.62,-202.41 569,-184 647.68,-168.32 738.79,-142.38 783.82,-129.02"/>
<polygon fill="#63b8ff" stroke="#63b8ff" points="302.77,-219.38 293.2,-223.93 303.52,-226.34 302.77,-219.38"/>
</a>
</g>
</g>
<!-- Node6 -->
<g id="Node000006" class="node">
<title>Node6</title>
<g id="a_Node000006"><a xlink:href="_actuator_executor_8_c.html" target="_top" xlink:title=" ">
<polygon fill="white" stroke="#666666" points="560.5,-129 451.5,-129 451.5,-110 560.5,-110 560.5,-129"/>
<text text-anchor="middle" x="506" y="-117" font-family="Helvetica,sans-Serif" font-size="10.00">ActuatorExecutor.C</text>
</a>
</g>
</g>
<!-- Node5&#45;&gt;Node6 -->
<g id="edge5_Node000005_Node000006" class="edge">
<title>Node5&#45;&gt;Node6</title>
<g id="a_edge5_Node000005_Node000006"><a xlink:title=" ">
<path fill="none" stroke="#63b8ff" d="M506,-154.66C506,-145.93 506,-135.99 506,-129.09"/>
<polygon fill="#63b8ff" stroke="#63b8ff" points="502.5,-154.75 506,-164.75 509.5,-154.75 502.5,-154.75"/>
</a>
</g>
</g>
<!-- Node7 -->
<g id="Node000007" class="node">
<title>Node7</title>
<g id="a_Node000007"><a xlink:href="_actuator_executors_f_a_s_t_ngp_8h.html" target="_top" xlink:title=" ">
<polygon fill="white" stroke="#666666" points="433.5,-129 276.5,-129 276.5,-110 433.5,-110 433.5,-129"/>
<text text-anchor="middle" x="355" y="-117" font-family="Helvetica,sans-Serif" font-size="10.00">ActuatorExecutorsFASTNgp.h</text>
</a>
</g>
</g>
<!-- Node5&#45;&gt;Node7 -->
<g id="edge6_Node000005_Node000007" class="edge">
<title>Node5&#45;&gt;Node7</title>
<g id="a_edge6_Node000005_Node000007"><a xlink:title=" ">
<path fill="none" stroke="#63b8ff" d="M471.95,-161.55C443.91,-151.71 404.82,-137.98 379.7,-129.17"/>
<polygon fill="#63b8ff" stroke="#63b8ff" points="471.14,-164.98 481.74,-164.98 473.46,-158.37 471.14,-164.98"/>
</a>
</g>
</g>
<!-- Node9 -->
<g id="Node000009" class="node">
<title>Node9</title>
<g id="a_Node000009"><a xlink:href="_actuator_executors_simple_ngp_8h.html" target="_top" xlink:title=" ">
<polygon fill="white" stroke="#666666" points="745.5,-129 578.5,-129 578.5,-110 745.5,-110 745.5,-129"/>
<text text-anchor="middle" x="662" y="-117" font-family="Helvetica,sans-Serif" font-size="10.00">ActuatorExecutorsSimpleNgp.h</text>
</a>
</g>
</g>
<!-- Node5&#45;&gt;Node9 -->
<g id="edge8_Node000005_Node000009" class="edge">
<title>Node5&#45;&gt;Node9</title>
<g id="a_edge8_Node000005_Node000009"><a xlink:title=" ">
<path fill="none" stroke="#63b8ff" d="M540.82,-161.67C569.91,-151.79 610.7,-137.93 636.74,-129.08"/>
<polygon fill="#63b8ff" stroke="#63b8ff" points="539.41,-158.45 531.06,-164.98 541.66,-165.08 539.41,-158.45"/>
</a>
</g>
</g>
<!-- Node5&#45;&gt;Node12 -->
<g id="edge11_Node000005_Node000012" class="edge">
<title>Node5&#45;&gt;Node12</title>
<g id="a_edge11_Node000005_Node000012"><a xlink:title=" ">
<path fill="none" stroke="#63b8ff" d="M565.24,-163.24C622.97,-153.24 709.69,-138.22 763.46,-128.91"/>
<polygon fill="#63b8ff" stroke="#63b8ff" points="564.42,-159.83 555.16,-164.98 565.61,-166.73 564.42,-159.83"/>
</a>
</g>
</g>
<!-- Node8 -->
<g id="Node000008" class="node">
<title>Node8</title>
<g id="a_Node000008"><a xlink:href="_actuator_executors_f_a_s_t_ngp_8_c.html" target="_top" xlink:title=" ">
<polygon fill="white" stroke="#666666" points="508,-74 350,-74 350,-55 508,-55 508,-74"/>
<text text-anchor="middle" x="429" y="-62" font-family="Helvetica,sans-Serif" font-size="10.00">ActuatorExecutorsFASTNgp.C</text>
</a>
</g>
</g>
<!-- Node7&#45;&gt;Node8 -->
<g id="edge7_Node000007_Node000008" class="edge">
<title>Node7&#45;&gt;Node8</title>
<g id="a_edge7_Node000007_Node000008"><a xlink:title=" ">
<path fill="none" stroke="#63b8ff" d="M375.03,-104.15C388.41,-94.57 405.56,-82.29 416.89,-74.17"/>
<polygon fill="#63b8ff" stroke="#63b8ff" points="372.98,-101.32 366.89,-109.98 377.06,-107.01 372.98,-101.32"/>
</a>
</g>
</g>
<!-- Node9&#45;&gt;Node10 -->
<g id="edge9_Node000009_Node000010" class="edge">
<title>Node9&#45;&gt;Node10</title>
<g id="a_edge9_Node000009_Node000010"><a xlink:title=" ">
<path fill="none" stroke="#63b8ff" d="M585.27,-108.68C507.57,-98.73 388.59,-83.5 314.69,-74.04"/>
<polygon fill="#63b8ff" stroke="#63b8ff" points="585.12,-112.19 595.48,-109.98 586.01,-105.24 585.12,-112.19"/>
</a>
</g>
</g>
<!-- Node11 -->
<g id="Node000011" class="node">
<title>Node11</title>
<g id="a_Node000011"><a xlink:href="_actuator_model_8_c.html" target="_top" xlink:title=" ">
<polygon fill="white" stroke="#666666" points="728,-74 630,-74 630,-55 728,-55 728,-74"/>
<text text-anchor="middle" x="679" y="-62" font-family="Helvetica,sans-Serif" font-size="10.00">ActuatorModel.C</text>
</a>
</g>
</g>
<!-- Node9&#45;&gt;Node11 -->
<g id="edge10_Node000009_Node000011" class="edge">
<title>Node9&#45;&gt;Node11</title>
<g id="a_edge10_Node000009_Node000011"><a xlink:title=" ">
<path fill="none" stroke="#63b8ff" d="M667.95,-99.95C670.77,-91.15 674.01,-81.06 676.25,-74.09"/>
<polygon fill="#63b8ff" stroke="#63b8ff" points="664.53,-99.16 664.81,-109.75 671.19,-101.29 664.53,-99.16"/>
</a>
</g>
</g>
<!-- Node12&#45;&gt;Node11 -->
<g id="edge12_Node000012_Node000011" class="edge">
<title>Node12&#45;&gt;Node11</title>
<g id="a_edge12_Node000012_Node000011"><a xlink:title=" ">
<path fill="none" stroke="#63b8ff" d="M781.03,-106.16C756.41,-96.35 722.59,-82.87 700.76,-74.17"/>
<polygon fill="#63b8ff" stroke="#63b8ff" points="780.05,-109.53 790.63,-109.98 782.64,-103.03 780.05,-109.53"/>
</a>
</g>
</g>
<!-- Node13 -->
<g id="Node000013" class="node">
<title>Node13</title>
<g id="a_Node000013"><a xlink:href="_aero_container_8h.html" target="_top" xlink:title=" ">
<polygon fill="white" stroke="#666666" points="859.5,-74 764.5,-74 764.5,-55 859.5,-55 859.5,-74"/>
<text text-anchor="middle" x="812" y="-62" font-family="Helvetica,sans-Serif" font-size="10.00">AeroContainer.h</text>
</a>
</g>
</g>
<!-- Node12&#45;&gt;Node13 -->
<g id="edge13_Node000012_Node000013" class="edge">
<title>Node12&#45;&gt;Node13</title>
<g id="a_edge13_Node000012_Node000013"><a xlink:title=" ">
<path fill="none" stroke="#63b8ff" d="M812,-99.66C812,-90.93 812,-80.99 812,-74.09"/>
<polygon fill="#63b8ff" stroke="#63b8ff" points="808.5,-99.75 812,-109.75 815.5,-99.75 808.5,-99.75"/>
</a>
</g>
</g>
<!-- Node14 -->
<g id="Node000014" class="node">
<title>Node14</title>
<g id="a_Node000014"><a xlink:href="_aero_container_8_c.html" target="_top" xlink:title=" ">
<polygon fill="white" stroke="#666666" points="717.5,-19 622.5,-19 622.5,0 717.5,0 717.5,-19"/>
<text text-anchor="middle" x="670" y="-7" font-family="Helvetica,sans-Serif" font-size="10.00">AeroContainer.C</text>
</a>
</g>
</g>
<!-- Node13&#45;&gt;Node14 -->
<g id="edge14_Node000013_Node000014" class="edge">
<title>Node13&#45;&gt;Node14</title>
<g id="a_edge14_Node000013_Node000014"><a xlink:title=" ">
<path fill="none" stroke="#63b8ff" d="M779.64,-51.42C753.29,-41.59 716.74,-27.95 693.23,-19.17"/>
<polygon fill="#63b8ff" stroke="#63b8ff" points="778.59,-54.77 789.19,-54.98 781.04,-48.21 778.59,-54.77"/>
</a>
</g>
</g>
<!-- Node15 -->
<g id="Node000015" class="node">
<title>Node15</title>
<g id="a_Node000015"><a xlink:href="_low_mach_equation_system_8_c.html" target="_top" xlink:title=" ">
<polygon fill="white" stroke="#666666" points="888,-19 736,-19 736,0 888,0 888,-19"/>
<text text-anchor="middle" x="812" y="-7" font-family="Helvetica,sans-Serif" font-size="10.00">LowMachEquationSystem.C</text>
</a>
</g>
</g>
<!-- Node13&#45;&gt;Node15 -->
<g id="edge15_Node000013_Node000015" class="edge">
<title>Node13&#45;&gt;Node15</title>
<g id="a_edge15_Node000013_Node000015"><a xlink:title=" ">
<path fill="none" stroke="#63b8ff" d="M812,-44.66C812,-35.93 812,-25.99 812,-19.09"/>
<polygon fill="#63b8ff" stroke="#63b8ff" points="808.5,-44.75 812,-54.75 815.5,-44.75 808.5,-44.75"/>
</a>
</g>
</g>
<!-- Node16 -->
<g id="Node000016" class="node">
<title>Node16</title>
<g id="a_Node000016"><a xlink:href="_realm_8_c.html" target="_top" xlink:title=" ">
<polygon fill="white" stroke="#666666" points="964,-19 906,-19 906,0 964,0 964,-19"/>
<text text-anchor="middle" x="935" y="-7" font-family="Helvetica,sans-Serif" font-size="10.00">Realm.C</text>
</a>
</g>
</g>
<!-- Node13&#45;&gt;Node16 -->
<g id="edge16_Node000013_Node000016" class="edge">
<title>Node13&#45;&gt;Node16</title>
<g id="a_edge16_Node000013_Node000016"><a xlink:title=" ">
<path fill="none" stroke="#63b8ff" d="M841.25,-50.9C863.97,-41.11 894.87,-27.79 914.88,-19.17"/>
<polygon fill="#63b8ff" stroke="#63b8ff" points="839.56,-47.81 831.76,-54.98 842.33,-54.24 839.56,-47.81"/>
</a>
</g>
</g>
</g>
</svg>
