<?xml version="1.0" encoding="UTF-8" standalone="no"?>
<!DOCTYPE svg PUBLIC "-//W3C//DTD SVG 1.1//EN"
 "http://www.w3.org/Graphics/SVG/1.1/DTD/svg11.dtd">
<!-- Generated by graphviz version 2.43.0 (0)
 -->
<!-- Title: ActuatorFLLC.h Pages: 1 -->
<svg width="466pt" height="151pt"
 viewBox="0.00 0.00 466.42 151.00" xmlns="http://www.w3.org/2000/svg" xmlns:xlink="http://www.w3.org/1999/xlink">
<g id="graph0" class="graph" transform="scale(1 1) rotate(0) translate(4 147)">
<title>ActuatorFLLC.h</title>
<polygon fill="white" stroke="transparent" points="-4,4 -4,-147 462.42,-147 462.42,4 -4,4"/>
<!-- Node1 -->
<g id="node1" class="node">
<title>Node1</title>
<g id="a_node1"><a xlink:title=" ">
<polygon fill="#bfbfbf" stroke="black" points="269,-123.5 269,-142.5 359,-142.5 359,-123.5 269,-123.5"/>
<text text-anchor="middle" x="314" y="-130.5" font-family="Helvetica,sans-Serif" font-size="10.00">ActuatorFLLC.h</text>
</a>
</g>
</g>
<!-- Node2 -->
<g id="node2" class="node">
<title>Node2</title>
<g id="a_node2"><a xlink:href="_actuator_types_8h.html" target="_top" xlink:title=" ">
<polygon fill="white" stroke="black" points="70.5,-62 70.5,-81 233.5,-81 233.5,-62 70.5,-62"/>
<text text-anchor="middle" x="152" y="-69" font-family="Helvetica,sans-Serif" font-size="10.00">aero/actuator/ActuatorTypes.h</text>
</a>
</g>
</g>
<!-- Node1&#45;&gt;Node2 -->
<g id="edge1" class="edge">
<title>Node1&#45;&gt;Node2</title>
<path fill="none" stroke="midnightblue" d="M290.79,-123.48C263,-113.27 216.28,-96.11 184.81,-84.55"/>
<polygon fill="midnightblue" stroke="midnightblue" points="185.76,-81.17 175.17,-81.01 183.35,-87.74 185.76,-81.17"/>
</g>
<!-- Node5 -->
<g id="node5" class="node">
<title>Node5</title>
<g id="a_node5"><a xlink:href="_actuator_blade_distributor_8h.html" target="_top" xlink:title=" ">
<polygon fill="white" stroke="black" points="290,-56.5 290,-86.5 444,-86.5 444,-56.5 290,-56.5"/>
<text text-anchor="start" x="298" y="-74.5" font-family="Helvetica,sans-Serif" font-size="10.00">aero/actuator/ActuatorBlade</text>
<text text-anchor="middle" x="367" y="-63.5" font-family="Helvetica,sans-Serif" font-size="10.00">Distributor.h</text>
</a>
</g>
</g>
<!-- Node1&#45;&gt;Node5 -->
<g id="edge4" class="edge">
<title>Node1&#45;&gt;Node5</title>
<path fill="none" stroke="midnightblue" d="M321.59,-123.48C328.37,-115.87 338.59,-104.4 347.61,-94.26"/>
<polygon fill="midnightblue" stroke="midnightblue" points="350.47,-96.32 354.51,-86.52 345.24,-91.66 350.47,-96.32"/>
</g>
<!-- Node6 -->
<g id="node6" class="node">
<title>Node6</title>
<g id="a_node6"><a xlink:title=" ">
<polygon fill="white" stroke="#bfbfbf" points="315.5,-0.5 315.5,-19.5 362.5,-19.5 362.5,-0.5 315.5,-0.5"/>
<text text-anchor="middle" x="339" y="-7.5" font-family="Helvetica,sans-Serif" font-size="10.00">vector</text>
</a>
</g>
</g>
<!-- Node1&#45;&gt;Node6 -->
<g id="edge7" class="edge">
<title>Node1&#45;&gt;Node6</title>
<path fill="none" stroke="midnightblue" d="M305.31,-123.45C291.98,-109.26 269.23,-80.03 281,-56 287.52,-42.68 300.1,-32.18 311.87,-24.68"/>
<polygon fill="midnightblue" stroke="midnightblue" points="313.77,-27.62 320.61,-19.53 310.22,-21.59 313.77,-27.62"/>
</g>
<!-- Node7 -->
<g id="node7" class="node">
<title>Node7</title>
<g id="a_node7"><a xlink:title=" ">
<polygon fill="white" stroke="#bfbfbf" points="400.5,-0.5 400.5,-19.5 445.5,-19.5 445.5,-0.5 400.5,-0.5"/>
<text text-anchor="middle" x="423" y="-7.5" font-family="Helvetica,sans-Serif" font-size="10.00">utility</text>
</a>
</g>
</g>
<!-- Node1&#45;&gt;Node7 -->
<g id="edge8" class="edge">
<title>Node1&#45;&gt;Node7</title>
<path fill="none" stroke="midnightblue" d="M359.2,-130.54C391.08,-126.86 431.74,-116.23 453,-87 466.36,-68.63 451.28,-43.52 438.1,-27.27"/>
<polygon fill="midnightblue" stroke="midnightblue" points="440.73,-24.96 431.55,-19.67 435.43,-29.53 440.73,-24.96"/>
</g>
<!-- Node3 -->
<g id="node3" class="node">
<title>Node3</title>
<g id="a_node3"><a xlink:title=" ">
<polygon fill="white" stroke="#bfbfbf" points="0,-0.5 0,-19.5 100,-19.5 100,-0.5 0,-0.5"/>
<text text-anchor="middle" x="50" y="-7.5" font-family="Helvetica,sans-Serif" font-size="10.00">Kokkos_Core.hpp</text>
</a>
</g>
</g>
<!-- Node2&#45;&gt;Node3 -->
<g id="edge2" class="edge">
<title>Node2&#45;&gt;Node3</title>
<path fill="none" stroke="midnightblue" d="M137.39,-61.98C120.65,-52.21 93,-36.08 73.28,-24.58"/>
<polygon fill="midnightblue" stroke="midnightblue" points="74.99,-21.52 64.59,-19.51 71.46,-27.57 74.99,-21.52"/>
</g>
<!-- Node4 -->
<g id="node4" class="node">
<title>Node4</title>
<g id="a_node4"><a xlink:title=" ">
<polygon fill="white" stroke="#bfbfbf" points="118.5,-0.5 118.5,-19.5 241.5,-19.5 241.5,-0.5 118.5,-0.5"/>
<text text-anchor="middle" x="180" y="-7.5" font-family="Helvetica,sans-Serif" font-size="10.00">Kokkos_DualView.hpp</text>
</a>
</g>
</g>
<!-- Node2&#45;&gt;Node4 -->
<g id="edge3" class="edge">
<title>Node2&#45;&gt;Node4</title>
<path fill="none" stroke="midnightblue" d="M156.01,-61.98C160.09,-53.32 166.52,-39.65 171.7,-28.65"/>
<polygon fill="midnightblue" stroke="midnightblue" points="174.9,-30.05 176,-19.51 168.57,-27.07 174.9,-30.05"/>
</g>
<!-- Node5&#45;&gt;Node6 -->
<g id="edge5" class="edge">
<title>Node5&#45;&gt;Node6</title>
<path fill="none" stroke="midnightblue" d="M360.36,-56.4C356.46,-48.11 351.5,-37.55 347.33,-28.71"/>
<polygon fill="midnightblue" stroke="midnightblue" points="350.5,-27.22 343.07,-19.66 344.17,-30.2 350.5,-27.22"/>
</g>
<!-- Node5&#45;&gt;Node7 -->
<g id="edge6" class="edge">
<title>Node5&#45;&gt;Node7</title>
<path fill="none" stroke="midnightblue" d="M380.27,-56.4C388.58,-47.58 399.3,-36.18 407.92,-27.02"/>
<polygon fill="midnightblue" stroke="midnightblue" points="410.55,-29.34 414.85,-19.66 405.45,-24.54 410.55,-29.34"/>
</g>
</g>
</svg>
