<?xml version="1.0" encoding="UTF-8" standalone="no"?>
<!DOCTYPE svg PUBLIC "-//W3C//DTD SVG 1.1//EN"
 "http://www.w3.org/Graphics/SVG/1.1/DTD/svg11.dtd">
<!-- Generated by graphviz version 2.43.0 (0)
 -->
<!-- Title: ActuatorExecutor.h Pages: 1 -->
<!--zoomable 263 -->
<svg id="main" version="1.1" xmlns="http://www.w3.org/2000/svg" xmlns:xlink="http://www.w3.org/1999/xlink" xml:space="preserve" onload="init(evt)">
<style type="text/css"><![CDATA[
.edge:hover path { stroke: red; }
.edge:hover polygon { stroke: red; fill: red; }
]]></style>
<script type="text/javascript"><![CDATA[
var edges = document.getElementsByTagName('g');
if (edges && edges.length) {
  for (var i=0;i<edges.length;i++) {
    if (edges[i].id.substr(0,4)=='edge') {
      edges[i].setAttribute('class','edge');
    }
  }
}
]]></script>
        <defs>
                <circle id="rim" cx="0" cy="0" r="7"/>
                <circle id="rim2" cx="0" cy="0" r="3.5"/>
                <g id="zoomPlus">
                        <use xlink:href="#rim" fill="#404040">
                                <set attributeName="fill" to="#808080" begin="zoomplus.mouseover" end="zoomplus.mouseout"/>
                        </use>
                        <path d="M-4,0h8M0,-4v8" fill="none" stroke="white" stroke-width="1.5" pointer-events="none"/>
                </g>
                <g id="zoomMin">
                        <use xlink:href="#rim" fill="#404040">
                                <set attributeName="fill" to="#808080" begin="zoomminus.mouseover" end="zoomminus.mouseout"/>
                        </use>
                        <path d="M-4,0h8" fill="none" stroke="white" stroke-width="1.5" pointer-events="none"/>
                </g>
                <g id="dirArrow">
                        <path fill="none" stroke="white" stroke-width="1.5" d="M0,-3.0v7 M-2.5,-0.5L0,-3.0L2.5,-0.5"/>
                </g>
               <g id="resetDef">
                       <use xlink:href="#rim2" fill="#404040">
                               <set attributeName="fill" to="#808080" begin="reset.mouseover" end="reset.mouseout"/>
                       </use>
               </g>
        </defs>

<script type="text/javascript">
var viewWidth = 1177;
var viewHeight = 263;
var sectionId = 'dynsection-0';
</script>
<script xlink:href="svgpan.js"/>
<svg id="graph" class="graph">
<g id="viewport">
<title>ActuatorExecutor.h</title>
<polygon fill="white" stroke="transparent" points="-4,4 -4,-259 1172.5,-259 1172.5,4 -4,4"/>
<!-- Node1 -->
<g id="node1" class="node">
<title>Node1</title>
<g id="a_node1"><a xlink:title=" ">
<polygon fill="#bfbfbf" stroke="black" points="215.5,-235.5 215.5,-254.5 323.5,-254.5 323.5,-235.5 215.5,-235.5"/>
<text text-anchor="middle" x="269.5" y="-242.5" font-family="Helvetica,sans-Serif" font-size="10.00">ActuatorExecutor.h</text>
</a>
</g>
</g>
<!-- Node2 -->
<g id="node2" class="node">
<title>Node2</title>
<g id="a_node2"><a xlink:href="_actuator_f_l_l_c_8h.html" target="_top" xlink:title=" ">
<polygon fill="white" stroke="black" points="102.5,-179.5 102.5,-198.5 260.5,-198.5 260.5,-179.5 102.5,-179.5"/>
<text text-anchor="middle" x="181.5" y="-186.5" font-family="Helvetica,sans-Serif" font-size="10.00">aero/actuator/ActuatorFLLC.h</text>
</a>
</g>
</g>
<!-- Node1&#45;&gt;Node2 -->
<g id="edge1" class="edge">
<title>Node1&#45;&gt;Node2</title>
<path fill="none" stroke="midnightblue" d="M255.36,-235.32C241.63,-226.9 220.56,-213.97 204.44,-204.07"/>
<polygon fill="midnightblue" stroke="midnightblue" points="205.96,-200.9 195.6,-198.65 202.3,-206.87 205.96,-200.9"/>
</g>
<!-- Node9 -->
<g id="node9" class="node">
<title>Node9</title>
<g id="a_node9"><a xlink:href="_actuator_bulk_8h.html" target="_top" xlink:title=" ">
<polygon fill="white" stroke="black" points="279,-179.5 279,-198.5 436,-198.5 436,-179.5 279,-179.5"/>
<text text-anchor="middle" x="357.5" y="-186.5" font-family="Helvetica,sans-Serif" font-size="10.00">aero/actuator/ActuatorBulk.h</text>
</a>
</g>
</g>
<!-- Node1&#45;&gt;Node9 -->
<g id="edge10" class="edge">
<title>Node1&#45;&gt;Node9</title>
<path fill="none" stroke="midnightblue" d="M283.64,-235.32C297.37,-226.9 318.44,-213.97 334.56,-204.07"/>
<polygon fill="midnightblue" stroke="midnightblue" points="336.7,-206.87 343.4,-198.65 333.04,-200.9 336.7,-206.87"/>
</g>
<!-- Node3 -->
<g id="node3" class="node">
<title>Node3</title>
<g id="a_node3"><a xlink:href="_actuator_types_8h.html" target="_top" xlink:title=" ">
<polygon fill="white" stroke="black" points="158,-56.5 158,-75.5 321,-75.5 321,-56.5 158,-56.5"/>
<text text-anchor="middle" x="239.5" y="-63.5" font-family="Helvetica,sans-Serif" font-size="10.00">aero/actuator/ActuatorTypes.h</text>
</a>
</g>
</g>
<!-- Node2&#45;&gt;Node3 -->
<g id="edge2" class="edge">
<title>Node2&#45;&gt;Node3</title>
<path fill="none" stroke="midnightblue" d="M189.51,-179.31C197.12,-170.67 208.4,-156.75 215.5,-143 225,-124.6 231.59,-101.73 235.43,-85.92"/>
<polygon fill="midnightblue" stroke="midnightblue" points="238.93,-86.34 237.75,-75.81 232.1,-84.78 238.93,-86.34"/>
</g>
<!-- Node6 -->
<g id="node6" class="node">
<title>Node6</title>
<g id="a_node6"><a xlink:href="_actuator_blade_distributor_8h.html" target="_top" xlink:title=" ">
<polygon fill="white" stroke="black" points="19.5,-112.5 19.5,-142.5 173.5,-142.5 173.5,-112.5 19.5,-112.5"/>
<text text-anchor="start" x="27.5" y="-130.5" font-family="Helvetica,sans-Serif" font-size="10.00">aero/actuator/ActuatorBlade</text>
<text text-anchor="middle" x="96.5" y="-119.5" font-family="Helvetica,sans-Serif" font-size="10.00">Distributor.h</text>
</a>
</g>
</g>
<!-- Node2&#45;&gt;Node6 -->
<g id="edge5" class="edge">
<title>Node2&#45;&gt;Node6</title>
<path fill="none" stroke="midnightblue" d="M169.32,-179.48C157.81,-171.42 140.1,-159.02 125.03,-148.47"/>
<polygon fill="midnightblue" stroke="midnightblue" points="126.73,-145.39 116.53,-142.52 122.72,-151.12 126.73,-145.39"/>
</g>
<!-- Node7 -->
<g id="node7" class="node">
<title>Node7</title>
<g id="a_node7"><a xlink:title=" ">
<polygon fill="white" stroke="#bfbfbf" points="93,-56.5 93,-75.5 140,-75.5 140,-56.5 93,-56.5"/>
<text text-anchor="middle" x="116.5" y="-63.5" font-family="Helvetica,sans-Serif" font-size="10.00">vector</text>
</a>
</g>
</g>
<!-- Node2&#45;&gt;Node7 -->
<g id="edge8" class="edge">
<title>Node2&#45;&gt;Node7</title>
<path fill="none" stroke="midnightblue" d="M184.13,-179.4C188.12,-164.64 194.09,-133.93 182.5,-112 175.08,-97.95 161.08,-87.47 147.88,-80.17"/>
<polygon fill="midnightblue" stroke="midnightblue" points="149.46,-77.04 138.96,-75.62 146.28,-83.28 149.46,-77.04"/>
</g>
<!-- Node8 -->
<g id="node8" class="node">
<title>Node8</title>
<g id="a_node8"><a xlink:title=" ">
<polygon fill="white" stroke="#bfbfbf" points="0,-56.5 0,-75.5 45,-75.5 45,-56.5 0,-56.5"/>
<text text-anchor="middle" x="22.5" y="-63.5" font-family="Helvetica,sans-Serif" font-size="10.00">utility</text>
</a>
</g>
</g>
<!-- Node2&#45;&gt;Node8 -->
<g id="edge9" class="edge">
<title>Node2&#45;&gt;Node8</title>
<path fill="none" stroke="midnightblue" d="M117.89,-179.45C74.96,-172.22 23.81,-160.26 10.5,-143 -2.33,-126.35 5.14,-101.46 12.81,-84.75"/>
<polygon fill="midnightblue" stroke="midnightblue" points="16.07,-86.05 17.43,-75.54 9.82,-82.91 16.07,-86.05"/>
</g>
<!-- Node4 -->
<g id="node4" class="node">
<title>Node4</title>
<g id="a_node4"><a xlink:title=" ">
<polygon fill="white" stroke="#bfbfbf" points="299.5,-0.5 299.5,-19.5 399.5,-19.5 399.5,-0.5 299.5,-0.5"/>
<text text-anchor="middle" x="349.5" y="-7.5" font-family="Helvetica,sans-Serif" font-size="10.00">Kokkos_Core.hpp</text>
</a>
</g>
</g>
<!-- Node3&#45;&gt;Node4 -->
<g id="edge3" class="edge">
<title>Node3&#45;&gt;Node4</title>
<path fill="none" stroke="midnightblue" d="M257.17,-56.32C274.89,-47.62 302.4,-34.12 322.79,-24.11"/>
<polygon fill="midnightblue" stroke="midnightblue" points="324.44,-27.2 331.87,-19.65 321.35,-20.92 324.44,-27.2"/>
</g>
<!-- Node5 -->
<g id="node5" class="node">
<title>Node5</title>
<g id="a_node5"><a xlink:title=" ">
<polygon fill="white" stroke="#bfbfbf" points="158,-0.5 158,-19.5 281,-19.5 281,-0.5 158,-0.5"/>
<text text-anchor="middle" x="219.5" y="-7.5" font-family="Helvetica,sans-Serif" font-size="10.00">Kokkos_DualView.hpp</text>
</a>
</g>
</g>
<!-- Node3&#45;&gt;Node5 -->
<g id="edge4" class="edge">
<title>Node3&#45;&gt;Node5</title>
<path fill="none" stroke="midnightblue" d="M236.2,-56.08C233.52,-48.85 229.65,-38.41 226.31,-29.4"/>
<polygon fill="midnightblue" stroke="midnightblue" points="229.5,-27.91 222.74,-19.75 222.93,-30.34 229.5,-27.91"/>
</g>
<!-- Node6&#45;&gt;Node7 -->
<g id="edge6" class="edge">
<title>Node6&#45;&gt;Node7</title>
<path fill="none" stroke="midnightblue" d="M101.24,-112.4C103.97,-104.29 107.42,-94.01 110.36,-85.28"/>
<polygon fill="midnightblue" stroke="midnightblue" points="113.72,-86.25 113.59,-75.66 107.09,-84.02 113.72,-86.25"/>
</g>
<!-- Node6&#45;&gt;Node8 -->
<g id="edge7" class="edge">
<title>Node6&#45;&gt;Node8</title>
<path fill="none" stroke="midnightblue" d="M78.96,-112.4C67.66,-103.31 52.96,-91.49 41.39,-82.19"/>
<polygon fill="midnightblue" stroke="midnightblue" points="43.25,-79.2 33.27,-75.66 38.87,-84.65 43.25,-79.2"/>
</g>
<!-- Node9&#45;&gt;Node3 -->
<g id="edge11" class="edge">
<title>Node9&#45;&gt;Node3</title>
<path fill="none" stroke="midnightblue" d="M352.09,-179.41C342.55,-164.66 321.66,-133.97 299.5,-112 288.01,-100.6 273.53,-89.66 261.67,-81.42"/>
<polygon fill="midnightblue" stroke="midnightblue" points="263.45,-78.4 253.21,-75.69 259.52,-84.2 263.45,-78.4"/>
</g>
<!-- Node9&#45;&gt;Node7 -->
<g id="edge22" class="edge">
<title>Node9&#45;&gt;Node7</title>
<path fill="none" stroke="midnightblue" d="M340.55,-179.49C299.17,-158.71 192.71,-105.27 142.92,-80.26"/>
<polygon fill="midnightblue" stroke="midnightblue" points="144.26,-77.02 133.75,-75.66 141.12,-83.28 144.26,-77.02"/>
</g>
<!-- Node10 -->
<g id="node10" class="node">
<title>Node10</title>
<g id="a_node10"><a xlink:href="_actuator_search_8h.html" target="_top" xlink:title=" ">
<polygon fill="white" stroke="black" points="372.5,-118 372.5,-137 540.5,-137 540.5,-118 372.5,-118"/>
<text text-anchor="middle" x="456.5" y="-125" font-family="Helvetica,sans-Serif" font-size="10.00">aero/actuator/ActuatorSearch.h</text>
</a>
</g>
</g>
<!-- Node9&#45;&gt;Node10 -->
<g id="edge12" class="edge">
<title>Node9&#45;&gt;Node10</title>
<path fill="none" stroke="midnightblue" d="M371.68,-179.48C387.86,-169.75 414.53,-153.73 433.64,-142.24"/>
<polygon fill="midnightblue" stroke="midnightblue" points="435.57,-145.16 442.34,-137.01 431.97,-139.16 435.57,-145.16"/>
</g>
<!-- Node15 -->
<g id="node15" class="node">
<title>Node15</title>
<g id="a_node15"><a xlink:href="_enums_8h.html" target="_top" xlink:title=" ">
<polygon fill="white" stroke="black" points="1061,-118 1061,-137 1120,-137 1120,-118 1061,-118"/>
<text text-anchor="middle" x="1090.5" y="-125" font-family="Helvetica,sans-Serif" font-size="10.00">Enums.h</text>
</a>
</g>
</g>
<!-- Node9&#45;&gt;Node15 -->
<g id="edge19" class="edge">
<title>Node9&#45;&gt;Node15</title>
<path fill="none" stroke="midnightblue" d="M436.29,-181.6C591.91,-168.97 933.73,-141.23 1050.48,-131.75"/>
<polygon fill="midnightblue" stroke="midnightblue" points="1051.07,-135.21 1060.75,-130.91 1050.5,-128.24 1051.07,-135.21"/>
</g>
<!-- Node10&#45;&gt;Node3 -->
<g id="edge13" class="edge">
<title>Node10&#45;&gt;Node3</title>
<path fill="none" stroke="midnightblue" d="M425.41,-117.98C387.22,-107.5 322.33,-89.71 280.2,-78.16"/>
<polygon fill="midnightblue" stroke="midnightblue" points="281.1,-74.78 270.53,-75.51 279.25,-81.53 281.1,-74.78"/>
</g>
<!-- Node10&#45;&gt;Node4 -->
<g id="edge15" class="edge">
<title>Node10&#45;&gt;Node4</title>
<path fill="none" stroke="midnightblue" d="M430.16,-117.87C410.16,-110 383.45,-96.45 367.5,-76 357.04,-62.59 352.66,-43.49 350.82,-29.46"/>
<polygon fill="midnightblue" stroke="midnightblue" points="354.3,-29.1 349.83,-19.5 347.34,-29.8 354.3,-29.1"/>
</g>
<!-- Node11 -->
<g id="node11" class="node">
<title>Node11</title>
<g id="a_node11"><a xlink:title=" ">
<polygon fill="white" stroke="#bfbfbf" points="377,-56.5 377,-75.5 536,-75.5 536,-56.5 377,-56.5"/>
<text text-anchor="middle" x="456.5" y="-63.5" font-family="Helvetica,sans-Serif" font-size="10.00">stk_mesh/base/BulkData.hpp</text>
</a>
</g>
</g>
<!-- Node10&#45;&gt;Node11 -->
<g id="edge14" class="edge">
<title>Node10&#45;&gt;Node11</title>
<path fill="none" stroke="midnightblue" d="M456.5,-117.98C456.5,-109.58 456.5,-96.48 456.5,-85.66"/>
<polygon fill="midnightblue" stroke="midnightblue" points="460,-85.51 456.5,-75.51 453,-85.51 460,-85.51"/>
</g>
<!-- Node12 -->
<g id="node12" class="node">
<title>Node12</title>
<g id="a_node12"><a xlink:title=" ">
<polygon fill="white" stroke="#bfbfbf" points="553.5,-56.5 553.5,-75.5 711.5,-75.5 711.5,-56.5 553.5,-56.5"/>
<text text-anchor="middle" x="632.5" y="-63.5" font-family="Helvetica,sans-Serif" font-size="10.00">stk_search/BoundingBox.hpp</text>
</a>
</g>
</g>
<!-- Node10&#45;&gt;Node12 -->
<g id="edge16" class="edge">
<title>Node10&#45;&gt;Node12</title>
<path fill="none" stroke="midnightblue" d="M481.72,-117.98C512.17,-107.68 563.55,-90.31 597.74,-78.75"/>
<polygon fill="midnightblue" stroke="midnightblue" points="598.98,-82.03 607.33,-75.51 596.74,-75.4 598.98,-82.03"/>
</g>
<!-- Node13 -->
<g id="node13" class="node">
<title>Node13</title>
<g id="a_node13"><a xlink:title=" ">
<polygon fill="white" stroke="#bfbfbf" points="730,-56.5 730,-75.5 869,-75.5 869,-56.5 730,-56.5"/>
<text text-anchor="middle" x="799.5" y="-63.5" font-family="Helvetica,sans-Serif" font-size="10.00">stk_search/IdentProc.hpp</text>
</a>
</g>
</g>
<!-- Node10&#45;&gt;Node13 -->
<g id="edge17" class="edge">
<title>Node10&#45;&gt;Node13</title>
<path fill="none" stroke="midnightblue" d="M505.64,-117.98C567.66,-107.22 674.23,-88.73 740.56,-77.22"/>
<polygon fill="midnightblue" stroke="midnightblue" points="741.19,-80.67 750.45,-75.51 740,-73.77 741.19,-80.67"/>
</g>
<!-- Node14 -->
<g id="node14" class="node">
<title>Node14</title>
<g id="a_node14"><a xlink:title=" ">
<polygon fill="white" stroke="#bfbfbf" points="887,-56.5 887,-75.5 1050,-75.5 1050,-56.5 887,-56.5"/>
<text text-anchor="middle" x="968.5" y="-63.5" font-family="Helvetica,sans-Serif" font-size="10.00">stk_search/SearchMethod.hpp</text>
</a>
</g>
</g>
<!-- Node10&#45;&gt;Node14 -->
<g id="edge18" class="edge">
<title>Node10&#45;&gt;Node14</title>
<path fill="none" stroke="midnightblue" d="M529.86,-117.98C623.86,-107.05 786.42,-88.16 885.05,-76.7"/>
<polygon fill="midnightblue" stroke="midnightblue" points="885.75,-80.14 895.28,-75.51 884.94,-73.19 885.75,-80.14"/>
</g>
<!-- Node16 -->
<g id="node16" class="node">
<title>Node16</title>
<g id="a_node16"><a xlink:title=" ">
<polygon fill="white" stroke="#bfbfbf" points="1068.5,-56.5 1068.5,-75.5 1112.5,-75.5 1112.5,-56.5 1068.5,-56.5"/>
<text text-anchor="middle" x="1090.5" y="-63.5" font-family="Helvetica,sans-Serif" font-size="10.00">string</text>
</a>
</g>
</g>
<!-- Node15&#45;&gt;Node16 -->
<g id="edge20" class="edge">
<title>Node15&#45;&gt;Node16</title>
<path fill="none" stroke="midnightblue" d="M1090.5,-117.98C1090.5,-109.58 1090.5,-96.48 1090.5,-85.66"/>
<polygon fill="midnightblue" stroke="midnightblue" points="1094,-85.51 1090.5,-75.51 1087,-85.51 1094,-85.51"/>
</g>
<!-- Node17 -->
<g id="node17" class="node">
<title>Node17</title>
<g id="a_node17"><a xlink:title=" ">
<polygon fill="white" stroke="#bfbfbf" points="1130.5,-56.5 1130.5,-75.5 1168.5,-75.5 1168.5,-56.5 1130.5,-56.5"/>
<text text-anchor="middle" x="1149.5" y="-63.5" font-family="Helvetica,sans-Serif" font-size="10.00">map</text>
</a>
</g>
</g>
<!-- Node15&#45;&gt;Node17 -->
<g id="edge21" class="edge">
<title>Node15&#45;&gt;Node17</title>
<path fill="none" stroke="midnightblue" d="M1098.95,-117.98C1108.07,-108.78 1122.77,-93.96 1133.98,-82.66"/>
<polygon fill="midnightblue" stroke="midnightblue" points="1136.51,-85.07 1141.06,-75.51 1131.54,-80.15 1136.51,-85.07"/>
</g>
</g>
</svg>
        <g id="navigator" transform="translate(0 0)" fill="#404254">
                <rect fill="#f2f5e9" fill-opacity="0.5" stroke="#606060" stroke-width=".5" x="0" y="0" width="60" height="60"/>
                <use id="zoomplus" xlink:href="#zoomPlus" x="17" y="9" onmousedown="handleZoom(evt,'in')"/>
                <use id="zoomminus" xlink:href="#zoomMin" x="42" y="9" onmousedown="handleZoom(evt,'out')"/>
                <use id="reset" xlink:href="#resetDef" x="30" y="36" onmousedown="handleReset()"/>
                <g id="arrowUp" xlink:href="#dirArrow" transform="translate(30 24)" onmousedown="handlePan(0,-1)">
                  <use xlink:href="#rim" fill="#404040">
                        <set attributeName="fill" to="#808080" begin="arrowUp.mouseover" end="arrowUp.mouseout"/>
                  </use>
                  <path fill="none" stroke="white" stroke-width="1.5" d="M0,-3.0v7 M-2.5,-0.5L0,-3.0L2.5,-0.5"/>
                </g>
                <g id="arrowRight" xlink:href="#dirArrow" transform="rotate(90) translate(36 -43)" onmousedown="handlePan(1,0)">
                  <use xlink:href="#rim" fill="#404040">
                        <set attributeName="fill" to="#808080" begin="arrowRight.mouseover" end="arrowRight.mouseout"/>
                  </use>
                  <path fill="none" stroke="white" stroke-width="1.5" d="M0,-3.0v7 M-2.5,-0.5L0,-3.0L2.5,-0.5"/>
                </g>
                <g id="arrowDown" xlink:href="#dirArrow" transform="rotate(180) translate(-30 -48)" onmousedown="handlePan(0,1)">
                  <use xlink:href="#rim" fill="#404040">
                        <set attributeName="fill" to="#808080" begin="arrowDown.mouseover" end="arrowDown.mouseout"/>
                  </use>
                  <path fill="none" stroke="white" stroke-width="1.5" d="M0,-3.0v7 M-2.5,-0.5L0,-3.0L2.5,-0.5"/>
                </g>
                <g id="arrowLeft" xlink:href="#dirArrow" transform="rotate(270) translate(-36 17)" onmousedown="handlePan(-1,0)">
                  <use xlink:href="#rim" fill="#404040">
                        <set attributeName="fill" to="#808080" begin="arrowLeft.mouseover" end="arrowLeft.mouseout"/>
                  </use>
                  <path fill="none" stroke="white" stroke-width="1.5" d="M0,-3.0v7 M-2.5,-0.5L0,-3.0L2.5,-0.5"/>
                </g>
        </g>
        <svg viewBox="0 0 15 15" width="100%" height="30px" preserveAspectRatio="xMaxYMin meet">
         <g id="arrow_out" transform="scale(0.3 0.3)">
          <a xlink:href="_actuator_executor_8h__incl_org.svg" target="_base">
           <rect id="button" ry="5" rx="5" y="6" x="6" height="38" width="38"
                fill="#f2f5e9" fill-opacity="0.5" stroke="#606060" stroke-width="1.0"/>
           <path id="arrow"
             d="M 11.500037,31.436501 C 11.940474,20.09759 22.043105,11.32322 32.158766,21.979434 L 37.068811,17.246167 C 37.068811,17.246167 37.088388,32 37.088388,32 L 22.160133,31.978069 C 22.160133,31.978069 26.997745,27.140456 26.997745,27.140456 C 18.528582,18.264221 13.291696,25.230495 11.500037,31.436501 z"
             style="fill:#404040;"/>
          </a>
         </g>
        </svg>
</svg>
