<?xml version="1.0" encoding="UTF-8" standalone="no"?>
<!DOCTYPE svg PUBLIC "-//W3C//DTD SVG 1.1//EN"
 "http://www.w3.org/Graphics/SVG/1.1/DTD/svg11.dtd">
<!-- Generated by graphviz version 2.43.0 (0)
 -->
<!-- Title: ActuatorExecutorsSimpleNgp.C Pages: 1 -->
<svg width="3565pt" height="587pt"
 viewBox="0.00 0.00 3564.94 587.00" xmlns="http://www.w3.org/2000/svg" xmlns:xlink="http://www.w3.org/1999/xlink">
<g id="graph0" class="graph" transform="scale(1 1) rotate(0) translate(4 583)">
<title>ActuatorExecutorsSimpleNgp.C</title>
<polygon fill="white" stroke="transparent" points="-4,4 -4,-583 3560.94,-583 3560.94,4 -4,4"/>
<!-- Node1 -->
<g id="node1" class="node">
<title>Node1</title>
<g id="a_node1"><a xlink:title=" ">
<polygon fill="#bfbfbf" stroke="black" points="2717.5,-559.5 2717.5,-578.5 2885.5,-578.5 2885.5,-559.5 2717.5,-559.5"/>
<text text-anchor="middle" x="2801.5" y="-566.5" font-family="Helvetica,sans-Serif" font-size="10.00">ActuatorExecutorsSimpleNgp.C</text>
</a>
</g>
</g>
<!-- Node2 -->
<g id="node2" class="node">
<title>Node2</title>
<g id="a_node2"><a xlink:href="_actuator_executors_simple_ngp_8h.html" target="_top" xlink:title=" ">
<polygon fill="white" stroke="black" points="2567,-492.5 2567,-522.5 2740,-522.5 2740,-492.5 2567,-492.5"/>
<text text-anchor="start" x="2575" y="-510.5" font-family="Helvetica,sans-Serif" font-size="10.00">aero/actuator/ActuatorExecutors</text>
<text text-anchor="middle" x="2653.5" y="-499.5" font-family="Helvetica,sans-Serif" font-size="10.00">SimpleNgp.h</text>
</a>
</g>
</g>
<!-- Node1&#45;&gt;Node2 -->
<g id="edge1" class="edge">
<title>Node1&#45;&gt;Node2</title>
<path fill="none" stroke="midnightblue" d="M2780.3,-559.48C2758.85,-550.85 2725.05,-537.26 2697.74,-526.29"/>
<polygon fill="midnightblue" stroke="midnightblue" points="2698.96,-523.01 2688.38,-522.52 2696.35,-529.5 2698.96,-523.01"/>
</g>
<!-- Node54 -->
<g id="node48" class="node">
<title>Node54</title>
<g id="a_node48"><a xlink:href="_actuator_f_l_l_c_8h.html" target="_top" xlink:title=" ">
<polygon fill="white" stroke="black" points="3350.5,-235.5 3350.5,-254.5 3508.5,-254.5 3508.5,-235.5 3350.5,-235.5"/>
<text text-anchor="middle" x="3429.5" y="-242.5" font-family="Helvetica,sans-Serif" font-size="10.00">aero/actuator/ActuatorFLLC.h</text>
</a>
</g>
</g>
<!-- Node1&#45;&gt;Node54 -->
<g id="edge79" class="edge">
<title>Node1&#45;&gt;Node54</title>
<path fill="none" stroke="midnightblue" d="M2885.5,-565.28C3035.42,-558.13 3333.5,-532.46 3333.5,-441.5 3333.5,-441.5 3333.5,-441.5 3333.5,-372.5 3333.5,-323.53 3379.72,-281.61 3408.02,-260.54"/>
<polygon fill="midnightblue" stroke="midnightblue" points="3410.08,-263.37 3416.15,-254.68 3405.99,-257.69 3410.08,-263.37"/>
</g>
<!-- Node3 -->
<g id="node3" class="node">
<title>Node3</title>
<g id="a_node3"><a xlink:href="_actuator_bulk_simple_8h.html" target="_top" xlink:title=" ">
<polygon fill="white" stroke="black" points="2722.5,-358.5 2722.5,-388.5 2870.5,-388.5 2870.5,-358.5 2722.5,-358.5"/>
<text text-anchor="start" x="2730.5" y="-376.5" font-family="Helvetica,sans-Serif" font-size="10.00">aero/actuator/ActuatorBulk</text>
<text text-anchor="middle" x="2796.5" y="-365.5" font-family="Helvetica,sans-Serif" font-size="10.00">Simple.h</text>
</a>
</g>
</g>
<!-- Node2&#45;&gt;Node3 -->
<g id="edge2" class="edge">
<title>Node2&#45;&gt;Node3</title>
<path fill="none" stroke="midnightblue" d="M2668.8,-492.37C2693.96,-469.15 2744.2,-422.78 2773.6,-395.64"/>
<polygon fill="midnightblue" stroke="midnightblue" points="2776.33,-397.88 2781.31,-388.52 2771.58,-392.74 2776.33,-397.88"/>
</g>
<!-- Node17 -->
<g id="node17" class="node">
<title>Node17</title>
<g id="a_node17"><a xlink:href="_actuator_functors_simple_8h.html" target="_top" xlink:title=" ">
<polygon fill="white" stroke="black" points="2506,-425.5 2506,-455.5 2673,-455.5 2673,-425.5 2506,-425.5"/>
<text text-anchor="start" x="2514" y="-443.5" font-family="Helvetica,sans-Serif" font-size="10.00">aero/actuator/ActuatorFunctors</text>
<text text-anchor="middle" x="2589.5" y="-432.5" font-family="Helvetica,sans-Serif" font-size="10.00">Simple.h</text>
</a>
</g>
</g>
<!-- Node2&#45;&gt;Node17 -->
<g id="edge18" class="edge">
<title>Node2&#45;&gt;Node17</title>
<path fill="none" stroke="midnightblue" d="M2639.61,-492.4C2631.14,-483.79 2620.15,-472.63 2610.61,-462.94"/>
<polygon fill="midnightblue" stroke="midnightblue" points="2612.87,-460.25 2603.36,-455.58 2607.88,-465.16 2612.87,-460.25"/>
</g>
<!-- Node20 -->
<g id="node20" class="node">
<title>Node20</title>
<g id="a_node20"><a xlink:href="_utilities_actuator_8h.html" target="_top" xlink:title=" ">
<polygon fill="white" stroke="black" points="855,-235.5 855,-254.5 1028,-254.5 1028,-235.5 855,-235.5"/>
<text text-anchor="middle" x="941.5" y="-242.5" font-family="Helvetica,sans-Serif" font-size="10.00">aero/actuator/UtilitiesActuator.h</text>
</a>
</g>
</g>
<!-- Node2&#45;&gt;Node20 -->
<g id="edge68" class="edge">
<title>Node2&#45;&gt;Node20</title>
<path fill="none" stroke="midnightblue" d="M2566.84,-493.31C2266.36,-447.59 1273.1,-296.46 1007.37,-256.02"/>
<polygon fill="midnightblue" stroke="midnightblue" points="1007.9,-252.56 997.48,-254.52 1006.84,-259.48 1007.9,-252.56"/>
</g>
<!-- Node33 -->
<g id="node29" class="node">
<title>Node33</title>
<g id="a_node29"><a xlink:title=" ">
<polygon fill="white" stroke="#bfbfbf" points="775.5,-112.5 775.5,-131.5 833.5,-131.5 833.5,-112.5 775.5,-112.5"/>
<text text-anchor="middle" x="804.5" y="-119.5" font-family="Helvetica,sans-Serif" font-size="10.00">memory</text>
</a>
</g>
</g>
<!-- Node2&#45;&gt;Node33 -->
<g id="edge78" class="edge">
<title>Node2&#45;&gt;Node33</title>
<path fill="none" stroke="midnightblue" d="M2566.85,-506.33C2138.59,-504.91 268.5,-492.01 268.5,-374.5 268.5,-374.5 268.5,-374.5 268.5,-244 268.5,-209.18 260.92,-190.49 287.5,-168 326.21,-135.24 692.1,-137.65 742.5,-132 749.86,-131.18 757.68,-130.15 765.21,-129.1"/>
<polygon fill="midnightblue" stroke="midnightblue" points="765.82,-132.55 775.22,-127.65 764.82,-125.62 765.82,-132.55"/>
</g>
<!-- Node53 -->
<g id="node47" class="node">
<title>Node53</title>
<g id="a_node47"><a xlink:href="_actuator_executor_8h.html" target="_top" xlink:title=" ">
<polygon fill="white" stroke="black" points="2888.5,-364 2888.5,-383 3064.5,-383 3064.5,-364 2888.5,-364"/>
<text text-anchor="middle" x="2976.5" y="-371" font-family="Helvetica,sans-Serif" font-size="10.00">aero/actuator/ActuatorExecutor.h</text>
</a>
</g>
</g>
<!-- Node2&#45;&gt;Node53 -->
<g id="edge69" class="edge">
<title>Node2&#45;&gt;Node53</title>
<path fill="none" stroke="midnightblue" d="M2687.76,-492.5C2751.13,-466.6 2885.66,-411.63 2946.04,-386.95"/>
<polygon fill="midnightblue" stroke="midnightblue" points="2947.48,-390.14 2955.41,-383.12 2944.83,-383.66 2947.48,-390.14"/>
</g>
<!-- Node4 -->
<g id="node4" class="node">
<title>Node4</title>
<g id="a_node4"><a xlink:href="_actuator_bulk_8h.html" target="_top" xlink:title=" ">
<polygon fill="white" stroke="black" points="2723,-297 2723,-316 2880,-316 2880,-297 2723,-297"/>
<text text-anchor="middle" x="2801.5" y="-304" font-family="Helvetica,sans-Serif" font-size="10.00">aero/actuator/ActuatorBulk.h</text>
</a>
</g>
</g>
<!-- Node3&#45;&gt;Node4 -->
<g id="edge3" class="edge">
<title>Node3&#45;&gt;Node4</title>
<path fill="none" stroke="midnightblue" d="M2797.58,-358.4C2798.31,-348.96 2799.27,-336.45 2800.06,-326.19"/>
<polygon fill="midnightblue" stroke="midnightblue" points="2803.55,-326.43 2800.83,-316.19 2796.57,-325.9 2803.55,-326.43"/>
</g>
<!-- Node5 -->
<g id="node5" class="node">
<title>Node5</title>
<g id="a_node5"><a xlink:href="_actuator_types_8h.html" target="_top" xlink:title=" ">
<polygon fill="white" stroke="black" points="3131,-174 3131,-193 3294,-193 3294,-174 3131,-174"/>
<text text-anchor="middle" x="3212.5" y="-181" font-family="Helvetica,sans-Serif" font-size="10.00">aero/actuator/ActuatorTypes.h</text>
</a>
</g>
</g>
<!-- Node4&#45;&gt;Node5 -->
<g id="edge4" class="edge">
<title>Node4&#45;&gt;Node5</title>
<path fill="none" stroke="midnightblue" d="M2830.4,-296.99C2902.75,-275.69 3091.75,-220.05 3173.68,-195.93"/>
<polygon fill="midnightblue" stroke="midnightblue" points="3174.75,-199.26 3183.36,-193.08 3172.78,-192.55 3174.75,-199.26"/>
</g>
<!-- Node8 -->
<g id="node8" class="node">
<title>Node8</title>
<g id="a_node8"><a xlink:href="_actuator_search_8h.html" target="_top" xlink:title=" ">
<polygon fill="white" stroke="black" points="2607.5,-235.5 2607.5,-254.5 2775.5,-254.5 2775.5,-235.5 2607.5,-235.5"/>
<text text-anchor="middle" x="2691.5" y="-242.5" font-family="Helvetica,sans-Serif" font-size="10.00">aero/actuator/ActuatorSearch.h</text>
</a>
</g>
</g>
<!-- Node4&#45;&gt;Node8 -->
<g id="edge7" class="edge">
<title>Node4&#45;&gt;Node8</title>
<path fill="none" stroke="midnightblue" d="M2785.74,-296.98C2767.52,-287.12 2737.33,-270.79 2716.03,-259.27"/>
<polygon fill="midnightblue" stroke="midnightblue" points="2717.69,-256.19 2707.23,-254.51 2714.36,-262.35 2717.69,-256.19"/>
</g>
<!-- Node13 -->
<g id="node13" class="node">
<title>Node13</title>
<g id="a_node13"><a xlink:href="_enums_8h.html" target="_top" xlink:title=" ">
<polygon fill="white" stroke="black" points="2374,-174 2374,-193 2433,-193 2433,-174 2374,-174"/>
<text text-anchor="middle" x="2403.5" y="-181" font-family="Helvetica,sans-Serif" font-size="10.00">Enums.h</text>
</a>
</g>
</g>
<!-- Node4&#45;&gt;Node13 -->
<g id="edge14" class="edge">
<title>Node4&#45;&gt;Node13</title>
<path fill="none" stroke="midnightblue" d="M2762.26,-296.98C2721.14,-287.75 2654.81,-272.06 2598.5,-255 2528,-233.64 2511.69,-224.28 2442.5,-199 2440.41,-198.23 2438.25,-197.44 2436.07,-196.64"/>
<polygon fill="midnightblue" stroke="midnightblue" points="2437.17,-193.32 2426.58,-193.13 2434.75,-199.88 2437.17,-193.32"/>
</g>
<!-- Node16 -->
<g id="node16" class="node">
<title>Node16</title>
<g id="a_node16"><a xlink:title=" ">
<polygon fill="white" stroke="#bfbfbf" points="3299,-56.5 3299,-75.5 3346,-75.5 3346,-56.5 3299,-56.5"/>
<text text-anchor="middle" x="3322.5" y="-63.5" font-family="Helvetica,sans-Serif" font-size="10.00">vector</text>
</a>
</g>
</g>
<!-- Node4&#45;&gt;Node16 -->
<g id="edge17" class="edge">
<title>Node4&#45;&gt;Node16</title>
<path fill="none" stroke="midnightblue" d="M2880.11,-299.6C3006.57,-288.42 3246.77,-259.61 3303.5,-199 3332.28,-168.25 3329.75,-114.54 3325.88,-86.03"/>
<polygon fill="midnightblue" stroke="midnightblue" points="3329.28,-85.15 3324.28,-75.81 3322.37,-86.23 3329.28,-85.15"/>
</g>
<!-- Node6 -->
<g id="node6" class="node">
<title>Node6</title>
<g id="a_node6"><a xlink:title=" ">
<polygon fill="white" stroke="#bfbfbf" points="2537.5,-0.5 2537.5,-19.5 2637.5,-19.5 2637.5,-0.5 2537.5,-0.5"/>
<text text-anchor="middle" x="2587.5" y="-7.5" font-family="Helvetica,sans-Serif" font-size="10.00">Kokkos_Core.hpp</text>
</a>
</g>
</g>
<!-- Node5&#45;&gt;Node6 -->
<g id="edge5" class="edge">
<title>Node5&#45;&gt;Node6</title>
<path fill="none" stroke="midnightblue" d="M3181.51,-174C3078.22,-145.65 2745.66,-54.4 2628.67,-22.3"/>
<polygon fill="midnightblue" stroke="midnightblue" points="2629.25,-18.83 2618.68,-19.56 2627.4,-25.58 2629.25,-18.83"/>
</g>
<!-- Node7 -->
<g id="node7" class="node">
<title>Node7</title>
<g id="a_node7"><a xlink:title=" ">
<polygon fill="white" stroke="#bfbfbf" points="3151,-112.5 3151,-131.5 3274,-131.5 3274,-112.5 3151,-112.5"/>
<text text-anchor="middle" x="3212.5" y="-119.5" font-family="Helvetica,sans-Serif" font-size="10.00">Kokkos_DualView.hpp</text>
</a>
</g>
</g>
<!-- Node5&#45;&gt;Node7 -->
<g id="edge6" class="edge">
<title>Node5&#45;&gt;Node7</title>
<path fill="none" stroke="midnightblue" d="M3212.5,-173.98C3212.5,-165.58 3212.5,-152.48 3212.5,-141.66"/>
<polygon fill="midnightblue" stroke="midnightblue" points="3216,-141.51 3212.5,-131.51 3209,-141.51 3216,-141.51"/>
</g>
<!-- Node8&#45;&gt;Node5 -->
<g id="edge8" class="edge">
<title>Node8&#45;&gt;Node5</title>
<path fill="none" stroke="midnightblue" d="M2775.86,-235.76C2881.82,-225.3 3057.62,-207.61 3122.5,-199 3132.27,-197.7 3142.6,-196.18 3152.66,-194.62"/>
<polygon fill="midnightblue" stroke="midnightblue" points="3153.26,-198.07 3162.59,-193.05 3152.16,-191.15 3153.26,-198.07"/>
</g>
<!-- Node8&#45;&gt;Node6 -->
<g id="edge10" class="edge">
<title>Node8&#45;&gt;Node6</title>
<path fill="none" stroke="midnightblue" d="M2660.47,-235.46C2641.98,-228.69 2619.79,-217.25 2607.5,-199 2572.11,-146.42 2578.73,-66.2 2584.12,-29.95"/>
<polygon fill="midnightblue" stroke="midnightblue" points="2587.62,-30.25 2585.77,-19.82 2580.71,-29.12 2587.62,-30.25"/>
</g>
<!-- Node9 -->
<g id="node9" class="node">
<title>Node9</title>
<g id="a_node9"><a xlink:title=" ">
<polygon fill="white" stroke="#bfbfbf" points="2197,-174 2197,-193 2356,-193 2356,-174 2197,-174"/>
<text text-anchor="middle" x="2276.5" y="-181" font-family="Helvetica,sans-Serif" font-size="10.00">stk_mesh/base/BulkData.hpp</text>
</a>
</g>
</g>
<!-- Node8&#45;&gt;Node9 -->
<g id="edge9" class="edge">
<title>Node8&#45;&gt;Node9</title>
<path fill="none" stroke="midnightblue" d="M2626.49,-235.5C2560.64,-226.78 2455.9,-212.6 2365.5,-199 2356.52,-197.65 2347.04,-196.17 2337.74,-194.68"/>
<polygon fill="midnightblue" stroke="midnightblue" points="2338.19,-191.21 2327.77,-193.07 2337.08,-198.12 2338.19,-191.21"/>
</g>
<!-- Node10 -->
<g id="node10" class="node">
<title>Node10</title>
<g id="a_node10"><a xlink:title=" ">
<polygon fill="white" stroke="#bfbfbf" points="2797.5,-174 2797.5,-193 2955.5,-193 2955.5,-174 2797.5,-174"/>
<text text-anchor="middle" x="2876.5" y="-181" font-family="Helvetica,sans-Serif" font-size="10.00">stk_search/BoundingBox.hpp</text>
</a>
</g>
</g>
<!-- Node8&#45;&gt;Node10 -->
<g id="edge11" class="edge">
<title>Node8&#45;&gt;Node10</title>
<path fill="none" stroke="midnightblue" d="M2718.01,-235.48C2750.15,-225.14 2804.49,-207.66 2840.43,-196.1"/>
<polygon fill="midnightblue" stroke="midnightblue" points="2841.6,-199.4 2850.04,-193.01 2839.45,-192.74 2841.6,-199.4"/>
</g>
<!-- Node11 -->
<g id="node11" class="node">
<title>Node11</title>
<g id="a_node11"><a xlink:title=" ">
<polygon fill="white" stroke="#bfbfbf" points="2974,-174 2974,-193 3113,-193 3113,-174 2974,-174"/>
<text text-anchor="middle" x="3043.5" y="-181" font-family="Helvetica,sans-Serif" font-size="10.00">stk_search/IdentProc.hpp</text>
</a>
</g>
</g>
<!-- Node8&#45;&gt;Node11 -->
<g id="edge12" class="edge">
<title>Node8&#45;&gt;Node11</title>
<path fill="none" stroke="midnightblue" d="M2744.91,-235.49C2799.97,-226.65 2888.31,-212.27 2964.5,-199 2971.95,-197.7 2979.79,-196.3 2987.52,-194.91"/>
<polygon fill="midnightblue" stroke="midnightblue" points="2988.36,-198.31 2997.57,-193.08 2987.11,-191.42 2988.36,-198.31"/>
</g>
<!-- Node12 -->
<g id="node12" class="node">
<title>Node12</title>
<g id="a_node12"><a xlink:title=" ">
<polygon fill="white" stroke="#bfbfbf" points="2616,-174 2616,-193 2779,-193 2779,-174 2616,-174"/>
<text text-anchor="middle" x="2697.5" y="-181" font-family="Helvetica,sans-Serif" font-size="10.00">stk_search/SearchMethod.hpp</text>
</a>
</g>
</g>
<!-- Node8&#45;&gt;Node12 -->
<g id="edge13" class="edge">
<title>Node8&#45;&gt;Node12</title>
<path fill="none" stroke="midnightblue" d="M2692.36,-235.48C2693.21,-227.08 2694.53,-213.98 2695.62,-203.16"/>
<polygon fill="midnightblue" stroke="midnightblue" points="2699.12,-203.31 2696.64,-193.01 2692.16,-202.61 2699.12,-203.31"/>
</g>
<!-- Node14 -->
<g id="node14" class="node">
<title>Node14</title>
<g id="a_node14"><a xlink:title=" ">
<polygon fill="white" stroke="#bfbfbf" points="2381.5,-112.5 2381.5,-131.5 2425.5,-131.5 2425.5,-112.5 2381.5,-112.5"/>
<text text-anchor="middle" x="2403.5" y="-119.5" font-family="Helvetica,sans-Serif" font-size="10.00">string</text>
</a>
</g>
</g>
<!-- Node13&#45;&gt;Node14 -->
<g id="edge15" class="edge">
<title>Node13&#45;&gt;Node14</title>
<path fill="none" stroke="midnightblue" d="M2403.5,-173.98C2403.5,-165.58 2403.5,-152.48 2403.5,-141.66"/>
<polygon fill="midnightblue" stroke="midnightblue" points="2407,-141.51 2403.5,-131.51 2400,-141.51 2407,-141.51"/>
</g>
<!-- Node15 -->
<g id="node15" class="node">
<title>Node15</title>
<g id="a_node15"><a xlink:title=" ">
<polygon fill="white" stroke="#bfbfbf" points="2056.5,-112.5 2056.5,-131.5 2094.5,-131.5 2094.5,-112.5 2056.5,-112.5"/>
<text text-anchor="middle" x="2075.5" y="-119.5" font-family="Helvetica,sans-Serif" font-size="10.00">map</text>
</a>
</g>
</g>
<!-- Node13&#45;&gt;Node15 -->
<g id="edge16" class="edge">
<title>Node13&#45;&gt;Node15</title>
<path fill="none" stroke="midnightblue" d="M2383.25,-173.87C2377.58,-171.7 2371.37,-169.56 2365.5,-168 2271.97,-143.2 2157.61,-130.43 2104.8,-125.49"/>
<polygon fill="midnightblue" stroke="midnightblue" points="2105.06,-122 2094.79,-124.58 2104.43,-128.97 2105.06,-122"/>
</g>
<!-- Node17&#45;&gt;Node3 -->
<g id="edge20" class="edge">
<title>Node17&#45;&gt;Node3</title>
<path fill="none" stroke="midnightblue" d="M2634.16,-425.48C2665.75,-415.56 2708.28,-402.2 2741.89,-391.65"/>
<polygon fill="midnightblue" stroke="midnightblue" points="2743.07,-394.95 2751.56,-388.61 2740.97,-388.27 2743.07,-394.95"/>
</g>
<!-- Node17&#45;&gt;Node5 -->
<g id="edge19" class="edge">
<title>Node17&#45;&gt;Node5</title>
<path fill="none" stroke="midnightblue" d="M2597.03,-425.38C2613.81,-395.4 2657.3,-325.36 2714.5,-291 2752.1,-268.42 3030.59,-216.86 3153.96,-194.81"/>
<polygon fill="midnightblue" stroke="midnightblue" points="3154.76,-198.22 3163.99,-193.02 3153.53,-191.33 3154.76,-198.22"/>
</g>
<!-- Node18 -->
<g id="node18" class="node">
<title>Node18</title>
<g id="a_node18"><a xlink:href="_actuator_functors_8h.html" target="_top" xlink:title=" ">
<polygon fill="white" stroke="black" points="2167.5,-364 2167.5,-383 2343.5,-383 2343.5,-364 2167.5,-364"/>
<text text-anchor="middle" x="2255.5" y="-371" font-family="Helvetica,sans-Serif" font-size="10.00">aero/actuator/ActuatorFunctors.h</text>
</a>
</g>
</g>
<!-- Node17&#45;&gt;Node18 -->
<g id="edge21" class="edge">
<title>Node17&#45;&gt;Node18</title>
<path fill="none" stroke="midnightblue" d="M2517.44,-425.48C2454.97,-413.32 2365.97,-396 2309.48,-385.01"/>
<polygon fill="midnightblue" stroke="midnightblue" points="2309.81,-381.5 2299.32,-383.03 2308.47,-388.37 2309.81,-381.5"/>
</g>
<!-- Node36 -->
<g id="node32" class="node">
<title>Node36</title>
<g id="a_node32"><a xlink:href="_nalu_env_8h.html" target="_top" xlink:title=" ">
<polygon fill="white" stroke="black" points="99,-174 99,-193 164,-193 164,-174 99,-174"/>
<text text-anchor="middle" x="131.5" y="-181" font-family="Helvetica,sans-Serif" font-size="10.00">NaluEnv.h</text>
</a>
</g>
</g>
<!-- Node17&#45;&gt;Node36 -->
<g id="edge67" class="edge">
<title>Node17&#45;&gt;Node36</title>
<path fill="none" stroke="midnightblue" d="M2505.93,-439.1C2153.31,-436.8 786.01,-421.53 368.5,-322 296.68,-304.88 279.29,-293.83 216.5,-255 190.67,-239.03 164.27,-215.83 147.88,-200.47"/>
<polygon fill="midnightblue" stroke="midnightblue" points="149.94,-197.59 140.29,-193.22 145.11,-202.66 149.94,-197.59"/>
</g>
<!-- Node52 -->
<g id="node46" class="node">
<title>Node52</title>
<g id="a_node46"><a xlink:href="_nalu_parsed_types_8h.html" target="_top" xlink:title=" ">
<polygon fill="white" stroke="black" points="2451.5,-174 2451.5,-193 2559.5,-193 2559.5,-174 2451.5,-174"/>
<text text-anchor="middle" x="2505.5" y="-181" font-family="Helvetica,sans-Serif" font-size="10.00">NaluParsedTypes.h</text>
</a>
</g>
</g>
<!-- Node17&#45;&gt;Node52 -->
<g id="edge64" class="edge">
<title>Node17&#45;&gt;Node52</title>
<path fill="none" stroke="midnightblue" d="M2584.86,-425.43C2570.63,-382.23 2527.57,-251.5 2511.57,-202.93"/>
<polygon fill="midnightblue" stroke="midnightblue" points="2514.8,-201.56 2508.35,-193.16 2508.16,-203.75 2514.8,-201.56"/>
</g>
<!-- Node18&#45;&gt;Node4 -->
<g id="edge61" class="edge">
<title>Node18&#45;&gt;Node4</title>
<path fill="none" stroke="midnightblue" d="M2327.16,-363.97C2428.48,-351.91 2613.11,-329.93 2719.69,-317.24"/>
<polygon fill="midnightblue" stroke="midnightblue" points="2720.23,-320.7 2729.75,-316.04 2719.41,-313.75 2720.23,-320.7"/>
</g>
<!-- Node19 -->
<g id="node19" class="node">
<title>Node19</title>
<g id="a_node19"><a xlink:href="_actuator_generic_search_functor_8h.html" target="_top" xlink:title=" ">
<polygon fill="white" stroke="black" points="2173.5,-291.5 2173.5,-321.5 2337.5,-321.5 2337.5,-291.5 2173.5,-291.5"/>
<text text-anchor="start" x="2181.5" y="-309.5" font-family="Helvetica,sans-Serif" font-size="10.00">aero/actuator/ActuatorGeneric</text>
<text text-anchor="middle" x="2255.5" y="-298.5" font-family="Helvetica,sans-Serif" font-size="10.00">SearchFunctor.h</text>
</a>
</g>
</g>
<!-- Node18&#45;&gt;Node19 -->
<g id="edge22" class="edge">
<title>Node18&#45;&gt;Node19</title>
<path fill="none" stroke="midnightblue" d="M2255.5,-363.73C2255.5,-355.54 2255.5,-342.92 2255.5,-331.71"/>
<polygon fill="midnightblue" stroke="midnightblue" points="2259,-331.59 2255.5,-321.59 2252,-331.59 2259,-331.59"/>
</g>
<!-- Node27 -->
<g id="node24" class="node">
<title>Node27</title>
<g id="a_node24"><a xlink:href="_kokkos_interface_8h.html" target="_top" xlink:title=" ">
<polygon fill="white" stroke="red" points="587.5,-56.5 587.5,-75.5 691.5,-75.5 691.5,-56.5 587.5,-56.5"/>
<text text-anchor="middle" x="639.5" y="-63.5" font-family="Helvetica,sans-Serif" font-size="10.00">KokkosInterface.h</text>
</a>
</g>
</g>
<!-- Node18&#45;&gt;Node27 -->
<g id="edge63" class="edge">
<title>Node18&#45;&gt;Node27</title>
<path fill="none" stroke="midnightblue" d="M2167.34,-371.6C1801.39,-366.97 415.22,-340.15 287.5,-199 201.46,-103.91 454.83,-77.03 577.31,-69.67"/>
<polygon fill="midnightblue" stroke="midnightblue" points="577.53,-73.16 587.31,-69.09 577.13,-66.17 577.53,-73.16"/>
</g>
<!-- Node47 -->
<g id="node43" class="node">
<title>Node47</title>
<g id="a_node43"><a xlink:href="_field_type_def_8h.html" target="_top" xlink:title=" ">
<polygon fill="white" stroke="red" points="2070.5,-235.5 2070.5,-254.5 2158.5,-254.5 2158.5,-235.5 2070.5,-235.5"/>
<text text-anchor="middle" x="2114.5" y="-242.5" font-family="Helvetica,sans-Serif" font-size="10.00">FieldTypeDef.h</text>
</a>
</g>
</g>
<!-- Node18&#45;&gt;Node47 -->
<g id="edge62" class="edge">
<title>Node18&#45;&gt;Node47</title>
<path fill="none" stroke="midnightblue" d="M2233.39,-363.85C2213.69,-355.35 2184.9,-340.92 2164.5,-322 2146.47,-305.28 2131.88,-280.79 2123.21,-264.16"/>
<polygon fill="midnightblue" stroke="midnightblue" points="2126.21,-262.34 2118.6,-254.96 2119.95,-265.47 2126.21,-262.34"/>
</g>
<!-- Node19&#45;&gt;Node5 -->
<g id="edge56" class="edge">
<title>Node19&#45;&gt;Node5</title>
<path fill="none" stroke="midnightblue" d="M2337.69,-306.21C2443.04,-305.19 2630.48,-296.84 2784.5,-255 2804.84,-249.47 2807.23,-240.79 2827.5,-235 2954.5,-198.7 2991.72,-217.51 3122.5,-199 3131.92,-197.67 3141.88,-196.16 3151.61,-194.64"/>
<polygon fill="midnightblue" stroke="midnightblue" points="3152.3,-198.07 3161.62,-193.05 3151.2,-191.16 3152.3,-198.07"/>
</g>
<!-- Node19&#45;&gt;Node9 -->
<g id="edge57" class="edge">
<title>Node19&#45;&gt;Node9</title>
<path fill="none" stroke="midnightblue" d="M2257.99,-291.14C2261.8,-269.2 2269.07,-227.33 2273.27,-203.09"/>
<polygon fill="midnightblue" stroke="midnightblue" points="2276.75,-203.5 2275.02,-193.05 2269.86,-202.31 2276.75,-203.5"/>
</g>
<!-- Node19&#45;&gt;Node20 -->
<g id="edge23" class="edge">
<title>Node19&#45;&gt;Node20</title>
<path fill="none" stroke="midnightblue" d="M2173.3,-301.78C1942.08,-291.31 1286.71,-261.63 1038.44,-250.39"/>
<polygon fill="midnightblue" stroke="midnightblue" points="1038.5,-246.89 1028.36,-249.93 1038.19,-253.88 1038.5,-246.89"/>
</g>
<!-- Node19&#45;&gt;Node47 -->
<g id="edge58" class="edge">
<title>Node19&#45;&gt;Node47</title>
<path fill="none" stroke="midnightblue" d="M2222.08,-291.4C2198.53,-281.46 2167.26,-268.26 2144.51,-258.66"/>
<polygon fill="midnightblue" stroke="midnightblue" points="2145.59,-255.32 2135.02,-254.66 2142.87,-261.77 2145.59,-255.32"/>
</g>
<!-- Node20&#45;&gt;Node9 -->
<g id="edge47" class="edge">
<title>Node20&#45;&gt;Node9</title>
<path fill="none" stroke="midnightblue" d="M1028.23,-244.6C1231.39,-245.19 1753.73,-242 2187.5,-199 2198.35,-197.92 2209.89,-196.36 2220.94,-194.65"/>
<polygon fill="midnightblue" stroke="midnightblue" points="2221.59,-198.09 2230.91,-193.05 2220.48,-191.18 2221.59,-198.09"/>
</g>
<!-- Node21 -->
<g id="node21" class="node">
<title>Node21</title>
<g id="a_node21"><a xlink:href="_master_element_8h.html" target="_top" xlink:title=" ">
<polygon fill="white" stroke="black" points="585,-174 585,-193 768,-193 768,-174 585,-174"/>
<text text-anchor="middle" x="676.5" y="-181" font-family="Helvetica,sans-Serif" font-size="10.00">master_element/MasterElement.h</text>
</a>
</g>
</g>
<!-- Node20&#45;&gt;Node21 -->
<g id="edge24" class="edge">
<title>Node20&#45;&gt;Node21</title>
<path fill="none" stroke="midnightblue" d="M903.53,-235.48C856.3,-224.87 775.64,-206.76 724.26,-195.22"/>
<polygon fill="midnightblue" stroke="midnightblue" points="724.92,-191.78 714.4,-193.01 723.39,-198.61 724.92,-191.78"/>
</g>
<!-- Node29 -->
<g id="node25" class="node">
<title>Node29</title>
<g id="a_node25"><a xlink:title=" ">
<polygon fill="white" stroke="#bfbfbf" points="377,-0.5 377,-19.5 518,-19.5 518,-0.5 377,-0.5"/>
<text text-anchor="middle" x="447.5" y="-7.5" font-family="Helvetica,sans-Serif" font-size="10.00">stk_mesh/base/Entity.hpp</text>
</a>
</g>
</g>
<!-- Node20&#45;&gt;Node29 -->
<g id="edge48" class="edge">
<title>Node20&#45;&gt;Node29</title>
<path fill="none" stroke="midnightblue" d="M854.9,-244.46C685.93,-244.45 325.41,-239.61 287.5,-199 228.63,-135.94 361.26,-55.81 420.64,-24.45"/>
<polygon fill="midnightblue" stroke="midnightblue" points="422.57,-27.39 429.83,-19.67 419.34,-21.18 422.57,-27.39"/>
</g>
<!-- Node32 -->
<g id="node28" class="node">
<title>Node32</title>
<g id="a_node28"><a xlink:href="_master_element_repo_8h.html" target="_top" xlink:title=" ">
<polygon fill="white" stroke="black" points="1672.5,-168.5 1672.5,-198.5 1846.5,-198.5 1846.5,-168.5 1672.5,-168.5"/>
<text text-anchor="start" x="1680.5" y="-186.5" font-family="Helvetica,sans-Serif" font-size="10.00">master_element/MasterElement</text>
<text text-anchor="middle" x="1759.5" y="-175.5" font-family="Helvetica,sans-Serif" font-size="10.00">Repo.h</text>
</a>
</g>
</g>
<!-- Node20&#45;&gt;Node32 -->
<g id="edge33" class="edge">
<title>Node20&#45;&gt;Node32</title>
<path fill="none" stroke="midnightblue" d="M1028.12,-241.06C1161.93,-235.96 1427.16,-223.7 1662.31,-199.06"/>
<polygon fill="midnightblue" stroke="midnightblue" points="1662.85,-202.53 1672.42,-197.99 1662.11,-195.56 1662.85,-202.53"/>
</g>
<!-- Node20&#45;&gt;Node36 -->
<g id="edge43" class="edge">
<title>Node20&#45;&gt;Node36</title>
<path fill="none" stroke="midnightblue" d="M854.74,-241.61C718.46,-237.19 446.06,-225.63 216.5,-199 202.64,-197.39 187.6,-195.03 174.08,-192.68"/>
<polygon fill="midnightblue" stroke="midnightblue" points="174.54,-189.21 164.08,-190.9 173.31,-196.1 174.54,-189.21"/>
</g>
<!-- Node40 -->
<g id="node36" class="node">
<title>Node40</title>
<g id="a_node36"><a xlink:title=" ">
<polygon fill="white" stroke="#bfbfbf" points="786,-174 786,-193 923,-193 923,-174 786,-174"/>
<text text-anchor="middle" x="854.5" y="-181" font-family="Helvetica,sans-Serif" font-size="10.00">stk_mesh/base/Field.hpp</text>
</a>
</g>
</g>
<!-- Node20&#45;&gt;Node40 -->
<g id="edge49" class="edge">
<title>Node20&#45;&gt;Node40</title>
<path fill="none" stroke="midnightblue" d="M929.04,-235.48C915.08,-225.93 892.24,-210.31 875.51,-198.87"/>
<polygon fill="midnightblue" stroke="midnightblue" points="877.17,-195.77 866.94,-193.01 873.22,-201.54 877.17,-195.77"/>
</g>
<!-- Node41 -->
<g id="node37" class="node">
<title>Node41</title>
<g id="a_node37"><a xlink:title=" ">
<polygon fill="white" stroke="#bfbfbf" points="941,-174 941,-193 1114,-193 1114,-174 941,-174"/>
<text text-anchor="middle" x="1027.5" y="-181" font-family="Helvetica,sans-Serif" font-size="10.00">stk_mesh/base/FieldParallel.hpp</text>
</a>
</g>
</g>
<!-- Node20&#45;&gt;Node41 -->
<g id="edge50" class="edge">
<title>Node20&#45;&gt;Node41</title>
<path fill="none" stroke="midnightblue" d="M953.82,-235.48C967.62,-225.93 990.2,-210.31 1006.73,-198.87"/>
<polygon fill="midnightblue" stroke="midnightblue" points="1008.97,-201.58 1015.2,-193.01 1004.99,-195.82 1008.97,-201.58"/>
</g>
<!-- Node42 -->
<g id="node38" class="node">
<title>Node42</title>
<g id="a_node38"><a xlink:title=" ">
<polygon fill="white" stroke="#bfbfbf" points="1132.5,-174 1132.5,-193 1302.5,-193 1302.5,-174 1132.5,-174"/>
<text text-anchor="middle" x="1217.5" y="-181" font-family="Helvetica,sans-Serif" font-size="10.00">stk_mesh/base/GetBuckets.hpp</text>
</a>
</g>
</g>
<!-- Node20&#45;&gt;Node42 -->
<g id="edge51" class="edge">
<title>Node20&#45;&gt;Node42</title>
<path fill="none" stroke="midnightblue" d="M981.04,-235.48C1030.33,-224.85 1114.59,-206.68 1168.09,-195.15"/>
<polygon fill="midnightblue" stroke="midnightblue" points="1168.99,-198.54 1178.03,-193.01 1167.52,-191.7 1168.99,-198.54"/>
</g>
<!-- Node43 -->
<g id="node39" class="node">
<title>Node43</title>
<g id="a_node39"><a xlink:title=" ">
<polygon fill="white" stroke="#bfbfbf" points="1321,-174 1321,-193 1474,-193 1474,-174 1321,-174"/>
<text text-anchor="middle" x="1397.5" y="-181" font-family="Helvetica,sans-Serif" font-size="10.00">stk_mesh/base/Selector.hpp</text>
</a>
</g>
</g>
<!-- Node20&#45;&gt;Node43 -->
<g id="edge52" class="edge">
<title>Node20&#45;&gt;Node43</title>
<path fill="none" stroke="midnightblue" d="M1020.31,-235.48C1095.32,-227.12 1211.28,-213.54 1311.5,-199 1320.52,-197.69 1330.06,-196.2 1339.37,-194.67"/>
<polygon fill="midnightblue" stroke="midnightblue" points="1340.05,-198.11 1349.35,-193.02 1338.91,-191.2 1340.05,-198.11"/>
</g>
<!-- Node44 -->
<g id="node40" class="node">
<title>Node44</title>
<g id="a_node40"><a xlink:title=" ">
<polygon fill="white" stroke="#bfbfbf" points="1492.5,-174 1492.5,-193 1654.5,-193 1654.5,-174 1492.5,-174"/>
<text text-anchor="middle" x="1573.5" y="-181" font-family="Helvetica,sans-Serif" font-size="10.00">stk_mesh/base/MetaData.hpp</text>
</a>
</g>
</g>
<!-- Node20&#45;&gt;Node44 -->
<g id="edge53" class="edge">
<title>Node20&#45;&gt;Node44</title>
<path fill="none" stroke="midnightblue" d="M1028.07,-238.87C1135.24,-232.05 1323.23,-218.54 1483.5,-199 1493.74,-197.75 1504.6,-196.2 1515.1,-194.58"/>
<polygon fill="midnightblue" stroke="midnightblue" points="1515.69,-198.03 1525.02,-193.01 1514.6,-191.11 1515.69,-198.03"/>
</g>
<!-- Node45 -->
<g id="node41" class="node">
<title>Node45</title>
<g id="a_node41"><a xlink:title=" ">
<polygon fill="white" stroke="#bfbfbf" points="297,-174 297,-193 430,-193 430,-174 297,-174"/>
<text text-anchor="middle" x="363.5" y="-181" font-family="Helvetica,sans-Serif" font-size="10.00">stk_mesh/base/Part.hpp</text>
</a>
</g>
</g>
<!-- Node20&#45;&gt;Node45 -->
<g id="edge54" class="edge">
<title>Node20&#45;&gt;Node45</title>
<path fill="none" stroke="midnightblue" d="M854.59,-238.83C754.26,-232.26 584.44,-219.27 439.5,-199 431.37,-197.86 422.78,-196.44 414.43,-194.94"/>
<polygon fill="midnightblue" stroke="midnightblue" points="414.87,-191.46 404.4,-193.07 413.59,-198.34 414.87,-191.46"/>
</g>
<!-- Node46 -->
<g id="node42" class="node">
<title>Node46</title>
<g id="a_node42"><a xlink:title=" ">
<polygon fill="white" stroke="#bfbfbf" points="448.5,-174 448.5,-193 566.5,-193 566.5,-174 448.5,-174"/>
<text text-anchor="middle" x="507.5" y="-181" font-family="Helvetica,sans-Serif" font-size="10.00">stk_search/Point.hpp</text>
</a>
</g>
</g>
<!-- Node20&#45;&gt;Node46 -->
<g id="edge55" class="edge">
<title>Node20&#45;&gt;Node46</title>
<path fill="none" stroke="midnightblue" d="M855.66,-235.49C781.5,-227.64 671.6,-214.83 576.5,-199 569.69,-197.87 562.52,-196.53 555.49,-195.13"/>
<polygon fill="midnightblue" stroke="midnightblue" points="555.85,-191.63 545.35,-193.06 554.45,-198.49 555.85,-191.63"/>
</g>
<!-- Node22 -->
<g id="node22" class="node">
<title>Node22</title>
<g id="a_node22"><a xlink:href="_alg_traits_8h.html" target="_top" xlink:title=" ">
<polygon fill="white" stroke="red" points="1039.5,-112.5 1039.5,-131.5 1107.5,-131.5 1107.5,-112.5 1039.5,-112.5"/>
<text text-anchor="middle" x="1073.5" y="-119.5" font-family="Helvetica,sans-Serif" font-size="10.00">AlgTraits.h</text>
</a>
</g>
</g>
<!-- Node21&#45;&gt;Node22 -->
<g id="edge25" class="edge">
<title>Node21&#45;&gt;Node22</title>
<path fill="none" stroke="midnightblue" d="M733.38,-173.98C813.18,-162.02 956.7,-140.51 1029.12,-129.65"/>
<polygon fill="midnightblue" stroke="midnightblue" points="1029.9,-133.07 1039.27,-128.13 1028.87,-126.15 1029.9,-133.07"/>
</g>
<!-- Node24 -->
<g id="node23" class="node">
<title>Node24</title>
<g id="a_node23"><a xlink:href="_simd_interface_8h.html" target="_top" xlink:title="STK SIMD Interface.">
<polygon fill="white" stroke="red" points="1637.5,-112.5 1637.5,-131.5 1731.5,-131.5 1731.5,-112.5 1637.5,-112.5"/>
<text text-anchor="middle" x="1684.5" y="-119.5" font-family="Helvetica,sans-Serif" font-size="10.00">SimdInterface.h</text>
</a>
</g>
</g>
<!-- Node21&#45;&gt;Node24 -->
<g id="edge26" class="edge">
<title>Node21&#45;&gt;Node24</title>
<path fill="none" stroke="midnightblue" d="M728.8,-173.97C744.43,-171.7 761.63,-169.47 777.5,-168 1151.13,-133.37 1250.13,-169.45 1627.4,-131.98"/>
<polygon fill="midnightblue" stroke="midnightblue" points="1627.9,-135.44 1637.5,-130.96 1627.2,-128.48 1627.9,-135.44"/>
</g>
<!-- Node21&#45;&gt;Node27 -->
<g id="edge28" class="edge">
<title>Node21&#45;&gt;Node27</title>
<path fill="none" stroke="midnightblue" d="M673.54,-173.94C670.1,-163.92 664.26,-146.79 659.5,-132 654.47,-116.37 649,-98.54 645.06,-85.51"/>
<polygon fill="midnightblue" stroke="midnightblue" points="648.38,-84.42 642.14,-75.85 641.68,-86.44 648.38,-84.42"/>
</g>
<!-- Node30 -->
<g id="node26" class="node">
<title>Node30</title>
<g id="a_node26"><a xlink:title=" ">
<polygon fill="white" stroke="#bfbfbf" points="1220,-112.5 1220,-131.5 1385,-131.5 1385,-112.5 1220,-112.5"/>
<text text-anchor="middle" x="1302.5" y="-119.5" font-family="Helvetica,sans-Serif" font-size="10.00">stk_util/util/ReportHandler.hpp</text>
</a>
</g>
</g>
<!-- Node21&#45;&gt;Node30 -->
<g id="edge31" class="edge">
<title>Node21&#45;&gt;Node30</title>
<path fill="none" stroke="midnightblue" d="M731.73,-173.99C746.57,-171.86 762.63,-169.7 777.5,-168 928.35,-150.72 1104.27,-136.93 1209.35,-129.37"/>
<polygon fill="midnightblue" stroke="midnightblue" points="1209.88,-132.84 1219.61,-128.64 1209.38,-125.86 1209.88,-132.84"/>
</g>
<!-- Node31 -->
<g id="node27" class="node">
<title>Node31</title>
<g id="a_node27"><a xlink:title=" ">
<polygon fill="white" stroke="#bfbfbf" points="668,-112.5 668,-131.5 733,-131.5 733,-112.5 668,-112.5"/>
<text text-anchor="middle" x="700.5" y="-119.5" font-family="Helvetica,sans-Serif" font-size="10.00">stdexcept</text>
</a>
</g>
</g>
<!-- Node21&#45;&gt;Node31 -->
<g id="edge32" class="edge">
<title>Node21&#45;&gt;Node31</title>
<path fill="none" stroke="midnightblue" d="M679.94,-173.98C683.4,-165.4 688.83,-151.93 693.25,-140.98"/>
<polygon fill="midnightblue" stroke="midnightblue" points="696.57,-142.09 697.07,-131.51 690.08,-139.47 696.57,-142.09"/>
</g>
<!-- Node24&#45;&gt;Node16 -->
<g id="edge27" class="edge">
<title>Node24&#45;&gt;Node16</title>
<path fill="none" stroke="midnightblue" d="M1731.76,-119.44C1974.85,-111.43 3081.19,-74.96 3288.85,-68.11"/>
<polygon fill="midnightblue" stroke="midnightblue" points="3288.98,-71.61 3298.86,-67.78 3288.75,-64.61 3288.98,-71.61"/>
</g>
<!-- Node27&#45;&gt;Node6 -->
<g id="edge30" class="edge">
<title>Node27&#45;&gt;Node6</title>
<path fill="none" stroke="midnightblue" d="M691.6,-63.56C965.19,-55.97 2234.19,-20.79 2527.08,-12.67"/>
<polygon fill="midnightblue" stroke="midnightblue" points="2527.58,-16.16 2537.48,-12.39 2527.39,-9.17 2527.58,-16.16"/>
</g>
<!-- Node27&#45;&gt;Node29 -->
<g id="edge29" class="edge">
<title>Node27&#45;&gt;Node29</title>
<path fill="none" stroke="midnightblue" d="M609.08,-56.44C576.22,-47.2 523.72,-32.44 487.53,-22.26"/>
<polygon fill="midnightblue" stroke="midnightblue" points="488.35,-18.85 477.78,-19.52 486.46,-25.59 488.35,-18.85"/>
</g>
<!-- Node32&#45;&gt;Node14 -->
<g id="edge34" class="edge">
<title>Node32&#45;&gt;Node14</title>
<path fill="none" stroke="midnightblue" d="M1846.71,-169.18C1850.02,-168.77 1853.29,-168.37 1856.5,-168 2051.43,-145.44 2286.73,-130.05 2371.29,-124.9"/>
<polygon fill="midnightblue" stroke="midnightblue" points="2371.53,-128.39 2381.3,-124.3 2371.11,-121.41 2371.53,-128.39"/>
</g>
<!-- Node32&#45;&gt;Node15 -->
<g id="edge35" class="edge">
<title>Node32&#45;&gt;Node15</title>
<path fill="none" stroke="midnightblue" d="M1833.99,-168.47C1901.84,-155.7 1998.54,-137.49 2046.38,-128.48"/>
<polygon fill="midnightblue" stroke="midnightblue" points="2047.18,-131.89 2056.36,-126.6 2045.89,-125.01 2047.18,-131.89"/>
</g>
<!-- Node32&#45;&gt;Node22 -->
<g id="edge39" class="edge">
<title>Node32&#45;&gt;Node22</title>
<path fill="none" stroke="midnightblue" d="M1672.42,-169.06C1669.41,-168.69 1666.43,-168.33 1663.5,-168 1557.73,-156 1236.54,-133.94 1118.04,-125.97"/>
<polygon fill="midnightblue" stroke="midnightblue" points="1118.09,-122.46 1107.87,-125.29 1117.62,-129.45 1118.09,-122.46"/>
</g>
<!-- Node32&#45;&gt;Node30 -->
<g id="edge38" class="edge">
<title>Node32&#45;&gt;Node30</title>
<path fill="none" stroke="midnightblue" d="M1672.39,-169.24C1669.39,-168.82 1666.42,-168.4 1663.5,-168 1568.34,-154.88 1458.82,-141.47 1385.6,-132.74"/>
<polygon fill="midnightblue" stroke="midnightblue" points="1385.86,-129.25 1375.52,-131.54 1385.03,-136.2 1385.86,-129.25"/>
</g>
<!-- Node32&#45;&gt;Node33 -->
<g id="edge36" class="edge">
<title>Node32&#45;&gt;Node33</title>
<path fill="none" stroke="midnightblue" d="M1672.43,-168.97C1669.42,-168.62 1666.43,-168.3 1663.5,-168 1501.16,-151.53 990.03,-130.39 843.88,-124.55"/>
<polygon fill="midnightblue" stroke="midnightblue" points="843.74,-121.04 833.61,-124.14 843.46,-128.04 843.74,-121.04"/>
</g>
<!-- Node34 -->
<g id="node30" class="node">
<title>Node34</title>
<g id="a_node30"><a xlink:title=" ">
<polygon fill="white" stroke="#bfbfbf" points="1613,-56.5 1613,-75.5 1682,-75.5 1682,-56.5 1613,-56.5"/>
<text text-anchor="middle" x="1647.5" y="-63.5" font-family="Helvetica,sans-Serif" font-size="10.00">type_traits</text>
</a>
</g>
</g>
<!-- Node32&#45;&gt;Node34 -->
<g id="edge37" class="edge">
<title>Node32&#45;&gt;Node34</title>
<path fill="none" stroke="midnightblue" d="M1759.08,-168.5C1757.93,-153.04 1753.92,-128.21 1740.5,-112 1727.76,-96.61 1708.5,-86.1 1690.81,-79.13"/>
<polygon fill="midnightblue" stroke="midnightblue" points="1691.79,-75.76 1681.19,-75.61 1689.38,-82.33 1691.79,-75.76"/>
</g>
<!-- Node35 -->
<g id="node31" class="node">
<title>Node35</title>
<g id="a_node31"><a xlink:href="_create_device_expression_8h.html" target="_top" xlink:title=" ">
<polygon fill="white" stroke="black" points="1450,-112.5 1450,-131.5 1619,-131.5 1619,-112.5 1450,-112.5"/>
<text text-anchor="middle" x="1534.5" y="-119.5" font-family="Helvetica,sans-Serif" font-size="10.00">utils/CreateDeviceExpression.h</text>
</a>
</g>
</g>
<!-- Node32&#45;&gt;Node35 -->
<g id="edge40" class="edge">
<title>Node32&#45;&gt;Node35</title>
<path fill="none" stroke="midnightblue" d="M1706.46,-168.47C1666.8,-157.99 1613.29,-143.84 1576.56,-134.12"/>
<polygon fill="midnightblue" stroke="midnightblue" points="1577.23,-130.68 1566.67,-131.51 1575.44,-137.45 1577.23,-130.68"/>
</g>
<!-- Node35&#45;&gt;Node27 -->
<g id="edge42" class="edge">
<title>Node35&#45;&gt;Node27</title>
<path fill="none" stroke="midnightblue" d="M1449.74,-115.49C1431.52,-114.32 1412.37,-113.11 1394.5,-112 1137.38,-96.07 830.94,-78.13 701.78,-70.61"/>
<polygon fill="midnightblue" stroke="midnightblue" points="701.87,-67.11 691.68,-70.03 701.46,-74.1 701.87,-67.11"/>
</g>
<!-- Node35&#45;&gt;Node34 -->
<g id="edge41" class="edge">
<title>Node35&#45;&gt;Node34</title>
<path fill="none" stroke="midnightblue" d="M1552.41,-112.44C1570.75,-103.68 1599.51,-89.94 1620.59,-79.86"/>
<polygon fill="midnightblue" stroke="midnightblue" points="1622.17,-82.99 1629.68,-75.52 1619.15,-76.67 1622.17,-82.99"/>
</g>
<!-- Node37 -->
<g id="node33" class="node">
<title>Node37</title>
<g id="a_node33"><a xlink:title=" ">
<polygon fill="white" stroke="#bfbfbf" points="158.5,-112.5 158.5,-131.5 202.5,-131.5 202.5,-112.5 158.5,-112.5"/>
<text text-anchor="middle" x="180.5" y="-119.5" font-family="Helvetica,sans-Serif" font-size="10.00">mpi.h</text>
</a>
</g>
</g>
<!-- Node36&#45;&gt;Node37 -->
<g id="edge44" class="edge">
<title>Node36&#45;&gt;Node37</title>
<path fill="none" stroke="midnightblue" d="M138.52,-173.98C145.94,-164.96 157.83,-150.52 167.07,-139.31"/>
<polygon fill="midnightblue" stroke="midnightblue" points="169.84,-141.45 173.49,-131.51 164.43,-137 169.84,-141.45"/>
</g>
<!-- Node38 -->
<g id="node34" class="node">
<title>Node38</title>
<g id="a_node34"><a xlink:title=" ">
<polygon fill="white" stroke="#bfbfbf" points="0,-112.5 0,-131.5 55,-131.5 55,-112.5 0,-112.5"/>
<text text-anchor="middle" x="27.5" y="-119.5" font-family="Helvetica,sans-Serif" font-size="10.00">fstream</text>
</a>
</g>
</g>
<!-- Node36&#45;&gt;Node38 -->
<g id="edge45" class="edge">
<title>Node36&#45;&gt;Node38</title>
<path fill="none" stroke="midnightblue" d="M116.6,-173.98C99.53,-164.21 71.34,-148.08 51.24,-136.58"/>
<polygon fill="midnightblue" stroke="midnightblue" points="52.79,-133.44 42.37,-131.51 49.31,-139.51 52.79,-133.44"/>
</g>
<!-- Node39 -->
<g id="node35" class="node">
<title>Node39</title>
<g id="a_node35"><a xlink:title=" ">
<polygon fill="white" stroke="#bfbfbf" points="73,-112.5 73,-131.5 140,-131.5 140,-112.5 73,-112.5"/>
<text text-anchor="middle" x="106.5" y="-119.5" font-family="Helvetica,sans-Serif" font-size="10.00">streambuf</text>
</a>
</g>
</g>
<!-- Node36&#45;&gt;Node39 -->
<g id="edge46" class="edge">
<title>Node36&#45;&gt;Node39</title>
<path fill="none" stroke="midnightblue" d="M127.92,-173.98C124.32,-165.4 118.65,-151.93 114.06,-140.98"/>
<polygon fill="midnightblue" stroke="midnightblue" points="117.18,-139.37 110.08,-131.51 110.72,-142.08 117.18,-139.37"/>
</g>
<!-- Node48 -->
<g id="node44" class="node">
<title>Node48</title>
<g id="a_node44"><a xlink:title=" ">
<polygon fill="white" stroke="#bfbfbf" points="1865,-174 1865,-193 2026,-193 2026,-174 1865,-174"/>
<text text-anchor="middle" x="1945.5" y="-181" font-family="Helvetica,sans-Serif" font-size="10.00">stk_mesh/base/FieldBase.hpp</text>
</a>
</g>
</g>
<!-- Node47&#45;&gt;Node48 -->
<g id="edge59" class="edge">
<title>Node47&#45;&gt;Node48</title>
<path fill="none" stroke="midnightblue" d="M2090.29,-235.48C2061.17,-225.22 2012.13,-207.96 1979.3,-196.4"/>
<polygon fill="midnightblue" stroke="midnightblue" points="1980.26,-193.03 1969.67,-193.01 1977.94,-199.63 1980.26,-193.03"/>
</g>
<!-- Node49 -->
<g id="node45" class="node">
<title>Node49</title>
<g id="a_node45"><a xlink:title=" ">
<polygon fill="white" stroke="#bfbfbf" points="2044.5,-174 2044.5,-193 2178.5,-193 2178.5,-174 2044.5,-174"/>
<text text-anchor="middle" x="2111.5" y="-181" font-family="Helvetica,sans-Serif" font-size="10.00">stk_mesh/base/Ngp.hpp</text>
</a>
</g>
</g>
<!-- Node47&#45;&gt;Node49 -->
<g id="edge60" class="edge">
<title>Node47&#45;&gt;Node49</title>
<path fill="none" stroke="midnightblue" d="M2114.07,-235.48C2113.65,-227.08 2112.99,-213.98 2112.44,-203.16"/>
<polygon fill="midnightblue" stroke="midnightblue" points="2115.93,-202.82 2111.93,-193.01 2108.94,-203.17 2115.93,-202.82"/>
</g>
<!-- Node52&#45;&gt;Node14 -->
<g id="edge65" class="edge">
<title>Node52&#45;&gt;Node14</title>
<path fill="none" stroke="midnightblue" d="M2490.89,-173.98C2474.15,-164.21 2446.5,-148.08 2426.78,-136.58"/>
<polygon fill="midnightblue" stroke="midnightblue" points="2428.49,-133.52 2418.09,-131.51 2424.96,-139.57 2428.49,-133.52"/>
</g>
<!-- Node52&#45;&gt;Node16 -->
<g id="edge66" class="edge">
<title>Node52&#45;&gt;Node16</title>
<path fill="none" stroke="midnightblue" d="M2559.76,-174.78C2575.19,-172.58 2592,-170.2 2607.5,-168 2869.74,-130.84 3186.12,-86.22 3288.66,-71.77"/>
<polygon fill="midnightblue" stroke="midnightblue" points="3289.32,-75.21 3298.74,-70.35 3288.35,-68.28 3289.32,-75.21"/>
</g>
<!-- Node53&#45;&gt;Node4 -->
<g id="edge77" class="edge">
<title>Node53&#45;&gt;Node4</title>
<path fill="none" stroke="midnightblue" d="M2953.26,-363.87C2922.71,-352.52 2868.87,-332.52 2834.22,-319.65"/>
<polygon fill="midnightblue" stroke="midnightblue" points="2835.15,-316.26 2824.56,-316.06 2832.71,-322.83 2835.15,-316.26"/>
</g>
<!-- Node53&#45;&gt;Node54 -->
<g id="edge70" class="edge">
<title>Node53&#45;&gt;Node54</title>
<path fill="none" stroke="midnightblue" d="M3007.28,-363.9C3086.95,-341.66 3299.92,-282.19 3389.22,-257.25"/>
<polygon fill="midnightblue" stroke="midnightblue" points="3390.29,-260.58 3398.98,-254.52 3388.4,-253.84 3390.29,-260.58"/>
</g>
<!-- Node54&#45;&gt;Node5 -->
<g id="edge71" class="edge">
<title>Node54&#45;&gt;Node5</title>
<path fill="none" stroke="midnightblue" d="M3398.41,-235.48C3360.22,-225 3295.33,-207.21 3253.2,-195.66"/>
<polygon fill="midnightblue" stroke="midnightblue" points="3254.1,-192.28 3243.53,-193.01 3252.25,-199.03 3254.1,-192.28"/>
</g>
<!-- Node54&#45;&gt;Node16 -->
<g id="edge75" class="edge">
<title>Node54&#45;&gt;Node16</title>
<path fill="none" stroke="midnightblue" d="M3417.01,-235.22C3405.95,-226.93 3389.99,-213.61 3379.5,-199 3365.76,-179.87 3341.3,-117.19 3329.39,-85.58"/>
<polygon fill="midnightblue" stroke="midnightblue" points="3332.52,-83.96 3325.74,-75.82 3325.96,-86.41 3332.52,-83.96"/>
</g>
<!-- Node55 -->
<g id="node49" class="node">
<title>Node55</title>
<g id="a_node49"><a xlink:href="_actuator_blade_distributor_8h.html" target="_top" xlink:title=" ">
<polygon fill="white" stroke="black" points="3388.5,-168.5 3388.5,-198.5 3542.5,-198.5 3542.5,-168.5 3388.5,-168.5"/>
<text text-anchor="start" x="3396.5" y="-186.5" font-family="Helvetica,sans-Serif" font-size="10.00">aero/actuator/ActuatorBlade</text>
<text text-anchor="middle" x="3465.5" y="-175.5" font-family="Helvetica,sans-Serif" font-size="10.00">Distributor.h</text>
</a>
</g>
</g>
<!-- Node54&#45;&gt;Node55 -->
<g id="edge72" class="edge">
<title>Node54&#45;&gt;Node55</title>
<path fill="none" stroke="midnightblue" d="M3434.66,-235.48C3439.12,-228.09 3445.79,-217.08 3451.78,-207.17"/>
<polygon fill="midnightblue" stroke="midnightblue" points="3454.83,-208.89 3457.02,-198.52 3448.84,-205.27 3454.83,-208.89"/>
</g>
<!-- Node56 -->
<g id="node50" class="node">
<title>Node56</title>
<g id="a_node50"><a xlink:title=" ">
<polygon fill="white" stroke="#bfbfbf" points="3472,-112.5 3472,-131.5 3517,-131.5 3517,-112.5 3472,-112.5"/>
<text text-anchor="middle" x="3494.5" y="-119.5" font-family="Helvetica,sans-Serif" font-size="10.00">utility</text>
</a>
</g>
</g>
<!-- Node54&#45;&gt;Node56 -->
<g id="edge76" class="edge">
<title>Node54&#45;&gt;Node56</title>
<path fill="none" stroke="midnightblue" d="M3493.9,-235.43C3515.86,-229.09 3538.2,-218.08 3551.5,-199 3559.38,-187.7 3557.51,-180.4 3551.5,-168 3545.1,-154.8 3532.75,-144.3 3521.17,-136.78"/>
<polygon fill="midnightblue" stroke="midnightblue" points="3522.95,-133.77 3512.58,-131.61 3519.34,-139.77 3522.95,-133.77"/>
</g>
<!-- Node55&#45;&gt;Node16 -->
<g id="edge73" class="edge">
<title>Node55&#45;&gt;Node16</title>
<path fill="none" stroke="midnightblue" d="M3447.97,-168.34C3420.79,-146.39 3368.77,-104.37 3341.01,-81.95"/>
<polygon fill="midnightblue" stroke="midnightblue" points="3343.21,-79.23 3333.23,-75.67 3338.81,-84.68 3343.21,-79.23"/>
</g>
<!-- Node55&#45;&gt;Node56 -->
<g id="edge74" class="edge">
<title>Node55&#45;&gt;Node56</title>
<path fill="none" stroke="midnightblue" d="M3472.37,-168.4C3476.41,-160.11 3481.56,-149.55 3485.87,-140.71"/>
<polygon fill="midnightblue" stroke="midnightblue" points="3489.05,-142.18 3490.28,-131.66 3482.75,-139.11 3489.05,-142.18"/>
</g>
</g>
</svg>
