<?xml version="1.0" encoding="UTF-8" standalone="no"?>
<!DOCTYPE svg PUBLIC "-//W3C//DTD SVG 1.1//EN"
 "http://www.w3.org/Graphics/SVG/1.1/DTD/svg11.dtd">
<!-- Generated by graphviz version 2.43.0 (0)
 -->
<!-- Title: ActuatorGenericSearchFunctor.h Pages: 1 -->
<svg width="2836pt" height="319pt"
 viewBox="0.00 0.00 2835.50 319.00" xmlns="http://www.w3.org/2000/svg" xmlns:xlink="http://www.w3.org/1999/xlink">
<g id="graph0" class="graph" transform="scale(1 1) rotate(0) translate(4 315)">
<title>ActuatorGenericSearchFunctor.h</title>
<polygon fill="white" stroke="transparent" points="-4,4 -4,-315 2831.5,-315 2831.5,4 -4,4"/>
<!-- Node1 -->
<g id="node1" class="node">
<title>Node1</title>
<g id="a_node1"><a xlink:title=" ">
<polygon fill="#bfbfbf" stroke="black" points="879,-291.5 879,-310.5 1052,-310.5 1052,-291.5 879,-291.5"/>
<text text-anchor="middle" x="965.5" y="-298.5" font-family="Helvetica,sans-Serif" font-size="10.00">ActuatorGenericSearchFunctor.h</text>
</a>
</g>
</g>
<!-- Node2 -->
<g id="node2" class="node">
<title>Node2</title>
<g id="a_node2"><a xlink:href="_utilities_actuator_8h.html" target="_top" xlink:title=" ">
<polygon fill="white" stroke="black" points="1081,-235.5 1081,-254.5 1254,-254.5 1254,-235.5 1081,-235.5"/>
<text text-anchor="middle" x="1167.5" y="-242.5" font-family="Helvetica,sans-Serif" font-size="10.00">aero/actuator/UtilitiesActuator.h</text>
</a>
</g>
</g>
<!-- Node1&#45;&gt;Node2 -->
<g id="edge1" class="edge">
<title>Node1&#45;&gt;Node2</title>
<path fill="none" stroke="midnightblue" d="M997.51,-291.44C1032.23,-282.16 1087.79,-267.31 1125.88,-257.13"/>
<polygon fill="midnightblue" stroke="midnightblue" points="1126.89,-260.48 1135.64,-254.52 1125.08,-253.72 1126.89,-260.48"/>
</g>
<!-- Node26 -->
<g id="node26" class="node">
<title>Node26</title>
<g id="a_node26"><a xlink:title=" ">
<polygon fill="white" stroke="#bfbfbf" points="280,-174 280,-193 439,-193 439,-174 280,-174"/>
<text text-anchor="middle" x="359.5" y="-181" font-family="Helvetica,sans-Serif" font-size="10.00">stk_mesh/base/BulkData.hpp</text>
</a>
</g>
</g>
<!-- Node1&#45;&gt;Node26 -->
<g id="edge42" class="edge">
<title>Node1&#45;&gt;Node26</title>
<path fill="none" stroke="midnightblue" d="M920.45,-291.41C811.3,-270.61 533.01,-217.57 414.39,-194.96"/>
<polygon fill="midnightblue" stroke="midnightblue" points="414.92,-191.5 404.44,-193.06 413.61,-198.38 414.92,-191.5"/>
</g>
<!-- Node34 -->
<g id="node34" class="node">
<title>Node34</title>
<g id="a_node34"><a xlink:href="_actuator_types_8h.html" target="_top" xlink:title=" ">
<polygon fill="white" stroke="black" points="70,-235.5 70,-254.5 233,-254.5 233,-235.5 70,-235.5"/>
<text text-anchor="middle" x="151.5" y="-242.5" font-family="Helvetica,sans-Serif" font-size="10.00">aero/actuator/ActuatorTypes.h</text>
</a>
</g>
</g>
<!-- Node1&#45;&gt;Node34 -->
<g id="edge39" class="edge">
<title>Node1&#45;&gt;Node34</title>
<path fill="none" stroke="midnightblue" d="M878.77,-294.25C724.04,-283.98 401.81,-262.61 243.42,-252.1"/>
<polygon fill="midnightblue" stroke="midnightblue" points="243.44,-248.59 233.23,-251.42 242.97,-255.58 243.44,-248.59"/>
</g>
<!-- Node36 -->
<g id="node36" class="node">
<title>Node36</title>
<g id="a_node36"><a xlink:href="_field_type_def_8h.html" target="_top" xlink:title=" ">
<polygon fill="white" stroke="black" points="2419.5,-235.5 2419.5,-254.5 2507.5,-254.5 2507.5,-235.5 2419.5,-235.5"/>
<text text-anchor="middle" x="2463.5" y="-242.5" font-family="Helvetica,sans-Serif" font-size="10.00">FieldTypeDef.h</text>
</a>
</g>
</g>
<!-- Node1&#45;&gt;Node36 -->
<g id="edge43" class="edge">
<title>Node1&#45;&gt;Node36</title>
<path fill="none" stroke="midnightblue" d="M1052.24,-296.87C1328.85,-286.9 2185.01,-256.04 2409.27,-247.95"/>
<polygon fill="midnightblue" stroke="midnightblue" points="2409.6,-251.45 2419.47,-247.59 2409.35,-244.45 2409.6,-251.45"/>
</g>
<!-- Node3 -->
<g id="node3" class="node">
<title>Node3</title>
<g id="a_node3"><a xlink:href="_master_element_8h.html" target="_top" xlink:title=" ">
<polygon fill="white" stroke="black" points="824,-174 824,-193 1007,-193 1007,-174 824,-174"/>
<text text-anchor="middle" x="915.5" y="-181" font-family="Helvetica,sans-Serif" font-size="10.00">master_element/MasterElement.h</text>
</a>
</g>
</g>
<!-- Node2&#45;&gt;Node3 -->
<g id="edge2" class="edge">
<title>Node2&#45;&gt;Node3</title>
<path fill="none" stroke="midnightblue" d="M1131.39,-235.48C1086.67,-224.92 1010.42,-206.91 961.53,-195.37"/>
<polygon fill="midnightblue" stroke="midnightblue" points="962.08,-191.9 951.54,-193.01 960.47,-198.71 962.08,-191.9"/>
</g>
<!-- Node12 -->
<g id="node12" class="node">
<title>Node12</title>
<g id="a_node12"><a xlink:title=" ">
<polygon fill="white" stroke="#bfbfbf" points="961,-0.5 961,-19.5 1102,-19.5 1102,-0.5 961,-0.5"/>
<text text-anchor="middle" x="1031.5" y="-7.5" font-family="Helvetica,sans-Serif" font-size="10.00">stk_mesh/base/Entity.hpp</text>
</a>
</g>
</g>
<!-- Node2&#45;&gt;Node12 -->
<g id="edge31" class="edge">
<title>Node2&#45;&gt;Node12</title>
<path fill="none" stroke="midnightblue" d="M1157,-235.43C1147.44,-227.09 1133.62,-213.56 1125.5,-199 1093.42,-141.46 1122.36,-111.26 1086.5,-56 1078.5,-43.67 1066.03,-33.07 1054.99,-25.26"/>
<polygon fill="midnightblue" stroke="midnightblue" points="1056.81,-22.27 1046.55,-19.61 1052.91,-28.08 1056.81,-22.27"/>
</g>
<!-- Node16 -->
<g id="node16" class="node">
<title>Node16</title>
<g id="a_node16"><a xlink:href="_master_element_repo_8h.html" target="_top" xlink:title=" ">
<polygon fill="white" stroke="black" points="593.5,-168.5 593.5,-198.5 767.5,-198.5 767.5,-168.5 593.5,-168.5"/>
<text text-anchor="start" x="601.5" y="-186.5" font-family="Helvetica,sans-Serif" font-size="10.00">master_element/MasterElement</text>
<text text-anchor="middle" x="680.5" y="-175.5" font-family="Helvetica,sans-Serif" font-size="10.00">Repo.h</text>
</a>
</g>
</g>
<!-- Node2&#45;&gt;Node16 -->
<g id="edge16" class="edge">
<title>Node2&#45;&gt;Node16</title>
<path fill="none" stroke="midnightblue" d="M1097.72,-235.48C1013.86,-225.23 872.62,-207.97 778,-196.41"/>
<polygon fill="midnightblue" stroke="midnightblue" points="778.2,-192.91 767.85,-195.17 777.35,-199.86 778.2,-192.91"/>
</g>
<!-- Node22 -->
<g id="node22" class="node">
<title>Node22</title>
<g id="a_node22"><a xlink:href="_nalu_env_8h.html" target="_top" xlink:title=" ">
<polygon fill="white" stroke="black" points="1135,-174 1135,-193 1200,-193 1200,-174 1135,-174"/>
<text text-anchor="middle" x="1167.5" y="-181" font-family="Helvetica,sans-Serif" font-size="10.00">NaluEnv.h</text>
</a>
</g>
</g>
<!-- Node2&#45;&gt;Node22 -->
<g id="edge26" class="edge">
<title>Node2&#45;&gt;Node22</title>
<path fill="none" stroke="midnightblue" d="M1167.5,-235.48C1167.5,-227.08 1167.5,-213.98 1167.5,-203.16"/>
<polygon fill="midnightblue" stroke="midnightblue" points="1171,-203.01 1167.5,-193.01 1164,-203.01 1171,-203.01"/>
</g>
<!-- Node2&#45;&gt;Node26 -->
<g id="edge30" class="edge">
<title>Node2&#45;&gt;Node26</title>
<path fill="none" stroke="midnightblue" d="M1080.93,-241.35C945.62,-236.58 675.95,-224.58 448.5,-199 438.13,-197.83 427.12,-196.29 416.51,-194.65"/>
<polygon fill="midnightblue" stroke="midnightblue" points="416.92,-191.17 406.49,-193.05 415.82,-198.08 416.92,-191.17"/>
</g>
<!-- Node27 -->
<g id="node27" class="node">
<title>Node27</title>
<g id="a_node27"><a xlink:title=" ">
<polygon fill="white" stroke="#bfbfbf" points="1218,-174 1218,-193 1355,-193 1355,-174 1218,-174"/>
<text text-anchor="middle" x="1286.5" y="-181" font-family="Helvetica,sans-Serif" font-size="10.00">stk_mesh/base/Field.hpp</text>
</a>
</g>
</g>
<!-- Node2&#45;&gt;Node27 -->
<g id="edge32" class="edge">
<title>Node2&#45;&gt;Node27</title>
<path fill="none" stroke="midnightblue" d="M1184.55,-235.48C1204.34,-225.58 1237.22,-209.14 1260.27,-197.62"/>
<polygon fill="midnightblue" stroke="midnightblue" points="1262.1,-200.61 1269.48,-193.01 1258.97,-194.35 1262.1,-200.61"/>
</g>
<!-- Node28 -->
<g id="node28" class="node">
<title>Node28</title>
<g id="a_node28"><a xlink:title=" ">
<polygon fill="white" stroke="#bfbfbf" points="1373,-174 1373,-193 1546,-193 1546,-174 1373,-174"/>
<text text-anchor="middle" x="1459.5" y="-181" font-family="Helvetica,sans-Serif" font-size="10.00">stk_mesh/base/FieldParallel.hpp</text>
</a>
</g>
</g>
<!-- Node2&#45;&gt;Node28 -->
<g id="edge33" class="edge">
<title>Node2&#45;&gt;Node28</title>
<path fill="none" stroke="midnightblue" d="M1209.34,-235.48C1261.7,-224.8 1351.37,-206.53 1407.93,-195.01"/>
<polygon fill="midnightblue" stroke="midnightblue" points="1408.64,-198.44 1417.74,-193.01 1407.24,-191.58 1408.64,-198.44"/>
</g>
<!-- Node29 -->
<g id="node29" class="node">
<title>Node29</title>
<g id="a_node29"><a xlink:title=" ">
<polygon fill="white" stroke="#bfbfbf" points="1564.5,-174 1564.5,-193 1734.5,-193 1734.5,-174 1564.5,-174"/>
<text text-anchor="middle" x="1649.5" y="-181" font-family="Helvetica,sans-Serif" font-size="10.00">stk_mesh/base/GetBuckets.hpp</text>
</a>
</g>
</g>
<!-- Node2&#45;&gt;Node29 -->
<g id="edge34" class="edge">
<title>Node2&#45;&gt;Node29</title>
<path fill="none" stroke="midnightblue" d="M1248.02,-235.48C1326.38,-227 1448.75,-213.21 1554.5,-199 1564.65,-197.64 1575.39,-196.09 1585.86,-194.53"/>
<polygon fill="midnightblue" stroke="midnightblue" points="1586.42,-197.99 1595.79,-193.04 1585.38,-191.07 1586.42,-197.99"/>
</g>
<!-- Node30 -->
<g id="node30" class="node">
<title>Node30</title>
<g id="a_node30"><a xlink:title=" ">
<polygon fill="white" stroke="#bfbfbf" points="1753,-174 1753,-193 1906,-193 1906,-174 1753,-174"/>
<text text-anchor="middle" x="1829.5" y="-181" font-family="Helvetica,sans-Serif" font-size="10.00">stk_mesh/base/Selector.hpp</text>
</a>
</g>
</g>
<!-- Node2&#45;&gt;Node30 -->
<g id="edge35" class="edge">
<title>Node2&#45;&gt;Node30</title>
<path fill="none" stroke="midnightblue" d="M1254.1,-239.64C1367.02,-233.41 1570.53,-220.3 1743.5,-199 1753.31,-197.79 1763.7,-196.26 1773.75,-194.64"/>
<polygon fill="midnightblue" stroke="midnightblue" points="1774.34,-198.09 1783.64,-193.01 1773.2,-191.19 1774.34,-198.09"/>
</g>
<!-- Node31 -->
<g id="node31" class="node">
<title>Node31</title>
<g id="a_node31"><a xlink:title=" ">
<polygon fill="white" stroke="#bfbfbf" points="1924.5,-174 1924.5,-193 2086.5,-193 2086.5,-174 1924.5,-174"/>
<text text-anchor="middle" x="2005.5" y="-181" font-family="Helvetica,sans-Serif" font-size="10.00">stk_mesh/base/MetaData.hpp</text>
</a>
</g>
</g>
<!-- Node2&#45;&gt;Node31 -->
<g id="edge36" class="edge">
<title>Node2&#45;&gt;Node31</title>
<path fill="none" stroke="midnightblue" d="M1254,-241.54C1393.4,-236.95 1676.22,-225.1 1914.5,-199 1925.21,-197.83 1936.59,-196.27 1947.54,-194.6"/>
<polygon fill="midnightblue" stroke="midnightblue" points="1948.11,-198.06 1957.45,-193.06 1947.03,-191.14 1948.11,-198.06"/>
</g>
<!-- Node32 -->
<g id="node32" class="node">
<title>Node32</title>
<g id="a_node32"><a xlink:title=" ">
<polygon fill="white" stroke="#bfbfbf" points="2105,-174 2105,-193 2238,-193 2238,-174 2105,-174"/>
<text text-anchor="middle" x="2171.5" y="-181" font-family="Helvetica,sans-Serif" font-size="10.00">stk_mesh/base/Part.hpp</text>
</a>
</g>
</g>
<!-- Node2&#45;&gt;Node32 -->
<g id="edge37" class="edge">
<title>Node2&#45;&gt;Node32</title>
<path fill="none" stroke="midnightblue" d="M1254.2,-243.84C1418.78,-242.64 1787.57,-235.66 2095.5,-199 2104.32,-197.95 2113.65,-196.48 2122.65,-194.87"/>
<polygon fill="midnightblue" stroke="midnightblue" points="2123.42,-198.28 2132.61,-193.01 2122.14,-191.4 2123.42,-198.28"/>
</g>
<!-- Node33 -->
<g id="node33" class="node">
<title>Node33</title>
<g id="a_node33"><a xlink:title=" ">
<polygon fill="white" stroke="#bfbfbf" points="457.5,-174 457.5,-193 575.5,-193 575.5,-174 457.5,-174"/>
<text text-anchor="middle" x="516.5" y="-181" font-family="Helvetica,sans-Serif" font-size="10.00">stk_search/Point.hpp</text>
</a>
</g>
</g>
<!-- Node2&#45;&gt;Node33 -->
<g id="edge38" class="edge">
<title>Node2&#45;&gt;Node33</title>
<path fill="none" stroke="midnightblue" d="M1080.67,-240.91C966.42,-236.01 759.57,-224.31 584.5,-199 577.27,-197.96 569.66,-196.59 562.26,-195.13"/>
<polygon fill="midnightblue" stroke="midnightblue" points="562.84,-191.67 552.34,-193.07 561.42,-198.53 562.84,-191.67"/>
</g>
<!-- Node4 -->
<g id="node4" class="node">
<title>Node4</title>
<g id="a_node4"><a xlink:href="_alg_traits_8h.html" target="_top" xlink:title=" ">
<polygon fill="white" stroke="black" points="781.5,-112.5 781.5,-131.5 849.5,-131.5 849.5,-112.5 781.5,-112.5"/>
<text text-anchor="middle" x="815.5" y="-119.5" font-family="Helvetica,sans-Serif" font-size="10.00">AlgTraits.h</text>
</a>
</g>
</g>
<!-- Node3&#45;&gt;Node4 -->
<g id="edge3" class="edge">
<title>Node3&#45;&gt;Node4</title>
<path fill="none" stroke="midnightblue" d="M901.17,-173.98C884.84,-164.25 857.9,-148.23 838.59,-136.74"/>
<polygon fill="midnightblue" stroke="midnightblue" points="840.18,-133.61 829.8,-131.51 836.61,-139.63 840.18,-133.61"/>
</g>
<!-- Node6 -->
<g id="node6" class="node">
<title>Node6</title>
<g id="a_node6"><a xlink:href="_simd_interface_8h.html" target="_top" xlink:title="STK SIMD Interface.">
<polygon fill="white" stroke="black" points="905.5,-112.5 905.5,-131.5 999.5,-131.5 999.5,-112.5 905.5,-112.5"/>
<text text-anchor="middle" x="952.5" y="-119.5" font-family="Helvetica,sans-Serif" font-size="10.00">SimdInterface.h</text>
</a>
</g>
</g>
<!-- Node3&#45;&gt;Node6 -->
<g id="edge5" class="edge">
<title>Node3&#45;&gt;Node6</title>
<path fill="none" stroke="midnightblue" d="M920.8,-173.98C926.24,-165.23 934.86,-151.37 941.74,-140.31"/>
<polygon fill="midnightblue" stroke="midnightblue" points="944.9,-141.85 947.21,-131.51 938.96,-138.15 944.9,-141.85"/>
</g>
<!-- Node10 -->
<g id="node10" class="node">
<title>Node10</title>
<g id="a_node10"><a xlink:href="_kokkos_interface_8h.html" target="_top" xlink:title=" ">
<polygon fill="white" stroke="black" points="578.5,-56.5 578.5,-75.5 682.5,-75.5 682.5,-56.5 578.5,-56.5"/>
<text text-anchor="middle" x="630.5" y="-63.5" font-family="Helvetica,sans-Serif" font-size="10.00">KokkosInterface.h</text>
</a>
</g>
</g>
<!-- Node3&#45;&gt;Node10 -->
<g id="edge9" class="edge">
<title>Node3&#45;&gt;Node10</title>
<path fill="none" stroke="midnightblue" d="M911.19,-173.94C903.1,-158.8 884.11,-127.45 858.5,-112 844.39,-103.49 755.4,-87.51 692.87,-77.06"/>
<polygon fill="midnightblue" stroke="midnightblue" points="693.13,-73.56 682.69,-75.37 691.98,-80.46 693.13,-73.56"/>
</g>
<!-- Node14 -->
<g id="node14" class="node">
<title>Node14</title>
<g id="a_node14"><a xlink:title=" ">
<polygon fill="white" stroke="#bfbfbf" points="598,-112.5 598,-131.5 763,-131.5 763,-112.5 598,-112.5"/>
<text text-anchor="middle" x="680.5" y="-119.5" font-family="Helvetica,sans-Serif" font-size="10.00">stk_util/util/ReportHandler.hpp</text>
</a>
</g>
</g>
<!-- Node3&#45;&gt;Node14 -->
<g id="edge14" class="edge">
<title>Node3&#45;&gt;Node14</title>
<path fill="none" stroke="midnightblue" d="M881.83,-173.98C840.3,-163.46 769.61,-145.56 724,-134.01"/>
<polygon fill="midnightblue" stroke="midnightblue" points="724.66,-130.57 714.11,-131.51 722.94,-137.36 724.66,-130.57"/>
</g>
<!-- Node15 -->
<g id="node15" class="node">
<title>Node15</title>
<g id="a_node15"><a xlink:title=" ">
<polygon fill="white" stroke="#bfbfbf" points="1018,-112.5 1018,-131.5 1083,-131.5 1083,-112.5 1018,-112.5"/>
<text text-anchor="middle" x="1050.5" y="-119.5" font-family="Helvetica,sans-Serif" font-size="10.00">stdexcept</text>
</a>
</g>
</g>
<!-- Node3&#45;&gt;Node15 -->
<g id="edge15" class="edge">
<title>Node3&#45;&gt;Node15</title>
<path fill="none" stroke="midnightblue" d="M934.84,-173.98C957.6,-163.95 995.59,-147.2 1021.79,-135.65"/>
<polygon fill="midnightblue" stroke="midnightblue" points="1023.45,-138.74 1031.19,-131.51 1020.63,-132.34 1023.45,-138.74"/>
</g>
<!-- Node5 -->
<g id="node5" class="node">
<title>Node5</title>
<g id="a_node5"><a xlink:title=" ">
<polygon fill="white" stroke="#bfbfbf" points="701,-56.5 701,-75.5 846,-75.5 846,-56.5 701,-56.5"/>
<text text-anchor="middle" x="773.5" y="-63.5" font-family="Helvetica,sans-Serif" font-size="10.00">stk_topology/topology.hpp</text>
</a>
</g>
</g>
<!-- Node4&#45;&gt;Node5 -->
<g id="edge4" class="edge">
<title>Node4&#45;&gt;Node5</title>
<path fill="none" stroke="midnightblue" d="M808.56,-112.08C802.57,-104.38 793.75,-93.03 786.45,-83.65"/>
<polygon fill="midnightblue" stroke="midnightblue" points="789.21,-81.5 780.31,-75.75 783.68,-85.79 789.21,-81.5"/>
</g>
<!-- Node7 -->
<g id="node7" class="node">
<title>Node7</title>
<g id="a_node7"><a xlink:title=" ">
<polygon fill="white" stroke="#bfbfbf" points="902.5,-56.5 902.5,-75.5 1012.5,-75.5 1012.5,-56.5 902.5,-56.5"/>
<text text-anchor="middle" x="957.5" y="-63.5" font-family="Helvetica,sans-Serif" font-size="10.00">stk_simd/Simd.hpp</text>
</a>
</g>
</g>
<!-- Node6&#45;&gt;Node7 -->
<g id="edge6" class="edge">
<title>Node6&#45;&gt;Node7</title>
<path fill="none" stroke="midnightblue" d="M953.33,-112.08C953.98,-105.01 954.92,-94.86 955.74,-85.99"/>
<polygon fill="midnightblue" stroke="midnightblue" points="959.25,-86.03 956.69,-75.75 952.28,-85.39 959.25,-86.03"/>
</g>
<!-- Node8 -->
<g id="node8" class="node">
<title>Node8</title>
<g id="a_node8"><a xlink:title=" ">
<polygon fill="white" stroke="#bfbfbf" points="746,-0.5 746,-19.5 859,-19.5 859,-0.5 746,-0.5"/>
<text text-anchor="middle" x="802.5" y="-7.5" font-family="Helvetica,sans-Serif" font-size="10.00">Kokkos_Macros.hpp</text>
</a>
</g>
</g>
<!-- Node6&#45;&gt;Node8 -->
<g id="edge7" class="edge">
<title>Node6&#45;&gt;Node8</title>
<path fill="none" stroke="midnightblue" d="M940.73,-112.37C915.1,-93.57 854,-48.77 822.32,-25.53"/>
<polygon fill="midnightblue" stroke="midnightblue" points="824.35,-22.68 814.22,-19.59 820.21,-28.33 824.35,-22.68"/>
</g>
<!-- Node9 -->
<g id="node9" class="node">
<title>Node9</title>
<g id="a_node9"><a xlink:title=" ">
<polygon fill="white" stroke="#bfbfbf" points="1031,-56.5 1031,-75.5 1078,-75.5 1078,-56.5 1031,-56.5"/>
<text text-anchor="middle" x="1054.5" y="-63.5" font-family="Helvetica,sans-Serif" font-size="10.00">vector</text>
</a>
</g>
</g>
<!-- Node6&#45;&gt;Node9 -->
<g id="edge8" class="edge">
<title>Node6&#45;&gt;Node9</title>
<path fill="none" stroke="midnightblue" d="M968.89,-112.32C985.17,-103.7 1010.37,-90.36 1029.22,-80.39"/>
<polygon fill="midnightblue" stroke="midnightblue" points="1030.95,-83.43 1038.15,-75.65 1027.68,-77.24 1030.95,-83.43"/>
</g>
<!-- Node10&#45;&gt;Node8 -->
<g id="edge12" class="edge">
<title>Node10&#45;&gt;Node8</title>
<path fill="none" stroke="midnightblue" d="M657.75,-56.44C686.94,-47.28 733.42,-32.69 765.81,-22.52"/>
<polygon fill="midnightblue" stroke="midnightblue" points="766.88,-25.85 775.37,-19.52 764.78,-19.17 766.88,-25.85"/>
</g>
<!-- Node11 -->
<g id="node11" class="node">
<title>Node11</title>
<g id="a_node11"><a xlink:title=" ">
<polygon fill="white" stroke="#bfbfbf" points="604,-0.5 604,-19.5 657,-19.5 657,-0.5 604,-0.5"/>
<text text-anchor="middle" x="630.5" y="-7.5" font-family="Helvetica,sans-Serif" font-size="10.00">cstddef</text>
</a>
</g>
</g>
<!-- Node10&#45;&gt;Node11 -->
<g id="edge10" class="edge">
<title>Node10&#45;&gt;Node11</title>
<path fill="none" stroke="midnightblue" d="M630.5,-56.08C630.5,-49.01 630.5,-38.86 630.5,-29.99"/>
<polygon fill="midnightblue" stroke="midnightblue" points="634,-29.75 630.5,-19.75 627,-29.75 634,-29.75"/>
</g>
<!-- Node10&#45;&gt;Node12 -->
<g id="edge11" class="edge">
<title>Node10&#45;&gt;Node12</title>
<path fill="none" stroke="midnightblue" d="M682.74,-57.24C685.7,-56.82 688.64,-56.4 691.5,-56 781.8,-43.36 885.73,-29.74 954.67,-20.84"/>
<polygon fill="midnightblue" stroke="midnightblue" points="955.54,-24.25 965.01,-19.5 954.64,-17.31 955.54,-24.25"/>
</g>
<!-- Node13 -->
<g id="node13" class="node">
<title>Node13</title>
<g id="a_node13"><a xlink:title=" ">
<polygon fill="white" stroke="#bfbfbf" points="296.5,-0.5 296.5,-19.5 396.5,-19.5 396.5,-0.5 296.5,-0.5"/>
<text text-anchor="middle" x="346.5" y="-7.5" font-family="Helvetica,sans-Serif" font-size="10.00">Kokkos_Core.hpp</text>
</a>
</g>
</g>
<!-- Node10&#45;&gt;Node13 -->
<g id="edge13" class="edge">
<title>Node10&#45;&gt;Node13</title>
<path fill="none" stroke="midnightblue" d="M585.5,-56.44C535.54,-46.94 454.9,-31.61 401.3,-21.42"/>
<polygon fill="midnightblue" stroke="midnightblue" points="401.77,-17.95 391.29,-19.52 400.46,-24.82 401.77,-17.95"/>
</g>
<!-- Node16&#45;&gt;Node4 -->
<g id="edge22" class="edge">
<title>Node16&#45;&gt;Node4</title>
<path fill="none" stroke="midnightblue" d="M712.49,-168.4C734.94,-158.51 764.71,-145.38 786.48,-135.79"/>
<polygon fill="midnightblue" stroke="midnightblue" points="788.12,-138.89 795.86,-131.66 785.29,-132.49 788.12,-138.89"/>
</g>
<!-- Node16&#45;&gt;Node14 -->
<g id="edge21" class="edge">
<title>Node16&#45;&gt;Node14</title>
<path fill="none" stroke="midnightblue" d="M680.5,-168.4C680.5,-160.47 680.5,-150.46 680.5,-141.86"/>
<polygon fill="midnightblue" stroke="midnightblue" points="684,-141.66 680.5,-131.66 677,-141.66 684,-141.66"/>
</g>
<!-- Node17 -->
<g id="node17" class="node">
<title>Node17</title>
<g id="a_node17"><a xlink:title=" ">
<polygon fill="white" stroke="#bfbfbf" points="255.5,-112.5 255.5,-131.5 299.5,-131.5 299.5,-112.5 255.5,-112.5"/>
<text text-anchor="middle" x="277.5" y="-119.5" font-family="Helvetica,sans-Serif" font-size="10.00">string</text>
</a>
</g>
</g>
<!-- Node16&#45;&gt;Node17 -->
<g id="edge17" class="edge">
<title>Node16&#45;&gt;Node17</title>
<path fill="none" stroke="midnightblue" d="M593.39,-169.27C590.39,-168.84 587.42,-168.41 584.5,-168 464.2,-150.93 432.85,-154.77 313.5,-132 312.25,-131.76 310.99,-131.51 309.71,-131.24"/>
<polygon fill="midnightblue" stroke="midnightblue" points="310.41,-127.81 299.88,-129.01 308.86,-134.64 310.41,-127.81"/>
</g>
<!-- Node18 -->
<g id="node18" class="node">
<title>Node18</title>
<g id="a_node18"><a xlink:title=" ">
<polygon fill="white" stroke="#bfbfbf" points="541.5,-112.5 541.5,-131.5 579.5,-131.5 579.5,-112.5 541.5,-112.5"/>
<text text-anchor="middle" x="560.5" y="-119.5" font-family="Helvetica,sans-Serif" font-size="10.00">map</text>
</a>
</g>
</g>
<!-- Node16&#45;&gt;Node18 -->
<g id="edge18" class="edge">
<title>Node16&#45;&gt;Node18</title>
<path fill="none" stroke="midnightblue" d="M652.06,-168.4C632.38,-158.64 606.36,-145.74 587.09,-136.18"/>
<polygon fill="midnightblue" stroke="midnightblue" points="588.48,-132.96 577.96,-131.66 585.37,-139.24 588.48,-132.96"/>
</g>
<!-- Node19 -->
<g id="node19" class="node">
<title>Node19</title>
<g id="a_node19"><a xlink:title=" ">
<polygon fill="white" stroke="#bfbfbf" points="179.5,-112.5 179.5,-131.5 237.5,-131.5 237.5,-112.5 179.5,-112.5"/>
<text text-anchor="middle" x="208.5" y="-119.5" font-family="Helvetica,sans-Serif" font-size="10.00">memory</text>
</a>
</g>
</g>
<!-- Node16&#45;&gt;Node19 -->
<g id="edge19" class="edge">
<title>Node16&#45;&gt;Node19</title>
<path fill="none" stroke="midnightblue" d="M593.4,-169.17C590.4,-168.77 587.43,-168.38 584.5,-168 437.88,-149.13 397.15,-157.1 247.87,-132.05"/>
<polygon fill="midnightblue" stroke="midnightblue" points="248.33,-128.57 237.88,-130.35 247.16,-135.47 248.33,-128.57"/>
</g>
<!-- Node20 -->
<g id="node20" class="node">
<title>Node20</title>
<g id="a_node20"><a xlink:title=" ">
<polygon fill="white" stroke="#bfbfbf" points="349,-56.5 349,-75.5 418,-75.5 418,-56.5 349,-56.5"/>
<text text-anchor="middle" x="383.5" y="-63.5" font-family="Helvetica,sans-Serif" font-size="10.00">type_traits</text>
</a>
</g>
</g>
<!-- Node16&#45;&gt;Node20 -->
<g id="edge20" class="edge">
<title>Node16&#45;&gt;Node20</title>
<path fill="none" stroke="midnightblue" d="M593.38,-169.34C590.38,-168.89 587.42,-168.44 584.5,-168 531.39,-159.99 380.54,-172.71 345.5,-132 332.28,-116.64 349,-96.06 364.25,-82.2"/>
<polygon fill="midnightblue" stroke="midnightblue" points="366.6,-84.8 371.92,-75.63 362.05,-79.48 366.6,-84.8"/>
</g>
<!-- Node21 -->
<g id="node21" class="node">
<title>Node21</title>
<g id="a_node21"><a xlink:href="_create_device_expression_8h.html" target="_top" xlink:title=" ">
<polygon fill="white" stroke="black" points="355,-112.5 355,-131.5 524,-131.5 524,-112.5 355,-112.5"/>
<text text-anchor="middle" x="439.5" y="-119.5" font-family="Helvetica,sans-Serif" font-size="10.00">utils/CreateDeviceExpression.h</text>
</a>
</g>
</g>
<!-- Node16&#45;&gt;Node21 -->
<g id="edge23" class="edge">
<title>Node16&#45;&gt;Node21</title>
<path fill="none" stroke="midnightblue" d="M623.69,-168.47C580.93,-157.92 523.16,-143.66 483.79,-133.94"/>
<polygon fill="midnightblue" stroke="midnightblue" points="484.5,-130.51 473.95,-131.51 482.82,-137.3 484.5,-130.51"/>
</g>
<!-- Node21&#45;&gt;Node10 -->
<g id="edge25" class="edge">
<title>Node21&#45;&gt;Node10</title>
<path fill="none" stroke="midnightblue" d="M469.76,-112.44C502.46,-103.2 554.68,-88.44 590.68,-78.26"/>
<polygon fill="midnightblue" stroke="midnightblue" points="591.71,-81.61 600.38,-75.52 589.8,-74.87 591.71,-81.61"/>
</g>
<!-- Node21&#45;&gt;Node20 -->
<g id="edge24" class="edge">
<title>Node21&#45;&gt;Node20</title>
<path fill="none" stroke="midnightblue" d="M430.5,-112.32C422.31,-104.42 409.99,-92.55 400.03,-82.94"/>
<polygon fill="midnightblue" stroke="midnightblue" points="402.29,-80.26 392.66,-75.83 397.43,-85.29 402.29,-80.26"/>
</g>
<!-- Node23 -->
<g id="node23" class="node">
<title>Node23</title>
<g id="a_node23"><a xlink:title=" ">
<polygon fill="white" stroke="#bfbfbf" points="1298.5,-112.5 1298.5,-131.5 1342.5,-131.5 1342.5,-112.5 1298.5,-112.5"/>
<text text-anchor="middle" x="1320.5" y="-119.5" font-family="Helvetica,sans-Serif" font-size="10.00">mpi.h</text>
</a>
</g>
</g>
<!-- Node22&#45;&gt;Node23 -->
<g id="edge27" class="edge">
<title>Node22&#45;&gt;Node23</title>
<path fill="none" stroke="midnightblue" d="M1189.42,-173.98C1215.55,-163.81 1259.41,-146.76 1289.13,-135.2"/>
<polygon fill="midnightblue" stroke="midnightblue" points="1290.57,-138.4 1298.62,-131.51 1288.03,-131.87 1290.57,-138.4"/>
</g>
<!-- Node24 -->
<g id="node24" class="node">
<title>Node24</title>
<g id="a_node24"><a xlink:title=" ">
<polygon fill="white" stroke="#bfbfbf" points="1140,-112.5 1140,-131.5 1195,-131.5 1195,-112.5 1140,-112.5"/>
<text text-anchor="middle" x="1167.5" y="-119.5" font-family="Helvetica,sans-Serif" font-size="10.00">fstream</text>
</a>
</g>
</g>
<!-- Node22&#45;&gt;Node24 -->
<g id="edge28" class="edge">
<title>Node22&#45;&gt;Node24</title>
<path fill="none" stroke="midnightblue" d="M1167.5,-173.98C1167.5,-165.58 1167.5,-152.48 1167.5,-141.66"/>
<polygon fill="midnightblue" stroke="midnightblue" points="1171,-141.51 1167.5,-131.51 1164,-141.51 1171,-141.51"/>
</g>
<!-- Node25 -->
<g id="node25" class="node">
<title>Node25</title>
<g id="a_node25"><a xlink:title=" ">
<polygon fill="white" stroke="#bfbfbf" points="1213,-112.5 1213,-131.5 1280,-131.5 1280,-112.5 1213,-112.5"/>
<text text-anchor="middle" x="1246.5" y="-119.5" font-family="Helvetica,sans-Serif" font-size="10.00">streambuf</text>
</a>
</g>
</g>
<!-- Node22&#45;&gt;Node25 -->
<g id="edge29" class="edge">
<title>Node22&#45;&gt;Node25</title>
<path fill="none" stroke="midnightblue" d="M1178.82,-173.98C1191.37,-164.52 1211.85,-149.1 1227,-137.69"/>
<polygon fill="midnightblue" stroke="midnightblue" points="1229.32,-140.32 1235.2,-131.51 1225.11,-134.73 1229.32,-140.32"/>
</g>
<!-- Node34&#45;&gt;Node13 -->
<g id="edge40" class="edge">
<title>Node34&#45;&gt;Node13</title>
<path fill="none" stroke="midnightblue" d="M150.33,-235.38C147.73,-212.89 143.71,-151.46 170.5,-112 202.58,-64.74 264.62,-36.83 305.8,-22.72"/>
<polygon fill="midnightblue" stroke="midnightblue" points="307.14,-25.96 315.54,-19.51 304.94,-19.32 307.14,-25.96"/>
</g>
<!-- Node35 -->
<g id="node35" class="node">
<title>Node35</title>
<g id="a_node35"><a xlink:title=" ">
<polygon fill="white" stroke="#bfbfbf" points="0,-174 0,-193 123,-193 123,-174 0,-174"/>
<text text-anchor="middle" x="61.5" y="-181" font-family="Helvetica,sans-Serif" font-size="10.00">Kokkos_DualView.hpp</text>
</a>
</g>
</g>
<!-- Node34&#45;&gt;Node35 -->
<g id="edge41" class="edge">
<title>Node34&#45;&gt;Node35</title>
<path fill="none" stroke="midnightblue" d="M138.61,-235.48C124.04,-225.84 100.1,-210.02 82.75,-198.55"/>
<polygon fill="midnightblue" stroke="midnightblue" points="84.64,-195.6 74.37,-193.01 80.78,-201.44 84.64,-195.6"/>
</g>
<!-- Node37 -->
<g id="node37" class="node">
<title>Node37</title>
<g id="a_node37"><a xlink:title=" ">
<polygon fill="white" stroke="#bfbfbf" points="2514,-174 2514,-193 2675,-193 2675,-174 2514,-174"/>
<text text-anchor="middle" x="2594.5" y="-181" font-family="Helvetica,sans-Serif" font-size="10.00">stk_mesh/base/FieldBase.hpp</text>
</a>
</g>
</g>
<!-- Node36&#45;&gt;Node37 -->
<g id="edge44" class="edge">
<title>Node36&#45;&gt;Node37</title>
<path fill="none" stroke="midnightblue" d="M2482.27,-235.48C2504.35,-225.45 2541.22,-208.7 2566.64,-197.15"/>
<polygon fill="midnightblue" stroke="midnightblue" points="2568.11,-200.33 2575.77,-193.01 2565.21,-193.96 2568.11,-200.33"/>
</g>
<!-- Node38 -->
<g id="node38" class="node">
<title>Node38</title>
<g id="a_node38"><a xlink:title=" ">
<polygon fill="white" stroke="#bfbfbf" points="2693.5,-174 2693.5,-193 2827.5,-193 2827.5,-174 2693.5,-174"/>
<text text-anchor="middle" x="2760.5" y="-181" font-family="Helvetica,sans-Serif" font-size="10.00">stk_mesh/base/Ngp.hpp</text>
</a>
</g>
</g>
<!-- Node36&#45;&gt;Node38 -->
<g id="edge45" class="edge">
<title>Node36&#45;&gt;Node38</title>
<path fill="none" stroke="midnightblue" d="M2506.05,-235.48C2559.31,-224.8 2650.52,-206.53 2708.04,-195.01"/>
<polygon fill="midnightblue" stroke="midnightblue" points="2708.91,-198.41 2718.03,-193.01 2707.53,-191.54 2708.91,-198.41"/>
</g>
<!-- Node39 -->
<g id="node39" class="node">
<title>Node39</title>
<g id="a_node39"><a xlink:title=" ">
<polygon fill="white" stroke="#bfbfbf" points="2256,-174 2256,-193 2413,-193 2413,-174 2256,-174"/>
<text text-anchor="middle" x="2334.5" y="-181" font-family="Helvetica,sans-Serif" font-size="10.00">stk_mesh/base/NgpField.hpp</text>
</a>
</g>
</g>
<!-- Node36&#45;&gt;Node39 -->
<g id="edge46" class="edge">
<title>Node36&#45;&gt;Node39</title>
<path fill="none" stroke="midnightblue" d="M2445.02,-235.48C2423.37,-225.49 2387.29,-208.85 2362.27,-197.31"/>
<polygon fill="midnightblue" stroke="midnightblue" points="2363.49,-194.02 2352.95,-193.01 2360.56,-200.38 2363.49,-194.02"/>
</g>
<!-- Node40 -->
<g id="node40" class="node">
<title>Node40</title>
<g id="a_node40"><a xlink:title=" ">
<polygon fill="white" stroke="#bfbfbf" points="2431,-174 2431,-193 2496,-193 2496,-174 2431,-174"/>
<text text-anchor="middle" x="2463.5" y="-181" font-family="Helvetica,sans-Serif" font-size="10.00">functional</text>
</a>
</g>
</g>
<!-- Node36&#45;&gt;Node40 -->
<g id="edge47" class="edge">
<title>Node36&#45;&gt;Node40</title>
<path fill="none" stroke="midnightblue" d="M2463.5,-235.48C2463.5,-227.08 2463.5,-213.98 2463.5,-203.16"/>
<polygon fill="midnightblue" stroke="midnightblue" points="2467,-203.01 2463.5,-193.01 2460,-203.01 2467,-203.01"/>
</g>
</g>
</svg>
