<?xml version="1.0" encoding="UTF-8" standalone="no"?>
<!DOCTYPE svg PUBLIC "-//W3C//DTD SVG 1.1//EN"
 "http://www.w3.org/Graphics/SVG/1.1/DTD/svg11.dtd">
<!-- Generated by graphviz version 2.43.0 (0)
 -->
<!-- Title: ActuatorParsingSimple.C Pages: 1 -->
<!--zoomable 319 -->
<svg id="main" version="1.1" xmlns="http://www.w3.org/2000/svg" xmlns:xlink="http://www.w3.org/1999/xlink" xml:space="preserve" onload="init(evt)">
<style type="text/css"><![CDATA[
.edge:hover path { stroke: red; }
.edge:hover polygon { stroke: red; fill: red; }
]]></style>
<script type="text/javascript"><![CDATA[
var edges = document.getElementsByTagName('g');
if (edges && edges.length) {
  for (var i=0;i<edges.length;i++) {
    if (edges[i].id.substr(0,4)=='edge') {
      edges[i].setAttribute('class','edge');
    }
  }
}
]]></script>
        <defs>
                <circle id="rim" cx="0" cy="0" r="7"/>
                <circle id="rim2" cx="0" cy="0" r="3.5"/>
                <g id="zoomPlus">
                        <use xlink:href="#rim" fill="#404040">
                                <set attributeName="fill" to="#808080" begin="zoomplus.mouseover" end="zoomplus.mouseout"/>
                        </use>
                        <path d="M-4,0h8M0,-4v8" fill="none" stroke="white" stroke-width="1.5" pointer-events="none"/>
                </g>
                <g id="zoomMin">
                        <use xlink:href="#rim" fill="#404040">
                                <set attributeName="fill" to="#808080" begin="zoomminus.mouseover" end="zoomminus.mouseout"/>
                        </use>
                        <path d="M-4,0h8" fill="none" stroke="white" stroke-width="1.5" pointer-events="none"/>
                </g>
                <g id="dirArrow">
                        <path fill="none" stroke="white" stroke-width="1.5" d="M0,-3.0v7 M-2.5,-0.5L0,-3.0L2.5,-0.5"/>
                </g>
               <g id="resetDef">
                       <use xlink:href="#rim2" fill="#404040">
                               <set attributeName="fill" to="#808080" begin="reset.mouseover" end="reset.mouseout"/>
                       </use>
               </g>
        </defs>

<script type="text/javascript">
var viewWidth = 1848;
var viewHeight = 319;
var sectionId = 'dynsection-0';
</script>
<script xlink:href="svgpan.js"/>
<svg id="graph" class="graph">
<g id="viewport">
<title>ActuatorParsingSimple.C</title>
<polygon fill="white" stroke="transparent" points="-4,4 -4,-315 1844,-315 1844,4 -4,4"/>
<!-- Node1 -->
<g id="node1" class="node">
<title>Node1</title>
<g id="a_node1"><a xlink:title=" ">
<polygon fill="#bfbfbf" stroke="black" points="1131.5,-291.5 1131.5,-310.5 1268.5,-310.5 1268.5,-291.5 1131.5,-291.5"/>
<text text-anchor="middle" x="1200" y="-298.5" font-family="Helvetica,sans-Serif" font-size="10.00">ActuatorParsingSimple.C</text>
</a>
</g>
</g>
<!-- Node2 -->
<g id="node2" class="node">
<title>Node2</title>
<g id="a_node2"><a xlink:href="_actuator_bulk_8h.html" target="_top" xlink:title=" ">
<polygon fill="white" stroke="black" points="625.5,-168.5 625.5,-187.5 782.5,-187.5 782.5,-168.5 625.5,-168.5"/>
<text text-anchor="middle" x="704" y="-175.5" font-family="Helvetica,sans-Serif" font-size="10.00">aero/actuator/ActuatorBulk.h</text>
</a>
</g>
</g>
<!-- Node1&#45;&gt;Node2 -->
<g id="edge1" class="edge">
<title>Node1&#45;&gt;Node2</title>
<path fill="none" stroke="midnightblue" d="M1131.21,-299.38C1057.06,-296.91 936.45,-287.6 838,-255 794.36,-240.55 748.91,-211.24 723.76,-193.54"/>
<polygon fill="midnightblue" stroke="midnightblue" points="725.62,-190.57 715.45,-187.59 721.54,-196.26 725.62,-190.57"/>
</g>
<!-- Node15 -->
<g id="node15" class="node">
<title>Node15</title>
<g id="a_node15"><a xlink:href="_actuator_bulk_simple_8h.html" target="_top" xlink:title=" ">
<polygon fill="white" stroke="black" points="847,-224.5 847,-254.5 995,-254.5 995,-224.5 847,-224.5"/>
<text text-anchor="start" x="855" y="-242.5" font-family="Helvetica,sans-Serif" font-size="10.00">aero/actuator/ActuatorBulk</text>
<text text-anchor="middle" x="921" y="-231.5" font-family="Helvetica,sans-Serif" font-size="10.00">Simple.h</text>
</a>
</g>
</g>
<!-- Node1&#45;&gt;Node15 -->
<g id="edge16" class="edge">
<title>Node1&#45;&gt;Node15</title>
<path fill="none" stroke="midnightblue" d="M1160.03,-291.48C1117.56,-282.42 1049.42,-267.89 996.74,-256.65"/>
<polygon fill="midnightblue" stroke="midnightblue" points="997.26,-253.19 986.75,-254.52 995.8,-260.03 997.26,-253.19"/>
</g>
<!-- Node16 -->
<g id="node16" class="node">
<title>Node16</title>
<g id="a_node16"><a xlink:href="_nalu_parsing_8h.html" target="_top" xlink:title=" ">
<polygon fill="white" stroke="black" points="1246.5,-230 1246.5,-249 1329.5,-249 1329.5,-230 1246.5,-230"/>
<text text-anchor="middle" x="1288" y="-237" font-family="Helvetica,sans-Serif" font-size="10.00">NaluParsing.h</text>
</a>
</g>
</g>
<!-- Node1&#45;&gt;Node16 -->
<g id="edge18" class="edge">
<title>Node1&#45;&gt;Node16</title>
<path fill="none" stroke="midnightblue" d="M1212.61,-291.48C1226.72,-281.93 1249.83,-266.31 1266.75,-254.87"/>
<polygon fill="midnightblue" stroke="midnightblue" points="1269.09,-257.51 1275.42,-249.01 1265.17,-251.71 1269.09,-257.51"/>
</g>
<!-- Node26 -->
<g id="node26" class="node">
<title>Node26</title>
<g id="a_node26"><a xlink:href="_nalu_env_8h.html" target="_top" xlink:title=" ">
<polygon fill="white" stroke="black" points="1687.5,-168.5 1687.5,-187.5 1752.5,-187.5 1752.5,-168.5 1687.5,-168.5"/>
<text text-anchor="middle" x="1720" y="-175.5" font-family="Helvetica,sans-Serif" font-size="10.00">NaluEnv.h</text>
</a>
</g>
</g>
<!-- Node1&#45;&gt;Node26 -->
<g id="edge58" class="edge">
<title>Node1&#45;&gt;Node26</title>
<path fill="none" stroke="midnightblue" d="M1238.66,-291.46C1267.41,-284.18 1307.04,-272.15 1339,-255 1358.51,-244.53 1357.62,-232.65 1378,-224 1391.64,-218.21 1588.6,-194.48 1677.27,-184.01"/>
<polygon fill="midnightblue" stroke="midnightblue" points="1677.76,-187.47 1687.28,-182.83 1676.94,-180.52 1677.76,-187.47"/>
</g>
<!-- Node29 -->
<g id="node29" class="node">
<title>Node29</title>
<g id="a_node29"><a xlink:href="_actuator_parsing_simple_8h.html" target="_top" xlink:title=" ">
<polygon fill="white" stroke="black" points="1386.5,-224.5 1386.5,-254.5 1547.5,-254.5 1547.5,-224.5 1386.5,-224.5"/>
<text text-anchor="start" x="1394.5" y="-242.5" font-family="Helvetica,sans-Serif" font-size="10.00">aero/actuator/ActuatorParsing</text>
<text text-anchor="middle" x="1467" y="-231.5" font-family="Helvetica,sans-Serif" font-size="10.00">Simple.h</text>
</a>
</g>
</g>
<!-- Node1&#45;&gt;Node29 -->
<g id="edge55" class="edge">
<title>Node1&#45;&gt;Node29</title>
<path fill="none" stroke="midnightblue" d="M1238.25,-291.48C1278.81,-282.44 1343.83,-267.95 1394.21,-256.72"/>
<polygon fill="midnightblue" stroke="midnightblue" points="1395.07,-260.11 1404.07,-254.52 1393.55,-253.28 1395.07,-260.11"/>
</g>
<!-- Node30 -->
<g id="node30" class="node">
<title>Node30</title>
<g id="a_node30"><a xlink:href="_actuator_parsing_8h.html" target="_top" xlink:title=" ">
<polygon fill="white" stroke="black" points="1043,-230 1043,-249 1213,-249 1213,-230 1043,-230"/>
<text text-anchor="middle" x="1128" y="-237" font-family="Helvetica,sans-Serif" font-size="10.00">aero/actuator/ActuatorParsing.h</text>
</a>
</g>
</g>
<!-- Node1&#45;&gt;Node30 -->
<g id="edge56" class="edge">
<title>Node1&#45;&gt;Node30</title>
<path fill="none" stroke="midnightblue" d="M1189.68,-291.48C1178.35,-282.11 1159.93,-266.88 1146.16,-255.51"/>
<polygon fill="midnightblue" stroke="midnightblue" points="1148.23,-252.68 1138.3,-249.01 1143.78,-258.08 1148.23,-252.68"/>
</g>
<!-- Node3 -->
<g id="node3" class="node">
<title>Node3</title>
<g id="a_node3"><a xlink:href="_actuator_types_8h.html" target="_top" xlink:title=" ">
<polygon fill="white" stroke="black" points="729.5,-56.5 729.5,-75.5 892.5,-75.5 892.5,-56.5 729.5,-56.5"/>
<text text-anchor="middle" x="811" y="-63.5" font-family="Helvetica,sans-Serif" font-size="10.00">aero/actuator/ActuatorTypes.h</text>
</a>
</g>
</g>
<!-- Node2&#45;&gt;Node3 -->
<g id="edge2" class="edge">
<title>Node2&#45;&gt;Node3</title>
<path fill="none" stroke="midnightblue" d="M712.4,-168.37C730.29,-149.97 772.41,-106.67 795.39,-83.05"/>
<polygon fill="midnightblue" stroke="midnightblue" points="798.18,-85.2 802.64,-75.59 793.16,-80.32 798.18,-85.2"/>
</g>
<!-- Node6 -->
<g id="node6" class="node">
<title>Node6</title>
<g id="a_node6"><a xlink:href="_actuator_search_8h.html" target="_top" xlink:title=" ">
<polygon fill="white" stroke="black" points="441,-112.5 441,-131.5 609,-131.5 609,-112.5 441,-112.5"/>
<text text-anchor="middle" x="525" y="-119.5" font-family="Helvetica,sans-Serif" font-size="10.00">aero/actuator/ActuatorSearch.h</text>
</a>
</g>
</g>
<!-- Node2&#45;&gt;Node6 -->
<g id="edge5" class="edge">
<title>Node2&#45;&gt;Node6</title>
<path fill="none" stroke="midnightblue" d="M675.64,-168.44C645.26,-159.28 596.89,-144.69 563.18,-134.52"/>
<polygon fill="midnightblue" stroke="midnightblue" points="563.82,-131.05 553.23,-131.52 561.79,-137.76 563.82,-131.05"/>
</g>
<!-- Node11 -->
<g id="node11" class="node">
<title>Node11</title>
<g id="a_node11"><a xlink:href="_enums_8h.html" target="_top" xlink:title=" ">
<polygon fill="white" stroke="black" points="888.5,-112.5 888.5,-131.5 947.5,-131.5 947.5,-112.5 888.5,-112.5"/>
<text text-anchor="middle" x="918" y="-119.5" font-family="Helvetica,sans-Serif" font-size="10.00">Enums.h</text>
</a>
</g>
</g>
<!-- Node2&#45;&gt;Node11 -->
<g id="edge12" class="edge">
<title>Node2&#45;&gt;Node11</title>
<path fill="none" stroke="midnightblue" d="M737.91,-168.44C776.15,-158.79 838.26,-143.12 878.62,-132.94"/>
<polygon fill="midnightblue" stroke="midnightblue" points="879.55,-136.31 888.38,-130.47 877.83,-129.53 879.55,-136.31"/>
</g>
<!-- Node14 -->
<g id="node14" class="node">
<title>Node14</title>
<g id="a_node14"><a xlink:title=" ">
<polygon fill="white" stroke="#bfbfbf" points="1194.5,-112.5 1194.5,-131.5 1241.5,-131.5 1241.5,-112.5 1194.5,-112.5"/>
<text text-anchor="middle" x="1218" y="-119.5" font-family="Helvetica,sans-Serif" font-size="10.00">vector</text>
</a>
</g>
</g>
<!-- Node2&#45;&gt;Node14 -->
<g id="edge15" class="edge">
<title>Node2&#45;&gt;Node14</title>
<path fill="none" stroke="midnightblue" d="M782.89,-169.58C871.53,-161.11 1019.69,-146.53 1147,-132 1159.22,-130.6 1172.61,-128.94 1184.43,-127.43"/>
<polygon fill="midnightblue" stroke="midnightblue" points="1184.88,-130.9 1194.35,-126.15 1183.98,-123.96 1184.88,-130.9"/>
</g>
<!-- Node4 -->
<g id="node4" class="node">
<title>Node4</title>
<g id="a_node4"><a xlink:title=" ">
<polygon fill="white" stroke="#bfbfbf" points="553,-0.5 553,-19.5 653,-19.5 653,-0.5 553,-0.5"/>
<text text-anchor="middle" x="603" y="-7.5" font-family="Helvetica,sans-Serif" font-size="10.00">Kokkos_Core.hpp</text>
</a>
</g>
</g>
<!-- Node3&#45;&gt;Node4 -->
<g id="edge3" class="edge">
<title>Node3&#45;&gt;Node4</title>
<path fill="none" stroke="midnightblue" d="M778.04,-56.44C742.21,-47.14 684.84,-32.25 645.61,-22.06"/>
<polygon fill="midnightblue" stroke="midnightblue" points="646.36,-18.64 635.8,-19.52 644.6,-25.42 646.36,-18.64"/>
</g>
<!-- Node5 -->
<g id="node5" class="node">
<title>Node5</title>
<g id="a_node5"><a xlink:title=" ">
<polygon fill="white" stroke="#bfbfbf" points="749.5,-0.5 749.5,-19.5 872.5,-19.5 872.5,-0.5 749.5,-0.5"/>
<text text-anchor="middle" x="811" y="-7.5" font-family="Helvetica,sans-Serif" font-size="10.00">Kokkos_DualView.hpp</text>
</a>
</g>
</g>
<!-- Node3&#45;&gt;Node5 -->
<g id="edge4" class="edge">
<title>Node3&#45;&gt;Node5</title>
<path fill="none" stroke="midnightblue" d="M811,-56.08C811,-49.01 811,-38.86 811,-29.99"/>
<polygon fill="midnightblue" stroke="midnightblue" points="814.5,-29.75 811,-19.75 807.5,-29.75 814.5,-29.75"/>
</g>
<!-- Node6&#45;&gt;Node3 -->
<g id="edge6" class="edge">
<title>Node6&#45;&gt;Node3</title>
<path fill="none" stroke="midnightblue" d="M570.32,-112.44C620.63,-102.94 701.84,-87.61 755.81,-77.42"/>
<polygon fill="midnightblue" stroke="midnightblue" points="756.72,-80.81 765.89,-75.52 755.42,-73.93 756.72,-80.81"/>
</g>
<!-- Node6&#45;&gt;Node4 -->
<g id="edge8" class="edge">
<title>Node6&#45;&gt;Node4</title>
<path fill="none" stroke="midnightblue" d="M525.63,-112.26C526.96,-99.03 530.99,-73.6 543,-56 551.71,-43.23 565.25,-32.62 577.26,-24.92"/>
<polygon fill="midnightblue" stroke="midnightblue" points="579.3,-27.78 586.05,-19.61 575.68,-21.79 579.3,-27.78"/>
</g>
<!-- Node7 -->
<g id="node7" class="node">
<title>Node7</title>
<g id="a_node7"><a xlink:title=" ">
<polygon fill="white" stroke="#bfbfbf" points="552.5,-56.5 552.5,-75.5 711.5,-75.5 711.5,-56.5 552.5,-56.5"/>
<text text-anchor="middle" x="632" y="-63.5" font-family="Helvetica,sans-Serif" font-size="10.00">stk_mesh/base/BulkData.hpp</text>
</a>
</g>
</g>
<!-- Node6&#45;&gt;Node7 -->
<g id="edge7" class="edge">
<title>Node6&#45;&gt;Node7</title>
<path fill="none" stroke="midnightblue" d="M542.19,-112.32C559.35,-103.66 585.95,-90.24 605.75,-80.25"/>
<polygon fill="midnightblue" stroke="midnightblue" points="607.5,-83.28 614.85,-75.65 604.35,-77.04 607.5,-83.28"/>
</g>
<!-- Node8 -->
<g id="node8" class="node">
<title>Node8</title>
<g id="a_node8"><a xlink:title=" ">
<polygon fill="white" stroke="#bfbfbf" points="0,-56.5 0,-75.5 158,-75.5 158,-56.5 0,-56.5"/>
<text text-anchor="middle" x="79" y="-63.5" font-family="Helvetica,sans-Serif" font-size="10.00">stk_search/BoundingBox.hpp</text>
</a>
</g>
</g>
<!-- Node6&#45;&gt;Node8 -->
<g id="edge9" class="edge">
<title>Node6&#45;&gt;Node8</title>
<path fill="none" stroke="midnightblue" d="M454.33,-112.44C374.08,-102.73 243.41,-86.91 159.35,-76.73"/>
<polygon fill="midnightblue" stroke="midnightblue" points="159.69,-73.24 149.34,-75.52 158.85,-80.19 159.69,-73.24"/>
</g>
<!-- Node9 -->
<g id="node9" class="node">
<title>Node9</title>
<g id="a_node9"><a xlink:title=" ">
<polygon fill="white" stroke="#bfbfbf" points="176.5,-56.5 176.5,-75.5 315.5,-75.5 315.5,-56.5 176.5,-56.5"/>
<text text-anchor="middle" x="246" y="-63.5" font-family="Helvetica,sans-Serif" font-size="10.00">stk_search/IdentProc.hpp</text>
</a>
</g>
</g>
<!-- Node6&#45;&gt;Node9 -->
<g id="edge10" class="edge">
<title>Node6&#45;&gt;Node9</title>
<path fill="none" stroke="midnightblue" d="M480.79,-112.44C431.71,-102.94 352.49,-87.61 299.84,-77.42"/>
<polygon fill="midnightblue" stroke="midnightblue" points="300.48,-73.98 290,-75.52 299.15,-80.85 300.48,-73.98"/>
</g>
<!-- Node10 -->
<g id="node10" class="node">
<title>Node10</title>
<g id="a_node10"><a xlink:title=" ">
<polygon fill="white" stroke="#bfbfbf" points="333.5,-56.5 333.5,-75.5 496.5,-75.5 496.5,-56.5 333.5,-56.5"/>
<text text-anchor="middle" x="415" y="-63.5" font-family="Helvetica,sans-Serif" font-size="10.00">stk_search/SearchMethod.hpp</text>
</a>
</g>
</g>
<!-- Node6&#45;&gt;Node10 -->
<g id="edge11" class="edge">
<title>Node6&#45;&gt;Node10</title>
<path fill="none" stroke="midnightblue" d="M507.33,-112.32C489.61,-103.62 462.1,-90.12 441.71,-80.11"/>
<polygon fill="midnightblue" stroke="midnightblue" points="443.15,-76.92 432.63,-75.65 440.06,-83.2 443.15,-76.92"/>
</g>
<!-- Node12 -->
<g id="node12" class="node">
<title>Node12</title>
<g id="a_node12"><a xlink:title=" ">
<polygon fill="white" stroke="#bfbfbf" points="1248,-56.5 1248,-75.5 1292,-75.5 1292,-56.5 1248,-56.5"/>
<text text-anchor="middle" x="1270" y="-63.5" font-family="Helvetica,sans-Serif" font-size="10.00">string</text>
</a>
</g>
</g>
<!-- Node11&#45;&gt;Node12 -->
<g id="edge13" class="edge">
<title>Node11&#45;&gt;Node12</title>
<path fill="none" stroke="midnightblue" d="M947.78,-114.67C952.53,-113.73 957.39,-112.81 962,-112 1062.26,-94.44 1181.73,-78.36 1237.86,-71.09"/>
<polygon fill="midnightblue" stroke="midnightblue" points="1238.43,-74.54 1247.9,-69.79 1237.53,-67.6 1238.43,-74.54"/>
</g>
<!-- Node13 -->
<g id="node13" class="node">
<title>Node13</title>
<g id="a_node13"><a xlink:title=" ">
<polygon fill="white" stroke="#bfbfbf" points="947,-56.5 947,-75.5 985,-75.5 985,-56.5 947,-56.5"/>
<text text-anchor="middle" x="966" y="-63.5" font-family="Helvetica,sans-Serif" font-size="10.00">map</text>
</a>
</g>
</g>
<!-- Node11&#45;&gt;Node13 -->
<g id="edge14" class="edge">
<title>Node11&#45;&gt;Node13</title>
<path fill="none" stroke="midnightblue" d="M925.93,-112.08C932.85,-104.3 943.07,-92.8 951.45,-83.37"/>
<polygon fill="midnightblue" stroke="midnightblue" points="954.19,-85.55 958.22,-75.75 948.96,-80.9 954.19,-85.55"/>
</g>
<!-- Node15&#45;&gt;Node2 -->
<g id="edge17" class="edge">
<title>Node15&#45;&gt;Node2</title>
<path fill="none" stroke="midnightblue" d="M869.85,-224.47C831.76,-214.03 780.43,-199.96 745.02,-190.25"/>
<polygon fill="midnightblue" stroke="midnightblue" points="745.59,-186.78 735.02,-187.51 743.74,-193.53 745.59,-186.78"/>
</g>
<!-- Node16&#45;&gt;Node11 -->
<g id="edge25" class="edge">
<title>Node16&#45;&gt;Node11</title>
<path fill="none" stroke="midnightblue" d="M1252.87,-229.93C1242.94,-227.74 1232.09,-225.56 1222,-224 1178.78,-217.29 859.48,-220.31 830,-188 809.99,-166.07 847.23,-146.68 879.27,-134.91"/>
<polygon fill="midnightblue" stroke="midnightblue" points="880.69,-138.12 888.97,-131.51 878.38,-131.51 880.69,-138.12"/>
</g>
<!-- Node16&#45;&gt;Node12 -->
<g id="edge53" class="edge">
<title>Node16&#45;&gt;Node12</title>
<path fill="none" stroke="midnightblue" d="M1312.75,-229.95C1340.56,-219.78 1383,-202.38 1392,-188 1396.72,-180.47 1395.78,-176.04 1392,-168 1372.57,-126.69 1327.03,-96.48 1297.41,-80.35"/>
<polygon fill="midnightblue" stroke="midnightblue" points="1298.89,-77.17 1288.41,-75.61 1295.63,-83.36 1298.89,-77.17"/>
</g>
<!-- Node16&#45;&gt;Node14 -->
<g id="edge54" class="edge">
<title>Node16&#45;&gt;Node14</title>
<path fill="none" stroke="midnightblue" d="M1282.74,-229.82C1271.29,-210.92 1243.91,-165.75 1228.68,-140.62"/>
<polygon fill="midnightblue" stroke="midnightblue" points="1231.5,-138.52 1223.32,-131.78 1225.51,-142.15 1231.5,-138.52"/>
</g>
<!-- Node17 -->
<g id="node17" class="node">
<title>Node17</title>
<g id="a_node17"><a xlink:href="_boundary_conditions_8h.html" target="_top" xlink:title=" ">
<polygon fill="white" stroke="black" points="971,-168.5 971,-187.5 1095,-187.5 1095,-168.5 971,-168.5"/>
<text text-anchor="middle" x="1033" y="-175.5" font-family="Helvetica,sans-Serif" font-size="10.00">BoundaryConditions.h</text>
</a>
</g>
</g>
<!-- Node16&#45;&gt;Node17 -->
<g id="edge19" class="edge">
<title>Node16&#45;&gt;Node17</title>
<path fill="none" stroke="midnightblue" d="M1251.46,-229.98C1206.11,-219.39 1128.72,-201.34 1079.27,-189.8"/>
<polygon fill="midnightblue" stroke="midnightblue" points="1080,-186.37 1069.47,-187.51 1078.41,-193.19 1080,-186.37"/>
</g>
<!-- Node19 -->
<g id="node19" class="node">
<title>Node19</title>
<g id="a_node19"><a xlink:href="_initial_conditions_8h.html" target="_top" xlink:title=" ">
<polygon fill="white" stroke="black" points="1113.5,-168.5 1113.5,-187.5 1218.5,-187.5 1218.5,-168.5 1113.5,-168.5"/>
<text text-anchor="middle" x="1166" y="-175.5" font-family="Helvetica,sans-Serif" font-size="10.00">InitialConditions.h</text>
</a>
</g>
</g>
<!-- Node16&#45;&gt;Node19 -->
<g id="edge26" class="edge">
<title>Node16&#45;&gt;Node19</title>
<path fill="none" stroke="midnightblue" d="M1270.52,-229.98C1250.14,-220.03 1216.22,-203.49 1192.58,-191.96"/>
<polygon fill="midnightblue" stroke="midnightblue" points="1193.97,-188.75 1183.45,-187.51 1190.9,-195.04 1193.97,-188.75"/>
</g>
<!-- Node20 -->
<g id="node20" class="node">
<title>Node20</title>
<g id="a_node20"><a xlink:href="_material_propertys_8h.html" target="_top" xlink:title=" ">
<polygon fill="white" stroke="black" points="839.5,-168.5 839.5,-187.5 952.5,-187.5 952.5,-168.5 839.5,-168.5"/>
<text text-anchor="middle" x="896" y="-175.5" font-family="Helvetica,sans-Serif" font-size="10.00">MaterialPropertys.h</text>
</a>
</g>
</g>
<!-- Node16&#45;&gt;Node20 -->
<g id="edge32" class="edge">
<title>Node16&#45;&gt;Node20</title>
<path fill="none" stroke="midnightblue" d="M1251.45,-229.93C1241.89,-227.84 1231.59,-225.71 1222,-224 1215.66,-222.87 1056.32,-200.98 962.8,-188.15"/>
<polygon fill="midnightblue" stroke="midnightblue" points="963.23,-184.68 952.85,-186.79 962.28,-191.62 963.23,-184.68"/>
</g>
<!-- Node21 -->
<g id="node21" class="node">
<title>Node21</title>
<g id="a_node21"><a xlink:href="_nalu_parsed_types_8h.html" target="_top" xlink:title=" ">
<polygon fill="white" stroke="black" points="1275,-168.5 1275,-187.5 1383,-187.5 1383,-168.5 1275,-168.5"/>
<text text-anchor="middle" x="1329" y="-175.5" font-family="Helvetica,sans-Serif" font-size="10.00">NaluParsedTypes.h</text>
</a>
</g>
</g>
<!-- Node16&#45;&gt;Node21 -->
<g id="edge37" class="edge">
<title>Node16&#45;&gt;Node21</title>
<path fill="none" stroke="midnightblue" d="M1293.87,-229.98C1299.96,-221.14 1309.64,-207.09 1317.3,-195.98"/>
<polygon fill="midnightblue" stroke="midnightblue" points="1320.34,-197.73 1323.14,-187.51 1314.58,-193.76 1320.34,-197.73"/>
</g>
<!-- Node22 -->
<g id="node22" class="node">
<title>Node22</title>
<g id="a_node22"><a xlink:href="_nalu_parsing_helper_8h.html" target="_top" xlink:title=" ">
<polygon fill="white" stroke="black" points="1477.5,-168.5 1477.5,-187.5 1592.5,-187.5 1592.5,-168.5 1477.5,-168.5"/>
<text text-anchor="middle" x="1535" y="-175.5" font-family="Helvetica,sans-Serif" font-size="10.00">NaluParsingHelper.h</text>
</a>
</g>
</g>
<!-- Node16&#45;&gt;Node22 -->
<g id="edge40" class="edge">
<title>Node16&#45;&gt;Node22</title>
<path fill="none" stroke="midnightblue" d="M1320.54,-229.94C1328.23,-227.96 1336.4,-225.88 1344,-224 1392.88,-211.92 1448.98,-198.79 1487.67,-189.85"/>
<polygon fill="midnightblue" stroke="midnightblue" points="1488.65,-193.21 1497.61,-187.55 1487.08,-186.39 1488.65,-193.21"/>
</g>
<!-- Node23 -->
<g id="node23" class="node">
<title>Node23</title>
<g id="a_node23"><a xlink:title=" ">
<polygon fill="white" stroke="#bfbfbf" points="1403.5,-112.5 1403.5,-131.5 1502.5,-131.5 1502.5,-112.5 1403.5,-112.5"/>
<text text-anchor="middle" x="1453" y="-119.5" font-family="Helvetica,sans-Serif" font-size="10.00">yaml&#45;cpp/yaml.h</text>
</a>
</g>
</g>
<!-- Node16&#45;&gt;Node23 -->
<g id="edge50" class="edge">
<title>Node16&#45;&gt;Node23</title>
<path fill="none" stroke="midnightblue" d="M1319.64,-229.98C1355.05,-219.92 1409.5,-202.69 1425,-188 1438.08,-175.61 1445.36,-156.09 1449.19,-141.67"/>
<polygon fill="midnightblue" stroke="midnightblue" points="1452.62,-142.38 1451.5,-131.84 1445.81,-140.78 1452.62,-142.38"/>
</g>
<!-- Node24 -->
<g id="node24" class="node">
<title>Node24</title>
<g id="a_node24"><a xlink:title=" ">
<polygon fill="white" stroke="#bfbfbf" points="1559,-112.5 1559,-131.5 1619,-131.5 1619,-112.5 1559,-112.5"/>
<text text-anchor="middle" x="1589" y="-119.5" font-family="Helvetica,sans-Serif" font-size="10.00">iostream</text>
</a>
</g>
</g>
<!-- Node16&#45;&gt;Node24 -->
<g id="edge51" class="edge">
<title>Node16&#45;&gt;Node24</title>
<path fill="none" stroke="midnightblue" d="M1318.37,-229.96C1326.64,-227.82 1335.63,-225.66 1344,-224 1400.78,-212.73 1564,-231.67 1602,-188 1613.29,-175.02 1606.96,-155.03 1599.74,-140.65"/>
<polygon fill="midnightblue" stroke="midnightblue" points="1602.71,-138.79 1594.81,-131.74 1596.59,-142.19 1602.71,-138.79"/>
</g>
<!-- Node25 -->
<g id="node25" class="node">
<title>Node25</title>
<g id="a_node25"><a xlink:title=" ">
<polygon fill="white" stroke="#bfbfbf" points="1637.5,-112.5 1637.5,-131.5 1692.5,-131.5 1692.5,-112.5 1637.5,-112.5"/>
<text text-anchor="middle" x="1665" y="-119.5" font-family="Helvetica,sans-Serif" font-size="10.00">fstream</text>
</a>
</g>
</g>
<!-- Node16&#45;&gt;Node25 -->
<g id="edge52" class="edge">
<title>Node16&#45;&gt;Node25</title>
<path fill="none" stroke="midnightblue" d="M1318.07,-229.99C1326.42,-227.82 1335.52,-225.65 1344,-224 1465.01,-200.51 1513.44,-251.64 1619,-188 1636.89,-177.21 1649.69,-156.51 1657.17,-141.36"/>
<polygon fill="midnightblue" stroke="midnightblue" points="1660.5,-142.49 1661.5,-131.94 1654.14,-139.57 1660.5,-142.49"/>
</g>
<!-- Node16&#45;&gt;Node26 -->
<g id="edge46" class="edge">
<title>Node16&#45;&gt;Node26</title>
<path fill="none" stroke="midnightblue" d="M1317.76,-229.94C1326.19,-227.75 1335.41,-225.57 1344,-224 1488.69,-197.5 1527.54,-209.85 1673,-188 1674.46,-187.78 1675.95,-187.55 1677.45,-187.3"/>
<polygon fill="midnightblue" stroke="midnightblue" points="1678.18,-190.73 1687.44,-185.58 1676.99,-183.83 1678.18,-190.73"/>
</g>
<!-- Node17&#45;&gt;Node11 -->
<g id="edge20" class="edge">
<title>Node17&#45;&gt;Node11</title>
<path fill="none" stroke="midnightblue" d="M1014.78,-168.44C996.1,-159.68 966.84,-145.94 945.38,-135.86"/>
<polygon fill="midnightblue" stroke="midnightblue" points="946.68,-132.6 936.14,-131.52 943.7,-138.93 946.68,-132.6"/>
</g>
<!-- Node17&#45;&gt;Node12 -->
<g id="edge22" class="edge">
<title>Node17&#45;&gt;Node12</title>
<path fill="none" stroke="midnightblue" d="M1035.57,-168.3C1040.21,-154.17 1051.38,-126.36 1071,-112 1120.95,-75.42 1195.46,-67.81 1237.7,-66.67"/>
<polygon fill="midnightblue" stroke="midnightblue" points="1238.02,-70.16 1247.97,-66.5 1237.91,-63.17 1238.02,-70.16"/>
</g>
<!-- Node17&#45;&gt;Node13 -->
<g id="edge21" class="edge">
<title>Node17&#45;&gt;Node13</title>
<path fill="none" stroke="midnightblue" d="M1027.74,-168.37C1016.73,-150.3 991.08,-108.18 976.54,-84.31"/>
<polygon fill="midnightblue" stroke="midnightblue" points="979.42,-82.31 971.23,-75.59 973.45,-85.95 979.42,-82.31"/>
</g>
<!-- Node17&#45;&gt;Node14 -->
<g id="edge23" class="edge">
<title>Node17&#45;&gt;Node14</title>
<path fill="none" stroke="midnightblue" d="M1062.31,-168.44C1095.6,-158.73 1149.81,-142.9 1184.68,-132.73"/>
<polygon fill="midnightblue" stroke="midnightblue" points="1185.78,-136.05 1194.4,-129.89 1183.82,-129.33 1185.78,-136.05"/>
</g>
<!-- Node18 -->
<g id="node18" class="node">
<title>Node18</title>
<g id="a_node18"><a xlink:title=" ">
<polygon fill="white" stroke="#bfbfbf" points="1080,-112.5 1080,-131.5 1138,-131.5 1138,-112.5 1080,-112.5"/>
<text text-anchor="middle" x="1109" y="-119.5" font-family="Helvetica,sans-Serif" font-size="10.00">memory</text>
</a>
</g>
</g>
<!-- Node17&#45;&gt;Node18 -->
<g id="edge24" class="edge">
<title>Node17&#45;&gt;Node18</title>
<path fill="none" stroke="midnightblue" d="M1045.21,-168.32C1056.78,-160.11 1074.38,-147.6 1088.16,-137.81"/>
<polygon fill="midnightblue" stroke="midnightblue" points="1090.44,-140.48 1096.57,-131.83 1086.39,-134.77 1090.44,-140.48"/>
</g>
<!-- Node19&#45;&gt;Node11 -->
<g id="edge27" class="edge">
<title>Node19&#45;&gt;Node11</title>
<path fill="none" stroke="midnightblue" d="M1126.7,-168.44C1080.48,-158.38 1004.19,-141.77 957.77,-131.66"/>
<polygon fill="midnightblue" stroke="midnightblue" points="958.29,-128.19 947.77,-129.48 956.8,-135.03 958.29,-128.19"/>
</g>
<!-- Node19&#45;&gt;Node12 -->
<g id="edge29" class="edge">
<title>Node19&#45;&gt;Node12</title>
<path fill="none" stroke="midnightblue" d="M1194.65,-168.36C1213.22,-161.37 1236.54,-149.73 1251,-132 1261.79,-118.77 1266.45,-99.64 1268.47,-85.56"/>
<polygon fill="midnightblue" stroke="midnightblue" points="1271.95,-85.88 1269.58,-75.55 1264.99,-85.11 1271.95,-85.88"/>
</g>
<!-- Node19&#45;&gt;Node13 -->
<g id="edge28" class="edge">
<title>Node19&#45;&gt;Node13</title>
<path fill="none" stroke="midnightblue" d="M1166.05,-168.48C1165.66,-154.6 1162.77,-127.15 1147,-112 1125.43,-91.29 1040.77,-77.04 995.29,-70.71"/>
<polygon fill="midnightblue" stroke="midnightblue" points="995.53,-67.21 985.15,-69.34 994.59,-74.15 995.53,-67.21"/>
</g>
<!-- Node19&#45;&gt;Node14 -->
<g id="edge30" class="edge">
<title>Node19&#45;&gt;Node14</title>
<path fill="none" stroke="midnightblue" d="M1174.59,-168.08C1182.16,-160.22 1193.38,-148.57 1202.51,-139.08"/>
<polygon fill="midnightblue" stroke="midnightblue" points="1205.16,-141.38 1209.57,-131.75 1200.12,-136.53 1205.16,-141.38"/>
</g>
<!-- Node19&#45;&gt;Node18 -->
<g id="edge31" class="edge">
<title>Node19&#45;&gt;Node18</title>
<path fill="none" stroke="midnightblue" d="M1156.84,-168.32C1148.5,-160.42 1135.97,-148.55 1125.82,-138.94"/>
<polygon fill="midnightblue" stroke="midnightblue" points="1127.99,-136.17 1118.32,-131.83 1123.18,-141.25 1127.99,-136.17"/>
</g>
<!-- Node20&#45;&gt;Node11 -->
<g id="edge33" class="edge">
<title>Node20&#45;&gt;Node11</title>
<path fill="none" stroke="midnightblue" d="M899.63,-168.08C902.61,-160.77 906.93,-150.18 910.62,-141.1"/>
<polygon fill="midnightblue" stroke="midnightblue" points="913.9,-142.33 914.43,-131.75 907.42,-139.69 913.9,-142.33"/>
</g>
<!-- Node20&#45;&gt;Node12 -->
<g id="edge35" class="edge">
<title>Node20&#45;&gt;Node12</title>
<path fill="none" stroke="midnightblue" d="M913.13,-168.44C941.13,-154.76 998.72,-127.9 1050,-112 1115.36,-91.74 1194.52,-78.11 1237.83,-71.54"/>
<polygon fill="midnightblue" stroke="midnightblue" points="1238.4,-74.99 1247.78,-70.06 1237.37,-68.07 1238.4,-74.99"/>
</g>
<!-- Node20&#45;&gt;Node13 -->
<g id="edge34" class="edge">
<title>Node20&#45;&gt;Node13</title>
<path fill="none" stroke="midnightblue" d="M889.79,-168.39C881.21,-155.34 867.96,-130.13 879,-112 891.55,-91.37 916.95,-79.78 937.08,-73.55"/>
<polygon fill="midnightblue" stroke="midnightblue" points="938.06,-76.91 946.74,-70.83 936.17,-70.17 938.06,-76.91"/>
</g>
<!-- Node20&#45;&gt;Node14 -->
<g id="edge36" class="edge">
<title>Node20&#45;&gt;Node14</title>
<path fill="none" stroke="midnightblue" d="M947.02,-168.44C1013.33,-157.32 1127.3,-138.21 1183.96,-128.71"/>
<polygon fill="midnightblue" stroke="midnightblue" points="1184.89,-132.1 1194.18,-127 1183.74,-125.2 1184.89,-132.1"/>
</g>
<!-- Node21&#45;&gt;Node12 -->
<g id="edge38" class="edge">
<title>Node21&#45;&gt;Node12</title>
<path fill="none" stroke="midnightblue" d="M1324.37,-168.37C1314.72,-150.38 1292.29,-108.55 1279.45,-84.63"/>
<polygon fill="midnightblue" stroke="midnightblue" points="1282.42,-82.75 1274.61,-75.59 1276.25,-86.06 1282.42,-82.75"/>
</g>
<!-- Node21&#45;&gt;Node14 -->
<g id="edge39" class="edge">
<title>Node21&#45;&gt;Node14</title>
<path fill="none" stroke="midnightblue" d="M1311.17,-168.32C1293.28,-159.62 1265.52,-146.12 1244.95,-136.11"/>
<polygon fill="midnightblue" stroke="midnightblue" points="1246.31,-132.88 1235.79,-131.65 1243.25,-139.18 1246.31,-132.88"/>
</g>
<!-- Node22&#45;&gt;Node12 -->
<g id="edge44" class="edge">
<title>Node22&#45;&gt;Node12</title>
<path fill="none" stroke="midnightblue" d="M1534.58,-168.32C1533.4,-154.22 1528.92,-126.47 1512,-112 1480.88,-85.4 1360.81,-73.41 1302.35,-69.06"/>
<polygon fill="midnightblue" stroke="midnightblue" points="1302.41,-65.56 1292.19,-68.34 1301.91,-72.54 1302.41,-65.56"/>
</g>
<!-- Node22&#45;&gt;Node14 -->
<g id="edge45" class="edge">
<title>Node22&#45;&gt;Node14</title>
<path fill="none" stroke="midnightblue" d="M1484.77,-168.44C1419.66,-157.35 1307.85,-138.31 1251.93,-128.78"/>
<polygon fill="midnightblue" stroke="midnightblue" points="1252.29,-125.29 1241.84,-127.06 1251.11,-132.19 1252.29,-125.29"/>
</g>
<!-- Node22&#45;&gt;Node23 -->
<g id="edge41" class="edge">
<title>Node22&#45;&gt;Node23</title>
<path fill="none" stroke="midnightblue" d="M1521.83,-168.32C1509.15,-159.98 1489.77,-147.21 1474.79,-137.35"/>
<polygon fill="midnightblue" stroke="midnightblue" points="1476.42,-134.23 1466.14,-131.65 1472.57,-140.08 1476.42,-134.23"/>
</g>
<!-- Node22&#45;&gt;Node24 -->
<g id="edge42" class="edge">
<title>Node22&#45;&gt;Node24</title>
<path fill="none" stroke="midnightblue" d="M1543.92,-168.08C1551.78,-160.22 1563.43,-148.57 1572.92,-139.08"/>
<polygon fill="midnightblue" stroke="midnightblue" points="1575.65,-141.3 1580.25,-131.75 1570.7,-136.35 1575.65,-141.3"/>
</g>
<!-- Node22&#45;&gt;Node25 -->
<g id="edge43" class="edge">
<title>Node22&#45;&gt;Node25</title>
<path fill="none" stroke="midnightblue" d="M1555.6,-168.44C1576.99,-159.56 1610.68,-145.56 1635.02,-135.45"/>
<polygon fill="midnightblue" stroke="midnightblue" points="1636.61,-138.58 1644.5,-131.52 1633.92,-132.12 1636.61,-138.58"/>
</g>
<!-- Node26&#45;&gt;Node25 -->
<g id="edge48" class="edge">
<title>Node26&#45;&gt;Node25</title>
<path fill="none" stroke="midnightblue" d="M1710.92,-168.08C1702.83,-160.14 1690.8,-148.34 1681.09,-138.8"/>
<polygon fill="midnightblue" stroke="midnightblue" points="1683.5,-136.26 1673.91,-131.75 1678.6,-141.25 1683.5,-136.26"/>
</g>
<!-- Node27 -->
<g id="node27" class="node">
<title>Node27</title>
<g id="a_node27"><a xlink:title=" ">
<polygon fill="white" stroke="#bfbfbf" points="1796,-112.5 1796,-131.5 1840,-131.5 1840,-112.5 1796,-112.5"/>
<text text-anchor="middle" x="1818" y="-119.5" font-family="Helvetica,sans-Serif" font-size="10.00">mpi.h</text>
</a>
</g>
</g>
<!-- Node26&#45;&gt;Node27 -->
<g id="edge47" class="edge">
<title>Node26&#45;&gt;Node27</title>
<path fill="none" stroke="midnightblue" d="M1735.75,-168.32C1751.32,-159.74 1775.38,-146.49 1793.46,-136.52"/>
<polygon fill="midnightblue" stroke="midnightblue" points="1795.22,-139.55 1802.29,-131.65 1791.85,-133.42 1795.22,-139.55"/>
</g>
<!-- Node28 -->
<g id="node28" class="node">
<title>Node28</title>
<g id="a_node28"><a xlink:title=" ">
<polygon fill="white" stroke="#bfbfbf" points="1710.5,-112.5 1710.5,-131.5 1777.5,-131.5 1777.5,-112.5 1710.5,-112.5"/>
<text text-anchor="middle" x="1744" y="-119.5" font-family="Helvetica,sans-Serif" font-size="10.00">streambuf</text>
</a>
</g>
</g>
<!-- Node26&#45;&gt;Node28 -->
<g id="edge49" class="edge">
<title>Node26&#45;&gt;Node28</title>
<path fill="none" stroke="midnightblue" d="M1723.96,-168.08C1727.21,-160.77 1731.92,-150.18 1735.95,-141.1"/>
<polygon fill="midnightblue" stroke="midnightblue" points="1739.25,-142.31 1740.11,-131.75 1732.85,-139.47 1739.25,-142.31"/>
</g>
<!-- Node30&#45;&gt;Node2 -->
<g id="edge57" class="edge">
<title>Node30&#45;&gt;Node2</title>
<path fill="none" stroke="midnightblue" d="M1067.25,-229.98C989.88,-219.12 856.41,-200.39 774.6,-188.91"/>
<polygon fill="midnightblue" stroke="midnightblue" points="775.03,-185.43 764.64,-187.51 774.05,-192.36 775.03,-185.43"/>
</g>
</g>
</svg>
        <g id="navigator" transform="translate(0 0)" fill="#404254">
                <rect fill="#f2f5e9" fill-opacity="0.5" stroke="#606060" stroke-width=".5" x="0" y="0" width="60" height="60"/>
                <use id="zoomplus" xlink:href="#zoomPlus" x="17" y="9" onmousedown="handleZoom(evt,'in')"/>
                <use id="zoomminus" xlink:href="#zoomMin" x="42" y="9" onmousedown="handleZoom(evt,'out')"/>
                <use id="reset" xlink:href="#resetDef" x="30" y="36" onmousedown="handleReset()"/>
                <g id="arrowUp" xlink:href="#dirArrow" transform="translate(30 24)" onmousedown="handlePan(0,-1)">
                  <use xlink:href="#rim" fill="#404040">
                        <set attributeName="fill" to="#808080" begin="arrowUp.mouseover" end="arrowUp.mouseout"/>
                  </use>
                  <path fill="none" stroke="white" stroke-width="1.5" d="M0,-3.0v7 M-2.5,-0.5L0,-3.0L2.5,-0.5"/>
                </g>
                <g id="arrowRight" xlink:href="#dirArrow" transform="rotate(90) translate(36 -43)" onmousedown="handlePan(1,0)">
                  <use xlink:href="#rim" fill="#404040">
                        <set attributeName="fill" to="#808080" begin="arrowRight.mouseover" end="arrowRight.mouseout"/>
                  </use>
                  <path fill="none" stroke="white" stroke-width="1.5" d="M0,-3.0v7 M-2.5,-0.5L0,-3.0L2.5,-0.5"/>
                </g>
                <g id="arrowDown" xlink:href="#dirArrow" transform="rotate(180) translate(-30 -48)" onmousedown="handlePan(0,1)">
                  <use xlink:href="#rim" fill="#404040">
                        <set attributeName="fill" to="#808080" begin="arrowDown.mouseover" end="arrowDown.mouseout"/>
                  </use>
                  <path fill="none" stroke="white" stroke-width="1.5" d="M0,-3.0v7 M-2.5,-0.5L0,-3.0L2.5,-0.5"/>
                </g>
                <g id="arrowLeft" xlink:href="#dirArrow" transform="rotate(270) translate(-36 17)" onmousedown="handlePan(-1,0)">
                  <use xlink:href="#rim" fill="#404040">
                        <set attributeName="fill" to="#808080" begin="arrowLeft.mouseover" end="arrowLeft.mouseout"/>
                  </use>
                  <path fill="none" stroke="white" stroke-width="1.5" d="M0,-3.0v7 M-2.5,-0.5L0,-3.0L2.5,-0.5"/>
                </g>
        </g>
        <svg viewBox="0 0 15 15" width="100%" height="30px" preserveAspectRatio="xMaxYMin meet">
         <g id="arrow_out" transform="scale(0.3 0.3)">
          <a xlink:href="_actuator_parsing_simple_8_c__incl_org.svg" target="_base">
           <rect id="button" ry="5" rx="5" y="6" x="6" height="38" width="38"
                fill="#f2f5e9" fill-opacity="0.5" stroke="#606060" stroke-width="1.0"/>
           <path id="arrow"
             d="M 11.500037,31.436501 C 11.940474,20.09759 22.043105,11.32322 32.158766,21.979434 L 37.068811,17.246167 C 37.068811,17.246167 37.088388,32 37.088388,32 L 22.160133,31.978069 C 22.160133,31.978069 26.997745,27.140456 26.997745,27.140456 C 18.528582,18.264221 13.291696,25.230495 11.500037,31.436501 z"
             style="fill:#404040;"/>
          </a>
         </g>
        </svg>
</svg>
