<?xml version="1.0" encoding="UTF-8" standalone="no"?>
<!DOCTYPE svg PUBLIC "-//W3C//DTD SVG 1.1//EN"
 "http://www.w3.org/Graphics/SVG/1.1/DTD/svg11.dtd">
<!-- Generated by graphviz version 2.43.0 (0)
 -->
<!-- Title: ActuatorParsingFAST.C Pages: 1 -->
<svg width="1792pt" height="319pt"
 viewBox="0.00 0.00 1792.00 319.00" xmlns="http://www.w3.org/2000/svg" xmlns:xlink="http://www.w3.org/1999/xlink">
<g id="graph0" class="graph" transform="scale(1 1) rotate(0) translate(4 315)">
<title>ActuatorParsingFAST.C</title>
<polygon fill="white" stroke="transparent" points="-4,4 -4,-315 1788,-315 1788,4 -4,4"/>
<!-- Node1 -->
<g id="node1" class="node">
<title>Node1</title>
<g id="a_node1"><a xlink:title=" ">
<polygon fill="#bfbfbf" stroke="black" points="954.5,-291.5 954.5,-310.5 1079.5,-310.5 1079.5,-291.5 954.5,-291.5"/>
<text text-anchor="middle" x="1017" y="-298.5" font-family="Helvetica,sans-Serif" font-size="10.00">ActuatorParsingFAST.C</text>
</a>
</g>
</g>
<!-- Node2 -->
<g id="node2" class="node">
<title>Node2</title>
<g id="a_node2"><a xlink:href="_actuator_bulk_8h.html" target="_top" xlink:title=" ">
<polygon fill="white" stroke="black" points="499.5,-168.5 499.5,-187.5 656.5,-187.5 656.5,-168.5 499.5,-168.5"/>
<text text-anchor="middle" x="578" y="-175.5" font-family="Helvetica,sans-Serif" font-size="10.00">aero/actuator/ActuatorBulk.h</text>
</a>
</g>
</g>
<!-- Node1&#45;&gt;Node2 -->
<g id="edge1" class="edge">
<title>Node1&#45;&gt;Node2</title>
<path fill="none" stroke="midnightblue" d="M954.19,-297.2C843.63,-291.69 623.38,-277.96 597,-255 580.84,-240.94 577.38,-215.41 577.1,-197.85"/>
<polygon fill="midnightblue" stroke="midnightblue" points="580.6,-197.72 577.28,-187.66 573.6,-197.6 580.6,-197.72"/>
</g>
<!-- Node15 -->
<g id="node15" class="node">
<title>Node15</title>
<g id="a_node15"><a xlink:href="_actuator_bulk_f_a_s_t_8h.html" target="_top" xlink:title=" ">
<polygon fill="white" stroke="black" points="794,-224.5 794,-254.5 942,-254.5 942,-224.5 794,-224.5"/>
<text text-anchor="start" x="802" y="-242.5" font-family="Helvetica,sans-Serif" font-size="10.00">aero/actuator/ActuatorBulk</text>
<text text-anchor="middle" x="868" y="-231.5" font-family="Helvetica,sans-Serif" font-size="10.00">FAST.h</text>
</a>
</g>
</g>
<!-- Node1&#45;&gt;Node15 -->
<g id="edge16" class="edge">
<title>Node1&#45;&gt;Node15</title>
<path fill="none" stroke="midnightblue" d="M995.65,-291.48C974.06,-282.85 940.03,-269.26 912.54,-258.29"/>
<polygon fill="midnightblue" stroke="midnightblue" points="913.7,-254.98 903.12,-254.52 911.11,-261.48 913.7,-254.98"/>
</g>
<!-- Node17 -->
<g id="node17" class="node">
<title>Node17</title>
<g id="a_node17"><a xlink:href="_nalu_parsing_8h.html" target="_top" xlink:title=" ">
<polygon fill="white" stroke="black" points="1189.5,-230 1189.5,-249 1272.5,-249 1272.5,-230 1189.5,-230"/>
<text text-anchor="middle" x="1231" y="-237" font-family="Helvetica,sans-Serif" font-size="10.00">NaluParsing.h</text>
</a>
</g>
</g>
<!-- Node1&#45;&gt;Node17 -->
<g id="edge19" class="edge">
<title>Node1&#45;&gt;Node17</title>
<path fill="none" stroke="midnightblue" d="M1047.66,-291.48C1085.24,-281.03 1149.04,-263.29 1190.6,-251.73"/>
<polygon fill="midnightblue" stroke="midnightblue" points="1191.7,-255.06 1200.4,-249.01 1189.82,-248.32 1191.7,-255.06"/>
</g>
<!-- Node27 -->
<g id="node27" class="node">
<title>Node27</title>
<g id="a_node27"><a xlink:href="_nalu_env_8h.html" target="_top" xlink:title=" ">
<polygon fill="white" stroke="black" points="1654.5,-168.5 1654.5,-187.5 1719.5,-187.5 1719.5,-168.5 1654.5,-168.5"/>
<text text-anchor="middle" x="1687" y="-175.5" font-family="Helvetica,sans-Serif" font-size="10.00">NaluEnv.h</text>
</a>
</g>
</g>
<!-- Node1&#45;&gt;Node27 -->
<g id="edge59" class="edge">
<title>Node1&#45;&gt;Node27</title>
<path fill="none" stroke="midnightblue" d="M1079.51,-298.14C1134.88,-294.5 1216.8,-284.11 1282,-255 1302.22,-245.97 1300.54,-232.46 1321,-224 1452.86,-169.49 1498.94,-209.43 1640,-188 1641.46,-187.78 1642.95,-187.54 1644.45,-187.3"/>
<polygon fill="midnightblue" stroke="midnightblue" points="1645.18,-190.72 1654.44,-185.57 1643.99,-183.83 1645.18,-190.72"/>
</g>
<!-- Node30 -->
<g id="node30" class="node">
<title>Node30</title>
<g id="a_node30"><a xlink:href="_actuator_parsing_f_a_s_t_8h.html" target="_top" xlink:title=" ">
<polygon fill="white" stroke="black" points="1329.5,-224.5 1329.5,-254.5 1490.5,-254.5 1490.5,-224.5 1329.5,-224.5"/>
<text text-anchor="start" x="1337.5" y="-242.5" font-family="Helvetica,sans-Serif" font-size="10.00">aero/actuator/ActuatorParsing</text>
<text text-anchor="middle" x="1410" y="-231.5" font-family="Helvetica,sans-Serif" font-size="10.00">FAST.h</text>
</a>
</g>
</g>
<!-- Node1&#45;&gt;Node30 -->
<g id="edge56" class="edge">
<title>Node1&#45;&gt;Node30</title>
<path fill="none" stroke="midnightblue" d="M1073.58,-291.48C1133.52,-282.45 1230.94,-267.76 1315,-255 1316.47,-254.78 1317.95,-254.55 1319.44,-254.33"/>
<polygon fill="midnightblue" stroke="midnightblue" points="1320.05,-257.77 1329.41,-252.81 1319,-250.85 1320.05,-257.77"/>
</g>
<!-- Node31 -->
<g id="node31" class="node">
<title>Node31</title>
<g id="a_node31"><a xlink:href="_actuator_parsing_8h.html" target="_top" xlink:title=" ">
<polygon fill="white" stroke="black" points="606,-230 606,-249 776,-249 776,-230 606,-230"/>
<text text-anchor="middle" x="691" y="-237" font-family="Helvetica,sans-Serif" font-size="10.00">aero/actuator/ActuatorParsing.h</text>
</a>
</g>
</g>
<!-- Node1&#45;&gt;Node31 -->
<g id="edge57" class="edge">
<title>Node1&#45;&gt;Node31</title>
<path fill="none" stroke="midnightblue" d="M970.29,-291.48C911.59,-280.76 810.89,-262.38 747.8,-250.87"/>
<polygon fill="midnightblue" stroke="midnightblue" points="748.09,-247.36 737.62,-249.01 746.83,-254.25 748.09,-247.36"/>
</g>
<!-- Node3 -->
<g id="node3" class="node">
<title>Node3</title>
<g id="a_node3"><a xlink:href="_actuator_types_8h.html" target="_top" xlink:title=" ">
<polygon fill="white" stroke="black" points="729.5,-56.5 729.5,-75.5 892.5,-75.5 892.5,-56.5 729.5,-56.5"/>
<text text-anchor="middle" x="811" y="-63.5" font-family="Helvetica,sans-Serif" font-size="10.00">aero/actuator/ActuatorTypes.h</text>
</a>
</g>
</g>
<!-- Node2&#45;&gt;Node3 -->
<g id="edge2" class="edge">
<title>Node2&#45;&gt;Node3</title>
<path fill="none" stroke="midnightblue" d="M596.28,-168.37C637.03,-149.13 735.49,-102.65 783.61,-79.93"/>
<polygon fill="midnightblue" stroke="midnightblue" points="785.25,-83.03 792.8,-75.59 782.26,-76.7 785.25,-83.03"/>
</g>
<!-- Node6 -->
<g id="node6" class="node">
<title>Node6</title>
<g id="a_node6"><a xlink:href="_actuator_search_8h.html" target="_top" xlink:title=" ">
<polygon fill="white" stroke="black" points="441,-112.5 441,-131.5 609,-131.5 609,-112.5 441,-112.5"/>
<text text-anchor="middle" x="525" y="-119.5" font-family="Helvetica,sans-Serif" font-size="10.00">aero/actuator/ActuatorSearch.h</text>
</a>
</g>
</g>
<!-- Node2&#45;&gt;Node6 -->
<g id="edge5" class="edge">
<title>Node2&#45;&gt;Node6</title>
<path fill="none" stroke="midnightblue" d="M569.25,-168.08C561.53,-160.22 550.1,-148.57 540.78,-139.08"/>
<polygon fill="midnightblue" stroke="midnightblue" points="543.09,-136.44 533.59,-131.75 538.1,-141.34 543.09,-136.44"/>
</g>
<!-- Node11 -->
<g id="node11" class="node">
<title>Node11</title>
<g id="a_node11"><a xlink:href="_enums_8h.html" target="_top" xlink:title=" ">
<polygon fill="white" stroke="black" points="823.5,-112.5 823.5,-131.5 882.5,-131.5 882.5,-112.5 823.5,-112.5"/>
<text text-anchor="middle" x="853" y="-119.5" font-family="Helvetica,sans-Serif" font-size="10.00">Enums.h</text>
</a>
</g>
</g>
<!-- Node2&#45;&gt;Node11 -->
<g id="edge12" class="edge">
<title>Node2&#45;&gt;Node11</title>
<path fill="none" stroke="midnightblue" d="M621.57,-168.44C674.28,-158.09 762.26,-140.82 813.21,-130.81"/>
<polygon fill="midnightblue" stroke="midnightblue" points="814.05,-134.21 823.19,-128.85 812.7,-127.35 814.05,-134.21"/>
</g>
<!-- Node14 -->
<g id="node14" class="node">
<title>Node14</title>
<g id="a_node14"><a xlink:title=" ">
<polygon fill="white" stroke="#bfbfbf" points="1091.5,-112.5 1091.5,-131.5 1138.5,-131.5 1138.5,-112.5 1091.5,-112.5"/>
<text text-anchor="middle" x="1115" y="-119.5" font-family="Helvetica,sans-Serif" font-size="10.00">vector</text>
</a>
</g>
</g>
<!-- Node2&#45;&gt;Node14 -->
<g id="edge15" class="edge">
<title>Node2&#45;&gt;Node14</title>
<path fill="none" stroke="midnightblue" d="M656.68,-168.95C659.83,-168.63 662.94,-168.31 666,-168 820.89,-152.32 1005.88,-133.87 1080.89,-126.39"/>
<polygon fill="midnightblue" stroke="midnightblue" points="1081.54,-129.85 1091.15,-125.37 1080.85,-122.88 1081.54,-129.85"/>
</g>
<!-- Node4 -->
<g id="node4" class="node">
<title>Node4</title>
<g id="a_node4"><a xlink:title=" ">
<polygon fill="white" stroke="#bfbfbf" points="553,-0.5 553,-19.5 653,-19.5 653,-0.5 553,-0.5"/>
<text text-anchor="middle" x="603" y="-7.5" font-family="Helvetica,sans-Serif" font-size="10.00">Kokkos_Core.hpp</text>
</a>
</g>
</g>
<!-- Node3&#45;&gt;Node4 -->
<g id="edge3" class="edge">
<title>Node3&#45;&gt;Node4</title>
<path fill="none" stroke="midnightblue" d="M778.04,-56.44C742.21,-47.14 684.84,-32.25 645.61,-22.06"/>
<polygon fill="midnightblue" stroke="midnightblue" points="646.36,-18.64 635.8,-19.52 644.6,-25.42 646.36,-18.64"/>
</g>
<!-- Node5 -->
<g id="node5" class="node">
<title>Node5</title>
<g id="a_node5"><a xlink:title=" ">
<polygon fill="white" stroke="#bfbfbf" points="749.5,-0.5 749.5,-19.5 872.5,-19.5 872.5,-0.5 749.5,-0.5"/>
<text text-anchor="middle" x="811" y="-7.5" font-family="Helvetica,sans-Serif" font-size="10.00">Kokkos_DualView.hpp</text>
</a>
</g>
</g>
<!-- Node3&#45;&gt;Node5 -->
<g id="edge4" class="edge">
<title>Node3&#45;&gt;Node5</title>
<path fill="none" stroke="midnightblue" d="M811,-56.08C811,-49.01 811,-38.86 811,-29.99"/>
<polygon fill="midnightblue" stroke="midnightblue" points="814.5,-29.75 811,-19.75 807.5,-29.75 814.5,-29.75"/>
</g>
<!-- Node6&#45;&gt;Node3 -->
<g id="edge6" class="edge">
<title>Node6&#45;&gt;Node3</title>
<path fill="none" stroke="midnightblue" d="M570.32,-112.44C620.63,-102.94 701.84,-87.61 755.81,-77.42"/>
<polygon fill="midnightblue" stroke="midnightblue" points="756.72,-80.81 765.89,-75.52 755.42,-73.93 756.72,-80.81"/>
</g>
<!-- Node6&#45;&gt;Node4 -->
<g id="edge8" class="edge">
<title>Node6&#45;&gt;Node4</title>
<path fill="none" stroke="midnightblue" d="M525.63,-112.26C526.96,-99.03 530.99,-73.6 543,-56 551.71,-43.23 565.25,-32.62 577.26,-24.92"/>
<polygon fill="midnightblue" stroke="midnightblue" points="579.3,-27.78 586.05,-19.61 575.68,-21.79 579.3,-27.78"/>
</g>
<!-- Node7 -->
<g id="node7" class="node">
<title>Node7</title>
<g id="a_node7"><a xlink:title=" ">
<polygon fill="white" stroke="#bfbfbf" points="552.5,-56.5 552.5,-75.5 711.5,-75.5 711.5,-56.5 552.5,-56.5"/>
<text text-anchor="middle" x="632" y="-63.5" font-family="Helvetica,sans-Serif" font-size="10.00">stk_mesh/base/BulkData.hpp</text>
</a>
</g>
</g>
<!-- Node6&#45;&gt;Node7 -->
<g id="edge7" class="edge">
<title>Node6&#45;&gt;Node7</title>
<path fill="none" stroke="midnightblue" d="M542.19,-112.32C559.35,-103.66 585.95,-90.24 605.75,-80.25"/>
<polygon fill="midnightblue" stroke="midnightblue" points="607.5,-83.28 614.85,-75.65 604.35,-77.04 607.5,-83.28"/>
</g>
<!-- Node8 -->
<g id="node8" class="node">
<title>Node8</title>
<g id="a_node8"><a xlink:title=" ">
<polygon fill="white" stroke="#bfbfbf" points="0,-56.5 0,-75.5 158,-75.5 158,-56.5 0,-56.5"/>
<text text-anchor="middle" x="79" y="-63.5" font-family="Helvetica,sans-Serif" font-size="10.00">stk_search/BoundingBox.hpp</text>
</a>
</g>
</g>
<!-- Node6&#45;&gt;Node8 -->
<g id="edge9" class="edge">
<title>Node6&#45;&gt;Node8</title>
<path fill="none" stroke="midnightblue" d="M454.33,-112.44C374.08,-102.73 243.41,-86.91 159.35,-76.73"/>
<polygon fill="midnightblue" stroke="midnightblue" points="159.69,-73.24 149.34,-75.52 158.85,-80.19 159.69,-73.24"/>
</g>
<!-- Node9 -->
<g id="node9" class="node">
<title>Node9</title>
<g id="a_node9"><a xlink:title=" ">
<polygon fill="white" stroke="#bfbfbf" points="176.5,-56.5 176.5,-75.5 315.5,-75.5 315.5,-56.5 176.5,-56.5"/>
<text text-anchor="middle" x="246" y="-63.5" font-family="Helvetica,sans-Serif" font-size="10.00">stk_search/IdentProc.hpp</text>
</a>
</g>
</g>
<!-- Node6&#45;&gt;Node9 -->
<g id="edge10" class="edge">
<title>Node6&#45;&gt;Node9</title>
<path fill="none" stroke="midnightblue" d="M480.79,-112.44C431.71,-102.94 352.49,-87.61 299.84,-77.42"/>
<polygon fill="midnightblue" stroke="midnightblue" points="300.48,-73.98 290,-75.52 299.15,-80.85 300.48,-73.98"/>
</g>
<!-- Node10 -->
<g id="node10" class="node">
<title>Node10</title>
<g id="a_node10"><a xlink:title=" ">
<polygon fill="white" stroke="#bfbfbf" points="333.5,-56.5 333.5,-75.5 496.5,-75.5 496.5,-56.5 333.5,-56.5"/>
<text text-anchor="middle" x="415" y="-63.5" font-family="Helvetica,sans-Serif" font-size="10.00">stk_search/SearchMethod.hpp</text>
</a>
</g>
</g>
<!-- Node6&#45;&gt;Node10 -->
<g id="edge11" class="edge">
<title>Node6&#45;&gt;Node10</title>
<path fill="none" stroke="midnightblue" d="M507.33,-112.32C489.61,-103.62 462.1,-90.12 441.71,-80.11"/>
<polygon fill="midnightblue" stroke="midnightblue" points="443.15,-76.92 432.63,-75.65 440.06,-83.2 443.15,-76.92"/>
</g>
<!-- Node12 -->
<g id="node12" class="node">
<title>Node12</title>
<g id="a_node12"><a xlink:title=" ">
<polygon fill="white" stroke="#bfbfbf" points="1183,-56.5 1183,-75.5 1227,-75.5 1227,-56.5 1183,-56.5"/>
<text text-anchor="middle" x="1205" y="-63.5" font-family="Helvetica,sans-Serif" font-size="10.00">string</text>
</a>
</g>
</g>
<!-- Node11&#45;&gt;Node12 -->
<g id="edge13" class="edge">
<title>Node11&#45;&gt;Node12</title>
<path fill="none" stroke="midnightblue" d="M882.78,-114.67C887.53,-113.73 892.39,-112.81 897,-112 997.26,-94.44 1116.73,-78.36 1172.86,-71.09"/>
<polygon fill="midnightblue" stroke="midnightblue" points="1173.43,-74.54 1182.9,-69.79 1172.53,-67.6 1173.43,-74.54"/>
</g>
<!-- Node13 -->
<g id="node13" class="node">
<title>Node13</title>
<g id="a_node13"><a xlink:title=" ">
<polygon fill="white" stroke="#bfbfbf" points="959,-56.5 959,-75.5 997,-75.5 997,-56.5 959,-56.5"/>
<text text-anchor="middle" x="978" y="-63.5" font-family="Helvetica,sans-Serif" font-size="10.00">map</text>
</a>
</g>
</g>
<!-- Node11&#45;&gt;Node13 -->
<g id="edge14" class="edge">
<title>Node11&#45;&gt;Node13</title>
<path fill="none" stroke="midnightblue" d="M872.81,-112.44C893.41,-103.54 925.86,-89.52 949.28,-79.41"/>
<polygon fill="midnightblue" stroke="midnightblue" points="950.9,-82.52 958.7,-75.34 948.13,-76.09 950.9,-82.52"/>
</g>
<!-- Node15&#45;&gt;Node2 -->
<g id="edge17" class="edge">
<title>Node15&#45;&gt;Node2</title>
<path fill="none" stroke="midnightblue" d="M799.64,-224.47C747.53,-213.78 676.9,-199.29 629.5,-189.57"/>
<polygon fill="midnightblue" stroke="midnightblue" points="629.96,-186.09 619.46,-187.51 628.55,-192.94 629.96,-186.09"/>
</g>
<!-- Node16 -->
<g id="node16" class="node">
<title>Node16</title>
<g id="a_node16"><a xlink:title=" ">
<polygon fill="white" stroke="#bfbfbf" points="674.5,-168.5 674.5,-187.5 749.5,-187.5 749.5,-168.5 674.5,-168.5"/>
<text text-anchor="middle" x="712" y="-175.5" font-family="Helvetica,sans-Serif" font-size="10.00">OpenFAST.H</text>
</a>
</g>
</g>
<!-- Node15&#45;&gt;Node16 -->
<g id="edge18" class="edge">
<title>Node15&#45;&gt;Node16</title>
<path fill="none" stroke="midnightblue" d="M831.03,-224.4C804.62,-214.33 769.44,-200.91 744.19,-191.28"/>
<polygon fill="midnightblue" stroke="midnightblue" points="745.29,-187.95 734.7,-187.66 742.8,-194.49 745.29,-187.95"/>
</g>
<!-- Node17&#45;&gt;Node11 -->
<g id="edge26" class="edge">
<title>Node17&#45;&gt;Node11</title>
<path fill="none" stroke="midnightblue" d="M1189.36,-236.74C1085.94,-231.93 823.79,-216.97 798,-188 782.52,-170.61 806.91,-150.01 827.96,-136.74"/>
<polygon fill="midnightblue" stroke="midnightblue" points="829.88,-139.67 836.66,-131.53 826.28,-133.67 829.88,-139.67"/>
</g>
<!-- Node17&#45;&gt;Node12 -->
<g id="edge54" class="edge">
<title>Node17&#45;&gt;Node12</title>
<path fill="none" stroke="midnightblue" d="M1256.15,-229.85C1263.16,-227.68 1270.82,-225.54 1278,-224 1404.55,-196.82 1455.8,-254.24 1567,-188 1599.79,-168.47 1632.45,-140.45 1607,-112 1582.46,-84.56 1328.39,-71.88 1237.29,-68.19"/>
<polygon fill="midnightblue" stroke="midnightblue" points="1237.39,-64.69 1227.26,-67.79 1237.11,-71.69 1237.39,-64.69"/>
</g>
<!-- Node17&#45;&gt;Node14 -->
<g id="edge55" class="edge">
<title>Node17&#45;&gt;Node14</title>
<path fill="none" stroke="midnightblue" d="M1189.43,-234.33C1159.63,-228.92 1121.45,-216.51 1102,-188 1092.5,-174.08 1098.12,-154.81 1104.68,-140.87"/>
<polygon fill="midnightblue" stroke="midnightblue" points="1107.88,-142.3 1109.41,-131.82 1101.68,-139.06 1107.88,-142.3"/>
</g>
<!-- Node18 -->
<g id="node18" class="node">
<title>Node18</title>
<g id="a_node18"><a xlink:href="_boundary_conditions_8h.html" target="_top" xlink:title=" ">
<polygon fill="white" stroke="black" points="930,-168.5 930,-187.5 1054,-187.5 1054,-168.5 930,-168.5"/>
<text text-anchor="middle" x="992" y="-175.5" font-family="Helvetica,sans-Serif" font-size="10.00">BoundaryConditions.h</text>
</a>
</g>
</g>
<!-- Node17&#45;&gt;Node18 -->
<g id="edge20" class="edge">
<title>Node17&#45;&gt;Node18</title>
<path fill="none" stroke="midnightblue" d="M1196.76,-229.98C1154.43,-219.44 1082.32,-201.49 1035.95,-189.94"/>
<polygon fill="midnightblue" stroke="midnightblue" points="1036.73,-186.53 1026.18,-187.51 1035.04,-193.32 1036.73,-186.53"/>
</g>
<!-- Node20 -->
<g id="node20" class="node">
<title>Node20</title>
<g id="a_node20"><a xlink:href="_initial_conditions_8h.html" target="_top" xlink:title=" ">
<polygon fill="white" stroke="black" points="806.5,-168.5 806.5,-187.5 911.5,-187.5 911.5,-168.5 806.5,-168.5"/>
<text text-anchor="middle" x="859" y="-175.5" font-family="Helvetica,sans-Serif" font-size="10.00">InitialConditions.h</text>
</a>
</g>
</g>
<!-- Node17&#45;&gt;Node20 -->
<g id="edge27" class="edge">
<title>Node17&#45;&gt;Node20</title>
<path fill="none" stroke="midnightblue" d="M1189.41,-231.85C1124.27,-221.43 997.77,-201.2 921.59,-189.01"/>
<polygon fill="midnightblue" stroke="midnightblue" points="922.07,-185.54 911.65,-187.42 920.97,-192.46 922.07,-185.54"/>
</g>
<!-- Node21 -->
<g id="node21" class="node">
<title>Node21</title>
<g id="a_node21"><a xlink:href="_material_propertys_8h.html" target="_top" xlink:title=" ">
<polygon fill="white" stroke="black" points="1110.5,-168.5 1110.5,-187.5 1223.5,-187.5 1223.5,-168.5 1110.5,-168.5"/>
<text text-anchor="middle" x="1167" y="-175.5" font-family="Helvetica,sans-Serif" font-size="10.00">MaterialPropertys.h</text>
</a>
</g>
</g>
<!-- Node17&#45;&gt;Node21 -->
<g id="edge33" class="edge">
<title>Node17&#45;&gt;Node21</title>
<path fill="none" stroke="midnightblue" d="M1221.83,-229.98C1211.85,-220.7 1195.69,-205.67 1183.49,-194.33"/>
<polygon fill="midnightblue" stroke="midnightblue" points="1185.86,-191.75 1176.15,-187.51 1181.09,-196.88 1185.86,-191.75"/>
</g>
<!-- Node22 -->
<g id="node22" class="node">
<title>Node22</title>
<g id="a_node22"><a xlink:href="_nalu_parsed_types_8h.html" target="_top" xlink:title=" ">
<polygon fill="white" stroke="black" points="1242,-168.5 1242,-187.5 1350,-187.5 1350,-168.5 1242,-168.5"/>
<text text-anchor="middle" x="1296" y="-175.5" font-family="Helvetica,sans-Serif" font-size="10.00">NaluParsedTypes.h</text>
</a>
</g>
</g>
<!-- Node17&#45;&gt;Node22 -->
<g id="edge38" class="edge">
<title>Node17&#45;&gt;Node22</title>
<path fill="none" stroke="midnightblue" d="M1240.31,-229.98C1250.45,-220.7 1266.86,-205.67 1279.25,-194.33"/>
<polygon fill="midnightblue" stroke="midnightblue" points="1281.69,-196.84 1286.7,-187.51 1276.96,-191.68 1281.69,-196.84"/>
</g>
<!-- Node23 -->
<g id="node23" class="node">
<title>Node23</title>
<g id="a_node23"><a xlink:href="_nalu_parsing_helper_8h.html" target="_top" xlink:title=" ">
<polygon fill="white" stroke="black" points="1406.5,-168.5 1406.5,-187.5 1521.5,-187.5 1521.5,-168.5 1406.5,-168.5"/>
<text text-anchor="middle" x="1464" y="-175.5" font-family="Helvetica,sans-Serif" font-size="10.00">NaluParsingHelper.h</text>
</a>
</g>
</g>
<!-- Node17&#45;&gt;Node23 -->
<g id="edge41" class="edge">
<title>Node17&#45;&gt;Node23</title>
<path fill="none" stroke="midnightblue" d="M1263.86,-229.97C1271.46,-228 1279.51,-225.92 1287,-224 1332.28,-212.38 1384.12,-199.22 1419.94,-190.14"/>
<polygon fill="midnightblue" stroke="midnightblue" points="1421.22,-193.43 1430.06,-187.58 1419.5,-186.64 1421.22,-193.43"/>
</g>
<!-- Node24 -->
<g id="node24" class="node">
<title>Node24</title>
<g id="a_node24"><a xlink:title=" ">
<polygon fill="white" stroke="#bfbfbf" points="1308.5,-112.5 1308.5,-131.5 1407.5,-131.5 1407.5,-112.5 1308.5,-112.5"/>
<text text-anchor="middle" x="1358" y="-119.5" font-family="Helvetica,sans-Serif" font-size="10.00">yaml&#45;cpp/yaml.h</text>
</a>
</g>
</g>
<!-- Node17&#45;&gt;Node24 -->
<g id="edge51" class="edge">
<title>Node17&#45;&gt;Node24</title>
<path fill="none" stroke="midnightblue" d="M1264.13,-229.98C1298.25,-220.46 1347.95,-204.24 1359,-188 1368.12,-174.6 1366.69,-155.78 1363.68,-141.84"/>
<polygon fill="midnightblue" stroke="midnightblue" points="1367,-140.7 1361.1,-131.9 1360.23,-142.46 1367,-140.7"/>
</g>
<!-- Node25 -->
<g id="node25" class="node">
<title>Node25</title>
<g id="a_node25"><a xlink:title=" ">
<polygon fill="white" stroke="#bfbfbf" points="1464,-112.5 1464,-131.5 1524,-131.5 1524,-112.5 1464,-112.5"/>
<text text-anchor="middle" x="1494" y="-119.5" font-family="Helvetica,sans-Serif" font-size="10.00">iostream</text>
</a>
</g>
</g>
<!-- Node17&#45;&gt;Node25 -->
<g id="edge52" class="edge">
<title>Node17&#45;&gt;Node25</title>
<path fill="none" stroke="midnightblue" d="M1261.67,-229.93C1269.86,-227.81 1278.73,-225.68 1287,-224 1340.72,-213.12 1495.18,-229.49 1531,-188 1544.03,-172.91 1528.11,-152.53 1513.29,-138.64"/>
<polygon fill="midnightblue" stroke="midnightblue" points="1515.18,-135.64 1505.36,-131.67 1510.56,-140.9 1515.18,-135.64"/>
</g>
<!-- Node26 -->
<g id="node26" class="node">
<title>Node26</title>
<g id="a_node26"><a xlink:title=" ">
<polygon fill="white" stroke="#bfbfbf" points="1542.5,-112.5 1542.5,-131.5 1597.5,-131.5 1597.5,-112.5 1542.5,-112.5"/>
<text text-anchor="middle" x="1570" y="-119.5" font-family="Helvetica,sans-Serif" font-size="10.00">fstream</text>
</a>
</g>
</g>
<!-- Node17&#45;&gt;Node26 -->
<g id="edge53" class="edge">
<title>Node17&#45;&gt;Node26</title>
<path fill="none" stroke="midnightblue" d="M1261.37,-229.95C1269.64,-227.81 1278.63,-225.66 1287,-224 1344.22,-212.67 1501.8,-224.86 1547,-188 1560.75,-176.79 1566.29,-156.77 1568.51,-141.9"/>
<polygon fill="midnightblue" stroke="midnightblue" points="1572.01,-142.09 1569.65,-131.77 1565.06,-141.31 1572.01,-142.09"/>
</g>
<!-- Node17&#45;&gt;Node27 -->
<g id="edge47" class="edge">
<title>Node17&#45;&gt;Node27</title>
<path fill="none" stroke="midnightblue" d="M1260.46,-229.98C1268.97,-227.76 1278.3,-225.56 1287,-224 1442.22,-196.15 1483.96,-210.85 1640,-188 1641.46,-187.79 1642.95,-187.56 1644.45,-187.32"/>
<polygon fill="midnightblue" stroke="midnightblue" points="1645.18,-190.75 1654.45,-185.62 1644,-183.85 1645.18,-190.75"/>
</g>
<!-- Node18&#45;&gt;Node11 -->
<g id="edge21" class="edge">
<title>Node18&#45;&gt;Node11</title>
<path fill="none" stroke="midnightblue" d="M969.98,-168.44C946.9,-159.48 910.44,-145.31 884.36,-135.18"/>
<polygon fill="midnightblue" stroke="midnightblue" points="885.51,-131.88 874.92,-131.52 882.98,-138.4 885.51,-131.88"/>
</g>
<!-- Node18&#45;&gt;Node12 -->
<g id="edge23" class="edge">
<title>Node18&#45;&gt;Node12</title>
<path fill="none" stroke="midnightblue" d="M1002.05,-168.43C1018.23,-154.98 1051.43,-128.71 1083,-112 1112.11,-96.59 1147.67,-84.13 1172.87,-76.26"/>
<polygon fill="midnightblue" stroke="midnightblue" points="1174.11,-79.54 1182.65,-73.27 1172.06,-72.85 1174.11,-79.54"/>
</g>
<!-- Node18&#45;&gt;Node13 -->
<g id="edge22" class="edge">
<title>Node18&#45;&gt;Node13</title>
<path fill="none" stroke="midnightblue" d="M996.48,-168.5C1002.47,-156 1011.71,-131.98 1006,-112 1003.1,-101.84 997.17,-91.75 991.51,-83.7"/>
<polygon fill="midnightblue" stroke="midnightblue" points="994.22,-81.48 985.41,-75.59 988.62,-85.69 994.22,-81.48"/>
</g>
<!-- Node18&#45;&gt;Node14 -->
<g id="edge24" class="edge">
<title>Node18&#45;&gt;Node14</title>
<path fill="none" stroke="midnightblue" d="M1011.49,-168.44C1031.64,-159.6 1063.32,-145.69 1086.33,-135.59"/>
<polygon fill="midnightblue" stroke="midnightblue" points="1087.85,-138.74 1095.6,-131.52 1085.04,-132.33 1087.85,-138.74"/>
</g>
<!-- Node19 -->
<g id="node19" class="node">
<title>Node19</title>
<g id="a_node19"><a xlink:title=" ">
<polygon fill="white" stroke="#bfbfbf" points="939,-112.5 939,-131.5 997,-131.5 997,-112.5 939,-112.5"/>
<text text-anchor="middle" x="968" y="-119.5" font-family="Helvetica,sans-Serif" font-size="10.00">memory</text>
</a>
</g>
</g>
<!-- Node18&#45;&gt;Node19 -->
<g id="edge25" class="edge">
<title>Node18&#45;&gt;Node19</title>
<path fill="none" stroke="midnightblue" d="M988.04,-168.08C984.79,-160.77 980.08,-150.18 976.05,-141.1"/>
<polygon fill="midnightblue" stroke="midnightblue" points="979.15,-139.47 971.89,-131.75 972.75,-142.31 979.15,-139.47"/>
</g>
<!-- Node20&#45;&gt;Node11 -->
<g id="edge28" class="edge">
<title>Node20&#45;&gt;Node11</title>
<path fill="none" stroke="midnightblue" d="M858.01,-168.08C857.21,-160.93 856.07,-150.64 855.08,-141.69"/>
<polygon fill="midnightblue" stroke="midnightblue" points="858.56,-141.3 853.97,-131.75 851.6,-142.08 858.56,-141.3"/>
</g>
<!-- Node20&#45;&gt;Node12 -->
<g id="edge30" class="edge">
<title>Node20&#45;&gt;Node12</title>
<path fill="none" stroke="midnightblue" d="M865.75,-168.12C877.23,-153.73 902.03,-125.57 930,-112 1010.83,-72.78 1119.1,-66.78 1172.47,-66.44"/>
<polygon fill="midnightblue" stroke="midnightblue" points="1172.69,-69.94 1182.69,-66.45 1172.69,-62.94 1172.69,-69.94"/>
</g>
<!-- Node20&#45;&gt;Node13 -->
<g id="edge29" class="edge">
<title>Node20&#45;&gt;Node13</title>
<path fill="none" stroke="midnightblue" d="M845.74,-168.38C827.93,-155.72 800.14,-131.52 815,-112 831.15,-90.79 906.42,-77.03 948.8,-70.82"/>
<polygon fill="midnightblue" stroke="midnightblue" points="949.4,-74.27 958.81,-69.4 948.42,-67.34 949.4,-74.27"/>
</g>
<!-- Node20&#45;&gt;Node14 -->
<g id="edge31" class="edge">
<title>Node20&#45;&gt;Node14</title>
<path fill="none" stroke="midnightblue" d="M899.56,-168.44C949.9,-157.83 1034.78,-139.92 1081.56,-130.05"/>
<polygon fill="midnightblue" stroke="midnightblue" points="1082.43,-133.45 1091.49,-127.96 1080.98,-126.6 1082.43,-133.45"/>
</g>
<!-- Node20&#45;&gt;Node19 -->
<g id="edge32" class="edge">
<title>Node20&#45;&gt;Node19</title>
<path fill="none" stroke="midnightblue" d="M876.51,-168.32C894.07,-159.62 921.33,-146.12 941.53,-136.11"/>
<polygon fill="midnightblue" stroke="midnightblue" points="943.12,-139.23 950.53,-131.65 940.02,-132.96 943.12,-139.23"/>
</g>
<!-- Node21&#45;&gt;Node11 -->
<g id="edge34" class="edge">
<title>Node21&#45;&gt;Node11</title>
<path fill="none" stroke="midnightblue" d="M1117.25,-168.44C1055.06,-157.75 949.87,-139.66 892.76,-129.84"/>
<polygon fill="midnightblue" stroke="midnightblue" points="893.13,-126.35 882.68,-128.1 891.94,-133.25 893.13,-126.35"/>
</g>
<!-- Node21&#45;&gt;Node12 -->
<g id="edge36" class="edge">
<title>Node21&#45;&gt;Node12</title>
<path fill="none" stroke="midnightblue" d="M1169.98,-168.37C1176.14,-150.54 1190.39,-109.3 1198.69,-85.27"/>
<polygon fill="midnightblue" stroke="midnightblue" points="1202.07,-86.19 1202.03,-75.59 1195.46,-83.9 1202.07,-86.19"/>
</g>
<!-- Node21&#45;&gt;Node13 -->
<g id="edge35" class="edge">
<title>Node21&#45;&gt;Node13</title>
<path fill="none" stroke="midnightblue" d="M1167.01,-168.05C1166.53,-154.07 1163.49,-127.1 1148,-112 1109.99,-74.95 1045.21,-67.47 1007.55,-66.48"/>
<polygon fill="midnightblue" stroke="midnightblue" points="1007.28,-62.98 997.24,-66.36 1007.19,-69.98 1007.28,-62.98"/>
</g>
<!-- Node21&#45;&gt;Node14 -->
<g id="edge37" class="edge">
<title>Node21&#45;&gt;Node14</title>
<path fill="none" stroke="midnightblue" d="M1158.41,-168.08C1150.84,-160.22 1139.62,-148.57 1130.49,-139.08"/>
<polygon fill="midnightblue" stroke="midnightblue" points="1132.88,-136.53 1123.43,-131.75 1127.84,-141.38 1132.88,-136.53"/>
</g>
<!-- Node22&#45;&gt;Node12 -->
<g id="edge39" class="edge">
<title>Node22&#45;&gt;Node12</title>
<path fill="none" stroke="midnightblue" d="M1288.86,-168.37C1273.71,-150.05 1238.13,-107.05 1218.54,-83.36"/>
<polygon fill="midnightblue" stroke="midnightblue" points="1221.18,-81.07 1212.11,-75.59 1215.78,-85.53 1221.18,-81.07"/>
</g>
<!-- Node22&#45;&gt;Node14 -->
<g id="edge40" class="edge">
<title>Node22&#45;&gt;Node14</title>
<path fill="none" stroke="midnightblue" d="M1267.32,-168.44C1235.07,-158.82 1182.76,-143.21 1148.61,-133.03"/>
<polygon fill="midnightblue" stroke="midnightblue" points="1149.23,-129.56 1138.64,-130.05 1147.22,-136.27 1149.23,-129.56"/>
</g>
<!-- Node23&#45;&gt;Node12 -->
<g id="edge45" class="edge">
<title>Node23&#45;&gt;Node12</title>
<path fill="none" stroke="midnightblue" d="M1460.25,-168.25C1453.68,-154.04 1438.71,-126.13 1417,-112 1361.21,-75.69 1281.28,-68.07 1237.22,-66.83"/>
<polygon fill="midnightblue" stroke="midnightblue" points="1237.16,-63.33 1227.09,-66.65 1237.02,-70.33 1237.16,-63.33"/>
</g>
<!-- Node23&#45;&gt;Node14 -->
<g id="edge46" class="edge">
<title>Node23&#45;&gt;Node14</title>
<path fill="none" stroke="midnightblue" d="M1408.7,-168.44C1335.63,-157.14 1209.14,-137.57 1148.85,-128.24"/>
<polygon fill="midnightblue" stroke="midnightblue" points="1149.15,-124.74 1138.73,-126.67 1148.08,-131.66 1149.15,-124.74"/>
</g>
<!-- Node23&#45;&gt;Node24 -->
<g id="edge42" class="edge">
<title>Node23&#45;&gt;Node24</title>
<path fill="none" stroke="midnightblue" d="M1446.97,-168.32C1429.97,-159.66 1403.62,-146.24 1384.01,-136.25"/>
<polygon fill="midnightblue" stroke="midnightblue" points="1385.49,-133.08 1374.99,-131.65 1382.31,-139.31 1385.49,-133.08"/>
</g>
<!-- Node23&#45;&gt;Node25 -->
<g id="edge43" class="edge">
<title>Node23&#45;&gt;Node25</title>
<path fill="none" stroke="midnightblue" d="M1468.95,-168.08C1473.1,-160.61 1479.15,-149.72 1484.27,-140.52"/>
<polygon fill="midnightblue" stroke="midnightblue" points="1487.34,-142.19 1489.14,-131.75 1481.22,-138.79 1487.34,-142.19"/>
</g>
<!-- Node23&#45;&gt;Node26 -->
<g id="edge44" class="edge">
<title>Node23&#45;&gt;Node26</title>
<path fill="none" stroke="midnightblue" d="M1481.03,-168.32C1498.03,-159.66 1524.38,-146.24 1543.99,-136.25"/>
<polygon fill="midnightblue" stroke="midnightblue" points="1545.69,-139.31 1553.01,-131.65 1542.51,-133.08 1545.69,-139.31"/>
</g>
<!-- Node27&#45;&gt;Node26 -->
<g id="edge49" class="edge">
<title>Node27&#45;&gt;Node26</title>
<path fill="none" stroke="midnightblue" d="M1668.46,-168.44C1649.38,-159.64 1619.43,-145.81 1597.56,-135.72"/>
<polygon fill="midnightblue" stroke="midnightblue" points="1599,-132.53 1588.45,-131.52 1596.07,-138.88 1599,-132.53"/>
</g>
<!-- Node28 -->
<g id="node28" class="node">
<title>Node28</title>
<g id="a_node28"><a xlink:title=" ">
<polygon fill="white" stroke="#bfbfbf" points="1740,-112.5 1740,-131.5 1784,-131.5 1784,-112.5 1740,-112.5"/>
<text text-anchor="middle" x="1762" y="-119.5" font-family="Helvetica,sans-Serif" font-size="10.00">mpi.h</text>
</a>
</g>
</g>
<!-- Node27&#45;&gt;Node28 -->
<g id="edge48" class="edge">
<title>Node27&#45;&gt;Node28</title>
<path fill="none" stroke="midnightblue" d="M1699.05,-168.32C1710.46,-160.11 1727.83,-147.6 1741.43,-137.81"/>
<polygon fill="midnightblue" stroke="midnightblue" points="1743.66,-140.52 1749.73,-131.83 1739.57,-134.84 1743.66,-140.52"/>
</g>
<!-- Node29 -->
<g id="node29" class="node">
<title>Node29</title>
<g id="a_node29"><a xlink:title=" ">
<polygon fill="white" stroke="#bfbfbf" points="1654.5,-112.5 1654.5,-131.5 1721.5,-131.5 1721.5,-112.5 1654.5,-112.5"/>
<text text-anchor="middle" x="1688" y="-119.5" font-family="Helvetica,sans-Serif" font-size="10.00">streambuf</text>
</a>
</g>
</g>
<!-- Node27&#45;&gt;Node29 -->
<g id="edge50" class="edge">
<title>Node27&#45;&gt;Node29</title>
<path fill="none" stroke="midnightblue" d="M1687.17,-168.08C1687.3,-161.01 1687.48,-150.86 1687.65,-141.99"/>
<polygon fill="midnightblue" stroke="midnightblue" points="1691.15,-141.81 1687.84,-131.75 1684.15,-141.68 1691.15,-141.81"/>
</g>
<!-- Node31&#45;&gt;Node2 -->
<g id="edge58" class="edge">
<title>Node31&#45;&gt;Node2</title>
<path fill="none" stroke="midnightblue" d="M674.81,-229.98C656.1,-220.12 625.08,-203.79 603.2,-192.27"/>
<polygon fill="midnightblue" stroke="midnightblue" points="604.64,-189.07 594.16,-187.51 601.38,-195.27 604.64,-189.07"/>
</g>
</g>
</svg>
