<?xml version="1.0" encoding="UTF-8" standalone="no"?>
<!DOCTYPE svg PUBLIC "-//W3C//DTD SVG 1.1//EN"
 "http://www.w3.org/Graphics/SVG/1.1/DTD/svg11.dtd">
<!-- Generated by graphviz version 2.43.0 (0)
 -->
<!-- Title: ActuatorFunctorsFAST.h Pages: 1 -->
<!--zoomable 453 -->
<svg id="main" version="1.1" xmlns="http://www.w3.org/2000/svg" xmlns:xlink="http://www.w3.org/1999/xlink" xml:space="preserve" onload="init(evt)">
<style type="text/css"><![CDATA[
.edge:hover path { stroke: red; }
.edge:hover polygon { stroke: red; fill: red; }
]]></style>
<script type="text/javascript"><![CDATA[
var edges = document.getElementsByTagName('g');
if (edges && edges.length) {
  for (var i=0;i<edges.length;i++) {
    if (edges[i].id.substr(0,4)=='edge') {
      edges[i].setAttribute('class','edge');
    }
  }
}
]]></script>
        <defs>
                <circle id="rim" cx="0" cy="0" r="7"/>
                <circle id="rim2" cx="0" cy="0" r="3.5"/>
                <g id="zoomPlus">
                        <use xlink:href="#rim" fill="#404040">
                                <set attributeName="fill" to="#808080" begin="zoomplus.mouseover" end="zoomplus.mouseout"/>
                        </use>
                        <path d="M-4,0h8M0,-4v8" fill="none" stroke="white" stroke-width="1.5" pointer-events="none"/>
                </g>
                <g id="zoomMin">
                        <use xlink:href="#rim" fill="#404040">
                                <set attributeName="fill" to="#808080" begin="zoomminus.mouseover" end="zoomminus.mouseout"/>
                        </use>
                        <path d="M-4,0h8" fill="none" stroke="white" stroke-width="1.5" pointer-events="none"/>
                </g>
                <g id="dirArrow">
                        <path fill="none" stroke="white" stroke-width="1.5" d="M0,-3.0v7 M-2.5,-0.5L0,-3.0L2.5,-0.5"/>
                </g>
               <g id="resetDef">
                       <use xlink:href="#rim2" fill="#404040">
                               <set attributeName="fill" to="#808080" begin="reset.mouseover" end="reset.mouseout"/>
                       </use>
               </g>
        </defs>

<script type="text/javascript">
var viewWidth = 3426;
var viewHeight = 453;
var sectionId = 'dynsection-0';
</script>
<script xlink:href="svgpan.js"/>
<svg id="graph" class="graph">
<g id="viewport">
<title>ActuatorFunctorsFAST.h</title>
<polygon fill="white" stroke="transparent" points="-4,4 -4,-449 3422,-449 3422,4 -4,4"/>
<!-- Node1 -->
<g id="node1" class="node">
<title>Node1</title>
<g id="a_node1"><a xlink:title=" ">
<polygon fill="#bfbfbf" stroke="black" points="755,-425.5 755,-444.5 886,-444.5 886,-425.5 755,-425.5"/>
<text text-anchor="middle" x="820.5" y="-432.5" font-family="Helvetica,sans-Serif" font-size="10.00">ActuatorFunctorsFAST.h</text>
</a>
</g>
</g>
<!-- Node2 -->
<g id="node2" class="node">
<title>Node2</title>
<g id="a_node2"><a xlink:href="_actuator_types_8h.html" target="_top" xlink:title=" ">
<polygon fill="white" stroke="black" points="553,-174 553,-193 716,-193 716,-174 553,-174"/>
<text text-anchor="middle" x="634.5" y="-181" font-family="Helvetica,sans-Serif" font-size="10.00">aero/actuator/ActuatorTypes.h</text>
</a>
</g>
</g>
<!-- Node1&#45;&gt;Node2 -->
<g id="edge1" class="edge">
<title>Node1&#45;&gt;Node2</title>
<path fill="none" stroke="midnightblue" d="M754.89,-426.45C695.04,-415.39 612.14,-388.26 586.5,-322 569.85,-278.97 601.33,-227.42 620.78,-201.36"/>
<polygon fill="midnightblue" stroke="midnightblue" points="623.7,-203.31 627.06,-193.26 618.16,-199.02 623.7,-203.31"/>
</g>
<!-- Node5 -->
<g id="node5" class="node">
<title>Node5</title>
<g id="a_node5"><a xlink:href="_actuator_bulk_f_a_s_t_8h.html" target="_top" xlink:title=" ">
<polygon fill="white" stroke="black" points="656.5,-358.5 656.5,-388.5 804.5,-388.5 804.5,-358.5 656.5,-358.5"/>
<text text-anchor="start" x="664.5" y="-376.5" font-family="Helvetica,sans-Serif" font-size="10.00">aero/actuator/ActuatorBulk</text>
<text text-anchor="middle" x="730.5" y="-365.5" font-family="Helvetica,sans-Serif" font-size="10.00">FAST.h</text>
</a>
</g>
</g>
<!-- Node1&#45;&gt;Node5 -->
<g id="edge4" class="edge">
<title>Node1&#45;&gt;Node5</title>
<path fill="none" stroke="midnightblue" d="M807.61,-425.48C795.3,-417.34 776.32,-404.79 760.27,-394.18"/>
<polygon fill="midnightblue" stroke="midnightblue" points="761.98,-391.12 751.71,-388.52 758.12,-396.96 761.98,-391.12"/>
</g>
<!-- Node17 -->
<g id="node17" class="node">
<title>Node17</title>
<g id="a_node17"><a xlink:href="_actuator_functors_8h.html" target="_top" xlink:title=" ">
<polygon fill="white" stroke="black" points="822.5,-364 822.5,-383 998.5,-383 998.5,-364 822.5,-364"/>
<text text-anchor="middle" x="910.5" y="-371" font-family="Helvetica,sans-Serif" font-size="10.00">aero/actuator/ActuatorFunctors.h</text>
</a>
</g>
</g>
<!-- Node1&#45;&gt;Node17 -->
<g id="edge19" class="edge">
<title>Node1&#45;&gt;Node17</title>
<path fill="none" stroke="midnightblue" d="M833.39,-425.48C847.96,-415.84 871.9,-400.02 889.25,-388.55"/>
<polygon fill="midnightblue" stroke="midnightblue" points="891.22,-391.44 897.63,-383.01 887.36,-385.6 891.22,-391.44"/>
</g>
<!-- Node35 -->
<g id="node35" class="node">
<title>Node35</title>
<g id="a_node35"><a xlink:href="_nalu_env_8h.html" target="_top" xlink:title=" ">
<polygon fill="white" stroke="black" points="2763,-174 2763,-193 2828,-193 2828,-174 2763,-174"/>
<text text-anchor="middle" x="2795.5" y="-181" font-family="Helvetica,sans-Serif" font-size="10.00">NaluEnv.h</text>
</a>
</g>
</g>
<!-- Node1&#45;&gt;Node35 -->
<g id="edge69" class="edge">
<title>Node1&#45;&gt;Node35</title>
<path fill="none" stroke="midnightblue" d="M886.1,-431.23C1133.78,-419.7 2034.58,-367.89 2754.5,-199 2757.73,-198.24 2761.07,-197.32 2764.37,-196.3"/>
<polygon fill="midnightblue" stroke="midnightblue" points="2765.68,-199.56 2774.06,-193.08 2763.47,-192.91 2765.68,-199.56"/>
</g>
<!-- Node3 -->
<g id="node3" class="node">
<title>Node3</title>
<g id="a_node3"><a xlink:title=" ">
<polygon fill="white" stroke="#bfbfbf" points="494.5,-0.5 494.5,-19.5 594.5,-19.5 594.5,-0.5 494.5,-0.5"/>
<text text-anchor="middle" x="544.5" y="-7.5" font-family="Helvetica,sans-Serif" font-size="10.00">Kokkos_Core.hpp</text>
</a>
</g>
</g>
<!-- Node2&#45;&gt;Node3 -->
<g id="edge2" class="edge">
<title>Node2&#45;&gt;Node3</title>
<path fill="none" stroke="midnightblue" d="M614.86,-173.95C598.36,-165.69 575.6,-151.55 563.5,-132 543.8,-100.17 542.21,-54.9 543.14,-29.72"/>
<polygon fill="midnightblue" stroke="midnightblue" points="546.63,-29.87 543.69,-19.69 539.65,-29.49 546.63,-29.87"/>
</g>
<!-- Node4 -->
<g id="node4" class="node">
<title>Node4</title>
<g id="a_node4"><a xlink:title=" ">
<polygon fill="white" stroke="#bfbfbf" points="573,-112.5 573,-131.5 696,-131.5 696,-112.5 573,-112.5"/>
<text text-anchor="middle" x="634.5" y="-119.5" font-family="Helvetica,sans-Serif" font-size="10.00">Kokkos_DualView.hpp</text>
</a>
</g>
</g>
<!-- Node2&#45;&gt;Node4 -->
<g id="edge3" class="edge">
<title>Node2&#45;&gt;Node4</title>
<path fill="none" stroke="midnightblue" d="M634.5,-173.98C634.5,-165.58 634.5,-152.48 634.5,-141.66"/>
<polygon fill="midnightblue" stroke="midnightblue" points="638,-141.51 634.5,-131.51 631,-141.51 638,-141.51"/>
</g>
<!-- Node6 -->
<g id="node6" class="node">
<title>Node6</title>
<g id="a_node6"><a xlink:href="_actuator_bulk_8h.html" target="_top" xlink:title=" ">
<polygon fill="white" stroke="black" points="689,-297 689,-316 846,-316 846,-297 689,-297"/>
<text text-anchor="middle" x="767.5" y="-304" font-family="Helvetica,sans-Serif" font-size="10.00">aero/actuator/ActuatorBulk.h</text>
</a>
</g>
</g>
<!-- Node5&#45;&gt;Node6 -->
<g id="edge5" class="edge">
<title>Node5&#45;&gt;Node6</title>
<path fill="none" stroke="midnightblue" d="M738.53,-358.4C744.13,-348.56 751.63,-335.38 757.6,-324.89"/>
<polygon fill="midnightblue" stroke="midnightblue" points="760.65,-326.62 762.55,-316.19 754.56,-323.15 760.65,-326.62"/>
</g>
<!-- Node16 -->
<g id="node16" class="node">
<title>Node16</title>
<g id="a_node16"><a xlink:title=" ">
<polygon fill="white" stroke="#bfbfbf" points="596,-297 596,-316 671,-316 671,-297 596,-297"/>
<text text-anchor="middle" x="633.5" y="-304" font-family="Helvetica,sans-Serif" font-size="10.00">OpenFAST.H</text>
</a>
</g>
</g>
<!-- Node5&#45;&gt;Node16 -->
<g id="edge18" class="edge">
<title>Node5&#45;&gt;Node16</title>
<path fill="none" stroke="midnightblue" d="M709.45,-358.4C693.19,-347.5 670.78,-332.48 654.52,-321.58"/>
<polygon fill="midnightblue" stroke="midnightblue" points="656.45,-318.67 646.2,-316.01 652.55,-324.48 656.45,-318.67"/>
</g>
<!-- Node6&#45;&gt;Node2 -->
<g id="edge6" class="edge">
<title>Node6&#45;&gt;Node2</title>
<path fill="none" stroke="midnightblue" d="M757.93,-296.8C735.6,-276.48 679.77,-225.69 651.49,-199.96"/>
<polygon fill="midnightblue" stroke="midnightblue" points="653.73,-197.26 643.98,-193.12 649.02,-202.44 653.73,-197.26"/>
</g>
<!-- Node7 -->
<g id="node7" class="node">
<title>Node7</title>
<g id="a_node7"><a xlink:href="_actuator_search_8h.html" target="_top" xlink:title=" ">
<polygon fill="white" stroke="black" points="371.5,-235.5 371.5,-254.5 539.5,-254.5 539.5,-235.5 371.5,-235.5"/>
<text text-anchor="middle" x="455.5" y="-242.5" font-family="Helvetica,sans-Serif" font-size="10.00">aero/actuator/ActuatorSearch.h</text>
</a>
</g>
</g>
<!-- Node6&#45;&gt;Node7 -->
<g id="edge7" class="edge">
<title>Node6&#45;&gt;Node7</title>
<path fill="none" stroke="midnightblue" d="M722.8,-296.98C666.73,-286.28 570.64,-267.96 510.23,-256.44"/>
<polygon fill="midnightblue" stroke="midnightblue" points="510.6,-252.94 500.12,-254.51 509.29,-259.82 510.6,-252.94"/>
</g>
<!-- Node12 -->
<g id="node12" class="node">
<title>Node12</title>
<g id="a_node12"><a xlink:href="_enums_8h.html" target="_top" xlink:title=" ">
<polygon fill="white" stroke="black" points="1104,-174 1104,-193 1163,-193 1163,-174 1104,-174"/>
<text text-anchor="middle" x="1133.5" y="-181" font-family="Helvetica,sans-Serif" font-size="10.00">Enums.h</text>
</a>
</g>
</g>
<!-- Node6&#45;&gt;Node12 -->
<g id="edge14" class="edge">
<title>Node6&#45;&gt;Node12</title>
<path fill="none" stroke="midnightblue" d="M795.19,-296.9C851.7,-279.27 984.28,-237.42 1094.5,-199 1096.74,-198.22 1099.06,-197.4 1101.38,-196.56"/>
<polygon fill="midnightblue" stroke="midnightblue" points="1102.68,-199.81 1110.87,-193.09 1100.28,-193.24 1102.68,-199.81"/>
</g>
<!-- Node15 -->
<g id="node15" class="node">
<title>Node15</title>
<g id="a_node15"><a xlink:title=" ">
<polygon fill="white" stroke="#bfbfbf" points="696,-56.5 696,-75.5 743,-75.5 743,-56.5 696,-56.5"/>
<text text-anchor="middle" x="719.5" y="-63.5" font-family="Helvetica,sans-Serif" font-size="10.00">vector</text>
</a>
</g>
</g>
<!-- Node6&#45;&gt;Node15 -->
<g id="edge17" class="edge">
<title>Node6&#45;&gt;Node15</title>
<path fill="none" stroke="midnightblue" d="M765.73,-296.73C758.75,-262.03 732.96,-133.89 723.24,-85.59"/>
<polygon fill="midnightblue" stroke="midnightblue" points="726.63,-84.71 721.23,-75.6 719.77,-86.09 726.63,-84.71"/>
</g>
<!-- Node7&#45;&gt;Node2 -->
<g id="edge8" class="edge">
<title>Node7&#45;&gt;Node2</title>
<path fill="none" stroke="midnightblue" d="M481.15,-235.48C512.12,-225.18 564.37,-207.81 599.15,-196.25"/>
<polygon fill="midnightblue" stroke="midnightblue" points="600.52,-199.48 608.9,-193.01 598.31,-192.84 600.52,-199.48"/>
</g>
<!-- Node7&#45;&gt;Node3 -->
<g id="edge10" class="edge">
<title>Node7&#45;&gt;Node3</title>
<path fill="none" stroke="midnightblue" d="M419.65,-235.4C400.62,-228.81 378.87,-217.59 367.5,-199 360.31,-187.25 361.85,-180.57 367.5,-168 398.68,-98.66 477.29,-47.52 518.45,-24.51"/>
<polygon fill="midnightblue" stroke="midnightblue" points="520.25,-27.51 527.35,-19.65 516.9,-21.37 520.25,-27.51"/>
</g>
<!-- Node8 -->
<g id="node8" class="node">
<title>Node8</title>
<g id="a_node8"><a xlink:title=" ">
<polygon fill="white" stroke="#bfbfbf" points="1181,-174 1181,-193 1340,-193 1340,-174 1181,-174"/>
<text text-anchor="middle" x="1260.5" y="-181" font-family="Helvetica,sans-Serif" font-size="10.00">stk_mesh/base/BulkData.hpp</text>
</a>
</g>
</g>
<!-- Node7&#45;&gt;Node8 -->
<g id="edge9" class="edge">
<title>Node7&#45;&gt;Node8</title>
<path fill="none" stroke="midnightblue" d="M539.51,-241.41C673.51,-236.67 943.77,-224.64 1171.5,-199 1181.87,-197.83 1192.88,-196.29 1203.49,-194.64"/>
<polygon fill="midnightblue" stroke="midnightblue" points="1204.18,-198.08 1213.51,-193.05 1203.08,-191.17 1204.18,-198.08"/>
</g>
<!-- Node9 -->
<g id="node9" class="node">
<title>Node9</title>
<g id="a_node9"><a xlink:title=" ">
<polygon fill="white" stroke="#bfbfbf" points="376.5,-174 376.5,-193 534.5,-193 534.5,-174 376.5,-174"/>
<text text-anchor="middle" x="455.5" y="-181" font-family="Helvetica,sans-Serif" font-size="10.00">stk_search/BoundingBox.hpp</text>
</a>
</g>
</g>
<!-- Node7&#45;&gt;Node9 -->
<g id="edge11" class="edge">
<title>Node7&#45;&gt;Node9</title>
<path fill="none" stroke="midnightblue" d="M455.5,-235.48C455.5,-227.08 455.5,-213.98 455.5,-203.16"/>
<polygon fill="midnightblue" stroke="midnightblue" points="459,-203.01 455.5,-193.01 452,-203.01 459,-203.01"/>
</g>
<!-- Node10 -->
<g id="node10" class="node">
<title>Node10</title>
<g id="a_node10"><a xlink:title=" ">
<polygon fill="white" stroke="#bfbfbf" points="0,-174 0,-193 139,-193 139,-174 0,-174"/>
<text text-anchor="middle" x="69.5" y="-181" font-family="Helvetica,sans-Serif" font-size="10.00">stk_search/IdentProc.hpp</text>
</a>
</g>
</g>
<!-- Node7&#45;&gt;Node10 -->
<g id="edge12" class="edge">
<title>Node7&#45;&gt;Node10</title>
<path fill="none" stroke="midnightblue" d="M392.27,-235.49C329.93,-226.93 232,-213.02 147.5,-199 139.76,-197.72 131.61,-196.29 123.6,-194.84"/>
<polygon fill="midnightblue" stroke="midnightblue" points="124.05,-191.36 113.59,-193 122.79,-198.25 124.05,-191.36"/>
</g>
<!-- Node11 -->
<g id="node11" class="node">
<title>Node11</title>
<g id="a_node11"><a xlink:title=" ">
<polygon fill="white" stroke="#bfbfbf" points="157,-174 157,-193 320,-193 320,-174 157,-174"/>
<text text-anchor="middle" x="238.5" y="-181" font-family="Helvetica,sans-Serif" font-size="10.00">stk_search/SearchMethod.hpp</text>
</a>
</g>
</g>
<!-- Node7&#45;&gt;Node11 -->
<g id="edge13" class="edge">
<title>Node7&#45;&gt;Node11</title>
<path fill="none" stroke="midnightblue" d="M424.41,-235.48C386.22,-225 321.33,-207.21 279.2,-195.66"/>
<polygon fill="midnightblue" stroke="midnightblue" points="280.1,-192.28 269.53,-193.01 278.25,-199.03 280.1,-192.28"/>
</g>
<!-- Node13 -->
<g id="node13" class="node">
<title>Node13</title>
<g id="a_node13"><a xlink:title=" ">
<polygon fill="white" stroke="#bfbfbf" points="1294.5,-112.5 1294.5,-131.5 1338.5,-131.5 1338.5,-112.5 1294.5,-112.5"/>
<text text-anchor="middle" x="1316.5" y="-119.5" font-family="Helvetica,sans-Serif" font-size="10.00">string</text>
</a>
</g>
</g>
<!-- Node12&#45;&gt;Node13 -->
<g id="edge15" class="edge">
<title>Node12&#45;&gt;Node13</title>
<path fill="none" stroke="midnightblue" d="M1155.12,-173.98C1160.45,-171.95 1166.16,-169.85 1171.5,-168 1210.05,-154.68 1254.98,-141.02 1284.49,-132.3"/>
<polygon fill="midnightblue" stroke="midnightblue" points="1285.64,-135.61 1294.25,-129.43 1283.67,-128.89 1285.64,-135.61"/>
</g>
<!-- Node14 -->
<g id="node14" class="node">
<title>Node14</title>
<g id="a_node14"><a xlink:title=" ">
<polygon fill="white" stroke="#bfbfbf" points="1356.5,-112.5 1356.5,-131.5 1394.5,-131.5 1394.5,-112.5 1356.5,-112.5"/>
<text text-anchor="middle" x="1375.5" y="-119.5" font-family="Helvetica,sans-Serif" font-size="10.00">map</text>
</a>
</g>
</g>
<!-- Node12&#45;&gt;Node14 -->
<g id="edge16" class="edge">
<title>Node12&#45;&gt;Node14</title>
<path fill="none" stroke="midnightblue" d="M1154.2,-173.9C1159.76,-171.79 1165.8,-169.66 1171.5,-168 1245.17,-146.57 1268.46,-151.78 1346.51,-132.01"/>
<polygon fill="midnightblue" stroke="midnightblue" points="1347.5,-135.37 1356.3,-129.48 1345.74,-128.6 1347.5,-135.37"/>
</g>
<!-- Node17&#45;&gt;Node6 -->
<g id="edge66" class="edge">
<title>Node17&#45;&gt;Node6</title>
<path fill="none" stroke="midnightblue" d="M891.51,-363.87C867.04,-352.75 824.3,-333.32 795.94,-320.43"/>
<polygon fill="midnightblue" stroke="midnightblue" points="797.12,-317.12 786.57,-316.17 794.22,-323.49 797.12,-317.12"/>
</g>
<!-- Node18 -->
<g id="node18" class="node">
<title>Node18</title>
<g id="a_node18"><a xlink:href="_actuator_generic_search_functor_8h.html" target="_top" xlink:title=" ">
<polygon fill="white" stroke="black" points="1178.5,-291.5 1178.5,-321.5 1342.5,-321.5 1342.5,-291.5 1178.5,-291.5"/>
<text text-anchor="start" x="1186.5" y="-309.5" font-family="Helvetica,sans-Serif" font-size="10.00">aero/actuator/ActuatorGeneric</text>
<text text-anchor="middle" x="1260.5" y="-298.5" font-family="Helvetica,sans-Serif" font-size="10.00">SearchFunctor.h</text>
</a>
</g>
</g>
<!-- Node17&#45;&gt;Node18 -->
<g id="edge20" class="edge">
<title>Node17&#45;&gt;Node18</title>
<path fill="none" stroke="midnightblue" d="M956.62,-363.94C1011.99,-353.65 1106.01,-336.19 1174.83,-323.41"/>
<polygon fill="midnightblue" stroke="midnightblue" points="1175.6,-326.83 1184.8,-321.56 1174.33,-319.94 1175.6,-326.83"/>
</g>
<!-- Node26 -->
<g id="node26" class="node">
<title>Node26</title>
<g id="a_node26"><a xlink:href="_kokkos_interface_8h.html" target="_top" xlink:title=" ">
<polygon fill="white" stroke="black" points="944.5,-56.5 944.5,-75.5 1048.5,-75.5 1048.5,-56.5 944.5,-56.5"/>
<text text-anchor="middle" x="996.5" y="-63.5" font-family="Helvetica,sans-Serif" font-size="10.00">KokkosInterface.h</text>
</a>
</g>
</g>
<!-- Node17&#45;&gt;Node26 -->
<g id="edge68" class="edge">
<title>Node17&#45;&gt;Node26</title>
<path fill="none" stroke="midnightblue" d="M906.23,-363.85C896.69,-343.7 874.5,-291.9 874.5,-246 874.5,-246 874.5,-246 874.5,-182.5 874.5,-150.05 872.32,-136.59 893.5,-112 907.28,-96 927.82,-85.49 946.93,-78.68"/>
<polygon fill="midnightblue" stroke="midnightblue" points="948.06,-81.99 956.46,-75.54 945.87,-75.34 948.06,-81.99"/>
</g>
<!-- Node46 -->
<g id="node46" class="node">
<title>Node46</title>
<g id="a_node46"><a xlink:href="_field_type_def_8h.html" target="_top" xlink:title=" ">
<polygon fill="white" stroke="black" points="2965.5,-235.5 2965.5,-254.5 3053.5,-254.5 3053.5,-235.5 2965.5,-235.5"/>
<text text-anchor="middle" x="3009.5" y="-242.5" font-family="Helvetica,sans-Serif" font-size="10.00">FieldTypeDef.h</text>
</a>
</g>
</g>
<!-- Node17&#45;&gt;Node46 -->
<g id="edge67" class="edge">
<title>Node17&#45;&gt;Node46</title>
<path fill="none" stroke="midnightblue" d="M998.68,-367.19C1353.39,-345.81 2670.53,-266.43 2955.08,-249.28"/>
<polygon fill="midnightblue" stroke="midnightblue" points="2955.38,-252.77 2965.15,-248.67 2954.96,-245.78 2955.38,-252.77"/>
</g>
<!-- Node18&#45;&gt;Node2 -->
<g id="edge59" class="edge">
<title>Node18&#45;&gt;Node2</title>
<path fill="none" stroke="midnightblue" d="M1187.77,-291.44C1060.77,-266.89 801.37,-216.75 688.72,-194.98"/>
<polygon fill="midnightblue" stroke="midnightblue" points="689.09,-191.49 678.61,-193.03 687.76,-198.36 689.09,-191.49"/>
</g>
<!-- Node18&#45;&gt;Node8 -->
<g id="edge60" class="edge">
<title>Node18&#45;&gt;Node8</title>
<path fill="none" stroke="midnightblue" d="M1260.5,-291.14C1260.5,-269.2 1260.5,-227.33 1260.5,-203.09"/>
<polygon fill="midnightblue" stroke="midnightblue" points="1264,-203.05 1260.5,-193.05 1257,-203.05 1264,-203.05"/>
</g>
<!-- Node19 -->
<g id="node19" class="node">
<title>Node19</title>
<g id="a_node19"><a xlink:href="_utilities_actuator_8h.html" target="_top" xlink:title=" ">
<polygon fill="white" stroke="black" points="1707,-235.5 1707,-254.5 1880,-254.5 1880,-235.5 1707,-235.5"/>
<text text-anchor="middle" x="1793.5" y="-242.5" font-family="Helvetica,sans-Serif" font-size="10.00">aero/actuator/UtilitiesActuator.h</text>
</a>
</g>
</g>
<!-- Node18&#45;&gt;Node19 -->
<g id="edge21" class="edge">
<title>Node18&#45;&gt;Node19</title>
<path fill="none" stroke="midnightblue" d="M1342.61,-296.33C1441.42,-285.3 1606.57,-266.87 1707.21,-255.63"/>
<polygon fill="midnightblue" stroke="midnightblue" points="1707.79,-259.09 1717.34,-254.5 1707.02,-252.13 1707.79,-259.09"/>
</g>
<!-- Node18&#45;&gt;Node46 -->
<g id="edge61" class="edge">
<title>Node18&#45;&gt;Node46</title>
<path fill="none" stroke="midnightblue" d="M1342.51,-302.71C1646.28,-292.38 2702.83,-256.43 2955.1,-247.85"/>
<polygon fill="midnightblue" stroke="midnightblue" points="2955.6,-251.34 2965.47,-247.5 2955.36,-244.34 2955.6,-251.34"/>
</g>
<!-- Node19&#45;&gt;Node8 -->
<g id="edge50" class="edge">
<title>Node19&#45;&gt;Node8</title>
<path fill="none" stroke="midnightblue" d="M1706.96,-236.79C1617.34,-228.96 1473.36,-215.35 1349.5,-199 1339.72,-197.71 1329.37,-196.18 1319.31,-194.6"/>
<polygon fill="midnightblue" stroke="midnightblue" points="1319.81,-191.13 1309.39,-193.01 1318.71,-198.05 1319.81,-191.13"/>
</g>
<!-- Node20 -->
<g id="node20" class="node">
<title>Node20</title>
<g id="a_node20"><a xlink:href="_master_element_8h.html" target="_top" xlink:title=" ">
<polygon fill="white" stroke="black" points="903,-174 903,-193 1086,-193 1086,-174 903,-174"/>
<text text-anchor="middle" x="994.5" y="-181" font-family="Helvetica,sans-Serif" font-size="10.00">master_element/MasterElement.h</text>
</a>
</g>
</g>
<!-- Node19&#45;&gt;Node20 -->
<g id="edge22" class="edge">
<title>Node19&#45;&gt;Node20</title>
<path fill="none" stroke="midnightblue" d="M1706.95,-240.65C1574.7,-235.03 1314.47,-221.99 1094.5,-199 1082.57,-197.75 1069.89,-196.14 1057.69,-194.44"/>
<polygon fill="midnightblue" stroke="midnightblue" points="1057.99,-190.95 1047.6,-193 1057,-197.88 1057.99,-190.95"/>
</g>
<!-- Node28 -->
<g id="node28" class="node">
<title>Node28</title>
<g id="a_node28"><a xlink:title=" ">
<polygon fill="white" stroke="#bfbfbf" points="1350,-0.5 1350,-19.5 1491,-19.5 1491,-0.5 1350,-0.5"/>
<text text-anchor="middle" x="1420.5" y="-7.5" font-family="Helvetica,sans-Serif" font-size="10.00">stk_mesh/base/Entity.hpp</text>
</a>
</g>
</g>
<!-- Node19&#45;&gt;Node28 -->
<g id="edge51" class="edge">
<title>Node19&#45;&gt;Node28</title>
<path fill="none" stroke="midnightblue" d="M1770.2,-235.5C1753.02,-228.18 1730.18,-216.07 1715.5,-199 1688.44,-167.52 1704.95,-146.26 1681.5,-112 1660.71,-81.63 1653.11,-73.06 1620.5,-56 1583.74,-36.77 1538.98,-25.72 1501.13,-19.39"/>
<polygon fill="midnightblue" stroke="midnightblue" points="1501.59,-15.92 1491.16,-17.8 1500.49,-22.83 1501.59,-15.92"/>
</g>
<!-- Node31 -->
<g id="node31" class="node">
<title>Node31</title>
<g id="a_node31"><a xlink:href="_master_element_repo_8h.html" target="_top" xlink:title=" ">
<polygon fill="white" stroke="black" points="1494.5,-168.5 1494.5,-198.5 1668.5,-198.5 1668.5,-168.5 1494.5,-168.5"/>
<text text-anchor="start" x="1502.5" y="-186.5" font-family="Helvetica,sans-Serif" font-size="10.00">master_element/MasterElement</text>
<text text-anchor="middle" x="1581.5" y="-175.5" font-family="Helvetica,sans-Serif" font-size="10.00">Repo.h</text>
</a>
</g>
</g>
<!-- Node19&#45;&gt;Node31 -->
<g id="edge36" class="edge">
<title>Node19&#45;&gt;Node31</title>
<path fill="none" stroke="midnightblue" d="M1763.13,-235.48C1731.46,-226.59 1681.01,-212.43 1641.31,-201.29"/>
<polygon fill="midnightblue" stroke="midnightblue" points="1642.04,-197.86 1631.46,-198.52 1640.15,-204.6 1642.04,-197.86"/>
</g>
<!-- Node19&#45;&gt;Node35 -->
<g id="edge46" class="edge">
<title>Node19&#45;&gt;Node35</title>
<path fill="none" stroke="midnightblue" d="M1880.13,-243.18C2083.83,-240.74 2588.54,-231.5 2754.5,-199 2758.01,-198.31 2761.63,-197.38 2765.2,-196.32"/>
<polygon fill="midnightblue" stroke="midnightblue" points="2766.58,-199.55 2774.97,-193.08 2764.38,-192.91 2766.58,-199.55"/>
</g>
<!-- Node39 -->
<g id="node39" class="node">
<title>Node39</title>
<g id="a_node39"><a xlink:title=" ">
<polygon fill="white" stroke="#bfbfbf" points="1725,-174 1725,-193 1862,-193 1862,-174 1725,-174"/>
<text text-anchor="middle" x="1793.5" y="-181" font-family="Helvetica,sans-Serif" font-size="10.00">stk_mesh/base/Field.hpp</text>
</a>
</g>
</g>
<!-- Node19&#45;&gt;Node39 -->
<g id="edge52" class="edge">
<title>Node19&#45;&gt;Node39</title>
<path fill="none" stroke="midnightblue" d="M1793.5,-235.48C1793.5,-227.08 1793.5,-213.98 1793.5,-203.16"/>
<polygon fill="midnightblue" stroke="midnightblue" points="1797,-203.01 1793.5,-193.01 1790,-203.01 1797,-203.01"/>
</g>
<!-- Node40 -->
<g id="node40" class="node">
<title>Node40</title>
<g id="a_node40"><a xlink:title=" ">
<polygon fill="white" stroke="#bfbfbf" points="1880,-174 1880,-193 2053,-193 2053,-174 1880,-174"/>
<text text-anchor="middle" x="1966.5" y="-181" font-family="Helvetica,sans-Serif" font-size="10.00">stk_mesh/base/FieldParallel.hpp</text>
</a>
</g>
</g>
<!-- Node19&#45;&gt;Node40 -->
<g id="edge53" class="edge">
<title>Node19&#45;&gt;Node40</title>
<path fill="none" stroke="midnightblue" d="M1818.29,-235.48C1848.09,-225.22 1898.29,-207.96 1931.9,-196.4"/>
<polygon fill="midnightblue" stroke="midnightblue" points="1933.44,-199.57 1941.76,-193.01 1931.16,-192.95 1933.44,-199.57"/>
</g>
<!-- Node41 -->
<g id="node41" class="node">
<title>Node41</title>
<g id="a_node41"><a xlink:title=" ">
<polygon fill="white" stroke="#bfbfbf" points="2071.5,-174 2071.5,-193 2241.5,-193 2241.5,-174 2071.5,-174"/>
<text text-anchor="middle" x="2156.5" y="-181" font-family="Helvetica,sans-Serif" font-size="10.00">stk_mesh/base/GetBuckets.hpp</text>
</a>
</g>
</g>
<!-- Node19&#45;&gt;Node41 -->
<g id="edge54" class="edge">
<title>Node19&#45;&gt;Node41</title>
<path fill="none" stroke="midnightblue" d="M1845.51,-235.48C1911.28,-224.69 2024.39,-206.15 2094.56,-194.65"/>
<polygon fill="midnightblue" stroke="midnightblue" points="2095.29,-198.08 2104.59,-193.01 2094.15,-191.17 2095.29,-198.08"/>
</g>
<!-- Node42 -->
<g id="node42" class="node">
<title>Node42</title>
<g id="a_node42"><a xlink:title=" ">
<polygon fill="white" stroke="#bfbfbf" points="2260,-174 2260,-193 2413,-193 2413,-174 2260,-174"/>
<text text-anchor="middle" x="2336.5" y="-181" font-family="Helvetica,sans-Serif" font-size="10.00">stk_mesh/base/Selector.hpp</text>
</a>
</g>
</g>
<!-- Node19&#45;&gt;Node42 -->
<g id="edge55" class="edge">
<title>Node19&#45;&gt;Node42</title>
<path fill="none" stroke="midnightblue" d="M1880.04,-237.27C1972.1,-229.68 2121.89,-216.15 2250.5,-199 2259.86,-197.75 2269.76,-196.25 2279.38,-194.7"/>
<polygon fill="midnightblue" stroke="midnightblue" points="2279.98,-198.15 2289.27,-193.06 2278.84,-191.24 2279.98,-198.15"/>
</g>
<!-- Node43 -->
<g id="node43" class="node">
<title>Node43</title>
<g id="a_node43"><a xlink:title=" ">
<polygon fill="white" stroke="#bfbfbf" points="2431.5,-174 2431.5,-193 2593.5,-193 2593.5,-174 2431.5,-174"/>
<text text-anchor="middle" x="2512.5" y="-181" font-family="Helvetica,sans-Serif" font-size="10.00">stk_mesh/base/MetaData.hpp</text>
</a>
</g>
</g>
<!-- Node19&#45;&gt;Node43 -->
<g id="edge56" class="edge">
<title>Node19&#45;&gt;Node43</title>
<path fill="none" stroke="midnightblue" d="M1880.07,-240.17C2001.38,-234.26 2228.76,-221.22 2421.5,-199 2431.98,-197.79 2443.09,-196.24 2453.83,-194.61"/>
<polygon fill="midnightblue" stroke="midnightblue" points="2454.62,-198.03 2463.96,-193.03 2453.54,-191.11 2454.62,-198.03"/>
</g>
<!-- Node44 -->
<g id="node44" class="node">
<title>Node44</title>
<g id="a_node44"><a xlink:title=" ">
<polygon fill="white" stroke="#bfbfbf" points="2612,-174 2612,-193 2745,-193 2745,-174 2612,-174"/>
<text text-anchor="middle" x="2678.5" y="-181" font-family="Helvetica,sans-Serif" font-size="10.00">stk_mesh/base/Part.hpp</text>
</a>
</g>
</g>
<!-- Node19&#45;&gt;Node44 -->
<g id="edge57" class="edge">
<title>Node19&#45;&gt;Node44</title>
<path fill="none" stroke="midnightblue" d="M1880.04,-242.96C2028.42,-240.32 2340.71,-231.11 2602.5,-199 2611.22,-197.93 2620.44,-196.46 2629.34,-194.87"/>
<polygon fill="midnightblue" stroke="midnightblue" points="2630.02,-198.3 2639.21,-193.03 2628.74,-191.42 2630.02,-198.3"/>
</g>
<!-- Node45 -->
<g id="node45" class="node">
<title>Node45</title>
<g id="a_node45"><a xlink:title=" ">
<polygon fill="white" stroke="#bfbfbf" points="1358.5,-174 1358.5,-193 1476.5,-193 1476.5,-174 1358.5,-174"/>
<text text-anchor="middle" x="1417.5" y="-181" font-family="Helvetica,sans-Serif" font-size="10.00">stk_search/Point.hpp</text>
</a>
</g>
</g>
<!-- Node19&#45;&gt;Node45 -->
<g id="edge58" class="edge">
<title>Node19&#45;&gt;Node45</title>
<path fill="none" stroke="midnightblue" d="M1726.3,-235.46C1663.77,-227.22 1568.08,-213.82 1485.5,-199 1479.11,-197.85 1472.4,-196.55 1465.78,-195.2"/>
<polygon fill="midnightblue" stroke="midnightblue" points="1466.04,-191.68 1455.54,-193.07 1464.61,-198.53 1466.04,-191.68"/>
</g>
<!-- Node21 -->
<g id="node21" class="node">
<title>Node21</title>
<g id="a_node21"><a xlink:href="_alg_traits_8h.html" target="_top" xlink:title=" ">
<polygon fill="white" stroke="black" points="1208.5,-112.5 1208.5,-131.5 1276.5,-131.5 1276.5,-112.5 1208.5,-112.5"/>
<text text-anchor="middle" x="1242.5" y="-119.5" font-family="Helvetica,sans-Serif" font-size="10.00">AlgTraits.h</text>
</a>
</g>
</g>
<!-- Node20&#45;&gt;Node21 -->
<g id="edge23" class="edge">
<title>Node20&#45;&gt;Node21</title>
<path fill="none" stroke="midnightblue" d="M1030.03,-173.98C1074.42,-163.33 1150.37,-145.1 1198.42,-133.58"/>
<polygon fill="midnightblue" stroke="midnightblue" points="1199.32,-136.96 1208.23,-131.22 1197.69,-130.15 1199.32,-136.96"/>
</g>
<!-- Node23 -->
<g id="node23" class="node">
<title>Node23</title>
<g id="a_node23"><a xlink:href="_simd_interface_8h.html" target="_top" xlink:title="STK SIMD Interface.">
<polygon fill="white" stroke="black" points="752.5,-112.5 752.5,-131.5 846.5,-131.5 846.5,-112.5 752.5,-112.5"/>
<text text-anchor="middle" x="799.5" y="-119.5" font-family="Helvetica,sans-Serif" font-size="10.00">SimdInterface.h</text>
</a>
</g>
</g>
<!-- Node20&#45;&gt;Node23 -->
<g id="edge25" class="edge">
<title>Node20&#45;&gt;Node23</title>
<path fill="none" stroke="midnightblue" d="M966.56,-173.98C932.53,-163.59 874.92,-146.01 837.04,-134.45"/>
<polygon fill="midnightblue" stroke="midnightblue" points="837.97,-131.08 827.39,-131.51 835.93,-137.78 837.97,-131.08"/>
</g>
<!-- Node20&#45;&gt;Node26 -->
<g id="edge29" class="edge">
<title>Node20&#45;&gt;Node26</title>
<path fill="none" stroke="midnightblue" d="M994.65,-173.82C994.97,-155.26 995.73,-111.34 996.17,-85.97"/>
<polygon fill="midnightblue" stroke="midnightblue" points="999.67,-85.84 996.35,-75.78 992.68,-85.72 999.67,-85.84"/>
</g>
<!-- Node29 -->
<g id="node29" class="node">
<title>Node29</title>
<g id="a_node29"><a xlink:title=" ">
<polygon fill="white" stroke="#bfbfbf" points="1025,-112.5 1025,-131.5 1190,-131.5 1190,-112.5 1025,-112.5"/>
<text text-anchor="middle" x="1107.5" y="-119.5" font-family="Helvetica,sans-Serif" font-size="10.00">stk_util/util/ReportHandler.hpp</text>
</a>
</g>
</g>
<!-- Node20&#45;&gt;Node29 -->
<g id="edge34" class="edge">
<title>Node20&#45;&gt;Node29</title>
<path fill="none" stroke="midnightblue" d="M1010.69,-173.98C1029.4,-164.12 1060.42,-147.79 1082.3,-136.27"/>
<polygon fill="midnightblue" stroke="midnightblue" points="1084.12,-139.27 1091.34,-131.51 1080.86,-133.07 1084.12,-139.27"/>
</g>
<!-- Node30 -->
<g id="node30" class="node">
<title>Node30</title>
<g id="a_node30"><a xlink:title=" ">
<polygon fill="white" stroke="#bfbfbf" points="903,-112.5 903,-131.5 968,-131.5 968,-112.5 903,-112.5"/>
<text text-anchor="middle" x="935.5" y="-119.5" font-family="Helvetica,sans-Serif" font-size="10.00">stdexcept</text>
</a>
</g>
</g>
<!-- Node20&#45;&gt;Node30 -->
<g id="edge35" class="edge">
<title>Node20&#45;&gt;Node30</title>
<path fill="none" stroke="midnightblue" d="M986.05,-173.98C976.93,-164.78 962.23,-149.96 951.02,-138.66"/>
<polygon fill="midnightblue" stroke="midnightblue" points="953.46,-136.15 943.94,-131.51 948.49,-141.07 953.46,-136.15"/>
</g>
<!-- Node22 -->
<g id="node22" class="node">
<title>Node22</title>
<g id="a_node22"><a xlink:title=" ">
<polygon fill="white" stroke="#bfbfbf" points="1170,-56.5 1170,-75.5 1315,-75.5 1315,-56.5 1170,-56.5"/>
<text text-anchor="middle" x="1242.5" y="-63.5" font-family="Helvetica,sans-Serif" font-size="10.00">stk_topology/topology.hpp</text>
</a>
</g>
</g>
<!-- Node21&#45;&gt;Node22 -->
<g id="edge24" class="edge">
<title>Node21&#45;&gt;Node22</title>
<path fill="none" stroke="midnightblue" d="M1242.5,-112.08C1242.5,-105.01 1242.5,-94.86 1242.5,-85.99"/>
<polygon fill="midnightblue" stroke="midnightblue" points="1246,-85.75 1242.5,-75.75 1239,-85.75 1246,-85.75"/>
</g>
<!-- Node23&#45;&gt;Node15 -->
<g id="edge28" class="edge">
<title>Node23&#45;&gt;Node15</title>
<path fill="none" stroke="midnightblue" d="M786.65,-112.32C774.28,-103.98 755.37,-91.21 740.76,-81.35"/>
<polygon fill="midnightblue" stroke="midnightblue" points="742.57,-78.35 732.32,-75.65 738.65,-84.15 742.57,-78.35"/>
</g>
<!-- Node24 -->
<g id="node24" class="node">
<title>Node24</title>
<g id="a_node24"><a xlink:title=" ">
<polygon fill="white" stroke="#bfbfbf" points="761.5,-56.5 761.5,-75.5 871.5,-75.5 871.5,-56.5 761.5,-56.5"/>
<text text-anchor="middle" x="816.5" y="-63.5" font-family="Helvetica,sans-Serif" font-size="10.00">stk_simd/Simd.hpp</text>
</a>
</g>
</g>
<!-- Node23&#45;&gt;Node24 -->
<g id="edge26" class="edge">
<title>Node23&#45;&gt;Node24</title>
<path fill="none" stroke="midnightblue" d="M802.31,-112.08C804.58,-104.85 807.87,-94.41 810.71,-85.4"/>
<polygon fill="midnightblue" stroke="midnightblue" points="814.08,-86.34 813.75,-75.75 807.4,-84.24 814.08,-86.34"/>
</g>
<!-- Node25 -->
<g id="node25" class="node">
<title>Node25</title>
<g id="a_node25"><a xlink:title=" ">
<polygon fill="white" stroke="#bfbfbf" points="843,-0.5 843,-19.5 956,-19.5 956,-0.5 843,-0.5"/>
<text text-anchor="middle" x="899.5" y="-7.5" font-family="Helvetica,sans-Serif" font-size="10.00">Kokkos_Macros.hpp</text>
</a>
</g>
</g>
<!-- Node23&#45;&gt;Node25 -->
<g id="edge27" class="edge">
<title>Node23&#45;&gt;Node25</title>
<path fill="none" stroke="midnightblue" d="M825.66,-112.49C843.54,-105.4 866.44,-93.6 880.5,-76 891.15,-62.66 895.83,-43.55 897.89,-29.5"/>
<polygon fill="midnightblue" stroke="midnightblue" points="901.37,-29.86 899.04,-19.52 894.42,-29.06 901.37,-29.86"/>
</g>
<!-- Node26&#45;&gt;Node3 -->
<g id="edge33" class="edge">
<title>Node26&#45;&gt;Node3</title>
<path fill="none" stroke="midnightblue" d="M944.21,-58.75C859.74,-48.66 693.75,-28.83 604.56,-18.17"/>
<polygon fill="midnightblue" stroke="midnightblue" points="604.94,-14.7 594.6,-16.99 604.11,-21.65 604.94,-14.7"/>
</g>
<!-- Node26&#45;&gt;Node25 -->
<g id="edge32" class="edge">
<title>Node26&#45;&gt;Node25</title>
<path fill="none" stroke="midnightblue" d="M980.92,-56.32C965.5,-47.74 941.69,-34.49 923.79,-24.52"/>
<polygon fill="midnightblue" stroke="midnightblue" points="925.49,-21.46 915.05,-19.65 922.08,-27.58 925.49,-21.46"/>
</g>
<!-- Node27 -->
<g id="node27" class="node">
<title>Node27</title>
<g id="a_node27"><a xlink:title=" ">
<polygon fill="white" stroke="#bfbfbf" points="974,-0.5 974,-19.5 1027,-19.5 1027,-0.5 974,-0.5"/>
<text text-anchor="middle" x="1000.5" y="-7.5" font-family="Helvetica,sans-Serif" font-size="10.00">cstddef</text>
</a>
</g>
</g>
<!-- Node26&#45;&gt;Node27 -->
<g id="edge30" class="edge">
<title>Node26&#45;&gt;Node27</title>
<path fill="none" stroke="midnightblue" d="M997.16,-56.08C997.68,-49.01 998.44,-38.86 999.09,-29.99"/>
<polygon fill="midnightblue" stroke="midnightblue" points="1002.6,-29.98 999.85,-19.75 995.62,-29.47 1002.6,-29.98"/>
</g>
<!-- Node26&#45;&gt;Node28 -->
<g id="edge31" class="edge">
<title>Node26&#45;&gt;Node28</title>
<path fill="none" stroke="midnightblue" d="M1048.92,-58.32C1122.8,-48.92 1258.05,-31.69 1343.4,-20.82"/>
<polygon fill="midnightblue" stroke="midnightblue" points="1344.08,-24.26 1353.55,-19.53 1343.19,-17.32 1344.08,-24.26"/>
</g>
<!-- Node31&#45;&gt;Node13 -->
<g id="edge37" class="edge">
<title>Node31&#45;&gt;Node13</title>
<path fill="none" stroke="midnightblue" d="M1510.29,-168.48C1466.22,-159.49 1408.29,-147.11 1348.76,-132.19"/>
<polygon fill="midnightblue" stroke="midnightblue" points="1349.35,-128.73 1338.8,-129.68 1347.64,-135.52 1349.35,-128.73"/>
</g>
<!-- Node31&#45;&gt;Node14 -->
<g id="edge38" class="edge">
<title>Node31&#45;&gt;Node14</title>
<path fill="none" stroke="midnightblue" d="M1529.22,-168.45C1495.73,-159.28 1451.13,-146.79 1404.34,-132.48"/>
<polygon fill="midnightblue" stroke="midnightblue" points="1405.23,-129.1 1394.64,-129.5 1403.17,-135.79 1405.23,-129.1"/>
</g>
<!-- Node31&#45;&gt;Node21 -->
<g id="edge42" class="edge">
<title>Node31&#45;&gt;Node21</title>
<path fill="none" stroke="midnightblue" d="M1494.24,-168.49C1437.75,-159.22 1362.35,-146.45 1286.9,-132.21"/>
<polygon fill="midnightblue" stroke="midnightblue" points="1287.22,-128.71 1276.74,-130.29 1285.92,-135.59 1287.22,-128.71"/>
</g>
<!-- Node31&#45;&gt;Node29 -->
<g id="edge41" class="edge">
<title>Node31&#45;&gt;Node29</title>
<path fill="none" stroke="midnightblue" d="M1494.4,-169.22C1491.4,-168.8 1488.42,-168.39 1485.5,-168 1386.15,-154.59 1271.82,-141.27 1195.15,-132.64"/>
<polygon fill="midnightblue" stroke="midnightblue" points="1195.38,-129.15 1185.05,-131.51 1194.6,-136.1 1195.38,-129.15"/>
</g>
<!-- Node32 -->
<g id="node32" class="node">
<title>Node32</title>
<g id="a_node32"><a xlink:title=" ">
<polygon fill="white" stroke="#bfbfbf" points="1598.5,-112.5 1598.5,-131.5 1656.5,-131.5 1656.5,-112.5 1598.5,-112.5"/>
<text text-anchor="middle" x="1627.5" y="-119.5" font-family="Helvetica,sans-Serif" font-size="10.00">memory</text>
</a>
</g>
</g>
<!-- Node31&#45;&gt;Node32 -->
<g id="edge39" class="edge">
<title>Node31&#45;&gt;Node32</title>
<path fill="none" stroke="midnightblue" d="M1592.4,-168.4C1599.09,-159.75 1607.68,-148.64 1614.68,-139.58"/>
<polygon fill="midnightblue" stroke="midnightblue" points="1617.46,-141.71 1620.81,-131.66 1611.92,-137.43 1617.46,-141.71"/>
</g>
<!-- Node33 -->
<g id="node33" class="node">
<title>Node33</title>
<g id="a_node33"><a xlink:title=" ">
<polygon fill="white" stroke="#bfbfbf" points="1543,-56.5 1543,-75.5 1612,-75.5 1612,-56.5 1543,-56.5"/>
<text text-anchor="middle" x="1577.5" y="-63.5" font-family="Helvetica,sans-Serif" font-size="10.00">type_traits</text>
</a>
</g>
</g>
<!-- Node31&#45;&gt;Node33 -->
<g id="edge40" class="edge">
<title>Node31&#45;&gt;Node33</title>
<path fill="none" stroke="midnightblue" d="M1621.3,-168.4C1649.63,-155.98 1680.25,-136.12 1665.5,-112 1655.77,-96.09 1638.44,-85.58 1621.72,-78.75"/>
<polygon fill="midnightblue" stroke="midnightblue" points="1622.6,-75.35 1612.01,-75.14 1620.16,-81.91 1622.6,-75.35"/>
</g>
<!-- Node34 -->
<g id="node34" class="node">
<title>Node34</title>
<g id="a_node34"><a xlink:href="_create_device_expression_8h.html" target="_top" xlink:title=" ">
<polygon fill="white" stroke="black" points="1412,-112.5 1412,-131.5 1581,-131.5 1581,-112.5 1412,-112.5"/>
<text text-anchor="middle" x="1496.5" y="-119.5" font-family="Helvetica,sans-Serif" font-size="10.00">utils/CreateDeviceExpression.h</text>
</a>
</g>
</g>
<!-- Node31&#45;&gt;Node34 -->
<g id="edge43" class="edge">
<title>Node31&#45;&gt;Node34</title>
<path fill="none" stroke="midnightblue" d="M1561.36,-168.4C1548.11,-159.13 1530.82,-147.03 1517.42,-137.65"/>
<polygon fill="midnightblue" stroke="midnightblue" points="1519.07,-134.53 1508.87,-131.66 1515.05,-140.26 1519.07,-134.53"/>
</g>
<!-- Node34&#45;&gt;Node26 -->
<g id="edge45" class="edge">
<title>Node34&#45;&gt;Node26</title>
<path fill="none" stroke="midnightblue" d="M1417.55,-112.47C1318.18,-101.74 1149.56,-83.53 1058.78,-73.73"/>
<polygon fill="midnightblue" stroke="midnightblue" points="1058.96,-70.23 1048.64,-72.63 1058.21,-77.18 1058.96,-70.23"/>
</g>
<!-- Node34&#45;&gt;Node33 -->
<g id="edge44" class="edge">
<title>Node34&#45;&gt;Node33</title>
<path fill="none" stroke="midnightblue" d="M1509.51,-112.32C1522.03,-103.98 1541.18,-91.21 1555.97,-81.35"/>
<polygon fill="midnightblue" stroke="midnightblue" points="1558.14,-84.11 1564.52,-75.65 1554.26,-78.29 1558.14,-84.11"/>
</g>
<!-- Node36 -->
<g id="node36" class="node">
<title>Node36</title>
<g id="a_node36"><a xlink:title=" ">
<polygon fill="white" stroke="#bfbfbf" points="2773.5,-112.5 2773.5,-131.5 2817.5,-131.5 2817.5,-112.5 2773.5,-112.5"/>
<text text-anchor="middle" x="2795.5" y="-119.5" font-family="Helvetica,sans-Serif" font-size="10.00">mpi.h</text>
</a>
</g>
</g>
<!-- Node35&#45;&gt;Node36 -->
<g id="edge47" class="edge">
<title>Node35&#45;&gt;Node36</title>
<path fill="none" stroke="midnightblue" d="M2795.5,-173.98C2795.5,-165.58 2795.5,-152.48 2795.5,-141.66"/>
<polygon fill="midnightblue" stroke="midnightblue" points="2799,-141.51 2795.5,-131.51 2792,-141.51 2799,-141.51"/>
</g>
<!-- Node37 -->
<g id="node37" class="node">
<title>Node37</title>
<g id="a_node37"><a xlink:title=" ">
<polygon fill="white" stroke="#bfbfbf" points="2836,-112.5 2836,-131.5 2891,-131.5 2891,-112.5 2836,-112.5"/>
<text text-anchor="middle" x="2863.5" y="-119.5" font-family="Helvetica,sans-Serif" font-size="10.00">fstream</text>
</a>
</g>
</g>
<!-- Node35&#45;&gt;Node37 -->
<g id="edge48" class="edge">
<title>Node35&#45;&gt;Node37</title>
<path fill="none" stroke="midnightblue" d="M2805.24,-173.98C2815.85,-164.7 2833.02,-149.67 2845.98,-138.33"/>
<polygon fill="midnightblue" stroke="midnightblue" points="2848.55,-140.73 2853.78,-131.51 2843.94,-135.46 2848.55,-140.73"/>
</g>
<!-- Node38 -->
<g id="node38" class="node">
<title>Node38</title>
<g id="a_node38"><a xlink:title=" ">
<polygon fill="white" stroke="#bfbfbf" points="2688,-112.5 2688,-131.5 2755,-131.5 2755,-112.5 2688,-112.5"/>
<text text-anchor="middle" x="2721.5" y="-119.5" font-family="Helvetica,sans-Serif" font-size="10.00">streambuf</text>
</a>
</g>
</g>
<!-- Node35&#45;&gt;Node38 -->
<g id="edge49" class="edge">
<title>Node35&#45;&gt;Node38</title>
<path fill="none" stroke="midnightblue" d="M2784.9,-173.98C2773.25,-164.61 2754.31,-149.38 2740.17,-138.01"/>
<polygon fill="midnightblue" stroke="midnightblue" points="2742.07,-135.05 2732.08,-131.51 2737.68,-140.5 2742.07,-135.05"/>
</g>
<!-- Node47 -->
<g id="node47" class="node">
<title>Node47</title>
<g id="a_node47"><a xlink:title=" ">
<polygon fill="white" stroke="#bfbfbf" points="2846,-174 2846,-193 3007,-193 3007,-174 2846,-174"/>
<text text-anchor="middle" x="2926.5" y="-181" font-family="Helvetica,sans-Serif" font-size="10.00">stk_mesh/base/FieldBase.hpp</text>
</a>
</g>
</g>
<!-- Node46&#45;&gt;Node47 -->
<g id="edge62" class="edge">
<title>Node46&#45;&gt;Node47</title>
<path fill="none" stroke="midnightblue" d="M2997.61,-235.48C2984.3,-225.93 2962.5,-210.31 2946.54,-198.87"/>
<polygon fill="midnightblue" stroke="midnightblue" points="2948.54,-195.99 2938.37,-193.01 2944.46,-201.68 2948.54,-195.99"/>
</g>
<!-- Node48 -->
<g id="node48" class="node">
<title>Node48</title>
<g id="a_node48"><a xlink:title=" ">
<polygon fill="white" stroke="#bfbfbf" points="3025.5,-174 3025.5,-193 3159.5,-193 3159.5,-174 3025.5,-174"/>
<text text-anchor="middle" x="3092.5" y="-181" font-family="Helvetica,sans-Serif" font-size="10.00">stk_mesh/base/Ngp.hpp</text>
</a>
</g>
</g>
<!-- Node46&#45;&gt;Node48 -->
<g id="edge63" class="edge">
<title>Node46&#45;&gt;Node48</title>
<path fill="none" stroke="midnightblue" d="M3021.39,-235.48C3034.7,-225.93 3056.5,-210.31 3072.46,-198.87"/>
<polygon fill="midnightblue" stroke="midnightblue" points="3074.54,-201.68 3080.63,-193.01 3070.46,-195.99 3074.54,-201.68"/>
</g>
<!-- Node49 -->
<g id="node49" class="node">
<title>Node49</title>
<g id="a_node49"><a xlink:title=" ">
<polygon fill="white" stroke="#bfbfbf" points="3178,-174 3178,-193 3335,-193 3335,-174 3178,-174"/>
<text text-anchor="middle" x="3256.5" y="-181" font-family="Helvetica,sans-Serif" font-size="10.00">stk_mesh/base/NgpField.hpp</text>
</a>
</g>
</g>
<!-- Node46&#45;&gt;Node49 -->
<g id="edge64" class="edge">
<title>Node46&#45;&gt;Node49</title>
<path fill="none" stroke="midnightblue" d="M3044.89,-235.48C3088.73,-224.92 3163.47,-206.91 3211.38,-195.37"/>
<polygon fill="midnightblue" stroke="midnightblue" points="3212.27,-198.75 3221.18,-193.01 3210.63,-191.95 3212.27,-198.75"/>
</g>
<!-- Node50 -->
<g id="node50" class="node">
<title>Node50</title>
<g id="a_node50"><a xlink:title=" ">
<polygon fill="white" stroke="#bfbfbf" points="3353,-174 3353,-193 3418,-193 3418,-174 3353,-174"/>
<text text-anchor="middle" x="3385.5" y="-181" font-family="Helvetica,sans-Serif" font-size="10.00">functional</text>
</a>
</g>
</g>
<!-- Node46&#45;&gt;Node50 -->
<g id="edge65" class="edge">
<title>Node46&#45;&gt;Node50</title>
<path fill="none" stroke="midnightblue" d="M3053.66,-240.99C3118.26,-235.92 3241.96,-223.74 3344.5,-199 3347.73,-198.22 3351.06,-197.28 3354.36,-196.26"/>
<polygon fill="midnightblue" stroke="midnightblue" points="3355.67,-199.51 3364.05,-193.02 3353.45,-192.87 3355.67,-199.51"/>
</g>
</g>
</svg>
        <g id="navigator" transform="translate(0 0)" fill="#404254">
                <rect fill="#f2f5e9" fill-opacity="0.5" stroke="#606060" stroke-width=".5" x="0" y="0" width="60" height="60"/>
                <use id="zoomplus" xlink:href="#zoomPlus" x="17" y="9" onmousedown="handleZoom(evt,'in')"/>
                <use id="zoomminus" xlink:href="#zoomMin" x="42" y="9" onmousedown="handleZoom(evt,'out')"/>
                <use id="reset" xlink:href="#resetDef" x="30" y="36" onmousedown="handleReset()"/>
                <g id="arrowUp" xlink:href="#dirArrow" transform="translate(30 24)" onmousedown="handlePan(0,-1)">
                  <use xlink:href="#rim" fill="#404040">
                        <set attributeName="fill" to="#808080" begin="arrowUp.mouseover" end="arrowUp.mouseout"/>
                  </use>
                  <path fill="none" stroke="white" stroke-width="1.5" d="M0,-3.0v7 M-2.5,-0.5L0,-3.0L2.5,-0.5"/>
                </g>
                <g id="arrowRight" xlink:href="#dirArrow" transform="rotate(90) translate(36 -43)" onmousedown="handlePan(1,0)">
                  <use xlink:href="#rim" fill="#404040">
                        <set attributeName="fill" to="#808080" begin="arrowRight.mouseover" end="arrowRight.mouseout"/>
                  </use>
                  <path fill="none" stroke="white" stroke-width="1.5" d="M0,-3.0v7 M-2.5,-0.5L0,-3.0L2.5,-0.5"/>
                </g>
                <g id="arrowDown" xlink:href="#dirArrow" transform="rotate(180) translate(-30 -48)" onmousedown="handlePan(0,1)">
                  <use xlink:href="#rim" fill="#404040">
                        <set attributeName="fill" to="#808080" begin="arrowDown.mouseover" end="arrowDown.mouseout"/>
                  </use>
                  <path fill="none" stroke="white" stroke-width="1.5" d="M0,-3.0v7 M-2.5,-0.5L0,-3.0L2.5,-0.5"/>
                </g>
                <g id="arrowLeft" xlink:href="#dirArrow" transform="rotate(270) translate(-36 17)" onmousedown="handlePan(-1,0)">
                  <use xlink:href="#rim" fill="#404040">
                        <set attributeName="fill" to="#808080" begin="arrowLeft.mouseover" end="arrowLeft.mouseout"/>
                  </use>
                  <path fill="none" stroke="white" stroke-width="1.5" d="M0,-3.0v7 M-2.5,-0.5L0,-3.0L2.5,-0.5"/>
                </g>
        </g>
        <svg viewBox="0 0 15 15" width="100%" height="30px" preserveAspectRatio="xMaxYMin meet">
         <g id="arrow_out" transform="scale(0.3 0.3)">
          <a xlink:href="_actuator_functors_f_a_s_t_8h__incl_org.svg" target="_base">
           <rect id="button" ry="5" rx="5" y="6" x="6" height="38" width="38"
                fill="#f2f5e9" fill-opacity="0.5" stroke="#606060" stroke-width="1.0"/>
           <path id="arrow"
             d="M 11.500037,31.436501 C 11.940474,20.09759 22.043105,11.32322 32.158766,21.979434 L 37.068811,17.246167 C 37.068811,17.246167 37.088388,32 37.088388,32 L 22.160133,31.978069 C 22.160133,31.978069 26.997745,27.140456 26.997745,27.140456 C 18.528582,18.264221 13.291696,25.230495 11.500037,31.436501 z"
             style="fill:#404040;"/>
          </a>
         </g>
        </svg>
</svg>
