<?xml version="1.0" encoding="UTF-8" standalone="no"?>
<!DOCTYPE svg PUBLIC "-//W3C//DTD SVG 1.1//EN"
 "http://www.w3.org/Graphics/SVG/1.1/DTD/svg11.dtd">
<!-- Generated by graphviz version 2.43.0 (0)
 -->
<!-- Title: AssembleElemSolverAlgorithm.h Pages: 1 -->
<svg width="1384pt" height="151pt"
 viewBox="0.00 0.00 1384.00 151.00" xmlns="http://www.w3.org/2000/svg" xmlns:xlink="http://www.w3.org/1999/xlink">
<g id="graph0" class="graph" transform="scale(1 1) rotate(0) translate(4 147)">
<title>AssembleElemSolverAlgorithm.h</title>
<polygon fill="white" stroke="transparent" points="-4,4 -4,-147 1380,-147 1380,4 -4,4"/>
<!-- Node1 -->
<g id="node1" class="node">
<title>Node1</title>
<g id="a_node1"><a xlink:title=" ">
<polygon fill="#bfbfbf" stroke="black" points="876,-123.5 876,-142.5 1053,-142.5 1053,-123.5 876,-123.5"/>
<text text-anchor="middle" x="964.5" y="-130.5" font-family="Helvetica,sans-Serif" font-size="10.00">AssembleElemSolverAlgorithm.h</text>
</a>
</g>
</g>
<!-- Node2 -->
<g id="node2" class="node">
<title>Node2</title>
<g id="a_node2"><a xlink:href="_kernel_builder_8h.html" target="_top" xlink:title=" ">
<polygon fill="white" stroke="black" points="722.5,-67.5 722.5,-86.5 812.5,-86.5 812.5,-67.5 722.5,-67.5"/>
<text text-anchor="middle" x="767.5" y="-74.5" font-family="Helvetica,sans-Serif" font-size="10.00">KernelBuilder.h</text>
</a>
</g>
</g>
<!-- Node1&#45;&gt;Node2 -->
<g id="edge1" class="edge">
<title>Node1&#45;&gt;Node2</title>
<path fill="none" stroke="midnightblue" d="M923.27,-120.7C886.09,-110.51 832.23,-95.74 798.57,-86.52"/>
<polygon fill="midnightblue" stroke="midnightblue" points="922.72,-124.18 933.28,-123.44 924.57,-117.42 922.72,-124.18"/>
</g>
<!-- Node4 -->
<g id="node4" class="node">
<title>Node4</title>
<g id="a_node4"><a xlink:href="_gamma_equation_system_8_c.html" target="_top" xlink:title=" ">
<polygon fill="white" stroke="black" points="0,-6 0,-25 145,-25 145,-6 0,-6"/>
<text text-anchor="middle" x="72.5" y="-13" font-family="Helvetica,sans-Serif" font-size="10.00">GammaEquationSystem.C</text>
</a>
</g>
</g>
<!-- Node1&#45;&gt;Node4 -->
<g id="edge11" class="edge">
<title>Node1&#45;&gt;Node4</title>
<path fill="none" stroke="midnightblue" d="M874.52,-122.38C724.64,-106 414.56,-70.59 153.5,-31 141.92,-29.24 129.44,-27.12 117.84,-25.06"/>
<polygon fill="midnightblue" stroke="midnightblue" points="874.27,-125.87 884.59,-123.48 875.03,-118.91 874.27,-125.87"/>
</g>
<!-- Node7 -->
<g id="node7" class="node">
<title>Node7</title>
<g id="a_node7"><a xlink:href="_specific_dissipation_rate_equation_system_8_c.html" target="_top" xlink:title=" ">
<polygon fill="white" stroke="black" points="858.5,-0.5 858.5,-30.5 1032.5,-30.5 1032.5,-0.5 858.5,-0.5"/>
<text text-anchor="start" x="866.5" y="-18.5" font-family="Helvetica,sans-Serif" font-size="10.00">SpecificDissipationRateEquation</text>
<text text-anchor="middle" x="945.5" y="-7.5" font-family="Helvetica,sans-Serif" font-size="10.00">System.C</text>
</a>
</g>
</g>
<!-- Node1&#45;&gt;Node7 -->
<g id="edge12" class="edge">
<title>Node1&#45;&gt;Node7</title>
<path fill="none" stroke="midnightblue" d="M961.44,-113.38C957.63,-90.26 951.23,-51.32 947.81,-30.55"/>
<polygon fill="midnightblue" stroke="midnightblue" points="958,-114.02 963.07,-123.32 964.9,-112.88 958,-114.02"/>
</g>
<!-- Node8 -->
<g id="node8" class="node">
<title>Node8</title>
<g id="a_node8"><a xlink:href="_total_dissipation_rate_equation_system_8_c.html" target="_top" xlink:title=" ">
<polygon fill="white" stroke="black" points="1050.5,-0.5 1050.5,-30.5 1210.5,-30.5 1210.5,-0.5 1050.5,-0.5"/>
<text text-anchor="start" x="1058.5" y="-18.5" font-family="Helvetica,sans-Serif" font-size="10.00">TotalDissipationRateEquation</text>
<text text-anchor="middle" x="1130.5" y="-7.5" font-family="Helvetica,sans-Serif" font-size="10.00">System.C</text>
</a>
</g>
</g>
<!-- Node1&#45;&gt;Node8 -->
<g id="edge13" class="edge">
<title>Node1&#45;&gt;Node8</title>
<path fill="none" stroke="midnightblue" d="M972.73,-113.86C980.07,-99.47 992.02,-79.72 1007.5,-67 1027.74,-50.36 1054.21,-38.55 1077.41,-30.56"/>
<polygon fill="midnightblue" stroke="midnightblue" points="969.41,-112.69 968.23,-123.22 975.72,-115.73 969.41,-112.69"/>
</g>
<!-- Node9 -->
<g id="node9" class="node">
<title>Node9</title>
<g id="a_node9"><a xlink:href="_turb_kinetic_energy_equation_system_8_c.html" target="_top" xlink:title=" ">
<polygon fill="white" stroke="black" points="1229,-0.5 1229,-30.5 1376,-30.5 1376,-0.5 1229,-0.5"/>
<text text-anchor="start" x="1237" y="-18.5" font-family="Helvetica,sans-Serif" font-size="10.00">TurbKineticEnergyEquation</text>
<text text-anchor="middle" x="1302.5" y="-7.5" font-family="Helvetica,sans-Serif" font-size="10.00">System.C</text>
</a>
</g>
</g>
<!-- Node1&#45;&gt;Node9 -->
<g id="edge14" class="edge">
<title>Node1&#45;&gt;Node9</title>
<path fill="none" stroke="midnightblue" d="M978.81,-115.65C992.94,-100.58 1015.95,-78.83 1040.5,-67 1049.07,-62.87 1154.49,-43.25 1228.96,-29.72"/>
<polygon fill="midnightblue" stroke="midnightblue" points="976.05,-113.47 971.91,-123.22 981.23,-118.18 976.05,-113.47"/>
</g>
<!-- Node11 -->
<g id="node11" class="node">
<title>Node11</title>
<g id="a_node11"><a xlink:href="_assemble_elem_solver_algorithm_8_c.html" target="_top" xlink:title=" ">
<polygon fill="white" stroke="black" points="1049.5,-67.5 1049.5,-86.5 1227.5,-86.5 1227.5,-67.5 1049.5,-67.5"/>
<text text-anchor="middle" x="1138.5" y="-74.5" font-family="Helvetica,sans-Serif" font-size="10.00">AssembleElemSolverAlgorithm.C</text>
</a>
</g>
</g>
<!-- Node1&#45;&gt;Node11 -->
<g id="edge10" class="edge">
<title>Node1&#45;&gt;Node11</title>
<path fill="none" stroke="midnightblue" d="M1001.76,-120.44C1034.57,-110.26 1081.58,-95.66 1111.06,-86.52"/>
<polygon fill="midnightblue" stroke="midnightblue" points="1000.58,-117.14 992.07,-123.44 1002.66,-123.82 1000.58,-117.14"/>
</g>
<!-- Node3 -->
<g id="node3" class="node">
<title>Node3</title>
<g id="a_node3"><a xlink:href="_enthalpy_equation_system_8_c.html" target="_top" xlink:title=" ">
<polygon fill="white" stroke="black" points="163,-6 163,-25 312,-25 312,-6 163,-6"/>
<text text-anchor="middle" x="237.5" y="-13" font-family="Helvetica,sans-Serif" font-size="10.00">EnthalpyEquationSystem.C</text>
</a>
</g>
</g>
<!-- Node2&#45;&gt;Node3 -->
<g id="edge2" class="edge">
<title>Node2&#45;&gt;Node3</title>
<path fill="none" stroke="midnightblue" d="M712.3,-71.69C627.89,-64.81 461.77,-50.16 321.5,-31 309.18,-29.32 295.91,-27.18 283.62,-25.06"/>
<polygon fill="midnightblue" stroke="midnightblue" points="712.18,-75.19 722.43,-72.51 712.74,-68.21 712.18,-75.19"/>
</g>
<!-- Node2&#45;&gt;Node4 -->
<g id="edge3" class="edge">
<title>Node2&#45;&gt;Node4</title>
<path fill="none" stroke="midnightblue" d="M712.28,-73.88C604.51,-69.32 358.71,-56.82 153.5,-31 141.03,-29.43 127.56,-27.23 115.25,-25.01"/>
<polygon fill="midnightblue" stroke="midnightblue" points="712.14,-77.38 722.28,-74.3 712.43,-70.38 712.14,-77.38"/>
</g>
<!-- Node5 -->
<g id="node5" class="node">
<title>Node5</title>
<g id="a_node5"><a xlink:href="_low_mach_equation_system_8_c.html" target="_top" xlink:title=" ">
<polygon fill="white" stroke="black" points="330.5,-6 330.5,-25 482.5,-25 482.5,-6 330.5,-6"/>
<text text-anchor="middle" x="406.5" y="-13" font-family="Helvetica,sans-Serif" font-size="10.00">LowMachEquationSystem.C</text>
</a>
</g>
</g>
<!-- Node2&#45;&gt;Node5 -->
<g id="edge4" class="edge">
<title>Node2&#45;&gt;Node5</title>
<path fill="none" stroke="midnightblue" d="M712.04,-67.08C656.3,-58.09 567.91,-43.75 491.5,-31 480.13,-29.1 467.91,-27.04 456.38,-25.07"/>
<polygon fill="midnightblue" stroke="midnightblue" points="711.63,-70.56 722.06,-68.7 712.75,-63.65 711.63,-70.56"/>
</g>
<!-- Node6 -->
<g id="node6" class="node">
<title>Node6</title>
<g id="a_node6"><a xlink:href="_projected_nodal_gradient_equation_system_8_c.html" target="_top" xlink:title=" ">
<polygon fill="white" stroke="black" points="500.5,-0.5 500.5,-30.5 676.5,-30.5 676.5,-0.5 500.5,-0.5"/>
<text text-anchor="start" x="508.5" y="-18.5" font-family="Helvetica,sans-Serif" font-size="10.00">ProjectedNodalGradientEquation</text>
<text text-anchor="middle" x="588.5" y="-7.5" font-family="Helvetica,sans-Serif" font-size="10.00">System.C</text>
</a>
</g>
</g>
<!-- Node2&#45;&gt;Node6 -->
<g id="edge5" class="edge">
<title>Node2&#45;&gt;Node6</title>
<path fill="none" stroke="midnightblue" d="M732.09,-64.23C702.94,-54.54 661.55,-40.78 630.69,-30.52"/>
<polygon fill="midnightblue" stroke="midnightblue" points="731.26,-67.64 741.85,-67.48 733.47,-61 731.26,-67.64"/>
</g>
<!-- Node2&#45;&gt;Node7 -->
<g id="edge6" class="edge">
<title>Node2&#45;&gt;Node7</title>
<path fill="none" stroke="midnightblue" d="M802.71,-64.23C831.69,-54.54 872.86,-40.78 903.55,-30.52"/>
<polygon fill="midnightblue" stroke="midnightblue" points="801.38,-60.99 793,-67.48 803.6,-67.62 801.38,-60.99"/>
</g>
<!-- Node2&#45;&gt;Node8 -->
<g id="edge7" class="edge">
<title>Node2&#45;&gt;Node8</title>
<path fill="none" stroke="midnightblue" d="M822.88,-66.92C883.55,-56.98 981.39,-40.94 1050.42,-29.63"/>
<polygon fill="midnightblue" stroke="midnightblue" points="822.04,-63.51 812.74,-68.58 823.17,-70.42 822.04,-63.51"/>
</g>
<!-- Node2&#45;&gt;Node9 -->
<g id="edge8" class="edge">
<title>Node2&#45;&gt;Node9</title>
<path fill="none" stroke="midnightblue" d="M822.51,-71.84C907.77,-65.09 1076.85,-50.53 1219.5,-31 1222.54,-30.58 1225.65,-30.14 1228.78,-29.67"/>
<polygon fill="midnightblue" stroke="midnightblue" points="822.23,-68.35 812.54,-72.62 822.78,-75.33 822.23,-68.35"/>
</g>
<!-- Node10 -->
<g id="node10" class="node">
<title>Node10</title>
<g id="a_node10"><a xlink:href="_wall_dist_equation_system_8_c.html" target="_top" xlink:title=" ">
<polygon fill="white" stroke="black" points="694.5,-6 694.5,-25 840.5,-25 840.5,-6 694.5,-6"/>
<text text-anchor="middle" x="767.5" y="-13" font-family="Helvetica,sans-Serif" font-size="10.00">WallDistEquationSystem.C</text>
</a>
</g>
</g>
<!-- Node2&#45;&gt;Node10 -->
<g id="edge9" class="edge">
<title>Node2&#45;&gt;Node10</title>
<path fill="none" stroke="midnightblue" d="M767.5,-57.32C767.5,-46.5 767.5,-33.4 767.5,-25.01"/>
<polygon fill="midnightblue" stroke="midnightblue" points="764,-57.48 767.5,-67.48 771,-57.48 764,-57.48"/>
</g>
</g>
</svg>
