<?xml version="1.0" encoding="UTF-8" standalone="no"?>
<!DOCTYPE svg PUBLIC "-//W3C//DTD SVG 1.1//EN"
 "http://www.w3.org/Graphics/SVG/1.1/DTD/svg11.dtd">
<!-- Generated by graphviz version 2.43.0 (0)
 -->
<!-- Title: AssembleScalarEigenEdgeSolverAlgorithm.h Pages: 1 -->
<!--zoomable 319 -->
<svg id="main" version="1.1" xmlns="http://www.w3.org/2000/svg" xmlns:xlink="http://www.w3.org/1999/xlink" xml:space="preserve" onload="init(evt)">
<style type="text/css"><![CDATA[
.edge:hover path { stroke: red; }
.edge:hover polygon { stroke: red; fill: red; }
]]></style>
<script type="text/javascript"><![CDATA[
var edges = document.getElementsByTagName('g');
if (edges && edges.length) {
  for (var i=0;i<edges.length;i++) {
    if (edges[i].id.substr(0,4)=='edge') {
      edges[i].setAttribute('class','edge');
    }
  }
}
]]></script>
        <defs>
                <circle id="rim" cx="0" cy="0" r="7"/>
                <circle id="rim2" cx="0" cy="0" r="3.5"/>
                <g id="zoomPlus">
                        <use xlink:href="#rim" fill="#404040">
                                <set attributeName="fill" to="#808080" begin="zoomplus.mouseover" end="zoomplus.mouseout"/>
                        </use>
                        <path d="M-4,0h8M0,-4v8" fill="none" stroke="white" stroke-width="1.5" pointer-events="none"/>
                </g>
                <g id="zoomMin">
                        <use xlink:href="#rim" fill="#404040">
                                <set attributeName="fill" to="#808080" begin="zoomminus.mouseover" end="zoomminus.mouseout"/>
                        </use>
                        <path d="M-4,0h8" fill="none" stroke="white" stroke-width="1.5" pointer-events="none"/>
                </g>
                <g id="dirArrow">
                        <path fill="none" stroke="white" stroke-width="1.5" d="M0,-3.0v7 M-2.5,-0.5L0,-3.0L2.5,-0.5"/>
                </g>
               <g id="resetDef">
                       <use xlink:href="#rim2" fill="#404040">
                               <set attributeName="fill" to="#808080" begin="reset.mouseover" end="reset.mouseout"/>
                       </use>
               </g>
        </defs>

<script type="text/javascript">
var viewWidth = 1888;
var viewHeight = 319;
var sectionId = 'dynsection-0';
</script>
<script xlink:href="svgpan.js"/>
<svg id="graph" class="graph">
<g id="viewport">
<title>AssembleScalarEigenEdgeSolverAlgorithm.h</title>
<polygon fill="white" stroke="transparent" points="-4,4 -4,-315 1884,-315 1884,4 -4,4"/>
<!-- Node1 -->
<g id="node1" class="node">
<title>Node1</title>
<g id="a_node1"><a xlink:title=" ">
<polygon fill="#bfbfbf" stroke="black" points="1240.5,-280.5 1240.5,-310.5 1416.5,-310.5 1416.5,-280.5 1240.5,-280.5"/>
<text text-anchor="start" x="1248.5" y="-298.5" font-family="Helvetica,sans-Serif" font-size="10.00">AssembleScalarEigenEdgeSolver</text>
<text text-anchor="middle" x="1328.5" y="-287.5" font-family="Helvetica,sans-Serif" font-size="10.00">Algorithm.h</text>
</a>
</g>
</g>
<!-- Node2 -->
<g id="node2" class="node">
<title>Node2</title>
<g id="a_node2"><a xlink:href="_solver_algorithm_8h.html" target="_top" xlink:title=" ">
<polygon fill="white" stroke="black" points="862.5,-224.5 862.5,-243.5 966.5,-243.5 966.5,-224.5 862.5,-224.5"/>
<text text-anchor="middle" x="914.5" y="-231.5" font-family="Helvetica,sans-Serif" font-size="10.00">SolverAlgorithm.h</text>
</a>
</g>
</g>
<!-- Node1&#45;&gt;Node2 -->
<g id="edge1" class="edge">
<title>Node1&#45;&gt;Node2</title>
<path fill="none" stroke="midnightblue" d="M1240.45,-281.85C1161.25,-270.46 1046.88,-254.03 976.8,-243.95"/>
<polygon fill="midnightblue" stroke="midnightblue" points="977.18,-240.47 966.79,-242.51 976.19,-247.4 977.18,-240.47"/>
</g>
<!-- Node22 -->
<g id="node22" class="node">
<title>Node22</title>
<g id="a_node22"><a xlink:href="_field_type_def_8h.html" target="_top" xlink:title=" ">
<polygon fill="white" stroke="black" points="1284.5,-168.5 1284.5,-187.5 1372.5,-187.5 1372.5,-168.5 1284.5,-168.5"/>
<text text-anchor="middle" x="1328.5" y="-175.5" font-family="Helvetica,sans-Serif" font-size="10.00">FieldTypeDef.h</text>
</a>
</g>
</g>
<!-- Node1&#45;&gt;Node22 -->
<g id="edge28" class="edge">
<title>Node1&#45;&gt;Node22</title>
<path fill="none" stroke="midnightblue" d="M1328.5,-280.34C1328.5,-259.62 1328.5,-221.02 1328.5,-197.9"/>
<polygon fill="midnightblue" stroke="midnightblue" points="1332,-197.67 1328.5,-187.67 1325,-197.67 1332,-197.67"/>
</g>
<!-- Node25 -->
<g id="node25" class="node">
<title>Node25</title>
<g id="a_node25"><a xlink:href="_eigen_decomposition_8h.html" target="_top" xlink:title=" ">
<polygon fill="white" stroke="black" points="1429.5,-224.5 1429.5,-243.5 1555.5,-243.5 1555.5,-224.5 1429.5,-224.5"/>
<text text-anchor="middle" x="1492.5" y="-231.5" font-family="Helvetica,sans-Serif" font-size="10.00">EigenDecomposition.h</text>
</a>
</g>
</g>
<!-- Node1&#45;&gt;Node25 -->
<g id="edge33" class="edge">
<title>Node1&#45;&gt;Node25</title>
<path fill="none" stroke="midnightblue" d="M1367.37,-280.4C1395.25,-270.28 1432.44,-256.79 1459.01,-247.15"/>
<polygon fill="midnightblue" stroke="midnightblue" points="1460.43,-250.36 1468.64,-243.66 1458.04,-243.78 1460.43,-250.36"/>
</g>
<!-- Node3 -->
<g id="node3" class="node">
<title>Node3</title>
<g id="a_node3"><a xlink:href="_algorithm_8h.html" target="_top" xlink:title=" ">
<polygon fill="white" stroke="black" points="942.5,-168.5 942.5,-187.5 1016.5,-187.5 1016.5,-168.5 942.5,-168.5"/>
<text text-anchor="middle" x="979.5" y="-175.5" font-family="Helvetica,sans-Serif" font-size="10.00">Algorithm.h</text>
</a>
</g>
</g>
<!-- Node2&#45;&gt;Node3 -->
<g id="edge2" class="edge">
<title>Node2&#45;&gt;Node3</title>
<path fill="none" stroke="midnightblue" d="M924.94,-224.32C934.65,-216.26 949.32,-204.08 961,-194.37"/>
<polygon fill="midnightblue" stroke="midnightblue" points="963.41,-196.92 968.87,-187.83 958.94,-191.53 963.41,-196.92"/>
</g>
<!-- Node4 -->
<g id="node4" class="node">
<title>Node4</title>
<g id="a_node4"><a xlink:title=" ">
<polygon fill="white" stroke="#bfbfbf" points="969,-112.5 969,-131.5 1016,-131.5 1016,-112.5 969,-112.5"/>
<text text-anchor="middle" x="992.5" y="-119.5" font-family="Helvetica,sans-Serif" font-size="10.00">vector</text>
</a>
</g>
</g>
<!-- Node2&#45;&gt;Node4 -->
<g id="edge27" class="edge">
<title>Node2&#45;&gt;Node4</title>
<path fill="none" stroke="midnightblue" d="M915.31,-224.27C916.89,-211.05 921.39,-185.64 933.5,-168 942.22,-155.31 955.66,-144.66 967.51,-136.91"/>
<polygon fill="midnightblue" stroke="midnightblue" points="969.49,-139.8 976.16,-131.56 965.81,-133.84 969.49,-139.8"/>
</g>
<!-- Node5 -->
<g id="node5" class="node">
<title>Node5</title>
<g id="a_node5"><a xlink:href="_kokkos_interface_8h.html" target="_top" xlink:title=" ">
<polygon fill="white" stroke="black" points="877.5,-56.5 877.5,-75.5 981.5,-75.5 981.5,-56.5 877.5,-56.5"/>
<text text-anchor="middle" x="929.5" y="-63.5" font-family="Helvetica,sans-Serif" font-size="10.00">KokkosInterface.h</text>
</a>
</g>
</g>
<!-- Node2&#45;&gt;Node5 -->
<g id="edge4" class="edge">
<title>Node2&#45;&gt;Node5</title>
<path fill="none" stroke="midnightblue" d="M896.2,-224.48C857.95,-205.5 775.59,-157.78 807.5,-112 816.61,-98.92 852.8,-86.58 883.41,-78.14"/>
<polygon fill="midnightblue" stroke="midnightblue" points="884.36,-81.51 893.11,-75.54 882.55,-74.75 884.36,-81.51"/>
</g>
<!-- Node7 -->
<g id="node7" class="node">
<title>Node7</title>
<g id="a_node7"><a xlink:title=" ">
<polygon fill="white" stroke="#bfbfbf" points="974,-0.5 974,-19.5 1115,-19.5 1115,-0.5 974,-0.5"/>
<text text-anchor="middle" x="1044.5" y="-7.5" font-family="Helvetica,sans-Serif" font-size="10.00">stk_mesh/base/Entity.hpp</text>
</a>
</g>
</g>
<!-- Node2&#45;&gt;Node7 -->
<g id="edge23" class="edge">
<title>Node2&#45;&gt;Node7</title>
<path fill="none" stroke="midnightblue" d="M965.32,-224.46C987.24,-218.11 1011.1,-207.09 1025.5,-188 1061.12,-140.78 1054.1,-65.25 1048.29,-30.12"/>
<polygon fill="midnightblue" stroke="midnightblue" points="1051.66,-29.07 1046.43,-19.86 1044.77,-30.32 1051.66,-29.07"/>
</g>
<!-- Node10 -->
<g id="node10" class="node">
<title>Node10</title>
<g id="a_node10"><a xlink:href="_linear_system_8h.html" target="_top" xlink:title=" ">
<polygon fill="white" stroke="black" points="668.5,-168.5 668.5,-187.5 760.5,-187.5 760.5,-168.5 668.5,-168.5"/>
<text text-anchor="middle" x="714.5" y="-175.5" font-family="Helvetica,sans-Serif" font-size="10.00">LinearSystem.h</text>
</a>
</g>
</g>
<!-- Node2&#45;&gt;Node10 -->
<g id="edge9" class="edge">
<title>Node2&#45;&gt;Node10</title>
<path fill="none" stroke="midnightblue" d="M882.81,-224.44C848.43,-215.16 793.42,-200.31 755.71,-190.13"/>
<polygon fill="midnightblue" stroke="midnightblue" points="756.61,-186.74 746.04,-187.52 754.78,-193.5 756.61,-186.74"/>
</g>
<!-- Node18 -->
<g id="node18" class="node">
<title>Node18</title>
<g id="a_node18"><a xlink:title=" ">
<polygon fill="white" stroke="#bfbfbf" points="816.5,-112.5 816.5,-131.5 950.5,-131.5 950.5,-112.5 816.5,-112.5"/>
<text text-anchor="middle" x="883.5" y="-119.5" font-family="Helvetica,sans-Serif" font-size="10.00">stk_mesh/base/Ngp.hpp</text>
</a>
</g>
</g>
<!-- Node2&#45;&gt;Node18 -->
<g id="edge24" class="edge">
<title>Node2&#45;&gt;Node18</title>
<path fill="none" stroke="midnightblue" d="M911.7,-224.41C908.78,-215.38 904.15,-200.74 900.5,-188 896.08,-172.56 891.5,-154.93 888.21,-141.93"/>
<polygon fill="midnightblue" stroke="midnightblue" points="891.51,-140.71 885.68,-131.87 884.72,-142.42 891.51,-140.71"/>
</g>
<!-- Node19 -->
<g id="node19" class="node">
<title>Node19</title>
<g id="a_node19"><a xlink:title=" ">
<polygon fill="white" stroke="#bfbfbf" points="368.5,-112.5 368.5,-131.5 528.5,-131.5 528.5,-112.5 368.5,-112.5"/>
<text text-anchor="middle" x="448.5" y="-119.5" font-family="Helvetica,sans-Serif" font-size="10.00">stk_mesh/base/NgpMesh.hpp</text>
</a>
</g>
</g>
<!-- Node2&#45;&gt;Node19 -->
<g id="edge25" class="edge">
<title>Node2&#45;&gt;Node19</title>
<path fill="none" stroke="midnightblue" d="M862.34,-225.73C810.52,-218.06 728.98,-204.76 659.5,-188 596.16,-172.72 523.91,-149.07 482.5,-134.91"/>
<polygon fill="midnightblue" stroke="midnightblue" points="483.51,-131.55 472.91,-131.61 481.23,-138.17 483.51,-131.55"/>
</g>
<!-- Node21 -->
<g id="node21" class="node">
<title>Node21</title>
<g id="a_node21"><a xlink:title=" ">
<polygon fill="white" stroke="#bfbfbf" points="1073,-112.5 1073,-131.5 1230,-131.5 1230,-112.5 1073,-112.5"/>
<text text-anchor="middle" x="1151.5" y="-119.5" font-family="Helvetica,sans-Serif" font-size="10.00">stk_mesh/base/NgpField.hpp</text>
</a>
</g>
</g>
<!-- Node2&#45;&gt;Node21 -->
<g id="edge26" class="edge">
<title>Node2&#45;&gt;Node21</title>
<path fill="none" stroke="midnightblue" d="M952.71,-224.47C982.45,-217.04 1024.29,-204.8 1058.5,-188 1086.61,-174.2 1115.68,-152.47 1133.67,-137.98"/>
<polygon fill="midnightblue" stroke="midnightblue" points="1136.04,-140.56 1141.56,-131.52 1131.6,-135.15 1136.04,-140.56"/>
</g>
<!-- Node3&#45;&gt;Node4 -->
<g id="edge3" class="edge">
<title>Node3&#45;&gt;Node4</title>
<path fill="none" stroke="midnightblue" d="M981.65,-168.08C983.37,-160.93 985.85,-150.64 988,-141.69"/>
<polygon fill="midnightblue" stroke="midnightblue" points="991.46,-142.29 990.39,-131.75 984.65,-140.65 991.46,-142.29"/>
</g>
<!-- Node6 -->
<g id="node6" class="node">
<title>Node6</title>
<g id="a_node6"><a xlink:title=" ">
<polygon fill="white" stroke="#bfbfbf" points="903,-0.5 903,-19.5 956,-19.5 956,-0.5 903,-0.5"/>
<text text-anchor="middle" x="929.5" y="-7.5" font-family="Helvetica,sans-Serif" font-size="10.00">cstddef</text>
</a>
</g>
</g>
<!-- Node5&#45;&gt;Node6 -->
<g id="edge5" class="edge">
<title>Node5&#45;&gt;Node6</title>
<path fill="none" stroke="midnightblue" d="M929.5,-56.08C929.5,-49.01 929.5,-38.86 929.5,-29.99"/>
<polygon fill="midnightblue" stroke="midnightblue" points="933,-29.75 929.5,-19.75 926,-29.75 933,-29.75"/>
</g>
<!-- Node5&#45;&gt;Node7 -->
<g id="edge6" class="edge">
<title>Node5&#45;&gt;Node7</title>
<path fill="none" stroke="midnightblue" d="M947.72,-56.44C966.4,-47.68 995.66,-33.94 1017.12,-23.86"/>
<polygon fill="midnightblue" stroke="midnightblue" points="1018.8,-26.93 1026.36,-19.52 1015.82,-20.6 1018.8,-26.93"/>
</g>
<!-- Node8 -->
<g id="node8" class="node">
<title>Node8</title>
<g id="a_node8"><a xlink:title=" ">
<polygon fill="white" stroke="#bfbfbf" points="1363,-0.5 1363,-19.5 1476,-19.5 1476,-0.5 1363,-0.5"/>
<text text-anchor="middle" x="1419.5" y="-7.5" font-family="Helvetica,sans-Serif" font-size="10.00">Kokkos_Macros.hpp</text>
</a>
</g>
</g>
<!-- Node5&#45;&gt;Node8 -->
<g id="edge7" class="edge">
<title>Node5&#45;&gt;Node8</title>
<path fill="none" stroke="midnightblue" d="M981.94,-59.22C1071.6,-49.34 1254.19,-29.22 1352.79,-18.35"/>
<polygon fill="midnightblue" stroke="midnightblue" points="1353.38,-21.81 1362.93,-17.23 1352.61,-14.85 1353.38,-21.81"/>
</g>
<!-- Node9 -->
<g id="node9" class="node">
<title>Node9</title>
<g id="a_node9"><a xlink:title=" ">
<polygon fill="white" stroke="#bfbfbf" points="784.5,-0.5 784.5,-19.5 884.5,-19.5 884.5,-0.5 784.5,-0.5"/>
<text text-anchor="middle" x="834.5" y="-7.5" font-family="Helvetica,sans-Serif" font-size="10.00">Kokkos_Core.hpp</text>
</a>
</g>
</g>
<!-- Node5&#45;&gt;Node9 -->
<g id="edge8" class="edge">
<title>Node5&#45;&gt;Node9</title>
<path fill="none" stroke="midnightblue" d="M914.24,-56.32C899.28,-47.82 876.25,-34.73 858.77,-24.8"/>
<polygon fill="midnightblue" stroke="midnightblue" points="860.15,-21.55 849.73,-19.65 856.69,-27.64 860.15,-21.55"/>
</g>
<!-- Node10&#45;&gt;Node4 -->
<g id="edge21" class="edge">
<title>Node10&#45;&gt;Node4</title>
<path fill="none" stroke="midnightblue" d="M760.8,-169.7C808.11,-161.96 883.91,-148.84 958.7,-132.02"/>
<polygon fill="midnightblue" stroke="midnightblue" points="959.79,-135.36 968.77,-129.73 958.24,-128.53 959.79,-135.36"/>
</g>
<!-- Node10&#45;&gt;Node5 -->
<g id="edge18" class="edge">
<title>Node10&#45;&gt;Node5</title>
<path fill="none" stroke="midnightblue" d="M720.06,-168.45C729.54,-154.53 750.21,-127.03 774.5,-112 802.65,-94.58 837.83,-83.66 867.56,-76.94"/>
<polygon fill="midnightblue" stroke="midnightblue" points="868.37,-80.35 877.41,-74.82 866.9,-73.5 868.37,-80.35"/>
</g>
<!-- Node11 -->
<g id="node11" class="node">
<title>Node11</title>
<g id="a_node11"><a xlink:href="_linear_solver_types_8h.html" target="_top" xlink:title=" ">
<polygon fill="white" stroke="black" points="546.5,-112.5 546.5,-131.5 660.5,-131.5 660.5,-112.5 546.5,-112.5"/>
<text text-anchor="middle" x="603.5" y="-119.5" font-family="Helvetica,sans-Serif" font-size="10.00">LinearSolverTypes.h</text>
</a>
</g>
</g>
<!-- Node10&#45;&gt;Node11 -->
<g id="edge10" class="edge">
<title>Node10&#45;&gt;Node11</title>
<path fill="none" stroke="midnightblue" d="M696.67,-168.32C678.78,-159.62 651.02,-146.12 630.45,-136.11"/>
<polygon fill="midnightblue" stroke="midnightblue" points="631.81,-132.88 621.29,-131.65 628.75,-139.18 631.81,-132.88"/>
</g>
<!-- Node10&#45;&gt;Node18 -->
<g id="edge19" class="edge">
<title>Node10&#45;&gt;Node18</title>
<path fill="none" stroke="midnightblue" d="M741.28,-168.44C769.83,-159.32 815.23,-144.81 847.04,-134.65"/>
<polygon fill="midnightblue" stroke="midnightblue" points="848.39,-137.89 856.85,-131.52 846.26,-131.23 848.39,-137.89"/>
</g>
<!-- Node10&#45;&gt;Node19 -->
<g id="edge20" class="edge">
<title>Node10&#45;&gt;Node19</title>
<path fill="none" stroke="midnightblue" d="M672.35,-168.44C625.75,-158.98 550.66,-143.74 500.45,-133.55"/>
<polygon fill="midnightblue" stroke="midnightblue" points="500.95,-130.08 490.45,-131.52 499.56,-136.94 500.95,-130.08"/>
</g>
<!-- Node20 -->
<g id="node20" class="node">
<title>Node20</title>
<g id="a_node20"><a xlink:title=" ">
<polygon fill="white" stroke="#bfbfbf" points="678.5,-112.5 678.5,-131.5 722.5,-131.5 722.5,-112.5 678.5,-112.5"/>
<text text-anchor="middle" x="700.5" y="-119.5" font-family="Helvetica,sans-Serif" font-size="10.00">string</text>
</a>
</g>
</g>
<!-- Node10&#45;&gt;Node20 -->
<g id="edge22" class="edge">
<title>Node10&#45;&gt;Node20</title>
<path fill="none" stroke="midnightblue" d="M712.19,-168.08C710.33,-160.93 707.66,-150.64 705.35,-141.69"/>
<polygon fill="midnightblue" stroke="midnightblue" points="708.67,-140.55 702.77,-131.75 701.89,-142.31 708.67,-140.55"/>
</g>
<!-- Node11&#45;&gt;Node5 -->
<g id="edge11" class="edge">
<title>Node11&#45;&gt;Node5</title>
<path fill="none" stroke="midnightblue" d="M655.16,-112.44C712.98,-102.87 806.61,-87.36 868.12,-77.17"/>
<polygon fill="midnightblue" stroke="midnightblue" points="868.79,-80.6 878.09,-75.52 867.65,-73.7 868.79,-80.6"/>
</g>
<!-- Node12 -->
<g id="node12" class="node">
<title>Node12</title>
<g id="a_node12"><a xlink:title=" ">
<polygon fill="white" stroke="#bfbfbf" points="281.5,-56.5 281.5,-75.5 459.5,-75.5 459.5,-56.5 281.5,-56.5"/>
<text text-anchor="middle" x="370.5" y="-63.5" font-family="Helvetica,sans-Serif" font-size="10.00">Tpetra_Details_DefaultTypes.hpp</text>
</a>
</g>
</g>
<!-- Node11&#45;&gt;Node12 -->
<g id="edge12" class="edge">
<title>Node11&#45;&gt;Node12</title>
<path fill="none" stroke="midnightblue" d="M566.58,-112.44C526.1,-103.06 461.08,-87.99 417.12,-77.8"/>
<polygon fill="midnightblue" stroke="midnightblue" points="417.78,-74.36 407.25,-75.52 416.2,-81.18 417.78,-74.36"/>
</g>
<!-- Node13 -->
<g id="node13" class="node">
<title>Node13</title>
<g id="a_node13"><a xlink:title=" ">
<polygon fill="white" stroke="#bfbfbf" points="478,-56.5 478,-75.5 597,-75.5 597,-56.5 478,-56.5"/>
<text text-anchor="middle" x="537.5" y="-63.5" font-family="Helvetica,sans-Serif" font-size="10.00">Tpetra_CrsGraph.hpp</text>
</a>
</g>
</g>
<!-- Node11&#45;&gt;Node13 -->
<g id="edge13" class="edge">
<title>Node11&#45;&gt;Node13</title>
<path fill="none" stroke="midnightblue" d="M592.9,-112.32C583.04,-104.26 568.15,-92.08 556.28,-82.37"/>
<polygon fill="midnightblue" stroke="midnightblue" points="558.25,-79.46 548.3,-75.83 553.82,-84.88 558.25,-79.46"/>
</g>
<!-- Node14 -->
<g id="node14" class="node">
<title>Node14</title>
<g id="a_node14"><a xlink:title=" ">
<polygon fill="white" stroke="#bfbfbf" points="615.5,-56.5 615.5,-75.5 737.5,-75.5 737.5,-56.5 615.5,-56.5"/>
<text text-anchor="middle" x="676.5" y="-63.5" font-family="Helvetica,sans-Serif" font-size="10.00">Tpetra_CrsMatrix.hpp</text>
</a>
</g>
</g>
<!-- Node11&#45;&gt;Node14 -->
<g id="edge14" class="edge">
<title>Node11&#45;&gt;Node14</title>
<path fill="none" stroke="midnightblue" d="M615.23,-112.32C626.34,-104.11 643.24,-91.6 656.48,-81.81"/>
<polygon fill="midnightblue" stroke="midnightblue" points="658.6,-84.59 664.56,-75.83 654.44,-78.97 658.6,-84.59"/>
</g>
<!-- Node15 -->
<g id="node15" class="node">
<title>Node15</title>
<g id="a_node15"><a xlink:title=" ">
<polygon fill="white" stroke="#bfbfbf" points="755.5,-56.5 755.5,-75.5 859.5,-75.5 859.5,-56.5 755.5,-56.5"/>
<text text-anchor="middle" x="807.5" y="-63.5" font-family="Helvetica,sans-Serif" font-size="10.00">Tpetra_Vector.hpp</text>
</a>
</g>
</g>
<!-- Node11&#45;&gt;Node15 -->
<g id="edge15" class="edge">
<title>Node11&#45;&gt;Node15</title>
<path fill="none" stroke="midnightblue" d="M635.82,-112.44C670.89,-103.16 727,-88.31 765.46,-78.13"/>
<polygon fill="midnightblue" stroke="midnightblue" points="766.56,-81.46 775.33,-75.52 764.76,-74.69 766.56,-81.46"/>
</g>
<!-- Node16 -->
<g id="node16" class="node">
<title>Node16</title>
<g id="a_node16"><a xlink:title=" ">
<polygon fill="white" stroke="#bfbfbf" points="0,-56.5 0,-75.5 129,-75.5 129,-56.5 0,-56.5"/>
<text text-anchor="middle" x="64.5" y="-63.5" font-family="Helvetica,sans-Serif" font-size="10.00">Tpetra_MultiVector.hpp</text>
</a>
</g>
</g>
<!-- Node11&#45;&gt;Node16 -->
<g id="edge16" class="edge">
<title>Node11&#45;&gt;Node16</title>
<path fill="none" stroke="midnightblue" d="M546.28,-113.04C543.31,-112.67 540.37,-112.33 537.5,-112 363.77,-92.33 317.23,-94.66 139.03,-76.02"/>
<polygon fill="midnightblue" stroke="midnightblue" points="139.37,-72.54 129.06,-74.97 138.64,-79.5 139.37,-72.54"/>
</g>
<!-- Node17 -->
<g id="node17" class="node">
<title>Node17</title>
<g id="a_node17"><a xlink:title=" ">
<polygon fill="white" stroke="#bfbfbf" points="147.5,-56.5 147.5,-75.5 263.5,-75.5 263.5,-56.5 147.5,-56.5"/>
<text text-anchor="middle" x="205.5" y="-63.5" font-family="Helvetica,sans-Serif" font-size="10.00">Tpetra_Operator.hpp</text>
</a>
</g>
</g>
<!-- Node11&#45;&gt;Node17 -->
<g id="edge17" class="edge">
<title>Node11&#45;&gt;Node17</title>
<path fill="none" stroke="midnightblue" d="M546.26,-113.19C543.3,-112.79 540.36,-112.39 537.5,-112 446.22,-99.59 340.82,-85.31 273.7,-76.23"/>
<polygon fill="midnightblue" stroke="midnightblue" points="274.06,-72.74 263.68,-74.87 273.12,-79.68 274.06,-72.74"/>
</g>
<!-- Node22&#45;&gt;Node18 -->
<g id="edge30" class="edge">
<title>Node22&#45;&gt;Node18</title>
<path fill="none" stroke="midnightblue" d="M1284.2,-171.62C1208.69,-162.46 1054.16,-143.71 960.61,-132.36"/>
<polygon fill="midnightblue" stroke="midnightblue" points="960.98,-128.88 950.63,-131.15 960.14,-135.83 960.98,-128.88"/>
</g>
<!-- Node22&#45;&gt;Node21 -->
<g id="edge31" class="edge">
<title>Node22&#45;&gt;Node21</title>
<path fill="none" stroke="midnightblue" d="M1300.45,-168.44C1270.42,-159.28 1222.59,-144.69 1189.26,-134.52"/>
<polygon fill="midnightblue" stroke="midnightblue" points="1190,-131.09 1179.41,-131.52 1187.96,-137.78 1190,-131.09"/>
</g>
<!-- Node23 -->
<g id="node23" class="node">
<title>Node23</title>
<g id="a_node23"><a xlink:title=" ">
<polygon fill="white" stroke="#bfbfbf" points="1248,-112.5 1248,-131.5 1409,-131.5 1409,-112.5 1248,-112.5"/>
<text text-anchor="middle" x="1328.5" y="-119.5" font-family="Helvetica,sans-Serif" font-size="10.00">stk_mesh/base/FieldBase.hpp</text>
</a>
</g>
</g>
<!-- Node22&#45;&gt;Node23 -->
<g id="edge29" class="edge">
<title>Node22&#45;&gt;Node23</title>
<path fill="none" stroke="midnightblue" d="M1328.5,-168.08C1328.5,-161.01 1328.5,-150.86 1328.5,-141.99"/>
<polygon fill="midnightblue" stroke="midnightblue" points="1332,-141.75 1328.5,-131.75 1325,-141.75 1332,-141.75"/>
</g>
<!-- Node24 -->
<g id="node24" class="node">
<title>Node24</title>
<g id="a_node24"><a xlink:title=" ">
<polygon fill="white" stroke="#bfbfbf" points="1427,-112.5 1427,-131.5 1492,-131.5 1492,-112.5 1427,-112.5"/>
<text text-anchor="middle" x="1459.5" y="-119.5" font-family="Helvetica,sans-Serif" font-size="10.00">functional</text>
</a>
</g>
</g>
<!-- Node22&#45;&gt;Node24 -->
<g id="edge32" class="edge">
<title>Node22&#45;&gt;Node24</title>
<path fill="none" stroke="midnightblue" d="M1349.26,-168.44C1370.82,-159.56 1404.76,-145.56 1429.29,-135.45"/>
<polygon fill="midnightblue" stroke="midnightblue" points="1430.93,-138.56 1438.84,-131.52 1428.26,-132.09 1430.93,-138.56"/>
</g>
<!-- Node25&#45;&gt;Node22 -->
<g id="edge34" class="edge">
<title>Node25&#45;&gt;Node22</title>
<path fill="none" stroke="midnightblue" d="M1466.51,-224.44C1438.8,-215.32 1394.75,-200.81 1363.88,-190.65"/>
<polygon fill="midnightblue" stroke="midnightblue" points="1364.96,-187.32 1354.36,-187.52 1362.77,-193.97 1364.96,-187.32"/>
</g>
<!-- Node26 -->
<g id="node26" class="node">
<title>Node26</title>
<g id="a_node26"><a xlink:href="_simd_interface_8h.html" target="_top" xlink:title="STK SIMD Interface.">
<polygon fill="white" stroke="black" points="1482.5,-168.5 1482.5,-187.5 1576.5,-187.5 1576.5,-168.5 1482.5,-168.5"/>
<text text-anchor="middle" x="1529.5" y="-175.5" font-family="Helvetica,sans-Serif" font-size="10.00">SimdInterface.h</text>
</a>
</g>
</g>
<!-- Node25&#45;&gt;Node26 -->
<g id="edge35" class="edge">
<title>Node25&#45;&gt;Node26</title>
<path fill="none" stroke="midnightblue" d="M1498.61,-224.08C1503.78,-216.53 1511.35,-205.49 1517.69,-196.23"/>
<polygon fill="midnightblue" stroke="midnightblue" points="1520.74,-197.98 1523.5,-187.75 1514.96,-194.02 1520.74,-197.98"/>
</g>
<!-- Node28 -->
<g id="node28" class="node">
<title>Node28</title>
<g id="a_node28"><a xlink:href="_nalu_env_8h.html" target="_top" xlink:title=" ">
<polygon fill="white" stroke="black" points="1715,-168.5 1715,-187.5 1780,-187.5 1780,-168.5 1715,-168.5"/>
<text text-anchor="middle" x="1747.5" y="-175.5" font-family="Helvetica,sans-Serif" font-size="10.00">NaluEnv.h</text>
</a>
</g>
</g>
<!-- Node25&#45;&gt;Node28 -->
<g id="edge39" class="edge">
<title>Node25&#45;&gt;Node28</title>
<path fill="none" stroke="midnightblue" d="M1532.91,-224.44C1579.88,-214.5 1657.05,-198.15 1704.93,-188.02"/>
<polygon fill="midnightblue" stroke="midnightblue" points="1705.91,-191.38 1714.97,-185.89 1704.46,-184.54 1705.91,-191.38"/>
</g>
<!-- Node26&#45;&gt;Node4 -->
<g id="edge38" class="edge">
<title>Node26&#45;&gt;Node4</title>
<path fill="none" stroke="midnightblue" d="M1482.26,-172.87C1398.18,-165.41 1217.06,-148.91 1064.5,-132 1052.01,-130.62 1038.32,-128.94 1026.26,-127.42"/>
<polygon fill="midnightblue" stroke="midnightblue" points="1026.52,-123.92 1016.15,-126.13 1025.63,-130.87 1026.52,-123.92"/>
</g>
<!-- Node26&#45;&gt;Node8 -->
<g id="edge37" class="edge">
<title>Node26&#45;&gt;Node8</title>
<path fill="none" stroke="midnightblue" d="M1567.92,-168.45C1603.12,-158.66 1647.24,-140.22 1629.5,-112 1596.97,-60.25 1529.69,-34.41 1480,-21.91"/>
<polygon fill="midnightblue" stroke="midnightblue" points="1480.54,-18.44 1470,-19.52 1478.91,-25.25 1480.54,-18.44"/>
</g>
<!-- Node27 -->
<g id="node27" class="node">
<title>Node27</title>
<g id="a_node27"><a xlink:title=" ">
<polygon fill="white" stroke="#bfbfbf" points="1510.5,-112.5 1510.5,-131.5 1620.5,-131.5 1620.5,-112.5 1510.5,-112.5"/>
<text text-anchor="middle" x="1565.5" y="-119.5" font-family="Helvetica,sans-Serif" font-size="10.00">stk_simd/Simd.hpp</text>
</a>
</g>
</g>
<!-- Node26&#45;&gt;Node27 -->
<g id="edge36" class="edge">
<title>Node26&#45;&gt;Node27</title>
<path fill="none" stroke="midnightblue" d="M1535.44,-168.08C1540.48,-160.53 1547.84,-149.49 1554.01,-140.23"/>
<polygon fill="midnightblue" stroke="midnightblue" points="1557.03,-142.01 1559.67,-131.75 1551.21,-138.13 1557.03,-142.01"/>
</g>
<!-- Node29 -->
<g id="node29" class="node">
<title>Node29</title>
<g id="a_node29"><a xlink:title=" ">
<polygon fill="white" stroke="#bfbfbf" points="1762.5,-112.5 1762.5,-131.5 1806.5,-131.5 1806.5,-112.5 1762.5,-112.5"/>
<text text-anchor="middle" x="1784.5" y="-119.5" font-family="Helvetica,sans-Serif" font-size="10.00">mpi.h</text>
</a>
</g>
</g>
<!-- Node28&#45;&gt;Node29 -->
<g id="edge40" class="edge">
<title>Node28&#45;&gt;Node29</title>
<path fill="none" stroke="midnightblue" d="M1753.61,-168.08C1758.78,-160.53 1766.35,-149.49 1772.69,-140.23"/>
<polygon fill="midnightblue" stroke="midnightblue" points="1775.74,-141.98 1778.5,-131.75 1769.96,-138.02 1775.74,-141.98"/>
</g>
<!-- Node30 -->
<g id="node30" class="node">
<title>Node30</title>
<g id="a_node30"><a xlink:title=" ">
<polygon fill="white" stroke="#bfbfbf" points="1825,-112.5 1825,-131.5 1880,-131.5 1880,-112.5 1825,-112.5"/>
<text text-anchor="middle" x="1852.5" y="-119.5" font-family="Helvetica,sans-Serif" font-size="10.00">fstream</text>
</a>
</g>
</g>
<!-- Node28&#45;&gt;Node30 -->
<g id="edge41" class="edge">
<title>Node28&#45;&gt;Node30</title>
<path fill="none" stroke="midnightblue" d="M1764.37,-168.32C1781.21,-159.66 1807.31,-146.24 1826.74,-136.25"/>
<polygon fill="midnightblue" stroke="midnightblue" points="1828.38,-139.34 1835.67,-131.65 1825.18,-133.12 1828.38,-139.34"/>
</g>
<!-- Node31 -->
<g id="node31" class="node">
<title>Node31</title>
<g id="a_node31"><a xlink:title=" ">
<polygon fill="white" stroke="#bfbfbf" points="1677,-112.5 1677,-131.5 1744,-131.5 1744,-112.5 1677,-112.5"/>
<text text-anchor="middle" x="1710.5" y="-119.5" font-family="Helvetica,sans-Serif" font-size="10.00">streambuf</text>
</a>
</g>
</g>
<!-- Node28&#45;&gt;Node31 -->
<g id="edge42" class="edge">
<title>Node28&#45;&gt;Node31</title>
<path fill="none" stroke="midnightblue" d="M1741.39,-168.08C1736.22,-160.53 1728.65,-149.49 1722.31,-140.23"/>
<polygon fill="midnightblue" stroke="midnightblue" points="1725.04,-138.02 1716.5,-131.75 1719.26,-141.98 1725.04,-138.02"/>
</g>
</g>
</svg>
        <g id="navigator" transform="translate(0 0)" fill="#404254">
                <rect fill="#f2f5e9" fill-opacity="0.5" stroke="#606060" stroke-width=".5" x="0" y="0" width="60" height="60"/>
                <use id="zoomplus" xlink:href="#zoomPlus" x="17" y="9" onmousedown="handleZoom(evt,'in')"/>
                <use id="zoomminus" xlink:href="#zoomMin" x="42" y="9" onmousedown="handleZoom(evt,'out')"/>
                <use id="reset" xlink:href="#resetDef" x="30" y="36" onmousedown="handleReset()"/>
                <g id="arrowUp" xlink:href="#dirArrow" transform="translate(30 24)" onmousedown="handlePan(0,-1)">
                  <use xlink:href="#rim" fill="#404040">
                        <set attributeName="fill" to="#808080" begin="arrowUp.mouseover" end="arrowUp.mouseout"/>
                  </use>
                  <path fill="none" stroke="white" stroke-width="1.5" d="M0,-3.0v7 M-2.5,-0.5L0,-3.0L2.5,-0.5"/>
                </g>
                <g id="arrowRight" xlink:href="#dirArrow" transform="rotate(90) translate(36 -43)" onmousedown="handlePan(1,0)">
                  <use xlink:href="#rim" fill="#404040">
                        <set attributeName="fill" to="#808080" begin="arrowRight.mouseover" end="arrowRight.mouseout"/>
                  </use>
                  <path fill="none" stroke="white" stroke-width="1.5" d="M0,-3.0v7 M-2.5,-0.5L0,-3.0L2.5,-0.5"/>
                </g>
                <g id="arrowDown" xlink:href="#dirArrow" transform="rotate(180) translate(-30 -48)" onmousedown="handlePan(0,1)">
                  <use xlink:href="#rim" fill="#404040">
                        <set attributeName="fill" to="#808080" begin="arrowDown.mouseover" end="arrowDown.mouseout"/>
                  </use>
                  <path fill="none" stroke="white" stroke-width="1.5" d="M0,-3.0v7 M-2.5,-0.5L0,-3.0L2.5,-0.5"/>
                </g>
                <g id="arrowLeft" xlink:href="#dirArrow" transform="rotate(270) translate(-36 17)" onmousedown="handlePan(-1,0)">
                  <use xlink:href="#rim" fill="#404040">
                        <set attributeName="fill" to="#808080" begin="arrowLeft.mouseover" end="arrowLeft.mouseout"/>
                  </use>
                  <path fill="none" stroke="white" stroke-width="1.5" d="M0,-3.0v7 M-2.5,-0.5L0,-3.0L2.5,-0.5"/>
                </g>
        </g>
        <svg viewBox="0 0 15 15" width="100%" height="30px" preserveAspectRatio="xMaxYMin meet">
         <g id="arrow_out" transform="scale(0.3 0.3)">
          <a xlink:href="_assemble_scalar_eigen_edge_solver_algorithm_8h__incl_org.svg" target="_base">
           <rect id="button" ry="5" rx="5" y="6" x="6" height="38" width="38"
                fill="#f2f5e9" fill-opacity="0.5" stroke="#606060" stroke-width="1.0"/>
           <path id="arrow"
             d="M 11.500037,31.436501 C 11.940474,20.09759 22.043105,11.32322 32.158766,21.979434 L 37.068811,17.246167 C 37.068811,17.246167 37.088388,32 37.088388,32 L 22.160133,31.978069 C 22.160133,31.978069 26.997745,27.140456 26.997745,27.140456 C 18.528582,18.264221 13.291696,25.230495 11.500037,31.436501 z"
             style="fill:#404040;"/>
          </a>
         </g>
        </svg>
</svg>
