<?xml version="1.0" encoding="UTF-8" standalone="no"?>
<!DOCTYPE svg PUBLIC "-//W3C//DTD SVG 1.1//EN"
 "http://www.w3.org/Graphics/SVG/1.1/DTD/svg11.dtd">
<!-- Generated by graphviz version 2.43.0 (0)
 -->
<!-- Title: AssembleFaceElemSolverAlgorithm.h Pages: 1 -->
<svg width="1385pt" height="151pt"
 viewBox="0.00 0.00 1384.50 151.00" xmlns="http://www.w3.org/2000/svg" xmlns:xlink="http://www.w3.org/1999/xlink">
<g id="graph0" class="graph" transform="scale(1 1) rotate(0) translate(4 147)">
<title>AssembleFaceElemSolverAlgorithm.h</title>
<polygon fill="white" stroke="transparent" points="-4,4 -4,-147 1380.5,-147 1380.5,4 -4,4"/>
<!-- Node1 -->
<g id="node1" class="node">
<title>Node1</title>
<g id="a_node1"><a xlink:title=" ">
<polygon fill="#bfbfbf" stroke="black" points="666,-123.5 666,-142.5 865,-142.5 865,-123.5 666,-123.5"/>
<text text-anchor="middle" x="765.5" y="-130.5" font-family="Helvetica,sans-Serif" font-size="10.00">AssembleFaceElemSolverAlgorithm.h</text>
</a>
</g>
</g>
<!-- Node2 -->
<g id="node2" class="node">
<title>Node2</title>
<g id="a_node2"><a xlink:href="_kernel_builder_8h.html" target="_top" xlink:title=" ">
<polygon fill="white" stroke="black" points="639.5,-67.5 639.5,-86.5 729.5,-86.5 729.5,-67.5 639.5,-67.5"/>
<text text-anchor="middle" x="684.5" y="-74.5" font-family="Helvetica,sans-Serif" font-size="10.00">KernelBuilder.h</text>
</a>
</g>
</g>
<!-- Node1&#45;&gt;Node2 -->
<g id="edge1" class="edge">
<title>Node1&#45;&gt;Node2</title>
<path fill="none" stroke="midnightblue" d="M743.93,-117.62C729.14,-107.76 709.99,-94.99 697.48,-86.65"/>
<polygon fill="midnightblue" stroke="midnightblue" points="742.22,-120.69 752.49,-123.32 746.11,-114.86 742.22,-120.69"/>
</g>
<!-- Node11 -->
<g id="node11" class="node">
<title>Node11</title>
<g id="a_node11"><a xlink:href="_assemble_face_elem_solver_algorithm_8_c.html" target="_top" xlink:title=" ">
<polygon fill="white" stroke="black" points="747.5,-67.5 747.5,-86.5 947.5,-86.5 947.5,-67.5 747.5,-67.5"/>
<text text-anchor="middle" x="847.5" y="-74.5" font-family="Helvetica,sans-Serif" font-size="10.00">AssembleFaceElemSolverAlgorithm.C</text>
</a>
</g>
</g>
<!-- Node1&#45;&gt;Node11 -->
<g id="edge10" class="edge">
<title>Node1&#45;&gt;Node11</title>
<path fill="none" stroke="midnightblue" d="M787.33,-117.62C802.31,-107.76 821.7,-94.99 834.36,-86.65"/>
<polygon fill="midnightblue" stroke="midnightblue" points="785.1,-114.9 778.67,-123.32 788.95,-120.75 785.1,-114.9"/>
</g>
<!-- Node3 -->
<g id="node3" class="node">
<title>Node3</title>
<g id="a_node3"><a xlink:href="_enthalpy_equation_system_8_c.html" target="_top" xlink:title=" ">
<polygon fill="white" stroke="black" points="0,-6 0,-25 149,-25 149,-6 0,-6"/>
<text text-anchor="middle" x="74.5" y="-13" font-family="Helvetica,sans-Serif" font-size="10.00">EnthalpyEquationSystem.C</text>
</a>
</g>
</g>
<!-- Node2&#45;&gt;Node3 -->
<g id="edge2" class="edge">
<title>Node2&#45;&gt;Node3</title>
<path fill="none" stroke="midnightblue" d="M629.16,-72.88C532.98,-67.09 328.83,-53.24 157.5,-31 145.02,-29.38 131.56,-27.21 119.19,-25.05"/>
<polygon fill="midnightblue" stroke="midnightblue" points="629.05,-76.38 639.24,-73.48 629.47,-69.39 629.05,-76.38"/>
</g>
<!-- Node4 -->
<g id="node4" class="node">
<title>Node4</title>
<g id="a_node4"><a xlink:href="_gamma_equation_system_8_c.html" target="_top" xlink:title=" ">
<polygon fill="white" stroke="black" points="167,-6 167,-25 312,-25 312,-6 167,-6"/>
<text text-anchor="middle" x="239.5" y="-13" font-family="Helvetica,sans-Serif" font-size="10.00">GammaEquationSystem.C</text>
</a>
</g>
</g>
<!-- Node2&#45;&gt;Node4 -->
<g id="edge3" class="edge">
<title>Node2&#45;&gt;Node4</title>
<path fill="none" stroke="midnightblue" d="M629.31,-70.06C558.06,-62.18 430.29,-47.35 321.5,-31 309.78,-29.24 297.15,-27.12 285.4,-25.05"/>
<polygon fill="midnightblue" stroke="midnightblue" points="629.09,-73.55 639.41,-71.17 629.85,-66.59 629.09,-73.55"/>
</g>
<!-- Node5 -->
<g id="node5" class="node">
<title>Node5</title>
<g id="a_node5"><a xlink:href="_low_mach_equation_system_8_c.html" target="_top" xlink:title=" ">
<polygon fill="white" stroke="black" points="330.5,-6 330.5,-25 482.5,-25 482.5,-6 330.5,-6"/>
<text text-anchor="middle" x="406.5" y="-13" font-family="Helvetica,sans-Serif" font-size="10.00">LowMachEquationSystem.C</text>
</a>
</g>
</g>
<!-- Node2&#45;&gt;Node5 -->
<g id="edge4" class="edge">
<title>Node2&#45;&gt;Node5</title>
<path fill="none" stroke="midnightblue" d="M634.65,-65.33C580.74,-53.79 495.87,-35.63 446.26,-25.01"/>
<polygon fill="midnightblue" stroke="midnightblue" points="634.16,-68.8 644.67,-67.48 635.62,-61.96 634.16,-68.8"/>
</g>
<!-- Node6 -->
<g id="node6" class="node">
<title>Node6</title>
<g id="a_node6"><a xlink:href="_projected_nodal_gradient_equation_system_8_c.html" target="_top" xlink:title=" ">
<polygon fill="white" stroke="black" points="500.5,-0.5 500.5,-30.5 676.5,-30.5 676.5,-0.5 500.5,-0.5"/>
<text text-anchor="start" x="508.5" y="-18.5" font-family="Helvetica,sans-Serif" font-size="10.00">ProjectedNodalGradientEquation</text>
<text text-anchor="middle" x="588.5" y="-7.5" font-family="Helvetica,sans-Serif" font-size="10.00">System.C</text>
</a>
</g>
</g>
<!-- Node2&#45;&gt;Node6 -->
<g id="edge5" class="edge">
<title>Node2&#45;&gt;Node6</title>
<path fill="none" stroke="midnightblue" d="M661.93,-62.01C646.61,-52.52 626.45,-40.02 611.13,-30.52"/>
<polygon fill="midnightblue" stroke="midnightblue" points="660.4,-65.18 670.75,-67.48 664.09,-59.23 660.4,-65.18"/>
</g>
<!-- Node7 -->
<g id="node7" class="node">
<title>Node7</title>
<g id="a_node7"><a xlink:href="_specific_dissipation_rate_equation_system_8_c.html" target="_top" xlink:title=" ">
<polygon fill="white" stroke="black" points="694.5,-0.5 694.5,-30.5 868.5,-30.5 868.5,-0.5 694.5,-0.5"/>
<text text-anchor="start" x="702.5" y="-18.5" font-family="Helvetica,sans-Serif" font-size="10.00">SpecificDissipationRateEquation</text>
<text text-anchor="middle" x="781.5" y="-7.5" font-family="Helvetica,sans-Serif" font-size="10.00">System.C</text>
</a>
</g>
</g>
<!-- Node2&#45;&gt;Node7 -->
<g id="edge6" class="edge">
<title>Node2&#45;&gt;Node7</title>
<path fill="none" stroke="midnightblue" d="M707.31,-62.01C722.78,-52.52 743.16,-40.02 758.64,-30.52"/>
<polygon fill="midnightblue" stroke="midnightblue" points="705.09,-59.26 698.4,-67.48 708.75,-65.23 705.09,-59.26"/>
</g>
<!-- Node8 -->
<g id="node8" class="node">
<title>Node8</title>
<g id="a_node8"><a xlink:href="_total_dissipation_rate_equation_system_8_c.html" target="_top" xlink:title=" ">
<polygon fill="white" stroke="black" points="886.5,-0.5 886.5,-30.5 1046.5,-30.5 1046.5,-0.5 886.5,-0.5"/>
<text text-anchor="start" x="894.5" y="-18.5" font-family="Helvetica,sans-Serif" font-size="10.00">TotalDissipationRateEquation</text>
<text text-anchor="middle" x="966.5" y="-7.5" font-family="Helvetica,sans-Serif" font-size="10.00">System.C</text>
</a>
</g>
</g>
<!-- Node2&#45;&gt;Node8 -->
<g id="edge7" class="edge">
<title>Node2&#45;&gt;Node8</title>
<path fill="none" stroke="midnightblue" d="M734.96,-65.35C781.05,-55.63 849.51,-41.18 900.04,-30.52"/>
<polygon fill="midnightblue" stroke="midnightblue" points="733.97,-61.99 724.9,-67.48 735.41,-68.84 733.97,-61.99"/>
</g>
<!-- Node9 -->
<g id="node9" class="node">
<title>Node9</title>
<g id="a_node9"><a xlink:href="_turb_kinetic_energy_equation_system_8_c.html" target="_top" xlink:title=" ">
<polygon fill="white" stroke="black" points="1065,-0.5 1065,-30.5 1212,-30.5 1212,-0.5 1065,-0.5"/>
<text text-anchor="start" x="1073" y="-18.5" font-family="Helvetica,sans-Serif" font-size="10.00">TurbKineticEnergyEquation</text>
<text text-anchor="middle" x="1138.5" y="-7.5" font-family="Helvetica,sans-Serif" font-size="10.00">System.C</text>
</a>
</g>
</g>
<!-- Node2&#45;&gt;Node9 -->
<g id="edge8" class="edge">
<title>Node2&#45;&gt;Node9</title>
<path fill="none" stroke="midnightblue" d="M739.87,-66.88C880.68,-47.51 918.44,-50.74 1055.5,-31 1058.54,-30.56 1061.64,-30.1 1064.77,-29.62"/>
<polygon fill="midnightblue" stroke="midnightblue" points="738.98,-63.47 729.55,-68.31 739.94,-70.4 738.98,-63.47"/>
</g>
<!-- Node10 -->
<g id="node10" class="node">
<title>Node10</title>
<g id="a_node10"><a xlink:href="_wall_dist_equation_system_8_c.html" target="_top" xlink:title=" ">
<polygon fill="white" stroke="black" points="1230.5,-6 1230.5,-25 1376.5,-25 1376.5,-6 1230.5,-6"/>
<text text-anchor="middle" x="1303.5" y="-13" font-family="Helvetica,sans-Serif" font-size="10.00">WallDistEquationSystem.C</text>
</a>
</g>
</g>
<!-- Node2&#45;&gt;Node10 -->
<g id="edge9" class="edge">
<title>Node2&#45;&gt;Node10</title>
<path fill="none" stroke="midnightblue" d="M739.54,-66.99C953.94,-41.77 1011.14,-57.37 1221.5,-31 1233.98,-29.44 1247.45,-27.26 1259.79,-25.07"/>
<polygon fill="midnightblue" stroke="midnightblue" points="739.05,-63.52 729.54,-68.18 739.88,-70.47 739.05,-63.52"/>
</g>
</g>
</svg>
