<?xml version="1.0" encoding="UTF-8" standalone="no"?>
<!DOCTYPE svg PUBLIC "-//W3C//DTD SVG 1.1//EN"
 "http://www.w3.org/Graphics/SVG/1.1/DTD/svg11.dtd">
<!-- Generated by graphviz version 2.43.0 (0)
 -->
<!-- Title: AssembleWallDistNonConformalAlgorithm.h Pages: 1 -->
<svg width="1153pt" height="313pt"
 viewBox="0.00 0.00 1153.00 313.00" xmlns="http://www.w3.org/2000/svg" xmlns:xlink="http://www.w3.org/1999/xlink">
<g id="graph0" class="graph" transform="scale(1 1) rotate(0) translate(4 309)">
<title>AssembleWallDistNonConformalAlgorithm.h</title>
<!-- Node1 -->
<g id="Node000001" class="node">
<title>Node1</title>
<g id="a_Node000001"><a xlink:title=" ">
<polygon fill="#999999" stroke="#666666" points="613.5,-305 437.5,-305 437.5,-275 613.5,-275 613.5,-305"/>
<text text-anchor="start" x="445.5" y="-293" font-family="Helvetica,sans-Serif" font-size="10.00">AssembleWallDistNonConformal</text>
<text text-anchor="middle" x="525.5" y="-282" font-family="Helvetica,sans-Serif" font-size="10.00">Algorithm.h</text>
</a>
</g>
</g>
<!-- Node2 -->
<g id="Node000002" class="node">
<title>Node2</title>
<g id="a_Node000002"><a xlink:href="_solver_algorithm_8h.html" target="_top" xlink:title=" ">
<polygon fill="white" stroke="#666666" points="396.5,-239 292.5,-239 292.5,-220 396.5,-220 396.5,-239"/>
<text text-anchor="middle" x="344.5" y="-227" font-family="Helvetica,sans-Serif" font-size="10.00">SolverAlgorithm.h</text>
</a>
</g>
</g>
<!-- Node1&#45;&gt;Node2 -->
<g id="edge1_Node000001_Node000002" class="edge">
<title>Node1&#45;&gt;Node2</title>
<g id="a_edge1_Node000001_Node000002"><a xlink:title=" ">
<path fill="none" stroke="#63b8ff" d="M482.15,-274.99C451.18,-264.98 410,-251.67 380.77,-242.22"/>
<polygon fill="#63b8ff" stroke="#63b8ff" points="381.56,-238.8 370.97,-239.05 379.4,-245.46 381.56,-238.8"/>
</a>
</g>
</g>
<!-- Node22 -->
<g id="Node000022" class="node">
<title>Node22</title>
<g id="a_Node000022"><a xlink:href="_field_type_def_8h.html" target="_top" xlink:title=" ">
<polygon fill="white" stroke="#666666" points="763.5,-239 675.5,-239 675.5,-220 763.5,-220 763.5,-239"/>
<text text-anchor="middle" x="719.5" y="-227" font-family="Helvetica,sans-Serif" font-size="10.00">FieldTypeDef.h</text>
</a>
</g>
</g>
<!-- Node1&#45;&gt;Node22 -->
<g id="edge28_Node000001_Node000022" class="edge">
<title>Node1&#45;&gt;Node22</title>
<g id="a_edge28_Node000001_Node000022"><a xlink:title=" ">
<path fill="none" stroke="#63b8ff" d="M571.97,-274.99C605.45,-264.89 650.07,-251.44 681.44,-241.98"/>
<polygon fill="#63b8ff" stroke="#63b8ff" points="682.57,-245.29 691.13,-239.05 680.55,-238.59 682.57,-245.29"/>
</a>
</g>
</g>
<!-- Node3 -->
<g id="Node000003" class="node">
<title>Node3</title>
<g id="a_Node000003"><a xlink:href="_algorithm_8h.html" target="_top" xlink:title=" ">
<polygon fill="white" stroke="#666666" points="316.5,-184 242.5,-184 242.5,-165 316.5,-165 316.5,-184"/>
<text text-anchor="middle" x="279.5" y="-172" font-family="Helvetica,sans-Serif" font-size="10.00">Algorithm.h</text>
</a>
</g>
</g>
<!-- Node2&#45;&gt;Node3 -->
<g id="edge2_Node000002_Node000003" class="edge">
<title>Node2&#45;&gt;Node3</title>
<g id="a_edge2_Node000002_Node000003"><a xlink:title=" ">
<path fill="none" stroke="#63b8ff" d="M334.06,-219.98C324.35,-212.07 309.68,-200.11 298,-190.58"/>
<polygon fill="#63b8ff" stroke="#63b8ff" points="300.1,-187.78 290.13,-184.17 295.67,-193.2 300.1,-187.78"/>
</a>
</g>
</g>
<!-- Node4 -->
<g id="Node000004" class="node">
<title>Node4</title>
<g id="a_Node000004"><a xlink:title=" ">
<polygon fill="#e0e0e0" stroke="#999999" points="238,-129 191,-129 191,-110 238,-110 238,-129"/>
<text text-anchor="middle" x="214.5" y="-117" font-family="Helvetica,sans-Serif" font-size="10.00">vector</text>
</a>
</g>
</g>
<!-- Node2&#45;&gt;Node4 -->
<g id="edge27_Node000002_Node000004" class="edge">
<title>Node2&#45;&gt;Node4</title>
<g id="a_edge27_Node000002_Node000004"><a xlink:title=" ">
<path fill="none" stroke="#63b8ff" d="M298.86,-219.98C276.38,-213.6 250.51,-202.63 233.5,-184 222.34,-171.79 217.73,-153.27 215.82,-139.37"/>
<polygon fill="#63b8ff" stroke="#63b8ff" points="219.26,-138.63 214.77,-129.03 212.3,-139.33 219.26,-138.63"/>
</a>
</g>
</g>
<!-- Node5 -->
<g id="Node000005" class="node">
<title>Node5</title>
<g id="a_Node000005"><a xlink:href="_kokkos_interface_8h.html" target="_top" xlink:title=" ">
<polygon fill="white" stroke="#666666" points="267.5,-74 163.5,-74 163.5,-55 267.5,-55 267.5,-74"/>
<text text-anchor="middle" x="215.5" y="-62" font-family="Helvetica,sans-Serif" font-size="10.00">KokkosInterface.h</text>
</a>
</g>
</g>
<!-- Node2&#45;&gt;Node5 -->
<g id="edge4_Node000002_Node000005" class="edge">
<title>Node2&#45;&gt;Node5</title>
<g id="a_edge4_Node000002_Node000005"><a xlink:title=" ">
<path fill="none" stroke="#63b8ff" d="M299.41,-219.97C273.72,-213.4 242.07,-202.26 218.5,-184 189.43,-161.48 169.72,-144.83 181.5,-110 185.06,-99.47 192.22,-89.48 199.05,-81.63"/>
<polygon fill="#63b8ff" stroke="#63b8ff" points="201.63,-84.01 205.89,-74.31 196.51,-79.23 201.63,-84.01"/>
</a>
</g>
</g>
<!-- Node7 -->
<g id="Node000007" class="node">
<title>Node7</title>
<g id="a_Node000007"><a xlink:title=" ">
<polygon fill="#e0e0e0" stroke="#999999" points="141,-19 0,-19 0,0 141,0 141,-19"/>
<text text-anchor="middle" x="70.5" y="-7" font-family="Helvetica,sans-Serif" font-size="10.00">stk_mesh/base/Entity.hpp</text>
</a>
</g>
</g>
<!-- Node2&#45;&gt;Node7 -->
<g id="edge23_Node000002_Node000007" class="edge">
<title>Node2&#45;&gt;Node7</title>
<g id="a_edge23_Node000002_Node000007"><a xlink:title=" ">
<path fill="none" stroke="#63b8ff" d="M292.48,-222.1C261.2,-216.22 221.9,-205.05 192.5,-184 134.44,-142.43 94.33,-64.27 78.3,-28.82"/>
<polygon fill="#63b8ff" stroke="#63b8ff" points="81.33,-27.02 74.1,-19.27 74.92,-29.84 81.33,-27.02"/>
</a>
</g>
</g>
<!-- Node10 -->
<g id="Node000010" class="node">
<title>Node10</title>
<g id="a_Node000010"><a xlink:href="_linear_system_8h.html" target="_top" xlink:title=" ">
<polygon fill="white" stroke="#666666" points="477.5,-184 385.5,-184 385.5,-165 477.5,-165 477.5,-184"/>
<text text-anchor="middle" x="431.5" y="-172" font-family="Helvetica,sans-Serif" font-size="10.00">LinearSystem.h</text>
</a>
</g>
</g>
<!-- Node2&#45;&gt;Node10 -->
<g id="edge9_Node000002_Node000010" class="edge">
<title>Node2&#45;&gt;Node10</title>
<g id="a_edge9_Node000002_Node000010"><a xlink:title=" ">
<path fill="none" stroke="#63b8ff" d="M358.48,-219.98C371.97,-211.77 392.63,-199.18 408.54,-189.49"/>
<polygon fill="#63b8ff" stroke="#63b8ff" points="410.55,-192.36 417.27,-184.17 406.91,-186.38 410.55,-192.36"/>
</a>
</g>
</g>
<!-- Node18 -->
<g id="Node000018" class="node">
<title>Node18</title>
<g id="a_Node000018"><a xlink:title=" ">
<polygon fill="#e0e0e0" stroke="#999999" points="800.5,-129 666.5,-129 666.5,-110 800.5,-110 800.5,-129"/>
<text text-anchor="middle" x="733.5" y="-117" font-family="Helvetica,sans-Serif" font-size="10.00">stk_mesh/base/Ngp.hpp</text>
</a>
</g>
</g>
<!-- Node2&#45;&gt;Node18 -->
<g id="edge24_Node000002_Node000018" class="edge">
<title>Node2&#45;&gt;Node18</title>
<g id="a_edge24_Node000002_Node000018"><a xlink:title=" ">
<path fill="none" stroke="#63b8ff" d="M376.56,-219.94C405.65,-211.82 449.53,-198.7 486.5,-184 504.42,-176.87 507.27,-171.29 525.5,-165 571.14,-149.26 624.4,-138 665.6,-130.73"/>
<polygon fill="#63b8ff" stroke="#63b8ff" points="666.28,-134.17 675.54,-129.02 665.09,-127.27 666.28,-134.17"/>
</a>
</g>
</g>
<!-- Node19 -->
<g id="Node000019" class="node">
<title>Node19</title>
<g id="a_Node000019"><a xlink:title=" ">
<polygon fill="#e0e0e0" stroke="#999999" points="416.5,-129 256.5,-129 256.5,-110 416.5,-110 416.5,-129"/>
<text text-anchor="middle" x="336.5" y="-117" font-family="Helvetica,sans-Serif" font-size="10.00">stk_mesh/base/NgpMesh.hpp</text>
</a>
</g>
</g>
<!-- Node2&#45;&gt;Node19 -->
<g id="edge25_Node000002_Node000019" class="edge">
<title>Node2&#45;&gt;Node19</title>
<g id="a_edge25_Node000002_Node000019"><a xlink:title=" ">
<path fill="none" stroke="#63b8ff" d="M343.85,-219.66C342.55,-202.17 339.63,-162.8 337.89,-139.27"/>
<polygon fill="#63b8ff" stroke="#63b8ff" points="341.37,-138.87 337.14,-129.16 334.39,-139.39 341.37,-138.87"/>
</a>
</g>
</g>
<!-- Node21 -->
<g id="Node000021" class="node">
<title>Node21</title>
<g id="a_Node000021"><a xlink:title=" ">
<polygon fill="#e0e0e0" stroke="#999999" points="691,-184 534,-184 534,-165 691,-165 691,-184"/>
<text text-anchor="middle" x="612.5" y="-172" font-family="Helvetica,sans-Serif" font-size="10.00">stk_mesh/base/NgpField.hpp</text>
</a>
</g>
</g>
<!-- Node2&#45;&gt;Node21 -->
<g id="edge26_Node000002_Node000021" class="edge">
<title>Node2&#45;&gt;Node21</title>
<g id="a_edge26_Node000002_Node000021"><a xlink:title=" ">
<path fill="none" stroke="#63b8ff" d="M387.56,-219.98C434.21,-210.76 508.7,-196.03 559.06,-186.07"/>
<polygon fill="#63b8ff" stroke="#63b8ff" points="559.97,-189.46 569.1,-184.08 558.61,-182.59 559.97,-189.46"/>
</a>
</g>
</g>
<!-- Node3&#45;&gt;Node4 -->
<g id="edge3_Node000003_Node000004" class="edge">
<title>Node3&#45;&gt;Node4</title>
<g id="a_edge3_Node000003_Node000004"><a xlink:title=" ">
<path fill="none" stroke="#63b8ff" d="M269.06,-164.98C259.35,-157.07 244.68,-145.11 233,-135.58"/>
<polygon fill="#63b8ff" stroke="#63b8ff" points="235.1,-132.78 225.13,-129.17 230.67,-138.2 235.1,-132.78"/>
</a>
</g>
</g>
<!-- Node6 -->
<g id="Node000006" class="node">
<title>Node6</title>
<g id="a_Node000006"><a xlink:title=" ">
<polygon fill="#e0e0e0" stroke="#999999" points="462,-19 409,-19 409,0 462,0 462,-19"/>
<text text-anchor="middle" x="435.5" y="-7" font-family="Helvetica,sans-Serif" font-size="10.00">cstddef</text>
</a>
</g>
</g>
<!-- Node5&#45;&gt;Node6 -->
<g id="edge5_Node000005_Node000006" class="edge">
<title>Node5&#45;&gt;Node6</title>
<g id="a_edge5_Node000005_Node000006"><a xlink:title=" ">
<path fill="none" stroke="#63b8ff" d="M250.85,-54.98C291.49,-45.19 357.89,-29.2 399.01,-19.29"/>
<polygon fill="#63b8ff" stroke="#63b8ff" points="399.99,-22.66 408.89,-16.91 398.35,-15.85 399.99,-22.66"/>
</a>
</g>
</g>
<!-- Node5&#45;&gt;Node7 -->
<g id="edge6_Node000005_Node000007" class="edge">
<title>Node5&#45;&gt;Node7</title>
<g id="a_edge6_Node000005_Node000007"><a xlink:title=" ">
<path fill="none" stroke="#63b8ff" d="M192.2,-54.98C168.25,-46.23 130.72,-32.51 103.67,-22.62"/>
<polygon fill="#63b8ff" stroke="#63b8ff" points="104.81,-19.32 94.22,-19.17 102.41,-25.89 104.81,-19.32"/>
</a>
</g>
</g>
<!-- Node8 -->
<g id="Node000008" class="node">
<title>Node8</title>
<g id="a_Node000008"><a xlink:title=" ">
<polygon fill="#e0e0e0" stroke="#999999" points="272,-19 159,-19 159,0 272,0 272,-19"/>
<text text-anchor="middle" x="215.5" y="-7" font-family="Helvetica,sans-Serif" font-size="10.00">Kokkos_Macros.hpp</text>
</a>
</g>
</g>
<!-- Node5&#45;&gt;Node8 -->
<g id="edge7_Node000005_Node000008" class="edge">
<title>Node5&#45;&gt;Node8</title>
<g id="a_edge7_Node000005_Node000008"><a xlink:title=" ">
<path fill="none" stroke="#63b8ff" d="M215.5,-54.75C215.5,-47.8 215.5,-37.85 215.5,-29.13"/>
<polygon fill="#63b8ff" stroke="#63b8ff" points="219,-29.09 215.5,-19.09 212,-29.09 219,-29.09"/>
</a>
</g>
</g>
<!-- Node9 -->
<g id="Node000009" class="node">
<title>Node9</title>
<g id="a_Node000009"><a xlink:title=" ">
<polygon fill="#e0e0e0" stroke="#999999" points="390.5,-19 290.5,-19 290.5,0 390.5,0 390.5,-19"/>
<text text-anchor="middle" x="340.5" y="-7" font-family="Helvetica,sans-Serif" font-size="10.00">Kokkos_Core.hpp</text>
</a>
</g>
</g>
<!-- Node5&#45;&gt;Node9 -->
<g id="edge8_Node000005_Node000009" class="edge">
<title>Node5&#45;&gt;Node9</title>
<g id="a_edge8_Node000005_Node000009"><a xlink:title=" ">
<path fill="none" stroke="#63b8ff" d="M235.58,-54.98C255.87,-46.38 287.46,-32.99 310.67,-23.15"/>
<polygon fill="#63b8ff" stroke="#63b8ff" points="312.21,-26.3 320.05,-19.17 309.48,-19.85 312.21,-26.3"/>
</a>
</g>
</g>
<!-- Node10&#45;&gt;Node4 -->
<g id="edge21_Node000010_Node000004" class="edge">
<title>Node10&#45;&gt;Node4</title>
<g id="a_edge21_Node000010_Node000004"><a xlink:title=" ">
<path fill="none" stroke="#63b8ff" d="M395.5,-164.96C360.41,-156.6 305.28,-143.37 248.2,-129.15"/>
<polygon fill="#63b8ff" stroke="#63b8ff" points="248.83,-125.7 238.28,-126.67 247.14,-132.49 248.83,-125.7"/>
</a>
</g>
</g>
<!-- Node10&#45;&gt;Node5 -->
<g id="edge18_Node000010_Node000005" class="edge">
<title>Node10&#45;&gt;Node5</title>
<g id="a_edge18_Node000010_Node000005"><a xlink:title=" ">
<path fill="none" stroke="#63b8ff" d="M448.65,-164.96C470.75,-152.85 504.44,-129.94 487.5,-110 484.1,-106 357.36,-86.55 278.11,-74.72"/>
<polygon fill="#63b8ff" stroke="#63b8ff" points="278.14,-71.19 267.74,-73.18 277.11,-78.11 278.14,-71.19"/>
</a>
</g>
</g>
<!-- Node11 -->
<g id="Node000011" class="node">
<title>Node11</title>
<g id="a_Node000011"><a xlink:href="_linear_solver_types_8h.html" target="_top" xlink:title=" ">
<polygon fill="white" stroke="#666666" points="648.5,-129 534.5,-129 534.5,-110 648.5,-110 648.5,-129"/>
<text text-anchor="middle" x="591.5" y="-117" font-family="Helvetica,sans-Serif" font-size="10.00">LinearSolverTypes.h</text>
</a>
</g>
</g>
<!-- Node10&#45;&gt;Node11 -->
<g id="edge10_Node000010_Node000011" class="edge">
<title>Node10&#45;&gt;Node11</title>
<g id="a_edge10_Node000010_Node000011"><a xlink:title=" ">
<path fill="none" stroke="#63b8ff" d="M457.21,-164.98C483.95,-156.13 526.03,-142.19 555.95,-132.28"/>
<polygon fill="#63b8ff" stroke="#63b8ff" points="557.2,-135.55 565.59,-129.08 555,-128.9 557.2,-135.55"/>
</a>
</g>
</g>
<!-- Node10&#45;&gt;Node18 -->
<g id="edge19_Node000010_Node000018" class="edge">
<title>Node10&#45;&gt;Node18</title>
<g id="a_edge19_Node000010_Node000018"><a xlink:title=" ">
<path fill="none" stroke="#63b8ff" d="M477.7,-165.39C530.62,-156.11 617.42,-140.87 675.01,-130.76"/>
<polygon fill="#63b8ff" stroke="#63b8ff" points="675.81,-134.18 685.06,-129 674.6,-127.28 675.81,-134.18"/>
</a>
</g>
</g>
<!-- Node10&#45;&gt;Node19 -->
<g id="edge20_Node000010_Node000019" class="edge">
<title>Node10&#45;&gt;Node19</title>
<g id="a_edge20_Node000010_Node000019"><a xlink:title=" ">
<path fill="none" stroke="#63b8ff" d="M416.24,-164.98C401.37,-156.69 378.52,-143.94 361.08,-134.22"/>
<polygon fill="#63b8ff" stroke="#63b8ff" points="362.48,-130.99 352.04,-129.17 359.07,-137.1 362.48,-130.99"/>
</a>
</g>
</g>
<!-- Node20 -->
<g id="Node000020" class="node">
<title>Node20</title>
<g id="a_Node000020"><a xlink:title=" ">
<polygon fill="#e0e0e0" stroke="#999999" points="478.5,-129 434.5,-129 434.5,-110 478.5,-110 478.5,-129"/>
<text text-anchor="middle" x="456.5" y="-117" font-family="Helvetica,sans-Serif" font-size="10.00">string</text>
</a>
</g>
</g>
<!-- Node10&#45;&gt;Node20 -->
<g id="edge22_Node000010_Node000020" class="edge">
<title>Node10&#45;&gt;Node20</title>
<g id="a_edge22_Node000010_Node000020"><a xlink:title=" ">
<path fill="none" stroke="#63b8ff" d="M435.63,-164.75C439.01,-157.57 443.92,-147.18 448.12,-138.27"/>
<polygon fill="#63b8ff" stroke="#63b8ff" points="451.35,-139.63 452.45,-129.09 445.02,-136.64 451.35,-139.63"/>
</a>
</g>
</g>
<!-- Node11&#45;&gt;Node5 -->
<g id="edge11_Node000011_Node000005" class="edge">
<title>Node11&#45;&gt;Node5</title>
<g id="a_edge11_Node000011_Node000005"><a xlink:title=" ">
<path fill="none" stroke="#63b8ff" d="M534.39,-110.45C465.27,-100.71 349.29,-84.36 277.88,-74.29"/>
<polygon fill="#63b8ff" stroke="#63b8ff" points="278.07,-70.79 267.68,-72.86 277.09,-77.72 278.07,-70.79"/>
</a>
</g>
</g>
<!-- Node12 -->
<g id="Node000012" class="node">
<title>Node12</title>
<g id="a_Node000012"><a xlink:title=" ">
<polygon fill="#e0e0e0" stroke="#999999" points="1007.5,-74 829.5,-74 829.5,-55 1007.5,-55 1007.5,-74"/>
<text text-anchor="middle" x="918.5" y="-62" font-family="Helvetica,sans-Serif" font-size="10.00">Tpetra_Details_DefaultTypes.hpp</text>
</a>
</g>
</g>
<!-- Node11&#45;&gt;Node12 -->
<g id="edge12_Node000011_Node000012" class="edge">
<title>Node11&#45;&gt;Node12</title>
<g id="a_edge12_Node000011_Node000012"><a xlink:title=" ">
<path fill="none" stroke="#63b8ff" d="M644.04,-109.98C701.76,-100.63 794.41,-85.61 855.86,-75.65"/>
<polygon fill="#63b8ff" stroke="#63b8ff" points="856.51,-79.09 865.82,-74.04 855.39,-72.18 856.51,-79.09"/>
</a>
</g>
</g>
<!-- Node13 -->
<g id="Node000013" class="node">
<title>Node13</title>
<g id="a_Node000013"><a xlink:title=" ">
<polygon fill="#e0e0e0" stroke="#999999" points="1145,-74 1026,-74 1026,-55 1145,-55 1145,-74"/>
<text text-anchor="middle" x="1085.5" y="-62" font-family="Helvetica,sans-Serif" font-size="10.00">Tpetra_CrsGraph.hpp</text>
</a>
</g>
</g>
<!-- Node11&#45;&gt;Node13 -->
<g id="edge13_Node000011_Node000013" class="edge">
<title>Node11&#45;&gt;Node13</title>
<g id="a_edge13_Node000011_Node000013"><a xlink:title=" ">
<path fill="none" stroke="#63b8ff" d="M648.73,-111.03C651.69,-110.67 654.63,-110.33 657.5,-110 813.55,-92.13 855.43,-91.81 1015.46,-74.09"/>
<polygon fill="#63b8ff" stroke="#63b8ff" points="1016.12,-77.54 1025.67,-72.95 1015.34,-70.58 1016.12,-77.54"/>
</a>
</g>
</g>
<!-- Node14 -->
<g id="Node000014" class="node">
<title>Node14</title>
<g id="a_Node000014"><a xlink:title=" ">
<polygon fill="#e0e0e0" stroke="#999999" points="407.5,-74 285.5,-74 285.5,-55 407.5,-55 407.5,-74"/>
<text text-anchor="middle" x="346.5" y="-62" font-family="Helvetica,sans-Serif" font-size="10.00">Tpetra_CrsMatrix.hpp</text>
</a>
</g>
</g>
<!-- Node11&#45;&gt;Node14 -->
<g id="edge14_Node000011_Node000014" class="edge">
<title>Node11&#45;&gt;Node14</title>
<g id="a_edge14_Node000011_Node000014"><a xlink:title=" ">
<path fill="none" stroke="#63b8ff" d="M552.14,-109.98C509.76,-100.82 442.24,-86.21 396.22,-76.26"/>
<polygon fill="#63b8ff" stroke="#63b8ff" points="396.69,-72.78 386.17,-74.08 395.21,-79.62 396.69,-72.78"/>
</a>
</g>
</g>
<!-- Node15 -->
<g id="Node000015" class="node">
<title>Node15</title>
<g id="a_Node000015"><a xlink:title=" ">
<polygon fill="#e0e0e0" stroke="#999999" points="529.5,-74 425.5,-74 425.5,-55 529.5,-55 529.5,-74"/>
<text text-anchor="middle" x="477.5" y="-62" font-family="Helvetica,sans-Serif" font-size="10.00">Tpetra_Vector.hpp</text>
</a>
</g>
</g>
<!-- Node11&#45;&gt;Node15 -->
<g id="edge15_Node000011_Node000015" class="edge">
<title>Node11&#45;&gt;Node15</title>
<g id="a_edge15_Node000011_Node000015"><a xlink:title=" ">
<path fill="none" stroke="#63b8ff" d="M573.18,-109.98C554.84,-101.46 526.39,-88.23 505.27,-78.41"/>
<polygon fill="#63b8ff" stroke="#63b8ff" points="506.69,-75.21 496.15,-74.17 503.74,-81.56 506.69,-75.21"/>
</a>
</g>
</g>
<!-- Node16 -->
<g id="Node000016" class="node">
<title>Node16</title>
<g id="a_Node000016"><a xlink:title=" ">
<polygon fill="#e0e0e0" stroke="#999999" points="677,-74 548,-74 548,-55 677,-55 677,-74"/>
<text text-anchor="middle" x="612.5" y="-62" font-family="Helvetica,sans-Serif" font-size="10.00">Tpetra_MultiVector.hpp</text>
</a>
</g>
</g>
<!-- Node11&#45;&gt;Node16 -->
<g id="edge16_Node000011_Node000016" class="edge">
<title>Node11&#45;&gt;Node16</title>
<g id="a_edge16_Node000011_Node000016"><a xlink:title=" ">
<path fill="none" stroke="#63b8ff" d="M594.97,-109.75C597.78,-102.65 601.84,-92.4 605.35,-83.56"/>
<polygon fill="#63b8ff" stroke="#63b8ff" points="608.67,-84.68 609.1,-74.09 602.16,-82.1 608.67,-84.68"/>
</a>
</g>
</g>
<!-- Node17 -->
<g id="Node000017" class="node">
<title>Node17</title>
<g id="a_Node000017"><a xlink:title=" ">
<polygon fill="#e0e0e0" stroke="#999999" points="811.5,-74 695.5,-74 695.5,-55 811.5,-55 811.5,-74"/>
<text text-anchor="middle" x="753.5" y="-62" font-family="Helvetica,sans-Serif" font-size="10.00">Tpetra_Operator.hpp</text>
</a>
</g>
</g>
<!-- Node11&#45;&gt;Node17 -->
<g id="edge17_Node000011_Node000017" class="edge">
<title>Node11&#45;&gt;Node17</title>
<g id="a_edge17_Node000011_Node000017"><a xlink:title=" ">
<path fill="none" stroke="#63b8ff" d="M617.53,-109.98C644.61,-101.13 687.21,-87.19 717.51,-77.28"/>
<polygon fill="#63b8ff" stroke="#63b8ff" points="718.85,-80.52 727.27,-74.08 716.68,-73.87 718.85,-80.52"/>
</a>
</g>
</g>
<!-- Node22&#45;&gt;Node18 -->
<g id="edge30_Node000022_Node000018" class="edge">
<title>Node22&#45;&gt;Node18</title>
<g id="a_edge30_Node000022_Node000018"><a xlink:title=" ">
<path fill="none" stroke="#63b8ff" d="M720.65,-219.66C722.91,-202.17 728.02,-162.8 731.07,-139.27"/>
<polygon fill="#63b8ff" stroke="#63b8ff" points="734.56,-139.53 732.38,-129.16 727.62,-138.63 734.56,-139.53"/>
</a>
</g>
</g>
<!-- Node22&#45;&gt;Node21 -->
<g id="edge31_Node000022_Node000021" class="edge">
<title>Node22&#45;&gt;Node21</title>
<g id="a_edge31_Node000022_Node000021"><a xlink:title=" ">
<path fill="none" stroke="#63b8ff" d="M702.31,-219.98C685.25,-211.54 658.87,-198.47 639.1,-188.68"/>
<polygon fill="#63b8ff" stroke="#63b8ff" points="640.52,-185.47 630,-184.17 637.41,-191.75 640.52,-185.47"/>
</a>
</g>
</g>
<!-- Node23 -->
<g id="Node000023" class="node">
<title>Node23</title>
<g id="a_Node000023"><a xlink:title=" ">
<polygon fill="#e0e0e0" stroke="#999999" points="909,-184 748,-184 748,-165 909,-165 909,-184"/>
<text text-anchor="middle" x="828.5" y="-172" font-family="Helvetica,sans-Serif" font-size="10.00">stk_mesh/base/FieldBase.hpp</text>
</a>
</g>
</g>
<!-- Node22&#45;&gt;Node23 -->
<g id="edge29_Node000022_Node000023" class="edge">
<title>Node22&#45;&gt;Node23</title>
<g id="a_edge29_Node000022_Node000023"><a xlink:title=" ">
<path fill="none" stroke="#63b8ff" d="M737.01,-219.98C754.47,-211.5 781.51,-198.35 801.67,-188.54"/>
<polygon fill="#63b8ff" stroke="#63b8ff" points="803.21,-191.69 810.67,-184.17 800.14,-185.4 803.21,-191.69"/>
</a>
</g>
</g>
<!-- Node24 -->
<g id="Node000024" class="node">
<title>Node24</title>
<g id="a_Node000024"><a xlink:title=" ">
<polygon fill="#e0e0e0" stroke="#999999" points="992,-184 927,-184 927,-165 992,-165 992,-184"/>
<text text-anchor="middle" x="959.5" y="-172" font-family="Helvetica,sans-Serif" font-size="10.00">functional</text>
</a>
</g>
</g>
<!-- Node22&#45;&gt;Node24 -->
<g id="edge32_Node000022_Node000024" class="edge">
<title>Node22&#45;&gt;Node24</title>
<g id="a_edge32_Node000022_Node000024"><a xlink:title=" ">
<path fill="none" stroke="#63b8ff" d="M758.06,-219.98C801.45,-210.4 871.75,-194.88 916.78,-184.93"/>
<polygon fill="#63b8ff" stroke="#63b8ff" points="917.81,-188.29 926.82,-182.72 916.3,-181.46 917.81,-188.29"/>
</a>
</g>
</g>
</g>
</svg>
