<?xml version="1.0" encoding="UTF-8" standalone="no"?>
<!DOCTYPE svg PUBLIC "-//W3C//DTD SVG 1.1//EN"
 "http://www.w3.org/Graphics/SVG/1.1/DTD/svg11.dtd">
<!-- Generated by graphviz version 2.43.0 (0)
 -->
<!-- Title: AssemblePNGBoundarySolverAlgorithm.h Pages: 1 -->
<svg width="366pt" height="106pt"
 viewBox="0.00 0.00 365.50 106.00" xmlns="http://www.w3.org/2000/svg" xmlns:xlink="http://www.w3.org/1999/xlink">
<g id="graph0" class="graph" transform="scale(1 1) rotate(0) translate(4 102)">
<title>AssemblePNGBoundarySolverAlgorithm.h</title>
<polygon fill="white" stroke="transparent" points="-4,4 -4,-102 361.5,-102 361.5,4 -4,4"/>
<!-- Node1 -->
<g id="node1" class="node">
<title>Node1</title>
<g id="a_node1"><a xlink:title=" ">
<polygon fill="#bfbfbf" stroke="black" points="94,-67.5 94,-97.5 257,-97.5 257,-67.5 94,-67.5"/>
<text text-anchor="start" x="102" y="-85.5" font-family="Helvetica,sans-Serif" font-size="10.00">AssemblePNGBoundarySolver</text>
<text text-anchor="middle" x="175.5" y="-74.5" font-family="Helvetica,sans-Serif" font-size="10.00">Algorithm.h</text>
</a>
</g>
</g>
<!-- Node2 -->
<g id="node2" class="node">
<title>Node2</title>
<g id="a_node2"><a xlink:href="_assemble_p_n_g_boundary_solver_algorithm_8_c.html" target="_top" xlink:title=" ">
<polygon fill="white" stroke="black" points="0,-0.5 0,-30.5 163,-30.5 163,-0.5 0,-0.5"/>
<text text-anchor="start" x="8" y="-18.5" font-family="Helvetica,sans-Serif" font-size="10.00">AssemblePNGBoundarySolver</text>
<text text-anchor="middle" x="81.5" y="-7.5" font-family="Helvetica,sans-Serif" font-size="10.00">Algorithm.C</text>
</a>
</g>
</g>
<!-- Node1&#45;&gt;Node2 -->
<g id="edge1" class="edge">
<title>Node1&#45;&gt;Node2</title>
<path fill="none" stroke="midnightblue" d="M146.51,-61.45C132.05,-51.45 114.91,-39.6 101.86,-30.58"/>
<polygon fill="midnightblue" stroke="midnightblue" points="144.89,-64.59 155.1,-67.4 148.87,-58.83 144.89,-64.59"/>
</g>
<!-- Node3 -->
<g id="node3" class="node">
<title>Node3</title>
<g id="a_node3"><a xlink:href="_projected_nodal_gradient_equation_system_8_c.html" target="_top" xlink:title=" ">
<polygon fill="white" stroke="black" points="181.5,-0.5 181.5,-30.5 357.5,-30.5 357.5,-0.5 181.5,-0.5"/>
<text text-anchor="start" x="189.5" y="-18.5" font-family="Helvetica,sans-Serif" font-size="10.00">ProjectedNodalGradientEquation</text>
<text text-anchor="middle" x="269.5" y="-7.5" font-family="Helvetica,sans-Serif" font-size="10.00">System.C</text>
</a>
</g>
</g>
<!-- Node1&#45;&gt;Node3 -->
<g id="edge2" class="edge">
<title>Node1&#45;&gt;Node3</title>
<path fill="none" stroke="midnightblue" d="M204.49,-61.45C218.95,-51.45 236.09,-39.6 249.14,-30.58"/>
<polygon fill="midnightblue" stroke="midnightblue" points="202.13,-58.83 195.9,-67.4 206.11,-64.59 202.13,-58.83"/>
</g>
</g>
</svg>
