<?xml version="1.0" encoding="UTF-8" standalone="no"?>
<!DOCTYPE svg PUBLIC "-//W3C//DTD SVG 1.1//EN"
 "http://www.w3.org/Graphics/SVG/1.1/DTD/svg11.dtd">
<!-- Generated by graphviz version 2.43.0 (0)
 -->
<!-- Title: AssembleNodalGradNonConformalAlgorithm.h Pages: 1 -->
<svg width="1231pt" height="106pt"
 viewBox="0.00 0.00 1231.00 106.00" xmlns="http://www.w3.org/2000/svg" xmlns:xlink="http://www.w3.org/1999/xlink">
<g id="graph0" class="graph" transform="scale(1 1) rotate(0) translate(4 102)">
<title>AssembleNodalGradNonConformalAlgorithm.h</title>
<polygon fill="white" stroke="transparent" points="-4,4 -4,-102 1227,-102 1227,4 -4,4"/>
<!-- Node1 -->
<g id="node1" class="node">
<title>Node1</title>
<g id="a_node1"><a xlink:title=" ">
<polygon fill="#bfbfbf" stroke="black" points="518,-67.5 518,-97.5 705,-97.5 705,-67.5 518,-67.5"/>
<text text-anchor="start" x="526" y="-85.5" font-family="Helvetica,sans-Serif" font-size="10.00">AssembleNodalGradNonConformal</text>
<text text-anchor="middle" x="611.5" y="-74.5" font-family="Helvetica,sans-Serif" font-size="10.00">Algorithm.h</text>
</a>
</g>
</g>
<!-- Node2 -->
<g id="node2" class="node">
<title>Node2</title>
<g id="a_node2"><a xlink:href="_assemble_nodal_grad_non_conformal_algorithm_8_c.html" target="_top" xlink:title=" ">
<polygon fill="white" stroke="black" points="0,-0.5 0,-30.5 187,-30.5 187,-0.5 0,-0.5"/>
<text text-anchor="start" x="8" y="-18.5" font-family="Helvetica,sans-Serif" font-size="10.00">AssembleNodalGradNonConformal</text>
<text text-anchor="middle" x="93.5" y="-7.5" font-family="Helvetica,sans-Serif" font-size="10.00">Algorithm.C</text>
</a>
</g>
</g>
<!-- Node1&#45;&gt;Node2 -->
<g id="edge1" class="edge">
<title>Node1&#45;&gt;Node2</title>
<path fill="none" stroke="midnightblue" d="M507.59,-69.48C423.39,-59.6 301.72,-45 195.5,-31 192.75,-30.64 189.96,-30.27 187.15,-29.89"/>
<polygon fill="midnightblue" stroke="midnightblue" points="507.33,-72.98 517.67,-70.66 508.15,-66.02 507.33,-72.98"/>
</g>
<!-- Node3 -->
<g id="node3" class="node">
<title>Node3</title>
<g id="a_node3"><a xlink:href="_enthalpy_equation_system_8_c.html" target="_top" xlink:title=" ">
<polygon fill="white" stroke="black" points="205,-6 205,-25 354,-25 354,-6 205,-6"/>
<text text-anchor="middle" x="279.5" y="-13" font-family="Helvetica,sans-Serif" font-size="10.00">EnthalpyEquationSystem.C</text>
</a>
</g>
</g>
<!-- Node1&#45;&gt;Node3 -->
<g id="edge2" class="edge">
<title>Node1&#45;&gt;Node3</title>
<path fill="none" stroke="midnightblue" d="M530,-65.54C464.66,-52.75 375.5,-35.3 323.06,-25.03"/>
<polygon fill="midnightblue" stroke="midnightblue" points="529.38,-68.99 539.87,-67.48 530.73,-62.12 529.38,-68.99"/>
</g>
<!-- Node4 -->
<g id="node4" class="node">
<title>Node4</title>
<g id="a_node4"><a xlink:href="_gamma_equation_system_8_c.html" target="_top" xlink:title=" ">
<polygon fill="white" stroke="black" points="372,-6 372,-25 517,-25 517,-6 372,-6"/>
<text text-anchor="middle" x="444.5" y="-13" font-family="Helvetica,sans-Serif" font-size="10.00">GammaEquationSystem.C</text>
</a>
</g>
</g>
<!-- Node1&#45;&gt;Node4 -->
<g id="edge3" class="edge">
<title>Node1&#45;&gt;Node4</title>
<path fill="none" stroke="midnightblue" d="M565.57,-63.62C533.24,-51.04 491.43,-34.77 466.36,-25.01"/>
<polygon fill="midnightblue" stroke="midnightblue" points="564.67,-67.03 575.26,-67.4 567.21,-60.51 564.67,-67.03"/>
</g>
<!-- Node5 -->
<g id="node5" class="node">
<title>Node5</title>
<g id="a_node5"><a xlink:href="_low_mach_equation_system_8_c.html" target="_top" xlink:title=" ">
<polygon fill="white" stroke="black" points="535.5,-6 535.5,-25 687.5,-25 687.5,-6 535.5,-6"/>
<text text-anchor="middle" x="611.5" y="-13" font-family="Helvetica,sans-Serif" font-size="10.00">LowMachEquationSystem.C</text>
</a>
</g>
</g>
<!-- Node1&#45;&gt;Node5 -->
<g id="edge4" class="edge">
<title>Node1&#45;&gt;Node5</title>
<path fill="none" stroke="midnightblue" d="M611.5,-57.25C611.5,-46.02 611.5,-33.38 611.5,-25.19"/>
<polygon fill="midnightblue" stroke="midnightblue" points="608,-57.4 611.5,-67.4 615,-57.4 608,-57.4"/>
</g>
<!-- Node6 -->
<g id="node6" class="node">
<title>Node6</title>
<g id="a_node6"><a xlink:href="_specific_dissipation_rate_equation_system_8_c.html" target="_top" xlink:title=" ">
<polygon fill="white" stroke="black" points="705.5,-0.5 705.5,-30.5 879.5,-30.5 879.5,-0.5 705.5,-0.5"/>
<text text-anchor="start" x="713.5" y="-18.5" font-family="Helvetica,sans-Serif" font-size="10.00">SpecificDissipationRateEquation</text>
<text text-anchor="middle" x="792.5" y="-7.5" font-family="Helvetica,sans-Serif" font-size="10.00">System.C</text>
</a>
</g>
</g>
<!-- Node1&#45;&gt;Node6 -->
<g id="edge5" class="edge">
<title>Node1&#45;&gt;Node6</title>
<path fill="none" stroke="midnightblue" d="M660.36,-63.96C689.51,-53.48 726.04,-40.37 753.3,-30.58"/>
<polygon fill="midnightblue" stroke="midnightblue" points="659,-60.72 650.77,-67.4 661.37,-67.31 659,-60.72"/>
</g>
<!-- Node7 -->
<g id="node7" class="node">
<title>Node7</title>
<g id="a_node7"><a xlink:href="_total_dissipation_rate_equation_system_8_c.html" target="_top" xlink:title=" ">
<polygon fill="white" stroke="black" points="897.5,-0.5 897.5,-30.5 1057.5,-30.5 1057.5,-0.5 897.5,-0.5"/>
<text text-anchor="start" x="905.5" y="-18.5" font-family="Helvetica,sans-Serif" font-size="10.00">TotalDissipationRateEquation</text>
<text text-anchor="middle" x="977.5" y="-7.5" font-family="Helvetica,sans-Serif" font-size="10.00">System.C</text>
</a>
</g>
</g>
<!-- Node1&#45;&gt;Node7 -->
<g id="edge6" class="edge">
<title>Node1&#45;&gt;Node7</title>
<path fill="none" stroke="midnightblue" d="M700.38,-65.72C760.82,-54.98 840.09,-40.9 898.36,-30.55"/>
<polygon fill="midnightblue" stroke="midnightblue" points="699.7,-62.28 690.47,-67.48 700.92,-69.17 699.7,-62.28"/>
</g>
<!-- Node8 -->
<g id="node8" class="node">
<title>Node8</title>
<g id="a_node8"><a xlink:href="_turb_kinetic_energy_equation_system_8_c.html" target="_top" xlink:title=" ">
<polygon fill="white" stroke="black" points="1076,-0.5 1076,-30.5 1223,-30.5 1223,-0.5 1076,-0.5"/>
<text text-anchor="start" x="1084" y="-18.5" font-family="Helvetica,sans-Serif" font-size="10.00">TurbKineticEnergyEquation</text>
<text text-anchor="middle" x="1149.5" y="-7.5" font-family="Helvetica,sans-Serif" font-size="10.00">System.C</text>
</a>
</g>
</g>
<!-- Node1&#45;&gt;Node8 -->
<g id="edge7" class="edge">
<title>Node1&#45;&gt;Node8</title>
<path fill="none" stroke="midnightblue" d="M715.58,-71.81C807.96,-62.77 946.49,-48.13 1066.5,-31 1069.54,-30.57 1072.64,-30.11 1075.77,-29.63"/>
<polygon fill="midnightblue" stroke="midnightblue" points="715.01,-68.35 705.39,-72.81 715.69,-75.32 715.01,-68.35"/>
</g>
</g>
</svg>
