<?xml version="1.0" encoding="UTF-8" standalone="no"?>
<!DOCTYPE svg PUBLIC "-//W3C//DTD SVG 1.1//EN"
 "http://www.w3.org/Graphics/SVG/1.1/DTD/svg11.dtd">
<!-- Generated by graphviz version 2.43.0 (0)
 -->
<!-- Title: AveragingInfo.C Pages: 1 -->
<svg width="1129pt" height="252pt"
 viewBox="0.00 0.00 1129.11 252.00" xmlns="http://www.w3.org/2000/svg" xmlns:xlink="http://www.w3.org/1999/xlink">
<g id="graph0" class="graph" transform="scale(1 1) rotate(0) translate(4 248)">
<title>AveragingInfo.C</title>
<polygon fill="white" stroke="transparent" points="-4,4 -4,-248 1125.11,-248 1125.11,4 -4,4"/>
<!-- Node1 -->
<g id="node1" class="node">
<title>Node1</title>
<g id="a_node1"><a xlink:title=" ">
<polygon fill="#bfbfbf" stroke="black" points="588.61,-224.5 588.61,-243.5 682.61,-243.5 682.61,-224.5 588.61,-224.5"/>
<text text-anchor="middle" x="635.61" y="-231.5" font-family="Helvetica,sans-Serif" font-size="10.00">AveragingInfo.C</text>
</a>
</g>
</g>
<!-- Node2 -->
<g id="node2" class="node">
<title>Node2</title>
<g id="a_node2"><a xlink:href="_averaging_info_8h.html" target="_top" xlink:title=" ">
<polygon fill="white" stroke="black" points="614.11,-112.5 614.11,-131.5 707.11,-131.5 707.11,-112.5 614.11,-112.5"/>
<text text-anchor="middle" x="660.61" y="-119.5" font-family="Helvetica,sans-Serif" font-size="10.00">AveragingInfo.h</text>
</a>
</g>
</g>
<!-- Node1&#45;&gt;Node2 -->
<g id="edge1" class="edge">
<title>Node1&#45;&gt;Node2</title>
<path fill="none" stroke="midnightblue" d="M637.57,-224.37C641.6,-206.62 650.91,-165.67 656.38,-141.6"/>
<polygon fill="midnightblue" stroke="midnightblue" points="659.85,-142.12 658.66,-131.59 653.03,-140.57 659.85,-142.12"/>
</g>
<!-- Node5 -->
<g id="node5" class="node">
<title>Node5</title>
<g id="a_node5"><a xlink:href="_nalu_parsing_8h.html" target="_top" xlink:title=" ">
<polygon fill="white" stroke="black" points="500.11,-168.5 500.11,-187.5 583.11,-187.5 583.11,-168.5 500.11,-168.5"/>
<text text-anchor="middle" x="541.61" y="-175.5" font-family="Helvetica,sans-Serif" font-size="10.00">NaluParsing.h</text>
</a>
</g>
</g>
<!-- Node1&#45;&gt;Node5 -->
<g id="edge4" class="edge">
<title>Node1&#45;&gt;Node5</title>
<path fill="none" stroke="midnightblue" d="M620.5,-224.32C605.7,-215.82 582.91,-202.73 565.63,-192.8"/>
<polygon fill="midnightblue" stroke="midnightblue" points="567.09,-189.6 556.67,-187.65 563.6,-195.67 567.09,-189.6"/>
</g>
<!-- Node20 -->
<g id="node20" class="node">
<title>Node20</title>
<g id="a_node20"><a xlink:title=" ">
<polygon fill="white" stroke="#bfbfbf" points="664.11,-168.5 664.11,-187.5 729.11,-187.5 729.11,-168.5 664.11,-168.5"/>
<text text-anchor="middle" x="696.61" y="-175.5" font-family="Helvetica,sans-Serif" font-size="10.00">stdexcept</text>
</a>
</g>
</g>
<!-- Node1&#45;&gt;Node20 -->
<g id="edge43" class="edge">
<title>Node1&#45;&gt;Node20</title>
<path fill="none" stroke="midnightblue" d="M645.41,-224.32C654.43,-216.34 668.01,-204.31 678.93,-194.65"/>
<polygon fill="midnightblue" stroke="midnightblue" points="681.46,-197.08 686.63,-187.83 676.82,-191.84 681.46,-197.08"/>
</g>
<!-- Node3 -->
<g id="node3" class="node">
<title>Node3</title>
<g id="a_node3"><a xlink:title=" ">
<polygon fill="white" stroke="#bfbfbf" points="254.61,-0.5 254.61,-19.5 298.61,-19.5 298.61,-0.5 254.61,-0.5"/>
<text text-anchor="middle" x="276.61" y="-7.5" font-family="Helvetica,sans-Serif" font-size="10.00">string</text>
</a>
</g>
</g>
<!-- Node2&#45;&gt;Node3 -->
<g id="edge2" class="edge">
<title>Node2&#45;&gt;Node3</title>
<path fill="none" stroke="midnightblue" d="M645.82,-112.45C621.11,-98.55 569.51,-71.05 522.61,-56 448.05,-32.07 356.44,-19.52 308.82,-14.2"/>
<polygon fill="midnightblue" stroke="midnightblue" points="309.11,-10.71 298.79,-13.11 308.36,-17.67 309.11,-10.71"/>
</g>
<!-- Node4 -->
<g id="node4" class="node">
<title>Node4</title>
<g id="a_node4"><a xlink:title=" ">
<polygon fill="white" stroke="#bfbfbf" points="443.11,-56.5 443.11,-75.5 490.11,-75.5 490.11,-56.5 443.11,-56.5"/>
<text text-anchor="middle" x="466.61" y="-63.5" font-family="Helvetica,sans-Serif" font-size="10.00">vector</text>
</a>
</g>
</g>
<!-- Node2&#45;&gt;Node4 -->
<g id="edge3" class="edge">
<title>Node2&#45;&gt;Node4</title>
<path fill="none" stroke="midnightblue" d="M629.87,-112.44C594.42,-102.58 536.35,-86.41 499.87,-76.26"/>
<polygon fill="midnightblue" stroke="midnightblue" points="500.76,-72.87 490.19,-73.56 498.88,-79.62 500.76,-72.87"/>
</g>
<!-- Node5&#45;&gt;Node3 -->
<g id="edge41" class="edge">
<title>Node5&#45;&gt;Node3</title>
<path fill="none" stroke="midnightblue" d="M499.91,-176.67C379.53,-175.31 37.94,-168.24 4.61,-132 -31.3,-92.95 165.28,-38.72 244.58,-18.77"/>
<polygon fill="midnightblue" stroke="midnightblue" points="245.67,-22.11 254.52,-16.29 243.97,-15.31 245.67,-22.11"/>
</g>
<!-- Node5&#45;&gt;Node4 -->
<g id="edge42" class="edge">
<title>Node5&#45;&gt;Node4</title>
<path fill="none" stroke="midnightblue" d="M522.54,-168.39C508.15,-160.87 489.14,-148.56 478.61,-132 469.85,-118.23 467.12,-99.71 466.42,-85.96"/>
<polygon fill="midnightblue" stroke="midnightblue" points="469.92,-85.67 466.23,-75.74 462.92,-85.8 469.92,-85.67"/>
</g>
<!-- Node6 -->
<g id="node6" class="node">
<title>Node6</title>
<g id="a_node6"><a xlink:href="_boundary_conditions_8h.html" target="_top" xlink:title=" ">
<polygon fill="white" stroke="black" points="183.61,-112.5 183.61,-131.5 307.61,-131.5 307.61,-112.5 183.61,-112.5"/>
<text text-anchor="middle" x="245.61" y="-119.5" font-family="Helvetica,sans-Serif" font-size="10.00">BoundaryConditions.h</text>
</a>
</g>
</g>
<!-- Node5&#45;&gt;Node6 -->
<g id="edge5" class="edge">
<title>Node5&#45;&gt;Node6</title>
<path fill="none" stroke="midnightblue" d="M499.83,-169.38C448.19,-159.96 360.08,-143.88 302.35,-133.35"/>
<polygon fill="midnightblue" stroke="midnightblue" points="302.77,-129.87 292.3,-131.52 301.51,-136.76 302.77,-129.87"/>
</g>
<!-- Node7 -->
<g id="node7" class="node">
<title>Node7</title>
<g id="a_node7"><a xlink:href="_enums_8h.html" target="_top" xlink:title=" ">
<polygon fill="white" stroke="black" points="175.11,-56.5 175.11,-75.5 234.11,-75.5 234.11,-56.5 175.11,-56.5"/>
<text text-anchor="middle" x="204.61" y="-63.5" font-family="Helvetica,sans-Serif" font-size="10.00">Enums.h</text>
</a>
</g>
</g>
<!-- Node5&#45;&gt;Node7 -->
<g id="edge13" class="edge">
<title>Node5&#45;&gt;Node7</title>
<path fill="none" stroke="midnightblue" d="M500,-174.95C408.44,-170.02 195.9,-156.07 174.61,-132 162.08,-117.84 175.04,-97.55 187.61,-83.42"/>
<polygon fill="midnightblue" stroke="midnightblue" points="190.41,-85.56 194.78,-75.91 185.35,-80.73 190.41,-85.56"/>
</g>
<!-- Node10 -->
<g id="node10" class="node">
<title>Node10</title>
<g id="a_node10"><a xlink:href="_initial_conditions_8h.html" target="_top" xlink:title=" ">
<polygon fill="white" stroke="black" points="326.11,-112.5 326.11,-131.5 431.11,-131.5 431.11,-112.5 326.11,-112.5"/>
<text text-anchor="middle" x="378.61" y="-119.5" font-family="Helvetica,sans-Serif" font-size="10.00">InitialConditions.h</text>
</a>
</g>
</g>
<!-- Node5&#45;&gt;Node10 -->
<g id="edge14" class="edge">
<title>Node5&#45;&gt;Node10</title>
<path fill="none" stroke="midnightblue" d="M515.78,-168.44C488.36,-159.36 444.83,-144.94 414.18,-134.78"/>
<polygon fill="midnightblue" stroke="midnightblue" points="414.91,-131.34 404.31,-131.52 412.71,-137.98 414.91,-131.34"/>
</g>
<!-- Node11 -->
<g id="node11" class="node">
<title>Node11</title>
<g id="a_node11"><a xlink:href="_material_propertys_8h.html" target="_top" xlink:title=" ">
<polygon fill="white" stroke="black" points="14.11,-112.5 14.11,-131.5 127.11,-131.5 127.11,-112.5 14.11,-112.5"/>
<text text-anchor="middle" x="70.61" y="-119.5" font-family="Helvetica,sans-Serif" font-size="10.00">MaterialPropertys.h</text>
</a>
</g>
</g>
<!-- Node5&#45;&gt;Node11 -->
<g id="edge20" class="edge">
<title>Node5&#45;&gt;Node11</title>
<path fill="none" stroke="midnightblue" d="M499.84,-172.5C427.04,-164.6 272.23,-147.63 141.61,-132 140.14,-131.82 138.66,-131.65 137.17,-131.47"/>
<polygon fill="midnightblue" stroke="midnightblue" points="137.53,-127.98 127.18,-130.24 136.68,-134.93 137.53,-127.98"/>
</g>
<!-- Node12 -->
<g id="node12" class="node">
<title>Node12</title>
<g id="a_node12"><a xlink:href="_nalu_parsed_types_8h.html" target="_top" xlink:title=" ">
<polygon fill="white" stroke="black" points="487.61,-112.5 487.61,-131.5 595.61,-131.5 595.61,-112.5 487.61,-112.5"/>
<text text-anchor="middle" x="541.61" y="-119.5" font-family="Helvetica,sans-Serif" font-size="10.00">NaluParsedTypes.h</text>
</a>
</g>
</g>
<!-- Node5&#45;&gt;Node12 -->
<g id="edge25" class="edge">
<title>Node5&#45;&gt;Node12</title>
<path fill="none" stroke="midnightblue" d="M541.61,-168.08C541.61,-161.01 541.61,-150.86 541.61,-141.99"/>
<polygon fill="midnightblue" stroke="midnightblue" points="545.11,-141.75 541.61,-131.75 538.11,-141.75 545.11,-141.75"/>
</g>
<!-- Node13 -->
<g id="node13" class="node">
<title>Node13</title>
<g id="a_node13"><a xlink:href="_nalu_parsing_helper_8h.html" target="_top" xlink:title=" ">
<polygon fill="white" stroke="black" points="764.11,-112.5 764.11,-131.5 879.11,-131.5 879.11,-112.5 764.11,-112.5"/>
<text text-anchor="middle" x="821.61" y="-119.5" font-family="Helvetica,sans-Serif" font-size="10.00">NaluParsingHelper.h</text>
</a>
</g>
</g>
<!-- Node5&#45;&gt;Node13 -->
<g id="edge28" class="edge">
<title>Node5&#45;&gt;Node13</title>
<path fill="none" stroke="midnightblue" d="M583.22,-168.97C632.17,-159.53 713.56,-143.84 767.4,-133.45"/>
<polygon fill="midnightblue" stroke="midnightblue" points="768.29,-136.85 777.45,-131.52 766.97,-129.97 768.29,-136.85"/>
</g>
<!-- Node14 -->
<g id="node14" class="node">
<title>Node14</title>
<g id="a_node14"><a xlink:title=" ">
<polygon fill="white" stroke="#bfbfbf" points="684.11,-56.5 684.11,-75.5 783.11,-75.5 783.11,-56.5 684.11,-56.5"/>
<text text-anchor="middle" x="733.61" y="-63.5" font-family="Helvetica,sans-Serif" font-size="10.00">yaml&#45;cpp/yaml.h</text>
</a>
</g>
</g>
<!-- Node5&#45;&gt;Node14 -->
<g id="edge38" class="edge">
<title>Node5&#45;&gt;Node14</title>
<path fill="none" stroke="midnightblue" d="M583.13,-177.46C622.41,-175.6 680.45,-166.56 715.61,-132 727.73,-120.08 731.89,-100.78 733.22,-86.29"/>
<polygon fill="midnightblue" stroke="midnightblue" points="736.74,-86.12 733.78,-75.95 729.75,-85.74 736.74,-86.12"/>
</g>
<!-- Node15 -->
<g id="node15" class="node">
<title>Node15</title>
<g id="a_node15"><a xlink:title=" ">
<polygon fill="white" stroke="#bfbfbf" points="839.61,-56.5 839.61,-75.5 899.61,-75.5 899.61,-56.5 839.61,-56.5"/>
<text text-anchor="middle" x="869.61" y="-63.5" font-family="Helvetica,sans-Serif" font-size="10.00">iostream</text>
</a>
</g>
</g>
<!-- Node5&#45;&gt;Node15 -->
<g id="edge39" class="edge">
<title>Node5&#45;&gt;Node15</title>
<path fill="none" stroke="midnightblue" d="M583.27,-173.05C673.08,-164.34 877.64,-143.35 887.61,-132 899.27,-118.72 890.92,-98.5 882.11,-84.15"/>
<polygon fill="midnightblue" stroke="midnightblue" points="884.92,-82.06 876.45,-75.69 879.1,-85.95 884.92,-82.06"/>
</g>
<!-- Node16 -->
<g id="node16" class="node">
<title>Node16</title>
<g id="a_node16"><a xlink:title=" ">
<polygon fill="white" stroke="#bfbfbf" points="918.11,-56.5 918.11,-75.5 973.11,-75.5 973.11,-56.5 918.11,-56.5"/>
<text text-anchor="middle" x="945.61" y="-63.5" font-family="Helvetica,sans-Serif" font-size="10.00">fstream</text>
</a>
</g>
</g>
<!-- Node5&#45;&gt;Node16 -->
<g id="edge40" class="edge">
<title>Node5&#45;&gt;Node16</title>
<path fill="none" stroke="midnightblue" d="M583.28,-173.85C672.87,-166.78 877.9,-148.96 904.61,-132 921.63,-121.19 932.84,-100.49 939.17,-85.35"/>
<polygon fill="midnightblue" stroke="midnightblue" points="942.47,-86.53 942.79,-75.94 935.93,-84.02 942.47,-86.53"/>
</g>
<!-- Node17 -->
<g id="node17" class="node">
<title>Node17</title>
<g id="a_node17"><a xlink:href="_nalu_env_8h.html" target="_top" xlink:title=" ">
<polygon fill="white" stroke="black" points="978.11,-112.5 978.11,-131.5 1043.11,-131.5 1043.11,-112.5 978.11,-112.5"/>
<text text-anchor="middle" x="1010.61" y="-119.5" font-family="Helvetica,sans-Serif" font-size="10.00">NaluEnv.h</text>
</a>
</g>
</g>
<!-- Node5&#45;&gt;Node17 -->
<g id="edge34" class="edge">
<title>Node5&#45;&gt;Node17</title>
<path fill="none" stroke="midnightblue" d="M583.25,-173.45C658.56,-166.83 822.3,-151.48 959.61,-132 962.31,-131.62 965.09,-131.2 967.89,-130.76"/>
<polygon fill="midnightblue" stroke="midnightblue" points="968.71,-134.17 978.01,-129.09 967.58,-127.26 968.71,-134.17"/>
</g>
<!-- Node6&#45;&gt;Node3 -->
<g id="edge10" class="edge">
<title>Node6&#45;&gt;Node3</title>
<path fill="none" stroke="midnightblue" d="M248.04,-112.37C253.07,-94.54 264.69,-53.3 271.46,-29.27"/>
<polygon fill="midnightblue" stroke="midnightblue" points="274.84,-30.17 274.19,-19.59 268.11,-28.27 274.84,-30.17"/>
</g>
<!-- Node6&#45;&gt;Node4 -->
<g id="edge11" class="edge">
<title>Node6&#45;&gt;Node4</title>
<path fill="none" stroke="midnightblue" d="M280.63,-112.44C322.48,-102.22 392,-85.23 433.15,-75.18"/>
<polygon fill="midnightblue" stroke="midnightblue" points="434.08,-78.55 442.97,-72.78 432.42,-71.75 434.08,-78.55"/>
</g>
<!-- Node6&#45;&gt;Node7 -->
<g id="edge6" class="edge">
<title>Node6&#45;&gt;Node7</title>
<path fill="none" stroke="midnightblue" d="M238.84,-112.08C233.05,-104.46 224.55,-93.26 217.47,-83.94"/>
<polygon fill="midnightblue" stroke="midnightblue" points="220.09,-81.6 211.25,-75.75 214.51,-85.83 220.09,-81.6"/>
</g>
<!-- Node8 -->
<g id="node8" class="node">
<title>Node8</title>
<g id="a_node8"><a xlink:title=" ">
<polygon fill="white" stroke="#bfbfbf" points="170.61,-0.5 170.61,-19.5 208.61,-19.5 208.61,-0.5 170.61,-0.5"/>
<text text-anchor="middle" x="189.61" y="-7.5" font-family="Helvetica,sans-Serif" font-size="10.00">map</text>
</a>
</g>
</g>
<!-- Node6&#45;&gt;Node8 -->
<g id="edge9" class="edge">
<title>Node6&#45;&gt;Node8</title>
<path fill="none" stroke="midnightblue" d="M215.36,-112.49C197.48,-105.73 176.31,-94.29 165.61,-76 156.64,-60.67 166,-41.4 175.53,-27.83"/>
<polygon fill="midnightblue" stroke="midnightblue" points="178.35,-29.92 181.63,-19.84 172.78,-25.67 178.35,-29.92"/>
</g>
<!-- Node9 -->
<g id="node9" class="node">
<title>Node9</title>
<g id="a_node9"><a xlink:title=" ">
<polygon fill="white" stroke="#bfbfbf" points="290.61,-56.5 290.61,-75.5 348.61,-75.5 348.61,-56.5 290.61,-56.5"/>
<text text-anchor="middle" x="319.61" y="-63.5" font-family="Helvetica,sans-Serif" font-size="10.00">memory</text>
</a>
</g>
</g>
<!-- Node6&#45;&gt;Node9 -->
<g id="edge12" class="edge">
<title>Node6&#45;&gt;Node9</title>
<path fill="none" stroke="midnightblue" d="M257.5,-112.32C268.76,-104.11 285.89,-91.6 299.32,-81.81"/>
<polygon fill="midnightblue" stroke="midnightblue" points="301.49,-84.56 307.5,-75.83 297.36,-78.9 301.49,-84.56"/>
</g>
<!-- Node7&#45;&gt;Node3 -->
<g id="edge7" class="edge">
<title>Node7&#45;&gt;Node3</title>
<path fill="none" stroke="midnightblue" d="M216.18,-56.32C227.03,-48.18 243.49,-35.84 256.49,-26.09"/>
<polygon fill="midnightblue" stroke="midnightblue" points="258.93,-28.63 264.83,-19.83 254.73,-23.03 258.93,-28.63"/>
</g>
<!-- Node7&#45;&gt;Node8 -->
<g id="edge8" class="edge">
<title>Node7&#45;&gt;Node8</title>
<path fill="none" stroke="midnightblue" d="M202.13,-56.08C200.12,-48.85 197.22,-38.41 194.72,-29.4"/>
<polygon fill="midnightblue" stroke="midnightblue" points="198.09,-28.45 192.04,-19.75 191.34,-30.32 198.09,-28.45"/>
</g>
<!-- Node10&#45;&gt;Node3 -->
<g id="edge17" class="edge">
<title>Node10&#45;&gt;Node3</title>
<path fill="none" stroke="midnightblue" d="M383.98,-112.17C391.33,-98.84 402.36,-73.27 390.61,-56 372.43,-29.29 335.71,-18.43 308.84,-14.02"/>
<polygon fill="midnightblue" stroke="midnightblue" points="309.12,-10.52 298.73,-12.58 308.13,-17.45 309.12,-10.52"/>
</g>
<!-- Node10&#45;&gt;Node4 -->
<g id="edge18" class="edge">
<title>Node10&#45;&gt;Node4</title>
<path fill="none" stroke="midnightblue" d="M392.75,-112.32C406.47,-103.9 427.54,-90.97 443.67,-81.07"/>
<polygon fill="midnightblue" stroke="midnightblue" points="445.81,-83.87 452.5,-75.65 442.15,-77.9 445.81,-83.87"/>
</g>
<!-- Node10&#45;&gt;Node7 -->
<g id="edge15" class="edge">
<title>Node10&#45;&gt;Node7</title>
<path fill="none" stroke="midnightblue" d="M351.04,-112.44C321.51,-103.28 274.49,-88.69 241.73,-78.52"/>
<polygon fill="midnightblue" stroke="midnightblue" points="242.64,-75.14 232.05,-75.52 240.56,-81.82 242.64,-75.14"/>
</g>
<!-- Node10&#45;&gt;Node8 -->
<g id="edge16" class="edge">
<title>Node10&#45;&gt;Node8</title>
<path fill="none" stroke="midnightblue" d="M378.34,-112.49C377.44,-98.62 373.6,-71.2 357.61,-56 337.73,-37.11 261.51,-22.38 218.89,-15.41"/>
<polygon fill="midnightblue" stroke="midnightblue" points="219.26,-11.92 208.83,-13.8 218.15,-18.83 219.26,-11.92"/>
</g>
<!-- Node10&#45;&gt;Node9 -->
<g id="edge19" class="edge">
<title>Node10&#45;&gt;Node9</title>
<path fill="none" stroke="midnightblue" d="M369.13,-112.32C360.41,-104.34 347.26,-92.31 336.71,-82.65"/>
<polygon fill="midnightblue" stroke="midnightblue" points="339,-80 329.26,-75.83 334.27,-85.17 339,-80"/>
</g>
<!-- Node11&#45;&gt;Node3 -->
<g id="edge23" class="edge">
<title>Node11&#45;&gt;Node3</title>
<path fill="none" stroke="midnightblue" d="M81.52,-112.38C98.69,-99.08 133.38,-73.3 165.61,-56 191.3,-42.21 222.16,-30.02 244.81,-21.82"/>
<polygon fill="midnightblue" stroke="midnightblue" points="246.03,-25.1 254.28,-18.45 243.69,-18.51 246.03,-25.1"/>
</g>
<!-- Node11&#45;&gt;Node4 -->
<g id="edge24" class="edge">
<title>Node11&#45;&gt;Node4</title>
<path fill="none" stroke="midnightblue" d="M127.34,-113.26C210.98,-101.86 364.79,-80.88 432.77,-71.61"/>
<polygon fill="midnightblue" stroke="midnightblue" points="433.49,-75.05 442.92,-70.23 432.54,-68.11 433.49,-75.05"/>
</g>
<!-- Node11&#45;&gt;Node7 -->
<g id="edge21" class="edge">
<title>Node11&#45;&gt;Node7</title>
<path fill="none" stroke="midnightblue" d="M91.84,-112.44C113.99,-103.52 148.93,-89.44 174.04,-79.32"/>
<polygon fill="midnightblue" stroke="midnightblue" points="175.51,-82.5 183.47,-75.52 172.89,-76.01 175.51,-82.5"/>
</g>
<!-- Node11&#45;&gt;Node8 -->
<g id="edge22" class="edge">
<title>Node11&#45;&gt;Node8</title>
<path fill="none" stroke="midnightblue" d="M71.69,-112.34C73.8,-98.76 79.67,-72.33 94.61,-56 112.29,-36.68 140,-24.88 160.94,-18.24"/>
<polygon fill="midnightblue" stroke="midnightblue" points="162.01,-21.57 170.6,-15.38 160.02,-14.86 162.01,-21.57"/>
</g>
<!-- Node12&#45;&gt;Node3 -->
<g id="edge26" class="edge">
<title>Node12&#45;&gt;Node3</title>
<path fill="none" stroke="midnightblue" d="M538.4,-112.23C532.72,-98.01 519.48,-70.07 498.61,-56 440.22,-16.64 354.91,-10.32 308.9,-10.08"/>
<polygon fill="midnightblue" stroke="midnightblue" points="308.88,-6.58 298.89,-10.13 308.91,-13.58 308.88,-6.58"/>
</g>
<!-- Node12&#45;&gt;Node4 -->
<g id="edge27" class="edge">
<title>Node12&#45;&gt;Node4</title>
<path fill="none" stroke="midnightblue" d="M529.56,-112.32C518.14,-104.11 500.78,-91.6 487.17,-81.81"/>
<polygon fill="midnightblue" stroke="midnightblue" points="489.04,-78.84 478.88,-75.83 484.95,-84.52 489.04,-78.84"/>
</g>
<!-- Node13&#45;&gt;Node3 -->
<g id="edge32" class="edge">
<title>Node13&#45;&gt;Node3</title>
<path fill="none" stroke="midnightblue" d="M820.35,-112.06C817.79,-97.58 810.52,-69.3 791.61,-56 752.12,-28.24 415.37,-15.36 308.8,-11.95"/>
<polygon fill="midnightblue" stroke="midnightblue" points="308.76,-8.45 298.66,-11.64 308.54,-15.45 308.76,-8.45"/>
</g>
<!-- Node13&#45;&gt;Node4 -->
<g id="edge33" class="edge">
<title>Node13&#45;&gt;Node4</title>
<path fill="none" stroke="midnightblue" d="M765.36,-112.44C690.85,-101.11 561.73,-81.47 500.59,-72.17"/>
<polygon fill="midnightblue" stroke="midnightblue" points="500.75,-68.65 490.33,-70.61 499.69,-75.57 500.75,-68.65"/>
</g>
<!-- Node13&#45;&gt;Node14 -->
<g id="edge29" class="edge">
<title>Node13&#45;&gt;Node14</title>
<path fill="none" stroke="midnightblue" d="M807.47,-112.32C793.74,-103.9 772.67,-90.97 756.54,-81.07"/>
<polygon fill="midnightblue" stroke="midnightblue" points="758.07,-77.9 747.71,-75.65 754.4,-83.87 758.07,-77.9"/>
</g>
<!-- Node13&#45;&gt;Node15 -->
<g id="edge30" class="edge">
<title>Node13&#45;&gt;Node15</title>
<path fill="none" stroke="midnightblue" d="M829.53,-112.08C836.45,-104.3 846.67,-92.8 855.06,-83.37"/>
<polygon fill="midnightblue" stroke="midnightblue" points="857.8,-85.55 861.83,-75.75 852.57,-80.9 857.8,-85.55"/>
</g>
<!-- Node13&#45;&gt;Node16 -->
<g id="edge31" class="edge">
<title>Node13&#45;&gt;Node16</title>
<path fill="none" stroke="midnightblue" d="M841.26,-112.44C861.57,-103.6 893.51,-89.69 916.71,-79.59"/>
<polygon fill="midnightblue" stroke="midnightblue" points="918.28,-82.72 926.05,-75.52 915.49,-76.3 918.28,-82.72"/>
</g>
<!-- Node17&#45;&gt;Node16 -->
<g id="edge36" class="edge">
<title>Node17&#45;&gt;Node16</title>
<path fill="none" stroke="midnightblue" d="M1000.16,-112.32C990.46,-104.26 975.79,-92.08 964.11,-82.37"/>
<polygon fill="midnightblue" stroke="midnightblue" points="966.17,-79.53 956.24,-75.83 961.7,-84.92 966.17,-79.53"/>
</g>
<!-- Node18 -->
<g id="node18" class="node">
<title>Node18</title>
<g id="a_node18"><a xlink:title=" ">
<polygon fill="white" stroke="#bfbfbf" points="991.61,-56.5 991.61,-75.5 1035.61,-75.5 1035.61,-56.5 991.61,-56.5"/>
<text text-anchor="middle" x="1013.61" y="-63.5" font-family="Helvetica,sans-Serif" font-size="10.00">mpi.h</text>
</a>
</g>
</g>
<!-- Node17&#45;&gt;Node18 -->
<g id="edge35" class="edge">
<title>Node17&#45;&gt;Node18</title>
<path fill="none" stroke="midnightblue" d="M1011.1,-112.08C1011.5,-105.01 1012.06,-94.86 1012.55,-85.99"/>
<polygon fill="midnightblue" stroke="midnightblue" points="1016.06,-85.93 1013.12,-75.75 1009.07,-85.54 1016.06,-85.93"/>
</g>
<!-- Node19 -->
<g id="node19" class="node">
<title>Node19</title>
<g id="a_node19"><a xlink:title=" ">
<polygon fill="white" stroke="#bfbfbf" points="1054.11,-56.5 1054.11,-75.5 1121.11,-75.5 1121.11,-56.5 1054.11,-56.5"/>
<text text-anchor="middle" x="1087.61" y="-63.5" font-family="Helvetica,sans-Serif" font-size="10.00">streambuf</text>
</a>
</g>
</g>
<!-- Node17&#45;&gt;Node19 -->
<g id="edge37" class="edge">
<title>Node17&#45;&gt;Node19</title>
<path fill="none" stroke="midnightblue" d="M1022.98,-112.32C1034.77,-104.06 1052.74,-91.45 1066.74,-81.63"/>
<polygon fill="midnightblue" stroke="midnightblue" points="1069.09,-84.26 1075.27,-75.65 1065.07,-78.53 1069.09,-84.26"/>
</g>
</g>
</svg>
