<?xml version="1.0" encoding="UTF-8" standalone="no"?>
<!DOCTYPE svg PUBLIC "-//W3C//DTD SVG 1.1//EN"
 "http://www.w3.org/Graphics/SVG/1.1/DTD/svg11.dtd">
<!-- Generated by graphviz version 2.43.0 (0)
 -->
<!-- Title: BdyLayerStatistics.h Pages: 1 -->
<svg width="1060pt" height="137pt"
 viewBox="0.00 0.00 1060.00 137.00" xmlns="http://www.w3.org/2000/svg" xmlns:xlink="http://www.w3.org/1999/xlink">
<g id="graph0" class="graph" transform="scale(1 1) rotate(0) translate(4 133)">
<title>BdyLayerStatistics.h</title>
<!-- Node1 -->
<g id="Node000001" class="node">
<title>Node1</title>
<g id="a_Node000001"><a xlink:title=" ">
<polygon fill="#999999" stroke="#666666" points="848.5,-129 732.5,-129 732.5,-110 848.5,-110 848.5,-129"/>
<text text-anchor="middle" x="790.5" y="-117" font-family="Helvetica,sans-Serif" font-size="10.00">BdyLayerStatistics.h</text>
</a>
</g>
</g>
<!-- Node2 -->
<g id="Node000002" class="node">
<title>Node2</title>
<g id="a_Node000002"><a xlink:href="_kokkos_interface_8h.html" target="_top" xlink:title=" ">
<polygon fill="white" stroke="#666666" points="338.5,-74 234.5,-74 234.5,-55 338.5,-55 338.5,-74"/>
<text text-anchor="middle" x="286.5" y="-62" font-family="Helvetica,sans-Serif" font-size="10.00">KokkosInterface.h</text>
</a>
</g>
</g>
<!-- Node1&#45;&gt;Node2 -->
<g id="edge1_Node000001_Node000002" class="edge">
<title>Node1&#45;&gt;Node2</title>
<g id="a_edge1_Node000001_Node000002"><a xlink:title=" ">
<path fill="none" stroke="#63b8ff" d="M732.19,-112.37C636.47,-102.3 446.85,-82.36 348.66,-72.04"/>
<polygon fill="#63b8ff" stroke="#63b8ff" points="348.9,-68.54 338.59,-70.98 348.17,-75.5 348.9,-68.54"/>
</a>
</g>
</g>
<!-- Node7 -->
<g id="Node000007" class="node">
<title>Node7</title>
<g id="a_Node000007"><a xlink:href="_field_type_def_8h.html" target="_top" xlink:title=" ">
<polygon fill="white" stroke="#666666" points="770.5,-74 682.5,-74 682.5,-55 770.5,-55 770.5,-74"/>
<text text-anchor="middle" x="726.5" y="-62" font-family="Helvetica,sans-Serif" font-size="10.00">FieldTypeDef.h</text>
</a>
</g>
</g>
<!-- Node1&#45;&gt;Node7 -->
<g id="edge6_Node000001_Node000007" class="edge">
<title>Node1&#45;&gt;Node7</title>
<g id="a_edge6_Node000001_Node000007"><a xlink:title=" ">
<path fill="none" stroke="#63b8ff" d="M780.22,-109.98C770.66,-102.07 756.22,-90.11 744.72,-80.58"/>
<polygon fill="#63b8ff" stroke="#63b8ff" points="746.9,-77.85 736.97,-74.17 742.44,-83.24 746.9,-77.85"/>
</a>
</g>
</g>
<!-- Node12 -->
<g id="Node000012" class="node">
<title>Node12</title>
<g id="a_Node000012"><a xlink:title=" ">
<polygon fill="#e0e0e0" stroke="#999999" points="922,-74 789,-74 789,-55 922,-55 922,-74"/>
<text text-anchor="middle" x="855.5" y="-62" font-family="Helvetica,sans-Serif" font-size="10.00">stk_mesh/base/Part.hpp</text>
</a>
</g>
</g>
<!-- Node1&#45;&gt;Node12 -->
<g id="edge11_Node000001_Node000012" class="edge">
<title>Node1&#45;&gt;Node12</title>
<g id="a_edge11_Node000001_Node000012"><a xlink:title=" ">
<path fill="none" stroke="#63b8ff" d="M800.94,-109.98C810.65,-102.07 825.32,-90.11 837,-80.58"/>
<polygon fill="#63b8ff" stroke="#63b8ff" points="839.33,-83.2 844.87,-74.17 834.9,-77.78 839.33,-83.2"/>
</a>
</g>
</g>
<!-- Node13 -->
<g id="Node000013" class="node">
<title>Node13</title>
<g id="a_Node000013"><a xlink:title=" ">
<polygon fill="#e0e0e0" stroke="#999999" points="998.5,-74 940.5,-74 940.5,-55 998.5,-55 998.5,-74"/>
<text text-anchor="middle" x="969.5" y="-62" font-family="Helvetica,sans-Serif" font-size="10.00">memory</text>
</a>
</g>
</g>
<!-- Node1&#45;&gt;Node13 -->
<g id="edge12_Node000001_Node000013" class="edge">
<title>Node1&#45;&gt;Node13</title>
<g id="a_edge12_Node000001_Node000013"><a xlink:title=" ">
<path fill="none" stroke="#63b8ff" d="M819.26,-109.98C849.44,-101.05 897.07,-86.94 930.6,-77.02"/>
<polygon fill="#63b8ff" stroke="#63b8ff" points="931.92,-80.28 940.52,-74.08 929.93,-73.57 931.92,-80.28"/>
</a>
</g>
</g>
<!-- Node3 -->
<g id="Node000003" class="node">
<title>Node3</title>
<g id="a_Node000003"><a xlink:title=" ">
<polygon fill="#e0e0e0" stroke="#999999" points="53,-19 0,-19 0,0 53,0 53,-19"/>
<text text-anchor="middle" x="26.5" y="-7" font-family="Helvetica,sans-Serif" font-size="10.00">cstddef</text>
</a>
</g>
</g>
<!-- Node2&#45;&gt;Node3 -->
<g id="edge2_Node000002_Node000003" class="edge">
<title>Node2&#45;&gt;Node3</title>
<g id="a_edge2_Node000002_Node000003"><a xlink:title=" ">
<path fill="none" stroke="#63b8ff" d="M240.27,-54.96C196.84,-46.8 129.79,-33.86 63.06,-19.28"/>
<polygon fill="#63b8ff" stroke="#63b8ff" points="63.74,-15.84 53.23,-17.12 62.24,-22.68 63.74,-15.84"/>
</a>
</g>
</g>
<!-- Node4 -->
<g id="Node000004" class="node">
<title>Node4</title>
<g id="a_Node000004"><a xlink:title=" ">
<polygon fill="#e0e0e0" stroke="#999999" points="212,-19 71,-19 71,0 212,0 212,-19"/>
<text text-anchor="middle" x="141.5" y="-7" font-family="Helvetica,sans-Serif" font-size="10.00">stk_mesh/base/Entity.hpp</text>
</a>
</g>
</g>
<!-- Node2&#45;&gt;Node4 -->
<g id="edge3_Node000002_Node000004" class="edge">
<title>Node2&#45;&gt;Node4</title>
<g id="a_edge3_Node000002_Node000004"><a xlink:title=" ">
<path fill="none" stroke="#63b8ff" d="M263.2,-54.98C239.25,-46.23 201.72,-32.51 174.67,-22.62"/>
<polygon fill="#63b8ff" stroke="#63b8ff" points="175.81,-19.32 165.22,-19.17 173.41,-25.89 175.81,-19.32"/>
</a>
</g>
</g>
<!-- Node5 -->
<g id="Node000005" class="node">
<title>Node5</title>
<g id="a_Node000005"><a xlink:title=" ">
<polygon fill="#e0e0e0" stroke="#999999" points="343,-19 230,-19 230,0 343,0 343,-19"/>
<text text-anchor="middle" x="286.5" y="-7" font-family="Helvetica,sans-Serif" font-size="10.00">Kokkos_Macros.hpp</text>
</a>
</g>
</g>
<!-- Node2&#45;&gt;Node5 -->
<g id="edge4_Node000002_Node000005" class="edge">
<title>Node2&#45;&gt;Node5</title>
<g id="a_edge4_Node000002_Node000005"><a xlink:title=" ">
<path fill="none" stroke="#63b8ff" d="M286.5,-54.75C286.5,-47.8 286.5,-37.85 286.5,-29.13"/>
<polygon fill="#63b8ff" stroke="#63b8ff" points="290,-29.09 286.5,-19.09 283,-29.09 290,-29.09"/>
</a>
</g>
</g>
<!-- Node6 -->
<g id="Node000006" class="node">
<title>Node6</title>
<g id="a_Node000006"><a xlink:title=" ">
<polygon fill="#e0e0e0" stroke="#999999" points="461.5,-19 361.5,-19 361.5,0 461.5,0 461.5,-19"/>
<text text-anchor="middle" x="411.5" y="-7" font-family="Helvetica,sans-Serif" font-size="10.00">Kokkos_Core.hpp</text>
</a>
</g>
</g>
<!-- Node2&#45;&gt;Node6 -->
<g id="edge5_Node000002_Node000006" class="edge">
<title>Node2&#45;&gt;Node6</title>
<g id="a_edge5_Node000002_Node000006"><a xlink:title=" ">
<path fill="none" stroke="#63b8ff" d="M306.58,-54.98C326.87,-46.38 358.46,-32.99 381.67,-23.15"/>
<polygon fill="#63b8ff" stroke="#63b8ff" points="383.21,-26.3 391.05,-19.17 380.48,-19.85 383.21,-26.3"/>
</a>
</g>
</g>
<!-- Node8 -->
<g id="Node000008" class="node">
<title>Node8</title>
<g id="a_Node000008"><a xlink:title=" ">
<polygon fill="#e0e0e0" stroke="#999999" points="641,-19 480,-19 480,0 641,0 641,-19"/>
<text text-anchor="middle" x="560.5" y="-7" font-family="Helvetica,sans-Serif" font-size="10.00">stk_mesh/base/FieldBase.hpp</text>
</a>
</g>
</g>
<!-- Node7&#45;&gt;Node8 -->
<g id="edge7_Node000007_Node000008" class="edge">
<title>Node7&#45;&gt;Node8</title>
<g id="a_edge7_Node000007_Node000008"><a xlink:title=" ">
<path fill="none" stroke="#63b8ff" d="M699.83,-54.98C671.96,-46.09 628.05,-32.07 596.98,-22.15"/>
<polygon fill="#63b8ff" stroke="#63b8ff" points="597.97,-18.79 587.38,-19.08 595.84,-25.46 597.97,-18.79"/>
</a>
</g>
</g>
<!-- Node9 -->
<g id="Node000009" class="node">
<title>Node9</title>
<g id="a_Node000009"><a xlink:title=" ">
<polygon fill="#e0e0e0" stroke="#999999" points="793.5,-19 659.5,-19 659.5,0 793.5,0 793.5,-19"/>
<text text-anchor="middle" x="726.5" y="-7" font-family="Helvetica,sans-Serif" font-size="10.00">stk_mesh/base/Ngp.hpp</text>
</a>
</g>
</g>
<!-- Node7&#45;&gt;Node9 -->
<g id="edge8_Node000007_Node000009" class="edge">
<title>Node7&#45;&gt;Node9</title>
<g id="a_edge8_Node000007_Node000009"><a xlink:title=" ">
<path fill="none" stroke="#63b8ff" d="M726.5,-54.75C726.5,-47.8 726.5,-37.85 726.5,-29.13"/>
<polygon fill="#63b8ff" stroke="#63b8ff" points="730,-29.09 726.5,-19.09 723,-29.09 730,-29.09"/>
</a>
</g>
</g>
<!-- Node10 -->
<g id="Node000010" class="node">
<title>Node10</title>
<g id="a_Node000010"><a xlink:title=" ">
<polygon fill="#e0e0e0" stroke="#999999" points="969,-19 812,-19 812,0 969,0 969,-19"/>
<text text-anchor="middle" x="890.5" y="-7" font-family="Helvetica,sans-Serif" font-size="10.00">stk_mesh/base/NgpField.hpp</text>
</a>
</g>
</g>
<!-- Node7&#45;&gt;Node10 -->
<g id="edge9_Node000007_Node000010" class="edge">
<title>Node7&#45;&gt;Node10</title>
<g id="a_edge9_Node000007_Node000010"><a xlink:title=" ">
<path fill="none" stroke="#63b8ff" d="M752.85,-54.98C780.26,-46.13 823.39,-32.19 854.06,-22.28"/>
<polygon fill="#63b8ff" stroke="#63b8ff" points="855.5,-25.49 863.94,-19.08 853.35,-18.83 855.5,-25.49"/>
</a>
</g>
</g>
<!-- Node11 -->
<g id="Node000011" class="node">
<title>Node11</title>
<g id="a_Node000011"><a xlink:title=" ">
<polygon fill="#e0e0e0" stroke="#999999" points="1052,-19 987,-19 987,0 1052,0 1052,-19"/>
<text text-anchor="middle" x="1019.5" y="-7" font-family="Helvetica,sans-Serif" font-size="10.00">functional</text>
</a>
</g>
</g>
<!-- Node7&#45;&gt;Node11 -->
<g id="edge10_Node000007_Node000011" class="edge">
<title>Node7&#45;&gt;Node11</title>
<g id="a_edge10_Node000007_Node000011"><a xlink:title=" ">
<path fill="none" stroke="#63b8ff" d="M770.73,-56.1C819.04,-47.92 898.96,-34.13 976.86,-19.27"/>
<polygon fill="#63b8ff" stroke="#63b8ff" points="977.68,-22.68 986.84,-17.36 976.36,-15.8 977.68,-22.68"/>
</a>
</g>
</g>
</g>
</svg>
