<?xml version="1.0" encoding="UTF-8" standalone="no"?>
<!DOCTYPE svg PUBLIC "-//W3C//DTD SVG 1.1//EN"
 "http://www.w3.org/Graphics/SVG/1.1/DTD/svg11.dtd">
<!-- Generated by graphviz version 2.43.0 (0)
 -->
<!-- Title: BoussinesqNonIsoVelocityAuxFunction.h Pages: 1 -->
<svg width="509pt" height="104pt"
 viewBox="0.00 0.00 509.00 104.00" xmlns="http://www.w3.org/2000/svg" xmlns:xlink="http://www.w3.org/1999/xlink">
<g id="graph0" class="graph" transform="scale(1 1) rotate(0) translate(4 100)">
<title>BoussinesqNonIsoVelocityAuxFunction.h</title>
<!-- Node1 -->
<g id="Node000001" class="node">
<title>Node1</title>
<g id="a_Node000001"><a xlink:title=" ">
<polygon fill="#999999" stroke="#666666" points="312,-96 167,-96 167,-66 312,-66 312,-96"/>
<text text-anchor="start" x="175" y="-84" font-family="Helvetica,sans-Serif" font-size="10.00">BoussinesqNonIsoVelocity</text>
<text text-anchor="middle" x="239.5" y="-73" font-family="Helvetica,sans-Serif" font-size="10.00">AuxFunction.h</text>
</a>
</g>
</g>
<!-- Node2 -->
<g id="Node000002" class="node">
<title>Node2</title>
<g id="a_Node000002"><a xlink:href="_boussinesq_non_iso_velocity_aux_function_8_c.html" target="_top" xlink:title=" ">
<polygon fill="white" stroke="#666666" points="145,-30 0,-30 0,0 145,0 145,-30"/>
<text text-anchor="start" x="8" y="-18" font-family="Helvetica,sans-Serif" font-size="10.00">BoussinesqNonIsoVelocity</text>
<text text-anchor="middle" x="72.5" y="-7" font-family="Helvetica,sans-Serif" font-size="10.00">AuxFunction.C</text>
</a>
</g>
</g>
<!-- Node1&#45;&gt;Node2 -->
<g id="edge1_Node000001_Node000002" class="edge">
<title>Node1&#45;&gt;Node2</title>
<g id="a_edge1_Node000001_Node000002"><a xlink:title=" ">
<path fill="none" stroke="#63b8ff" d="M193.37,-62.32C166.79,-52.14 133.84,-39.51 109.06,-30.01"/>
<polygon fill="#63b8ff" stroke="#63b8ff" points="192.26,-65.64 202.85,-65.95 194.77,-59.11 192.26,-65.64"/>
</a>
</g>
</g>
<!-- Node3 -->
<g id="Node000003" class="node">
<title>Node3</title>
<g id="a_Node000003"><a xlink:href="_low_mach_equation_system_8_c.html" target="_top" xlink:title=" ">
<polygon fill="white" stroke="#666666" points="315.5,-24.5 163.5,-24.5 163.5,-5.5 315.5,-5.5 315.5,-24.5"/>
<text text-anchor="middle" x="239.5" y="-12.5" font-family="Helvetica,sans-Serif" font-size="10.00">LowMachEquationSystem.C</text>
</a>
</g>
</g>
<!-- Node1&#45;&gt;Node3 -->
<g id="edge2_Node000001_Node000003" class="edge">
<title>Node1&#45;&gt;Node3</title>
<g id="a_edge2_Node000001_Node000003"><a xlink:title=" ">
<path fill="none" stroke="#63b8ff" d="M239.5,-55.6C239.5,-44.8 239.5,-32.78 239.5,-24.84"/>
<polygon fill="#63b8ff" stroke="#63b8ff" points="236,-55.8 239.5,-65.8 243,-55.8 236,-55.8"/>
</a>
</g>
</g>
<!-- Node4 -->
<g id="Node000004" class="node">
<title>Node4</title>
<g id="a_Node000004"><a xlink:href="_solution_norm_post_processing_8_c.html" target="_top" xlink:title=" ">
<polygon fill="white" stroke="#666666" points="501,-24.5 334,-24.5 334,-5.5 501,-5.5 501,-24.5"/>
<text text-anchor="middle" x="417.5" y="-12.5" font-family="Helvetica,sans-Serif" font-size="10.00">SolutionNormPostProcessing.C</text>
</a>
</g>
</g>
<!-- Node1&#45;&gt;Node4 -->
<g id="edge3_Node000001_Node000004" class="edge">
<title>Node1&#45;&gt;Node4</title>
<g id="a_edge3_Node000001_Node000004"><a xlink:title=" ">
<path fill="none" stroke="#63b8ff" d="M288.4,-62.42C322.69,-50.09 367.03,-34.15 393.81,-24.52"/>
<polygon fill="#63b8ff" stroke="#63b8ff" points="286.79,-59.28 278.56,-65.95 289.16,-65.86 286.79,-59.28"/>
</a>
</g>
</g>
</g>
</svg>
