<?xml version="1.0" encoding="UTF-8" standalone="no"?>
<!DOCTYPE svg PUBLIC "-//W3C//DTD SVG 1.1//EN"
 "http://www.w3.org/Graphics/SVG/1.1/DTD/svg11.dtd">
<!-- Generated by graphviz version 2.43.0 (0)
 -->
<!-- Title: BoussinesqNonIsoVelocityAuxFunction.C Pages: 1 -->
<svg width="435pt" height="162pt"
 viewBox="0.00 0.00 434.50 162.00" xmlns="http://www.w3.org/2000/svg" xmlns:xlink="http://www.w3.org/1999/xlink">
<g id="graph0" class="graph" transform="scale(1 1) rotate(0) translate(4 158)">
<title>BoussinesqNonIsoVelocityAuxFunction.C</title>
<polygon fill="white" stroke="transparent" points="-4,4 -4,-158 430.5,-158 430.5,4 -4,4"/>
<!-- Node1 -->
<g id="node1" class="node">
<title>Node1</title>
<g id="a_node1"><a xlink:title=" ">
<polygon fill="#bfbfbf" stroke="black" points="173.5,-123.5 173.5,-153.5 318.5,-153.5 318.5,-123.5 173.5,-123.5"/>
<text text-anchor="start" x="181.5" y="-141.5" font-family="Helvetica,sans-Serif" font-size="10.00">BoussinesqNonIsoVelocity</text>
<text text-anchor="middle" x="246" y="-130.5" font-family="Helvetica,sans-Serif" font-size="10.00">AuxFunction.C</text>
</a>
</g>
</g>
<!-- Node2 -->
<g id="node2" class="node">
<title>Node2</title>
<g id="a_node2"><a xlink:href="_boussinesq_non_iso_velocity_aux_function_8h.html" target="_top" xlink:title=" ">
<polygon fill="white" stroke="black" points="0,-56.5 0,-86.5 158,-86.5 158,-56.5 0,-56.5"/>
<text text-anchor="start" x="8" y="-74.5" font-family="Helvetica,sans-Serif" font-size="10.00">user_functions/Boussinesq</text>
<text text-anchor="middle" x="79" y="-63.5" font-family="Helvetica,sans-Serif" font-size="10.00">NonIsoVelocityAuxFunction.h</text>
</a>
</g>
</g>
<!-- Node1&#45;&gt;Node2 -->
<g id="edge1" class="edge">
<title>Node1&#45;&gt;Node2</title>
<path fill="none" stroke="midnightblue" d="M209.76,-123.4C184.82,-113.69 151.47,-100.71 124.7,-90.29"/>
<polygon fill="midnightblue" stroke="midnightblue" points="125.75,-86.94 115.17,-86.58 123.22,-93.47 125.75,-86.94"/>
</g>
<!-- Node4 -->
<g id="node4" class="node">
<title>Node4</title>
<g id="a_node4"><a xlink:title=" ">
<polygon fill="white" stroke="#bfbfbf" points="151.5,-0.5 151.5,-19.5 198.5,-19.5 198.5,-0.5 151.5,-0.5"/>
<text text-anchor="middle" x="175" y="-7.5" font-family="Helvetica,sans-Serif" font-size="10.00">vector</text>
</a>
</g>
</g>
<!-- Node1&#45;&gt;Node4 -->
<g id="edge6" class="edge">
<title>Node1&#45;&gt;Node4</title>
<path fill="none" stroke="midnightblue" d="M232.53,-123.35C223.84,-113.68 212.75,-100.26 205,-87 194.18,-68.49 185.68,-45.35 180.53,-29.5"/>
<polygon fill="midnightblue" stroke="midnightblue" points="183.84,-28.33 177.52,-19.83 177.15,-30.42 183.84,-28.33"/>
</g>
<!-- Node5 -->
<g id="node5" class="node">
<title>Node5</title>
<g id="a_node5"><a xlink:title=" ">
<polygon fill="white" stroke="#bfbfbf" points="214,-62 214,-81 278,-81 278,-62 214,-62"/>
<text text-anchor="middle" x="246" y="-69" font-family="Helvetica,sans-Serif" font-size="10.00">algorithm</text>
</a>
</g>
</g>
<!-- Node1&#45;&gt;Node5 -->
<g id="edge4" class="edge">
<title>Node1&#45;&gt;Node5</title>
<path fill="none" stroke="midnightblue" d="M246,-123.4C246,-114.06 246,-101.71 246,-91.52"/>
<polygon fill="midnightblue" stroke="midnightblue" points="249.5,-91.19 246,-81.19 242.5,-91.19 249.5,-91.19"/>
</g>
<!-- Node6 -->
<g id="node6" class="node">
<title>Node6</title>
<g id="a_node6"><a xlink:title=" ">
<polygon fill="white" stroke="#bfbfbf" points="296.5,-62 296.5,-81 343.5,-81 343.5,-62 296.5,-62"/>
<text text-anchor="middle" x="320" y="-69" font-family="Helvetica,sans-Serif" font-size="10.00">cmath</text>
</a>
</g>
</g>
<!-- Node1&#45;&gt;Node6 -->
<g id="edge5" class="edge">
<title>Node1&#45;&gt;Node6</title>
<path fill="none" stroke="midnightblue" d="M262.06,-123.4C273.94,-112.96 290.11,-98.75 302.36,-88"/>
<polygon fill="midnightblue" stroke="midnightblue" points="304.9,-90.42 310.1,-81.19 300.28,-85.16 304.9,-90.42"/>
</g>
<!-- Node7 -->
<g id="node7" class="node">
<title>Node7</title>
<g id="a_node7"><a xlink:title=" ">
<polygon fill="white" stroke="#bfbfbf" points="361.5,-62 361.5,-81 426.5,-81 426.5,-62 361.5,-62"/>
<text text-anchor="middle" x="394" y="-69" font-family="Helvetica,sans-Serif" font-size="10.00">stdexcept</text>
</a>
</g>
</g>
<!-- Node1&#45;&gt;Node7 -->
<g id="edge7" class="edge">
<title>Node1&#45;&gt;Node7</title>
<path fill="none" stroke="midnightblue" d="M278.11,-123.4C304.08,-111.99 340.31,-96.08 365.32,-85.1"/>
<polygon fill="midnightblue" stroke="midnightblue" points="366.88,-88.23 374.63,-81.01 364.07,-81.82 366.88,-88.23"/>
</g>
<!-- Node3 -->
<g id="node3" class="node">
<title>Node3</title>
<g id="a_node3"><a xlink:href="_aux_function_8h.html" target="_top" xlink:title=" ">
<polygon fill="white" stroke="black" points="36,-0.5 36,-19.5 122,-19.5 122,-0.5 36,-0.5"/>
<text text-anchor="middle" x="79" y="-7.5" font-family="Helvetica,sans-Serif" font-size="10.00">AuxFunction.h</text>
</a>
</g>
</g>
<!-- Node2&#45;&gt;Node3 -->
<g id="edge2" class="edge">
<title>Node2&#45;&gt;Node3</title>
<path fill="none" stroke="midnightblue" d="M79,-56.4C79,-48.47 79,-38.46 79,-29.86"/>
<polygon fill="midnightblue" stroke="midnightblue" points="82.5,-29.66 79,-19.66 75.5,-29.66 82.5,-29.66"/>
</g>
<!-- Node2&#45;&gt;Node4 -->
<g id="edge3" class="edge">
<title>Node2&#45;&gt;Node4</title>
<path fill="none" stroke="midnightblue" d="M101.75,-56.4C116.99,-46.95 136.99,-34.56 152.24,-25.11"/>
<polygon fill="midnightblue" stroke="midnightblue" points="154.38,-27.9 161.03,-19.66 150.69,-21.95 154.38,-27.9"/>
</g>
</g>
</svg>
