<?xml version="1.0" encoding="UTF-8" standalone="no"?>
<!DOCTYPE svg PUBLIC "-//W3C//DTD SVG 1.1//EN"
 "http://www.w3.org/Graphics/SVG/1.1/DTD/svg11.dtd">
<!-- Generated by graphviz version 2.43.0 (0)
 -->
<!-- Title: BoussinesqNonIsoVelocityAuxFunction.C Pages: 1 -->
<svg width="435pt" height="159pt"
 viewBox="0.00 0.00 434.50 159.00" xmlns="http://www.w3.org/2000/svg" xmlns:xlink="http://www.w3.org/1999/xlink">
<g id="graph0" class="graph" transform="scale(1 1) rotate(0) translate(4 155)">
<title>BoussinesqNonIsoVelocityAuxFunction.C</title>
<!-- Node1 -->
<g id="Node000001" class="node">
<title>Node1</title>
<g id="a_Node000001"><a xlink:title=" ">
<polygon fill="#999999" stroke="#666666" points="318.5,-151 173.5,-151 173.5,-121 318.5,-121 318.5,-151"/>
<text text-anchor="start" x="181.5" y="-139" font-family="Helvetica,sans-Serif" font-size="10.00">BoussinesqNonIsoVelocity</text>
<text text-anchor="middle" x="246" y="-128" font-family="Helvetica,sans-Serif" font-size="10.00">AuxFunction.C</text>
</a>
</g>
</g>
<!-- Node2 -->
<g id="Node000002" class="node">
<title>Node2</title>
<g id="a_Node000002"><a xlink:href="_boussinesq_non_iso_velocity_aux_function_8h.html" target="_top" xlink:title=" ">
<polygon fill="white" stroke="#666666" points="158,-85 0,-85 0,-55 158,-55 158,-85"/>
<text text-anchor="start" x="8" y="-73" font-family="Helvetica,sans-Serif" font-size="10.00">user_functions/Boussinesq</text>
<text text-anchor="middle" x="79" y="-62" font-family="Helvetica,sans-Serif" font-size="10.00">NonIsoVelocityAuxFunction.h</text>
</a>
</g>
</g>
<!-- Node1&#45;&gt;Node2 -->
<g id="edge1_Node000001_Node000002" class="edge">
<title>Node1&#45;&gt;Node2</title>
<g id="a_edge1_Node000001_Node000002"><a xlink:title=" ">
<path fill="none" stroke="#63b8ff" d="M209.35,-120.95C184.55,-111.45 151.6,-98.82 125.04,-88.64"/>
<polygon fill="#63b8ff" stroke="#63b8ff" points="126.15,-85.32 115.56,-85.01 123.65,-91.86 126.15,-85.32"/>
</a>
</g>
</g>
<!-- Node4 -->
<g id="Node000004" class="node">
<title>Node4</title>
<g id="a_Node000004"><a xlink:title=" ">
<polygon fill="#e0e0e0" stroke="#999999" points="198.5,-19 151.5,-19 151.5,0 198.5,0 198.5,-19"/>
<text text-anchor="middle" x="175" y="-7" font-family="Helvetica,sans-Serif" font-size="10.00">vector</text>
</a>
</g>
</g>
<!-- Node1&#45;&gt;Node4 -->
<g id="edge6_Node000001_Node000004" class="edge">
<title>Node1&#45;&gt;Node4</title>
<g id="a_edge6_Node000001_Node000004"><a xlink:title=" ">
<path fill="none" stroke="#63b8ff" d="M232.55,-121C223.87,-111.43 212.78,-98.14 205,-85 194.36,-67.04 185.91,-44.62 180.72,-29.09"/>
<polygon fill="#63b8ff" stroke="#63b8ff" points="183.92,-27.61 177.54,-19.16 177.26,-29.75 183.92,-27.61"/>
</a>
</g>
</g>
<!-- Node5 -->
<g id="Node000005" class="node">
<title>Node5</title>
<g id="a_Node000005"><a xlink:title=" ">
<polygon fill="#e0e0e0" stroke="#999999" points="278,-79.5 214,-79.5 214,-60.5 278,-60.5 278,-79.5"/>
<text text-anchor="middle" x="246" y="-67.5" font-family="Helvetica,sans-Serif" font-size="10.00">algorithm</text>
</a>
</g>
</g>
<!-- Node1&#45;&gt;Node5 -->
<g id="edge4_Node000001_Node000005" class="edge">
<title>Node1&#45;&gt;Node5</title>
<g id="a_edge4_Node000001_Node000005"><a xlink:title=" ">
<path fill="none" stroke="#63b8ff" d="M246,-120.8C246,-111.7 246,-99.79 246,-89.9"/>
<polygon fill="#63b8ff" stroke="#63b8ff" points="249.5,-89.84 246,-79.84 242.5,-89.84 249.5,-89.84"/>
</a>
</g>
</g>
<!-- Node6 -->
<g id="Node000006" class="node">
<title>Node6</title>
<g id="a_Node000006"><a xlink:title=" ">
<polygon fill="#e0e0e0" stroke="#999999" points="343.5,-79.5 296.5,-79.5 296.5,-60.5 343.5,-60.5 343.5,-79.5"/>
<text text-anchor="middle" x="320" y="-67.5" font-family="Helvetica,sans-Serif" font-size="10.00">cmath</text>
</a>
</g>
</g>
<!-- Node1&#45;&gt;Node6 -->
<g id="edge5_Node000001_Node000006" class="edge">
<title>Node1&#45;&gt;Node6</title>
<g id="a_edge5_Node000001_Node000006"><a xlink:title=" ">
<path fill="none" stroke="#63b8ff" d="M262.42,-120.8C274.19,-110.62 290.02,-96.93 302.1,-86.48"/>
<polygon fill="#63b8ff" stroke="#63b8ff" points="304.5,-89.03 309.77,-79.84 299.92,-83.74 304.5,-89.03"/>
</a>
</g>
</g>
<!-- Node7 -->
<g id="Node000007" class="node">
<title>Node7</title>
<g id="a_Node000007"><a xlink:title=" ">
<polygon fill="#e0e0e0" stroke="#999999" points="426.5,-79.5 361.5,-79.5 361.5,-60.5 426.5,-60.5 426.5,-79.5"/>
<text text-anchor="middle" x="394" y="-67.5" font-family="Helvetica,sans-Serif" font-size="10.00">stdexcept</text>
</a>
</g>
</g>
<!-- Node1&#45;&gt;Node7 -->
<g id="edge7_Node000001_Node000007" class="edge">
<title>Node1&#45;&gt;Node7</title>
<g id="a_edge7_Node000001_Node000007"><a xlink:title=" ">
<path fill="none" stroke="#63b8ff" d="M278.48,-120.95C304.32,-109.78 340.15,-94.29 365.03,-83.53"/>
<polygon fill="#63b8ff" stroke="#63b8ff" points="366.51,-86.7 374.3,-79.52 363.74,-80.27 366.51,-86.7"/>
</a>
</g>
</g>
<!-- Node3 -->
<g id="Node000003" class="node">
<title>Node3</title>
<g id="a_Node000003"><a xlink:href="_aux_function_8h.html" target="_top" xlink:title=" ">
<polygon fill="white" stroke="#666666" points="122,-19 36,-19 36,0 122,0 122,-19"/>
<text text-anchor="middle" x="79" y="-7" font-family="Helvetica,sans-Serif" font-size="10.00">AuxFunction.h</text>
</a>
</g>
</g>
<!-- Node2&#45;&gt;Node3 -->
<g id="edge2_Node000002_Node000003" class="edge">
<title>Node2&#45;&gt;Node3</title>
<g id="a_edge2_Node000002_Node000003"><a xlink:title=" ">
<path fill="none" stroke="#63b8ff" d="M79,-54.84C79,-47.21 79,-37.7 79,-29.45"/>
<polygon fill="#63b8ff" stroke="#63b8ff" points="82.5,-29.27 79,-19.27 75.5,-29.27 82.5,-29.27"/>
</a>
</g>
</g>
<!-- Node2&#45;&gt;Node4 -->
<g id="edge3_Node000002_Node000004" class="edge">
<title>Node2&#45;&gt;Node4</title>
<g id="a_edge3_Node000002_Node000004"><a xlink:title=" ">
<path fill="none" stroke="#63b8ff" d="M102.24,-54.84C117.4,-45.6 137.11,-33.59 152.19,-24.4"/>
<polygon fill="#63b8ff" stroke="#63b8ff" points="154.18,-27.29 160.9,-19.09 150.54,-21.31 154.18,-27.29"/>
</a>
</g>
</g>
</g>
</svg>
