<?xml version="1.0" encoding="UTF-8" standalone="no"?>
<!DOCTYPE svg PUBLIC "-//W3C//DTD SVG 1.1//EN"
 "http://www.w3.org/Graphics/SVG/1.1/DTD/svg11.dtd">
<!-- Generated by graphviz version 2.43.0 (0)
 -->
<!-- Title: CalcLoads.C Pages: 1 -->
<svg width="2510pt" height="258pt"
 viewBox="0.00 0.00 2509.50 258.00" xmlns="http://www.w3.org/2000/svg" xmlns:xlink="http://www.w3.org/1999/xlink">
<g id="graph0" class="graph" transform="scale(1 1) rotate(0) translate(4 254)">
<title>CalcLoads.C</title>
<!-- Node1 -->
<g id="Node000001" class="node">
<title>Node1</title>
<g id="a_Node000001"><a xlink:title=" ">
<polygon fill="#999999" stroke="#666666" points="1635.5,-250 1559.5,-250 1559.5,-231 1635.5,-231 1635.5,-250"/>
<text text-anchor="middle" x="1597.5" y="-238" font-family="Helvetica,sans-Serif" font-size="10.00">CalcLoads.C</text>
</a>
</g>
</g>
<!-- Node2 -->
<g id="Node000002" class="node">
<title>Node2</title>
<g id="a_Node000002"><a xlink:href="_calc_loads_8h.html" target="_top" xlink:title=" ">
<polygon fill="white" stroke="#666666" points="718,-189.5 603,-189.5 603,-170.5 718,-170.5 718,-189.5"/>
<text text-anchor="middle" x="660.5" y="-177.5" font-family="Helvetica,sans-Serif" font-size="10.00">aero/fsi/CalcLoads.h</text>
</a>
</g>
</g>
<!-- Node1&#45;&gt;Node2 -->
<g id="edge1_Node000001_Node000002" class="edge">
<title>Node1&#45;&gt;Node2</title>
<g id="a_edge1_Node000001_Node000002"><a xlink:title=" ">
<path fill="none" stroke="#63b8ff" d="M1559.32,-237.12C1416.42,-228.19 912.07,-196.71 728.21,-185.23"/>
<polygon fill="#63b8ff" stroke="#63b8ff" points="728.32,-181.73 718.13,-184.6 727.89,-188.71 728.32,-181.73"/>
</a>
</g>
</g>
<!-- Node3 -->
<g id="Node000003" class="node">
<title>Node3</title>
<g id="a_Node000003"><a xlink:href="_field_type_def_8h.html" target="_top" xlink:title=" ">
<polygon fill="white" stroke="#666666" points="382.5,-129 294.5,-129 294.5,-110 382.5,-110 382.5,-129"/>
<text text-anchor="middle" x="338.5" y="-117" font-family="Helvetica,sans-Serif" font-size="10.00">FieldTypeDef.h</text>
</a>
</g>
</g>
<!-- Node1&#45;&gt;Node3 -->
<g id="edge16_Node000001_Node000003" class="edge">
<title>Node1&#45;&gt;Node3</title>
<g id="a_edge16_Node000001_Node000003"><a xlink:title=" ">
<path fill="none" stroke="#63b8ff" d="M1559.31,-239.41C1355.69,-238.75 405.4,-233.62 357.5,-195 341.13,-181.81 337.71,-156.65 337.5,-139.24"/>
<polygon fill="#63b8ff" stroke="#63b8ff" points="341.01,-139.2 337.73,-129.12 334.01,-139.05 341.01,-139.2"/>
</a>
</g>
</g>
<!-- Node8 -->
<g id="Node000008" class="node">
<title>Node8</title>
<g id="a_Node000008"><a xlink:title=" ">
<polygon fill="#e0e0e0" stroke="#999999" points="811,-129 678,-129 678,-110 811,-110 811,-129"/>
<text text-anchor="middle" x="744.5" y="-117" font-family="Helvetica,sans-Serif" font-size="10.00">stk_mesh/base/Part.hpp</text>
</a>
</g>
</g>
<!-- Node1&#45;&gt;Node8 -->
<g id="edge45_Node000001_Node000008" class="edge">
<title>Node1&#45;&gt;Node8</title>
<g id="a_edge45_Node000001_Node000008"><a xlink:title=" ">
<path fill="none" stroke="#63b8ff" d="M1559.41,-238.23C1439.44,-234.03 1070.48,-219.41 953.5,-195 886.41,-181 811.62,-150.47 772.24,-133.16"/>
<polygon fill="#63b8ff" stroke="#63b8ff" points="773.58,-129.92 763.02,-129.06 770.74,-136.32 773.58,-129.92"/>
</a>
</g>
</g>
<!-- Node15 -->
<g id="Node000015" class="node">
<title>Node15</title>
<g id="a_Node000015"><a xlink:href="_algorithm_8h.html" target="_top" xlink:title=" ">
<polygon fill="white" stroke="#666666" points="440.5,-189.5 366.5,-189.5 366.5,-170.5 440.5,-170.5 440.5,-189.5"/>
<text text-anchor="middle" x="403.5" y="-177.5" font-family="Helvetica,sans-Serif" font-size="10.00">Algorithm.h</text>
</a>
</g>
</g>
<!-- Node1&#45;&gt;Node15 -->
<g id="edge14_Node000001_Node000015" class="edge">
<title>Node1&#45;&gt;Node15</title>
<g id="a_edge14_Node000001_Node000015"><a xlink:title=" ">
<path fill="none" stroke="#63b8ff" d="M1559.27,-239.19C1386.15,-237.59 674.55,-229.03 454.5,-195 449.71,-194.26 444.72,-193.23 439.82,-192.06"/>
<polygon fill="#63b8ff" stroke="#63b8ff" points="440.54,-188.63 429.98,-189.51 438.79,-195.4 440.54,-188.63"/>
</a>
</g>
</g>
<!-- Node16 -->
<g id="Node000016" class="node">
<title>Node16</title>
<g id="a_Node000016"><a xlink:title=" ">
<polygon fill="#e0e0e0" stroke="#999999" points="637,-74 590,-74 590,-55 637,-55 637,-74"/>
<text text-anchor="middle" x="613.5" y="-62" font-family="Helvetica,sans-Serif" font-size="10.00">vector</text>
</a>
</g>
</g>
<!-- Node1&#45;&gt;Node16 -->
<g id="edge49_Node000001_Node000016" class="edge">
<title>Node1&#45;&gt;Node16</title>
<g id="a_edge49_Node000001_Node000016"><a xlink:title=" ">
<path fill="none" stroke="#63b8ff" d="M1559.33,-238.91C1387.15,-236.09 687.22,-223 593.5,-195 538.51,-178.57 510.88,-178.89 482.5,-129 478.32,-121.66 477.58,-116.86 482.5,-110 488.38,-101.79 543.08,-85.16 579.91,-74.72"/>
<polygon fill="#63b8ff" stroke="#63b8ff" points="581.09,-78.02 589.77,-71.95 579.19,-71.28 581.09,-78.02"/>
</a>
</g>
</g>
<!-- Node17 -->
<g id="Node000017" class="node">
<title>Node17</title>
<g id="a_Node000017"><a xlink:href="_master_element_8h.html" target="_top" xlink:title=" ">
<polygon fill="white" stroke="#666666" points="1146,-189.5 963,-189.5 963,-170.5 1146,-170.5 1146,-189.5"/>
<text text-anchor="middle" x="1054.5" y="-177.5" font-family="Helvetica,sans-Serif" font-size="10.00">master_element/MasterElement.h</text>
</a>
</g>
</g>
<!-- Node1&#45;&gt;Node17 -->
<g id="edge17_Node000001_Node000017" class="edge">
<title>Node1&#45;&gt;Node17</title>
<g id="a_edge17_Node000001_Node000017"><a xlink:title=" ">
<path fill="none" stroke="#63b8ff" d="M1559.32,-235.39C1473.61,-226.15 1264.05,-203.58 1143.6,-190.6"/>
<polygon fill="#63b8ff" stroke="#63b8ff" points="1143.97,-187.12 1133.65,-189.53 1143.22,-194.08 1143.97,-187.12"/>
</a>
</g>
</g>
<!-- Node24 -->
<g id="Node000024" class="node">
<title>Node24</title>
<g id="a_Node000024"><a xlink:href="_master_element_repo_8h.html" target="_top" xlink:title=" ">
<polygon fill="white" stroke="#666666" points="1569.5,-195 1395.5,-195 1395.5,-165 1569.5,-165 1569.5,-195"/>
<text text-anchor="start" x="1403.5" y="-183" font-family="Helvetica,sans-Serif" font-size="10.00">master_element/MasterElement</text>
<text text-anchor="middle" x="1482.5" y="-172" font-family="Helvetica,sans-Serif" font-size="10.00">Repo.h</text>
</a>
</g>
</g>
<!-- Node1&#45;&gt;Node24 -->
<g id="edge27_Node000001_Node000024" class="edge">
<title>Node1&#45;&gt;Node24</title>
<g id="a_edge27_Node000001_Node000024"><a xlink:title=" ">
<path fill="none" stroke="#63b8ff" d="M1580.53,-230.87C1564.49,-222.71 1539.9,-210.2 1519.35,-199.75"/>
<polygon fill="#63b8ff" stroke="#63b8ff" points="1520.75,-196.53 1510.25,-195.11 1517.57,-202.77 1520.75,-196.53"/>
</a>
</g>
</g>
<!-- Node25 -->
<g id="Node000025" class="node">
<title>Node25</title>
<g id="a_Node000025"><a xlink:title=" ">
<polygon fill="#e0e0e0" stroke="#999999" points="1733.5,-129 1689.5,-129 1689.5,-110 1733.5,-110 1733.5,-129"/>
<text text-anchor="middle" x="1711.5" y="-117" font-family="Helvetica,sans-Serif" font-size="10.00">string</text>
</a>
</g>
</g>
<!-- Node1&#45;&gt;Node25 -->
<g id="edge48_Node000001_Node000025" class="edge">
<title>Node1&#45;&gt;Node25</title>
<g id="a_edge48_Node000001_Node000025"><a xlink:title=" ">
<path fill="none" stroke="#63b8ff" d="M1597.42,-230.62C1597.75,-215.45 1600.5,-184.33 1616.5,-165 1625.12,-154.58 1655.72,-141.27 1679.89,-131.93"/>
<polygon fill="#63b8ff" stroke="#63b8ff" points="1681.33,-135.13 1689.44,-128.32 1678.85,-128.58 1681.33,-135.13"/>
</a>
</g>
</g>
<!-- Node30 -->
<g id="Node000030" class="node">
<title>Node30</title>
<g id="a_Node000030"><a xlink:href="_nalu_env_8h.html" target="_top" xlink:title=" ">
<polygon fill="white" stroke="#666666" points="1691,-189.5 1626,-189.5 1626,-170.5 1691,-170.5 1691,-189.5"/>
<text text-anchor="middle" x="1658.5" y="-177.5" font-family="Helvetica,sans-Serif" font-size="10.00">NaluEnv.h</text>
</a>
</g>
</g>
<!-- Node1&#45;&gt;Node30 -->
<g id="edge37_Node000001_Node000030" class="edge">
<title>Node1&#45;&gt;Node30</title>
<g id="a_edge37_Node000001_Node000030"><a xlink:title=" ">
<path fill="none" stroke="#63b8ff" d="M1606.5,-230.87C1615.87,-221.88 1630.75,-207.61 1642.2,-196.64"/>
<polygon fill="#63b8ff" stroke="#63b8ff" points="1644.67,-199.12 1649.46,-189.67 1639.82,-194.06 1644.67,-199.12"/>
</a>
</g>
</g>
<!-- Node32 -->
<g id="Node000032" class="node">
<title>Node32</title>
<g id="a_Node000032"><a xlink:title=" ">
<polygon fill="#e0e0e0" stroke="#999999" points="1954,-129 1899,-129 1899,-110 1954,-110 1954,-129"/>
<text text-anchor="middle" x="1926.5" y="-117" font-family="Helvetica,sans-Serif" font-size="10.00">fstream</text>
</a>
</g>
</g>
<!-- Node1&#45;&gt;Node32 -->
<g id="edge46_Node000001_Node000032" class="edge">
<title>Node1&#45;&gt;Node32</title>
<g id="a_edge46_Node000001_Node000032"><a xlink:title=" ">
<path fill="none" stroke="#63b8ff" d="M1622.1,-230.95C1643.53,-223.02 1675.07,-210.17 1700.5,-195 1718.98,-183.97 1719.13,-174.37 1738.5,-165 1738.93,-164.79 1834.03,-142.33 1888.79,-129.4"/>
<polygon fill="#63b8ff" stroke="#63b8ff" points="1889.91,-132.73 1898.84,-127.03 1888.3,-125.92 1889.91,-132.73"/>
</a>
</g>
</g>
<!-- Node34 -->
<g id="Node000034" class="node">
<title>Node34</title>
<g id="a_Node000034"><a xlink:title=" ">
<polygon fill="#e0e0e0" stroke="#999999" points="1906,-189.5 1747,-189.5 1747,-170.5 1906,-170.5 1906,-189.5"/>
<text text-anchor="middle" x="1826.5" y="-177.5" font-family="Helvetica,sans-Serif" font-size="10.00">stk_mesh/base/BulkData.hpp</text>
</a>
</g>
</g>
<!-- Node1&#45;&gt;Node34 -->
<g id="edge41_Node000001_Node000034" class="edge">
<title>Node1&#45;&gt;Node34</title>
<g id="a_edge41_Node000001_Node000034"><a xlink:title=" ">
<path fill="none" stroke="#63b8ff" d="M1630.8,-230.99C1671.08,-220.7 1738.98,-203.36 1783.27,-192.04"/>
<polygon fill="#63b8ff" stroke="#63b8ff" points="1784.34,-195.38 1793.16,-189.52 1782.61,-188.6 1784.34,-195.38"/>
</a>
</g>
</g>
<!-- Node35 -->
<g id="Node000035" class="node">
<title>Node35</title>
<g id="a_Node000035"><a xlink:title=" ">
<polygon fill="#e0e0e0" stroke="#999999" points="2061,-189.5 1924,-189.5 1924,-170.5 2061,-170.5 2061,-189.5"/>
<text text-anchor="middle" x="1992.5" y="-177.5" font-family="Helvetica,sans-Serif" font-size="10.00">stk_mesh/base/Field.hpp</text>
</a>
</g>
</g>
<!-- Node1&#45;&gt;Node35 -->
<g id="edge42_Node000001_Node000035" class="edge">
<title>Node1&#45;&gt;Node35</title>
<g id="a_edge42_Node000001_Node000035"><a xlink:title=" ">
<path fill="none" stroke="#63b8ff" d="M1635.76,-234.66C1695.56,-226.98 1814.78,-211.2 1915.5,-195 1922.6,-193.86 1930.06,-192.59 1937.42,-191.3"/>
<polygon fill="#63b8ff" stroke="#63b8ff" points="1938.13,-194.73 1947.36,-189.53 1936.9,-187.83 1938.13,-194.73"/>
</a>
</g>
</g>
<!-- Node36 -->
<g id="Node000036" class="node">
<title>Node36</title>
<g id="a_Node000036"><a xlink:title=" ">
<polygon fill="#e0e0e0" stroke="#999999" points="2247.5,-189.5 2079.5,-189.5 2079.5,-170.5 2247.5,-170.5 2247.5,-189.5"/>
<text text-anchor="middle" x="2163.5" y="-177.5" font-family="Helvetica,sans-Serif" font-size="10.00">stk_mesh/base/GetEntities.hpp</text>
</a>
</g>
</g>
<!-- Node1&#45;&gt;Node36 -->
<g id="edge43_Node000001_Node000036" class="edge">
<title>Node1&#45;&gt;Node36</title>
<g id="a_edge43_Node000001_Node000036"><a xlink:title=" ">
<path fill="none" stroke="#63b8ff" d="M1635.59,-236.64C1716.06,-230.44 1909.21,-214.71 2070.5,-195 2080.22,-193.81 2090.5,-192.41 2100.53,-190.96"/>
<polygon fill="#63b8ff" stroke="#63b8ff" points="2101.07,-194.42 2110.45,-189.51 2100.05,-187.5 2101.07,-194.42"/>
</a>
</g>
</g>
<!-- Node37 -->
<g id="Node000037" class="node">
<title>Node37</title>
<g id="a_Node000037"><a xlink:title=" ">
<polygon fill="#e0e0e0" stroke="#999999" points="2427.5,-189.5 2265.5,-189.5 2265.5,-170.5 2427.5,-170.5 2427.5,-189.5"/>
<text text-anchor="middle" x="2346.5" y="-177.5" font-family="Helvetica,sans-Serif" font-size="10.00">stk_mesh/base/MetaData.hpp</text>
</a>
</g>
</g>
<!-- Node1&#45;&gt;Node37 -->
<g id="edge44_Node000001_Node000037" class="edge">
<title>Node1&#45;&gt;Node37</title>
<g id="a_edge44_Node000001_Node000037"><a xlink:title=" ">
<path fill="none" stroke="#63b8ff" d="M1635.86,-238.08C1737.39,-234.06 2021.44,-221.17 2256.5,-195 2266.28,-193.91 2276.63,-192.52 2286.69,-191.05"/>
<polygon fill="#63b8ff" stroke="#63b8ff" points="2287.25,-194.5 2296.62,-189.55 2286.21,-187.58 2287.25,-194.5"/>
</a>
</g>
</g>
<!-- Node38 -->
<g id="Node000038" class="node">
<title>Node38</title>
<g id="a_Node000038"><a xlink:title=" ">
<polygon fill="#e0e0e0" stroke="#999999" points="2501.5,-189.5 2445.5,-189.5 2445.5,-170.5 2501.5,-170.5 2501.5,-189.5"/>
<text text-anchor="middle" x="2473.5" y="-177.5" font-family="Helvetica,sans-Serif" font-size="10.00">iomanip</text>
</a>
</g>
</g>
<!-- Node1&#45;&gt;Node38 -->
<g id="edge47_Node000001_Node000038" class="edge">
<title>Node1&#45;&gt;Node38</title>
<g id="a_edge47_Node000001_Node000038"><a xlink:title=" ">
<path fill="none" stroke="#63b8ff" d="M1635.71,-239.03C1778.46,-237.05 2280.38,-227.85 2436.5,-195 2439.18,-194.44 2441.92,-193.71 2444.64,-192.88"/>
<polygon fill="#63b8ff" stroke="#63b8ff" points="2445.94,-196.14 2454.25,-189.57 2443.66,-189.52 2445.94,-196.14"/>
</a>
</g>
</g>
<!-- Node2&#45;&gt;Node3 -->
<g id="edge2_Node000002_Node000003" class="edge">
<title>Node2&#45;&gt;Node3</title>
<g id="a_edge2_Node000002_Node000003"><a xlink:title=" ">
<path fill="none" stroke="#63b8ff" d="M613.68,-170.49C554.94,-159.82 454.43,-141.56 392.5,-130.31"/>
<polygon fill="#63b8ff" stroke="#63b8ff" points="393,-126.84 382.53,-128.5 391.75,-133.73 393,-126.84"/>
</a>
</g>
</g>
<!-- Node2&#45;&gt;Node8 -->
<g id="edge7_Node000002_Node000008" class="edge">
<title>Node2&#45;&gt;Node8</title>
<g id="a_edge7_Node000002_Node000008"><a xlink:title=" ">
<path fill="none" stroke="#63b8ff" d="M672.89,-170.37C686.29,-161.04 707.88,-146.01 723.85,-134.88"/>
<polygon fill="#63b8ff" stroke="#63b8ff" points="725.85,-137.75 732.05,-129.17 721.85,-132.01 725.85,-137.75"/>
</a>
</g>
</g>
<!-- Node9 -->
<g id="Node000009" class="node">
<title>Node9</title>
<g id="a_Node000009"><a xlink:href="_force_moment_8h.html" target="_top" xlink:title=" ">
<polygon fill="white" stroke="#666666" points="659.5,-129 491.5,-129 491.5,-110 659.5,-110 659.5,-129"/>
<text text-anchor="middle" x="575.5" y="-117" font-family="Helvetica,sans-Serif" font-size="10.00">aero/aero_utils/ForceMoment.h</text>
</a>
</g>
</g>
<!-- Node2&#45;&gt;Node9 -->
<g id="edge8_Node000002_Node000009" class="edge">
<title>Node2&#45;&gt;Node9</title>
<g id="a_edge8_Node000002_Node000009"><a xlink:title=" ">
<path fill="none" stroke="#63b8ff" d="M647.96,-170.37C634.4,-161.04 612.56,-146.01 596.4,-134.88"/>
<polygon fill="#63b8ff" stroke="#63b8ff" points="598.32,-131.95 588.09,-129.17 594.35,-137.72 598.32,-131.95"/>
</a>
</g>
</g>
<!-- Node4 -->
<g id="Node000004" class="node">
<title>Node4</title>
<g id="a_Node000004"><a xlink:title=" ">
<polygon fill="#e0e0e0" stroke="#999999" points="419,-74 258,-74 258,-55 419,-55 419,-74"/>
<text text-anchor="middle" x="338.5" y="-62" font-family="Helvetica,sans-Serif" font-size="10.00">stk_mesh/base/FieldBase.hpp</text>
</a>
</g>
</g>
<!-- Node3&#45;&gt;Node4 -->
<g id="edge3_Node000003_Node000004" class="edge">
<title>Node3&#45;&gt;Node4</title>
<g id="a_edge3_Node000003_Node000004"><a xlink:title=" ">
<path fill="none" stroke="#63b8ff" d="M338.5,-109.75C338.5,-102.8 338.5,-92.85 338.5,-84.13"/>
<polygon fill="#63b8ff" stroke="#63b8ff" points="342,-84.09 338.5,-74.09 335,-84.09 342,-84.09"/>
</a>
</g>
</g>
<!-- Node5 -->
<g id="Node000005" class="node">
<title>Node5</title>
<g id="a_Node000005"><a xlink:title=" ">
<polygon fill="#e0e0e0" stroke="#999999" points="571.5,-74 437.5,-74 437.5,-55 571.5,-55 571.5,-74"/>
<text text-anchor="middle" x="504.5" y="-62" font-family="Helvetica,sans-Serif" font-size="10.00">stk_mesh/base/Ngp.hpp</text>
</a>
</g>
</g>
<!-- Node3&#45;&gt;Node5 -->
<g id="edge4_Node000003_Node000005" class="edge">
<title>Node3&#45;&gt;Node5</title>
<g id="a_edge4_Node000003_Node000005"><a xlink:title=" ">
<path fill="none" stroke="#63b8ff" d="M365.17,-109.98C393.04,-101.09 436.95,-87.07 468.02,-77.15"/>
<polygon fill="#63b8ff" stroke="#63b8ff" points="469.16,-80.46 477.62,-74.08 467.03,-73.79 469.16,-80.46"/>
</a>
</g>
</g>
<!-- Node6 -->
<g id="Node000006" class="node">
<title>Node6</title>
<g id="a_Node000006"><a xlink:title=" ">
<polygon fill="#e0e0e0" stroke="#999999" points="157,-74 0,-74 0,-55 157,-55 157,-74"/>
<text text-anchor="middle" x="78.5" y="-62" font-family="Helvetica,sans-Serif" font-size="10.00">stk_mesh/base/NgpField.hpp</text>
</a>
</g>
</g>
<!-- Node3&#45;&gt;Node6 -->
<g id="edge5_Node000003_Node000006" class="edge">
<title>Node3&#45;&gt;Node6</title>
<g id="a_edge5_Node000003_Node000006"><a xlink:title=" ">
<path fill="none" stroke="#63b8ff" d="M296.73,-109.98C251.56,-100.78 179.5,-86.09 130.65,-76.13"/>
<polygon fill="#63b8ff" stroke="#63b8ff" points="131.1,-72.65 120.6,-74.08 129.7,-79.51 131.1,-72.65"/>
</a>
</g>
</g>
<!-- Node7 -->
<g id="Node000007" class="node">
<title>Node7</title>
<g id="a_Node000007"><a xlink:title=" ">
<polygon fill="#e0e0e0" stroke="#999999" points="240,-74 175,-74 175,-55 240,-55 240,-74"/>
<text text-anchor="middle" x="207.5" y="-62" font-family="Helvetica,sans-Serif" font-size="10.00">functional</text>
</a>
</g>
</g>
<!-- Node3&#45;&gt;Node7 -->
<g id="edge6_Node000003_Node000007" class="edge">
<title>Node3&#45;&gt;Node7</title>
<g id="a_edge6_Node000003_Node000007"><a xlink:title=" ">
<path fill="none" stroke="#63b8ff" d="M317.45,-109.98C296.09,-101.34 262.8,-87.87 238.44,-78.02"/>
<polygon fill="#63b8ff" stroke="#63b8ff" points="239.51,-74.68 228.93,-74.17 236.89,-81.17 239.51,-74.68"/>
</a>
</g>
</g>
<!-- Node10 -->
<g id="Node000010" class="node">
<title>Node10</title>
<g id="a_Node000010"><a xlink:href="_kokkos_interface_8h.html" target="_top" xlink:title=" ">
<polygon fill="white" stroke="#666666" points="840.5,-74 736.5,-74 736.5,-55 840.5,-55 840.5,-74"/>
<text text-anchor="middle" x="788.5" y="-62" font-family="Helvetica,sans-Serif" font-size="10.00">KokkosInterface.h</text>
</a>
</g>
</g>
<!-- Node9&#45;&gt;Node10 -->
<g id="edge9_Node000009_Node000010" class="edge">
<title>Node9&#45;&gt;Node10</title>
<g id="a_edge9_Node000009_Node000010"><a xlink:title=" ">
<path fill="none" stroke="#63b8ff" d="M609.72,-109.98C646.26,-100.89 704.28,-86.46 744.26,-76.51"/>
<polygon fill="#63b8ff" stroke="#63b8ff" points="745.15,-79.89 754.01,-74.08 743.46,-73.1 745.15,-79.89"/>
</a>
</g>
</g>
<!-- Node11 -->
<g id="Node000011" class="node">
<title>Node11</title>
<g id="a_Node000011"><a xlink:title=" ">
<polygon fill="#e0e0e0" stroke="#999999" points="561,-19 508,-19 508,0 561,0 561,-19"/>
<text text-anchor="middle" x="534.5" y="-7" font-family="Helvetica,sans-Serif" font-size="10.00">cstddef</text>
</a>
</g>
</g>
<!-- Node10&#45;&gt;Node11 -->
<g id="edge10_Node000010_Node000011" class="edge">
<title>Node10&#45;&gt;Node11</title>
<g id="a_edge10_Node000010_Node000011"><a xlink:title=" ">
<path fill="none" stroke="#63b8ff" d="M743.93,-54.96C701.77,-46.76 636.48,-33.77 571.27,-19.34"/>
<polygon fill="#63b8ff" stroke="#63b8ff" points="571.75,-15.86 561.23,-17.1 570.23,-22.69 571.75,-15.86"/>
</a>
</g>
</g>
<!-- Node12 -->
<g id="Node000012" class="node">
<title>Node12</title>
<g id="a_Node000012"><a xlink:title=" ">
<polygon fill="#e0e0e0" stroke="#999999" points="720,-19 579,-19 579,0 720,0 720,-19"/>
<text text-anchor="middle" x="649.5" y="-7" font-family="Helvetica,sans-Serif" font-size="10.00">stk_mesh/base/Entity.hpp</text>
</a>
</g>
</g>
<!-- Node10&#45;&gt;Node12 -->
<g id="edge11_Node000010_Node000012" class="edge">
<title>Node10&#45;&gt;Node12</title>
<g id="a_edge11_Node000010_Node000012"><a xlink:title=" ">
<path fill="none" stroke="#63b8ff" d="M766.17,-54.98C743.3,-46.27 707.54,-32.63 681.64,-22.75"/>
<polygon fill="#63b8ff" stroke="#63b8ff" points="682.83,-19.46 672.24,-19.17 680.34,-26 682.83,-19.46"/>
</a>
</g>
</g>
<!-- Node13 -->
<g id="Node000013" class="node">
<title>Node13</title>
<g id="a_Node000013"><a xlink:title=" ">
<polygon fill="#e0e0e0" stroke="#999999" points="970,-19 857,-19 857,0 970,0 970,-19"/>
<text text-anchor="middle" x="913.5" y="-7" font-family="Helvetica,sans-Serif" font-size="10.00">Kokkos_Macros.hpp</text>
</a>
</g>
</g>
<!-- Node10&#45;&gt;Node13 -->
<g id="edge12_Node000010_Node000013" class="edge">
<title>Node10&#45;&gt;Node13</title>
<g id="a_edge12_Node000010_Node000013"><a xlink:title=" ">
<path fill="none" stroke="#63b8ff" d="M808.58,-54.98C828.87,-46.38 860.46,-32.99 883.67,-23.15"/>
<polygon fill="#63b8ff" stroke="#63b8ff" points="885.21,-26.3 893.05,-19.17 882.48,-19.85 885.21,-26.3"/>
</a>
</g>
</g>
<!-- Node14 -->
<g id="Node000014" class="node">
<title>Node14</title>
<g id="a_Node000014"><a xlink:title=" ">
<polygon fill="#e0e0e0" stroke="#999999" points="838.5,-19 738.5,-19 738.5,0 838.5,0 838.5,-19"/>
<text text-anchor="middle" x="788.5" y="-7" font-family="Helvetica,sans-Serif" font-size="10.00">Kokkos_Core.hpp</text>
</a>
</g>
</g>
<!-- Node10&#45;&gt;Node14 -->
<g id="edge13_Node000010_Node000014" class="edge">
<title>Node10&#45;&gt;Node14</title>
<g id="a_edge13_Node000010_Node000014"><a xlink:title=" ">
<path fill="none" stroke="#63b8ff" d="M788.5,-54.75C788.5,-47.8 788.5,-37.85 788.5,-29.13"/>
<polygon fill="#63b8ff" stroke="#63b8ff" points="792,-29.09 788.5,-19.09 785,-29.09 792,-29.09"/>
</a>
</g>
</g>
<!-- Node15&#45;&gt;Node16 -->
<g id="edge15_Node000015_Node000016" class="edge">
<title>Node15&#45;&gt;Node16</title>
<g id="a_edge15_Node000015_Node000016"><a xlink:title=" ">
<path fill="none" stroke="#63b8ff" d="M406.86,-170.33C413.02,-155.61 427.53,-125.81 449.5,-110 452.2,-108.05 532.84,-86.67 580.01,-74.27"/>
<polygon fill="#63b8ff" stroke="#63b8ff" points="581.03,-77.62 589.81,-71.7 579.25,-70.85 581.03,-77.62"/>
</a>
</g>
</g>
<!-- Node17&#45;&gt;Node10 -->
<g id="edge24_Node000017_Node000010" class="edge">
<title>Node17&#45;&gt;Node10</title>
<g id="a_edge24_Node000017_Node000010"><a xlink:title=" ">
<path fill="none" stroke="#63b8ff" d="M988.93,-170.46C949.39,-163.37 899.02,-150.78 858.5,-129 836.27,-117.05 815.48,-96.54 802.43,-82.06"/>
<polygon fill="#63b8ff" stroke="#63b8ff" points="804.9,-79.58 795.69,-74.35 799.63,-84.18 804.9,-79.58"/>
</a>
</g>
</g>
<!-- Node18 -->
<g id="Node000018" class="node">
<title>Node18</title>
<g id="a_Node000018"><a xlink:href="_alg_traits_8h.html" target="_top" xlink:title=" ">
<polygon fill="white" stroke="#666666" points="1131.5,-129 1063.5,-129 1063.5,-110 1131.5,-110 1131.5,-129"/>
<text text-anchor="middle" x="1097.5" y="-117" font-family="Helvetica,sans-Serif" font-size="10.00">AlgTraits.h</text>
</a>
</g>
</g>
<!-- Node17&#45;&gt;Node18 -->
<g id="edge18_Node000017_Node000018" class="edge">
<title>Node17&#45;&gt;Node18</title>
<g id="a_edge18_Node000017_Node000018"><a xlink:title=" ">
<path fill="none" stroke="#63b8ff" d="M1060.84,-170.37C1067.2,-161.73 1077.14,-148.2 1085.07,-137.42"/>
<polygon fill="#63b8ff" stroke="#63b8ff" points="1088.03,-139.3 1091.13,-129.17 1082.39,-135.15 1088.03,-139.3"/>
</a>
</g>
</g>
<!-- Node20 -->
<g id="Node000020" class="node">
<title>Node20</title>
<g id="a_Node000020"><a xlink:href="_simd_interface_8h.html" target="_top" xlink:title="STK SIMD Interface.">
<polygon fill="white" stroke="#666666" points="961.5,-129 867.5,-129 867.5,-110 961.5,-110 961.5,-129"/>
<text text-anchor="middle" x="914.5" y="-117" font-family="Helvetica,sans-Serif" font-size="10.00">SimdInterface.h</text>
</a>
</g>
</g>
<!-- Node17&#45;&gt;Node20 -->
<g id="edge20_Node000017_Node000020" class="edge">
<title>Node17&#45;&gt;Node20</title>
<g id="a_edge20_Node000017_Node000020"><a xlink:title=" ">
<path fill="none" stroke="#63b8ff" d="M1034.14,-170.49C1010.5,-160.62 971.3,-144.23 944.25,-132.93"/>
<polygon fill="#63b8ff" stroke="#63b8ff" points="945.46,-129.64 934.88,-129.02 942.76,-136.1 945.46,-129.64"/>
</a>
</g>
</g>
<!-- Node22 -->
<g id="Node000022" class="node">
<title>Node22</title>
<g id="a_Node000022"><a xlink:title=" ">
<polygon fill="#e0e0e0" stroke="#999999" points="1315,-129 1150,-129 1150,-110 1315,-110 1315,-129"/>
<text text-anchor="middle" x="1232.5" y="-117" font-family="Helvetica,sans-Serif" font-size="10.00">stk_util/util/ReportHandler.hpp</text>
</a>
</g>
</g>
<!-- Node17&#45;&gt;Node22 -->
<g id="edge25_Node000017_Node000022" class="edge">
<title>Node17&#45;&gt;Node22</title>
<g id="a_edge25_Node000017_Node000022"><a xlink:title=" ">
<path fill="none" stroke="#63b8ff" d="M1080.38,-170.49C1111.1,-160.4 1162.48,-143.51 1196.92,-132.19"/>
<polygon fill="#63b8ff" stroke="#63b8ff" points="1198.18,-135.46 1206.59,-129.02 1195.99,-128.81 1198.18,-135.46"/>
</a>
</g>
</g>
<!-- Node23 -->
<g id="Node000023" class="node">
<title>Node23</title>
<g id="a_Node000023"><a xlink:title=" ">
<polygon fill="#e0e0e0" stroke="#999999" points="1045,-129 980,-129 980,-110 1045,-110 1045,-129"/>
<text text-anchor="middle" x="1012.5" y="-117" font-family="Helvetica,sans-Serif" font-size="10.00">stdexcept</text>
</a>
</g>
</g>
<!-- Node17&#45;&gt;Node23 -->
<g id="edge26_Node000017_Node000023" class="edge">
<title>Node17&#45;&gt;Node23</title>
<g id="a_edge26_Node000017_Node000023"><a xlink:title=" ">
<path fill="none" stroke="#63b8ff" d="M1048.3,-170.37C1042.1,-161.73 1032.39,-148.2 1024.64,-137.42"/>
<polygon fill="#63b8ff" stroke="#63b8ff" points="1027.4,-135.25 1018.72,-129.17 1021.71,-139.33 1027.4,-135.25"/>
</a>
</g>
</g>
<!-- Node19 -->
<g id="Node000019" class="node">
<title>Node19</title>
<g id="a_Node000019"><a xlink:title=" ">
<polygon fill="#e0e0e0" stroke="#999999" points="1193,-74 1048,-74 1048,-55 1193,-55 1193,-74"/>
<text text-anchor="middle" x="1120.5" y="-62" font-family="Helvetica,sans-Serif" font-size="10.00">stk_topology/topology.hpp</text>
</a>
</g>
</g>
<!-- Node18&#45;&gt;Node19 -->
<g id="edge19_Node000018_Node000019" class="edge">
<title>Node18&#45;&gt;Node19</title>
<g id="a_edge19_Node000018_Node000019"><a xlink:title=" ">
<path fill="none" stroke="#63b8ff" d="M1101.3,-109.75C1104.41,-102.57 1108.92,-92.18 1112.79,-83.27"/>
<polygon fill="#63b8ff" stroke="#63b8ff" points="1116,-84.66 1116.77,-74.09 1109.58,-81.87 1116,-84.66"/>
</a>
</g>
</g>
<!-- Node20&#45;&gt;Node13 -->
<g id="edge22_Node000020_Node000013" class="edge">
<title>Node20&#45;&gt;Node13</title>
<g id="a_edge22_Node000020_Node000013"><a xlink:title=" ">
<path fill="none" stroke="#63b8ff" d="M913.51,-109.98C912.52,-101.04 911.06,-86.55 910.5,-74 909.83,-58.97 910.72,-41.95 911.7,-29.31"/>
<polygon fill="#63b8ff" stroke="#63b8ff" points="915.21,-29.39 912.59,-19.13 908.24,-28.79 915.21,-29.39"/>
</a>
</g>
</g>
<!-- Node20&#45;&gt;Node16 -->
<g id="edge23_Node000020_Node000016" class="edge">
<title>Node20&#45;&gt;Node16</title>
<g id="a_edge23_Node000020_Node000016"><a xlink:title=" ">
<path fill="none" stroke="#63b8ff" d="M867.47,-110.22C806.39,-99.46 701.26,-80.95 647.43,-71.47"/>
<polygon fill="#63b8ff" stroke="#63b8ff" points="647.83,-67.99 637.37,-69.7 646.61,-74.88 647.83,-67.99"/>
</a>
</g>
</g>
<!-- Node21 -->
<g id="Node000021" class="node">
<title>Node21</title>
<g id="a_Node000021"><a xlink:title=" ">
<polygon fill="#e0e0e0" stroke="#999999" points="1029.5,-74 919.5,-74 919.5,-55 1029.5,-55 1029.5,-74"/>
<text text-anchor="middle" x="974.5" y="-62" font-family="Helvetica,sans-Serif" font-size="10.00">stk_simd/Simd.hpp</text>
</a>
</g>
</g>
<!-- Node20&#45;&gt;Node21 -->
<g id="edge21_Node000020_Node000021" class="edge">
<title>Node20&#45;&gt;Node21</title>
<g id="a_edge21_Node000020_Node000021"><a xlink:title=" ">
<path fill="none" stroke="#63b8ff" d="M924.14,-109.98C933.01,-102.15 946.37,-90.34 957.11,-80.86"/>
<polygon fill="#63b8ff" stroke="#63b8ff" points="959.51,-83.41 964.68,-74.17 954.87,-78.17 959.51,-83.41"/>
</a>
</g>
</g>
<!-- Node24&#45;&gt;Node18 -->
<g id="edge33_Node000024_Node000018" class="edge">
<title>Node24&#45;&gt;Node18</title>
<g id="a_edge33_Node000024_Node000018"><a xlink:title=" ">
<path fill="none" stroke="#63b8ff" d="M1395.16,-167.46C1328.37,-158.34 1233.77,-144.83 1141.78,-129.15"/>
<polygon fill="#63b8ff" stroke="#63b8ff" points="1142.19,-125.67 1131.74,-127.43 1141,-132.57 1142.19,-125.67"/>
</a>
</g>
</g>
<!-- Node24&#45;&gt;Node22 -->
<g id="edge32_Node000024_Node000022" class="edge">
<title>Node24&#45;&gt;Node22</title>
<g id="a_edge32_Node000024_Node000022"><a xlink:title=" ">
<path fill="none" stroke="#63b8ff" d="M1422.62,-164.99C1378.54,-154.67 1319.47,-140.85 1278.94,-131.37"/>
<polygon fill="#63b8ff" stroke="#63b8ff" points="1279.59,-127.92 1269.05,-129.05 1277.99,-134.74 1279.59,-127.92"/>
</a>
</g>
</g>
<!-- Node24&#45;&gt;Node25 -->
<g id="edge28_Node000024_Node000025" class="edge">
<title>Node24&#45;&gt;Node25</title>
<g id="a_edge28_Node000024_Node000025"><a xlink:title=" ">
<path fill="none" stroke="#63b8ff" d="M1539.34,-164.97C1576.63,-155.69 1626.73,-143.09 1679.6,-129.2"/>
<polygon fill="#63b8ff" stroke="#63b8ff" points="1680.72,-132.52 1689.5,-126.59 1678.94,-125.75 1680.72,-132.52"/>
</a>
</g>
</g>
<!-- Node26 -->
<g id="Node000026" class="node">
<title>Node26</title>
<g id="a_Node000026"><a xlink:title=" ">
<polygon fill="#e0e0e0" stroke="#999999" points="1671.5,-129 1633.5,-129 1633.5,-110 1671.5,-110 1671.5,-129"/>
<text text-anchor="middle" x="1652.5" y="-117" font-family="Helvetica,sans-Serif" font-size="10.00">map</text>
</a>
</g>
</g>
<!-- Node24&#45;&gt;Node26 -->
<g id="edge29_Node000024_Node000026" class="edge">
<title>Node24&#45;&gt;Node26</title>
<g id="a_edge29_Node000024_Node000026"><a xlink:title=" ">
<path fill="none" stroke="#63b8ff" d="M1523.22,-164.99C1554.19,-154.33 1596.04,-139.93 1623.63,-130.44"/>
<polygon fill="#63b8ff" stroke="#63b8ff" points="1624.78,-133.74 1633.1,-127.18 1622.5,-127.12 1624.78,-133.74"/>
</a>
</g>
</g>
<!-- Node27 -->
<g id="Node000027" class="node">
<title>Node27</title>
<g id="a_Node000027"><a xlink:title=" ">
<polygon fill="#e0e0e0" stroke="#999999" points="1577.5,-129 1519.5,-129 1519.5,-110 1577.5,-110 1577.5,-129"/>
<text text-anchor="middle" x="1548.5" y="-117" font-family="Helvetica,sans-Serif" font-size="10.00">memory</text>
</a>
</g>
</g>
<!-- Node24&#45;&gt;Node27 -->
<g id="edge30_Node000024_Node000027" class="edge">
<title>Node24&#45;&gt;Node27</title>
<g id="a_edge30_Node000024_Node000027"><a xlink:title=" ">
<path fill="none" stroke="#63b8ff" d="M1498.48,-164.84C1508.25,-156.17 1520.77,-145.08 1530.84,-136.15"/>
<polygon fill="#63b8ff" stroke="#63b8ff" points="1533.45,-138.52 1538.61,-129.27 1528.81,-133.28 1533.45,-138.52"/>
</a>
</g>
</g>
<!-- Node28 -->
<g id="Node000028" class="node">
<title>Node28</title>
<g id="a_Node000028"><a xlink:title=" ">
<polygon fill="#e0e0e0" stroke="#999999" points="1546,-74 1477,-74 1477,-55 1546,-55 1546,-74"/>
<text text-anchor="middle" x="1511.5" y="-62" font-family="Helvetica,sans-Serif" font-size="10.00">type_traits</text>
</a>
</g>
</g>
<!-- Node24&#45;&gt;Node28 -->
<g id="edge31_Node000024_Node000028" class="edge">
<title>Node24&#45;&gt;Node28</title>
<g id="a_edge31_Node000024_Node000028"><a xlink:title=" ">
<path fill="none" stroke="#63b8ff" d="M1539.14,-164.93C1557.45,-157.41 1575.78,-146.04 1586.5,-129 1600.17,-107.26 1571.84,-89.13 1546.17,-77.89"/>
<polygon fill="#63b8ff" stroke="#63b8ff" points="1547.5,-74.65 1536.92,-74.06 1544.82,-81.12 1547.5,-74.65"/>
</a>
</g>
</g>
<!-- Node29 -->
<g id="Node000029" class="node">
<title>Node29</title>
<g id="a_Node000029"><a xlink:href="_create_device_expression_8h.html" target="_top" xlink:title=" ">
<polygon fill="white" stroke="#666666" points="1502,-129 1333,-129 1333,-110 1502,-110 1502,-129"/>
<text text-anchor="middle" x="1417.5" y="-117" font-family="Helvetica,sans-Serif" font-size="10.00">utils/CreateDeviceExpression.h</text>
</a>
</g>
</g>
<!-- Node24&#45;&gt;Node29 -->
<g id="edge34_Node000024_Node000029" class="edge">
<title>Node24&#45;&gt;Node29</title>
<g id="a_edge34_Node000024_Node000029"><a xlink:title=" ">
<path fill="none" stroke="#63b8ff" d="M1466.77,-164.84C1457.14,-156.17 1444.81,-145.08 1434.89,-136.15"/>
<polygon fill="#63b8ff" stroke="#63b8ff" points="1437.01,-133.35 1427.24,-129.27 1432.33,-138.56 1437.01,-133.35"/>
</a>
</g>
</g>
<!-- Node29&#45;&gt;Node10 -->
<g id="edge36_Node000029_Node000010" class="edge">
<title>Node29&#45;&gt;Node10</title>
<g id="a_edge36_Node000029_Node000010"><a xlink:title=" ">
<path fill="none" stroke="#63b8ff" d="M1332.95,-110.83C1329.76,-110.55 1326.6,-110.27 1323.5,-110 1152.44,-95.15 950.51,-78.63 850.74,-70.53"/>
<polygon fill="#63b8ff" stroke="#63b8ff" points="850.78,-67.02 840.53,-69.7 850.22,-74 850.78,-67.02"/>
</a>
</g>
</g>
<!-- Node29&#45;&gt;Node28 -->
<g id="edge35_Node000029_Node000028" class="edge">
<title>Node29&#45;&gt;Node28</title>
<g id="a_edge35_Node000029_Node000028"><a xlink:title=" ">
<path fill="none" stroke="#63b8ff" d="M1432.6,-109.98C1447.32,-101.69 1469.92,-88.94 1487.17,-79.22"/>
<polygon fill="#63b8ff" stroke="#63b8ff" points="1489.13,-82.13 1496.12,-74.17 1485.69,-76.03 1489.13,-82.13"/>
</a>
</g>
</g>
<!-- Node31 -->
<g id="Node000031" class="node">
<title>Node31</title>
<g id="a_Node000031"><a xlink:title=" ">
<polygon fill="#e0e0e0" stroke="#999999" points="1795.5,-129 1751.5,-129 1751.5,-110 1795.5,-110 1795.5,-129"/>
<text text-anchor="middle" x="1773.5" y="-117" font-family="Helvetica,sans-Serif" font-size="10.00">mpi.h</text>
</a>
</g>
</g>
<!-- Node30&#45;&gt;Node31 -->
<g id="edge38_Node000030_Node000031" class="edge">
<title>Node30&#45;&gt;Node31</title>
<g id="a_edge38_Node000030_Node000031"><a xlink:title=" ">
<path fill="none" stroke="#63b8ff" d="M1675.47,-170.37C1694.41,-160.73 1725.29,-145.03 1747.33,-133.81"/>
<polygon fill="#63b8ff" stroke="#63b8ff" points="1749.14,-136.82 1756.46,-129.17 1745.96,-130.58 1749.14,-136.82"/>
</a>
</g>
</g>
<!-- Node30&#45;&gt;Node32 -->
<g id="edge39_Node000030_Node000032" class="edge">
<title>Node30&#45;&gt;Node32</title>
<g id="a_edge39_Node000030_Node000032"><a xlink:title=" ">
<path fill="none" stroke="#63b8ff" d="M1685.72,-170.4C1692.17,-168.5 1699.05,-166.58 1705.5,-165 1783.67,-145.8 1806.82,-146.54 1888.37,-129.38"/>
<polygon fill="#63b8ff" stroke="#63b8ff" points="1889.57,-132.71 1898.62,-127.2 1888.11,-125.86 1889.57,-132.71"/>
</a>
</g>
</g>
<!-- Node33 -->
<g id="Node000033" class="node">
<title>Node33</title>
<g id="a_Node000033"><a xlink:title=" ">
<polygon fill="#e0e0e0" stroke="#999999" points="1881,-129 1814,-129 1814,-110 1881,-110 1881,-129"/>
<text text-anchor="middle" x="1847.5" y="-117" font-family="Helvetica,sans-Serif" font-size="10.00">streambuf</text>
</a>
</g>
</g>
<!-- Node30&#45;&gt;Node33 -->
<g id="edge40_Node000030_Node000033" class="edge">
<title>Node30&#45;&gt;Node33</title>
<g id="a_edge40_Node000030_Node000033"><a xlink:title=" ">
<path fill="none" stroke="#63b8ff" d="M1685.98,-170.49C1718.74,-160.36 1773.62,-143.37 1810.19,-132.05"/>
<polygon fill="#63b8ff" stroke="#63b8ff" points="1811.47,-135.32 1819.98,-129.02 1809.4,-128.63 1811.47,-135.32"/>
</a>
</g>
</g>
</g>
</svg>
