<?xml version="1.0" encoding="UTF-8" standalone="no"?>
<!DOCTYPE svg PUBLIC "-//W3C//DTD SVG 1.1//EN"
 "http://www.w3.org/Graphics/SVG/1.1/DTD/svg11.dtd">
<!-- Generated by graphviz version 2.43.0 (0)
 -->
<!-- Title: ComputeWallFrictionVelocityAlgorithm.h Pages: 1 -->
<svg width="861pt" height="148pt"
 viewBox="0.00 0.00 861.00 148.00" xmlns="http://www.w3.org/2000/svg" xmlns:xlink="http://www.w3.org/1999/xlink">
<g id="graph0" class="graph" transform="scale(1 1) rotate(0) translate(4 144)">
<title>ComputeWallFrictionVelocityAlgorithm.h</title>
<!-- Node1 -->
<g id="Node000001" class="node">
<title>Node1</title>
<g id="a_Node000001"><a xlink:title=" ">
<polygon fill="#999999" stroke="#666666" points="671,-140 514,-140 514,-110 671,-110 671,-140"/>
<text text-anchor="start" x="522" y="-128" font-family="Helvetica,sans-Serif" font-size="10.00">ComputeWallFrictionVelocity</text>
<text text-anchor="middle" x="592.5" y="-117" font-family="Helvetica,sans-Serif" font-size="10.00">Algorithm.h</text>
</a>
</g>
</g>
<!-- Node2 -->
<g id="Node000002" class="node">
<title>Node2</title>
<g id="a_Node000002"><a xlink:href="_algorithm_8h.html" target="_top" xlink:title=" ">
<polygon fill="white" stroke="#666666" points="575.5,-74 501.5,-74 501.5,-55 575.5,-55 575.5,-74"/>
<text text-anchor="middle" x="538.5" y="-62" font-family="Helvetica,sans-Serif" font-size="10.00">Algorithm.h</text>
</a>
</g>
</g>
<!-- Node1&#45;&gt;Node2 -->
<g id="edge1_Node000001_Node000002" class="edge">
<title>Node1&#45;&gt;Node2</title>
<g id="a_edge1_Node000001_Node000002"><a xlink:title=" ">
<path fill="none" stroke="#63b8ff" d="M579.43,-109.84C571.59,-101.35 561.59,-90.52 553.44,-81.69"/>
<polygon fill="#63b8ff" stroke="#63b8ff" points="555.95,-79.24 546.59,-74.27 550.8,-83.99 555.95,-79.24"/>
</a>
</g>
</g>
<!-- Node4 -->
<g id="Node000004" class="node">
<title>Node4</title>
<g id="a_Node000004"><a xlink:href="_field_type_def_8h.html" target="_top" xlink:title=" ">
<polygon fill="white" stroke="#666666" points="454.5,-74 366.5,-74 366.5,-55 454.5,-55 454.5,-74"/>
<text text-anchor="middle" x="410.5" y="-62" font-family="Helvetica,sans-Serif" font-size="10.00">FieldTypeDef.h</text>
</a>
</g>
</g>
<!-- Node1&#45;&gt;Node4 -->
<g id="edge3_Node000001_Node000004" class="edge">
<title>Node1&#45;&gt;Node4</title>
<g id="a_edge3_Node000001_Node000004"><a xlink:title=" ">
<path fill="none" stroke="#63b8ff" d="M548.91,-109.99C517.77,-99.98 476.36,-86.67 446.97,-77.22"/>
<polygon fill="#63b8ff" stroke="#63b8ff" points="447.7,-73.78 437.11,-74.05 445.56,-80.45 447.7,-73.78"/>
</a>
</g>
</g>
<!-- Node9 -->
<g id="Node000009" class="node">
<title>Node9</title>
<g id="a_Node000009"><a xlink:href="_nalu_parsed_types_8h.html" target="_top" xlink:title=" ">
<polygon fill="white" stroke="#666666" points="701.5,-74 593.5,-74 593.5,-55 701.5,-55 701.5,-74"/>
<text text-anchor="middle" x="647.5" y="-62" font-family="Helvetica,sans-Serif" font-size="10.00">NaluParsedTypes.h</text>
</a>
</g>
</g>
<!-- Node1&#45;&gt;Node9 -->
<g id="edge8_Node000001_Node000009" class="edge">
<title>Node1&#45;&gt;Node9</title>
<g id="a_edge8_Node000001_Node000009"><a xlink:title=" ">
<path fill="none" stroke="#63b8ff" d="M605.81,-109.84C613.8,-101.35 623.98,-90.52 632.28,-81.69"/>
<polygon fill="#63b8ff" stroke="#63b8ff" points="634.96,-83.95 639.26,-74.27 629.86,-79.15 634.96,-83.95"/>
</a>
</g>
</g>
<!-- Node11 -->
<g id="Node000011" class="node">
<title>Node11</title>
<g id="a_Node000011"><a xlink:title=" ">
<polygon fill="#e0e0e0" stroke="#999999" points="853,-74 720,-74 720,-55 853,-55 853,-74"/>
<text text-anchor="middle" x="786.5" y="-62" font-family="Helvetica,sans-Serif" font-size="10.00">stk_mesh/base/Part.hpp</text>
</a>
</g>
</g>
<!-- Node1&#45;&gt;Node11 -->
<g id="edge11_Node000001_Node000011" class="edge">
<title>Node1&#45;&gt;Node11</title>
<g id="a_edge11_Node000001_Node000011"><a xlink:title=" ">
<path fill="none" stroke="#63b8ff" d="M638.97,-109.99C672.45,-99.89 717.07,-86.44 748.44,-76.98"/>
<polygon fill="#63b8ff" stroke="#63b8ff" points="749.57,-80.29 758.13,-74.05 747.55,-73.59 749.57,-80.29"/>
</a>
</g>
</g>
<!-- Node3 -->
<g id="Node000003" class="node">
<title>Node3</title>
<g id="a_Node000003"><a xlink:title=" ">
<polygon fill="#e0e0e0" stroke="#999999" points="637,-19 590,-19 590,0 637,0 637,-19"/>
<text text-anchor="middle" x="613.5" y="-7" font-family="Helvetica,sans-Serif" font-size="10.00">vector</text>
</a>
</g>
</g>
<!-- Node2&#45;&gt;Node3 -->
<g id="edge2_Node000002_Node000003" class="edge">
<title>Node2&#45;&gt;Node3</title>
<g id="a_edge2_Node000002_Node000003"><a xlink:title=" ">
<path fill="none" stroke="#63b8ff" d="M550.55,-54.98C561.96,-46.92 579.33,-34.65 592.93,-25.03"/>
<polygon fill="#63b8ff" stroke="#63b8ff" points="595.08,-27.8 601.23,-19.17 591.04,-22.08 595.08,-27.8"/>
</a>
</g>
</g>
<!-- Node5 -->
<g id="Node000005" class="node">
<title>Node5</title>
<g id="a_Node000005"><a xlink:title=" ">
<polygon fill="#e0e0e0" stroke="#999999" points="161,-19 0,-19 0,0 161,0 161,-19"/>
<text text-anchor="middle" x="80.5" y="-7" font-family="Helvetica,sans-Serif" font-size="10.00">stk_mesh/base/FieldBase.hpp</text>
</a>
</g>
</g>
<!-- Node4&#45;&gt;Node5 -->
<g id="edge4_Node000004_Node000005" class="edge">
<title>Node4&#45;&gt;Node5</title>
<g id="a_edge4_Node000004_Node000005"><a xlink:title=" ">
<path fill="none" stroke="#63b8ff" d="M366.34,-56.41C309.16,-47.22 209.11,-31.16 143.84,-20.67"/>
<polygon fill="#63b8ff" stroke="#63b8ff" points="144.11,-17.17 133.68,-19.04 143,-24.08 144.11,-17.17"/>
</a>
</g>
</g>
<!-- Node6 -->
<g id="Node000006" class="node">
<title>Node6</title>
<g id="a_Node000006"><a xlink:title=" ">
<polygon fill="#e0e0e0" stroke="#999999" points="313.5,-19 179.5,-19 179.5,0 313.5,0 313.5,-19"/>
<text text-anchor="middle" x="246.5" y="-7" font-family="Helvetica,sans-Serif" font-size="10.00">stk_mesh/base/Ngp.hpp</text>
</a>
</g>
</g>
<!-- Node4&#45;&gt;Node6 -->
<g id="edge5_Node000004_Node000006" class="edge">
<title>Node4&#45;&gt;Node6</title>
<g id="a_edge5_Node000004_Node000006"><a xlink:title=" ">
<path fill="none" stroke="#63b8ff" d="M384.15,-54.98C356.74,-46.13 313.61,-32.19 282.94,-22.28"/>
<polygon fill="#63b8ff" stroke="#63b8ff" points="283.65,-18.83 273.06,-19.08 281.5,-25.49 283.65,-18.83"/>
</a>
</g>
</g>
<!-- Node7 -->
<g id="Node000007" class="node">
<title>Node7</title>
<g id="a_Node000007"><a xlink:title=" ">
<polygon fill="#e0e0e0" stroke="#999999" points="489,-19 332,-19 332,0 489,0 489,-19"/>
<text text-anchor="middle" x="410.5" y="-7" font-family="Helvetica,sans-Serif" font-size="10.00">stk_mesh/base/NgpField.hpp</text>
</a>
</g>
</g>
<!-- Node4&#45;&gt;Node7 -->
<g id="edge6_Node000004_Node000007" class="edge">
<title>Node4&#45;&gt;Node7</title>
<g id="a_edge6_Node000004_Node000007"><a xlink:title=" ">
<path fill="none" stroke="#63b8ff" d="M410.5,-54.75C410.5,-47.8 410.5,-37.85 410.5,-29.13"/>
<polygon fill="#63b8ff" stroke="#63b8ff" points="414,-29.09 410.5,-19.09 407,-29.09 414,-29.09"/>
</a>
</g>
</g>
<!-- Node8 -->
<g id="Node000008" class="node">
<title>Node8</title>
<g id="a_Node000008"><a xlink:title=" ">
<polygon fill="#e0e0e0" stroke="#999999" points="572,-19 507,-19 507,0 572,0 572,-19"/>
<text text-anchor="middle" x="539.5" y="-7" font-family="Helvetica,sans-Serif" font-size="10.00">functional</text>
</a>
</g>
</g>
<!-- Node4&#45;&gt;Node8 -->
<g id="edge7_Node000004_Node000008" class="edge">
<title>Node4&#45;&gt;Node8</title>
<g id="a_edge7_Node000004_Node000008"><a xlink:title=" ">
<path fill="none" stroke="#63b8ff" d="M431.23,-54.98C452.26,-46.34 485.05,-32.87 509.04,-23.02"/>
<polygon fill="#63b8ff" stroke="#63b8ff" points="510.48,-26.21 518.4,-19.17 507.82,-19.73 510.48,-26.21"/>
</a>
</g>
</g>
<!-- Node9&#45;&gt;Node3 -->
<g id="edge10_Node000009_Node000003" class="edge">
<title>Node9&#45;&gt;Node3</title>
<g id="a_edge10_Node000009_Node000003"><a xlink:title=" ">
<path fill="none" stroke="#63b8ff" d="M641.89,-54.75C637.18,-47.42 630.33,-36.73 624.53,-27.7"/>
<polygon fill="#63b8ff" stroke="#63b8ff" points="627.36,-25.62 619.01,-19.09 621.46,-29.4 627.36,-25.62"/>
</a>
</g>
</g>
<!-- Node10 -->
<g id="Node000010" class="node">
<title>Node10</title>
<g id="a_Node000010"><a xlink:title=" ">
<polygon fill="#e0e0e0" stroke="#999999" points="699.5,-19 655.5,-19 655.5,0 699.5,0 699.5,-19"/>
<text text-anchor="middle" x="677.5" y="-7" font-family="Helvetica,sans-Serif" font-size="10.00">string</text>
</a>
</g>
</g>
<!-- Node9&#45;&gt;Node10 -->
<g id="edge9_Node000009_Node000010" class="edge">
<title>Node9&#45;&gt;Node10</title>
<g id="a_edge9_Node000009_Node000010"><a xlink:title=" ">
<path fill="none" stroke="#63b8ff" d="M652.45,-54.75C656.56,-47.49 662.53,-36.95 667.6,-27.98"/>
<polygon fill="#63b8ff" stroke="#63b8ff" points="670.76,-29.52 672.64,-19.09 664.67,-26.07 670.76,-29.52"/>
</a>
</g>
</g>
</g>
</svg>
