<?xml version="1.0" encoding="UTF-8" standalone="no"?>
<!DOCTYPE svg PUBLIC "-//W3C//DTD SVG 1.1//EN"
 "http://www.w3.org/Graphics/SVG/1.1/DTD/svg11.dtd">
<!-- Generated by graphviz version 2.43.0 (0)
 -->
<!-- Title: ComputeVectorDivergence.h Pages: 1 -->
<svg width="566pt" height="84pt"
 viewBox="0.00 0.00 566.00 84.00" xmlns="http://www.w3.org/2000/svg" xmlns:xlink="http://www.w3.org/1999/xlink">
<g id="graph0" class="graph" transform="scale(1 1) rotate(0) translate(4 80)">
<title>ComputeVectorDivergence.h</title>
<polygon fill="white" stroke="transparent" points="-4,4 -4,-80 562,-80 562,4 -4,4"/>
<!-- Node1 -->
<g id="node1" class="node">
<title>Node1</title>
<g id="a_node1"><a xlink:title=" ">
<polygon fill="#bfbfbf" stroke="black" points="138.5,-56.5 138.5,-75.5 294.5,-75.5 294.5,-56.5 138.5,-56.5"/>
<text text-anchor="middle" x="216.5" y="-63.5" font-family="Helvetica,sans-Serif" font-size="10.00">ComputeVectorDivergence.h</text>
</a>
</g>
</g>
<!-- Node2 -->
<g id="node2" class="node">
<title>Node2</title>
<g id="a_node2"><a xlink:href="_f_s_iturbine_8_c.html" target="_top" xlink:title=" ">
<polygon fill="white" stroke="black" points="0,-0.5 0,-19.5 75,-19.5 75,-0.5 0,-0.5"/>
<text text-anchor="middle" x="37.5" y="-7.5" font-family="Helvetica,sans-Serif" font-size="10.00">FSIturbine.C</text>
</a>
</g>
</g>
<!-- Node1&#45;&gt;Node2 -->
<g id="edge1" class="edge">
<title>Node1&#45;&gt;Node2</title>
<path fill="none" stroke="midnightblue" d="M178.17,-53.44C144.42,-43.26 96.05,-28.66 65.73,-19.52"/>
<polygon fill="midnightblue" stroke="midnightblue" points="177.55,-56.91 188.14,-56.44 179.57,-50.2 177.55,-56.91"/>
</g>
<!-- Node3 -->
<g id="node3" class="node">
<title>Node3</title>
<g id="a_node3"><a xlink:href="_frame_moving_8_c.html" target="_top" xlink:title=" ">
<polygon fill="white" stroke="black" points="93,-0.5 93,-19.5 186,-19.5 186,-0.5 93,-0.5"/>
<text text-anchor="middle" x="139.5" y="-7.5" font-family="Helvetica,sans-Serif" font-size="10.00">FrameMoving.C</text>
</a>
</g>
</g>
<!-- Node1&#45;&gt;Node3 -->
<g id="edge2" class="edge">
<title>Node1&#45;&gt;Node3</title>
<path fill="none" stroke="midnightblue" d="M195.6,-50.34C181.59,-40.52 163.62,-27.91 151.84,-19.65"/>
<polygon fill="midnightblue" stroke="midnightblue" points="193.93,-53.45 204.13,-56.32 197.95,-47.72 193.93,-53.45"/>
</g>
<!-- Node4 -->
<g id="node4" class="node">
<title>Node4</title>
<g id="a_node4"><a xlink:href="_motion_deforming_interior_kernel_8_c.html" target="_top" xlink:title=" ">
<polygon fill="white" stroke="black" points="204.5,-0.5 204.5,-19.5 382.5,-19.5 382.5,-0.5 204.5,-0.5"/>
<text text-anchor="middle" x="293.5" y="-7.5" font-family="Helvetica,sans-Serif" font-size="10.00">MotionDeformingInteriorKernel.C</text>
</a>
</g>
</g>
<!-- Node1&#45;&gt;Node4 -->
<g id="edge3" class="edge">
<title>Node1&#45;&gt;Node4</title>
<path fill="none" stroke="midnightblue" d="M237.4,-50.34C251.41,-40.52 269.38,-27.91 281.16,-19.65"/>
<polygon fill="midnightblue" stroke="midnightblue" points="235.05,-47.72 228.87,-56.32 239.07,-53.45 235.05,-47.72"/>
</g>
<!-- Node5 -->
<g id="node5" class="node">
<title>Node5</title>
<g id="a_node5"><a xlink:href="_compute_vector_divergence_8_c.html" target="_top" xlink:title=" ">
<polygon fill="white" stroke="black" points="401,-0.5 401,-19.5 558,-19.5 558,-0.5 401,-0.5"/>
<text text-anchor="middle" x="479.5" y="-7.5" font-family="Helvetica,sans-Serif" font-size="10.00">ComputeVectorDivergence.C</text>
</a>
</g>
</g>
<!-- Node1&#45;&gt;Node5 -->
<g id="edge4" class="edge">
<title>Node1&#45;&gt;Node5</title>
<path fill="none" stroke="midnightblue" d="M268.08,-54.41C317.78,-44.2 392.03,-28.96 438.02,-19.52"/>
<polygon fill="midnightblue" stroke="midnightblue" points="267.26,-51 258.17,-56.44 268.67,-57.86 267.26,-51"/>
</g>
</g>
</svg>
