<?xml version="1.0" encoding="UTF-8" standalone="no"?>
<!DOCTYPE svg PUBLIC "-//W3C//DTD SVG 1.1//EN"
 "http://www.w3.org/Graphics/SVG/1.1/DTD/svg11.dtd">
<!-- Generated by graphviz version 2.43.0 (0)
 -->
<!-- Title: ConductionJacobiPreconditioner.C Pages: 1 -->
<!--zoomable 313 -->

<svg id="main" version="1.1" xmlns="http://www.w3.org/2000/svg" xmlns:xlink="http://www.w3.org/1999/xlink" xml:space="preserve" onload="init(evt)">
<style type="text/css"><![CDATA[
.node, .edge {opacity: 0.7;}
.node.selected, .edge.selected {opacity: 1;}
.edge:hover path { stroke: red; }
.edge:hover polygon { stroke: red; fill: red; }
]]></style>

<defs>
  <circle id="rim" cx="0" cy="0" r="7"/>
  <circle id="rim2" cx="0" cy="0" r="3.5"/>
  <g id="zoomPlus">
    <use xlink:href="#rim" fill="#404040"><set attributeName="fill" to="#808080" begin="zoomplus.mouseover" end="zoomplus.mouseout"/></use>
    <path d="M-4,0h8M0,-4v8" fill="none" stroke="white" stroke-width="1.5" pointer-events="none"/>
  </g>
  <g id="zoomMin">
    <use xlink:href="#rim" fill="#404040"><set attributeName="fill" to="#808080" begin="zoomminus.mouseover" end="zoomminus.mouseout"/></use>
    <path d="M-4,0h8" fill="none" stroke="white" stroke-width="1.5" pointer-events="none"/>
  </g>
  <g id="arrowUp" transform="translate(30 24)">
    <use xlink:href="#rim"/>
    <path pointer-events="none" fill="none" stroke="white" stroke-width="1.5" d="M0,-3.0v7 M-2.5,-0.5L0,-3.0L2.5,-0.5"/>
  </g>
  <g id="arrowRight" transform="rotate(90) translate(36 -43)">
    <use xlink:href="#rim"/>
    <path pointer-events="none" fill="none" stroke="white" stroke-width="1.5" d="M0,-3.0v7 M-2.5,-0.5L0,-3.0L2.5,-0.5"/>
  </g>
  <g id="arrowDown" transform="rotate(180) translate(-30 -48)">
    <use xlink:href="#rim"/>
    <path pointer-events="none" fill="none" stroke="white" stroke-width="1.5" d="M0,-3.0v7 M-2.5,-0.5L0,-3.0L2.5,-0.5"/>
  </g>
  <g id="arrowLeft" transform="rotate(270) translate(-36 17)">
    <use xlink:href="#rim"/>
    <path pointer-events="none" fill="none" stroke="white" stroke-width="1.5" d="M0,-3.0v7 M-2.5,-0.5L0,-3.0L2.5,-0.5"/>
  </g>
  <g id="resetDef">
    <use xlink:href="#rim2" fill="#404040"><set attributeName="fill" to="#808080" begin="reset.mouseover" end="reset.mouseout"/></use>
  </g>
</defs>
<script type="application/ecmascript">
var viewWidth = 2121;
var viewHeight = 313;
var sectionId = 'dynsection-0';
</script>
<script type="application/ecmascript" xlink:href="svg.min.js"/>
<svg id="graph" class="graph">
<g id="viewport">
<title>ConductionJacobiPreconditioner.C</title>
<!-- Node1 -->
<g id="Node000001" class="node">
<title>Node1</title>
<g id="a_Node000001"><a xlink:title=" ">
<polygon fill="#999999" stroke="#666666" points="774,-305 594,-305 594,-286 774,-286 774,-305"/>
<text text-anchor="middle" x="684" y="-293" font-family="Helvetica,sans-Serif" font-size="10.00">ConductionJacobiPreconditioner.C</text>
</a>
</g>
</g>
<!-- Node2 -->
<g id="Node000002" class="node">
<title>Node2</title>
<g id="a_Node000002"><a xlink:href="_conduction_jacobi_preconditioner_8h.html" target="_top" xlink:title=" ">
<polygon fill="white" stroke="#666666" points="819.5,-250 658.5,-250 658.5,-220 819.5,-220 819.5,-250"/>
<text text-anchor="start" x="666.5" y="-238" font-family="Helvetica,sans-Serif" font-size="10.00">matrix_free/ConductionJacobi</text>
<text text-anchor="middle" x="739" y="-227" font-family="Helvetica,sans-Serif" font-size="10.00">Preconditioner.h</text>
</a>
</g>
</g>
<!-- Node1&#45;&gt;Node2 -->
<g id="edge1_Node000001_Node000002" class="edge">
<title>Node1&#45;&gt;Node2</title>
<g id="a_edge1_Node000001_Node000002"><a xlink:title=" ">
<path fill="none" stroke="#63b8ff" d="M692.12,-285.87C699.09,-278.44 709.46,-267.42 718.68,-257.62"/>
<polygon fill="#63b8ff" stroke="#63b8ff" points="721.43,-259.8 725.73,-250.11 716.33,-255 721.43,-259.8"/>
</a>
</g>
</g>
<!-- Node4 -->
<g id="Node000004" class="node">
<title>Node4</title>
<g id="a_Node000004"><a xlink:title=" ">
<polygon fill="#e0e0e0" stroke="#999999" points="998,-184 882,-184 882,-165 998,-165 998,-184"/>
<text text-anchor="middle" x="940" y="-172" font-family="Helvetica,sans-Serif" font-size="10.00">Tpetra_Operator.hpp</text>
</a>
</g>
</g>
<!-- Node1&#45;&gt;Node4 -->
<g id="edge42_Node000001_Node000004" class="edge">
<title>Node1&#45;&gt;Node4</title>
<g id="a_edge42_Node000001_Node000004"><a xlink:title=" ">
<path fill="none" stroke="#63b8ff" d="M722.39,-285.99C752.3,-278.6 794.41,-266.47 829,-250 863.84,-233.41 900.24,-206.95 921.48,-190.43"/>
<polygon fill="#63b8ff" stroke="#63b8ff" points="923.93,-192.96 929.61,-184.02 919.59,-187.47 923.93,-192.96"/>
</a>
</g>
</g>
<!-- Node6 -->
<g id="Node000006" class="node">
<title>Node6</title>
<g id="a_Node000006"><a xlink:href="_kokkos_view_types_8h.html" target="_top" xlink:title=" ">
<polygon fill="white" stroke="#666666" points="693,-129 521,-129 521,-110 693,-110 693,-129"/>
<text text-anchor="middle" x="607" y="-117" font-family="Helvetica,sans-Serif" font-size="10.00">matrix_free/KokkosViewTypes.h</text>
</a>
</g>
</g>
<!-- Node1&#45;&gt;Node6 -->
<g id="edge26_Node000001_Node000006" class="edge">
<title>Node1&#45;&gt;Node6</title>
<g id="a_edge26_Node000001_Node000006"><a xlink:title=" ">
<path fill="none" stroke="#63b8ff" d="M676.02,-285.9C668.45,-277.35 657.18,-263.58 650,-250 630.32,-212.79 617.24,-164.84 611.08,-138.99"/>
<polygon fill="#63b8ff" stroke="#63b8ff" points="614.46,-138.03 608.8,-129.07 607.63,-139.6 614.46,-138.03"/>
</a>
</g>
</g>
<!-- Node10 -->
<g id="Node000010" class="node">
<title>Node10</title>
<g id="a_Node000010"><a xlink:title=" ">
<polygon fill="#e0e0e0" stroke="#999999" points="200.5,-19 131.5,-19 131.5,0 200.5,0 200.5,-19"/>
<text text-anchor="middle" x="166" y="-7" font-family="Helvetica,sans-Serif" font-size="10.00">type_traits</text>
</a>
</g>
</g>
<!-- Node1&#45;&gt;Node10 -->
<g id="edge43_Node000001_Node000010" class="edge">
<title>Node1&#45;&gt;Node10</title>
<g id="a_edge43_Node000001_Node000010"><a xlink:title=" ">
<path fill="none" stroke="#63b8ff" d="M593.88,-288.08C408.14,-273.62 0,-235.09 0,-175.5 0,-175.5 0,-175.5 0,-118.5 0,-60.44 72.23,-31.98 121.4,-19.34"/>
<polygon fill="#63b8ff" stroke="#63b8ff" points="122.32,-22.72 131.2,-16.95 120.66,-15.92 122.32,-22.72"/>
</a>
</g>
</g>
<!-- Node12 -->
<g id="Node000012" class="node">
<title>Node12</title>
<g id="a_Node000012"><a xlink:href="_polynomial_orders_8h.html" target="_top" xlink:title=" ">
<polygon fill="white" stroke="#666666" points="201.5,-129 28.5,-129 28.5,-110 201.5,-110 201.5,-129"/>
<text text-anchor="middle" x="115" y="-117" font-family="Helvetica,sans-Serif" font-size="10.00">matrix_free/PolynomialOrders.h</text>
</a>
</g>
</g>
<!-- Node1&#45;&gt;Node12 -->
<g id="edge27_Node000001_Node000012" class="edge">
<title>Node1&#45;&gt;Node12</title>
<g id="a_edge27_Node000001_Node000012"><a xlink:title=" ">
<path fill="none" stroke="#63b8ff" d="M593.92,-290.45C488.71,-282.29 312.36,-257.76 181,-184 159.87,-172.14 140.51,-151.9 128.3,-137.46"/>
<polygon fill="#63b8ff" stroke="#63b8ff" points="130.71,-134.87 121.67,-129.34 125.29,-139.3 130.71,-134.87"/>
</a>
</g>
</g>
<!-- Node21 -->
<g id="Node000021" class="node">
<title>Node21</title>
<g id="a_Node000021"><a xlink:href="_conduction_diagonal_8h.html" target="_top" xlink:title=" ">
<polygon fill="white" stroke="#666666" points="374,-184 190,-184 190,-165 374,-165 374,-184"/>
<text text-anchor="middle" x="282" y="-172" font-family="Helvetica,sans-Serif" font-size="10.00">matrix_free/ConductionDiagonal.h</text>
</a>
</g>
</g>
<!-- Node1&#45;&gt;Node21 -->
<g id="edge22_Node000001_Node000021" class="edge">
<title>Node1&#45;&gt;Node21</title>
<g id="a_edge22_Node000001_Node000021"><a xlink:title=" ">
<path fill="none" stroke="#63b8ff" d="M655.09,-285.94C584.05,-264.91 400.88,-210.69 320.63,-186.94"/>
<polygon fill="#63b8ff" stroke="#63b8ff" points="321.5,-183.54 310.92,-184.06 319.51,-190.25 321.5,-183.54"/>
</a>
</g>
</g>
<!-- Node22 -->
<g id="Node000022" class="node">
<title>Node22</title>
<g id="a_Node000022"><a xlink:href="_strong_dirichlet_b_c_8h.html" target="_top" xlink:title=" ">
<polygon fill="white" stroke="#666666" points="602,-184 430,-184 430,-165 602,-165 602,-184"/>
<text text-anchor="middle" x="516" y="-172" font-family="Helvetica,sans-Serif" font-size="10.00">matrix_free/StrongDirichletBC.h</text>
</a>
</g>
</g>
<!-- Node1&#45;&gt;Node22 -->
<g id="edge28_Node000001_Node000022" class="edge">
<title>Node1&#45;&gt;Node22</title>
<g id="a_edge28_Node000001_Node000022"><a xlink:title=" ">
<path fill="none" stroke="#63b8ff" d="M670.29,-285.87C656.44,-277.08 634.5,-262.93 616,-250 587.4,-230.02 555.18,-205.67 535.23,-190.37"/>
<polygon fill="#63b8ff" stroke="#63b8ff" points="537.29,-187.54 527.23,-184.22 533.03,-193.09 537.29,-187.54"/>
</a>
</g>
</g>
<!-- Node25 -->
<g id="Node000025" class="node">
<title>Node25</title>
<g id="a_Node000025"><a xlink:href="_kokkos_interface_8h.html" target="_top" xlink:title=" ">
<polygon fill="white" stroke="#666666" points="2113,-129 2009,-129 2009,-110 2113,-110 2113,-129"/>
<text text-anchor="middle" x="2061" y="-117" font-family="Helvetica,sans-Serif" font-size="10.00">KokkosInterface.h</text>
</a>
</g>
</g>
<!-- Node1&#45;&gt;Node25 -->
<g id="edge35_Node000001_Node000025" class="edge">
<title>Node1&#45;&gt;Node25</title>
<g id="a_edge35_Node000001_Node000025"><a xlink:title=" ">
<path fill="none" stroke="#63b8ff" d="M718.88,-285.99C783.04,-270.62 924.29,-238.15 1045,-220 1463.33,-157.09 1574.8,-178.32 1998.7,-129.1"/>
<polygon fill="#63b8ff" stroke="#63b8ff" points="1999.25,-132.57 2008.78,-127.93 1998.44,-125.61 1999.25,-132.57"/>
</a>
</g>
</g>
<!-- Node28 -->
<g id="Node000028" class="node">
<title>Node28</title>
<g id="a_Node000028"><a xlink:title=" ">
<polygon fill="#e0e0e0" stroke="#999999" points="1154,-244.5 1054,-244.5 1054,-225.5 1154,-225.5 1154,-244.5"/>
<text text-anchor="middle" x="1104" y="-232.5" font-family="Helvetica,sans-Serif" font-size="10.00">Teuchos_RCP.hpp</text>
</a>
</g>
</g>
<!-- Node1&#45;&gt;Node28 -->
<g id="edge40_Node000001_Node000028" class="edge">
<title>Node1&#45;&gt;Node28</title>
<g id="a_edge40_Node000001_Node000028"><a xlink:title=" ">
<path fill="none" stroke="#63b8ff" d="M769.92,-285.98C842.23,-278.27 948.22,-265.74 1040,-250 1045.75,-249.01 1051.76,-247.86 1057.69,-246.65"/>
<polygon fill="#63b8ff" stroke="#63b8ff" points="1058.5,-250.06 1067.56,-244.57 1057.05,-243.21 1058.5,-250.06"/>
</a>
</g>
</g>
<!-- Node29 -->
<g id="Node000029" class="node">
<title>Node29</title>
<g id="a_Node000029"><a xlink:title=" ">
<polygon fill="#e0e0e0" stroke="#999999" points="1317.5,-244.5 1172.5,-244.5 1172.5,-225.5 1317.5,-225.5 1317.5,-244.5"/>
<text text-anchor="middle" x="1245" y="-232.5" font-family="Helvetica,sans-Serif" font-size="10.00">Tpetra_CombineMode.hpp</text>
</a>
</g>
</g>
<!-- Node1&#45;&gt;Node29 -->
<g id="edge41_Node000001_Node000029" class="edge">
<title>Node1&#45;&gt;Node29</title>
<g id="a_edge41_Node000001_Node000029"><a xlink:title=" ">
<path fill="none" stroke="#63b8ff" d="M774.28,-288.18C870.74,-280.95 1028.03,-267.76 1163,-250 1171.34,-248.9 1180.12,-247.58 1188.72,-246.19"/>
<polygon fill="#63b8ff" stroke="#63b8ff" points="1189.4,-249.63 1198.69,-244.54 1188.25,-242.72 1189.4,-249.63"/>
</a>
</g>
</g>
<!-- Node3 -->
<g id="Node000003" class="node">
<title>Node3</title>
<g id="a_Node000003"><a xlink:title=" ">
<polygon fill="#e0e0e0" stroke="#999999" points="348.5,-129 219.5,-129 219.5,-110 348.5,-110 348.5,-129"/>
<text text-anchor="middle" x="284" y="-117" font-family="Helvetica,sans-Serif" font-size="10.00">Tpetra_MultiVector.hpp</text>
</a>
</g>
</g>
<!-- Node2&#45;&gt;Node3 -->
<g id="edge2_Node000002_Node000003" class="edge">
<title>Node2&#45;&gt;Node3</title>
<g id="a_edge2_Node000002_Node000003"><a xlink:title=" ">
<path fill="none" stroke="#63b8ff" d="M658.36,-228.21C593.12,-221.9 499.51,-209.13 421,-184 403.02,-178.24 400.06,-173.09 383,-165 359.7,-153.94 333.01,-141.99 313.22,-133.26"/>
<polygon fill="#63b8ff" stroke="#63b8ff" points="314.4,-129.95 303.83,-129.13 311.58,-136.36 314.4,-129.95"/>
</a>
</g>
</g>
<!-- Node2&#45;&gt;Node4 -->
<g id="edge3_Node000002_Node000004" class="edge">
<title>Node2&#45;&gt;Node4</title>
<g id="a_edge3_Node000002_Node000004"><a xlink:title=" ">
<path fill="none" stroke="#63b8ff" d="M787.14,-219.99C821.98,-209.85 868.47,-196.32 900.99,-186.85"/>
<polygon fill="#63b8ff" stroke="#63b8ff" points="901.99,-190.21 910.61,-184.05 900.03,-183.49 901.99,-190.21"/>
</a>
</g>
</g>
<!-- Node5 -->
<g id="Node000005" class="node">
<title>Node5</title>
<g id="a_Node000005"><a xlink:href="_conduction_fields_8h.html" target="_top" xlink:title=" ">
<polygon fill="white" stroke="#666666" points="864.5,-184 695.5,-184 695.5,-165 864.5,-165 864.5,-184"/>
<text text-anchor="middle" x="780" y="-172" font-family="Helvetica,sans-Serif" font-size="10.00">matrix_free/ConductionFields.h</text>
</a>
</g>
</g>
<!-- Node2&#45;&gt;Node5 -->
<g id="edge4_Node000002_Node000005" class="edge">
<title>Node2&#45;&gt;Node5</title>
<g id="a_edge4_Node000002_Node000005"><a xlink:title=" ">
<path fill="none" stroke="#63b8ff" d="M748.92,-219.84C754.69,-211.61 762,-201.18 768.08,-192.51"/>
<polygon fill="#63b8ff" stroke="#63b8ff" points="770.98,-194.46 773.86,-184.27 765.25,-190.45 770.98,-194.46"/>
</a>
</g>
</g>
<!-- Node2&#45;&gt;Node6 -->
<g id="edge21_Node000002_Node000006" class="edge">
<title>Node2&#45;&gt;Node6</title>
<g id="a_edge21_Node000002_Node000006"><a xlink:title=" ">
<path fill="none" stroke="#63b8ff" d="M722.55,-219.85C697.71,-198.5 650.81,-158.17 625.06,-136.03"/>
<polygon fill="#63b8ff" stroke="#63b8ff" points="627.06,-133.14 617.2,-129.27 622.5,-138.44 627.06,-133.14"/>
</a>
</g>
</g>
<!-- Node5&#45;&gt;Node6 -->
<g id="edge5_Node000005_Node000006" class="edge">
<title>Node5&#45;&gt;Node6</title>
<g id="a_edge5_Node000005_Node000006"><a xlink:title=" ">
<path fill="none" stroke="#63b8ff" d="M752.2,-164.98C723.03,-156.05 677,-141.94 644.6,-132.02"/>
<polygon fill="#63b8ff" stroke="#63b8ff" points="645.6,-128.66 635.01,-129.08 643.55,-135.36 645.6,-128.66"/>
</a>
</g>
</g>
<!-- Node5&#45;&gt;Node12 -->
<g id="edge11_Node000005_Node000012" class="edge">
<title>Node5&#45;&gt;Node12</title>
<g id="a_edge11_Node000005_Node000012"><a xlink:title=" ">
<path fill="none" stroke="#63b8ff" d="M695.47,-167.2C586.23,-158.99 389.81,-144.01 211.79,-129.14"/>
<polygon fill="#63b8ff" stroke="#63b8ff" points="211.97,-125.65 201.72,-128.3 211.39,-132.62 211.97,-125.65"/>
</a>
</g>
</g>
<!-- Node13 -->
<g id="Node000013" class="node">
<title>Node13</title>
<g id="a_Node000013"><a xlink:title=" ">
<polygon fill="#e0e0e0" stroke="#999999" points="1450,-129 1276,-129 1276,-110 1450,-110 1450,-129"/>
<text text-anchor="middle" x="1363" y="-117" font-family="Helvetica,sans-Serif" font-size="10.00">stk_mesh/base/GetNgpField.hpp</text>
</a>
</g>
</g>
<!-- Node5&#45;&gt;Node13 -->
<g id="edge13_Node000005_Node000013" class="edge">
<title>Node5&#45;&gt;Node13</title>
<g id="a_edge13_Node000005_Node000013"><a xlink:title=" ">
<path fill="none" stroke="#63b8ff" d="M864.65,-165.76C867.46,-165.5 870.26,-165.25 873,-165 1009.32,-152.58 1166.97,-138.27 1265.84,-129.31"/>
<polygon fill="#63b8ff" stroke="#63b8ff" points="1266.17,-132.79 1275.81,-128.4 1265.54,-125.82 1266.17,-132.79"/>
</a>
</g>
</g>
<!-- Node14 -->
<g id="Node000014" class="node">
<title>Node14</title>
<g id="a_Node000014"><a xlink:title=" ">
<polygon fill="#e0e0e0" stroke="#999999" points="1629.5,-129 1468.5,-129 1468.5,-110 1629.5,-110 1629.5,-129"/>
<text text-anchor="middle" x="1549" y="-117" font-family="Helvetica,sans-Serif" font-size="10.00">stk_mesh/base/FieldBase.hpp</text>
</a>
</g>
</g>
<!-- Node5&#45;&gt;Node14 -->
<g id="edge14_Node000005_Node000014" class="edge">
<title>Node5&#45;&gt;Node14</title>
<g id="a_edge14_Node000005_Node000014"><a xlink:title=" ">
<path fill="none" stroke="#63b8ff" d="M864.64,-165.66C867.46,-165.43 870.25,-165.21 873,-165 1129.87,-145.38 1197.15,-149.17 1457.9,-129.06"/>
<polygon fill="#63b8ff" stroke="#63b8ff" points="1458.36,-132.53 1468.06,-128.27 1457.82,-125.55 1458.36,-132.53"/>
</a>
</g>
</g>
<!-- Node15 -->
<g id="Node000015" class="node">
<title>Node15</title>
<g id="a_Node000015"><a xlink:title=" ">
<polygon fill="#e0e0e0" stroke="#999999" points="1810.5,-129 1647.5,-129 1647.5,-110 1810.5,-110 1810.5,-129"/>
<text text-anchor="middle" x="1729" y="-117" font-family="Helvetica,sans-Serif" font-size="10.00">stk_mesh/base/FieldState.hpp</text>
</a>
</g>
</g>
<!-- Node5&#45;&gt;Node15 -->
<g id="edge15_Node000005_Node000015" class="edge">
<title>Node5&#45;&gt;Node15</title>
<g id="a_edge15_Node000005_Node000015"><a xlink:title=" ">
<path fill="none" stroke="#63b8ff" d="M864.63,-165.6C867.46,-165.39 870.25,-165.19 873,-165 1209.69,-141.71 1297.32,-152.81 1636.97,-129.11"/>
<polygon fill="#63b8ff" stroke="#63b8ff" points="1637.37,-132.59 1647.1,-128.4 1636.88,-125.61 1637.37,-132.59"/>
</a>
</g>
</g>
<!-- Node16 -->
<g id="Node000016" class="node">
<title>Node16</title>
<g id="a_Node000016"><a xlink:title=" ">
<polygon fill="#e0e0e0" stroke="#999999" points="1991,-129 1829,-129 1829,-110 1991,-110 1991,-129"/>
<text text-anchor="middle" x="1910" y="-117" font-family="Helvetica,sans-Serif" font-size="10.00">stk_mesh/base/MetaData.hpp</text>
</a>
</g>
</g>
<!-- Node5&#45;&gt;Node16 -->
<g id="edge16_Node000005_Node000016" class="edge">
<title>Node5&#45;&gt;Node16</title>
<g id="a_edge16_Node000005_Node000016"><a xlink:title=" ">
<path fill="none" stroke="#63b8ff" d="M864.63,-165.57C867.45,-165.37 870.25,-165.18 873,-165 1290.03,-138.03 1398.04,-156.52 1818.59,-129.05"/>
<polygon fill="#63b8ff" stroke="#63b8ff" points="1818.83,-132.55 1828.58,-128.4 1818.37,-125.56 1818.83,-132.55"/>
</a>
</g>
</g>
<!-- Node17 -->
<g id="Node000017" class="node">
<title>Node17</title>
<g id="a_Node000017"><a xlink:title=" ">
<polygon fill="#e0e0e0" stroke="#999999" points="845,-129 711,-129 711,-110 845,-110 845,-129"/>
<text text-anchor="middle" x="778" y="-117" font-family="Helvetica,sans-Serif" font-size="10.00">stk_mesh/base/Ngp.hpp</text>
</a>
</g>
</g>
<!-- Node5&#45;&gt;Node17 -->
<g id="edge17_Node000005_Node000017" class="edge">
<title>Node5&#45;&gt;Node17</title>
<g id="a_edge17_Node000005_Node000017"><a xlink:title=" ">
<path fill="none" stroke="#63b8ff" d="M779.67,-164.75C779.41,-157.8 779.03,-147.85 778.7,-139.13"/>
<polygon fill="#63b8ff" stroke="#63b8ff" points="782.2,-138.95 778.32,-129.09 775.2,-139.21 782.2,-138.95"/>
</a>
</g>
</g>
<!-- Node18 -->
<g id="Node000018" class="node">
<title>Node18</title>
<g id="a_Node000018"><a xlink:title=" ">
<polygon fill="#e0e0e0" stroke="#999999" points="1008.5,-129 863.5,-129 863.5,-110 1008.5,-110 1008.5,-129"/>
<text text-anchor="middle" x="936" y="-117" font-family="Helvetica,sans-Serif" font-size="10.00">stk_topology/topology.hpp</text>
</a>
</g>
</g>
<!-- Node5&#45;&gt;Node18 -->
<g id="edge18_Node000005_Node000018" class="edge">
<title>Node5&#45;&gt;Node18</title>
<g id="a_edge18_Node000005_Node000018"><a xlink:title=" ">
<path fill="none" stroke="#63b8ff" d="M805.06,-164.98C831.03,-156.16 871.81,-142.31 900.96,-132.41"/>
<polygon fill="#63b8ff" stroke="#63b8ff" points="902.4,-135.61 910.74,-129.08 900.15,-128.99 902.4,-135.61"/>
</a>
</g>
</g>
<!-- Node19 -->
<g id="Node000019" class="node">
<title>Node19</title>
<g id="a_Node000019"><a xlink:title=" ">
<polygon fill="#e0e0e0" stroke="#999999" points="1191.5,-129 1026.5,-129 1026.5,-110 1191.5,-110 1191.5,-129"/>
<text text-anchor="middle" x="1109" y="-117" font-family="Helvetica,sans-Serif" font-size="10.00">stk_util/util/ReportHandler.hpp</text>
</a>
</g>
</g>
<!-- Node5&#45;&gt;Node19 -->
<g id="edge19_Node000005_Node000019" class="edge">
<title>Node5&#45;&gt;Node19</title>
<g id="a_edge19_Node000005_Node000019"><a xlink:title=" ">
<path fill="none" stroke="#63b8ff" d="M832.86,-164.98C890.93,-155.63 984.15,-140.61 1045.98,-130.65"/>
<polygon fill="#63b8ff" stroke="#63b8ff" points="1046.68,-134.08 1056,-129.04 1045.57,-127.17 1046.68,-134.08"/>
</a>
</g>
</g>
<!-- Node20 -->
<g id="Node000020" class="node">
<title>Node20</title>
<g id="a_Node000020"><a xlink:title=" ">
<polygon fill="#e0e0e0" stroke="#999999" points="1258,-129 1210,-129 1210,-110 1258,-110 1258,-129"/>
<text text-anchor="middle" x="1234" y="-117" font-family="Helvetica,sans-Serif" font-size="10.00">iosfwd</text>
</a>
</g>
</g>
<!-- Node5&#45;&gt;Node20 -->
<g id="edge20_Node000005_Node000020" class="edge">
<title>Node5&#45;&gt;Node20</title>
<g id="a_edge20_Node000005_Node000020"><a xlink:title=" ">
<path fill="none" stroke="#63b8ff" d="M864.95,-165.2C970.85,-154.75 1143.9,-137.32 1199.85,-128.81"/>
<polygon fill="#63b8ff" stroke="#63b8ff" points="1200.65,-132.22 1209.94,-127.13 1199.5,-125.32 1200.65,-132.22"/>
</a>
</g>
</g>
<!-- Node7 -->
<g id="Node000007" class="node">
<title>Node7</title>
<g id="a_Node000007"><a xlink:href="_kokkos_framework_8h.html" target="_top" xlink:title=" ">
<polygon fill="white" stroke="#666666" points="522.5,-74 347.5,-74 347.5,-55 522.5,-55 522.5,-74"/>
<text text-anchor="middle" x="435" y="-62" font-family="Helvetica,sans-Serif" font-size="10.00">matrix_free/KokkosFramework.h</text>
</a>
</g>
</g>
<!-- Node6&#45;&gt;Node7 -->
<g id="edge6_Node000006_Node000007" class="edge">
<title>Node6&#45;&gt;Node7</title>
<g id="a_edge6_Node000006_Node000007"><a xlink:title=" ">
<path fill="none" stroke="#63b8ff" d="M579.37,-109.98C550.49,-101.09 504.99,-87.07 472.8,-77.15"/>
<polygon fill="#63b8ff" stroke="#63b8ff" points="473.44,-73.68 462.85,-74.08 471.38,-80.37 473.44,-73.68"/>
</a>
</g>
</g>
<!-- Node11 -->
<g id="Node000011" class="node">
<title>Node11</title>
<g id="a_Node000011"><a xlink:title=" ">
<polygon fill="#e0e0e0" stroke="#999999" points="683,-74 541,-74 541,-55 683,-55 683,-74"/>
<text text-anchor="middle" x="612" y="-62" font-family="Helvetica,sans-Serif" font-size="10.00">stk_mesh/base/Types.hpp</text>
</a>
</g>
</g>
<!-- Node6&#45;&gt;Node11 -->
<g id="edge10_Node000006_Node000011" class="edge">
<title>Node6&#45;&gt;Node11</title>
<g id="a_edge10_Node000006_Node000011"><a xlink:title=" ">
<path fill="none" stroke="#63b8ff" d="M607.83,-109.75C608.48,-102.8 609.42,-92.85 610.24,-84.13"/>
<polygon fill="#63b8ff" stroke="#63b8ff" points="613.73,-84.37 611.19,-74.09 606.77,-83.72 613.73,-84.37"/>
</a>
</g>
</g>
<!-- Node8 -->
<g id="Node000008" class="node">
<title>Node8</title>
<g id="a_Node000008"><a xlink:title=" ">
<polygon fill="#e0e0e0" stroke="#999999" points="1359,-19 1259,-19 1259,0 1359,0 1359,-19"/>
<text text-anchor="middle" x="1309" y="-7" font-family="Helvetica,sans-Serif" font-size="10.00">Kokkos_Core.hpp</text>
</a>
</g>
</g>
<!-- Node7&#45;&gt;Node8 -->
<g id="edge7_Node000007_Node000008" class="edge">
<title>Node7&#45;&gt;Node8</title>
<g id="a_edge7_Node000007_Node000008"><a xlink:title=" ">
<path fill="none" stroke="#63b8ff" d="M522.76,-55.69C525.88,-55.45 528.97,-55.22 532,-55 799.01,-35.66 1118.15,-19.6 1248.78,-13.33"/>
<polygon fill="#63b8ff" stroke="#63b8ff" points="1249.15,-16.81 1258.97,-12.84 1248.81,-9.82 1249.15,-16.81"/>
</a>
</g>
</g>
<!-- Node9 -->
<g id="Node000009" class="node">
<title>Node9</title>
<g id="a_Node000009"><a xlink:title=" ">
<polygon fill="#e0e0e0" stroke="#999999" points="490,-19 380,-19 380,0 490,0 490,-19"/>
<text text-anchor="middle" x="435" y="-7" font-family="Helvetica,sans-Serif" font-size="10.00">stk_simd/Simd.hpp</text>
</a>
</g>
</g>
<!-- Node7&#45;&gt;Node9 -->
<g id="edge8_Node000007_Node000009" class="edge">
<title>Node7&#45;&gt;Node9</title>
<g id="a_edge8_Node000007_Node000009"><a xlink:title=" ">
<path fill="none" stroke="#63b8ff" d="M435,-54.75C435,-47.8 435,-37.85 435,-29.13"/>
<polygon fill="#63b8ff" stroke="#63b8ff" points="438.5,-29.09 435,-19.09 431.5,-29.09 438.5,-29.09"/>
</a>
</g>
</g>
<!-- Node7&#45;&gt;Node10 -->
<g id="edge9_Node000007_Node000010" class="edge">
<title>Node7&#45;&gt;Node10</title>
<g id="a_edge9_Node000007_Node000010"><a xlink:title=" ">
<path fill="none" stroke="#63b8ff" d="M391.78,-54.98C342.04,-45.18 260.76,-29.17 210.49,-19.27"/>
<polygon fill="#63b8ff" stroke="#63b8ff" points="211.05,-15.81 200.56,-17.31 209.7,-22.68 211.05,-15.81"/>
</a>
</g>
</g>
<!-- Node12&#45;&gt;Node10 -->
<g id="edge12_Node000012_Node000010" class="edge">
<title>Node12&#45;&gt;Node10</title>
<g id="a_edge12_Node000012_Node000010"><a xlink:title=" ">
<path fill="none" stroke="#63b8ff" d="M119.17,-109.66C127.55,-91.93 146.53,-51.73 157.59,-28.32"/>
<polygon fill="#63b8ff" stroke="#63b8ff" points="160.81,-29.7 161.91,-19.16 154.48,-26.71 160.81,-29.7"/>
</a>
</g>
</g>
<!-- Node21&#45;&gt;Node3 -->
<g id="edge25_Node000021_Node000003" class="edge">
<title>Node21&#45;&gt;Node3</title>
<g id="a_edge25_Node000021_Node000003"><a xlink:title=" ">
<path fill="none" stroke="#63b8ff" d="M282.33,-164.75C282.59,-157.8 282.97,-147.85 283.3,-139.13"/>
<polygon fill="#63b8ff" stroke="#63b8ff" points="286.8,-139.21 283.68,-129.09 279.8,-138.95 286.8,-139.21"/>
</a>
</g>
</g>
<!-- Node21&#45;&gt;Node6 -->
<g id="edge24_Node000021_Node000006" class="edge">
<title>Node21&#45;&gt;Node6</title>
<g id="a_edge24_Node000021_Node000006"><a xlink:title=" ">
<path fill="none" stroke="#63b8ff" d="M334.22,-164.98C391.58,-155.63 483.67,-140.61 544.74,-130.65"/>
<polygon fill="#63b8ff" stroke="#63b8ff" points="545.34,-134.1 554.64,-129.04 544.21,-127.19 545.34,-134.1"/>
</a>
</g>
</g>
<!-- Node21&#45;&gt;Node12 -->
<g id="edge23_Node000021_Node000012" class="edge">
<title>Node21&#45;&gt;Node12</title>
<g id="a_edge23_Node000021_Node000012"><a xlink:title=" ">
<path fill="none" stroke="#63b8ff" d="M255.17,-164.98C227.13,-156.09 182.95,-142.07 151.7,-132.15"/>
<polygon fill="#63b8ff" stroke="#63b8ff" points="152.63,-128.77 142.04,-129.08 150.51,-135.44 152.63,-128.77"/>
</a>
</g>
</g>
<!-- Node22&#45;&gt;Node3 -->
<g id="edge29_Node000022_Node000003" class="edge">
<title>Node22&#45;&gt;Node3</title>
<g id="a_edge29_Node000022_Node000003"><a xlink:title=" ">
<path fill="none" stroke="#63b8ff" d="M478.73,-164.98C438.68,-155.84 374.93,-141.27 331.36,-131.32"/>
<polygon fill="#63b8ff" stroke="#63b8ff" points="332.1,-127.9 321.57,-129.08 330.54,-134.72 332.1,-127.9"/>
</a>
</g>
</g>
<!-- Node22&#45;&gt;Node6 -->
<g id="edge30_Node000022_Node000006" class="edge">
<title>Node22&#45;&gt;Node6</title>
<g id="a_edge30_Node000022_Node000006"><a xlink:title=" ">
<path fill="none" stroke="#63b8ff" d="M530.62,-164.98C544.86,-156.69 566.75,-143.94 583.45,-134.22"/>
<polygon fill="#63b8ff" stroke="#63b8ff" points="585.23,-137.23 592.11,-129.17 581.71,-131.18 585.23,-137.23"/>
</a>
</g>
</g>
<!-- Node23 -->
<g id="Node000023" class="node">
<title>Node23</title>
<g id="a_Node000023"><a xlink:href="_local_array_8h.html" target="_top" xlink:title=" ">
<polygon fill="white" stroke="#666666" points="503,-129 367,-129 367,-110 503,-110 503,-129"/>
<text text-anchor="middle" x="435" y="-117" font-family="Helvetica,sans-Serif" font-size="10.00">matrix_free/LocalArray.h</text>
</a>
</g>
</g>
<!-- Node22&#45;&gt;Node23 -->
<g id="edge31_Node000022_Node000023" class="edge">
<title>Node22&#45;&gt;Node23</title>
<g id="a_edge31_Node000022_Node000023"><a xlink:title=" ">
<path fill="none" stroke="#63b8ff" d="M502.99,-164.98C490.54,-156.84 471.54,-144.41 456.79,-134.76"/>
<polygon fill="#63b8ff" stroke="#63b8ff" points="458.54,-131.72 448.25,-129.17 454.7,-137.57 458.54,-131.72"/>
</a>
</g>
</g>
<!-- Node23&#45;&gt;Node7 -->
<g id="edge33_Node000023_Node000007" class="edge">
<title>Node23&#45;&gt;Node7</title>
<g id="a_edge33_Node000023_Node000007"><a xlink:title=" ">
<path fill="none" stroke="#63b8ff" d="M435,-109.75C435,-102.8 435,-92.85 435,-84.13"/>
<polygon fill="#63b8ff" stroke="#63b8ff" points="438.5,-84.09 435,-74.09 431.5,-84.09 438.5,-84.09"/>
</a>
</g>
</g>
<!-- Node23&#45;&gt;Node10 -->
<g id="edge34_Node000023_Node000010" class="edge">
<title>Node23&#45;&gt;Node10</title>
<g id="a_edge34_Node000023_Node000010"><a xlink:title=" ">
<path fill="none" stroke="#63b8ff" d="M413.44,-109.84C365.91,-90.76 251.95,-45.01 196.86,-22.89"/>
<polygon fill="#63b8ff" stroke="#63b8ff" points="197.87,-19.52 187.29,-19.05 195.26,-26.02 197.87,-19.52"/>
</a>
</g>
</g>
<!-- Node24 -->
<g id="Node000024" class="node">
<title>Node24</title>
<g id="a_Node000024"><a xlink:title=" ">
<polygon fill="#e0e0e0" stroke="#999999" points="1357.5,-74 1244.5,-74 1244.5,-55 1357.5,-55 1357.5,-74"/>
<text text-anchor="middle" x="1301" y="-62" font-family="Helvetica,sans-Serif" font-size="10.00">Kokkos_Macros.hpp</text>
</a>
</g>
</g>
<!-- Node23&#45;&gt;Node24 -->
<g id="edge32_Node000023_Node000024" class="edge">
<title>Node23&#45;&gt;Node24</title>
<g id="a_edge32_Node000023_Node000024"><a xlink:title=" ">
<path fill="none" stroke="#63b8ff" d="M503,-110.79C506.04,-110.51 509.05,-110.25 512,-110 779.17,-87.74 1098.18,-73.53 1234.23,-68.06"/>
<polygon fill="#63b8ff" stroke="#63b8ff" points="1234.63,-71.54 1244.48,-67.65 1234.35,-64.55 1234.63,-71.54"/>
</a>
</g>
</g>
<!-- Node25&#45;&gt;Node8 -->
<g id="edge39_Node000025_Node000008" class="edge">
<title>Node25&#45;&gt;Node8</title>
<g id="a_edge39_Node000025_Node000008"><a xlink:title=" ">
<path fill="none" stroke="#63b8ff" d="M2070.89,-109.69C2084.65,-96.42 2106.24,-71.13 2091,-55 2066.3,-28.85 1547.96,-15.52 1369.08,-11.69"/>
<polygon fill="#63b8ff" stroke="#63b8ff" points="1369.12,-8.19 1359.05,-11.48 1368.97,-15.19 1369.12,-8.19"/>
</a>
</g>
</g>
<!-- Node25&#45;&gt;Node24 -->
<g id="edge38_Node000025_Node000024" class="edge">
<title>Node25&#45;&gt;Node24</title>
<g id="a_edge38_Node000025_Node000024"><a xlink:title=" ">
<path fill="none" stroke="#63b8ff" d="M2008.79,-110.96C2005.82,-110.62 2002.87,-110.29 2000,-110 1768.48,-86.53 1492.49,-73.28 1367.89,-68.09"/>
<polygon fill="#63b8ff" stroke="#63b8ff" points="1367.88,-64.59 1357.75,-67.67 1367.59,-71.58 1367.88,-64.59"/>
</a>
</g>
</g>
<!-- Node26 -->
<g id="Node000026" class="node">
<title>Node26</title>
<g id="a_Node000026"><a xlink:title=" ">
<polygon fill="#e0e0e0" stroke="#999999" points="1922.5,-74 1869.5,-74 1869.5,-55 1922.5,-55 1922.5,-74"/>
<text text-anchor="middle" x="1896" y="-62" font-family="Helvetica,sans-Serif" font-size="10.00">cstddef</text>
</a>
</g>
</g>
<!-- Node25&#45;&gt;Node26 -->
<g id="edge36_Node000025_Node000026" class="edge">
<title>Node25&#45;&gt;Node26</title>
<g id="a_edge36_Node000025_Node000026"><a xlink:title=" ">
<path fill="none" stroke="#63b8ff" d="M2034.49,-109.98C2006.79,-101.09 1963.14,-87.07 1932.26,-77.15"/>
<polygon fill="#63b8ff" stroke="#63b8ff" points="1933.31,-73.81 1922.72,-74.08 1931.17,-80.47 1933.31,-73.81"/>
</a>
</g>
</g>
<!-- Node27 -->
<g id="Node000027" class="node">
<title>Node27</title>
<g id="a_Node000027"><a xlink:title=" ">
<polygon fill="#e0e0e0" stroke="#999999" points="2081.5,-74 1940.5,-74 1940.5,-55 2081.5,-55 2081.5,-74"/>
<text text-anchor="middle" x="2011" y="-62" font-family="Helvetica,sans-Serif" font-size="10.00">stk_mesh/base/Entity.hpp</text>
</a>
</g>
</g>
<!-- Node25&#45;&gt;Node27 -->
<g id="edge37_Node000025_Node000027" class="edge">
<title>Node25&#45;&gt;Node27</title>
<g id="a_edge37_Node000025_Node000027"><a xlink:title=" ">
<path fill="none" stroke="#63b8ff" d="M2052.74,-109.75C2045.54,-102.11 2034.89,-90.82 2026.15,-81.56"/>
<polygon fill="#63b8ff" stroke="#63b8ff" points="2028.51,-78.96 2019.1,-74.09 2023.42,-83.76 2028.51,-78.96"/>
</a>
</g>
</g>
</g>
</svg>

<g id="navigator" transform="translate(0 0)" fill="#404254">
  <rect fill="#f2f5e9" fill-opacity="0.5" stroke="#606060" stroke-width=".5" x="0" y="0" width="60" height="60"/>
  <use id="zoomplus" xlink:href="#zoomPlus" x="17" y="9" onmousedown="handleZoom(evt,'in')"/>
  <use id="zoomminus" xlink:href="#zoomMin" x="42" y="9" onmousedown="handleZoom(evt,'out')"/>
  <use id="reset" xlink:href="#resetDef" x="30" y="36" onmousedown="handleReset()"/>
   <use id="arrowup" xlink:href="#arrowUp" x="0" y="0" onmousedown="handlePan(0,-1)"/>
  <use id="arrowright" xlink:href="#arrowRight" x="0" y="0" onmousedown="handlePan(1,0)"/>
  <use id="arrowdown" xlink:href="#arrowDown" x="0" y="0" onmousedown="handlePan(0,1)"/>
  <use id="arrowleft" xlink:href="#arrowLeft" x="0" y="0" onmousedown="handlePan(-1,0)"/>
</g>
<svg viewBox="0 0 15 15" width="100%" height="30px" preserveAspectRatio="xMaxYMin meet">
 <g id="arrow_out" transform="scale(0.3 0.3)">
  <a xlink:href="_conduction_jacobi_preconditioner_8_c__incl_org.svg" target="_base">
   <rect id="button" ry="5" rx="5" y="6" x="6" height="38" width="38"
        fill="#f2f5e9" fill-opacity="0.5" stroke="#606060" stroke-width="1.0"/>
   <path id="arrow"
     d="M 11.500037,31.436501 C 11.940474,20.09759 22.043105,11.32322 32.158766,21.979434 L 37.068811,17.246167 C 37.068811,17.246167 37.088388,32 37.088388,32 L 22.160133,31.978069 C 22.160133,31.978069 26.997745,27.140456 26.997745,27.140456 C 18.528582,18.264221 13.291696,25.230495 11.500037,31.436501 z"
     style="fill:#404040;"/>
  </a>
 </g>
</svg>

<style type='text/css'>
<![CDATA[
[data-mouse-over-selected='false'] { opacity: 0.7; }
[data-mouse-over-selected='true']  { opacity: 1.0; }
]]>
</style>
<script type="application/ecmascript"><![CDATA[
document.addEventListener('DOMContentLoaded', (event) => {
  highlightEdges();
  highlightAdjacentNodes();
});
]]></script>
</svg>
