<?xml version="1.0" encoding="UTF-8" standalone="no"?>
<!DOCTYPE svg PUBLIC "-//W3C//DTD SVG 1.1//EN"
 "http://www.w3.org/Graphics/SVG/1.1/DTD/svg11.dtd">
<!-- Generated by graphviz version 2.43.0 (0)
 -->
<!-- Title: ConductionFields.h Pages: 1 -->
<!--zoomable 258 -->

<svg id="main" version="1.1" xmlns="http://www.w3.org/2000/svg" xmlns:xlink="http://www.w3.org/1999/xlink" xml:space="preserve" onload="init(evt)">
<style type="text/css"><![CDATA[
.node, .edge {opacity: 0.7;}
.node.selected, .edge.selected {opacity: 1;}
.edge:hover path { stroke: red; }
.edge:hover polygon { stroke: red; fill: red; }
]]></style>

<defs>
  <circle id="rim" cx="0" cy="0" r="7"/>
  <circle id="rim2" cx="0" cy="0" r="3.5"/>
  <g id="zoomPlus">
    <use xlink:href="#rim" fill="#404040"><set attributeName="fill" to="#808080" begin="zoomplus.mouseover" end="zoomplus.mouseout"/></use>
    <path d="M-4,0h8M0,-4v8" fill="none" stroke="white" stroke-width="1.5" pointer-events="none"/>
  </g>
  <g id="zoomMin">
    <use xlink:href="#rim" fill="#404040"><set attributeName="fill" to="#808080" begin="zoomminus.mouseover" end="zoomminus.mouseout"/></use>
    <path d="M-4,0h8" fill="none" stroke="white" stroke-width="1.5" pointer-events="none"/>
  </g>
  <g id="arrowUp" transform="translate(30 24)">
    <use xlink:href="#rim"/>
    <path pointer-events="none" fill="none" stroke="white" stroke-width="1.5" d="M0,-3.0v7 M-2.5,-0.5L0,-3.0L2.5,-0.5"/>
  </g>
  <g id="arrowRight" transform="rotate(90) translate(36 -43)">
    <use xlink:href="#rim"/>
    <path pointer-events="none" fill="none" stroke="white" stroke-width="1.5" d="M0,-3.0v7 M-2.5,-0.5L0,-3.0L2.5,-0.5"/>
  </g>
  <g id="arrowDown" transform="rotate(180) translate(-30 -48)">
    <use xlink:href="#rim"/>
    <path pointer-events="none" fill="none" stroke="white" stroke-width="1.5" d="M0,-3.0v7 M-2.5,-0.5L0,-3.0L2.5,-0.5"/>
  </g>
  <g id="arrowLeft" transform="rotate(270) translate(-36 17)">
    <use xlink:href="#rim"/>
    <path pointer-events="none" fill="none" stroke="white" stroke-width="1.5" d="M0,-3.0v7 M-2.5,-0.5L0,-3.0L2.5,-0.5"/>
  </g>
  <g id="resetDef">
    <use xlink:href="#rim2" fill="#404040"><set attributeName="fill" to="#808080" begin="reset.mouseover" end="reset.mouseout"/></use>
  </g>
</defs>
<script type="application/ecmascript">
var viewWidth = 931;
var viewHeight = 258;
var sectionId = 'dynsection-1';
</script>
<script type="application/ecmascript" xlink:href="svg.min.js"/>
<svg id="graph" class="graph">
<g id="viewport">
<title>ConductionFields.h</title>
<!-- Node1 -->
<g id="Node000001" class="node">
<title>Node1</title>
<g id="a_Node000001"><a xlink:title=" ">
<polygon fill="#999999" stroke="#666666" points="406.5,-250 297.5,-250 297.5,-231 406.5,-231 406.5,-250"/>
<text text-anchor="middle" x="352" y="-238" font-family="Helvetica,sans-Serif" font-size="10.00">ConductionFields.h</text>
</a>
</g>
</g>
<!-- Node2 -->
<g id="Node000002" class="node">
<title>Node2</title>
<g id="a_Node000002"><a xlink:href="_conduction_fields_8_c.html" target="_top" xlink:title=" ">
<polygon fill="white" stroke="#666666" points="110,-195 0,-195 0,-176 110,-176 110,-195"/>
<text text-anchor="middle" x="55" y="-183" font-family="Helvetica,sans-Serif" font-size="10.00">ConductionFields.C</text>
</a>
</g>
</g>
<!-- Node1&#45;&gt;Node2 -->
<g id="edge1_Node000001_Node000002" class="edge">
<title>Node1&#45;&gt;Node2</title>
<g id="a_edge1_Node000001_Node000002"><a xlink:title=" ">
<path fill="none" stroke="#63b8ff" d="M294.22,-229.19C238.54,-219.25 155.26,-204.39 103.09,-195.08"/>
<polygon fill="#63b8ff" stroke="#63b8ff" points="293.82,-232.67 304.28,-230.98 295.05,-225.78 293.82,-232.67"/>
</a>
</g>
</g>
<!-- Node3 -->
<g id="Node000003" class="node">
<title>Node3</title>
<g id="a_Node000003"><a xlink:href="_conduction_gathered_field_manager_8_c.html" target="_top" xlink:title=" ">
<polygon fill="white" stroke="#666666" points="357.5,-140 166.5,-140 166.5,-121 357.5,-121 357.5,-140"/>
<text text-anchor="middle" x="262" y="-128" font-family="Helvetica,sans-Serif" font-size="10.00">ConductionGatheredFieldManager.C</text>
</a>
</g>
</g>
<!-- Node1&#45;&gt;Node3 -->
<g id="edge2_Node000001_Node000003" class="edge">
<title>Node1&#45;&gt;Node3</title>
<g id="a_edge2_Node000001_Node000003"><a xlink:title=" ">
<path fill="none" stroke="#63b8ff" d="M292.62,-227.69C274.95,-221.11 257.52,-210.88 247,-195 235.62,-177.81 248,-152.97 256.11,-140.04"/>
<polygon fill="#63b8ff" stroke="#63b8ff" points="291.83,-231.11 302.42,-230.98 294.06,-224.48 291.83,-231.11"/>
</a>
</g>
</g>
<!-- Node4 -->
<g id="Node000004" class="node">
<title>Node4</title>
<g id="a_Node000004"><a xlink:href="_conduction_gathered_field_manager_8h.html" target="_top" xlink:title=" ">
<polygon fill="white" stroke="#666666" points="447.5,-195 256.5,-195 256.5,-176 447.5,-176 447.5,-195"/>
<text text-anchor="middle" x="352" y="-183" font-family="Helvetica,sans-Serif" font-size="10.00">ConductionGatheredFieldManager.h</text>
</a>
</g>
</g>
<!-- Node1&#45;&gt;Node4 -->
<g id="edge3_Node000001_Node000004" class="edge">
<title>Node1&#45;&gt;Node4</title>
<g id="a_edge3_Node000001_Node000004"><a xlink:title=" ">
<path fill="none" stroke="#63b8ff" d="M352,-220.66C352,-211.93 352,-201.99 352,-195.09"/>
<polygon fill="#63b8ff" stroke="#63b8ff" points="348.5,-220.75 352,-230.75 355.5,-220.75 348.5,-220.75"/>
</a>
</g>
</g>
<!-- Node6 -->
<g id="Node000006" class="node">
<title>Node6</title>
<g id="a_Node000006"><a xlink:href="_conduction_update_8_c.html" target="_top" xlink:title=" ">
<polygon fill="white" stroke="#666666" points="242,-24.5 126,-24.5 126,-5.5 242,-5.5 242,-24.5"/>
<text text-anchor="middle" x="184" y="-12.5" font-family="Helvetica,sans-Serif" font-size="10.00">ConductionUpdate.C</text>
</a>
</g>
</g>
<!-- Node1&#45;&gt;Node6 -->
<g id="edge17_Node000001_Node000006" class="edge">
<title>Node1&#45;&gt;Node6</title>
<g id="a_edge17_Node000001_Node000006"><a xlink:title=" ">
<path fill="none" stroke="#63b8ff" d="M293.92,-228.52C246.81,-216.08 183.97,-190.56 157,-140 135.95,-100.54 165.26,-45.69 178.3,-24.67"/>
<polygon fill="#63b8ff" stroke="#63b8ff" points="293.16,-231.93 303.71,-230.97 294.86,-225.14 293.16,-231.93"/>
</a>
</g>
</g>
<!-- Node8 -->
<g id="Node000008" class="node">
<title>Node8</title>
<g id="a_Node000008"><a xlink:href="_conduction_jacobi_preconditioner_8h.html" target="_top" xlink:title=" ">
<polygon fill="white" stroke="#666666" points="644.5,-195 465.5,-195 465.5,-176 644.5,-176 644.5,-195"/>
<text text-anchor="middle" x="555" y="-183" font-family="Helvetica,sans-Serif" font-size="10.00">ConductionJacobiPreconditioner.h</text>
</a>
</g>
</g>
<!-- Node1&#45;&gt;Node8 -->
<g id="edge8_Node000001_Node000008" class="edge">
<title>Node1&#45;&gt;Node8</title>
<g id="a_edge8_Node000001_Node000008"><a xlink:title=" ">
<path fill="none" stroke="#63b8ff" d="M394.37,-228.44C432.37,-218.52 487.36,-204.16 522.13,-195.08"/>
<polygon fill="#63b8ff" stroke="#63b8ff" points="393.41,-225.07 384.62,-230.98 395.18,-231.84 393.41,-225.07"/>
</a>
</g>
</g>
<!-- Node11 -->
<g id="Node000011" class="node">
<title>Node11</title>
<g id="a_Node000011"><a xlink:href="_conduction_solution_update_8_c.html" target="_top" xlink:title=" ">
<polygon fill="white" stroke="#666666" points="891,-85 735,-85 735,-66 891,-66 891,-85"/>
<text text-anchor="middle" x="813" y="-73" font-family="Helvetica,sans-Serif" font-size="10.00">ConductionSolutionUpdate.C</text>
</a>
</g>
</g>
<!-- Node1&#45;&gt;Node11 -->
<g id="edge16_Node000001_Node000011" class="edge">
<title>Node1&#45;&gt;Node11</title>
<g id="a_edge16_Node000001_Node000011"><a xlink:title=" ">
<path fill="none" stroke="#63b8ff" d="M417.01,-239.25C553.97,-237.09 864.06,-222.94 918,-140 936.24,-111.96 892.61,-94.43 856.15,-85.07"/>
<polygon fill="#63b8ff" stroke="#63b8ff" points="416.62,-235.76 406.67,-239.4 416.71,-242.76 416.62,-235.76"/>
</a>
</g>
</g>
<!-- Node12 -->
<g id="Node000012" class="node">
<title>Node12</title>
<g id="a_Node000012"><a xlink:href="_conduction_operator_8h.html" target="_top" xlink:title=" ">
<polygon fill="white" stroke="#666666" points="785,-195 663,-195 663,-176 785,-176 785,-195"/>
<text text-anchor="middle" x="724" y="-183" font-family="Helvetica,sans-Serif" font-size="10.00">ConductionOperator.h</text>
</a>
</g>
</g>
<!-- Node1&#45;&gt;Node12 -->
<g id="edge13_Node000001_Node000012" class="edge">
<title>Node1&#45;&gt;Node12</title>
<g id="a_edge13_Node000001_Node000012"><a xlink:title=" ">
<path fill="none" stroke="#63b8ff" d="M416.88,-230.26C486.62,-220.32 596.57,-204.66 664.26,-195.01"/>
<polygon fill="#63b8ff" stroke="#63b8ff" points="416.3,-226.8 406.89,-231.68 417.28,-233.73 416.3,-226.8"/>
</a>
</g>
</g>
<!-- Node4&#45;&gt;Node3 -->
<g id="edge4_Node000004_Node000003" class="edge">
<title>Node4&#45;&gt;Node3</title>
<g id="a_edge4_Node000004_Node000003"><a xlink:title=" ">
<path fill="none" stroke="#63b8ff" d="M328.56,-170.7C312.16,-161.04 290.77,-148.44 276.72,-140.17"/>
<polygon fill="#63b8ff" stroke="#63b8ff" points="327.15,-173.93 337.54,-175.98 330.7,-167.89 327.15,-173.93"/>
</a>
</g>
</g>
<!-- Node5 -->
<g id="Node000005" class="node">
<title>Node5</title>
<g id="a_Node000005"><a xlink:href="_conduction_update_8h.html" target="_top" xlink:title=" ">
<polygon fill="white" stroke="#666666" points="444,-85 328,-85 328,-66 444,-66 444,-85"/>
<text text-anchor="middle" x="386" y="-73" font-family="Helvetica,sans-Serif" font-size="10.00">ConductionUpdate.h</text>
</a>
</g>
</g>
<!-- Node4&#45;&gt;Node5 -->
<g id="edge5_Node000004_Node000005" class="edge">
<title>Node4&#45;&gt;Node5</title>
<g id="a_edge5_Node000004_Node000005"><a xlink:title=" ">
<path fill="none" stroke="#63b8ff" d="M357.89,-165.8C365.32,-142.2 377.79,-102.58 383.27,-85.16"/>
<polygon fill="#63b8ff" stroke="#63b8ff" points="354.45,-165.07 354.78,-175.66 361.12,-167.17 354.45,-165.07"/>
</a>
</g>
</g>
<!-- Node5&#45;&gt;Node6 -->
<g id="edge6_Node000005_Node000006" class="edge">
<title>Node5&#45;&gt;Node6</title>
<g id="a_edge6_Node000005_Node000006"><a xlink:title=" ">
<path fill="none" stroke="#63b8ff" d="M346.66,-63.11C307.59,-51.79 248.58,-34.7 213.41,-24.52"/>
<polygon fill="#63b8ff" stroke="#63b8ff" points="346.05,-66.57 356.63,-65.99 348,-59.85 346.05,-66.57"/>
</a>
</g>
</g>
<!-- Node7 -->
<g id="Node000007" class="node">
<title>Node7</title>
<g id="a_Node000007"><a xlink:href="_matrix_free_heat_cond_equation_system_8_c.html" target="_top" xlink:title=" ">
<polygon fill="white" stroke="#666666" points="466,-30 306,-30 306,0 466,0 466,-30"/>
<text text-anchor="start" x="314" y="-18" font-family="Helvetica,sans-Serif" font-size="10.00">MatrixFreeHeatCondEquation</text>
<text text-anchor="middle" x="386" y="-7" font-family="Helvetica,sans-Serif" font-size="10.00">System.C</text>
</a>
</g>
</g>
<!-- Node5&#45;&gt;Node7 -->
<g id="edge7_Node000005_Node000007" class="edge">
<title>Node5&#45;&gt;Node7</title>
<g id="a_edge7_Node000005_Node000007"><a xlink:title=" ">
<path fill="none" stroke="#63b8ff" d="M386,-55.65C386,-47.36 386,-37.78 386,-30.11"/>
<polygon fill="#63b8ff" stroke="#63b8ff" points="382.5,-55.87 386,-65.87 389.5,-55.87 382.5,-55.87"/>
</a>
</g>
</g>
<!-- Node9 -->
<g id="Node000009" class="node">
<title>Node9</title>
<g id="a_Node000009"><a xlink:href="_conduction_jacobi_preconditioner_8_c.html" target="_top" xlink:title=" ">
<polygon fill="white" stroke="#666666" points="594,-140 414,-140 414,-121 594,-121 594,-140"/>
<text text-anchor="middle" x="504" y="-128" font-family="Helvetica,sans-Serif" font-size="10.00">ConductionJacobiPreconditioner.C</text>
</a>
</g>
</g>
<!-- Node8&#45;&gt;Node9 -->
<g id="edge9_Node000008_Node000009" class="edge">
<title>Node8&#45;&gt;Node9</title>
<g id="a_edge9_Node000008_Node000009"><a xlink:title=" ">
<path fill="none" stroke="#63b8ff" d="M539.62,-168.52C530.63,-159.18 519.64,-147.75 512.26,-140.09"/>
<polygon fill="#63b8ff" stroke="#63b8ff" points="537.12,-170.97 546.58,-175.75 542.17,-166.12 537.12,-170.97"/>
</a>
</g>
</g>
<!-- Node10 -->
<g id="Node000010" class="node">
<title>Node10</title>
<g id="a_Node000010"><a xlink:href="_conduction_solution_update_8h.html" target="_top" xlink:title=" ">
<polygon fill="white" stroke="#666666" points="767.5,-140 612.5,-140 612.5,-121 767.5,-121 767.5,-140"/>
<text text-anchor="middle" x="690" y="-128" font-family="Helvetica,sans-Serif" font-size="10.00">ConductionSolutionUpdate.h</text>
</a>
</g>
</g>
<!-- Node8&#45;&gt;Node10 -->
<g id="edge10_Node000008_Node000010" class="edge">
<title>Node8&#45;&gt;Node10</title>
<g id="a_edge10_Node000008_Node000010"><a xlink:title=" ">
<path fill="none" stroke="#63b8ff" d="M586.1,-172.29C611.12,-162.47 645.66,-148.91 667.92,-140.17"/>
<polygon fill="#63b8ff" stroke="#63b8ff" points="584.72,-169.07 576.69,-175.98 587.28,-175.59 584.72,-169.07"/>
</a>
</g>
</g>
<!-- Node10&#45;&gt;Node5 -->
<g id="edge12_Node000010_Node000005" class="edge">
<title>Node10&#45;&gt;Node5</title>
<g id="a_edge12_Node000010_Node000005"><a xlink:title=" ">
<path fill="none" stroke="#63b8ff" d="M631.2,-119.25C574.11,-109.3 488.46,-94.36 434.97,-85.04"/>
<polygon fill="#63b8ff" stroke="#63b8ff" points="630.7,-122.72 641.16,-120.98 631.91,-115.82 630.7,-122.72"/>
</a>
</g>
</g>
<!-- Node10&#45;&gt;Node11 -->
<g id="edge11_Node000010_Node000011" class="edge">
<title>Node10&#45;&gt;Node11</title>
<g id="a_edge11_Node000010_Node000011"><a xlink:title=" ">
<path fill="none" stroke="#63b8ff" d="M719.25,-116.9C741.97,-107.11 772.87,-93.79 792.88,-85.17"/>
<polygon fill="#63b8ff" stroke="#63b8ff" points="717.56,-113.81 709.76,-120.98 720.33,-120.24 717.56,-113.81"/>
</a>
</g>
</g>
<!-- Node12&#45;&gt;Node10 -->
<g id="edge15_Node000012_Node000010" class="edge">
<title>Node12&#45;&gt;Node10</title>
<g id="a_edge15_Node000012_Node000010"><a xlink:title=" ">
<path fill="none" stroke="#63b8ff" d="M712.84,-167.1C707.03,-158.04 700.18,-147.37 695.51,-140.09"/>
<polygon fill="#63b8ff" stroke="#63b8ff" points="710.04,-169.22 718.39,-175.75 715.93,-165.44 710.04,-169.22"/>
</a>
</g>
</g>
<!-- Node13 -->
<g id="Node000013" class="node">
<title>Node13</title>
<g id="a_Node000013"><a xlink:href="_conduction_operator_8_c.html" target="_top" xlink:title=" ">
<polygon fill="white" stroke="#666666" points="908.5,-140 785.5,-140 785.5,-121 908.5,-121 908.5,-140"/>
<text text-anchor="middle" x="847" y="-128" font-family="Helvetica,sans-Serif" font-size="10.00">ConductionOperator.C</text>
</a>
</g>
</g>
<!-- Node12&#45;&gt;Node13 -->
<g id="edge14_Node000012_Node000013" class="edge">
<title>Node12&#45;&gt;Node13</title>
<g id="a_edge14_Node000012_Node000013"><a xlink:title=" ">
<path fill="none" stroke="#63b8ff" d="M753.25,-171.9C775.97,-162.11 806.87,-148.79 826.88,-140.17"/>
<polygon fill="#63b8ff" stroke="#63b8ff" points="751.56,-168.81 743.76,-175.98 754.33,-175.24 751.56,-168.81"/>
</a>
</g>
</g>
</g>
</svg>

<g id="navigator" transform="translate(0 0)" fill="#404254">
  <rect fill="#f2f5e9" fill-opacity="0.5" stroke="#606060" stroke-width=".5" x="0" y="0" width="60" height="60"/>
  <use id="zoomplus" xlink:href="#zoomPlus" x="17" y="9" onmousedown="handleZoom(evt,'in')"/>
  <use id="zoomminus" xlink:href="#zoomMin" x="42" y="9" onmousedown="handleZoom(evt,'out')"/>
  <use id="reset" xlink:href="#resetDef" x="30" y="36" onmousedown="handleReset()"/>
   <use id="arrowup" xlink:href="#arrowUp" x="0" y="0" onmousedown="handlePan(0,-1)"/>
  <use id="arrowright" xlink:href="#arrowRight" x="0" y="0" onmousedown="handlePan(1,0)"/>
  <use id="arrowdown" xlink:href="#arrowDown" x="0" y="0" onmousedown="handlePan(0,1)"/>
  <use id="arrowleft" xlink:href="#arrowLeft" x="0" y="0" onmousedown="handlePan(-1,0)"/>
</g>
<svg viewBox="0 0 15 15" width="100%" height="30px" preserveAspectRatio="xMaxYMin meet">
 <g id="arrow_out" transform="scale(0.3 0.3)">
  <a xlink:href="_conduction_fields_8h__dep__incl_org.svg" target="_base">
   <rect id="button" ry="5" rx="5" y="6" x="6" height="38" width="38"
        fill="#f2f5e9" fill-opacity="0.5" stroke="#606060" stroke-width="1.0"/>
   <path id="arrow"
     d="M 11.500037,31.436501 C 11.940474,20.09759 22.043105,11.32322 32.158766,21.979434 L 37.068811,17.246167 C 37.068811,17.246167 37.088388,32 37.088388,32 L 22.160133,31.978069 C 22.160133,31.978069 26.997745,27.140456 26.997745,27.140456 C 18.528582,18.264221 13.291696,25.230495 11.500037,31.436501 z"
     style="fill:#404040;"/>
  </a>
 </g>
</svg>

<style type='text/css'>
<![CDATA[
[data-mouse-over-selected='false'] { opacity: 0.7; }
[data-mouse-over-selected='true']  { opacity: 1.0; }
]]>
</style>
<script type="application/ecmascript"><![CDATA[
document.addEventListener('DOMContentLoaded', (event) => {
  highlightEdges();
  highlightAdjacentNodes();
});
]]></script>
</svg>
