<?xml version="1.0" encoding="UTF-8" standalone="no"?>
<!DOCTYPE svg PUBLIC "-//W3C//DTD SVG 1.1//EN"
 "http://www.w3.org/Graphics/SVG/1.1/DTD/svg11.dtd">
<!-- Generated by graphviz version 2.43.0 (0)
 -->
<!-- Title: ConductionGatheredFieldManager.h Pages: 1 -->
<svg width="412pt" height="151pt"
 viewBox="0.00 0.00 411.50 151.00" xmlns="http://www.w3.org/2000/svg" xmlns:xlink="http://www.w3.org/1999/xlink">
<g id="graph0" class="graph" transform="scale(1 1) rotate(0) translate(4 147)">
<title>ConductionGatheredFieldManager.h</title>
<polygon fill="white" stroke="transparent" points="-4,4 -4,-147 407.5,-147 407.5,4 -4,4"/>
<!-- Node1 -->
<g id="node1" class="node">
<title>Node1</title>
<g id="a_node1"><a xlink:title=" ">
<polygon fill="#bfbfbf" stroke="black" points="126.5,-123.5 126.5,-142.5 317.5,-142.5 317.5,-123.5 126.5,-123.5"/>
<text text-anchor="middle" x="222" y="-130.5" font-family="Helvetica,sans-Serif" font-size="10.00">ConductionGatheredFieldManager.h</text>
</a>
</g>
</g>
<!-- Node2 -->
<g id="node2" class="node">
<title>Node2</title>
<g id="a_node2"><a xlink:href="_conduction_update_8h.html" target="_top" xlink:title=" ">
<polygon fill="white" stroke="black" points="78,-67.5 78,-86.5 194,-86.5 194,-67.5 78,-67.5"/>
<text text-anchor="middle" x="136" y="-74.5" font-family="Helvetica,sans-Serif" font-size="10.00">ConductionUpdate.h</text>
</a>
</g>
</g>
<!-- Node1&#45;&gt;Node2 -->
<g id="edge1" class="edge">
<title>Node1&#45;&gt;Node2</title>
<path fill="none" stroke="midnightblue" d="M199.55,-117.9C183.78,-108 163.19,-95.07 149.78,-86.65"/>
<polygon fill="midnightblue" stroke="midnightblue" points="197.85,-120.97 208.18,-123.32 201.57,-115.04 197.85,-120.97"/>
</g>
<!-- Node5 -->
<g id="node5" class="node">
<title>Node5</title>
<g id="a_node5"><a xlink:href="_conduction_gathered_field_manager_8_c.html" target="_top" xlink:title=" ">
<polygon fill="white" stroke="black" points="212.5,-67.5 212.5,-86.5 403.5,-86.5 403.5,-67.5 212.5,-67.5"/>
<text text-anchor="middle" x="308" y="-74.5" font-family="Helvetica,sans-Serif" font-size="10.00">ConductionGatheredFieldManager.C</text>
</a>
</g>
</g>
<!-- Node1&#45;&gt;Node5 -->
<g id="edge4" class="edge">
<title>Node1&#45;&gt;Node5</title>
<path fill="none" stroke="midnightblue" d="M244.45,-117.9C260.22,-108 280.81,-95.07 294.22,-86.65"/>
<polygon fill="midnightblue" stroke="midnightblue" points="242.43,-115.04 235.82,-123.32 246.15,-120.97 242.43,-115.04"/>
</g>
<!-- Node3 -->
<g id="node3" class="node">
<title>Node3</title>
<g id="a_node3"><a xlink:href="_conduction_update_8_c.html" target="_top" xlink:title=" ">
<polygon fill="white" stroke="black" points="0,-6 0,-25 116,-25 116,-6 0,-6"/>
<text text-anchor="middle" x="58" y="-13" font-family="Helvetica,sans-Serif" font-size="10.00">ConductionUpdate.C</text>
</a>
</g>
</g>
<!-- Node2&#45;&gt;Node3 -->
<g id="edge2" class="edge">
<title>Node2&#45;&gt;Node3</title>
<path fill="none" stroke="midnightblue" d="M116.72,-61.29C101.76,-49.88 81.54,-34.46 69.15,-25.01"/>
<polygon fill="midnightblue" stroke="midnightblue" points="114.75,-64.19 124.82,-67.48 119,-58.63 114.75,-64.19"/>
</g>
<!-- Node4 -->
<g id="node4" class="node">
<title>Node4</title>
<g id="a_node4"><a xlink:href="_matrix_free_heat_cond_equation_system_8_c.html" target="_top" xlink:title=" ">
<polygon fill="white" stroke="black" points="134,-0.5 134,-30.5 294,-30.5 294,-0.5 134,-0.5"/>
<text text-anchor="start" x="142" y="-18.5" font-family="Helvetica,sans-Serif" font-size="10.00">MatrixFreeHeatCondEquation</text>
<text text-anchor="middle" x="214" y="-7.5" font-family="Helvetica,sans-Serif" font-size="10.00">System.C</text>
</a>
</g>
</g>
<!-- Node2&#45;&gt;Node4 -->
<g id="edge3" class="edge">
<title>Node2&#45;&gt;Node4</title>
<path fill="none" stroke="midnightblue" d="M155.41,-61.2C167.71,-51.81 183.52,-39.75 195.62,-30.52"/>
<polygon fill="midnightblue" stroke="midnightblue" points="153,-58.63 147.18,-67.48 157.25,-64.19 153,-58.63"/>
</g>
</g>
</svg>
