<?xml version="1.0" encoding="UTF-8" standalone="no"?>
<!DOCTYPE svg PUBLIC "-//W3C//DTD SVG 1.1//EN"
 "http://www.w3.org/Graphics/SVG/1.1/DTD/svg11.dtd">
<!-- Generated by graphviz version 2.43.0 (0)
 -->
<!-- Title: ConductionUpdate.h Pages: 1 -->
<svg width="2583pt" height="386pt"
 viewBox="0.00 0.00 2582.50 386.00" xmlns="http://www.w3.org/2000/svg" xmlns:xlink="http://www.w3.org/1999/xlink">
<g id="graph0" class="graph" transform="scale(1 1) rotate(0) translate(4 382)">
<title>ConductionUpdate.h</title>
<polygon fill="white" stroke="transparent" points="-4,4 -4,-382 2578.5,-382 2578.5,4 -4,4"/>
<!-- Node1 -->
<g id="node1" class="node">
<title>Node1</title>
<g id="a_node1"><a xlink:title=" ">
<polygon fill="#bfbfbf" stroke="black" points="806,-358.5 806,-377.5 922,-377.5 922,-358.5 806,-358.5"/>
<text text-anchor="middle" x="864" y="-365.5" font-family="Helvetica,sans-Serif" font-size="10.00">ConductionUpdate.h</text>
</a>
</g>
</g>
<!-- Node2 -->
<g id="node2" class="node">
<title>Node2</title>
<g id="a_node2"><a xlink:href="_conduction_gathered_field_manager_8h.html" target="_top" xlink:title=" ">
<polygon fill="white" stroke="black" points="1354,-224.5 1354,-254.5 1530,-254.5 1530,-224.5 1354,-224.5"/>
<text text-anchor="start" x="1362" y="-242.5" font-family="Helvetica,sans-Serif" font-size="10.00">matrix_free/ConductionGathered</text>
<text text-anchor="middle" x="1442" y="-231.5" font-family="Helvetica,sans-Serif" font-size="10.00">FieldManager.h</text>
</a>
</g>
</g>
<!-- Node1&#45;&gt;Node2 -->
<g id="edge1" class="edge">
<title>Node1&#45;&gt;Node2</title>
<path fill="none" stroke="midnightblue" d="M903.27,-358.4C998.77,-337.51 1244.33,-283.76 1368.21,-256.65"/>
<polygon fill="midnightblue" stroke="midnightblue" points="1368.98,-260.06 1378,-254.51 1367.48,-253.23 1368.98,-260.06"/>
</g>
<!-- Node6 -->
<g id="node6" class="node">
<title>Node6</title>
<g id="a_node6"><a xlink:title=" ">
<polygon fill="white" stroke="#bfbfbf" points="57,-0.5 57,-19.5 157,-19.5 157,-0.5 57,-0.5"/>
<text text-anchor="middle" x="107" y="-7.5" font-family="Helvetica,sans-Serif" font-size="10.00">Kokkos_Core.hpp</text>
</a>
</g>
</g>
<!-- Node1&#45;&gt;Node6 -->
<g id="edge69" class="edge">
<title>Node1&#45;&gt;Node6</title>
<path fill="none" stroke="midnightblue" d="M805.87,-364.83C671.29,-359.47 341.56,-344.44 233,-322 125.56,-299.79 0,-350.21 0,-240.5 0,-240.5 0,-240.5 0,-121 0,-75.41 47.8,-41.62 79.51,-24.23"/>
<polygon fill="midnightblue" stroke="midnightblue" points="81.15,-27.32 88.36,-19.56 77.88,-21.13 81.15,-27.32"/>
</g>
<!-- Node18 -->
<g id="node18" class="node">
<title>Node18</title>
<g id="a_node18"><a xlink:title=" ">
<polygon fill="white" stroke="#bfbfbf" points="83,-112.5 83,-131.5 131,-131.5 131,-112.5 83,-112.5"/>
<text text-anchor="middle" x="107" y="-119.5" font-family="Helvetica,sans-Serif" font-size="10.00">iosfwd</text>
</a>
</g>
</g>
<!-- Node1&#45;&gt;Node18 -->
<g id="edge74" class="edge">
<title>Node1&#45;&gt;Node18</title>
<path fill="none" stroke="midnightblue" d="M805.89,-366.79C712.86,-365.32 525.28,-357.7 371,-322 247.03,-293.32 180.25,-298.98 118,-188 110.04,-173.81 107.53,-155.33 106.87,-141.7"/>
<polygon fill="midnightblue" stroke="midnightblue" points="110.37,-141.53 106.67,-131.6 103.37,-141.67 110.37,-141.53"/>
</g>
<!-- Node19 -->
<g id="node19" class="node">
<title>Node19</title>
<g id="a_node19"><a xlink:title=" ">
<polygon fill="white" stroke="#bfbfbf" points="450.5,-168.5 450.5,-187.5 603.5,-187.5 603.5,-168.5 450.5,-168.5"/>
<text text-anchor="middle" x="527" y="-175.5" font-family="Helvetica,sans-Serif" font-size="10.00">stk_mesh/base/Selector.hpp</text>
</a>
</g>
</g>
<!-- Node1&#45;&gt;Node19 -->
<g id="edge73" class="edge">
<title>Node1&#45;&gt;Node19</title>
<path fill="none" stroke="midnightblue" d="M810.31,-358.46C746.07,-345.8 638.39,-316.6 568,-255 550.42,-239.61 539.05,-214.79 532.84,-197.73"/>
<polygon fill="midnightblue" stroke="midnightblue" points="536.01,-196.17 529.5,-187.81 529.38,-198.4 536.01,-196.17"/>
</g>
<!-- Node20 -->
<g id="node20" class="node">
<title>Node20</title>
<g id="a_node20"><a xlink:href="_conduction_solution_update_8h.html" target="_top" xlink:title=" ">
<polygon fill="white" stroke="black" points="778.5,-291.5 778.5,-321.5 949.5,-321.5 949.5,-291.5 778.5,-291.5"/>
<text text-anchor="start" x="786.5" y="-309.5" font-family="Helvetica,sans-Serif" font-size="10.00">matrix_free/ConductionSolution</text>
<text text-anchor="middle" x="864" y="-298.5" font-family="Helvetica,sans-Serif" font-size="10.00">Update.h</text>
</a>
</g>
</g>
<!-- Node1&#45;&gt;Node20 -->
<g id="edge21" class="edge">
<title>Node1&#45;&gt;Node20</title>
<path fill="none" stroke="midnightblue" d="M864,-358.48C864,-351.47 864,-341.19 864,-331.7"/>
<polygon fill="midnightblue" stroke="midnightblue" points="867.5,-331.52 864,-321.52 860.5,-331.52 867.5,-331.52"/>
</g>
<!-- Node27 -->
<g id="node27" class="node">
<title>Node27</title>
<g id="a_node27"><a xlink:title=" ">
<polygon fill="white" stroke="#bfbfbf" points="332,-168.5 332,-187.5 432,-187.5 432,-168.5 332,-168.5"/>
<text text-anchor="middle" x="382" y="-175.5" font-family="Helvetica,sans-Serif" font-size="10.00">Teuchos_RCP.hpp</text>
</a>
</g>
</g>
<!-- Node1&#45;&gt;Node27 -->
<g id="edge70" class="edge">
<title>Node1&#45;&gt;Node27</title>
<path fill="none" stroke="midnightblue" d="M805.98,-362.29C755.31,-356.79 680.47,-345.3 619,-322 531.64,-288.89 440.28,-223.6 401.38,-194.1"/>
<polygon fill="midnightblue" stroke="midnightblue" points="403.13,-191.03 393.07,-187.73 398.88,-196.59 403.13,-191.03"/>
</g>
<!-- Node28 -->
<g id="node28" class="node">
<title>Node28</title>
<g id="a_node28"><a xlink:title=" ">
<polygon fill="white" stroke="#bfbfbf" points="1984,-168.5 1984,-187.5 2090,-187.5 2090,-168.5 1984,-168.5"/>
<text text-anchor="middle" x="2037" y="-175.5" font-family="Helvetica,sans-Serif" font-size="10.00">Tpetra_Export.hpp</text>
</a>
</g>
</g>
<!-- Node1&#45;&gt;Node28 -->
<g id="edge71" class="edge">
<title>Node1&#45;&gt;Node28</title>
<path fill="none" stroke="midnightblue" d="M922.07,-367.6C1093.69,-368.77 1613.27,-367.96 2041,-322 2210.21,-303.82 2308.7,-385.44 2418,-255 2426.85,-244.44 2427.15,-234.3 2418,-224 2397.31,-200.72 2203.4,-187.43 2100.48,-181.97"/>
<polygon fill="midnightblue" stroke="midnightblue" points="2100.38,-178.46 2090.21,-181.43 2100.02,-185.45 2100.38,-178.46"/>
</g>
<!-- Node33 -->
<g id="node33" class="node">
<title>Node33</title>
<g id="a_node33"><a xlink:href="_equation_update_8h.html" target="_top" xlink:title=" ">
<polygon fill="white" stroke="black" points="1868,-297 1868,-316 2032,-316 2032,-297 1868,-297"/>
<text text-anchor="middle" x="1950" y="-304" font-family="Helvetica,sans-Serif" font-size="10.00">matrix_free/EquationUpdate.h</text>
</a>
</g>
</g>
<!-- Node1&#45;&gt;Node33 -->
<g id="edge47" class="edge">
<title>Node1&#45;&gt;Node33</title>
<path fill="none" stroke="midnightblue" d="M922,-363.82C1100.05,-354.07 1639.82,-324.49 1857.51,-312.57"/>
<polygon fill="midnightblue" stroke="midnightblue" points="1857.84,-316.05 1867.63,-312.01 1857.46,-309.07 1857.84,-316.05"/>
</g>
<!-- Node35 -->
<g id="node35" class="node">
<title>Node35</title>
<g id="a_node35"><a xlink:href="_lin_sys_info_8h.html" target="_top" xlink:title=" ">
<polygon fill="white" stroke="black" points="1004,-168.5 1004,-187.5 1140,-187.5 1140,-168.5 1004,-168.5"/>
<text text-anchor="middle" x="1072" y="-175.5" font-family="Helvetica,sans-Serif" font-size="10.00">matrix_free/LinSysInfo.h</text>
</a>
</g>
</g>
<!-- Node1&#45;&gt;Node35 -->
<g id="edge59" class="edge">
<title>Node1&#45;&gt;Node35</title>
<path fill="none" stroke="midnightblue" d="M896.36,-358.44C916.72,-351.57 942.22,-340.04 959,-322 990.81,-287.79 966.9,-259.73 997,-224 1008.64,-210.19 1025.65,-199.5 1040.53,-192.01"/>
<polygon fill="midnightblue" stroke="midnightblue" points="1042.4,-195 1049.93,-187.55 1039.39,-188.67 1042.4,-195"/>
</g>
<!-- Node40 -->
<g id="node40" class="node">
<title>Node40</title>
<g id="a_node40"><a xlink:href="_stk_to_tpetra_map_8h.html" target="_top" xlink:title=" ">
<polygon fill="white" stroke="black" points="222,-230 222,-249 386,-249 386,-230 222,-230"/>
<text text-anchor="middle" x="304" y="-237" font-family="Helvetica,sans-Serif" font-size="10.00">matrix_free/StkToTpetraMap.h</text>
</a>
</g>
</g>
<!-- Node1&#45;&gt;Node40 -->
<g id="edge60" class="edge">
<title>Node1&#45;&gt;Node40</title>
<path fill="none" stroke="midnightblue" d="M805.67,-364.04C705.19,-358.42 503.79,-344.68 437,-322 392.24,-306.8 346.68,-274.43 322.23,-255.38"/>
<polygon fill="midnightblue" stroke="midnightblue" points="324.22,-252.49 314.21,-249.02 319.87,-257.98 324.22,-252.49"/>
</g>
<!-- Node41 -->
<g id="node41" class="node">
<title>Node41</title>
<g id="a_node41"><a xlink:title=" ">
<polygon fill="white" stroke="#bfbfbf" points="2465.5,-291.5 2465.5,-321.5 2574.5,-321.5 2574.5,-291.5 2465.5,-291.5"/>
<text text-anchor="start" x="2473.5" y="-309.5" font-family="Helvetica,sans-Serif" font-size="10.00">Tpetra_MultiVector</text>
<text text-anchor="middle" x="2520" y="-298.5" font-family="Helvetica,sans-Serif" font-size="10.00">_fwd.hpp</text>
</a>
</g>
</g>
<!-- Node1&#45;&gt;Node41 -->
<g id="edge72" class="edge">
<title>Node1&#45;&gt;Node41</title>
<path fill="none" stroke="midnightblue" d="M922.35,-366.74C1171.38,-365.43 2146.31,-358.04 2451,-322 2452.3,-321.85 2453.61,-321.68 2454.93,-321.5"/>
<polygon fill="midnightblue" stroke="midnightblue" points="2455.8,-324.91 2465.16,-319.95 2454.75,-317.99 2455.8,-324.91"/>
</g>
<!-- Node3 -->
<g id="node3" class="node">
<title>Node3</title>
<g id="a_node3"><a xlink:href="_conduction_fields_8h.html" target="_top" xlink:title=" ">
<polygon fill="white" stroke="black" points="1367.5,-168.5 1367.5,-187.5 1536.5,-187.5 1536.5,-168.5 1367.5,-168.5"/>
<text text-anchor="middle" x="1452" y="-175.5" font-family="Helvetica,sans-Serif" font-size="10.00">matrix_free/ConductionFields.h</text>
</a>
</g>
</g>
<!-- Node2&#45;&gt;Node3 -->
<g id="edge2" class="edge">
<title>Node2&#45;&gt;Node3</title>
<path fill="none" stroke="midnightblue" d="M1444.37,-224.4C1445.72,-216.38 1447.42,-206.23 1448.88,-197.57"/>
<polygon fill="midnightblue" stroke="midnightblue" points="1452.34,-198.1 1450.54,-187.66 1445.44,-196.94 1452.34,-198.1"/>
</g>
<!-- Node4 -->
<g id="node4" class="node">
<title>Node4</title>
<g id="a_node4"><a xlink:href="_kokkos_view_types_8h.html" target="_top" xlink:title=" ">
<polygon fill="white" stroke="black" points="1912,-112.5 1912,-131.5 2084,-131.5 2084,-112.5 1912,-112.5"/>
<text text-anchor="middle" x="1998" y="-119.5" font-family="Helvetica,sans-Serif" font-size="10.00">matrix_free/KokkosViewTypes.h</text>
</a>
</g>
</g>
<!-- Node2&#45;&gt;Node4 -->
<g id="edge19" class="edge">
<title>Node2&#45;&gt;Node4</title>
<path fill="none" stroke="midnightblue" d="M1482.5,-224.42C1509.72,-214.72 1546.27,-201.24 1578,-188 1597.45,-179.88 1600.73,-173.77 1621,-168 1647.65,-160.42 1801.94,-143.38 1904.7,-132.58"/>
<polygon fill="midnightblue" stroke="midnightblue" points="1905.21,-136.05 1914.79,-131.53 1904.48,-129.09 1905.21,-136.05"/>
</g>
<!-- Node2&#45;&gt;Node19 -->
<g id="edge20" class="edge">
<title>Node2&#45;&gt;Node19</title>
<path fill="none" stroke="midnightblue" d="M1353.76,-224.94C1350.81,-224.6 1347.88,-224.29 1345,-224 1037.69,-193.13 959.26,-207.18 651,-188 638.93,-187.25 626.21,-186.4 613.69,-185.52"/>
<polygon fill="midnightblue" stroke="midnightblue" points="613.94,-182.03 603.71,-184.82 613.44,-189.01 613.94,-182.03"/>
</g>
<!-- Node3&#45;&gt;Node4 -->
<g id="edge3" class="edge">
<title>Node3&#45;&gt;Node4</title>
<path fill="none" stroke="midnightblue" d="M1536.71,-168.62C1635.42,-158.86 1798.15,-142.77 1901.6,-132.53"/>
<polygon fill="midnightblue" stroke="midnightblue" points="1902.13,-136 1911.73,-131.53 1901.44,-129.03 1902.13,-136"/>
</g>
<!-- Node10 -->
<g id="node10" class="node">
<title>Node10</title>
<g id="a_node10"><a xlink:href="_polynomial_orders_8h.html" target="_top" xlink:title=" ">
<polygon fill="white" stroke="black" points="2102.5,-112.5 2102.5,-131.5 2275.5,-131.5 2275.5,-112.5 2102.5,-112.5"/>
<text text-anchor="middle" x="2189" y="-119.5" font-family="Helvetica,sans-Serif" font-size="10.00">matrix_free/PolynomialOrders.h</text>
</a>
</g>
</g>
<!-- Node3&#45;&gt;Node10 -->
<g id="edge9" class="edge">
<title>Node3&#45;&gt;Node10</title>
<path fill="none" stroke="midnightblue" d="M1536.56,-171.7C1657.26,-163.98 1886.17,-148.83 2092.29,-132.04"/>
<polygon fill="midnightblue" stroke="midnightblue" points="2092.72,-135.52 2102.4,-131.21 2092.15,-128.54 2092.72,-135.52"/>
</g>
<!-- Node11 -->
<g id="node11" class="node">
<title>Node11</title>
<g id="a_node11"><a xlink:title=" ">
<polygon fill="white" stroke="#bfbfbf" points="833,-112.5 833,-131.5 1007,-131.5 1007,-112.5 833,-112.5"/>
<text text-anchor="middle" x="920" y="-119.5" font-family="Helvetica,sans-Serif" font-size="10.00">stk_mesh/base/GetNgpField.hpp</text>
</a>
</g>
</g>
<!-- Node3&#45;&gt;Node11 -->
<g id="edge11" class="edge">
<title>Node3&#45;&gt;Node11</title>
<path fill="none" stroke="midnightblue" d="M1368,-168.47C1271.75,-158.7 1114.43,-142.74 1014.13,-132.55"/>
<polygon fill="midnightblue" stroke="midnightblue" points="1014.3,-129.05 1004,-131.53 1013.6,-136.02 1014.3,-129.05"/>
</g>
<!-- Node12 -->
<g id="node12" class="node">
<title>Node12</title>
<g id="a_node12"><a xlink:title=" ">
<polygon fill="white" stroke="#bfbfbf" points="1371.5,-112.5 1371.5,-131.5 1532.5,-131.5 1532.5,-112.5 1371.5,-112.5"/>
<text text-anchor="middle" x="1452" y="-119.5" font-family="Helvetica,sans-Serif" font-size="10.00">stk_mesh/base/FieldBase.hpp</text>
</a>
</g>
</g>
<!-- Node3&#45;&gt;Node12 -->
<g id="edge12" class="edge">
<title>Node3&#45;&gt;Node12</title>
<path fill="none" stroke="midnightblue" d="M1452,-168.08C1452,-161.01 1452,-150.86 1452,-141.99"/>
<polygon fill="midnightblue" stroke="midnightblue" points="1455.5,-141.75 1452,-131.75 1448.5,-141.75 1455.5,-141.75"/>
</g>
<!-- Node13 -->
<g id="node13" class="node">
<title>Node13</title>
<g id="a_node13"><a xlink:title=" ">
<polygon fill="white" stroke="#bfbfbf" points="1550.5,-112.5 1550.5,-131.5 1713.5,-131.5 1713.5,-112.5 1550.5,-112.5"/>
<text text-anchor="middle" x="1632" y="-119.5" font-family="Helvetica,sans-Serif" font-size="10.00">stk_mesh/base/FieldState.hpp</text>
</a>
</g>
</g>
<!-- Node3&#45;&gt;Node13 -->
<g id="edge13" class="edge">
<title>Node3&#45;&gt;Node13</title>
<path fill="none" stroke="midnightblue" d="M1480.52,-168.44C1511.07,-159.28 1559.71,-144.69 1593.6,-134.52"/>
<polygon fill="midnightblue" stroke="midnightblue" points="1595.04,-137.74 1603.61,-131.52 1593.03,-131.04 1595.04,-137.74"/>
</g>
<!-- Node14 -->
<g id="node14" class="node">
<title>Node14</title>
<g id="a_node14"><a xlink:title=" ">
<polygon fill="white" stroke="#bfbfbf" points="1732,-112.5 1732,-131.5 1894,-131.5 1894,-112.5 1732,-112.5"/>
<text text-anchor="middle" x="1813" y="-119.5" font-family="Helvetica,sans-Serif" font-size="10.00">stk_mesh/base/MetaData.hpp</text>
</a>
</g>
</g>
<!-- Node3&#45;&gt;Node14 -->
<g id="edge14" class="edge">
<title>Node3&#45;&gt;Node14</title>
<path fill="none" stroke="midnightblue" d="M1509.2,-168.44C1573.5,-158.83 1677.78,-143.23 1745.87,-133.04"/>
<polygon fill="midnightblue" stroke="midnightblue" points="1746.69,-136.46 1756.07,-131.52 1745.66,-129.53 1746.69,-136.46"/>
</g>
<!-- Node15 -->
<g id="node15" class="node">
<title>Node15</title>
<g id="a_node15"><a xlink:title=" ">
<polygon fill="white" stroke="#bfbfbf" points="533,-112.5 533,-131.5 667,-131.5 667,-112.5 533,-112.5"/>
<text text-anchor="middle" x="600" y="-119.5" font-family="Helvetica,sans-Serif" font-size="10.00">stk_mesh/base/Ngp.hpp</text>
</a>
</g>
</g>
<!-- Node3&#45;&gt;Node15 -->
<g id="edge15" class="edge">
<title>Node3&#45;&gt;Node15</title>
<path fill="none" stroke="midnightblue" d="M1367.31,-172.36C1187.41,-162.47 776.25,-139.65 677.2,-131.91"/>
<polygon fill="midnightblue" stroke="midnightblue" points="677.42,-128.42 667.17,-131.08 676.85,-135.39 677.42,-128.42"/>
</g>
<!-- Node16 -->
<g id="node16" class="node">
<title>Node16</title>
<g id="a_node16"><a xlink:title=" ">
<polygon fill="white" stroke="#bfbfbf" points="1025.5,-112.5 1025.5,-131.5 1170.5,-131.5 1170.5,-112.5 1025.5,-112.5"/>
<text text-anchor="middle" x="1098" y="-119.5" font-family="Helvetica,sans-Serif" font-size="10.00">stk_topology/topology.hpp</text>
</a>
</g>
</g>
<!-- Node3&#45;&gt;Node16 -->
<g id="edge16" class="edge">
<title>Node3&#45;&gt;Node16</title>
<path fill="none" stroke="midnightblue" d="M1395.91,-168.44C1332.86,-158.83 1230.6,-143.23 1163.82,-133.04"/>
<polygon fill="midnightblue" stroke="midnightblue" points="1164.24,-129.56 1153.83,-131.52 1163.19,-136.48 1164.24,-129.56"/>
</g>
<!-- Node17 -->
<g id="node17" class="node">
<title>Node17</title>
<g id="a_node17"><a xlink:title=" ">
<polygon fill="white" stroke="#bfbfbf" points="1188.5,-112.5 1188.5,-131.5 1353.5,-131.5 1353.5,-112.5 1188.5,-112.5"/>
<text text-anchor="middle" x="1271" y="-119.5" font-family="Helvetica,sans-Serif" font-size="10.00">stk_util/util/ReportHandler.hpp</text>
</a>
</g>
</g>
<!-- Node3&#45;&gt;Node17 -->
<g id="edge17" class="edge">
<title>Node3&#45;&gt;Node17</title>
<path fill="none" stroke="midnightblue" d="M1423.32,-168.44C1392.47,-159.24 1343.27,-144.56 1309.17,-134.39"/>
<polygon fill="midnightblue" stroke="midnightblue" points="1310.13,-131.02 1299.55,-131.52 1308.13,-137.73 1310.13,-131.02"/>
</g>
<!-- Node3&#45;&gt;Node18 -->
<g id="edge18" class="edge">
<title>Node3&#45;&gt;Node18</title>
<path fill="none" stroke="midnightblue" d="M1367.34,-172.15C1340.39,-170.7 1310.45,-169.18 1283,-168 792.52,-146.95 668.42,-170.49 179,-132 166.66,-131.03 153.19,-129.48 141.28,-127.94"/>
<polygon fill="midnightblue" stroke="midnightblue" points="141.65,-124.45 131.27,-126.6 140.72,-131.39 141.65,-124.45"/>
</g>
<!-- Node5 -->
<g id="node5" class="node">
<title>Node5</title>
<g id="a_node5"><a xlink:href="_kokkos_framework_8h.html" target="_top" xlink:title=" ">
<polygon fill="white" stroke="black" points="1929.5,-56.5 1929.5,-75.5 2104.5,-75.5 2104.5,-56.5 1929.5,-56.5"/>
<text text-anchor="middle" x="2017" y="-63.5" font-family="Helvetica,sans-Serif" font-size="10.00">matrix_free/KokkosFramework.h</text>
</a>
</g>
</g>
<!-- Node4&#45;&gt;Node5 -->
<g id="edge4" class="edge">
<title>Node4&#45;&gt;Node5</title>
<path fill="none" stroke="midnightblue" d="M2001.14,-112.08C2003.68,-104.85 2007.36,-94.41 2010.53,-85.4"/>
<polygon fill="midnightblue" stroke="midnightblue" points="2013.9,-86.35 2013.92,-75.75 2007.3,-84.02 2013.9,-86.35"/>
</g>
<!-- Node9 -->
<g id="node9" class="node">
<title>Node9</title>
<g id="a_node9"><a xlink:title=" ">
<polygon fill="white" stroke="#bfbfbf" points="1769,-56.5 1769,-75.5 1911,-75.5 1911,-56.5 1769,-56.5"/>
<text text-anchor="middle" x="1840" y="-63.5" font-family="Helvetica,sans-Serif" font-size="10.00">stk_mesh/base/Types.hpp</text>
</a>
</g>
</g>
<!-- Node4&#45;&gt;Node9 -->
<g id="edge8" class="edge">
<title>Node4&#45;&gt;Node9</title>
<path fill="none" stroke="midnightblue" d="M1972.96,-112.44C1946.38,-103.36 1904.19,-88.94 1874.48,-78.78"/>
<polygon fill="midnightblue" stroke="midnightblue" points="1875.51,-75.44 1864.92,-75.52 1873.25,-82.06 1875.51,-75.44"/>
</g>
<!-- Node5&#45;&gt;Node6 -->
<g id="edge5" class="edge">
<title>Node5&#45;&gt;Node6</title>
<path fill="none" stroke="midnightblue" d="M1929.25,-56.59C1926.13,-56.38 1923.04,-56.18 1920,-56 1232.4,-15.61 396.04,-11.39 167.27,-11.02"/>
<polygon fill="midnightblue" stroke="midnightblue" points="167.17,-7.52 157.16,-11 167.15,-14.52 167.17,-7.52"/>
</g>
<!-- Node7 -->
<g id="node7" class="node">
<title>Node7</title>
<g id="a_node7"><a xlink:title=" ">
<polygon fill="white" stroke="#bfbfbf" points="1962,-0.5 1962,-19.5 2072,-19.5 2072,-0.5 1962,-0.5"/>
<text text-anchor="middle" x="2017" y="-7.5" font-family="Helvetica,sans-Serif" font-size="10.00">stk_simd/Simd.hpp</text>
</a>
</g>
</g>
<!-- Node5&#45;&gt;Node7 -->
<g id="edge6" class="edge">
<title>Node5&#45;&gt;Node7</title>
<path fill="none" stroke="midnightblue" d="M2017,-56.08C2017,-49.01 2017,-38.86 2017,-29.99"/>
<polygon fill="midnightblue" stroke="midnightblue" points="2020.5,-29.75 2017,-19.75 2013.5,-29.75 2020.5,-29.75"/>
</g>
<!-- Node8 -->
<g id="node8" class="node">
<title>Node8</title>
<g id="a_node8"><a xlink:title=" ">
<polygon fill="white" stroke="#bfbfbf" points="2112.5,-0.5 2112.5,-19.5 2181.5,-19.5 2181.5,-0.5 2112.5,-0.5"/>
<text text-anchor="middle" x="2147" y="-7.5" font-family="Helvetica,sans-Serif" font-size="10.00">type_traits</text>
</a>
</g>
</g>
<!-- Node5&#45;&gt;Node8 -->
<g id="edge7" class="edge">
<title>Node5&#45;&gt;Node8</title>
<path fill="none" stroke="midnightblue" d="M2037.6,-56.44C2058.99,-47.56 2092.68,-33.56 2117.02,-23.45"/>
<polygon fill="midnightblue" stroke="midnightblue" points="2118.61,-26.58 2126.5,-19.52 2115.92,-20.12 2118.61,-26.58"/>
</g>
<!-- Node10&#45;&gt;Node8 -->
<g id="edge10" class="edge">
<title>Node10&#45;&gt;Node8</title>
<path fill="none" stroke="midnightblue" d="M2185.7,-112.37C2178.87,-94.46 2163.01,-52.92 2153.85,-28.95"/>
<polygon fill="midnightblue" stroke="midnightblue" points="2157.12,-27.69 2150.28,-19.59 2150.58,-30.18 2157.12,-27.69"/>
</g>
<!-- Node20&#45;&gt;Node4 -->
<g id="edge36" class="edge">
<title>Node20&#45;&gt;Node4</title>
<path fill="none" stroke="midnightblue" d="M949.69,-304.39C1139.63,-301.32 1590.92,-290.4 1739,-255 1772.49,-246.99 1777.58,-235.61 1810,-224 1865.23,-204.22 1886.88,-218.5 1937,-188 1957.36,-175.61 1975.31,-154.6 1986.37,-139.82"/>
<polygon fill="midnightblue" stroke="midnightblue" points="1989.31,-141.72 1992.33,-131.57 1983.64,-137.63 1989.31,-141.72"/>
</g>
<!-- Node20&#45;&gt;Node6 -->
<g id="edge42" class="edge">
<title>Node20&#45;&gt;Node6</title>
<path fill="none" stroke="midnightblue" d="M778.2,-305.69C622.06,-304.94 298.04,-298.04 195,-255 124.24,-225.44 99.07,-204.47 74,-132 61.43,-95.65 81.92,-51.85 95.83,-28.19"/>
<polygon fill="midnightblue" stroke="midnightblue" points="98.84,-29.98 101.1,-19.63 92.88,-26.31 98.84,-29.98"/>
</g>
<!-- Node20&#45;&gt;Node15 -->
<g id="edge45" class="edge">
<title>Node20&#45;&gt;Node15</title>
<path fill="none" stroke="midnightblue" d="M828.9,-291.38C784.36,-272.35 706.65,-235.34 651,-188 634.84,-174.26 620.33,-154.7 610.96,-140.64"/>
<polygon fill="midnightblue" stroke="midnightblue" points="613.7,-138.42 605.34,-131.91 607.81,-142.21 613.7,-138.42"/>
</g>
<!-- Node20&#45;&gt;Node19 -->
<g id="edge46" class="edge">
<title>Node20&#45;&gt;Node19</title>
<path fill="none" stroke="midnightblue" d="M778.42,-298.38C729.53,-291.81 668.17,-279.18 618,-255 587.41,-240.25 558.45,-212.94 541.72,-195.39"/>
<polygon fill="midnightblue" stroke="midnightblue" points="543.91,-192.61 534.54,-187.66 538.78,-197.37 543.91,-192.61"/>
</g>
<!-- Node21 -->
<g id="node21" class="node">
<title>Node21</title>
<g id="a_node21"><a xlink:href="_conduction_jacobi_preconditioner_8h.html" target="_top" xlink:title=" ">
<polygon fill="white" stroke="black" points="1174.5,-224.5 1174.5,-254.5 1335.5,-254.5 1335.5,-224.5 1174.5,-224.5"/>
<text text-anchor="start" x="1182.5" y="-242.5" font-family="Helvetica,sans-Serif" font-size="10.00">matrix_free/ConductionJacobi</text>
<text text-anchor="middle" x="1255" y="-231.5" font-family="Helvetica,sans-Serif" font-size="10.00">Preconditioner.h</text>
</a>
</g>
</g>
<!-- Node20&#45;&gt;Node21 -->
<g id="edge22" class="edge">
<title>Node20&#45;&gt;Node21</title>
<path fill="none" stroke="midnightblue" d="M948.36,-291.48C1011.97,-280.9 1099.09,-266.42 1164.21,-255.59"/>
<polygon fill="midnightblue" stroke="midnightblue" points="1165.18,-258.98 1174.47,-253.89 1164.03,-252.08 1165.18,-258.98"/>
</g>
<!-- Node24 -->
<g id="node24" class="node">
<title>Node24</title>
<g id="a_node24"><a xlink:href="_conduction_operator_8h.html" target="_top" xlink:title=" ">
<polygon fill="white" stroke="black" points="1548,-230 1548,-249 1730,-249 1730,-230 1548,-230"/>
<text text-anchor="middle" x="1639" y="-237" font-family="Helvetica,sans-Serif" font-size="10.00">matrix_free/ConductionOperator.h</text>
</a>
</g>
</g>
<!-- Node20&#45;&gt;Node24 -->
<g id="edge27" class="edge">
<title>Node20&#45;&gt;Node24</title>
<path fill="none" stroke="midnightblue" d="M949.68,-301C1078.03,-293.82 1327.71,-278.19 1539,-255 1550.72,-253.71 1563.17,-252.1 1575.17,-250.43"/>
<polygon fill="midnightblue" stroke="midnightblue" points="1575.71,-253.89 1585.11,-249.01 1574.72,-246.96 1575.71,-253.89"/>
</g>
<!-- Node20&#45;&gt;Node28 -->
<g id="edge43" class="edge">
<title>Node20&#45;&gt;Node28</title>
<path fill="none" stroke="midnightblue" d="M949.82,-303.68C1167.61,-298.66 1730.22,-283.13 1810,-255 1832.22,-247.17 1831.61,-233.87 1853,-224 1891.21,-206.37 1937.2,-195.12 1973.64,-188.28"/>
<polygon fill="midnightblue" stroke="midnightblue" points="1974.44,-191.69 1983.65,-186.47 1973.19,-184.81 1974.44,-191.69"/>
</g>
<!-- Node29 -->
<g id="node29" class="node">
<title>Node29</title>
<g id="a_node29"><a xlink:href="_matrix_free_solver_8h.html" target="_top" xlink:title=" ">
<polygon fill="white" stroke="black" points="782,-230 782,-249 950,-249 950,-230 782,-230"/>
<text text-anchor="middle" x="866" y="-237" font-family="Helvetica,sans-Serif" font-size="10.00">matrix_free/MatrixFreeSolver.h</text>
</a>
</g>
</g>
<!-- Node20&#45;&gt;Node29 -->
<g id="edge37" class="edge">
<title>Node20&#45;&gt;Node29</title>
<path fill="none" stroke="midnightblue" d="M864.43,-291.4C864.72,-282.06 865.1,-269.71 865.41,-259.52"/>
<polygon fill="midnightblue" stroke="midnightblue" points="868.92,-259.3 865.73,-249.19 861.93,-259.08 868.92,-259.3"/>
</g>
<!-- Node32 -->
<g id="node32" class="node">
<title>Node32</title>
<g id="a_node32"><a xlink:title=" ">
<polygon fill="white" stroke="#bfbfbf" points="187.5,-112.5 187.5,-131.5 282.5,-131.5 282.5,-112.5 187.5,-112.5"/>
<text text-anchor="middle" x="235" y="-119.5" font-family="Helvetica,sans-Serif" font-size="10.00">Tpetra_Map.hpp</text>
</a>
</g>
</g>
<!-- Node20&#45;&gt;Node32 -->
<g id="edge44" class="edge">
<title>Node20&#45;&gt;Node32</title>
<path fill="none" stroke="midnightblue" d="M778.41,-305.19C610.45,-303.67 250.63,-295.66 213,-255 183.78,-223.43 208.34,-168.47 224.17,-140.47"/>
<polygon fill="midnightblue" stroke="midnightblue" points="227.23,-142.17 229.3,-131.78 221.2,-138.61 227.23,-142.17"/>
</g>
<!-- Node21&#45;&gt;Node3 -->
<g id="edge25" class="edge">
<title>Node21&#45;&gt;Node3</title>
<path fill="none" stroke="midnightblue" d="M1301.69,-224.4C1335.88,-214.07 1381.71,-200.23 1413.74,-190.56"/>
<polygon fill="midnightblue" stroke="midnightblue" points="1415.06,-193.81 1423.62,-187.57 1413.04,-187.11 1415.06,-193.81"/>
</g>
<!-- Node21&#45;&gt;Node4 -->
<g id="edge26" class="edge">
<title>Node21&#45;&gt;Node4</title>
<path fill="none" stroke="midnightblue" d="M1335.8,-225.26C1418.45,-211.6 1536.14,-191.77 1546,-188 1561.67,-182.01 1562.15,-173.48 1578,-168 1593.09,-162.79 1782.06,-143.84 1901.33,-132.26"/>
<polygon fill="midnightblue" stroke="midnightblue" points="1901.96,-135.71 1911.57,-131.26 1901.28,-128.74 1901.96,-135.71"/>
</g>
<!-- Node22 -->
<g id="node22" class="node">
<title>Node22</title>
<g id="a_node22"><a xlink:title=" ">
<polygon fill="white" stroke="#bfbfbf" points="685.5,-112.5 685.5,-131.5 814.5,-131.5 814.5,-112.5 685.5,-112.5"/>
<text text-anchor="middle" x="750" y="-119.5" font-family="Helvetica,sans-Serif" font-size="10.00">Tpetra_MultiVector.hpp</text>
</a>
</g>
</g>
<!-- Node21&#45;&gt;Node22 -->
<g id="edge23" class="edge">
<title>Node21&#45;&gt;Node22</title>
<path fill="none" stroke="midnightblue" d="M1268.45,-224.44C1281.66,-208.93 1297.84,-184.05 1283,-168 1249.86,-132.16 908.46,-136.57 824.78,-131.78"/>
<polygon fill="midnightblue" stroke="midnightblue" points="824.79,-128.27 814.56,-131.02 824.27,-135.25 824.79,-128.27"/>
</g>
<!-- Node23 -->
<g id="node23" class="node">
<title>Node23</title>
<g id="a_node23"><a xlink:title=" ">
<polygon fill="white" stroke="#bfbfbf" points="1158,-168.5 1158,-187.5 1274,-187.5 1274,-168.5 1158,-168.5"/>
<text text-anchor="middle" x="1216" y="-175.5" font-family="Helvetica,sans-Serif" font-size="10.00">Tpetra_Operator.hpp</text>
</a>
</g>
</g>
<!-- Node21&#45;&gt;Node23 -->
<g id="edge24" class="edge">
<title>Node21&#45;&gt;Node23</title>
<path fill="none" stroke="midnightblue" d="M1245.76,-224.4C1240.21,-215.93 1233.11,-205.1 1227.23,-196.14"/>
<polygon fill="midnightblue" stroke="midnightblue" points="1230.08,-194.1 1221.67,-187.66 1224.23,-197.94 1230.08,-194.1"/>
</g>
<!-- Node24&#45;&gt;Node3 -->
<g id="edge35" class="edge">
<title>Node24&#45;&gt;Node3</title>
<path fill="none" stroke="midnightblue" d="M1612.21,-229.98C1579.71,-219.64 1524.79,-202.16 1488.46,-190.6"/>
<polygon fill="midnightblue" stroke="midnightblue" points="1489.33,-187.21 1478.74,-187.51 1487.21,-193.88 1489.33,-187.21"/>
</g>
<!-- Node24&#45;&gt;Node4 -->
<g id="edge28" class="edge">
<title>Node24&#45;&gt;Node4</title>
<path fill="none" stroke="midnightblue" d="M1666.01,-229.99C1694.53,-220.72 1740.58,-204.94 1779,-188 1796.46,-180.3 1799.17,-174.8 1817,-168 1857.24,-152.67 1904.52,-141.12 1940.67,-133.56"/>
<polygon fill="midnightblue" stroke="midnightblue" points="1941.46,-136.97 1950.55,-131.54 1940.05,-130.12 1941.46,-136.97"/>
</g>
<!-- Node24&#45;&gt;Node22 -->
<g id="edge33" class="edge">
<title>Node24&#45;&gt;Node22</title>
<path fill="none" stroke="midnightblue" d="M1586.69,-229.99C1518,-218.65 1401.18,-198.77 1359,-188 1331.77,-181.04 1326.56,-173.55 1299,-168 1094.69,-126.86 1036.5,-151.97 824.76,-132.01"/>
<polygon fill="midnightblue" stroke="midnightblue" points="824.84,-128.5 814.55,-131.03 824.17,-135.47 824.84,-128.5"/>
</g>
<!-- Node24&#45;&gt;Node23 -->
<g id="edge34" class="edge">
<title>Node24&#45;&gt;Node23</title>
<path fill="none" stroke="midnightblue" d="M1580.58,-229.97C1566.94,-228 1552.46,-225.91 1539,-224 1451.07,-211.5 1349.63,-197.42 1284.25,-188.4"/>
<polygon fill="midnightblue" stroke="midnightblue" points="1284.46,-184.89 1274.07,-186.99 1283.5,-191.83 1284.46,-184.89"/>
</g>
<!-- Node25 -->
<g id="node25" class="node">
<title>Node25</title>
<g id="a_node25"><a xlink:title=" ">
<polygon fill="white" stroke="#bfbfbf" points="1826,-168.5 1826,-187.5 1928,-187.5 1928,-168.5 1826,-168.5"/>
<text text-anchor="middle" x="1877" y="-175.5" font-family="Helvetica,sans-Serif" font-size="10.00">Kokkos_Array.hpp</text>
</a>
</g>
</g>
<!-- Node24&#45;&gt;Node25 -->
<g id="edge29" class="edge">
<title>Node24&#45;&gt;Node25</title>
<path fill="none" stroke="midnightblue" d="M1673.1,-229.98C1715.25,-219.44 1787.05,-201.49 1833.23,-189.94"/>
<polygon fill="midnightblue" stroke="midnightblue" points="1834.11,-193.33 1842.96,-187.51 1832.41,-186.54 1834.11,-193.33"/>
</g>
<!-- Node26 -->
<g id="node26" class="node">
<title>Node26</title>
<g id="a_node26"><a xlink:title=" ">
<polygon fill="white" stroke="#bfbfbf" points="1630,-168.5 1630,-187.5 1770,-187.5 1770,-168.5 1630,-168.5"/>
<text text-anchor="middle" x="1700" y="-175.5" font-family="Helvetica,sans-Serif" font-size="10.00">Teuchos_BLAS_types.hpp</text>
</a>
</g>
</g>
<!-- Node24&#45;&gt;Node26 -->
<g id="edge30" class="edge">
<title>Node24&#45;&gt;Node26</title>
<path fill="none" stroke="midnightblue" d="M1647.74,-229.98C1657.16,-220.78 1672.36,-205.96 1683.95,-194.66"/>
<polygon fill="midnightblue" stroke="midnightblue" points="1686.56,-197 1691.28,-187.51 1681.67,-191.99 1686.56,-197"/>
</g>
<!-- Node24&#45;&gt;Node27 -->
<g id="edge31" class="edge">
<title>Node24&#45;&gt;Node27</title>
<path fill="none" stroke="midnightblue" d="M1588,-229.99C1572.32,-227.67 1554.99,-225.42 1539,-224 1053.09,-180.93 927.81,-232.26 442,-188 441.9,-187.99 441.8,-187.98 441.69,-187.97"/>
<polygon fill="midnightblue" stroke="midnightblue" points="442.35,-184.52 432.04,-186.95 441.61,-191.48 442.35,-184.52"/>
</g>
<!-- Node24&#45;&gt;Node28 -->
<g id="edge32" class="edge">
<title>Node24&#45;&gt;Node28</title>
<path fill="none" stroke="midnightblue" d="M1696.02,-229.98C1769.67,-218.97 1897.44,-199.86 1973.92,-188.43"/>
<polygon fill="midnightblue" stroke="midnightblue" points="1974.53,-191.88 1983.9,-186.94 1973.49,-184.96 1974.53,-191.88"/>
</g>
<!-- Node29&#45;&gt;Node22 -->
<g id="edge40" class="edge">
<title>Node29&#45;&gt;Node22</title>
<path fill="none" stroke="midnightblue" d="M894.16,-229.97C928.36,-218.18 978.95,-195.23 957,-168 948.02,-156.86 873.43,-142.63 816.34,-133.19"/>
<polygon fill="midnightblue" stroke="midnightblue" points="816.7,-129.7 806.26,-131.54 815.57,-136.61 816.7,-129.7"/>
</g>
<!-- Node29&#45;&gt;Node23 -->
<g id="edge41" class="edge">
<title>Node29&#45;&gt;Node23</title>
<path fill="none" stroke="midnightblue" d="M916.15,-229.98C979.43,-219.22 1088.17,-200.73 1155.86,-189.22"/>
<polygon fill="midnightblue" stroke="midnightblue" points="1156.67,-192.64 1165.95,-187.51 1155.5,-185.73 1156.67,-192.64"/>
</g>
<!-- Node30 -->
<g id="node30" class="node">
<title>Node30</title>
<g id="a_node30"><a xlink:title=" ">
<polygon fill="white" stroke="#bfbfbf" points="660,-168.5 660,-187.5 794,-187.5 794,-168.5 660,-168.5"/>
<text text-anchor="middle" x="727" y="-175.5" font-family="Helvetica,sans-Serif" font-size="10.00">BelosTpetraAdapter.hpp</text>
</a>
</g>
</g>
<!-- Node29&#45;&gt;Node30 -->
<g id="edge38" class="edge">
<title>Node29&#45;&gt;Node30</title>
<path fill="none" stroke="midnightblue" d="M846.08,-229.98C822.55,-219.9 783.19,-203.05 756.21,-191.5"/>
<polygon fill="midnightblue" stroke="midnightblue" points="757.45,-188.23 746.88,-187.51 754.69,-194.66 757.45,-188.23"/>
</g>
<!-- Node31 -->
<g id="node31" class="node">
<title>Node31</title>
<g id="a_node31"><a xlink:title=" ">
<polygon fill="white" stroke="#bfbfbf" points="812.5,-168.5 812.5,-187.5 947.5,-187.5 947.5,-168.5 812.5,-168.5"/>
<text text-anchor="middle" x="880" y="-175.5" font-family="Helvetica,sans-Serif" font-size="10.00">BelosLinearProblem.hpp</text>
</a>
</g>
</g>
<!-- Node29&#45;&gt;Node31 -->
<g id="edge39" class="edge">
<title>Node29&#45;&gt;Node31</title>
<path fill="none" stroke="midnightblue" d="M868.01,-229.98C870,-221.49 873.13,-208.2 875.69,-197.32"/>
<polygon fill="midnightblue" stroke="midnightblue" points="879.11,-198.04 878,-187.51 872.3,-196.44 879.11,-198.04"/>
</g>
<!-- Node33&#45;&gt;Node10 -->
<g id="edge48" class="edge">
<title>Node33&#45;&gt;Node10</title>
<path fill="none" stroke="midnightblue" d="M2032.2,-302.49C2159.59,-296.97 2392.75,-283.12 2418,-255 2474.4,-192.19 2331.48,-151.48 2246.59,-133.55"/>
<polygon fill="midnightblue" stroke="midnightblue" points="2247.29,-130.12 2236.79,-131.53 2245.88,-136.98 2247.29,-130.12"/>
</g>
<!-- Node33&#45;&gt;Node25 -->
<g id="edge54" class="edge">
<title>Node33&#45;&gt;Node25</title>
<path fill="none" stroke="midnightblue" d="M1913.9,-296.84C1892.16,-289.57 1866.2,-276.75 1853,-255 1841.72,-236.41 1853.33,-212 1863.98,-195.93"/>
<polygon fill="midnightblue" stroke="midnightblue" points="1867.01,-197.71 1869.96,-187.53 1861.31,-193.65 1867.01,-197.71"/>
</g>
<!-- Node34 -->
<g id="node34" class="node">
<title>Node34</title>
<g id="a_node34"><a xlink:href="_low_mach_info_8h.html" target="_top" xlink:title=" ">
<polygon fill="white" stroke="black" points="1006,-230 1006,-249 1156,-249 1156,-230 1006,-230"/>
<text text-anchor="middle" x="1081" y="-237" font-family="Helvetica,sans-Serif" font-size="10.00">matrix_free/LowMachInfo.h</text>
</a>
</g>
</g>
<!-- Node33&#45;&gt;Node34 -->
<g id="edge49" class="edge">
<title>Node33&#45;&gt;Node34</title>
<path fill="none" stroke="midnightblue" d="M1867.92,-303.04C1724.92,-298.12 1421.02,-284.88 1166,-255 1156.19,-253.85 1145.78,-252.33 1135.75,-250.71"/>
<polygon fill="midnightblue" stroke="midnightblue" points="1136.31,-247.25 1125.87,-249.06 1135.16,-254.16 1136.31,-247.25"/>
</g>
<!-- Node36 -->
<g id="node36" class="node">
<title>Node36</title>
<g id="a_node36"><a xlink:title=" ">
<polygon fill="white" stroke="#bfbfbf" points="2100.5,-230 2100.5,-249 2257.5,-249 2257.5,-230 2100.5,-230"/>
<text text-anchor="middle" x="2179" y="-237" font-family="Helvetica,sans-Serif" font-size="10.00">stk_mesh/base/NgpField.hpp</text>
</a>
</g>
</g>
<!-- Node33&#45;&gt;Node36 -->
<g id="edge55" class="edge">
<title>Node33&#45;&gt;Node36</title>
<path fill="none" stroke="midnightblue" d="M1980.41,-296.87C2021.24,-285.28 2093.87,-264.66 2139.07,-251.83"/>
<polygon fill="midnightblue" stroke="midnightblue" points="2140.17,-255.16 2148.83,-249.06 2138.25,-248.43 2140.17,-255.16"/>
</g>
<!-- Node37 -->
<g id="node37" class="node">
<title>Node37</title>
<g id="a_node37"><a xlink:title=" ">
<polygon fill="white" stroke="#bfbfbf" points="2275.5,-230 2275.5,-249 2408.5,-249 2408.5,-230 2275.5,-230"/>
<text text-anchor="middle" x="2342" y="-237" font-family="Helvetica,sans-Serif" font-size="10.00">stk_mesh/base/Part.hpp</text>
</a>
</g>
</g>
<!-- Node33&#45;&gt;Node37 -->
<g id="edge56" class="edge">
<title>Node33&#45;&gt;Node37</title>
<path fill="none" stroke="midnightblue" d="M2007.07,-296.99C2070.61,-287.38 2176.31,-270.99 2267,-255 2274.18,-253.73 2281.74,-252.34 2289.18,-250.94"/>
<polygon fill="midnightblue" stroke="midnightblue" points="2290.04,-254.34 2299.21,-249.03 2288.73,-247.46 2290.04,-254.34"/>
</g>
<!-- Node38 -->
<g id="node38" class="node">
<title>Node38</title>
<g id="a_node38"><a xlink:title=" ">
<polygon fill="white" stroke="#bfbfbf" points="1862,-230 1862,-249 1920,-249 1920,-230 1862,-230"/>
<text text-anchor="middle" x="1891" y="-237" font-family="Helvetica,sans-Serif" font-size="10.00">memory</text>
</a>
</g>
</g>
<!-- Node33&#45;&gt;Node38 -->
<g id="edge57" class="edge">
<title>Node33&#45;&gt;Node38</title>
<path fill="none" stroke="midnightblue" d="M1942.04,-296.73C1932.75,-286.5 1917.2,-269.36 1905.7,-256.69"/>
<polygon fill="midnightblue" stroke="midnightblue" points="1908.14,-254.18 1898.83,-249.13 1902.96,-258.88 1908.14,-254.18"/>
</g>
<!-- Node39 -->
<g id="node39" class="node">
<title>Node39</title>
<g id="a_node39"><a xlink:title=" ">
<polygon fill="white" stroke="#bfbfbf" points="1938,-230 1938,-249 2082,-249 2082,-230 1938,-230"/>
<text text-anchor="middle" x="2010" y="-237" font-family="Helvetica,sans-Serif" font-size="10.00">Tpetra_CrsMatrix_fwd.hpp</text>
</a>
</g>
</g>
<!-- Node33&#45;&gt;Node39 -->
<g id="edge58" class="edge">
<title>Node33&#45;&gt;Node39</title>
<path fill="none" stroke="midnightblue" d="M1958.09,-296.73C1967.54,-286.5 1983.36,-269.36 1995.05,-256.69"/>
<polygon fill="midnightblue" stroke="midnightblue" points="1997.83,-258.85 2002.04,-249.13 1992.68,-254.1 1997.83,-258.85"/>
</g>
<!-- Node34&#45;&gt;Node35 -->
<g id="edge50" class="edge">
<title>Node34&#45;&gt;Node35</title>
<path fill="none" stroke="midnightblue" d="M1079.71,-229.98C1078.44,-221.58 1076.46,-208.48 1074.82,-197.66"/>
<polygon fill="midnightblue" stroke="midnightblue" points="1078.24,-196.87 1073.29,-187.51 1071.32,-197.92 1078.24,-196.87"/>
</g>
<!-- Node35&#45;&gt;Node11 -->
<g id="edge53" class="edge">
<title>Node35&#45;&gt;Node11</title>
<path fill="none" stroke="midnightblue" d="M1047.92,-168.44C1022.46,-159.4 982.11,-145.06 953.54,-134.92"/>
<polygon fill="midnightblue" stroke="midnightblue" points="954.57,-131.57 943.97,-131.52 952.22,-138.16 954.57,-131.57"/>
</g>
<!-- Node35&#45;&gt;Node22 -->
<g id="edge52" class="edge">
<title>Node35&#45;&gt;Node22</title>
<path fill="none" stroke="midnightblue" d="M1020.98,-168.44C963.98,-158.89 871.76,-143.42 811,-133.23"/>
<polygon fill="midnightblue" stroke="midnightblue" points="811.22,-129.72 800.78,-131.52 810.07,-136.62 811.22,-129.72"/>
</g>
<!-- Node35&#45;&gt;Node32 -->
<g id="edge51" class="edge">
<title>Node35&#45;&gt;Node32</title>
<path fill="none" stroke="midnightblue" d="M1003.91,-171.49C988.49,-170.29 972.18,-169.07 957,-168 710.19,-150.65 415.66,-133.35 293.03,-126.3"/>
<polygon fill="midnightblue" stroke="midnightblue" points="292.93,-122.79 282.75,-125.71 292.53,-129.78 292.93,-122.79"/>
</g>
<!-- Node40&#45;&gt;Node6 -->
<g id="edge62" class="edge">
<title>Node40&#45;&gt;Node6</title>
<path fill="none" stroke="midnightblue" d="M292.24,-229.87C279.03,-220.05 257.06,-203.39 239,-188 211.24,-164.34 201.89,-160.4 179,-132 151.89,-98.36 127.89,-53.49 115.63,-28.94"/>
<polygon fill="midnightblue" stroke="midnightblue" points="118.67,-27.18 111.12,-19.75 112.39,-30.27 118.67,-27.18"/>
</g>
<!-- Node40&#45;&gt;Node15 -->
<g id="edge66" class="edge">
<title>Node40&#45;&gt;Node15</title>
<path fill="none" stroke="midnightblue" d="M298.31,-229.97C289.4,-215.45 274.65,-185.74 290,-168 319.51,-133.9 440.87,-125.1 522.7,-123.12"/>
<polygon fill="midnightblue" stroke="midnightblue" points="522.8,-126.62 532.72,-122.91 522.65,-119.62 522.8,-126.62"/>
</g>
<!-- Node40&#45;&gt;Node18 -->
<g id="edge68" class="edge">
<title>Node40&#45;&gt;Node18</title>
<path fill="none" stroke="midnightblue" d="M232.3,-229.98C200.42,-223.08 164.26,-210.6 138,-188 123.95,-175.91 115.78,-156.03 111.39,-141.44"/>
<polygon fill="midnightblue" stroke="midnightblue" points="114.7,-140.27 108.73,-131.52 107.94,-142.08 114.7,-140.27"/>
</g>
<!-- Node40&#45;&gt;Node19 -->
<g id="edge67" class="edge">
<title>Node40&#45;&gt;Node19</title>
<path fill="none" stroke="midnightblue" d="M335.95,-229.98C375.2,-219.5 441.88,-201.71 485.17,-190.16"/>
<polygon fill="midnightblue" stroke="midnightblue" points="486.35,-193.47 495.11,-187.51 484.54,-186.71 486.35,-193.47"/>
</g>
<!-- Node40&#45;&gt;Node22 -->
<g id="edge65" class="edge">
<title>Node40&#45;&gt;Node22</title>
<path fill="none" stroke="midnightblue" d="M303.48,-229.97C303.07,-214.88 304.65,-183.6 323,-168 380.9,-118.77 582.33,-139.14 675.43,-131.87"/>
<polygon fill="midnightblue" stroke="midnightblue" points="675.81,-135.35 685.43,-130.93 675.15,-128.38 675.81,-135.35"/>
</g>
<!-- Node40&#45;&gt;Node27 -->
<g id="edge63" class="edge">
<title>Node40&#45;&gt;Node27</title>
<path fill="none" stroke="midnightblue" d="M315.18,-229.98C327.57,-220.52 347.79,-205.1 362.75,-193.69"/>
<polygon fill="midnightblue" stroke="midnightblue" points="365.02,-196.36 370.85,-187.51 360.77,-190.79 365.02,-196.36"/>
</g>
<!-- Node40&#45;&gt;Node32 -->
<g id="edge64" class="edge">
<title>Node40&#45;&gt;Node32</title>
<path fill="none" stroke="midnightblue" d="M291.83,-229.86C279.92,-220.77 262.14,-205.39 252,-188 243.65,-173.67 239.33,-155.21 237.14,-141.62"/>
<polygon fill="midnightblue" stroke="midnightblue" points="240.58,-140.99 235.76,-131.56 233.65,-141.94 240.58,-140.99"/>
</g>
<!-- Node40&#45;&gt;Node35 -->
<g id="edge61" class="edge">
<title>Node40&#45;&gt;Node35</title>
<path fill="none" stroke="midnightblue" d="M386.21,-232.17C510.01,-222.62 751.67,-203.97 957,-188 968.85,-187.08 981.4,-186.1 993.67,-185.14"/>
<polygon fill="midnightblue" stroke="midnightblue" points="994.2,-188.61 1003.89,-184.34 993.65,-181.63 994.2,-188.61"/>
</g>
</g>
</svg>
