<?xml version="1.0" encoding="UTF-8" standalone="no"?>
<!DOCTYPE svg PUBLIC "-//W3C//DTD SVG 1.1//EN"
 "http://www.w3.org/Graphics/SVG/1.1/DTD/svg11.dtd">
<!-- Generated by graphviz version 2.43.0 (0)
 -->
<!-- Title: ConvectingTaylorVortexPressureAuxFunction.h Pages: 1 -->
<svg width="538pt" height="104pt"
 viewBox="0.00 0.00 537.50 104.00" xmlns="http://www.w3.org/2000/svg" xmlns:xlink="http://www.w3.org/1999/xlink">
<g id="graph0" class="graph" transform="scale(1 1) rotate(0) translate(4 100)">
<title>ConvectingTaylorVortexPressureAuxFunction.h</title>
<!-- Node1 -->
<g id="Node000001" class="node">
<title>Node1</title>
<g id="a_Node000001"><a xlink:title=" ">
<polygon fill="#999999" stroke="#666666" points="355,-96 181,-96 181,-66 355,-66 355,-96"/>
<text text-anchor="start" x="189" y="-84" font-family="Helvetica,sans-Serif" font-size="10.00">ConvectingTaylorVortexPressure</text>
<text text-anchor="middle" x="268" y="-73" font-family="Helvetica,sans-Serif" font-size="10.00">AuxFunction.h</text>
</a>
</g>
</g>
<!-- Node2 -->
<g id="Node000002" class="node">
<title>Node2</title>
<g id="a_Node000002"><a xlink:href="_convecting_taylor_vortex_pressure_aux_function_8_c.html" target="_top" xlink:title=" ">
<polygon fill="white" stroke="#666666" points="174,-30 0,-30 0,0 174,0 174,-30"/>
<text text-anchor="start" x="8" y="-18" font-family="Helvetica,sans-Serif" font-size="10.00">ConvectingTaylorVortexPressure</text>
<text text-anchor="middle" x="87" y="-7" font-family="Helvetica,sans-Serif" font-size="10.00">AuxFunction.C</text>
</a>
</g>
</g>
<!-- Node1&#45;&gt;Node2 -->
<g id="edge1_Node000001_Node000002" class="edge">
<title>Node1&#45;&gt;Node2</title>
<g id="a_edge1_Node000001_Node000002"><a xlink:title=" ">
<path fill="none" stroke="#63b8ff" d="M218.76,-62.59C189.82,-52.36 153.72,-39.59 126.63,-30.01"/>
<polygon fill="#63b8ff" stroke="#63b8ff" points="217.68,-65.92 228.28,-65.95 220.02,-59.32 217.68,-65.92"/>
</a>
</g>
</g>
<!-- Node3 -->
<g id="Node000003" class="node">
<title>Node3</title>
<g id="a_Node000003"><a xlink:href="_low_mach_equation_system_8_c.html" target="_top" xlink:title=" ">
<polygon fill="white" stroke="#666666" points="344,-24.5 192,-24.5 192,-5.5 344,-5.5 344,-24.5"/>
<text text-anchor="middle" x="268" y="-12.5" font-family="Helvetica,sans-Serif" font-size="10.00">LowMachEquationSystem.C</text>
</a>
</g>
</g>
<!-- Node1&#45;&gt;Node3 -->
<g id="edge2_Node000001_Node000003" class="edge">
<title>Node1&#45;&gt;Node3</title>
<g id="a_edge2_Node000001_Node000003"><a xlink:title=" ">
<path fill="none" stroke="#63b8ff" d="M268,-55.6C268,-44.8 268,-32.78 268,-24.84"/>
<polygon fill="#63b8ff" stroke="#63b8ff" points="264.5,-55.8 268,-65.8 271.5,-55.8 264.5,-55.8"/>
</a>
</g>
</g>
<!-- Node4 -->
<g id="Node000004" class="node">
<title>Node4</title>
<g id="a_Node000004"><a xlink:href="_solution_norm_post_processing_8_c.html" target="_top" xlink:title=" ">
<polygon fill="white" stroke="#666666" points="529.5,-24.5 362.5,-24.5 362.5,-5.5 529.5,-5.5 529.5,-24.5"/>
<text text-anchor="middle" x="446" y="-12.5" font-family="Helvetica,sans-Serif" font-size="10.00">SolutionNormPostProcessing.C</text>
</a>
</g>
</g>
<!-- Node1&#45;&gt;Node4 -->
<g id="edge3_Node000001_Node000004" class="edge">
<title>Node1&#45;&gt;Node4</title>
<g id="a_edge3_Node000001_Node000004"><a xlink:title=" ">
<path fill="none" stroke="#63b8ff" d="M316.9,-62.42C351.19,-50.09 395.53,-34.15 422.31,-24.52"/>
<polygon fill="#63b8ff" stroke="#63b8ff" points="315.29,-59.28 307.06,-65.95 317.66,-65.86 315.29,-59.28"/>
</a>
</g>
</g>
</g>
</svg>
