<?xml version="1.0" encoding="UTF-8" standalone="no"?>
<!DOCTYPE svg PUBLIC "-//W3C//DTD SVG 1.1//EN"
 "http://www.w3.org/Graphics/SVG/1.1/DTD/svg11.dtd">
<!-- Generated by graphviz version 2.43.0 (0)
 -->
<!-- Title: ConductionFields.h Pages: 1 -->
<!--zoomable 196 -->
<svg id="main" version="1.1" xmlns="http://www.w3.org/2000/svg" xmlns:xlink="http://www.w3.org/1999/xlink" xml:space="preserve" onload="init(evt)">
<style type="text/css"><![CDATA[
.edge:hover path { stroke: red; }
.edge:hover polygon { stroke: red; fill: red; }
]]></style>
<script type="text/javascript"><![CDATA[
var edges = document.getElementsByTagName('g');
if (edges && edges.length) {
  for (var i=0;i<edges.length;i++) {
    if (edges[i].id.substr(0,4)=='edge') {
      edges[i].setAttribute('class','edge');
    }
  }
}
]]></script>
        <defs>
                <circle id="rim" cx="0" cy="0" r="7"/>
                <circle id="rim2" cx="0" cy="0" r="3.5"/>
                <g id="zoomPlus">
                        <use xlink:href="#rim" fill="#404040">
                                <set attributeName="fill" to="#808080" begin="zoomplus.mouseover" end="zoomplus.mouseout"/>
                        </use>
                        <path d="M-4,0h8M0,-4v8" fill="none" stroke="white" stroke-width="1.5" pointer-events="none"/>
                </g>
                <g id="zoomMin">
                        <use xlink:href="#rim" fill="#404040">
                                <set attributeName="fill" to="#808080" begin="zoomminus.mouseover" end="zoomminus.mouseout"/>
                        </use>
                        <path d="M-4,0h8" fill="none" stroke="white" stroke-width="1.5" pointer-events="none"/>
                </g>
                <g id="dirArrow">
                        <path fill="none" stroke="white" stroke-width="1.5" d="M0,-3.0v7 M-2.5,-0.5L0,-3.0L2.5,-0.5"/>
                </g>
               <g id="resetDef">
                       <use xlink:href="#rim2" fill="#404040">
                               <set attributeName="fill" to="#808080" begin="reset.mouseover" end="reset.mouseout"/>
                       </use>
               </g>
        </defs>

<script type="text/javascript">
var viewWidth = 1749;
var viewHeight = 196;
var sectionId = 'dynsection-0';
</script>
<script xlink:href="svgpan.js"/>
<svg id="graph" class="graph">
<g id="viewport">
<title>ConductionFields.h</title>
<polygon fill="white" stroke="transparent" points="-4,4 -4,-192 1745,-192 1745,4 -4,4"/>
<!-- Node1 -->
<g id="node1" class="node">
<title>Node1</title>
<g id="a_node1"><a xlink:title=" ">
<polygon fill="#bfbfbf" stroke="black" points="949.5,-168.5 949.5,-187.5 1058.5,-187.5 1058.5,-168.5 949.5,-168.5"/>
<text text-anchor="middle" x="1004" y="-175.5" font-family="Helvetica,sans-Serif" font-size="10.00">ConductionFields.h</text>
</a>
</g>
</g>
<!-- Node2 -->
<g id="node2" class="node">
<title>Node2</title>
<g id="a_node2"><a xlink:href="_kokkos_view_types_8h.html" target="_top" xlink:title=" ">
<polygon fill="white" stroke="black" points="202,-112.5 202,-131.5 374,-131.5 374,-112.5 202,-112.5"/>
<text text-anchor="middle" x="288" y="-119.5" font-family="Helvetica,sans-Serif" font-size="10.00">matrix_free/KokkosViewTypes.h</text>
</a>
</g>
</g>
<!-- Node1&#45;&gt;Node2 -->
<g id="edge1" class="edge">
<title>Node1&#45;&gt;Node2</title>
<path fill="none" stroke="midnightblue" d="M949.3,-172.87C828.35,-163.75 536.86,-141.77 384.48,-130.28"/>
<polygon fill="midnightblue" stroke="midnightblue" points="384.43,-126.76 374.2,-129.5 383.9,-133.74 384.43,-126.76"/>
</g>
<!-- Node8 -->
<g id="node8" class="node">
<title>Node8</title>
<g id="a_node8"><a xlink:href="_polynomial_orders_8h.html" target="_top" xlink:title=" ">
<polygon fill="white" stroke="black" points="377.5,-56.5 377.5,-75.5 550.5,-75.5 550.5,-56.5 377.5,-56.5"/>
<text text-anchor="middle" x="464" y="-63.5" font-family="Helvetica,sans-Serif" font-size="10.00">matrix_free/PolynomialOrders.h</text>
</a>
</g>
</g>
<!-- Node1&#45;&gt;Node8 -->
<g id="edge7" class="edge">
<title>Node1&#45;&gt;Node8</title>
<path fill="none" stroke="midnightblue" d="M949.04,-176.65C816.03,-175.22 485.24,-168.06 452,-132 440.37,-119.39 446.42,-99.34 453.46,-84.84"/>
<polygon fill="midnightblue" stroke="midnightblue" points="456.64,-86.31 458.29,-75.85 450.47,-83 456.64,-86.31"/>
</g>
<!-- Node9 -->
<g id="node9" class="node">
<title>Node9</title>
<g id="a_node9"><a xlink:title=" ">
<polygon fill="white" stroke="#bfbfbf" points="461,-112.5 461,-131.5 635,-131.5 635,-112.5 461,-112.5"/>
<text text-anchor="middle" x="548" y="-119.5" font-family="Helvetica,sans-Serif" font-size="10.00">stk_mesh/base/GetNgpField.hpp</text>
</a>
</g>
</g>
<!-- Node1&#45;&gt;Node9 -->
<g id="edge9" class="edge">
<title>Node1&#45;&gt;Node9</title>
<path fill="none" stroke="midnightblue" d="M949.45,-170.54C870.15,-161.15 722.46,-143.66 630.01,-132.71"/>
<polygon fill="midnightblue" stroke="midnightblue" points="630.2,-129.21 619.86,-131.51 629.38,-136.16 630.2,-129.21"/>
</g>
<!-- Node10 -->
<g id="node10" class="node">
<title>Node10</title>
<g id="a_node10"><a xlink:title=" ">
<polygon fill="white" stroke="#bfbfbf" points="653.5,-112.5 653.5,-131.5 814.5,-131.5 814.5,-112.5 653.5,-112.5"/>
<text text-anchor="middle" x="734" y="-119.5" font-family="Helvetica,sans-Serif" font-size="10.00">stk_mesh/base/FieldBase.hpp</text>
</a>
</g>
</g>
<!-- Node1&#45;&gt;Node10 -->
<g id="edge10" class="edge">
<title>Node1&#45;&gt;Node10</title>
<path fill="none" stroke="midnightblue" d="M961.22,-168.44C913.82,-158.96 837.37,-143.67 786.42,-133.48"/>
<polygon fill="midnightblue" stroke="midnightblue" points="787.07,-130.05 776.58,-131.52 785.7,-136.91 787.07,-130.05"/>
</g>
<!-- Node11 -->
<g id="node11" class="node">
<title>Node11</title>
<g id="a_node11"><a xlink:title=" ">
<polygon fill="white" stroke="#bfbfbf" points="832.5,-112.5 832.5,-131.5 995.5,-131.5 995.5,-112.5 832.5,-112.5"/>
<text text-anchor="middle" x="914" y="-119.5" font-family="Helvetica,sans-Serif" font-size="10.00">stk_mesh/base/FieldState.hpp</text>
</a>
</g>
</g>
<!-- Node1&#45;&gt;Node11 -->
<g id="edge11" class="edge">
<title>Node1&#45;&gt;Node11</title>
<path fill="none" stroke="midnightblue" d="M989.54,-168.32C975.5,-159.9 953.95,-146.97 937.46,-137.07"/>
<polygon fill="midnightblue" stroke="midnightblue" points="938.8,-133.8 928.42,-131.65 935.2,-139.8 938.8,-133.8"/>
</g>
<!-- Node12 -->
<g id="node12" class="node">
<title>Node12</title>
<g id="a_node12"><a xlink:title=" ">
<polygon fill="white" stroke="#bfbfbf" points="1014,-112.5 1014,-131.5 1176,-131.5 1176,-112.5 1014,-112.5"/>
<text text-anchor="middle" x="1095" y="-119.5" font-family="Helvetica,sans-Serif" font-size="10.00">stk_mesh/base/MetaData.hpp</text>
</a>
</g>
</g>
<!-- Node1&#45;&gt;Node12 -->
<g id="edge12" class="edge">
<title>Node1&#45;&gt;Node12</title>
<path fill="none" stroke="midnightblue" d="M1018.62,-168.32C1032.95,-159.82 1055.01,-146.73 1071.75,-136.8"/>
<polygon fill="midnightblue" stroke="midnightblue" points="1073.6,-139.77 1080.42,-131.65 1070.03,-133.75 1073.6,-139.77"/>
</g>
<!-- Node13 -->
<g id="node13" class="node">
<title>Node13</title>
<g id="a_node13"><a xlink:title=" ">
<polygon fill="white" stroke="#bfbfbf" points="1194,-112.5 1194,-131.5 1328,-131.5 1328,-112.5 1194,-112.5"/>
<text text-anchor="middle" x="1261" y="-119.5" font-family="Helvetica,sans-Serif" font-size="10.00">stk_mesh/base/Ngp.hpp</text>
</a>
</g>
</g>
<!-- Node1&#45;&gt;Node13 -->
<g id="edge13" class="edge">
<title>Node1&#45;&gt;Node13</title>
<path fill="none" stroke="midnightblue" d="M1044.72,-168.44C1089.65,-159 1162,-143.8 1210.5,-133.61"/>
<polygon fill="midnightblue" stroke="midnightblue" points="1211.4,-137 1220.47,-131.52 1209.96,-130.15 1211.4,-137"/>
</g>
<!-- Node14 -->
<g id="node14" class="node">
<title>Node14</title>
<g id="a_node14"><a xlink:title=" ">
<polygon fill="white" stroke="#bfbfbf" points="1346.5,-112.5 1346.5,-131.5 1491.5,-131.5 1491.5,-112.5 1346.5,-112.5"/>
<text text-anchor="middle" x="1419" y="-119.5" font-family="Helvetica,sans-Serif" font-size="10.00">stk_topology/topology.hpp</text>
</a>
</g>
</g>
<!-- Node1&#45;&gt;Node14 -->
<g id="edge14" class="edge">
<title>Node1&#45;&gt;Node14</title>
<path fill="none" stroke="midnightblue" d="M1058.68,-169.88C1131.68,-160.39 1261.3,-143.52 1343.56,-132.82"/>
<polygon fill="midnightblue" stroke="midnightblue" points="1344.13,-136.27 1353.59,-131.51 1343.23,-129.33 1344.13,-136.27"/>
</g>
<!-- Node15 -->
<g id="node15" class="node">
<title>Node15</title>
<g id="a_node15"><a xlink:title=" ">
<polygon fill="white" stroke="#bfbfbf" points="1509.5,-112.5 1509.5,-131.5 1674.5,-131.5 1674.5,-112.5 1509.5,-112.5"/>
<text text-anchor="middle" x="1592" y="-119.5" font-family="Helvetica,sans-Serif" font-size="10.00">stk_util/util/ReportHandler.hpp</text>
</a>
</g>
</g>
<!-- Node1&#45;&gt;Node15 -->
<g id="edge15" class="edge">
<title>Node1&#45;&gt;Node15</title>
<path fill="none" stroke="midnightblue" d="M1058.8,-172.19C1148.51,-164.28 1332.61,-147.91 1498.76,-132.21"/>
<polygon fill="midnightblue" stroke="midnightblue" points="1499.55,-135.65 1509.18,-131.22 1498.89,-128.68 1499.55,-135.65"/>
</g>
<!-- Node16 -->
<g id="node16" class="node">
<title>Node16</title>
<g id="a_node16"><a xlink:title=" ">
<polygon fill="white" stroke="#bfbfbf" points="1693,-112.5 1693,-131.5 1741,-131.5 1741,-112.5 1693,-112.5"/>
<text text-anchor="middle" x="1717" y="-119.5" font-family="Helvetica,sans-Serif" font-size="10.00">iosfwd</text>
</a>
</g>
</g>
<!-- Node1&#45;&gt;Node16 -->
<g id="edge16" class="edge">
<title>Node1&#45;&gt;Node16</title>
<path fill="none" stroke="midnightblue" d="M1058.64,-177.08C1173.01,-176.44 1445.97,-170.76 1682.79,-131.85"/>
<polygon fill="midnightblue" stroke="midnightblue" points="1683.69,-135.25 1692.97,-130.15 1682.53,-128.34 1683.69,-135.25"/>
</g>
<!-- Node3 -->
<g id="node3" class="node">
<title>Node3</title>
<g id="a_node3"><a xlink:href="_kokkos_framework_8h.html" target="_top" xlink:title=" ">
<polygon fill="white" stroke="black" points="23.5,-56.5 23.5,-75.5 198.5,-75.5 198.5,-56.5 23.5,-56.5"/>
<text text-anchor="middle" x="111" y="-63.5" font-family="Helvetica,sans-Serif" font-size="10.00">matrix_free/KokkosFramework.h</text>
</a>
</g>
</g>
<!-- Node2&#45;&gt;Node3 -->
<g id="edge2" class="edge">
<title>Node2&#45;&gt;Node3</title>
<path fill="none" stroke="midnightblue" d="M259.95,-112.44C229.92,-103.28 182.09,-88.69 148.76,-78.52"/>
<polygon fill="midnightblue" stroke="midnightblue" points="149.5,-75.09 138.91,-75.52 147.46,-81.78 149.5,-75.09"/>
</g>
<!-- Node7 -->
<g id="node7" class="node">
<title>Node7</title>
<g id="a_node7"><a xlink:title=" ">
<polygon fill="white" stroke="#bfbfbf" points="217,-56.5 217,-75.5 359,-75.5 359,-56.5 217,-56.5"/>
<text text-anchor="middle" x="288" y="-63.5" font-family="Helvetica,sans-Serif" font-size="10.00">stk_mesh/base/Types.hpp</text>
</a>
</g>
</g>
<!-- Node2&#45;&gt;Node7 -->
<g id="edge6" class="edge">
<title>Node2&#45;&gt;Node7</title>
<path fill="none" stroke="midnightblue" d="M288,-112.08C288,-105.01 288,-94.86 288,-85.99"/>
<polygon fill="midnightblue" stroke="midnightblue" points="291.5,-85.75 288,-75.75 284.5,-85.75 291.5,-85.75"/>
</g>
<!-- Node4 -->
<g id="node4" class="node">
<title>Node4</title>
<g id="a_node4"><a xlink:title=" ">
<polygon fill="white" stroke="#bfbfbf" points="0,-0.5 0,-19.5 100,-19.5 100,-0.5 0,-0.5"/>
<text text-anchor="middle" x="50" y="-7.5" font-family="Helvetica,sans-Serif" font-size="10.00">Kokkos_Core.hpp</text>
</a>
</g>
</g>
<!-- Node3&#45;&gt;Node4 -->
<g id="edge3" class="edge">
<title>Node3&#45;&gt;Node4</title>
<path fill="none" stroke="midnightblue" d="M101.2,-56.32C92.18,-48.34 78.59,-36.31 67.68,-26.65"/>
<polygon fill="midnightblue" stroke="midnightblue" points="69.79,-23.84 59.98,-19.83 65.15,-29.08 69.79,-23.84"/>
</g>
<!-- Node5 -->
<g id="node5" class="node">
<title>Node5</title>
<g id="a_node5"><a xlink:title=" ">
<polygon fill="white" stroke="#bfbfbf" points="118,-0.5 118,-19.5 228,-19.5 228,-0.5 118,-0.5"/>
<text text-anchor="middle" x="173" y="-7.5" font-family="Helvetica,sans-Serif" font-size="10.00">stk_simd/Simd.hpp</text>
</a>
</g>
</g>
<!-- Node3&#45;&gt;Node5 -->
<g id="edge4" class="edge">
<title>Node3&#45;&gt;Node5</title>
<path fill="none" stroke="midnightblue" d="M120.96,-56.32C130.13,-48.34 143.94,-36.31 155.03,-26.65"/>
<polygon fill="midnightblue" stroke="midnightblue" points="157.62,-29.04 162.86,-19.83 153.02,-23.76 157.62,-29.04"/>
</g>
<!-- Node6 -->
<g id="node6" class="node">
<title>Node6</title>
<g id="a_node6"><a xlink:title=" ">
<polygon fill="white" stroke="#bfbfbf" points="337.5,-0.5 337.5,-19.5 406.5,-19.5 406.5,-0.5 337.5,-0.5"/>
<text text-anchor="middle" x="372" y="-7.5" font-family="Helvetica,sans-Serif" font-size="10.00">type_traits</text>
</a>
</g>
</g>
<!-- Node3&#45;&gt;Node6 -->
<g id="edge5" class="edge">
<title>Node3&#45;&gt;Node6</title>
<path fill="none" stroke="midnightblue" d="M152.36,-56.44C200,-46.59 277.99,-30.45 327.09,-20.29"/>
<polygon fill="midnightblue" stroke="midnightblue" points="328.02,-23.67 337.1,-18.22 326.6,-16.82 328.02,-23.67"/>
</g>
<!-- Node8&#45;&gt;Node6 -->
<g id="edge8" class="edge">
<title>Node8&#45;&gt;Node6</title>
<path fill="none" stroke="midnightblue" d="M449.22,-56.32C434.73,-47.82 412.43,-34.73 395.51,-24.8"/>
<polygon fill="midnightblue" stroke="midnightblue" points="397.14,-21.7 386.74,-19.65 393.6,-27.74 397.14,-21.7"/>
</g>
</g>
</svg>
        <g id="navigator" transform="translate(0 0)" fill="#404254">
                <rect fill="#f2f5e9" fill-opacity="0.5" stroke="#606060" stroke-width=".5" x="0" y="0" width="60" height="60"/>
                <use id="zoomplus" xlink:href="#zoomPlus" x="17" y="9" onmousedown="handleZoom(evt,'in')"/>
                <use id="zoomminus" xlink:href="#zoomMin" x="42" y="9" onmousedown="handleZoom(evt,'out')"/>
                <use id="reset" xlink:href="#resetDef" x="30" y="36" onmousedown="handleReset()"/>
                <g id="arrowUp" xlink:href="#dirArrow" transform="translate(30 24)" onmousedown="handlePan(0,-1)">
                  <use xlink:href="#rim" fill="#404040">
                        <set attributeName="fill" to="#808080" begin="arrowUp.mouseover" end="arrowUp.mouseout"/>
                  </use>
                  <path fill="none" stroke="white" stroke-width="1.5" d="M0,-3.0v7 M-2.5,-0.5L0,-3.0L2.5,-0.5"/>
                </g>
                <g id="arrowRight" xlink:href="#dirArrow" transform="rotate(90) translate(36 -43)" onmousedown="handlePan(1,0)">
                  <use xlink:href="#rim" fill="#404040">
                        <set attributeName="fill" to="#808080" begin="arrowRight.mouseover" end="arrowRight.mouseout"/>
                  </use>
                  <path fill="none" stroke="white" stroke-width="1.5" d="M0,-3.0v7 M-2.5,-0.5L0,-3.0L2.5,-0.5"/>
                </g>
                <g id="arrowDown" xlink:href="#dirArrow" transform="rotate(180) translate(-30 -48)" onmousedown="handlePan(0,1)">
                  <use xlink:href="#rim" fill="#404040">
                        <set attributeName="fill" to="#808080" begin="arrowDown.mouseover" end="arrowDown.mouseout"/>
                  </use>
                  <path fill="none" stroke="white" stroke-width="1.5" d="M0,-3.0v7 M-2.5,-0.5L0,-3.0L2.5,-0.5"/>
                </g>
                <g id="arrowLeft" xlink:href="#dirArrow" transform="rotate(270) translate(-36 17)" onmousedown="handlePan(-1,0)">
                  <use xlink:href="#rim" fill="#404040">
                        <set attributeName="fill" to="#808080" begin="arrowLeft.mouseover" end="arrowLeft.mouseout"/>
                  </use>
                  <path fill="none" stroke="white" stroke-width="1.5" d="M0,-3.0v7 M-2.5,-0.5L0,-3.0L2.5,-0.5"/>
                </g>
        </g>
        <svg viewBox="0 0 15 15" width="100%" height="30px" preserveAspectRatio="xMaxYMin meet">
         <g id="arrow_out" transform="scale(0.3 0.3)">
          <a xlink:href="_conduction_fields_8h__incl_org.svg" target="_base">
           <rect id="button" ry="5" rx="5" y="6" x="6" height="38" width="38"
                fill="#f2f5e9" fill-opacity="0.5" stroke="#606060" stroke-width="1.0"/>
           <path id="arrow"
             d="M 11.500037,31.436501 C 11.940474,20.09759 22.043105,11.32322 32.158766,21.979434 L 37.068811,17.246167 C 37.068811,17.246167 37.088388,32 37.088388,32 L 22.160133,31.978069 C 22.160133,31.978069 26.997745,27.140456 26.997745,27.140456 C 18.528582,18.264221 13.291696,25.230495 11.500037,31.436501 z"
             style="fill:#404040;"/>
          </a>
         </g>
        </svg>
</svg>
