<?xml version="1.0" encoding="UTF-8" standalone="no"?>
<!DOCTYPE svg PUBLIC "-//W3C//DTD SVG 1.1//EN"
 "http://www.w3.org/Graphics/SVG/1.1/DTD/svg11.dtd">
<!-- Generated by graphviz version 2.43.0 (0)
 -->
<!-- Title: ContinuitySolutionUpdate.C Pages: 1 -->
<!--zoomable 319 -->
<svg id="main" version="1.1" xmlns="http://www.w3.org/2000/svg" xmlns:xlink="http://www.w3.org/1999/xlink" xml:space="preserve" onload="init(evt)">
<style type="text/css"><![CDATA[
.edge:hover path { stroke: red; }
.edge:hover polygon { stroke: red; fill: red; }
]]></style>
<script type="text/javascript"><![CDATA[
var edges = document.getElementsByTagName('g');
if (edges && edges.length) {
  for (var i=0;i<edges.length;i++) {
    if (edges[i].id.substr(0,4)=='edge') {
      edges[i].setAttribute('class','edge');
    }
  }
}
]]></script>
        <defs>
                <circle id="rim" cx="0" cy="0" r="7"/>
                <circle id="rim2" cx="0" cy="0" r="3.5"/>
                <g id="zoomPlus">
                        <use xlink:href="#rim" fill="#404040">
                                <set attributeName="fill" to="#808080" begin="zoomplus.mouseover" end="zoomplus.mouseout"/>
                        </use>
                        <path d="M-4,0h8M0,-4v8" fill="none" stroke="white" stroke-width="1.5" pointer-events="none"/>
                </g>
                <g id="zoomMin">
                        <use xlink:href="#rim" fill="#404040">
                                <set attributeName="fill" to="#808080" begin="zoomminus.mouseover" end="zoomminus.mouseout"/>
                        </use>
                        <path d="M-4,0h8" fill="none" stroke="white" stroke-width="1.5" pointer-events="none"/>
                </g>
                <g id="dirArrow">
                        <path fill="none" stroke="white" stroke-width="1.5" d="M0,-3.0v7 M-2.5,-0.5L0,-3.0L2.5,-0.5"/>
                </g>
               <g id="resetDef">
                       <use xlink:href="#rim2" fill="#404040">
                               <set attributeName="fill" to="#808080" begin="reset.mouseover" end="reset.mouseout"/>
                       </use>
               </g>
        </defs>

<script type="text/javascript">
var viewWidth = 1641;
var viewHeight = 319;
var sectionId = 'dynsection-0';
</script>
<script xlink:href="svgpan.js"/>
<svg id="graph" class="graph">
<g id="viewport">
<title>ContinuitySolutionUpdate.C</title>
<polygon fill="white" stroke="transparent" points="-4,4 -4,-315 1637.15,-315 1637.15,4 -4,4"/>
<!-- Node1 -->
<g id="node1" class="node">
<title>Node1</title>
<g id="a_node1"><a xlink:title=" ">
<polygon fill="#bfbfbf" stroke="black" points="844.15,-291.5 844.15,-310.5 996.15,-310.5 996.15,-291.5 844.15,-291.5"/>
<text text-anchor="middle" x="920.15" y="-298.5" font-family="Helvetica,sans-Serif" font-size="10.00">ContinuitySolutionUpdate.C</text>
</a>
</g>
</g>
<!-- Node2 -->
<g id="node2" class="node">
<title>Node2</title>
<g id="a_node2"><a xlink:href="_continuity_solution_update_8h.html" target="_top" xlink:title=" ">
<polygon fill="white" stroke="black" points="610.65,-224.5 610.65,-254.5 777.65,-254.5 777.65,-224.5 610.65,-224.5"/>
<text text-anchor="start" x="618.65" y="-242.5" font-family="Helvetica,sans-Serif" font-size="10.00">matrix_free/ContinuitySolution</text>
<text text-anchor="middle" x="694.15" y="-231.5" font-family="Helvetica,sans-Serif" font-size="10.00">Update.h</text>
</a>
</g>
</g>
<!-- Node1&#45;&gt;Node2 -->
<g id="edge1" class="edge">
<title>Node1&#45;&gt;Node2</title>
<path fill="none" stroke="midnightblue" d="M887.77,-291.48C853.8,-282.53 799.54,-268.25 757.1,-257.07"/>
<polygon fill="midnightblue" stroke="midnightblue" points="757.97,-253.68 747.41,-254.52 756.19,-260.45 757.97,-253.68"/>
</g>
<!-- Node4 -->
<g id="node4" class="node">
<title>Node4</title>
<g id="a_node4"><a xlink:href="_kokkos_view_types_8h.html" target="_top" xlink:title=" ">
<polygon fill="white" stroke="black" points="241.15,-112.5 241.15,-131.5 413.15,-131.5 413.15,-112.5 241.15,-112.5"/>
<text text-anchor="middle" x="327.15" y="-119.5" font-family="Helvetica,sans-Serif" font-size="10.00">matrix_free/KokkosViewTypes.h</text>
</a>
</g>
</g>
<!-- Node1&#45;&gt;Node4 -->
<g id="edge27" class="edge">
<title>Node1&#45;&gt;Node4</title>
<path fill="none" stroke="midnightblue" d="M844.14,-292.67C779.13,-285.59 683.32,-273.25 601.15,-255 501.78,-232.93 467.13,-244.01 382.15,-188 363.31,-175.59 347.39,-154.88 337.6,-140.18"/>
<polygon fill="midnightblue" stroke="midnightblue" points="340.41,-138.08 332.08,-131.53 334.51,-141.84 340.41,-138.08"/>
</g>
<!-- Node8 -->
<g id="node8" class="node">
<title>Node8</title>
<g id="a_node8"><a xlink:title=" ">
<polygon fill="white" stroke="#bfbfbf" points="80.65,-0.5 80.65,-19.5 149.65,-19.5 149.65,-0.5 80.65,-0.5"/>
<text text-anchor="middle" x="115.15" y="-7.5" font-family="Helvetica,sans-Serif" font-size="10.00">type_traits</text>
</a>
</g>
</g>
<!-- Node1&#45;&gt;Node8 -->
<g id="edge38" class="edge">
<title>Node1&#45;&gt;Node8</title>
<path fill="none" stroke="midnightblue" d="M843.96,-297.55C689.14,-292.17 342.53,-277.94 226.15,-255 122.17,-234.51 0.15,-284.97 0.15,-179 0.15,-179 0.15,-179 0.15,-121 0.15,-90.9 -0.44,-78.86 19.15,-56 32.55,-40.36 52.57,-29.8 70.87,-22.86"/>
<polygon fill="midnightblue" stroke="midnightblue" points="72.25,-26.08 80.52,-19.46 69.93,-19.48 72.25,-26.08"/>
</g>
<!-- Node11 -->
<g id="node11" class="node">
<title>Node11</title>
<g id="a_node11"><a xlink:title=" ">
<polygon fill="white" stroke="#bfbfbf" points="123.15,-112.5 123.15,-131.5 223.15,-131.5 223.15,-112.5 123.15,-112.5"/>
<text text-anchor="middle" x="173.15" y="-119.5" font-family="Helvetica,sans-Serif" font-size="10.00">Teuchos_RCP.hpp</text>
</a>
</g>
</g>
<!-- Node1&#45;&gt;Node11 -->
<g id="edge33" class="edge">
<title>Node1&#45;&gt;Node11</title>
<path fill="none" stroke="midnightblue" d="M843.96,-296.03C729.74,-289.52 519.75,-275.24 447.15,-255 347.67,-227.26 240.26,-164.86 195.1,-136.95"/>
<polygon fill="midnightblue" stroke="midnightblue" points="196.77,-133.87 186.44,-131.54 193.07,-139.81 196.77,-133.87"/>
</g>
<!-- Node15 -->
<g id="node15" class="node">
<title>Node15</title>
<g id="a_node15"><a xlink:title=" ">
<polygon fill="white" stroke="#bfbfbf" points="975.15,-112.5 975.15,-131.5 1091.15,-131.5 1091.15,-112.5 975.15,-112.5"/>
<text text-anchor="middle" x="1033.15" y="-119.5" font-family="Helvetica,sans-Serif" font-size="10.00">Tpetra_Operator.hpp</text>
</a>
</g>
</g>
<!-- Node1&#45;&gt;Node15 -->
<g id="edge34" class="edge">
<title>Node1&#45;&gt;Node15</title>
<path fill="none" stroke="midnightblue" d="M919.97,-291.5C920.02,-276.88 921.64,-246.38 933.15,-224 943.43,-204 989.76,-161.28 1015.6,-138.33"/>
<polygon fill="midnightblue" stroke="midnightblue" points="1018.01,-140.87 1023.2,-131.63 1013.38,-135.62 1018.01,-140.87"/>
</g>
<!-- Node16 -->
<g id="node16" class="node">
<title>Node16</title>
<g id="a_node16"><a xlink:href="_matrix_free_solver_8h.html" target="_top" xlink:title=" ">
<polygon fill="white" stroke="black" points="1007.15,-168.5 1007.15,-187.5 1175.15,-187.5 1175.15,-168.5 1007.15,-168.5"/>
<text text-anchor="middle" x="1091.15" y="-175.5" font-family="Helvetica,sans-Serif" font-size="10.00">matrix_free/MatrixFreeSolver.h</text>
</a>
</g>
</g>
<!-- Node1&#45;&gt;Node16 -->
<g id="edge28" class="edge">
<title>Node1&#45;&gt;Node16</title>
<path fill="none" stroke="midnightblue" d="M922.14,-291.37C926.2,-275.7 936.9,-242.51 958.15,-224 977.2,-207.4 1002.64,-196.86 1026.16,-190.2"/>
<polygon fill="midnightblue" stroke="midnightblue" points="1027.33,-193.51 1036.1,-187.58 1025.54,-186.75 1027.33,-193.51"/>
</g>
<!-- Node21 -->
<g id="node21" class="node">
<title>Node21</title>
<g id="a_node21"><a xlink:href="_polynomial_orders_8h.html" target="_top" xlink:title=" ">
<polygon fill="white" stroke="black" points="28.65,-56.5 28.65,-75.5 201.65,-75.5 201.65,-56.5 28.65,-56.5"/>
<text text-anchor="middle" x="115.15" y="-63.5" font-family="Helvetica,sans-Serif" font-size="10.00">matrix_free/PolynomialOrders.h</text>
</a>
</g>
</g>
<!-- Node1&#45;&gt;Node21 -->
<g id="edge29" class="edge">
<title>Node1&#45;&gt;Node21</title>
<path fill="none" stroke="midnightblue" d="M844.04,-297.51C712.52,-292.59 448.25,-279.91 359.15,-255 241.81,-222.19 178.12,-235.7 114.15,-132 105.64,-118.21 106.99,-99.43 109.82,-85.61"/>
<polygon fill="midnightblue" stroke="midnightblue" points="113.25,-86.32 112.24,-75.77 106.45,-84.64 113.25,-86.32"/>
</g>
<!-- Node22 -->
<g id="node22" class="node">
<title>Node22</title>
<g id="a_node22"><a xlink:title=" ">
<polygon fill="white" stroke="#bfbfbf" points="967.15,-224.5 967.15,-254.5 1119.15,-254.5 1119.15,-224.5 967.15,-224.5"/>
<text text-anchor="start" x="975.15" y="-242.5" font-family="Helvetica,sans-Serif" font-size="10.00">stk_mesh/base/NgpProfiling</text>
<text text-anchor="middle" x="1043.15" y="-231.5" font-family="Helvetica,sans-Serif" font-size="10.00">Block.hpp</text>
</a>
</g>
</g>
<!-- Node1&#45;&gt;Node22 -->
<g id="edge31" class="edge">
<title>Node1&#45;&gt;Node22</title>
<path fill="none" stroke="midnightblue" d="M937.77,-291.48C955.21,-283.04 982.46,-269.86 1004.89,-259.01"/>
<polygon fill="midnightblue" stroke="midnightblue" points="1006.68,-262.03 1014.16,-254.52 1003.63,-255.73 1006.68,-262.03"/>
</g>
<!-- Node23 -->
<g id="node23" class="node">
<title>Node23</title>
<g id="a_node23"><a xlink:title=" ">
<polygon fill="white" stroke="#bfbfbf" points="1137.65,-230 1137.65,-249 1346.65,-249 1346.65,-230 1137.65,-230"/>
<text text-anchor="middle" x="1242.15" y="-237" font-family="Helvetica,sans-Serif" font-size="10.00">MueLu_CreateTpetraPreconditioner.hpp</text>
</a>
</g>
</g>
<!-- Node1&#45;&gt;Node23 -->
<g id="edge32" class="edge">
<title>Node1&#45;&gt;Node23</title>
<path fill="none" stroke="midnightblue" d="M966.28,-291.48C1024.26,-280.76 1123.72,-262.38 1186.05,-250.87"/>
<polygon fill="midnightblue" stroke="midnightblue" points="1186.9,-254.27 1196.1,-249.01 1185.63,-247.38 1186.9,-254.27"/>
</g>
<!-- Node24 -->
<g id="node24" class="node">
<title>Node24</title>
<g id="a_node24"><a xlink:title=" ">
<polygon fill="white" stroke="#bfbfbf" points="1365.15,-230 1365.15,-249 1487.15,-249 1487.15,-230 1365.15,-230"/>
<text text-anchor="middle" x="1426.15" y="-237" font-family="Helvetica,sans-Serif" font-size="10.00">Tpetra_CrsMatrix.hpp</text>
</a>
</g>
</g>
<!-- Node1&#45;&gt;Node24 -->
<g id="edge35" class="edge">
<title>Node1&#45;&gt;Node24</title>
<path fill="none" stroke="midnightblue" d="M996.45,-294.48C1083.72,-287.62 1230.75,-274.41 1356.15,-255 1363.4,-253.88 1371.03,-252.5 1378.49,-251.05"/>
<polygon fill="midnightblue" stroke="midnightblue" points="1379.38,-254.44 1388.49,-249.03 1378,-247.57 1379.38,-254.44"/>
</g>
<!-- Node25 -->
<g id="node25" class="node">
<title>Node25</title>
<g id="a_node25"><a xlink:title=" ">
<polygon fill="white" stroke="#bfbfbf" points="1505.65,-230 1505.65,-249 1570.65,-249 1570.65,-230 1505.65,-230"/>
<text text-anchor="middle" x="1538.15" y="-237" font-family="Helvetica,sans-Serif" font-size="10.00">exception</text>
</a>
</g>
</g>
<!-- Node1&#45;&gt;Node25 -->
<g id="edge36" class="edge">
<title>Node1&#45;&gt;Node25</title>
<path fill="none" stroke="midnightblue" d="M996.49,-300.17C1107.61,-299.05 1319.88,-291.69 1496.15,-255 1499.65,-254.27 1503.26,-253.33 1506.83,-252.28"/>
<polygon fill="midnightblue" stroke="midnightblue" points="1508.21,-255.51 1516.64,-249.1 1506.05,-248.85 1508.21,-255.51"/>
</g>
<!-- Node26 -->
<g id="node26" class="node">
<title>Node26</title>
<g id="a_node26"><a xlink:title=" ">
<polygon fill="white" stroke="#bfbfbf" points="1589.15,-230 1589.15,-249 1633.15,-249 1633.15,-230 1589.15,-230"/>
<text text-anchor="middle" x="1611.15" y="-237" font-family="Helvetica,sans-Serif" font-size="10.00">string</text>
</a>
</g>
</g>
<!-- Node1&#45;&gt;Node26 -->
<g id="edge37" class="edge">
<title>Node1&#45;&gt;Node26</title>
<path fill="none" stroke="midnightblue" d="M996.24,-298.32C1145.53,-294.46 1471.73,-283.01 1580.15,-255 1582.13,-254.49 1584.14,-253.85 1586.14,-253.13"/>
<polygon fill="midnightblue" stroke="midnightblue" points="1587.95,-256.16 1595.8,-249.04 1585.22,-249.72 1587.95,-256.16"/>
</g>
<!-- Node3 -->
<g id="node3" class="node">
<title>Node3</title>
<g id="a_node3"><a xlink:href="_continuity_operator_8h.html" target="_top" xlink:title=" ">
<polygon fill="white" stroke="black" points="431.15,-168.5 431.15,-187.5 609.15,-187.5 609.15,-168.5 431.15,-168.5"/>
<text text-anchor="middle" x="520.15" y="-175.5" font-family="Helvetica,sans-Serif" font-size="10.00">matrix_free/ContinuityOperator.h</text>
</a>
</g>
</g>
<!-- Node2&#45;&gt;Node3 -->
<g id="edge2" class="edge">
<title>Node2&#45;&gt;Node3</title>
<path fill="none" stroke="midnightblue" d="M652.91,-224.4C622.97,-214.16 582.93,-200.47 554.68,-190.81"/>
<polygon fill="midnightblue" stroke="midnightblue" points="555.8,-187.49 545.21,-187.57 553.54,-194.12 555.8,-187.49"/>
</g>
<!-- Node2&#45;&gt;Node4 -->
<g id="edge15" class="edge">
<title>Node2&#45;&gt;Node4</title>
<path fill="none" stroke="midnightblue" d="M610.37,-232.02C555.24,-225.59 482.4,-212.9 422.15,-188 392.46,-175.74 362.61,-153.26 344.5,-138.22"/>
<polygon fill="midnightblue" stroke="midnightblue" points="346.49,-135.32 336.6,-131.51 341.96,-140.65 346.49,-135.32"/>
</g>
<!-- Node2&#45;&gt;Node11 -->
<g id="edge21" class="edge">
<title>Node2&#45;&gt;Node11</title>
<path fill="none" stroke="midnightblue" d="M610.42,-228.21C547.24,-219.66 458.66,-206 382.15,-188 318.93,-173.13 246.97,-149.14 206.11,-134.84"/>
<polygon fill="midnightblue" stroke="midnightblue" points="207.26,-131.54 196.67,-131.51 204.93,-138.14 207.26,-131.54"/>
</g>
<!-- Node12 -->
<g id="node12" class="node">
<title>Node12</title>
<g id="a_node12"><a xlink:title=" ">
<polygon fill="white" stroke="#bfbfbf" points="703.15,-112.5 703.15,-131.5 809.15,-131.5 809.15,-112.5 703.15,-112.5"/>
<text text-anchor="middle" x="756.15" y="-119.5" font-family="Helvetica,sans-Serif" font-size="10.00">Tpetra_Export.hpp</text>
</a>
</g>
</g>
<!-- Node2&#45;&gt;Node12 -->
<g id="edge22" class="edge">
<title>Node2&#45;&gt;Node12</title>
<path fill="none" stroke="midnightblue" d="M679.33,-224.45C665.76,-209.82 649.44,-186.5 661.15,-168 671.19,-152.13 688.52,-141.74 705.65,-135"/>
<polygon fill="midnightblue" stroke="midnightblue" points="706.86,-138.28 715.09,-131.62 704.5,-131.69 706.86,-138.28"/>
</g>
<!-- Node14 -->
<g id="node14" class="node">
<title>Node14</title>
<g id="a_node14"><a xlink:title=" ">
<polygon fill="white" stroke="#bfbfbf" points="827.65,-112.5 827.65,-131.5 956.65,-131.5 956.65,-112.5 827.65,-112.5"/>
<text text-anchor="middle" x="892.15" y="-119.5" font-family="Helvetica,sans-Serif" font-size="10.00">Tpetra_MultiVector.hpp</text>
</a>
</g>
</g>
<!-- Node2&#45;&gt;Node14 -->
<g id="edge23" class="edge">
<title>Node2&#45;&gt;Node14</title>
<path fill="none" stroke="midnightblue" d="M690.66,-224.23C687.75,-208.54 685.93,-183.5 699.15,-168 707.9,-157.73 778.41,-143.15 831.7,-133.4"/>
<polygon fill="midnightblue" stroke="midnightblue" points="832.55,-136.8 841.76,-131.57 831.3,-129.91 832.55,-136.8"/>
</g>
<!-- Node2&#45;&gt;Node15 -->
<g id="edge24" class="edge">
<title>Node2&#45;&gt;Node15</title>
<path fill="none" stroke="midnightblue" d="M697.67,-224.29C702.52,-207.91 712.92,-181.51 732.15,-168 736.9,-164.66 877.44,-144.64 964.77,-132.45"/>
<polygon fill="midnightblue" stroke="midnightblue" points="965.46,-135.89 974.88,-131.04 964.5,-128.96 965.46,-135.89"/>
</g>
<!-- Node2&#45;&gt;Node16 -->
<g id="edge16" class="edge">
<title>Node2&#45;&gt;Node16</title>
<path fill="none" stroke="midnightblue" d="M777.85,-225.95C851.21,-214.96 956.43,-199.19 1024.28,-189.02"/>
<polygon fill="midnightblue" stroke="midnightblue" points="1025.06,-192.44 1034.43,-187.5 1024.02,-185.52 1025.06,-192.44"/>
</g>
<!-- Node19 -->
<g id="node19" class="node">
<title>Node19</title>
<g id="a_node19"><a xlink:title=" ">
<polygon fill="white" stroke="#bfbfbf" points="741.15,-168.5 741.15,-187.5 885.15,-187.5 885.15,-168.5 741.15,-168.5"/>
<text text-anchor="middle" x="813.15" y="-175.5" font-family="Helvetica,sans-Serif" font-size="10.00">Tpetra_CrsMatrix_fwd.hpp</text>
</a>
</g>
</g>
<!-- Node2&#45;&gt;Node19 -->
<g id="edge25" class="edge">
<title>Node2&#45;&gt;Node19</title>
<path fill="none" stroke="midnightblue" d="M722.35,-224.4C741.87,-214.64 767.67,-201.74 786.78,-192.18"/>
<polygon fill="midnightblue" stroke="midnightblue" points="788.45,-195.26 795.83,-187.66 785.32,-189 788.45,-195.26"/>
</g>
<!-- Node20 -->
<g id="node20" class="node">
<title>Node20</title>
<g id="a_node20"><a xlink:title=" ">
<polygon fill="white" stroke="#bfbfbf" points="903.15,-168.5 903.15,-187.5 951.15,-187.5 951.15,-168.5 903.15,-168.5"/>
<text text-anchor="middle" x="927.15" y="-175.5" font-family="Helvetica,sans-Serif" font-size="10.00">iosfwd</text>
</a>
</g>
</g>
<!-- Node2&#45;&gt;Node20 -->
<g id="edge26" class="edge">
<title>Node2&#45;&gt;Node20</title>
<path fill="none" stroke="midnightblue" d="M751.12,-224.42C788.83,-215.03 839.63,-202.25 893.01,-188.26"/>
<polygon fill="midnightblue" stroke="midnightblue" points="894.23,-191.56 903.01,-185.64 892.45,-184.79 894.23,-191.56"/>
</g>
<!-- Node3&#45;&gt;Node4 -->
<g id="edge3" class="edge">
<title>Node3&#45;&gt;Node4</title>
<path fill="none" stroke="midnightblue" d="M489.56,-168.44C456.53,-159.2 403.76,-144.44 367.38,-134.26"/>
<polygon fill="midnightblue" stroke="midnightblue" points="368.16,-130.84 357.58,-131.52 366.27,-137.58 368.16,-130.84"/>
</g>
<!-- Node10 -->
<g id="node10" class="node">
<title>Node10</title>
<g id="a_node10"><a xlink:title=" ">
<polygon fill="white" stroke="#bfbfbf" points="545.15,-112.5 545.15,-131.5 685.15,-131.5 685.15,-112.5 545.15,-112.5"/>
<text text-anchor="middle" x="615.15" y="-119.5" font-family="Helvetica,sans-Serif" font-size="10.00">Teuchos_BLAS_types.hpp</text>
</a>
</g>
</g>
<!-- Node3&#45;&gt;Node10 -->
<g id="edge9" class="edge">
<title>Node3&#45;&gt;Node10</title>
<path fill="none" stroke="midnightblue" d="M535.41,-168.32C550.37,-159.82 573.4,-146.73 590.87,-136.8"/>
<polygon fill="midnightblue" stroke="midnightblue" points="592.96,-139.64 599.92,-131.65 589.5,-133.55 592.96,-139.64"/>
</g>
<!-- Node3&#45;&gt;Node11 -->
<g id="edge10" class="edge">
<title>Node3&#45;&gt;Node11</title>
<path fill="none" stroke="midnightblue" d="M465.16,-168.44C402.04,-158.62 298.81,-142.56 233.51,-132.39"/>
<polygon fill="midnightblue" stroke="midnightblue" points="233.78,-128.89 223.36,-130.82 232.71,-135.81 233.78,-128.89"/>
</g>
<!-- Node3&#45;&gt;Node12 -->
<g id="edge11" class="edge">
<title>Node3&#45;&gt;Node12</title>
<path fill="none" stroke="midnightblue" d="M557.54,-168.44C598.54,-159.06 664.4,-143.99 708.93,-133.8"/>
<polygon fill="midnightblue" stroke="midnightblue" points="709.96,-137.16 718.93,-131.52 708.4,-130.34 709.96,-137.16"/>
</g>
<!-- Node13 -->
<g id="node13" class="node">
<title>Node13</title>
<g id="a_node13"><a xlink:title=" ">
<polygon fill="white" stroke="#bfbfbf" points="431.65,-112.5 431.65,-131.5 526.65,-131.5 526.65,-112.5 431.65,-112.5"/>
<text text-anchor="middle" x="479.15" y="-119.5" font-family="Helvetica,sans-Serif" font-size="10.00">Tpetra_Map.hpp</text>
</a>
</g>
</g>
<!-- Node3&#45;&gt;Node13 -->
<g id="edge12" class="edge">
<title>Node3&#45;&gt;Node13</title>
<path fill="none" stroke="midnightblue" d="M513.38,-168.08C507.58,-160.46 499.09,-149.26 492.01,-139.94"/>
<polygon fill="midnightblue" stroke="midnightblue" points="494.62,-137.6 485.79,-131.75 489.05,-141.83 494.62,-137.6"/>
</g>
<!-- Node3&#45;&gt;Node14 -->
<g id="edge13" class="edge">
<title>Node3&#45;&gt;Node14</title>
<path fill="none" stroke="midnightblue" d="M579.09,-168.44C645.48,-158.81 753.24,-143.16 823.41,-132.98"/>
<polygon fill="midnightblue" stroke="midnightblue" points="824.08,-136.42 833.48,-131.52 823.08,-129.49 824.08,-136.42"/>
</g>
<!-- Node3&#45;&gt;Node15 -->
<g id="edge14" class="edge">
<title>Node3&#45;&gt;Node15</title>
<path fill="none" stroke="midnightblue" d="M609.31,-168.8C696.93,-160.55 834.72,-147.09 964.77,-132.01"/>
<polygon fill="midnightblue" stroke="midnightblue" points="965.39,-135.46 974.92,-130.83 964.58,-128.51 965.39,-135.46"/>
</g>
<!-- Node5 -->
<g id="node5" class="node">
<title>Node5</title>
<g id="a_node5"><a xlink:href="_kokkos_framework_8h.html" target="_top" xlink:title=" ">
<polygon fill="white" stroke="black" points="219.65,-56.5 219.65,-75.5 394.65,-75.5 394.65,-56.5 219.65,-56.5"/>
<text text-anchor="middle" x="307.15" y="-63.5" font-family="Helvetica,sans-Serif" font-size="10.00">matrix_free/KokkosFramework.h</text>
</a>
</g>
</g>
<!-- Node4&#45;&gt;Node5 -->
<g id="edge4" class="edge">
<title>Node4&#45;&gt;Node5</title>
<path fill="none" stroke="midnightblue" d="M323.84,-112.08C321.16,-104.85 317.3,-94.41 313.96,-85.4"/>
<polygon fill="midnightblue" stroke="midnightblue" points="317.14,-83.91 310.39,-75.75 310.58,-86.34 317.14,-83.91"/>
</g>
<!-- Node9 -->
<g id="node9" class="node">
<title>Node9</title>
<g id="a_node9"><a xlink:title=" ">
<polygon fill="white" stroke="#bfbfbf" points="413.15,-56.5 413.15,-75.5 555.15,-75.5 555.15,-56.5 413.15,-56.5"/>
<text text-anchor="middle" x="484.15" y="-63.5" font-family="Helvetica,sans-Serif" font-size="10.00">stk_mesh/base/Types.hpp</text>
</a>
</g>
</g>
<!-- Node4&#45;&gt;Node9 -->
<g id="edge8" class="edge">
<title>Node4&#45;&gt;Node9</title>
<path fill="none" stroke="midnightblue" d="M352.02,-112.44C378.43,-103.36 420.36,-88.94 449.89,-78.78"/>
<polygon fill="midnightblue" stroke="midnightblue" points="451.07,-82.08 459.38,-75.52 448.79,-75.46 451.07,-82.08"/>
</g>
<!-- Node6 -->
<g id="node6" class="node">
<title>Node6</title>
<g id="a_node6"><a xlink:title=" ">
<polygon fill="white" stroke="#bfbfbf" points="338.15,-0.5 338.15,-19.5 438.15,-19.5 438.15,-0.5 338.15,-0.5"/>
<text text-anchor="middle" x="388.15" y="-7.5" font-family="Helvetica,sans-Serif" font-size="10.00">Kokkos_Core.hpp</text>
</a>
</g>
</g>
<!-- Node5&#45;&gt;Node6 -->
<g id="edge5" class="edge">
<title>Node5&#45;&gt;Node6</title>
<path fill="none" stroke="midnightblue" d="M320.16,-56.32C332.68,-47.98 351.83,-35.21 366.62,-25.35"/>
<polygon fill="midnightblue" stroke="midnightblue" points="368.78,-28.11 375.16,-19.65 364.9,-22.29 368.78,-28.11"/>
</g>
<!-- Node7 -->
<g id="node7" class="node">
<title>Node7</title>
<g id="a_node7"><a xlink:title=" ">
<polygon fill="white" stroke="#bfbfbf" points="210.15,-0.5 210.15,-19.5 320.15,-19.5 320.15,-0.5 210.15,-0.5"/>
<text text-anchor="middle" x="265.15" y="-7.5" font-family="Helvetica,sans-Serif" font-size="10.00">stk_simd/Simd.hpp</text>
</a>
</g>
</g>
<!-- Node5&#45;&gt;Node7 -->
<g id="edge6" class="edge">
<title>Node5&#45;&gt;Node7</title>
<path fill="none" stroke="midnightblue" d="M300.21,-56.08C294.22,-48.38 285.39,-37.03 278.1,-27.65"/>
<polygon fill="midnightblue" stroke="midnightblue" points="280.85,-25.5 271.95,-19.75 275.33,-29.79 280.85,-25.5"/>
</g>
<!-- Node5&#45;&gt;Node8 -->
<g id="edge7" class="edge">
<title>Node5&#45;&gt;Node8</title>
<path fill="none" stroke="midnightblue" d="M276.72,-56.44C243.86,-47.2 191.36,-32.44 155.17,-22.26"/>
<polygon fill="midnightblue" stroke="midnightblue" points="156,-18.85 145.43,-19.52 154.11,-25.59 156,-18.85"/>
</g>
<!-- Node16&#45;&gt;Node14 -->
<g id="edge19" class="edge">
<title>Node16&#45;&gt;Node14</title>
<path fill="none" stroke="midnightblue" d="M1059.61,-168.44C1025.55,-159.2 971.14,-144.44 933.63,-134.26"/>
<polygon fill="midnightblue" stroke="midnightblue" points="934.1,-130.76 923.53,-131.52 932.26,-137.51 934.1,-130.76"/>
</g>
<!-- Node16&#45;&gt;Node15 -->
<g id="edge20" class="edge">
<title>Node16&#45;&gt;Node15</title>
<path fill="none" stroke="midnightblue" d="M1081.83,-168.32C1073.25,-160.34 1060.33,-148.31 1049.96,-138.65"/>
<polygon fill="midnightblue" stroke="midnightblue" points="1052.34,-136.09 1042.63,-131.83 1047.57,-141.21 1052.34,-136.09"/>
</g>
<!-- Node17 -->
<g id="node17" class="node">
<title>Node17</title>
<g id="a_node17"><a xlink:title=" ">
<polygon fill="white" stroke="#bfbfbf" points="1263.15,-112.5 1263.15,-131.5 1397.15,-131.5 1397.15,-112.5 1263.15,-112.5"/>
<text text-anchor="middle" x="1330.15" y="-119.5" font-family="Helvetica,sans-Serif" font-size="10.00">BelosTpetraAdapter.hpp</text>
</a>
</g>
</g>
<!-- Node16&#45;&gt;Node17 -->
<g id="edge17" class="edge">
<title>Node16&#45;&gt;Node17</title>
<path fill="none" stroke="midnightblue" d="M1129.02,-168.44C1170.62,-159.04 1237.51,-143.93 1282.61,-133.74"/>
<polygon fill="midnightblue" stroke="midnightblue" points="1283.47,-137.13 1292.45,-131.52 1281.93,-130.31 1283.47,-137.13"/>
</g>
<!-- Node18 -->
<g id="node18" class="node">
<title>Node18</title>
<g id="a_node18"><a xlink:title=" ">
<polygon fill="white" stroke="#bfbfbf" points="1109.65,-112.5 1109.65,-131.5 1244.65,-131.5 1244.65,-112.5 1109.65,-112.5"/>
<text text-anchor="middle" x="1177.15" y="-119.5" font-family="Helvetica,sans-Serif" font-size="10.00">BelosLinearProblem.hpp</text>
</a>
</g>
</g>
<!-- Node16&#45;&gt;Node18 -->
<g id="edge18" class="edge">
<title>Node16&#45;&gt;Node18</title>
<path fill="none" stroke="midnightblue" d="M1104.96,-168.32C1118.38,-159.9 1138.97,-146.97 1154.73,-137.07"/>
<polygon fill="midnightblue" stroke="midnightblue" points="1156.75,-139.94 1163.36,-131.65 1153.03,-134.01 1156.75,-139.94"/>
</g>
<!-- Node21&#45;&gt;Node8 -->
<g id="edge30" class="edge">
<title>Node21&#45;&gt;Node8</title>
<path fill="none" stroke="midnightblue" d="M115.15,-56.08C115.15,-49.01 115.15,-38.86 115.15,-29.99"/>
<polygon fill="midnightblue" stroke="midnightblue" points="118.65,-29.75 115.15,-19.75 111.65,-29.75 118.65,-29.75"/>
</g>
</g>
</svg>
        <g id="navigator" transform="translate(0 0)" fill="#404254">
                <rect fill="#f2f5e9" fill-opacity="0.5" stroke="#606060" stroke-width=".5" x="0" y="0" width="60" height="60"/>
                <use id="zoomplus" xlink:href="#zoomPlus" x="17" y="9" onmousedown="handleZoom(evt,'in')"/>
                <use id="zoomminus" xlink:href="#zoomMin" x="42" y="9" onmousedown="handleZoom(evt,'out')"/>
                <use id="reset" xlink:href="#resetDef" x="30" y="36" onmousedown="handleReset()"/>
                <g id="arrowUp" xlink:href="#dirArrow" transform="translate(30 24)" onmousedown="handlePan(0,-1)">
                  <use xlink:href="#rim" fill="#404040">
                        <set attributeName="fill" to="#808080" begin="arrowUp.mouseover" end="arrowUp.mouseout"/>
                  </use>
                  <path fill="none" stroke="white" stroke-width="1.5" d="M0,-3.0v7 M-2.5,-0.5L0,-3.0L2.5,-0.5"/>
                </g>
                <g id="arrowRight" xlink:href="#dirArrow" transform="rotate(90) translate(36 -43)" onmousedown="handlePan(1,0)">
                  <use xlink:href="#rim" fill="#404040">
                        <set attributeName="fill" to="#808080" begin="arrowRight.mouseover" end="arrowRight.mouseout"/>
                  </use>
                  <path fill="none" stroke="white" stroke-width="1.5" d="M0,-3.0v7 M-2.5,-0.5L0,-3.0L2.5,-0.5"/>
                </g>
                <g id="arrowDown" xlink:href="#dirArrow" transform="rotate(180) translate(-30 -48)" onmousedown="handlePan(0,1)">
                  <use xlink:href="#rim" fill="#404040">
                        <set attributeName="fill" to="#808080" begin="arrowDown.mouseover" end="arrowDown.mouseout"/>
                  </use>
                  <path fill="none" stroke="white" stroke-width="1.5" d="M0,-3.0v7 M-2.5,-0.5L0,-3.0L2.5,-0.5"/>
                </g>
                <g id="arrowLeft" xlink:href="#dirArrow" transform="rotate(270) translate(-36 17)" onmousedown="handlePan(-1,0)">
                  <use xlink:href="#rim" fill="#404040">
                        <set attributeName="fill" to="#808080" begin="arrowLeft.mouseover" end="arrowLeft.mouseout"/>
                  </use>
                  <path fill="none" stroke="white" stroke-width="1.5" d="M0,-3.0v7 M-2.5,-0.5L0,-3.0L2.5,-0.5"/>
                </g>
        </g>
        <svg viewBox="0 0 15 15" width="100%" height="30px" preserveAspectRatio="xMaxYMin meet">
         <g id="arrow_out" transform="scale(0.3 0.3)">
          <a xlink:href="_continuity_solution_update_8_c__incl_org.svg" target="_base">
           <rect id="button" ry="5" rx="5" y="6" x="6" height="38" width="38"
                fill="#f2f5e9" fill-opacity="0.5" stroke="#606060" stroke-width="1.0"/>
           <path id="arrow"
             d="M 11.500037,31.436501 C 11.940474,20.09759 22.043105,11.32322 32.158766,21.979434 L 37.068811,17.246167 C 37.068811,17.246167 37.088388,32 37.088388,32 L 22.160133,31.978069 C 22.160133,31.978069 26.997745,27.140456 26.997745,27.140456 C 18.528582,18.264221 13.291696,25.230495 11.500037,31.436501 z"
             style="fill:#404040;"/>
          </a>
         </g>
        </svg>
</svg>
