<?xml version="1.0" encoding="UTF-8" standalone="no"?>
<!DOCTYPE svg PUBLIC "-//W3C//DTD SVG 1.1//EN"
 "http://www.w3.org/Graphics/SVG/1.1/DTD/svg11.dtd">
<!-- Generated by graphviz version 2.43.0 (0)
 -->
<!-- Title: ConvectingTaylorVortexVelocityAuxFunction.C Pages: 1 -->
<svg width="461pt" height="159pt"
 viewBox="0.00 0.00 461.00 159.00" xmlns="http://www.w3.org/2000/svg" xmlns:xlink="http://www.w3.org/1999/xlink">
<g id="graph0" class="graph" transform="scale(1 1) rotate(0) translate(4 155)">
<title>ConvectingTaylorVortexVelocityAuxFunction.C</title>
<!-- Node1 -->
<g id="Node000001" class="node">
<title>Node1</title>
<g id="a_Node000001"><a xlink:title=" ">
<polygon fill="#999999" stroke="#666666" points="358,-151 187,-151 187,-121 358,-121 358,-151"/>
<text text-anchor="start" x="195" y="-139" font-family="Helvetica,sans-Serif" font-size="10.00">ConvectingTaylorVortexVelocity</text>
<text text-anchor="middle" x="272.5" y="-128" font-family="Helvetica,sans-Serif" font-size="10.00">AuxFunction.C</text>
</a>
</g>
</g>
<!-- Node2 -->
<g id="Node000002" class="node">
<title>Node2</title>
<g id="a_Node000002"><a xlink:href="_convecting_taylor_vortex_velocity_aux_function_8h.html" target="_top" xlink:title=" ">
<polygon fill="white" stroke="#666666" points="185,-85 0,-85 0,-55 185,-55 185,-85"/>
<text text-anchor="start" x="8" y="-73" font-family="Helvetica,sans-Serif" font-size="10.00">user_functions/Convecting</text>
<text text-anchor="middle" x="92.5" y="-62" font-family="Helvetica,sans-Serif" font-size="10.00">TaylorVortexVelocityAuxFunction.h</text>
</a>
</g>
</g>
<!-- Node1&#45;&gt;Node2 -->
<g id="edge1_Node000001_Node000002" class="edge">
<title>Node1&#45;&gt;Node2</title>
<g id="a_edge1_Node000001_Node000002"><a xlink:title=" ">
<path fill="none" stroke="#63b8ff" d="M233,-120.95C206.03,-111.37 170.13,-98.6 141.37,-88.37"/>
<polygon fill="#63b8ff" stroke="#63b8ff" points="142.5,-85.06 131.91,-85.01 140.16,-91.66 142.5,-85.06"/>
</a>
</g>
</g>
<!-- Node4 -->
<g id="Node000004" class="node">
<title>Node4</title>
<g id="a_Node000004"><a xlink:title=" ">
<polygon fill="#e0e0e0" stroke="#999999" points="218,-19 171,-19 171,0 218,0 218,-19"/>
<text text-anchor="middle" x="194.5" y="-7" font-family="Helvetica,sans-Serif" font-size="10.00">vector</text>
</a>
</g>
</g>
<!-- Node1&#45;&gt;Node4 -->
<g id="edge6_Node000001_Node000004" class="edge">
<title>Node1&#45;&gt;Node4</title>
<g id="a_edge6_Node000001_Node000004"><a xlink:title=" ">
<path fill="none" stroke="#63b8ff" d="M259.38,-120.79C250.84,-111.13 239.79,-97.82 231.5,-85 219.65,-66.67 208.9,-44.02 202.08,-28.54"/>
<polygon fill="#63b8ff" stroke="#63b8ff" points="205.18,-26.91 198.02,-19.1 198.75,-29.67 205.18,-26.91"/>
</a>
</g>
</g>
<!-- Node5 -->
<g id="Node000005" class="node">
<title>Node5</title>
<g id="a_Node000005"><a xlink:title=" ">
<polygon fill="#e0e0e0" stroke="#999999" points="304.5,-79.5 240.5,-79.5 240.5,-60.5 304.5,-60.5 304.5,-79.5"/>
<text text-anchor="middle" x="272.5" y="-67.5" font-family="Helvetica,sans-Serif" font-size="10.00">algorithm</text>
</a>
</g>
</g>
<!-- Node1&#45;&gt;Node5 -->
<g id="edge4_Node000001_Node000005" class="edge">
<title>Node1&#45;&gt;Node5</title>
<g id="a_edge4_Node000001_Node000005"><a xlink:title=" ">
<path fill="none" stroke="#63b8ff" d="M272.5,-120.8C272.5,-111.7 272.5,-99.79 272.5,-89.9"/>
<polygon fill="#63b8ff" stroke="#63b8ff" points="276,-89.84 272.5,-79.84 269,-89.84 276,-89.84"/>
</a>
</g>
</g>
<!-- Node6 -->
<g id="Node000006" class="node">
<title>Node6</title>
<g id="a_Node000006"><a xlink:title=" ">
<polygon fill="#e0e0e0" stroke="#999999" points="370,-79.5 323,-79.5 323,-60.5 370,-60.5 370,-79.5"/>
<text text-anchor="middle" x="346.5" y="-67.5" font-family="Helvetica,sans-Serif" font-size="10.00">cmath</text>
</a>
</g>
</g>
<!-- Node1&#45;&gt;Node6 -->
<g id="edge5_Node000001_Node000006" class="edge">
<title>Node1&#45;&gt;Node6</title>
<g id="a_edge5_Node000001_Node000006"><a xlink:title=" ">
<path fill="none" stroke="#63b8ff" d="M288.92,-120.8C300.69,-110.62 316.52,-96.93 328.6,-86.48"/>
<polygon fill="#63b8ff" stroke="#63b8ff" points="331,-89.03 336.27,-79.84 326.42,-83.74 331,-89.03"/>
</a>
</g>
</g>
<!-- Node7 -->
<g id="Node000007" class="node">
<title>Node7</title>
<g id="a_Node000007"><a xlink:title=" ">
<polygon fill="#e0e0e0" stroke="#999999" points="453,-79.5 388,-79.5 388,-60.5 453,-60.5 453,-79.5"/>
<text text-anchor="middle" x="420.5" y="-67.5" font-family="Helvetica,sans-Serif" font-size="10.00">stdexcept</text>
</a>
</g>
</g>
<!-- Node1&#45;&gt;Node7 -->
<g id="edge7_Node000001_Node000007" class="edge">
<title>Node1&#45;&gt;Node7</title>
<g id="a_edge7_Node000001_Node000007"><a xlink:title=" ">
<path fill="none" stroke="#63b8ff" d="M304.98,-120.95C330.82,-109.78 366.65,-94.29 391.53,-83.53"/>
<polygon fill="#63b8ff" stroke="#63b8ff" points="393.01,-86.7 400.8,-79.52 390.24,-80.27 393.01,-86.7"/>
</a>
</g>
</g>
<!-- Node3 -->
<g id="Node000003" class="node">
<title>Node3</title>
<g id="a_Node000003"><a xlink:href="_aux_function_8h.html" target="_top" xlink:title=" ">
<polygon fill="white" stroke="#666666" points="135.5,-19 49.5,-19 49.5,0 135.5,0 135.5,-19"/>
<text text-anchor="middle" x="92.5" y="-7" font-family="Helvetica,sans-Serif" font-size="10.00">AuxFunction.h</text>
</a>
</g>
</g>
<!-- Node2&#45;&gt;Node3 -->
<g id="edge2_Node000002_Node000003" class="edge">
<title>Node2&#45;&gt;Node3</title>
<g id="a_edge2_Node000002_Node000003"><a xlink:title=" ">
<path fill="none" stroke="#63b8ff" d="M92.5,-54.84C92.5,-47.21 92.5,-37.7 92.5,-29.45"/>
<polygon fill="#63b8ff" stroke="#63b8ff" points="96,-29.27 92.5,-19.27 89,-29.27 96,-29.27"/>
</a>
</g>
</g>
<!-- Node2&#45;&gt;Node4 -->
<g id="edge3_Node000002_Node000004" class="edge">
<title>Node2&#45;&gt;Node4</title>
<g id="a_edge3_Node000002_Node000004"><a xlink:title=" ">
<path fill="none" stroke="#63b8ff" d="M116.93,-54.99C133.19,-45.66 154.45,-33.47 170.6,-24.21"/>
<polygon fill="#63b8ff" stroke="#63b8ff" points="172.5,-27.15 179.44,-19.14 169.02,-21.08 172.5,-27.15"/>
</a>
</g>
</g>
</g>
</svg>
