<?xml version="1.0" encoding="UTF-8" standalone="no"?>
<!DOCTYPE svg PUBLIC "-//W3C//DTD SVG 1.1//EN"
 "http://www.w3.org/Graphics/SVG/1.1/DTD/svg11.dtd">
<!-- Generated by graphviz version 2.43.0 (0)
 -->
<!-- Title: ConductionDiagonal.h Pages: 1 -->
<svg width="332pt" height="84pt"
 viewBox="0.00 0.00 331.50 84.00" xmlns="http://www.w3.org/2000/svg" xmlns:xlink="http://www.w3.org/1999/xlink">
<g id="graph0" class="graph" transform="scale(1 1) rotate(0) translate(4 80)">
<title>ConductionDiagonal.h</title>
<polygon fill="white" stroke="transparent" points="-4,4 -4,-80 327.5,-80 327.5,4 -4,4"/>
<!-- Node1 -->
<g id="node1" class="node">
<title>Node1</title>
<g id="a_node1"><a xlink:title=" ">
<polygon fill="#bfbfbf" stroke="black" points="85.5,-56.5 85.5,-75.5 209.5,-75.5 209.5,-56.5 85.5,-56.5"/>
<text text-anchor="middle" x="147.5" y="-63.5" font-family="Helvetica,sans-Serif" font-size="10.00">ConductionDiagonal.h</text>
</a>
</g>
</g>
<!-- Node2 -->
<g id="node2" class="node">
<title>Node2</title>
<g id="a_node2"><a xlink:href="_conduction_diagonal_8_c.html" target="_top" xlink:title=" ">
<polygon fill="white" stroke="black" points="0,-0.5 0,-19.5 125,-19.5 125,-0.5 0,-0.5"/>
<text text-anchor="middle" x="62.5" y="-7.5" font-family="Helvetica,sans-Serif" font-size="10.00">ConductionDiagonal.C</text>
</a>
</g>
</g>
<!-- Node1&#45;&gt;Node2 -->
<g id="edge1" class="edge">
<title>Node1&#45;&gt;Node2</title>
<path fill="none" stroke="midnightblue" d="M125.31,-50.9C109.72,-41 89.37,-28.07 76.12,-19.65"/>
<polygon fill="midnightblue" stroke="midnightblue" points="123.53,-53.92 133.84,-56.32 127.28,-48.01 123.53,-53.92"/>
</g>
<!-- Node3 -->
<g id="node3" class="node">
<title>Node3</title>
<g id="a_node3"><a xlink:href="_conduction_jacobi_preconditioner_8_c.html" target="_top" xlink:title=" ">
<polygon fill="white" stroke="black" points="143.5,-0.5 143.5,-19.5 323.5,-19.5 323.5,-0.5 143.5,-0.5"/>
<text text-anchor="middle" x="233.5" y="-7.5" font-family="Helvetica,sans-Serif" font-size="10.00">ConductionJacobiPreconditioner.C</text>
</a>
</g>
</g>
<!-- Node1&#45;&gt;Node3 -->
<g id="edge2" class="edge">
<title>Node1&#45;&gt;Node3</title>
<path fill="none" stroke="midnightblue" d="M169.95,-50.9C185.72,-41 206.31,-28.07 219.72,-19.65"/>
<polygon fill="midnightblue" stroke="midnightblue" points="167.93,-48.04 161.32,-56.32 171.65,-53.97 167.93,-48.04"/>
</g>
</g>
</svg>
