<?xml version="1.0" encoding="UTF-8" standalone="no"?>
<!DOCTYPE svg PUBLIC "-//W3C//DTD SVG 1.1//EN"
 "http://www.w3.org/Graphics/SVG/1.1/DTD/svg11.dtd">
<!-- Generated by graphviz version 2.43.0 (0)
 -->
<!-- Title: ConductionOperator.C Pages: 1 -->
<svg width="2021pt" height="313pt"
 viewBox="0.00 0.00 2021.00 313.00" xmlns="http://www.w3.org/2000/svg" xmlns:xlink="http://www.w3.org/1999/xlink">
<g id="graph0" class="graph" transform="scale(1 1) rotate(0) translate(4 309)">
<title>ConductionOperator.C</title>
<!-- Node1 -->
<g id="Node000001" class="node">
<title>Node1</title>
<g id="a_Node000001"><a xlink:title=" ">
<polygon fill="#999999" stroke="#666666" points="571,-305 448,-305 448,-286 571,-286 571,-305"/>
<text text-anchor="middle" x="509.5" y="-293" font-family="Helvetica,sans-Serif" font-size="10.00">ConductionOperator.C</text>
</a>
</g>
</g>
<!-- Node2 -->
<g id="Node000002" class="node">
<title>Node2</title>
<g id="a_Node000002"><a xlink:href="_conduction_operator_8h.html" target="_top" xlink:title=" ">
<polygon fill="white" stroke="#666666" points="945.5,-244.5 763.5,-244.5 763.5,-225.5 945.5,-225.5 945.5,-244.5"/>
<text text-anchor="middle" x="854.5" y="-232.5" font-family="Helvetica,sans-Serif" font-size="10.00">matrix_free/ConductionOperator.h</text>
</a>
</g>
</g>
<!-- Node1&#45;&gt;Node2 -->
<g id="edge1_Node000001_Node000002" class="edge">
<title>Node1&#45;&gt;Node2</title>
<g id="a_edge1_Node000001_Node000002"><a xlink:title=" ">
<path fill="none" stroke="#63b8ff" d="M559.67,-285.99C621.88,-275.44 727.84,-257.48 794.35,-246.2"/>
<polygon fill="#63b8ff" stroke="#63b8ff" points="795,-249.64 804.27,-244.52 793.83,-242.74 795,-249.64"/>
</a>
</g>
</g>
<!-- Node3 -->
<g id="Node000003" class="node">
<title>Node3</title>
<g id="a_Node000003"><a xlink:href="_kokkos_view_types_8h.html" target="_top" xlink:title=" ">
<polygon fill="white" stroke="#666666" points="595.5,-129 423.5,-129 423.5,-110 595.5,-110 595.5,-129"/>
<text text-anchor="middle" x="509.5" y="-117" font-family="Helvetica,sans-Serif" font-size="10.00">matrix_free/KokkosViewTypes.h</text>
</a>
</g>
</g>
<!-- Node1&#45;&gt;Node3 -->
<g id="edge44_Node000001_Node000003" class="edge">
<title>Node1&#45;&gt;Node3</title>
<g id="a_edge44_Node000001_Node000003"><a xlink:title=" ">
<path fill="none" stroke="#63b8ff" d="M524.83,-285.85C558.95,-265.47 635.85,-212.53 605.5,-165 595.58,-149.47 578.7,-139.28 561.83,-132.62"/>
<polygon fill="#63b8ff" stroke="#63b8ff" points="562.54,-129.16 551.95,-129.1 560.19,-135.76 562.54,-129.16"/>
</a>
</g>
</g>
<!-- Node16 -->
<g id="Node000016" class="node">
<title>Node16</title>
<g id="a_Node000016"><a xlink:href="_polynomial_orders_8h.html" target="_top" xlink:title=" ">
<polygon fill="white" stroke="#666666" points="173,-129 0,-129 0,-110 173,-110 173,-129"/>
<text text-anchor="middle" x="86.5" y="-117" font-family="Helvetica,sans-Serif" font-size="10.00">matrix_free/PolynomialOrders.h</text>
</a>
</g>
</g>
<!-- Node1&#45;&gt;Node16 -->
<g id="edge43_Node000001_Node000016" class="edge">
<title>Node1&#45;&gt;Node16</title>
<g id="a_edge43_Node000001_Node000016"><a xlink:title=" ">
<path fill="none" stroke="#63b8ff" d="M447.6,-289.01C334.37,-277.51 101.22,-246.63 54.5,-184 43.39,-169.11 56.4,-149.79 69.01,-136.39"/>
<polygon fill="#63b8ff" stroke="#63b8ff" points="71.56,-138.78 76.2,-129.26 66.63,-133.81 71.56,-138.78"/>
</a>
</g>
</g>
<!-- Node25 -->
<g id="Node000025" class="node">
<title>Node25</title>
<g id="a_Node000025"><a xlink:href="_conduction_interior_8h.html" target="_top" xlink:title=" ">
<polygon fill="white" stroke="#666666" points="597,-184 422,-184 422,-165 597,-165 597,-184"/>
<text text-anchor="middle" x="509.5" y="-172" font-family="Helvetica,sans-Serif" font-size="10.00">matrix_free/ConductionInterior.h</text>
</a>
</g>
</g>
<!-- Node1&#45;&gt;Node25 -->
<g id="edge26_Node000001_Node000025" class="edge">
<title>Node1&#45;&gt;Node25</title>
<g id="a_edge26_Node000001_Node000025"><a xlink:title=" ">
<path fill="none" stroke="#63b8ff" d="M509.5,-285.94C509.5,-266.91 509.5,-220.69 509.5,-194.47"/>
<polygon fill="#63b8ff" stroke="#63b8ff" points="513,-194.3 509.5,-184.3 506,-194.3 513,-194.3"/>
</a>
</g>
</g>
<!-- Node28 -->
<g id="Node000028" class="node">
<title>Node28</title>
<g id="a_Node000028"><a xlink:href="_strong_dirichlet_b_c_8h.html" target="_top" xlink:title=" ">
<polygon fill="white" stroke="#666666" points="403.5,-184 231.5,-184 231.5,-165 403.5,-165 403.5,-184"/>
<text text-anchor="middle" x="317.5" y="-172" font-family="Helvetica,sans-Serif" font-size="10.00">matrix_free/StrongDirichletBC.h</text>
</a>
</g>
</g>
<!-- Node1&#45;&gt;Node28 -->
<g id="edge34_Node000001_Node000028" class="edge">
<title>Node1&#45;&gt;Node28</title>
<g id="a_edge34_Node000001_Node000028"><a xlink:title=" ">
<path fill="none" stroke="#63b8ff" d="M495.69,-285.94C462.91,-265.62 380.13,-214.31 340,-189.44"/>
<polygon fill="#63b8ff" stroke="#63b8ff" points="341.78,-186.43 331.44,-184.14 338.1,-192.38 341.78,-186.43"/>
</a>
</g>
</g>
<!-- Node29 -->
<g id="Node000029" class="node">
<title>Node29</title>
<g id="a_Node000029"><a xlink:href="_scalar_flux_b_c_8h.html" target="_top" xlink:title=" ">
<polygon fill="white" stroke="#666666" points="213.5,-184 63.5,-184 63.5,-165 213.5,-165 213.5,-184"/>
<text text-anchor="middle" x="138.5" y="-172" font-family="Helvetica,sans-Serif" font-size="10.00">matrix_free/ScalarFluxBC.h</text>
</a>
</g>
</g>
<!-- Node1&#45;&gt;Node29 -->
<g id="edge38_Node000001_Node000029" class="edge">
<title>Node1&#45;&gt;Node29</title>
<g id="a_edge38_Node000001_Node000029"><a xlink:title=" ">
<path fill="none" stroke="#63b8ff" d="M482.82,-285.94C417.52,-265 249.59,-211.13 175.06,-187.23"/>
<polygon fill="#63b8ff" stroke="#63b8ff" points="175.78,-183.78 165.19,-184.06 173.64,-190.45 175.78,-183.78"/>
</a>
</g>
</g>
<!-- Node30 -->
<g id="Node000030" class="node">
<title>Node30</title>
<g id="a_Node000030"><a xlink:title=" ">
<polygon fill="#e0e0e0" stroke="#999999" points="1115.5,-250 963.5,-250 963.5,-220 1115.5,-220 1115.5,-250"/>
<text text-anchor="start" x="971.5" y="-238" font-family="Helvetica,sans-Serif" font-size="10.00">stk_mesh/base/NgpProfiling</text>
<text text-anchor="middle" x="1039.5" y="-227" font-family="Helvetica,sans-Serif" font-size="10.00">Block.hpp</text>
</a>
</g>
</g>
<!-- Node1&#45;&gt;Node30 -->
<g id="edge45_Node000001_Node000030" class="edge">
<title>Node1&#45;&gt;Node30</title>
<g id="a_edge45_Node000001_Node000030"><a xlink:title=" ">
<path fill="none" stroke="#63b8ff" d="M571.19,-289.58C655.21,-282.6 810.57,-268.71 952.86,-250.17"/>
<polygon fill="#63b8ff" stroke="#63b8ff" points="953.62,-253.6 963.08,-248.82 952.71,-246.66 953.62,-253.6"/>
</a>
</g>
</g>
<!-- Node2&#45;&gt;Node3 -->
<g id="edge2_Node000002_Node000003" class="edge">
<title>Node2&#45;&gt;Node3</title>
<g id="a_edge2_Node000002_Node000003"><a xlink:title=" ">
<path fill="none" stroke="#63b8ff" d="M852.35,-225.08C848.22,-209.99 837.64,-179.64 816.5,-165 799.24,-153.05 689.13,-139.15 605.67,-130.11"/>
<polygon fill="#63b8ff" stroke="#63b8ff" points="605.95,-126.62 595.63,-129.03 605.2,-133.58 605.95,-126.62"/>
</a>
</g>
</g>
<!-- Node9 -->
<g id="Node000009" class="node">
<title>Node9</title>
<g id="a_Node000009"><a xlink:title=" ">
<polygon fill="#e0e0e0" stroke="#999999" points="715.5,-129 613.5,-129 613.5,-110 715.5,-110 715.5,-129"/>
<text text-anchor="middle" x="664.5" y="-117" font-family="Helvetica,sans-Serif" font-size="10.00">Kokkos_Array.hpp</text>
</a>
</g>
</g>
<!-- Node2&#45;&gt;Node9 -->
<g id="edge8_Node000002_Node000009" class="edge">
<title>Node2&#45;&gt;Node9</title>
<g id="a_edge8_Node000002_Node000009"><a xlink:title=" ">
<path fill="none" stroke="#63b8ff" d="M856.82,-225.17C860.04,-210.74 863.95,-182.04 849.5,-165 841.14,-155.14 773.81,-140.7 722.77,-130.96"/>
<polygon fill="#63b8ff" stroke="#63b8ff" points="723.27,-127.5 712.8,-129.08 721.98,-134.38 723.27,-127.5"/>
</a>
</g>
</g>
<!-- Node10 -->
<g id="Node000010" class="node">
<title>Node10</title>
<g id="a_Node000010"><a xlink:title=" ">
<polygon fill="#e0e0e0" stroke="#999999" points="1228.5,-184 1088.5,-184 1088.5,-165 1228.5,-165 1228.5,-184"/>
<text text-anchor="middle" x="1158.5" y="-172" font-family="Helvetica,sans-Serif" font-size="10.00">Teuchos_BLAS_types.hpp</text>
</a>
</g>
</g>
<!-- Node2&#45;&gt;Node10 -->
<g id="edge9_Node000002_Node000010" class="edge">
<title>Node2&#45;&gt;Node10</title>
<g id="a_edge9_Node000002_Node000010"><a xlink:title=" ">
<path fill="none" stroke="#63b8ff" d="M898.7,-225.49C953.19,-215.01 1045.74,-197.2 1104.41,-185.91"/>
<polygon fill="#63b8ff" stroke="#63b8ff" points="1105.08,-189.34 1114.24,-184.02 1103.76,-182.47 1105.08,-189.34"/>
</a>
</g>
</g>
<!-- Node11 -->
<g id="Node000011" class="node">
<title>Node11</title>
<g id="a_Node000011"><a xlink:title=" ">
<polygon fill="#e0e0e0" stroke="#999999" points="1346.5,-184 1246.5,-184 1246.5,-165 1346.5,-165 1346.5,-184"/>
<text text-anchor="middle" x="1296.5" y="-172" font-family="Helvetica,sans-Serif" font-size="10.00">Teuchos_RCP.hpp</text>
</a>
</g>
</g>
<!-- Node2&#45;&gt;Node11 -->
<g id="edge10_Node000002_Node000011" class="edge">
<title>Node2&#45;&gt;Node11</title>
<g id="a_edge10_Node000002_Node000011"><a xlink:title=" ">
<path fill="none" stroke="#63b8ff" d="M914.5,-225.47C927.68,-223.64 941.55,-221.73 954.5,-220 1076.98,-203.64 1110.19,-201.16 1236.25,-184.15"/>
<polygon fill="#63b8ff" stroke="#63b8ff" points="1236.86,-187.6 1246.3,-182.79 1235.92,-180.66 1236.86,-187.6"/>
</a>
</g>
</g>
<!-- Node12 -->
<g id="Node000012" class="node">
<title>Node12</title>
<g id="a_Node000012"><a xlink:title=" ">
<polygon fill="#e0e0e0" stroke="#999999" points="1470.5,-184 1364.5,-184 1364.5,-165 1470.5,-165 1470.5,-184"/>
<text text-anchor="middle" x="1417.5" y="-172" font-family="Helvetica,sans-Serif" font-size="10.00">Tpetra_Export.hpp</text>
</a>
</g>
</g>
<!-- Node2&#45;&gt;Node12 -->
<g id="edge11_Node000002_Node000012" class="edge">
<title>Node2&#45;&gt;Node12</title>
<g id="a_edge11_Node000002_Node000012"><a xlink:title=" ">
<path fill="none" stroke="#63b8ff" d="M911.81,-225.48C925.76,-223.54 940.65,-221.59 954.5,-220 1129.06,-199.96 1176.02,-204 1354.44,-184.07"/>
<polygon fill="#63b8ff" stroke="#63b8ff" points="1354.88,-187.54 1364.42,-182.94 1354.09,-180.58 1354.88,-187.54"/>
</a>
</g>
</g>
<!-- Node13 -->
<g id="Node000013" class="node">
<title>Node13</title>
<g id="a_Node000013"><a xlink:title=" ">
<polygon fill="#e0e0e0" stroke="#999999" points="405,-129 276,-129 276,-110 405,-110 405,-129"/>
<text text-anchor="middle" x="340.5" y="-117" font-family="Helvetica,sans-Serif" font-size="10.00">Tpetra_MultiVector.hpp</text>
</a>
</g>
</g>
<!-- Node2&#45;&gt;Node13 -->
<g id="edge12_Node000002_Node000013" class="edge">
<title>Node2&#45;&gt;Node13</title>
<g id="a_edge12_Node000002_Node000013"><a xlink:title=" ">
<path fill="none" stroke="#63b8ff" d="M825.23,-225.48C769.07,-209.19 647.98,-174.43 605.5,-165 540.68,-150.62 466.02,-138.47 412.51,-130.52"/>
<polygon fill="#63b8ff" stroke="#63b8ff" points="412.83,-127.03 402.43,-129.04 411.81,-133.96 412.83,-127.03"/>
</a>
</g>
</g>
<!-- Node14 -->
<g id="Node000014" class="node">
<title>Node14</title>
<g id="a_Node000014"><a xlink:title=" ">
<polygon fill="#e0e0e0" stroke="#999999" points="807.5,-184 691.5,-184 691.5,-165 807.5,-165 807.5,-184"/>
<text text-anchor="middle" x="749.5" y="-172" font-family="Helvetica,sans-Serif" font-size="10.00">Tpetra_Operator.hpp</text>
</a>
</g>
</g>
<!-- Node2&#45;&gt;Node14 -->
<g id="edge13_Node000002_Node000014" class="edge">
<title>Node2&#45;&gt;Node14</title>
<g id="a_edge13_Node000002_Node000014"><a xlink:title=" ">
<path fill="none" stroke="#63b8ff" d="M839.01,-225.37C821.87,-215.82 794.03,-200.31 773.94,-189.12"/>
<polygon fill="#63b8ff" stroke="#63b8ff" points="775.5,-185.98 765.06,-184.17 772.09,-192.09 775.5,-185.98"/>
</a>
</g>
</g>
<!-- Node15 -->
<g id="Node000015" class="node">
<title>Node15</title>
<g id="a_Node000015"><a xlink:href="_conduction_fields_8h.html" target="_top" xlink:title=" ">
<polygon fill="white" stroke="#666666" points="1070,-184 901,-184 901,-165 1070,-165 1070,-184"/>
<text text-anchor="middle" x="985.5" y="-172" font-family="Helvetica,sans-Serif" font-size="10.00">matrix_free/ConductionFields.h</text>
</a>
</g>
</g>
<!-- Node2&#45;&gt;Node15 -->
<g id="edge14_Node000002_Node000015" class="edge">
<title>Node2&#45;&gt;Node15</title>
<g id="a_edge14_Node000002_Node000015"><a xlink:title=" ">
<path fill="none" stroke="#63b8ff" d="M873.55,-225.49C895.47,-215.7 931.71,-199.52 957,-188.23"/>
<polygon fill="#63b8ff" stroke="#63b8ff" points="958.72,-191.29 966.43,-184.02 955.87,-184.9 958.72,-191.29"/>
</a>
</g>
</g>
<!-- Node4 -->
<g id="Node000004" class="node">
<title>Node4</title>
<g id="a_Node000004"><a xlink:href="_kokkos_framework_8h.html" target="_top" xlink:title=" ">
<polygon fill="white" stroke="#666666" points="635,-74 460,-74 460,-55 635,-55 635,-74"/>
<text text-anchor="middle" x="547.5" y="-62" font-family="Helvetica,sans-Serif" font-size="10.00">matrix_free/KokkosFramework.h</text>
</a>
</g>
</g>
<!-- Node3&#45;&gt;Node4 -->
<g id="edge3_Node000003_Node000004" class="edge">
<title>Node3&#45;&gt;Node4</title>
<g id="a_edge3_Node000003_Node000004"><a xlink:title=" ">
<path fill="none" stroke="#63b8ff" d="M515.77,-109.75C521.09,-102.34 528.86,-91.5 535.38,-82.41"/>
<polygon fill="#63b8ff" stroke="#63b8ff" points="538.36,-84.26 541.34,-74.09 532.67,-80.18 538.36,-84.26"/>
</a>
</g>
</g>
<!-- Node8 -->
<g id="Node000008" class="node">
<title>Node8</title>
<g id="a_Node000008"><a xlink:title=" ">
<polygon fill="#e0e0e0" stroke="#999999" points="441.5,-74 299.5,-74 299.5,-55 441.5,-55 441.5,-74"/>
<text text-anchor="middle" x="370.5" y="-62" font-family="Helvetica,sans-Serif" font-size="10.00">stk_mesh/base/Types.hpp</text>
</a>
</g>
</g>
<!-- Node3&#45;&gt;Node8 -->
<g id="edge7_Node000003_Node000008" class="edge">
<title>Node3&#45;&gt;Node8</title>
<g id="a_edge7_Node000003_Node000008"><a xlink:title=" ">
<path fill="none" stroke="#63b8ff" d="M487.17,-109.98C464.3,-101.27 428.54,-87.63 402.64,-77.75"/>
<polygon fill="#63b8ff" stroke="#63b8ff" points="403.83,-74.46 393.24,-74.17 401.34,-81 403.83,-74.46"/>
</a>
</g>
</g>
<!-- Node5 -->
<g id="Node000005" class="node">
<title>Node5</title>
<g id="a_Node000005"><a xlink:title=" ">
<polygon fill="#e0e0e0" stroke="#999999" points="658.5,-19 558.5,-19 558.5,0 658.5,0 658.5,-19"/>
<text text-anchor="middle" x="608.5" y="-7" font-family="Helvetica,sans-Serif" font-size="10.00">Kokkos_Core.hpp</text>
</a>
</g>
</g>
<!-- Node4&#45;&gt;Node5 -->
<g id="edge4_Node000004_Node000005" class="edge">
<title>Node4&#45;&gt;Node5</title>
<g id="a_edge4_Node000004_Node000005"><a xlink:title=" ">
<path fill="none" stroke="#63b8ff" d="M557.3,-54.98C566.32,-47.15 579.91,-35.34 590.82,-25.86"/>
<polygon fill="#63b8ff" stroke="#63b8ff" points="593.27,-28.37 598.52,-19.17 588.68,-23.09 593.27,-28.37"/>
</a>
</g>
</g>
<!-- Node6 -->
<g id="Node000006" class="node">
<title>Node6</title>
<g id="a_Node000006"><a xlink:title=" ">
<polygon fill="#e0e0e0" stroke="#999999" points="540.5,-19 430.5,-19 430.5,0 540.5,0 540.5,-19"/>
<text text-anchor="middle" x="485.5" y="-7" font-family="Helvetica,sans-Serif" font-size="10.00">stk_simd/Simd.hpp</text>
</a>
</g>
</g>
<!-- Node4&#45;&gt;Node6 -->
<g id="edge5_Node000004_Node000006" class="edge">
<title>Node4&#45;&gt;Node6</title>
<g id="a_edge5_Node000004_Node000006"><a xlink:title=" ">
<path fill="none" stroke="#63b8ff" d="M537.54,-54.98C528.37,-47.15 514.56,-35.34 503.47,-25.86"/>
<polygon fill="#63b8ff" stroke="#63b8ff" points="505.52,-23.01 495.64,-19.17 500.97,-28.33 505.52,-23.01"/>
</a>
</g>
</g>
<!-- Node7 -->
<g id="Node000007" class="node">
<title>Node7</title>
<g id="a_Node000007"><a xlink:title=" ">
<polygon fill="#e0e0e0" stroke="#999999" points="174,-19 105,-19 105,0 174,0 174,-19"/>
<text text-anchor="middle" x="139.5" y="-7" font-family="Helvetica,sans-Serif" font-size="10.00">type_traits</text>
</a>
</g>
</g>
<!-- Node4&#45;&gt;Node7 -->
<g id="edge6_Node000004_Node000007" class="edge">
<title>Node4&#45;&gt;Node7</title>
<g id="a_edge6_Node000004_Node000007"><a xlink:title=" ">
<path fill="none" stroke="#63b8ff" d="M481.95,-54.98C398.43,-44.14 256.29,-25.67 184.23,-16.31"/>
<polygon fill="#63b8ff" stroke="#63b8ff" points="184.49,-12.82 174.12,-15 183.59,-19.76 184.49,-12.82"/>
</a>
</g>
</g>
<!-- Node15&#45;&gt;Node3 -->
<g id="edge15_Node000015_Node000003" class="edge">
<title>Node15&#45;&gt;Node3</title>
<g id="a_edge15_Node000015_Node000003"><a xlink:title=" ">
<path fill="none" stroke="#63b8ff" d="M909.02,-164.98C823.62,-155.48 685.67,-140.12 596.29,-130.16"/>
<polygon fill="#63b8ff" stroke="#63b8ff" points="596.51,-126.67 586.18,-129.04 595.73,-133.62 596.51,-126.67"/>
</a>
</g>
</g>
<!-- Node15&#45;&gt;Node16 -->
<g id="edge16_Node000015_Node000016" class="edge">
<title>Node15&#45;&gt;Node16</title>
<g id="a_edge16_Node000015_Node000016"><a xlink:title=" ">
<path fill="none" stroke="#63b8ff" d="M900.98,-169.19C727.96,-160.3 337.42,-139.92 183.45,-129.11"/>
<polygon fill="#63b8ff" stroke="#63b8ff" points="183.44,-125.6 173.21,-128.38 182.94,-132.58 183.44,-125.6"/>
</a>
</g>
</g>
<!-- Node17 -->
<g id="Node000017" class="node">
<title>Node17</title>
<g id="a_Node000017"><a xlink:title=" ">
<polygon fill="#e0e0e0" stroke="#999999" points="973.5,-129 799.5,-129 799.5,-110 973.5,-110 973.5,-129"/>
<text text-anchor="middle" x="886.5" y="-117" font-family="Helvetica,sans-Serif" font-size="10.00">stk_mesh/base/GetNgpField.hpp</text>
</a>
</g>
</g>
<!-- Node15&#45;&gt;Node17 -->
<g id="edge18_Node000015_Node000017" class="edge">
<title>Node15&#45;&gt;Node17</title>
<g id="a_edge18_Node000015_Node000017"><a xlink:title=" ">
<path fill="none" stroke="#63b8ff" d="M969.59,-164.98C953.95,-156.61 929.84,-143.7 911.62,-133.95"/>
<polygon fill="#63b8ff" stroke="#63b8ff" points="913.16,-130.8 902.7,-129.17 909.86,-136.98 913.16,-130.8"/>
</a>
</g>
</g>
<!-- Node18 -->
<g id="Node000018" class="node">
<title>Node18</title>
<g id="a_Node000018"><a xlink:title=" ">
<polygon fill="#e0e0e0" stroke="#999999" points="1153,-129 992,-129 992,-110 1153,-110 1153,-129"/>
<text text-anchor="middle" x="1072.5" y="-117" font-family="Helvetica,sans-Serif" font-size="10.00">stk_mesh/base/FieldBase.hpp</text>
</a>
</g>
</g>
<!-- Node15&#45;&gt;Node18 -->
<g id="edge19_Node000015_Node000018" class="edge">
<title>Node15&#45;&gt;Node18</title>
<g id="a_edge19_Node000015_Node000018"><a xlink:title=" ">
<path fill="none" stroke="#63b8ff" d="M999.48,-164.98C1012.97,-156.77 1033.63,-144.18 1049.54,-134.49"/>
<polygon fill="#63b8ff" stroke="#63b8ff" points="1051.55,-137.36 1058.27,-129.17 1047.91,-131.38 1051.55,-137.36"/>
</a>
</g>
</g>
<!-- Node19 -->
<g id="Node000019" class="node">
<title>Node19</title>
<g id="a_Node000019"><a xlink:title=" ">
<polygon fill="#e0e0e0" stroke="#999999" points="1334,-129 1171,-129 1171,-110 1334,-110 1334,-129"/>
<text text-anchor="middle" x="1252.5" y="-117" font-family="Helvetica,sans-Serif" font-size="10.00">stk_mesh/base/FieldState.hpp</text>
</a>
</g>
</g>
<!-- Node15&#45;&gt;Node19 -->
<g id="edge20_Node000015_Node000019" class="edge">
<title>Node15&#45;&gt;Node19</title>
<g id="a_edge20_Node000015_Node000019"><a xlink:title=" ">
<path fill="none" stroke="#63b8ff" d="M1028.4,-164.98C1074.87,-155.76 1149.09,-141.03 1199.26,-131.07"/>
<polygon fill="#63b8ff" stroke="#63b8ff" points="1200.14,-134.46 1209.27,-129.08 1198.78,-127.6 1200.14,-134.46"/>
</a>
</g>
</g>
<!-- Node20 -->
<g id="Node000020" class="node">
<title>Node20</title>
<g id="a_Node000020"><a xlink:title=" ">
<polygon fill="#e0e0e0" stroke="#999999" points="1514.5,-129 1352.5,-129 1352.5,-110 1514.5,-110 1514.5,-129"/>
<text text-anchor="middle" x="1433.5" y="-117" font-family="Helvetica,sans-Serif" font-size="10.00">stk_mesh/base/MetaData.hpp</text>
</a>
</g>
</g>
<!-- Node15&#45;&gt;Node20 -->
<g id="edge21_Node000015_Node000020" class="edge">
<title>Node15&#45;&gt;Node20</title>
<g id="a_edge21_Node000015_Node000020"><a xlink:title=" ">
<path fill="none" stroke="#63b8ff" d="M1057.48,-164.98C1137.7,-155.49 1267.16,-140.18 1351.3,-130.22"/>
<polygon fill="#63b8ff" stroke="#63b8ff" points="1351.81,-133.69 1361.33,-129.04 1350.99,-126.74 1351.81,-133.69"/>
</a>
</g>
</g>
<!-- Node21 -->
<g id="Node000021" class="node">
<title>Node21</title>
<g id="a_Node000021"><a xlink:title=" ">
<polygon fill="#e0e0e0" stroke="#999999" points="1666.5,-129 1532.5,-129 1532.5,-110 1666.5,-110 1666.5,-129"/>
<text text-anchor="middle" x="1599.5" y="-117" font-family="Helvetica,sans-Serif" font-size="10.00">stk_mesh/base/Ngp.hpp</text>
</a>
</g>
</g>
<!-- Node15&#45;&gt;Node21 -->
<g id="edge22_Node000015_Node000021" class="edge">
<title>Node15&#45;&gt;Node21</title>
<g id="a_edge22_Node000015_Node000021"><a xlink:title=" ">
<path fill="none" stroke="#63b8ff" d="M1070.05,-165.82C1073.24,-165.54 1076.4,-165.27 1079.5,-165 1273.48,-148.37 1324.74,-148.01 1522.25,-129.09"/>
<polygon fill="#63b8ff" stroke="#63b8ff" points="1522.76,-132.56 1532.37,-128.12 1522.09,-125.59 1522.76,-132.56"/>
</a>
</g>
</g>
<!-- Node22 -->
<g id="Node000022" class="node">
<title>Node22</title>
<g id="a_Node000022"><a xlink:title=" ">
<polygon fill="#e0e0e0" stroke="#999999" points="1830,-129 1685,-129 1685,-110 1830,-110 1830,-129"/>
<text text-anchor="middle" x="1757.5" y="-117" font-family="Helvetica,sans-Serif" font-size="10.00">stk_topology/topology.hpp</text>
</a>
</g>
</g>
<!-- Node15&#45;&gt;Node22 -->
<g id="edge23_Node000015_Node000022" class="edge">
<title>Node15&#45;&gt;Node22</title>
<g id="a_edge23_Node000015_Node000022"><a xlink:title=" ">
<path fill="none" stroke="#63b8ff" d="M1070.04,-165.74C1073.23,-165.48 1076.4,-165.23 1079.5,-165 1340.76,-145.3 1409.29,-150.55 1674.32,-129.06"/>
<polygon fill="#63b8ff" stroke="#63b8ff" points="1674.96,-132.52 1684.64,-128.22 1674.39,-125.54 1674.96,-132.52"/>
</a>
</g>
</g>
<!-- Node23 -->
<g id="Node000023" class="node">
<title>Node23</title>
<g id="a_Node000023"><a xlink:title=" ">
<polygon fill="#e0e0e0" stroke="#999999" points="2013,-129 1848,-129 1848,-110 2013,-110 2013,-129"/>
<text text-anchor="middle" x="1930.5" y="-117" font-family="Helvetica,sans-Serif" font-size="10.00">stk_util/util/ReportHandler.hpp</text>
</a>
</g>
</g>
<!-- Node15&#45;&gt;Node23 -->
<g id="edge24_Node000015_Node000023" class="edge">
<title>Node15&#45;&gt;Node23</title>
<g id="a_edge24_Node000015_Node000023"><a xlink:title=" ">
<path fill="none" stroke="#63b8ff" d="M1070.04,-165.68C1073.23,-165.44 1076.39,-165.21 1079.5,-165 1413.56,-141.99 1500.49,-152.52 1837.64,-129.1"/>
<polygon fill="#63b8ff" stroke="#63b8ff" points="1837.96,-132.59 1847.69,-128.4 1837.47,-125.6 1837.96,-132.59"/>
</a>
</g>
</g>
<!-- Node24 -->
<g id="Node000024" class="node">
<title>Node24</title>
<g id="a_Node000024"><a xlink:title=" ">
<polygon fill="#e0e0e0" stroke="#999999" points="781.5,-129 733.5,-129 733.5,-110 781.5,-110 781.5,-129"/>
<text text-anchor="middle" x="757.5" y="-117" font-family="Helvetica,sans-Serif" font-size="10.00">iosfwd</text>
</a>
</g>
</g>
<!-- Node15&#45;&gt;Node24 -->
<g id="edge25_Node000015_Node000024" class="edge">
<title>Node15&#45;&gt;Node24</title>
<g id="a_edge25_Node000015_Node000024"><a xlink:title=" ">
<path fill="none" stroke="#63b8ff" d="M946.58,-164.95C909.24,-156.68 851.04,-143.58 791.57,-129.21"/>
<polygon fill="#63b8ff" stroke="#63b8ff" points="792.17,-125.75 781.63,-126.8 790.52,-132.56 792.17,-125.75"/>
</a>
</g>
</g>
<!-- Node16&#45;&gt;Node7 -->
<g id="edge17_Node000016_Node000007" class="edge">
<title>Node16&#45;&gt;Node7</title>
<g id="a_edge17_Node000016_Node000007"><a xlink:title=" ">
<path fill="none" stroke="#63b8ff" d="M90.84,-109.66C99.54,-91.93 119.27,-51.73 130.76,-28.32"/>
<polygon fill="#63b8ff" stroke="#63b8ff" points="133.99,-29.68 135.25,-19.16 127.7,-26.59 133.99,-29.68"/>
</a>
</g>
</g>
<!-- Node25&#45;&gt;Node3 -->
<g id="edge28_Node000025_Node000003" class="edge">
<title>Node25&#45;&gt;Node3</title>
<g id="a_edge28_Node000025_Node000003"><a xlink:title=" ">
<path fill="none" stroke="#63b8ff" d="M509.5,-164.75C509.5,-157.8 509.5,-147.85 509.5,-139.13"/>
<polygon fill="#63b8ff" stroke="#63b8ff" points="513,-139.09 509.5,-129.09 506,-139.09 513,-139.09"/>
</a>
</g>
</g>
<!-- Node25&#45;&gt;Node9 -->
<g id="edge32_Node000025_Node000009" class="edge">
<title>Node25&#45;&gt;Node9</title>
<g id="a_edge32_Node000025_Node000009"><a xlink:title=" ">
<path fill="none" stroke="#63b8ff" d="M534.4,-164.98C560.2,-156.16 600.72,-142.31 629.68,-132.41"/>
<polygon fill="#63b8ff" stroke="#63b8ff" points="631.07,-135.63 639.4,-129.08 628.81,-129.01 631.07,-135.63"/>
</a>
</g>
</g>
<!-- Node25&#45;&gt;Node13 -->
<g id="edge33_Node000025_Node000013" class="edge">
<title>Node25&#45;&gt;Node13</title>
<g id="a_edge33_Node000025_Node000013"><a xlink:title=" ">
<path fill="none" stroke="#63b8ff" d="M482.35,-164.98C453.97,-156.09 409.27,-142.07 377.64,-132.15"/>
<polygon fill="#63b8ff" stroke="#63b8ff" points="378.45,-128.73 367.87,-129.08 376.36,-135.41 378.45,-128.73"/>
</a>
</g>
</g>
<!-- Node25&#45;&gt;Node16 -->
<g id="edge27_Node000025_Node000016" class="edge">
<title>Node25&#45;&gt;Node16</title>
<g id="a_edge27_Node000025_Node000016"><a xlink:title=" ">
<path fill="none" stroke="#63b8ff" d="M441.54,-164.98C365.95,-155.51 244.05,-140.24 164.6,-130.29"/>
<polygon fill="#63b8ff" stroke="#63b8ff" points="165,-126.81 154.64,-129.04 164.13,-133.75 165,-126.81"/>
</a>
</g>
</g>
<!-- Node26 -->
<g id="Node000026" class="node">
<title>Node26</title>
<g id="a_Node000026"><a xlink:href="_array_n_d_8h.html" target="_top" xlink:title=" ">
<polygon fill="white" stroke="#666666" points="258,-129 191,-129 191,-110 258,-110 258,-129"/>
<text text-anchor="middle" x="224.5" y="-117" font-family="Helvetica,sans-Serif" font-size="10.00">ArrayND.h</text>
</a>
</g>
</g>
<!-- Node25&#45;&gt;Node26 -->
<g id="edge29_Node000025_Node000026" class="edge">
<title>Node25&#45;&gt;Node26</title>
<g id="a_edge29_Node000025_Node000026"><a xlink:title=" ">
<path fill="none" stroke="#63b8ff" d="M461.5,-164.98C414.65,-156.61 341.07,-143.29 268.63,-129.39"/>
<polygon fill="#63b8ff" stroke="#63b8ff" points="268.9,-125.87 258.42,-127.42 267.57,-132.75 268.9,-125.87"/>
</a>
</g>
</g>
<!-- Node26&#45;&gt;Node7 -->
<g id="edge31_Node000026_Node000007" class="edge">
<title>Node26&#45;&gt;Node7</title>
<g id="a_edge31_Node000026_Node000007"><a xlink:title=" ">
<path fill="none" stroke="#63b8ff" d="M205.04,-109.92C190.24,-102.44 170.45,-90.25 158.5,-74 148.81,-60.82 144.02,-42.69 141.68,-29.18"/>
<polygon fill="#63b8ff" stroke="#63b8ff" points="145.12,-28.52 140.23,-19.12 138.19,-29.52 145.12,-28.52"/>
</a>
</g>
</g>
<!-- Node27 -->
<g id="Node000027" class="node">
<title>Node27</title>
<g id="a_Node000027"><a xlink:title=" ">
<polygon fill="#e0e0e0" stroke="#999999" points="281,-74 168,-74 168,-55 281,-55 281,-74"/>
<text text-anchor="middle" x="224.5" y="-62" font-family="Helvetica,sans-Serif" font-size="10.00">Kokkos_Macros.hpp</text>
</a>
</g>
</g>
<!-- Node26&#45;&gt;Node27 -->
<g id="edge30_Node000026_Node000027" class="edge">
<title>Node26&#45;&gt;Node27</title>
<g id="a_edge30_Node000026_Node000027"><a xlink:title=" ">
<path fill="none" stroke="#63b8ff" d="M224.5,-109.75C224.5,-102.8 224.5,-92.85 224.5,-84.13"/>
<polygon fill="#63b8ff" stroke="#63b8ff" points="228,-84.09 224.5,-74.09 221,-84.09 228,-84.09"/>
</a>
</g>
</g>
<!-- Node28&#45;&gt;Node3 -->
<g id="edge36_Node000028_Node000003" class="edge">
<title>Node28&#45;&gt;Node3</title>
<g id="a_edge36_Node000028_Node000003"><a xlink:title=" ">
<path fill="none" stroke="#63b8ff" d="M348.35,-164.98C381,-155.97 432.7,-141.7 468.7,-131.76"/>
<polygon fill="#63b8ff" stroke="#63b8ff" points="469.7,-135.12 478.41,-129.08 467.84,-128.37 469.7,-135.12"/>
</a>
</g>
</g>
<!-- Node28&#45;&gt;Node13 -->
<g id="edge35_Node000028_Node000013" class="edge">
<title>Node28&#45;&gt;Node13</title>
<g id="a_edge35_Node000028_Node000013"><a xlink:title=" ">
<path fill="none" stroke="#63b8ff" d="M321.3,-164.75C324.41,-157.57 328.92,-147.18 332.79,-138.27"/>
<polygon fill="#63b8ff" stroke="#63b8ff" points="336,-139.66 336.77,-129.09 329.58,-136.87 336,-139.66"/>
</a>
</g>
</g>
<!-- Node28&#45;&gt;Node26 -->
<g id="edge37_Node000028_Node000026" class="edge">
<title>Node28&#45;&gt;Node26</title>
<g id="a_edge37_Node000028_Node000026"><a xlink:title=" ">
<path fill="none" stroke="#63b8ff" d="M302.56,-164.98C288,-156.69 265.63,-143.94 248.57,-134.22"/>
<polygon fill="#63b8ff" stroke="#63b8ff" points="250.14,-131.08 239.71,-129.17 246.67,-137.16 250.14,-131.08"/>
</a>
</g>
</g>
<!-- Node29&#45;&gt;Node3 -->
<g id="edge41_Node000029_Node000003" class="edge">
<title>Node29&#45;&gt;Node3</title>
<g id="a_edge41_Node000029_Node000003"><a xlink:title=" ">
<path fill="none" stroke="#63b8ff" d="M198.11,-164.98C264,-155.57 370.01,-140.43 439.72,-130.47"/>
<polygon fill="#63b8ff" stroke="#63b8ff" points="440.33,-133.92 449.73,-129.04 439.34,-126.99 440.33,-133.92"/>
</a>
</g>
</g>
<!-- Node29&#45;&gt;Node13 -->
<g id="edge39_Node000029_Node000013" class="edge">
<title>Node29&#45;&gt;Node13</title>
<g id="a_edge39_Node000029_Node000013"><a xlink:title=" ">
<path fill="none" stroke="#63b8ff" d="M170.95,-164.98C205.46,-155.93 260.16,-141.58 298.06,-131.64"/>
<polygon fill="#63b8ff" stroke="#63b8ff" points="299.01,-135.01 307.79,-129.08 297.23,-128.23 299.01,-135.01"/>
</a>
</g>
</g>
<!-- Node29&#45;&gt;Node16 -->
<g id="edge40_Node000029_Node000016" class="edge">
<title>Node29&#45;&gt;Node16</title>
<g id="a_edge40_Node000029_Node000016"><a xlink:title=" ">
<path fill="none" stroke="#63b8ff" d="M129.91,-164.75C122.34,-157.03 111.12,-145.6 101.99,-136.28"/>
<polygon fill="#63b8ff" stroke="#63b8ff" points="104.43,-133.78 94.93,-129.09 99.43,-138.68 104.43,-133.78"/>
</a>
</g>
</g>
<!-- Node29&#45;&gt;Node26 -->
<g id="edge42_Node000029_Node000026" class="edge">
<title>Node29&#45;&gt;Node26</title>
<g id="a_edge42_Node000029_Node000026"><a xlink:title=" ">
<path fill="none" stroke="#63b8ff" d="M152.32,-164.98C165.65,-156.77 186.08,-144.18 201.81,-134.49"/>
<polygon fill="#63b8ff" stroke="#63b8ff" points="203.75,-137.4 210.43,-129.17 200.08,-131.44 203.75,-137.4"/>
</a>
</g>
</g>
</g>
</svg>
