<?xml version="1.0" encoding="UTF-8" standalone="no"?>
<!DOCTYPE svg PUBLIC "-//W3C//DTD SVG 1.1//EN"
 "http://www.w3.org/Graphics/SVG/1.1/DTD/svg11.dtd">
<!-- Generated by graphviz version 2.43.0 (0)
 -->
<!-- Title: ConductionJacobiPreconditioner.h Pages: 1 -->
<svg width="497pt" height="207pt"
 viewBox="0.00 0.00 497.00 207.00" xmlns="http://www.w3.org/2000/svg" xmlns:xlink="http://www.w3.org/1999/xlink">
<g id="graph0" class="graph" transform="scale(1 1) rotate(0) translate(4 203)">
<title>ConductionJacobiPreconditioner.h</title>
<polygon fill="white" stroke="transparent" points="-4,4 -4,-203 493,-203 493,4 -4,4"/>
<!-- Node1 -->
<g id="node1" class="node">
<title>Node1</title>
<g id="a_node1"><a xlink:title=" ">
<polygon fill="#bfbfbf" stroke="black" points="216.5,-179.5 216.5,-198.5 395.5,-198.5 395.5,-179.5 216.5,-179.5"/>
<text text-anchor="middle" x="306" y="-186.5" font-family="Helvetica,sans-Serif" font-size="10.00">ConductionJacobiPreconditioner.h</text>
</a>
</g>
</g>
<!-- Node2 -->
<g id="node2" class="node">
<title>Node2</title>
<g id="a_node2"><a xlink:href="_conduction_solution_update_8h.html" target="_top" xlink:title=" ">
<polygon fill="white" stroke="black" points="135.5,-123.5 135.5,-142.5 290.5,-142.5 290.5,-123.5 135.5,-123.5"/>
<text text-anchor="middle" x="213" y="-130.5" font-family="Helvetica,sans-Serif" font-size="10.00">ConductionSolutionUpdate.h</text>
</a>
</g>
</g>
<!-- Node1&#45;&gt;Node2 -->
<g id="edge1" class="edge">
<title>Node1&#45;&gt;Node2</title>
<path fill="none" stroke="midnightblue" d="M282.19,-174.18C265.08,-164.24 242.53,-151.15 227.9,-142.65"/>
<polygon fill="midnightblue" stroke="midnightblue" points="280.65,-177.33 291.06,-179.32 284.17,-171.28 280.65,-177.33"/>
</g>
<!-- Node7 -->
<g id="node7" class="node">
<title>Node7</title>
<g id="a_node7"><a xlink:href="_conduction_jacobi_preconditioner_8_c.html" target="_top" xlink:title=" ">
<polygon fill="white" stroke="black" points="309,-123.5 309,-142.5 489,-142.5 489,-123.5 309,-123.5"/>
<text text-anchor="middle" x="399" y="-130.5" font-family="Helvetica,sans-Serif" font-size="10.00">ConductionJacobiPreconditioner.C</text>
</a>
</g>
</g>
<!-- Node1&#45;&gt;Node7 -->
<g id="edge6" class="edge">
<title>Node1&#45;&gt;Node7</title>
<path fill="none" stroke="midnightblue" d="M329.81,-174.18C346.92,-164.24 369.47,-151.15 384.1,-142.65"/>
<polygon fill="midnightblue" stroke="midnightblue" points="327.83,-171.28 320.94,-179.32 331.35,-177.33 327.83,-171.28"/>
</g>
<!-- Node3 -->
<g id="node3" class="node">
<title>Node3</title>
<g id="a_node3"><a xlink:href="_conduction_update_8h.html" target="_top" xlink:title=" ">
<polygon fill="white" stroke="black" points="78,-67.5 78,-86.5 194,-86.5 194,-67.5 78,-67.5"/>
<text text-anchor="middle" x="136" y="-74.5" font-family="Helvetica,sans-Serif" font-size="10.00">ConductionUpdate.h</text>
</a>
</g>
</g>
<!-- Node2&#45;&gt;Node3 -->
<g id="edge2" class="edge">
<title>Node2&#45;&gt;Node3</title>
<path fill="none" stroke="midnightblue" d="M192.1,-117.34C178.09,-107.52 160.12,-94.91 148.34,-86.65"/>
<polygon fill="midnightblue" stroke="midnightblue" points="190.43,-120.45 200.63,-123.32 194.45,-114.72 190.43,-120.45"/>
</g>
<!-- Node6 -->
<g id="node6" class="node">
<title>Node6</title>
<g id="a_node6"><a xlink:href="_conduction_solution_update_8_c.html" target="_top" xlink:title=" ">
<polygon fill="white" stroke="black" points="212,-67.5 212,-86.5 368,-86.5 368,-67.5 212,-67.5"/>
<text text-anchor="middle" x="290" y="-74.5" font-family="Helvetica,sans-Serif" font-size="10.00">ConductionSolutionUpdate.C</text>
</a>
</g>
</g>
<!-- Node2&#45;&gt;Node6 -->
<g id="edge5" class="edge">
<title>Node2&#45;&gt;Node6</title>
<path fill="none" stroke="midnightblue" d="M233.9,-117.34C247.91,-107.52 265.88,-94.91 277.66,-86.65"/>
<polygon fill="midnightblue" stroke="midnightblue" points="231.55,-114.72 225.37,-123.32 235.57,-120.45 231.55,-114.72"/>
</g>
<!-- Node4 -->
<g id="node4" class="node">
<title>Node4</title>
<g id="a_node4"><a xlink:href="_conduction_update_8_c.html" target="_top" xlink:title=" ">
<polygon fill="white" stroke="black" points="0,-6 0,-25 116,-25 116,-6 0,-6"/>
<text text-anchor="middle" x="58" y="-13" font-family="Helvetica,sans-Serif" font-size="10.00">ConductionUpdate.C</text>
</a>
</g>
</g>
<!-- Node3&#45;&gt;Node4 -->
<g id="edge3" class="edge">
<title>Node3&#45;&gt;Node4</title>
<path fill="none" stroke="midnightblue" d="M116.72,-61.29C101.76,-49.88 81.54,-34.46 69.15,-25.01"/>
<polygon fill="midnightblue" stroke="midnightblue" points="114.75,-64.19 124.82,-67.48 119,-58.63 114.75,-64.19"/>
</g>
<!-- Node5 -->
<g id="node5" class="node">
<title>Node5</title>
<g id="a_node5"><a xlink:href="_matrix_free_heat_cond_equation_system_8_c.html" target="_top" xlink:title=" ">
<polygon fill="white" stroke="black" points="134,-0.5 134,-30.5 294,-30.5 294,-0.5 134,-0.5"/>
<text text-anchor="start" x="142" y="-18.5" font-family="Helvetica,sans-Serif" font-size="10.00">MatrixFreeHeatCondEquation</text>
<text text-anchor="middle" x="214" y="-7.5" font-family="Helvetica,sans-Serif" font-size="10.00">System.C</text>
</a>
</g>
</g>
<!-- Node3&#45;&gt;Node5 -->
<g id="edge4" class="edge">
<title>Node3&#45;&gt;Node5</title>
<path fill="none" stroke="midnightblue" d="M155.41,-61.2C167.71,-51.81 183.52,-39.75 195.62,-30.52"/>
<polygon fill="midnightblue" stroke="midnightblue" points="153,-58.63 147.18,-67.48 157.25,-64.19 153,-58.63"/>
</g>
</g>
</svg>
