<?xml version="1.0" encoding="UTF-8" standalone="no"?>
<!DOCTYPE svg PUBLIC "-//W3C//DTD SVG 1.1//EN"
 "http://www.w3.org/Graphics/SVG/1.1/DTD/svg11.dtd">
<!-- Generated by graphviz version 2.43.0 (0)
 -->
<!-- Title: DirichletBC.h Pages: 1 -->
<!--zoomable 95 -->
<svg id="main" version="1.1" xmlns="http://www.w3.org/2000/svg" xmlns:xlink="http://www.w3.org/1999/xlink" xml:space="preserve" onload="init(evt)">
<style type="text/css"><![CDATA[
.edge:hover path { stroke: red; }
.edge:hover polygon { stroke: red; fill: red; }
]]></style>
<script type="text/javascript"><![CDATA[
var edges = document.getElementsByTagName('g');
if (edges && edges.length) {
  for (var i=0;i<edges.length;i++) {
    if (edges[i].id.substr(0,4)=='edge') {
      edges[i].setAttribute('class','edge');
    }
  }
}
]]></script>
        <defs>
                <circle id="rim" cx="0" cy="0" r="7"/>
                <circle id="rim2" cx="0" cy="0" r="3.5"/>
                <g id="zoomPlus">
                        <use xlink:href="#rim" fill="#404040">
                                <set attributeName="fill" to="#808080" begin="zoomplus.mouseover" end="zoomplus.mouseout"/>
                        </use>
                        <path d="M-4,0h8M0,-4v8" fill="none" stroke="white" stroke-width="1.5" pointer-events="none"/>
                </g>
                <g id="zoomMin">
                        <use xlink:href="#rim" fill="#404040">
                                <set attributeName="fill" to="#808080" begin="zoomminus.mouseover" end="zoomminus.mouseout"/>
                        </use>
                        <path d="M-4,0h8" fill="none" stroke="white" stroke-width="1.5" pointer-events="none"/>
                </g>
                <g id="dirArrow">
                        <path fill="none" stroke="white" stroke-width="1.5" d="M0,-3.0v7 M-2.5,-0.5L0,-3.0L2.5,-0.5"/>
                </g>
               <g id="resetDef">
                       <use xlink:href="#rim2" fill="#404040">
                               <set attributeName="fill" to="#808080" begin="reset.mouseover" end="reset.mouseout"/>
                       </use>
               </g>
        </defs>

<script type="text/javascript">
var viewWidth = 1486;
var viewHeight = 95;
var sectionId = 'dynsection-1';
</script>
<script xlink:href="svgpan.js"/>
<svg id="graph" class="graph">
<g id="viewport">
<title>DirichletBC.h</title>
<polygon fill="white" stroke="transparent" points="-4,4 -4,-91 1481.5,-91 1481.5,4 -4,4"/>
<!-- Node1 -->
<g id="node1" class="node">
<title>Node1</title>
<g id="a_node1"><a xlink:title=" ">
<polygon fill="#bfbfbf" stroke="black" points="646.5,-67.5 646.5,-86.5 726.5,-86.5 726.5,-67.5 646.5,-67.5"/>
<text text-anchor="middle" x="686.5" y="-74.5" font-family="Helvetica,sans-Serif" font-size="10.00">DirichletBC.h</text>
</a>
</g>
</g>
<!-- Node2 -->
<g id="node2" class="node">
<title>Node2</title>
<g id="a_node2"><a xlink:href="_dirichlet_b_c_8_c.html" target="_top" xlink:title=" ">
<polygon fill="white" stroke="black" points="0,-6 0,-25 81,-25 81,-6 0,-6"/>
<text text-anchor="middle" x="40.5" y="-13" font-family="Helvetica,sans-Serif" font-size="10.00">DirichletBC.C</text>
</a>
</g>
</g>
<!-- Node1&#45;&gt;Node2 -->
<g id="edge1" class="edge">
<title>Node1&#45;&gt;Node2</title>
<path fill="none" stroke="midnightblue" d="M636.16,-75.8C532.82,-74.6 289.65,-67.73 89.5,-31 81.65,-29.56 73.26,-27.34 65.68,-25.07"/>
<polygon fill="midnightblue" stroke="midnightblue" points="636.27,-79.3 646.3,-75.9 636.34,-72.3 636.27,-79.3"/>
</g>
<!-- Node3 -->
<g id="node3" class="node">
<title>Node3</title>
<g id="a_node3"><a xlink:href="_enthalpy_equation_system_8_c.html" target="_top" xlink:title=" ">
<polygon fill="white" stroke="black" points="99,-6 99,-25 248,-25 248,-6 99,-6"/>
<text text-anchor="middle" x="173.5" y="-13" font-family="Helvetica,sans-Serif" font-size="10.00">EnthalpyEquationSystem.C</text>
</a>
</g>
</g>
<!-- Node1&#45;&gt;Node3 -->
<g id="edge2" class="edge">
<title>Node1&#45;&gt;Node3</title>
<path fill="none" stroke="midnightblue" d="M636.04,-71.85C555.56,-64.98 393.28,-50.08 256.5,-31 244.33,-29.3 231.21,-27.16 219.07,-25.04"/>
<polygon fill="midnightblue" stroke="midnightblue" points="636.11,-75.37 646.37,-72.73 636.7,-68.39 636.11,-75.37"/>
</g>
<!-- Node4 -->
<g id="node4" class="node">
<title>Node4</title>
<g id="a_node4"><a xlink:href="_gamma_equation_system_8_c.html" target="_top" xlink:title=" ">
<polygon fill="white" stroke="black" points="266,-6 266,-25 411,-25 411,-6 266,-6"/>
<text text-anchor="middle" x="338.5" y="-13" font-family="Helvetica,sans-Serif" font-size="10.00">GammaEquationSystem.C</text>
</a>
</g>
</g>
<!-- Node1&#45;&gt;Node4 -->
<g id="edge3" class="edge">
<title>Node1&#45;&gt;Node4</title>
<path fill="none" stroke="midnightblue" d="M636.47,-67.65C582.99,-58.7 495.72,-44.01 420.5,-31 409.53,-29.1 397.74,-27.03 386.62,-25.07"/>
<polygon fill="midnightblue" stroke="midnightblue" points="635.94,-71.11 646.38,-69.31 637.09,-64.21 635.94,-71.11"/>
</g>
<!-- Node5 -->
<g id="node5" class="node">
<title>Node5</title>
<g id="a_node5"><a xlink:href="_low_mach_equation_system_8_c.html" target="_top" xlink:title=" ">
<polygon fill="white" stroke="black" points="429.5,-6 429.5,-25 581.5,-25 581.5,-6 429.5,-6"/>
<text text-anchor="middle" x="505.5" y="-13" font-family="Helvetica,sans-Serif" font-size="10.00">LowMachEquationSystem.C</text>
</a>
</g>
</g>
<!-- Node1&#45;&gt;Node5 -->
<g id="edge4" class="edge">
<title>Node1&#45;&gt;Node5</title>
<path fill="none" stroke="midnightblue" d="M650.7,-64.23C615.52,-52.67 562.68,-35.3 531.38,-25.01"/>
<polygon fill="midnightblue" stroke="midnightblue" points="649.97,-67.68 660.57,-67.48 652.16,-61.03 649.97,-67.68"/>
</g>
<!-- Node6 -->
<g id="node6" class="node">
<title>Node6</title>
<g id="a_node6"><a xlink:href="_specific_dissipation_rate_equation_system_8_c.html" target="_top" xlink:title=" ">
<polygon fill="white" stroke="black" points="599.5,-0.5 599.5,-30.5 773.5,-30.5 773.5,-0.5 599.5,-0.5"/>
<text text-anchor="start" x="607.5" y="-18.5" font-family="Helvetica,sans-Serif" font-size="10.00">SpecificDissipationRateEquation</text>
<text text-anchor="middle" x="686.5" y="-7.5" font-family="Helvetica,sans-Serif" font-size="10.00">System.C</text>
</a>
</g>
</g>
<!-- Node1&#45;&gt;Node6 -->
<g id="edge5" class="edge">
<title>Node1&#45;&gt;Node6</title>
<path fill="none" stroke="midnightblue" d="M686.5,-57.23C686.5,-48.59 686.5,-38.5 686.5,-30.52"/>
<polygon fill="midnightblue" stroke="midnightblue" points="683,-57.48 686.5,-67.48 690,-57.48 683,-57.48"/>
</g>
<!-- Node7 -->
<g id="node7" class="node">
<title>Node7</title>
<g id="a_node7"><a xlink:href="_total_dissipation_rate_equation_system_8_c.html" target="_top" xlink:title=" ">
<polygon fill="white" stroke="black" points="791.5,-0.5 791.5,-30.5 951.5,-30.5 951.5,-0.5 791.5,-0.5"/>
<text text-anchor="start" x="799.5" y="-18.5" font-family="Helvetica,sans-Serif" font-size="10.00">TotalDissipationRateEquation</text>
<text text-anchor="middle" x="871.5" y="-7.5" font-family="Helvetica,sans-Serif" font-size="10.00">System.C</text>
</a>
</g>
</g>
<!-- Node1&#45;&gt;Node7 -->
<g id="edge6" class="edge">
<title>Node1&#45;&gt;Node7</title>
<path fill="none" stroke="midnightblue" d="M722.7,-64.36C752.85,-54.66 795.86,-40.83 827.9,-30.52"/>
<polygon fill="midnightblue" stroke="midnightblue" points="721.45,-61.08 713.01,-67.48 723.6,-67.75 721.45,-61.08"/>
</g>
<!-- Node8 -->
<g id="node8" class="node">
<title>Node8</title>
<g id="a_node8"><a xlink:href="_turb_kinetic_energy_equation_system_8_c.html" target="_top" xlink:title=" ">
<polygon fill="white" stroke="black" points="970,-0.5 970,-30.5 1117,-30.5 1117,-0.5 970,-0.5"/>
<text text-anchor="start" x="978" y="-18.5" font-family="Helvetica,sans-Serif" font-size="10.00">TurbKineticEnergyEquation</text>
<text text-anchor="middle" x="1043.5" y="-7.5" font-family="Helvetica,sans-Serif" font-size="10.00">System.C</text>
</a>
</g>
</g>
<!-- Node1&#45;&gt;Node8 -->
<g id="edge7" class="edge">
<title>Node1&#45;&gt;Node8</title>
<path fill="none" stroke="midnightblue" d="M737.09,-67.85C792.1,-58.95 882.58,-44.2 960.5,-31 963.53,-30.49 966.62,-29.96 969.74,-29.43"/>
<polygon fill="midnightblue" stroke="midnightblue" points="736.23,-64.44 726.91,-69.49 737.34,-71.35 736.23,-64.44"/>
</g>
<!-- Node9 -->
<g id="node9" class="node">
<title>Node9</title>
<g id="a_node9"><a xlink:href="_volume_of_fluid_equation_system_8_c.html" target="_top" xlink:title=" ">
<polygon fill="white" stroke="black" points="1135.5,-6 1135.5,-25 1313.5,-25 1313.5,-6 1135.5,-6"/>
<text text-anchor="middle" x="1224.5" y="-13" font-family="Helvetica,sans-Serif" font-size="10.00">VolumeOfFluidEquationSystem.C</text>
</a>
</g>
</g>
<!-- Node1&#45;&gt;Node9 -->
<g id="edge8" class="edge">
<title>Node1&#45;&gt;Node9</title>
<path fill="none" stroke="midnightblue" d="M736.62,-71.61C818.38,-64.29 985.48,-48.64 1126.5,-31 1140.58,-29.24 1155.76,-27.11 1169.87,-25.03"/>
<polygon fill="midnightblue" stroke="midnightblue" points="736.26,-68.13 726.61,-72.51 736.88,-75.1 736.26,-68.13"/>
</g>
<!-- Node10 -->
<g id="node10" class="node">
<title>Node10</title>
<g id="a_node10"><a xlink:href="_wall_dist_equation_system_8_c.html" target="_top" xlink:title=" ">
<polygon fill="white" stroke="black" points="1331.5,-6 1331.5,-25 1477.5,-25 1477.5,-6 1331.5,-6"/>
<text text-anchor="middle" x="1404.5" y="-13" font-family="Helvetica,sans-Serif" font-size="10.00">WallDistEquationSystem.C</text>
</a>
</g>
</g>
<!-- Node1&#45;&gt;Node10 -->
<g id="edge9" class="edge">
<title>Node1&#45;&gt;Node10</title>
<path fill="none" stroke="midnightblue" d="M737.09,-74.22C844.99,-70.02 1105.61,-57.78 1322.5,-31 1335.13,-29.44 1348.76,-27.24 1361.22,-25.02"/>
<polygon fill="midnightblue" stroke="midnightblue" points="736.68,-70.73 726.82,-74.61 736.95,-77.72 736.68,-70.73"/>
</g>
</g>
</svg>
        <g id="navigator" transform="translate(0 0)" fill="#404254">
                <rect fill="#f2f5e9" fill-opacity="0.5" stroke="#606060" stroke-width=".5" x="0" y="0" width="60" height="60"/>
                <use id="zoomplus" xlink:href="#zoomPlus" x="17" y="9" onmousedown="handleZoom(evt,'in')"/>
                <use id="zoomminus" xlink:href="#zoomMin" x="42" y="9" onmousedown="handleZoom(evt,'out')"/>
                <use id="reset" xlink:href="#resetDef" x="30" y="36" onmousedown="handleReset()"/>
                <g id="arrowUp" xlink:href="#dirArrow" transform="translate(30 24)" onmousedown="handlePan(0,-1)">
                  <use xlink:href="#rim" fill="#404040">
                        <set attributeName="fill" to="#808080" begin="arrowUp.mouseover" end="arrowUp.mouseout"/>
                  </use>
                  <path fill="none" stroke="white" stroke-width="1.5" d="M0,-3.0v7 M-2.5,-0.5L0,-3.0L2.5,-0.5"/>
                </g>
                <g id="arrowRight" xlink:href="#dirArrow" transform="rotate(90) translate(36 -43)" onmousedown="handlePan(1,0)">
                  <use xlink:href="#rim" fill="#404040">
                        <set attributeName="fill" to="#808080" begin="arrowRight.mouseover" end="arrowRight.mouseout"/>
                  </use>
                  <path fill="none" stroke="white" stroke-width="1.5" d="M0,-3.0v7 M-2.5,-0.5L0,-3.0L2.5,-0.5"/>
                </g>
                <g id="arrowDown" xlink:href="#dirArrow" transform="rotate(180) translate(-30 -48)" onmousedown="handlePan(0,1)">
                  <use xlink:href="#rim" fill="#404040">
                        <set attributeName="fill" to="#808080" begin="arrowDown.mouseover" end="arrowDown.mouseout"/>
                  </use>
                  <path fill="none" stroke="white" stroke-width="1.5" d="M0,-3.0v7 M-2.5,-0.5L0,-3.0L2.5,-0.5"/>
                </g>
                <g id="arrowLeft" xlink:href="#dirArrow" transform="rotate(270) translate(-36 17)" onmousedown="handlePan(-1,0)">
                  <use xlink:href="#rim" fill="#404040">
                        <set attributeName="fill" to="#808080" begin="arrowLeft.mouseover" end="arrowLeft.mouseout"/>
                  </use>
                  <path fill="none" stroke="white" stroke-width="1.5" d="M0,-3.0v7 M-2.5,-0.5L0,-3.0L2.5,-0.5"/>
                </g>
        </g>
        <svg viewBox="0 0 15 15" width="100%" height="30px" preserveAspectRatio="xMaxYMin meet">
         <g id="arrow_out" transform="scale(0.3 0.3)">
          <a xlink:href="_dirichlet_b_c_8h__dep__incl_org.svg" target="_base">
           <rect id="button" ry="5" rx="5" y="6" x="6" height="38" width="38"
                fill="#f2f5e9" fill-opacity="0.5" stroke="#606060" stroke-width="1.0"/>
           <path id="arrow"
             d="M 11.500037,31.436501 C 11.940474,20.09759 22.043105,11.32322 32.158766,21.979434 L 37.068811,17.246167 C 37.068811,17.246167 37.088388,32 37.088388,32 L 22.160133,31.978069 C 22.160133,31.978069 26.997745,27.140456 26.997745,27.140456 C 18.528582,18.264221 13.291696,25.230495 11.500037,31.436501 z"
             style="fill:#404040;"/>
          </a>
         </g>
        </svg>
</svg>
