<?xml version="1.0" encoding="UTF-8" standalone="no"?>
<!DOCTYPE svg PUBLIC "-//W3C//DTD SVG 1.1//EN"
 "http://www.w3.org/Graphics/SVG/1.1/DTD/svg11.dtd">
<!-- Generated by graphviz version 2.43.0 (0)
 -->
<!-- Title: DropletVelocityAuxFunction.C Pages: 1 -->
<svg width="443pt" height="151pt"
 viewBox="0.00 0.00 442.50 151.00" xmlns="http://www.w3.org/2000/svg" xmlns:xlink="http://www.w3.org/1999/xlink">
<g id="graph0" class="graph" transform="scale(1 1) rotate(0) translate(4 147)">
<title>DropletVelocityAuxFunction.C</title>
<polygon fill="white" stroke="transparent" points="-4,4 -4,-147 438.5,-147 438.5,4 -4,4"/>
<!-- Node1 -->
<g id="node1" class="node">
<title>Node1</title>
<g id="a_node1"><a xlink:title=" ">
<polygon fill="#bfbfbf" stroke="black" points="173.5,-123.5 173.5,-142.5 334.5,-142.5 334.5,-123.5 173.5,-123.5"/>
<text text-anchor="middle" x="254" y="-130.5" font-family="Helvetica,sans-Serif" font-size="10.00">DropletVelocityAuxFunction.C</text>
</a>
</g>
</g>
<!-- Node2 -->
<g id="node2" class="node">
<title>Node2</title>
<g id="a_node2"><a xlink:href="_droplet_velocity_aux_function_8h.html" target="_top" xlink:title=" ">
<polygon fill="white" stroke="black" points="0,-56.5 0,-86.5 166,-86.5 166,-56.5 0,-56.5"/>
<text text-anchor="start" x="8" y="-74.5" font-family="Helvetica,sans-Serif" font-size="10.00">user_functions/DropletVelocity</text>
<text text-anchor="middle" x="83" y="-63.5" font-family="Helvetica,sans-Serif" font-size="10.00">AuxFunction.h</text>
</a>
</g>
</g>
<!-- Node1&#45;&gt;Node2 -->
<g id="edge1" class="edge">
<title>Node1&#45;&gt;Node2</title>
<path fill="none" stroke="midnightblue" d="M229.5,-123.48C204.39,-114.74 164.64,-100.91 132.88,-89.86"/>
<polygon fill="midnightblue" stroke="midnightblue" points="133.9,-86.5 123.3,-86.52 131.6,-93.11 133.9,-86.5"/>
</g>
<!-- Node4 -->
<g id="node4" class="node">
<title>Node4</title>
<g id="a_node4"><a xlink:title=" ">
<polygon fill="white" stroke="#bfbfbf" points="157.5,-0.5 157.5,-19.5 204.5,-19.5 204.5,-0.5 157.5,-0.5"/>
<text text-anchor="middle" x="181" y="-7.5" font-family="Helvetica,sans-Serif" font-size="10.00">vector</text>
</a>
</g>
</g>
<!-- Node1&#45;&gt;Node4 -->
<g id="edge6" class="edge">
<title>Node1&#45;&gt;Node4</title>
<path fill="none" stroke="midnightblue" d="M244.53,-123.45C235.5,-114.91 221.99,-101.07 213,-87 201.35,-68.77 192.3,-45.58 186.84,-29.64"/>
<polygon fill="midnightblue" stroke="midnightblue" points="190.1,-28.32 183.65,-19.91 183.44,-30.5 190.1,-28.32"/>
</g>
<!-- Node5 -->
<g id="node5" class="node">
<title>Node5</title>
<g id="a_node5"><a xlink:title=" ">
<polygon fill="white" stroke="#bfbfbf" points="222,-62 222,-81 286,-81 286,-62 222,-62"/>
<text text-anchor="middle" x="254" y="-69" font-family="Helvetica,sans-Serif" font-size="10.00">algorithm</text>
</a>
</g>
</g>
<!-- Node1&#45;&gt;Node5 -->
<g id="edge4" class="edge">
<title>Node1&#45;&gt;Node5</title>
<path fill="none" stroke="midnightblue" d="M254,-123.48C254,-115.08 254,-101.98 254,-91.16"/>
<polygon fill="midnightblue" stroke="midnightblue" points="257.5,-91.01 254,-81.01 250.5,-91.01 257.5,-91.01"/>
</g>
<!-- Node6 -->
<g id="node6" class="node">
<title>Node6</title>
<g id="a_node6"><a xlink:title=" ">
<polygon fill="white" stroke="#bfbfbf" points="304.5,-62 304.5,-81 351.5,-81 351.5,-62 304.5,-62"/>
<text text-anchor="middle" x="328" y="-69" font-family="Helvetica,sans-Serif" font-size="10.00">cmath</text>
</a>
</g>
</g>
<!-- Node1&#45;&gt;Node6 -->
<g id="edge5" class="edge">
<title>Node1&#45;&gt;Node6</title>
<path fill="none" stroke="midnightblue" d="M264.6,-123.48C276.25,-114.11 295.19,-98.88 309.33,-87.51"/>
<polygon fill="midnightblue" stroke="midnightblue" points="311.82,-90 317.42,-81.01 307.43,-84.55 311.82,-90"/>
</g>
<!-- Node7 -->
<g id="node7" class="node">
<title>Node7</title>
<g id="a_node7"><a xlink:title=" ">
<polygon fill="white" stroke="#bfbfbf" points="369.5,-62 369.5,-81 434.5,-81 434.5,-62 369.5,-62"/>
<text text-anchor="middle" x="402" y="-69" font-family="Helvetica,sans-Serif" font-size="10.00">stdexcept</text>
</a>
</g>
</g>
<!-- Node1&#45;&gt;Node7 -->
<g id="edge7" class="edge">
<title>Node1&#45;&gt;Node7</title>
<path fill="none" stroke="midnightblue" d="M275.2,-123.48C300.37,-113.36 342.54,-96.4 371.28,-84.85"/>
<polygon fill="midnightblue" stroke="midnightblue" points="372.86,-87.99 380.83,-81.01 370.25,-81.49 372.86,-87.99"/>
</g>
<!-- Node3 -->
<g id="node3" class="node">
<title>Node3</title>
<g id="a_node3"><a xlink:href="_aux_function_8h.html" target="_top" xlink:title=" ">
<polygon fill="white" stroke="black" points="40,-0.5 40,-19.5 126,-19.5 126,-0.5 40,-0.5"/>
<text text-anchor="middle" x="83" y="-7.5" font-family="Helvetica,sans-Serif" font-size="10.00">AuxFunction.h</text>
</a>
</g>
</g>
<!-- Node2&#45;&gt;Node3 -->
<g id="edge2" class="edge">
<title>Node2&#45;&gt;Node3</title>
<path fill="none" stroke="midnightblue" d="M83,-56.4C83,-48.47 83,-38.46 83,-29.86"/>
<polygon fill="midnightblue" stroke="midnightblue" points="86.5,-29.66 83,-19.66 79.5,-29.66 86.5,-29.66"/>
</g>
<!-- Node2&#45;&gt;Node4 -->
<g id="edge3" class="edge">
<title>Node2&#45;&gt;Node4</title>
<path fill="none" stroke="midnightblue" d="M106.22,-56.4C121.79,-46.95 142.2,-34.56 157.76,-25.11"/>
<polygon fill="midnightblue" stroke="midnightblue" points="160.01,-27.84 166.74,-19.66 156.38,-21.86 160.01,-27.84"/>
</g>
</g>
</svg>
