<?xml version="1.0" encoding="UTF-8" standalone="no"?>
<!DOCTYPE svg PUBLIC "-//W3C//DTD SVG 1.1//EN"
 "http://www.w3.org/Graphics/SVG/1.1/DTD/svg11.dtd">
<!-- Generated by graphviz version 2.43.0 (0)
 -->
<!-- Title: EdgeKernel.h Pages: 1 -->
<svg width="476pt" height="140pt"
 viewBox="0.00 0.00 476.00 140.00" xmlns="http://www.w3.org/2000/svg" xmlns:xlink="http://www.w3.org/1999/xlink">
<g id="graph0" class="graph" transform="scale(1 1) rotate(0) translate(4 136)">
<title>EdgeKernel.h</title>
<polygon fill="white" stroke="transparent" points="-4,4 -4,-136 472,-136 472,4 -4,4"/>
<!-- Node1 -->
<g id="node1" class="node">
<title>Node1</title>
<g id="a_node1"><a xlink:title="Kernel&#45;style implementation of Edge algorithms.">
<polygon fill="#bfbfbf" stroke="black" points="168.5,-112.5 168.5,-131.5 248.5,-131.5 248.5,-112.5 168.5,-112.5"/>
<text text-anchor="middle" x="208.5" y="-119.5" font-family="Helvetica,sans-Serif" font-size="10.00">EdgeKernel.h</text>
</a>
</g>
</g>
<!-- Node2 -->
<g id="node2" class="node">
<title>Node2</title>
<g id="a_node2"><a xlink:href="_momentum_s_s_t_a_m_s_diff_edge_kernel_8h.html" target="_top" xlink:title=" ">
<polygon fill="white" stroke="black" points="112,-56.5 112,-75.5 305,-75.5 305,-56.5 112,-56.5"/>
<text text-anchor="middle" x="208.5" y="-63.5" font-family="Helvetica,sans-Serif" font-size="10.00">MomentumSSTAMSDiffEdgeKernel.h</text>
</a>
</g>
</g>
<!-- Node1&#45;&gt;Node2 -->
<g id="edge1" class="edge">
<title>Node1&#45;&gt;Node2</title>
<path fill="none" stroke="midnightblue" d="M208.5,-101.8C208.5,-92.91 208.5,-82.78 208.5,-75.75"/>
<polygon fill="midnightblue" stroke="midnightblue" points="205,-102.08 208.5,-112.08 212,-102.08 205,-102.08"/>
</g>
<!-- Node3 -->
<g id="node3" class="node">
<title>Node3</title>
<g id="a_node3"><a xlink:href="_assemble_a_m_s_edge_kernel_alg_8_c.html" target="_top" xlink:title=" ">
<polygon fill="white" stroke="black" points="0,-0.5 0,-19.5 167,-19.5 167,-0.5 0,-0.5"/>
<text text-anchor="middle" x="83.5" y="-7.5" font-family="Helvetica,sans-Serif" font-size="10.00">AssembleAMSEdgeKernelAlg.C</text>
</a>
</g>
</g>
<!-- Node1&#45;&gt;Node3 -->
<g id="edge4" class="edge">
<title>Node1&#45;&gt;Node3</title>
<path fill="none" stroke="midnightblue" d="M158.65,-109.82C138.74,-103.05 117.11,-92.43 102.5,-76 88.12,-59.83 84.6,-33.33 83.75,-19.7"/>
<polygon fill="midnightblue" stroke="midnightblue" points="157.66,-113.18 168.25,-112.84 159.77,-106.5 157.66,-113.18"/>
</g>
<!-- Node5 -->
<g id="node5" class="node">
<title>Node5</title>
<g id="a_node5"><a xlink:href="_assemble_edge_kernel_alg_8_c.html" target="_top" xlink:title=" ">
<polygon fill="white" stroke="black" points="323,-56.5 323,-75.5 468,-75.5 468,-56.5 323,-56.5"/>
<text text-anchor="middle" x="395.5" y="-63.5" font-family="Helvetica,sans-Serif" font-size="10.00">AssembleEdgeKernelAlg.C</text>
</a>
</g>
</g>
<!-- Node1&#45;&gt;Node5 -->
<g id="edge5" class="edge">
<title>Node1&#45;&gt;Node5</title>
<path fill="none" stroke="midnightblue" d="M248.09,-109.57C283.37,-99.38 334.19,-84.7 366.01,-75.52"/>
<polygon fill="midnightblue" stroke="midnightblue" points="246.77,-106.31 238.13,-112.44 248.71,-113.03 246.77,-106.31"/>
</g>
<!-- Node2&#45;&gt;Node3 -->
<g id="edge2" class="edge">
<title>Node2&#45;&gt;Node3</title>
<path fill="none" stroke="midnightblue" d="M179.26,-52.37C155.85,-42.26 123.66,-28.35 103.21,-19.52"/>
<polygon fill="midnightblue" stroke="midnightblue" points="178.13,-55.69 188.69,-56.44 180.9,-49.26 178.13,-55.69"/>
</g>
<!-- Node4 -->
<g id="node4" class="node">
<title>Node4</title>
<g id="a_node4"><a xlink:href="_momentum_s_s_t_a_m_s_diff_edge_kernel_8_c.html" target="_top" xlink:title=" ">
<polygon fill="white" stroke="black" points="184.5,-0.5 184.5,-19.5 378.5,-19.5 378.5,-0.5 184.5,-0.5"/>
<text text-anchor="middle" x="281.5" y="-7.5" font-family="Helvetica,sans-Serif" font-size="10.00">MomentumSSTAMSDiffEdgeKernel.C</text>
</a>
</g>
</g>
<!-- Node2&#45;&gt;Node4 -->
<g id="edge3" class="edge">
<title>Node2&#45;&gt;Node4</title>
<path fill="none" stroke="midnightblue" d="M228.64,-50.1C241.78,-40.38 258.48,-28.03 269.56,-19.83"/>
<polygon fill="midnightblue" stroke="midnightblue" points="226.19,-47.56 220.23,-56.32 230.35,-53.19 226.19,-47.56"/>
</g>
</g>
</svg>
