<?xml version="1.0" encoding="UTF-8" standalone="no"?>
<!DOCTYPE svg PUBLIC "-//W3C//DTD SVG 1.1//EN"
 "http://www.w3.org/Graphics/SVG/1.1/DTD/svg11.dtd">
<!-- Generated by graphviz version 2.43.0 (0)
 -->
<!-- Title: EdgeKernelUtils.h Pages: 1 -->
<svg width="845pt" height="93pt"
 viewBox="0.00 0.00 845.00 93.00" xmlns="http://www.w3.org/2000/svg" xmlns:xlink="http://www.w3.org/1999/xlink">
<g id="graph0" class="graph" transform="scale(1 1) rotate(0) translate(4 89)">
<title>EdgeKernelUtils.h</title>
<!-- Node1 -->
<g id="Node000001" class="node">
<title>Node1</title>
<g id="a_Node000001"><a xlink:title=" ">
<polygon fill="#999999" stroke="#666666" points="435,-85 332,-85 332,-66 435,-66 435,-85"/>
<text text-anchor="middle" x="383.5" y="-73" font-family="Helvetica,sans-Serif" font-size="10.00">EdgeKernelUtils.h</text>
</a>
</g>
</g>
<!-- Node2 -->
<g id="Node000002" class="node">
<title>Node2</title>
<g id="a_Node000002"><a xlink:href="_momentum_edge_solver_alg_8_c.html" target="_top" xlink:title=" ">
<polygon fill="white" stroke="#666666" points="153,-24.5 0,-24.5 0,-5.5 153,-5.5 153,-24.5"/>
<text text-anchor="middle" x="76.5" y="-12.5" font-family="Helvetica,sans-Serif" font-size="10.00">MomentumEdgeSolverAlg.C</text>
</a>
</g>
</g>
<!-- Node1&#45;&gt;Node2 -->
<g id="edge1_Node000001_Node000002" class="edge">
<title>Node1&#45;&gt;Node2</title>
<g id="a_edge1_Node000001_Node000002"><a xlink:title=" ">
<path fill="none" stroke="#63b8ff" d="M328.94,-64.1C269.71,-52.82 176.24,-35.01 121.19,-24.52"/>
<polygon fill="#63b8ff" stroke="#63b8ff" points="328.38,-67.56 338.86,-65.99 329.69,-60.68 328.38,-67.56"/>
</a>
</g>
</g>
<!-- Node3 -->
<g id="Node000003" class="node">
<title>Node3</title>
<g id="a_Node000003"><a xlink:href="_scalar_edge_solver_alg_8_c.html" target="_top" xlink:title=" ">
<polygon fill="white" stroke="#666666" points="298,-24.5 171,-24.5 171,-5.5 298,-5.5 298,-24.5"/>
<text text-anchor="middle" x="234.5" y="-12.5" font-family="Helvetica,sans-Serif" font-size="10.00">ScalarEdgeSolverAlg.C</text>
</a>
</g>
</g>
<!-- Node1&#45;&gt;Node3 -->
<g id="edge2_Node000001_Node000003" class="edge">
<title>Node1&#45;&gt;Node3</title>
<g id="a_edge2_Node000001_Node000003"><a xlink:title=" ">
<path fill="none" stroke="#63b8ff" d="M352.25,-62.23C323.45,-50.92 281.47,-34.44 256.19,-24.52"/>
<polygon fill="#63b8ff" stroke="#63b8ff" points="351.25,-65.6 361.83,-65.99 353.8,-59.08 351.25,-65.6"/>
</a>
</g>
</g>
<!-- Node4 -->
<g id="Node000004" class="node">
<title>Node4</title>
<g id="a_Node000004"><a xlink:href="_v_o_f_advection_edge_alg_8_c.html" target="_top" xlink:title=" ">
<polygon fill="white" stroke="#666666" points="450.5,-24.5 316.5,-24.5 316.5,-5.5 450.5,-5.5 450.5,-24.5"/>
<text text-anchor="middle" x="383.5" y="-12.5" font-family="Helvetica,sans-Serif" font-size="10.00">VOFAdvectionEdgeAlg.C</text>
</a>
</g>
</g>
<!-- Node1&#45;&gt;Node4 -->
<g id="edge3_Node000001_Node000004" class="edge">
<title>Node1&#45;&gt;Node4</title>
<g id="a_edge3_Node000001_Node000004"><a xlink:title=" ">
<path fill="none" stroke="#63b8ff" d="M383.5,-55.66C383.5,-45.24 383.5,-32.8 383.5,-24.67"/>
<polygon fill="#63b8ff" stroke="#63b8ff" points="380,-55.87 383.5,-65.87 387,-55.87 380,-55.87"/>
</a>
</g>
</g>
<!-- Node5 -->
<g id="Node000005" class="node">
<title>Node5</title>
<g id="a_Node000005"><a xlink:href="_zalesak_disk_mass_flow_rate_kernel_8_c.html" target="_top" xlink:title=" ">
<polygon fill="white" stroke="#666666" points="658,-24.5 469,-24.5 469,-5.5 658,-5.5 658,-24.5"/>
<text text-anchor="middle" x="563.5" y="-12.5" font-family="Helvetica,sans-Serif" font-size="10.00">ZalesakDiskMassFlowRateKernel.C</text>
</a>
</g>
</g>
<!-- Node1&#45;&gt;Node5 -->
<g id="edge4_Node000001_Node000005" class="edge">
<title>Node1&#45;&gt;Node5</title>
<g id="a_edge4_Node000001_Node000005"><a xlink:title=" ">
<path fill="none" stroke="#63b8ff" d="M419.45,-62.82C454.26,-51.5 506.22,-34.62 537.29,-24.52"/>
<polygon fill="#63b8ff" stroke="#63b8ff" points="418.1,-59.57 409.67,-65.99 420.27,-66.23 418.1,-59.57"/>
</a>
</g>
</g>
<!-- Node6 -->
<g id="Node000006" class="node">
<title>Node6</title>
<g id="a_Node000006"><a xlink:href="_zalesak_sphere_mass_flow_rate_kernel_8_c.html" target="_top" xlink:title=" ">
<polygon fill="white" stroke="#666666" points="837,-30 676,-30 676,0 837,0 837,-30"/>
<text text-anchor="start" x="684" y="-18" font-family="Helvetica,sans-Serif" font-size="10.00">ZalesakSphereMassFlowRate</text>
<text text-anchor="middle" x="756.5" y="-7" font-family="Helvetica,sans-Serif" font-size="10.00">Kernel.C</text>
</a>
</g>
</g>
<!-- Node1&#45;&gt;Node6 -->
<g id="edge5_Node000001_Node000006" class="edge">
<title>Node1&#45;&gt;Node6</title>
<g id="a_edge5_Node000001_Node000006"><a xlink:title=" ">
<path fill="none" stroke="#63b8ff" d="M445.09,-64.86C502.61,-55.85 590.87,-42.03 667.5,-30 670.28,-29.56 673.11,-29.12 675.97,-28.67"/>
<polygon fill="#63b8ff" stroke="#63b8ff" points="444.4,-61.43 435.07,-66.43 445.49,-68.34 444.4,-61.43"/>
</a>
</g>
</g>
</g>
</svg>
