<?xml version="1.0" encoding="UTF-8" standalone="no"?>
<!DOCTYPE svg PUBLIC "-//W3C//DTD SVG 1.1//EN"
 "http://www.w3.org/Graphics/SVG/1.1/DTD/svg11.dtd">
<!-- Generated by graphviz version 2.43.0 (0)
 -->
<!-- Title: ElementVolumeIntegral.h Pages: 1 -->
<svg width="589pt" height="82pt"
 viewBox="0.00 0.00 588.50 82.00" xmlns="http://www.w3.org/2000/svg" xmlns:xlink="http://www.w3.org/1999/xlink">
<g id="graph0" class="graph" transform="scale(1 1) rotate(0) translate(4 78)">
<title>ElementVolumeIntegral.h</title>
<!-- Node1 -->
<g id="Node000001" class="node">
<title>Node1</title>
<g id="a_Node000001"><a xlink:title=" ">
<polygon fill="#999999" stroke="#666666" points="367,-74 227,-74 227,-55 367,-55 367,-74"/>
<text text-anchor="middle" x="297" y="-62" font-family="Helvetica,sans-Serif" font-size="10.00">ElementVolumeIntegral.h</text>
</a>
</g>
</g>
<!-- Node2 -->
<g id="Node000002" class="node">
<title>Node2</title>
<g id="a_Node000002"><a xlink:href="_conduction_interior_8_c.html" target="_top" xlink:title=" ">
<polygon fill="white" stroke="#666666" points="116,-19 0,-19 0,0 116,0 116,-19"/>
<text text-anchor="middle" x="58" y="-7" font-family="Helvetica,sans-Serif" font-size="10.00">ConductionInterior.C</text>
</a>
</g>
</g>
<!-- Node1&#45;&gt;Node2 -->
<g id="edge1_Node000001_Node000002" class="edge">
<title>Node1&#45;&gt;Node2</title>
<g id="a_edge1_Node000001_Node000002"><a xlink:title=" ">
<path fill="none" stroke="#63b8ff" d="M248.82,-52.82C204.03,-42.88 138.16,-28.28 96.7,-19.08"/>
<polygon fill="#63b8ff" stroke="#63b8ff" points="248.08,-56.24 258.6,-54.98 249.6,-49.4 248.08,-56.24"/>
</a>
</g>
</g>
<!-- Node3 -->
<g id="Node000003" class="node">
<title>Node3</title>
<g id="a_Node000003"><a xlink:href="_green_gauss_gradient_interior_8_c.html" target="_top" xlink:title=" ">
<polygon fill="white" stroke="#666666" points="296,-19 134,-19 134,0 296,0 296,-19"/>
<text text-anchor="middle" x="215" y="-7" font-family="Helvetica,sans-Serif" font-size="10.00">GreenGaussGradientInterior.C</text>
</a>
</g>
</g>
<!-- Node1&#45;&gt;Node3 -->
<g id="edge2_Node000001_Node000003" class="edge">
<title>Node1&#45;&gt;Node3</title>
<g id="a_edge2_Node000001_Node000003"><a xlink:title=" ">
<path fill="none" stroke="#63b8ff" d="M275.22,-49.42C260.34,-39.81 241.09,-27.37 228.41,-19.17"/>
<polygon fill="#63b8ff" stroke="#63b8ff" points="273.53,-52.5 283.83,-54.98 277.33,-46.62 273.53,-52.5"/>
</a>
</g>
</g>
<!-- Node4 -->
<g id="Node000004" class="node">
<title>Node4</title>
<g id="a_Node000004"><a xlink:href="_max_courant_reynolds_8_c.html" target="_top" xlink:title=" ">
<polygon fill="white" stroke="#666666" points="445.5,-19 314.5,-19 314.5,0 445.5,0 445.5,-19"/>
<text text-anchor="middle" x="380" y="-7" font-family="Helvetica,sans-Serif" font-size="10.00">MaxCourantReynolds.C</text>
</a>
</g>
</g>
<!-- Node1&#45;&gt;Node4 -->
<g id="edge3_Node000001_Node000004" class="edge">
<title>Node1&#45;&gt;Node4</title>
<g id="a_edge3_Node000001_Node000004"><a xlink:title=" ">
<path fill="none" stroke="#63b8ff" d="M319.04,-49.42C334.11,-39.81 353.59,-27.37 366.42,-19.17"/>
<polygon fill="#63b8ff" stroke="#63b8ff" points="316.88,-46.65 310.34,-54.98 320.65,-52.55 316.88,-46.65"/>
</a>
</g>
</g>
<!-- Node5 -->
<g id="Node000005" class="node">
<title>Node5</title>
<g id="a_Node000005"><a xlink:href="_momentum_interior_8_c.html" target="_top" xlink:title=" ">
<polygon fill="white" stroke="#666666" points="580.5,-19 463.5,-19 463.5,0 580.5,0 580.5,-19"/>
<text text-anchor="middle" x="522" y="-7" font-family="Helvetica,sans-Serif" font-size="10.00">MomentumInterior.C</text>
</a>
</g>
</g>
<!-- Node1&#45;&gt;Node5 -->
<g id="edge4_Node000001_Node000005" class="edge">
<title>Node1&#45;&gt;Node5</title>
<g id="a_edge4_Node000001_Node000005"><a xlink:title=" ">
<path fill="none" stroke="#63b8ff" d="M342.89,-52.69C385.05,-42.76 446.7,-28.24 485.57,-19.08"/>
<polygon fill="#63b8ff" stroke="#63b8ff" points="342.08,-49.28 333.15,-54.98 343.69,-56.1 342.08,-49.28"/>
</a>
</g>
</g>
</g>
</svg>
