<?xml version="1.0" encoding="UTF-8" standalone="no"?>
<!DOCTYPE svg PUBLIC "-//W3C//DTD SVG 1.1//EN"
 "http://www.w3.org/Graphics/SVG/1.1/DTD/svg11.dtd">
<!-- Generated by graphviz version 2.43.0 (0)
 -->
<!-- Title: ElementVolumeIntegral.h Pages: 1 -->
<svg width="589pt" height="84pt"
 viewBox="0.00 0.00 588.50 84.00" xmlns="http://www.w3.org/2000/svg" xmlns:xlink="http://www.w3.org/1999/xlink">
<g id="graph0" class="graph" transform="scale(1 1) rotate(0) translate(4 80)">
<title>ElementVolumeIntegral.h</title>
<polygon fill="white" stroke="transparent" points="-4,4 -4,-80 584.5,-80 584.5,4 -4,4"/>
<!-- Node1 -->
<g id="node1" class="node">
<title>Node1</title>
<g id="a_node1"><a xlink:title=" ">
<polygon fill="#bfbfbf" stroke="black" points="227,-56.5 227,-75.5 367,-75.5 367,-56.5 227,-56.5"/>
<text text-anchor="middle" x="297" y="-63.5" font-family="Helvetica,sans-Serif" font-size="10.00">ElementVolumeIntegral.h</text>
</a>
</g>
</g>
<!-- Node2 -->
<g id="node2" class="node">
<title>Node2</title>
<g id="a_node2"><a xlink:href="_conduction_interior_8_c.html" target="_top" xlink:title=" ">
<polygon fill="white" stroke="black" points="0,-0.5 0,-19.5 116,-19.5 116,-0.5 0,-0.5"/>
<text text-anchor="middle" x="58" y="-7.5" font-family="Helvetica,sans-Serif" font-size="10.00">ConductionInterior.C</text>
</a>
</g>
</g>
<!-- Node1&#45;&gt;Node2 -->
<g id="edge1" class="edge">
<title>Node1&#45;&gt;Node2</title>
<path fill="none" stroke="midnightblue" d="M249.28,-54.22C204.11,-44.01 137.23,-28.9 95.69,-19.52"/>
<polygon fill="midnightblue" stroke="midnightblue" points="248.6,-57.65 259.13,-56.44 250.15,-50.83 248.6,-57.65"/>
</g>
<!-- Node3 -->
<g id="node3" class="node">
<title>Node3</title>
<g id="a_node3"><a xlink:href="_green_gauss_gradient_interior_8_c.html" target="_top" xlink:title=" ">
<polygon fill="white" stroke="black" points="134,-0.5 134,-19.5 296,-19.5 296,-0.5 134,-0.5"/>
<text text-anchor="middle" x="215" y="-7.5" font-family="Helvetica,sans-Serif" font-size="10.00">GreenGaussGradientInterior.C</text>
</a>
</g>
</g>
<!-- Node1&#45;&gt;Node3 -->
<g id="edge2" class="edge">
<title>Node1&#45;&gt;Node3</title>
<path fill="none" stroke="midnightblue" d="M275.17,-50.62C260.19,-40.76 240.8,-27.99 228.14,-19.65"/>
<polygon fill="midnightblue" stroke="midnightblue" points="273.55,-53.75 283.83,-56.32 277.4,-47.9 273.55,-53.75"/>
</g>
<!-- Node4 -->
<g id="node4" class="node">
<title>Node4</title>
<g id="a_node4"><a xlink:href="_max_courant_reynolds_8_c.html" target="_top" xlink:title=" ">
<polygon fill="white" stroke="black" points="314.5,-0.5 314.5,-19.5 445.5,-19.5 445.5,-0.5 314.5,-0.5"/>
<text text-anchor="middle" x="380" y="-7.5" font-family="Helvetica,sans-Serif" font-size="10.00">MaxCourantReynolds.C</text>
</a>
</g>
</g>
<!-- Node1&#45;&gt;Node4 -->
<g id="edge3" class="edge">
<title>Node1&#45;&gt;Node4</title>
<path fill="none" stroke="midnightblue" d="M319.1,-50.62C334.26,-40.76 353.88,-27.99 366.7,-19.65"/>
<polygon fill="midnightblue" stroke="midnightblue" points="316.81,-47.94 310.34,-56.32 320.63,-53.8 316.81,-47.94"/>
</g>
<!-- Node5 -->
<g id="node5" class="node">
<title>Node5</title>
<g id="a_node5"><a xlink:href="_momentum_interior_8_c.html" target="_top" xlink:title=" ">
<polygon fill="white" stroke="black" points="463.5,-0.5 463.5,-19.5 580.5,-19.5 580.5,-0.5 463.5,-0.5"/>
<text text-anchor="middle" x="522" y="-7.5" font-family="Helvetica,sans-Serif" font-size="10.00">MomentumInterior.C</text>
</a>
</g>
</g>
<!-- Node1&#45;&gt;Node5 -->
<g id="edge4" class="edge">
<title>Node1&#45;&gt;Node5</title>
<path fill="none" stroke="midnightblue" d="M342.47,-54.09C384.97,-43.89 447.58,-28.86 486.51,-19.52"/>
<polygon fill="midnightblue" stroke="midnightblue" points="341.56,-50.71 332.65,-56.44 343.19,-57.51 341.56,-50.71"/>
</g>
</g>
</svg>
