<?xml version="1.0" encoding="UTF-8" standalone="no"?>
<!DOCTYPE svg PUBLIC "-//W3C//DTD SVG 1.1//EN"
 "http://www.w3.org/Graphics/SVG/1.1/DTD/svg11.dtd">
<!-- Generated by graphviz version 2.43.0 (0)
 -->
<!-- Title: EnthalpyPropertyEvaluator.h Pages: 1 -->
<svg width="804pt" height="218pt"
 viewBox="0.00 0.00 803.50 218.00" xmlns="http://www.w3.org/2000/svg" xmlns:xlink="http://www.w3.org/1999/xlink">
<g id="graph0" class="graph" transform="scale(1 1) rotate(0) translate(4 214)">
<title>EnthalpyPropertyEvaluator.h</title>
<polygon fill="white" stroke="transparent" points="-4,4 -4,-214 799.5,-214 799.5,4 -4,4"/>
<!-- Node1 -->
<g id="node1" class="node">
<title>Node1</title>
<g id="a_node1"><a xlink:title=" ">
<polygon fill="#bfbfbf" stroke="black" points="77,-190.5 77,-209.5 232,-209.5 232,-190.5 77,-190.5"/>
<text text-anchor="middle" x="154.5" y="-197.5" font-family="Helvetica,sans-Serif" font-size="10.00">EnthalpyPropertyEvaluator.h</text>
</a>
</g>
</g>
<!-- Node2 -->
<g id="node2" class="node">
<title>Node2</title>
<g id="a_node2"><a xlink:href="_polynomial_property_evaluator_8h.html" target="_top" xlink:title=" ">
<polygon fill="white" stroke="black" points="69.5,-123.5 69.5,-153.5 239.5,-153.5 239.5,-123.5 69.5,-123.5"/>
<text text-anchor="start" x="77.5" y="-141.5" font-family="Helvetica,sans-Serif" font-size="10.00">property_evaluator</text>
<text text-anchor="middle" x="154.5" y="-130.5" font-family="Helvetica,sans-Serif" font-size="10.00">/PolynomialPropertyEvaluator.h</text>
</a>
</g>
</g>
<!-- Node1&#45;&gt;Node2 -->
<g id="edge1" class="edge">
<title>Node1&#45;&gt;Node2</title>
<path fill="none" stroke="midnightblue" d="M154.5,-190.48C154.5,-183.47 154.5,-173.19 154.5,-163.7"/>
<polygon fill="midnightblue" stroke="midnightblue" points="158,-163.52 154.5,-153.52 151,-163.52 158,-163.52"/>
</g>
<!-- Node5 -->
<g id="node5" class="node">
<title>Node5</title>
<g id="a_node5"><a xlink:title=" ">
<polygon fill="white" stroke="#bfbfbf" points="0,-0.5 0,-19.5 47,-19.5 47,-0.5 0,-0.5"/>
<text text-anchor="middle" x="23.5" y="-7.5" font-family="Helvetica,sans-Serif" font-size="10.00">vector</text>
</a>
</g>
</g>
<!-- Node1&#45;&gt;Node5 -->
<g id="edge16" class="edge">
<title>Node1&#45;&gt;Node5</title>
<path fill="none" stroke="midnightblue" d="M113.78,-190.47C90.14,-183.82 61.06,-172.5 40.5,-154 6.12,-123.07 -3.25,-101.42 5.5,-56 7.29,-46.7 10.98,-36.89 14.56,-28.8"/>
<polygon fill="midnightblue" stroke="midnightblue" points="17.77,-30.2 18.88,-19.66 11.44,-27.21 17.77,-30.2"/>
</g>
<!-- Node6 -->
<g id="node6" class="node">
<title>Node6</title>
<g id="a_node6"><a xlink:href="_field_type_def_8h.html" target="_top" xlink:title=" ">
<polygon fill="white" stroke="black" points="345.5,-62 345.5,-81 433.5,-81 433.5,-62 345.5,-62"/>
<text text-anchor="middle" x="389.5" y="-69" font-family="Helvetica,sans-Serif" font-size="10.00">FieldTypeDef.h</text>
</a>
</g>
</g>
<!-- Node1&#45;&gt;Node6 -->
<g id="edge13" class="edge">
<title>Node1&#45;&gt;Node6</title>
<path fill="none" stroke="midnightblue" d="M181.27,-190.43C205.07,-182.37 240.48,-169.29 269.5,-154 307.27,-134.11 347.63,-104.83 370.59,-87.31"/>
<polygon fill="midnightblue" stroke="midnightblue" points="372.99,-89.89 378.77,-81.01 368.71,-84.34 372.99,-89.89"/>
</g>
<!-- Node11 -->
<g id="node11" class="node">
<title>Node11</title>
<g id="a_node11"><a xlink:title=" ">
<polygon fill="white" stroke="#bfbfbf" points="14.5,-62 14.5,-81 58.5,-81 58.5,-62 14.5,-62"/>
<text text-anchor="middle" x="36.5" y="-69" font-family="Helvetica,sans-Serif" font-size="10.00">string</text>
</a>
</g>
</g>
<!-- Node1&#45;&gt;Node11 -->
<g id="edge14" class="edge">
<title>Node1&#45;&gt;Node11</title>
<path fill="none" stroke="midnightblue" d="M120.6,-190.35C100.49,-183.58 75.98,-172.18 60.5,-154 45.37,-136.23 39.77,-109.28 37.71,-91.3"/>
<polygon fill="midnightblue" stroke="midnightblue" points="41.18,-90.84 36.81,-81.19 34.21,-91.46 41.18,-90.84"/>
</g>
<!-- Node12 -->
<g id="node12" class="node">
<title>Node12</title>
<g id="a_node12"><a xlink:title=" ">
<polygon fill="white" stroke="#bfbfbf" points="248.5,-62 248.5,-81 286.5,-81 286.5,-62 248.5,-62"/>
<text text-anchor="middle" x="267.5" y="-69" font-family="Helvetica,sans-Serif" font-size="10.00">map</text>
</a>
</g>
</g>
<!-- Node1&#45;&gt;Node12 -->
<g id="edge15" class="edge">
<title>Node1&#45;&gt;Node12</title>
<path fill="none" stroke="midnightblue" d="M189.69,-190.35C209.76,-183.66 233.77,-172.34 248.5,-154 262.9,-136.07 266.76,-109.17 267.6,-91.23"/>
<polygon fill="midnightblue" stroke="midnightblue" points="271.1,-91.23 267.81,-81.16 264.1,-91.08 271.1,-91.23"/>
</g>
<!-- Node3 -->
<g id="node3" class="node">
<title>Node3</title>
<g id="a_node3"><a xlink:href="_property_evaluator_8h.html" target="_top" xlink:title=" ">
<polygon fill="white" stroke="black" points="114.5,-56.5 114.5,-86.5 230.5,-86.5 230.5,-56.5 114.5,-56.5"/>
<text text-anchor="start" x="122.5" y="-74.5" font-family="Helvetica,sans-Serif" font-size="10.00">property_evaluator</text>
<text text-anchor="middle" x="172.5" y="-63.5" font-family="Helvetica,sans-Serif" font-size="10.00">/PropertyEvaluator.h</text>
</a>
</g>
</g>
<!-- Node2&#45;&gt;Node3 -->
<g id="edge2" class="edge">
<title>Node2&#45;&gt;Node3</title>
<path fill="none" stroke="midnightblue" d="M158.41,-123.4C160.6,-115.47 163.4,-105.38 165.92,-96.27"/>
<polygon fill="midnightblue" stroke="midnightblue" points="169.31,-97.15 168.6,-86.58 162.56,-95.28 169.31,-97.15"/>
</g>
<!-- Node2&#45;&gt;Node5 -->
<g id="edge12" class="edge">
<title>Node2&#45;&gt;Node5</title>
<path fill="none" stroke="midnightblue" d="M139.98,-123.48C115.46,-99.8 65.97,-52.02 40.11,-27.04"/>
<polygon fill="midnightblue" stroke="midnightblue" points="42.23,-24.22 32.6,-19.79 37.36,-29.25 42.23,-24.22"/>
</g>
<!-- Node2&#45;&gt;Node6 -->
<g id="edge5" class="edge">
<title>Node2&#45;&gt;Node6</title>
<path fill="none" stroke="midnightblue" d="M205.2,-123.48C248.24,-111.57 309.18,-94.72 349.02,-83.7"/>
<polygon fill="midnightblue" stroke="midnightblue" points="349.96,-87.07 358.67,-81.03 348.09,-80.32 349.96,-87.07"/>
</g>
<!-- Node2&#45;&gt;Node11 -->
<g id="edge10" class="edge">
<title>Node2&#45;&gt;Node11</title>
<path fill="none" stroke="midnightblue" d="M128.9,-123.4C108.65,-112.24 80.58,-96.78 60.71,-85.83"/>
<polygon fill="midnightblue" stroke="midnightblue" points="62.39,-82.77 51.94,-81.01 59.01,-88.9 62.39,-82.77"/>
</g>
<!-- Node2&#45;&gt;Node12 -->
<g id="edge11" class="edge">
<title>Node2&#45;&gt;Node12</title>
<path fill="none" stroke="midnightblue" d="M179.02,-123.4C198.23,-112.34 224.8,-97.06 243.8,-86.13"/>
<polygon fill="midnightblue" stroke="midnightblue" points="245.79,-89.03 252.71,-81.01 242.3,-82.96 245.79,-89.03"/>
</g>
<!-- Node4 -->
<g id="node4" class="node">
<title>Node4</title>
<g id="a_node4"><a xlink:title=" ">
<polygon fill="white" stroke="#bfbfbf" points="65,-0.5 65,-19.5 206,-19.5 206,-0.5 65,-0.5"/>
<text text-anchor="middle" x="135.5" y="-7.5" font-family="Helvetica,sans-Serif" font-size="10.00">stk_mesh/base/Entity.hpp</text>
</a>
</g>
</g>
<!-- Node3&#45;&gt;Node4 -->
<g id="edge3" class="edge">
<title>Node3&#45;&gt;Node4</title>
<path fill="none" stroke="midnightblue" d="M163.73,-56.4C158.52,-48.02 151.87,-37.33 146.33,-28.42"/>
<polygon fill="midnightblue" stroke="midnightblue" points="149.14,-26.3 140.88,-19.66 143.19,-30 149.14,-26.3"/>
</g>
<!-- Node3&#45;&gt;Node5 -->
<g id="edge4" class="edge">
<title>Node3&#45;&gt;Node5</title>
<path fill="none" stroke="midnightblue" d="M137.19,-56.4C112.08,-46.37 78.66,-33.03 54.56,-23.4"/>
<polygon fill="midnightblue" stroke="midnightblue" points="55.77,-20.12 45.18,-19.66 53.17,-26.62 55.77,-20.12"/>
</g>
<!-- Node7 -->
<g id="node7" class="node">
<title>Node7</title>
<g id="a_node7"><a xlink:title=" ">
<polygon fill="white" stroke="#bfbfbf" points="482,-0.5 482,-19.5 643,-19.5 643,-0.5 482,-0.5"/>
<text text-anchor="middle" x="562.5" y="-7.5" font-family="Helvetica,sans-Serif" font-size="10.00">stk_mesh/base/FieldBase.hpp</text>
</a>
</g>
</g>
<!-- Node6&#45;&gt;Node7 -->
<g id="edge6" class="edge">
<title>Node6&#45;&gt;Node7</title>
<path fill="none" stroke="midnightblue" d="M414.29,-61.98C444.09,-51.72 494.29,-34.46 527.9,-22.9"/>
<polygon fill="midnightblue" stroke="midnightblue" points="529.44,-26.07 537.76,-19.51 527.16,-19.45 529.44,-26.07"/>
</g>
<!-- Node8 -->
<g id="node8" class="node">
<title>Node8</title>
<g id="a_node8"><a xlink:title=" ">
<polygon fill="white" stroke="#bfbfbf" points="661.5,-0.5 661.5,-19.5 795.5,-19.5 795.5,-0.5 661.5,-0.5"/>
<text text-anchor="middle" x="728.5" y="-7.5" font-family="Helvetica,sans-Serif" font-size="10.00">stk_mesh/base/Ngp.hpp</text>
</a>
</g>
</g>
<!-- Node6&#45;&gt;Node8 -->
<g id="edge7" class="edge">
<title>Node6&#45;&gt;Node8</title>
<path fill="none" stroke="midnightblue" d="M433.82,-62.72C494.33,-52.1 602.95,-33.04 670.07,-21.26"/>
<polygon fill="midnightblue" stroke="midnightblue" points="670.82,-24.68 680.06,-19.5 669.61,-17.78 670.82,-24.68"/>
</g>
<!-- Node9 -->
<g id="node9" class="node">
<title>Node9</title>
<g id="a_node9"><a xlink:title=" ">
<polygon fill="white" stroke="#bfbfbf" points="224,-0.5 224,-19.5 381,-19.5 381,-0.5 224,-0.5"/>
<text text-anchor="middle" x="302.5" y="-7.5" font-family="Helvetica,sans-Serif" font-size="10.00">stk_mesh/base/NgpField.hpp</text>
</a>
</g>
</g>
<!-- Node6&#45;&gt;Node9 -->
<g id="edge8" class="edge">
<title>Node6&#45;&gt;Node9</title>
<path fill="none" stroke="midnightblue" d="M377.04,-61.98C363.08,-52.43 340.24,-36.81 323.51,-25.37"/>
<polygon fill="midnightblue" stroke="midnightblue" points="325.17,-22.27 314.94,-19.51 321.22,-28.04 325.17,-22.27"/>
</g>
<!-- Node10 -->
<g id="node10" class="node">
<title>Node10</title>
<g id="a_node10"><a xlink:title=" ">
<polygon fill="white" stroke="#bfbfbf" points="399,-0.5 399,-19.5 464,-19.5 464,-0.5 399,-0.5"/>
<text text-anchor="middle" x="431.5" y="-7.5" font-family="Helvetica,sans-Serif" font-size="10.00">functional</text>
</a>
</g>
</g>
<!-- Node6&#45;&gt;Node10 -->
<g id="edge9" class="edge">
<title>Node6&#45;&gt;Node10</title>
<path fill="none" stroke="midnightblue" d="M395.52,-61.98C401.76,-53.14 411.67,-39.09 419.52,-27.98"/>
<polygon fill="midnightblue" stroke="midnightblue" points="422.59,-29.7 425.49,-19.51 416.87,-25.66 422.59,-29.7"/>
</g>
</g>
</svg>
