<?xml version="1.0" encoding="UTF-8" standalone="no"?>
<!DOCTYPE svg PUBLIC "-//W3C//DTD SVG 1.1//EN"
 "http://www.w3.org/Graphics/SVG/1.1/DTD/svg11.dtd">
<!-- Generated by graphviz version 2.43.0 (0)
 -->
<!-- Title: FieldFunctions.h Pages: 1 -->
<!--zoomable 95 -->
<svg id="main" version="1.1" xmlns="http://www.w3.org/2000/svg" xmlns:xlink="http://www.w3.org/1999/xlink" xml:space="preserve" onload="init(evt)">
<style type="text/css"><![CDATA[
.edge:hover path { stroke: red; }
.edge:hover polygon { stroke: red; fill: red; }
]]></style>
<script type="text/javascript"><![CDATA[
var edges = document.getElementsByTagName('g');
if (edges && edges.length) {
  for (var i=0;i<edges.length;i++) {
    if (edges[i].id.substr(0,4)=='edge') {
      edges[i].setAttribute('class','edge');
    }
  }
}
]]></script>
        <defs>
                <circle id="rim" cx="0" cy="0" r="7"/>
                <circle id="rim2" cx="0" cy="0" r="3.5"/>
                <g id="zoomPlus">
                        <use xlink:href="#rim" fill="#404040">
                                <set attributeName="fill" to="#808080" begin="zoomplus.mouseover" end="zoomplus.mouseout"/>
                        </use>
                        <path d="M-4,0h8M0,-4v8" fill="none" stroke="white" stroke-width="1.5" pointer-events="none"/>
                </g>
                <g id="zoomMin">
                        <use xlink:href="#rim" fill="#404040">
                                <set attributeName="fill" to="#808080" begin="zoomminus.mouseover" end="zoomminus.mouseout"/>
                        </use>
                        <path d="M-4,0h8" fill="none" stroke="white" stroke-width="1.5" pointer-events="none"/>
                </g>
                <g id="dirArrow">
                        <path fill="none" stroke="white" stroke-width="1.5" d="M0,-3.0v7 M-2.5,-0.5L0,-3.0L2.5,-0.5"/>
                </g>
               <g id="resetDef">
                       <use xlink:href="#rim2" fill="#404040">
                               <set attributeName="fill" to="#808080" begin="reset.mouseover" end="reset.mouseout"/>
                       </use>
               </g>
        </defs>

<script type="text/javascript">
var viewWidth = 2113;
var viewHeight = 95;
var sectionId = 'dynsection-1';
</script>
<script xlink:href="svgpan.js"/>
<svg id="graph" class="graph">
<g id="viewport">
<title>FieldFunctions.h</title>
<polygon fill="white" stroke="transparent" points="-4,4 -4,-91 2109,-91 2109,4 -4,4"/>
<!-- Node1 -->
<g id="node1" class="node">
<title>Node1</title>
<g id="a_node1"><a xlink:title=" ">
<polygon fill="#bfbfbf" stroke="black" points="942.5,-67.5 942.5,-86.5 1037.5,-86.5 1037.5,-67.5 942.5,-67.5"/>
<text text-anchor="middle" x="990" y="-74.5" font-family="Helvetica,sans-Serif" font-size="10.00">FieldFunctions.h</text>
</a>
</g>
</g>
<!-- Node2 -->
<g id="node2" class="node">
<title>Node2</title>
<g id="a_node2"><a xlink:href="_chien_k_epsilon_equation_system_8_c.html" target="_top" xlink:title=" ">
<polygon fill="white" stroke="black" points="0,-6 0,-25 176,-25 176,-6 0,-6"/>
<text text-anchor="middle" x="88" y="-13" font-family="Helvetica,sans-Serif" font-size="10.00">ChienKEpsilonEquationSystem.C</text>
</a>
</g>
</g>
<!-- Node1&#45;&gt;Node2 -->
<g id="edge1" class="edge">
<title>Node1&#45;&gt;Node2</title>
<path fill="none" stroke="midnightblue" d="M931.84,-74.63C799.01,-71.09 463.27,-59.82 184,-31 169.25,-29.48 153.29,-27.29 138.7,-25.07"/>
<polygon fill="midnightblue" stroke="midnightblue" points="932.09,-78.14 942.18,-74.9 932.28,-71.14 932.09,-78.14"/>
</g>
<!-- Node3 -->
<g id="node3" class="node">
<title>Node3</title>
<g id="a_node3"><a xlink:href="_enthalpy_equation_system_8_c.html" target="_top" xlink:title=" ">
<polygon fill="white" stroke="black" points="193.5,-6 193.5,-25 342.5,-25 342.5,-6 193.5,-6"/>
<text text-anchor="middle" x="268" y="-13" font-family="Helvetica,sans-Serif" font-size="10.00">EnthalpyEquationSystem.C</text>
</a>
</g>
</g>
<!-- Node1&#45;&gt;Node3 -->
<g id="edge2" class="edge">
<title>Node1&#45;&gt;Node3</title>
<path fill="none" stroke="midnightblue" d="M932.14,-73.87C819.91,-69.3 564.99,-56.83 352,-31 339.07,-29.43 325.11,-27.23 312.34,-25.01"/>
<polygon fill="midnightblue" stroke="midnightblue" points="932.09,-77.37 942.22,-74.27 932.37,-70.37 932.09,-77.37"/>
</g>
<!-- Node4 -->
<g id="node4" class="node">
<title>Node4</title>
<g id="a_node4"><a xlink:href="_field_functions_8_c.html" target="_top" xlink:title=" ">
<polygon fill="white" stroke="black" points="361,-6 361,-25 457,-25 457,-6 361,-6"/>
<text text-anchor="middle" x="409" y="-13" font-family="Helvetica,sans-Serif" font-size="10.00">FieldFunctions.C</text>
</a>
</g>
</g>
<!-- Node1&#45;&gt;Node4 -->
<g id="edge3" class="edge">
<title>Node1&#45;&gt;Node4</title>
<path fill="none" stroke="midnightblue" d="M932.17,-74.12C835.18,-70.28 633.87,-59.36 466,-31 457.04,-29.49 447.42,-27.27 438.68,-25.03"/>
<polygon fill="midnightblue" stroke="midnightblue" points="932.22,-77.63 942.34,-74.51 932.49,-70.63 932.22,-77.63"/>
</g>
<!-- Node5 -->
<g id="node5" class="node">
<title>Node5</title>
<g id="a_node5"><a xlink:href="_gamma_equation_system_8_c.html" target="_top" xlink:title=" ">
<polygon fill="white" stroke="black" points="475.5,-6 475.5,-25 620.5,-25 620.5,-6 475.5,-6"/>
<text text-anchor="middle" x="548" y="-13" font-family="Helvetica,sans-Serif" font-size="10.00">GammaEquationSystem.C</text>
</a>
</g>
</g>
<!-- Node1&#45;&gt;Node5 -->
<g id="edge4" class="edge">
<title>Node1&#45;&gt;Node5</title>
<path fill="none" stroke="midnightblue" d="M932.32,-69.7C861.13,-61.72 736.41,-47.05 630,-31 618.28,-29.23 605.65,-27.11 593.9,-25.04"/>
<polygon fill="midnightblue" stroke="midnightblue" points="932.11,-73.2 942.43,-70.83 932.88,-66.24 932.11,-73.2"/>
</g>
<!-- Node6 -->
<g id="node6" class="node">
<title>Node6</title>
<g id="a_node6"><a xlink:href="_low_mach_equation_system_8_c.html" target="_top" xlink:title=" ">
<polygon fill="white" stroke="black" points="639,-6 639,-25 791,-25 791,-6 639,-6"/>
<text text-anchor="middle" x="715" y="-13" font-family="Helvetica,sans-Serif" font-size="10.00">LowMachEquationSystem.C</text>
</a>
</g>
</g>
<!-- Node1&#45;&gt;Node6 -->
<g id="edge5" class="edge">
<title>Node1&#45;&gt;Node6</title>
<path fill="none" stroke="midnightblue" d="M940.69,-65.33C887.36,-53.79 803.41,-35.63 754.33,-25.01"/>
<polygon fill="midnightblue" stroke="midnightblue" points="940.09,-68.78 950.6,-67.48 941.57,-61.94 940.09,-68.78"/>
</g>
<!-- Node7 -->
<g id="node7" class="node">
<title>Node7</title>
<g id="a_node7"><a xlink:href="_projected_nodal_gradient_equation_system_8_c.html" target="_top" xlink:title=" ">
<polygon fill="white" stroke="black" points="809,-0.5 809,-30.5 985,-30.5 985,-0.5 809,-0.5"/>
<text text-anchor="start" x="817" y="-18.5" font-family="Helvetica,sans-Serif" font-size="10.00">ProjectedNodalGradientEquation</text>
<text text-anchor="middle" x="897" y="-7.5" font-family="Helvetica,sans-Serif" font-size="10.00">System.C</text>
</a>
</g>
</g>
<!-- Node1&#45;&gt;Node7 -->
<g id="edge6" class="edge">
<title>Node1&#45;&gt;Node7</title>
<path fill="none" stroke="midnightblue" d="M968.13,-62.01C953.3,-52.52 933.76,-40.02 918.92,-30.52"/>
<polygon fill="midnightblue" stroke="midnightblue" points="966.37,-65.03 976.68,-67.48 970.14,-59.14 966.37,-65.03"/>
</g>
<!-- Node8 -->
<g id="node8" class="node">
<title>Node8</title>
<g id="a_node8"><a xlink:href="_shear_stress_transport_equation_system_8_c.html" target="_top" xlink:title=" ">
<polygon fill="white" stroke="black" points="1003,-0.5 1003,-30.5 1165,-30.5 1165,-0.5 1003,-0.5"/>
<text text-anchor="start" x="1011" y="-18.5" font-family="Helvetica,sans-Serif" font-size="10.00">ShearStressTransportEquation</text>
<text text-anchor="middle" x="1084" y="-7.5" font-family="Helvetica,sans-Serif" font-size="10.00">System.C</text>
</a>
</g>
</g>
<!-- Node1&#45;&gt;Node8 -->
<g id="edge7" class="edge">
<title>Node1&#45;&gt;Node8</title>
<path fill="none" stroke="midnightblue" d="M1012.1,-62.01C1027.1,-52.52 1046.84,-40.02 1061.85,-30.52"/>
<polygon fill="midnightblue" stroke="midnightblue" points="1010.05,-59.17 1003.47,-67.48 1013.79,-65.08 1010.05,-59.17"/>
</g>
<!-- Node9 -->
<g id="node9" class="node">
<title>Node9</title>
<g id="a_node9"><a xlink:href="_specific_dissipation_rate_equation_system_8_c.html" target="_top" xlink:title=" ">
<polygon fill="white" stroke="black" points="1183,-0.5 1183,-30.5 1357,-30.5 1357,-0.5 1183,-0.5"/>
<text text-anchor="start" x="1191" y="-18.5" font-family="Helvetica,sans-Serif" font-size="10.00">SpecificDissipationRateEquation</text>
<text text-anchor="middle" x="1270" y="-7.5" font-family="Helvetica,sans-Serif" font-size="10.00">System.C</text>
</a>
</g>
</g>
<!-- Node1&#45;&gt;Node9 -->
<g id="edge8" class="edge">
<title>Node1&#45;&gt;Node9</title>
<path fill="none" stroke="midnightblue" d="M1040.1,-65.35C1085.87,-55.63 1153.84,-41.18 1204.01,-30.52"/>
<polygon fill="midnightblue" stroke="midnightblue" points="1039.17,-61.97 1030.12,-67.48 1040.63,-68.82 1039.17,-61.97"/>
</g>
<!-- Node10 -->
<g id="node10" class="node">
<title>Node10</title>
<g id="a_node10"><a xlink:href="_surface_force_and_moment_algorithm_driver_8_c.html" target="_top" xlink:title=" ">
<polygon fill="white" stroke="black" points="1375.5,-0.5 1375.5,-30.5 1562.5,-30.5 1562.5,-0.5 1375.5,-0.5"/>
<text text-anchor="start" x="1383.5" y="-18.5" font-family="Helvetica,sans-Serif" font-size="10.00">SurfaceForceAndMomentAlgorithm</text>
<text text-anchor="middle" x="1469" y="-7.5" font-family="Helvetica,sans-Serif" font-size="10.00">Driver.C</text>
</a>
</g>
</g>
<!-- Node1&#45;&gt;Node10 -->
<g id="edge9" class="edge">
<title>Node1&#45;&gt;Node10</title>
<path fill="none" stroke="midnightblue" d="M1047.54,-69.49C1121.35,-61.05 1253.3,-45.68 1366,-31 1369.04,-30.6 1372.14,-30.2 1375.26,-29.78"/>
<polygon fill="midnightblue" stroke="midnightblue" points="1047.06,-66.02 1037.52,-70.63 1047.86,-72.98 1047.06,-66.02"/>
</g>
<!-- Node11 -->
<g id="node11" class="node">
<title>Node11</title>
<g id="a_node11"><a xlink:href="_total_dissipation_rate_equation_system_8_c.html" target="_top" xlink:title=" ">
<polygon fill="white" stroke="black" points="1581,-0.5 1581,-30.5 1741,-30.5 1741,-0.5 1581,-0.5"/>
<text text-anchor="start" x="1589" y="-18.5" font-family="Helvetica,sans-Serif" font-size="10.00">TotalDissipationRateEquation</text>
<text text-anchor="middle" x="1661" y="-7.5" font-family="Helvetica,sans-Serif" font-size="10.00">System.C</text>
</a>
</g>
</g>
<!-- Node1&#45;&gt;Node11 -->
<g id="edge10" class="edge">
<title>Node1&#45;&gt;Node11</title>
<path fill="none" stroke="midnightblue" d="M1047.71,-73.15C1152.43,-67.63 1380.65,-53.94 1572,-31 1574.95,-30.65 1577.96,-30.26 1580.99,-29.86"/>
<polygon fill="midnightblue" stroke="midnightblue" points="1047.47,-69.66 1037.66,-73.68 1047.83,-76.65 1047.47,-69.66"/>
</g>
<!-- Node12 -->
<g id="node12" class="node">
<title>Node12</title>
<g id="a_node12"><a xlink:href="_turb_kinetic_energy_equation_system_8_c.html" target="_top" xlink:title=" ">
<polygon fill="white" stroke="black" points="1759.5,-0.5 1759.5,-30.5 1906.5,-30.5 1906.5,-0.5 1759.5,-0.5"/>
<text text-anchor="start" x="1767.5" y="-18.5" font-family="Helvetica,sans-Serif" font-size="10.00">TurbKineticEnergyEquation</text>
<text text-anchor="middle" x="1833" y="-7.5" font-family="Helvetica,sans-Serif" font-size="10.00">System.C</text>
</a>
</g>
</g>
<!-- Node1&#45;&gt;Node12 -->
<g id="edge11" class="edge">
<title>Node1&#45;&gt;Node12</title>
<path fill="none" stroke="midnightblue" d="M1048.04,-74.81C1175.48,-71.72 1489.18,-61.4 1750,-31 1753.05,-30.64 1756.16,-30.25 1759.3,-29.82"/>
<polygon fill="midnightblue" stroke="midnightblue" points="1047.65,-71.32 1037.74,-75.06 1047.82,-78.32 1047.65,-71.32"/>
</g>
<!-- Node13 -->
<g id="node13" class="node">
<title>Node13</title>
<g id="a_node13"><a xlink:href="_wilcox_k_omega_equation_system_8_c.html" target="_top" xlink:title=" ">
<polygon fill="white" stroke="black" points="1925,-6 1925,-25 2105,-25 2105,-6 1925,-6"/>
<text text-anchor="middle" x="2015" y="-13" font-family="Helvetica,sans-Serif" font-size="10.00">WilcoxKOmegaEquationSystem.C</text>
</a>
</g>
</g>
<!-- Node1&#45;&gt;Node13 -->
<g id="edge12" class="edge">
<title>Node1&#45;&gt;Node13</title>
<path fill="none" stroke="midnightblue" d="M1047.9,-75.13C1193.88,-72.53 1588.64,-62.85 1916,-31 1931.47,-29.49 1948.23,-27.27 1963.48,-25.01"/>
<polygon fill="midnightblue" stroke="midnightblue" points="1047.77,-71.64 1037.83,-75.31 1047.89,-78.63 1047.77,-71.64"/>
</g>
</g>
</svg>
        <g id="navigator" transform="translate(0 0)" fill="#404254">
                <rect fill="#f2f5e9" fill-opacity="0.5" stroke="#606060" stroke-width=".5" x="0" y="0" width="60" height="60"/>
                <use id="zoomplus" xlink:href="#zoomPlus" x="17" y="9" onmousedown="handleZoom(evt,'in')"/>
                <use id="zoomminus" xlink:href="#zoomMin" x="42" y="9" onmousedown="handleZoom(evt,'out')"/>
                <use id="reset" xlink:href="#resetDef" x="30" y="36" onmousedown="handleReset()"/>
                <g id="arrowUp" xlink:href="#dirArrow" transform="translate(30 24)" onmousedown="handlePan(0,-1)">
                  <use xlink:href="#rim" fill="#404040">
                        <set attributeName="fill" to="#808080" begin="arrowUp.mouseover" end="arrowUp.mouseout"/>
                  </use>
                  <path fill="none" stroke="white" stroke-width="1.5" d="M0,-3.0v7 M-2.5,-0.5L0,-3.0L2.5,-0.5"/>
                </g>
                <g id="arrowRight" xlink:href="#dirArrow" transform="rotate(90) translate(36 -43)" onmousedown="handlePan(1,0)">
                  <use xlink:href="#rim" fill="#404040">
                        <set attributeName="fill" to="#808080" begin="arrowRight.mouseover" end="arrowRight.mouseout"/>
                  </use>
                  <path fill="none" stroke="white" stroke-width="1.5" d="M0,-3.0v7 M-2.5,-0.5L0,-3.0L2.5,-0.5"/>
                </g>
                <g id="arrowDown" xlink:href="#dirArrow" transform="rotate(180) translate(-30 -48)" onmousedown="handlePan(0,1)">
                  <use xlink:href="#rim" fill="#404040">
                        <set attributeName="fill" to="#808080" begin="arrowDown.mouseover" end="arrowDown.mouseout"/>
                  </use>
                  <path fill="none" stroke="white" stroke-width="1.5" d="M0,-3.0v7 M-2.5,-0.5L0,-3.0L2.5,-0.5"/>
                </g>
                <g id="arrowLeft" xlink:href="#dirArrow" transform="rotate(270) translate(-36 17)" onmousedown="handlePan(-1,0)">
                  <use xlink:href="#rim" fill="#404040">
                        <set attributeName="fill" to="#808080" begin="arrowLeft.mouseover" end="arrowLeft.mouseout"/>
                  </use>
                  <path fill="none" stroke="white" stroke-width="1.5" d="M0,-3.0v7 M-2.5,-0.5L0,-3.0L2.5,-0.5"/>
                </g>
        </g>
        <svg viewBox="0 0 15 15" width="100%" height="30px" preserveAspectRatio="xMaxYMin meet">
         <g id="arrow_out" transform="scale(0.3 0.3)">
          <a xlink:href="_field_functions_8h__dep__incl_org.svg" target="_base">
           <rect id="button" ry="5" rx="5" y="6" x="6" height="38" width="38"
                fill="#f2f5e9" fill-opacity="0.5" stroke="#606060" stroke-width="1.0"/>
           <path id="arrow"
             d="M 11.500037,31.436501 C 11.940474,20.09759 22.043105,11.32322 32.158766,21.979434 L 37.068811,17.246167 C 37.068811,17.246167 37.088388,32 37.088388,32 L 22.160133,31.978069 C 22.160133,31.978069 26.997745,27.140456 26.997745,27.140456 C 18.528582,18.264221 13.291696,25.230495 11.500037,31.436501 z"
             style="fill:#404040;"/>
          </a>
         </g>
        </svg>
</svg>
