<?xml version="1.0" encoding="UTF-8" standalone="no"?>
<!DOCTYPE svg PUBLIC "-//W3C//DTD SVG 1.1//EN"
 "http://www.w3.org/Graphics/SVG/1.1/DTD/svg11.dtd">
<!-- Generated by graphviz version 2.43.0 (0)
 -->
<!-- Title: FieldUpdateAlgDriver.h Pages: 1 -->
<svg width="671pt" height="203pt"
 viewBox="0.00 0.00 671.00 203.00" xmlns="http://www.w3.org/2000/svg" xmlns:xlink="http://www.w3.org/1999/xlink">
<g id="graph0" class="graph" transform="scale(1 1) rotate(0) translate(4 199)">
<title>FieldUpdateAlgDriver.h</title>
<!-- Node1 -->
<g id="Node000001" class="node">
<title>Node1</title>
<g id="a_Node000001"><a xlink:title=" ">
<polygon fill="#999999" stroke="#666666" points="383.5,-195 254.5,-195 254.5,-176 383.5,-176 383.5,-195"/>
<text text-anchor="middle" x="319" y="-183" font-family="Helvetica,sans-Serif" font-size="10.00">FieldUpdateAlgDriver.h</text>
</a>
</g>
</g>
<!-- Node2 -->
<g id="Node000002" class="node">
<title>Node2</title>
<g id="a_Node000002"><a xlink:href="_a_m_s_alg_driver_8h.html" target="_top" xlink:title=" ">
<polygon fill="white" stroke="#666666" points="300.5,-140 207.5,-140 207.5,-121 300.5,-121 300.5,-140"/>
<text text-anchor="middle" x="254" y="-128" font-family="Helvetica,sans-Serif" font-size="10.00">AMSAlgDriver.h</text>
</a>
</g>
</g>
<!-- Node1&#45;&gt;Node2 -->
<g id="edge1_Node000001_Node000002" class="edge">
<title>Node1&#45;&gt;Node2</title>
<g id="a_edge1_Node000001_Node000002"><a xlink:title=" ">
<path fill="none" stroke="#63b8ff" d="M300.73,-169.6C289.08,-160.11 274.4,-148.13 264.63,-140.17"/>
<polygon fill="#63b8ff" stroke="#63b8ff" points="298.59,-172.38 308.56,-175.98 303.02,-166.95 298.59,-172.38"/>
</a>
</g>
</g>
<!-- Node10 -->
<g id="Node000010" class="node">
<title>Node10</title>
<g id="a_Node000010"><a xlink:href="_field_update_alg_driver_8_c.html" target="_top" xlink:title=" ">
<polygon fill="white" stroke="#666666" points="449,-140 319,-140 319,-121 449,-121 449,-140"/>
<text text-anchor="middle" x="384" y="-128" font-family="Helvetica,sans-Serif" font-size="10.00">FieldUpdateAlgDriver.C</text>
</a>
</g>
</g>
<!-- Node1&#45;&gt;Node10 -->
<g id="edge10_Node000001_Node000010" class="edge">
<title>Node1&#45;&gt;Node10</title>
<g id="a_edge10_Node000001_Node000010"><a xlink:title=" ">
<path fill="none" stroke="#63b8ff" d="M337.27,-169.6C348.92,-160.11 363.6,-148.13 373.37,-140.17"/>
<polygon fill="#63b8ff" stroke="#63b8ff" points="334.98,-166.95 329.44,-175.98 339.41,-172.38 334.98,-166.95"/>
</a>
</g>
</g>
<!-- Node3 -->
<g id="Node000003" class="node">
<title>Node3</title>
<g id="a_Node000003"><a xlink:href="_a_m_s_alg_driver_8_c.html" target="_top" xlink:title=" ">
<polygon fill="white" stroke="#666666" points="160,-85 66,-85 66,-66 160,-66 160,-85"/>
<text text-anchor="middle" x="113" y="-73" font-family="Helvetica,sans-Serif" font-size="10.00">AMSAlgDriver.C</text>
</a>
</g>
</g>
<!-- Node2&#45;&gt;Node3 -->
<g id="edge2_Node000002_Node000003" class="edge">
<title>Node2&#45;&gt;Node3</title>
<g id="a_edge2_Node000002_Node000003"><a xlink:title=" ">
<path fill="none" stroke="#63b8ff" d="M221.86,-117.42C195.71,-107.59 159.41,-93.95 136.07,-85.17"/>
<polygon fill="#63b8ff" stroke="#63b8ff" points="220.75,-120.74 231.35,-120.98 223.22,-114.19 220.75,-120.74"/>
</a>
</g>
</g>
<!-- Node4 -->
<g id="Node000004" class="node">
<title>Node4</title>
<g id="a_Node000004"><a xlink:href="_low_mach_equation_system_8h.html" target="_top" xlink:title=" ">
<polygon fill="white" stroke="#666666" points="329.5,-85 178.5,-85 178.5,-66 329.5,-66 329.5,-85"/>
<text text-anchor="middle" x="254" y="-73" font-family="Helvetica,sans-Serif" font-size="10.00">LowMachEquationSystem.h</text>
</a>
</g>
</g>
<!-- Node2&#45;&gt;Node4 -->
<g id="edge3_Node000002_Node000004" class="edge">
<title>Node2&#45;&gt;Node4</title>
<g id="a_edge3_Node000002_Node000004"><a xlink:title=" ">
<path fill="none" stroke="#63b8ff" d="M254,-110.66C254,-101.93 254,-91.99 254,-85.09"/>
<polygon fill="#63b8ff" stroke="#63b8ff" points="250.5,-110.75 254,-120.75 257.5,-110.75 250.5,-110.75"/>
</a>
</g>
</g>
<!-- Node8 -->
<g id="Node000008" class="node">
<title>Node8</title>
<g id="a_Node000008"><a xlink:href="_volume_of_fluid_equation_system_8h.html" target="_top" xlink:title=" ">
<polygon fill="white" stroke="#666666" points="524.5,-85 347.5,-85 347.5,-66 524.5,-66 524.5,-85"/>
<text text-anchor="middle" x="436" y="-73" font-family="Helvetica,sans-Serif" font-size="10.00">VolumeOfFluidEquationSystem.h</text>
</a>
</g>
</g>
<!-- Node2&#45;&gt;Node8 -->
<g id="edge7_Node000002_Node000008" class="edge">
<title>Node2&#45;&gt;Node8</title>
<g id="a_edge7_Node000002_Node000008"><a xlink:title=" ">
<path fill="none" stroke="#63b8ff" d="M292.86,-118.18C326.9,-108.27 375.62,-94.08 406.53,-85.08"/>
<polygon fill="#63b8ff" stroke="#63b8ff" points="291.86,-114.83 283.24,-120.98 293.82,-121.55 291.86,-114.83"/>
</a>
</g>
</g>
<!-- Node5 -->
<g id="Node000005" class="node">
<title>Node5</title>
<g id="a_Node000005"><a xlink:href="_equation_systems_8_c.html" target="_top" xlink:title=" ">
<polygon fill="white" stroke="#666666" points="466.5,-24.5 355.5,-24.5 355.5,-5.5 466.5,-5.5 466.5,-24.5"/>
<text text-anchor="middle" x="411" y="-12.5" font-family="Helvetica,sans-Serif" font-size="10.00">EquationSystems.C</text>
</a>
</g>
</g>
<!-- Node4&#45;&gt;Node5 -->
<g id="edge4_Node000004_Node000005" class="edge">
<title>Node4&#45;&gt;Node5</title>
<g id="a_edge4_Node000004_Node000005"><a xlink:title=" ">
<path fill="none" stroke="#63b8ff" d="M286.53,-62.38C316.88,-51.07 361.39,-34.49 388.14,-24.52"/>
<polygon fill="#63b8ff" stroke="#63b8ff" points="284.98,-59.22 276.83,-65.99 287.42,-65.78 284.98,-59.22"/>
</a>
</g>
</g>
<!-- Node6 -->
<g id="Node000006" class="node">
<title>Node6</title>
<g id="a_Node000006"><a xlink:href="_low_mach_equation_system_8_c.html" target="_top" xlink:title=" ">
<polygon fill="white" stroke="#666666" points="152,-24.5 0,-24.5 0,-5.5 152,-5.5 152,-24.5"/>
<text text-anchor="middle" x="76" y="-12.5" font-family="Helvetica,sans-Serif" font-size="10.00">LowMachEquationSystem.C</text>
</a>
</g>
</g>
<!-- Node4&#45;&gt;Node6 -->
<g id="edge5_Node000004_Node000006" class="edge">
<title>Node4&#45;&gt;Node6</title>
<g id="a_edge5_Node000004_Node000006"><a xlink:title=" ">
<path fill="none" stroke="#63b8ff" d="M218.45,-62.82C184.02,-51.5 132.64,-34.62 101.91,-24.52"/>
<polygon fill="#63b8ff" stroke="#63b8ff" points="217.52,-66.2 228.12,-65.99 219.71,-59.55 217.52,-66.2"/>
</a>
</g>
</g>
<!-- Node7 -->
<g id="Node000007" class="node">
<title>Node7</title>
<g id="a_Node000007"><a xlink:href="_momentum_body_force_box_node_kernel_8_c.html" target="_top" xlink:title=" ">
<polygon fill="white" stroke="#666666" points="338,-30 170,-30 170,0 338,0 338,-30"/>
<text text-anchor="start" x="178" y="-18" font-family="Helvetica,sans-Serif" font-size="10.00">MomentumBodyForceBoxNode</text>
<text text-anchor="middle" x="254" y="-7" font-family="Helvetica,sans-Serif" font-size="10.00">Kernel.C</text>
</a>
</g>
</g>
<!-- Node4&#45;&gt;Node7 -->
<g id="edge6_Node000004_Node000007" class="edge">
<title>Node4&#45;&gt;Node7</title>
<g id="a_edge6_Node000004_Node000007"><a xlink:title=" ">
<path fill="none" stroke="#63b8ff" d="M254,-55.65C254,-47.36 254,-37.78 254,-30.11"/>
<polygon fill="#63b8ff" stroke="#63b8ff" points="250.5,-55.87 254,-65.87 257.5,-55.87 250.5,-55.87"/>
</a>
</g>
</g>
<!-- Node8&#45;&gt;Node5 -->
<g id="edge8_Node000008_Node000005" class="edge">
<title>Node8&#45;&gt;Node5</title>
<g id="a_edge8_Node000008_Node000005"><a xlink:title=" ">
<path fill="none" stroke="#63b8ff" d="M428.37,-56.65C423.84,-46.04 418.29,-33.06 414.7,-24.67"/>
<polygon fill="#63b8ff" stroke="#63b8ff" points="425.16,-58.05 432.31,-65.87 431.6,-55.3 425.16,-58.05"/>
</a>
</g>
</g>
<!-- Node9 -->
<g id="Node000009" class="node">
<title>Node9</title>
<g id="a_Node000009"><a xlink:href="_volume_of_fluid_equation_system_8_c.html" target="_top" xlink:title=" ">
<polygon fill="white" stroke="#666666" points="663,-24.5 485,-24.5 485,-5.5 663,-5.5 663,-24.5"/>
<text text-anchor="middle" x="574" y="-12.5" font-family="Helvetica,sans-Serif" font-size="10.00">VolumeOfFluidEquationSystem.C</text>
</a>
</g>
</g>
<!-- Node8&#45;&gt;Node9 -->
<g id="edge9_Node000008_Node000009" class="edge">
<title>Node8&#45;&gt;Node9</title>
<g id="a_edge9_Node000008_Node000009"><a xlink:title=" ">
<path fill="none" stroke="#63b8ff" d="M465.29,-62.08C491.95,-50.78 530.6,-34.4 553.91,-24.52"/>
<polygon fill="#63b8ff" stroke="#63b8ff" points="463.91,-58.87 456.07,-65.99 466.64,-65.31 463.91,-58.87"/>
</a>
</g>
</g>
</g>
</svg>
