<?xml version="1.0" encoding="UTF-8" standalone="no"?>
<!DOCTYPE svg PUBLIC "-//W3C//DTD SVG 1.1//EN"
 "http://www.w3.org/Graphics/SVG/1.1/DTD/svg11.dtd">
<!-- Generated by graphviz version 2.43.0 (0)
 -->
<!-- Title: FieldManager.C Pages: 1 -->
<svg width="844pt" height="302pt"
 viewBox="0.00 0.00 843.50 302.00" xmlns="http://www.w3.org/2000/svg" xmlns:xlink="http://www.w3.org/1999/xlink">
<g id="graph0" class="graph" transform="scale(1 1) rotate(0) translate(4 298)">
<title>FieldManager.C</title>
<!-- Node1 -->
<g id="Node000001" class="node">
<title>Node1</title>
<g id="a_Node000001"><a xlink:title=" ">
<polygon fill="#999999" stroke="#666666" points="623.5,-294 531.5,-294 531.5,-275 623.5,-275 623.5,-294"/>
<text text-anchor="middle" x="577.5" y="-282" font-family="Helvetica,sans-Serif" font-size="10.00">FieldManager.C</text>
</a>
</g>
</g>
<!-- Node2 -->
<g id="Node000002" class="node">
<title>Node2</title>
<g id="a_Node000002"><a xlink:href="_field_manager_8h.html" target="_top" xlink:title=" ">
<polygon fill="white" stroke="#666666" points="478,-239 387,-239 387,-220 478,-220 478,-239"/>
<text text-anchor="middle" x="432.5" y="-227" font-family="Helvetica,sans-Serif" font-size="10.00">FieldManager.h</text>
</a>
</g>
</g>
<!-- Node1&#45;&gt;Node2 -->
<g id="edge1_Node000001_Node000002" class="edge">
<title>Node1&#45;&gt;Node2</title>
<g id="a_edge1_Node000001_Node000002"><a xlink:title=" ">
<path fill="none" stroke="#63b8ff" d="M554.2,-274.98C530.25,-266.23 492.72,-252.51 465.67,-242.62"/>
<polygon fill="#63b8ff" stroke="#63b8ff" points="466.81,-239.32 456.22,-239.17 464.41,-245.89 466.81,-239.32"/>
</a>
</g>
</g>
<!-- Node19 -->
<g id="Node000019" class="node">
<title>Node19</title>
<g id="a_Node000019"><a xlink:title=" ">
<polygon fill="#e0e0e0" stroke="#999999" points="658.5,-239 496.5,-239 496.5,-220 658.5,-220 658.5,-239"/>
<text text-anchor="middle" x="577.5" y="-227" font-family="Helvetica,sans-Serif" font-size="10.00">stk_mesh/base/MetaData.hpp</text>
</a>
</g>
</g>
<!-- Node1&#45;&gt;Node19 -->
<g id="edge22_Node000001_Node000019" class="edge">
<title>Node1&#45;&gt;Node19</title>
<g id="a_edge22_Node000001_Node000019"><a xlink:title=" ">
<path fill="none" stroke="#63b8ff" d="M577.5,-274.75C577.5,-267.8 577.5,-257.85 577.5,-249.13"/>
<polygon fill="#63b8ff" stroke="#63b8ff" points="581,-249.09 577.5,-239.09 574,-249.09 581,-249.09"/>
</a>
</g>
</g>
<!-- Node20 -->
<g id="Node000020" class="node">
<title>Node20</title>
<g id="a_Node000020"><a xlink:title=" ">
<polygon fill="#e0e0e0" stroke="#999999" points="798,-239 677,-239 677,-220 798,-220 798,-239"/>
<text text-anchor="middle" x="737.5" y="-227" font-family="Helvetica,sans-Serif" font-size="10.00">stk_io/IossBridge.hpp</text>
</a>
</g>
</g>
<!-- Node1&#45;&gt;Node20 -->
<g id="edge23_Node000001_Node000020" class="edge">
<title>Node1&#45;&gt;Node20</title>
<g id="a_edge23_Node000001_Node000020"><a xlink:title=" ">
<path fill="none" stroke="#63b8ff" d="M603.21,-274.98C629.95,-266.13 672.03,-252.19 701.95,-242.28"/>
<polygon fill="#63b8ff" stroke="#63b8ff" points="703.2,-245.55 711.59,-239.08 701,-238.9 703.2,-245.55"/>
</a>
</g>
</g>
<!-- Node3 -->
<g id="Node000003" class="node">
<title>Node3</title>
<g id="a_Node000003"><a xlink:href="_field_registry_8h.html" target="_top" xlink:title=" ">
<polygon fill="white" stroke="#666666" points="290.5,-184 202.5,-184 202.5,-165 290.5,-165 290.5,-184"/>
<text text-anchor="middle" x="246.5" y="-172" font-family="Helvetica,sans-Serif" font-size="10.00">FieldRegistry.h</text>
</a>
</g>
</g>
<!-- Node2&#45;&gt;Node3 -->
<g id="edge2_Node000002_Node000003" class="edge">
<title>Node2&#45;&gt;Node3</title>
<g id="a_edge2_Node000002_Node000003"><a xlink:title=" ">
<path fill="none" stroke="#63b8ff" d="M402.62,-219.98C371.12,-211.01 321.33,-196.82 286.47,-186.89"/>
<polygon fill="#63b8ff" stroke="#63b8ff" points="287.19,-183.46 276.62,-184.08 285.28,-190.19 287.19,-183.46"/>
</a>
</g>
</g>
<!-- Node5 -->
<g id="Node000005" class="node">
<title>Node5</title>
<g id="a_Node000005"><a xlink:title=" ">
<polygon fill="#e0e0e0" stroke="#999999" points="125.5,-129 81.5,-129 81.5,-110 125.5,-110 125.5,-129"/>
<text text-anchor="middle" x="103.5" y="-117" font-family="Helvetica,sans-Serif" font-size="10.00">string</text>
</a>
</g>
</g>
<!-- Node2&#45;&gt;Node5 -->
<g id="edge20_Node000002_Node000005" class="edge">
<title>Node2&#45;&gt;Node5</title>
<g id="a_edge20_Node000002_Node000005"><a xlink:title=" ">
<path fill="none" stroke="#63b8ff" d="M386.79,-225.81C337.42,-221.6 257.27,-210.91 193.5,-184 165.59,-172.23 137.77,-150.71 120.6,-136.02"/>
<polygon fill="#63b8ff" stroke="#63b8ff" points="122.48,-133.01 112.66,-129.05 117.86,-138.27 122.48,-133.01"/>
</a>
</g>
</g>
<!-- Node13 -->
<g id="Node000013" class="node">
<title>Node13</title>
<g id="a_Node000013"><a xlink:title=" ">
<polygon fill="#e0e0e0" stroke="#999999" points="447,-74 378,-74 378,-55 447,-55 447,-74"/>
<text text-anchor="middle" x="412.5" y="-62" font-family="Helvetica,sans-Serif" font-size="10.00">type_traits</text>
</a>
</g>
</g>
<!-- Node2&#45;&gt;Node13 -->
<g id="edge21_Node000002_Node000013" class="edge">
<title>Node2&#45;&gt;Node13</title>
<g id="a_edge21_Node000002_Node000013"><a xlink:title=" ">
<path fill="none" stroke="#63b8ff" d="M431.42,-219.74C428.3,-194.31 419.2,-120.08 414.85,-84.69"/>
<polygon fill="#63b8ff" stroke="#63b8ff" points="418.27,-83.81 413.58,-74.31 411.32,-84.66 418.27,-83.81"/>
</a>
</g>
</g>
<!-- Node15 -->
<g id="Node000015" class="node">
<title>Node15</title>
<g id="a_Node000015"><a xlink:href="_smart_field_8h.html" target="_top" xlink:title=" ">
<polygon fill="white" stroke="#666666" points="543.5,-74 465.5,-74 465.5,-55 543.5,-55 543.5,-74"/>
<text text-anchor="middle" x="504.5" y="-62" font-family="Helvetica,sans-Serif" font-size="10.00">SmartField.h</text>
</a>
</g>
</g>
<!-- Node2&#45;&gt;Node15 -->
<g id="edge14_Node000002_Node000015" class="edge">
<title>Node2&#45;&gt;Node15</title>
<g id="a_edge14_Node000002_Node000015"><a xlink:title=" ">
<path fill="none" stroke="#63b8ff" d="M436.37,-219.74C447.7,-194.09 480.96,-118.78 496.43,-83.78"/>
<polygon fill="#63b8ff" stroke="#63b8ff" points="499.77,-84.87 500.61,-74.31 493.37,-82.04 499.77,-84.87"/>
</a>
</g>
</g>
<!-- Node17 -->
<g id="Node000017" class="node">
<title>Node17</title>
<g id="a_Node000017"><a xlink:title=" ">
<polygon fill="#e0e0e0" stroke="#999999" points="643,-184 480,-184 480,-165 643,-165 643,-184"/>
<text text-anchor="middle" x="561.5" y="-172" font-family="Helvetica,sans-Serif" font-size="10.00">stk_mesh/base/FieldState.hpp</text>
</a>
</g>
</g>
<!-- Node2&#45;&gt;Node17 -->
<g id="edge18_Node000002_Node000017" class="edge">
<title>Node2&#45;&gt;Node17</title>
<g id="a_edge18_Node000002_Node000017"><a xlink:title=" ">
<path fill="none" stroke="#63b8ff" d="M453.23,-219.98C474.26,-211.34 507.05,-197.87 531.04,-188.02"/>
<polygon fill="#63b8ff" stroke="#63b8ff" points="532.48,-191.21 540.4,-184.17 529.82,-184.73 532.48,-191.21"/>
</a>
</g>
</g>
<!-- Node18 -->
<g id="Node000018" class="node">
<title>Node18</title>
<g id="a_Node000018"><a xlink:title=" ">
<polygon fill="#e0e0e0" stroke="#999999" points="835.5,-184 661.5,-184 661.5,-165 835.5,-165 835.5,-184"/>
<text text-anchor="middle" x="748.5" y="-172" font-family="Helvetica,sans-Serif" font-size="10.00">stk_mesh/base/GetNgpField.hpp</text>
</a>
</g>
</g>
<!-- Node2&#45;&gt;Node18 -->
<g id="edge19_Node000002_Node000018" class="edge">
<title>Node2&#45;&gt;Node18</title>
<g id="a_edge19_Node000002_Node000018"><a xlink:title=" ">
<path fill="none" stroke="#63b8ff" d="M478.11,-220.85C533.32,-211.59 626.49,-195.96 687.75,-185.69"/>
<polygon fill="#63b8ff" stroke="#63b8ff" points="688.38,-189.13 697.67,-184.03 687.23,-182.23 688.38,-189.13"/>
</a>
</g>
</g>
<!-- Node4 -->
<g id="Node000004" class="node">
<title>Node4</title>
<g id="a_Node000004"><a xlink:title=" ">
<polygon fill="#e0e0e0" stroke="#999999" points="209,-129 144,-129 144,-110 209,-110 209,-129"/>
<text text-anchor="middle" x="176.5" y="-117" font-family="Helvetica,sans-Serif" font-size="10.00">stdexcept</text>
</a>
</g>
</g>
<!-- Node3&#45;&gt;Node4 -->
<g id="edge3_Node000003_Node000004" class="edge">
<title>Node3&#45;&gt;Node4</title>
<g id="a_edge3_Node000003_Node000004"><a xlink:title=" ">
<path fill="none" stroke="#63b8ff" d="M235.25,-164.98C224.7,-157 208.7,-144.88 196.06,-135.31"/>
<polygon fill="#63b8ff" stroke="#63b8ff" points="198.04,-132.42 187.95,-129.17 193.81,-138 198.04,-132.42"/>
</a>
</g>
</g>
<!-- Node3&#45;&gt;Node5 -->
<g id="edge4_Node000003_Node000005" class="edge">
<title>Node3&#45;&gt;Node5</title>
<g id="a_edge4_Node000003_Node000005"><a xlink:title=" ">
<path fill="none" stroke="#63b8ff" d="M223.52,-164.98C199.72,-156.16 162.34,-142.31 135.61,-132.4"/>
<polygon fill="#63b8ff" stroke="#63b8ff" points="136.54,-129.01 125.95,-128.82 134.11,-135.58 136.54,-129.01"/>
</a>
</g>
</g>
<!-- Node6 -->
<g id="Node000006" class="node">
<title>Node6</title>
<g id="a_Node000006"><a xlink:title=" ">
<polygon fill="#e0e0e0" stroke="#999999" points="265.5,-129 227.5,-129 227.5,-110 265.5,-110 265.5,-129"/>
<text text-anchor="middle" x="246.5" y="-117" font-family="Helvetica,sans-Serif" font-size="10.00">map</text>
</a>
</g>
</g>
<!-- Node3&#45;&gt;Node6 -->
<g id="edge5_Node000003_Node000006" class="edge">
<title>Node3&#45;&gt;Node6</title>
<g id="a_edge5_Node000003_Node000006"><a xlink:title=" ">
<path fill="none" stroke="#63b8ff" d="M246.5,-164.75C246.5,-157.8 246.5,-147.85 246.5,-139.13"/>
<polygon fill="#63b8ff" stroke="#63b8ff" points="250,-139.09 246.5,-129.09 243,-139.09 250,-139.09"/>
</a>
</g>
</g>
<!-- Node7 -->
<g id="Node000007" class="node">
<title>Node7</title>
<g id="a_Node000007"><a xlink:href="_field_definitions_8h.html" target="_top" xlink:title=" ">
<polygon fill="white" stroke="#666666" points="385,-129 284,-129 284,-110 385,-110 385,-129"/>
<text text-anchor="middle" x="334.5" y="-117" font-family="Helvetica,sans-Serif" font-size="10.00">FieldDefinitions.h</text>
</a>
</g>
</g>
<!-- Node3&#45;&gt;Node7 -->
<g id="edge6_Node000003_Node000007" class="edge">
<title>Node3&#45;&gt;Node7</title>
<g id="a_edge6_Node000003_Node000007"><a xlink:title=" ">
<path fill="none" stroke="#63b8ff" d="M260.64,-164.98C274.29,-156.77 295.19,-144.18 311.28,-134.49"/>
<polygon fill="#63b8ff" stroke="#63b8ff" points="313.34,-137.33 320.1,-129.17 309.73,-131.33 313.34,-137.33"/>
</a>
</g>
</g>
<!-- Node8 -->
<g id="Node000008" class="node">
<title>Node8</title>
<g id="a_Node000008"><a xlink:href="_field_type_def_8h.html" target="_top" xlink:title=" ">
<polygon fill="white" stroke="#666666" points="291.5,-74 203.5,-74 203.5,-55 291.5,-55 291.5,-74"/>
<text text-anchor="middle" x="247.5" y="-62" font-family="Helvetica,sans-Serif" font-size="10.00">FieldTypeDef.h</text>
</a>
</g>
</g>
<!-- Node7&#45;&gt;Node8 -->
<g id="edge7_Node000007_Node000008" class="edge">
<title>Node7&#45;&gt;Node8</title>
<g id="a_edge7_Node000007_Node000008"><a xlink:title=" ">
<path fill="none" stroke="#63b8ff" d="M320.52,-109.98C307.03,-101.77 286.37,-89.18 270.46,-79.49"/>
<polygon fill="#63b8ff" stroke="#63b8ff" points="272.09,-76.38 261.73,-74.17 268.45,-82.36 272.09,-76.38"/>
</a>
</g>
</g>
<!-- Node7&#45;&gt;Node13 -->
<g id="edge12_Node000007_Node000013" class="edge">
<title>Node7&#45;&gt;Node13</title>
<g id="a_edge12_Node000007_Node000013"><a xlink:title=" ">
<path fill="none" stroke="#63b8ff" d="M347.03,-109.98C358.9,-101.92 376.96,-89.65 391.11,-80.03"/>
<polygon fill="#63b8ff" stroke="#63b8ff" points="393.44,-82.69 399.74,-74.17 389.5,-76.9 393.44,-82.69"/>
</a>
</g>
</g>
<!-- Node14 -->
<g id="Node000014" class="node">
<title>Node14</title>
<g id="a_Node000014"><a xlink:title=" ">
<polygon fill="#e0e0e0" stroke="#999999" points="360,-74 309,-74 309,-55 360,-55 360,-74"/>
<text text-anchor="middle" x="334.5" y="-62" font-family="Helvetica,sans-Serif" font-size="10.00">variant</text>
</a>
</g>
</g>
<!-- Node7&#45;&gt;Node14 -->
<g id="edge13_Node000007_Node000014" class="edge">
<title>Node7&#45;&gt;Node14</title>
<g id="a_edge13_Node000007_Node000014"><a xlink:title=" ">
<path fill="none" stroke="#63b8ff" d="M334.5,-109.75C334.5,-102.8 334.5,-92.85 334.5,-84.13"/>
<polygon fill="#63b8ff" stroke="#63b8ff" points="338,-84.09 334.5,-74.09 331,-84.09 338,-84.09"/>
</a>
</g>
</g>
<!-- Node9 -->
<g id="Node000009" class="node">
<title>Node9</title>
<g id="a_Node000009"><a xlink:title=" ">
<polygon fill="#e0e0e0" stroke="#999999" points="244,-19 83,-19 83,0 244,0 244,-19"/>
<text text-anchor="middle" x="163.5" y="-7" font-family="Helvetica,sans-Serif" font-size="10.00">stk_mesh/base/FieldBase.hpp</text>
</a>
</g>
</g>
<!-- Node8&#45;&gt;Node9 -->
<g id="edge8_Node000008_Node000009" class="edge">
<title>Node8&#45;&gt;Node9</title>
<g id="a_edge8_Node000008_Node000009"><a xlink:title=" ">
<path fill="none" stroke="#63b8ff" d="M234,-54.98C221.1,-46.84 201.4,-34.41 186.1,-24.76"/>
<polygon fill="#63b8ff" stroke="#63b8ff" points="187.57,-21.55 177.24,-19.17 183.83,-27.47 187.57,-21.55"/>
</a>
</g>
</g>
<!-- Node10 -->
<g id="Node000010" class="node">
<title>Node10</title>
<g id="a_Node000010"><a xlink:title=" ">
<polygon fill="#e0e0e0" stroke="#999999" points="571.5,-19 437.5,-19 437.5,0 571.5,0 571.5,-19"/>
<text text-anchor="middle" x="504.5" y="-7" font-family="Helvetica,sans-Serif" font-size="10.00">stk_mesh/base/Ngp.hpp</text>
</a>
</g>
</g>
<!-- Node8&#45;&gt;Node10 -->
<g id="edge9_Node000008_Node000010" class="edge">
<title>Node8&#45;&gt;Node10</title>
<g id="a_edge9_Node000008_Node000010"><a xlink:title=" ">
<path fill="none" stroke="#63b8ff" d="M288.79,-54.98C333.43,-45.78 404.66,-31.09 452.95,-21.13"/>
<polygon fill="#63b8ff" stroke="#63b8ff" points="453.8,-24.53 462.88,-19.08 452.38,-17.67 453.8,-24.53"/>
</a>
</g>
</g>
<!-- Node11 -->
<g id="Node000011" class="node">
<title>Node11</title>
<g id="a_Node000011"><a xlink:title=" ">
<polygon fill="#e0e0e0" stroke="#999999" points="419,-19 262,-19 262,0 419,0 419,-19"/>
<text text-anchor="middle" x="340.5" y="-7" font-family="Helvetica,sans-Serif" font-size="10.00">stk_mesh/base/NgpField.hpp</text>
</a>
</g>
</g>
<!-- Node8&#45;&gt;Node11 -->
<g id="edge10_Node000008_Node000011" class="edge">
<title>Node8&#45;&gt;Node11</title>
<g id="a_edge10_Node000008_Node000011"><a xlink:title=" ">
<path fill="none" stroke="#63b8ff" d="M262.44,-54.98C277,-46.69 299.37,-33.94 316.43,-24.22"/>
<polygon fill="#63b8ff" stroke="#63b8ff" points="318.33,-27.16 325.29,-19.17 314.86,-21.08 318.33,-27.16"/>
</a>
</g>
</g>
<!-- Node12 -->
<g id="Node000012" class="node">
<title>Node12</title>
<g id="a_Node000012"><a xlink:title=" ">
<polygon fill="#e0e0e0" stroke="#999999" points="65,-19 0,-19 0,0 65,0 65,-19"/>
<text text-anchor="middle" x="32.5" y="-7" font-family="Helvetica,sans-Serif" font-size="10.00">functional</text>
</a>
</g>
</g>
<!-- Node8&#45;&gt;Node12 -->
<g id="edge11_Node000008_Node000012" class="edge">
<title>Node8&#45;&gt;Node12</title>
<g id="a_edge11_Node000008_Node000012"><a xlink:title=" ">
<path fill="none" stroke="#63b8ff" d="M212.96,-54.98C175.42,-45.73 115.42,-30.94 75.02,-20.98"/>
<polygon fill="#63b8ff" stroke="#63b8ff" points="75.74,-17.56 65.2,-18.56 74.07,-24.35 75.74,-17.56"/>
</a>
</g>
</g>
<!-- Node15&#45;&gt;Node10 -->
<g id="edge16_Node000015_Node000010" class="edge">
<title>Node15&#45;&gt;Node10</title>
<g id="a_edge16_Node000015_Node000010"><a xlink:title=" ">
<path fill="none" stroke="#63b8ff" d="M504.5,-54.75C504.5,-47.8 504.5,-37.85 504.5,-29.13"/>
<polygon fill="#63b8ff" stroke="#63b8ff" points="508,-29.09 504.5,-19.09 501,-29.09 508,-29.09"/>
</a>
</g>
</g>
<!-- Node15&#45;&gt;Node11 -->
<g id="edge17_Node000015_Node000011" class="edge">
<title>Node15&#45;&gt;Node11</title>
<g id="a_edge17_Node000015_Node000011"><a xlink:title=" ">
<path fill="none" stroke="#63b8ff" d="M478.15,-54.98C450.74,-46.13 407.61,-32.19 376.94,-22.28"/>
<polygon fill="#63b8ff" stroke="#63b8ff" points="377.65,-18.83 367.06,-19.08 375.5,-25.49 377.65,-18.83"/>
</a>
</g>
</g>
<!-- Node16 -->
<g id="Node000016" class="node">
<title>Node16</title>
<g id="a_Node000016"><a xlink:title=" ">
<polygon fill="#e0e0e0" stroke="#999999" points="703,-19 590,-19 590,0 703,0 703,-19"/>
<text text-anchor="middle" x="646.5" y="-7" font-family="Helvetica,sans-Serif" font-size="10.00">Kokkos_Macros.hpp</text>
</a>
</g>
</g>
<!-- Node15&#45;&gt;Node16 -->
<g id="edge15_Node000015_Node000016" class="edge">
<title>Node15&#45;&gt;Node16</title>
<g id="a_edge15_Node000015_Node000016"><a xlink:title=" ">
<path fill="none" stroke="#63b8ff" d="M527.31,-54.98C550.67,-46.27 587.2,-32.63 613.67,-22.75"/>
<polygon fill="#63b8ff" stroke="#63b8ff" points="615.13,-25.95 623.27,-19.17 612.68,-19.39 615.13,-25.95"/>
</a>
</g>
</g>
</g>
</svg>
