<?xml version="1.0" encoding="UTF-8" standalone="no"?>
<!DOCTYPE svg PUBLIC "-//W3C//DTD SVG 1.1//EN"
 "http://www.w3.org/Graphics/SVG/1.1/DTD/svg11.dtd">
<!-- Generated by graphviz version 2.43.0 (0)
 -->
<!-- Title: FieldHelpers.h Pages: 1 -->
<svg width="837pt" height="82pt"
 viewBox="0.00 0.00 837.00 82.00" xmlns="http://www.w3.org/2000/svg" xmlns:xlink="http://www.w3.org/1999/xlink">
<g id="graph0" class="graph" transform="scale(1 1) rotate(0) translate(4 78)">
<title>FieldHelpers.h</title>
<!-- Node1 -->
<g id="Node000001" class="node">
<title>Node1</title>
<g id="a_Node000001"><a xlink:title=" ">
<polygon fill="#999999" stroke="#666666" points="437.5,-74 351.5,-74 351.5,-55 437.5,-55 437.5,-74"/>
<text text-anchor="middle" x="394.5" y="-62" font-family="Helvetica,sans-Serif" font-size="10.00">FieldHelpers.h</text>
</a>
</g>
</g>
<!-- Node2 -->
<g id="Node000002" class="node">
<title>Node2</title>
<g id="a_Node000002"><a xlink:href="_continuity_mass_b_d_f_node_kernel_8_c.html" target="_top" xlink:title=" ">
<polygon fill="white" stroke="#666666" points="179,-19 0,-19 0,0 179,0 179,-19"/>
<text text-anchor="middle" x="89.5" y="-7" font-family="Helvetica,sans-Serif" font-size="10.00">ContinuityMassBDFNodeKernel.C</text>
</a>
</g>
</g>
<!-- Node1&#45;&gt;Node2 -->
<g id="edge1_Node000001_Node000002" class="edge">
<title>Node1&#45;&gt;Node2</title>
<g id="a_edge1_Node000001_Node000002"><a xlink:title=" ">
<path fill="none" stroke="#63b8ff" d="M341.53,-54.3C284.42,-44.37 194.23,-28.7 138.64,-19.04"/>
<polygon fill="#63b8ff" stroke="#63b8ff" points="341,-57.75 351.45,-56.02 342.19,-50.86 341,-57.75"/>
</a>
</g>
</g>
<!-- Node3 -->
<g id="Node000003" class="node">
<title>Node3</title>
<g id="a_Node000003"><a xlink:href="_field_helpers_8_c.html" target="_top" xlink:title=" ">
<polygon fill="white" stroke="#666666" points="284,-19 197,-19 197,0 284,0 284,-19"/>
<text text-anchor="middle" x="240.5" y="-7" font-family="Helvetica,sans-Serif" font-size="10.00">FieldHelpers.C</text>
</a>
</g>
</g>
<!-- Node1&#45;&gt;Node3 -->
<g id="edge2_Node000001_Node000003" class="edge">
<title>Node1&#45;&gt;Node3</title>
<g id="a_edge2_Node000001_Node000003"><a xlink:title=" ">
<path fill="none" stroke="#63b8ff" d="M360.12,-51.67C331.41,-41.79 291.14,-27.93 265.44,-19.08"/>
<polygon fill="#63b8ff" stroke="#63b8ff" points="359.16,-55.04 369.76,-54.98 361.44,-48.42 359.16,-55.04"/>
</a>
</g>
</g>
<!-- Node4 -->
<g id="Node000004" class="node">
<title>Node4</title>
<g id="a_Node000004"><a xlink:href="_momentum_mass_b_d_f_node_kernel_8_c.html" target="_top" xlink:title=" ">
<polygon fill="white" stroke="#666666" points="487,-19 302,-19 302,0 487,0 487,-19"/>
<text text-anchor="middle" x="394.5" y="-7" font-family="Helvetica,sans-Serif" font-size="10.00">MomentumMassBDFNodeKernel.C</text>
</a>
</g>
</g>
<!-- Node1&#45;&gt;Node4 -->
<g id="edge3_Node000001_Node000004" class="edge">
<title>Node1&#45;&gt;Node4</title>
<g id="a_edge3_Node000001_Node000004"><a xlink:title=" ">
<path fill="none" stroke="#63b8ff" d="M394.5,-44.66C394.5,-35.93 394.5,-25.99 394.5,-19.09"/>
<polygon fill="#63b8ff" stroke="#63b8ff" points="391,-44.75 394.5,-54.75 398,-44.75 391,-44.75"/>
</a>
</g>
</g>
<!-- Node5 -->
<g id="Node000005" class="node">
<title>Node5</title>
<g id="a_Node000005"><a xlink:href="_scalar_mass_b_d_f_node_kernel_8_c.html" target="_top" xlink:title=" ">
<polygon fill="white" stroke="#666666" points="662.5,-19 504.5,-19 504.5,0 662.5,0 662.5,-19"/>
<text text-anchor="middle" x="583.5" y="-7" font-family="Helvetica,sans-Serif" font-size="10.00">ScalarMassBDFNodeKernel.C</text>
</a>
</g>
</g>
<!-- Node1&#45;&gt;Node5 -->
<g id="edge4_Node000001_Node000005" class="edge">
<title>Node1&#45;&gt;Node5</title>
<g id="a_edge4_Node000001_Node000005"><a xlink:title=" ">
<path fill="none" stroke="#63b8ff" d="M434.85,-52.18C470.2,-42.27 520.8,-28.08 552.9,-19.08"/>
<polygon fill="#63b8ff" stroke="#63b8ff" points="433.55,-48.91 424.87,-54.98 435.44,-55.65 433.55,-48.91"/>
</a>
</g>
</g>
<!-- Node6 -->
<g id="Node000006" class="node">
<title>Node6</title>
<g id="a_Node000006"><a xlink:href="_v_o_f_mass_b_d_f_node_kernel_8_c.html" target="_top" xlink:title=" ">
<polygon fill="white" stroke="#666666" points="829,-19 680,-19 680,0 829,0 829,-19"/>
<text text-anchor="middle" x="754.5" y="-7" font-family="Helvetica,sans-Serif" font-size="10.00">VOFMassBDFNodeKernel.C</text>
</a>
</g>
</g>
<!-- Node1&#45;&gt;Node6 -->
<g id="edge5_Node000001_Node000006" class="edge">
<title>Node1&#45;&gt;Node6</title>
<g id="a_edge5_Node000001_Node000006"><a xlink:title=" ">
<path fill="none" stroke="#63b8ff" d="M447.83,-55.65C514.41,-45.85 627.85,-29.15 696.52,-19.04"/>
<polygon fill="#63b8ff" stroke="#63b8ff" points="446.95,-52.24 437.57,-57.16 447.97,-59.17 446.95,-52.24"/>
</a>
</g>
</g>
</g>
</svg>
