<?xml version="1.0" encoding="UTF-8" standalone="no"?>
<!DOCTYPE svg PUBLIC "-//W3C//DTD SVG 1.1//EN"
 "http://www.w3.org/Graphics/SVG/1.1/DTD/svg11.dtd">
<!-- Generated by graphviz version 2.43.0 (0)
 -->
<!-- Title: GaussLegendreQuadratureRule.C Pages: 1 -->
<svg width="225pt" height="151pt"
 viewBox="0.00 0.00 225.00 151.00" xmlns="http://www.w3.org/2000/svg" xmlns:xlink="http://www.w3.org/1999/xlink">
<g id="graph0" class="graph" transform="scale(1 1) rotate(0) translate(4 147)">
<title>GaussLegendreQuadratureRule.C</title>
<polygon fill="white" stroke="transparent" points="-4,4 -4,-147 221,-147 221,4 -4,4"/>
<!-- Node1 -->
<g id="node1" class="node">
<title>Node1</title>
<g id="a_node1"><a xlink:title=" ">
<polygon fill="#bfbfbf" stroke="black" points="39,-123.5 39,-142.5 217,-142.5 217,-123.5 39,-123.5"/>
<text text-anchor="middle" x="128" y="-130.5" font-family="Helvetica,sans-Serif" font-size="10.00">GaussLegendreQuadratureRule.C</text>
</a>
</g>
</g>
<!-- Node2 -->
<g id="node2" class="node">
<title>Node2</title>
<g id="a_node2"><a xlink:href="_gauss_legendre_quadrature_rule_8h.html" target="_top" xlink:title=" ">
<polygon fill="white" stroke="black" points="0,-56.5 0,-86.5 152,-86.5 152,-56.5 0,-56.5"/>
<text text-anchor="start" x="8" y="-74.5" font-family="Helvetica,sans-Serif" font-size="10.00">matrix_free/GaussLegendre</text>
<text text-anchor="middle" x="76" y="-63.5" font-family="Helvetica,sans-Serif" font-size="10.00">QuadratureRule.h</text>
</a>
</g>
</g>
<!-- Node1&#45;&gt;Node2 -->
<g id="edge1" class="edge">
<title>Node1&#45;&gt;Node2</title>
<path fill="none" stroke="midnightblue" d="M120.55,-123.48C113.9,-115.87 103.88,-104.4 95.02,-94.26"/>
<polygon fill="midnightblue" stroke="midnightblue" points="97.47,-91.75 88.26,-86.52 92.2,-96.36 97.47,-91.75"/>
</g>
<!-- Node3 -->
<g id="node3" class="node">
<title>Node3</title>
<g id="a_node3"><a xlink:title=" ">
<polygon fill="white" stroke="#bfbfbf" points="77,-0.5 77,-19.5 179,-19.5 179,-0.5 77,-0.5"/>
<text text-anchor="middle" x="128" y="-7.5" font-family="Helvetica,sans-Serif" font-size="10.00">Kokkos_Array.hpp</text>
</a>
</g>
</g>
<!-- Node1&#45;&gt;Node3 -->
<g id="edge3" class="edge">
<title>Node1&#45;&gt;Node3</title>
<path fill="none" stroke="midnightblue" d="M137.02,-123.34C145.07,-114.93 156.3,-101.36 161,-87 165.29,-73.91 165.29,-69.09 161,-56 157.51,-45.34 150.43,-35.12 143.71,-27.12"/>
<polygon fill="midnightblue" stroke="midnightblue" points="146.3,-24.76 137.02,-19.66 141.1,-29.44 146.3,-24.76"/>
</g>
<!-- Node2&#45;&gt;Node3 -->
<g id="edge2" class="edge">
<title>Node2&#45;&gt;Node3</title>
<path fill="none" stroke="midnightblue" d="M88.32,-56.4C95.96,-47.66 105.79,-36.41 113.76,-27.3"/>
<polygon fill="midnightblue" stroke="midnightblue" points="116.49,-29.49 120.43,-19.66 111.22,-24.88 116.49,-29.49"/>
</g>
</g>
</svg>
