<?xml version="1.0" encoding="UTF-8" standalone="no"?>
<!DOCTYPE svg PUBLIC "-//W3C//DTD SVG 1.1//EN"
 "http://www.w3.org/Graphics/SVG/1.1/DTD/svg11.dtd">
<!-- Generated by graphviz version 2.43.0 (0)
 -->
<!-- Title: GeometryBoundaryAlg.h Pages: 1 -->
<svg width="489pt" height="162pt"
 viewBox="0.00 0.00 489.00 162.00" xmlns="http://www.w3.org/2000/svg" xmlns:xlink="http://www.w3.org/1999/xlink">
<g id="graph0" class="graph" transform="scale(1 1) rotate(0) translate(4 158)">
<title>GeometryBoundaryAlg.h</title>
<polygon fill="white" stroke="transparent" points="-4,4 -4,-158 485,-158 485,4 -4,4"/>
<!-- Node1 -->
<g id="node1" class="node">
<title>Node1</title>
<g id="a_node1"><a xlink:title=" ">
<polygon fill="#bfbfbf" stroke="black" points="267.5,-134.5 267.5,-153.5 404.5,-153.5 404.5,-134.5 267.5,-134.5"/>
<text text-anchor="middle" x="336" y="-141.5" font-family="Helvetica,sans-Serif" font-size="10.00">GeometryBoundaryAlg.h</text>
</a>
</g>
</g>
<!-- Node2 -->
<g id="node2" class="node">
<title>Node2</title>
<g id="a_node2"><a xlink:href="_momentum_body_force_box_node_kernel_8h.html" target="_top" xlink:title=" ">
<polygon fill="white" stroke="black" points="81,-67.5 81,-97.5 249,-97.5 249,-67.5 81,-67.5"/>
<text text-anchor="start" x="89" y="-85.5" font-family="Helvetica,sans-Serif" font-size="10.00">MomentumBodyForceBoxNode</text>
<text text-anchor="middle" x="165" y="-74.5" font-family="Helvetica,sans-Serif" font-size="10.00">Kernel.h</text>
</a>
</g>
</g>
<!-- Node1&#45;&gt;Node2 -->
<g id="edge1" class="edge">
<title>Node1&#45;&gt;Node2</title>
<path fill="none" stroke="midnightblue" d="M301.81,-131.1C273.98,-121.42 234.66,-107.74 205.3,-97.52"/>
<polygon fill="midnightblue" stroke="midnightblue" points="300.91,-134.49 311.5,-134.48 303.21,-127.88 300.91,-134.49"/>
</g>
<!-- Node5 -->
<g id="node5" class="node">
<title>Node5</title>
<g id="a_node5"><a xlink:href="_geometry_boundary_alg_8_c.html" target="_top" xlink:title=" ">
<polygon fill="white" stroke="black" points="267.5,-73 267.5,-92 404.5,-92 404.5,-73 267.5,-73"/>
<text text-anchor="middle" x="336" y="-80" font-family="Helvetica,sans-Serif" font-size="10.00">GeometryBoundaryAlg.C</text>
</a>
</g>
</g>
<!-- Node1&#45;&gt;Node5 -->
<g id="edge4" class="edge">
<title>Node1&#45;&gt;Node5</title>
<path fill="none" stroke="midnightblue" d="M336,-124.32C336,-113.5 336,-100.4 336,-92.01"/>
<polygon fill="midnightblue" stroke="midnightblue" points="332.5,-124.48 336,-134.48 339.5,-124.48 332.5,-124.48"/>
</g>
<!-- Node6 -->
<g id="node6" class="node">
<title>Node6</title>
<g id="a_node6"><a xlink:href="_realm_8_c.html" target="_top" xlink:title=" ">
<polygon fill="white" stroke="black" points="423,-73 423,-92 481,-92 481,-73 423,-73"/>
<text text-anchor="middle" x="452" y="-80" font-family="Helvetica,sans-Serif" font-size="10.00">Realm.C</text>
</a>
</g>
</g>
<!-- Node1&#45;&gt;Node6 -->
<g id="edge5" class="edge">
<title>Node1&#45;&gt;Node6</title>
<path fill="none" stroke="midnightblue" d="M361.6,-129.87C384.09,-118.33 416.13,-101.9 435.41,-92.01"/>
<polygon fill="midnightblue" stroke="midnightblue" points="359.92,-126.8 352.62,-134.48 363.12,-133.03 359.92,-126.8"/>
</g>
<!-- Node3 -->
<g id="node3" class="node">
<title>Node3</title>
<g id="a_node3"><a xlink:href="_low_mach_equation_system_8_c.html" target="_top" xlink:title=" ">
<polygon fill="white" stroke="black" points="0,-6 0,-25 152,-25 152,-6 0,-6"/>
<text text-anchor="middle" x="76" y="-13" font-family="Helvetica,sans-Serif" font-size="10.00">LowMachEquationSystem.C</text>
</a>
</g>
</g>
<!-- Node2&#45;&gt;Node3 -->
<g id="edge2" class="edge">
<title>Node2&#45;&gt;Node3</title>
<path fill="none" stroke="midnightblue" d="M137.35,-61.31C120.64,-49.1 100.2,-34.18 87.65,-25.01"/>
<polygon fill="midnightblue" stroke="midnightblue" points="135.55,-64.32 145.69,-67.4 139.68,-58.67 135.55,-64.32"/>
</g>
<!-- Node4 -->
<g id="node4" class="node">
<title>Node4</title>
<g id="a_node4"><a xlink:href="_momentum_body_force_box_node_kernel_8_c.html" target="_top" xlink:title=" ">
<polygon fill="white" stroke="black" points="170,-0.5 170,-30.5 338,-30.5 338,-0.5 170,-0.5"/>
<text text-anchor="start" x="178" y="-18.5" font-family="Helvetica,sans-Serif" font-size="10.00">MomentumBodyForceBoxNode</text>
<text text-anchor="middle" x="254" y="-7.5" font-family="Helvetica,sans-Serif" font-size="10.00">Kernel.C</text>
</a>
</g>
</g>
<!-- Node2&#45;&gt;Node4 -->
<g id="edge3" class="edge">
<title>Node2&#45;&gt;Node4</title>
<path fill="none" stroke="midnightblue" d="M192.45,-61.45C206.14,-51.45 222.37,-39.6 234.73,-30.58"/>
<polygon fill="midnightblue" stroke="midnightblue" points="190.32,-58.67 184.31,-67.4 194.45,-64.32 190.32,-58.67"/>
</g>
</g>
</svg>
