<?xml version="1.0" encoding="UTF-8" standalone="no"?>
<!DOCTYPE svg PUBLIC "-//W3C//DTD SVG 1.1//EN"
 "http://www.w3.org/Graphics/SVG/1.1/DTD/svg11.dtd">
<!-- Generated by graphviz version 2.43.0 (0)
 -->
<!-- Title: GreenGaussBoundaryClosure.C Pages: 1 -->
<!--zoomable 263 -->
<svg id="main" version="1.1" xmlns="http://www.w3.org/2000/svg" xmlns:xlink="http://www.w3.org/1999/xlink" xml:space="preserve" onload="init(evt)">
<style type="text/css"><![CDATA[
.edge:hover path { stroke: red; }
.edge:hover polygon { stroke: red; fill: red; }
]]></style>
<script type="text/javascript"><![CDATA[
var edges = document.getElementsByTagName('g');
if (edges && edges.length) {
  for (var i=0;i<edges.length;i++) {
    if (edges[i].id.substr(0,4)=='edge') {
      edges[i].setAttribute('class','edge');
    }
  }
}
]]></script>
        <defs>
                <circle id="rim" cx="0" cy="0" r="7"/>
                <circle id="rim2" cx="0" cy="0" r="3.5"/>
                <g id="zoomPlus">
                        <use xlink:href="#rim" fill="#404040">
                                <set attributeName="fill" to="#808080" begin="zoomplus.mouseover" end="zoomplus.mouseout"/>
                        </use>
                        <path d="M-4,0h8M0,-4v8" fill="none" stroke="white" stroke-width="1.5" pointer-events="none"/>
                </g>
                <g id="zoomMin">
                        <use xlink:href="#rim" fill="#404040">
                                <set attributeName="fill" to="#808080" begin="zoomminus.mouseover" end="zoomminus.mouseout"/>
                        </use>
                        <path d="M-4,0h8" fill="none" stroke="white" stroke-width="1.5" pointer-events="none"/>
                </g>
                <g id="dirArrow">
                        <path fill="none" stroke="white" stroke-width="1.5" d="M0,-3.0v7 M-2.5,-0.5L0,-3.0L2.5,-0.5"/>
                </g>
               <g id="resetDef">
                       <use xlink:href="#rim2" fill="#404040">
                               <set attributeName="fill" to="#808080" begin="reset.mouseover" end="reset.mouseout"/>
                       </use>
               </g>
        </defs>

<script type="text/javascript">
var viewWidth = 1347;
var viewHeight = 263;
var sectionId = 'dynsection-0';
</script>
<script xlink:href="svgpan.js"/>
<svg id="graph" class="graph">
<g id="viewport">
<title>GreenGaussBoundaryClosure.C</title>
<polygon fill="white" stroke="transparent" points="-4,4 -4,-259 1343,-259 1343,4 -4,4"/>
<!-- Node1 -->
<g id="node1" class="node">
<title>Node1</title>
<g id="a_node1"><a xlink:title=" ">
<polygon fill="#bfbfbf" stroke="black" points="470.5,-235.5 470.5,-254.5 639.5,-254.5 639.5,-235.5 470.5,-235.5"/>
<text text-anchor="middle" x="555" y="-242.5" font-family="Helvetica,sans-Serif" font-size="10.00">GreenGaussBoundaryClosure.C</text>
</a>
</g>
</g>
<!-- Node2 -->
<g id="node2" class="node">
<title>Node2</title>
<g id="a_node2"><a xlink:href="_green_gauss_boundary_closure_8h.html" target="_top" xlink:title=" ">
<polygon fill="white" stroke="black" points="695,-168.5 695,-198.5 877,-198.5 877,-168.5 695,-168.5"/>
<text text-anchor="start" x="703" y="-186.5" font-family="Helvetica,sans-Serif" font-size="10.00">matrix_free/GreenGaussBoundary</text>
<text text-anchor="middle" x="786" y="-175.5" font-family="Helvetica,sans-Serif" font-size="10.00">Closure.h</text>
</a>
</g>
</g>
<!-- Node1&#45;&gt;Node2 -->
<g id="edge1" class="edge">
<title>Node1&#45;&gt;Node2</title>
<path fill="none" stroke="midnightblue" d="M588.1,-235.48C622.82,-226.53 678.27,-212.25 721.65,-201.07"/>
<polygon fill="midnightblue" stroke="midnightblue" points="722.75,-204.41 731.56,-198.52 721,-197.63 722.75,-204.41"/>
</g>
<!-- Node3 -->
<g id="node3" class="node">
<title>Node3</title>
<g id="a_node3"><a xlink:href="_kokkos_view_types_8h.html" target="_top" xlink:title=" ">
<polygon fill="white" stroke="black" points="187,-112.5 187,-131.5 359,-131.5 359,-112.5 187,-112.5"/>
<text text-anchor="middle" x="273" y="-119.5" font-family="Helvetica,sans-Serif" font-size="10.00">matrix_free/KokkosViewTypes.h</text>
</a>
</g>
</g>
<!-- Node1&#45;&gt;Node3 -->
<g id="edge18" class="edge">
<title>Node1&#45;&gt;Node3</title>
<path fill="none" stroke="midnightblue" d="M494.71,-235.45C458.22,-228.75 411.47,-217.4 373,-199 340.27,-183.35 307.84,-155.94 289.15,-138.67"/>
<polygon fill="midnightblue" stroke="midnightblue" points="291.48,-136.05 281.8,-131.74 286.68,-141.14 291.48,-136.05"/>
</g>
<!-- Node4 -->
<g id="node4" class="node">
<title>Node4</title>
<g id="a_node4"><a xlink:href="_kokkos_framework_8h.html" target="_top" xlink:title=" ">
<polygon fill="white" stroke="black" points="281.5,-56.5 281.5,-75.5 456.5,-75.5 456.5,-56.5 281.5,-56.5"/>
<text text-anchor="middle" x="369" y="-63.5" font-family="Helvetica,sans-Serif" font-size="10.00">matrix_free/KokkosFramework.h</text>
</a>
</g>
</g>
<!-- Node1&#45;&gt;Node4 -->
<g id="edge17" class="edge">
<title>Node1&#45;&gt;Node4</title>
<path fill="none" stroke="midnightblue" d="M539.29,-235.35C510,-218.61 446.38,-179.22 406,-132 393.76,-117.69 383.51,-98.73 376.93,-84.98"/>
<polygon fill="midnightblue" stroke="midnightblue" points="380,-83.27 372.64,-75.65 373.64,-86.2 380,-83.27"/>
</g>
<!-- Node6 -->
<g id="node6" class="node">
<title>Node6</title>
<g id="a_node6"><a xlink:title=" ">
<polygon fill="white" stroke="#bfbfbf" points="0,-0.5 0,-19.5 110,-19.5 110,-0.5 0,-0.5"/>
<text text-anchor="middle" x="55" y="-7.5" font-family="Helvetica,sans-Serif" font-size="10.00">stk_simd/Simd.hpp</text>
</a>
</g>
</g>
<!-- Node1&#45;&gt;Node6 -->
<g id="edge34" class="edge">
<title>Node1&#45;&gt;Node6</title>
<path fill="none" stroke="midnightblue" d="M470.33,-241.92C337.99,-237.84 94.24,-226.64 66,-199 20.06,-154.04 38.19,-67.26 49.08,-29.41"/>
<polygon fill="midnightblue" stroke="midnightblue" points="52.47,-30.3 52.03,-19.72 45.77,-28.27 52.47,-30.3"/>
</g>
<!-- Node9 -->
<g id="node9" class="node">
<title>Node9</title>
<g id="a_node9"><a xlink:href="_polynomial_orders_8h.html" target="_top" xlink:title=" ">
<polygon fill="white" stroke="black" points="995.5,-112.5 995.5,-131.5 1168.5,-131.5 1168.5,-112.5 995.5,-112.5"/>
<text text-anchor="middle" x="1082" y="-119.5" font-family="Helvetica,sans-Serif" font-size="10.00">matrix_free/PolynomialOrders.h</text>
</a>
</g>
</g>
<!-- Node1&#45;&gt;Node9 -->
<g id="edge20" class="edge">
<title>Node1&#45;&gt;Node9</title>
<path fill="none" stroke="midnightblue" d="M639.59,-240.4C745.63,-234.98 920.8,-222.71 981,-199 990.21,-195.37 1036.63,-159.09 1063.22,-138"/>
<polygon fill="midnightblue" stroke="midnightblue" points="1065.43,-140.71 1071.08,-131.74 1061.08,-135.23 1065.43,-140.71"/>
</g>
<!-- Node12 -->
<g id="node12" class="node">
<title>Node12</title>
<g id="a_node12"><a xlink:href="_coefficients_8h.html" target="_top" xlink:title=" ">
<polygon fill="white" stroke="black" points="533.5,-174 533.5,-193 676.5,-193 676.5,-174 533.5,-174"/>
<text text-anchor="middle" x="605" y="-181" font-family="Helvetica,sans-Serif" font-size="10.00">matrix_free/Coefficients.h</text>
</a>
</g>
</g>
<!-- Node1&#45;&gt;Node12 -->
<g id="edge12" class="edge">
<title>Node1&#45;&gt;Node12</title>
<path fill="none" stroke="midnightblue" d="M562.16,-235.48C569.74,-226.46 581.87,-212.02 591.29,-200.81"/>
<polygon fill="midnightblue" stroke="midnightblue" points="594.1,-202.92 597.85,-193.01 588.74,-198.41 594.1,-202.92"/>
</g>
<!-- Node13 -->
<g id="node13" class="node">
<title>Node13</title>
<g id="a_node13"><a xlink:href="_local_array_8h.html" target="_top" xlink:title=" ">
<polygon fill="white" stroke="black" points="537,-112.5 537,-131.5 673,-131.5 673,-112.5 537,-112.5"/>
<text text-anchor="middle" x="605" y="-119.5" font-family="Helvetica,sans-Serif" font-size="10.00">matrix_free/LocalArray.h</text>
</a>
</g>
</g>
<!-- Node1&#45;&gt;Node13 -->
<g id="edge19" class="edge">
<title>Node1&#45;&gt;Node13</title>
<path fill="none" stroke="midnightblue" d="M546.51,-235.17C533.55,-220.58 511.68,-190.78 525,-168 533.86,-152.85 549.91,-142.41 565.31,-135.42"/>
<polygon fill="midnightblue" stroke="midnightblue" points="566.85,-138.57 574.75,-131.51 564.17,-132.11 566.85,-138.57"/>
</g>
<!-- Node14 -->
<g id="node14" class="node">
<title>Node14</title>
<g id="a_node14"><a xlink:title=" ">
<polygon fill="white" stroke="#bfbfbf" points="743.5,-56.5 743.5,-75.5 856.5,-75.5 856.5,-56.5 743.5,-56.5"/>
<text text-anchor="middle" x="800" y="-63.5" font-family="Helvetica,sans-Serif" font-size="10.00">Kokkos_Macros.hpp</text>
</a>
</g>
</g>
<!-- Node1&#45;&gt;Node14 -->
<g id="edge31" class="edge">
<title>Node1&#45;&gt;Node14</title>
<path fill="none" stroke="midnightblue" d="M639.64,-238.99C723.22,-232.9 844.39,-220.64 886,-199 921.99,-180.28 933.2,-169.78 948,-132 962.92,-93.9 912.84,-78.12 866.96,-71.59"/>
<polygon fill="midnightblue" stroke="midnightblue" points="867.32,-68.1 856.95,-70.29 866.42,-75.05 867.32,-68.1"/>
</g>
<!-- Node15 -->
<g id="node15" class="node">
<title>Node15</title>
<g id="a_node15"><a xlink:href="_valid_simd_length_8h.html" target="_top" xlink:title=" ">
<polygon fill="white" stroke="black" points="75.5,-174 75.5,-193 242.5,-193 242.5,-174 75.5,-174"/>
<text text-anchor="middle" x="159" y="-181" font-family="Helvetica,sans-Serif" font-size="10.00">matrix_free/ValidSimdLength.h</text>
</a>
</g>
</g>
<!-- Node1&#45;&gt;Node15 -->
<g id="edge21" class="edge">
<title>Node1&#45;&gt;Node15</title>
<path fill="none" stroke="midnightblue" d="M498.26,-235.48C426.22,-224.65 302.11,-206 225.64,-194.51"/>
<polygon fill="midnightblue" stroke="midnightblue" points="226.04,-191.03 215.63,-193.01 225,-197.96 226.04,-191.03"/>
</g>
<!-- Node16 -->
<g id="node16" class="node">
<title>Node16</title>
<g id="a_node16"><a xlink:href="_kokkos_interface_8h.html" target="_top" xlink:title=" ">
<polygon fill="white" stroke="black" points="415,-112.5 415,-131.5 519,-131.5 519,-112.5 415,-112.5"/>
<text text-anchor="middle" x="467" y="-119.5" font-family="Helvetica,sans-Serif" font-size="10.00">KokkosInterface.h</text>
</a>
</g>
</g>
<!-- Node1&#45;&gt;Node16 -->
<g id="edge26" class="edge">
<title>Node1&#45;&gt;Node16</title>
<path fill="none" stroke="midnightblue" d="M546.85,-235.34C538.68,-226.5 525.92,-212.23 516,-199 501.49,-179.65 486.7,-156.07 477.22,-140.36"/>
<polygon fill="midnightblue" stroke="midnightblue" points="480.19,-138.49 472.06,-131.7 474.18,-142.08 480.19,-138.49"/>
</g>
<!-- Node19 -->
<g id="node19" class="node">
<title>Node19</title>
<g id="a_node19"><a xlink:title=" ">
<polygon fill="white" stroke="#bfbfbf" points="1033.5,-174 1033.5,-193 1168.5,-193 1168.5,-174 1033.5,-174"/>
<text text-anchor="middle" x="1101" y="-181" font-family="Helvetica,sans-Serif" font-size="10.00">Kokkos_ScatterView.hpp</text>
</a>
</g>
</g>
<!-- Node1&#45;&gt;Node19 -->
<g id="edge32" class="edge">
<title>Node1&#45;&gt;Node19</title>
<path fill="none" stroke="midnightblue" d="M639.9,-237.77C733.12,-230.47 887.09,-217.03 1019,-199 1027.85,-197.79 1037.2,-196.32 1046.29,-194.79"/>
<polygon fill="midnightblue" stroke="midnightblue" points="1047.16,-198.19 1056.41,-193.04 1045.96,-191.29 1047.16,-198.19"/>
</g>
<!-- Node20 -->
<g id="node20" class="node">
<title>Node20</title>
<g id="a_node20"><a xlink:title=" ">
<polygon fill="white" stroke="#bfbfbf" points="1187,-168.5 1187,-198.5 1339,-198.5 1339,-168.5 1187,-168.5"/>
<text text-anchor="start" x="1195" y="-186.5" font-family="Helvetica,sans-Serif" font-size="10.00">stk_mesh/base/NgpProfiling</text>
<text text-anchor="middle" x="1263" y="-175.5" font-family="Helvetica,sans-Serif" font-size="10.00">Block.hpp</text>
</a>
</g>
</g>
<!-- Node1&#45;&gt;Node20 -->
<g id="edge33" class="edge">
<title>Node1&#45;&gt;Node20</title>
<path fill="none" stroke="midnightblue" d="M639.64,-240.49C757.72,-235.01 978.75,-222.65 1176.6,-199.1"/>
<polygon fill="midnightblue" stroke="midnightblue" points="1177.08,-202.56 1186.6,-197.89 1176.25,-195.61 1177.08,-202.56"/>
</g>
<!-- Node2&#45;&gt;Node3 -->
<g id="edge2" class="edge">
<title>Node2&#45;&gt;Node3</title>
<path fill="none" stroke="midnightblue" d="M694.73,-169.13C691.79,-168.74 688.87,-168.36 686,-168 577.71,-154.25 453.11,-141.03 369.34,-132.52"/>
<polygon fill="midnightblue" stroke="midnightblue" points="369.63,-129.03 359.33,-131.51 368.92,-136 369.63,-129.03"/>
</g>
<!-- Node2&#45;&gt;Node9 -->
<g id="edge8" class="edge">
<title>Node2&#45;&gt;Node9</title>
<path fill="none" stroke="midnightblue" d="M855.77,-168.47C909.07,-157.76 981.36,-143.23 1029.74,-133.51"/>
<polygon fill="midnightblue" stroke="midnightblue" points="1030.57,-136.91 1039.68,-131.51 1029.19,-130.05 1030.57,-136.91"/>
</g>
<!-- Node10 -->
<g id="node10" class="node">
<title>Node10</title>
<g id="a_node10"><a xlink:title=" ">
<polygon fill="white" stroke="#bfbfbf" points="691,-112.5 691,-131.5 791,-131.5 791,-112.5 691,-112.5"/>
<text text-anchor="middle" x="741" y="-119.5" font-family="Helvetica,sans-Serif" font-size="10.00">Teuchos_RCP.hpp</text>
</a>
</g>
</g>
<!-- Node2&#45;&gt;Node10 -->
<g id="edge10" class="edge">
<title>Node2&#45;&gt;Node10</title>
<path fill="none" stroke="midnightblue" d="M775.34,-168.4C768.86,-159.84 760.57,-148.87 753.75,-139.86"/>
<polygon fill="midnightblue" stroke="midnightblue" points="756.37,-137.52 747.55,-131.66 750.79,-141.74 756.37,-137.52"/>
</g>
<!-- Node11 -->
<g id="node11" class="node">
<title>Node11</title>
<g id="a_node11"><a xlink:title=" ">
<polygon fill="white" stroke="#bfbfbf" points="809.5,-112.5 809.5,-131.5 938.5,-131.5 938.5,-112.5 809.5,-112.5"/>
<text text-anchor="middle" x="874" y="-119.5" font-family="Helvetica,sans-Serif" font-size="10.00">Tpetra_MultiVector.hpp</text>
</a>
</g>
</g>
<!-- Node2&#45;&gt;Node11 -->
<g id="edge11" class="edge">
<title>Node2&#45;&gt;Node11</title>
<path fill="none" stroke="midnightblue" d="M806.85,-168.4C820.7,-159.04 838.81,-146.79 852.74,-137.38"/>
<polygon fill="midnightblue" stroke="midnightblue" points="854.87,-140.16 861.2,-131.66 850.95,-134.36 854.87,-140.16"/>
</g>
<!-- Node3&#45;&gt;Node4 -->
<g id="edge3" class="edge">
<title>Node3&#45;&gt;Node4</title>
<path fill="none" stroke="midnightblue" d="M288.42,-112.32C303.54,-103.82 326.82,-90.73 344.47,-80.8"/>
<polygon fill="midnightblue" stroke="midnightblue" points="346.61,-83.61 353.61,-75.65 343.18,-77.51 346.61,-83.61"/>
</g>
<!-- Node8 -->
<g id="node8" class="node">
<title>Node8</title>
<g id="a_node8"><a xlink:title=" ">
<polygon fill="white" stroke="#bfbfbf" points="121,-56.5 121,-75.5 263,-75.5 263,-56.5 121,-56.5"/>
<text text-anchor="middle" x="192" y="-63.5" font-family="Helvetica,sans-Serif" font-size="10.00">stk_mesh/base/Types.hpp</text>
</a>
</g>
</g>
<!-- Node3&#45;&gt;Node8 -->
<g id="edge7" class="edge">
<title>Node3&#45;&gt;Node8</title>
<path fill="none" stroke="midnightblue" d="M259.99,-112.32C247.47,-103.98 228.32,-91.21 213.53,-81.35"/>
<polygon fill="midnightblue" stroke="midnightblue" points="215.24,-78.29 204.98,-75.65 211.36,-84.11 215.24,-78.29"/>
</g>
<!-- Node5 -->
<g id="node5" class="node">
<title>Node5</title>
<g id="a_node5"><a xlink:title=" ">
<polygon fill="white" stroke="#bfbfbf" points="319,-0.5 319,-19.5 419,-19.5 419,-0.5 319,-0.5"/>
<text text-anchor="middle" x="369" y="-7.5" font-family="Helvetica,sans-Serif" font-size="10.00">Kokkos_Core.hpp</text>
</a>
</g>
</g>
<!-- Node4&#45;&gt;Node5 -->
<g id="edge4" class="edge">
<title>Node4&#45;&gt;Node5</title>
<path fill="none" stroke="midnightblue" d="M369,-56.08C369,-49.01 369,-38.86 369,-29.99"/>
<polygon fill="midnightblue" stroke="midnightblue" points="372.5,-29.75 369,-19.75 365.5,-29.75 372.5,-29.75"/>
</g>
<!-- Node4&#45;&gt;Node6 -->
<g id="edge5" class="edge">
<title>Node4&#45;&gt;Node6</title>
<path fill="none" stroke="midnightblue" d="M319.25,-56.44C263.67,-46.89 173.74,-31.42 114.48,-21.23"/>
<polygon fill="midnightblue" stroke="midnightblue" points="114.97,-17.76 104.52,-19.52 113.78,-24.66 114.97,-17.76"/>
</g>
<!-- Node7 -->
<g id="node7" class="node">
<title>Node7</title>
<g id="a_node7"><a xlink:title=" ">
<polygon fill="white" stroke="#bfbfbf" points="850.5,-0.5 850.5,-19.5 919.5,-19.5 919.5,-0.5 850.5,-0.5"/>
<text text-anchor="middle" x="885" y="-7.5" font-family="Helvetica,sans-Serif" font-size="10.00">type_traits</text>
</a>
</g>
</g>
<!-- Node4&#45;&gt;Node7 -->
<g id="edge6" class="edge">
<title>Node4&#45;&gt;Node7</title>
<path fill="none" stroke="midnightblue" d="M450.48,-56.47C560.73,-44.94 753.61,-24.75 840.42,-15.67"/>
<polygon fill="midnightblue" stroke="midnightblue" points="840.89,-19.14 850.47,-14.61 840.16,-12.17 840.89,-19.14"/>
</g>
<!-- Node9&#45;&gt;Node7 -->
<g id="edge9" class="edge">
<title>Node9&#45;&gt;Node7</title>
<path fill="none" stroke="midnightblue" d="M1066.54,-112.37C1032.38,-93.29 950.23,-47.42 909.19,-24.51"/>
<polygon fill="midnightblue" stroke="midnightblue" points="910.82,-21.41 900.39,-19.59 907.41,-27.52 910.82,-21.41"/>
</g>
<!-- Node12&#45;&gt;Node13 -->
<g id="edge13" class="edge">
<title>Node12&#45;&gt;Node13</title>
<path fill="none" stroke="midnightblue" d="M605,-173.98C605,-165.58 605,-152.48 605,-141.66"/>
<polygon fill="midnightblue" stroke="midnightblue" points="608.5,-141.51 605,-131.51 601.5,-141.51 608.5,-141.51"/>
</g>
<!-- Node13&#45;&gt;Node4 -->
<g id="edge15" class="edge">
<title>Node13&#45;&gt;Node4</title>
<path fill="none" stroke="midnightblue" d="M567.61,-112.44C526.61,-103.06 460.75,-87.99 416.22,-77.8"/>
<polygon fill="midnightblue" stroke="midnightblue" points="416.75,-74.34 406.22,-75.52 415.19,-81.16 416.75,-74.34"/>
</g>
<!-- Node13&#45;&gt;Node7 -->
<g id="edge16" class="edge">
<title>Node13&#45;&gt;Node7</title>
<path fill="none" stroke="midnightblue" d="M673.16,-113.02C745.61,-103.95 851.72,-88.74 866,-76 879,-64.4 883.32,-44.44 884.65,-29.69"/>
<polygon fill="midnightblue" stroke="midnightblue" points="888.14,-29.83 885.17,-19.66 881.15,-29.46 888.14,-29.83"/>
</g>
<!-- Node13&#45;&gt;Node14 -->
<g id="edge14" class="edge">
<title>Node13&#45;&gt;Node14</title>
<path fill="none" stroke="midnightblue" d="M635.9,-112.44C669.27,-103.2 722.59,-88.44 759.35,-78.26"/>
<polygon fill="midnightblue" stroke="midnightblue" points="760.54,-81.56 769.25,-75.52 758.67,-74.81 760.54,-81.56"/>
</g>
<!-- Node15&#45;&gt;Node3 -->
<g id="edge22" class="edge">
<title>Node15&#45;&gt;Node3</title>
<path fill="none" stroke="midnightblue" d="M175.33,-173.98C194.21,-164.12 225.51,-147.79 247.58,-136.27"/>
<polygon fill="midnightblue" stroke="midnightblue" points="249.45,-139.24 256.7,-131.51 246.21,-133.03 249.45,-139.24"/>
</g>
<!-- Node15&#45;&gt;Node5 -->
<g id="edge23" class="edge">
<title>Node15&#45;&gt;Node5</title>
<path fill="none" stroke="midnightblue" d="M150.47,-173.82C129.83,-151.77 81.11,-92.77 112,-56 136.63,-26.68 240.82,-16.46 308.74,-12.9"/>
<polygon fill="midnightblue" stroke="midnightblue" points="309.09,-16.39 318.9,-12.4 308.74,-9.4 309.09,-16.39"/>
</g>
<!-- Node15&#45;&gt;Node6 -->
<g id="edge24" class="edge">
<title>Node15&#45;&gt;Node6</title>
<path fill="none" stroke="midnightblue" d="M136.02,-173.98C117.68,-165.97 92.85,-152.17 79,-132 57.66,-100.92 54.32,-55.37 54.32,-29.94"/>
<polygon fill="midnightblue" stroke="midnightblue" points="57.82,-29.86 54.5,-19.8 50.82,-29.74 57.82,-29.86"/>
</g>
<!-- Node15&#45;&gt;Node8 -->
<g id="edge25" class="edge">
<title>Node15&#45;&gt;Node8</title>
<path fill="none" stroke="midnightblue" d="M161.23,-173.79C164.68,-160.44 171.57,-134.16 178,-112 180.57,-103.15 183.59,-93.37 186.16,-85.2"/>
<polygon fill="midnightblue" stroke="midnightblue" points="189.52,-86.19 189.22,-75.6 182.85,-84.07 189.52,-86.19"/>
</g>
<!-- Node16&#45;&gt;Node5 -->
<g id="edge30" class="edge">
<title>Node16&#45;&gt;Node5</title>
<path fill="none" stroke="midnightblue" d="M469.6,-112.16C472.97,-98.81 477.19,-73.23 466,-56 455.68,-40.1 438.16,-29.73 420.83,-23"/>
<polygon fill="midnightblue" stroke="midnightblue" points="421.86,-19.65 411.27,-19.63 419.53,-26.26 421.86,-19.65"/>
</g>
<!-- Node16&#45;&gt;Node14 -->
<g id="edge29" class="edge">
<title>Node16&#45;&gt;Node14</title>
<path fill="none" stroke="midnightblue" d="M519.03,-112.56C578.03,-102.99 674.2,-87.4 737.29,-77.17"/>
<polygon fill="midnightblue" stroke="midnightblue" points="738.2,-80.57 747.51,-75.51 737.08,-73.66 738.2,-80.57"/>
</g>
<!-- Node17 -->
<g id="node17" class="node">
<title>Node17</title>
<g id="a_node17"><a xlink:title=" ">
<polygon fill="white" stroke="#bfbfbf" points="672.5,-56.5 672.5,-75.5 725.5,-75.5 725.5,-56.5 672.5,-56.5"/>
<text text-anchor="middle" x="699" y="-63.5" font-family="Helvetica,sans-Serif" font-size="10.00">cstddef</text>
</a>
</g>
</g>
<!-- Node16&#45;&gt;Node17 -->
<g id="edge27" class="edge">
<title>Node16&#45;&gt;Node17</title>
<path fill="none" stroke="midnightblue" d="M505.95,-112.43C543.64,-104.06 602.65,-90.78 662.3,-76.37"/>
<polygon fill="midnightblue" stroke="midnightblue" points="663.37,-79.71 672.27,-73.95 661.72,-72.91 663.37,-79.71"/>
</g>
<!-- Node18 -->
<g id="node18" class="node">
<title>Node18</title>
<g id="a_node18"><a xlink:title=" ">
<polygon fill="white" stroke="#bfbfbf" points="513.5,-56.5 513.5,-75.5 654.5,-75.5 654.5,-56.5 513.5,-56.5"/>
<text text-anchor="middle" x="584" y="-63.5" font-family="Helvetica,sans-Serif" font-size="10.00">stk_mesh/base/Entity.hpp</text>
</a>
</g>
</g>
<!-- Node16&#45;&gt;Node18 -->
<g id="edge28" class="edge">
<title>Node16&#45;&gt;Node18</title>
<path fill="none" stroke="midnightblue" d="M485.54,-112.44C504.62,-103.64 534.57,-89.81 556.44,-79.72"/>
<polygon fill="midnightblue" stroke="midnightblue" points="557.93,-82.88 565.55,-75.52 555,-76.53 557.93,-82.88"/>
</g>
</g>
</svg>
        <g id="navigator" transform="translate(0 0)" fill="#404254">
                <rect fill="#f2f5e9" fill-opacity="0.5" stroke="#606060" stroke-width=".5" x="0" y="0" width="60" height="60"/>
                <use id="zoomplus" xlink:href="#zoomPlus" x="17" y="9" onmousedown="handleZoom(evt,'in')"/>
                <use id="zoomminus" xlink:href="#zoomMin" x="42" y="9" onmousedown="handleZoom(evt,'out')"/>
                <use id="reset" xlink:href="#resetDef" x="30" y="36" onmousedown="handleReset()"/>
                <g id="arrowUp" xlink:href="#dirArrow" transform="translate(30 24)" onmousedown="handlePan(0,-1)">
                  <use xlink:href="#rim" fill="#404040">
                        <set attributeName="fill" to="#808080" begin="arrowUp.mouseover" end="arrowUp.mouseout"/>
                  </use>
                  <path fill="none" stroke="white" stroke-width="1.5" d="M0,-3.0v7 M-2.5,-0.5L0,-3.0L2.5,-0.5"/>
                </g>
                <g id="arrowRight" xlink:href="#dirArrow" transform="rotate(90) translate(36 -43)" onmousedown="handlePan(1,0)">
                  <use xlink:href="#rim" fill="#404040">
                        <set attributeName="fill" to="#808080" begin="arrowRight.mouseover" end="arrowRight.mouseout"/>
                  </use>
                  <path fill="none" stroke="white" stroke-width="1.5" d="M0,-3.0v7 M-2.5,-0.5L0,-3.0L2.5,-0.5"/>
                </g>
                <g id="arrowDown" xlink:href="#dirArrow" transform="rotate(180) translate(-30 -48)" onmousedown="handlePan(0,1)">
                  <use xlink:href="#rim" fill="#404040">
                        <set attributeName="fill" to="#808080" begin="arrowDown.mouseover" end="arrowDown.mouseout"/>
                  </use>
                  <path fill="none" stroke="white" stroke-width="1.5" d="M0,-3.0v7 M-2.5,-0.5L0,-3.0L2.5,-0.5"/>
                </g>
                <g id="arrowLeft" xlink:href="#dirArrow" transform="rotate(270) translate(-36 17)" onmousedown="handlePan(-1,0)">
                  <use xlink:href="#rim" fill="#404040">
                        <set attributeName="fill" to="#808080" begin="arrowLeft.mouseover" end="arrowLeft.mouseout"/>
                  </use>
                  <path fill="none" stroke="white" stroke-width="1.5" d="M0,-3.0v7 M-2.5,-0.5L0,-3.0L2.5,-0.5"/>
                </g>
        </g>
        <svg viewBox="0 0 15 15" width="100%" height="30px" preserveAspectRatio="xMaxYMin meet">
         <g id="arrow_out" transform="scale(0.3 0.3)">
          <a xlink:href="_green_gauss_boundary_closure_8_c__incl_org.svg" target="_base">
           <rect id="button" ry="5" rx="5" y="6" x="6" height="38" width="38"
                fill="#f2f5e9" fill-opacity="0.5" stroke="#606060" stroke-width="1.0"/>
           <path id="arrow"
             d="M 11.500037,31.436501 C 11.940474,20.09759 22.043105,11.32322 32.158766,21.979434 L 37.068811,17.246167 C 37.068811,17.246167 37.088388,32 37.088388,32 L 22.160133,31.978069 C 22.160133,31.978069 26.997745,27.140456 26.997745,27.140456 C 18.528582,18.264221 13.291696,25.230495 11.500037,31.436501 z"
             style="fill:#404040;"/>
          </a>
         </g>
        </svg>
</svg>
