<?xml version="1.0" encoding="UTF-8" standalone="no"?>
<!DOCTYPE svg PUBLIC "-//W3C//DTD SVG 1.1//EN"
 "http://www.w3.org/Graphics/SVG/1.1/DTD/svg11.dtd">
<!-- Generated by graphviz version 2.43.0 (0)
 -->
<!-- Title: GreenGaussGradient.h Pages: 1 -->
<svg width="314pt" height="95pt"
 viewBox="0.00 0.00 314.00 95.00" xmlns="http://www.w3.org/2000/svg" xmlns:xlink="http://www.w3.org/1999/xlink">
<g id="graph0" class="graph" transform="scale(1 1) rotate(0) translate(4 91)">
<title>GreenGaussGradient.h</title>
<polygon fill="white" stroke="transparent" points="-4,4 -4,-91 310,-91 310,4 -4,4"/>
<!-- Node1 -->
<g id="node1" class="node">
<title>Node1</title>
<g id="a_node1"><a xlink:title=" ">
<polygon fill="#bfbfbf" stroke="black" points="81.5,-67.5 81.5,-86.5 208.5,-86.5 208.5,-67.5 81.5,-67.5"/>
<text text-anchor="middle" x="145" y="-74.5" font-family="Helvetica,sans-Serif" font-size="10.00">GreenGaussGradient.h</text>
</a>
</g>
</g>
<!-- Node2 -->
<g id="node2" class="node">
<title>Node2</title>
<g id="a_node2"><a xlink:href="_green_gauss_gradient_8_c.html" target="_top" xlink:title=" ">
<polygon fill="white" stroke="black" points="0,-6 0,-25 128,-25 128,-6 0,-6"/>
<text text-anchor="middle" x="64" y="-13" font-family="Helvetica,sans-Serif" font-size="10.00">GreenGaussGradient.C</text>
</a>
</g>
</g>
<!-- Node1&#45;&gt;Node2 -->
<g id="edge1" class="edge">
<title>Node1&#45;&gt;Node2</title>
<path fill="none" stroke="midnightblue" d="M124.98,-61.29C109.44,-49.88 88.45,-34.46 75.58,-25.01"/>
<polygon fill="midnightblue" stroke="midnightblue" points="123.26,-64.38 133.39,-67.48 127.41,-58.73 123.26,-64.38"/>
</g>
<!-- Node3 -->
<g id="node3" class="node">
<title>Node3</title>
<g id="a_node3"><a xlink:href="_matrix_free_heat_cond_equation_system_8_c.html" target="_top" xlink:title=" ">
<polygon fill="white" stroke="black" points="146,-0.5 146,-30.5 306,-30.5 306,-0.5 146,-0.5"/>
<text text-anchor="start" x="154" y="-18.5" font-family="Helvetica,sans-Serif" font-size="10.00">MatrixFreeHeatCondEquation</text>
<text text-anchor="middle" x="226" y="-7.5" font-family="Helvetica,sans-Serif" font-size="10.00">System.C</text>
</a>
</g>
</g>
<!-- Node1&#45;&gt;Node3 -->
<g id="edge2" class="edge">
<title>Node1&#45;&gt;Node3</title>
<path fill="none" stroke="midnightblue" d="M164.78,-61.47C177.61,-52.05 194.23,-39.84 206.91,-30.52"/>
<polygon fill="midnightblue" stroke="midnightblue" points="162.59,-58.73 156.61,-67.48 166.74,-64.38 162.59,-58.73"/>
</g>
</g>
</svg>
