<?xml version="1.0" encoding="UTF-8" standalone="no"?>
<!DOCTYPE svg PUBLIC "-//W3C//DTD SVG 1.1//EN"
 "http://www.w3.org/Graphics/SVG/1.1/DTD/svg11.dtd">
<!-- Generated by graphviz version 2.43.0 (0)
 -->
<!-- Title: HDF5TablePropAlgorithm.h Pages: 1 -->
<svg width="451pt" height="192pt"
 viewBox="0.00 0.00 451.43 192.00" xmlns="http://www.w3.org/2000/svg" xmlns:xlink="http://www.w3.org/1999/xlink">
<g id="graph0" class="graph" transform="scale(1 1) rotate(0) translate(4 188)">
<title>HDF5TablePropAlgorithm.h</title>
<!-- Node1 -->
<g id="Node000001" class="node">
<title>Node1</title>
<g id="a_Node000001"><a xlink:title=" ">
<polygon fill="#999999" stroke="#666666" points="293,-184 145,-184 145,-165 293,-165 293,-184"/>
<text text-anchor="middle" x="219" y="-172" font-family="Helvetica,sans-Serif" font-size="10.00">HDF5TablePropAlgorithm.h</text>
</a>
</g>
</g>
<!-- Node2 -->
<g id="Node000002" class="node">
<title>Node2</title>
<g id="a_Node000002"><a xlink:href="_algorithm_8h.html" target="_top" xlink:title=" ">
<polygon fill="white" stroke="#666666" points="74,-129 0,-129 0,-110 74,-110 74,-129"/>
<text text-anchor="middle" x="37" y="-117" font-family="Helvetica,sans-Serif" font-size="10.00">Algorithm.h</text>
</a>
</g>
</g>
<!-- Node1&#45;&gt;Node2 -->
<g id="edge1_Node000001_Node000002" class="edge">
<title>Node1&#45;&gt;Node2</title>
<g id="a_edge1_Node000001_Node000002"><a xlink:title=" ">
<path fill="none" stroke="#63b8ff" d="M189.76,-164.98C158.94,-156.01 110.22,-141.82 76.11,-131.89"/>
<polygon fill="#63b8ff" stroke="#63b8ff" points="77.05,-128.52 66.47,-129.08 75.09,-135.24 77.05,-128.52"/>
</a>
</g>
</g>
<!-- Node3 -->
<g id="Node000003" class="node">
<title>Node3</title>
<g id="a_Node000003"><a xlink:title=" ">
<polygon fill="#e0e0e0" stroke="#999999" points="169.5,-19 122.5,-19 122.5,0 169.5,0 169.5,-19"/>
<text text-anchor="middle" x="146" y="-7" font-family="Helvetica,sans-Serif" font-size="10.00">vector</text>
</a>
</g>
</g>
<!-- Node1&#45;&gt;Node3 -->
<g id="edge3_Node000001_Node000003" class="edge">
<title>Node1&#45;&gt;Node3</title>
<g id="a_edge3_Node000001_Node000003"><a xlink:title=" ">
<path fill="none" stroke="#63b8ff" d="M205.09,-164.91C182.22,-149.84 137.56,-116.21 121,-74 114.8,-58.2 123.37,-40.2 132.11,-27.41"/>
<polygon fill="#63b8ff" stroke="#63b8ff" points="135.12,-29.23 138.31,-19.12 129.52,-25.04 135.12,-29.23"/>
</a>
</g>
</g>
<!-- Node4 -->
<g id="Node000004" class="node">
<title>Node4</title>
<g id="a_Node000004"><a xlink:title=" ">
<polygon fill="#e0e0e0" stroke="#999999" points="162,-74 130,-74 130,-55 162,-55 162,-74"/>
<text text-anchor="middle" x="146" y="-62" font-family="Helvetica,sans-Serif" font-size="10.00">set</text>
</a>
</g>
</g>
<!-- Node1&#45;&gt;Node4 -->
<g id="edge4_Node000001_Node000004" class="edge">
<title>Node1&#45;&gt;Node4</title>
<g id="a_edge4_Node000001_Node000004"><a xlink:title=" ">
<path fill="none" stroke="#63b8ff" d="M212.76,-164.68C206.46,-155.73 196.46,-141.46 188,-129 177.47,-113.49 165.71,-95.67 157.32,-82.87"/>
<polygon fill="#63b8ff" stroke="#63b8ff" points="160.04,-80.63 151.64,-74.17 154.18,-84.46 160.04,-80.63"/>
</a>
</g>
</g>
<!-- Node5 -->
<g id="Node000005" class="node">
<title>Node5</title>
<g id="a_Node000005"><a xlink:title=" ">
<polygon fill="#e0e0e0" stroke="#999999" points="388,-19 344,-19 344,0 388,0 388,-19"/>
<text text-anchor="middle" x="366" y="-7" font-family="Helvetica,sans-Serif" font-size="10.00">string</text>
</a>
</g>
</g>
<!-- Node1&#45;&gt;Node5 -->
<g id="edge5_Node000001_Node000005" class="edge">
<title>Node1&#45;&gt;Node5</title>
<g id="a_edge5_Node000001_Node000005"><a xlink:title=" ">
<path fill="none" stroke="#63b8ff" d="M293.01,-165.27C347.3,-154.61 415.75,-130.14 441,-74 451.73,-50.13 422.67,-32.07 397.66,-21.42"/>
<polygon fill="#63b8ff" stroke="#63b8ff" points="398.94,-18.17 388.36,-17.71 396.35,-24.67 398.94,-18.17"/>
</a>
</g>
</g>
<!-- Node6 -->
<g id="Node000006" class="node">
<title>Node6</title>
<g id="a_Node000006"><a xlink:title=" ">
<polygon fill="#e0e0e0" stroke="#999999" points="432,-74 394,-74 394,-55 432,-55 432,-74"/>
<text text-anchor="middle" x="413" y="-62" font-family="Helvetica,sans-Serif" font-size="10.00">map</text>
</a>
</g>
</g>
<!-- Node1&#45;&gt;Node6 -->
<g id="edge6_Node000001_Node000006" class="edge">
<title>Node1&#45;&gt;Node6</title>
<g id="a_edge6_Node000001_Node000006"><a xlink:title=" ">
<path fill="none" stroke="#63b8ff" d="M262.79,-164.98C290.48,-158.21 326.16,-146.85 354,-129 373.12,-116.74 390.2,-96.86 401.01,-82.61"/>
<polygon fill="#63b8ff" stroke="#63b8ff" points="404.08,-84.34 407.16,-74.2 398.43,-80.2 404.08,-84.34"/>
</a>
</g>
</g>
<!-- Node7 -->
<g id="Node000007" class="node">
<title>Node7</title>
<g id="a_Node000007"><a xlink:href="_h_d_f5_table_8h.html" target="_top" xlink:title=" ">
<polygon fill="white" stroke="#666666" points="345,-129 197,-129 197,-110 345,-110 345,-129"/>
<text text-anchor="middle" x="271" y="-117" font-family="Helvetica,sans-Serif" font-size="10.00">tabular_props/HDF5Table.h</text>
</a>
</g>
</g>
<!-- Node1&#45;&gt;Node7 -->
<g id="edge7_Node000001_Node000007" class="edge">
<title>Node1&#45;&gt;Node7</title>
<g id="a_edge7_Node000001_Node000007"><a xlink:title=" ">
<path fill="none" stroke="#63b8ff" d="M227.59,-164.75C235.16,-157.03 246.38,-145.6 255.51,-136.28"/>
<polygon fill="#63b8ff" stroke="#63b8ff" points="258.07,-138.68 262.57,-129.09 253.07,-133.78 258.07,-138.68"/>
</a>
</g>
</g>
<!-- Node2&#45;&gt;Node3 -->
<g id="edge2_Node000002_Node000003" class="edge">
<title>Node2&#45;&gt;Node3</title>
<g id="a_edge2_Node000002_Node000003"><a xlink:title=" ">
<path fill="none" stroke="#63b8ff" d="M43,-109.74C51.98,-96.96 69.8,-72.8 88,-55 99.17,-44.08 113.01,-33.37 124.36,-25.2"/>
<polygon fill="#63b8ff" stroke="#63b8ff" points="126.68,-27.85 132.84,-19.23 122.65,-22.12 126.68,-27.85"/>
</a>
</g>
</g>
<!-- Node7&#45;&gt;Node3 -->
<g id="edge8_Node000007_Node000003" class="edge">
<title>Node7&#45;&gt;Node3</title>
<g id="a_edge8_Node000007_Node000003"><a xlink:title=" ">
<path fill="none" stroke="#63b8ff" d="M257.96,-109.84C245.3,-101.24 225.76,-87.44 210,-74 192.24,-58.86 173.47,-39.83 160.88,-26.56"/>
<polygon fill="#63b8ff" stroke="#63b8ff" points="163.3,-24.03 153.9,-19.13 158.2,-28.82 163.3,-24.03"/>
</a>
</g>
</g>
<!-- Node7&#45;&gt;Node4 -->
<g id="edge9_Node000007_Node000004" class="edge">
<title>Node7&#45;&gt;Node4</title>
<g id="a_edge9_Node000007_Node000004"><a xlink:title=" ">
<path fill="none" stroke="#63b8ff" d="M250.92,-109.98C229.3,-100.82 194.86,-86.22 171.38,-76.26"/>
<polygon fill="#63b8ff" stroke="#63b8ff" points="172.63,-72.99 162.06,-72.31 169.9,-79.44 172.63,-72.99"/>
</a>
</g>
</g>
<!-- Node7&#45;&gt;Node5 -->
<g id="edge10_Node000007_Node000005" class="edge">
<title>Node7&#45;&gt;Node5</title>
<g id="a_edge10_Node000007_Node000005"><a xlink:title=" ">
<path fill="none" stroke="#63b8ff" d="M295.17,-109.89C311.98,-102.73 333.68,-90.95 347,-74 357.11,-61.13 361.85,-42.97 364.07,-29.36"/>
<polygon fill="#63b8ff" stroke="#63b8ff" points="367.57,-29.59 365.4,-19.22 360.63,-28.68 367.57,-29.59"/>
</a>
</g>
</g>
<!-- Node7&#45;&gt;Node6 -->
<g id="edge11_Node000007_Node000006" class="edge">
<title>Node7&#45;&gt;Node6</title>
<g id="a_edge11_Node000007_Node000006"><a xlink:title=" ">
<path fill="none" stroke="#63b8ff" d="M293.81,-109.98C318.42,-100.8 357.66,-86.16 384.33,-76.2"/>
<polygon fill="#63b8ff" stroke="#63b8ff" points="385.74,-79.41 393.88,-72.63 383.29,-72.85 385.74,-79.41"/>
</a>
</g>
</g>
<!-- Node8 -->
<g id="Node000008" class="node">
<title>Node8</title>
<g id="a_Node000008"><a xlink:href="_h5_i_o_8h.html" target="_top" xlink:title=" ">
<polygon fill="white" stroke="#666666" points="337.5,-74 218.5,-74 218.5,-55 337.5,-55 337.5,-74"/>
<text text-anchor="middle" x="278" y="-62" font-family="Helvetica,sans-Serif" font-size="10.00">tabular_props/H5IO.h</text>
</a>
</g>
</g>
<!-- Node7&#45;&gt;Node8 -->
<g id="edge12_Node000007_Node000008" class="edge">
<title>Node7&#45;&gt;Node8</title>
<g id="a_edge12_Node000007_Node000008"><a xlink:title=" ">
<path fill="none" stroke="#63b8ff" d="M272.16,-109.75C273.07,-102.8 274.39,-92.85 275.54,-84.13"/>
<polygon fill="#63b8ff" stroke="#63b8ff" points="279.03,-84.46 276.87,-74.09 272.09,-83.54 279.03,-84.46"/>
</a>
</g>
</g>
<!-- Node8&#45;&gt;Node3 -->
<g id="edge15_Node000008_Node000003" class="edge">
<title>Node8&#45;&gt;Node3</title>
<g id="a_edge15_Node000008_Node000003"><a xlink:title=" ">
<path fill="none" stroke="#63b8ff" d="M256.79,-54.98C235.27,-46.34 201.72,-32.87 177.17,-23.02"/>
<polygon fill="#63b8ff" stroke="#63b8ff" points="178.18,-19.65 167.59,-19.17 175.57,-26.14 178.18,-19.65"/>
</a>
</g>
</g>
<!-- Node8&#45;&gt;Node5 -->
<g id="edge14_Node000008_Node000005" class="edge">
<title>Node8&#45;&gt;Node5</title>
<g id="a_edge14_Node000008_Node000005"><a xlink:title=" ">
<path fill="none" stroke="#63b8ff" d="M292.14,-54.98C305.79,-46.77 326.69,-34.18 342.78,-24.49"/>
<polygon fill="#63b8ff" stroke="#63b8ff" points="344.84,-27.33 351.6,-19.17 341.23,-21.33 344.84,-27.33"/>
</a>
</g>
</g>
<!-- Node9 -->
<g id="Node000009" class="node">
<title>Node9</title>
<g id="a_Node000009"><a xlink:title=" ">
<polygon fill="#e0e0e0" stroke="#999999" points="301.5,-19 254.5,-19 254.5,0 301.5,0 301.5,-19"/>
<text text-anchor="middle" x="278" y="-7" font-family="Helvetica,sans-Serif" font-size="10.00">hdf5.h</text>
</a>
</g>
</g>
<!-- Node8&#45;&gt;Node9 -->
<g id="edge13_Node000008_Node000009" class="edge">
<title>Node8&#45;&gt;Node9</title>
<g id="a_edge13_Node000008_Node000009"><a xlink:title=" ">
<path fill="none" stroke="#63b8ff" d="M278,-54.75C278,-47.8 278,-37.85 278,-29.13"/>
<polygon fill="#63b8ff" stroke="#63b8ff" points="281.5,-29.09 278,-19.09 274.5,-29.09 281.5,-29.09"/>
</a>
</g>
</g>
</g>
</svg>
