<?xml version="1.0" encoding="UTF-8" standalone="no"?>
<!DOCTYPE svg PUBLIC "-//W3C//DTD SVG 1.1//EN"
 "http://www.w3.org/Graphics/SVG/1.1/DTD/svg11.dtd">
<!-- Generated by graphviz version 2.43.0 (0)
 -->
<!-- Title: Hex8FEM.C Pages: 1 -->
<!--zoomable 258 -->

<svg id="main" version="1.1" xmlns="http://www.w3.org/2000/svg" xmlns:xlink="http://www.w3.org/1999/xlink" xml:space="preserve" onload="init(evt)">
<style type="text/css"><![CDATA[
.node, .edge {opacity: 0.7;}
.node.selected, .edge.selected {opacity: 1;}
.edge:hover path { stroke: red; }
.edge:hover polygon { stroke: red; fill: red; }
]]></style>

<defs>
  <circle id="rim" cx="0" cy="0" r="7"/>
  <circle id="rim2" cx="0" cy="0" r="3.5"/>
  <g id="zoomPlus">
    <use xlink:href="#rim" fill="#404040"><set attributeName="fill" to="#808080" begin="zoomplus.mouseover" end="zoomplus.mouseout"/></use>
    <path d="M-4,0h8M0,-4v8" fill="none" stroke="white" stroke-width="1.5" pointer-events="none"/>
  </g>
  <g id="zoomMin">
    <use xlink:href="#rim" fill="#404040"><set attributeName="fill" to="#808080" begin="zoomminus.mouseover" end="zoomminus.mouseout"/></use>
    <path d="M-4,0h8" fill="none" stroke="white" stroke-width="1.5" pointer-events="none"/>
  </g>
  <g id="arrowUp" transform="translate(30 24)">
    <use xlink:href="#rim"/>
    <path pointer-events="none" fill="none" stroke="white" stroke-width="1.5" d="M0,-3.0v7 M-2.5,-0.5L0,-3.0L2.5,-0.5"/>
  </g>
  <g id="arrowRight" transform="rotate(90) translate(36 -43)">
    <use xlink:href="#rim"/>
    <path pointer-events="none" fill="none" stroke="white" stroke-width="1.5" d="M0,-3.0v7 M-2.5,-0.5L0,-3.0L2.5,-0.5"/>
  </g>
  <g id="arrowDown" transform="rotate(180) translate(-30 -48)">
    <use xlink:href="#rim"/>
    <path pointer-events="none" fill="none" stroke="white" stroke-width="1.5" d="M0,-3.0v7 M-2.5,-0.5L0,-3.0L2.5,-0.5"/>
  </g>
  <g id="arrowLeft" transform="rotate(270) translate(-36 17)">
    <use xlink:href="#rim"/>
    <path pointer-events="none" fill="none" stroke="white" stroke-width="1.5" d="M0,-3.0v7 M-2.5,-0.5L0,-3.0L2.5,-0.5"/>
  </g>
  <g id="resetDef">
    <use xlink:href="#rim2" fill="#404040"><set attributeName="fill" to="#808080" begin="reset.mouseover" end="reset.mouseout"/></use>
  </g>
</defs>
<script type="application/ecmascript">
var viewWidth = 1638;
var viewHeight = 258;
var sectionId = 'dynsection-0';
</script>
<script type="application/ecmascript" xlink:href="svg.min.js"/>
<svg id="graph" class="graph">
<g id="viewport">
<title>Hex8FEM.C</title>
<!-- Node1 -->
<g id="Node000001" class="node">
<title>Node1</title>
<g id="a_Node000001"><a xlink:title=" ">
<polygon fill="#999999" stroke="#666666" points="697,-250 624,-250 624,-231 697,-231 697,-250"/>
<text text-anchor="middle" x="660.5" y="-238" font-family="Helvetica,sans-Serif" font-size="10.00">Hex8FEM.C</text>
</a>
</g>
</g>
<!-- Node2 -->
<g id="Node000002" class="node">
<title>Node2</title>
<g id="a_Node000002"><a xlink:href="_hex8_f_e_m_8h.html" target="_top" xlink:title=" ">
<polygon fill="white" stroke="#666666" points="517,-189.5 362,-189.5 362,-170.5 517,-170.5 517,-189.5"/>
<text text-anchor="middle" x="439.5" y="-177.5" font-family="Helvetica,sans-Serif" font-size="10.00">master_element/Hex8FEM.h</text>
</a>
</g>
</g>
<!-- Node1&#45;&gt;Node2 -->
<g id="edge1_Node000001_Node000002" class="edge">
<title>Node1&#45;&gt;Node2</title>
<g id="a_edge1_Node000001_Node000002"><a xlink:title=" ">
<path fill="none" stroke="#63b8ff" d="M628.36,-230.99C589.57,-220.73 524.24,-203.43 481.49,-192.12"/>
<polygon fill="#63b8ff" stroke="#63b8ff" points="482.24,-188.69 471.67,-189.52 480.45,-195.46 482.24,-188.69"/>
</a>
</g>
</g>
<!-- Node3 -->
<g id="Node000003" class="node">
<title>Node3</title>
<g id="a_Node000003"><a xlink:href="_master_element_8h.html" target="_top" xlink:title=" ">
<polygon fill="white" stroke="#666666" points="544,-129 361,-129 361,-110 544,-110 544,-129"/>
<text text-anchor="middle" x="452.5" y="-117" font-family="Helvetica,sans-Serif" font-size="10.00">master_element/MasterElement.h</text>
</a>
</g>
</g>
<!-- Node1&#45;&gt;Node3 -->
<g id="edge16_Node000001_Node000003" class="edge">
<title>Node1&#45;&gt;Node3</title>
<g id="a_edge16_Node000001_Node000003"><a xlink:title=" ">
<path fill="none" stroke="#63b8ff" d="M638.45,-230.92C618.52,-222.79 588.69,-209.66 564.5,-195 545.8,-183.67 543.53,-177.38 525.5,-165 509.54,-154.04 490.89,-142.7 476.44,-134.21"/>
<polygon fill="#63b8ff" stroke="#63b8ff" points="478.02,-131.08 467.62,-129.07 474.5,-137.13 478.02,-131.08"/>
</a>
</g>
</g>
<!-- Node16 -->
<g id="Node000016" class="node">
<title>Node16</title>
<g id="a_Node000016"><a xlink:href="_master_element_functions_8h.html" target="_top" xlink:title=" ">
<polygon fill="white" stroke="#666666" points="747.5,-195 573.5,-195 573.5,-165 747.5,-165 747.5,-195"/>
<text text-anchor="start" x="581.5" y="-183" font-family="Helvetica,sans-Serif" font-size="10.00">master_element/MasterElement</text>
<text text-anchor="middle" x="660.5" y="-172" font-family="Helvetica,sans-Serif" font-size="10.00">Functions.h</text>
</a>
</g>
</g>
<!-- Node1&#45;&gt;Node16 -->
<g id="edge17_Node000001_Node000016" class="edge">
<title>Node1&#45;&gt;Node16</title>
<g id="a_edge17_Node000001_Node000016"><a xlink:title=" ">
<path fill="none" stroke="#63b8ff" d="M660.5,-230.87C660.5,-224.11 660.5,-214.35 660.5,-205.26"/>
<polygon fill="#63b8ff" stroke="#63b8ff" points="664,-205.11 660.5,-195.11 657,-205.11 664,-205.11"/>
</a>
</g>
</g>
<!-- Node17 -->
<g id="Node000017" class="node">
<title>Node17</title>
<g id="a_Node000017"><a xlink:href="_tensor_ops_8h.html" target="_top" xlink:title=" ">
<polygon fill="white" stroke="#666666" points="305,-129 146,-129 146,-110 305,-110 305,-129"/>
<text text-anchor="middle" x="225.5" y="-117" font-family="Helvetica,sans-Serif" font-size="10.00">master_element/TensorOps.h</text>
</a>
</g>
</g>
<!-- Node1&#45;&gt;Node17 -->
<g id="edge45_Node000001_Node000017" class="edge">
<title>Node1&#45;&gt;Node17</title>
<g id="a_edge45_Node000001_Node000017"><a xlink:title=" ">
<path fill="none" stroke="#63b8ff" d="M623.86,-238.74C565.03,-236.53 446.57,-227.96 352.5,-195 311.43,-180.61 268.82,-152.41 244.88,-135.13"/>
<polygon fill="#63b8ff" stroke="#63b8ff" points="246.79,-132.2 236.66,-129.1 242.65,-137.84 246.79,-132.2"/>
</a>
</g>
</g>
<!-- Node26 -->
<g id="Node000026" class="node">
<title>Node26</title>
<g id="a_Node000026"><a xlink:href="_nalu_env_8h.html" target="_top" xlink:title=" ">
<polygon fill="white" stroke="#666666" points="1493,-74 1428,-74 1428,-55 1493,-55 1493,-74"/>
<text text-anchor="middle" x="1460.5" y="-62" font-family="Helvetica,sans-Serif" font-size="10.00">NaluEnv.h</text>
</a>
</g>
</g>
<!-- Node1&#45;&gt;Node26 -->
<g id="edge46_Node000001_Node000026" class="edge">
<title>Node1&#45;&gt;Node26</title>
<g id="a_edge46_Node000001_Node000026"><a xlink:title=" ">
<path fill="none" stroke="#63b8ff" d="M697.22,-231.51C828.93,-202.87 1277.27,-105.35 1417.93,-74.76"/>
<polygon fill="#63b8ff" stroke="#63b8ff" points="1418.87,-78.14 1427.9,-72.59 1417.38,-71.3 1418.87,-78.14"/>
</a>
</g>
</g>
<!-- Node33 -->
<g id="Node000033" class="node">
<title>Node33</title>
<g id="a_Node000033"><a xlink:title=" ">
<polygon fill="#e0e0e0" stroke="#999999" points="1162,-189.5 1115,-189.5 1115,-170.5 1162,-170.5 1162,-189.5"/>
<text text-anchor="middle" x="1138.5" y="-177.5" font-family="Helvetica,sans-Serif" font-size="10.00">cmath</text>
</a>
</g>
</g>
<!-- Node1&#45;&gt;Node33 -->
<g id="edge47_Node000001_Node000033" class="edge">
<title>Node1&#45;&gt;Node33</title>
<g id="a_edge47_Node000001_Node000033"><a xlink:title=" ">
<path fill="none" stroke="#63b8ff" d="M697.22,-238.9C773.39,-236.97 953.68,-228.9 1100.5,-195 1103.17,-194.38 1105.91,-193.63 1108.63,-192.8"/>
<polygon fill="#63b8ff" stroke="#63b8ff" points="1109.93,-196.05 1118.28,-189.52 1107.68,-189.42 1109.93,-196.05"/>
</a>
</g>
</g>
<!-- Node34 -->
<g id="Node000034" class="node">
<title>Node34</title>
<g id="a_Node000034"><a xlink:title=" ">
<polygon fill="#e0e0e0" stroke="#999999" points="1240.5,-189.5 1180.5,-189.5 1180.5,-170.5 1240.5,-170.5 1240.5,-189.5"/>
<text text-anchor="middle" x="1210.5" y="-177.5" font-family="Helvetica,sans-Serif" font-size="10.00">iostream</text>
</a>
</g>
</g>
<!-- Node1&#45;&gt;Node34 -->
<g id="edge48_Node000001_Node000034" class="edge">
<title>Node1&#45;&gt;Node34</title>
<g id="a_edge48_Node000001_Node000034"><a xlink:title=" ">
<path fill="none" stroke="#63b8ff" d="M697.23,-239.52C781.89,-238.88 996.87,-233.27 1171.5,-195 1174.33,-194.38 1177.24,-193.61 1180.13,-192.75"/>
<polygon fill="#63b8ff" stroke="#63b8ff" points="1181.34,-196.03 1189.74,-189.57 1179.15,-189.38 1181.34,-196.03"/>
</a>
</g>
</g>
<!-- Node2&#45;&gt;Node3 -->
<g id="edge2_Node000002_Node000003" class="edge">
<title>Node2&#45;&gt;Node3</title>
<g id="a_edge2_Node000002_Node000003"><a xlink:title=" ">
<path fill="none" stroke="#63b8ff" d="M441.42,-170.37C443.24,-162.16 446.05,-149.54 448.38,-139.05"/>
<polygon fill="#63b8ff" stroke="#63b8ff" points="451.82,-139.69 450.57,-129.17 444.99,-138.17 451.82,-139.69"/>
</a>
</g>
</g>
<!-- Node4 -->
<g id="Node000004" class="node">
<title>Node4</title>
<g id="a_Node000004"><a xlink:href="_alg_traits_8h.html" target="_top" xlink:title=" ">
<polygon fill="white" stroke="#666666" points="743.5,-74 675.5,-74 675.5,-55 743.5,-55 743.5,-74"/>
<text text-anchor="middle" x="709.5" y="-62" font-family="Helvetica,sans-Serif" font-size="10.00">AlgTraits.h</text>
</a>
</g>
</g>
<!-- Node3&#45;&gt;Node4 -->
<g id="edge3_Node000003_Node000004" class="edge">
<title>Node3&#45;&gt;Node4</title>
<g id="a_edge3_Node000003_Node000004"><a xlink:title=" ">
<path fill="none" stroke="#63b8ff" d="M493.79,-109.98C540.82,-100.29 617.35,-84.5 665.48,-74.58"/>
<polygon fill="#63b8ff" stroke="#63b8ff" points="666.21,-78 675.3,-72.55 664.8,-71.14 666.21,-78"/>
</a>
</g>
</g>
<!-- Node6 -->
<g id="Node000006" class="node">
<title>Node6</title>
<g id="a_Node000006"><a xlink:href="_simd_interface_8h.html" target="_top" xlink:title="STK SIMD Interface.">
<polygon fill="white" stroke="#666666" points="657.5,-74 563.5,-74 563.5,-55 657.5,-55 657.5,-74"/>
<text text-anchor="middle" x="610.5" y="-62" font-family="Helvetica,sans-Serif" font-size="10.00">SimdInterface.h</text>
</a>
</g>
</g>
<!-- Node3&#45;&gt;Node6 -->
<g id="edge5_Node000003_Node000006" class="edge">
<title>Node3&#45;&gt;Node6</title>
<g id="a_edge5_Node000003_Node000006"><a xlink:title=" ">
<path fill="none" stroke="#63b8ff" d="M477.89,-109.98C504.3,-101.13 545.85,-87.19 575.39,-77.28"/>
<polygon fill="#63b8ff" stroke="#63b8ff" points="576.55,-80.58 584.92,-74.08 574.32,-73.94 576.55,-80.58"/>
</a>
</g>
</g>
<!-- Node10 -->
<g id="Node000010" class="node">
<title>Node10</title>
<g id="a_Node000010"><a xlink:href="_kokkos_interface_8h.html" target="_top" xlink:title=" ">
<polygon fill="white" stroke="#666666" points="323.5,-74 219.5,-74 219.5,-55 323.5,-55 323.5,-74"/>
<text text-anchor="middle" x="271.5" y="-62" font-family="Helvetica,sans-Serif" font-size="10.00">KokkosInterface.h</text>
</a>
</g>
</g>
<!-- Node3&#45;&gt;Node10 -->
<g id="edge9_Node000003_Node000010" class="edge">
<title>Node3&#45;&gt;Node10</title>
<g id="a_edge9_Node000003_Node000010"><a xlink:title=" ">
<path fill="none" stroke="#63b8ff" d="M423.42,-109.98C392.9,-101.05 344.74,-86.94 310.84,-77.02"/>
<polygon fill="#63b8ff" stroke="#63b8ff" points="311.39,-73.53 300.81,-74.08 309.42,-80.25 311.39,-73.53"/>
</a>
</g>
</g>
<!-- Node14 -->
<g id="Node000014" class="node">
<title>Node14</title>
<g id="a_Node000014"><a xlink:title=" ">
<polygon fill="#e0e0e0" stroke="#999999" points="507,-74 342,-74 342,-55 507,-55 507,-74"/>
<text text-anchor="middle" x="424.5" y="-62" font-family="Helvetica,sans-Serif" font-size="10.00">stk_util/util/ReportHandler.hpp</text>
</a>
</g>
</g>
<!-- Node3&#45;&gt;Node14 -->
<g id="edge14_Node000003_Node000014" class="edge">
<title>Node3&#45;&gt;Node14</title>
<g id="a_edge14_Node000003_Node000014"><a xlink:title=" ">
<path fill="none" stroke="#63b8ff" d="M447.88,-109.75C444.04,-102.49 438.48,-91.95 433.74,-82.98"/>
<polygon fill="#63b8ff" stroke="#63b8ff" points="436.8,-81.3 429.04,-74.09 430.61,-84.57 436.8,-81.3"/>
</a>
</g>
</g>
<!-- Node15 -->
<g id="Node000015" class="node">
<title>Node15</title>
<g id="a_Node000015"><a xlink:title=" ">
<polygon fill="#e0e0e0" stroke="#999999" points="882,-74 817,-74 817,-55 882,-55 882,-74"/>
<text text-anchor="middle" x="849.5" y="-62" font-family="Helvetica,sans-Serif" font-size="10.00">stdexcept</text>
</a>
</g>
</g>
<!-- Node3&#45;&gt;Node15 -->
<g id="edge15_Node000003_Node000015" class="edge">
<title>Node3&#45;&gt;Node15</title>
<g id="a_edge15_Node000003_Node000015"><a xlink:title=" ">
<path fill="none" stroke="#63b8ff" d="M516.28,-109.98C597.8,-99.1 736.71,-80.56 806.62,-71.22"/>
<polygon fill="#63b8ff" stroke="#63b8ff" points="807.38,-74.65 816.82,-69.86 806.45,-67.72 807.38,-74.65"/>
</a>
</g>
</g>
<!-- Node5 -->
<g id="Node000005" class="node">
<title>Node5</title>
<g id="a_Node000005"><a xlink:title=" ">
<polygon fill="#e0e0e0" stroke="#999999" points="819,-19 674,-19 674,0 819,0 819,-19"/>
<text text-anchor="middle" x="746.5" y="-7" font-family="Helvetica,sans-Serif" font-size="10.00">stk_topology/topology.hpp</text>
</a>
</g>
</g>
<!-- Node4&#45;&gt;Node5 -->
<g id="edge4_Node000004_Node000005" class="edge">
<title>Node4&#45;&gt;Node5</title>
<g id="a_edge4_Node000004_Node000005"><a xlink:title=" ">
<path fill="none" stroke="#63b8ff" d="M715.61,-54.75C720.78,-47.34 728.35,-36.5 734.69,-27.41"/>
<polygon fill="#63b8ff" stroke="#63b8ff" points="737.65,-29.29 740.5,-19.09 731.91,-25.29 737.65,-29.29"/>
</a>
</g>
</g>
<!-- Node7 -->
<g id="Node000007" class="node">
<title>Node7</title>
<g id="a_Node000007"><a xlink:title=" ">
<polygon fill="#e0e0e0" stroke="#999999" points="655.5,-19 545.5,-19 545.5,0 655.5,0 655.5,-19"/>
<text text-anchor="middle" x="600.5" y="-7" font-family="Helvetica,sans-Serif" font-size="10.00">stk_simd/Simd.hpp</text>
</a>
</g>
</g>
<!-- Node6&#45;&gt;Node7 -->
<g id="edge6_Node000006_Node000007" class="edge">
<title>Node6&#45;&gt;Node7</title>
<g id="a_edge6_Node000006_Node000007"><a xlink:title=" ">
<path fill="none" stroke="#63b8ff" d="M608.85,-54.75C607.54,-47.8 605.66,-37.85 604.02,-29.13"/>
<polygon fill="#63b8ff" stroke="#63b8ff" points="607.41,-28.27 602.12,-19.09 600.54,-29.56 607.41,-28.27"/>
</a>
</g>
</g>
<!-- Node8 -->
<g id="Node000008" class="node">
<title>Node8</title>
<g id="a_Node000008"><a xlink:title=" ">
<polygon fill="#e0e0e0" stroke="#999999" points="462,-19 349,-19 349,0 462,0 462,-19"/>
<text text-anchor="middle" x="405.5" y="-7" font-family="Helvetica,sans-Serif" font-size="10.00">Kokkos_Macros.hpp</text>
</a>
</g>
</g>
<!-- Node6&#45;&gt;Node8 -->
<g id="edge7_Node000006_Node000008" class="edge">
<title>Node6&#45;&gt;Node8</title>
<g id="a_edge7_Node000006_Node000008"><a xlink:title=" ">
<path fill="none" stroke="#63b8ff" d="M577.56,-54.98C542.55,-45.93 487.03,-31.58 448.57,-21.64"/>
<polygon fill="#63b8ff" stroke="#63b8ff" points="449.25,-18.2 438.69,-19.08 447.5,-24.97 449.25,-18.2"/>
</a>
</g>
</g>
<!-- Node9 -->
<g id="Node000009" class="node">
<title>Node9</title>
<g id="a_Node000009"><a xlink:title=" ">
<polygon fill="#e0e0e0" stroke="#999999" points="527,-19 480,-19 480,0 527,0 527,-19"/>
<text text-anchor="middle" x="503.5" y="-7" font-family="Helvetica,sans-Serif" font-size="10.00">vector</text>
</a>
</g>
</g>
<!-- Node6&#45;&gt;Node9 -->
<g id="edge8_Node000006_Node000009" class="edge">
<title>Node6&#45;&gt;Node9</title>
<g id="a_edge8_Node000006_Node000009"><a xlink:title=" ">
<path fill="none" stroke="#63b8ff" d="M593.31,-54.98C576.25,-46.54 549.87,-33.47 530.1,-23.68"/>
<polygon fill="#63b8ff" stroke="#63b8ff" points="531.52,-20.47 521,-19.17 528.41,-26.75 531.52,-20.47"/>
</a>
</g>
</g>
<!-- Node10&#45;&gt;Node8 -->
<g id="edge12_Node000010_Node000008" class="edge">
<title>Node10&#45;&gt;Node8</title>
<g id="a_edge12_Node000010_Node000008"><a xlink:title=" ">
<path fill="none" stroke="#63b8ff" d="M293.03,-54.98C314.97,-46.3 349.24,-32.75 374.19,-22.88"/>
<polygon fill="#63b8ff" stroke="#63b8ff" points="375.57,-26.1 383.58,-19.17 372.99,-19.59 375.57,-26.1"/>
</a>
</g>
</g>
<!-- Node11 -->
<g id="Node000011" class="node">
<title>Node11</title>
<g id="a_Node000011"><a xlink:title=" ">
<polygon fill="#e0e0e0" stroke="#999999" points="53,-19 0,-19 0,0 53,0 53,-19"/>
<text text-anchor="middle" x="26.5" y="-7" font-family="Helvetica,sans-Serif" font-size="10.00">cstddef</text>
</a>
</g>
</g>
<!-- Node10&#45;&gt;Node11 -->
<g id="edge10_Node000010_Node000011" class="edge">
<title>Node10&#45;&gt;Node11</title>
<g id="a_edge10_Node000010_Node000011"><a xlink:title=" ">
<path fill="none" stroke="#63b8ff" d="M229.58,-55C189.3,-46.74 126.44,-33.63 63.36,-19.38"/>
<polygon fill="#63b8ff" stroke="#63b8ff" points="63.76,-15.88 53.23,-17.08 62.21,-22.71 63.76,-15.88"/>
</a>
</g>
</g>
<!-- Node12 -->
<g id="Node000012" class="node">
<title>Node12</title>
<g id="a_Node000012"><a xlink:title=" ">
<polygon fill="#e0e0e0" stroke="#999999" points="212,-19 71,-19 71,0 212,0 212,-19"/>
<text text-anchor="middle" x="141.5" y="-7" font-family="Helvetica,sans-Serif" font-size="10.00">stk_mesh/base/Entity.hpp</text>
</a>
</g>
</g>
<!-- Node10&#45;&gt;Node12 -->
<g id="edge11_Node000010_Node000012" class="edge">
<title>Node10&#45;&gt;Node12</title>
<g id="a_edge11_Node000010_Node000012"><a xlink:title=" ">
<path fill="none" stroke="#63b8ff" d="M250.61,-54.98C229.42,-46.34 196.37,-32.87 172.2,-23.02"/>
<polygon fill="#63b8ff" stroke="#63b8ff" points="173.35,-19.7 162.77,-19.17 170.71,-26.19 173.35,-19.7"/>
</a>
</g>
</g>
<!-- Node13 -->
<g id="Node000013" class="node">
<title>Node13</title>
<g id="a_Node000013"><a xlink:title=" ">
<polygon fill="#e0e0e0" stroke="#999999" points="330.5,-19 230.5,-19 230.5,0 330.5,0 330.5,-19"/>
<text text-anchor="middle" x="280.5" y="-7" font-family="Helvetica,sans-Serif" font-size="10.00">Kokkos_Core.hpp</text>
</a>
</g>
</g>
<!-- Node10&#45;&gt;Node13 -->
<g id="edge13_Node000010_Node000013" class="edge">
<title>Node10&#45;&gt;Node13</title>
<g id="a_edge13_Node000010_Node000013"><a xlink:title=" ">
<path fill="none" stroke="#63b8ff" d="M272.99,-54.75C274.17,-47.8 275.86,-37.85 277.34,-29.13"/>
<polygon fill="#63b8ff" stroke="#63b8ff" points="280.82,-29.53 279.04,-19.09 273.92,-28.36 280.82,-29.53"/>
</a>
</g>
</g>
<!-- Node16&#45;&gt;Node3 -->
<g id="edge19_Node000016_Node000003" class="edge">
<title>Node16&#45;&gt;Node3</title>
<g id="a_edge19_Node000016_Node000003"><a xlink:title=" ">
<path fill="none" stroke="#63b8ff" d="M610.68,-164.99C574.63,-154.85 526.52,-141.32 492.87,-131.85"/>
<polygon fill="#63b8ff" stroke="#63b8ff" points="493.49,-128.39 482.91,-129.05 491.59,-135.13 493.49,-128.39"/>
</a>
</g>
</g>
<!-- Node16&#45;&gt;Node4 -->
<g id="edge18_Node000016_Node000004" class="edge">
<title>Node16&#45;&gt;Node4</title>
<g id="a_edge18_Node000016_Node000004"><a xlink:title=" ">
<path fill="none" stroke="#63b8ff" d="M659.35,-164.83C658.75,-150.38 659.44,-127.63 667.5,-110 672.59,-98.87 681.6,-88.75 689.98,-80.98"/>
<polygon fill="#63b8ff" stroke="#63b8ff" points="692.41,-83.5 697.66,-74.29 687.82,-78.22 692.41,-83.5"/>
</a>
</g>
</g>
<!-- Node16&#45;&gt;Node6 -->
<g id="edge26_Node000016_Node000006" class="edge">
<title>Node16&#45;&gt;Node6</title>
<g id="a_edge26_Node000016_Node000006"><a xlink:title=" ">
<path fill="none" stroke="#63b8ff" d="M654.17,-164.63C645.09,-144.03 628.4,-106.12 618.49,-83.63"/>
<polygon fill="#63b8ff" stroke="#63b8ff" points="621.58,-81.97 614.35,-74.23 615.17,-84.79 621.58,-81.97"/>
</a>
</g>
</g>
<!-- Node16&#45;&gt;Node13 -->
<g id="edge27_Node000016_Node000013" class="edge">
<title>Node16&#45;&gt;Node13</title>
<g id="a_edge27_Node000016_Node000013"><a xlink:title=" ">
<path fill="none" stroke="#63b8ff" d="M648.59,-164.78C625.73,-138.5 572.84,-82.51 515.5,-55 499.91,-47.52 405.1,-30.93 340.77,-20.26"/>
<polygon fill="#63b8ff" stroke="#63b8ff" points="341.16,-16.77 330.72,-18.6 340.02,-23.68 341.16,-16.77"/>
</a>
</g>
</g>
<!-- Node16&#45;&gt;Node14 -->
<g id="edge39_Node000016_Node000014" class="edge">
<title>Node16&#45;&gt;Node14</title>
<g id="a_edge39_Node000016_Node000014"><a xlink:title=" ">
<path fill="none" stroke="#63b8ff" d="M573.47,-167.72C484.65,-155.78 358.75,-137.52 351.5,-129 334.63,-109.18 364.93,-90.08 391.48,-78.1"/>
<polygon fill="#63b8ff" stroke="#63b8ff" points="393.19,-81.18 401,-74.02 390.43,-74.75 393.19,-81.18"/>
</a>
</g>
</g>
<!-- Node16&#45;&gt;Node15 -->
<g id="edge41_Node000016_Node000015" class="edge">
<title>Node16&#45;&gt;Node15</title>
<g id="a_edge41_Node000016_Node000015"><a xlink:title=" ">
<path fill="none" stroke="#63b8ff" d="M747.54,-170.72C802.86,-163.45 867.21,-150.57 884.5,-129 896.46,-114.08 881.91,-94.51 868.09,-81.07"/>
<polygon fill="#63b8ff" stroke="#63b8ff" points="870.42,-78.45 860.67,-74.29 865.7,-83.62 870.42,-78.45"/>
</a>
</g>
</g>
<!-- Node16&#45;&gt;Node17 -->
<g id="edge20_Node000016_Node000017" class="edge">
<title>Node16&#45;&gt;Node17</title>
<g id="a_edge20_Node000016_Node000017"><a xlink:title=" ">
<path fill="none" stroke="#63b8ff" d="M573.26,-167.27C492.79,-156.45 374.67,-140.56 298.92,-130.37"/>
<polygon fill="#63b8ff" stroke="#63b8ff" points="299.36,-126.9 288.98,-129.04 298.43,-133.84 299.36,-126.9"/>
</a>
</g>
</g>
<!-- Node18 -->
<g id="Node000018" class="node">
<title>Node18</title>
<g id="a_Node000018"><a xlink:title=" ">
<polygon fill="#e0e0e0" stroke="#999999" points="139.5,-74 97.5,-74 97.5,-55 139.5,-55 139.5,-74"/>
<text text-anchor="middle" x="118.5" y="-62" font-family="Helvetica,sans-Serif" font-size="10.00">array</text>
</a>
</g>
</g>
<!-- Node16&#45;&gt;Node18 -->
<g id="edge43_Node000016_Node000018" class="edge">
<title>Node16&#45;&gt;Node18</title>
<g id="a_edge43_Node000016_Node000018"><a xlink:title=" ">
<path fill="none" stroke="#63b8ff" d="M573.37,-169.82C557.45,-168.18 540.98,-166.52 525.5,-165 439.1,-156.52 203.26,-184.49 136.5,-129 123.57,-118.25 119.55,-98.96 118.47,-84.45"/>
<polygon fill="#63b8ff" stroke="#63b8ff" points="121.96,-83.97 118.12,-74.09 114.96,-84.2 121.96,-83.97"/>
</a>
</g>
</g>
<!-- Node20 -->
<g id="Node000020" class="node">
<title>Node20</title>
<g id="a_Node000020"><a xlink:href="_eigen_decomposition_8h.html" target="_top" xlink:title=" ">
<polygon fill="white" stroke="#666666" points="1058.5,-129 932.5,-129 932.5,-110 1058.5,-110 1058.5,-129"/>
<text text-anchor="middle" x="995.5" y="-117" font-family="Helvetica,sans-Serif" font-size="10.00">EigenDecomposition.h</text>
</a>
</g>
</g>
<!-- Node16&#45;&gt;Node20 -->
<g id="edge28_Node000016_Node000020" class="edge">
<title>Node16&#45;&gt;Node20</title>
<g id="a_edge28_Node000016_Node000020"><a xlink:title=" ">
<path fill="none" stroke="#63b8ff" d="M740.74,-164.99C800.93,-154.48 881.98,-140.32 936.35,-130.83"/>
<polygon fill="#63b8ff" stroke="#63b8ff" points="937.27,-134.22 946.52,-129.05 936.06,-127.33 937.27,-134.22"/>
</a>
</g>
</g>
<!-- Node30 -->
<g id="Node000030" class="node">
<title>Node30</title>
<g id="a_Node000030"><a xlink:title=" ">
<polygon fill="#e0e0e0" stroke="#999999" points="726,-129 677,-129 677,-110 726,-110 726,-129"/>
<text text-anchor="middle" x="701.5" y="-117" font-family="Helvetica,sans-Serif" font-size="10.00">cstdlib</text>
</a>
</g>
</g>
<!-- Node16&#45;&gt;Node30 -->
<g id="edge40_Node000016_Node000030" class="edge">
<title>Node16&#45;&gt;Node30</title>
<g id="a_edge40_Node000016_Node000030"><a xlink:title=" ">
<path fill="none" stroke="#63b8ff" d="M670.42,-164.84C676.19,-156.61 683.5,-146.18 689.58,-137.51"/>
<polygon fill="#63b8ff" stroke="#63b8ff" points="692.48,-139.46 695.36,-129.27 686.75,-135.45 692.48,-139.46"/>
</a>
</g>
</g>
<!-- Node31 -->
<g id="Node000031" class="node">
<title>Node31</title>
<g id="a_Node000031"><a xlink:title=" ">
<polygon fill="#e0e0e0" stroke="#999999" points="788.5,-129 744.5,-129 744.5,-110 788.5,-110 788.5,-129"/>
<text text-anchor="middle" x="766.5" y="-117" font-family="Helvetica,sans-Serif" font-size="10.00">string</text>
</a>
</g>
</g>
<!-- Node16&#45;&gt;Node31 -->
<g id="edge42_Node000016_Node000031" class="edge">
<title>Node16&#45;&gt;Node31</title>
<g id="a_edge42_Node000016_Node000031"><a xlink:title=" ">
<path fill="none" stroke="#63b8ff" d="M685.89,-164.99C702.79,-155.66 724.88,-143.47 741.66,-134.21"/>
<polygon fill="#63b8ff" stroke="#63b8ff" points="743.78,-137.04 750.85,-129.14 740.4,-130.91 743.78,-137.04"/>
</a>
</g>
</g>
<!-- Node32 -->
<g id="Node000032" class="node">
<title>Node32</title>
<g id="a_Node000032"><a xlink:title=" ">
<polygon fill="#e0e0e0" stroke="#999999" points="876,-129 807,-129 807,-110 876,-110 876,-129"/>
<text text-anchor="middle" x="841.5" y="-117" font-family="Helvetica,sans-Serif" font-size="10.00">type_traits</text>
</a>
</g>
</g>
<!-- Node16&#45;&gt;Node32 -->
<g id="edge44_Node000016_Node000032" class="edge">
<title>Node16&#45;&gt;Node32</title>
<g id="a_edge44_Node000016_Node000032"><a xlink:title=" ">
<path fill="none" stroke="#63b8ff" d="M703.85,-164.99C734.82,-154.98 776,-141.67 805.23,-132.22"/>
<polygon fill="#63b8ff" stroke="#63b8ff" points="806.6,-135.46 815.03,-129.05 804.44,-128.8 806.6,-135.46"/>
</a>
</g>
</g>
<!-- Node17&#45;&gt;Node6 -->
<g id="edge25_Node000017_Node000006" class="edge">
<title>Node17&#45;&gt;Node6</title>
<g id="a_edge25_Node000017_Node000006"><a xlink:title=" ">
<path fill="none" stroke="#63b8ff" d="M287.36,-109.98C360.7,-99.89 481.94,-83.2 553.22,-73.39"/>
<polygon fill="#63b8ff" stroke="#63b8ff" points="553.93,-76.82 563.36,-71.99 552.97,-69.89 553.93,-76.82"/>
</a>
</g>
</g>
<!-- Node17&#45;&gt;Node10 -->
<g id="edge24_Node000017_Node000010" class="edge">
<title>Node17&#45;&gt;Node10</title>
<g id="a_edge24_Node000017_Node000010"><a xlink:title=" ">
<path fill="none" stroke="#63b8ff" d="M233.1,-109.75C239.66,-102.18 249.32,-91.05 257.31,-81.84"/>
<polygon fill="#63b8ff" stroke="#63b8ff" points="260.13,-83.94 264.05,-74.09 254.85,-79.35 260.13,-83.94"/>
</a>
</g>
</g>
<!-- Node17&#45;&gt;Node14 -->
<g id="edge23_Node000017_Node000014" class="edge">
<title>Node17&#45;&gt;Node14</title>
<g id="a_edge23_Node000017_Node000014"><a xlink:title=" ">
<path fill="none" stroke="#63b8ff" d="M257.47,-109.98C291.32,-100.97 344.9,-86.7 382.21,-76.76"/>
<polygon fill="#63b8ff" stroke="#63b8ff" points="383.51,-80.04 392.28,-74.08 381.71,-73.27 383.51,-80.04"/>
</a>
</g>
</g>
<!-- Node17&#45;&gt;Node18 -->
<g id="edge21_Node000017_Node000018" class="edge">
<title>Node17&#45;&gt;Node18</title>
<g id="a_edge21_Node000017_Node000018"><a xlink:title=" ">
<path fill="none" stroke="#63b8ff" d="M208.31,-109.98C191.25,-101.54 164.87,-88.47 145.1,-78.68"/>
<polygon fill="#63b8ff" stroke="#63b8ff" points="146.52,-75.47 136,-74.17 143.41,-81.75 146.52,-75.47"/>
</a>
</g>
</g>
<!-- Node19 -->
<g id="Node000019" class="node">
<title>Node19</title>
<g id="a_Node000019"><a xlink:title=" ">
<polygon fill="#e0e0e0" stroke="#999999" points="201.5,-74 157.5,-74 157.5,-55 201.5,-55 201.5,-74"/>
<text text-anchor="middle" x="179.5" y="-62" font-family="Helvetica,sans-Serif" font-size="10.00">limits</text>
</a>
</g>
</g>
<!-- Node17&#45;&gt;Node19 -->
<g id="edge22_Node000017_Node000019" class="edge">
<title>Node17&#45;&gt;Node19</title>
<g id="a_edge22_Node000017_Node000019"><a xlink:title=" ">
<path fill="none" stroke="#63b8ff" d="M217.9,-109.75C211.34,-102.18 201.68,-91.05 193.69,-81.84"/>
<polygon fill="#63b8ff" stroke="#63b8ff" points="196.15,-79.35 186.95,-74.09 190.87,-83.94 196.15,-79.35"/>
</a>
</g>
</g>
<!-- Node20&#45;&gt;Node6 -->
<g id="edge34_Node000020_Node000006" class="edge">
<title>Node20&#45;&gt;Node6</title>
<g id="a_edge34_Node000020_Node000006"><a xlink:title=" ">
<path fill="none" stroke="#63b8ff" d="M932.39,-110.27C868.32,-101.85 766,-88.21 667.66,-74.15"/>
<polygon fill="#63b8ff" stroke="#63b8ff" points="667.94,-70.65 657.55,-72.7 666.95,-77.58 667.94,-70.65"/>
</a>
</g>
</g>
<!-- Node21 -->
<g id="Node000021" class="node">
<title>Node21</title>
<g id="a_Node000021"><a xlink:href="_field_type_def_8h.html" target="_top" xlink:title=" ">
<polygon fill="white" stroke="#666666" points="1088.5,-74 1000.5,-74 1000.5,-55 1088.5,-55 1088.5,-74"/>
<text text-anchor="middle" x="1044.5" y="-62" font-family="Helvetica,sans-Serif" font-size="10.00">FieldTypeDef.h</text>
</a>
</g>
</g>
<!-- Node20&#45;&gt;Node21 -->
<g id="edge29_Node000020_Node000021" class="edge">
<title>Node20&#45;&gt;Node21</title>
<g id="a_edge29_Node000020_Node000021"><a xlink:title=" ">
<path fill="none" stroke="#63b8ff" d="M1003.59,-109.75C1010.66,-102.11 1021.09,-90.82 1029.65,-81.56"/>
<polygon fill="#63b8ff" stroke="#63b8ff" points="1032.34,-83.81 1036.56,-74.09 1027.2,-79.06 1032.34,-83.81"/>
</a>
</g>
</g>
<!-- Node20&#45;&gt;Node26 -->
<g id="edge35_Node000020_Node000026" class="edge">
<title>Node20&#45;&gt;Node26</title>
<g id="a_edge35_Node000020_Node000026"><a xlink:title=" ">
<path fill="none" stroke="#63b8ff" d="M1058.7,-111.3C1154.9,-100.33 1335.58,-79.74 1417.8,-70.37"/>
<polygon fill="#63b8ff" stroke="#63b8ff" points="1418.26,-73.84 1427.8,-69.23 1417.47,-66.88 1418.26,-73.84"/>
</a>
</g>
</g>
<!-- Node22 -->
<g id="Node000022" class="node">
<title>Node22</title>
<g id="a_Node000022"><a xlink:title=" ">
<polygon fill="#e0e0e0" stroke="#999999" points="1256,-19 1095,-19 1095,0 1256,0 1256,-19"/>
<text text-anchor="middle" x="1175.5" y="-7" font-family="Helvetica,sans-Serif" font-size="10.00">stk_mesh/base/FieldBase.hpp</text>
</a>
</g>
</g>
<!-- Node21&#45;&gt;Node22 -->
<g id="edge30_Node000021_Node000022" class="edge">
<title>Node21&#45;&gt;Node22</title>
<g id="a_edge30_Node000021_Node000022"><a xlink:title=" ">
<path fill="none" stroke="#63b8ff" d="M1065.55,-54.98C1086.91,-46.34 1120.2,-32.87 1144.56,-23.02"/>
<polygon fill="#63b8ff" stroke="#63b8ff" points="1146.11,-26.17 1154.07,-19.17 1143.49,-19.68 1146.11,-26.17"/>
</a>
</g>
</g>
<!-- Node23 -->
<g id="Node000023" class="node">
<title>Node23</title>
<g id="a_Node000023"><a xlink:title=" ">
<polygon fill="#e0e0e0" stroke="#999999" points="1408.5,-19 1274.5,-19 1274.5,0 1408.5,0 1408.5,-19"/>
<text text-anchor="middle" x="1341.5" y="-7" font-family="Helvetica,sans-Serif" font-size="10.00">stk_mesh/base/Ngp.hpp</text>
</a>
</g>
</g>
<!-- Node21&#45;&gt;Node23 -->
<g id="edge31_Node000021_Node000023" class="edge">
<title>Node21&#45;&gt;Node23</title>
<g id="a_edge31_Node000021_Node000023"><a xlink:title=" ">
<path fill="none" stroke="#63b8ff" d="M1088.64,-55.62C1140.47,-46.37 1226.6,-31 1283.71,-20.81"/>
<polygon fill="#63b8ff" stroke="#63b8ff" points="1284.44,-24.24 1293.67,-19.04 1283.21,-17.35 1284.44,-24.24"/>
</a>
</g>
</g>
<!-- Node24 -->
<g id="Node000024" class="node">
<title>Node24</title>
<g id="a_Node000024"><a xlink:title=" ">
<polygon fill="#e0e0e0" stroke="#999999" points="994,-19 837,-19 837,0 994,0 994,-19"/>
<text text-anchor="middle" x="915.5" y="-7" font-family="Helvetica,sans-Serif" font-size="10.00">stk_mesh/base/NgpField.hpp</text>
</a>
</g>
</g>
<!-- Node21&#45;&gt;Node24 -->
<g id="edge32_Node000021_Node000024" class="edge">
<title>Node21&#45;&gt;Node24</title>
<g id="a_edge32_Node000021_Node000024"><a xlink:title=" ">
<path fill="none" stroke="#63b8ff" d="M1023.77,-54.98C1002.74,-46.34 969.95,-32.87 945.96,-23.02"/>
<polygon fill="#63b8ff" stroke="#63b8ff" points="947.18,-19.73 936.6,-19.17 944.52,-26.21 947.18,-19.73"/>
</a>
</g>
</g>
<!-- Node25 -->
<g id="Node000025" class="node">
<title>Node25</title>
<g id="a_Node000025"><a xlink:title=" ">
<polygon fill="#e0e0e0" stroke="#999999" points="1077,-19 1012,-19 1012,0 1077,0 1077,-19"/>
<text text-anchor="middle" x="1044.5" y="-7" font-family="Helvetica,sans-Serif" font-size="10.00">functional</text>
</a>
</g>
</g>
<!-- Node21&#45;&gt;Node25 -->
<g id="edge33_Node000021_Node000025" class="edge">
<title>Node21&#45;&gt;Node25</title>
<g id="a_edge33_Node000021_Node000025"><a xlink:title=" ">
<path fill="none" stroke="#63b8ff" d="M1044.5,-54.75C1044.5,-47.8 1044.5,-37.85 1044.5,-29.13"/>
<polygon fill="#63b8ff" stroke="#63b8ff" points="1048,-29.09 1044.5,-19.09 1041,-29.09 1048,-29.09"/>
</a>
</g>
</g>
<!-- Node27 -->
<g id="Node000027" class="node">
<title>Node27</title>
<g id="a_Node000027"><a xlink:title=" ">
<polygon fill="#e0e0e0" stroke="#999999" points="1556.5,-19 1512.5,-19 1512.5,0 1556.5,0 1556.5,-19"/>
<text text-anchor="middle" x="1534.5" y="-7" font-family="Helvetica,sans-Serif" font-size="10.00">mpi.h</text>
</a>
</g>
</g>
<!-- Node26&#45;&gt;Node27 -->
<g id="edge36_Node000026_Node000027" class="edge">
<title>Node26&#45;&gt;Node27</title>
<g id="a_edge36_Node000026_Node000027"><a xlink:title=" ">
<path fill="none" stroke="#63b8ff" d="M1472.39,-54.98C1483.65,-46.92 1500.79,-34.65 1514.21,-25.03"/>
<polygon fill="#63b8ff" stroke="#63b8ff" points="1516.3,-27.84 1522.39,-19.17 1512.23,-22.15 1516.3,-27.84"/>
</a>
</g>
</g>
<!-- Node28 -->
<g id="Node000028" class="node">
<title>Node28</title>
<g id="a_Node000028"><a xlink:title=" ">
<polygon fill="#e0e0e0" stroke="#999999" points="1630,-19 1575,-19 1575,0 1630,0 1630,-19"/>
<text text-anchor="middle" x="1602.5" y="-7" font-family="Helvetica,sans-Serif" font-size="10.00">fstream</text>
</a>
</g>
</g>
<!-- Node26&#45;&gt;Node28 -->
<g id="edge37_Node000026_Node000028" class="edge">
<title>Node26&#45;&gt;Node28</title>
<g id="a_edge37_Node000026_Node000028"><a xlink:title=" ">
<path fill="none" stroke="#63b8ff" d="M1483.31,-54.98C1506.67,-46.27 1543.2,-32.63 1569.67,-22.75"/>
<polygon fill="#63b8ff" stroke="#63b8ff" points="1571.13,-25.95 1579.27,-19.17 1568.68,-19.39 1571.13,-25.95"/>
</a>
</g>
</g>
<!-- Node29 -->
<g id="Node000029" class="node">
<title>Node29</title>
<g id="a_Node000029"><a xlink:title=" ">
<polygon fill="#e0e0e0" stroke="#999999" points="1494,-19 1427,-19 1427,0 1494,0 1494,-19"/>
<text text-anchor="middle" x="1460.5" y="-7" font-family="Helvetica,sans-Serif" font-size="10.00">streambuf</text>
</a>
</g>
</g>
<!-- Node26&#45;&gt;Node29 -->
<g id="edge38_Node000026_Node000029" class="edge">
<title>Node26&#45;&gt;Node29</title>
<g id="a_edge38_Node000026_Node000029"><a xlink:title=" ">
<path fill="none" stroke="#63b8ff" d="M1460.5,-54.75C1460.5,-47.8 1460.5,-37.85 1460.5,-29.13"/>
<polygon fill="#63b8ff" stroke="#63b8ff" points="1464,-29.09 1460.5,-19.09 1457,-29.09 1464,-29.09"/>
</a>
</g>
</g>
</g>
</svg>

<g id="navigator" transform="translate(0 0)" fill="#404254">
  <rect fill="#f2f5e9" fill-opacity="0.5" stroke="#606060" stroke-width=".5" x="0" y="0" width="60" height="60"/>
  <use id="zoomplus" xlink:href="#zoomPlus" x="17" y="9" onmousedown="handleZoom(evt,'in')"/>
  <use id="zoomminus" xlink:href="#zoomMin" x="42" y="9" onmousedown="handleZoom(evt,'out')"/>
  <use id="reset" xlink:href="#resetDef" x="30" y="36" onmousedown="handleReset()"/>
   <use id="arrowup" xlink:href="#arrowUp" x="0" y="0" onmousedown="handlePan(0,-1)"/>
  <use id="arrowright" xlink:href="#arrowRight" x="0" y="0" onmousedown="handlePan(1,0)"/>
  <use id="arrowdown" xlink:href="#arrowDown" x="0" y="0" onmousedown="handlePan(0,1)"/>
  <use id="arrowleft" xlink:href="#arrowLeft" x="0" y="0" onmousedown="handlePan(-1,0)"/>
</g>
<svg viewBox="0 0 15 15" width="100%" height="30px" preserveAspectRatio="xMaxYMin meet">
 <g id="arrow_out" transform="scale(0.3 0.3)">
  <a xlink:href="_hex8_f_e_m_8_c__incl_org.svg" target="_base">
   <rect id="button" ry="5" rx="5" y="6" x="6" height="38" width="38"
        fill="#f2f5e9" fill-opacity="0.5" stroke="#606060" stroke-width="1.0"/>
   <path id="arrow"
     d="M 11.500037,31.436501 C 11.940474,20.09759 22.043105,11.32322 32.158766,21.979434 L 37.068811,17.246167 C 37.068811,17.246167 37.088388,32 37.088388,32 L 22.160133,31.978069 C 22.160133,31.978069 26.997745,27.140456 26.997745,27.140456 C 18.528582,18.264221 13.291696,25.230495 11.500037,31.436501 z"
     style="fill:#404040;"/>
  </a>
 </g>
</svg>

<style type='text/css'>
<![CDATA[
[data-mouse-over-selected='false'] { opacity: 0.7; }
[data-mouse-over-selected='true']  { opacity: 1.0; }
]]>
</style>
<script type="application/ecmascript"><![CDATA[
document.addEventListener('DOMContentLoaded', (event) => {
  highlightEdges();
  highlightAdjacentNodes();
});
]]></script>
</svg>
