<?xml version="1.0" encoding="UTF-8" standalone="no"?>
<!DOCTYPE svg PUBLIC "-//W3C//DTD SVG 1.1//EN"
 "http://www.w3.org/Graphics/SVG/1.1/DTD/svg11.dtd">
<!-- Generated by graphviz version 2.43.0 (0)
 -->
<!-- Title: Hex8GeometryFunctions.h Pages: 1 -->
<svg width="994pt" height="95pt"
 viewBox="0.00 0.00 994.00 95.00" xmlns="http://www.w3.org/2000/svg" xmlns:xlink="http://www.w3.org/1999/xlink">
<g id="graph0" class="graph" transform="scale(1 1) rotate(0) translate(4 91)">
<title>Hex8GeometryFunctions.h</title>
<polygon fill="white" stroke="transparent" points="-4,4 -4,-91 990,-91 990,4 -4,4"/>
<!-- Node1 -->
<g id="node1" class="node">
<title>Node1</title>
<g id="a_node1"><a xlink:title=" ">
<polygon fill="#bfbfbf" stroke="black" points="489,-67.5 489,-86.5 635,-86.5 635,-67.5 489,-67.5"/>
<text text-anchor="middle" x="562" y="-74.5" font-family="Helvetica,sans-Serif" font-size="10.00">Hex8GeometryFunctions.h</text>
</a>
</g>
</g>
<!-- Node2 -->
<g id="node2" class="node">
<title>Node2</title>
<g id="a_node2"><a xlink:href="_tensor_product_c_v_f_e_m_momentum_adv_diff_8h.html" target="_top" xlink:title=" ">
<polygon fill="white" stroke="black" points="0,-0.5 0,-30.5 176,-30.5 176,-0.5 0,-0.5"/>
<text text-anchor="start" x="8" y="-18.5" font-family="Helvetica,sans-Serif" font-size="10.00">TensorProductCVFEMMomentum</text>
<text text-anchor="middle" x="88" y="-7.5" font-family="Helvetica,sans-Serif" font-size="10.00">AdvDiff.h</text>
</a>
</g>
</g>
<!-- Node1&#45;&gt;Node2 -->
<g id="edge1" class="edge">
<title>Node1&#45;&gt;Node2</title>
<path fill="none" stroke="midnightblue" d="M478.67,-66.84C402.01,-58.23 285.23,-44.67 184,-31 181.41,-30.65 178.78,-30.29 176.13,-29.92"/>
<polygon fill="midnightblue" stroke="midnightblue" points="478.42,-70.33 488.74,-67.97 479.19,-63.38 478.42,-70.33"/>
</g>
<!-- Node3 -->
<g id="node3" class="node">
<title>Node3</title>
<g id="a_node3"><a xlink:href="_mesh_velocity_alg_8_c.html" target="_top" xlink:title=" ">
<polygon fill="white" stroke="black" points="193.5,-6 193.5,-25 300.5,-25 300.5,-6 193.5,-6"/>
<text text-anchor="middle" x="247" y="-13" font-family="Helvetica,sans-Serif" font-size="10.00">MeshVelocityAlg.C</text>
</a>
</g>
</g>
<!-- Node1&#45;&gt;Node3 -->
<g id="edge2" class="edge">
<title>Node1&#45;&gt;Node3</title>
<path fill="none" stroke="midnightblue" d="M499.08,-65.77C447.78,-57.21 373.52,-44.27 309,-31 300.23,-29.2 290.8,-27.08 282.01,-25.03"/>
<polygon fill="midnightblue" stroke="midnightblue" points="498.59,-69.24 509.02,-67.43 499.73,-62.33 498.59,-69.24"/>
</g>
<!-- Node4 -->
<g id="node4" class="node">
<title>Node4</title>
<g id="a_node4"><a xlink:href="_mesh_velocity_edge_alg_8_c.html" target="_top" xlink:title=" ">
<polygon fill="white" stroke="black" points="318.5,-6 318.5,-25 449.5,-25 449.5,-6 318.5,-6"/>
<text text-anchor="middle" x="384" y="-13" font-family="Helvetica,sans-Serif" font-size="10.00">MeshVelocityEdgeAlg.C</text>
</a>
</g>
</g>
<!-- Node1&#45;&gt;Node4 -->
<g id="edge3" class="edge">
<title>Node1&#45;&gt;Node4</title>
<path fill="none" stroke="midnightblue" d="M526.79,-64.23C492.19,-52.67 440.23,-35.3 409.46,-25.01"/>
<polygon fill="midnightblue" stroke="midnightblue" points="525.9,-67.62 536.5,-67.48 528.12,-60.99 525.9,-67.62"/>
</g>
<!-- Node5 -->
<g id="node5" class="node">
<title>Node5</title>
<g id="a_node5"><a xlink:href="_hex8_c_v_f_e_m_8_c.html" target="_top" xlink:title=" ">
<polygon fill="white" stroke="black" points="468,-6 468,-25 554,-25 554,-6 468,-6"/>
<text text-anchor="middle" x="511" y="-13" font-family="Helvetica,sans-Serif" font-size="10.00">Hex8CVFEM.C</text>
</a>
</g>
</g>
<!-- Node1&#45;&gt;Node5 -->
<g id="edge4" class="edge">
<title>Node1&#45;&gt;Node5</title>
<path fill="none" stroke="midnightblue" d="M548,-59.67C538.39,-48.45 526.01,-34.02 518.29,-25.01"/>
<polygon fill="midnightblue" stroke="midnightblue" points="545.53,-62.16 554.69,-67.48 550.84,-57.6 545.53,-62.16"/>
</g>
<!-- Node6 -->
<g id="node6" class="node">
<title>Node6</title>
<g id="a_node6"><a xlink:href="_pyr5_c_v_f_e_m_8_c.html" target="_top" xlink:title=" ">
<polygon fill="white" stroke="black" points="572.5,-6 572.5,-25 655.5,-25 655.5,-6 572.5,-6"/>
<text text-anchor="middle" x="614" y="-13" font-family="Helvetica,sans-Serif" font-size="10.00">Pyr5CVFEM.C</text>
</a>
</g>
</g>
<!-- Node1&#45;&gt;Node6 -->
<g id="edge5" class="edge">
<title>Node1&#45;&gt;Node6</title>
<path fill="none" stroke="midnightblue" d="M576.27,-59.67C586.08,-48.45 598.69,-34.02 606.56,-25.01"/>
<polygon fill="midnightblue" stroke="midnightblue" points="573.4,-57.64 569.45,-67.48 578.67,-62.25 573.4,-57.64"/>
</g>
<!-- Node7 -->
<g id="node7" class="node">
<title>Node7</title>
<g id="a_node7"><a xlink:href="_quad43_d_c_v_f_e_m_8_c.html" target="_top" xlink:title=" ">
<polygon fill="white" stroke="black" points="674,-6 674,-25 780,-25 780,-6 674,-6"/>
<text text-anchor="middle" x="727" y="-13" font-family="Helvetica,sans-Serif" font-size="10.00">Quad43DCVFEM.C</text>
</a>
</g>
</g>
<!-- Node1&#45;&gt;Node7 -->
<g id="edge6" class="edge">
<title>Node1&#45;&gt;Node7</title>
<path fill="none" stroke="midnightblue" d="M595.05,-64.08C627.12,-52.52 675,-35.25 703.4,-25.01"/>
<polygon fill="midnightblue" stroke="midnightblue" points="593.86,-60.79 585.64,-67.48 596.23,-67.38 593.86,-60.79"/>
</g>
<!-- Node8 -->
<g id="node8" class="node">
<title>Node8</title>
<g id="a_node8"><a xlink:href="_tet4_c_v_f_e_m_8_c.html" target="_top" xlink:title=" ">
<polygon fill="white" stroke="black" points="798.5,-6 798.5,-25 879.5,-25 879.5,-6 798.5,-6"/>
<text text-anchor="middle" x="839" y="-13" font-family="Helvetica,sans-Serif" font-size="10.00">Tet4CVFEM.C</text>
</a>
</g>
</g>
<!-- Node1&#45;&gt;Node8 -->
<g id="edge7" class="edge">
<title>Node1&#45;&gt;Node8</title>
<path fill="none" stroke="midnightblue" d="M621.51,-65.66C667.48,-57.32 732.57,-44.75 789,-31 796.2,-29.25 803.92,-27.13 811.08,-25.06"/>
<polygon fill="midnightblue" stroke="midnightblue" points="620.64,-62.26 611.42,-67.48 621.88,-69.15 620.64,-62.26"/>
</g>
<!-- Node9 -->
<g id="node9" class="node">
<title>Node9</title>
<g id="a_node9"><a xlink:href="_wed6_c_v_f_e_m_8_c.html" target="_top" xlink:title=" ">
<polygon fill="white" stroke="black" points="898,-6 898,-25 986,-25 986,-6 898,-6"/>
<text text-anchor="middle" x="942" y="-13" font-family="Helvetica,sans-Serif" font-size="10.00">Wed6CVFEM.C</text>
</a>
</g>
</g>
<!-- Node1&#45;&gt;Node9 -->
<g id="edge8" class="edge">
<title>Node1&#45;&gt;Node9</title>
<path fill="none" stroke="midnightblue" d="M645.18,-67.58C711.58,-60.14 806.76,-47.83 889,-31 897.04,-29.35 905.66,-27.18 913.56,-25.01"/>
<polygon fill="midnightblue" stroke="midnightblue" points="644.75,-64.11 635.19,-68.69 645.52,-71.07 644.75,-64.11"/>
</g>
</g>
</svg>
