<?xml version="1.0" encoding="UTF-8" standalone="no"?>
<!DOCTYPE svg PUBLIC "-//W3C//DTD SVG 1.1//EN"
 "http://www.w3.org/Graphics/SVG/1.1/DTD/svg11.dtd">
<!-- Generated by graphviz version 2.43.0 (0)
 -->
<!-- Title: Hex8CVFEM.h Pages: 1 -->
<!--zoomable 263 -->
<svg id="main" version="1.1" xmlns="http://www.w3.org/2000/svg" xmlns:xlink="http://www.w3.org/1999/xlink" xml:space="preserve" onload="init(evt)">
<style type="text/css"><![CDATA[
.edge:hover path { stroke: red; }
.edge:hover polygon { stroke: red; fill: red; }
]]></style>
<script type="text/javascript"><![CDATA[
var edges = document.getElementsByTagName('g');
if (edges && edges.length) {
  for (var i=0;i<edges.length;i++) {
    if (edges[i].id.substr(0,4)=='edge') {
      edges[i].setAttribute('class','edge');
    }
  }
}
]]></script>
        <defs>
                <circle id="rim" cx="0" cy="0" r="7"/>
                <circle id="rim2" cx="0" cy="0" r="3.5"/>
                <g id="zoomPlus">
                        <use xlink:href="#rim" fill="#404040">
                                <set attributeName="fill" to="#808080" begin="zoomplus.mouseover" end="zoomplus.mouseout"/>
                        </use>
                        <path d="M-4,0h8M0,-4v8" fill="none" stroke="white" stroke-width="1.5" pointer-events="none"/>
                </g>
                <g id="zoomMin">
                        <use xlink:href="#rim" fill="#404040">
                                <set attributeName="fill" to="#808080" begin="zoomminus.mouseover" end="zoomminus.mouseout"/>
                        </use>
                        <path d="M-4,0h8" fill="none" stroke="white" stroke-width="1.5" pointer-events="none"/>
                </g>
                <g id="dirArrow">
                        <path fill="none" stroke="white" stroke-width="1.5" d="M0,-3.0v7 M-2.5,-0.5L0,-3.0L2.5,-0.5"/>
                </g>
               <g id="resetDef">
                       <use xlink:href="#rim2" fill="#404040">
                               <set attributeName="fill" to="#808080" begin="reset.mouseover" end="reset.mouseout"/>
                       </use>
               </g>
        </defs>

<script type="text/javascript">
var viewWidth = 1827;
var viewHeight = 263;
var sectionId = 'dynsection-0';
</script>
<script xlink:href="svgpan.js"/>
<svg id="graph" class="graph">
<g id="viewport">
<title>Hex8CVFEM.h</title>
<polygon fill="white" stroke="transparent" points="-4,4 -4,-259 1822.5,-259 1822.5,4 -4,4"/>
<!-- Node1 -->
<g id="node1" class="node">
<title>Node1</title>
<g id="a_node1"><a xlink:title=" ">
<polygon fill="#bfbfbf" stroke="black" points="315,-235.5 315,-254.5 401,-254.5 401,-235.5 315,-235.5"/>
<text text-anchor="middle" x="358" y="-242.5" font-family="Helvetica,sans-Serif" font-size="10.00">Hex8CVFEM.h</text>
</a>
</g>
</g>
<!-- Node2 -->
<g id="node2" class="node">
<title>Node2</title>
<g id="a_node2"><a xlink:title=" ">
<polygon fill="white" stroke="#bfbfbf" points="0,-56.5 0,-75.5 42,-75.5 42,-56.5 0,-56.5"/>
<text text-anchor="middle" x="21" y="-63.5" font-family="Helvetica,sans-Serif" font-size="10.00">array</text>
</a>
</g>
</g>
<!-- Node1&#45;&gt;Node2 -->
<g id="edge1" class="edge">
<title>Node1&#45;&gt;Node2</title>
<path fill="none" stroke="midnightblue" d="M314.74,-240.03C248.1,-231.68 120.16,-206.41 45,-132 32.59,-119.71 26.54,-100.46 23.62,-86.09"/>
<polygon fill="midnightblue" stroke="midnightblue" points="27.01,-85.12 21.89,-75.84 20.1,-86.28 27.01,-85.12"/>
</g>
<!-- Node3 -->
<g id="node3" class="node">
<title>Node3</title>
<g id="a_node3"><a xlink:href="_master_element_8h.html" target="_top" xlink:title=" ">
<polygon fill="white" stroke="black" points="266.5,-112.5 266.5,-131.5 449.5,-131.5 449.5,-112.5 266.5,-112.5"/>
<text text-anchor="middle" x="358" y="-119.5" font-family="Helvetica,sans-Serif" font-size="10.00">master_element/MasterElement.h</text>
</a>
</g>
</g>
<!-- Node1&#45;&gt;Node3 -->
<g id="edge2" class="edge">
<title>Node1&#45;&gt;Node3</title>
<path fill="none" stroke="midnightblue" d="M358,-235.3C358,-215.85 358,-168.49 358,-141.9"/>
<polygon fill="midnightblue" stroke="midnightblue" points="361.5,-141.62 358,-131.62 354.5,-141.62 361.5,-141.62"/>
</g>
<!-- Node16 -->
<g id="node16" class="node">
<title>Node16</title>
<g id="a_node16"><a xlink:href="_master_element_functions_8h.html" target="_top" xlink:title=" ">
<polygon fill="white" stroke="black" points="444,-168.5 444,-198.5 618,-198.5 618,-168.5 444,-168.5"/>
<text text-anchor="start" x="452" y="-186.5" font-family="Helvetica,sans-Serif" font-size="10.00">master_element/MasterElement</text>
<text text-anchor="middle" x="531" y="-175.5" font-family="Helvetica,sans-Serif" font-size="10.00">Functions.h</text>
</a>
</g>
</g>
<!-- Node1&#45;&gt;Node16 -->
<g id="edge16" class="edge">
<title>Node1&#45;&gt;Node16</title>
<path fill="none" stroke="midnightblue" d="M382.79,-235.48C408.19,-226.74 448.4,-212.91 480.54,-201.86"/>
<polygon fill="midnightblue" stroke="midnightblue" points="481.91,-205.09 490.23,-198.52 479.63,-198.47 481.91,-205.09"/>
</g>
<!-- Node4 -->
<g id="node4" class="node">
<title>Node4</title>
<g id="a_node4"><a xlink:href="_alg_traits_8h.html" target="_top" xlink:title=" ">
<polygon fill="white" stroke="black" points="722,-56.5 722,-75.5 790,-75.5 790,-56.5 722,-56.5"/>
<text text-anchor="middle" x="756" y="-63.5" font-family="Helvetica,sans-Serif" font-size="10.00">AlgTraits.h</text>
</a>
</g>
</g>
<!-- Node3&#45;&gt;Node4 -->
<g id="edge3" class="edge">
<title>Node3&#45;&gt;Node4</title>
<path fill="none" stroke="midnightblue" d="M421.06,-112.44C502.23,-101.43 641.18,-82.58 711.88,-72.99"/>
<polygon fill="midnightblue" stroke="midnightblue" points="712.36,-76.45 721.8,-71.64 711.42,-69.52 712.36,-76.45"/>
</g>
<!-- Node6 -->
<g id="node6" class="node">
<title>Node6</title>
<g id="a_node6"><a xlink:href="_simd_interface_8h.html" target="_top" xlink:title="STK SIMD Interface.">
<polygon fill="white" stroke="black" points="808,-56.5 808,-75.5 902,-75.5 902,-56.5 808,-56.5"/>
<text text-anchor="middle" x="855" y="-63.5" font-family="Helvetica,sans-Serif" font-size="10.00">SimdInterface.h</text>
</a>
</g>
</g>
<!-- Node3&#45;&gt;Node6 -->
<g id="edge5" class="edge">
<title>Node3&#45;&gt;Node6</title>
<path fill="none" stroke="midnightblue" d="M449.82,-113.19C536.8,-105.43 671.31,-92.5 797.72,-76.1"/>
<polygon fill="midnightblue" stroke="midnightblue" points="798.51,-79.53 807.98,-74.76 797.61,-72.59 798.51,-79.53"/>
</g>
<!-- Node10 -->
<g id="node10" class="node">
<title>Node10</title>
<g id="a_node10"><a xlink:href="_kokkos_interface_8h.html" target="_top" xlink:title=" ">
<polygon fill="white" stroke="black" points="306,-56.5 306,-75.5 410,-75.5 410,-56.5 306,-56.5"/>
<text text-anchor="middle" x="358" y="-63.5" font-family="Helvetica,sans-Serif" font-size="10.00">KokkosInterface.h</text>
</a>
</g>
</g>
<!-- Node3&#45;&gt;Node10 -->
<g id="edge9" class="edge">
<title>Node3&#45;&gt;Node10</title>
<path fill="none" stroke="midnightblue" d="M358,-112.08C358,-105.01 358,-94.86 358,-85.99"/>
<polygon fill="midnightblue" stroke="midnightblue" points="361.5,-85.75 358,-75.75 354.5,-85.75 361.5,-85.75"/>
</g>
<!-- Node14 -->
<g id="node14" class="node">
<title>Node14</title>
<g id="a_node14"><a xlink:title=" ">
<polygon fill="white" stroke="#bfbfbf" points="122.5,-56.5 122.5,-75.5 287.5,-75.5 287.5,-56.5 122.5,-56.5"/>
<text text-anchor="middle" x="205" y="-63.5" font-family="Helvetica,sans-Serif" font-size="10.00">stk_util/util/ReportHandler.hpp</text>
</a>
</g>
</g>
<!-- Node3&#45;&gt;Node14 -->
<g id="edge14" class="edge">
<title>Node3&#45;&gt;Node14</title>
<path fill="none" stroke="midnightblue" d="M333.76,-112.44C308.13,-103.4 267.51,-89.06 238.76,-78.92"/>
<polygon fill="midnightblue" stroke="midnightblue" points="239.72,-75.54 229.13,-75.52 237.39,-82.15 239.72,-75.54"/>
</g>
<!-- Node15 -->
<g id="node15" class="node">
<title>Node15</title>
<g id="a_node15"><a xlink:title=" ">
<polygon fill="white" stroke="#bfbfbf" points="437.5,-56.5 437.5,-75.5 502.5,-75.5 502.5,-56.5 437.5,-56.5"/>
<text text-anchor="middle" x="470" y="-63.5" font-family="Helvetica,sans-Serif" font-size="10.00">stdexcept</text>
</a>
</g>
</g>
<!-- Node3&#45;&gt;Node15 -->
<g id="edge15" class="edge">
<title>Node3&#45;&gt;Node15</title>
<path fill="none" stroke="midnightblue" d="M375.99,-112.32C394.04,-103.62 422.05,-90.12 442.8,-80.11"/>
<polygon fill="midnightblue" stroke="midnightblue" points="444.56,-83.15 452.05,-75.65 441.52,-76.84 444.56,-83.15"/>
</g>
<!-- Node5 -->
<g id="node5" class="node">
<title>Node5</title>
<g id="a_node5"><a xlink:title=" ">
<polygon fill="white" stroke="#bfbfbf" points="537.5,-0.5 537.5,-19.5 682.5,-19.5 682.5,-0.5 537.5,-0.5"/>
<text text-anchor="middle" x="610" y="-7.5" font-family="Helvetica,sans-Serif" font-size="10.00">stk_topology/topology.hpp</text>
</a>
</g>
</g>
<!-- Node4&#45;&gt;Node5 -->
<g id="edge4" class="edge">
<title>Node4&#45;&gt;Node5</title>
<path fill="none" stroke="midnightblue" d="M732.87,-56.44C708.52,-47.44 669.99,-33.19 642.58,-23.05"/>
<polygon fill="midnightblue" stroke="midnightblue" points="643.62,-19.7 633.03,-19.52 641.19,-26.27 643.62,-19.7"/>
</g>
<!-- Node7 -->
<g id="node7" class="node">
<title>Node7</title>
<g id="a_node7"><a xlink:title=" ">
<polygon fill="white" stroke="#bfbfbf" points="897,-0.5 897,-19.5 1007,-19.5 1007,-0.5 897,-0.5"/>
<text text-anchor="middle" x="952" y="-7.5" font-family="Helvetica,sans-Serif" font-size="10.00">stk_simd/Simd.hpp</text>
</a>
</g>
</g>
<!-- Node6&#45;&gt;Node7 -->
<g id="edge6" class="edge">
<title>Node6&#45;&gt;Node7</title>
<path fill="none" stroke="midnightblue" d="M870.58,-56.32C886,-47.74 909.81,-34.49 927.71,-24.52"/>
<polygon fill="midnightblue" stroke="midnightblue" points="929.42,-27.58 936.45,-19.65 926.01,-21.46 929.42,-27.58"/>
</g>
<!-- Node8 -->
<g id="node8" class="node">
<title>Node8</title>
<g id="a_node8"><a xlink:title=" ">
<polygon fill="white" stroke="#bfbfbf" points="700.5,-0.5 700.5,-19.5 813.5,-19.5 813.5,-0.5 700.5,-0.5"/>
<text text-anchor="middle" x="757" y="-7.5" font-family="Helvetica,sans-Serif" font-size="10.00">Kokkos_Macros.hpp</text>
</a>
</g>
</g>
<!-- Node6&#45;&gt;Node8 -->
<g id="edge7" class="edge">
<title>Node6&#45;&gt;Node8</title>
<path fill="none" stroke="midnightblue" d="M839.25,-56.32C823.68,-47.74 799.62,-34.49 781.54,-24.52"/>
<polygon fill="midnightblue" stroke="midnightblue" points="783.15,-21.42 772.71,-19.65 779.78,-27.55 783.15,-21.42"/>
</g>
<!-- Node9 -->
<g id="node9" class="node">
<title>Node9</title>
<g id="a_node9"><a xlink:title=" ">
<polygon fill="white" stroke="#bfbfbf" points="831.5,-0.5 831.5,-19.5 878.5,-19.5 878.5,-0.5 831.5,-0.5"/>
<text text-anchor="middle" x="855" y="-7.5" font-family="Helvetica,sans-Serif" font-size="10.00">vector</text>
</a>
</g>
</g>
<!-- Node6&#45;&gt;Node9 -->
<g id="edge8" class="edge">
<title>Node6&#45;&gt;Node9</title>
<path fill="none" stroke="midnightblue" d="M855,-56.08C855,-49.01 855,-38.86 855,-29.99"/>
<polygon fill="midnightblue" stroke="midnightblue" points="858.5,-29.75 855,-19.75 851.5,-29.75 858.5,-29.75"/>
</g>
<!-- Node10&#45;&gt;Node8 -->
<g id="edge12" class="edge">
<title>Node10&#45;&gt;Node8</title>
<path fill="none" stroke="midnightblue" d="M410.2,-57.97C473.72,-49.4 584.52,-34.45 690.26,-20.1"/>
<polygon fill="midnightblue" stroke="midnightblue" points="691.04,-23.53 700.47,-18.71 690.1,-16.59 691.04,-23.53"/>
</g>
<!-- Node11 -->
<g id="node11" class="node">
<title>Node11</title>
<g id="a_node11"><a xlink:title=" ">
<polygon fill="white" stroke="#bfbfbf" points="188.5,-0.5 188.5,-19.5 241.5,-19.5 241.5,-0.5 188.5,-0.5"/>
<text text-anchor="middle" x="215" y="-7.5" font-family="Helvetica,sans-Serif" font-size="10.00">cstddef</text>
</a>
</g>
</g>
<!-- Node10&#45;&gt;Node11 -->
<g id="edge10" class="edge">
<title>Node10&#45;&gt;Node11</title>
<path fill="none" stroke="midnightblue" d="M335.34,-56.44C311.6,-47.48 274.09,-33.31 247.26,-23.18"/>
<polygon fill="midnightblue" stroke="midnightblue" points="248.14,-19.77 237.55,-19.52 245.67,-26.32 248.14,-19.77"/>
</g>
<!-- Node12 -->
<g id="node12" class="node">
<title>Node12</title>
<g id="a_node12"><a xlink:title=" ">
<polygon fill="white" stroke="#bfbfbf" points="259.5,-0.5 259.5,-19.5 400.5,-19.5 400.5,-0.5 259.5,-0.5"/>
<text text-anchor="middle" x="330" y="-7.5" font-family="Helvetica,sans-Serif" font-size="10.00">stk_mesh/base/Entity.hpp</text>
</a>
</g>
</g>
<!-- Node10&#45;&gt;Node12 -->
<g id="edge11" class="edge">
<title>Node10&#45;&gt;Node12</title>
<path fill="none" stroke="midnightblue" d="M353.38,-56.08C349.54,-48.69 343.98,-37.95 339.24,-28.81"/>
<polygon fill="midnightblue" stroke="midnightblue" points="342.25,-27.02 334.54,-19.75 336.03,-30.24 342.25,-27.02"/>
</g>
<!-- Node13 -->
<g id="node13" class="node">
<title>Node13</title>
<g id="a_node13"><a xlink:title=" ">
<polygon fill="white" stroke="#bfbfbf" points="419,-0.5 419,-19.5 519,-19.5 519,-0.5 419,-0.5"/>
<text text-anchor="middle" x="469" y="-7.5" font-family="Helvetica,sans-Serif" font-size="10.00">Kokkos_Core.hpp</text>
</a>
</g>
</g>
<!-- Node10&#45;&gt;Node13 -->
<g id="edge13" class="edge">
<title>Node10&#45;&gt;Node13</title>
<path fill="none" stroke="midnightblue" d="M375.83,-56.32C393.72,-47.62 421.48,-34.12 442.05,-24.11"/>
<polygon fill="midnightblue" stroke="midnightblue" points="443.75,-27.18 451.21,-19.65 440.69,-20.88 443.75,-27.18"/>
</g>
<!-- Node16&#45;&gt;Node2 -->
<g id="edge42" class="edge">
<title>Node16&#45;&gt;Node2</title>
<path fill="none" stroke="midnightblue" d="M443.6,-181.09C328.05,-177.85 131.86,-167.17 70,-132 51.05,-121.23 37.15,-99.85 29.09,-84.55"/>
<polygon fill="midnightblue" stroke="midnightblue" points="32.21,-82.96 24.65,-75.54 25.94,-86.06 32.21,-82.96"/>
</g>
<!-- Node16&#45;&gt;Node3 -->
<g id="edge18" class="edge">
<title>Node16&#45;&gt;Node3</title>
<path fill="none" stroke="midnightblue" d="M490,-168.4C460.37,-158.21 420.77,-144.59 392.7,-134.93"/>
<polygon fill="midnightblue" stroke="midnightblue" points="393.52,-131.51 382.92,-131.57 391.24,-138.13 393.52,-131.51"/>
</g>
<!-- Node16&#45;&gt;Node4 -->
<g id="edge17" class="edge">
<title>Node16&#45;&gt;Node4</title>
<path fill="none" stroke="midnightblue" d="M618.04,-172.46C670.49,-164.54 730.45,-151.52 748,-132 759.04,-119.72 760.13,-100.47 759,-86.09"/>
<polygon fill="midnightblue" stroke="midnightblue" points="762.44,-85.35 757.78,-75.84 755.49,-86.19 762.44,-85.35"/>
</g>
<!-- Node16&#45;&gt;Node6 -->
<g id="edge25" class="edge">
<title>Node16&#45;&gt;Node6</title>
<path fill="none" stroke="midnightblue" d="M618.15,-172.88C663.93,-165.61 720.11,-153.14 767,-132 794.43,-119.64 821.6,-97.69 838.34,-82.75"/>
<polygon fill="midnightblue" stroke="midnightblue" points="841.07,-85 846.08,-75.67 836.34,-79.83 841.07,-85"/>
</g>
<!-- Node16&#45;&gt;Node13 -->
<g id="edge26" class="edge">
<title>Node16&#45;&gt;Node13</title>
<path fill="none" stroke="midnightblue" d="M618.03,-177.59C677.81,-170.55 741.75,-153.45 714,-112 690.5,-76.89 574.6,-40.17 510.99,-22.22"/>
<polygon fill="midnightblue" stroke="midnightblue" points="511.82,-18.82 501.25,-19.51 509.94,-25.56 511.82,-18.82"/>
</g>
<!-- Node16&#45;&gt;Node14 -->
<g id="edge38" class="edge">
<title>Node16&#45;&gt;Node14</title>
<path fill="none" stroke="midnightblue" d="M443.93,-178.89C319.67,-172.84 103.78,-158.59 80,-132 56.02,-105.19 100.83,-87.73 143.32,-77.73"/>
<polygon fill="midnightblue" stroke="midnightblue" points="144.17,-81.13 153.17,-75.53 142.65,-74.29 144.17,-81.13"/>
</g>
<!-- Node16&#45;&gt;Node15 -->
<g id="edge40" class="edge">
<title>Node16&#45;&gt;Node15</title>
<path fill="none" stroke="midnightblue" d="M520.39,-168.39C513.25,-158.52 503.9,-144.85 497,-132 488.78,-116.71 481.37,-98.38 476.4,-85.09"/>
<polygon fill="midnightblue" stroke="midnightblue" points="479.68,-83.86 472.97,-75.66 473.1,-86.26 479.68,-83.86"/>
</g>
<!-- Node17 -->
<g id="node17" class="node">
<title>Node17</title>
<g id="a_node17"><a xlink:href="_tensor_ops_8h.html" target="_top" xlink:title=" ">
<polygon fill="white" stroke="black" points="89.5,-112.5 89.5,-131.5 248.5,-131.5 248.5,-112.5 89.5,-112.5"/>
<text text-anchor="middle" x="169" y="-119.5" font-family="Helvetica,sans-Serif" font-size="10.00">master_element/TensorOps.h</text>
</a>
</g>
</g>
<!-- Node16&#45;&gt;Node17 -->
<g id="edge19" class="edge">
<title>Node16&#45;&gt;Node17</title>
<path fill="none" stroke="midnightblue" d="M445.67,-168.47C379.67,-157.63 289.86,-142.87 230.7,-133.14"/>
<polygon fill="midnightblue" stroke="midnightblue" points="231.19,-129.67 220.75,-131.51 230.05,-136.58 231.19,-129.67"/>
</g>
<!-- Node19 -->
<g id="node19" class="node">
<title>Node19</title>
<g id="a_node19"><a xlink:href="_eigen_decomposition_8h.html" target="_top" xlink:title=" ">
<polygon fill="white" stroke="black" points="969,-112.5 969,-131.5 1095,-131.5 1095,-112.5 969,-112.5"/>
<text text-anchor="middle" x="1032" y="-119.5" font-family="Helvetica,sans-Serif" font-size="10.00">EigenDecomposition.h</text>
</a>
</g>
</g>
<!-- Node16&#45;&gt;Node19 -->
<g id="edge27" class="edge">
<title>Node16&#45;&gt;Node19</title>
<path fill="none" stroke="midnightblue" d="M618.27,-172.14C714.64,-160.69 868.1,-142.47 958.55,-131.72"/>
<polygon fill="midnightblue" stroke="midnightblue" points="959.21,-135.17 968.72,-130.51 958.38,-128.22 959.21,-135.17"/>
</g>
<!-- Node29 -->
<g id="node29" class="node">
<title>Node29</title>
<g id="a_node29"><a xlink:title=" ">
<polygon fill="white" stroke="#bfbfbf" points="506.5,-112.5 506.5,-131.5 555.5,-131.5 555.5,-112.5 506.5,-112.5"/>
<text text-anchor="middle" x="531" y="-119.5" font-family="Helvetica,sans-Serif" font-size="10.00">cstdlib</text>
</a>
</g>
</g>
<!-- Node16&#45;&gt;Node29 -->
<g id="edge39" class="edge">
<title>Node16&#45;&gt;Node29</title>
<path fill="none" stroke="midnightblue" d="M531,-168.4C531,-160.47 531,-150.46 531,-141.86"/>
<polygon fill="midnightblue" stroke="midnightblue" points="534.5,-141.66 531,-131.66 527.5,-141.66 534.5,-141.66"/>
</g>
<!-- Node30 -->
<g id="node30" class="node">
<title>Node30</title>
<g id="a_node30"><a xlink:title=" ">
<polygon fill="white" stroke="#bfbfbf" points="574,-112.5 574,-131.5 618,-131.5 618,-112.5 574,-112.5"/>
<text text-anchor="middle" x="596" y="-119.5" font-family="Helvetica,sans-Serif" font-size="10.00">string</text>
</a>
</g>
</g>
<!-- Node16&#45;&gt;Node30 -->
<g id="edge41" class="edge">
<title>Node16&#45;&gt;Node30</title>
<path fill="none" stroke="midnightblue" d="M546.4,-168.4C556.24,-159.4 568.99,-147.72 579.11,-138.47"/>
<polygon fill="midnightblue" stroke="midnightblue" points="581.53,-140.99 586.54,-131.66 576.8,-135.83 581.53,-140.99"/>
</g>
<!-- Node31 -->
<g id="node31" class="node">
<title>Node31</title>
<g id="a_node31"><a xlink:title=" ">
<polygon fill="white" stroke="#bfbfbf" points="636.5,-112.5 636.5,-131.5 705.5,-131.5 705.5,-112.5 636.5,-112.5"/>
<text text-anchor="middle" x="671" y="-119.5" font-family="Helvetica,sans-Serif" font-size="10.00">type_traits</text>
</a>
</g>
</g>
<!-- Node16&#45;&gt;Node31 -->
<g id="edge43" class="edge">
<title>Node16&#45;&gt;Node31</title>
<path fill="none" stroke="midnightblue" d="M564.18,-168.4C587.56,-158.46 618.61,-145.26 641.21,-135.66"/>
<polygon fill="midnightblue" stroke="midnightblue" points="642.79,-138.79 650.63,-131.66 640.06,-132.35 642.79,-138.79"/>
</g>
<!-- Node17&#45;&gt;Node2 -->
<g id="edge20" class="edge">
<title>Node17&#45;&gt;Node2</title>
<path fill="none" stroke="midnightblue" d="M145.55,-112.44C120.29,-103.23 79.97,-88.52 52.08,-78.34"/>
<polygon fill="midnightblue" stroke="midnightblue" points="53.01,-74.95 42.42,-74.82 50.61,-81.53 53.01,-74.95"/>
</g>
<!-- Node17&#45;&gt;Node6 -->
<g id="edge24" class="edge">
<title>Node17&#45;&gt;Node6</title>
<path fill="none" stroke="midnightblue" d="M248.61,-112.73C251.44,-112.48 254.25,-112.23 257,-112 494.28,-91.99 557.4,-102.88 797.89,-76.02"/>
<polygon fill="midnightblue" stroke="midnightblue" points="798.44,-79.48 807.99,-74.88 797.66,-72.52 798.44,-79.48"/>
</g>
<!-- Node17&#45;&gt;Node10 -->
<g id="edge23" class="edge">
<title>Node17&#45;&gt;Node10</title>
<path fill="none" stroke="midnightblue" d="M198.95,-112.44C231.16,-103.24 282.53,-88.56 318.14,-78.39"/>
<polygon fill="midnightblue" stroke="midnightblue" points="319.54,-81.63 328.19,-75.52 317.62,-74.9 319.54,-81.63"/>
</g>
<!-- Node17&#45;&gt;Node14 -->
<g id="edge22" class="edge">
<title>Node17&#45;&gt;Node14</title>
<path fill="none" stroke="midnightblue" d="M174.94,-112.08C179.98,-104.53 187.34,-93.49 193.51,-84.23"/>
<polygon fill="midnightblue" stroke="midnightblue" points="196.53,-86.01 199.17,-75.75 190.71,-82.13 196.53,-86.01"/>
</g>
<!-- Node18 -->
<g id="node18" class="node">
<title>Node18</title>
<g id="a_node18"><a xlink:title=" ">
<polygon fill="white" stroke="#bfbfbf" points="60,-56.5 60,-75.5 104,-75.5 104,-56.5 60,-56.5"/>
<text text-anchor="middle" x="82" y="-63.5" font-family="Helvetica,sans-Serif" font-size="10.00">limits</text>
</a>
</g>
</g>
<!-- Node17&#45;&gt;Node18 -->
<g id="edge21" class="edge">
<title>Node17&#45;&gt;Node18</title>
<path fill="none" stroke="midnightblue" d="M155.02,-112.32C141.45,-103.9 120.62,-90.97 104.68,-81.07"/>
<polygon fill="midnightblue" stroke="midnightblue" points="106.29,-77.95 95.94,-75.65 102.59,-83.9 106.29,-77.95"/>
</g>
<!-- Node19&#45;&gt;Node6 -->
<g id="edge33" class="edge">
<title>Node19&#45;&gt;Node6</title>
<path fill="none" stroke="midnightblue" d="M1003.95,-112.44C973.92,-103.28 926.09,-88.69 892.76,-78.52"/>
<polygon fill="midnightblue" stroke="midnightblue" points="893.5,-75.09 882.91,-75.52 891.46,-81.78 893.5,-75.09"/>
</g>
<!-- Node20 -->
<g id="node20" class="node">
<title>Node20</title>
<g id="a_node20"><a xlink:href="_field_type_def_8h.html" target="_top" xlink:title=" ">
<polygon fill="white" stroke="black" points="1366,-56.5 1366,-75.5 1454,-75.5 1454,-56.5 1366,-56.5"/>
<text text-anchor="middle" x="1410" y="-63.5" font-family="Helvetica,sans-Serif" font-size="10.00">FieldTypeDef.h</text>
</a>
</g>
</g>
<!-- Node19&#45;&gt;Node20 -->
<g id="edge28" class="edge">
<title>Node19&#45;&gt;Node20</title>
<path fill="none" stroke="midnightblue" d="M1091.9,-112.44C1164.52,-102.07 1285.85,-84.74 1355.8,-74.74"/>
<polygon fill="midnightblue" stroke="midnightblue" points="1356.33,-78.2 1365.74,-73.32 1355.34,-71.27 1356.33,-78.2"/>
</g>
<!-- Node25 -->
<g id="node25" class="node">
<title>Node25</title>
<g id="a_node25"><a xlink:href="_nalu_env_8h.html" target="_top" xlink:title=" ">
<polygon fill="white" stroke="black" points="1063.5,-56.5 1063.5,-75.5 1128.5,-75.5 1128.5,-56.5 1063.5,-56.5"/>
<text text-anchor="middle" x="1096" y="-63.5" font-family="Helvetica,sans-Serif" font-size="10.00">NaluEnv.h</text>
</a>
</g>
</g>
<!-- Node19&#45;&gt;Node25 -->
<g id="edge34" class="edge">
<title>Node19&#45;&gt;Node25</title>
<path fill="none" stroke="midnightblue" d="M1042.28,-112.32C1051.84,-104.26 1066.28,-92.08 1077.78,-82.37"/>
<polygon fill="midnightblue" stroke="midnightblue" points="1080.14,-84.96 1085.53,-75.83 1075.63,-79.61 1080.14,-84.96"/>
</g>
<!-- Node21 -->
<g id="node21" class="node">
<title>Node21</title>
<g id="a_node21"><a xlink:title=" ">
<polygon fill="white" stroke="#bfbfbf" points="1329.5,-0.5 1329.5,-19.5 1490.5,-19.5 1490.5,-0.5 1329.5,-0.5"/>
<text text-anchor="middle" x="1410" y="-7.5" font-family="Helvetica,sans-Serif" font-size="10.00">stk_mesh/base/FieldBase.hpp</text>
</a>
</g>
</g>
<!-- Node20&#45;&gt;Node21 -->
<g id="edge29" class="edge">
<title>Node20&#45;&gt;Node21</title>
<path fill="none" stroke="midnightblue" d="M1410,-56.08C1410,-49.01 1410,-38.86 1410,-29.99"/>
<polygon fill="midnightblue" stroke="midnightblue" points="1413.5,-29.75 1410,-19.75 1406.5,-29.75 1413.5,-29.75"/>
</g>
<!-- Node22 -->
<g id="node22" class="node">
<title>Node22</title>
<g id="a_node22"><a xlink:title=" ">
<polygon fill="white" stroke="#bfbfbf" points="1509,-0.5 1509,-19.5 1643,-19.5 1643,-0.5 1509,-0.5"/>
<text text-anchor="middle" x="1576" y="-7.5" font-family="Helvetica,sans-Serif" font-size="10.00">stk_mesh/base/Ngp.hpp</text>
</a>
</g>
</g>
<!-- Node20&#45;&gt;Node22 -->
<g id="edge30" class="edge">
<title>Node20&#45;&gt;Node22</title>
<path fill="none" stroke="midnightblue" d="M1436.3,-56.44C1464.35,-47.32 1508.94,-32.81 1540.18,-22.65"/>
<polygon fill="midnightblue" stroke="midnightblue" points="1541.39,-25.94 1549.82,-19.52 1539.23,-19.28 1541.39,-25.94"/>
</g>
<!-- Node23 -->
<g id="node23" class="node">
<title>Node23</title>
<g id="a_node23"><a xlink:title=" ">
<polygon fill="white" stroke="#bfbfbf" points="1661.5,-0.5 1661.5,-19.5 1818.5,-19.5 1818.5,-0.5 1661.5,-0.5"/>
<text text-anchor="middle" x="1740" y="-7.5" font-family="Helvetica,sans-Serif" font-size="10.00">stk_mesh/base/NgpField.hpp</text>
</a>
</g>
</g>
<!-- Node20&#45;&gt;Node23 -->
<g id="edge31" class="edge">
<title>Node20&#45;&gt;Node23</title>
<path fill="none" stroke="midnightblue" d="M1454.16,-57.77C1511.68,-48.36 1612.55,-31.85 1677.79,-21.18"/>
<polygon fill="midnightblue" stroke="midnightblue" points="1678.64,-24.59 1687.95,-19.52 1677.51,-17.68 1678.64,-24.59"/>
</g>
<!-- Node24 -->
<g id="node24" class="node">
<title>Node24</title>
<g id="a_node24"><a xlink:title=" ">
<polygon fill="white" stroke="#bfbfbf" points="1246.5,-0.5 1246.5,-19.5 1311.5,-19.5 1311.5,-0.5 1246.5,-0.5"/>
<text text-anchor="middle" x="1279" y="-7.5" font-family="Helvetica,sans-Serif" font-size="10.00">functional</text>
</a>
</g>
</g>
<!-- Node20&#45;&gt;Node24 -->
<g id="edge32" class="edge">
<title>Node20&#45;&gt;Node24</title>
<path fill="none" stroke="midnightblue" d="M1389.24,-56.44C1367.68,-47.56 1333.74,-33.56 1309.21,-23.45"/>
<polygon fill="midnightblue" stroke="midnightblue" points="1310.24,-20.09 1299.66,-19.52 1307.57,-26.56 1310.24,-20.09"/>
</g>
<!-- Node26 -->
<g id="node26" class="node">
<title>Node26</title>
<g id="a_node26"><a xlink:title=" ">
<polygon fill="white" stroke="#bfbfbf" points="1111,-0.5 1111,-19.5 1155,-19.5 1155,-0.5 1111,-0.5"/>
<text text-anchor="middle" x="1133" y="-7.5" font-family="Helvetica,sans-Serif" font-size="10.00">mpi.h</text>
</a>
</g>
</g>
<!-- Node25&#45;&gt;Node26 -->
<g id="edge35" class="edge">
<title>Node25&#45;&gt;Node26</title>
<path fill="none" stroke="midnightblue" d="M1102.11,-56.08C1107.28,-48.53 1114.85,-37.49 1121.19,-28.23"/>
<polygon fill="midnightblue" stroke="midnightblue" points="1124.24,-29.98 1127,-19.75 1118.46,-26.02 1124.24,-29.98"/>
</g>
<!-- Node27 -->
<g id="node27" class="node">
<title>Node27</title>
<g id="a_node27"><a xlink:title=" ">
<polygon fill="white" stroke="#bfbfbf" points="1173.5,-0.5 1173.5,-19.5 1228.5,-19.5 1228.5,-0.5 1173.5,-0.5"/>
<text text-anchor="middle" x="1201" y="-7.5" font-family="Helvetica,sans-Serif" font-size="10.00">fstream</text>
</a>
</g>
</g>
<!-- Node25&#45;&gt;Node27 -->
<g id="edge36" class="edge">
<title>Node25&#45;&gt;Node27</title>
<path fill="none" stroke="midnightblue" d="M1112.87,-56.32C1129.71,-47.66 1155.81,-34.24 1175.24,-24.25"/>
<polygon fill="midnightblue" stroke="midnightblue" points="1176.88,-27.34 1184.17,-19.65 1173.68,-21.12 1176.88,-27.34"/>
</g>
<!-- Node28 -->
<g id="node28" class="node">
<title>Node28</title>
<g id="a_node28"><a xlink:title=" ">
<polygon fill="white" stroke="#bfbfbf" points="1025.5,-0.5 1025.5,-19.5 1092.5,-19.5 1092.5,-0.5 1025.5,-0.5"/>
<text text-anchor="middle" x="1059" y="-7.5" font-family="Helvetica,sans-Serif" font-size="10.00">streambuf</text>
</a>
</g>
</g>
<!-- Node25&#45;&gt;Node28 -->
<g id="edge37" class="edge">
<title>Node25&#45;&gt;Node28</title>
<path fill="none" stroke="midnightblue" d="M1089.89,-56.08C1084.72,-48.53 1077.15,-37.49 1070.81,-28.23"/>
<polygon fill="midnightblue" stroke="midnightblue" points="1073.54,-26.02 1065,-19.75 1067.76,-29.98 1073.54,-26.02"/>
</g>
</g>
</svg>
        <g id="navigator" transform="translate(0 0)" fill="#404254">
                <rect fill="#f2f5e9" fill-opacity="0.5" stroke="#606060" stroke-width=".5" x="0" y="0" width="60" height="60"/>
                <use id="zoomplus" xlink:href="#zoomPlus" x="17" y="9" onmousedown="handleZoom(evt,'in')"/>
                <use id="zoomminus" xlink:href="#zoomMin" x="42" y="9" onmousedown="handleZoom(evt,'out')"/>
                <use id="reset" xlink:href="#resetDef" x="30" y="36" onmousedown="handleReset()"/>
                <g id="arrowUp" xlink:href="#dirArrow" transform="translate(30 24)" onmousedown="handlePan(0,-1)">
                  <use xlink:href="#rim" fill="#404040">
                        <set attributeName="fill" to="#808080" begin="arrowUp.mouseover" end="arrowUp.mouseout"/>
                  </use>
                  <path fill="none" stroke="white" stroke-width="1.5" d="M0,-3.0v7 M-2.5,-0.5L0,-3.0L2.5,-0.5"/>
                </g>
                <g id="arrowRight" xlink:href="#dirArrow" transform="rotate(90) translate(36 -43)" onmousedown="handlePan(1,0)">
                  <use xlink:href="#rim" fill="#404040">
                        <set attributeName="fill" to="#808080" begin="arrowRight.mouseover" end="arrowRight.mouseout"/>
                  </use>
                  <path fill="none" stroke="white" stroke-width="1.5" d="M0,-3.0v7 M-2.5,-0.5L0,-3.0L2.5,-0.5"/>
                </g>
                <g id="arrowDown" xlink:href="#dirArrow" transform="rotate(180) translate(-30 -48)" onmousedown="handlePan(0,1)">
                  <use xlink:href="#rim" fill="#404040">
                        <set attributeName="fill" to="#808080" begin="arrowDown.mouseover" end="arrowDown.mouseout"/>
                  </use>
                  <path fill="none" stroke="white" stroke-width="1.5" d="M0,-3.0v7 M-2.5,-0.5L0,-3.0L2.5,-0.5"/>
                </g>
                <g id="arrowLeft" xlink:href="#dirArrow" transform="rotate(270) translate(-36 17)" onmousedown="handlePan(-1,0)">
                  <use xlink:href="#rim" fill="#404040">
                        <set attributeName="fill" to="#808080" begin="arrowLeft.mouseover" end="arrowLeft.mouseout"/>
                  </use>
                  <path fill="none" stroke="white" stroke-width="1.5" d="M0,-3.0v7 M-2.5,-0.5L0,-3.0L2.5,-0.5"/>
                </g>
        </g>
        <svg viewBox="0 0 15 15" width="100%" height="30px" preserveAspectRatio="xMaxYMin meet">
         <g id="arrow_out" transform="scale(0.3 0.3)">
          <a xlink:href="_hex8_c_v_f_e_m_8h__incl_org.svg" target="_base">
           <rect id="button" ry="5" rx="5" y="6" x="6" height="38" width="38"
                fill="#f2f5e9" fill-opacity="0.5" stroke="#606060" stroke-width="1.0"/>
           <path id="arrow"
             d="M 11.500037,31.436501 C 11.940474,20.09759 22.043105,11.32322 32.158766,21.979434 L 37.068811,17.246167 C 37.068811,17.246167 37.088388,32 37.088388,32 L 22.160133,31.978069 C 22.160133,31.978069 26.997745,27.140456 26.997745,27.140456 C 18.528582,18.264221 13.291696,25.230495 11.500037,31.436501 z"
             style="fill:#404040;"/>
          </a>
         </g>
        </svg>
</svg>
