<?xml version="1.0" encoding="UTF-8" standalone="no"?>
<!DOCTYPE svg PUBLIC "-//W3C//DTD SVG 1.1//EN"
 "http://www.w3.org/Graphics/SVG/1.1/DTD/svg11.dtd">
<!-- Generated by graphviz version 2.43.0 (0)
 -->
<!-- Title: Hex8GeometryFunctions.h Pages: 1 -->
<!--zoomable 258 -->

<svg id="main" version="1.1" xmlns="http://www.w3.org/2000/svg" xmlns:xlink="http://www.w3.org/1999/xlink" xml:space="preserve" onload="init(evt)">
<style type="text/css"><![CDATA[
.node, .edge {opacity: 0.7;}
.node.selected, .edge.selected {opacity: 1;}
.edge:hover path { stroke: red; }
.edge:hover polygon { stroke: red; fill: red; }
]]></style>

<defs>
  <circle id="rim" cx="0" cy="0" r="7"/>
  <circle id="rim2" cx="0" cy="0" r="3.5"/>
  <g id="zoomPlus">
    <use xlink:href="#rim" fill="#404040"><set attributeName="fill" to="#808080" begin="zoomplus.mouseover" end="zoomplus.mouseout"/></use>
    <path d="M-4,0h8M0,-4v8" fill="none" stroke="white" stroke-width="1.5" pointer-events="none"/>
  </g>
  <g id="zoomMin">
    <use xlink:href="#rim" fill="#404040"><set attributeName="fill" to="#808080" begin="zoomminus.mouseover" end="zoomminus.mouseout"/></use>
    <path d="M-4,0h8" fill="none" stroke="white" stroke-width="1.5" pointer-events="none"/>
  </g>
  <g id="arrowUp" transform="translate(30 24)">
    <use xlink:href="#rim"/>
    <path pointer-events="none" fill="none" stroke="white" stroke-width="1.5" d="M0,-3.0v7 M-2.5,-0.5L0,-3.0L2.5,-0.5"/>
  </g>
  <g id="arrowRight" transform="rotate(90) translate(36 -43)">
    <use xlink:href="#rim"/>
    <path pointer-events="none" fill="none" stroke="white" stroke-width="1.5" d="M0,-3.0v7 M-2.5,-0.5L0,-3.0L2.5,-0.5"/>
  </g>
  <g id="arrowDown" transform="rotate(180) translate(-30 -48)">
    <use xlink:href="#rim"/>
    <path pointer-events="none" fill="none" stroke="white" stroke-width="1.5" d="M0,-3.0v7 M-2.5,-0.5L0,-3.0L2.5,-0.5"/>
  </g>
  <g id="arrowLeft" transform="rotate(270) translate(-36 17)">
    <use xlink:href="#rim"/>
    <path pointer-events="none" fill="none" stroke="white" stroke-width="1.5" d="M0,-3.0v7 M-2.5,-0.5L0,-3.0L2.5,-0.5"/>
  </g>
  <g id="resetDef">
    <use xlink:href="#rim2" fill="#404040"><set attributeName="fill" to="#808080" begin="reset.mouseover" end="reset.mouseout"/></use>
  </g>
</defs>
<script type="application/ecmascript">
var viewWidth = 1197;
var viewHeight = 258;
var sectionId = 'dynsection-0';
</script>
<script type="application/ecmascript" xlink:href="svg.min.js"/>
<svg id="graph" class="graph">
<g id="viewport">
<title>Hex8GeometryFunctions.h</title>
<!-- Node1 -->
<g id="Node000001" class="node">
<title>Node1</title>
<g id="a_Node000001"><a xlink:title=" ">
<polygon fill="#999999" stroke="#666666" points="770.5,-250 624.5,-250 624.5,-231 770.5,-231 770.5,-250"/>
<text text-anchor="middle" x="697.5" y="-238" font-family="Helvetica,sans-Serif" font-size="10.00">Hex8GeometryFunctions.h</text>
</a>
</g>
</g>
<!-- Node2 -->
<g id="Node000002" class="node">
<title>Node2</title>
<g id="a_Node000002"><a xlink:href="_alg_traits_8h.html" target="_top" xlink:title=" ">
<polygon fill="white" stroke="#666666" points="126.5,-189.5 58.5,-189.5 58.5,-170.5 126.5,-170.5 126.5,-189.5"/>
<text text-anchor="middle" x="92.5" y="-177.5" font-family="Helvetica,sans-Serif" font-size="10.00">AlgTraits.h</text>
</a>
</g>
</g>
<!-- Node1&#45;&gt;Node2 -->
<g id="edge1_Node000001_Node000002" class="edge">
<title>Node1&#45;&gt;Node2</title>
<g id="a_edge1_Node000001_Node000002"><a xlink:title=" ">
<path fill="none" stroke="#63b8ff" d="M624.08,-236.3C520.2,-231.13 324.59,-218.98 159.5,-195 152.06,-193.92 144.2,-192.52 136.59,-191.02"/>
<polygon fill="#63b8ff" stroke="#63b8ff" points="137.28,-187.59 126.78,-189.01 135.88,-194.45 137.28,-187.59"/>
</a>
</g>
</g>
<!-- Node4 -->
<g id="Node000004" class="node">
<title>Node4</title>
<g id="a_Node000004"><a xlink:href="_tensor_ops_8h.html" target="_top" xlink:title=" ">
<polygon fill="white" stroke="#666666" points="643,-189.5 484,-189.5 484,-170.5 643,-170.5 643,-189.5"/>
<text text-anchor="middle" x="563.5" y="-177.5" font-family="Helvetica,sans-Serif" font-size="10.00">master_element/TensorOps.h</text>
</a>
</g>
</g>
<!-- Node1&#45;&gt;Node4 -->
<g id="edge3_Node000001_Node000004" class="edge">
<title>Node1&#45;&gt;Node4</title>
<g id="a_edge3_Node000001_Node000004"><a xlink:title=" ">
<path fill="none" stroke="#63b8ff" d="M678.02,-230.99C655.49,-221.16 618.19,-204.88 592.31,-193.58"/>
<polygon fill="#63b8ff" stroke="#63b8ff" points="593.57,-190.31 583.01,-189.52 590.77,-196.73 593.57,-190.31"/>
</a>
</g>
</g>
<!-- Node5 -->
<g id="Node000005" class="node">
<title>Node5</title>
<g id="a_Node000005"><a xlink:title=" ">
<polygon fill="#e0e0e0" stroke="#999999" points="447.5,-129 405.5,-129 405.5,-110 447.5,-110 447.5,-129"/>
<text text-anchor="middle" x="426.5" y="-117" font-family="Helvetica,sans-Serif" font-size="10.00">array</text>
</a>
</g>
</g>
<!-- Node1&#45;&gt;Node5 -->
<g id="edge30_Node000001_Node000005" class="edge">
<title>Node1&#45;&gt;Node5</title>
<g id="a_edge30_Node000001_Node000005"><a xlink:title=" ">
<path fill="none" stroke="#63b8ff" d="M624.34,-230.99C569.33,-223.47 499.49,-211.18 475.5,-195 455.09,-181.24 441.13,-155.83 433.48,-138.55"/>
<polygon fill="#63b8ff" stroke="#63b8ff" points="436.6,-136.92 429.54,-129.02 430.13,-139.6 436.6,-136.92"/>
</a>
</g>
</g>
<!-- Node7 -->
<g id="Node000007" class="node">
<title>Node7</title>
<g id="a_Node000007"><a xlink:title=" ">
<polygon fill="#e0e0e0" stroke="#999999" points="769,-129 604,-129 604,-110 769,-110 769,-129"/>
<text text-anchor="middle" x="686.5" y="-117" font-family="Helvetica,sans-Serif" font-size="10.00">stk_util/util/ReportHandler.hpp</text>
</a>
</g>
</g>
<!-- Node1&#45;&gt;Node7 -->
<g id="edge25_Node000001_Node000007" class="edge">
<title>Node1&#45;&gt;Node7</title>
<g id="a_edge25_Node000001_Node000007"><a xlink:title=" ">
<path fill="none" stroke="#63b8ff" d="M696.71,-230.94C694.95,-211.91 690.68,-165.69 688.25,-139.47"/>
<polygon fill="#63b8ff" stroke="#63b8ff" points="691.72,-138.94 687.31,-129.3 684.75,-139.58 691.72,-138.94"/>
</a>
</g>
</g>
<!-- Node12 -->
<g id="Node000012" class="node">
<title>Node12</title>
<g id="a_Node000012"><a xlink:title=" ">
<polygon fill="#e0e0e0" stroke="#999999" points="814.5,-19 714.5,-19 714.5,0 814.5,0 814.5,-19"/>
<text text-anchor="middle" x="764.5" y="-7" font-family="Helvetica,sans-Serif" font-size="10.00">Kokkos_Core.hpp</text>
</a>
</g>
</g>
<!-- Node1&#45;&gt;Node12 -->
<g id="edge24_Node000001_Node000012" class="edge">
<title>Node1&#45;&gt;Node12</title>
<g id="a_edge24_Node000001_Node000012"><a xlink:title=" ">
<path fill="none" stroke="#63b8ff" d="M700.7,-230.57C706.24,-215.88 718.67,-186.12 735.5,-165 751.03,-145.51 767.95,-151.58 778.5,-129 793.92,-95.97 781.53,-52.36 772.27,-28.32"/>
<polygon fill="#63b8ff" stroke="#63b8ff" points="775.5,-26.96 768.47,-19.03 769.02,-29.61 775.5,-26.96"/>
</a>
</g>
</g>
<!-- Node13 -->
<g id="Node000013" class="node">
<title>Node13</title>
<g id="a_Node000013"><a xlink:href="_simd_interface_8h.html" target="_top" xlink:title="STK SIMD Interface.">
<polygon fill="white" stroke="#666666" points="293.5,-74 199.5,-74 199.5,-55 293.5,-55 293.5,-74"/>
<text text-anchor="middle" x="246.5" y="-62" font-family="Helvetica,sans-Serif" font-size="10.00">SimdInterface.h</text>
</a>
</g>
</g>
<!-- Node1&#45;&gt;Node13 -->
<g id="edge23_Node000001_Node000013" class="edge">
<title>Node1&#45;&gt;Node13</title>
<g id="a_edge23_Node000001_Node000013"><a xlink:title=" ">
<path fill="none" stroke="#63b8ff" d="M624.15,-235.43C528.94,-229.39 368.45,-216.4 313.5,-195 266.94,-176.87 245.2,-173.51 222.5,-129 214.76,-113.82 223.42,-95.52 232.43,-82.48"/>
<polygon fill="#63b8ff" stroke="#63b8ff" points="235.3,-84.48 238.52,-74.39 229.71,-80.27 235.3,-84.48"/>
</a>
</g>
</g>
<!-- Node16 -->
<g id="Node000016" class="node">
<title>Node16</title>
<g id="a_Node000016"><a xlink:href="_c_v_f_e_m_type_defs_8h.html" target="_top" xlink:title=" ">
<polygon fill="white" stroke="#666666" points="428,-189.5 323,-189.5 323,-170.5 428,-170.5 428,-189.5"/>
<text text-anchor="middle" x="375.5" y="-177.5" font-family="Helvetica,sans-Serif" font-size="10.00">CVFEMTypeDefs.h</text>
</a>
</g>
</g>
<!-- Node1&#45;&gt;Node16 -->
<g id="edge16_Node000001_Node000016" class="edge">
<title>Node1&#45;&gt;Node16</title>
<g id="a_edge16_Node000001_Node000016"><a xlink:title=" ">
<path fill="none" stroke="#63b8ff" d="M645.64,-230.97C594.05,-222.36 512.68,-208.45 442.5,-195 436.82,-193.91 430.87,-192.73 424.97,-191.53"/>
<polygon fill="#63b8ff" stroke="#63b8ff" points="425.64,-188.09 415.14,-189.51 424.23,-194.95 425.64,-188.09"/>
</a>
</g>
</g>
<!-- Node18 -->
<g id="Node000018" class="node">
<title>Node18</title>
<g id="a_Node000018"><a xlink:href="_direction_macros_8h.html" target="_top" xlink:title=" ">
<polygon fill="white" stroke="#666666" points="888.5,-195 744.5,-195 744.5,-165 888.5,-165 888.5,-195"/>
<text text-anchor="start" x="752.5" y="-183" font-family="Helvetica,sans-Serif" font-size="10.00">master_element/Direction</text>
<text text-anchor="middle" x="816.5" y="-172" font-family="Helvetica,sans-Serif" font-size="10.00">Macros.h</text>
</a>
</g>
</g>
<!-- Node1&#45;&gt;Node18 -->
<g id="edge26_Node000001_Node000018" class="edge">
<title>Node1&#45;&gt;Node18</title>
<g id="a_edge26_Node000001_Node000018"><a xlink:title=" ">
<path fill="none" stroke="#63b8ff" d="M714.8,-230.99C731.42,-222.82 757.1,-210.2 778.49,-199.69"/>
<polygon fill="#63b8ff" stroke="#63b8ff" points="780.23,-202.73 787.66,-195.18 777.14,-196.45 780.23,-202.73"/>
</a>
</g>
</g>
<!-- Node19 -->
<g id="Node000019" class="node">
<title>Node19</title>
<g id="a_Node000019"><a xlink:title=" ">
<polygon fill="#e0e0e0" stroke="#999999" points="956,-189.5 907,-189.5 907,-170.5 956,-170.5 956,-189.5"/>
<text text-anchor="middle" x="931.5" y="-177.5" font-family="Helvetica,sans-Serif" font-size="10.00">cstdlib</text>
</a>
</g>
</g>
<!-- Node1&#45;&gt;Node19 -->
<g id="edge27_Node000001_Node000019" class="edge">
<title>Node1&#45;&gt;Node19</title>
<g id="a_edge27_Node000001_Node000019"><a xlink:title=" ">
<path fill="none" stroke="#63b8ff" d="M747.03,-230.93C787.88,-223.29 847.11,-210.85 897.5,-195 899.17,-194.47 900.88,-193.9 902.6,-193.29"/>
<polygon fill="#63b8ff" stroke="#63b8ff" points="904.2,-196.42 912.29,-189.58 901.7,-189.88 904.2,-196.42"/>
</a>
</g>
</g>
<!-- Node20 -->
<g id="Node000020" class="node">
<title>Node20</title>
<g id="a_Node000020"><a xlink:title=" ">
<polygon fill="#e0e0e0" stroke="#999999" points="1039,-189.5 974,-189.5 974,-170.5 1039,-170.5 1039,-189.5"/>
<text text-anchor="middle" x="1006.5" y="-177.5" font-family="Helvetica,sans-Serif" font-size="10.00">stdexcept</text>
</a>
</g>
</g>
<!-- Node1&#45;&gt;Node20 -->
<g id="edge28_Node000001_Node000020" class="edge">
<title>Node1&#45;&gt;Node20</title>
<g id="a_edge28_Node000001_Node000020"><a xlink:title=" ">
<path fill="none" stroke="#63b8ff" d="M768.41,-230.97C822.81,-223.64 899.53,-211.62 965.5,-195 968.3,-194.29 971.19,-193.48 974.07,-192.62"/>
<polygon fill="#63b8ff" stroke="#63b8ff" points="975.26,-195.91 983.71,-189.52 973.12,-189.25 975.26,-195.91"/>
</a>
</g>
</g>
<!-- Node21 -->
<g id="Node000021" class="node">
<title>Node21</title>
<g id="a_Node000021"><a xlink:title=" ">
<polygon fill="#e0e0e0" stroke="#999999" points="1101.5,-189.5 1057.5,-189.5 1057.5,-170.5 1101.5,-170.5 1101.5,-189.5"/>
<text text-anchor="middle" x="1079.5" y="-177.5" font-family="Helvetica,sans-Serif" font-size="10.00">string</text>
</a>
</g>
</g>
<!-- Node1&#45;&gt;Node21 -->
<g id="edge29_Node000001_Node000021" class="edge">
<title>Node1&#45;&gt;Node21</title>
<g id="a_edge29_Node000001_Node000021"><a xlink:title=" ">
<path fill="none" stroke="#63b8ff" d="M770.69,-236.56C842.58,-232.21 954.8,-221.45 1048.5,-195 1050.14,-194.54 1051.81,-194 1053.47,-193.41"/>
<polygon fill="#63b8ff" stroke="#63b8ff" points="1054.83,-196.64 1062.79,-189.64 1052.2,-190.15 1054.83,-196.64"/>
</a>
</g>
</g>
<!-- Node22 -->
<g id="Node000022" class="node">
<title>Node22</title>
<g id="a_Node000022"><a xlink:title=" ">
<polygon fill="#e0e0e0" stroke="#999999" points="1189,-189.5 1120,-189.5 1120,-170.5 1189,-170.5 1189,-189.5"/>
<text text-anchor="middle" x="1154.5" y="-177.5" font-family="Helvetica,sans-Serif" font-size="10.00">type_traits</text>
</a>
</g>
</g>
<!-- Node1&#45;&gt;Node22 -->
<g id="edge31_Node000001_Node000022" class="edge">
<title>Node1&#45;&gt;Node22</title>
<g id="a_edge31_Node000001_Node000022"><a xlink:title=" ">
<path fill="none" stroke="#63b8ff" d="M770.56,-236.06C853.64,-231.14 993.01,-219.76 1110.5,-195 1113.9,-194.28 1117.4,-193.41 1120.89,-192.45"/>
<polygon fill="#63b8ff" stroke="#63b8ff" points="1121.94,-195.79 1130.53,-189.59 1119.94,-189.08 1121.94,-195.79"/>
</a>
</g>
</g>
<!-- Node3 -->
<g id="Node000003" class="node">
<title>Node3</title>
<g id="a_Node000003"><a xlink:title=" ">
<polygon fill="#e0e0e0" stroke="#999999" points="145,-129 0,-129 0,-110 145,-110 145,-129"/>
<text text-anchor="middle" x="72.5" y="-117" font-family="Helvetica,sans-Serif" font-size="10.00">stk_topology/topology.hpp</text>
</a>
</g>
</g>
<!-- Node2&#45;&gt;Node3 -->
<g id="edge2_Node000002_Node000003" class="edge">
<title>Node2&#45;&gt;Node3</title>
<g id="a_edge2_Node000002_Node000003"><a xlink:title=" ">
<path fill="none" stroke="#63b8ff" d="M89.55,-170.37C86.71,-162.07 82.34,-149.28 78.73,-138.72"/>
<polygon fill="#63b8ff" stroke="#63b8ff" points="82.01,-137.5 75.46,-129.17 75.39,-139.76 82.01,-137.5"/>
</a>
</g>
</g>
<!-- Node4&#45;&gt;Node5 -->
<g id="edge4_Node000004_Node000005" class="edge">
<title>Node4&#45;&gt;Node5</title>
<g id="a_edge4_Node000004_Node000005"><a xlink:title=" ">
<path fill="none" stroke="#63b8ff" d="M543.58,-170.49C520.55,-160.66 482.42,-144.38 455.96,-133.08"/>
<polygon fill="#63b8ff" stroke="#63b8ff" points="457.02,-129.72 446.45,-129.02 454.27,-136.16 457.02,-129.72"/>
</a>
</g>
</g>
<!-- Node6 -->
<g id="Node000006" class="node">
<title>Node6</title>
<g id="a_Node000006"><a xlink:title=" ">
<polygon fill="#e0e0e0" stroke="#999999" points="585.5,-129 541.5,-129 541.5,-110 585.5,-110 585.5,-129"/>
<text text-anchor="middle" x="563.5" y="-117" font-family="Helvetica,sans-Serif" font-size="10.00">limits</text>
</a>
</g>
</g>
<!-- Node4&#45;&gt;Node6 -->
<g id="edge5_Node000004_Node000006" class="edge">
<title>Node4&#45;&gt;Node6</title>
<g id="a_edge5_Node000004_Node000006"><a xlink:title=" ">
<path fill="none" stroke="#63b8ff" d="M563.5,-170.37C563.5,-162.25 563.5,-149.81 563.5,-139.39"/>
<polygon fill="#63b8ff" stroke="#63b8ff" points="567,-139.17 563.5,-129.17 560,-139.17 567,-139.17"/>
</a>
</g>
</g>
<!-- Node4&#45;&gt;Node7 -->
<g id="edge6_Node000004_Node000007" class="edge">
<title>Node4&#45;&gt;Node7</title>
<g id="a_edge6_Node000004_Node000007"><a xlink:title=" ">
<path fill="none" stroke="#63b8ff" d="M581.39,-170.49C601.88,-160.75 635.69,-144.66 659.42,-133.38"/>
<polygon fill="#63b8ff" stroke="#63b8ff" points="661.07,-136.47 668.59,-129.02 658.06,-130.15 661.07,-136.47"/>
</a>
</g>
</g>
<!-- Node8 -->
<g id="Node000008" class="node">
<title>Node8</title>
<g id="a_Node000008"><a xlink:href="_kokkos_interface_8h.html" target="_top" xlink:title=" ">
<polygon fill="white" stroke="#666666" points="529.5,-74 425.5,-74 425.5,-55 529.5,-55 529.5,-74"/>
<text text-anchor="middle" x="477.5" y="-62" font-family="Helvetica,sans-Serif" font-size="10.00">KokkosInterface.h</text>
</a>
</g>
</g>
<!-- Node4&#45;&gt;Node8 -->
<g id="edge7_Node000004_Node000008" class="edge">
<title>Node4&#45;&gt;Node8</title>
<g id="a_edge7_Node000004_Node000008"><a xlink:title=" ">
<path fill="none" stroke="#63b8ff" d="M557.04,-170.47C542.84,-151.74 508.73,-106.72 490.13,-82.16"/>
<polygon fill="#63b8ff" stroke="#63b8ff" points="492.87,-79.99 484.04,-74.13 487.29,-84.21 492.87,-79.99"/>
</a>
</g>
</g>
<!-- Node4&#45;&gt;Node13 -->
<g id="edge12_Node000004_Node000013" class="edge">
<title>Node4&#45;&gt;Node13</title>
<g id="a_edge12_Node000004_Node000013"><a xlink:title=" ">
<path fill="none" stroke="#63b8ff" d="M552.99,-170.33C534.62,-155.62 494.92,-125.83 456.5,-110 407.05,-89.63 347.06,-78.11 303.88,-71.93"/>
<polygon fill="#63b8ff" stroke="#63b8ff" points="304.21,-68.44 293.83,-70.54 303.26,-75.37 304.21,-68.44"/>
</a>
</g>
</g>
<!-- Node9 -->
<g id="Node000009" class="node">
<title>Node9</title>
<g id="a_Node000009"><a xlink:title=" ">
<polygon fill="#e0e0e0" stroke="#999999" points="504,-19 451,-19 451,0 504,0 504,-19"/>
<text text-anchor="middle" x="477.5" y="-7" font-family="Helvetica,sans-Serif" font-size="10.00">cstddef</text>
</a>
</g>
</g>
<!-- Node8&#45;&gt;Node9 -->
<g id="edge8_Node000008_Node000009" class="edge">
<title>Node8&#45;&gt;Node9</title>
<g id="a_edge8_Node000008_Node000009"><a xlink:title=" ">
<path fill="none" stroke="#63b8ff" d="M477.5,-54.75C477.5,-47.8 477.5,-37.85 477.5,-29.13"/>
<polygon fill="#63b8ff" stroke="#63b8ff" points="481,-29.09 477.5,-19.09 474,-29.09 481,-29.09"/>
</a>
</g>
</g>
<!-- Node10 -->
<g id="Node000010" class="node">
<title>Node10</title>
<g id="a_Node000010"><a xlink:title=" ">
<polygon fill="#e0e0e0" stroke="#999999" points="663,-19 522,-19 522,0 663,0 663,-19"/>
<text text-anchor="middle" x="592.5" y="-7" font-family="Helvetica,sans-Serif" font-size="10.00">stk_mesh/base/Entity.hpp</text>
</a>
</g>
</g>
<!-- Node8&#45;&gt;Node10 -->
<g id="edge9_Node000008_Node000010" class="edge">
<title>Node8&#45;&gt;Node10</title>
<g id="a_edge9_Node000008_Node000010"><a xlink:title=" ">
<path fill="none" stroke="#63b8ff" d="M495.98,-54.98C514.48,-46.46 543.18,-33.23 564.48,-23.41"/>
<polygon fill="#63b8ff" stroke="#63b8ff" points="566.07,-26.53 573.69,-19.17 563.14,-20.18 566.07,-26.53"/>
</a>
</g>
</g>
<!-- Node11 -->
<g id="Node000011" class="node">
<title>Node11</title>
<g id="a_Node000011"><a xlink:title=" ">
<polygon fill="#e0e0e0" stroke="#999999" points="433,-19 320,-19 320,0 433,0 433,-19"/>
<text text-anchor="middle" x="376.5" y="-7" font-family="Helvetica,sans-Serif" font-size="10.00">Kokkos_Macros.hpp</text>
</a>
</g>
</g>
<!-- Node8&#45;&gt;Node11 -->
<g id="edge10_Node000008_Node000011" class="edge">
<title>Node8&#45;&gt;Node11</title>
<g id="a_edge10_Node000008_Node000011"><a xlink:title=" ">
<path fill="none" stroke="#63b8ff" d="M461.27,-54.98C445.32,-46.61 420.72,-33.7 402.12,-23.95"/>
<polygon fill="#63b8ff" stroke="#63b8ff" points="403.5,-20.72 393.02,-19.17 400.25,-26.92 403.5,-20.72"/>
</a>
</g>
</g>
<!-- Node8&#45;&gt;Node12 -->
<g id="edge11_Node000008_Node000012" class="edge">
<title>Node8&#45;&gt;Node12</title>
<g id="a_edge11_Node000008_Node000012"><a xlink:title=" ">
<path fill="none" stroke="#63b8ff" d="M523.61,-54.98C573.78,-45.72 654.01,-30.9 707.94,-20.94"/>
<polygon fill="#63b8ff" stroke="#63b8ff" points="708.83,-24.34 718.03,-19.08 707.56,-17.46 708.83,-24.34"/>
</a>
</g>
</g>
<!-- Node13&#45;&gt;Node11 -->
<g id="edge14_Node000013_Node000011" class="edge">
<title>Node13&#45;&gt;Node11</title>
<g id="a_edge14_Node000013_Node000011"><a xlink:title=" ">
<path fill="none" stroke="#63b8ff" d="M267.39,-54.98C288.58,-46.34 321.63,-32.87 345.8,-23.02"/>
<polygon fill="#63b8ff" stroke="#63b8ff" points="347.29,-26.19 355.23,-19.17 344.65,-19.7 347.29,-26.19"/>
</a>
</g>
</g>
<!-- Node14 -->
<g id="Node000014" class="node">
<title>Node14</title>
<g id="a_Node000014"><a xlink:title=" ">
<polygon fill="#e0e0e0" stroke="#999999" points="301.5,-19 191.5,-19 191.5,0 301.5,0 301.5,-19"/>
<text text-anchor="middle" x="246.5" y="-7" font-family="Helvetica,sans-Serif" font-size="10.00">stk_simd/Simd.hpp</text>
</a>
</g>
</g>
<!-- Node13&#45;&gt;Node14 -->
<g id="edge13_Node000013_Node000014" class="edge">
<title>Node13&#45;&gt;Node14</title>
<g id="a_edge13_Node000013_Node000014"><a xlink:title=" ">
<path fill="none" stroke="#63b8ff" d="M246.5,-54.75C246.5,-47.8 246.5,-37.85 246.5,-29.13"/>
<polygon fill="#63b8ff" stroke="#63b8ff" points="250,-29.09 246.5,-19.09 243,-29.09 250,-29.09"/>
</a>
</g>
</g>
<!-- Node15 -->
<g id="Node000015" class="node">
<title>Node15</title>
<g id="a_Node000015"><a xlink:title=" ">
<polygon fill="#e0e0e0" stroke="#999999" points="173,-19 126,-19 126,0 173,0 173,-19"/>
<text text-anchor="middle" x="149.5" y="-7" font-family="Helvetica,sans-Serif" font-size="10.00">vector</text>
</a>
</g>
</g>
<!-- Node13&#45;&gt;Node15 -->
<g id="edge15_Node000013_Node000015" class="edge">
<title>Node13&#45;&gt;Node15</title>
<g id="a_edge15_Node000013_Node000015"><a xlink:title=" ">
<path fill="none" stroke="#63b8ff" d="M230.92,-54.98C215.73,-46.69 192.4,-33.94 174.6,-24.22"/>
<polygon fill="#63b8ff" stroke="#63b8ff" points="175.82,-20.89 165.37,-19.17 172.47,-27.04 175.82,-20.89"/>
</a>
</g>
</g>
<!-- Node16&#45;&gt;Node5 -->
<g id="edge22_Node000016_Node000005" class="edge">
<title>Node16&#45;&gt;Node5</title>
<g id="a_edge22_Node000016_Node000005"><a xlink:title=" ">
<path fill="none" stroke="#63b8ff" d="M383.03,-170.37C390.71,-161.55 402.82,-147.66 412.31,-136.77"/>
<polygon fill="#63b8ff" stroke="#63b8ff" points="415.01,-139.01 418.94,-129.17 409.73,-134.41 415.01,-139.01"/>
</a>
</g>
</g>
<!-- Node16&#45;&gt;Node8 -->
<g id="edge21_Node000016_Node000008" class="edge">
<title>Node16&#45;&gt;Node8</title>
<g id="a_edge21_Node000016_Node000008"><a xlink:title=" ">
<path fill="none" stroke="#63b8ff" d="M376.06,-170.4C377.39,-156.31 381.82,-128.08 396.5,-110 408.14,-95.66 425.69,-85.22 441.48,-78.07"/>
<polygon fill="#63b8ff" stroke="#63b8ff" points="443.17,-81.16 451.02,-74.04 440.44,-74.71 443.17,-81.16"/>
</a>
</g>
</g>
<!-- Node16&#45;&gt;Node13 -->
<g id="edge20_Node000016_Node000013" class="edge">
<title>Node16&#45;&gt;Node13</title>
<g id="a_edge20_Node000016_Node000013"><a xlink:title=" ">
<path fill="none" stroke="#63b8ff" d="M322.93,-175.67C290.55,-170.57 251.37,-158.27 230.5,-129 220.83,-115.44 227.46,-96.62 234.91,-82.98"/>
<polygon fill="#63b8ff" stroke="#63b8ff" points="238.08,-84.5 240.25,-74.13 232.09,-80.88 238.08,-84.5"/>
</a>
</g>
</g>
<!-- Node17 -->
<g id="Node000017" class="node">
<title>Node17</title>
<g id="a_Node000017"><a xlink:href="_scratch_work_view_8h.html" target="_top" xlink:title=" ">
<polygon fill="white" stroke="#666666" points="349.5,-129 239.5,-129 239.5,-110 349.5,-110 349.5,-129"/>
<text text-anchor="middle" x="294.5" y="-117" font-family="Helvetica,sans-Serif" font-size="10.00">ScratchWorkView.h</text>
</a>
</g>
</g>
<!-- Node16&#45;&gt;Node17 -->
<g id="edge17_Node000016_Node000017" class="edge">
<title>Node16&#45;&gt;Node17</title>
<g id="a_edge17_Node000016_Node000017"><a xlink:title=" ">
<path fill="none" stroke="#63b8ff" d="M363.55,-170.37C350.75,-161.12 330.2,-146.28 314.85,-135.19"/>
<polygon fill="#63b8ff" stroke="#63b8ff" points="316.66,-132.18 306.5,-129.17 312.56,-137.86 316.66,-132.18"/>
</a>
</g>
</g>
<!-- Node17&#45;&gt;Node8 -->
<g id="edge18_Node000017_Node000008" class="edge">
<title>Node17&#45;&gt;Node8</title>
<g id="a_edge18_Node000017_Node000008"><a xlink:title=" ">
<path fill="none" stroke="#63b8ff" d="M323.9,-109.98C354.89,-101.01 403.88,-86.82 438.17,-76.89"/>
<polygon fill="#63b8ff" stroke="#63b8ff" points="439.24,-80.23 447.87,-74.08 437.29,-73.5 439.24,-80.23"/>
</a>
</g>
</g>
<!-- Node17&#45;&gt;Node13 -->
<g id="edge19_Node000017_Node000013" class="edge">
<title>Node17&#45;&gt;Node13</title>
<g id="a_edge19_Node000017_Node000013"><a xlink:title=" ">
<path fill="none" stroke="#63b8ff" d="M286.57,-109.75C279.65,-102.11 269.43,-90.82 261.05,-81.56"/>
<polygon fill="#63b8ff" stroke="#63b8ff" points="263.59,-79.15 254.28,-74.09 258.4,-83.85 263.59,-79.15"/>
</a>
</g>
</g>
</g>
</svg>

<g id="navigator" transform="translate(0 0)" fill="#404254">
  <rect fill="#f2f5e9" fill-opacity="0.5" stroke="#606060" stroke-width=".5" x="0" y="0" width="60" height="60"/>
  <use id="zoomplus" xlink:href="#zoomPlus" x="17" y="9" onmousedown="handleZoom(evt,'in')"/>
  <use id="zoomminus" xlink:href="#zoomMin" x="42" y="9" onmousedown="handleZoom(evt,'out')"/>
  <use id="reset" xlink:href="#resetDef" x="30" y="36" onmousedown="handleReset()"/>
   <use id="arrowup" xlink:href="#arrowUp" x="0" y="0" onmousedown="handlePan(0,-1)"/>
  <use id="arrowright" xlink:href="#arrowRight" x="0" y="0" onmousedown="handlePan(1,0)"/>
  <use id="arrowdown" xlink:href="#arrowDown" x="0" y="0" onmousedown="handlePan(0,1)"/>
  <use id="arrowleft" xlink:href="#arrowLeft" x="0" y="0" onmousedown="handlePan(-1,0)"/>
</g>
<svg viewBox="0 0 15 15" width="100%" height="30px" preserveAspectRatio="xMaxYMin meet">
 <g id="arrow_out" transform="scale(0.3 0.3)">
  <a xlink:href="_hex8_geometry_functions_8h__incl_org.svg" target="_base">
   <rect id="button" ry="5" rx="5" y="6" x="6" height="38" width="38"
        fill="#f2f5e9" fill-opacity="0.5" stroke="#606060" stroke-width="1.0"/>
   <path id="arrow"
     d="M 11.500037,31.436501 C 11.940474,20.09759 22.043105,11.32322 32.158766,21.979434 L 37.068811,17.246167 C 37.068811,17.246167 37.088388,32 37.088388,32 L 22.160133,31.978069 C 22.160133,31.978069 26.997745,27.140456 26.997745,27.140456 C 18.528582,18.264221 13.291696,25.230495 11.500037,31.436501 z"
     style="fill:#404040;"/>
  </a>
 </g>
</svg>

<style type='text/css'>
<![CDATA[
[data-mouse-over-selected='false'] { opacity: 0.7; }
[data-mouse-over-selected='true']  { opacity: 1.0; }
]]>
</style>
<script type="application/ecmascript"><![CDATA[
document.addEventListener('DOMContentLoaded', (event) => {
  highlightEdges();
  highlightAdjacentNodes();
});
]]></script>
</svg>
