<?xml version="1.0" encoding="UTF-8" standalone="no"?>
<!DOCTYPE svg PUBLIC "-//W3C//DTD SVG 1.1//EN"
 "http://www.w3.org/Graphics/SVG/1.1/DTD/svg11.dtd">
<!-- Generated by graphviz version 2.43.0 (0)
 -->
<!-- Title: HypreUVWSolver.h Pages: 1 -->
<svg width="282pt" height="140pt"
 viewBox="0.00 0.00 282.00 140.00" xmlns="http://www.w3.org/2000/svg" xmlns:xlink="http://www.w3.org/1999/xlink">
<g id="graph0" class="graph" transform="scale(1 1) rotate(0) translate(4 136)">
<title>HypreUVWSolver.h</title>
<polygon fill="white" stroke="transparent" points="-4,4 -4,-136 278,-136 278,4 -4,4"/>
<!-- Node1 -->
<g id="node1" class="node">
<title>Node1</title>
<g id="a_node1"><a xlink:title=" ">
<polygon fill="#bfbfbf" stroke="black" points="91.5,-112.5 91.5,-131.5 200.5,-131.5 200.5,-112.5 91.5,-112.5"/>
<text text-anchor="middle" x="146" y="-119.5" font-family="Helvetica,sans-Serif" font-size="10.00">HypreUVWSolver.h</text>
</a>
</g>
</g>
<!-- Node2 -->
<g id="node2" class="node">
<title>Node2</title>
<g id="a_node2"><a xlink:href="_hypre_u_v_w_linear_system_8h.html" target="_top" xlink:title=" ">
<polygon fill="white" stroke="black" points="0,-56.5 0,-75.5 146,-75.5 146,-56.5 0,-56.5"/>
<text text-anchor="middle" x="73" y="-63.5" font-family="Helvetica,sans-Serif" font-size="10.00">HypreUVWLinearSystem.h</text>
</a>
</g>
</g>
<!-- Node1&#45;&gt;Node2 -->
<g id="edge1" class="edge">
<title>Node1&#45;&gt;Node2</title>
<path fill="none" stroke="midnightblue" d="M125.86,-106.1C112.72,-96.38 96.02,-84.03 84.94,-75.83"/>
<polygon fill="midnightblue" stroke="midnightblue" points="124.15,-109.19 134.27,-112.32 128.31,-103.56 124.15,-109.19"/>
</g>
<!-- Node4 -->
<g id="node4" class="node">
<title>Node4</title>
<g id="a_node4"><a xlink:href="_hypre_u_v_w_solver_8_c.html" target="_top" xlink:title=" ">
<polygon fill="white" stroke="black" points="164,-56.5 164,-75.5 274,-75.5 274,-56.5 164,-56.5"/>
<text text-anchor="middle" x="219" y="-63.5" font-family="Helvetica,sans-Serif" font-size="10.00">HypreUVWSolver.C</text>
</a>
</g>
</g>
<!-- Node1&#45;&gt;Node4 -->
<g id="edge3" class="edge">
<title>Node1&#45;&gt;Node4</title>
<path fill="none" stroke="midnightblue" d="M166.14,-106.1C179.28,-96.38 195.98,-84.03 207.06,-75.83"/>
<polygon fill="midnightblue" stroke="midnightblue" points="163.69,-103.56 157.73,-112.32 167.85,-109.19 163.69,-103.56"/>
</g>
<!-- Node3 -->
<g id="node3" class="node">
<title>Node3</title>
<g id="a_node3"><a xlink:href="_hypre_u_v_w_linear_system_8_c.html" target="_top" xlink:title=" ">
<polygon fill="white" stroke="black" points="0,-0.5 0,-19.5 146,-19.5 146,-0.5 0,-0.5"/>
<text text-anchor="middle" x="73" y="-7.5" font-family="Helvetica,sans-Serif" font-size="10.00">HypreUVWLinearSystem.C</text>
</a>
</g>
</g>
<!-- Node2&#45;&gt;Node3 -->
<g id="edge2" class="edge">
<title>Node2&#45;&gt;Node3</title>
<path fill="none" stroke="midnightblue" d="M73,-45.8C73,-36.91 73,-26.78 73,-19.75"/>
<polygon fill="midnightblue" stroke="midnightblue" points="69.5,-46.08 73,-56.08 76.5,-46.08 69.5,-46.08"/>
</g>
</g>
</svg>
