<?xml version="1.0" encoding="UTF-8" standalone="no"?>
<!DOCTYPE svg PUBLIC "-//W3C//DTD SVG 1.1//EN"
 "http://www.w3.org/Graphics/SVG/1.1/DTD/svg11.dtd">
<!-- Generated by graphviz version 2.43.0 (0)
 -->
<!-- Title: IdealGasPropertyEvaluator.h Pages: 1 -->
<svg width="240pt" height="84pt"
 viewBox="0.00 0.00 240.00 84.00" xmlns="http://www.w3.org/2000/svg" xmlns:xlink="http://www.w3.org/1999/xlink">
<g id="graph0" class="graph" transform="scale(1 1) rotate(0) translate(4 80)">
<title>IdealGasPropertyEvaluator.h</title>
<polygon fill="white" stroke="transparent" points="-4,4 -4,-80 236,-80 236,4 -4,4"/>
<!-- Node1 -->
<g id="node1" class="node">
<title>Node1</title>
<g id="a_node1"><a xlink:title=" ">
<polygon fill="#bfbfbf" stroke="black" points="62.5,-56.5 62.5,-75.5 217.5,-75.5 217.5,-56.5 62.5,-56.5"/>
<text text-anchor="middle" x="140" y="-63.5" font-family="Helvetica,sans-Serif" font-size="10.00">IdealGasPropertyEvaluator.h</text>
</a>
</g>
</g>
<!-- Node2 -->
<g id="node2" class="node">
<title>Node2</title>
<g id="a_node2"><a xlink:href="_ideal_gas_property_evaluator_8_c.html" target="_top" xlink:title=" ">
<polygon fill="white" stroke="black" points="0,-0.5 0,-19.5 156,-19.5 156,-0.5 0,-0.5"/>
<text text-anchor="middle" x="78" y="-7.5" font-family="Helvetica,sans-Serif" font-size="10.00">IdealGasPropertyEvaluator.C</text>
</a>
</g>
</g>
<!-- Node1&#45;&gt;Node2 -->
<g id="edge1" class="edge">
<title>Node1&#45;&gt;Node2</title>
<path fill="none" stroke="midnightblue" d="M122.25,-49.54C111.19,-39.91 97.37,-27.87 88.14,-19.83"/>
<polygon fill="midnightblue" stroke="midnightblue" points="120.2,-52.4 130.04,-56.32 124.8,-47.12 120.2,-52.4"/>
</g>
<!-- Node3 -->
<g id="node3" class="node">
<title>Node3</title>
<g id="a_node3"><a xlink:href="_realm_8_c.html" target="_top" xlink:title=" ">
<polygon fill="white" stroke="black" points="174,-0.5 174,-19.5 232,-19.5 232,-0.5 174,-0.5"/>
<text text-anchor="middle" x="203" y="-7.5" font-family="Helvetica,sans-Serif" font-size="10.00">Realm.C</text>
</a>
</g>
</g>
<!-- Node1&#45;&gt;Node3 -->
<g id="edge2" class="edge">
<title>Node1&#45;&gt;Node3</title>
<path fill="none" stroke="midnightblue" d="M158.04,-49.54C169.27,-39.91 183.32,-27.87 192.69,-19.83"/>
<polygon fill="midnightblue" stroke="midnightblue" points="155.44,-47.16 150.12,-56.32 159.99,-52.47 155.44,-47.16"/>
</g>
</g>
</svg>
