<?xml version="1.0" encoding="UTF-8" standalone="no"?>
<!DOCTYPE svg PUBLIC "-//W3C//DTD SVG 1.1//EN"
 "http://www.w3.org/Graphics/SVG/1.1/DTD/svg11.dtd">
<!-- Generated by graphviz version 2.43.0 (0)
 -->
<!-- Title: LinearSystem.h Pages: 1 -->
<svg width="5957pt" height="285pt"
 viewBox="0.00 0.00 5956.50 285.00" xmlns="http://www.w3.org/2000/svg" xmlns:xlink="http://www.w3.org/1999/xlink">
<g id="graph0" class="graph" transform="scale(1 1) rotate(0) translate(4 281)">
<title>LinearSystem.h</title>
<polygon fill="white" stroke="transparent" points="-4,4 -4,-281 5952.5,-281 5952.5,4 -4,4"/>
<!-- Node1 -->
<g id="node1" class="node">
<title>Node1</title>
<g id="a_node1"><a xlink:title=" ">
<polygon fill="#bfbfbf" stroke="black" points="2081.5,-257.5 2081.5,-276.5 2173.5,-276.5 2173.5,-257.5 2081.5,-257.5"/>
<text text-anchor="middle" x="2127.5" y="-264.5" font-family="Helvetica,sans-Serif" font-size="10.00">LinearSystem.h</text>
</a>
</g>
</g>
<!-- Node2 -->
<g id="node2" class="node">
<title>Node2</title>
<g id="a_node2"><a xlink:href="_assemble_edge_solver_algorithm_8h.html" target="_top" xlink:title=" ">
<polygon fill="white" stroke="red" points="816.5,-129 816.5,-148 992.5,-148 992.5,-129 816.5,-129"/>
<text text-anchor="middle" x="904.5" y="-136" font-family="Helvetica,sans-Serif" font-size="10.00">AssembleEdgeSolverAlgorithm.h</text>
</a>
</g>
</g>
<!-- Node1&#45;&gt;Node2 -->
<g id="edge1" class="edge">
<title>Node1&#45;&gt;Node2</title>
<path fill="none" stroke="midnightblue" d="M2071.47,-265.79C1858.54,-264.73 1106.6,-258.35 1006.5,-221 964.66,-205.39 926.81,-165.54 911.59,-148"/>
<polygon fill="midnightblue" stroke="midnightblue" points="2071.47,-269.29 2081.49,-265.84 2071.51,-262.29 2071.47,-269.29"/>
</g>
<!-- Node6 -->
<g id="node5" class="node">
<title>Node6</title>
<g id="a_node5"><a xlink:href="_low_mach_equation_system_8_c.html" target="_top" xlink:title=" ">
<polygon fill="white" stroke="black" points="1372.5,-6 1372.5,-25 1524.5,-25 1524.5,-6 1372.5,-6"/>
<text text-anchor="middle" x="1448.5" y="-13" font-family="Helvetica,sans-Serif" font-size="10.00">LowMachEquationSystem.C</text>
</a>
</g>
</g>
<!-- Node1&#45;&gt;Node6 -->
<g id="edge57" class="edge">
<title>Node1&#45;&gt;Node6</title>
<path fill="none" stroke="midnightblue" d="M2071.09,-266.56C1937.69,-267.09 1592.64,-263.8 1308.5,-221 1186.67,-202.65 1115.37,-251.08 1039.5,-154 1031.02,-143.14 1030.12,-133.09 1039.5,-123 1114.45,-42.39 1458.55,-167.61 1533.5,-87 1556.8,-61.94 1506.28,-37.55 1473.56,-25.08"/>
<polygon fill="midnightblue" stroke="midnightblue" points="2071.48,-270.06 2081.46,-266.51 2071.44,-263.06 2071.48,-270.06"/>
</g>
<!-- Node14 -->
<g id="node8" class="node">
<title>Node14</title>
<g id="a_node8"><a xlink:href="_enthalpy_equation_system_8_c.html" target="_top" xlink:title=" ">
<polygon fill="white" stroke="black" points="0,-6 0,-25 149,-25 149,-6 0,-6"/>
<text text-anchor="middle" x="74.5" y="-13" font-family="Helvetica,sans-Serif" font-size="10.00">EnthalpyEquationSystem.C</text>
</a>
</g>
</g>
<!-- Node1&#45;&gt;Node14 -->
<g id="edge52" class="edge">
<title>Node1&#45;&gt;Node14</title>
<path fill="none" stroke="midnightblue" d="M2071.26,-265.92C1800.31,-265.35 636.27,-260.6 479.5,-221 311.87,-178.65 133.95,-58.58 86.63,-25.2"/>
<polygon fill="midnightblue" stroke="midnightblue" points="2071.26,-269.42 2081.26,-265.94 2071.27,-262.42 2071.26,-269.42"/>
</g>
<!-- Node15 -->
<g id="node9" class="node">
<title>Node15</title>
<g id="a_node9"><a xlink:href="_gamma_equation_system_8_c.html" target="_top" xlink:title=" ">
<polygon fill="white" stroke="black" points="167,-6 167,-25 312,-25 312,-6 167,-6"/>
<text text-anchor="middle" x="239.5" y="-13" font-family="Helvetica,sans-Serif" font-size="10.00">GammaEquationSystem.C</text>
</a>
</g>
</g>
<!-- Node1&#45;&gt;Node15 -->
<g id="edge55" class="edge">
<title>Node1&#45;&gt;Node15</title>
<path fill="none" stroke="midnightblue" d="M2071.3,-266.17C1808.13,-266.74 704.19,-266.39 557.5,-221 419.86,-178.41 284.47,-58.51 248.66,-25.19"/>
<polygon fill="midnightblue" stroke="midnightblue" points="2071.4,-269.67 2081.4,-266.15 2071.39,-262.67 2071.4,-269.67"/>
</g>
<!-- Node16 -->
<g id="node10" class="node">
<title>Node16</title>
<g id="a_node10"><a xlink:href="_specific_dissipation_rate_equation_system_8_c.html" target="_top" xlink:title=" ">
<polygon fill="white" stroke="black" points="330.5,-0.5 330.5,-30.5 504.5,-30.5 504.5,-0.5 330.5,-0.5"/>
<text text-anchor="start" x="338.5" y="-18.5" font-family="Helvetica,sans-Serif" font-size="10.00">SpecificDissipationRateEquation</text>
<text text-anchor="middle" x="417.5" y="-7.5" font-family="Helvetica,sans-Serif" font-size="10.00">System.C</text>
</a>
</g>
</g>
<!-- Node1&#45;&gt;Node16 -->
<g id="edge66" class="edge">
<title>Node1&#45;&gt;Node16</title>
<path fill="none" stroke="midnightblue" d="M2071.08,-265.91C1818.78,-265.26 800.4,-260.24 663.5,-221 549.77,-188.4 503.51,-182.37 433.5,-87 421.25,-70.31 418.14,-45.84 417.48,-30.56"/>
<polygon fill="midnightblue" stroke="midnightblue" points="2071.11,-269.41 2081.12,-265.93 2071.13,-262.41 2071.11,-269.41"/>
</g>
<!-- Node17 -->
<g id="node11" class="node">
<title>Node17</title>
<g id="a_node11"><a xlink:href="_total_dissipation_rate_equation_system_8_c.html" target="_top" xlink:title=" ">
<polygon fill="white" stroke="black" points="522.5,-0.5 522.5,-30.5 682.5,-30.5 682.5,-0.5 522.5,-0.5"/>
<text text-anchor="start" x="530.5" y="-18.5" font-family="Helvetica,sans-Serif" font-size="10.00">TotalDissipationRateEquation</text>
<text text-anchor="middle" x="602.5" y="-7.5" font-family="Helvetica,sans-Serif" font-size="10.00">System.C</text>
</a>
</g>
</g>
<!-- Node1&#45;&gt;Node17 -->
<g id="edge67" class="edge">
<title>Node1&#45;&gt;Node17</title>
<path fill="none" stroke="midnightblue" d="M2070.88,-265.67C1813.43,-263.96 763.1,-254.95 702.5,-221 630.44,-180.63 609.39,-69.87 604.09,-30.57"/>
<polygon fill="midnightblue" stroke="midnightblue" points="2071.1,-269.17 2081.13,-265.73 2071.15,-262.17 2071.1,-269.17"/>
</g>
<!-- Node18 -->
<g id="node12" class="node">
<title>Node18</title>
<g id="a_node12"><a xlink:href="_turb_kinetic_energy_equation_system_8_c.html" target="_top" xlink:title=" ">
<polygon fill="white" stroke="black" points="701,-0.5 701,-30.5 848,-30.5 848,-0.5 701,-0.5"/>
<text text-anchor="start" x="709" y="-18.5" font-family="Helvetica,sans-Serif" font-size="10.00">TurbKineticEnergyEquation</text>
<text text-anchor="middle" x="774.5" y="-7.5" font-family="Helvetica,sans-Serif" font-size="10.00">System.C</text>
</a>
</g>
</g>
<!-- Node1&#45;&gt;Node18 -->
<g id="edge68" class="edge">
<title>Node1&#45;&gt;Node18</title>
<path fill="none" stroke="midnightblue" d="M2070.99,-266.14C1829.26,-266.46 888.87,-264.88 764.5,-221 689.95,-194.7 634.21,-134.41 675.5,-67 686.03,-49.81 704.46,-38.23 722.59,-30.56"/>
<polygon fill="midnightblue" stroke="midnightblue" points="2071.31,-269.64 2081.3,-266.12 2071.3,-262.64 2071.31,-269.64"/>
</g>
<!-- Node21 -->
<g id="node14" class="node">
<title>Node21</title>
<g id="a_node14"><a xlink:href="_volume_of_fluid_equation_system_8_c.html" target="_top" xlink:title=" ">
<polygon fill="white" stroke="black" points="870.5,-6 870.5,-25 1048.5,-25 1048.5,-6 870.5,-6"/>
<text text-anchor="middle" x="959.5" y="-13" font-family="Helvetica,sans-Serif" font-size="10.00">VolumeOfFluidEquationSystem.C</text>
</a>
</g>
</g>
<!-- Node1&#45;&gt;Node21 -->
<g id="edge69" class="edge">
<title>Node1&#45;&gt;Node21</title>
<path fill="none" stroke="midnightblue" d="M2071.11,-266.27C1838.13,-267.06 957.45,-266.97 842.5,-221 753.5,-185.41 630.32,-140.79 691.5,-67 698.3,-58.8 828.03,-37.16 904.46,-25.04"/>
<polygon fill="midnightblue" stroke="midnightblue" points="2071.4,-269.76 2081.39,-266.23 2071.37,-262.76 2071.4,-269.76"/>
</g>
<!-- Node24 -->
<g id="node16" class="node">
<title>Node24</title>
<g id="a_node16"><a xlink:href="_wall_dist_equation_system_8_c.html" target="_top" xlink:title=" ">
<polygon fill="white" stroke="black" points="1805.5,-6 1805.5,-25 1951.5,-25 1951.5,-6 1805.5,-6"/>
<text text-anchor="middle" x="1878.5" y="-13" font-family="Helvetica,sans-Serif" font-size="10.00">WallDistEquationSystem.C</text>
</a>
</g>
</g>
<!-- Node1&#45;&gt;Node24 -->
<g id="edge70" class="edge">
<title>Node1&#45;&gt;Node24</title>
<path fill="none" stroke="midnightblue" d="M2092.9,-252.92C2078.99,-245.75 2064.39,-235.34 2056.5,-221 2049.86,-208.93 2046.97,-199.95 2056.5,-190 2119.48,-124.19 2812.52,-219.81 2875.5,-154 2885.03,-144.05 2884.71,-133.25 2875.5,-123 2813.86,-54.43 2171.32,-26.41 1951.66,-18.79"/>
<polygon fill="midnightblue" stroke="midnightblue" points="2091.8,-256.27 2102.34,-257.38 2094.79,-249.94 2091.8,-256.27"/>
</g>
<!-- Node29 -->
<g id="node17" class="node">
<title>Node29</title>
<g id="a_node17"><a xlink:href="_assemble_edge_solver_algorithm_8_c.html" target="_top" xlink:title=" ">
<polygon fill="white" stroke="black" points="700,-67.5 700,-86.5 877,-86.5 877,-67.5 700,-67.5"/>
<text text-anchor="middle" x="788.5" y="-74.5" font-family="Helvetica,sans-Serif" font-size="10.00">AssembleEdgeSolverAlgorithm.C</text>
</a>
</g>
</g>
<!-- Node1&#45;&gt;Node29 -->
<g id="edge34" class="edge">
<title>Node1&#45;&gt;Node29</title>
<path fill="none" stroke="midnightblue" d="M2071.14,-265.16C1851.52,-261.72 1059.87,-247.55 950.5,-221 882.3,-204.44 852.11,-208.18 807.5,-154 791.07,-134.05 788.56,-101.85 788.36,-86.57"/>
<polygon fill="midnightblue" stroke="midnightblue" points="2071.41,-268.67 2081.46,-265.32 2071.52,-261.67 2071.41,-268.67"/>
</g>
<!-- Node30 -->
<g id="node18" class="node">
<title>Node30</title>
<g id="a_node18"><a xlink:href="_hypre_linear_system_8h.html" target="_top" xlink:title=" ">
<polygon fill="white" stroke="red" points="1461.5,-196 1461.5,-215 1583.5,-215 1583.5,-196 1461.5,-196"/>
<text text-anchor="middle" x="1522.5" y="-203" font-family="Helvetica,sans-Serif" font-size="10.00">HypreLinearSystem.h</text>
</a>
</g>
</g>
<!-- Node1&#45;&gt;Node30 -->
<g id="edge18" class="edge">
<title>Node1&#45;&gt;Node30</title>
<path fill="none" stroke="midnightblue" d="M2071.06,-263.18C1973.95,-257.89 1769.15,-244.81 1597.5,-221 1586.07,-219.41 1573.75,-217.23 1562.46,-215.04"/>
<polygon fill="midnightblue" stroke="midnightblue" points="2071.06,-266.69 2081.24,-263.73 2071.44,-259.7 2071.06,-266.69"/>
</g>
<!-- Node34 -->
<g id="node19" class="node">
<title>Node34</title>
<g id="a_node19"><a xlink:href="_solver_algorithm_8h.html" target="_top" xlink:title=" ">
<polygon fill="white" stroke="red" points="1715.5,-196 1715.5,-215 1819.5,-215 1819.5,-196 1715.5,-196"/>
<text text-anchor="middle" x="1767.5" y="-203" font-family="Helvetica,sans-Serif" font-size="10.00">SolverAlgorithm.h</text>
</a>
</g>
</g>
<!-- Node1&#45;&gt;Node34 -->
<g id="edge19" class="edge">
<title>Node1&#45;&gt;Node34</title>
<path fill="none" stroke="midnightblue" d="M2071.35,-258.5C2012.05,-250.33 1915.92,-236.34 1833.5,-221 1824.04,-219.24 1813.87,-217.12 1804.42,-215.05"/>
<polygon fill="midnightblue" stroke="midnightblue" points="2070.88,-261.97 2081.26,-259.86 2071.83,-255.03 2070.88,-261.97"/>
</g>
<!-- Node40 -->
<g id="node20" class="node">
<title>Node40</title>
<g id="a_node20"><a xlink:href="_assemble_elem_solver_algorithm_8_c.html" target="_top" xlink:title=" ">
<polygon fill="white" stroke="black" points="1048.5,-129 1048.5,-148 1226.5,-148 1226.5,-129 1048.5,-129"/>
<text text-anchor="middle" x="1137.5" y="-136" font-family="Helvetica,sans-Serif" font-size="10.00">AssembleElemSolverAlgorithm.C</text>
</a>
</g>
</g>
<!-- Node1&#45;&gt;Node40 -->
<g id="edge35" class="edge">
<title>Node1&#45;&gt;Node40</title>
<path fill="none" stroke="midnightblue" d="M2071.24,-265.78C1954.93,-264.56 1679.86,-257.66 1452.5,-221 1343.47,-203.42 1217.26,-165.16 1163.7,-148.06"/>
<polygon fill="midnightblue" stroke="midnightblue" points="2071.3,-269.28 2081.33,-265.88 2071.37,-262.28 2071.3,-269.28"/>
</g>
<!-- Node42 -->
<g id="node21" class="node">
<title>Node42</title>
<g id="a_node21"><a xlink:href="_assemble_face_elem_solver_algorithm_8_c.html" target="_top" xlink:title=" ">
<polygon fill="white" stroke="black" points="1244.5,-129 1244.5,-148 1444.5,-148 1444.5,-129 1244.5,-129"/>
<text text-anchor="middle" x="1344.5" y="-136" font-family="Helvetica,sans-Serif" font-size="10.00">AssembleFaceElemSolverAlgorithm.C</text>
</a>
</g>
</g>
<!-- Node1&#45;&gt;Node42 -->
<g id="edge36" class="edge">
<title>Node1&#45;&gt;Node42</title>
<path fill="none" stroke="midnightblue" d="M2071.15,-265.02C1958.39,-262.4 1709.07,-253.05 1630.5,-221 1610.32,-212.77 1612.2,-199.33 1592.5,-190 1559.49,-174.36 1464.77,-157.73 1402.4,-148"/>
<polygon fill="midnightblue" stroke="midnightblue" points="2071.23,-268.53 2081.3,-265.25 2071.38,-261.53 2071.23,-268.53"/>
</g>
<!-- Node44 -->
<g id="node22" class="node">
<title>Node44</title>
<g id="a_node22"><a xlink:href="_assemble_momentum_edge_a_b_l_top_b_c_8_c.html" target="_top" xlink:title=" ">
<polygon fill="white" stroke="black" points="1463,-129 1463,-148 1666,-148 1666,-129 1463,-129"/>
<text text-anchor="middle" x="1564.5" y="-136" font-family="Helvetica,sans-Serif" font-size="10.00">AssembleMomentumEdgeABLTopBC.C</text>
</a>
</g>
</g>
<!-- Node1&#45;&gt;Node44 -->
<g id="edge37" class="edge">
<title>Node1&#45;&gt;Node44</title>
<path fill="none" stroke="midnightblue" d="M2071.18,-263.28C1970.44,-257.9 1763.6,-244.34 1695.5,-221 1645.84,-203.98 1595.43,-165.25 1574.53,-148.03"/>
<polygon fill="midnightblue" stroke="midnightblue" points="2071,-266.78 2081.17,-263.81 2071.37,-259.79 2071,-266.78"/>
</g>
<!-- Node46 -->
<g id="node23" class="node">
<title>Node46</title>
<g id="a_node23"><a xlink:href="_assemble_momentum_edge_wall_function_solver_algorithm_8_c.html" target="_top" xlink:title=" ">
<polygon fill="white" stroke="black" points="1684.5,-123.5 1684.5,-153.5 1850.5,-153.5 1850.5,-123.5 1684.5,-123.5"/>
<text text-anchor="start" x="1692.5" y="-141.5" font-family="Helvetica,sans-Serif" font-size="10.00">AssembleMomentumEdgeWall</text>
<text text-anchor="middle" x="1767.5" y="-130.5" font-family="Helvetica,sans-Serif" font-size="10.00">FunctionSolverAlgorithm.C</text>
</a>
</g>
</g>
<!-- Node1&#45;&gt;Node46 -->
<g id="edge38" class="edge">
<title>Node1&#45;&gt;Node46</title>
<path fill="none" stroke="midnightblue" d="M2071.2,-264.09C1962.09,-259.81 1730.45,-247.65 1706.5,-221 1686.53,-198.79 1719.51,-170.38 1744.24,-153.64"/>
<polygon fill="midnightblue" stroke="midnightblue" points="2071.23,-267.59 2081.36,-264.48 2071.5,-260.6 2071.23,-267.59"/>
</g>
<!-- Node53 -->
<g id="node24" class="node">
<title>Node53</title>
<g id="a_node24"><a xlink:href="_assemble_node_solver_algorithm_8_c.html" target="_top" xlink:title=" ">
<polygon fill="white" stroke="black" points="1907,-129 1907,-148 2086,-148 2086,-129 1907,-129"/>
<text text-anchor="middle" x="1996.5" y="-136" font-family="Helvetica,sans-Serif" font-size="10.00">AssembleNodeSolverAlgorithm.C</text>
</a>
</g>
</g>
<!-- Node1&#45;&gt;Node53 -->
<g id="edge43" class="edge">
<title>Node1&#45;&gt;Node53</title>
<path fill="none" stroke="midnightblue" d="M2071.13,-263.07C2009.74,-258.57 1917.34,-247.48 1895.5,-221 1869.41,-189.36 1931.47,-161.52 1969.52,-148.06"/>
<polygon fill="midnightblue" stroke="midnightblue" points="2071.24,-266.59 2081.46,-263.79 2071.72,-259.61 2071.24,-266.59"/>
</g>
<!-- Node57 -->
<g id="node25" class="node">
<title>Node57</title>
<g id="a_node25"><a xlink:href="_assemble_p_n_g_elem_solver_algorithm_8_c.html" target="_top" xlink:title=" ">
<polygon fill="white" stroke="black" points="2104,-129 2104,-148 2303,-148 2303,-129 2104,-129"/>
<text text-anchor="middle" x="2203.5" y="-136" font-family="Helvetica,sans-Serif" font-size="10.00">AssemblePNGElemSolverAlgorithm.C</text>
</a>
</g>
</g>
<!-- Node1&#45;&gt;Node57 -->
<g id="edge45" class="edge">
<title>Node1&#45;&gt;Node57</title>
<path fill="none" stroke="midnightblue" d="M2071.07,-264.58C1991.93,-260.59 1862.59,-245.65 1909.5,-190 1916.98,-181.13 2058.12,-159.92 2142.08,-148"/>
<polygon fill="midnightblue" stroke="midnightblue" points="2071.26,-268.09 2081.41,-265.05 2071.58,-261.1 2071.26,-268.09"/>
</g>
<!-- Node75 -->
<g id="node26" class="node">
<title>Node75</title>
<g id="a_node26"><a xlink:href="_assemble_overset_pressure_algorithm_8_c.html" target="_top" xlink:title=" ">
<polygon fill="white" stroke="black" points="2321,-129 2321,-148 2524,-148 2524,-129 2321,-129"/>
<text text-anchor="middle" x="2422.5" y="-136" font-family="Helvetica,sans-Serif" font-size="10.00">AssembleOversetPressureAlgorithm.C</text>
</a>
</g>
</g>
<!-- Node1&#45;&gt;Node75 -->
<g id="edge59" class="edge">
<title>Node1&#45;&gt;Node75</title>
<path fill="none" stroke="midnightblue" d="M2071.53,-261.04C2005.07,-253.09 1907.91,-233.69 1947.5,-190 1974.87,-159.8 2272.02,-158.66 2312.5,-154 2328.1,-152.2 2344.91,-150.08 2360.59,-148.02"/>
<polygon fill="midnightblue" stroke="midnightblue" points="2071.17,-264.52 2081.5,-262.18 2071.96,-257.57 2071.17,-264.52"/>
</g>
<!-- Node79 -->
<g id="node27" class="node">
<title>Node79</title>
<g id="a_node27"><a xlink:href="_assemble_overset_wall_dist_algorithm_8_c.html" target="_top" xlink:title=" ">
<polygon fill="white" stroke="black" points="2542,-129 2542,-148 2743,-148 2743,-129 2542,-129"/>
<text text-anchor="middle" x="2642.5" y="-136" font-family="Helvetica,sans-Serif" font-size="10.00">AssembleOversetWallDistAlgorithm.C</text>
</a>
</g>
</g>
<!-- Node1&#45;&gt;Node79 -->
<g id="edge61" class="edge">
<title>Node1&#45;&gt;Node79</title>
<path fill="none" stroke="midnightblue" d="M2071.2,-256.07C2019.29,-244.6 1954.62,-222.98 1985.5,-190 2027.21,-145.46 2472.78,-160.03 2533.5,-154 2549.93,-152.37 2567.7,-150.18 2584.04,-148.01"/>
<polygon fill="midnightblue" stroke="midnightblue" points="2070.54,-259.51 2081.05,-258.16 2071.99,-252.66 2070.54,-259.51"/>
</g>
<!-- Node81 -->
<g id="node28" class="node">
<title>Node81</title>
<g id="a_node28"><a xlink:href="_solver_algorithm_8_c.html" target="_top" xlink:title=" ">
<polygon fill="white" stroke="black" points="2761,-129 2761,-148 2866,-148 2866,-129 2761,-129"/>
<text text-anchor="middle" x="2813.5" y="-136" font-family="Helvetica,sans-Serif" font-size="10.00">SolverAlgorithm.C</text>
</a>
</g>
</g>
<!-- Node1&#45;&gt;Node81 -->
<g id="edge65" class="edge">
<title>Node1&#45;&gt;Node81</title>
<path fill="none" stroke="midnightblue" d="M2071.7,-254.9C2053.18,-248.27 2034.49,-237.73 2023.5,-221 2015.94,-209.48 2014,-199.98 2023.5,-190 2079.41,-131.26 2672.21,-165.43 2752.5,-154 2762.31,-152.6 2772.85,-150.37 2782.37,-148.07"/>
<polygon fill="midnightblue" stroke="midnightblue" points="2070.75,-258.27 2081.34,-258.02 2072.9,-251.61 2070.75,-258.27"/>
</g>
<!-- Node83 -->
<g id="node29" class="node">
<title>Node83</title>
<g id="a_node29"><a xlink:href="_tpetra_linear_system_8h.html" target="_top" xlink:title=" ">
<polygon fill="white" stroke="red" points="2065.5,-196 2065.5,-215 2189.5,-215 2189.5,-196 2065.5,-196"/>
<text text-anchor="middle" x="2127.5" y="-203" font-family="Helvetica,sans-Serif" font-size="10.00">TpetraLinearSystem.h</text>
</a>
</g>
</g>
<!-- Node1&#45;&gt;Node83 -->
<g id="edge31" class="edge">
<title>Node1&#45;&gt;Node83</title>
<path fill="none" stroke="midnightblue" d="M2127.5,-247.32C2127.5,-236.5 2127.5,-223.4 2127.5,-215.01"/>
<polygon fill="midnightblue" stroke="midnightblue" points="2124,-247.48 2127.5,-257.48 2131,-247.48 2124,-247.48"/>
</g>
<!-- Node86 -->
<g id="node30" class="node">
<title>Node86</title>
<g id="a_node30"><a xlink:href="_tpetra_segregated_linear_system_8h.html" target="_top" xlink:title=" ">
<polygon fill="white" stroke="red" points="2208,-196 2208,-215 2387,-215 2387,-196 2208,-196"/>
<text text-anchor="middle" x="2297.5" y="-203" font-family="Helvetica,sans-Serif" font-size="10.00">TpetraSegregatedLinearSystem.h</text>
</a>
</g>
</g>
<!-- Node1&#45;&gt;Node86 -->
<g id="edge32" class="edge">
<title>Node1&#45;&gt;Node86</title>
<path fill="none" stroke="midnightblue" d="M2161.55,-254.08C2194.59,-242.52 2243.92,-225.25 2273.19,-215.01"/>
<polygon fill="midnightblue" stroke="midnightblue" points="2160.14,-250.87 2151.86,-257.48 2162.45,-257.48 2160.14,-250.87"/>
</g>
<!-- Node36 -->
<g id="node31" class="node">
<title>Node36</title>
<g id="a_node31"><a xlink:href="_assemble_continuity_non_conformal_solver_algorithm_8_c.html" target="_top" xlink:title=" ">
<polygon fill="white" stroke="black" points="2405,-190.5 2405,-220.5 2590,-220.5 2590,-190.5 2405,-190.5"/>
<text text-anchor="start" x="2413" y="-208.5" font-family="Helvetica,sans-Serif" font-size="10.00">AssembleContinuityNonConformal</text>
<text text-anchor="middle" x="2497.5" y="-197.5" font-family="Helvetica,sans-Serif" font-size="10.00">SolverAlgorithm.C</text>
</a>
</g>
</g>
<!-- Node1&#45;&gt;Node36 -->
<g id="edge33" class="edge">
<title>Node1&#45;&gt;Node36</title>
<path fill="none" stroke="midnightblue" d="M2183.68,-256.97C2243.82,-247.29 2340.04,-231.82 2410.09,-220.56"/>
<polygon fill="midnightblue" stroke="midnightblue" points="2182.93,-253.54 2173.61,-258.58 2184.04,-260.45 2182.93,-253.54"/>
</g>
<!-- Node48 -->
<g id="node32" class="node">
<title>Node48</title>
<g id="a_node32"><a xlink:href="_assemble_momentum_non_conformal_solver_algorithm_8_c.html" target="_top" xlink:title=" ">
<polygon fill="white" stroke="black" points="2608,-190.5 2608,-220.5 2799,-220.5 2799,-190.5 2608,-190.5"/>
<text text-anchor="start" x="2616" y="-208.5" font-family="Helvetica,sans-Serif" font-size="10.00">AssembleMomentumNonConformal</text>
<text text-anchor="middle" x="2703.5" y="-197.5" font-family="Helvetica,sans-Serif" font-size="10.00">SolverAlgorithm.C</text>
</a>
</g>
</g>
<!-- Node1&#45;&gt;Node48 -->
<g id="edge39" class="edge">
<title>Node1&#45;&gt;Node48</title>
<path fill="none" stroke="midnightblue" d="M2183.9,-261.42C2272.51,-254.05 2449.69,-238.58 2599.5,-221 2602.22,-220.68 2604.97,-220.35 2607.75,-220.01"/>
<polygon fill="midnightblue" stroke="midnightblue" points="2183.48,-257.94 2173.8,-262.26 2184.05,-264.92 2183.48,-257.94"/>
</g>
<!-- Node51 -->
<g id="node33" class="node">
<title>Node51</title>
<g id="a_node33"><a xlink:href="_assemble_n_g_p_node_solver_algorithm_8_c.html" target="_top" xlink:title=" ">
<polygon fill="white" stroke="black" points="2817.5,-196 2817.5,-215 3017.5,-215 3017.5,-196 2817.5,-196"/>
<text text-anchor="middle" x="2917.5" y="-203" font-family="Helvetica,sans-Serif" font-size="10.00">AssembleNGPNodeSolverAlgorithm.C</text>
</a>
</g>
</g>
<!-- Node1&#45;&gt;Node51 -->
<g id="edge40" class="edge">
<title>Node1&#45;&gt;Node51</title>
<path fill="none" stroke="midnightblue" d="M2183.96,-263.54C2300.75,-258.16 2577.31,-243.99 2808.5,-221 2824.93,-219.37 2842.7,-217.18 2859.03,-215"/>
<polygon fill="midnightblue" stroke="midnightblue" points="2183.66,-260.05 2173.83,-264 2183.98,-267.04 2183.66,-260.05"/>
</g>
<!-- Node88 -->
<g id="node34" class="node">
<title>Node88</title>
<g id="a_node34"><a xlink:href="_assemble_nodal_grad_non_conformal_algorithm_8_c.html" target="_top" xlink:title=" ">
<polygon fill="white" stroke="black" points="3036,-190.5 3036,-220.5 3223,-220.5 3223,-190.5 3036,-190.5"/>
<text text-anchor="start" x="3044" y="-208.5" font-family="Helvetica,sans-Serif" font-size="10.00">AssembleNodalGradNonConformal</text>
<text text-anchor="middle" x="3129.5" y="-197.5" font-family="Helvetica,sans-Serif" font-size="10.00">Algorithm.C</text>
</a>
</g>
</g>
<!-- Node1&#45;&gt;Node88 -->
<g id="edge41" class="edge">
<title>Node1&#45;&gt;Node88</title>
<path fill="none" stroke="midnightblue" d="M2184.13,-264.93C2326.17,-261.87 2708.92,-251.24 3026.5,-221 3029.56,-220.71 3032.66,-220.39 3035.79,-220.06"/>
<polygon fill="midnightblue" stroke="midnightblue" points="2183.85,-261.44 2173.92,-265.15 2184,-268.43 2183.85,-261.44"/>
</g>
<!-- Node89 -->
<g id="node35" class="node">
<title>Node89</title>
<g id="a_node35"><a xlink:href="_assemble_nodal_grad_u_non_conformal_algorithm_8_c.html" target="_top" xlink:title=" ">
<polygon fill="white" stroke="black" points="3240.5,-190.5 3240.5,-220.5 3434.5,-220.5 3434.5,-190.5 3240.5,-190.5"/>
<text text-anchor="start" x="3248.5" y="-208.5" font-family="Helvetica,sans-Serif" font-size="10.00">AssembleNodalGradUNonConformal</text>
<text text-anchor="middle" x="3337.5" y="-197.5" font-family="Helvetica,sans-Serif" font-size="10.00">Algorithm.C</text>
</a>
</g>
</g>
<!-- Node1&#45;&gt;Node89 -->
<g id="edge42" class="edge">
<title>Node1&#45;&gt;Node89</title>
<path fill="none" stroke="midnightblue" d="M2183.91,-265.62C2346.81,-264.12 2831.81,-256.74 3232.5,-221 3235.07,-220.77 3237.67,-220.52 3240.29,-220.26"/>
<polygon fill="midnightblue" stroke="midnightblue" points="2183.62,-262.13 2173.66,-265.71 2183.69,-269.13 2183.62,-262.13"/>
</g>
<!-- Node55 -->
<g id="node36" class="node">
<title>Node55</title>
<g id="a_node36"><a xlink:href="_assemble_p_n_g_boundary_solver_algorithm_8_c.html" target="_top" xlink:title=" ">
<polygon fill="white" stroke="black" points="3453,-190.5 3453,-220.5 3616,-220.5 3616,-190.5 3453,-190.5"/>
<text text-anchor="start" x="3461" y="-208.5" font-family="Helvetica,sans-Serif" font-size="10.00">AssemblePNGBoundarySolver</text>
<text text-anchor="middle" x="3534.5" y="-197.5" font-family="Helvetica,sans-Serif" font-size="10.00">Algorithm.C</text>
</a>
</g>
</g>
<!-- Node1&#45;&gt;Node55 -->
<g id="edge44" class="edge">
<title>Node1&#45;&gt;Node55</title>
<path fill="none" stroke="midnightblue" d="M2183.83,-266.56C2366.3,-267.85 2957.44,-267.85 3443.5,-221 3446.53,-220.71 3449.6,-220.38 3452.71,-220.02"/>
<polygon fill="midnightblue" stroke="midnightblue" points="2183.7,-263.06 2173.67,-266.49 2183.65,-270.06 2183.7,-263.06"/>
</g>
<!-- Node59 -->
<g id="node37" class="node">
<title>Node59</title>
<g id="a_node37"><a xlink:href="_assemble_p_n_g_non_conformal_solver_algorithm_8_c.html" target="_top" xlink:title=" ">
<polygon fill="white" stroke="black" points="3634,-190.5 3634,-220.5 3821,-220.5 3821,-190.5 3634,-190.5"/>
<text text-anchor="start" x="3642" y="-208.5" font-family="Helvetica,sans-Serif" font-size="10.00">AssemblePNGNonConformalSolver</text>
<text text-anchor="middle" x="3727.5" y="-197.5" font-family="Helvetica,sans-Serif" font-size="10.00">Algorithm.C</text>
</a>
</g>
</g>
<!-- Node1&#45;&gt;Node59 -->
<g id="edge46" class="edge">
<title>Node1&#45;&gt;Node59</title>
<path fill="none" stroke="midnightblue" d="M2183.89,-265.15C2420.93,-261.43 3337.5,-245.72 3625.5,-221 3628.26,-220.76 3631.06,-220.5 3633.89,-220.22"/>
<polygon fill="midnightblue" stroke="midnightblue" points="2183.72,-261.65 2173.78,-265.3 2183.83,-268.65 2183.72,-261.65"/>
</g>
<!-- Node61 -->
<g id="node38" class="node">
<title>Node61</title>
<g id="a_node38"><a xlink:href="_assemble_scalar_eigen_edge_solver_algorithm_8_c.html" target="_top" xlink:title=" ">
<polygon fill="white" stroke="black" points="3838.5,-190.5 3838.5,-220.5 4014.5,-220.5 4014.5,-190.5 3838.5,-190.5"/>
<text text-anchor="start" x="3846.5" y="-208.5" font-family="Helvetica,sans-Serif" font-size="10.00">AssembleScalarEigenEdgeSolver</text>
<text text-anchor="middle" x="3926.5" y="-197.5" font-family="Helvetica,sans-Serif" font-size="10.00">Algorithm.C</text>
</a>
</g>
</g>
<!-- Node1&#45;&gt;Node61 -->
<g id="edge47" class="edge">
<title>Node1&#45;&gt;Node61</title>
<path fill="none" stroke="midnightblue" d="M2183.86,-265.45C2440.47,-262.79 3499.96,-250.22 3830.5,-221 3833.1,-220.77 3835.74,-220.51 3838.4,-220.24"/>
<polygon fill="midnightblue" stroke="midnightblue" points="2183.62,-261.95 2173.66,-265.55 2183.7,-268.95 2183.62,-261.95"/>
</g>
<!-- Node63 -->
<g id="node39" class="node">
<title>Node63</title>
<g id="a_node39"><a xlink:href="_assemble_scalar_non_conformal_solver_algorithm_8_c.html" target="_top" xlink:title=" ">
<polygon fill="white" stroke="black" points="4033,-190.5 4033,-220.5 4198,-220.5 4198,-190.5 4033,-190.5"/>
<text text-anchor="start" x="4041" y="-208.5" font-family="Helvetica,sans-Serif" font-size="10.00">AssembleScalarNonConformal</text>
<text text-anchor="middle" x="4115.5" y="-197.5" font-family="Helvetica,sans-Serif" font-size="10.00">SolverAlgorithm.C</text>
</a>
</g>
</g>
<!-- Node1&#45;&gt;Node63 -->
<g id="edge48" class="edge">
<title>Node1&#45;&gt;Node63</title>
<path fill="none" stroke="midnightblue" d="M2183.91,-265.67C2458.01,-263.92 3652.79,-254.46 4023.5,-221 4026.56,-220.72 4029.67,-220.41 4032.81,-220.06"/>
<polygon fill="midnightblue" stroke="midnightblue" points="2183.77,-262.17 2173.79,-265.73 2183.81,-269.17 2183.77,-262.17"/>
</g>
<!-- Node65 -->
<g id="node40" class="node">
<title>Node65</title>
<g id="a_node40"><a xlink:href="_assemble_wall_dist_non_conformal_algorithm_8_c.html" target="_top" xlink:title=" ">
<polygon fill="white" stroke="black" points="4216.5,-190.5 4216.5,-220.5 4392.5,-220.5 4392.5,-190.5 4216.5,-190.5"/>
<text text-anchor="start" x="4224.5" y="-208.5" font-family="Helvetica,sans-Serif" font-size="10.00">AssembleWallDistNonConformal</text>
<text text-anchor="middle" x="4304.5" y="-197.5" font-family="Helvetica,sans-Serif" font-size="10.00">Algorithm.C</text>
</a>
</g>
</g>
<!-- Node1&#45;&gt;Node65 -->
<g id="edge49" class="edge">
<title>Node1&#45;&gt;Node65</title>
<path fill="none" stroke="midnightblue" d="M2184.11,-265.75C2474.4,-264.3 3798.23,-255.88 4207.5,-221 4210.38,-220.75 4213.31,-220.48 4216.27,-220.17"/>
<polygon fill="midnightblue" stroke="midnightblue" points="2183.81,-262.25 2173.82,-265.8 2183.84,-269.25 2183.81,-262.25"/>
</g>
<!-- Node90 -->
<g id="node41" class="node">
<title>Node90</title>
<g id="a_node41"><a xlink:href="_compute_mdot_non_conformal_algorithm_8_c.html" target="_top" xlink:title=" ">
<polygon fill="white" stroke="black" points="4410.5,-196 4410.5,-215 4624.5,-215 4624.5,-196 4410.5,-196"/>
<text text-anchor="middle" x="4517.5" y="-203" font-family="Helvetica,sans-Serif" font-size="10.00">ComputeMdotNonConformalAlgorithm.C</text>
</a>
</g>
</g>
<!-- Node1&#45;&gt;Node90 -->
<g id="edge50" class="edge">
<title>Node1&#45;&gt;Node90</title>
<path fill="none" stroke="midnightblue" d="M2184.35,-265.68C2491.05,-263.85 3951.21,-253.51 4401.5,-221 4420.22,-219.65 4440.56,-217.38 4458.9,-215.03"/>
<polygon fill="midnightblue" stroke="midnightblue" points="2183.91,-262.18 2173.93,-265.74 2183.95,-269.18 2183.91,-262.18"/>
</g>
<!-- Node67 -->
<g id="node42" class="node">
<title>Node67</title>
<g id="a_node42"><a xlink:href="_dirichlet_b_c_8_c.html" target="_top" xlink:title=" ">
<polygon fill="white" stroke="black" points="4643,-196 4643,-215 4724,-215 4724,-196 4643,-196"/>
<text text-anchor="middle" x="4683.5" y="-203" font-family="Helvetica,sans-Serif" font-size="10.00">DirichletBC.C</text>
</a>
</g>
</g>
<!-- Node1&#45;&gt;Node67 -->
<g id="edge51" class="edge">
<title>Node1&#45;&gt;Node67</title>
<path fill="none" stroke="midnightblue" d="M2183.85,-265.88C2532.05,-265.02 4384.19,-258.71 4633.5,-221 4641.9,-219.73 4650.87,-217.44 4658.87,-215.04"/>
<polygon fill="midnightblue" stroke="midnightblue" points="2183.74,-262.38 2173.75,-265.9 2183.76,-269.38 2183.74,-262.38"/>
</g>
<!-- Node72 -->
<g id="node43" class="node">
<title>Node72</title>
<g id="a_node43"><a xlink:href="_equation_system_8_c.html" target="_top" xlink:title=" ">
<polygon fill="white" stroke="black" points="4742.5,-196 4742.5,-215 4848.5,-215 4848.5,-196 4742.5,-196"/>
<text text-anchor="middle" x="4795.5" y="-203" font-family="Helvetica,sans-Serif" font-size="10.00">EquationSystem.C</text>
</a>
</g>
</g>
<!-- Node1&#45;&gt;Node72 -->
<g id="edge53" class="edge">
<title>Node1&#45;&gt;Node72</title>
<path fill="none" stroke="midnightblue" d="M2183.79,-265.75C2539.86,-264.05 4472.75,-253.37 4733.5,-221 4743.81,-219.72 4754.91,-217.42 4764.83,-215.03"/>
<polygon fill="midnightblue" stroke="midnightblue" points="2183.71,-262.25 2173.72,-265.79 2183.74,-269.25 2183.71,-262.25"/>
</g>
<!-- Node69 -->
<g id="node44" class="node">
<title>Node69</title>
<g id="a_node44"><a xlink:href="_fix_pressure_at_node_algorithm_8_c.html" target="_top" xlink:title=" ">
<polygon fill="white" stroke="black" points="4867,-196 4867,-215 5034,-215 5034,-196 4867,-196"/>
<text text-anchor="middle" x="4950.5" y="-203" font-family="Helvetica,sans-Serif" font-size="10.00">FixPressureAtNodeAlgorithm.C</text>
</a>
</g>
</g>
<!-- Node1&#45;&gt;Node69 -->
<g id="edge54" class="edge">
<title>Node1&#45;&gt;Node69</title>
<path fill="none" stroke="midnightblue" d="M2183.62,-266.13C2523.63,-266.78 4311.32,-267.85 4857.5,-221 4872.64,-219.7 4889.06,-217.43 4903.82,-215.07"/>
<polygon fill="midnightblue" stroke="midnightblue" points="2183.53,-262.63 2173.52,-266.11 2183.52,-269.63 2183.53,-262.63"/>
</g>
<!-- Node91 -->
<g id="node45" class="node">
<title>Node91</title>
<g id="a_node45"><a xlink:href="_linear_system_8_c.html" target="_top" xlink:title=" ">
<polygon fill="white" stroke="black" points="5052,-196 5052,-215 5145,-215 5145,-196 5052,-196"/>
<text text-anchor="middle" x="5098.5" y="-203" font-family="Helvetica,sans-Serif" font-size="10.00">LinearSystem.C</text>
</a>
</g>
</g>
<!-- Node1&#45;&gt;Node91 -->
<g id="edge56" class="edge">
<title>Node1&#45;&gt;Node91</title>
<path fill="none" stroke="midnightblue" d="M2183.72,-265.95C2563.75,-265.52 4750.54,-261.27 5043.5,-221 5052.7,-219.74 5062.55,-217.45 5071.35,-215.05"/>
<polygon fill="midnightblue" stroke="midnightblue" points="2183.52,-262.45 2173.52,-265.96 2183.53,-269.45 2183.52,-262.45"/>
</g>
<!-- Node73 -->
<g id="node46" class="node">
<title>Node73</title>
<g id="a_node46"><a xlink:href="_assemble_overset_decoupled_algorithm_8_c.html" target="_top" xlink:title=" ">
<polygon fill="white" stroke="black" points="5163,-190.5 5163,-220.5 5318,-220.5 5318,-190.5 5163,-190.5"/>
<text text-anchor="start" x="5171" y="-208.5" font-family="Helvetica,sans-Serif" font-size="10.00">AssembleOversetDecoupled</text>
<text text-anchor="middle" x="5240.5" y="-197.5" font-family="Helvetica,sans-Serif" font-size="10.00">Algorithm.C</text>
</a>
</g>
</g>
<!-- Node1&#45;&gt;Node73 -->
<g id="edge58" class="edge">
<title>Node1&#45;&gt;Node73</title>
<path fill="none" stroke="midnightblue" d="M2183.67,-265.68C2571.73,-263.4 4848.24,-248.93 5154.5,-221 5157.21,-220.75 5159.97,-220.47 5162.75,-220.15"/>
<polygon fill="midnightblue" stroke="midnightblue" points="2183.51,-262.18 2173.53,-265.74 2183.55,-269.18 2183.51,-262.18"/>
</g>
<!-- Node77 -->
<g id="node47" class="node">
<title>Node77</title>
<g id="a_node47"><a xlink:href="_assemble_overset_solver_constraint_algorithm_8_c.html" target="_top" xlink:title=" ">
<polygon fill="white" stroke="black" points="5336.5,-190.5 5336.5,-220.5 5520.5,-220.5 5520.5,-190.5 5336.5,-190.5"/>
<text text-anchor="start" x="5344.5" y="-208.5" font-family="Helvetica,sans-Serif" font-size="10.00">AssembleOversetSolverConstraint</text>
<text text-anchor="middle" x="5428.5" y="-197.5" font-family="Helvetica,sans-Serif" font-size="10.00">Algorithm.C</text>
</a>
</g>
</g>
<!-- Node1&#45;&gt;Node77 -->
<g id="edge60" class="edge">
<title>Node1&#45;&gt;Node77</title>
<path fill="none" stroke="midnightblue" d="M2183.8,-266.2C2557.23,-267.37 4681.67,-271.69 5327.5,-221 5330.41,-220.77 5333.37,-220.51 5336.36,-220.23"/>
<polygon fill="midnightblue" stroke="midnightblue" points="2183.78,-262.7 2173.77,-266.17 2183.76,-269.7 2183.78,-262.7"/>
</g>
<!-- Node80 -->
<g id="node48" class="node">
<title>Node80</title>
<g id="a_node48"><a xlink:href="_overset_constraint_base_8_c.html" target="_top" xlink:title=" ">
<polygon fill="white" stroke="black" points="5539,-196 5539,-215 5678,-215 5678,-196 5539,-196"/>
<text text-anchor="middle" x="5608.5" y="-203" font-family="Helvetica,sans-Serif" font-size="10.00">OversetConstraintBase.C</text>
</a>
</g>
</g>
<!-- Node1&#45;&gt;Node80 -->
<g id="edge62" class="edge">
<title>Node1&#45;&gt;Node80</title>
<path fill="none" stroke="midnightblue" d="M2183.93,-265.83C2599.84,-264.48 5183.7,-254.78 5529.5,-221 5542.55,-219.73 5556.66,-217.43 5569.3,-215.04"/>
<polygon fill="midnightblue" stroke="midnightblue" points="2183.65,-262.33 2173.66,-265.86 2183.67,-269.33 2183.65,-262.33"/>
</g>
<!-- Node39 -->
<g id="node49" class="node">
<title>Node39</title>
<g id="a_node49"><a xlink:href="_projected_nodal_gradient_equation_system_8_c.html" target="_top" xlink:title=" ">
<polygon fill="white" stroke="black" points="5696.5,-190.5 5696.5,-220.5 5872.5,-220.5 5872.5,-190.5 5696.5,-190.5"/>
<text text-anchor="start" x="5704.5" y="-208.5" font-family="Helvetica,sans-Serif" font-size="10.00">ProjectedNodalGradientEquation</text>
<text text-anchor="middle" x="5784.5" y="-197.5" font-family="Helvetica,sans-Serif" font-size="10.00">System.C</text>
</a>
</g>
</g>
<!-- Node1&#45;&gt;Node39 -->
<g id="edge63" class="edge">
<title>Node1&#45;&gt;Node39</title>
<path fill="none" stroke="midnightblue" d="M2183.84,-265.75C2610.37,-263.8 5324.34,-250.3 5687.5,-221 5690.39,-220.77 5693.32,-220.5 5696.27,-220.21"/>
<polygon fill="midnightblue" stroke="midnightblue" points="2183.6,-262.25 2173.61,-265.8 2183.63,-269.25 2183.6,-262.25"/>
</g>
<!-- Node92 -->
<g id="node50" class="node">
<title>Node92</title>
<g id="a_node50"><a xlink:href="_realm_8_c.html" target="_top" xlink:title=" ">
<polygon fill="white" stroke="black" points="5890.5,-196 5890.5,-215 5948.5,-215 5948.5,-196 5890.5,-196"/>
<text text-anchor="middle" x="5919.5" y="-203" font-family="Helvetica,sans-Serif" font-size="10.00">Realm.C</text>
</a>
</g>
</g>
<!-- Node1&#45;&gt;Node92 -->
<g id="edge64" class="edge">
<title>Node1&#45;&gt;Node92</title>
<path fill="none" stroke="midnightblue" d="M2183.99,-265.89C2638.87,-264.92 5691.91,-257.12 5881.5,-221 5888.02,-219.76 5894.88,-217.47 5900.94,-215.08"/>
<polygon fill="midnightblue" stroke="midnightblue" points="2183.73,-262.39 2173.73,-265.91 2183.74,-269.39 2183.73,-262.39"/>
</g>
<!-- Node3 -->
<g id="node3" class="node">
<title>Node3</title>
<g id="a_node3"><a xlink:href="_assemble_edge_kernel_alg_8h.html" target="_top" xlink:title=" ">
<polygon fill="white" stroke="red" points="1046.5,-67.5 1046.5,-86.5 1190.5,-86.5 1190.5,-67.5 1046.5,-67.5"/>
<text text-anchor="middle" x="1118.5" y="-74.5" font-family="Helvetica,sans-Serif" font-size="10.00">AssembleEdgeKernelAlg.h</text>
</a>
</g>
</g>
<!-- Node2&#45;&gt;Node3 -->
<g id="edge2" class="edge">
<title>Node2&#45;&gt;Node3</title>
<path fill="none" stroke="midnightblue" d="M944.96,-126.25C986.54,-114.69 1050.34,-96.95 1087.9,-86.51"/>
<polygon fill="midnightblue" stroke="midnightblue" points="943.86,-122.92 935.16,-128.98 945.73,-129.67 943.86,-122.92"/>
</g>
<!-- Node8 -->
<g id="node4" class="node">
<title>Node8</title>
<g id="a_node4"><a xlink:href="_continuity_edge_solver_alg_8h.html" target="_top" xlink:title=" ">
<polygon fill="white" stroke="red" points="1208.5,-67.5 1208.5,-86.5 1354.5,-86.5 1354.5,-67.5 1208.5,-67.5"/>
<text text-anchor="middle" x="1281.5" y="-74.5" font-family="Helvetica,sans-Serif" font-size="10.00">ContinuityEdgeSolverAlg.h</text>
</a>
</g>
</g>
<!-- Node2&#45;&gt;Node8 -->
<g id="edge3" class="edge">
<title>Node2&#45;&gt;Node8</title>
<path fill="none" stroke="midnightblue" d="M968.49,-127.4C1041.37,-115.9 1159.19,-97.3 1227.59,-86.51"/>
<polygon fill="midnightblue" stroke="midnightblue" points="967.85,-123.96 958.51,-128.98 968.94,-130.87 967.85,-123.96"/>
</g>
<!-- Node10 -->
<g id="node6" class="node">
<title>Node10</title>
<g id="a_node6"><a xlink:href="_momentum_edge_solver_alg_8h.html" target="_top" xlink:title=" ">
<polygon fill="white" stroke="red" points="1372.5,-67.5 1372.5,-86.5 1524.5,-86.5 1524.5,-67.5 1372.5,-67.5"/>
<text text-anchor="middle" x="1448.5" y="-74.5" font-family="Helvetica,sans-Serif" font-size="10.00">MomentumEdgeSolverAlg.h</text>
</a>
</g>
</g>
<!-- Node2&#45;&gt;Node10 -->
<g id="edge5" class="edge">
<title>Node2&#45;&gt;Node10</title>
<path fill="none" stroke="midnightblue" d="M971.49,-127.58C983.15,-125.97 995.17,-124.38 1006.5,-123 1164.81,-103.77 1204.87,-103.4 1363.5,-87 1366.3,-86.71 1369.16,-86.41 1372.05,-86.11"/>
<polygon fill="midnightblue" stroke="midnightblue" points="970.78,-124.15 961.36,-129 971.75,-131.08 970.78,-124.15"/>
</g>
<!-- Node12 -->
<g id="node7" class="node">
<title>Node12</title>
<g id="a_node7"><a xlink:href="_scalar_edge_solver_alg_8h.html" target="_top" xlink:title=" ">
<polygon fill="white" stroke="red" points="442.5,-67.5 442.5,-86.5 568.5,-86.5 568.5,-67.5 442.5,-67.5"/>
<text text-anchor="middle" x="505.5" y="-74.5" font-family="Helvetica,sans-Serif" font-size="10.00">ScalarEdgeSolverAlg.h</text>
</a>
</g>
</g>
<!-- Node2&#45;&gt;Node12 -->
<g id="edge7" class="edge">
<title>Node2&#45;&gt;Node12</title>
<path fill="none" stroke="midnightblue" d="M837.25,-127.47C760.15,-115.97 635.1,-97.33 562.56,-86.51"/>
<polygon fill="midnightblue" stroke="midnightblue" points="836.93,-130.96 847.33,-128.98 837.96,-124.04 836.93,-130.96"/>
</g>
<!-- Node19 -->
<g id="node13" class="node">
<title>Node19</title>
<g id="a_node13"><a xlink:href="_v_o_f_advection_edge_alg_8h.html" target="_top" xlink:title=" ">
<polygon fill="white" stroke="red" points="895,-67.5 895,-86.5 1028,-86.5 1028,-67.5 895,-67.5"/>
<text text-anchor="middle" x="961.5" y="-74.5" font-family="Helvetica,sans-Serif" font-size="10.00">VOFAdvectionEdgeAlg.h</text>
</a>
</g>
</g>
<!-- Node2&#45;&gt;Node19 -->
<g id="edge13" class="edge">
<title>Node2&#45;&gt;Node19</title>
<path fill="none" stroke="midnightblue" d="M919.83,-121.5C930.62,-110.24 944.64,-95.6 953.35,-86.51"/>
<polygon fill="midnightblue" stroke="midnightblue" points="917.06,-119.33 912.67,-128.98 922.11,-124.18 917.06,-119.33"/>
</g>
<!-- Node22 -->
<g id="node15" class="node">
<title>Node22</title>
<g id="a_node15"><a xlink:href="_wall_dist_edge_solver_alg_8h.html" target="_top" xlink:title=" ">
<polygon fill="white" stroke="red" points="1647,-67.5 1647,-86.5 1784,-86.5 1784,-67.5 1647,-67.5"/>
<text text-anchor="middle" x="1715.5" y="-74.5" font-family="Helvetica,sans-Serif" font-size="10.00">WallDistEdgeSolverAlg.h</text>
</a>
</g>
</g>
<!-- Node2&#45;&gt;Node22 -->
<g id="edge15" class="edge">
<title>Node2&#45;&gt;Node22</title>
<path fill="none" stroke="midnightblue" d="M989.02,-127.89C1005.74,-126.14 1023.16,-124.42 1039.5,-123 1261.26,-103.72 1524.58,-88.35 1646.82,-81.65"/>
<polygon fill="midnightblue" stroke="midnightblue" points="988.29,-124.45 978.72,-128.98 989.03,-131.41 988.29,-124.45"/>
</g>
<!-- Node2&#45;&gt;Node29 -->
<g id="edge17" class="edge">
<title>Node2&#45;&gt;Node29</title>
<path fill="none" stroke="midnightblue" d="M878.9,-124.37C856.41,-112.83 824.37,-96.4 805.09,-86.51"/>
<polygon fill="midnightblue" stroke="midnightblue" points="877.38,-127.53 887.88,-128.98 880.58,-121.3 877.38,-127.53"/>
</g>
<!-- Node8&#45;&gt;Node6 -->
<g id="edge4" class="edge">
<title>Node8&#45;&gt;Node6</title>
<path fill="none" stroke="midnightblue" d="M1314.95,-64.08C1347.41,-52.52 1395.87,-35.25 1424.62,-25.01"/>
<polygon fill="midnightblue" stroke="midnightblue" points="1313.67,-60.82 1305.43,-67.48 1316.02,-67.42 1313.67,-60.82"/>
</g>
<!-- Node10&#45;&gt;Node6 -->
<g id="edge6" class="edge">
<title>Node10&#45;&gt;Node6</title>
<path fill="none" stroke="midnightblue" d="M1448.5,-57.32C1448.5,-46.5 1448.5,-33.4 1448.5,-25.01"/>
<polygon fill="midnightblue" stroke="midnightblue" points="1445,-57.48 1448.5,-67.48 1452,-57.48 1445,-57.48"/>
</g>
<!-- Node12&#45;&gt;Node14 -->
<g id="edge8" class="edge">
<title>Node12&#45;&gt;Node14</title>
<path fill="none" stroke="midnightblue" d="M432.08,-67.47C361.56,-59.04 252.08,-45.37 157.5,-31 145.79,-29.22 133.18,-27.12 121.41,-25.07"/>
<polygon fill="midnightblue" stroke="midnightblue" points="431.85,-70.96 442.2,-68.67 432.68,-64.01 431.85,-70.96"/>
</g>
<!-- Node12&#45;&gt;Node15 -->
<g id="edge9" class="edge">
<title>Node12&#45;&gt;Node15</title>
<path fill="none" stroke="midnightblue" d="M457.48,-65.26C405.88,-53.72 324.91,-35.61 277.54,-25.01"/>
<polygon fill="midnightblue" stroke="midnightblue" points="456.87,-68.71 467.39,-67.48 458.39,-61.88 456.87,-68.71"/>
</g>
<!-- Node12&#45;&gt;Node16 -->
<g id="edge10" class="edge">
<title>Node12&#45;&gt;Node16</title>
<path fill="none" stroke="midnightblue" d="M484.41,-61.74C470.42,-52.28 452.15,-39.93 438.24,-30.52"/>
<polygon fill="midnightblue" stroke="midnightblue" points="482.65,-64.77 492.89,-67.48 486.57,-58.97 482.65,-64.77"/>
</g>
<!-- Node12&#45;&gt;Node17 -->
<g id="edge11" class="edge">
<title>Node12&#45;&gt;Node17</title>
<path fill="none" stroke="midnightblue" d="M528.31,-62.01C543.78,-52.52 564.16,-40.02 579.64,-30.52"/>
<polygon fill="midnightblue" stroke="midnightblue" points="526.09,-59.26 519.4,-67.48 529.75,-65.23 526.09,-59.26"/>
</g>
<!-- Node12&#45;&gt;Node18 -->
<g id="edge12" class="edge">
<title>Node12&#45;&gt;Node18</title>
<path fill="none" stroke="midnightblue" d="M553.91,-65.29C597.87,-55.57 663,-41.16 711.1,-30.52"/>
<polygon fill="midnightblue" stroke="midnightblue" points="553.05,-61.9 544.04,-67.48 554.56,-68.73 553.05,-61.9"/>
</g>
<!-- Node19&#45;&gt;Node21 -->
<g id="edge14" class="edge">
<title>Node19&#45;&gt;Node21</title>
<path fill="none" stroke="midnightblue" d="M960.87,-57.32C960.51,-46.5 960.07,-33.4 959.79,-25.01"/>
<polygon fill="midnightblue" stroke="midnightblue" points="957.38,-57.6 961.21,-67.48 964.38,-57.36 957.38,-57.6"/>
</g>
<!-- Node22&#45;&gt;Node24 -->
<g id="edge16" class="edge">
<title>Node22&#45;&gt;Node24</title>
<path fill="none" stroke="midnightblue" d="M1748.56,-63.93C1780.24,-52.37 1827.25,-35.21 1855.19,-25.01"/>
<polygon fill="midnightblue" stroke="midnightblue" points="1747.05,-60.76 1738.85,-67.48 1749.45,-67.33 1747.05,-60.76"/>
</g>
<!-- Node34&#45;&gt;Node2 -->
<g id="edge20" class="edge">
<title>Node34&#45;&gt;Node2</title>
<path fill="none" stroke="midnightblue" d="M1705.36,-199.08C1671.93,-196.24 1629.97,-192.77 1592.5,-190 1346.87,-171.83 1284.89,-175.16 1039.5,-154 1019.77,-152.3 998.46,-150.15 978.72,-148.04"/>
<polygon fill="midnightblue" stroke="midnightblue" points="1705.19,-202.58 1715.45,-199.94 1705.78,-195.61 1705.19,-202.58"/>
</g>
<!-- Node34&#45;&gt;Node24 -->
<g id="edge30" class="edge">
<title>Node34&#45;&gt;Node24</title>
<path fill="none" stroke="midnightblue" d="M1807.02,-192.25C1825.89,-184.36 1847.04,-172.1 1859.5,-154 1887.79,-112.92 1882.75,-48.37 1879.79,-25.17"/>
<polygon fill="midnightblue" stroke="midnightblue" points="1805.74,-189 1797.7,-195.89 1808.28,-195.52 1805.74,-189"/>
</g>
<!-- Node34&#45;&gt;Node40 -->
<g id="edge21" class="edge">
<title>Node34&#45;&gt;Node40</title>
<path fill="none" stroke="midnightblue" d="M1705.35,-199.01C1585.19,-188.33 1324.99,-164.86 1235.5,-154 1221.24,-152.27 1205.86,-150.13 1191.6,-148.02"/>
<polygon fill="midnightblue" stroke="midnightblue" points="1705.22,-202.51 1715.49,-199.91 1705.84,-195.54 1705.22,-202.51"/>
</g>
<!-- Node34&#45;&gt;Node42 -->
<g id="edge22" class="edge">
<title>Node34&#45;&gt;Node42</title>
<path fill="none" stroke="midnightblue" d="M1705.23,-194.93C1622.85,-182.27 1478.88,-160.15 1400.03,-148.03"/>
<polygon fill="midnightblue" stroke="midnightblue" points="1704.79,-198.41 1715.21,-196.46 1705.86,-191.49 1704.79,-198.41"/>
</g>
<!-- Node34&#45;&gt;Node44 -->
<g id="edge23" class="edge">
<title>Node34&#45;&gt;Node44</title>
<path fill="none" stroke="midnightblue" d="M1730.85,-192.77C1690.63,-179.89 1627.03,-159.52 1591.25,-148.06"/>
<polygon fill="midnightblue" stroke="midnightblue" points="1729.95,-196.15 1740.54,-195.87 1732.09,-189.49 1729.95,-196.15"/>
</g>
<!-- Node34&#45;&gt;Node46 -->
<g id="edge24" class="edge">
<title>Node34&#45;&gt;Node46</title>
<path fill="none" stroke="midnightblue" d="M1767.5,-185.41C1767.5,-175.22 1767.5,-162.9 1767.5,-153.59"/>
<polygon fill="midnightblue" stroke="midnightblue" points="1764,-185.73 1767.5,-195.73 1771,-185.73 1764,-185.73"/>
</g>
<!-- Node34&#45;&gt;Node53 -->
<g id="edge25" class="edge">
<title>Node34&#45;&gt;Node53</title>
<path fill="none" stroke="midnightblue" d="M1807.69,-193.09C1853,-180.23 1925.62,-159.62 1966.33,-148.06"/>
<polygon fill="midnightblue" stroke="midnightblue" points="1806.57,-189.77 1797.91,-195.87 1808.49,-196.5 1806.57,-189.77"/>
</g>
<!-- Node34&#45;&gt;Node57 -->
<g id="edge26" class="edge">
<title>Node34&#45;&gt;Node57</title>
<path fill="none" stroke="midnightblue" d="M1829.64,-195.24C1914.27,-182.62 2064.56,-160.21 2146.45,-148.01"/>
<polygon fill="midnightblue" stroke="midnightblue" points="1829.03,-191.79 1819.66,-196.72 1830.07,-198.71 1829.03,-191.79"/>
</g>
<!-- Node34&#45;&gt;Node75 -->
<g id="edge27" class="edge">
<title>Node34&#45;&gt;Node75</title>
<path fill="none" stroke="midnightblue" d="M1829.76,-197.97C1854.56,-195.41 1883.37,-192.5 1909.5,-190 2088.51,-172.87 2133.76,-173.75 2312.5,-154 2328.39,-152.24 2345.54,-150.1 2361.46,-148.01"/>
<polygon fill="midnightblue" stroke="midnightblue" points="1829.34,-194.5 1819.75,-199 1830.06,-201.46 1829.34,-194.5"/>
</g>
<!-- Node34&#45;&gt;Node79 -->
<g id="edge28" class="edge">
<title>Node34&#45;&gt;Node79</title>
<path fill="none" stroke="midnightblue" d="M1829.83,-199.19C1864.48,-196.31 1908.36,-192.78 1947.5,-190 2207.78,-171.52 2273.79,-179.22 2533.5,-154 2550.03,-152.39 2567.91,-150.21 2584.32,-148.02"/>
<polygon fill="midnightblue" stroke="midnightblue" points="1829.53,-195.7 1819.86,-200.02 1830.12,-202.67 1829.53,-195.7"/>
</g>
<!-- Node34&#45;&gt;Node81 -->
<g id="edge29" class="edge">
<title>Node34&#45;&gt;Node81</title>
<path fill="none" stroke="midnightblue" d="M1830.06,-200.01C1873.63,-196.97 1933.09,-192.97 1985.5,-190 2326.22,-170.67 2414.58,-201.67 2752.5,-154 2762.42,-152.6 2773.08,-150.34 2782.68,-148.01"/>
<polygon fill="midnightblue" stroke="midnightblue" points="1829.63,-196.54 1819.9,-200.73 1830.12,-203.52 1829.63,-196.54"/>
</g>
</g>
</svg>
