<?xml version="1.0" encoding="UTF-8" standalone="no"?>
<!DOCTYPE svg PUBLIC "-//W3C//DTD SVG 1.1//EN"
 "http://www.w3.org/Graphics/SVG/1.1/DTD/svg11.dtd">
<!-- Generated by graphviz version 2.43.0 (0)
 -->
<!-- Title: LinearAreas.C Pages: 1 -->
<svg width="1006pt" height="302pt"
 viewBox="0.00 0.00 1006.00 302.00" xmlns="http://www.w3.org/2000/svg" xmlns:xlink="http://www.w3.org/1999/xlink">
<g id="graph0" class="graph" transform="scale(1 1) rotate(0) translate(4 298)">
<title>LinearAreas.C</title>
<!-- Node1 -->
<g id="Node000001" class="node">
<title>Node1</title>
<g id="a_Node000001"><a xlink:title=" ">
<polygon fill="#999999" stroke="#666666" points="457.5,-294 373.5,-294 373.5,-275 457.5,-275 457.5,-294"/>
<text text-anchor="middle" x="415.5" y="-282" font-family="Helvetica,sans-Serif" font-size="10.00">LinearAreas.C</text>
</a>
</g>
</g>
<!-- Node2 -->
<g id="Node000002" class="node">
<title>Node2</title>
<g id="a_Node000002"><a xlink:href="_linear_areas_8h.html" target="_top" xlink:title=" ">
<polygon fill="white" stroke="#666666" points="262,-239 119,-239 119,-220 262,-220 262,-239"/>
<text text-anchor="middle" x="190.5" y="-227" font-family="Helvetica,sans-Serif" font-size="10.00">matrix_free/LinearAreas.h</text>
</a>
</g>
</g>
<!-- Node1&#45;&gt;Node2 -->
<g id="edge1_Node000001_Node000002" class="edge">
<title>Node1&#45;&gt;Node2</title>
<g id="a_edge1_Node000001_Node000002"><a xlink:title=" ">
<path fill="none" stroke="#63b8ff" d="M379.35,-274.98C340.59,-265.86 278.95,-251.33 236.7,-241.38"/>
<polygon fill="#63b8ff" stroke="#63b8ff" points="237.47,-237.97 226.93,-239.08 235.86,-244.78 237.47,-237.97"/>
</a>
</g>
</g>
<!-- Node3 -->
<g id="Node000003" class="node">
<title>Node3</title>
<g id="a_Node000003"><a xlink:href="_polynomial_orders_8h.html" target="_top" xlink:title=" ">
<polygon fill="white" stroke="#666666" points="173,-184 0,-184 0,-165 173,-165 173,-184"/>
<text text-anchor="middle" x="86.5" y="-172" font-family="Helvetica,sans-Serif" font-size="10.00">matrix_free/PolynomialOrders.h</text>
</a>
</g>
</g>
<!-- Node1&#45;&gt;Node3 -->
<g id="edge24_Node000001_Node000003" class="edge">
<title>Node1&#45;&gt;Node3</title>
<g id="a_edge24_Node000001_Node000003"><a xlink:title=" ">
<path fill="none" stroke="#63b8ff" d="M373.44,-282.6C299.23,-280.17 149.14,-271.31 109.5,-239 96.16,-228.13 90.56,-208.85 88.2,-194.38"/>
<polygon fill="#63b8ff" stroke="#63b8ff" points="91.63,-193.55 86.93,-184.06 84.68,-194.41 91.63,-193.55"/>
</a>
</g>
</g>
<!-- Node5 -->
<g id="Node000005" class="node">
<title>Node5</title>
<g id="a_Node000005"><a xlink:href="_kokkos_view_types_8h.html" target="_top" xlink:title=" ">
<polygon fill="white" stroke="#666666" points="287.5,-129 115.5,-129 115.5,-110 287.5,-110 287.5,-129"/>
<text text-anchor="middle" x="201.5" y="-117" font-family="Helvetica,sans-Serif" font-size="10.00">matrix_free/KokkosViewTypes.h</text>
</a>
</g>
</g>
<!-- Node1&#45;&gt;Node5 -->
<g id="edge23_Node000001_Node000005" class="edge">
<title>Node1&#45;&gt;Node5</title>
<g id="a_edge23_Node000001_Node000005"><a xlink:title=" ">
<path fill="none" stroke="#63b8ff" d="M404.3,-274.97C369.78,-248.68 264.76,-168.69 220.98,-135.34"/>
<polygon fill="#63b8ff" stroke="#63b8ff" points="222.93,-132.42 212.85,-129.15 218.69,-137.99 222.93,-132.42"/>
</a>
</g>
</g>
<!-- Node10 -->
<g id="Node000010" class="node">
<title>Node10</title>
<g id="a_Node000010"><a xlink:href="_geometric_functions_8h.html" target="_top" xlink:title=" ">
<polygon fill="white" stroke="#666666" points="641,-239 458,-239 458,-220 641,-220 641,-239"/>
<text text-anchor="middle" x="549.5" y="-227" font-family="Helvetica,sans-Serif" font-size="10.00">matrix_free/GeometricFunctions.h</text>
</a>
</g>
</g>
<!-- Node1&#45;&gt;Node10 -->
<g id="edge10_Node000001_Node000010" class="edge">
<title>Node1&#45;&gt;Node10</title>
<g id="a_edge10_Node000001_Node000010"><a xlink:title=" ">
<path fill="none" stroke="#63b8ff" d="M437.03,-274.98C458.97,-266.3 493.24,-252.75 518.19,-242.88"/>
<polygon fill="#63b8ff" stroke="#63b8ff" points="519.57,-246.1 527.58,-239.17 516.99,-239.59 519.57,-246.1"/>
</a>
</g>
</g>
<!-- Node11 -->
<g id="Node000011" class="node">
<title>Node11</title>
<g id="a_Node000011"><a xlink:href="_hex_vertex_coordinates_8h.html" target="_top" xlink:title=" ">
<polygon fill="white" stroke="#666666" points="513,-184 318,-184 318,-165 513,-165 513,-184"/>
<text text-anchor="middle" x="415.5" y="-172" font-family="Helvetica,sans-Serif" font-size="10.00">matrix_free/HexVertexCoordinates.h</text>
</a>
</g>
</g>
<!-- Node1&#45;&gt;Node11 -->
<g id="edge22_Node000001_Node000011" class="edge">
<title>Node1&#45;&gt;Node11</title>
<g id="a_edge22_Node000001_Node000011"><a xlink:title=" ">
<path fill="none" stroke="#63b8ff" d="M415.5,-274.66C415.5,-257.17 415.5,-217.8 415.5,-194.27"/>
<polygon fill="#63b8ff" stroke="#63b8ff" points="419,-194.16 415.5,-184.16 412,-194.16 419,-194.16"/>
</a>
</g>
</g>
<!-- Node13 -->
<g id="Node000013" class="node">
<title>Node13</title>
<g id="a_Node000013"><a xlink:title=" ">
<polygon fill="#e0e0e0" stroke="#999999" points="760,-19 647,-19 647,0 760,0 760,-19"/>
<text text-anchor="middle" x="703.5" y="-7" font-family="Helvetica,sans-Serif" font-size="10.00">Kokkos_Macros.hpp</text>
</a>
</g>
</g>
<!-- Node1&#45;&gt;Node13 -->
<g id="edge30_Node000001_Node000013" class="edge">
<title>Node1&#45;&gt;Node13</title>
<g id="a_edge30_Node000001_Node000013"><a xlink:title=" ">
<path fill="none" stroke="#63b8ff" d="M457.78,-278.51C545.99,-266.93 741.5,-234.6 741.5,-175.5 741.5,-175.5 741.5,-175.5 741.5,-118.5 741.5,-85.02 725.05,-48.84 713.8,-28.01"/>
<polygon fill="#63b8ff" stroke="#63b8ff" points="716.74,-26.1 708.78,-19.1 710.63,-29.53 716.74,-26.1"/>
</a>
</g>
</g>
<!-- Node16 -->
<g id="Node000016" class="node">
<title>Node16</title>
<g id="a_Node000016"><a xlink:href="_kokkos_interface_8h.html" target="_top" xlink:title=" ">
<polygon fill="white" stroke="#666666" points="873.5,-74 769.5,-74 769.5,-55 873.5,-55 873.5,-74"/>
<text text-anchor="middle" x="821.5" y="-62" font-family="Helvetica,sans-Serif" font-size="10.00">KokkosInterface.h</text>
</a>
</g>
</g>
<!-- Node1&#45;&gt;Node16 -->
<g id="edge25_Node000001_Node000016" class="edge">
<title>Node1&#45;&gt;Node16</title>
<g id="a_edge25_Node000001_Node000016"><a xlink:title=" ">
<path fill="none" stroke="#63b8ff" d="M457.7,-283.23C538.3,-281.9 710.19,-274.8 755.5,-239 804.56,-200.24 817.16,-120.58 820.39,-84.28"/>
<polygon fill="#63b8ff" stroke="#63b8ff" points="823.9,-84.35 821.15,-74.12 816.92,-83.83 823.9,-84.35"/>
</a>
</g>
</g>
<!-- Node2&#45;&gt;Node3 -->
<g id="edge2_Node000002_Node000003" class="edge">
<title>Node2&#45;&gt;Node3</title>
<g id="a_edge2_Node000002_Node000003"><a xlink:title=" ">
<path fill="none" stroke="#63b8ff" d="M173.79,-219.98C157.29,-211.57 131.8,-198.59 112.62,-188.81"/>
<polygon fill="#63b8ff" stroke="#63b8ff" points="114.01,-185.59 103.51,-184.17 110.83,-191.83 114.01,-185.59"/>
</a>
</g>
</g>
<!-- Node2&#45;&gt;Node5 -->
<g id="edge4_Node000002_Node000005" class="edge">
<title>Node2&#45;&gt;Node5</title>
<g id="a_edge4_Node000002_Node000005"><a xlink:title=" ">
<path fill="none" stroke="#63b8ff" d="M191.4,-219.66C193.18,-202.17 197.19,-162.8 199.59,-139.27"/>
<polygon fill="#63b8ff" stroke="#63b8ff" points="203.09,-139.46 200.62,-129.16 196.12,-138.75 203.09,-139.46"/>
</a>
</g>
</g>
<!-- Node4 -->
<g id="Node000004" class="node">
<title>Node4</title>
<g id="a_Node000004"><a xlink:title=" ">
<polygon fill="#e0e0e0" stroke="#999999" points="183,-19 114,-19 114,0 183,0 183,-19"/>
<text text-anchor="middle" x="148.5" y="-7" font-family="Helvetica,sans-Serif" font-size="10.00">type_traits</text>
</a>
</g>
</g>
<!-- Node3&#45;&gt;Node4 -->
<g id="edge3_Node000003_Node000004" class="edge">
<title>Node3&#45;&gt;Node4</title>
<g id="a_edge3_Node000003_Node000004"><a xlink:title=" ">
<path fill="none" stroke="#63b8ff" d="M86.17,-164.93C85.73,-144.66 86.68,-92.65 105.5,-55 111.11,-43.79 120.54,-33.55 129.14,-25.73"/>
<polygon fill="#63b8ff" stroke="#63b8ff" points="131.66,-28.18 136.98,-19.02 127.11,-22.86 131.66,-28.18"/>
</a>
</g>
</g>
<!-- Node6 -->
<g id="Node000006" class="node">
<title>Node6</title>
<g id="a_Node000006"><a xlink:href="_kokkos_framework_8h.html" target="_top" xlink:title=" ">
<polygon fill="white" stroke="#666666" points="290,-74 115,-74 115,-55 290,-55 290,-74"/>
<text text-anchor="middle" x="202.5" y="-62" font-family="Helvetica,sans-Serif" font-size="10.00">matrix_free/KokkosFramework.h</text>
</a>
</g>
</g>
<!-- Node5&#45;&gt;Node6 -->
<g id="edge5_Node000005_Node000006" class="edge">
<title>Node5&#45;&gt;Node6</title>
<g id="a_edge5_Node000005_Node000006"><a xlink:title=" ">
<path fill="none" stroke="#63b8ff" d="M201.67,-109.75C201.8,-102.8 201.98,-92.85 202.15,-84.13"/>
<polygon fill="#63b8ff" stroke="#63b8ff" points="205.65,-84.15 202.34,-74.09 198.65,-84.02 205.65,-84.15"/>
</a>
</g>
</g>
<!-- Node9 -->
<g id="Node000009" class="node">
<title>Node9</title>
<g id="a_Node000009"><a xlink:title=" ">
<polygon fill="#e0e0e0" stroke="#999999" points="450.5,-74 308.5,-74 308.5,-55 450.5,-55 450.5,-74"/>
<text text-anchor="middle" x="379.5" y="-62" font-family="Helvetica,sans-Serif" font-size="10.00">stk_mesh/base/Types.hpp</text>
</a>
</g>
</g>
<!-- Node5&#45;&gt;Node9 -->
<g id="edge9_Node000005_Node000009" class="edge">
<title>Node5&#45;&gt;Node9</title>
<g id="a_edge9_Node000005_Node000009"><a xlink:title=" ">
<path fill="none" stroke="#63b8ff" d="M230.1,-109.98C260.11,-101.05 307.48,-86.94 340.82,-77.02"/>
<polygon fill="#63b8ff" stroke="#63b8ff" points="342.09,-80.29 350.68,-74.08 340.09,-73.58 342.09,-80.29"/>
</a>
</g>
</g>
<!-- Node6&#45;&gt;Node4 -->
<g id="edge8_Node000006_Node000004" class="edge">
<title>Node6&#45;&gt;Node4</title>
<g id="a_edge8_Node000006_Node000004"><a xlink:title=" ">
<path fill="none" stroke="#63b8ff" d="M193.58,-54.75C185.72,-47.03 174.07,-35.6 164.58,-26.28"/>
<polygon fill="#63b8ff" stroke="#63b8ff" points="166.84,-23.6 157.25,-19.09 161.94,-28.59 166.84,-23.6"/>
</a>
</g>
</g>
<!-- Node7 -->
<g id="Node000007" class="node">
<title>Node7</title>
<g id="a_Node000007"><a xlink:title=" ">
<polygon fill="#e0e0e0" stroke="#999999" points="502.5,-19 402.5,-19 402.5,0 502.5,0 502.5,-19"/>
<text text-anchor="middle" x="452.5" y="-7" font-family="Helvetica,sans-Serif" font-size="10.00">Kokkos_Core.hpp</text>
</a>
</g>
</g>
<!-- Node6&#45;&gt;Node7 -->
<g id="edge6_Node000006_Node000007" class="edge">
<title>Node6&#45;&gt;Node7</title>
<g id="a_edge6_Node000006_Node000007"><a xlink:title=" ">
<path fill="none" stroke="#63b8ff" d="M242.67,-54.98C286,-45.8 355.09,-31.15 402.06,-21.19"/>
<polygon fill="#63b8ff" stroke="#63b8ff" points="402.96,-24.58 412.02,-19.08 401.51,-17.73 402.96,-24.58"/>
</a>
</g>
</g>
<!-- Node8 -->
<g id="Node000008" class="node">
<title>Node8</title>
<g id="a_Node000008"><a xlink:title=" ">
<polygon fill="#e0e0e0" stroke="#999999" points="311.5,-19 201.5,-19 201.5,0 311.5,0 311.5,-19"/>
<text text-anchor="middle" x="256.5" y="-7" font-family="Helvetica,sans-Serif" font-size="10.00">stk_simd/Simd.hpp</text>
</a>
</g>
</g>
<!-- Node6&#45;&gt;Node8 -->
<g id="edge7_Node000006_Node000008" class="edge">
<title>Node6&#45;&gt;Node8</title>
<g id="a_edge7_Node000006_Node000008"><a xlink:title=" ">
<path fill="none" stroke="#63b8ff" d="M211.42,-54.75C219.28,-47.03 230.93,-35.6 240.42,-26.28"/>
<polygon fill="#63b8ff" stroke="#63b8ff" points="243.06,-28.59 247.75,-19.09 238.16,-23.6 243.06,-28.59"/>
</a>
</g>
</g>
<!-- Node10&#45;&gt;Node11 -->
<g id="edge11_Node000010_Node000011" class="edge">
<title>Node10&#45;&gt;Node11</title>
<g id="a_edge11_Node000010_Node000011"><a xlink:title=" ">
<path fill="none" stroke="#63b8ff" d="M527.97,-219.98C506.03,-211.3 471.76,-197.75 446.81,-187.88"/>
<polygon fill="#63b8ff" stroke="#63b8ff" points="448.01,-184.59 437.42,-184.17 445.43,-191.1 448.01,-184.59"/>
</a>
</g>
</g>
<!-- Node10&#45;&gt;Node13 -->
<g id="edge21_Node000010_Node000013" class="edge">
<title>Node10&#45;&gt;Node13</title>
<g id="a_edge21_Node000010_Node000013"><a xlink:title=" ">
<path fill="none" stroke="#63b8ff" d="M569.41,-219.94C599.7,-205.79 656.77,-174.5 684.5,-129 703.41,-97.97 705.37,-54.23 704.7,-29.49"/>
<polygon fill="#63b8ff" stroke="#63b8ff" points="708.19,-29.13 704.24,-19.3 701.2,-29.44 708.19,-29.13"/>
</a>
</g>
</g>
<!-- Node15 -->
<g id="Node000015" class="node">
<title>Node15</title>
<g id="a_Node000015"><a xlink:href="_tensor_operations_8h.html" target="_top" xlink:title=" ">
<polygon fill="white" stroke="#666666" points="675.5,-129 505.5,-129 505.5,-110 675.5,-110 675.5,-129"/>
<text text-anchor="middle" x="590.5" y="-117" font-family="Helvetica,sans-Serif" font-size="10.00">matrix_free/TensorOperations.h</text>
</a>
</g>
</g>
<!-- Node10&#45;&gt;Node15 -->
<g id="edge18_Node000010_Node000015" class="edge">
<title>Node10&#45;&gt;Node15</title>
<g id="a_edge18_Node000010_Node000015"><a xlink:title=" ">
<path fill="none" stroke="#63b8ff" d="M552.86,-219.66C559.56,-202.01 574.71,-162.09 583.62,-138.64"/>
<polygon fill="#63b8ff" stroke="#63b8ff" points="586.94,-139.75 587.21,-129.16 580.39,-137.27 586.94,-139.75"/>
</a>
</g>
</g>
<!-- Node11&#45;&gt;Node5 -->
<g id="edge17_Node000011_Node000005" class="edge">
<title>Node11&#45;&gt;Node5</title>
<g id="a_edge17_Node000011_Node000005"><a xlink:title=" ">
<path fill="none" stroke="#63b8ff" d="M381.12,-164.98C344.41,-155.89 286.12,-141.46 245.95,-131.51"/>
<polygon fill="#63b8ff" stroke="#63b8ff" points="246.7,-128.09 236.15,-129.08 245.02,-134.88 246.7,-128.09"/>
</a>
</g>
</g>
<!-- Node12 -->
<g id="Node000012" class="node">
<title>Node12</title>
<g id="a_Node000012"><a xlink:href="_array_n_d_8h.html" target="_top" xlink:title=" ">
<polygon fill="white" stroke="#666666" points="536,-74 469,-74 469,-55 536,-55 536,-74"/>
<text text-anchor="middle" x="502.5" y="-62" font-family="Helvetica,sans-Serif" font-size="10.00">ArrayND.h</text>
</a>
</g>
</g>
<!-- Node11&#45;&gt;Node12 -->
<g id="edge12_Node000011_Node000012" class="edge">
<title>Node11&#45;&gt;Node12</title>
<g id="a_edge12_Node000011_Node000012"><a xlink:title=" ">
<path fill="none" stroke="#63b8ff" d="M387.95,-164.97C357.77,-154.18 315.97,-134.07 334.5,-110 342.19,-100 411.52,-84.08 458.68,-74.24"/>
<polygon fill="#63b8ff" stroke="#63b8ff" points="459.59,-77.62 468.67,-72.17 458.17,-70.77 459.59,-77.62"/>
</a>
</g>
</g>
<!-- Node14 -->
<g id="Node000014" class="node">
<title>Node14</title>
<g id="a_Node000014"><a xlink:href="_coefficients_8h.html" target="_top" xlink:title=" ">
<polygon fill="white" stroke="#666666" points="487,-129 344,-129 344,-110 487,-110 487,-129"/>
<text text-anchor="middle" x="415.5" y="-117" font-family="Helvetica,sans-Serif" font-size="10.00">matrix_free/Coefficients.h</text>
</a>
</g>
</g>
<!-- Node11&#45;&gt;Node14 -->
<g id="edge15_Node000011_Node000014" class="edge">
<title>Node11&#45;&gt;Node14</title>
<g id="a_edge15_Node000011_Node000014"><a xlink:title=" ">
<path fill="none" stroke="#63b8ff" d="M415.5,-164.75C415.5,-157.8 415.5,-147.85 415.5,-139.13"/>
<polygon fill="#63b8ff" stroke="#63b8ff" points="419,-139.09 415.5,-129.09 412,-139.09 419,-139.09"/>
</a>
</g>
</g>
<!-- Node12&#45;&gt;Node4 -->
<g id="edge14_Node000012_Node000004" class="edge">
<title>Node12&#45;&gt;Node4</title>
<g id="a_edge14_Node000012_Node000004"><a xlink:title=" ">
<path fill="none" stroke="#63b8ff" d="M468.73,-56.62C465.62,-56.05 462.5,-55.5 459.5,-55 344.49,-35.9 312.34,-38.22 192.95,-18.98"/>
<polygon fill="#63b8ff" stroke="#63b8ff" points="193.49,-15.52 183.05,-17.37 192.36,-22.43 193.49,-15.52"/>
</a>
</g>
</g>
<!-- Node12&#45;&gt;Node13 -->
<g id="edge13_Node000012_Node000013" class="edge">
<title>Node12&#45;&gt;Node13</title>
<g id="a_edge13_Node000012_Node000013"><a xlink:title=" ">
<path fill="none" stroke="#63b8ff" d="M534.79,-54.98C569.12,-45.93 623.56,-31.58 661.27,-21.64"/>
<polygon fill="#63b8ff" stroke="#63b8ff" points="662.18,-25.02 670.95,-19.08 660.39,-18.25 662.18,-25.02"/>
</a>
</g>
</g>
<!-- Node14&#45;&gt;Node12 -->
<g id="edge16_Node000014_Node000012" class="edge">
<title>Node14&#45;&gt;Node12</title>
<g id="a_edge16_Node000014_Node000012"><a xlink:title=" ">
<path fill="none" stroke="#63b8ff" d="M429.48,-109.98C442.97,-101.77 463.63,-89.18 479.54,-79.49"/>
<polygon fill="#63b8ff" stroke="#63b8ff" points="481.55,-82.36 488.27,-74.17 477.91,-76.38 481.55,-82.36"/>
</a>
</g>
</g>
<!-- Node15&#45;&gt;Node12 -->
<g id="edge19_Node000015_Node000012" class="edge">
<title>Node15&#45;&gt;Node12</title>
<g id="a_edge19_Node000015_Node000012"><a xlink:title=" ">
<path fill="none" stroke="#63b8ff" d="M576.36,-109.98C562.71,-101.77 541.81,-89.18 525.72,-79.49"/>
<polygon fill="#63b8ff" stroke="#63b8ff" points="527.27,-76.33 516.9,-74.17 523.66,-82.33 527.27,-76.33"/>
</a>
</g>
</g>
<!-- Node15&#45;&gt;Node13 -->
<g id="edge20_Node000015_Node000013" class="edge">
<title>Node15&#45;&gt;Node13</title>
<g id="a_edge20_Node000015_Node000013"><a xlink:title=" ">
<path fill="none" stroke="#63b8ff" d="M599.75,-109.66C618.88,-91.38 663.03,-49.18 687.11,-26.17"/>
<polygon fill="#63b8ff" stroke="#63b8ff" points="689.63,-28.6 694.44,-19.16 684.79,-23.54 689.63,-28.6"/>
</a>
</g>
</g>
<!-- Node16&#45;&gt;Node7 -->
<g id="edge29_Node000016_Node000007" class="edge">
<title>Node16&#45;&gt;Node7</title>
<g id="a_edge29_Node000016_Node000007"><a xlink:title=" ">
<path fill="none" stroke="#63b8ff" d="M769.41,-56.02C701.82,-46.31 584.1,-29.4 512.73,-19.15"/>
<polygon fill="#63b8ff" stroke="#63b8ff" points="512.94,-15.65 502.55,-17.69 511.95,-22.57 512.94,-15.65"/>
</a>
</g>
</g>
<!-- Node16&#45;&gt;Node13 -->
<g id="edge28_Node000016_Node000013" class="edge">
<title>Node16&#45;&gt;Node13</title>
<g id="a_edge28_Node000016_Node000013"><a xlink:title=" ">
<path fill="none" stroke="#63b8ff" d="M802.54,-54.98C783.47,-46.42 753.84,-33.11 731.95,-23.28"/>
<polygon fill="#63b8ff" stroke="#63b8ff" points="733.36,-20.07 722.8,-19.17 730.49,-26.46 733.36,-20.07"/>
</a>
</g>
</g>
<!-- Node17 -->
<g id="Node000017" class="node">
<title>Node17</title>
<g id="a_Node000017"><a xlink:title=" ">
<polygon fill="#e0e0e0" stroke="#999999" points="839,-19 786,-19 786,0 839,0 839,-19"/>
<text text-anchor="middle" x="812.5" y="-7" font-family="Helvetica,sans-Serif" font-size="10.00">cstddef</text>
</a>
</g>
</g>
<!-- Node16&#45;&gt;Node17 -->
<g id="edge26_Node000016_Node000017" class="edge">
<title>Node16&#45;&gt;Node17</title>
<g id="a_edge26_Node000016_Node000017"><a xlink:title=" ">
<path fill="none" stroke="#63b8ff" d="M820.01,-54.75C818.83,-47.8 817.14,-37.85 815.66,-29.13"/>
<polygon fill="#63b8ff" stroke="#63b8ff" points="819.08,-28.36 813.96,-19.09 812.18,-29.53 819.08,-28.36"/>
</a>
</g>
</g>
<!-- Node18 -->
<g id="Node000018" class="node">
<title>Node18</title>
<g id="a_Node000018"><a xlink:title=" ">
<polygon fill="#e0e0e0" stroke="#999999" points="998,-19 857,-19 857,0 998,0 998,-19"/>
<text text-anchor="middle" x="927.5" y="-7" font-family="Helvetica,sans-Serif" font-size="10.00">stk_mesh/base/Entity.hpp</text>
</a>
</g>
</g>
<!-- Node16&#45;&gt;Node18 -->
<g id="edge27_Node000016_Node000018" class="edge">
<title>Node16&#45;&gt;Node18</title>
<g id="a_edge27_Node000016_Node000018"><a xlink:title=" ">
<path fill="none" stroke="#63b8ff" d="M838.53,-54.98C855.43,-46.54 881.56,-33.47 901.14,-23.68"/>
<polygon fill="#63b8ff" stroke="#63b8ff" points="902.78,-26.77 910.16,-19.17 899.65,-20.51 902.78,-26.77"/>
</a>
</g>
</g>
</g>
</svg>
