<?xml version="1.0" encoding="UTF-8" standalone="no"?>
<!DOCTYPE svg PUBLIC "-//W3C//DTD SVG 1.1//EN"
 "http://www.w3.org/Graphics/SVG/1.1/DTD/svg11.dtd">
<!-- Generated by graphviz version 2.43.0 (0)
 -->
<!-- Title: LinearSolverConfig.h Pages: 1 -->
<svg width="2561pt" height="324pt"
 viewBox="0.00 0.00 2561.00 324.00" xmlns="http://www.w3.org/2000/svg" xmlns:xlink="http://www.w3.org/1999/xlink">
<g id="graph0" class="graph" transform="scale(1 1) rotate(0) translate(4 320)">
<title>LinearSolverConfig.h</title>
<!-- Node1 -->
<g id="Node000001" class="node">
<title>Node1</title>
<g id="a_Node000001"><a xlink:title=" ">
<polygon fill="#999999" stroke="#666666" points="1165.5,-316 1048.5,-316 1048.5,-297 1165.5,-297 1165.5,-316"/>
<text text-anchor="middle" x="1107" y="-304" font-family="Helvetica,sans-Serif" font-size="10.00">LinearSolverConfig.h</text>
</a>
</g>
</g>
<!-- Node2 -->
<g id="Node000002" class="node">
<title>Node2</title>
<g id="a_Node000002"><a xlink:href="_linear_solver_8h.html" target="_top" xlink:title=" ">
<polygon fill="white" stroke="#666666" points="1090,-255.5 1004,-255.5 1004,-236.5 1090,-236.5 1090,-255.5"/>
<text text-anchor="middle" x="1047" y="-243.5" font-family="Helvetica,sans-Serif" font-size="10.00">LinearSolver.h</text>
</a>
</g>
</g>
<!-- Node1&#45;&gt;Node2 -->
<g id="edge1_Node000001_Node000002" class="edge">
<title>Node1&#45;&gt;Node2</title>
<g id="a_edge1_Node000001_Node000002"><a xlink:title=" ">
<path fill="none" stroke="#63b8ff" d="M1090.68,-289.59C1079.48,-278.67 1065.03,-264.58 1055.89,-255.67"/>
<polygon fill="#63b8ff" stroke="#63b8ff" points="1088.54,-292.39 1098.15,-296.87 1093.43,-287.38 1088.54,-292.39"/>
</a>
</g>
</g>
<!-- Node13 -->
<g id="Node000013" class="node">
<title>Node13</title>
<g id="a_Node000013"><a xlink:href="_linear_solvers_8_c.html" target="_top" xlink:title=" ">
<polygon fill="white" stroke="#666666" points="92,-189.5 0,-189.5 0,-170.5 92,-170.5 92,-189.5"/>
<text text-anchor="middle" x="46" y="-177.5" font-family="Helvetica,sans-Serif" font-size="10.00">LinearSolvers.C</text>
</a>
</g>
</g>
<!-- Node1&#45;&gt;Node13 -->
<g id="edge26_Node000001_Node000013" class="edge">
<title>Node1&#45;&gt;Node13</title>
<g id="a_edge26_Node000001_Node000013"><a xlink:title=" ">
<path fill="none" stroke="#63b8ff" d="M1038.07,-301.27C874.44,-290.49 450.13,-258.29 101,-195 92.95,-193.54 84.34,-191.56 76.38,-189.54"/>
<polygon fill="#63b8ff" stroke="#63b8ff" points="1038.26,-304.79 1048.47,-301.94 1038.72,-297.8 1038.26,-304.79"/>
</a>
</g>
</g>
<!-- Node25 -->
<g id="Node000025" class="node">
<title>Node25</title>
<g id="a_Node000025"><a xlink:href="_linear_solver_config_8_c.html" target="_top" xlink:title=" ">
<polygon fill="white" stroke="#666666" points="1226,-255.5 1108,-255.5 1108,-236.5 1226,-236.5 1226,-255.5"/>
<text text-anchor="middle" x="1167" y="-243.5" font-family="Helvetica,sans-Serif" font-size="10.00">LinearSolverConfig.C</text>
</a>
</g>
</g>
<!-- Node1&#45;&gt;Node25 -->
<g id="edge25_Node000001_Node000025" class="edge">
<title>Node1&#45;&gt;Node25</title>
<g id="a_edge25_Node000001_Node000025"><a xlink:title=" ">
<path fill="none" stroke="#63b8ff" d="M1123.32,-289.59C1134.52,-278.67 1148.97,-264.58 1158.11,-255.67"/>
<polygon fill="#63b8ff" stroke="#63b8ff" points="1120.57,-287.38 1115.85,-296.87 1125.46,-292.39 1120.57,-287.38"/>
</a>
</g>
</g>
<!-- Node26 -->
<g id="Node000026" class="node">
<title>Node26</title>
<g id="a_Node000026"><a xlink:href="_matrix_free_low_mach_equation_system_8_c.html" target="_top" xlink:title=" ">
<polygon fill="white" stroke="#666666" points="1402,-261 1244,-261 1244,-231 1402,-231 1402,-261"/>
<text text-anchor="start" x="1252" y="-249" font-family="Helvetica,sans-Serif" font-size="10.00">MatrixFreeLowMachEquation</text>
<text text-anchor="middle" x="1323" y="-238" font-family="Helvetica,sans-Serif" font-size="10.00">System.C</text>
</a>
</g>
</g>
<!-- Node1&#45;&gt;Node26 -->
<g id="edge27_Node000001_Node000026" class="edge">
<title>Node1&#45;&gt;Node26</title>
<g id="a_edge27_Node000001_Node000026"><a xlink:title=" ">
<path fill="none" stroke="#63b8ff" d="M1148.28,-294.32C1183.2,-284.86 1233.42,-271.26 1271.07,-261.06"/>
<polygon fill="#63b8ff" stroke="#63b8ff" points="1147.15,-291 1138.41,-296.99 1148.98,-297.76 1147.15,-291"/>
</a>
</g>
</g>
<!-- Node3 -->
<g id="Node000003" class="node">
<title>Node3</title>
<g id="a_Node000003"><a xlink:href="_enthalpy_equation_system_8_c.html" target="_top" xlink:title=" ">
<polygon fill="white" stroke="#666666" points="259.5,-189.5 110.5,-189.5 110.5,-170.5 259.5,-170.5 259.5,-189.5"/>
<text text-anchor="middle" x="185" y="-177.5" font-family="Helvetica,sans-Serif" font-size="10.00">EnthalpyEquationSystem.C</text>
</a>
</g>
</g>
<!-- Node2&#45;&gt;Node3 -->
<g id="edge2_Node000002_Node000003" class="edge">
<title>Node2&#45;&gt;Node3</title>
<g id="a_edge2_Node000002_Node000003"><a xlink:title=" ">
<path fill="none" stroke="#63b8ff" d="M993.61,-243.47C867.18,-239.43 539.69,-226.55 268,-195 255.81,-193.58 242.68,-191.59 230.54,-189.55"/>
<polygon fill="#63b8ff" stroke="#63b8ff" points="993.69,-246.97 1003.79,-243.79 993.91,-239.98 993.69,-246.97"/>
</a>
</g>
</g>
<!-- Node4 -->
<g id="Node000004" class="node">
<title>Node4</title>
<g id="a_Node000004"><a xlink:href="_gamma_equation_system_8_c.html" target="_top" xlink:title=" ">
<polygon fill="white" stroke="#666666" points="422.5,-189.5 277.5,-189.5 277.5,-170.5 422.5,-170.5 422.5,-189.5"/>
<text text-anchor="middle" x="350" y="-177.5" font-family="Helvetica,sans-Serif" font-size="10.00">GammaEquationSystem.C</text>
</a>
</g>
</g>
<!-- Node2&#45;&gt;Node4 -->
<g id="edge3_Node000002_Node000004" class="edge">
<title>Node2&#45;&gt;Node4</title>
<g id="a_edge3_Node000002_Node000004"><a xlink:title=" ">
<path fill="none" stroke="#63b8ff" d="M993.8,-242.26C887,-236.4 639.01,-221.03 432,-195 420.25,-193.52 407.61,-191.55 395.87,-189.56"/>
<polygon fill="#63b8ff" stroke="#63b8ff" points="993.82,-245.76 1003.99,-242.81 994.2,-238.77 993.82,-245.76"/>
</a>
</g>
</g>
<!-- Node5 -->
<g id="Node000005" class="node">
<title>Node5</title>
<g id="a_Node000005"><a xlink:href="_hypre_direct_solver_8h.html" target="_top" xlink:title=" ">
<polygon fill="white" stroke="#666666" points="555,-189.5 441,-189.5 441,-170.5 555,-170.5 555,-189.5"/>
<text text-anchor="middle" x="498" y="-177.5" font-family="Helvetica,sans-Serif" font-size="10.00">HypreDirectSolver.h</text>
</a>
</g>
</g>
<!-- Node2&#45;&gt;Node5 -->
<g id="edge4_Node000002_Node000005" class="edge">
<title>Node2&#45;&gt;Node5</title>
<g id="a_edge4_Node000002_Node000005"><a xlink:title=" ">
<path fill="none" stroke="#63b8ff" d="M993.69,-241.34C904.42,-234.79 719.2,-219.42 564,-195 554.51,-193.51 544.33,-191.53 534.87,-189.54"/>
<polygon fill="#63b8ff" stroke="#63b8ff" points="993.61,-244.84 1003.83,-242.07 994.11,-237.86 993.61,-244.84"/>
</a>
</g>
</g>
<!-- Node12 -->
<g id="Node000012" class="node">
<title>Node12</title>
<g id="a_Node000012"><a xlink:href="_linear_solver_8_c.html" target="_top" xlink:title=" ">
<polygon fill="white" stroke="#666666" points="659,-189.5 573,-189.5 573,-170.5 659,-170.5 659,-189.5"/>
<text text-anchor="middle" x="616" y="-177.5" font-family="Helvetica,sans-Serif" font-size="10.00">LinearSolver.C</text>
</a>
</g>
</g>
<!-- Node2&#45;&gt;Node12 -->
<g id="edge12_Node000002_Node000012" class="edge">
<title>Node2&#45;&gt;Node12</title>
<g id="a_edge12_Node000002_Node000012"><a xlink:title=" ">
<path fill="none" stroke="#63b8ff" d="M993.53,-240.08C919.98,-232.83 783.67,-217.63 669,-195 661.34,-193.49 653.15,-191.51 645.56,-189.52"/>
<polygon fill="#63b8ff" stroke="#63b8ff" points="993.62,-243.61 1003.91,-241.1 994.3,-236.64 993.62,-243.61"/>
</a>
</g>
</g>
<!-- Node2&#45;&gt;Node13 -->
<g id="edge13_Node000002_Node000013" class="edge">
<title>Node2&#45;&gt;Node13</title>
<g id="a_edge13_Node000002_Node000013"><a xlink:title=" ">
<path fill="none" stroke="#63b8ff" d="M993.62,-243.56C820.41,-238.67 275.18,-221.51 101,-195 92.53,-193.71 83.46,-191.68 75.18,-189.56"/>
<polygon fill="#63b8ff" stroke="#63b8ff" points="993.67,-247.06 1003.76,-243.84 993.86,-240.06 993.67,-247.06"/>
</a>
</g>
</g>
<!-- Node14 -->
<g id="Node000014" class="node">
<title>Node14</title>
<g id="a_Node000014"><a xlink:href="_linear_system_8_c.html" target="_top" xlink:title=" ">
<polygon fill="white" stroke="#666666" points="770.5,-189.5 677.5,-189.5 677.5,-170.5 770.5,-170.5 770.5,-189.5"/>
<text text-anchor="middle" x="724" y="-177.5" font-family="Helvetica,sans-Serif" font-size="10.00">LinearSystem.C</text>
</a>
</g>
</g>
<!-- Node2&#45;&gt;Node14 -->
<g id="edge14_Node000002_Node000014" class="edge">
<title>Node2&#45;&gt;Node14</title>
<g id="a_edge14_Node000002_Node000014"><a xlink:title=" ">
<path fill="none" stroke="#63b8ff" d="M993.8,-236C939.77,-226.64 853.8,-211.12 780,-195 772.46,-193.35 764.39,-191.43 756.79,-189.55"/>
<polygon fill="#63b8ff" stroke="#63b8ff" points="993.38,-239.48 1003.83,-237.74 994.57,-232.59 993.38,-239.48"/>
</a>
</g>
</g>
<!-- Node15 -->
<g id="Node000015" class="node">
<title>Node15</title>
<g id="a_Node000015"><a xlink:href="_low_mach_equation_system_8_c.html" target="_top" xlink:title=" ">
<polygon fill="white" stroke="#666666" points="941,-189.5 789,-189.5 789,-170.5 941,-170.5 941,-189.5"/>
<text text-anchor="middle" x="865" y="-177.5" font-family="Helvetica,sans-Serif" font-size="10.00">LowMachEquationSystem.C</text>
</a>
</g>
</g>
<!-- Node2&#45;&gt;Node15 -->
<g id="edge15_Node000002_Node000015" class="edge">
<title>Node2&#45;&gt;Node15</title>
<g id="a_edge15_Node000002_Node000015"><a xlink:title=" ">
<path fill="none" stroke="#63b8ff" d="M1012.88,-233C976.94,-220.36 921.24,-200.78 889.45,-189.6"/>
<polygon fill="#63b8ff" stroke="#63b8ff" points="1011.86,-236.35 1022.45,-236.37 1014.18,-229.75 1011.86,-236.35"/>
</a>
</g>
</g>
<!-- Node16 -->
<g id="Node000016" class="node">
<title>Node16</title>
<g id="a_Node000016"><a xlink:href="_projected_nodal_gradient_equation_system_8_c.html" target="_top" xlink:title=" ">
<polygon fill="white" stroke="#666666" points="1135,-195 959,-195 959,-165 1135,-165 1135,-195"/>
<text text-anchor="start" x="967" y="-183" font-family="Helvetica,sans-Serif" font-size="10.00">ProjectedNodalGradientEquation</text>
<text text-anchor="middle" x="1047" y="-172" font-family="Helvetica,sans-Serif" font-size="10.00">System.C</text>
</a>
</g>
</g>
<!-- Node2&#45;&gt;Node16 -->
<g id="edge16_Node000002_Node000016" class="edge">
<title>Node2&#45;&gt;Node16</title>
<g id="a_edge16_Node000002_Node000016"><a xlink:title=" ">
<path fill="none" stroke="#63b8ff" d="M1047,-226.35C1047,-216.47 1047,-204.51 1047,-195.36"/>
<polygon fill="#63b8ff" stroke="#63b8ff" points="1043.5,-226.37 1047,-236.37 1050.5,-226.37 1043.5,-226.37"/>
</a>
</g>
</g>
<!-- Node17 -->
<g id="Node000017" class="node">
<title>Node17</title>
<g id="a_Node000017"><a xlink:href="_specific_dissipation_rate_equation_system_8_c.html" target="_top" xlink:title=" ">
<polygon fill="white" stroke="#666666" points="1327,-195 1153,-195 1153,-165 1327,-165 1327,-195"/>
<text text-anchor="start" x="1161" y="-183" font-family="Helvetica,sans-Serif" font-size="10.00">SpecificDissipationRateEquation</text>
<text text-anchor="middle" x="1240" y="-172" font-family="Helvetica,sans-Serif" font-size="10.00">System.C</text>
</a>
</g>
</g>
<!-- Node2&#45;&gt;Node17 -->
<g id="edge17_Node000002_Node000017" class="edge">
<title>Node2&#45;&gt;Node17</title>
<g id="a_edge17_Node000002_Node000017"><a xlink:title=" ">
<path fill="none" stroke="#63b8ff" d="M1082.56,-233.21C1115,-222.45 1162.97,-206.54 1197.43,-195.12"/>
<polygon fill="#63b8ff" stroke="#63b8ff" points="1081.42,-229.9 1073.03,-236.37 1083.62,-236.54 1081.42,-229.9"/>
</a>
</g>
</g>
<!-- Node18 -->
<g id="Node000018" class="node">
<title>Node18</title>
<g id="a_Node000018"><a xlink:href="_total_dissipation_rate_equation_system_8_c.html" target="_top" xlink:title=" ">
<polygon fill="white" stroke="#666666" points="1505,-195 1345,-195 1345,-165 1505,-165 1505,-195"/>
<text text-anchor="start" x="1353" y="-183" font-family="Helvetica,sans-Serif" font-size="10.00">TotalDissipationRateEquation</text>
<text text-anchor="middle" x="1425" y="-172" font-family="Helvetica,sans-Serif" font-size="10.00">System.C</text>
</a>
</g>
</g>
<!-- Node2&#45;&gt;Node18 -->
<g id="edge18_Node000002_Node000018" class="edge">
<title>Node2&#45;&gt;Node18</title>
<g id="a_edge18_Node000002_Node000018"><a xlink:title=" ">
<path fill="none" stroke="#63b8ff" d="M1086.19,-233.95C1090.5,-232.88 1094.83,-231.87 1099,-231 1203.27,-209.12 1230.71,-211.28 1336,-195 1338.94,-194.55 1341.93,-194.08 1344.95,-193.61"/>
<polygon fill="#63b8ff" stroke="#63b8ff" points="1085.1,-230.61 1076.29,-236.5 1086.84,-237.39 1085.1,-230.61"/>
</a>
</g>
</g>
<!-- Node19 -->
<g id="Node000019" class="node">
<title>Node19</title>
<g id="a_Node000019"><a xlink:href="_tpetra_linear_system_8_c.html" target="_top" xlink:title=" ">
<polygon fill="white" stroke="#666666" points="1648.5,-189.5 1523.5,-189.5 1523.5,-170.5 1648.5,-170.5 1648.5,-189.5"/>
<text text-anchor="middle" x="1586" y="-177.5" font-family="Helvetica,sans-Serif" font-size="10.00">TpetraLinearSystem.C</text>
</a>
</g>
</g>
<!-- Node2&#45;&gt;Node19 -->
<g id="edge19_Node000002_Node000019" class="edge">
<title>Node2&#45;&gt;Node19</title>
<g id="a_edge19_Node000002_Node000019"><a xlink:title=" ">
<path fill="none" stroke="#63b8ff" d="M1085.13,-233.91C1089.77,-232.81 1094.48,-231.8 1099,-231 1281.32,-198.81 1330.66,-220.7 1514,-195 1524.47,-193.53 1535.72,-191.55 1546.14,-189.53"/>
<polygon fill="#63b8ff" stroke="#63b8ff" points="1083.96,-230.6 1075.13,-236.45 1085.69,-237.38 1083.96,-230.6"/>
</a>
</g>
</g>
<!-- Node20 -->
<g id="Node000020" class="node">
<title>Node20</title>
<g id="a_Node000020"><a xlink:href="_tpetra_linear_system_helpers_8_c.html" target="_top" xlink:title=" ">
<polygon fill="white" stroke="#666666" points="1829,-189.5 1667,-189.5 1667,-170.5 1829,-170.5 1829,-189.5"/>
<text text-anchor="middle" x="1748" y="-177.5" font-family="Helvetica,sans-Serif" font-size="10.00">TpetraLinearSystemHelpers.C</text>
</a>
</g>
</g>
<!-- Node2&#45;&gt;Node20 -->
<g id="edge20_Node000002_Node000020" class="edge">
<title>Node2&#45;&gt;Node20</title>
<g id="a_edge20_Node000002_Node000020"><a xlink:title=" ">
<path fill="none" stroke="#63b8ff" d="M1084.39,-233.98C1089.28,-232.83 1094.24,-231.79 1099,-231 1344.63,-190.44 1410.53,-222.16 1658,-195 1671.2,-193.55 1685.43,-191.55 1698.59,-189.5"/>
<polygon fill="#63b8ff" stroke="#63b8ff" points="1083.4,-230.63 1074.57,-236.48 1085.13,-237.41 1083.4,-230.63"/>
</a>
</g>
</g>
<!-- Node21 -->
<g id="Node000021" class="node">
<title>Node21</title>
<g id="a_Node000021"><a xlink:href="_tpetra_segregated_linear_system_8_c.html" target="_top" xlink:title=" ">
<polygon fill="white" stroke="#666666" points="2027,-189.5 1847,-189.5 1847,-170.5 2027,-170.5 2027,-189.5"/>
<text text-anchor="middle" x="1937" y="-177.5" font-family="Helvetica,sans-Serif" font-size="10.00">TpetraSegregatedLinearSystem.C</text>
</a>
</g>
</g>
<!-- Node2&#45;&gt;Node21 -->
<g id="edge21_Node000002_Node000021" class="edge">
<title>Node2&#45;&gt;Node21</title>
<g id="a_edge21_Node000002_Node000021"><a xlink:title=" ">
<path fill="none" stroke="#63b8ff" d="M1084.21,-233.95C1089.15,-232.79 1094.17,-231.76 1099,-231 1423.85,-179.96 1510.64,-226.05 1838,-195 1852.69,-193.61 1868.54,-191.6 1883.16,-189.53"/>
<polygon fill="#63b8ff" stroke="#63b8ff" points="1083.12,-230.62 1074.29,-236.48 1084.84,-237.4 1083.12,-230.62"/>
</a>
</g>
</g>
<!-- Node22 -->
<g id="Node000022" class="node">
<title>Node22</title>
<g id="a_Node000022"><a xlink:href="_turb_kinetic_energy_equation_system_8_c.html" target="_top" xlink:title=" ">
<polygon fill="white" stroke="#666666" points="2192.5,-195 2045.5,-195 2045.5,-165 2192.5,-165 2192.5,-195"/>
<text text-anchor="start" x="2053.5" y="-183" font-family="Helvetica,sans-Serif" font-size="10.00">TurbKineticEnergyEquation</text>
<text text-anchor="middle" x="2119" y="-172" font-family="Helvetica,sans-Serif" font-size="10.00">System.C</text>
</a>
</g>
</g>
<!-- Node2&#45;&gt;Node22 -->
<g id="edge22_Node000002_Node000022" class="edge">
<title>Node2&#45;&gt;Node22</title>
<g id="a_edge22_Node000002_Node000022"><a xlink:title=" ">
<path fill="none" stroke="#63b8ff" d="M1084.04,-233.94C1089.03,-232.77 1094.12,-231.74 1099,-231 1511.03,-168.43 1621.45,-237.75 2036,-195 2039.05,-194.69 2042.16,-194.33 2045.3,-193.94"/>
<polygon fill="#63b8ff" stroke="#63b8ff" points="1082.84,-230.64 1074.01,-236.49 1084.57,-237.42 1082.84,-230.64"/>
</a>
</g>
</g>
<!-- Node23 -->
<g id="Node000023" class="node">
<title>Node23</title>
<g id="a_Node000023"><a xlink:href="_volume_of_fluid_equation_system_8_c.html" target="_top" xlink:title=" ">
<polygon fill="white" stroke="#666666" points="2389,-189.5 2211,-189.5 2211,-170.5 2389,-170.5 2389,-189.5"/>
<text text-anchor="middle" x="2300" y="-177.5" font-family="Helvetica,sans-Serif" font-size="10.00">VolumeOfFluidEquationSystem.C</text>
</a>
</g>
</g>
<!-- Node2&#45;&gt;Node23 -->
<g id="edge23_Node000002_Node000023" class="edge">
<title>Node2&#45;&gt;Node23</title>
<g id="a_edge23_Node000002_Node000023"><a xlink:title=" ">
<path fill="none" stroke="#63b8ff" d="M1084.04,-233.92C1089.03,-232.75 1094.11,-231.73 1099,-231 1584.13,-158.77 1713.38,-237.75 2202,-195 2216.98,-193.69 2233.17,-191.64 2247.99,-189.51"/>
<polygon fill="#63b8ff" stroke="#63b8ff" points="1082.84,-230.61 1074.01,-236.46 1084.56,-237.4 1082.84,-230.61"/>
</a>
</g>
</g>
<!-- Node24 -->
<g id="Node000024" class="node">
<title>Node24</title>
<g id="a_Node000024"><a xlink:href="_wall_dist_equation_system_8_c.html" target="_top" xlink:title=" ">
<polygon fill="white" stroke="#666666" points="2553,-189.5 2407,-189.5 2407,-170.5 2553,-170.5 2553,-189.5"/>
<text text-anchor="middle" x="2480" y="-177.5" font-family="Helvetica,sans-Serif" font-size="10.00">WallDistEquationSystem.C</text>
</a>
</g>
</g>
<!-- Node2&#45;&gt;Node24 -->
<g id="edge24_Node000002_Node000024" class="edge">
<title>Node2&#45;&gt;Node24</title>
<g id="a_edge24_Node000002_Node000024"><a xlink:title=" ">
<path fill="none" stroke="#63b8ff" d="M1084.03,-233.9C1089.03,-232.73 1094.11,-231.72 1099,-231 1670.46,-147.35 1823.24,-251.74 2398,-195 2410.65,-193.75 2424.29,-191.71 2436.75,-189.56"/>
<polygon fill="#63b8ff" stroke="#63b8ff" points="1082.84,-230.59 1074,-236.44 1084.56,-237.37 1082.84,-230.59"/>
</a>
</g>
</g>
<!-- Node6 -->
<g id="Node000006" class="node">
<title>Node6</title>
<g id="a_Node000006"><a xlink:href="_hypre_linear_system_8h.html" target="_top" xlink:title=" ">
<polygon fill="white" stroke="#666666" points="492,-129 370,-129 370,-110 492,-110 492,-129"/>
<text text-anchor="middle" x="431" y="-117" font-family="Helvetica,sans-Serif" font-size="10.00">HypreLinearSystem.h</text>
</a>
</g>
</g>
<!-- Node5&#45;&gt;Node6 -->
<g id="edge5_Node000005_Node000006" class="edge">
<title>Node5&#45;&gt;Node6</title>
<g id="a_edge5_Node000005_Node000006"><a xlink:title=" ">
<path fill="none" stroke="#63b8ff" d="M480.5,-163.72C467.9,-152.71 451.33,-138.25 440.93,-129.17"/>
<polygon fill="#63b8ff" stroke="#63b8ff" points="478.28,-166.43 488.11,-170.37 482.88,-161.15 478.28,-166.43"/>
</a>
</g>
</g>
<!-- Node10 -->
<g id="Node000010" class="node">
<title>Node10</title>
<g id="a_Node000010"><a xlink:href="_hypre_u_v_w_solver_8h.html" target="_top" xlink:title=" ">
<polygon fill="white" stroke="#666666" points="619.5,-129 510.5,-129 510.5,-110 619.5,-110 619.5,-129"/>
<text text-anchor="middle" x="565" y="-117" font-family="Helvetica,sans-Serif" font-size="10.00">HypreUVWSolver.h</text>
</a>
</g>
</g>
<!-- Node5&#45;&gt;Node10 -->
<g id="edge9_Node000005_Node000010" class="edge">
<title>Node5&#45;&gt;Node10</title>
<g id="a_edge9_Node000005_Node000010"><a xlink:title=" ">
<path fill="none" stroke="#63b8ff" d="M515.5,-163.72C528.1,-152.71 544.67,-138.25 555.07,-129.17"/>
<polygon fill="#63b8ff" stroke="#63b8ff" points="513.12,-161.15 507.89,-170.37 517.72,-166.43 513.12,-161.15"/>
</a>
</g>
</g>
<!-- Node7 -->
<g id="Node000007" class="node">
<title>Node7</title>
<g id="a_Node000007"><a xlink:href="_hypre_linear_system_8_c.html" target="_top" xlink:title=" ">
<polygon fill="white" stroke="#666666" points="407,-74 285,-74 285,-55 407,-55 407,-74"/>
<text text-anchor="middle" x="346" y="-62" font-family="Helvetica,sans-Serif" font-size="10.00">HypreLinearSystem.C</text>
</a>
</g>
</g>
<!-- Node6&#45;&gt;Node7 -->
<g id="edge6_Node000006_Node000007" class="edge">
<title>Node6&#45;&gt;Node7</title>
<g id="a_edge6_Node000006_Node000007"><a xlink:title=" ">
<path fill="none" stroke="#63b8ff" d="M408.43,-104.42C393,-94.81 373.05,-82.37 359.91,-74.17"/>
<polygon fill="#63b8ff" stroke="#63b8ff" points="407.01,-107.66 417.34,-109.98 410.71,-101.72 407.01,-107.66"/>
</a>
</g>
</g>
<!-- Node8 -->
<g id="Node000008" class="node">
<title>Node8</title>
<g id="a_Node000008"><a xlink:href="_hypre_u_v_w_linear_system_8h.html" target="_top" xlink:title=" ">
<polygon fill="white" stroke="#666666" points="571,-74 425,-74 425,-55 571,-55 571,-74"/>
<text text-anchor="middle" x="498" y="-62" font-family="Helvetica,sans-Serif" font-size="10.00">HypreUVWLinearSystem.h</text>
</a>
</g>
</g>
<!-- Node6&#45;&gt;Node8 -->
<g id="edge7_Node000006_Node000008" class="edge">
<title>Node6&#45;&gt;Node8</title>
<g id="a_edge7_Node000006_Node000008"><a xlink:title=" ">
<path fill="none" stroke="#63b8ff" d="M449.83,-103.6C461.84,-94.11 476.97,-82.13 487.04,-74.17"/>
<polygon fill="#63b8ff" stroke="#63b8ff" points="447.44,-101.04 441.76,-109.98 451.78,-106.53 447.44,-101.04"/>
</a>
</g>
</g>
<!-- Node9 -->
<g id="Node000009" class="node">
<title>Node9</title>
<g id="a_Node000009"><a xlink:href="_hypre_u_v_w_linear_system_8_c.html" target="_top" xlink:title=" ">
<polygon fill="white" stroke="#666666" points="571,-19 425,-19 425,0 571,0 571,-19"/>
<text text-anchor="middle" x="498" y="-7" font-family="Helvetica,sans-Serif" font-size="10.00">HypreUVWLinearSystem.C</text>
</a>
</g>
</g>
<!-- Node8&#45;&gt;Node9 -->
<g id="edge8_Node000008_Node000009" class="edge">
<title>Node8&#45;&gt;Node9</title>
<g id="a_edge8_Node000008_Node000009"><a xlink:title=" ">
<path fill="none" stroke="#63b8ff" d="M498,-44.66C498,-35.93 498,-25.99 498,-19.09"/>
<polygon fill="#63b8ff" stroke="#63b8ff" points="494.5,-44.75 498,-54.75 501.5,-44.75 494.5,-44.75"/>
</a>
</g>
</g>
<!-- Node10&#45;&gt;Node8 -->
<g id="edge10_Node000010_Node000008" class="edge">
<title>Node10&#45;&gt;Node8</title>
<g id="a_edge10_Node000010_Node000008"><a xlink:title=" ">
<path fill="none" stroke="#63b8ff" d="M546.17,-103.6C534.16,-94.11 519.03,-82.13 508.96,-74.17"/>
<polygon fill="#63b8ff" stroke="#63b8ff" points="544.22,-106.53 554.24,-109.98 548.56,-101.04 544.22,-106.53"/>
</a>
</g>
</g>
<!-- Node11 -->
<g id="Node000011" class="node">
<title>Node11</title>
<g id="a_Node000011"><a xlink:href="_hypre_u_v_w_solver_8_c.html" target="_top" xlink:title=" ">
<polygon fill="white" stroke="#666666" points="699,-74 589,-74 589,-55 699,-55 699,-74"/>
<text text-anchor="middle" x="644" y="-62" font-family="Helvetica,sans-Serif" font-size="10.00">HypreUVWSolver.C</text>
</a>
</g>
</g>
<!-- Node10&#45;&gt;Node11 -->
<g id="edge11_Node000010_Node000011" class="edge">
<title>Node10&#45;&gt;Node11</title>
<g id="a_edge11_Node000010_Node000011"><a xlink:title=" ">
<path fill="none" stroke="#63b8ff" d="M586.39,-104.15C600.67,-94.57 618.97,-82.29 631.08,-74.17"/>
<polygon fill="#63b8ff" stroke="#63b8ff" points="584.05,-101.51 577.69,-109.98 587.95,-107.32 584.05,-101.51"/>
</a>
</g>
</g>
</g>
</svg>
