<?xml version="1.0" encoding="UTF-8" standalone="no"?>
<!DOCTYPE svg PUBLIC "-//W3C//DTD SVG 1.1//EN"
 "http://www.w3.org/Graphics/SVG/1.1/DTD/svg11.dtd">
<!-- Generated by graphviz version 2.43.0 (0)
 -->
<!-- Title: LinearExposedAreas.h Pages: 1 -->
<svg width="690pt" height="84pt"
 viewBox="0.00 0.00 689.50 84.00" xmlns="http://www.w3.org/2000/svg" xmlns:xlink="http://www.w3.org/1999/xlink">
<g id="graph0" class="graph" transform="scale(1 1) rotate(0) translate(4 80)">
<title>LinearExposedAreas.h</title>
<polygon fill="white" stroke="transparent" points="-4,4 -4,-80 685.5,-80 685.5,4 -4,4"/>
<!-- Node1 -->
<g id="node1" class="node">
<title>Node1</title>
<g id="a_node1"><a xlink:title=" ">
<polygon fill="#bfbfbf" stroke="black" points="283,-56.5 283,-75.5 408,-75.5 408,-56.5 283,-56.5"/>
<text text-anchor="middle" x="345.5" y="-63.5" font-family="Helvetica,sans-Serif" font-size="10.00">LinearExposedAreas.h</text>
</a>
</g>
</g>
<!-- Node2 -->
<g id="node2" class="node">
<title>Node2</title>
<g id="a_node2"><a xlink:href="_conduction_gathered_field_manager_8_c.html" target="_top" xlink:title=" ">
<polygon fill="white" stroke="black" points="0,-0.5 0,-19.5 191,-19.5 191,-0.5 0,-0.5"/>
<text text-anchor="middle" x="95.5" y="-7.5" font-family="Helvetica,sans-Serif" font-size="10.00">ConductionGatheredFieldManager.C</text>
</a>
</g>
</g>
<!-- Node1&#45;&gt;Node2 -->
<g id="edge1" class="edge">
<title>Node1&#45;&gt;Node2</title>
<path fill="none" stroke="midnightblue" d="M295.88,-54.28C248.63,-44.08 178.46,-28.92 134.93,-19.52"/>
<polygon fill="midnightblue" stroke="midnightblue" points="295.37,-57.75 305.89,-56.44 296.85,-50.91 295.37,-57.75"/>
</g>
<!-- Node3 -->
<g id="node3" class="node">
<title>Node3</title>
<g id="a_node3"><a xlink:href="_green_gauss_gradient_8_c.html" target="_top" xlink:title=" ">
<polygon fill="white" stroke="black" points="209.5,-0.5 209.5,-19.5 337.5,-19.5 337.5,-0.5 209.5,-0.5"/>
<text text-anchor="middle" x="273.5" y="-7.5" font-family="Helvetica,sans-Serif" font-size="10.00">GreenGaussGradient.C</text>
</a>
</g>
</g>
<!-- Node1&#45;&gt;Node3 -->
<g id="edge2" class="edge">
<title>Node1&#45;&gt;Node3</title>
<path fill="none" stroke="midnightblue" d="M325.63,-50.1C312.68,-40.38 296.2,-28.03 285.28,-19.83"/>
<polygon fill="midnightblue" stroke="midnightblue" points="323.83,-53.12 333.93,-56.32 328.03,-47.52 323.83,-53.12"/>
</g>
<!-- Node4 -->
<g id="node4" class="node">
<title>Node4</title>
<g id="a_node4"><a xlink:href="_linear_exposed_areas_8_c.html" target="_top" xlink:title=" ">
<polygon fill="white" stroke="black" points="356,-0.5 356,-19.5 481,-19.5 481,-0.5 356,-0.5"/>
<text text-anchor="middle" x="418.5" y="-7.5" font-family="Helvetica,sans-Serif" font-size="10.00">LinearExposedAreas.C</text>
</a>
</g>
</g>
<!-- Node1&#45;&gt;Node4 -->
<g id="edge3" class="edge">
<title>Node1&#45;&gt;Node4</title>
<path fill="none" stroke="midnightblue" d="M365.64,-50.1C378.78,-40.38 395.48,-28.03 406.56,-19.83"/>
<polygon fill="midnightblue" stroke="midnightblue" points="363.19,-47.56 357.23,-56.32 367.35,-53.19 363.19,-47.56"/>
</g>
<!-- Node5 -->
<g id="node5" class="node">
<title>Node5</title>
<g id="a_node5"><a xlink:href="_low_mach_gathered_field_manager_8_c.html" target="_top" xlink:title=" ">
<polygon fill="white" stroke="black" points="499.5,-0.5 499.5,-19.5 681.5,-19.5 681.5,-0.5 499.5,-0.5"/>
<text text-anchor="middle" x="590.5" y="-7.5" font-family="Helvetica,sans-Serif" font-size="10.00">LowMachGatheredFieldManager.C</text>
</a>
</g>
</g>
<!-- Node1&#45;&gt;Node5 -->
<g id="edge4" class="edge">
<title>Node1&#45;&gt;Node5</title>
<path fill="none" stroke="midnightblue" d="M394.13,-54.28C440.43,-44.08 509.19,-28.92 551.86,-19.52"/>
<polygon fill="midnightblue" stroke="midnightblue" points="393.33,-50.87 384.32,-56.44 394.84,-57.71 393.33,-50.87"/>
</g>
</g>
</svg>
