<?xml version="1.0" encoding="UTF-8" standalone="no"?>
<!DOCTYPE svg PUBLIC "-//W3C//DTD SVG 1.1//EN"
 "http://www.w3.org/Graphics/SVG/1.1/DTD/svg11.dtd">
<!-- Generated by graphviz version 2.43.0 (0)
 -->
<!-- Title: LinearDiffusionMetric.C Pages: 1 -->
<!--zoomable 375 -->
<svg id="main" version="1.1" xmlns="http://www.w3.org/2000/svg" xmlns:xlink="http://www.w3.org/1999/xlink" xml:space="preserve" onload="init(evt)">
<style type="text/css"><![CDATA[
.edge:hover path { stroke: red; }
.edge:hover polygon { stroke: red; fill: red; }
]]></style>
<script type="text/javascript"><![CDATA[
var edges = document.getElementsByTagName('g');
if (edges && edges.length) {
  for (var i=0;i<edges.length;i++) {
    if (edges[i].id.substr(0,4)=='edge') {
      edges[i].setAttribute('class','edge');
    }
  }
}
]]></script>
        <defs>
                <circle id="rim" cx="0" cy="0" r="7"/>
                <circle id="rim2" cx="0" cy="0" r="3.5"/>
                <g id="zoomPlus">
                        <use xlink:href="#rim" fill="#404040">
                                <set attributeName="fill" to="#808080" begin="zoomplus.mouseover" end="zoomplus.mouseout"/>
                        </use>
                        <path d="M-4,0h8M0,-4v8" fill="none" stroke="white" stroke-width="1.5" pointer-events="none"/>
                </g>
                <g id="zoomMin">
                        <use xlink:href="#rim" fill="#404040">
                                <set attributeName="fill" to="#808080" begin="zoomminus.mouseover" end="zoomminus.mouseout"/>
                        </use>
                        <path d="M-4,0h8" fill="none" stroke="white" stroke-width="1.5" pointer-events="none"/>
                </g>
                <g id="dirArrow">
                        <path fill="none" stroke="white" stroke-width="1.5" d="M0,-3.0v7 M-2.5,-0.5L0,-3.0L2.5,-0.5"/>
                </g>
               <g id="resetDef">
                       <use xlink:href="#rim2" fill="#404040">
                               <set attributeName="fill" to="#808080" begin="reset.mouseover" end="reset.mouseout"/>
                       </use>
               </g>
        </defs>

<script type="text/javascript">
var viewWidth = 1281;
var viewHeight = 375;
var sectionId = 'dynsection-0';
</script>
<script xlink:href="svgpan.js"/>
<svg id="graph" class="graph">
<g id="viewport">
<title>LinearDiffusionMetric.C</title>
<polygon fill="white" stroke="transparent" points="-4,4 -4,-371 1277,-371 1277,4 -4,4"/>
<!-- Node1 -->
<g id="node1" class="node">
<title>Node1</title>
<g id="a_node1"><a xlink:title=" ">
<polygon fill="#bfbfbf" stroke="black" points="375,-347.5 375,-366.5 506,-366.5 506,-347.5 375,-347.5"/>
<text text-anchor="middle" x="440.5" y="-354.5" font-family="Helvetica,sans-Serif" font-size="10.00">LinearDiffusionMetric.C</text>
</a>
</g>
</g>
<!-- Node2 -->
<g id="node2" class="node">
<title>Node2</title>
<g id="a_node2"><a xlink:href="_linear_diffusion_metric_8h.html" target="_top" xlink:title=" ">
<polygon fill="white" stroke="black" points="99.5,-280.5 99.5,-310.5 249.5,-310.5 249.5,-280.5 99.5,-280.5"/>
<text text-anchor="start" x="107.5" y="-298.5" font-family="Helvetica,sans-Serif" font-size="10.00">matrix_free/LinearDiffusion</text>
<text text-anchor="middle" x="174.5" y="-287.5" font-family="Helvetica,sans-Serif" font-size="10.00">Metric.h</text>
</a>
</g>
</g>
<!-- Node1&#45;&gt;Node2 -->
<g id="edge1" class="edge">
<title>Node1&#45;&gt;Node2</title>
<path fill="none" stroke="midnightblue" d="M402.39,-347.48C361.99,-338.44 297.21,-323.95 247.02,-312.72"/>
<polygon fill="midnightblue" stroke="midnightblue" points="247.71,-309.29 237.19,-310.52 246.19,-316.12 247.71,-309.29"/>
</g>
<!-- Node3 -->
<g id="node3" class="node">
<title>Node3</title>
<g id="a_node3"><a xlink:href="_kokkos_view_types_8h.html" target="_top" xlink:title=" ">
<polygon fill="white" stroke="black" points="115.5,-168.5 115.5,-187.5 287.5,-187.5 287.5,-168.5 115.5,-168.5"/>
<text text-anchor="middle" x="201.5" y="-175.5" font-family="Helvetica,sans-Serif" font-size="10.00">matrix_free/KokkosViewTypes.h</text>
</a>
</g>
</g>
<!-- Node1&#45;&gt;Node3 -->
<g id="edge34" class="edge">
<title>Node1&#45;&gt;Node3</title>
<path fill="none" stroke="midnightblue" d="M390.19,-347.45C362.17,-340.88 327.76,-329.66 301.5,-311 258.08,-280.15 225.14,-224.83 210.24,-196.6"/>
<polygon fill="midnightblue" stroke="midnightblue" points="213.27,-194.83 205.59,-187.53 207.04,-198.02 213.27,-194.83"/>
</g>
<!-- Node9 -->
<g id="node9" class="node">
<title>Node9</title>
<g id="a_node9"><a xlink:href="_polynomial_orders_8h.html" target="_top" xlink:title=" ">
<polygon fill="white" stroke="black" points="0,-224.5 0,-243.5 173,-243.5 173,-224.5 0,-224.5"/>
<text text-anchor="middle" x="86.5" y="-231.5" font-family="Helvetica,sans-Serif" font-size="10.00">matrix_free/PolynomialOrders.h</text>
</a>
</g>
</g>
<!-- Node1&#45;&gt;Node9 -->
<g id="edge36" class="edge">
<title>Node1&#45;&gt;Node9</title>
<path fill="none" stroke="midnightblue" d="M374.82,-352.04C278.82,-345.6 109.48,-331.47 90.5,-311 76.42,-295.82 78.08,-270.75 81.48,-253.59"/>
<polygon fill="midnightblue" stroke="midnightblue" points="84.94,-254.17 83.82,-243.63 78.13,-252.57 84.94,-254.17"/>
</g>
<!-- Node10 -->
<g id="node10" class="node">
<title>Node10</title>
<g id="a_node10"><a xlink:href="_coefficients_8h.html" target="_top" xlink:title=" ">
<polygon fill="white" stroke="black" points="382,-168.5 382,-187.5 525,-187.5 525,-168.5 382,-168.5"/>
<text text-anchor="middle" x="453.5" y="-175.5" font-family="Helvetica,sans-Serif" font-size="10.00">matrix_free/Coefficients.h</text>
</a>
</g>
</g>
<!-- Node1&#45;&gt;Node10 -->
<g id="edge10" class="edge">
<title>Node1&#45;&gt;Node10</title>
<path fill="none" stroke="midnightblue" d="M453.62,-347.49C477.71,-330.96 528.29,-291.92 547.5,-244 557.95,-217.94 528.13,-200.83 499.36,-190.74"/>
<polygon fill="midnightblue" stroke="midnightblue" points="500.3,-187.36 489.7,-187.58 498.12,-194.02 500.3,-187.36"/>
</g>
<!-- Node11 -->
<g id="node11" class="node">
<title>Node11</title>
<g id="a_node11"><a xlink:href="_local_array_8h.html" target="_top" xlink:title=" ">
<polygon fill="white" stroke="black" points="485.5,-112.5 485.5,-131.5 621.5,-131.5 621.5,-112.5 485.5,-112.5"/>
<text text-anchor="middle" x="553.5" y="-119.5" font-family="Helvetica,sans-Serif" font-size="10.00">matrix_free/LocalArray.h</text>
</a>
</g>
</g>
<!-- Node1&#45;&gt;Node11 -->
<g id="edge35" class="edge">
<title>Node1&#45;&gt;Node11</title>
<path fill="none" stroke="midnightblue" d="M424.46,-347.44C391.49,-328.54 320.33,-280.44 334.5,-224 341.37,-196.61 342.13,-185.23 364.5,-168 395.89,-143.82 438.26,-132.36 474.93,-127.03"/>
<polygon fill="midnightblue" stroke="midnightblue" points="475.65,-130.47 485.11,-125.69 474.73,-123.53 475.65,-130.47"/>
</g>
<!-- Node13 -->
<g id="node13" class="node">
<title>Node13</title>
<g id="a_node13"><a xlink:href="_element_s_c_s_interpolate_8h.html" target="_top" xlink:title=" ">
<polygon fill="white" stroke="black" points="593.5,-224.5 593.5,-243.5 791.5,-243.5 791.5,-224.5 593.5,-224.5"/>
<text text-anchor="middle" x="692.5" y="-231.5" font-family="Helvetica,sans-Serif" font-size="10.00">matrix_free/ElementSCSInterpolate.h</text>
</a>
</g>
</g>
<!-- Node1&#45;&gt;Node13 -->
<g id="edge15" class="edge">
<title>Node1&#45;&gt;Node13</title>
<path fill="none" stroke="midnightblue" d="M475.82,-347.5C504.56,-339.89 545.74,-327.42 579.5,-311 615.01,-293.74 652.27,-266.66 673.9,-249.91"/>
<polygon fill="midnightblue" stroke="midnightblue" points="676.19,-252.56 681.9,-243.63 671.87,-247.05 676.19,-252.56"/>
</g>
<!-- Node16 -->
<g id="node16" class="node">
<title>Node16</title>
<g id="a_node16"><a xlink:href="_hex_vertex_coordinates_8h.html" target="_top" xlink:title=" ">
<polygon fill="white" stroke="black" points="343,-224.5 343,-243.5 538,-243.5 538,-224.5 343,-224.5"/>
<text text-anchor="middle" x="440.5" y="-231.5" font-family="Helvetica,sans-Serif" font-size="10.00">matrix_free/HexVertexCoordinates.h</text>
</a>
</g>
</g>
<!-- Node1&#45;&gt;Node16 -->
<g id="edge24" class="edge">
<title>Node1&#45;&gt;Node16</title>
<path fill="none" stroke="midnightblue" d="M440.5,-347.3C440.5,-327.85 440.5,-280.49 440.5,-253.9"/>
<polygon fill="midnightblue" stroke="midnightblue" points="444,-253.62 440.5,-243.62 437,-253.62 444,-253.62"/>
</g>
<!-- Node17 -->
<g id="node17" class="node">
<title>Node17</title>
<g id="a_node17"><a xlink:href="_geometric_functions_8h.html" target="_top" xlink:title=" ">
<polygon fill="white" stroke="black" points="725,-286 725,-305 908,-305 908,-286 725,-286"/>
<text text-anchor="middle" x="816.5" y="-293" font-family="Helvetica,sans-Serif" font-size="10.00">matrix_free/GeometricFunctions.h</text>
</a>
</g>
</g>
<!-- Node1&#45;&gt;Node17 -->
<g id="edge28" class="edge">
<title>Node1&#45;&gt;Node17</title>
<path fill="none" stroke="midnightblue" d="M494.37,-347.48C562.64,-336.67 680.14,-318.08 752.79,-306.58"/>
<polygon fill="midnightblue" stroke="midnightblue" points="753.4,-310.03 762.73,-305.01 752.3,-303.12 753.4,-310.03"/>
</g>
<!-- Node19 -->
<g id="node19" class="node">
<title>Node19</title>
<g id="a_node19"><a xlink:href="_kokkos_interface_8h.html" target="_top" xlink:title=" ">
<polygon fill="white" stroke="black" points="1042.5,-112.5 1042.5,-131.5 1146.5,-131.5 1146.5,-112.5 1042.5,-112.5"/>
<text text-anchor="middle" x="1094.5" y="-119.5" font-family="Helvetica,sans-Serif" font-size="10.00">KokkosInterface.h</text>
</a>
</g>
</g>
<!-- Node1&#45;&gt;Node19 -->
<g id="edge37" class="edge">
<title>Node1&#45;&gt;Node19</title>
<path fill="none" stroke="midnightblue" d="M506.01,-355.48C619.35,-353.64 846.7,-345.62 917.5,-311 998.06,-271.61 1060.8,-178.98 1084.38,-140.37"/>
<polygon fill="midnightblue" stroke="midnightblue" points="1087.38,-142.16 1089.51,-131.79 1081.37,-138.57 1087.38,-142.16"/>
</g>
<!-- Node2&#45;&gt;Node3 -->
<g id="edge2" class="edge">
<title>Node2&#45;&gt;Node3</title>
<path fill="none" stroke="midnightblue" d="M177.81,-280.34C182.68,-259.53 191.76,-220.66 197.16,-197.58"/>
<polygon fill="midnightblue" stroke="midnightblue" points="200.61,-198.2 199.47,-187.67 193.79,-196.61 200.61,-198.2"/>
</g>
<!-- Node2&#45;&gt;Node9 -->
<g id="edge8" class="edge">
<title>Node2&#45;&gt;Node9</title>
<path fill="none" stroke="midnightblue" d="M153.65,-280.4C139.8,-271.04 121.69,-258.79 107.76,-249.38"/>
<polygon fill="midnightblue" stroke="midnightblue" points="109.55,-246.36 99.3,-243.66 105.63,-252.16 109.55,-246.36"/>
</g>
<!-- Node4 -->
<g id="node4" class="node">
<title>Node4</title>
<g id="a_node4"><a xlink:href="_kokkos_framework_8h.html" target="_top" xlink:title=" ">
<polygon fill="white" stroke="black" points="519,-56.5 519,-75.5 694,-75.5 694,-56.5 519,-56.5"/>
<text text-anchor="middle" x="606.5" y="-63.5" font-family="Helvetica,sans-Serif" font-size="10.00">matrix_free/KokkosFramework.h</text>
</a>
</g>
</g>
<!-- Node3&#45;&gt;Node4 -->
<g id="edge3" class="edge">
<title>Node3&#45;&gt;Node4</title>
<path fill="none" stroke="midnightblue" d="M232.94,-168.46C305.39,-148.78 484.07,-100.25 565.22,-78.21"/>
<polygon fill="midnightblue" stroke="midnightblue" points="566.34,-81.53 575.08,-75.53 564.51,-74.78 566.34,-81.53"/>
</g>
<!-- Node8 -->
<g id="node8" class="node">
<title>Node8</title>
<g id="a_node8"><a xlink:title=" ">
<polygon fill="white" stroke="#bfbfbf" points="130.5,-112.5 130.5,-131.5 272.5,-131.5 272.5,-112.5 130.5,-112.5"/>
<text text-anchor="middle" x="201.5" y="-119.5" font-family="Helvetica,sans-Serif" font-size="10.00">stk_mesh/base/Types.hpp</text>
</a>
</g>
</g>
<!-- Node3&#45;&gt;Node8 -->
<g id="edge7" class="edge">
<title>Node3&#45;&gt;Node8</title>
<path fill="none" stroke="midnightblue" d="M201.5,-168.08C201.5,-161.01 201.5,-150.86 201.5,-141.99"/>
<polygon fill="midnightblue" stroke="midnightblue" points="205,-141.75 201.5,-131.75 198,-141.75 205,-141.75"/>
</g>
<!-- Node5 -->
<g id="node5" class="node">
<title>Node5</title>
<g id="a_node5"><a xlink:title=" ">
<polygon fill="white" stroke="#bfbfbf" points="837.5,-0.5 837.5,-19.5 937.5,-19.5 937.5,-0.5 837.5,-0.5"/>
<text text-anchor="middle" x="887.5" y="-7.5" font-family="Helvetica,sans-Serif" font-size="10.00">Kokkos_Core.hpp</text>
</a>
</g>
</g>
<!-- Node4&#45;&gt;Node5 -->
<g id="edge4" class="edge">
<title>Node4&#45;&gt;Node5</title>
<path fill="none" stroke="midnightblue" d="M651.03,-56.44C700.46,-46.94 780.25,-31.61 833.28,-21.42"/>
<polygon fill="midnightblue" stroke="midnightblue" points="834.02,-24.84 843.18,-19.52 832.7,-17.97 834.02,-24.84"/>
</g>
<!-- Node6 -->
<g id="node6" class="node">
<title>Node6</title>
<g id="a_node6"><a xlink:title=" ">
<polygon fill="white" stroke="#bfbfbf" points="551.5,-0.5 551.5,-19.5 661.5,-19.5 661.5,-0.5 551.5,-0.5"/>
<text text-anchor="middle" x="606.5" y="-7.5" font-family="Helvetica,sans-Serif" font-size="10.00">stk_simd/Simd.hpp</text>
</a>
</g>
</g>
<!-- Node4&#45;&gt;Node6 -->
<g id="edge5" class="edge">
<title>Node4&#45;&gt;Node6</title>
<path fill="none" stroke="midnightblue" d="M606.5,-56.08C606.5,-49.01 606.5,-38.86 606.5,-29.99"/>
<polygon fill="midnightblue" stroke="midnightblue" points="610,-29.75 606.5,-19.75 603,-29.75 610,-29.75"/>
</g>
<!-- Node7 -->
<g id="node7" class="node">
<title>Node7</title>
<g id="a_node7"><a xlink:title=" ">
<polygon fill="white" stroke="#bfbfbf" points="456,-0.5 456,-19.5 525,-19.5 525,-0.5 456,-0.5"/>
<text text-anchor="middle" x="490.5" y="-7.5" font-family="Helvetica,sans-Serif" font-size="10.00">type_traits</text>
</a>
</g>
</g>
<!-- Node4&#45;&gt;Node7 -->
<g id="edge6" class="edge">
<title>Node4&#45;&gt;Node7</title>
<path fill="none" stroke="midnightblue" d="M588.12,-56.44C569.28,-47.68 539.77,-33.94 518.12,-23.86"/>
<polygon fill="midnightblue" stroke="midnightblue" points="519.34,-20.56 508.79,-19.52 516.38,-26.91 519.34,-20.56"/>
</g>
<!-- Node9&#45;&gt;Node7 -->
<g id="edge9" class="edge">
<title>Node9&#45;&gt;Node7</title>
<path fill="none" stroke="midnightblue" d="M86.31,-224.25C86.34,-202.13 89.57,-143.47 121.5,-112 167.68,-66.48 358.1,-31.64 445.85,-17.67"/>
<polygon fill="midnightblue" stroke="midnightblue" points="446.44,-21.12 455.77,-16.11 445.35,-14.21 446.44,-21.12"/>
</g>
<!-- Node10&#45;&gt;Node11 -->
<g id="edge11" class="edge">
<title>Node10&#45;&gt;Node11</title>
<path fill="none" stroke="midnightblue" d="M469.57,-168.32C485.46,-159.74 510.01,-146.49 528.46,-136.52"/>
<polygon fill="midnightblue" stroke="midnightblue" points="530.34,-139.49 537.47,-131.65 527.01,-133.33 530.34,-139.49"/>
</g>
<!-- Node11&#45;&gt;Node4 -->
<g id="edge13" class="edge">
<title>Node11&#45;&gt;Node4</title>
<path fill="none" stroke="midnightblue" d="M562.25,-112.08C569.97,-104.22 581.4,-92.57 590.72,-83.08"/>
<polygon fill="midnightblue" stroke="midnightblue" points="593.4,-85.34 597.91,-75.75 588.41,-80.44 593.4,-85.34"/>
</g>
<!-- Node11&#45;&gt;Node7 -->
<g id="edge14" class="edge">
<title>Node11&#45;&gt;Node7</title>
<path fill="none" stroke="midnightblue" d="M542.85,-112.42C533.13,-104.07 519.03,-90.54 510.5,-76 502,-61.52 496.78,-43.07 493.81,-29.53"/>
<polygon fill="midnightblue" stroke="midnightblue" points="497.2,-28.64 491.82,-19.51 490.33,-30 497.2,-28.64"/>
</g>
<!-- Node12 -->
<g id="node12" class="node">
<title>Node12</title>
<g id="a_node12"><a xlink:title=" ">
<polygon fill="white" stroke="#bfbfbf" points="852,-56.5 852,-75.5 965,-75.5 965,-56.5 852,-56.5"/>
<text text-anchor="middle" x="908.5" y="-63.5" font-family="Helvetica,sans-Serif" font-size="10.00">Kokkos_Macros.hpp</text>
</a>
</g>
</g>
<!-- Node11&#45;&gt;Node12 -->
<g id="edge12" class="edge">
<title>Node11&#45;&gt;Node12</title>
<path fill="none" stroke="midnightblue" d="M609.75,-112.44C672.98,-102.83 775.52,-87.23 842.49,-77.04"/>
<polygon fill="midnightblue" stroke="midnightblue" points="843.15,-80.48 852.51,-75.52 842.1,-73.56 843.15,-80.48"/>
</g>
<!-- Node13&#45;&gt;Node3 -->
<g id="edge18" class="edge">
<title>Node13&#45;&gt;Node3</title>
<path fill="none" stroke="midnightblue" d="M614.97,-224.47C526.41,-214.73 381.83,-198.83 289.22,-188.65"/>
<polygon fill="midnightblue" stroke="midnightblue" points="289.35,-185.14 279.03,-187.53 288.58,-192.1 289.35,-185.14"/>
</g>
<!-- Node13&#45;&gt;Node10 -->
<g id="edge17" class="edge">
<title>Node13&#45;&gt;Node10</title>
<path fill="none" stroke="midnightblue" d="M654.63,-224.44C613.02,-215.04 546.13,-199.93 501.03,-189.74"/>
<polygon fill="midnightblue" stroke="midnightblue" points="501.72,-186.31 491.19,-187.52 500.18,-193.13 501.72,-186.31"/>
</g>
<!-- Node13&#45;&gt;Node11 -->
<g id="edge19" class="edge">
<title>Node13&#45;&gt;Node11</title>
<path fill="none" stroke="midnightblue" d="M640.45,-224.48C616.8,-218.12 590.21,-207.08 572.5,-188 560.89,-175.49 556.34,-156.26 554.57,-141.96"/>
<polygon fill="midnightblue" stroke="midnightblue" points="558.04,-141.42 553.67,-131.77 551.06,-142.04 558.04,-141.42"/>
</g>
<!-- Node14 -->
<g id="node14" class="node">
<title>Node14</title>
<g id="a_node14"><a xlink:title=" ">
<polygon fill="white" stroke="#bfbfbf" points="758,-168.5 758,-187.5 805,-187.5 805,-168.5 758,-168.5"/>
<text text-anchor="middle" x="781.5" y="-175.5" font-family="Helvetica,sans-Serif" font-size="10.00">cmath</text>
</a>
</g>
</g>
<!-- Node13&#45;&gt;Node14 -->
<g id="edge16" class="edge">
<title>Node13&#45;&gt;Node14</title>
<path fill="none" stroke="midnightblue" d="M706.8,-224.32C720.68,-215.9 741.99,-202.97 758.3,-193.07"/>
<polygon fill="midnightblue" stroke="midnightblue" points="760.5,-195.83 767.24,-187.65 756.87,-189.85 760.5,-195.83"/>
</g>
<!-- Node15 -->
<g id="node15" class="node">
<title>Node15</title>
<g id="a_node15"><a xlink:href="_shuffled_access_8h.html" target="_top" xlink:title=" ">
<polygon fill="white" stroke="black" points="581,-168.5 581,-187.5 740,-187.5 740,-168.5 581,-168.5"/>
<text text-anchor="middle" x="660.5" y="-175.5" font-family="Helvetica,sans-Serif" font-size="10.00">matrix_free/ShuffledAccess.h</text>
</a>
</g>
</g>
<!-- Node13&#45;&gt;Node15 -->
<g id="edge20" class="edge">
<title>Node13&#45;&gt;Node15</title>
<path fill="none" stroke="midnightblue" d="M687.22,-224.08C682.79,-216.61 676.34,-205.72 670.88,-196.52"/>
<polygon fill="midnightblue" stroke="midnightblue" points="673.79,-194.57 665.69,-187.75 667.77,-198.14 673.79,-194.57"/>
</g>
<!-- Node15&#45;&gt;Node4 -->
<g id="edge21" class="edge">
<title>Node15&#45;&gt;Node4</title>
<path fill="none" stroke="midnightblue" d="M656.58,-168.09C651,-155.5 640.34,-131.81 630.5,-112 625.96,-102.87 620.65,-92.84 616.18,-84.58"/>
<polygon fill="midnightblue" stroke="midnightblue" points="619.11,-82.65 611.25,-75.55 612.97,-86 619.11,-82.65"/>
</g>
<!-- Node15&#45;&gt;Node11 -->
<g id="edge22" class="edge">
<title>Node15&#45;&gt;Node11</title>
<path fill="none" stroke="midnightblue" d="M643.31,-168.32C626.15,-159.66 599.55,-146.24 579.75,-136.25"/>
<polygon fill="midnightblue" stroke="midnightblue" points="581.15,-133.04 570.65,-131.65 578,-139.28 581.15,-133.04"/>
</g>
<!-- Node15&#45;&gt;Node12 -->
<g id="edge23" class="edge">
<title>Node15&#45;&gt;Node12</title>
<path fill="none" stroke="midnightblue" d="M679.96,-168.37C723.51,-149.05 829.01,-102.26 879.98,-79.65"/>
<polygon fill="midnightblue" stroke="midnightblue" points="881.41,-82.85 889.13,-75.59 878.57,-76.45 881.41,-82.85"/>
</g>
<!-- Node16&#45;&gt;Node3 -->
<g id="edge27" class="edge">
<title>Node16&#45;&gt;Node3</title>
<path fill="none" stroke="midnightblue" d="M402.63,-224.44C361.02,-215.04 294.13,-199.93 249.03,-189.74"/>
<polygon fill="midnightblue" stroke="midnightblue" points="249.72,-186.31 239.19,-187.52 248.18,-193.13 249.72,-186.31"/>
</g>
<!-- Node16&#45;&gt;Node10 -->
<g id="edge26" class="edge">
<title>Node16&#45;&gt;Node10</title>
<path fill="none" stroke="midnightblue" d="M442.65,-224.08C444.37,-216.93 446.85,-206.64 449,-197.69"/>
<polygon fill="midnightblue" stroke="midnightblue" points="452.46,-198.29 451.39,-187.75 445.65,-196.65 452.46,-198.29"/>
</g>
<!-- Node16&#45;&gt;Node11 -->
<g id="edge25" class="edge">
<title>Node16&#45;&gt;Node11</title>
<path fill="none" stroke="midnightblue" d="M419.38,-224.31C393.76,-212.52 356.05,-190.35 373.5,-168 386.39,-151.49 432.65,-140.14 475.04,-132.97"/>
<polygon fill="midnightblue" stroke="midnightblue" points="475.84,-136.38 485.15,-131.32 474.71,-129.47 475.84,-136.38"/>
</g>
<!-- Node17&#45;&gt;Node12 -->
<g id="edge33" class="edge">
<title>Node17&#45;&gt;Node12</title>
<path fill="none" stroke="midnightblue" d="M851.53,-285.96C895.77,-273.08 970.03,-244.01 1002.5,-188 1026.87,-145.96 968.6,-102.31 933.22,-80.75"/>
<polygon fill="midnightblue" stroke="midnightblue" points="934.74,-77.58 924.35,-75.51 931.18,-83.61 934.74,-77.58"/>
</g>
<!-- Node17&#45;&gt;Node16 -->
<g id="edge29" class="edge">
<title>Node17&#45;&gt;Node16</title>
<path fill="none" stroke="midnightblue" d="M762.63,-285.98C694.36,-275.17 576.86,-256.58 504.21,-245.08"/>
<polygon fill="midnightblue" stroke="midnightblue" points="504.7,-241.62 494.27,-243.51 503.6,-248.53 504.7,-241.62"/>
</g>
<!-- Node18 -->
<g id="node18" class="node">
<title>Node18</title>
<g id="a_node18"><a xlink:href="_tensor_operations_8h.html" target="_top" xlink:title=" ">
<polygon fill="white" stroke="black" points="823.5,-168.5 823.5,-187.5 993.5,-187.5 993.5,-168.5 823.5,-168.5"/>
<text text-anchor="middle" x="908.5" y="-175.5" font-family="Helvetica,sans-Serif" font-size="10.00">matrix_free/TensorOperations.h</text>
</a>
</g>
</g>
<!-- Node17&#45;&gt;Node18 -->
<g id="edge30" class="edge">
<title>Node17&#45;&gt;Node18</title>
<path fill="none" stroke="midnightblue" d="M823.41,-285.82C838.67,-266.67 875.41,-220.54 895.25,-195.63"/>
<polygon fill="midnightblue" stroke="midnightblue" points="898.01,-197.78 901.5,-187.78 892.54,-193.42 898.01,-197.78"/>
</g>
<!-- Node18&#45;&gt;Node11 -->
<g id="edge31" class="edge">
<title>Node18&#45;&gt;Node11</title>
<path fill="none" stroke="midnightblue" d="M852.25,-168.44C789.02,-158.83 686.48,-143.23 619.51,-133.04"/>
<polygon fill="midnightblue" stroke="midnightblue" points="619.9,-129.56 609.49,-131.52 618.85,-136.48 619.9,-129.56"/>
</g>
<!-- Node18&#45;&gt;Node12 -->
<g id="edge32" class="edge">
<title>Node18&#45;&gt;Node12</title>
<path fill="none" stroke="midnightblue" d="M908.5,-168.37C908.5,-150.62 908.5,-109.67 908.5,-85.6"/>
<polygon fill="midnightblue" stroke="midnightblue" points="912,-85.59 908.5,-75.59 905,-85.59 912,-85.59"/>
</g>
<!-- Node19&#45;&gt;Node5 -->
<g id="edge41" class="edge">
<title>Node19&#45;&gt;Node5</title>
<path fill="none" stroke="midnightblue" d="M1079.02,-112.49C1056.21,-99.98 1012.19,-75.95 974.5,-56 953.96,-45.12 930.55,-33.03 913.19,-24.13"/>
<polygon fill="midnightblue" stroke="midnightblue" points="914.72,-20.98 904.23,-19.53 911.53,-27.21 914.72,-20.98"/>
</g>
<!-- Node19&#45;&gt;Node12 -->
<g id="edge40" class="edge">
<title>Node19&#45;&gt;Node12</title>
<path fill="none" stroke="midnightblue" d="M1065.03,-112.44C1033.33,-103.24 982.77,-88.56 947.73,-78.39"/>
<polygon fill="midnightblue" stroke="midnightblue" points="948.41,-74.94 937.83,-75.52 946.46,-81.67 948.41,-74.94"/>
</g>
<!-- Node20 -->
<g id="node20" class="node">
<title>Node20</title>
<g id="a_node20"><a xlink:title=" ">
<polygon fill="white" stroke="#bfbfbf" points="1061,-56.5 1061,-75.5 1114,-75.5 1114,-56.5 1061,-56.5"/>
<text text-anchor="middle" x="1087.5" y="-63.5" font-family="Helvetica,sans-Serif" font-size="10.00">cstddef</text>
</a>
</g>
</g>
<!-- Node19&#45;&gt;Node20 -->
<g id="edge38" class="edge">
<title>Node19&#45;&gt;Node20</title>
<path fill="none" stroke="midnightblue" d="M1093.34,-112.08C1092.42,-104.93 1091.08,-94.64 1089.92,-85.69"/>
<polygon fill="midnightblue" stroke="midnightblue" points="1093.39,-85.22 1088.63,-75.75 1086.45,-86.12 1093.39,-85.22"/>
</g>
<!-- Node21 -->
<g id="node21" class="node">
<title>Node21</title>
<g id="a_node21"><a xlink:title=" ">
<polygon fill="white" stroke="#bfbfbf" points="1132,-56.5 1132,-75.5 1273,-75.5 1273,-56.5 1132,-56.5"/>
<text text-anchor="middle" x="1202.5" y="-63.5" font-family="Helvetica,sans-Serif" font-size="10.00">stk_mesh/base/Entity.hpp</text>
</a>
</g>
</g>
<!-- Node19&#45;&gt;Node21 -->
<g id="edge39" class="edge">
<title>Node19&#45;&gt;Node21</title>
<path fill="none" stroke="midnightblue" d="M1111.85,-112.32C1129.17,-103.66 1156.02,-90.24 1176,-80.25"/>
<polygon fill="midnightblue" stroke="midnightblue" points="1177.81,-83.26 1185.19,-75.65 1174.68,-77 1177.81,-83.26"/>
</g>
</g>
</svg>
        <g id="navigator" transform="translate(0 0)" fill="#404254">
                <rect fill="#f2f5e9" fill-opacity="0.5" stroke="#606060" stroke-width=".5" x="0" y="0" width="60" height="60"/>
                <use id="zoomplus" xlink:href="#zoomPlus" x="17" y="9" onmousedown="handleZoom(evt,'in')"/>
                <use id="zoomminus" xlink:href="#zoomMin" x="42" y="9" onmousedown="handleZoom(evt,'out')"/>
                <use id="reset" xlink:href="#resetDef" x="30" y="36" onmousedown="handleReset()"/>
                <g id="arrowUp" xlink:href="#dirArrow" transform="translate(30 24)" onmousedown="handlePan(0,-1)">
                  <use xlink:href="#rim" fill="#404040">
                        <set attributeName="fill" to="#808080" begin="arrowUp.mouseover" end="arrowUp.mouseout"/>
                  </use>
                  <path fill="none" stroke="white" stroke-width="1.5" d="M0,-3.0v7 M-2.5,-0.5L0,-3.0L2.5,-0.5"/>
                </g>
                <g id="arrowRight" xlink:href="#dirArrow" transform="rotate(90) translate(36 -43)" onmousedown="handlePan(1,0)">
                  <use xlink:href="#rim" fill="#404040">
                        <set attributeName="fill" to="#808080" begin="arrowRight.mouseover" end="arrowRight.mouseout"/>
                  </use>
                  <path fill="none" stroke="white" stroke-width="1.5" d="M0,-3.0v7 M-2.5,-0.5L0,-3.0L2.5,-0.5"/>
                </g>
                <g id="arrowDown" xlink:href="#dirArrow" transform="rotate(180) translate(-30 -48)" onmousedown="handlePan(0,1)">
                  <use xlink:href="#rim" fill="#404040">
                        <set attributeName="fill" to="#808080" begin="arrowDown.mouseover" end="arrowDown.mouseout"/>
                  </use>
                  <path fill="none" stroke="white" stroke-width="1.5" d="M0,-3.0v7 M-2.5,-0.5L0,-3.0L2.5,-0.5"/>
                </g>
                <g id="arrowLeft" xlink:href="#dirArrow" transform="rotate(270) translate(-36 17)" onmousedown="handlePan(-1,0)">
                  <use xlink:href="#rim" fill="#404040">
                        <set attributeName="fill" to="#808080" begin="arrowLeft.mouseover" end="arrowLeft.mouseout"/>
                  </use>
                  <path fill="none" stroke="white" stroke-width="1.5" d="M0,-3.0v7 M-2.5,-0.5L0,-3.0L2.5,-0.5"/>
                </g>
        </g>
        <svg viewBox="0 0 15 15" width="100%" height="30px" preserveAspectRatio="xMaxYMin meet">
         <g id="arrow_out" transform="scale(0.3 0.3)">
          <a xlink:href="_linear_diffusion_metric_8_c__incl_org.svg" target="_base">
           <rect id="button" ry="5" rx="5" y="6" x="6" height="38" width="38"
                fill="#f2f5e9" fill-opacity="0.5" stroke="#606060" stroke-width="1.0"/>
           <path id="arrow"
             d="M 11.500037,31.436501 C 11.940474,20.09759 22.043105,11.32322 32.158766,21.979434 L 37.068811,17.246167 C 37.068811,17.246167 37.088388,32 37.088388,32 L 22.160133,31.978069 C 22.160133,31.978069 26.997745,27.140456 26.997745,27.140456 C 18.528582,18.264221 13.291696,25.230495 11.500037,31.436501 z"
             style="fill:#404040;"/>
          </a>
         </g>
        </svg>
</svg>
