<?xml version="1.0" encoding="UTF-8" standalone="no"?>
<!DOCTYPE svg PUBLIC "-//W3C//DTD SVG 1.1//EN"
 "http://www.w3.org/Graphics/SVG/1.1/DTD/svg11.dtd">
<!-- Generated by graphviz version 2.43.0 (0)
 -->
<!-- Title: LinearSystem.h Pages: 1 -->
<svg width="1152pt" height="196pt"
 viewBox="0.00 0.00 1151.50 196.00" xmlns="http://www.w3.org/2000/svg" xmlns:xlink="http://www.w3.org/1999/xlink">
<g id="graph0" class="graph" transform="scale(1 1) rotate(0) translate(4 192)">
<title>LinearSystem.h</title>
<polygon fill="white" stroke="transparent" points="-4,4 -4,-192 1147.5,-192 1147.5,4 -4,4"/>
<!-- Node1 -->
<g id="node1" class="node">
<title>Node1</title>
<g id="a_node1"><a xlink:title=" ">
<polygon fill="#bfbfbf" stroke="black" points="786.5,-168.5 786.5,-187.5 878.5,-187.5 878.5,-168.5 786.5,-168.5"/>
<text text-anchor="middle" x="832.5" y="-175.5" font-family="Helvetica,sans-Serif" font-size="10.00">LinearSystem.h</text>
</a>
</g>
</g>
<!-- Node2 -->
<g id="node2" class="node">
<title>Node2</title>
<g id="a_node2"><a xlink:href="_linear_solver_types_8h.html" target="_top" xlink:title=" ">
<polygon fill="white" stroke="black" points="551.5,-112.5 551.5,-131.5 665.5,-131.5 665.5,-112.5 551.5,-112.5"/>
<text text-anchor="middle" x="608.5" y="-119.5" font-family="Helvetica,sans-Serif" font-size="10.00">LinearSolverTypes.h</text>
</a>
</g>
</g>
<!-- Node1&#45;&gt;Node2 -->
<g id="edge1" class="edge">
<title>Node1&#45;&gt;Node2</title>
<path fill="none" stroke="midnightblue" d="M797.01,-168.44C758.18,-159.08 695.84,-144.06 653.58,-133.87"/>
<polygon fill="midnightblue" stroke="midnightblue" points="654.37,-130.46 643.83,-131.52 652.73,-137.26 654.37,-130.46"/>
</g>
<!-- Node3 -->
<g id="node3" class="node">
<title>Node3</title>
<g id="a_node3"><a xlink:href="_kokkos_interface_8h.html" target="_top" xlink:title=" ">
<polygon fill="white" stroke="black" points="161.5,-56.5 161.5,-75.5 265.5,-75.5 265.5,-56.5 161.5,-56.5"/>
<text text-anchor="middle" x="213.5" y="-63.5" font-family="Helvetica,sans-Serif" font-size="10.00">KokkosInterface.h</text>
</a>
</g>
</g>
<!-- Node1&#45;&gt;Node3 -->
<g id="edge13" class="edge">
<title>Node1&#45;&gt;Node3</title>
<path fill="none" stroke="midnightblue" d="M786.45,-170.45C729.16,-162.17 628.43,-147.15 542.5,-132 443.44,-114.54 328.25,-91.04 263.82,-77.61"/>
<polygon fill="midnightblue" stroke="midnightblue" points="264.42,-74.16 253.92,-75.54 262.99,-81.01 264.42,-74.16"/>
</g>
<!-- Node14 -->
<g id="node14" class="node">
<title>Node14</title>
<g id="a_node14"><a xlink:title=" ">
<polygon fill="white" stroke="#bfbfbf" points="683.5,-112.5 683.5,-131.5 817.5,-131.5 817.5,-112.5 683.5,-112.5"/>
<text text-anchor="middle" x="750.5" y="-119.5" font-family="Helvetica,sans-Serif" font-size="10.00">stk_mesh/base/Ngp.hpp</text>
</a>
</g>
</g>
<!-- Node1&#45;&gt;Node14 -->
<g id="edge14" class="edge">
<title>Node1&#45;&gt;Node14</title>
<path fill="none" stroke="midnightblue" d="M819.33,-168.32C806.65,-159.98 787.27,-147.21 772.29,-137.35"/>
<polygon fill="midnightblue" stroke="midnightblue" points="773.92,-134.23 763.64,-131.65 770.07,-140.08 773.92,-134.23"/>
</g>
<!-- Node15 -->
<g id="node15" class="node">
<title>Node15</title>
<g id="a_node15"><a xlink:title=" ">
<polygon fill="white" stroke="#bfbfbf" points="835.5,-112.5 835.5,-131.5 995.5,-131.5 995.5,-112.5 835.5,-112.5"/>
<text text-anchor="middle" x="915.5" y="-119.5" font-family="Helvetica,sans-Serif" font-size="10.00">stk_mesh/base/NgpMesh.hpp</text>
</a>
</g>
</g>
<!-- Node1&#45;&gt;Node15 -->
<g id="edge15" class="edge">
<title>Node1&#45;&gt;Node15</title>
<path fill="none" stroke="midnightblue" d="M845.84,-168.32C858.66,-159.98 878.28,-147.21 893.44,-137.35"/>
<polygon fill="midnightblue" stroke="midnightblue" points="895.72,-140.04 902.2,-131.65 891.91,-134.17 895.72,-140.04"/>
</g>
<!-- Node16 -->
<g id="node16" class="node">
<title>Node16</title>
<g id="a_node16"><a xlink:title=" ">
<polygon fill="white" stroke="#bfbfbf" points="1014,-112.5 1014,-131.5 1061,-131.5 1061,-112.5 1014,-112.5"/>
<text text-anchor="middle" x="1037.5" y="-119.5" font-family="Helvetica,sans-Serif" font-size="10.00">vector</text>
</a>
</g>
</g>
<!-- Node1&#45;&gt;Node16 -->
<g id="edge16" class="edge">
<title>Node1&#45;&gt;Node16</title>
<path fill="none" stroke="midnightblue" d="M865.5,-168.47C898.18,-160.01 949.91,-146.54 1003.96,-132.12"/>
<polygon fill="midnightblue" stroke="midnightblue" points="1004.96,-135.48 1013.71,-129.52 1003.15,-128.72 1004.96,-135.48"/>
</g>
<!-- Node17 -->
<g id="node17" class="node">
<title>Node17</title>
<g id="a_node17"><a xlink:title=" ">
<polygon fill="white" stroke="#bfbfbf" points="1079.5,-112.5 1079.5,-131.5 1123.5,-131.5 1123.5,-112.5 1079.5,-112.5"/>
<text text-anchor="middle" x="1101.5" y="-119.5" font-family="Helvetica,sans-Serif" font-size="10.00">string</text>
</a>
</g>
</g>
<!-- Node1&#45;&gt;Node17 -->
<g id="edge17" class="edge">
<title>Node1&#45;&gt;Node17</title>
<path fill="none" stroke="midnightblue" d="M878.85,-169.59C924.85,-161.93 997.55,-149.02 1069.13,-132.15"/>
<polygon fill="midnightblue" stroke="midnightblue" points="1070.3,-135.47 1079.22,-129.75 1068.68,-128.66 1070.3,-135.47"/>
</g>
<!-- Node2&#45;&gt;Node3 -->
<g id="edge2" class="edge">
<title>Node2&#45;&gt;Node3</title>
<path fill="none" stroke="midnightblue" d="M551.44,-113.53C487,-105.05 378.72,-90.65 275.69,-76.15"/>
<polygon fill="midnightblue" stroke="midnightblue" points="276.13,-72.68 265.74,-74.75 275.15,-79.61 276.13,-72.68"/>
</g>
<!-- Node8 -->
<g id="node8" class="node">
<title>Node8</title>
<g id="a_node8"><a xlink:title=" ">
<polygon fill="white" stroke="#bfbfbf" points="283.5,-56.5 283.5,-75.5 461.5,-75.5 461.5,-56.5 283.5,-56.5"/>
<text text-anchor="middle" x="372.5" y="-63.5" font-family="Helvetica,sans-Serif" font-size="10.00">Tpetra_Details_DefaultTypes.hpp</text>
</a>
</g>
</g>
<!-- Node2&#45;&gt;Node8 -->
<g id="edge7" class="edge">
<title>Node2&#45;&gt;Node8</title>
<path fill="none" stroke="midnightblue" d="M571.11,-112.44C530.11,-103.06 464.25,-87.99 419.72,-77.8"/>
<polygon fill="midnightblue" stroke="midnightblue" points="420.25,-74.34 409.72,-75.52 418.69,-81.16 420.25,-74.34"/>
</g>
<!-- Node9 -->
<g id="node9" class="node">
<title>Node9</title>
<g id="a_node9"><a xlink:title=" ">
<polygon fill="white" stroke="#bfbfbf" points="480,-56.5 480,-75.5 599,-75.5 599,-56.5 480,-56.5"/>
<text text-anchor="middle" x="539.5" y="-63.5" font-family="Helvetica,sans-Serif" font-size="10.00">Tpetra_CrsGraph.hpp</text>
</a>
</g>
</g>
<!-- Node2&#45;&gt;Node9 -->
<g id="edge8" class="edge">
<title>Node2&#45;&gt;Node9</title>
<path fill="none" stroke="midnightblue" d="M597.41,-112.32C587.01,-104.18 571.24,-91.84 558.78,-82.09"/>
<polygon fill="midnightblue" stroke="midnightblue" points="560.82,-79.24 550.79,-75.83 556.51,-84.75 560.82,-79.24"/>
</g>
<!-- Node10 -->
<g id="node10" class="node">
<title>Node10</title>
<g id="a_node10"><a xlink:title=" ">
<polygon fill="white" stroke="#bfbfbf" points="617.5,-56.5 617.5,-75.5 739.5,-75.5 739.5,-56.5 617.5,-56.5"/>
<text text-anchor="middle" x="678.5" y="-63.5" font-family="Helvetica,sans-Serif" font-size="10.00">Tpetra_CrsMatrix.hpp</text>
</a>
</g>
</g>
<!-- Node2&#45;&gt;Node10 -->
<g id="edge9" class="edge">
<title>Node2&#45;&gt;Node10</title>
<path fill="none" stroke="midnightblue" d="M619.75,-112.32C630.3,-104.18 646.3,-91.84 658.94,-82.09"/>
<polygon fill="midnightblue" stroke="midnightblue" points="661.27,-84.71 667.05,-75.83 656.99,-79.17 661.27,-84.71"/>
</g>
<!-- Node11 -->
<g id="node11" class="node">
<title>Node11</title>
<g id="a_node11"><a xlink:title=" ">
<polygon fill="white" stroke="#bfbfbf" points="757.5,-56.5 757.5,-75.5 861.5,-75.5 861.5,-56.5 757.5,-56.5"/>
<text text-anchor="middle" x="809.5" y="-63.5" font-family="Helvetica,sans-Serif" font-size="10.00">Tpetra_Vector.hpp</text>
</a>
</g>
</g>
<!-- Node2&#45;&gt;Node11 -->
<g id="edge10" class="edge">
<title>Node2&#45;&gt;Node11</title>
<path fill="none" stroke="midnightblue" d="M640.35,-112.44C674.9,-103.16 730.18,-88.31 768.08,-78.13"/>
<polygon fill="midnightblue" stroke="midnightblue" points="769.05,-81.49 777.8,-75.52 767.23,-74.73 769.05,-81.49"/>
</g>
<!-- Node12 -->
<g id="node12" class="node">
<title>Node12</title>
<g id="a_node12"><a xlink:title=" ">
<polygon fill="white" stroke="#bfbfbf" points="880,-56.5 880,-75.5 1009,-75.5 1009,-56.5 880,-56.5"/>
<text text-anchor="middle" x="944.5" y="-63.5" font-family="Helvetica,sans-Serif" font-size="10.00">Tpetra_MultiVector.hpp</text>
</a>
</g>
</g>
<!-- Node2&#45;&gt;Node12 -->
<g id="edge11" class="edge">
<title>Node2&#45;&gt;Node12</title>
<path fill="none" stroke="midnightblue" d="M661.74,-112.44C721.46,-102.85 818.24,-87.29 881.63,-77.1"/>
<polygon fill="midnightblue" stroke="midnightblue" points="882.19,-80.56 891.51,-75.52 881.08,-73.65 882.19,-80.56"/>
</g>
<!-- Node13 -->
<g id="node13" class="node">
<title>Node13</title>
<g id="a_node13"><a xlink:title=" ">
<polygon fill="white" stroke="#bfbfbf" points="1027.5,-56.5 1027.5,-75.5 1143.5,-75.5 1143.5,-56.5 1027.5,-56.5"/>
<text text-anchor="middle" x="1085.5" y="-63.5" font-family="Helvetica,sans-Serif" font-size="10.00">Tpetra_Operator.hpp</text>
</a>
</g>
</g>
<!-- Node2&#45;&gt;Node13 -->
<g id="edge12" class="edge">
<title>Node2&#45;&gt;Node13</title>
<path fill="none" stroke="midnightblue" d="M665.72,-113.09C668.69,-112.71 671.63,-112.35 674.5,-112 823.84,-94.01 864.14,-94.22 1017.16,-76.13"/>
<polygon fill="midnightblue" stroke="midnightblue" points="1017.89,-79.57 1027.41,-74.91 1017.07,-72.61 1017.89,-79.57"/>
</g>
<!-- Node4 -->
<g id="node4" class="node">
<title>Node4</title>
<g id="a_node4"><a xlink:title=" ">
<polygon fill="white" stroke="#bfbfbf" points="0,-0.5 0,-19.5 53,-19.5 53,-0.5 0,-0.5"/>
<text text-anchor="middle" x="26.5" y="-7.5" font-family="Helvetica,sans-Serif" font-size="10.00">cstddef</text>
</a>
</g>
</g>
<!-- Node3&#45;&gt;Node4 -->
<g id="edge3" class="edge">
<title>Node3&#45;&gt;Node4</title>
<path fill="none" stroke="midnightblue" d="M183.87,-56.44C151.16,-47 98.46,-31.78 63.17,-21.59"/>
<polygon fill="midnightblue" stroke="midnightblue" points="63.84,-18.14 53.27,-18.73 61.9,-24.87 63.84,-18.14"/>
</g>
<!-- Node5 -->
<g id="node5" class="node">
<title>Node5</title>
<g id="a_node5"><a xlink:title=" ">
<polygon fill="white" stroke="#bfbfbf" points="71,-0.5 71,-19.5 212,-19.5 212,-0.5 71,-0.5"/>
<text text-anchor="middle" x="141.5" y="-7.5" font-family="Helvetica,sans-Serif" font-size="10.00">stk_mesh/base/Entity.hpp</text>
</a>
</g>
</g>
<!-- Node3&#45;&gt;Node5 -->
<g id="edge4" class="edge">
<title>Node3&#45;&gt;Node5</title>
<path fill="none" stroke="midnightblue" d="M201.93,-56.32C191.08,-48.18 174.62,-35.84 161.62,-26.09"/>
<polygon fill="midnightblue" stroke="midnightblue" points="163.38,-23.03 153.28,-19.83 159.18,-28.63 163.38,-23.03"/>
</g>
<!-- Node6 -->
<g id="node6" class="node">
<title>Node6</title>
<g id="a_node6"><a xlink:title=" ">
<polygon fill="white" stroke="#bfbfbf" points="230,-0.5 230,-19.5 343,-19.5 343,-0.5 230,-0.5"/>
<text text-anchor="middle" x="286.5" y="-7.5" font-family="Helvetica,sans-Serif" font-size="10.00">Kokkos_Macros.hpp</text>
</a>
</g>
</g>
<!-- Node3&#45;&gt;Node6 -->
<g id="edge5" class="edge">
<title>Node3&#45;&gt;Node6</title>
<path fill="none" stroke="midnightblue" d="M225.23,-56.32C236.34,-48.11 253.24,-35.6 266.48,-25.81"/>
<polygon fill="midnightblue" stroke="midnightblue" points="268.6,-28.59 274.56,-19.83 264.44,-22.97 268.6,-28.59"/>
</g>
<!-- Node7 -->
<g id="node7" class="node">
<title>Node7</title>
<g id="a_node7"><a xlink:title=" ">
<polygon fill="white" stroke="#bfbfbf" points="361.5,-0.5 361.5,-19.5 461.5,-19.5 461.5,-0.5 361.5,-0.5"/>
<text text-anchor="middle" x="411.5" y="-7.5" font-family="Helvetica,sans-Serif" font-size="10.00">Kokkos_Core.hpp</text>
</a>
</g>
</g>
<!-- Node3&#45;&gt;Node7 -->
<g id="edge6" class="edge">
<title>Node3&#45;&gt;Node7</title>
<path fill="none" stroke="midnightblue" d="M244.87,-56.44C278.76,-47.2 332.9,-32.44 370.22,-22.26"/>
<polygon fill="midnightblue" stroke="midnightblue" points="371.55,-25.52 380.27,-19.52 369.7,-18.77 371.55,-25.52"/>
</g>
</g>
</svg>
