<?xml version="1.0" encoding="UTF-8" standalone="no"?>
<!DOCTYPE svg PUBLIC "-//W3C//DTD SVG 1.1//EN"
 "http://www.w3.org/Graphics/SVG/1.1/DTD/svg11.dtd">
<!-- Generated by graphviz version 2.43.0 (0)
 -->
<!-- Title: LinearSolvers.C Pages: 1 -->
<!--zoomable 252 -->
<svg id="main" version="1.1" xmlns="http://www.w3.org/2000/svg" xmlns:xlink="http://www.w3.org/1999/xlink" xml:space="preserve" onload="init(evt)">
<style type="text/css"><![CDATA[
.edge:hover path { stroke: red; }
.edge:hover polygon { stroke: red; fill: red; }
]]></style>
<script type="text/javascript"><![CDATA[
var edges = document.getElementsByTagName('g');
if (edges && edges.length) {
  for (var i=0;i<edges.length;i++) {
    if (edges[i].id.substr(0,4)=='edge') {
      edges[i].setAttribute('class','edge');
    }
  }
}
]]></script>
        <defs>
                <circle id="rim" cx="0" cy="0" r="7"/>
                <circle id="rim2" cx="0" cy="0" r="3.5"/>
                <g id="zoomPlus">
                        <use xlink:href="#rim" fill="#404040">
                                <set attributeName="fill" to="#808080" begin="zoomplus.mouseover" end="zoomplus.mouseout"/>
                        </use>
                        <path d="M-4,0h8M0,-4v8" fill="none" stroke="white" stroke-width="1.5" pointer-events="none"/>
                </g>
                <g id="zoomMin">
                        <use xlink:href="#rim" fill="#404040">
                                <set attributeName="fill" to="#808080" begin="zoomminus.mouseover" end="zoomminus.mouseout"/>
                        </use>
                        <path d="M-4,0h8" fill="none" stroke="white" stroke-width="1.5" pointer-events="none"/>
                </g>
                <g id="dirArrow">
                        <path fill="none" stroke="white" stroke-width="1.5" d="M0,-3.0v7 M-2.5,-0.5L0,-3.0L2.5,-0.5"/>
                </g>
               <g id="resetDef">
                       <use xlink:href="#rim2" fill="#404040">
                               <set attributeName="fill" to="#808080" begin="reset.mouseover" end="reset.mouseout"/>
                       </use>
               </g>
        </defs>

<script type="text/javascript">
var viewWidth = 2739;
var viewHeight = 252;
var sectionId = 'dynsection-0';
</script>
<script xlink:href="svgpan.js"/>
<svg id="graph" class="graph">
<g id="viewport">
<title>LinearSolvers.C</title>
<polygon fill="white" stroke="transparent" points="-4,4 -4,-248 2735,-248 2735,4 -4,4"/>
<!-- Node1 -->
<g id="node1" class="node">
<title>Node1</title>
<g id="a_node1"><a xlink:title=" ">
<polygon fill="#bfbfbf" stroke="black" points="1028,-224.5 1028,-243.5 1120,-243.5 1120,-224.5 1028,-224.5"/>
<text text-anchor="middle" x="1074" y="-231.5" font-family="Helvetica,sans-Serif" font-size="10.00">LinearSolvers.C</text>
</a>
</g>
</g>
<!-- Node2 -->
<g id="node2" class="node">
<title>Node2</title>
<g id="a_node2"><a xlink:href="_linear_solvers_8h.html" target="_top" xlink:title=" ">
<polygon fill="white" stroke="black" points="0,-112.5 0,-131.5 92,-131.5 92,-112.5 0,-112.5"/>
<text text-anchor="middle" x="46" y="-119.5" font-family="Helvetica,sans-Serif" font-size="10.00">LinearSolvers.h</text>
</a>
</g>
</g>
<!-- Node1&#45;&gt;Node2 -->
<g id="edge1" class="edge">
<title>Node1&#45;&gt;Node2</title>
<path fill="none" stroke="midnightblue" d="M1027.86,-232.9C846.72,-232.24 190.02,-227.14 106,-188 84.33,-177.9 66.82,-156.05 56.43,-140.47"/>
<polygon fill="midnightblue" stroke="midnightblue" points="59.22,-138.32 50.91,-131.74 53.3,-142.06 59.22,-138.32"/>
</g>
<!-- Node6 -->
<g id="node6" class="node">
<title>Node6</title>
<g id="a_node6"><a xlink:title=" ">
<polygon fill="white" stroke="#bfbfbf" points="47.5,-56.5 47.5,-75.5 196.5,-75.5 196.5,-56.5 47.5,-56.5"/>
<text text-anchor="middle" x="122" y="-63.5" font-family="Helvetica,sans-Serif" font-size="10.00">Teuchos_ParameterList.hpp</text>
</a>
</g>
</g>
<!-- Node1&#45;&gt;Node6 -->
<g id="edge72" class="edge">
<title>Node1&#45;&gt;Node6</title>
<path fill="none" stroke="midnightblue" d="M1027.82,-232.82C864.31,-231.43 314.7,-220.15 167,-132 149,-121.26 136.46,-100.19 129.27,-84.95"/>
<polygon fill="midnightblue" stroke="midnightblue" points="132.36,-83.28 125.15,-75.52 125.95,-86.09 132.36,-83.28"/>
</g>
<!-- Node7 -->
<g id="node7" class="node">
<title>Node7</title>
<g id="a_node7"><a xlink:href="_linear_solver_8h.html" target="_top" xlink:title=" ">
<polygon fill="white" stroke="black" points="1800,-168.5 1800,-187.5 1886,-187.5 1886,-168.5 1800,-168.5"/>
<text text-anchor="middle" x="1843" y="-175.5" font-family="Helvetica,sans-Serif" font-size="10.00">LinearSolver.h</text>
</a>
</g>
</g>
<!-- Node1&#45;&gt;Node7 -->
<g id="edge8" class="edge">
<title>Node1&#45;&gt;Node7</title>
<path fill="none" stroke="midnightblue" d="M1120.09,-229.76C1254.6,-220.32 1646.19,-192.82 1789.59,-182.75"/>
<polygon fill="midnightblue" stroke="midnightblue" points="1790.15,-186.22 1799.88,-182.03 1789.66,-179.24 1790.15,-186.22"/>
</g>
<!-- Node20 -->
<g id="node20" class="node">
<title>Node20</title>
<g id="a_node20"><a xlink:href="_linear_solver_config_8h.html" target="_top" xlink:title=" ">
<polygon fill="white" stroke="black" points="1471.5,-112.5 1471.5,-131.5 1588.5,-131.5 1588.5,-112.5 1471.5,-112.5"/>
<text text-anchor="middle" x="1530" y="-119.5" font-family="Helvetica,sans-Serif" font-size="10.00">LinearSolverConfig.h</text>
</a>
</g>
</g>
<!-- Node1&#45;&gt;Node20 -->
<g id="edge29" class="edge">
<title>Node1&#45;&gt;Node20</title>
<path fill="none" stroke="midnightblue" d="M1120,-226.84C1171.38,-219.5 1256.8,-205.95 1329,-188 1389.41,-172.98 1458.07,-149.3 1497.48,-135.05"/>
<polygon fill="midnightblue" stroke="midnightblue" points="1498.89,-138.27 1507.09,-131.56 1496.49,-131.69 1498.89,-138.27"/>
</g>
<!-- Node25 -->
<g id="node25" class="node">
<title>Node25</title>
<g id="a_node25"><a xlink:href="_nalu_env_8h.html" target="_top" xlink:title=" ">
<polygon fill="white" stroke="black" points="1072.5,-112.5 1072.5,-131.5 1137.5,-131.5 1137.5,-112.5 1072.5,-112.5"/>
<text text-anchor="middle" x="1105" y="-119.5" font-family="Helvetica,sans-Serif" font-size="10.00">NaluEnv.h</text>
</a>
</g>
</g>
<!-- Node1&#45;&gt;Node25 -->
<g id="edge30" class="edge">
<title>Node1&#45;&gt;Node25</title>
<path fill="none" stroke="midnightblue" d="M1076.43,-224.37C1081.46,-206.54 1093.08,-165.3 1099.85,-141.27"/>
<polygon fill="midnightblue" stroke="midnightblue" points="1103.23,-142.17 1102.58,-131.59 1096.5,-140.27 1103.23,-142.17"/>
</g>
<!-- Node29 -->
<g id="node29" class="node">
<title>Node29</title>
<g id="a_node29"><a xlink:href="_nalu_parsing_8h.html" target="_top" xlink:title=" ">
<polygon fill="white" stroke="black" points="716.5,-168.5 716.5,-187.5 799.5,-187.5 799.5,-168.5 716.5,-168.5"/>
<text text-anchor="middle" x="758" y="-175.5" font-family="Helvetica,sans-Serif" font-size="10.00">NaluParsing.h</text>
</a>
</g>
</g>
<!-- Node1&#45;&gt;Node29 -->
<g id="edge34" class="edge">
<title>Node1&#45;&gt;Node29</title>
<path fill="none" stroke="midnightblue" d="M1027.71,-225.09C969.7,-215.18 870.54,-198.23 809.98,-187.88"/>
<polygon fill="midnightblue" stroke="midnightblue" points="810.31,-184.39 799.87,-186.15 809.13,-191.29 810.31,-184.39"/>
</g>
<!-- Node37 -->
<g id="node37" class="node">
<title>Node37</title>
<g id="a_node37"><a xlink:title=" ">
<polygon fill="white" stroke="#bfbfbf" points="902.5,-56.5 902.5,-75.5 1001.5,-75.5 1001.5,-56.5 902.5,-56.5"/>
<text text-anchor="middle" x="952" y="-63.5" font-family="Helvetica,sans-Serif" font-size="10.00">yaml&#45;cpp/yaml.h</text>
</a>
</g>
</g>
<!-- Node1&#45;&gt;Node37 -->
<g id="edge73" class="edge">
<title>Node1&#45;&gt;Node37</title>
<path fill="none" stroke="midnightblue" d="M1067.44,-224.08C1047.9,-197.49 989.88,-118.54 964.32,-83.76"/>
<polygon fill="midnightblue" stroke="midnightblue" points="967.04,-81.55 958.3,-75.57 961.4,-85.7 967.04,-81.55"/>
</g>
<!-- Node39 -->
<g id="node39" class="node">
<title>Node39</title>
<g id="a_node39"><a xlink:href="_simulation_8h.html" target="_top" xlink:title=" ">
<polygon fill="white" stroke="black" points="1242,-168.5 1242,-187.5 1320,-187.5 1320,-168.5 1242,-168.5"/>
<text text-anchor="middle" x="1281" y="-175.5" font-family="Helvetica,sans-Serif" font-size="10.00">Simulation.h</text>
</a>
</g>
</g>
<!-- Node1&#45;&gt;Node39 -->
<g id="edge68" class="edge">
<title>Node1&#45;&gt;Node39</title>
<path fill="none" stroke="midnightblue" d="M1106.8,-224.44C1142.38,-215.16 1199.31,-200.31 1238.35,-190.13"/>
<polygon fill="midnightblue" stroke="midnightblue" points="1239.56,-193.43 1248.35,-187.52 1237.79,-186.65 1239.56,-193.43"/>
</g>
<!-- Node3 -->
<g id="node3" class="node">
<title>Node3</title>
<g id="a_node3"><a xlink:href="_enums_8h.html" target="_top" xlink:title=" ">
<polygon fill="white" stroke="black" points="252.5,-56.5 252.5,-75.5 311.5,-75.5 311.5,-56.5 252.5,-56.5"/>
<text text-anchor="middle" x="282" y="-63.5" font-family="Helvetica,sans-Serif" font-size="10.00">Enums.h</text>
</a>
</g>
</g>
<!-- Node2&#45;&gt;Node3 -->
<g id="edge2" class="edge">
<title>Node2&#45;&gt;Node3</title>
<path fill="none" stroke="midnightblue" d="M83.39,-112.44C126.8,-102.51 198.09,-86.2 242.41,-76.06"/>
<polygon fill="midnightblue" stroke="midnightblue" points="243.29,-79.45 252.25,-73.81 241.72,-72.63 243.29,-79.45"/>
</g>
<!-- Node4 -->
<g id="node4" class="node">
<title>Node4</title>
<g id="a_node4"><a xlink:title=" ">
<polygon fill="white" stroke="#bfbfbf" points="546,-0.5 546,-19.5 590,-19.5 590,-0.5 546,-0.5"/>
<text text-anchor="middle" x="568" y="-7.5" font-family="Helvetica,sans-Serif" font-size="10.00">string</text>
</a>
</g>
</g>
<!-- Node2&#45;&gt;Node4 -->
<g id="edge7" class="edge">
<title>Node2&#45;&gt;Node4</title>
<path fill="none" stroke="midnightblue" d="M41.1,-112.12C34.17,-98.25 23.85,-71.41 38,-56 54.93,-37.57 423.16,-18.09 535.65,-12.55"/>
<polygon fill="midnightblue" stroke="midnightblue" points="535.9,-16.04 545.72,-12.06 535.56,-9.05 535.9,-16.04"/>
</g>
<!-- Node5 -->
<g id="node5" class="node">
<title>Node5</title>
<g id="a_node5"><a xlink:title=" ">
<polygon fill="white" stroke="#bfbfbf" points="263,-0.5 263,-19.5 301,-19.5 301,-0.5 263,-0.5"/>
<text text-anchor="middle" x="282" y="-7.5" font-family="Helvetica,sans-Serif" font-size="10.00">map</text>
</a>
</g>
</g>
<!-- Node2&#45;&gt;Node5 -->
<g id="edge6" class="edge">
<title>Node2&#45;&gt;Node5</title>
<path fill="none" stroke="midnightblue" d="M33.99,-112.45C17.19,-99.48 -9.62,-74.37 6,-56 37.44,-19.02 188.11,-12.36 252.61,-11.21"/>
<polygon fill="midnightblue" stroke="midnightblue" points="252.95,-14.7 262.89,-11.06 252.85,-7.71 252.95,-14.7"/>
</g>
<!-- Node2&#45;&gt;Node6 -->
<g id="edge5" class="edge">
<title>Node2&#45;&gt;Node6</title>
<path fill="none" stroke="midnightblue" d="M58.21,-112.32C69.78,-104.11 87.38,-91.6 101.16,-81.81"/>
<polygon fill="midnightblue" stroke="midnightblue" points="103.44,-84.48 109.57,-75.83 99.39,-78.77 103.44,-84.48"/>
</g>
<!-- Node3&#45;&gt;Node4 -->
<g id="edge3" class="edge">
<title>Node3&#45;&gt;Node4</title>
<path fill="none" stroke="midnightblue" d="M311.81,-58.83C316.55,-57.87 321.41,-56.9 326,-56 401.1,-41.34 489.53,-25.17 535.91,-16.78"/>
<polygon fill="midnightblue" stroke="midnightblue" points="536.73,-20.19 545.95,-14.96 535.49,-13.3 536.73,-20.19"/>
</g>
<!-- Node3&#45;&gt;Node5 -->
<g id="edge4" class="edge">
<title>Node3&#45;&gt;Node5</title>
<path fill="none" stroke="midnightblue" d="M282,-56.08C282,-49.01 282,-38.86 282,-29.99"/>
<polygon fill="midnightblue" stroke="midnightblue" points="285.5,-29.75 282,-19.75 278.5,-29.75 285.5,-29.75"/>
</g>
<!-- Node8 -->
<g id="node8" class="node">
<title>Node8</title>
<g id="a_node8"><a xlink:href="_linear_solver_types_8h.html" target="_top" xlink:title=" ">
<polygon fill="white" stroke="black" points="2070,-112.5 2070,-131.5 2184,-131.5 2184,-112.5 2070,-112.5"/>
<text text-anchor="middle" x="2127" y="-119.5" font-family="Helvetica,sans-Serif" font-size="10.00">LinearSolverTypes.h</text>
</a>
</g>
</g>
<!-- Node7&#45;&gt;Node8 -->
<g id="edge9" class="edge">
<title>Node7&#45;&gt;Node8</title>
<path fill="none" stroke="midnightblue" d="M1886.13,-168.8C1935.84,-159.35 2017.64,-143.79 2071.92,-133.47"/>
<polygon fill="midnightblue" stroke="midnightblue" points="2072.88,-136.85 2082.05,-131.55 2071.57,-129.98 2072.88,-136.85"/>
</g>
<!-- Node13 -->
<g id="node13" class="node">
<title>Node13</title>
<g id="a_node13"><a xlink:title=" ">
<polygon fill="white" stroke="#bfbfbf" points="1793,-0.5 1793,-19.5 1893,-19.5 1893,-0.5 1793,-0.5"/>
<text text-anchor="middle" x="1843" y="-7.5" font-family="Helvetica,sans-Serif" font-size="10.00">Kokkos_Core.hpp</text>
</a>
</g>
</g>
<!-- Node7&#45;&gt;Node13 -->
<g id="edge25" class="edge">
<title>Node7&#45;&gt;Node13</title>
<path fill="none" stroke="midnightblue" d="M1843,-168.08C1843,-141.95 1843,-65.21 1843,-29.58"/>
<polygon fill="midnightblue" stroke="midnightblue" points="1846.5,-29.57 1843,-19.57 1839.5,-29.57 1846.5,-29.57"/>
</g>
<!-- Node7&#45;&gt;Node20 -->
<g id="edge21" class="edge">
<title>Node7&#45;&gt;Node20</title>
<path fill="none" stroke="midnightblue" d="M1799.81,-169.55C1745.16,-160.12 1650.78,-143.84 1589.39,-133.25"/>
<polygon fill="midnightblue" stroke="midnightblue" points="1589.9,-129.78 1579.45,-131.53 1588.71,-136.68 1589.9,-129.78"/>
</g>
<!-- Node22 -->
<g id="node22" class="node">
<title>Node22</title>
<g id="a_node22"><a xlink:title=" ">
<polygon fill="white" stroke="#bfbfbf" points="2202.5,-112.5 2202.5,-131.5 2371.5,-131.5 2371.5,-112.5 2202.5,-112.5"/>
<text text-anchor="middle" x="2287" y="-119.5" font-family="Helvetica,sans-Serif" font-size="10.00">Teuchos_GlobalMPISession.hpp</text>
</a>
</g>
</g>
<!-- Node7&#45;&gt;Node22 -->
<g id="edge26" class="edge">
<title>Node7&#45;&gt;Node22</title>
<path fill="none" stroke="midnightblue" d="M1886.38,-171.72C1960.59,-162.7 2112.99,-144.16 2206.95,-132.74"/>
<polygon fill="midnightblue" stroke="midnightblue" points="2207.48,-136.2 2216.98,-131.52 2206.63,-129.25 2207.48,-136.2"/>
</g>
<!-- Node23 -->
<g id="node23" class="node">
<title>Node23</title>
<g id="a_node23"><a xlink:title=" ">
<polygon fill="white" stroke="#bfbfbf" points="1645,-112.5 1645,-131.5 1815,-131.5 1815,-112.5 1645,-112.5"/>
<text text-anchor="middle" x="1730" y="-119.5" font-family="Helvetica,sans-Serif" font-size="10.00">Teuchos_oblackholestream.hpp</text>
</a>
</g>
</g>
<!-- Node7&#45;&gt;Node23 -->
<g id="edge27" class="edge">
<title>Node7&#45;&gt;Node23</title>
<path fill="none" stroke="midnightblue" d="M1825.09,-168.44C1806.75,-159.68 1777.99,-145.94 1756.91,-135.86"/>
<polygon fill="midnightblue" stroke="midnightblue" points="1758.35,-132.67 1747.82,-131.52 1755.33,-138.99 1758.35,-132.67"/>
</g>
<!-- Node24 -->
<g id="node24" class="node">
<title>Node24</title>
<g id="a_node24"><a xlink:title=" ">
<polygon fill="white" stroke="#bfbfbf" points="1871,-112.5 1871,-131.5 1915,-131.5 1915,-112.5 1871,-112.5"/>
<text text-anchor="middle" x="1893" y="-119.5" font-family="Helvetica,sans-Serif" font-size="10.00">limits</text>
</a>
</g>
</g>
<!-- Node7&#45;&gt;Node24 -->
<g id="edge28" class="edge">
<title>Node7&#45;&gt;Node24</title>
<path fill="none" stroke="midnightblue" d="M1851.26,-168.08C1858.46,-160.3 1869.11,-148.8 1877.85,-139.37"/>
<polygon fill="midnightblue" stroke="midnightblue" points="1880.67,-141.47 1884.9,-131.75 1875.53,-136.71 1880.67,-141.47"/>
</g>
<!-- Node9 -->
<g id="node9" class="node">
<title>Node9</title>
<g id="a_node9"><a xlink:href="_kokkos_interface_8h.html" target="_top" xlink:title=" ">
<polygon fill="white" stroke="black" points="1625,-56.5 1625,-75.5 1729,-75.5 1729,-56.5 1625,-56.5"/>
<text text-anchor="middle" x="1677" y="-63.5" font-family="Helvetica,sans-Serif" font-size="10.00">KokkosInterface.h</text>
</a>
</g>
</g>
<!-- Node8&#45;&gt;Node9 -->
<g id="edge10" class="edge">
<title>Node8&#45;&gt;Node9</title>
<path fill="none" stroke="midnightblue" d="M2069.55,-114.11C1984.76,-103.93 1826.75,-84.97 1739.28,-74.47"/>
<polygon fill="midnightblue" stroke="midnightblue" points="1739.57,-70.98 1729.23,-73.27 1738.74,-77.93 1739.57,-70.98"/>
</g>
<!-- Node14 -->
<g id="node14" class="node">
<title>Node14</title>
<g id="a_node14"><a xlink:title=" ">
<polygon fill="white" stroke="#bfbfbf" points="1871,-56.5 1871,-75.5 2049,-75.5 2049,-56.5 1871,-56.5"/>
<text text-anchor="middle" x="1960" y="-63.5" font-family="Helvetica,sans-Serif" font-size="10.00">Tpetra_Details_DefaultTypes.hpp</text>
</a>
</g>
</g>
<!-- Node8&#45;&gt;Node14 -->
<g id="edge15" class="edge">
<title>Node8&#45;&gt;Node14</title>
<path fill="none" stroke="midnightblue" d="M2100.54,-112.44C2072.32,-103.32 2027.46,-88.81 1996.03,-78.65"/>
<polygon fill="midnightblue" stroke="midnightblue" points="1996.93,-75.26 1986.34,-75.52 1994.78,-81.92 1996.93,-75.26"/>
</g>
<!-- Node15 -->
<g id="node15" class="node">
<title>Node15</title>
<g id="a_node15"><a xlink:title=" ">
<polygon fill="white" stroke="#bfbfbf" points="2067.5,-56.5 2067.5,-75.5 2186.5,-75.5 2186.5,-56.5 2067.5,-56.5"/>
<text text-anchor="middle" x="2127" y="-63.5" font-family="Helvetica,sans-Serif" font-size="10.00">Tpetra_CrsGraph.hpp</text>
</a>
</g>
</g>
<!-- Node8&#45;&gt;Node15 -->
<g id="edge16" class="edge">
<title>Node8&#45;&gt;Node15</title>
<path fill="none" stroke="midnightblue" d="M2127,-112.08C2127,-105.01 2127,-94.86 2127,-85.99"/>
<polygon fill="midnightblue" stroke="midnightblue" points="2130.5,-85.75 2127,-75.75 2123.5,-85.75 2130.5,-85.75"/>
</g>
<!-- Node16 -->
<g id="node16" class="node">
<title>Node16</title>
<g id="a_node16"><a xlink:title=" ">
<polygon fill="white" stroke="#bfbfbf" points="2205,-56.5 2205,-75.5 2327,-75.5 2327,-56.5 2205,-56.5"/>
<text text-anchor="middle" x="2266" y="-63.5" font-family="Helvetica,sans-Serif" font-size="10.00">Tpetra_CrsMatrix.hpp</text>
</a>
</g>
</g>
<!-- Node8&#45;&gt;Node16 -->
<g id="edge17" class="edge">
<title>Node8&#45;&gt;Node16</title>
<path fill="none" stroke="midnightblue" d="M2149.02,-112.44C2172.1,-103.48 2208.56,-89.31 2234.64,-79.18"/>
<polygon fill="midnightblue" stroke="midnightblue" points="2236.02,-82.4 2244.08,-75.52 2233.49,-75.88 2236.02,-82.4"/>
</g>
<!-- Node17 -->
<g id="node17" class="node">
<title>Node17</title>
<g id="a_node17"><a xlink:title=" ">
<polygon fill="white" stroke="#bfbfbf" points="2345,-56.5 2345,-75.5 2449,-75.5 2449,-56.5 2345,-56.5"/>
<text text-anchor="middle" x="2397" y="-63.5" font-family="Helvetica,sans-Serif" font-size="10.00">Tpetra_Vector.hpp</text>
</a>
</g>
</g>
<!-- Node8&#45;&gt;Node17 -->
<g id="edge18" class="edge">
<title>Node8&#45;&gt;Node17</title>
<path fill="none" stroke="midnightblue" d="M2169.78,-112.44C2217.18,-102.96 2293.63,-87.67 2344.58,-77.48"/>
<polygon fill="midnightblue" stroke="midnightblue" points="2345.3,-80.91 2354.42,-75.52 2343.93,-74.05 2345.3,-80.91"/>
</g>
<!-- Node18 -->
<g id="node18" class="node">
<title>Node18</title>
<g id="a_node18"><a xlink:title=" ">
<polygon fill="white" stroke="#bfbfbf" points="2467.5,-56.5 2467.5,-75.5 2596.5,-75.5 2596.5,-56.5 2467.5,-56.5"/>
<text text-anchor="middle" x="2532" y="-63.5" font-family="Helvetica,sans-Serif" font-size="10.00">Tpetra_MultiVector.hpp</text>
</a>
</g>
</g>
<!-- Node8&#45;&gt;Node18 -->
<g id="edge19" class="edge">
<title>Node8&#45;&gt;Node18</title>
<path fill="none" stroke="midnightblue" d="M2184.02,-113.34C2187.4,-112.88 2190.74,-112.44 2194,-112 2284.69,-99.87 2389.08,-85.98 2457.57,-76.88"/>
<polygon fill="midnightblue" stroke="midnightblue" points="2458.38,-80.31 2467.83,-75.52 2457.46,-73.37 2458.38,-80.31"/>
</g>
<!-- Node19 -->
<g id="node19" class="node">
<title>Node19</title>
<g id="a_node19"><a xlink:title=" ">
<polygon fill="white" stroke="#bfbfbf" points="2615,-56.5 2615,-75.5 2731,-75.5 2731,-56.5 2615,-56.5"/>
<text text-anchor="middle" x="2673" y="-63.5" font-family="Helvetica,sans-Serif" font-size="10.00">Tpetra_Operator.hpp</text>
</a>
</g>
</g>
<!-- Node8&#45;&gt;Node19 -->
<g id="edge20" class="edge">
<title>Node8&#45;&gt;Node19</title>
<path fill="none" stroke="midnightblue" d="M2184.36,-113.12C2187.62,-112.72 2190.85,-112.35 2194,-112 2373.48,-92.11 2421.63,-96.09 2604.94,-76.07"/>
<polygon fill="midnightblue" stroke="midnightblue" points="2605.36,-79.54 2614.92,-74.97 2604.59,-72.59 2605.36,-79.54"/>
</g>
<!-- Node10 -->
<g id="node10" class="node">
<title>Node10</title>
<g id="a_node10"><a xlink:title=" ">
<polygon fill="white" stroke="#bfbfbf" points="1562.5,-0.5 1562.5,-19.5 1615.5,-19.5 1615.5,-0.5 1562.5,-0.5"/>
<text text-anchor="middle" x="1589" y="-7.5" font-family="Helvetica,sans-Serif" font-size="10.00">cstddef</text>
</a>
</g>
</g>
<!-- Node9&#45;&gt;Node10 -->
<g id="edge11" class="edge">
<title>Node9&#45;&gt;Node10</title>
<path fill="none" stroke="midnightblue" d="M1662.86,-56.32C1649.13,-47.9 1628.06,-34.97 1611.94,-25.07"/>
<polygon fill="midnightblue" stroke="midnightblue" points="1613.46,-21.9 1603.1,-19.65 1609.8,-27.87 1613.46,-21.9"/>
</g>
<!-- Node11 -->
<g id="node11" class="node">
<title>Node11</title>
<g id="a_node11"><a xlink:title=" ">
<polygon fill="white" stroke="#bfbfbf" points="1633.5,-0.5 1633.5,-19.5 1774.5,-19.5 1774.5,-0.5 1633.5,-0.5"/>
<text text-anchor="middle" x="1704" y="-7.5" font-family="Helvetica,sans-Serif" font-size="10.00">stk_mesh/base/Entity.hpp</text>
</a>
</g>
</g>
<!-- Node9&#45;&gt;Node11 -->
<g id="edge12" class="edge">
<title>Node9&#45;&gt;Node11</title>
<path fill="none" stroke="midnightblue" d="M1681.46,-56.08C1685.15,-48.69 1690.52,-37.95 1695.09,-28.81"/>
<polygon fill="midnightblue" stroke="midnightblue" points="1698.28,-30.26 1699.62,-19.75 1692.02,-27.13 1698.28,-30.26"/>
</g>
<!-- Node12 -->
<g id="node12" class="node">
<title>Node12</title>
<g id="a_node12"><a xlink:title=" ">
<polygon fill="white" stroke="#bfbfbf" points="1431.5,-0.5 1431.5,-19.5 1544.5,-19.5 1544.5,-0.5 1431.5,-0.5"/>
<text text-anchor="middle" x="1488" y="-7.5" font-family="Helvetica,sans-Serif" font-size="10.00">Kokkos_Macros.hpp</text>
</a>
</g>
</g>
<!-- Node9&#45;&gt;Node12 -->
<g id="edge13" class="edge">
<title>Node9&#45;&gt;Node12</title>
<path fill="none" stroke="midnightblue" d="M1647.05,-56.44C1614.84,-47.24 1563.47,-32.56 1527.86,-22.39"/>
<polygon fill="midnightblue" stroke="midnightblue" points="1528.38,-18.9 1517.81,-19.52 1526.46,-25.63 1528.38,-18.9"/>
</g>
<!-- Node9&#45;&gt;Node13 -->
<g id="edge14" class="edge">
<title>Node9&#45;&gt;Node13</title>
<path fill="none" stroke="midnightblue" d="M1703.3,-56.44C1731.35,-47.32 1775.94,-32.81 1807.18,-22.65"/>
<polygon fill="midnightblue" stroke="midnightblue" points="1808.39,-25.94 1816.82,-19.52 1806.23,-19.28 1808.39,-25.94"/>
</g>
<!-- Node20&#45;&gt;Node4 -->
<g id="edge22" class="edge">
<title>Node20&#45;&gt;Node4</title>
<path fill="none" stroke="midnightblue" d="M1497.98,-112.42C1443.56,-98.2 1329.35,-69.95 1231,-56 990.4,-21.87 696.89,-13.44 600.42,-11.52"/>
<polygon fill="midnightblue" stroke="midnightblue" points="600.22,-8.02 590.16,-11.33 600.09,-15.02 600.22,-8.02"/>
</g>
<!-- Node20&#45;&gt;Node6 -->
<g id="edge23" class="edge">
<title>Node20&#45;&gt;Node6</title>
<path fill="none" stroke="midnightblue" d="M1471.44,-112.86C1468.25,-112.54 1465.09,-112.25 1462,-112 921.74,-68.38 784.28,-104.11 243,-76 231.25,-75.39 218.87,-74.62 206.68,-73.78"/>
<polygon fill="midnightblue" stroke="midnightblue" points="206.74,-70.28 196.52,-73.07 206.25,-77.26 206.74,-70.28"/>
</g>
<!-- Node21 -->
<g id="node21" class="node">
<title>Node21</title>
<g id="a_node21"><a xlink:title=" ">
<polygon fill="white" stroke="#bfbfbf" points="1480,-56.5 1480,-75.5 1580,-75.5 1580,-56.5 1480,-56.5"/>
<text text-anchor="middle" x="1530" y="-63.5" font-family="Helvetica,sans-Serif" font-size="10.00">Teuchos_RCP.hpp</text>
</a>
</g>
</g>
<!-- Node20&#45;&gt;Node21 -->
<g id="edge24" class="edge">
<title>Node20&#45;&gt;Node21</title>
<path fill="none" stroke="midnightblue" d="M1530,-112.08C1530,-105.01 1530,-94.86 1530,-85.99"/>
<polygon fill="midnightblue" stroke="midnightblue" points="1533.5,-85.75 1530,-75.75 1526.5,-85.75 1533.5,-85.75"/>
</g>
<!-- Node26 -->
<g id="node26" class="node">
<title>Node26</title>
<g id="a_node26"><a xlink:title=" ">
<polygon fill="white" stroke="#bfbfbf" points="1093,-56.5 1093,-75.5 1137,-75.5 1137,-56.5 1093,-56.5"/>
<text text-anchor="middle" x="1115" y="-63.5" font-family="Helvetica,sans-Serif" font-size="10.00">mpi.h</text>
</a>
</g>
</g>
<!-- Node25&#45;&gt;Node26 -->
<g id="edge31" class="edge">
<title>Node25&#45;&gt;Node26</title>
<path fill="none" stroke="midnightblue" d="M1106.65,-112.08C1107.98,-104.93 1109.88,-94.64 1111.54,-85.69"/>
<polygon fill="midnightblue" stroke="midnightblue" points="1115,-86.22 1113.38,-75.75 1108.12,-84.95 1115,-86.22"/>
</g>
<!-- Node27 -->
<g id="node27" class="node">
<title>Node27</title>
<g id="a_node27"><a xlink:title=" ">
<polygon fill="white" stroke="#bfbfbf" points="1019.5,-56.5 1019.5,-75.5 1074.5,-75.5 1074.5,-56.5 1019.5,-56.5"/>
<text text-anchor="middle" x="1047" y="-63.5" font-family="Helvetica,sans-Serif" font-size="10.00">fstream</text>
</a>
</g>
</g>
<!-- Node25&#45;&gt;Node27 -->
<g id="edge32" class="edge">
<title>Node25&#45;&gt;Node27</title>
<path fill="none" stroke="midnightblue" d="M1095.68,-112.32C1087.11,-104.34 1074.19,-92.31 1063.81,-82.65"/>
<polygon fill="midnightblue" stroke="midnightblue" points="1066.19,-80.09 1056.49,-75.83 1061.42,-85.21 1066.19,-80.09"/>
</g>
<!-- Node28 -->
<g id="node28" class="node">
<title>Node28</title>
<g id="a_node28"><a xlink:title=" ">
<polygon fill="white" stroke="#bfbfbf" points="1155.5,-56.5 1155.5,-75.5 1222.5,-75.5 1222.5,-56.5 1155.5,-56.5"/>
<text text-anchor="middle" x="1189" y="-63.5" font-family="Helvetica,sans-Serif" font-size="10.00">streambuf</text>
</a>
</g>
</g>
<!-- Node25&#45;&gt;Node28 -->
<g id="edge33" class="edge">
<title>Node25&#45;&gt;Node28</title>
<path fill="none" stroke="midnightblue" d="M1118.5,-112.32C1131.6,-103.9 1151.71,-90.97 1167.11,-81.07"/>
<polygon fill="midnightblue" stroke="midnightblue" points="1169.02,-84.01 1175.54,-75.65 1165.23,-78.12 1169.02,-84.01"/>
</g>
<!-- Node29&#45;&gt;Node3 -->
<g id="edge41" class="edge">
<title>Node29&#45;&gt;Node3</title>
<path fill="none" stroke="midnightblue" d="M716.09,-176.96C588.85,-176.4 213.46,-171.4 177,-132 153,-106.07 203.4,-86.59 242.36,-76"/>
<polygon fill="midnightblue" stroke="midnightblue" points="243.67,-79.28 252.47,-73.38 241.91,-72.5 243.67,-79.28"/>
</g>
<!-- Node29&#45;&gt;Node4 -->
<g id="edge66" class="edge">
<title>Node29&#45;&gt;Node4</title>
<path fill="none" stroke="midnightblue" d="M757.09,-168.33C755.38,-155.2 750.72,-129.9 739,-112 706.35,-62.1 639.77,-33.53 600.01,-20.24"/>
<polygon fill="midnightblue" stroke="midnightblue" points="600.86,-16.84 590.27,-17.11 598.72,-23.5 600.86,-16.84"/>
</g>
<!-- Node29&#45;&gt;Node25 -->
<g id="edge62" class="edge">
<title>Node29&#45;&gt;Node25</title>
<path fill="none" stroke="midnightblue" d="M799.51,-170.54C865.77,-160.23 994.77,-140.15 1061.97,-129.7"/>
<polygon fill="midnightblue" stroke="midnightblue" points="1062.86,-133.1 1072.21,-128.1 1061.79,-126.18 1062.86,-133.1"/>
</g>
<!-- Node29&#45;&gt;Node27 -->
<g id="edge65" class="edge">
<title>Node29&#45;&gt;Node27</title>
<path fill="none" stroke="midnightblue" d="M799.51,-173.81C843.06,-169.18 912.62,-158.08 967,-132 992.32,-119.86 1016.66,-98.17 1031.71,-83.21"/>
<polygon fill="midnightblue" stroke="midnightblue" points="1034.57,-85.29 1039.06,-75.69 1029.57,-80.4 1034.57,-85.29"/>
</g>
<!-- Node30 -->
<g id="node30" class="node">
<title>Node30</title>
<g id="a_node30"><a xlink:href="_boundary_conditions_8h.html" target="_top" xlink:title=" ">
<polygon fill="white" stroke="black" points="318,-112.5 318,-131.5 442,-131.5 442,-112.5 318,-112.5"/>
<text text-anchor="middle" x="380" y="-119.5" font-family="Helvetica,sans-Serif" font-size="10.00">BoundaryConditions.h</text>
</a>
</g>
</g>
<!-- Node29&#45;&gt;Node30 -->
<g id="edge35" class="edge">
<title>Node29&#45;&gt;Node30</title>
<path fill="none" stroke="midnightblue" d="M716.47,-171.07C652.23,-161.89 528.03,-144.15 449.82,-132.97"/>
<polygon fill="midnightblue" stroke="midnightblue" points="449.97,-129.46 439.58,-131.51 448.98,-136.39 449.97,-129.46"/>
</g>
<!-- Node31 -->
<g id="node31" class="node">
<title>Node31</title>
<g id="a_node31"><a xlink:title=" ">
<polygon fill="white" stroke="#bfbfbf" points="596.5,-56.5 596.5,-75.5 643.5,-75.5 643.5,-56.5 596.5,-56.5"/>
<text text-anchor="middle" x="620" y="-63.5" font-family="Helvetica,sans-Serif" font-size="10.00">vector</text>
</a>
</g>
</g>
<!-- Node29&#45;&gt;Node31 -->
<g id="edge67" class="edge">
<title>Node29&#45;&gt;Node31</title>
<path fill="none" stroke="midnightblue" d="M716.41,-176.64C682.51,-173.88 636.53,-163.94 613,-132 603.13,-118.6 606.86,-99.23 611.85,-85.12"/>
<polygon fill="midnightblue" stroke="midnightblue" points="615.22,-86.13 615.71,-75.54 608.73,-83.51 615.22,-86.13"/>
</g>
<!-- Node33 -->
<g id="node33" class="node">
<title>Node33</title>
<g id="a_node33"><a xlink:href="_initial_conditions_8h.html" target="_top" xlink:title=" ">
<polygon fill="white" stroke="black" points="460.5,-112.5 460.5,-131.5 565.5,-131.5 565.5,-112.5 460.5,-112.5"/>
<text text-anchor="middle" x="513" y="-119.5" font-family="Helvetica,sans-Serif" font-size="10.00">InitialConditions.h</text>
</a>
</g>
</g>
<!-- Node29&#45;&gt;Node33 -->
<g id="edge42" class="edge">
<title>Node29&#45;&gt;Node33</title>
<path fill="none" stroke="midnightblue" d="M719.18,-168.44C676.44,-159.02 607.67,-143.87 561.43,-133.68"/>
<polygon fill="midnightblue" stroke="midnightblue" points="562.16,-130.25 551.64,-131.52 560.65,-137.09 562.16,-130.25"/>
</g>
<!-- Node34 -->
<g id="node34" class="node">
<title>Node34</title>
<g id="a_node34"><a xlink:href="_material_propertys_8h.html" target="_top" xlink:title=" ">
<polygon fill="white" stroke="black" points="186.5,-112.5 186.5,-131.5 299.5,-131.5 299.5,-112.5 186.5,-112.5"/>
<text text-anchor="middle" x="243" y="-119.5" font-family="Helvetica,sans-Serif" font-size="10.00">MaterialPropertys.h</text>
</a>
</g>
</g>
<!-- Node29&#45;&gt;Node34 -->
<g id="edge48" class="edge">
<title>Node29&#45;&gt;Node34</title>
<path fill="none" stroke="midnightblue" d="M716.47,-173.34C638.88,-166.38 466.39,-150.42 309.8,-132.05"/>
<polygon fill="midnightblue" stroke="midnightblue" points="309.85,-128.54 299.51,-130.84 309.03,-135.49 309.85,-128.54"/>
</g>
<!-- Node35 -->
<g id="node35" class="node">
<title>Node35</title>
<g id="a_node35"><a xlink:href="_nalu_parsed_types_8h.html" target="_top" xlink:title=" ">
<polygon fill="white" stroke="black" points="622,-112.5 622,-131.5 730,-131.5 730,-112.5 622,-112.5"/>
<text text-anchor="middle" x="676" y="-119.5" font-family="Helvetica,sans-Serif" font-size="10.00">NaluParsedTypes.h</text>
</a>
</g>
</g>
<!-- Node29&#45;&gt;Node35 -->
<g id="edge53" class="edge">
<title>Node29&#45;&gt;Node35</title>
<path fill="none" stroke="midnightblue" d="M744.83,-168.32C732.15,-159.98 712.77,-147.21 697.79,-137.35"/>
<polygon fill="midnightblue" stroke="midnightblue" points="699.42,-134.23 689.14,-131.65 695.57,-140.08 699.42,-134.23"/>
</g>
<!-- Node36 -->
<g id="node36" class="node">
<title>Node36</title>
<g id="a_node36"><a xlink:href="_nalu_parsing_helper_8h.html" target="_top" xlink:title=" ">
<polygon fill="white" stroke="black" points="824.5,-112.5 824.5,-131.5 939.5,-131.5 939.5,-112.5 824.5,-112.5"/>
<text text-anchor="middle" x="882" y="-119.5" font-family="Helvetica,sans-Serif" font-size="10.00">NaluParsingHelper.h</text>
</a>
</g>
</g>
<!-- Node29&#45;&gt;Node36 -->
<g id="edge56" class="edge">
<title>Node29&#45;&gt;Node36</title>
<path fill="none" stroke="midnightblue" d="M777.65,-168.44C797.96,-159.6 829.9,-145.69 853.1,-135.59"/>
<polygon fill="midnightblue" stroke="midnightblue" points="854.67,-138.72 862.44,-131.52 851.88,-132.3 854.67,-138.72"/>
</g>
<!-- Node29&#45;&gt;Node37 -->
<g id="edge63" class="edge">
<title>Node29&#45;&gt;Node37</title>
<path fill="none" stroke="midnightblue" d="M799.88,-172.85C849.91,-166.95 929.22,-154.3 948,-132 958.57,-119.44 958.44,-100.22 956.34,-85.94"/>
<polygon fill="midnightblue" stroke="midnightblue" points="959.71,-84.93 954.41,-75.76 952.84,-86.23 959.71,-84.93"/>
</g>
<!-- Node38 -->
<g id="node38" class="node">
<title>Node38</title>
<g id="a_node38"><a xlink:title=" ">
<polygon fill="white" stroke="#bfbfbf" points="786,-56.5 786,-75.5 846,-75.5 846,-56.5 786,-56.5"/>
<text text-anchor="middle" x="816" y="-63.5" font-family="Helvetica,sans-Serif" font-size="10.00">iostream</text>
</a>
</g>
</g>
<!-- Node29&#45;&gt;Node38 -->
<g id="edge64" class="edge">
<title>Node29&#45;&gt;Node38</title>
<path fill="none" stroke="midnightblue" d="M762.55,-168.37C772.04,-150.38 794.09,-108.55 806.71,-84.63"/>
<polygon fill="midnightblue" stroke="midnightblue" points="809.9,-86.07 811.47,-75.59 803.71,-82.8 809.9,-86.07"/>
</g>
<!-- Node30&#45;&gt;Node3 -->
<g id="edge36" class="edge">
<title>Node30&#45;&gt;Node3</title>
<path fill="none" stroke="midnightblue" d="M364.25,-112.32C348.68,-103.74 324.62,-90.49 306.54,-80.52"/>
<polygon fill="midnightblue" stroke="midnightblue" points="308.15,-77.42 297.71,-75.65 304.78,-83.55 308.15,-77.42"/>
</g>
<!-- Node30&#45;&gt;Node4 -->
<g id="edge38" class="edge">
<title>Node30&#45;&gt;Node4</title>
<path fill="none" stroke="midnightblue" d="M385.27,-112.1C393.94,-98.19 412.51,-71.3 435,-56 465.87,-35 507.42,-23.02 535.81,-16.78"/>
<polygon fill="midnightblue" stroke="midnightblue" points="536.56,-20.2 545.64,-14.74 535.13,-13.35 536.56,-20.2"/>
</g>
<!-- Node30&#45;&gt;Node5 -->
<g id="edge37" class="edge">
<title>Node30&#45;&gt;Node5</title>
<path fill="none" stroke="midnightblue" d="M372.31,-112.37C355.99,-94.05 317.68,-51.05 296.58,-27.36"/>
<polygon fill="midnightblue" stroke="midnightblue" points="298.92,-24.73 289.65,-19.59 293.69,-29.39 298.92,-24.73"/>
</g>
<!-- Node30&#45;&gt;Node31 -->
<g id="edge39" class="edge">
<title>Node30&#45;&gt;Node31</title>
<path fill="none" stroke="midnightblue" d="M418.03,-112.44C464.41,-102.01 542.07,-84.53 586.36,-74.57"/>
<polygon fill="midnightblue" stroke="midnightblue" points="587.35,-77.93 596.34,-72.32 585.81,-71.11 587.35,-77.93"/>
</g>
<!-- Node32 -->
<g id="node32" class="node">
<title>Node32</title>
<g id="a_node32"><a xlink:title=" ">
<polygon fill="white" stroke="#bfbfbf" points="444,-56.5 444,-75.5 502,-75.5 502,-56.5 444,-56.5"/>
<text text-anchor="middle" x="473" y="-63.5" font-family="Helvetica,sans-Serif" font-size="10.00">memory</text>
</a>
</g>
</g>
<!-- Node30&#45;&gt;Node32 -->
<g id="edge40" class="edge">
<title>Node30&#45;&gt;Node32</title>
<path fill="none" stroke="midnightblue" d="M394.94,-112.32C409.59,-103.82 432.13,-90.73 449.24,-80.8"/>
<polygon fill="midnightblue" stroke="midnightblue" points="451.2,-83.7 458.1,-75.65 447.69,-77.65 451.2,-83.7"/>
</g>
<!-- Node33&#45;&gt;Node3 -->
<g id="edge43" class="edge">
<title>Node33&#45;&gt;Node3</title>
<path fill="none" stroke="midnightblue" d="M476.4,-112.44C434.23,-102.59 365.2,-86.45 321.75,-76.29"/>
<polygon fill="midnightblue" stroke="midnightblue" points="322.35,-72.84 311.82,-73.97 320.76,-79.66 322.35,-72.84"/>
</g>
<!-- Node33&#45;&gt;Node4 -->
<g id="edge45" class="edge">
<title>Node33&#45;&gt;Node4</title>
<path fill="none" stroke="midnightblue" d="M519.86,-112.45C526.65,-103.68 537.01,-89.47 544,-76 551.79,-60.98 558.26,-42.85 562.52,-29.56"/>
<polygon fill="midnightblue" stroke="midnightblue" points="565.95,-30.29 565.55,-19.7 559.26,-28.23 565.95,-30.29"/>
</g>
<!-- Node33&#45;&gt;Node5 -->
<g id="edge44" class="edge">
<title>Node33&#45;&gt;Node5</title>
<path fill="none" stroke="midnightblue" d="M515.8,-112.23C519.59,-98.49 524.44,-71.84 511,-56 485.62,-26.1 367.67,-15.69 311.67,-12.39"/>
<polygon fill="midnightblue" stroke="midnightblue" points="311.52,-8.87 301.34,-11.82 311.13,-15.86 311.52,-8.87"/>
</g>
<!-- Node33&#45;&gt;Node31 -->
<g id="edge46" class="edge">
<title>Node33&#45;&gt;Node31</title>
<path fill="none" stroke="midnightblue" d="M530.19,-112.32C547.35,-103.66 573.95,-90.24 593.75,-80.25"/>
<polygon fill="midnightblue" stroke="midnightblue" points="595.5,-83.28 602.85,-75.65 592.35,-77.04 595.5,-83.28"/>
</g>
<!-- Node33&#45;&gt;Node32 -->
<g id="edge47" class="edge">
<title>Node33&#45;&gt;Node32</title>
<path fill="none" stroke="midnightblue" d="M506.39,-112.08C500.74,-104.46 492.46,-93.26 485.55,-83.94"/>
<polygon fill="midnightblue" stroke="midnightblue" points="488.25,-81.7 479.48,-75.75 482.62,-85.87 488.25,-81.7"/>
</g>
<!-- Node34&#45;&gt;Node3 -->
<g id="edge49" class="edge">
<title>Node34&#45;&gt;Node3</title>
<path fill="none" stroke="midnightblue" d="M249.44,-112.08C254.95,-104.46 263.03,-93.26 269.76,-83.94"/>
<polygon fill="midnightblue" stroke="midnightblue" points="272.66,-85.91 275.68,-75.75 266.99,-81.81 272.66,-85.91"/>
</g>
<!-- Node34&#45;&gt;Node4 -->
<g id="edge51" class="edge">
<title>Node34&#45;&gt;Node4</title>
<path fill="none" stroke="midnightblue" d="M262.95,-112.46C293.9,-99.38 355.46,-74.01 409,-56 452.55,-41.35 503.84,-27.42 536.15,-19.04"/>
<polygon fill="midnightblue" stroke="midnightblue" points="537.12,-22.4 545.93,-16.52 535.38,-15.62 537.12,-22.4"/>
</g>
<!-- Node34&#45;&gt;Node5 -->
<g id="edge50" class="edge">
<title>Node34&#45;&gt;Node5</title>
<path fill="none" stroke="midnightblue" d="M241.12,-112.25C238.78,-99.43 235.9,-75.03 243,-56 247.17,-44.81 255.52,-34.56 263.42,-26.68"/>
<polygon fill="midnightblue" stroke="midnightblue" points="266.06,-29 271.01,-19.63 261.3,-23.87 266.06,-29"/>
</g>
<!-- Node34&#45;&gt;Node31 -->
<g id="edge52" class="edge">
<title>Node34&#45;&gt;Node31</title>
<path fill="none" stroke="midnightblue" d="M299.85,-112.86C379.35,-101.47 521.25,-81.14 586.05,-71.86"/>
<polygon fill="midnightblue" stroke="midnightblue" points="586.72,-75.3 596.13,-70.42 585.73,-68.37 586.72,-75.3"/>
</g>
<!-- Node35&#45;&gt;Node4 -->
<g id="edge54" class="edge">
<title>Node35&#45;&gt;Node4</title>
<path fill="none" stroke="midnightblue" d="M674.82,-112.43C672.57,-98.97 666.53,-72.69 652,-56 638.2,-40.15 617.4,-28.94 599.96,-21.68"/>
<polygon fill="midnightblue" stroke="midnightblue" points="600.74,-18.23 590.15,-17.86 598.19,-24.75 600.74,-18.23"/>
</g>
<!-- Node35&#45;&gt;Node31 -->
<g id="edge55" class="edge">
<title>Node35&#45;&gt;Node31</title>
<path fill="none" stroke="midnightblue" d="M667,-112.32C658.81,-104.42 646.49,-92.55 636.53,-82.94"/>
<polygon fill="midnightblue" stroke="midnightblue" points="638.79,-80.26 629.16,-75.83 633.93,-85.29 638.79,-80.26"/>
</g>
<!-- Node36&#45;&gt;Node4 -->
<g id="edge60" class="edge">
<title>Node36&#45;&gt;Node4</title>
<path fill="none" stroke="midnightblue" d="M881.06,-112.23C879.02,-98 872.87,-70.05 855,-56 815.94,-25.29 667,-15.2 600.45,-12.17"/>
<polygon fill="midnightblue" stroke="midnightblue" points="600.28,-8.66 590.14,-11.73 599.98,-15.66 600.28,-8.66"/>
</g>
<!-- Node36&#45;&gt;Node27 -->
<g id="edge59" class="edge">
<title>Node36&#45;&gt;Node27</title>
<path fill="none" stroke="midnightblue" d="M908.14,-112.44C936.02,-103.32 980.35,-88.81 1011.4,-78.65"/>
<polygon fill="midnightblue" stroke="midnightblue" points="1012.56,-81.95 1020.98,-75.52 1010.38,-75.3 1012.56,-81.95"/>
</g>
<!-- Node36&#45;&gt;Node31 -->
<g id="edge61" class="edge">
<title>Node36&#45;&gt;Node31</title>
<path fill="none" stroke="midnightblue" d="M840.49,-112.44C788.73,-101.78 701.28,-83.75 653.55,-73.91"/>
<polygon fill="midnightblue" stroke="midnightblue" points="654.21,-70.48 643.71,-71.89 652.8,-77.33 654.21,-70.48"/>
</g>
<!-- Node36&#45;&gt;Node37 -->
<g id="edge57" class="edge">
<title>Node36&#45;&gt;Node37</title>
<path fill="none" stroke="midnightblue" d="M893.25,-112.32C903.8,-104.18 919.8,-91.84 932.44,-82.09"/>
<polygon fill="midnightblue" stroke="midnightblue" points="934.77,-84.71 940.55,-75.83 930.49,-79.17 934.77,-84.71"/>
</g>
<!-- Node36&#45;&gt;Node38 -->
<g id="edge58" class="edge">
<title>Node36&#45;&gt;Node38</title>
<path fill="none" stroke="midnightblue" d="M871.4,-112.32C861.54,-104.26 846.65,-92.08 834.78,-82.37"/>
<polygon fill="midnightblue" stroke="midnightblue" points="836.75,-79.46 826.8,-75.83 832.32,-84.88 836.75,-79.46"/>
</g>
<!-- Node39&#45;&gt;Node9 -->
<g id="edge71" class="edge">
<title>Node39&#45;&gt;Node9</title>
<path fill="none" stroke="midnightblue" d="M1320.09,-174.06C1393.28,-168.11 1548,-153.41 1597,-132 1622.74,-120.76 1646.98,-98.87 1661.89,-83.62"/>
<polygon fill="midnightblue" stroke="midnightblue" points="1664.83,-85.6 1669.17,-75.93 1659.75,-80.79 1664.83,-85.6"/>
</g>
<!-- Node40 -->
<g id="node40" class="node">
<title>Node40</title>
<g id="a_node40"><a xlink:title=" ">
<polygon fill="white" stroke="#bfbfbf" points="1302.5,-112.5 1302.5,-131.5 1453.5,-131.5 1453.5,-112.5 1302.5,-112.5"/>
<text text-anchor="middle" x="1378" y="-119.5" font-family="Helvetica,sans-Serif" font-size="10.00">stk_util/diag/PrintTimer.hpp</text>
</a>
</g>
</g>
<!-- Node39&#45;&gt;Node40 -->
<g id="edge69" class="edge">
<title>Node39&#45;&gt;Node40</title>
<path fill="none" stroke="midnightblue" d="M1296.58,-168.32C1312,-159.74 1335.81,-146.49 1353.71,-136.52"/>
<polygon fill="midnightblue" stroke="midnightblue" points="1355.42,-139.58 1362.45,-131.65 1352.01,-133.46 1355.42,-139.58"/>
</g>
<!-- Node41 -->
<g id="node41" class="node">
<title>Node41</title>
<g id="a_node41"><a xlink:title=" ">
<polygon fill="white" stroke="#bfbfbf" points="1156,-112.5 1156,-131.5 1284,-131.5 1284,-112.5 1156,-112.5"/>
<text text-anchor="middle" x="1220" y="-119.5" font-family="Helvetica,sans-Serif" font-size="10.00">stk_util/diag/Timer.hpp</text>
</a>
</g>
</g>
<!-- Node39&#45;&gt;Node41 -->
<g id="edge70" class="edge">
<title>Node39&#45;&gt;Node41</title>
<path fill="none" stroke="midnightblue" d="M1271.2,-168.32C1262.18,-160.34 1248.59,-148.31 1237.68,-138.65"/>
<polygon fill="midnightblue" stroke="midnightblue" points="1239.79,-135.84 1229.98,-131.83 1235.15,-141.08 1239.79,-135.84"/>
</g>
</g>
</svg>
        <g id="navigator" transform="translate(0 0)" fill="#404254">
                <rect fill="#f2f5e9" fill-opacity="0.5" stroke="#606060" stroke-width=".5" x="0" y="0" width="60" height="60"/>
                <use id="zoomplus" xlink:href="#zoomPlus" x="17" y="9" onmousedown="handleZoom(evt,'in')"/>
                <use id="zoomminus" xlink:href="#zoomMin" x="42" y="9" onmousedown="handleZoom(evt,'out')"/>
                <use id="reset" xlink:href="#resetDef" x="30" y="36" onmousedown="handleReset()"/>
                <g id="arrowUp" xlink:href="#dirArrow" transform="translate(30 24)" onmousedown="handlePan(0,-1)">
                  <use xlink:href="#rim" fill="#404040">
                        <set attributeName="fill" to="#808080" begin="arrowUp.mouseover" end="arrowUp.mouseout"/>
                  </use>
                  <path fill="none" stroke="white" stroke-width="1.5" d="M0,-3.0v7 M-2.5,-0.5L0,-3.0L2.5,-0.5"/>
                </g>
                <g id="arrowRight" xlink:href="#dirArrow" transform="rotate(90) translate(36 -43)" onmousedown="handlePan(1,0)">
                  <use xlink:href="#rim" fill="#404040">
                        <set attributeName="fill" to="#808080" begin="arrowRight.mouseover" end="arrowRight.mouseout"/>
                  </use>
                  <path fill="none" stroke="white" stroke-width="1.5" d="M0,-3.0v7 M-2.5,-0.5L0,-3.0L2.5,-0.5"/>
                </g>
                <g id="arrowDown" xlink:href="#dirArrow" transform="rotate(180) translate(-30 -48)" onmousedown="handlePan(0,1)">
                  <use xlink:href="#rim" fill="#404040">
                        <set attributeName="fill" to="#808080" begin="arrowDown.mouseover" end="arrowDown.mouseout"/>
                  </use>
                  <path fill="none" stroke="white" stroke-width="1.5" d="M0,-3.0v7 M-2.5,-0.5L0,-3.0L2.5,-0.5"/>
                </g>
                <g id="arrowLeft" xlink:href="#dirArrow" transform="rotate(270) translate(-36 17)" onmousedown="handlePan(-1,0)">
                  <use xlink:href="#rim" fill="#404040">
                        <set attributeName="fill" to="#808080" begin="arrowLeft.mouseover" end="arrowLeft.mouseout"/>
                  </use>
                  <path fill="none" stroke="white" stroke-width="1.5" d="M0,-3.0v7 M-2.5,-0.5L0,-3.0L2.5,-0.5"/>
                </g>
        </g>
        <svg viewBox="0 0 15 15" width="100%" height="30px" preserveAspectRatio="xMaxYMin meet">
         <g id="arrow_out" transform="scale(0.3 0.3)">
          <a xlink:href="_linear_solvers_8_c__incl_org.svg" target="_base">
           <rect id="button" ry="5" rx="5" y="6" x="6" height="38" width="38"
                fill="#f2f5e9" fill-opacity="0.5" stroke="#606060" stroke-width="1.0"/>
           <path id="arrow"
             d="M 11.500037,31.436501 C 11.940474,20.09759 22.043105,11.32322 32.158766,21.979434 L 37.068811,17.246167 C 37.068811,17.246167 37.088388,32 37.088388,32 L 22.160133,31.978069 C 22.160133,31.978069 26.997745,27.140456 26.997745,27.140456 C 18.528582,18.264221 13.291696,25.230495 11.500037,31.436501 z"
             style="fill:#404040;"/>
          </a>
         </g>
        </svg>
</svg>
