<?xml version="1.0" encoding="UTF-8" standalone="no"?>
<!DOCTYPE svg PUBLIC "-//W3C//DTD SVG 1.1//EN"
 "http://www.w3.org/Graphics/SVG/1.1/DTD/svg11.dtd">
<!-- Generated by graphviz version 2.43.0 (0)
 -->
<!-- Title: LinSysInfo.h Pages: 1 -->
<!--zoomable 341 -->
<svg id="main" version="1.1" xmlns="http://www.w3.org/2000/svg" xmlns:xlink="http://www.w3.org/1999/xlink" xml:space="preserve" onload="init(evt)">
<style type="text/css"><![CDATA[
.edge:hover path { stroke: red; }
.edge:hover polygon { stroke: red; fill: red; }
]]></style>
<script type="text/javascript"><![CDATA[
var edges = document.getElementsByTagName('g');
if (edges && edges.length) {
  for (var i=0;i<edges.length;i++) {
    if (edges[i].id.substr(0,4)=='edge') {
      edges[i].setAttribute('class','edge');
    }
  }
}
]]></script>
        <defs>
                <circle id="rim" cx="0" cy="0" r="7"/>
                <circle id="rim2" cx="0" cy="0" r="3.5"/>
                <g id="zoomPlus">
                        <use xlink:href="#rim" fill="#404040">
                                <set attributeName="fill" to="#808080" begin="zoomplus.mouseover" end="zoomplus.mouseout"/>
                        </use>
                        <path d="M-4,0h8M0,-4v8" fill="none" stroke="white" stroke-width="1.5" pointer-events="none"/>
                </g>
                <g id="zoomMin">
                        <use xlink:href="#rim" fill="#404040">
                                <set attributeName="fill" to="#808080" begin="zoomminus.mouseover" end="zoomminus.mouseout"/>
                        </use>
                        <path d="M-4,0h8" fill="none" stroke="white" stroke-width="1.5" pointer-events="none"/>
                </g>
                <g id="dirArrow">
                        <path fill="none" stroke="white" stroke-width="1.5" d="M0,-3.0v7 M-2.5,-0.5L0,-3.0L2.5,-0.5"/>
                </g>
               <g id="resetDef">
                       <use xlink:href="#rim2" fill="#404040">
                               <set attributeName="fill" to="#808080" begin="reset.mouseover" end="reset.mouseout"/>
                       </use>
               </g>
        </defs>

<script type="text/javascript">
var viewWidth = 2283;
var viewHeight = 341;
var sectionId = 'dynsection-1';
</script>
<script xlink:href="svgpan.js"/>
<svg id="graph" class="graph">
<g id="viewport">
<title>LinSysInfo.h</title>
<polygon fill="white" stroke="transparent" points="-4,4 -4,-337 2279.08,-337 2279.08,4 -4,4"/>
<!-- Node1 -->
<g id="node1" class="node">
<title>Node1</title>
<g id="a_node1"><a xlink:title=" ">
<polygon fill="#bfbfbf" stroke="black" points="1132.08,-313.5 1132.08,-332.5 1208.08,-332.5 1208.08,-313.5 1132.08,-313.5"/>
<text text-anchor="middle" x="1170.08" y="-320.5" font-family="Helvetica,sans-Serif" font-size="10.00">LinSysInfo.h</text>
</a>
</g>
</g>
<!-- Node2 -->
<g id="node2" class="node">
<title>Node2</title>
<g id="a_node2"><a xlink:href="_conduction_info_8h.html" target="_top" xlink:title=" ">
<polygon fill="white" stroke="black" points="104.58,-257.5 104.58,-276.5 203.58,-276.5 203.58,-257.5 104.58,-257.5"/>
<text text-anchor="middle" x="154.08" y="-264.5" font-family="Helvetica,sans-Serif" font-size="10.00">ConductionInfo.h</text>
</a>
</g>
</g>
<!-- Node1&#45;&gt;Node2 -->
<g id="edge1" class="edge">
<title>Node1&#45;&gt;Node2</title>
<path fill="none" stroke="midnightblue" d="M1121.59,-319.42C950.57,-310.33 376.52,-279.82 203.71,-270.64"/>
<polygon fill="midnightblue" stroke="midnightblue" points="1121.63,-322.93 1131.8,-319.97 1122,-315.94 1121.63,-322.93"/>
</g>
<!-- Node6 -->
<g id="node6" class="node">
<title>Node6</title>
<g id="a_node6"><a xlink:href="_conduction_update_8h.html" target="_top" xlink:title=" ">
<polygon fill="white" stroke="black" points="390.08,-140 390.08,-159 506.08,-159 506.08,-140 390.08,-140"/>
<text text-anchor="middle" x="448.08" y="-147" font-family="Helvetica,sans-Serif" font-size="10.00">ConductionUpdate.h</text>
</a>
</g>
</g>
<!-- Node1&#45;&gt;Node6 -->
<g id="edge5" class="edge">
<title>Node1&#45;&gt;Node6</title>
<path fill="none" stroke="midnightblue" d="M1121.65,-315.24C1068.49,-307.47 980.75,-293.63 906.08,-277 740.61,-240.15 545.67,-180.95 475.2,-159.02"/>
<polygon fill="midnightblue" stroke="midnightblue" points="1121.41,-318.74 1131.81,-316.71 1122.41,-311.81 1121.41,-318.74"/>
</g>
<!-- Node8 -->
<g id="node8" class="node">
<title>Node8</title>
<g id="a_node8"><a xlink:href="_green_gauss_gradient_8h.html" target="_top" xlink:title=" ">
<polygon fill="white" stroke="black" points="524.58,-140 524.58,-159 651.58,-159 651.58,-140 524.58,-140"/>
<text text-anchor="middle" x="588.08" y="-147" font-family="Helvetica,sans-Serif" font-size="10.00">GreenGaussGradient.h</text>
</a>
</g>
</g>
<!-- Node1&#45;&gt;Node8 -->
<g id="edge8" class="edge">
<title>Node1&#45;&gt;Node8</title>
<path fill="none" stroke="midnightblue" d="M1122.26,-311.15C1048.45,-294.06 902.6,-258.87 781.08,-221 717.73,-201.26 644.55,-172.99 609.27,-159"/>
<polygon fill="midnightblue" stroke="midnightblue" points="1121.66,-314.6 1132.19,-313.44 1123.23,-307.78 1121.66,-314.6"/>
</g>
<!-- Node9 -->
<g id="node9" class="node">
<title>Node9</title>
<g id="a_node9"><a xlink:href="_green_gauss_gradient_8_c.html" target="_top" xlink:title=" ">
<polygon fill="white" stroke="black" points="524.08,-73 524.08,-92 652.08,-92 652.08,-73 524.08,-73"/>
<text text-anchor="middle" x="588.08" y="-80" font-family="Helvetica,sans-Serif" font-size="10.00">GreenGaussGradient.C</text>
</a>
</g>
</g>
<!-- Node1&#45;&gt;Node9 -->
<g id="edge51" class="edge">
<title>Node1&#45;&gt;Node9</title>
<path fill="none" stroke="midnightblue" d="M1121.46,-320.27C964.01,-313.52 472.93,-283.17 381.08,-165 340.07,-112.25 449.02,-93.57 523.98,-87.01"/>
<polygon fill="midnightblue" stroke="midnightblue" points="1121.64,-323.78 1131.78,-320.7 1121.93,-316.78 1121.64,-323.78"/>
</g>
<!-- Node10 -->
<g id="node10" class="node">
<title>Node10</title>
<g id="a_node10"><a xlink:href="_low_mach_info_8h.html" target="_top" xlink:title=" ">
<polygon fill="white" stroke="black" points="1369.08,-257.5 1369.08,-276.5 1459.08,-276.5 1459.08,-257.5 1369.08,-257.5"/>
<text text-anchor="middle" x="1414.08" y="-264.5" font-family="Helvetica,sans-Serif" font-size="10.00">LowMachInfo.h</text>
</a>
</g>
</g>
<!-- Node1&#45;&gt;Node10 -->
<g id="edge11" class="edge">
<title>Node1&#45;&gt;Node10</title>
<path fill="none" stroke="midnightblue" d="M1218.24,-311.34C1264.29,-301.15 1332.83,-285.98 1375.42,-276.56"/>
<polygon fill="midnightblue" stroke="midnightblue" points="1217.21,-307.98 1208.2,-313.56 1218.72,-314.82 1217.21,-307.98"/>
</g>
<!-- Node12 -->
<g id="node12" class="node">
<title>Node12</title>
<g id="a_node12"><a xlink:href="_low_mach_update_8h.html" target="_top" xlink:title=" ">
<polygon fill="white" stroke="black" points="1162.58,-73 1162.58,-92 1269.58,-92 1269.58,-73 1162.58,-73"/>
<text text-anchor="middle" x="1216.08" y="-80" font-family="Helvetica,sans-Serif" font-size="10.00">LowMachUpdate.h</text>
</a>
</g>
</g>
<!-- Node1&#45;&gt;Node12 -->
<g id="edge31" class="edge">
<title>Node1&#45;&gt;Node12</title>
<path fill="none" stroke="midnightblue" d="M1173.71,-303.17C1183.08,-254.6 1207.79,-126.49 1214.42,-92.1"/>
<polygon fill="midnightblue" stroke="midnightblue" points="1170.23,-302.75 1171.77,-313.23 1177.1,-304.07 1170.23,-302.75"/>
</g>
<!-- Node21 -->
<g id="node21" class="node">
<title>Node21</title>
<g id="a_node21"><a xlink:href="_momentum_diagonal_8h.html" target="_top" xlink:title=" ">
<polygon fill="white" stroke="black" points="1938.58,-257.5 1938.58,-276.5 2063.58,-276.5 2063.58,-257.5 1938.58,-257.5"/>
<text text-anchor="middle" x="2001.08" y="-264.5" font-family="Helvetica,sans-Serif" font-size="10.00">MomentumDiagonal.h</text>
</a>
</g>
</g>
<!-- Node1&#45;&gt;Node21 -->
<g id="edge32" class="edge">
<title>Node1&#45;&gt;Node21</title>
<path fill="none" stroke="midnightblue" d="M1218.38,-318.86C1360.79,-309.61 1778.94,-282.43 1938.36,-272.08"/>
<polygon fill="midnightblue" stroke="midnightblue" points="1217.97,-315.38 1208.22,-319.52 1218.42,-322.37 1217.97,-315.38"/>
</g>
<!-- Node24 -->
<g id="node24" class="node">
<title>Node24</title>
<g id="a_node24"><a xlink:href="_momentum_operator_8h.html" target="_top" xlink:title=" ">
<polygon fill="white" stroke="black" points="1663.08,-257.5 1663.08,-276.5 1787.08,-276.5 1787.08,-257.5 1663.08,-257.5"/>
<text text-anchor="middle" x="1725.08" y="-264.5" font-family="Helvetica,sans-Serif" font-size="10.00">MomentumOperator.h</text>
</a>
</g>
</g>
<!-- Node1&#45;&gt;Node24 -->
<g id="edge35" class="edge">
<title>Node1&#45;&gt;Node24</title>
<path fill="none" stroke="midnightblue" d="M1218.41,-317.3C1319.09,-307.5 1551.2,-284.92 1662.86,-274.05"/>
<polygon fill="midnightblue" stroke="midnightblue" points="1217.84,-313.84 1208.23,-318.29 1218.52,-320.8 1217.84,-313.84"/>
</g>
<!-- Node28 -->
<g id="node28" class="node">
<title>Node28</title>
<g id="a_node28"><a xlink:href="_stk_to_tpetra_map_8h.html" target="_top" xlink:title=" ">
<polygon fill="white" stroke="black" points="1001.08,-201.5 1001.08,-220.5 1105.08,-220.5 1105.08,-201.5 1001.08,-201.5"/>
<text text-anchor="middle" x="1053.08" y="-208.5" font-family="Helvetica,sans-Serif" font-size="10.00">StkToTpetraMap.h</text>
</a>
</g>
</g>
<!-- Node1&#45;&gt;Node28 -->
<g id="edge41" class="edge">
<title>Node1&#45;&gt;Node28</title>
<path fill="none" stroke="midnightblue" d="M1153.6,-306.51C1128.6,-283.01 1081.91,-239.11 1062.22,-220.59"/>
<polygon fill="midnightblue" stroke="midnightblue" points="1151.22,-309.07 1160.9,-313.37 1156.01,-303.97 1151.22,-309.07"/>
</g>
<!-- Node30 -->
<g id="node30" class="node">
<title>Node30</title>
<g id="a_node30"><a xlink:href="_filter_diagonal_8_c.html" target="_top" xlink:title=" ">
<polygon fill="white" stroke="black" points="2081.58,-257.5 2081.58,-276.5 2176.58,-276.5 2176.58,-257.5 2081.58,-257.5"/>
<text text-anchor="middle" x="2129.08" y="-264.5" font-family="Helvetica,sans-Serif" font-size="10.00">FilterDiagonal.C</text>
</a>
</g>
</g>
<!-- Node1&#45;&gt;Node30 -->
<g id="edge50" class="edge">
<title>Node1&#45;&gt;Node30</title>
<path fill="none" stroke="midnightblue" d="M1218.53,-321.45C1353.97,-319.51 1747.87,-311.13 2073.08,-277 2075.82,-276.71 2078.63,-276.38 2081.47,-276.02"/>
<polygon fill="midnightblue" stroke="midnightblue" points="1218.43,-317.95 1208.48,-321.59 1218.53,-324.95 1218.43,-317.95"/>
</g>
<!-- Node3 -->
<g id="node3" class="node">
<title>Node3</title>
<g id="a_node3"><a xlink:href="_conduction_fields_8_c.html" target="_top" xlink:title=" ">
<polygon fill="white" stroke="black" points="14.08,-201.5 14.08,-220.5 124.08,-220.5 124.08,-201.5 14.08,-201.5"/>
<text text-anchor="middle" x="69.08" y="-208.5" font-family="Helvetica,sans-Serif" font-size="10.00">ConductionFields.C</text>
</a>
</g>
</g>
<!-- Node2&#45;&gt;Node3 -->
<g id="edge2" class="edge">
<title>Node2&#45;&gt;Node3</title>
<path fill="none" stroke="midnightblue" d="M131.89,-251.9C116.3,-242 95.95,-229.07 82.7,-220.65"/>
<polygon fill="midnightblue" stroke="midnightblue" points="130.1,-254.92 140.42,-257.32 133.86,-249.01 130.1,-254.92"/>
</g>
<!-- Node4 -->
<g id="node4" class="node">
<title>Node4</title>
<g id="a_node4"><a xlink:href="_conduction_gathered_field_manager_8_c.html" target="_top" xlink:title=" ">
<polygon fill="white" stroke="black" points="142.58,-201.5 142.58,-220.5 333.58,-220.5 333.58,-201.5 142.58,-201.5"/>
<text text-anchor="middle" x="238.08" y="-208.5" font-family="Helvetica,sans-Serif" font-size="10.00">ConductionGatheredFieldManager.C</text>
</a>
</g>
</g>
<!-- Node2&#45;&gt;Node4 -->
<g id="edge3" class="edge">
<title>Node2&#45;&gt;Node4</title>
<path fill="none" stroke="midnightblue" d="M176.01,-251.9C191.41,-242 211.52,-229.07 224.62,-220.65"/>
<polygon fill="midnightblue" stroke="midnightblue" points="174.09,-248.97 167.58,-257.32 177.88,-254.86 174.09,-248.97"/>
</g>
<!-- Node5 -->
<g id="node5" class="node">
<title>Node5</title>
<g id="a_node5"><a xlink:href="_conduction_update_8_c.html" target="_top" xlink:title=" ">
<polygon fill="white" stroke="black" points="159.08,-73 159.08,-92 275.08,-92 275.08,-73 159.08,-73"/>
<text text-anchor="middle" x="217.08" y="-80" font-family="Helvetica,sans-Serif" font-size="10.00">ConductionUpdate.C</text>
</a>
</g>
</g>
<!-- Node2&#45;&gt;Node5 -->
<g id="edge4" class="edge">
<title>Node2&#45;&gt;Node5</title>
<path fill="none" stroke="midnightblue" d="M94.4,-261.49C43.75,-254.98 -17.41,-239.19 5.08,-201 42.67,-137.19 128.78,-105.58 178.92,-92.06"/>
<polygon fill="midnightblue" stroke="midnightblue" points="94.02,-264.97 104.37,-262.67 94.85,-258.02 94.02,-264.97"/>
</g>
<!-- Node6&#45;&gt;Node5 -->
<g id="edge6" class="edge">
<title>Node6&#45;&gt;Node5</title>
<path fill="none" stroke="midnightblue" d="M407.53,-137.09C361.83,-124.23 288.58,-103.62 247.51,-92.06"/>
<polygon fill="midnightblue" stroke="midnightblue" points="406.83,-140.53 417.4,-139.87 408.73,-133.79 406.83,-140.53"/>
</g>
<!-- Node7 -->
<g id="node7" class="node">
<title>Node7</title>
<g id="a_node7"><a xlink:href="_matrix_free_heat_cond_equation_system_8_c.html" target="_top" xlink:title=" ">
<polygon fill="white" stroke="black" points="689.08,-67.5 689.08,-97.5 849.08,-97.5 849.08,-67.5 689.08,-67.5"/>
<text text-anchor="start" x="697.08" y="-85.5" font-family="Helvetica,sans-Serif" font-size="10.00">MatrixFreeHeatCondEquation</text>
<text text-anchor="middle" x="769.08" y="-74.5" font-family="Helvetica,sans-Serif" font-size="10.00">System.C</text>
</a>
</g>
</g>
<!-- Node6&#45;&gt;Node7 -->
<g id="edge7" class="edge">
<title>Node6&#45;&gt;Node7</title>
<path fill="none" stroke="midnightblue" d="M497.1,-137.79C503.15,-136.5 509.26,-135.21 515.08,-134 576.27,-121.3 645.89,-107.5 696.75,-97.54"/>
<polygon fill="midnightblue" stroke="midnightblue" points="496.07,-134.43 487.03,-139.95 497.54,-141.28 496.07,-134.43"/>
</g>
<!-- Node8&#45;&gt;Node7 -->
<g id="edge10" class="edge">
<title>Node8&#45;&gt;Node7</title>
<path fill="none" stroke="midnightblue" d="M621.92,-136.35C652.6,-125.33 697.81,-109.09 730.02,-97.53"/>
<polygon fill="midnightblue" stroke="midnightblue" points="620.34,-133.19 612.11,-139.87 622.71,-139.78 620.34,-133.19"/>
</g>
<!-- Node8&#45;&gt;Node9 -->
<g id="edge9" class="edge">
<title>Node8&#45;&gt;Node9</title>
<path fill="none" stroke="midnightblue" d="M588.08,-129.54C588.08,-117.17 588.08,-101.62 588.08,-92.13"/>
<polygon fill="midnightblue" stroke="midnightblue" points="584.58,-129.73 588.08,-139.73 591.58,-129.73 584.58,-129.73"/>
</g>
<!-- Node11 -->
<g id="node11" class="node">
<title>Node11</title>
<g id="a_node11"><a xlink:href="_equation_update_8h.html" target="_top" xlink:title=" ">
<polygon fill="white" stroke="black" points="790.08,-201.5 790.08,-220.5 894.08,-220.5 894.08,-201.5 790.08,-201.5"/>
<text text-anchor="middle" x="842.08" y="-208.5" font-family="Helvetica,sans-Serif" font-size="10.00">EquationUpdate.h</text>
</a>
</g>
</g>
<!-- Node10&#45;&gt;Node11 -->
<g id="edge12" class="edge">
<title>Node10&#45;&gt;Node11</title>
<path fill="none" stroke="midnightblue" d="M1358.45,-260.75C1247.94,-250.32 1002.14,-227.11 894.39,-216.94"/>
<polygon fill="midnightblue" stroke="midnightblue" points="1358.43,-264.26 1368.72,-261.72 1359.09,-257.29 1358.43,-264.26"/>
</g>
<!-- Node13 -->
<g id="node13" class="node">
<title>Node13</title>
<g id="a_node13"><a xlink:href="_low_mach_update_8_c.html" target="_top" xlink:title=" ">
<polygon fill="white" stroke="black" points="1162.58,-6 1162.58,-25 1269.58,-25 1269.58,-6 1162.58,-6"/>
<text text-anchor="middle" x="1216.08" y="-13" font-family="Helvetica,sans-Serif" font-size="10.00">LowMachUpdate.C</text>
</a>
</g>
</g>
<!-- Node10&#45;&gt;Node13 -->
<g id="edge29" class="edge">
<title>Node10&#45;&gt;Node13</title>
<path fill="none" stroke="midnightblue" d="M1469.45,-262.89C1503.24,-258.22 1545.16,-247.1 1573.08,-221 1623.63,-173.74 1641.68,-119.06 1596.08,-67 1574.92,-42.84 1369.68,-26.41 1269.95,-19.78"/>
<polygon fill="midnightblue" stroke="midnightblue" points="1468.75,-259.45 1459.25,-264.14 1469.61,-266.39 1468.75,-259.45"/>
</g>
<!-- Node16 -->
<g id="node16" class="node">
<title>Node16</title>
<g id="a_node16"><a xlink:href="_low_mach_gathered_field_manager_8h.html" target="_top" xlink:title=" ">
<polygon fill="white" stroke="black" points="1386.08,-140 1386.08,-159 1568.08,-159 1568.08,-140 1386.08,-140"/>
<text text-anchor="middle" x="1477.08" y="-147" font-family="Helvetica,sans-Serif" font-size="10.00">LowMachGatheredFieldManager.h</text>
</a>
</g>
</g>
<!-- Node10&#45;&gt;Node16 -->
<g id="edge21" class="edge">
<title>Node10&#45;&gt;Node16</title>
<path fill="none" stroke="midnightblue" d="M1469.16,-259.18C1492.94,-253.2 1518.58,-241.99 1533.08,-221 1549.16,-197.72 1514.51,-172.12 1492.82,-159.11"/>
<polygon fill="midnightblue" stroke="midnightblue" points="1468.11,-255.83 1459.13,-261.44 1469.65,-262.66 1468.11,-255.83"/>
</g>
<!-- Node17 -->
<g id="node17" class="node">
<title>Node17</title>
<g id="a_node17"><a xlink:href="_low_mach_gathered_field_manager_8_c.html" target="_top" xlink:title=" ">
<polygon fill="white" stroke="black" points="1405.08,-73 1405.08,-92 1587.08,-92 1587.08,-73 1405.08,-73"/>
<text text-anchor="middle" x="1496.08" y="-80" font-family="Helvetica,sans-Serif" font-size="10.00">LowMachGatheredFieldManager.C</text>
</a>
</g>
</g>
<!-- Node10&#45;&gt;Node17 -->
<g id="edge28" class="edge">
<title>Node10&#45;&gt;Node17</title>
<path fill="none" stroke="midnightblue" d="M1469.36,-258.09C1496.29,-251.84 1527.62,-240.72 1550.08,-221 1570.84,-202.77 1570.92,-191.94 1577.08,-165 1580.15,-151.57 1583.76,-146.05 1577.08,-134 1565.5,-113.13 1541.32,-99.76 1522.38,-92.06"/>
<polygon fill="midnightblue" stroke="midnightblue" points="1468.32,-254.73 1459.28,-260.25 1469.79,-261.58 1468.32,-254.73"/>
</g>
<!-- Node18 -->
<g id="node18" class="node">
<title>Node18</title>
<g id="a_node18"><a xlink:href="_transport_coefficients_8h.html" target="_top" xlink:title=" ">
<polygon fill="white" stroke="black" points="1396.08,-201.5 1396.08,-220.5 1524.08,-220.5 1524.08,-201.5 1396.08,-201.5"/>
<text text-anchor="middle" x="1460.08" y="-208.5" font-family="Helvetica,sans-Serif" font-size="10.00">TransportCoefficients.h</text>
</a>
</g>
</g>
<!-- Node10&#45;&gt;Node18 -->
<g id="edge24" class="edge">
<title>Node10&#45;&gt;Node18</title>
<path fill="none" stroke="midnightblue" d="M1428.19,-249.43C1436.25,-239.97 1446.04,-228.48 1452.62,-220.75"/>
<polygon fill="midnightblue" stroke="midnightblue" points="1425.5,-247.2 1421.67,-257.08 1430.82,-251.74 1425.5,-247.2"/>
</g>
<!-- Node19 -->
<g id="node19" class="node">
<title>Node19</title>
<g id="a_node19"><a xlink:href="_transport_coefficients_8_c.html" target="_top" xlink:title=" ">
<polygon fill="white" stroke="black" points="1238.58,-140 1238.58,-159 1367.58,-159 1367.58,-140 1238.58,-140"/>
<text text-anchor="middle" x="1303.08" y="-147" font-family="Helvetica,sans-Serif" font-size="10.00">TransportCoefficients.C</text>
</a>
</g>
</g>
<!-- Node10&#45;&gt;Node19 -->
<g id="edge30" class="edge">
<title>Node10&#45;&gt;Node19</title>
<path fill="none" stroke="midnightblue" d="M1398.53,-249.82C1374.74,-225.06 1330.09,-178.61 1311.52,-159.28"/>
<polygon fill="midnightblue" stroke="midnightblue" points="1396.28,-252.53 1405.74,-257.32 1401.33,-247.68 1396.28,-252.53"/>
</g>
<!-- Node20 -->
<g id="node20" class="node">
<title>Node20</title>
<g id="a_node20"><a xlink:href="_low_mach_fields_8_c.html" target="_top" xlink:title=" ">
<polygon fill="white" stroke="black" points="1238.58,-201.5 1238.58,-220.5 1339.58,-220.5 1339.58,-201.5 1238.58,-201.5"/>
<text text-anchor="middle" x="1289.08" y="-208.5" font-family="Helvetica,sans-Serif" font-size="10.00">LowMachFields.C</text>
</a>
</g>
</g>
<!-- Node10&#45;&gt;Node20 -->
<g id="edge27" class="edge">
<title>Node10&#45;&gt;Node20</title>
<path fill="none" stroke="midnightblue" d="M1384.84,-253.37C1361.43,-243.26 1329.24,-229.35 1308.79,-220.52"/>
<polygon fill="midnightblue" stroke="midnightblue" points="1383.7,-256.69 1394.27,-257.44 1386.48,-250.26 1383.7,-256.69"/>
</g>
<!-- Node11&#45;&gt;Node6 -->
<g id="edge13" class="edge">
<title>Node11&#45;&gt;Node6</title>
<path fill="none" stroke="midnightblue" d="M779.84,-202.87C713.89,-194.98 606.81,-181.21 515.08,-165 505.35,-163.28 494.89,-161.15 485.19,-159.06"/>
<polygon fill="midnightblue" stroke="midnightblue" points="779.72,-206.38 790.07,-204.09 780.55,-199.43 779.72,-206.38"/>
</g>
<!-- Node11&#45;&gt;Node8 -->
<g id="edge14" class="edge">
<title>Node11&#45;&gt;Node8</title>
<path fill="none" stroke="midnightblue" d="M795.92,-199.19C746.63,-187.64 669.54,-169.58 624.4,-159.01"/>
<polygon fill="midnightblue" stroke="midnightblue" points="795.15,-202.6 805.69,-201.48 796.75,-195.79 795.15,-202.6"/>
</g>
<!-- Node11&#45;&gt;Node12 -->
<g id="edge15" class="edge">
<title>Node11&#45;&gt;Node12</title>
<path fill="none" stroke="midnightblue" d="M864.7,-196.18C893.22,-179.3 944.2,-150.91 991.08,-134 1047.94,-113.49 1116.01,-99.6 1162.27,-91.66"/>
<polygon fill="midnightblue" stroke="midnightblue" points="862.71,-193.29 855.93,-201.43 866.31,-199.3 862.71,-193.29"/>
</g>
<!-- Node14 -->
<g id="node14" class="node">
<title>Node14</title>
<g id="a_node14"><a xlink:href="_matrix_free_low_mach_equation_system_8_c.html" target="_top" xlink:title=" ">
<polygon fill="white" stroke="black" points="902.08,-0.5 902.08,-30.5 1060.08,-30.5 1060.08,-0.5 902.08,-0.5"/>
<text text-anchor="start" x="910.08" y="-18.5" font-family="Helvetica,sans-Serif" font-size="10.00">MatrixFreeLowMachEquation</text>
<text text-anchor="middle" x="981.08" y="-7.5" font-family="Helvetica,sans-Serif" font-size="10.00">System.C</text>
</a>
</g>
</g>
<!-- Node11&#45;&gt;Node14 -->
<g id="edge20" class="edge">
<title>Node11&#45;&gt;Node14</title>
<path fill="none" stroke="midnightblue" d="M855.21,-193.53C861.86,-185.08 870.01,-174.57 877.08,-165 912.97,-116.38 953.53,-57.16 971.56,-30.59"/>
<polygon fill="midnightblue" stroke="midnightblue" points="852.38,-191.46 848.92,-201.47 857.87,-195.81 852.38,-191.46"/>
</g>
<!-- Node15 -->
<g id="node15" class="node">
<title>Node15</title>
<g id="a_node15"><a xlink:href="_matrix_free_heat_cond_equation_system_8h.html" target="_top" xlink:title=" ">
<polygon fill="white" stroke="black" points="708.08,-134.5 708.08,-164.5 868.08,-164.5 868.08,-134.5 708.08,-134.5"/>
<text text-anchor="start" x="716.08" y="-152.5" font-family="Helvetica,sans-Serif" font-size="10.00">MatrixFreeHeatCondEquation</text>
<text text-anchor="middle" x="788.08" y="-141.5" font-family="Helvetica,sans-Serif" font-size="10.00">System.h</text>
</a>
</g>
</g>
<!-- Node11&#45;&gt;Node15 -->
<g id="edge18" class="edge">
<title>Node11&#45;&gt;Node15</title>
<path fill="none" stroke="midnightblue" d="M827.39,-193.81C819.07,-184.65 808.77,-173.3 800.81,-164.52"/>
<polygon fill="midnightblue" stroke="midnightblue" points="825.03,-196.42 834.34,-201.48 830.21,-191.72 825.03,-196.42"/>
</g>
<!-- Node12&#45;&gt;Node13 -->
<g id="edge16" class="edge">
<title>Node12&#45;&gt;Node13</title>
<path fill="none" stroke="midnightblue" d="M1216.08,-62.54C1216.08,-50.17 1216.08,-34.62 1216.08,-25.13"/>
<polygon fill="midnightblue" stroke="midnightblue" points="1212.58,-62.73 1216.08,-72.73 1219.58,-62.73 1212.58,-62.73"/>
</g>
<!-- Node12&#45;&gt;Node14 -->
<g id="edge17" class="edge">
<title>Node12&#45;&gt;Node14</title>
<path fill="none" stroke="midnightblue" d="M1175.22,-70.2C1135.38,-59.18 1074.7,-42.39 1031.8,-30.53"/>
<polygon fill="midnightblue" stroke="midnightblue" points="1174.3,-73.58 1184.87,-72.87 1176.17,-66.83 1174.3,-73.58"/>
</g>
<!-- Node15&#45;&gt;Node7 -->
<g id="edge19" class="edge">
<title>Node15&#45;&gt;Node7</title>
<path fill="none" stroke="midnightblue" d="M781.12,-124.7C778.46,-115.59 775.51,-105.49 773.19,-97.58"/>
<polygon fill="midnightblue" stroke="midnightblue" points="777.79,-125.78 783.96,-134.4 784.51,-123.82 777.79,-125.78"/>
</g>
<!-- Node16&#45;&gt;Node12 -->
<g id="edge22" class="edge">
<title>Node16&#45;&gt;Node12</title>
<path fill="none" stroke="midnightblue" d="M1432.85,-137.48C1381.36,-124.66 1297.43,-103.76 1250.54,-92.08"/>
<polygon fill="midnightblue" stroke="midnightblue" points="1432.14,-140.92 1442.69,-139.94 1433.83,-134.12 1432.14,-140.92"/>
</g>
<!-- Node16&#45;&gt;Node17 -->
<g id="edge23" class="edge">
<title>Node16&#45;&gt;Node17</title>
<path fill="none" stroke="midnightblue" d="M1482.51,-129.91C1486.14,-117.49 1490.75,-101.72 1493.56,-92.13"/>
<polygon fill="midnightblue" stroke="midnightblue" points="1479.09,-129.15 1479.64,-139.73 1485.81,-131.12 1479.09,-129.15"/>
</g>
<!-- Node18&#45;&gt;Node16 -->
<g id="edge25" class="edge">
<title>Node18&#45;&gt;Node16</title>
<path fill="none" stroke="midnightblue" d="M1465.32,-191.66C1468.43,-180.77 1472.23,-167.49 1474.65,-159.01"/>
<polygon fill="midnightblue" stroke="midnightblue" points="1461.9,-190.9 1462.51,-201.48 1468.63,-192.82 1461.9,-190.9"/>
</g>
<!-- Node18&#45;&gt;Node19 -->
<g id="edge26" class="edge">
<title>Node18&#45;&gt;Node19</title>
<path fill="none" stroke="midnightblue" d="M1427.84,-197.78C1397.33,-186.22 1352.33,-169.16 1325.53,-159.01"/>
<polygon fill="midnightblue" stroke="midnightblue" points="1426.99,-201.2 1437.58,-201.48 1429.47,-194.66 1426.99,-201.2"/>
</g>
<!-- Node22 -->
<g id="node22" class="node">
<title>Node22</title>
<g id="a_node22"><a xlink:href="_momentum_diagonal_8_c.html" target="_top" xlink:title=" ">
<polygon fill="white" stroke="black" points="2019.08,-201.5 2019.08,-220.5 2145.08,-220.5 2145.08,-201.5 2019.08,-201.5"/>
<text text-anchor="middle" x="2082.08" y="-208.5" font-family="Helvetica,sans-Serif" font-size="10.00">MomentumDiagonal.C</text>
</a>
</g>
</g>
<!-- Node21&#45;&gt;Node22 -->
<g id="edge33" class="edge">
<title>Node21&#45;&gt;Node22</title>
<path fill="none" stroke="midnightblue" d="M2022.65,-251.62C2037.44,-241.76 2056.59,-228.99 2069.1,-220.65"/>
<polygon fill="midnightblue" stroke="midnightblue" points="2020.47,-248.86 2014.09,-257.32 2024.36,-254.69 2020.47,-248.86"/>
</g>
<!-- Node23 -->
<g id="node23" class="node">
<title>Node23</title>
<g id="a_node23"><a xlink:href="_momentum_jacobi_8_c.html" target="_top" xlink:title=" ">
<polygon fill="white" stroke="black" points="2163.08,-201.5 2163.08,-220.5 2275.08,-220.5 2275.08,-201.5 2163.08,-201.5"/>
<text text-anchor="middle" x="2219.08" y="-208.5" font-family="Helvetica,sans-Serif" font-size="10.00">MomentumJacobi.C</text>
</a>
</g>
</g>
<!-- Node21&#45;&gt;Node23 -->
<g id="edge34" class="edge">
<title>Node21&#45;&gt;Node23</title>
<path fill="none" stroke="midnightblue" d="M2045.39,-255.02C2086.57,-244.82 2147.05,-229.84 2184.7,-220.52"/>
<polygon fill="midnightblue" stroke="midnightblue" points="2044.49,-251.64 2035.62,-257.44 2046.17,-258.44 2044.49,-251.64"/>
</g>
<!-- Node25 -->
<g id="node25" class="node">
<title>Node25</title>
<g id="a_node25"><a xlink:href="_momentum_solution_update_8h.html" target="_top" xlink:title=" ">
<polygon fill="white" stroke="black" points="1700.58,-201.5 1700.58,-220.5 1857.58,-220.5 1857.58,-201.5 1700.58,-201.5"/>
<text text-anchor="middle" x="1779.08" y="-208.5" font-family="Helvetica,sans-Serif" font-size="10.00">MomentumSolutionUpdate.h</text>
</a>
</g>
</g>
<!-- Node24&#45;&gt;Node25 -->
<g id="edge36" class="edge">
<title>Node24&#45;&gt;Node25</title>
<path fill="none" stroke="midnightblue" d="M1741.08,-250C1750.65,-240.43 1762.44,-228.64 1770.33,-220.75"/>
<polygon fill="midnightblue" stroke="midnightblue" points="1738.59,-247.54 1734,-257.08 1743.54,-252.49 1738.59,-247.54"/>
</g>
<!-- Node26 -->
<g id="node26" class="node">
<title>Node26</title>
<g id="a_node26"><a xlink:href="_momentum_solution_update_8_c.html" target="_top" xlink:title=" ">
<polygon fill="white" stroke="black" points="1662.08,-140 1662.08,-159 1820.08,-159 1820.08,-140 1662.08,-140"/>
<text text-anchor="middle" x="1741.08" y="-147" font-family="Helvetica,sans-Serif" font-size="10.00">MomentumSolutionUpdate.C</text>
</a>
</g>
</g>
<!-- Node24&#45;&gt;Node26 -->
<g id="edge40" class="edge">
<title>Node24&#45;&gt;Node26</title>
<path fill="none" stroke="midnightblue" d="M1708.06,-250.21C1696.29,-237.28 1683.94,-218.36 1691.08,-201 1698.49,-182.97 1715.8,-167.96 1727.97,-159.11"/>
<polygon fill="midnightblue" stroke="midnightblue" points="1705.63,-252.73 1715.13,-257.41 1710.63,-247.82 1705.63,-252.73"/>
</g>
<!-- Node27 -->
<g id="node27" class="node">
<title>Node27</title>
<g id="a_node27"><a xlink:href="_momentum_operator_8_c.html" target="_top" xlink:title=" ">
<polygon fill="white" stroke="black" points="1875.58,-201.5 1875.58,-220.5 2000.58,-220.5 2000.58,-201.5 1875.58,-201.5"/>
<text text-anchor="middle" x="1938.08" y="-208.5" font-family="Helvetica,sans-Serif" font-size="10.00">MomentumOperator.C</text>
</a>
</g>
</g>
<!-- Node24&#45;&gt;Node27 -->
<g id="edge39" class="edge">
<title>Node24&#45;&gt;Node27</title>
<path fill="none" stroke="midnightblue" d="M1768.63,-254.96C1808.86,-244.76 1867.78,-229.82 1904.49,-220.52"/>
<polygon fill="midnightblue" stroke="midnightblue" points="1767.66,-251.59 1758.83,-257.44 1769.38,-258.38 1767.66,-251.59"/>
</g>
<!-- Node25&#45;&gt;Node12 -->
<g id="edge37" class="edge">
<title>Node25&#45;&gt;Node12</title>
<path fill="none" stroke="midnightblue" d="M1800.15,-195.35C1820.79,-179.27 1846.76,-153.2 1829.08,-134 1828.49,-133.36 1418.82,-99.99 1269.61,-87.85"/>
<polygon fill="midnightblue" stroke="midnightblue" points="1797.98,-192.6 1792.05,-201.38 1802.16,-198.22 1797.98,-192.6"/>
</g>
<!-- Node25&#45;&gt;Node26 -->
<g id="edge38" class="edge">
<title>Node25&#45;&gt;Node26</title>
<path fill="none" stroke="midnightblue" d="M1768.23,-193.01C1761.13,-181.89 1752.15,-167.84 1746.51,-159.01"/>
<polygon fill="midnightblue" stroke="midnightblue" points="1765.3,-194.93 1773.63,-201.48 1771.2,-191.16 1765.3,-194.93"/>
</g>
<!-- Node28&#45;&gt;Node6 -->
<g id="edge42" class="edge">
<title>Node28&#45;&gt;Node6</title>
<path fill="none" stroke="midnightblue" d="M990.61,-205.8C869.16,-197.46 605.27,-178.47 515.08,-165 504.72,-163.45 493.57,-161.26 483.39,-159.04"/>
<polygon fill="midnightblue" stroke="midnightblue" points="990.64,-209.31 1000.85,-206.5 991.12,-202.33 990.64,-209.31"/>
</g>
<!-- Node28&#45;&gt;Node7 -->
<g id="edge49" class="edge">
<title>Node28&#45;&gt;Node7</title>
<path fill="none" stroke="midnightblue" d="M1024.31,-197.19C970.86,-173.38 856.61,-122.49 800.92,-97.68"/>
<polygon fill="midnightblue" stroke="midnightblue" points="1023,-200.43 1033.56,-201.31 1025.85,-194.04 1023,-200.43"/>
</g>
<!-- Node28&#45;&gt;Node8 -->
<g id="edge43" class="edge">
<title>Node28&#45;&gt;Node8</title>
<path fill="none" stroke="midnightblue" d="M991.01,-204.1C914.43,-196.51 780.34,-182.24 666.08,-165 654.64,-163.27 642.31,-161.12 630.9,-159"/>
<polygon fill="midnightblue" stroke="midnightblue" points="990.68,-207.58 1000.97,-205.08 991.37,-200.61 990.68,-207.58"/>
</g>
<!-- Node28&#45;&gt;Node9 -->
<g id="edge45" class="edge">
<title>Node28&#45;&gt;Node9</title>
<path fill="none" stroke="midnightblue" d="M990.71,-206.12C903.56,-200.02 750.28,-186.59 699.08,-165 678.68,-156.4 677.82,-147.25 660.08,-134 639.65,-118.74 615.24,-101.9 600.73,-92.03"/>
<polygon fill="midnightblue" stroke="midnightblue" points="990.53,-209.62 1000.74,-206.81 991.01,-202.63 990.53,-209.62"/>
</g>
<!-- Node28&#45;&gt;Node12 -->
<g id="edge44" class="edge">
<title>Node28&#45;&gt;Node12</title>
<path fill="none" stroke="midnightblue" d="M1088,-197.71C1106.9,-190.05 1130.02,-178.99 1148.08,-165 1176.05,-143.34 1200.32,-108.33 1210.7,-92.17"/>
<polygon fill="midnightblue" stroke="midnightblue" points="1086.59,-194.51 1078.54,-201.41 1089.13,-201.03 1086.59,-194.51"/>
</g>
<!-- Node28&#45;&gt;Node13 -->
<g id="edge46" class="edge">
<title>Node28&#45;&gt;Node13</title>
<path fill="none" stroke="midnightblue" d="M1078.17,-196.04C1090.35,-188.23 1104.41,-177.54 1114.08,-165 1142.71,-127.88 1125.2,-104.69 1153.08,-67 1166.33,-49.08 1187.43,-33.94 1201.51,-25.04"/>
<polygon fill="midnightblue" stroke="midnightblue" points="1076.04,-193.25 1069.32,-201.44 1079.68,-199.22 1076.04,-193.25"/>
</g>
<!-- Node28&#45;&gt;Node26 -->
<g id="edge47" class="edge">
<title>Node28&#45;&gt;Node26</title>
<path fill="none" stroke="midnightblue" d="M1115.18,-204.72C1213.29,-196.36 1410.16,-179.55 1577.08,-165 1604.7,-162.59 1634.94,-159.93 1661.84,-157.55"/>
<polygon fill="midnightblue" stroke="midnightblue" points="1114.81,-201.24 1105.14,-205.57 1115.41,-208.21 1114.81,-201.24"/>
</g>
<!-- Node29 -->
<g id="node29" class="node">
<title>Node29</title>
<g id="a_node29"><a xlink:href="_stk_to_tpetra_map_8_c.html" target="_top" xlink:title=" ">
<polygon fill="white" stroke="black" points="1000.58,-140 1000.58,-159 1105.58,-159 1105.58,-140 1000.58,-140"/>
<text text-anchor="middle" x="1053.08" y="-147" font-family="Helvetica,sans-Serif" font-size="10.00">StkToTpetraMap.C</text>
</a>
</g>
</g>
<!-- Node28&#45;&gt;Node29 -->
<g id="edge48" class="edge">
<title>Node28&#45;&gt;Node29</title>
<path fill="none" stroke="midnightblue" d="M1053.08,-191.32C1053.08,-180.5 1053.08,-167.4 1053.08,-159.01"/>
<polygon fill="midnightblue" stroke="midnightblue" points="1049.58,-191.48 1053.08,-201.48 1056.58,-191.48 1049.58,-191.48"/>
</g>
</g>
</svg>
        <g id="navigator" transform="translate(0 0)" fill="#404254">
                <rect fill="#f2f5e9" fill-opacity="0.5" stroke="#606060" stroke-width=".5" x="0" y="0" width="60" height="60"/>
                <use id="zoomplus" xlink:href="#zoomPlus" x="17" y="9" onmousedown="handleZoom(evt,'in')"/>
                <use id="zoomminus" xlink:href="#zoomMin" x="42" y="9" onmousedown="handleZoom(evt,'out')"/>
                <use id="reset" xlink:href="#resetDef" x="30" y="36" onmousedown="handleReset()"/>
                <g id="arrowUp" xlink:href="#dirArrow" transform="translate(30 24)" onmousedown="handlePan(0,-1)">
                  <use xlink:href="#rim" fill="#404040">
                        <set attributeName="fill" to="#808080" begin="arrowUp.mouseover" end="arrowUp.mouseout"/>
                  </use>
                  <path fill="none" stroke="white" stroke-width="1.5" d="M0,-3.0v7 M-2.5,-0.5L0,-3.0L2.5,-0.5"/>
                </g>
                <g id="arrowRight" xlink:href="#dirArrow" transform="rotate(90) translate(36 -43)" onmousedown="handlePan(1,0)">
                  <use xlink:href="#rim" fill="#404040">
                        <set attributeName="fill" to="#808080" begin="arrowRight.mouseover" end="arrowRight.mouseout"/>
                  </use>
                  <path fill="none" stroke="white" stroke-width="1.5" d="M0,-3.0v7 M-2.5,-0.5L0,-3.0L2.5,-0.5"/>
                </g>
                <g id="arrowDown" xlink:href="#dirArrow" transform="rotate(180) translate(-30 -48)" onmousedown="handlePan(0,1)">
                  <use xlink:href="#rim" fill="#404040">
                        <set attributeName="fill" to="#808080" begin="arrowDown.mouseover" end="arrowDown.mouseout"/>
                  </use>
                  <path fill="none" stroke="white" stroke-width="1.5" d="M0,-3.0v7 M-2.5,-0.5L0,-3.0L2.5,-0.5"/>
                </g>
                <g id="arrowLeft" xlink:href="#dirArrow" transform="rotate(270) translate(-36 17)" onmousedown="handlePan(-1,0)">
                  <use xlink:href="#rim" fill="#404040">
                        <set attributeName="fill" to="#808080" begin="arrowLeft.mouseover" end="arrowLeft.mouseout"/>
                  </use>
                  <path fill="none" stroke="white" stroke-width="1.5" d="M0,-3.0v7 M-2.5,-0.5L0,-3.0L2.5,-0.5"/>
                </g>
        </g>
        <svg viewBox="0 0 15 15" width="100%" height="30px" preserveAspectRatio="xMaxYMin meet">
         <g id="arrow_out" transform="scale(0.3 0.3)">
          <a xlink:href="_lin_sys_info_8h__dep__incl_org.svg" target="_base">
           <rect id="button" ry="5" rx="5" y="6" x="6" height="38" width="38"
                fill="#f2f5e9" fill-opacity="0.5" stroke="#606060" stroke-width="1.0"/>
           <path id="arrow"
             d="M 11.500037,31.436501 C 11.940474,20.09759 22.043105,11.32322 32.158766,21.979434 L 37.068811,17.246167 C 37.068811,17.246167 37.088388,32 37.088388,32 L 22.160133,31.978069 C 22.160133,31.978069 26.997745,27.140456 26.997745,27.140456 C 18.528582,18.264221 13.291696,25.230495 11.500037,31.436501 z"
             style="fill:#404040;"/>
          </a>
         </g>
        </svg>
</svg>
