<?xml version="1.0" encoding="UTF-8" standalone="no"?>
<!DOCTYPE svg PUBLIC "-//W3C//DTD SVG 1.1//EN"
 "http://www.w3.org/Graphics/SVG/1.1/DTD/svg11.dtd">
<!-- Generated by graphviz version 2.43.0 (0)
 -->
<!-- Title: LinearSolvers.C Pages: 1 -->
<!--zoomable 247 -->

<svg id="main" version="1.1" xmlns="http://www.w3.org/2000/svg" xmlns:xlink="http://www.w3.org/1999/xlink" xml:space="preserve" onload="init(evt)">
<style type="text/css"><![CDATA[
.node, .edge {opacity: 0.7;}
.node.selected, .edge.selected {opacity: 1;}
.edge:hover path { stroke: red; }
.edge:hover polygon { stroke: red; fill: red; }
]]></style>

<defs>
  <circle id="rim" cx="0" cy="0" r="7"/>
  <circle id="rim2" cx="0" cy="0" r="3.5"/>
  <g id="zoomPlus">
    <use xlink:href="#rim" fill="#404040"><set attributeName="fill" to="#808080" begin="zoomplus.mouseover" end="zoomplus.mouseout"/></use>
    <path d="M-4,0h8M0,-4v8" fill="none" stroke="white" stroke-width="1.5" pointer-events="none"/>
  </g>
  <g id="zoomMin">
    <use xlink:href="#rim" fill="#404040"><set attributeName="fill" to="#808080" begin="zoomminus.mouseover" end="zoomminus.mouseout"/></use>
    <path d="M-4,0h8" fill="none" stroke="white" stroke-width="1.5" pointer-events="none"/>
  </g>
  <g id="arrowUp" transform="translate(30 24)">
    <use xlink:href="#rim"/>
    <path pointer-events="none" fill="none" stroke="white" stroke-width="1.5" d="M0,-3.0v7 M-2.5,-0.5L0,-3.0L2.5,-0.5"/>
  </g>
  <g id="arrowRight" transform="rotate(90) translate(36 -43)">
    <use xlink:href="#rim"/>
    <path pointer-events="none" fill="none" stroke="white" stroke-width="1.5" d="M0,-3.0v7 M-2.5,-0.5L0,-3.0L2.5,-0.5"/>
  </g>
  <g id="arrowDown" transform="rotate(180) translate(-30 -48)">
    <use xlink:href="#rim"/>
    <path pointer-events="none" fill="none" stroke="white" stroke-width="1.5" d="M0,-3.0v7 M-2.5,-0.5L0,-3.0L2.5,-0.5"/>
  </g>
  <g id="arrowLeft" transform="rotate(270) translate(-36 17)">
    <use xlink:href="#rim"/>
    <path pointer-events="none" fill="none" stroke="white" stroke-width="1.5" d="M0,-3.0v7 M-2.5,-0.5L0,-3.0L2.5,-0.5"/>
  </g>
  <g id="resetDef">
    <use xlink:href="#rim2" fill="#404040"><set attributeName="fill" to="#808080" begin="reset.mouseover" end="reset.mouseout"/></use>
  </g>
</defs>
<script type="application/ecmascript">
var viewWidth = 2739;
var viewHeight = 247;
var sectionId = 'dynsection-0';
</script>
<script type="application/ecmascript" xlink:href="svg.min.js"/>
<svg id="graph" class="graph">
<g id="viewport">
<title>LinearSolvers.C</title>
<!-- Node1 -->
<g id="Node000001" class="node">
<title>Node1</title>
<g id="a_Node000001"><a xlink:title=" ">
<polygon fill="#999999" stroke="#666666" points="1120,-239 1028,-239 1028,-220 1120,-220 1120,-239"/>
<text text-anchor="middle" x="1074" y="-227" font-family="Helvetica,sans-Serif" font-size="10.00">LinearSolvers.C</text>
</a>
</g>
</g>
<!-- Node2 -->
<g id="Node000002" class="node">
<title>Node2</title>
<g id="a_Node000002"><a xlink:href="_linear_solvers_8h.html" target="_top" xlink:title=" ">
<polygon fill="white" stroke="#666666" points="92,-129 0,-129 0,-110 92,-110 92,-129"/>
<text text-anchor="middle" x="46" y="-117" font-family="Helvetica,sans-Serif" font-size="10.00">LinearSolvers.h</text>
</a>
</g>
</g>
<!-- Node1&#45;&gt;Node2 -->
<g id="edge1_Node000001_Node000002" class="edge">
<title>Node1&#45;&gt;Node2</title>
<g id="a_edge1_Node000001_Node000002"><a xlink:title=" ">
<path fill="none" stroke="#63b8ff" d="M1027.87,-228.4C846.78,-227.73 190.25,-222.62 106,-184 84.53,-174.16 66.99,-152.8 56.53,-137.58"/>
<polygon fill="#63b8ff" stroke="#63b8ff" points="59.36,-135.51 50.96,-129.05 53.5,-139.33 59.36,-135.51"/>
</a>
</g>
</g>
<!-- Node6 -->
<g id="Node000006" class="node">
<title>Node6</title>
<g id="a_Node000006"><a xlink:title=" ">
<polygon fill="#e0e0e0" stroke="#999999" points="196.5,-74 47.5,-74 47.5,-55 196.5,-55 196.5,-74"/>
<text text-anchor="middle" x="122" y="-62" font-family="Helvetica,sans-Serif" font-size="10.00">Teuchos_ParameterList.hpp</text>
</a>
</g>
</g>
<!-- Node1&#45;&gt;Node6 -->
<g id="edge72_Node000001_Node000006" class="edge">
<title>Node1&#45;&gt;Node6</title>
<g id="a_edge72_Node000001_Node000006"><a xlink:title=" ">
<path fill="none" stroke="#63b8ff" d="M1027.86,-228.35C864.47,-227.06 315.23,-216.2 167,-129 149.4,-118.65 136.9,-98.39 129.61,-83.53"/>
<polygon fill="#63b8ff" stroke="#63b8ff" points="132.73,-81.93 125.39,-74.29 126.36,-84.84 132.73,-81.93"/>
</a>
</g>
</g>
<!-- Node7 -->
<g id="Node000007" class="node">
<title>Node7</title>
<g id="a_Node000007"><a xlink:href="_linear_solver_8h.html" target="_top" xlink:title=" ">
<polygon fill="white" stroke="#666666" points="1886,-184 1800,-184 1800,-165 1886,-165 1886,-184"/>
<text text-anchor="middle" x="1843" y="-172" font-family="Helvetica,sans-Serif" font-size="10.00">LinearSolver.h</text>
</a>
</g>
</g>
<!-- Node1&#45;&gt;Node7 -->
<g id="edge8_Node000001_Node000007" class="edge">
<title>Node1&#45;&gt;Node7</title>
<g id="a_edge8_Node000001_Node000007"><a xlink:title=" ">
<path fill="none" stroke="#63b8ff" d="M1120.09,-225.32C1254.6,-216.05 1646.19,-189.06 1789.59,-179.18"/>
<polygon fill="#63b8ff" stroke="#63b8ff" points="1790.14,-182.65 1799.88,-178.47 1789.66,-175.67 1790.14,-182.65"/>
</a>
</g>
</g>
<!-- Node20 -->
<g id="Node000020" class="node">
<title>Node20</title>
<g id="a_Node000020"><a xlink:href="_linear_solver_config_8h.html" target="_top" xlink:title=" ">
<polygon fill="white" stroke="#666666" points="1588.5,-129 1471.5,-129 1471.5,-110 1588.5,-110 1588.5,-129"/>
<text text-anchor="middle" x="1530" y="-117" font-family="Helvetica,sans-Serif" font-size="10.00">LinearSolverConfig.h</text>
</a>
</g>
</g>
<!-- Node1&#45;&gt;Node20 -->
<g id="edge29_Node000001_Node000020" class="edge">
<title>Node1&#45;&gt;Node20</title>
<g id="a_edge29_Node000001_Node000020"><a xlink:title=" ">
<path fill="none" stroke="#63b8ff" d="M1120.45,-222.29C1171.85,-214.99 1256.96,-201.58 1329,-184 1389.01,-169.35 1457.28,-146.41 1496.82,-132.48"/>
<polygon fill="#63b8ff" stroke="#63b8ff" points="1498.21,-135.7 1506.47,-129.06 1495.87,-129.11 1498.21,-135.7"/>
</a>
</g>
</g>
<!-- Node25 -->
<g id="Node000025" class="node">
<title>Node25</title>
<g id="a_Node000025"><a xlink:href="_nalu_env_8h.html" target="_top" xlink:title=" ">
<polygon fill="white" stroke="#666666" points="1137.5,-129 1072.5,-129 1072.5,-110 1137.5,-110 1137.5,-129"/>
<text text-anchor="middle" x="1105" y="-117" font-family="Helvetica,sans-Serif" font-size="10.00">NaluEnv.h</text>
</a>
</g>
</g>
<!-- Node1&#45;&gt;Node25 -->
<g id="edge30_Node000001_Node000025" class="edge">
<title>Node1&#45;&gt;Node25</title>
<g id="a_edge30_Node000001_Node000025"><a xlink:title=" ">
<path fill="none" stroke="#63b8ff" d="M1076.54,-219.66C1081.58,-202.09 1092.96,-162.45 1099.7,-138.95"/>
<polygon fill="#63b8ff" stroke="#63b8ff" points="1103.12,-139.74 1102.51,-129.16 1096.39,-137.8 1103.12,-139.74"/>
</a>
</g>
</g>
<!-- Node29 -->
<g id="Node000029" class="node">
<title>Node29</title>
<g id="a_Node000029"><a xlink:href="_nalu_parsing_8h.html" target="_top" xlink:title=" ">
<polygon fill="white" stroke="#666666" points="799.5,-184 716.5,-184 716.5,-165 799.5,-165 799.5,-184"/>
<text text-anchor="middle" x="758" y="-172" font-family="Helvetica,sans-Serif" font-size="10.00">NaluParsing.h</text>
</a>
</g>
</g>
<!-- Node1&#45;&gt;Node29 -->
<g id="edge34_Node000001_Node000029" class="edge">
<title>Node1&#45;&gt;Node29</title>
<g id="a_edge34_Node000001_Node000029"><a xlink:title=" ">
<path fill="none" stroke="#63b8ff" d="M1027.71,-220.74C969.7,-211.01 870.54,-194.38 809.98,-184.22"/>
<polygon fill="#63b8ff" stroke="#63b8ff" points="810.31,-180.72 799.87,-182.52 809.15,-187.63 810.31,-180.72"/>
</a>
</g>
</g>
<!-- Node37 -->
<g id="Node000037" class="node">
<title>Node37</title>
<g id="a_Node000037"><a xlink:title=" ">
<polygon fill="#e0e0e0" stroke="#999999" points="1001.5,-74 902.5,-74 902.5,-55 1001.5,-55 1001.5,-74"/>
<text text-anchor="middle" x="952" y="-62" font-family="Helvetica,sans-Serif" font-size="10.00">yaml&#45;cpp/yaml.h</text>
</a>
</g>
</g>
<!-- Node1&#45;&gt;Node37 -->
<g id="edge73_Node000001_Node000037" class="edge">
<title>Node1&#45;&gt;Node37</title>
<g id="a_edge73_Node000001_Node000037"><a xlink:title=" ">
<path fill="none" stroke="#63b8ff" d="M1067.44,-219.74C1048,-193.76 990.42,-116.83 964.68,-82.44"/>
<polygon fill="#63b8ff" stroke="#63b8ff" points="967.39,-80.22 958.59,-74.31 961.78,-84.41 967.39,-80.22"/>
</a>
</g>
</g>
<!-- Node39 -->
<g id="Node000039" class="node">
<title>Node39</title>
<g id="a_Node000039"><a xlink:href="_simulation_8h.html" target="_top" xlink:title=" ">
<polygon fill="white" stroke="#666666" points="1320,-184 1242,-184 1242,-165 1320,-165 1320,-184"/>
<text text-anchor="middle" x="1281" y="-172" font-family="Helvetica,sans-Serif" font-size="10.00">Simulation.h</text>
</a>
</g>
</g>
<!-- Node1&#45;&gt;Node39 -->
<g id="edge68_Node000001_Node000039" class="edge">
<title>Node1&#45;&gt;Node39</title>
<g id="a_edge68_Node000001_Node000039"><a xlink:title=" ">
<path fill="none" stroke="#63b8ff" d="M1107.26,-219.98C1142.61,-210.93 1198.67,-196.58 1237.51,-186.64"/>
<polygon fill="#63b8ff" stroke="#63b8ff" points="1238.66,-189.95 1247.48,-184.08 1236.93,-183.17 1238.66,-189.95"/>
</a>
</g>
</g>
<!-- Node3 -->
<g id="Node000003" class="node">
<title>Node3</title>
<g id="a_Node000003"><a xlink:href="_enums_8h.html" target="_top" xlink:title=" ">
<polygon fill="white" stroke="#666666" points="311.5,-74 252.5,-74 252.5,-55 311.5,-55 311.5,-74"/>
<text text-anchor="middle" x="282" y="-62" font-family="Helvetica,sans-Serif" font-size="10.00">Enums.h</text>
</a>
</g>
</g>
<!-- Node2&#45;&gt;Node3 -->
<g id="edge2_Node000002_Node000003" class="edge">
<title>Node2&#45;&gt;Node3</title>
<g id="a_edge2_Node000002_Node000003"><a xlink:title=" ">
<path fill="none" stroke="#63b8ff" d="M83.92,-109.98C127.43,-100.21 198.46,-84.26 242.6,-74.35"/>
<polygon fill="#63b8ff" stroke="#63b8ff" points="243.4,-77.75 252.39,-72.15 241.87,-70.93 243.4,-77.75"/>
</a>
</g>
</g>
<!-- Node4 -->
<g id="Node000004" class="node">
<title>Node4</title>
<g id="a_Node000004"><a xlink:title=" ">
<polygon fill="#e0e0e0" stroke="#999999" points="590,-19 546,-19 546,0 590,0 590,-19"/>
<text text-anchor="middle" x="568" y="-7" font-family="Helvetica,sans-Serif" font-size="10.00">string</text>
</a>
</g>
</g>
<!-- Node2&#45;&gt;Node4 -->
<g id="edge7_Node000002_Node000004" class="edge">
<title>Node2&#45;&gt;Node4</title>
<g id="a_edge7_Node000002_Node000004"><a xlink:title=" ">
<path fill="none" stroke="#63b8ff" d="M41.17,-109.83C34.35,-96.27 24.16,-70.05 38,-55 54.93,-36.58 423.16,-17.45 535.65,-12.02"/>
<polygon fill="#63b8ff" stroke="#63b8ff" points="535.9,-15.51 545.72,-11.54 535.56,-8.52 535.9,-15.51"/>
</a>
</g>
</g>
<!-- Node5 -->
<g id="Node000005" class="node">
<title>Node5</title>
<g id="a_Node000005"><a xlink:title=" ">
<polygon fill="#e0e0e0" stroke="#999999" points="301,-19 263,-19 263,0 301,0 301,-19"/>
<text text-anchor="middle" x="282" y="-7" font-family="Helvetica,sans-Serif" font-size="10.00">map</text>
</a>
</g>
</g>
<!-- Node2&#45;&gt;Node5 -->
<g id="edge6_Node000002_Node000005" class="edge">
<title>Node2&#45;&gt;Node5</title>
<g id="a_edge6_Node000002_Node000005"><a xlink:title=" ">
<path fill="none" stroke="#63b8ff" d="M33.77,-109.97C17.04,-97.26 -9.29,-72.95 6,-55 37.46,-18.06 188.13,-11.68 252.61,-10.65"/>
<polygon fill="#63b8ff" stroke="#63b8ff" points="252.94,-14.15 262.9,-10.52 252.85,-7.15 252.94,-14.15"/>
</a>
</g>
</g>
<!-- Node2&#45;&gt;Node6 -->
<g id="edge5_Node000002_Node000006" class="edge">
<title>Node2&#45;&gt;Node6</title>
<g id="a_edge5_Node000002_Node000006"><a xlink:title=" ">
<path fill="none" stroke="#63b8ff" d="M58.21,-109.98C69.78,-101.92 87.38,-89.65 101.16,-80.03"/>
<polygon fill="#63b8ff" stroke="#63b8ff" points="103.37,-82.76 109.57,-74.17 99.36,-77.02 103.37,-82.76"/>
</a>
</g>
</g>
<!-- Node3&#45;&gt;Node4 -->
<g id="edge3_Node000003_Node000004" class="edge">
<title>Node3&#45;&gt;Node4</title>
<g id="a_edge3_Node000003_Node000004"><a xlink:title=" ">
<path fill="none" stroke="#63b8ff" d="M311.82,-57.7C316.56,-56.79 321.41,-55.86 326,-55 401.16,-40.83 489.57,-24.71 535.92,-16.3"/>
<polygon fill="#63b8ff" stroke="#63b8ff" points="536.75,-19.71 545.97,-14.48 535.5,-12.82 536.75,-19.71"/>
</a>
</g>
</g>
<!-- Node3&#45;&gt;Node5 -->
<g id="edge4_Node000003_Node000005" class="edge">
<title>Node3&#45;&gt;Node5</title>
<g id="a_edge4_Node000003_Node000005"><a xlink:title=" ">
<path fill="none" stroke="#63b8ff" d="M282,-54.75C282,-47.8 282,-37.85 282,-29.13"/>
<polygon fill="#63b8ff" stroke="#63b8ff" points="285.5,-29.09 282,-19.09 278.5,-29.09 285.5,-29.09"/>
</a>
</g>
</g>
<!-- Node8 -->
<g id="Node000008" class="node">
<title>Node8</title>
<g id="a_Node000008"><a xlink:href="_linear_solver_types_8h.html" target="_top" xlink:title=" ">
<polygon fill="white" stroke="#666666" points="2184,-129 2070,-129 2070,-110 2184,-110 2184,-129"/>
<text text-anchor="middle" x="2127" y="-117" font-family="Helvetica,sans-Serif" font-size="10.00">LinearSolverTypes.h</text>
</a>
</g>
</g>
<!-- Node7&#45;&gt;Node8 -->
<g id="edge9_Node000007_Node000008" class="edge">
<title>Node7&#45;&gt;Node8</title>
<g id="a_edge9_Node000007_Node000008"><a xlink:title=" ">
<path fill="none" stroke="#63b8ff" d="M1886.13,-165.45C1935.55,-156.23 2016.69,-141.09 2070.96,-130.96"/>
<polygon fill="#63b8ff" stroke="#63b8ff" points="2071.91,-134.34 2081.1,-129.07 2070.63,-127.46 2071.91,-134.34"/>
</a>
</g>
</g>
<!-- Node13 -->
<g id="Node000013" class="node">
<title>Node13</title>
<g id="a_Node000013"><a xlink:title=" ">
<polygon fill="#e0e0e0" stroke="#999999" points="1893,-19 1793,-19 1793,0 1893,0 1893,-19"/>
<text text-anchor="middle" x="1843" y="-7" font-family="Helvetica,sans-Serif" font-size="10.00">Kokkos_Core.hpp</text>
</a>
</g>
</g>
<!-- Node7&#45;&gt;Node13 -->
<g id="edge25_Node000007_Node000013" class="edge">
<title>Node7&#45;&gt;Node13</title>
<g id="a_edge25_Node000007_Node000013"><a xlink:title=" ">
<path fill="none" stroke="#63b8ff" d="M1843,-164.74C1843,-139.31 1843,-65.08 1843,-29.69"/>
<polygon fill="#63b8ff" stroke="#63b8ff" points="1846.5,-29.31 1843,-19.31 1839.5,-29.31 1846.5,-29.31"/>
</a>
</g>
</g>
<!-- Node7&#45;&gt;Node20 -->
<g id="edge21_Node000007_Node000020" class="edge">
<title>Node7&#45;&gt;Node20</title>
<g id="a_edge21_Node000007_Node000020"><a xlink:title=" ">
<path fill="none" stroke="#63b8ff" d="M1799.81,-166.19C1745.4,-156.97 1651.61,-141.09 1590.19,-130.69"/>
<polygon fill="#63b8ff" stroke="#63b8ff" points="1590.69,-127.23 1580.25,-129.01 1589.52,-134.13 1590.69,-127.23"/>
</a>
</g>
</g>
<!-- Node22 -->
<g id="Node000022" class="node">
<title>Node22</title>
<g id="a_Node000022"><a xlink:title=" ">
<polygon fill="#e0e0e0" stroke="#999999" points="2371.5,-129 2202.5,-129 2202.5,-110 2371.5,-110 2371.5,-129"/>
<text text-anchor="middle" x="2287" y="-117" font-family="Helvetica,sans-Serif" font-size="10.00">Teuchos_GlobalMPISession.hpp</text>
</a>
</g>
</g>
<!-- Node7&#45;&gt;Node22 -->
<g id="edge26_Node000007_Node000022" class="edge">
<title>Node7&#45;&gt;Node22</title>
<g id="a_edge26_Node000007_Node000022"><a xlink:title=" ">
<path fill="none" stroke="#63b8ff" d="M1886.38,-168.32C1960.17,-159.51 2111.26,-141.48 2205.34,-130.25"/>
<polygon fill="#63b8ff" stroke="#63b8ff" points="2205.88,-133.71 2215.39,-129.05 2205.05,-126.76 2205.88,-133.71"/>
</a>
</g>
</g>
<!-- Node23 -->
<g id="Node000023" class="node">
<title>Node23</title>
<g id="a_Node000023"><a xlink:title=" ">
<polygon fill="#e0e0e0" stroke="#999999" points="1815,-129 1645,-129 1645,-110 1815,-110 1815,-129"/>
<text text-anchor="middle" x="1730" y="-117" font-family="Helvetica,sans-Serif" font-size="10.00">Teuchos_oblackholestream.hpp</text>
</a>
</g>
</g>
<!-- Node7&#45;&gt;Node23 -->
<g id="edge27_Node000007_Node000023" class="edge">
<title>Node7&#45;&gt;Node23</title>
<g id="a_edge27_Node000007_Node000023"><a xlink:title=" ">
<path fill="none" stroke="#63b8ff" d="M1824.84,-164.98C1806.75,-156.5 1778.72,-143.35 1757.81,-133.54"/>
<polygon fill="#63b8ff" stroke="#63b8ff" points="1759.03,-130.25 1748.49,-129.17 1756.05,-136.59 1759.03,-130.25"/>
</a>
</g>
</g>
<!-- Node24 -->
<g id="Node000024" class="node">
<title>Node24</title>
<g id="a_Node000024"><a xlink:title=" ">
<polygon fill="#e0e0e0" stroke="#999999" points="1915,-129 1871,-129 1871,-110 1915,-110 1915,-129"/>
<text text-anchor="middle" x="1893" y="-117" font-family="Helvetica,sans-Serif" font-size="10.00">limits</text>
</a>
</g>
</g>
<!-- Node7&#45;&gt;Node24 -->
<g id="edge28_Node000007_Node000024" class="edge">
<title>Node7&#45;&gt;Node24</title>
<g id="a_edge28_Node000007_Node000024"><a xlink:title=" ">
<path fill="none" stroke="#63b8ff" d="M1851.26,-164.75C1858.46,-157.11 1869.11,-145.82 1877.85,-136.56"/>
<polygon fill="#63b8ff" stroke="#63b8ff" points="1880.58,-138.76 1884.9,-129.09 1875.49,-133.96 1880.58,-138.76"/>
</a>
</g>
</g>
<!-- Node9 -->
<g id="Node000009" class="node">
<title>Node9</title>
<g id="a_Node000009"><a xlink:href="_kokkos_interface_8h.html" target="_top" xlink:title=" ">
<polygon fill="white" stroke="#666666" points="1729,-74 1625,-74 1625,-55 1729,-55 1729,-74"/>
<text text-anchor="middle" x="1677" y="-62" font-family="Helvetica,sans-Serif" font-size="10.00">KokkosInterface.h</text>
</a>
</g>
</g>
<!-- Node8&#45;&gt;Node9 -->
<g id="edge10_Node000008_Node000009" class="edge">
<title>Node8&#45;&gt;Node9</title>
<g id="a_edge10_Node000008_Node000009"><a xlink:title=" ">
<path fill="none" stroke="#63b8ff" d="M2069.55,-111.73C1984.76,-101.75 1826.75,-83.14 1739.28,-72.84"/>
<polygon fill="#63b8ff" stroke="#63b8ff" points="1739.57,-69.35 1729.23,-71.65 1738.75,-76.3 1739.57,-69.35"/>
</a>
</g>
</g>
<!-- Node14 -->
<g id="Node000014" class="node">
<title>Node14</title>
<g id="a_Node000014"><a xlink:title=" ">
<polygon fill="#e0e0e0" stroke="#999999" points="2049,-74 1871,-74 1871,-55 2049,-55 2049,-74"/>
<text text-anchor="middle" x="1960" y="-62" font-family="Helvetica,sans-Serif" font-size="10.00">Tpetra_Details_DefaultTypes.hpp</text>
</a>
</g>
</g>
<!-- Node8&#45;&gt;Node14 -->
<g id="edge15_Node000008_Node000014" class="edge">
<title>Node8&#45;&gt;Node14</title>
<g id="a_edge15_Node000008_Node000014"><a xlink:title=" ">
<path fill="none" stroke="#63b8ff" d="M2100.17,-109.98C2072.13,-101.09 2027.95,-87.07 1996.7,-77.15"/>
<polygon fill="#63b8ff" stroke="#63b8ff" points="1997.63,-73.77 1987.04,-74.08 1995.51,-80.44 1997.63,-73.77"/>
</a>
</g>
</g>
<!-- Node15 -->
<g id="Node000015" class="node">
<title>Node15</title>
<g id="a_Node000015"><a xlink:title=" ">
<polygon fill="#e0e0e0" stroke="#999999" points="2186.5,-74 2067.5,-74 2067.5,-55 2186.5,-55 2186.5,-74"/>
<text text-anchor="middle" x="2127" y="-62" font-family="Helvetica,sans-Serif" font-size="10.00">Tpetra_CrsGraph.hpp</text>
</a>
</g>
</g>
<!-- Node8&#45;&gt;Node15 -->
<g id="edge16_Node000008_Node000015" class="edge">
<title>Node8&#45;&gt;Node15</title>
<g id="a_edge16_Node000008_Node000015"><a xlink:title=" ">
<path fill="none" stroke="#63b8ff" d="M2127,-109.75C2127,-102.8 2127,-92.85 2127,-84.13"/>
<polygon fill="#63b8ff" stroke="#63b8ff" points="2130.5,-84.09 2127,-74.09 2123.5,-84.09 2130.5,-84.09"/>
</a>
</g>
</g>
<!-- Node16 -->
<g id="Node000016" class="node">
<title>Node16</title>
<g id="a_Node000016"><a xlink:title=" ">
<polygon fill="#e0e0e0" stroke="#999999" points="2327,-74 2205,-74 2205,-55 2327,-55 2327,-74"/>
<text text-anchor="middle" x="2266" y="-62" font-family="Helvetica,sans-Serif" font-size="10.00">Tpetra_CrsMatrix.hpp</text>
</a>
</g>
</g>
<!-- Node8&#45;&gt;Node16 -->
<g id="edge17_Node000008_Node000016" class="edge">
<title>Node8&#45;&gt;Node16</title>
<g id="a_edge17_Node000008_Node000016"><a xlink:title=" ">
<path fill="none" stroke="#63b8ff" d="M2149.33,-109.98C2172.2,-101.27 2207.96,-87.63 2233.86,-77.75"/>
<polygon fill="#63b8ff" stroke="#63b8ff" points="2235.16,-81 2243.26,-74.17 2232.67,-74.46 2235.16,-81"/>
</a>
</g>
</g>
<!-- Node17 -->
<g id="Node000017" class="node">
<title>Node17</title>
<g id="a_Node000017"><a xlink:title=" ">
<polygon fill="#e0e0e0" stroke="#999999" points="2449,-74 2345,-74 2345,-55 2449,-55 2449,-74"/>
<text text-anchor="middle" x="2397" y="-62" font-family="Helvetica,sans-Serif" font-size="10.00">Tpetra_Vector.hpp</text>
</a>
</g>
</g>
<!-- Node8&#45;&gt;Node17 -->
<g id="edge18_Node000008_Node000017" class="edge">
<title>Node8&#45;&gt;Node17</title>
<g id="a_edge18_Node000008_Node000017"><a xlink:title=" ">
<path fill="none" stroke="#63b8ff" d="M2170.38,-109.98C2217.38,-100.76 2292.43,-86.03 2343.16,-76.07"/>
<polygon fill="#63b8ff" stroke="#63b8ff" points="2344.14,-79.44 2353.28,-74.08 2342.79,-72.57 2344.14,-79.44"/>
</a>
</g>
</g>
<!-- Node18 -->
<g id="Node000018" class="node">
<title>Node18</title>
<g id="a_Node000018"><a xlink:title=" ">
<polygon fill="#e0e0e0" stroke="#999999" points="2596.5,-74 2467.5,-74 2467.5,-55 2596.5,-55 2596.5,-74"/>
<text text-anchor="middle" x="2532" y="-62" font-family="Helvetica,sans-Serif" font-size="10.00">Tpetra_MultiVector.hpp</text>
</a>
</g>
</g>
<!-- Node8&#45;&gt;Node18 -->
<g id="edge19_Node000008_Node000018" class="edge">
<title>Node8&#45;&gt;Node18</title>
<g id="a_edge19_Node000008_Node000018"><a xlink:title=" ">
<path fill="none" stroke="#63b8ff" d="M2184.17,-111.02C2255.64,-101.67 2378.16,-85.63 2457.07,-75.31"/>
<polygon fill="#63b8ff" stroke="#63b8ff" points="2457.97,-78.72 2467.43,-73.95 2457.06,-71.78 2457.97,-78.72"/>
</a>
</g>
</g>
<!-- Node19 -->
<g id="Node000019" class="node">
<title>Node19</title>
<g id="a_Node000019"><a xlink:title=" ">
<polygon fill="#e0e0e0" stroke="#999999" points="2731,-74 2615,-74 2615,-55 2731,-55 2731,-74"/>
<text text-anchor="middle" x="2673" y="-62" font-family="Helvetica,sans-Serif" font-size="10.00">Tpetra_Operator.hpp</text>
</a>
</g>
</g>
<!-- Node8&#45;&gt;Node19 -->
<g id="edge20_Node000008_Node000019" class="edge">
<title>Node8&#45;&gt;Node19</title>
<g id="a_edge20_Node000008_Node000019"><a xlink:title=" ">
<path fill="none" stroke="#63b8ff" d="M2184,-111.11C2187.38,-110.72 2190.74,-110.35 2194,-110 2373.55,-90.77 2421.56,-93.47 2604.94,-74.07"/>
<polygon fill="#63b8ff" stroke="#63b8ff" points="2605.34,-77.55 2614.91,-73.01 2604.6,-70.59 2605.34,-77.55"/>
</a>
</g>
</g>
<!-- Node10 -->
<g id="Node000010" class="node">
<title>Node10</title>
<g id="a_Node000010"><a xlink:title=" ">
<polygon fill="#e0e0e0" stroke="#999999" points="1615.5,-19 1562.5,-19 1562.5,0 1615.5,0 1615.5,-19"/>
<text text-anchor="middle" x="1589" y="-7" font-family="Helvetica,sans-Serif" font-size="10.00">cstddef</text>
</a>
</g>
</g>
<!-- Node9&#45;&gt;Node10 -->
<g id="edge11_Node000009_Node000010" class="edge">
<title>Node9&#45;&gt;Node10</title>
<g id="a_edge11_Node000009_Node000010"><a xlink:title=" ">
<path fill="none" stroke="#63b8ff" d="M1662.86,-54.98C1649.21,-46.77 1628.31,-34.18 1612.22,-24.49"/>
<polygon fill="#63b8ff" stroke="#63b8ff" points="1613.77,-21.33 1603.4,-19.17 1610.16,-27.33 1613.77,-21.33"/>
</a>
</g>
</g>
<!-- Node11 -->
<g id="Node000011" class="node">
<title>Node11</title>
<g id="a_Node000011"><a xlink:title=" ">
<polygon fill="#e0e0e0" stroke="#999999" points="1774.5,-19 1633.5,-19 1633.5,0 1774.5,0 1774.5,-19"/>
<text text-anchor="middle" x="1704" y="-7" font-family="Helvetica,sans-Serif" font-size="10.00">stk_mesh/base/Entity.hpp</text>
</a>
</g>
</g>
<!-- Node9&#45;&gt;Node11 -->
<g id="edge12_Node000009_Node000011" class="edge">
<title>Node9&#45;&gt;Node11</title>
<g id="a_edge12_Node000009_Node000011"><a xlink:title=" ">
<path fill="none" stroke="#63b8ff" d="M1681.46,-54.75C1685.12,-47.57 1690.41,-37.18 1694.95,-28.27"/>
<polygon fill="#63b8ff" stroke="#63b8ff" points="1698.2,-29.59 1699.62,-19.09 1691.97,-26.41 1698.2,-29.59"/>
</a>
</g>
</g>
<!-- Node12 -->
<g id="Node000012" class="node">
<title>Node12</title>
<g id="a_Node000012"><a xlink:title=" ">
<polygon fill="#e0e0e0" stroke="#999999" points="1544.5,-19 1431.5,-19 1431.5,0 1544.5,0 1544.5,-19"/>
<text text-anchor="middle" x="1488" y="-7" font-family="Helvetica,sans-Serif" font-size="10.00">Kokkos_Macros.hpp</text>
</a>
</g>
</g>
<!-- Node9&#45;&gt;Node12 -->
<g id="edge13_Node000009_Node000012" class="edge">
<title>Node9&#45;&gt;Node12</title>
<g id="a_edge13_Node000009_Node000012"><a xlink:title=" ">
<path fill="none" stroke="#63b8ff" d="M1646.63,-54.98C1614.63,-46.01 1564.04,-31.82 1528.62,-21.89"/>
<polygon fill="#63b8ff" stroke="#63b8ff" points="1529.18,-18.41 1518.6,-19.08 1527.29,-25.15 1529.18,-18.41"/>
</a>
</g>
</g>
<!-- Node9&#45;&gt;Node13 -->
<g id="edge14_Node000009_Node000013" class="edge">
<title>Node9&#45;&gt;Node13</title>
<g id="a_edge14_Node000009_Node000013"><a xlink:title=" ">
<path fill="none" stroke="#63b8ff" d="M1703.67,-54.98C1731.54,-46.09 1775.45,-32.07 1806.52,-22.15"/>
<polygon fill="#63b8ff" stroke="#63b8ff" points="1807.66,-25.46 1816.12,-19.08 1805.53,-18.79 1807.66,-25.46"/>
</a>
</g>
</g>
<!-- Node20&#45;&gt;Node4 -->
<g id="edge22_Node000020_Node000004" class="edge">
<title>Node20&#45;&gt;Node4</title>
<g id="a_edge22_Node000020_Node000004"><a xlink:title=" ">
<path fill="none" stroke="#63b8ff" d="M1497.09,-109.9C1442.31,-95.95 1328.77,-68.59 1231,-55 990.32,-21.54 696.86,-13.02 600.41,-11.04"/>
<polygon fill="#63b8ff" stroke="#63b8ff" points="600.22,-7.54 590.15,-10.85 600.08,-14.54 600.22,-7.54"/>
</a>
</g>
</g>
<!-- Node20&#45;&gt;Node6 -->
<g id="edge23_Node000020_Node000006" class="edge">
<title>Node20&#45;&gt;Node6</title>
<g id="a_edge23_Node000020_Node000006"><a xlink:title=" ">
<path fill="none" stroke="#63b8ff" d="M1471.43,-110.82C1468.24,-110.51 1465.08,-110.24 1462,-110 921.59,-68.34 784.34,-101 243,-74 231.25,-73.41 218.87,-72.68 206.69,-71.89"/>
<polygon fill="#63b8ff" stroke="#63b8ff" points="206.73,-68.38 196.52,-71.21 206.27,-75.37 206.73,-68.38"/>
</a>
</g>
</g>
<!-- Node21 -->
<g id="Node000021" class="node">
<title>Node21</title>
<g id="a_Node000021"><a xlink:title=" ">
<polygon fill="#e0e0e0" stroke="#999999" points="1580,-74 1480,-74 1480,-55 1580,-55 1580,-74"/>
<text text-anchor="middle" x="1530" y="-62" font-family="Helvetica,sans-Serif" font-size="10.00">Teuchos_RCP.hpp</text>
</a>
</g>
</g>
<!-- Node20&#45;&gt;Node21 -->
<g id="edge24_Node000020_Node000021" class="edge">
<title>Node20&#45;&gt;Node21</title>
<g id="a_edge24_Node000020_Node000021"><a xlink:title=" ">
<path fill="none" stroke="#63b8ff" d="M1530,-109.75C1530,-102.8 1530,-92.85 1530,-84.13"/>
<polygon fill="#63b8ff" stroke="#63b8ff" points="1533.5,-84.09 1530,-74.09 1526.5,-84.09 1533.5,-84.09"/>
</a>
</g>
</g>
<!-- Node26 -->
<g id="Node000026" class="node">
<title>Node26</title>
<g id="a_Node000026"><a xlink:title=" ">
<polygon fill="#e0e0e0" stroke="#999999" points="1137,-74 1093,-74 1093,-55 1137,-55 1137,-74"/>
<text text-anchor="middle" x="1115" y="-62" font-family="Helvetica,sans-Serif" font-size="10.00">mpi.h</text>
</a>
</g>
</g>
<!-- Node25&#45;&gt;Node26 -->
<g id="edge31_Node000025_Node000026" class="edge">
<title>Node25&#45;&gt;Node26</title>
<g id="a_edge31_Node000025_Node000026"><a xlink:title=" ">
<path fill="none" stroke="#63b8ff" d="M1106.65,-109.75C1107.96,-102.8 1109.84,-92.85 1111.48,-84.13"/>
<polygon fill="#63b8ff" stroke="#63b8ff" points="1114.96,-84.56 1113.38,-74.09 1108.09,-83.27 1114.96,-84.56"/>
</a>
</g>
</g>
<!-- Node27 -->
<g id="Node000027" class="node">
<title>Node27</title>
<g id="a_Node000027"><a xlink:title=" ">
<polygon fill="#e0e0e0" stroke="#999999" points="1074.5,-74 1019.5,-74 1019.5,-55 1074.5,-55 1074.5,-74"/>
<text text-anchor="middle" x="1047" y="-62" font-family="Helvetica,sans-Serif" font-size="10.00">fstream</text>
</a>
</g>
</g>
<!-- Node25&#45;&gt;Node27 -->
<g id="edge32_Node000025_Node000027" class="edge">
<title>Node25&#45;&gt;Node27</title>
<g id="a_edge32_Node000025_Node000027"><a xlink:title=" ">
<path fill="none" stroke="#63b8ff" d="M1095.68,-109.98C1087.19,-102.23 1074.44,-90.58 1064.12,-81.14"/>
<polygon fill="#63b8ff" stroke="#63b8ff" points="1066.23,-78.33 1056.49,-74.17 1061.51,-83.5 1066.23,-78.33"/>
</a>
</g>
</g>
<!-- Node28 -->
<g id="Node000028" class="node">
<title>Node28</title>
<g id="a_Node000028"><a xlink:title=" ">
<polygon fill="#e0e0e0" stroke="#999999" points="1222.5,-74 1155.5,-74 1155.5,-55 1222.5,-55 1222.5,-74"/>
<text text-anchor="middle" x="1189" y="-62" font-family="Helvetica,sans-Serif" font-size="10.00">streambuf</text>
</a>
</g>
</g>
<!-- Node25&#45;&gt;Node28 -->
<g id="edge33_Node000025_Node000028" class="edge">
<title>Node25&#45;&gt;Node28</title>
<g id="a_edge33_Node000025_Node000028"><a xlink:title=" ">
<path fill="none" stroke="#63b8ff" d="M1118.5,-109.98C1131.4,-101.84 1151.1,-89.41 1166.4,-79.76"/>
<polygon fill="#63b8ff" stroke="#63b8ff" points="1168.67,-82.47 1175.26,-74.17 1164.93,-76.55 1168.67,-82.47"/>
</a>
</g>
</g>
<!-- Node29&#45;&gt;Node3 -->
<g id="edge41_Node000029_Node000003" class="edge">
<title>Node29&#45;&gt;Node3</title>
<g id="a_edge41_Node000029_Node000003"><a xlink:title=" ">
<path fill="none" stroke="#63b8ff" d="M716.09,-173.5C588.85,-173.05 213.48,-168.38 177,-129 153.21,-103.32 203.22,-84.44 242.09,-74.22"/>
<polygon fill="#63b8ff" stroke="#63b8ff" points="243.34,-77.51 252.18,-71.69 241.63,-70.73 243.34,-77.51"/>
</a>
</g>
</g>
<!-- Node29&#45;&gt;Node4 -->
<g id="edge66_Node000029_Node000004" class="edge">
<title>Node29&#45;&gt;Node4</title>
<g id="a_edge66_Node000029_Node000004"><a xlink:title=" ">
<path fill="none" stroke="#63b8ff" d="M757,-164.59C755.21,-151.63 750.47,-127.24 739,-110 706.09,-60.54 639.61,-32.5 599.93,-19.51"/>
<polygon fill="#63b8ff" stroke="#63b8ff" points="600.8,-16.11 590.21,-16.45 598.7,-22.79 600.8,-16.11"/>
</a>
</g>
</g>
<!-- Node29&#45;&gt;Node25 -->
<g id="edge62_Node000029_Node000025" class="edge">
<title>Node29&#45;&gt;Node25</title>
<g id="a_edge62_Node000029_Node000025"><a xlink:title=" ">
<path fill="none" stroke="#63b8ff" d="M799.51,-167.16C865.77,-157.04 994.77,-137.34 1061.97,-127.07"/>
<polygon fill="#63b8ff" stroke="#63b8ff" points="1062.85,-130.48 1072.21,-125.51 1061.79,-123.56 1062.85,-130.48"/>
</a>
</g>
</g>
<!-- Node29&#45;&gt;Node27 -->
<g id="edge65_Node000029_Node000027" class="edge">
<title>Node29&#45;&gt;Node27</title>
<g id="a_edge65_Node000029_Node000027"><a xlink:title=" ">
<path fill="none" stroke="#63b8ff" d="M799.85,-170.27C843.38,-165.63 912.63,-154.62 967,-129 991.9,-117.27 1016.02,-96.41 1031.15,-81.81"/>
<polygon fill="#63b8ff" stroke="#63b8ff" points="1033.95,-83.97 1038.58,-74.44 1029.02,-79 1033.95,-83.97"/>
</a>
</g>
</g>
<!-- Node30 -->
<g id="Node000030" class="node">
<title>Node30</title>
<g id="a_Node000030"><a xlink:href="_boundary_conditions_8h.html" target="_top" xlink:title=" ">
<polygon fill="white" stroke="#666666" points="442,-129 318,-129 318,-110 442,-110 442,-129"/>
<text text-anchor="middle" x="380" y="-117" font-family="Helvetica,sans-Serif" font-size="10.00">BoundaryConditions.h</text>
</a>
</g>
</g>
<!-- Node29&#45;&gt;Node30 -->
<g id="edge35_Node000029_Node000030" class="edge">
<title>Node29&#45;&gt;Node30</title>
<g id="a_edge35_Node000029_Node000030"><a xlink:title=" ">
<path fill="none" stroke="#63b8ff" d="M716.47,-167.68C652.59,-158.72 529.45,-141.45 451.17,-130.48"/>
<polygon fill="#63b8ff" stroke="#63b8ff" points="451.3,-126.96 440.91,-129.04 450.32,-133.89 451.3,-126.96"/>
</a>
</g>
</g>
<!-- Node31 -->
<g id="Node000031" class="node">
<title>Node31</title>
<g id="a_Node000031"><a xlink:title=" ">
<polygon fill="#e0e0e0" stroke="#999999" points="643.5,-74 596.5,-74 596.5,-55 643.5,-55 643.5,-74"/>
<text text-anchor="middle" x="620" y="-62" font-family="Helvetica,sans-Serif" font-size="10.00">vector</text>
</a>
</g>
</g>
<!-- Node29&#45;&gt;Node31 -->
<g id="edge67_Node000029_Node000031" class="edge">
<title>Node29&#45;&gt;Node31</title>
<g id="a_edge67_Node000029_Node000031"><a xlink:title=" ">
<path fill="none" stroke="#63b8ff" d="M716.42,-173.29C682.53,-170.65 636.56,-160.87 613,-129 603.44,-116.06 606.96,-97.4 611.8,-83.66"/>
<polygon fill="#63b8ff" stroke="#63b8ff" points="615.09,-84.86 615.58,-74.28 608.6,-82.25 615.09,-84.86"/>
</a>
</g>
</g>
<!-- Node33 -->
<g id="Node000033" class="node">
<title>Node33</title>
<g id="a_Node000033"><a xlink:href="_initial_conditions_8h.html" target="_top" xlink:title=" ">
<polygon fill="white" stroke="#666666" points="565.5,-129 460.5,-129 460.5,-110 565.5,-110 565.5,-129"/>
<text text-anchor="middle" x="513" y="-117" font-family="Helvetica,sans-Serif" font-size="10.00">InitialConditions.h</text>
</a>
</g>
</g>
<!-- Node29&#45;&gt;Node33 -->
<g id="edge42_Node000029_Node000033" class="edge">
<title>Node29&#45;&gt;Node33</title>
<g id="a_edge42_Node000029_Node000033"><a xlink:title=" ">
<path fill="none" stroke="#63b8ff" d="M718.64,-164.98C676.26,-155.82 608.74,-141.21 562.72,-131.26"/>
<polygon fill="#63b8ff" stroke="#63b8ff" points="563.19,-127.78 552.67,-129.08 561.71,-134.62 563.19,-127.78"/>
</a>
</g>
</g>
<!-- Node34 -->
<g id="Node000034" class="node">
<title>Node34</title>
<g id="a_Node000034"><a xlink:href="_material_propertys_8h.html" target="_top" xlink:title=" ">
<polygon fill="white" stroke="#666666" points="299.5,-129 186.5,-129 186.5,-110 299.5,-110 299.5,-129"/>
<text text-anchor="middle" x="243" y="-117" font-family="Helvetica,sans-Serif" font-size="10.00">MaterialPropertys.h</text>
</a>
</g>
</g>
<!-- Node29&#45;&gt;Node34 -->
<g id="edge48_Node000029_Node000034" class="edge">
<title>Node29&#45;&gt;Node34</title>
<g id="a_edge48_Node000029_Node000034"><a xlink:title=" ">
<path fill="none" stroke="#63b8ff" d="M716.48,-169.79C638.91,-162.78 466.44,-146.78 309.81,-129.06"/>
<polygon fill="#63b8ff" stroke="#63b8ff" points="309.84,-125.54 299.51,-127.89 309.05,-132.5 309.84,-125.54"/>
</a>
</g>
</g>
<!-- Node35 -->
<g id="Node000035" class="node">
<title>Node35</title>
<g id="a_Node000035"><a xlink:href="_nalu_parsed_types_8h.html" target="_top" xlink:title=" ">
<polygon fill="white" stroke="#666666" points="730,-129 622,-129 622,-110 730,-110 730,-129"/>
<text text-anchor="middle" x="676" y="-117" font-family="Helvetica,sans-Serif" font-size="10.00">NaluParsedTypes.h</text>
</a>
</g>
</g>
<!-- Node29&#45;&gt;Node35 -->
<g id="edge53_Node000029_Node000035" class="edge">
<title>Node29&#45;&gt;Node35</title>
<g id="a_edge53_Node000029_Node000035"><a xlink:title=" ">
<path fill="none" stroke="#63b8ff" d="M744.83,-164.98C732.23,-156.84 713,-144.41 698.06,-134.76"/>
<polygon fill="#63b8ff" stroke="#63b8ff" points="699.71,-131.66 689.41,-129.17 695.91,-137.54 699.71,-131.66"/>
</a>
</g>
</g>
<!-- Node36 -->
<g id="Node000036" class="node">
<title>Node36</title>
<g id="a_Node000036"><a xlink:href="_nalu_parsing_helper_8h.html" target="_top" xlink:title=" ">
<polygon fill="white" stroke="#666666" points="939.5,-129 824.5,-129 824.5,-110 939.5,-110 939.5,-129"/>
<text text-anchor="middle" x="882" y="-117" font-family="Helvetica,sans-Serif" font-size="10.00">NaluParsingHelper.h</text>
</a>
</g>
</g>
<!-- Node29&#45;&gt;Node36 -->
<g id="edge56_Node000029_Node000036" class="edge">
<title>Node29&#45;&gt;Node36</title>
<g id="a_edge56_Node000029_Node000036"><a xlink:title=" ">
<path fill="none" stroke="#63b8ff" d="M777.92,-164.98C798.05,-156.38 829.38,-142.99 852.41,-133.15"/>
<polygon fill="#63b8ff" stroke="#63b8ff" points="853.9,-136.32 861.71,-129.17 851.14,-129.88 853.9,-136.32"/>
</a>
</g>
</g>
<!-- Node29&#45;&gt;Node37 -->
<g id="edge63_Node000029_Node000037" class="edge">
<title>Node29&#45;&gt;Node37</title>
<g id="a_edge63_Node000029_Node000037"><a xlink:title=" ">
<path fill="none" stroke="#63b8ff" d="M799.87,-169.46C849.89,-163.69 929.19,-151.25 948,-129 958.35,-116.75 958.25,-97.97 956.22,-84.01"/>
<polygon fill="#63b8ff" stroke="#63b8ff" points="959.64,-83.24 954.34,-74.06 952.76,-84.54 959.64,-83.24"/>
</a>
</g>
</g>
<!-- Node38 -->
<g id="Node000038" class="node">
<title>Node38</title>
<g id="a_Node000038"><a xlink:title=" ">
<polygon fill="#e0e0e0" stroke="#999999" points="846,-74 786,-74 786,-55 846,-55 846,-74"/>
<text text-anchor="middle" x="816" y="-62" font-family="Helvetica,sans-Serif" font-size="10.00">iostream</text>
</a>
</g>
</g>
<!-- Node29&#45;&gt;Node38 -->
<g id="edge64_Node000029_Node000038" class="edge">
<title>Node29&#45;&gt;Node38</title>
<g id="a_edge64_Node000029_Node000038"><a xlink:title=" ">
<path fill="none" stroke="#63b8ff" d="M762.75,-164.66C772.31,-146.85 794.05,-106.37 806.6,-83.01"/>
<polygon fill="#63b8ff" stroke="#63b8ff" points="809.7,-84.62 811.35,-74.16 803.54,-81.31 809.7,-84.62"/>
</a>
</g>
</g>
<!-- Node30&#45;&gt;Node3 -->
<g id="edge36_Node000030_Node000003" class="edge">
<title>Node30&#45;&gt;Node3</title>
<g id="a_edge36_Node000030_Node000003"><a xlink:title=" ">
<path fill="none" stroke="#63b8ff" d="M364.25,-109.98C348.77,-101.61 324.91,-88.7 306.86,-78.95"/>
<polygon fill="#63b8ff" stroke="#63b8ff" points="308.49,-75.85 298.03,-74.17 305.16,-82.01 308.49,-75.85"/>
</a>
</g>
</g>
<!-- Node30&#45;&gt;Node4 -->
<g id="edge38_Node000030_Node000004" class="edge">
<title>Node30&#45;&gt;Node4</title>
<g id="a_edge38_Node000030_Node000004"><a xlink:title=" ">
<path fill="none" stroke="#63b8ff" d="M385.31,-109.8C394.04,-96.2 412.7,-69.93 435,-55 465.99,-34.25 507.52,-22.4 535.87,-16.23"/>
<polygon fill="#63b8ff" stroke="#63b8ff" points="536.59,-19.65 545.68,-14.2 535.18,-12.8 536.59,-19.65"/>
</a>
</g>
</g>
<!-- Node30&#45;&gt;Node5 -->
<g id="edge37_Node000030_Node000005" class="edge">
<title>Node30&#45;&gt;Node5</title>
<g id="a_edge37_Node000030_Node000005"><a xlink:title=" ">
<path fill="none" stroke="#63b8ff" d="M371.98,-109.66C355.53,-91.54 317.76,-49.91 296.76,-26.77"/>
<polygon fill="#63b8ff" stroke="#63b8ff" points="299.17,-24.21 289.86,-19.16 293.98,-28.92 299.17,-24.21"/>
</a>
</g>
</g>
<!-- Node30&#45;&gt;Node31 -->
<g id="edge39_Node000030_Node000031" class="edge">
<title>Node30&#45;&gt;Node31</title>
<g id="a_edge39_Node000030_Node000031"><a xlink:title=" ">
<path fill="none" stroke="#63b8ff" d="M418.56,-109.98C465.05,-99.72 542.42,-82.63 586.52,-72.89"/>
<polygon fill="#63b8ff" stroke="#63b8ff" points="587.44,-76.27 596.45,-70.7 585.93,-69.44 587.44,-76.27"/>
</a>
</g>
</g>
<!-- Node32 -->
<g id="Node000032" class="node">
<title>Node32</title>
<g id="a_Node000032"><a xlink:title=" ">
<polygon fill="#e0e0e0" stroke="#999999" points="502,-74 444,-74 444,-55 502,-55 502,-74"/>
<text text-anchor="middle" x="473" y="-62" font-family="Helvetica,sans-Serif" font-size="10.00">memory</text>
</a>
</g>
</g>
<!-- Node30&#45;&gt;Node32 -->
<g id="edge40_Node000030_Node000032" class="edge">
<title>Node30&#45;&gt;Node32</title>
<g id="a_edge40_Node000030_Node000032"><a xlink:title=" ">
<path fill="none" stroke="#63b8ff" d="M394.94,-109.98C409.5,-101.69 431.87,-88.94 448.93,-79.22"/>
<polygon fill="#63b8ff" stroke="#63b8ff" points="450.83,-82.16 457.79,-74.17 447.36,-76.08 450.83,-82.16"/>
</a>
</g>
</g>
<!-- Node33&#45;&gt;Node3 -->
<g id="edge43_Node000033_Node000003" class="edge">
<title>Node33&#45;&gt;Node3</title>
<g id="a_edge43_Node000033_Node000003"><a xlink:title=" ">
<path fill="none" stroke="#63b8ff" d="M475.89,-109.98C433.62,-100.29 364.83,-84.5 321.56,-74.58"/>
<polygon fill="#63b8ff" stroke="#63b8ff" points="322.21,-71.13 311.68,-72.31 320.64,-77.96 322.21,-71.13"/>
</a>
</g>
</g>
<!-- Node33&#45;&gt;Node4 -->
<g id="edge45_Node000033_Node000004" class="edge">
<title>Node33&#45;&gt;Node4</title>
<g id="a_edge45_Node000033_Node000004"><a xlink:title=" ">
<path fill="none" stroke="#63b8ff" d="M520.1,-109.72C526.88,-101.03 537.07,-87.16 544,-74 551.73,-59.34 558.21,-41.62 562.48,-28.63"/>
<polygon fill="#63b8ff" stroke="#63b8ff" points="565.84,-29.59 565.52,-19 559.17,-27.48 565.84,-29.59"/>
</a>
</g>
</g>
<!-- Node33&#45;&gt;Node5 -->
<g id="edge44_Node000033_Node000005" class="edge">
<title>Node33&#45;&gt;Node5</title>
<g id="a_edge44_Node000033_Node000005"><a xlink:title=" ">
<path fill="none" stroke="#63b8ff" d="M515.74,-109.92C519.43,-96.5 524.15,-70.45 511,-55 485.59,-25.15 367.65,-15 311.66,-11.82"/>
<polygon fill="#63b8ff" stroke="#63b8ff" points="311.51,-8.31 301.33,-11.28 311.14,-15.3 311.51,-8.31"/>
</a>
</g>
</g>
<!-- Node33&#45;&gt;Node31 -->
<g id="edge46_Node000033_Node000031" class="edge">
<title>Node33&#45;&gt;Node31</title>
<g id="a_edge46_Node000033_Node000031"><a xlink:title=" ">
<path fill="none" stroke="#63b8ff" d="M530.19,-109.98C547.25,-101.54 573.63,-88.47 593.4,-78.68"/>
<polygon fill="#63b8ff" stroke="#63b8ff" points="595.09,-81.75 602.5,-74.17 591.98,-75.47 595.09,-81.75"/>
</a>
</g>
</g>
<!-- Node33&#45;&gt;Node32 -->
<g id="edge47_Node000033_Node000032" class="edge">
<title>Node33&#45;&gt;Node32</title>
<g id="a_edge47_Node000033_Node000032"><a xlink:title=" ">
<path fill="none" stroke="#63b8ff" d="M506.39,-109.75C500.74,-102.26 492.46,-91.28 485.55,-82.13"/>
<polygon fill="#63b8ff" stroke="#63b8ff" points="488.3,-79.96 479.48,-74.09 482.71,-84.18 488.3,-79.96"/>
</a>
</g>
</g>
<!-- Node34&#45;&gt;Node3 -->
<g id="edge49_Node000034_Node000003" class="edge">
<title>Node34&#45;&gt;Node3</title>
<g id="a_edge49_Node000034_Node000003"><a xlink:title=" ">
<path fill="none" stroke="#63b8ff" d="M249.44,-109.75C254.89,-102.34 262.86,-91.5 269.56,-82.41"/>
<polygon fill="#63b8ff" stroke="#63b8ff" points="272.57,-84.22 275.68,-74.09 266.93,-80.07 272.57,-84.22"/>
</a>
</g>
</g>
<!-- Node34&#45;&gt;Node4 -->
<g id="edge51_Node000034_Node000004" class="edge">
<title>Node34&#45;&gt;Node4</title>
<g id="a_edge51_Node000034_Node000004"><a xlink:title=" ">
<path fill="none" stroke="#63b8ff" d="M264.01,-109.9C295.62,-97.11 357.41,-72.69 411,-55 453.78,-40.88 504,-27.13 535.9,-18.74"/>
<polygon fill="#63b8ff" stroke="#63b8ff" points="537.19,-22.02 545.98,-16.11 535.42,-15.25 537.19,-22.02"/>
</a>
</g>
</g>
<!-- Node34&#45;&gt;Node5 -->
<g id="edge50_Node000034_Node000005" class="edge">
<title>Node34&#45;&gt;Node5</title>
<g id="a_edge50_Node000034_Node000005"><a xlink:title=" ">
<path fill="none" stroke="#63b8ff" d="M241.15,-109.94C238.85,-97.42 236.01,-73.57 243,-55 247.18,-43.89 255.52,-33.75 263.43,-25.96"/>
<polygon fill="#63b8ff" stroke="#63b8ff" points="266.01,-28.35 271.01,-19.01 261.28,-23.19 266.01,-28.35"/>
</a>
</g>
</g>
<!-- Node34&#45;&gt;Node31 -->
<g id="edge52_Node000034_Node000031" class="edge">
<title>Node34&#45;&gt;Node31</title>
<g id="a_edge52_Node000034_Node000031"><a xlink:title=" ">
<path fill="none" stroke="#63b8ff" d="M299.85,-110.51C379.35,-99.33 521.25,-79.38 586.05,-70.27"/>
<polygon fill="#63b8ff" stroke="#63b8ff" points="586.71,-73.71 596.13,-68.86 585.74,-66.78 586.71,-73.71"/>
</a>
</g>
</g>
<!-- Node35&#45;&gt;Node4 -->
<g id="edge54_Node000035_Node000004" class="edge">
<title>Node35&#45;&gt;Node4</title>
<g id="a_edge54_Node000035_Node000004"><a xlink:title=" ">
<path fill="none" stroke="#63b8ff" d="M674.7,-109.68C672.33,-96.4 666.18,-71.09 652,-55 638.13,-39.27 617.34,-28.19 599.91,-21.02"/>
<polygon fill="#63b8ff" stroke="#63b8ff" points="600.7,-17.58 590.11,-17.25 598.19,-24.11 600.7,-17.58"/>
</a>
</g>
</g>
<!-- Node35&#45;&gt;Node31 -->
<g id="edge55_Node000035_Node000031" class="edge">
<title>Node35&#45;&gt;Node31</title>
<g id="a_edge55_Node000035_Node000031"><a xlink:title=" ">
<path fill="none" stroke="#63b8ff" d="M667,-109.98C658.81,-102.23 646.49,-90.58 636.53,-81.14"/>
<polygon fill="#63b8ff" stroke="#63b8ff" points="638.83,-78.5 629.16,-74.17 634.02,-83.59 638.83,-78.5"/>
</a>
</g>
</g>
<!-- Node36&#45;&gt;Node4 -->
<g id="edge60_Node000036_Node000004" class="edge">
<title>Node36&#45;&gt;Node4</title>
<g id="a_edge60_Node000036_Node000004"><a xlink:title=" ">
<path fill="none" stroke="#63b8ff" d="M880.99,-109.92C878.87,-96 872.58,-68.68 855,-55 815.8,-24.49 666.93,-14.59 600.43,-11.64"/>
<polygon fill="#63b8ff" stroke="#63b8ff" points="600.26,-8.13 590.12,-11.21 599.97,-15.12 600.26,-8.13"/>
</a>
</g>
</g>
<!-- Node36&#45;&gt;Node27 -->
<g id="edge59_Node000036_Node000027" class="edge">
<title>Node36&#45;&gt;Node27</title>
<g id="a_edge59_Node000036_Node000027"><a xlink:title=" ">
<path fill="none" stroke="#63b8ff" d="M908.51,-109.98C936.21,-101.09 979.86,-87.07 1010.74,-77.15"/>
<polygon fill="#63b8ff" stroke="#63b8ff" points="1011.83,-80.47 1020.28,-74.08 1009.69,-73.81 1011.83,-80.47"/>
</a>
</g>
</g>
<!-- Node36&#45;&gt;Node31 -->
<g id="edge61_Node000036_Node000031" class="edge">
<title>Node36&#45;&gt;Node31</title>
<g id="a_edge61_Node000036_Node000031"><a xlink:title=" ">
<path fill="none" stroke="#63b8ff" d="M839.91,-109.98C788.13,-99.51 701.27,-81.94 653.69,-72.32"/>
<polygon fill="#63b8ff" stroke="#63b8ff" points="654.09,-68.83 643.6,-70.27 652.71,-75.69 654.09,-68.83"/>
</a>
</g>
</g>
<!-- Node36&#45;&gt;Node37 -->
<g id="edge57_Node000036_Node000037" class="edge">
<title>Node36&#45;&gt;Node37</title>
<g id="a_edge57_Node000036_Node000037"><a xlink:title=" ">
<path fill="none" stroke="#63b8ff" d="M893.25,-109.98C903.8,-102 919.8,-89.88 932.44,-80.31"/>
<polygon fill="#63b8ff" stroke="#63b8ff" points="934.69,-83 940.55,-74.17 930.46,-77.42 934.69,-83"/>
</a>
</g>
</g>
<!-- Node36&#45;&gt;Node38 -->
<g id="edge58_Node000036_Node000038" class="edge">
<title>Node36&#45;&gt;Node38</title>
<g id="a_edge58_Node000036_Node000038"><a xlink:title=" ">
<path fill="none" stroke="#63b8ff" d="M871.4,-109.98C861.54,-102.07 846.65,-90.11 834.78,-80.58"/>
<polygon fill="#63b8ff" stroke="#63b8ff" points="836.79,-77.7 826.8,-74.17 832.4,-83.16 836.79,-77.7"/>
</a>
</g>
</g>
<!-- Node39&#45;&gt;Node9 -->
<g id="edge71_Node000039_Node000009" class="edge">
<title>Node39&#45;&gt;Node9</title>
<g id="a_edge71_Node000039_Node000009"><a xlink:title=" ">
<path fill="none" stroke="#63b8ff" d="M1320.2,-174.46C1381.72,-174.57 1503.58,-169.1 1597,-129 1622.57,-118.02 1646.86,-96.64 1661.82,-81.74"/>
<polygon fill="#63b8ff" stroke="#63b8ff" points="1664.66,-83.84 1669.13,-74.23 1659.64,-78.96 1664.66,-83.84"/>
</a>
</g>
</g>
<!-- Node40 -->
<g id="Node000040" class="node">
<title>Node40</title>
<g id="a_Node000040"><a xlink:title=" ">
<polygon fill="#e0e0e0" stroke="#999999" points="1453.5,-129 1302.5,-129 1302.5,-110 1453.5,-110 1453.5,-129"/>
<text text-anchor="middle" x="1378" y="-117" font-family="Helvetica,sans-Serif" font-size="10.00">stk_util/diag/PrintTimer.hpp</text>
</a>
</g>
</g>
<!-- Node39&#45;&gt;Node40 -->
<g id="edge69_Node000039_Node000040" class="edge">
<title>Node39&#45;&gt;Node40</title>
<g id="a_edge69_Node000039_Node000040"><a xlink:title=" ">
<path fill="none" stroke="#63b8ff" d="M1296.58,-164.98C1311.77,-156.69 1335.1,-143.94 1352.9,-134.22"/>
<polygon fill="#63b8ff" stroke="#63b8ff" points="1355.03,-137.04 1362.13,-129.17 1351.68,-130.89 1355.03,-137.04"/>
</a>
</g>
</g>
<!-- Node41 -->
<g id="Node000041" class="node">
<title>Node41</title>
<g id="a_Node000041"><a xlink:title=" ">
<polygon fill="#e0e0e0" stroke="#999999" points="1284,-129 1156,-129 1156,-110 1284,-110 1284,-129"/>
<text text-anchor="middle" x="1220" y="-117" font-family="Helvetica,sans-Serif" font-size="10.00">stk_util/diag/Timer.hpp</text>
</a>
</g>
</g>
<!-- Node39&#45;&gt;Node41 -->
<g id="edge70_Node000039_Node000041" class="edge">
<title>Node39&#45;&gt;Node41</title>
<g id="a_edge70_Node000039_Node000041"><a xlink:title=" ">
<path fill="none" stroke="#63b8ff" d="M1271.2,-164.98C1262.18,-157.15 1248.59,-145.34 1237.68,-135.86"/>
<polygon fill="#63b8ff" stroke="#63b8ff" points="1239.82,-133.09 1229.98,-129.17 1235.23,-138.37 1239.82,-133.09"/>
</a>
</g>
</g>
</g>
</svg>

<g id="navigator" transform="translate(0 0)" fill="#404254">
  <rect fill="#f2f5e9" fill-opacity="0.5" stroke="#606060" stroke-width=".5" x="0" y="0" width="60" height="60"/>
  <use id="zoomplus" xlink:href="#zoomPlus" x="17" y="9" onmousedown="handleZoom(evt,'in')"/>
  <use id="zoomminus" xlink:href="#zoomMin" x="42" y="9" onmousedown="handleZoom(evt,'out')"/>
  <use id="reset" xlink:href="#resetDef" x="30" y="36" onmousedown="handleReset()"/>
   <use id="arrowup" xlink:href="#arrowUp" x="0" y="0" onmousedown="handlePan(0,-1)"/>
  <use id="arrowright" xlink:href="#arrowRight" x="0" y="0" onmousedown="handlePan(1,0)"/>
  <use id="arrowdown" xlink:href="#arrowDown" x="0" y="0" onmousedown="handlePan(0,1)"/>
  <use id="arrowleft" xlink:href="#arrowLeft" x="0" y="0" onmousedown="handlePan(-1,0)"/>
</g>
<svg viewBox="0 0 15 15" width="100%" height="30px" preserveAspectRatio="xMaxYMin meet">
 <g id="arrow_out" transform="scale(0.3 0.3)">
  <a xlink:href="_linear_solvers_8_c__incl_org.svg" target="_base">
   <rect id="button" ry="5" rx="5" y="6" x="6" height="38" width="38"
        fill="#f2f5e9" fill-opacity="0.5" stroke="#606060" stroke-width="1.0"/>
   <path id="arrow"
     d="M 11.500037,31.436501 C 11.940474,20.09759 22.043105,11.32322 32.158766,21.979434 L 37.068811,17.246167 C 37.068811,17.246167 37.088388,32 37.088388,32 L 22.160133,31.978069 C 22.160133,31.978069 26.997745,27.140456 26.997745,27.140456 C 18.528582,18.264221 13.291696,25.230495 11.500037,31.436501 z"
     style="fill:#404040;"/>
  </a>
 </g>
</svg>

<style type='text/css'>
<![CDATA[
[data-mouse-over-selected='false'] { opacity: 0.7; }
[data-mouse-over-selected='true']  { opacity: 1.0; }
]]>
</style>
<script type="application/ecmascript"><![CDATA[
document.addEventListener('DOMContentLoaded', (event) => {
  highlightEdges();
  highlightAdjacentNodes();
});
]]></script>
</svg>
