<?xml version="1.0" encoding="UTF-8" standalone="no"?>
<!DOCTYPE svg PUBLIC "-//W3C//DTD SVG 1.1//EN"
 "http://www.w3.org/Graphics/SVG/1.1/DTD/svg11.dtd">
<!-- Generated by graphviz version 2.43.0 (0)
 -->
<!-- Title: LinearVolume.C Pages: 1 -->
<!--zoomable 302 -->

<svg id="main" version="1.1" xmlns="http://www.w3.org/2000/svg" xmlns:xlink="http://www.w3.org/1999/xlink" xml:space="preserve" onload="init(evt)">
<style type="text/css"><![CDATA[
.node, .edge {opacity: 0.7;}
.node.selected, .edge.selected {opacity: 1;}
.edge:hover path { stroke: red; }
.edge:hover polygon { stroke: red; fill: red; }
]]></style>

<defs>
  <circle id="rim" cx="0" cy="0" r="7"/>
  <circle id="rim2" cx="0" cy="0" r="3.5"/>
  <g id="zoomPlus">
    <use xlink:href="#rim" fill="#404040"><set attributeName="fill" to="#808080" begin="zoomplus.mouseover" end="zoomplus.mouseout"/></use>
    <path d="M-4,0h8M0,-4v8" fill="none" stroke="white" stroke-width="1.5" pointer-events="none"/>
  </g>
  <g id="zoomMin">
    <use xlink:href="#rim" fill="#404040"><set attributeName="fill" to="#808080" begin="zoomminus.mouseover" end="zoomminus.mouseout"/></use>
    <path d="M-4,0h8" fill="none" stroke="white" stroke-width="1.5" pointer-events="none"/>
  </g>
  <g id="arrowUp" transform="translate(30 24)">
    <use xlink:href="#rim"/>
    <path pointer-events="none" fill="none" stroke="white" stroke-width="1.5" d="M0,-3.0v7 M-2.5,-0.5L0,-3.0L2.5,-0.5"/>
  </g>
  <g id="arrowRight" transform="rotate(90) translate(36 -43)">
    <use xlink:href="#rim"/>
    <path pointer-events="none" fill="none" stroke="white" stroke-width="1.5" d="M0,-3.0v7 M-2.5,-0.5L0,-3.0L2.5,-0.5"/>
  </g>
  <g id="arrowDown" transform="rotate(180) translate(-30 -48)">
    <use xlink:href="#rim"/>
    <path pointer-events="none" fill="none" stroke="white" stroke-width="1.5" d="M0,-3.0v7 M-2.5,-0.5L0,-3.0L2.5,-0.5"/>
  </g>
  <g id="arrowLeft" transform="rotate(270) translate(-36 17)">
    <use xlink:href="#rim"/>
    <path pointer-events="none" fill="none" stroke="white" stroke-width="1.5" d="M0,-3.0v7 M-2.5,-0.5L0,-3.0L2.5,-0.5"/>
  </g>
  <g id="resetDef">
    <use xlink:href="#rim2" fill="#404040"><set attributeName="fill" to="#808080" begin="reset.mouseover" end="reset.mouseout"/></use>
  </g>
</defs>
<script type="application/ecmascript">
var viewWidth = 1139;
var viewHeight = 302;
var sectionId = 'dynsection-0';
</script>
<script type="application/ecmascript" xlink:href="svg.min.js"/>
<svg id="graph" class="graph">
<g id="viewport">
<title>LinearVolume.C</title>
<!-- Node1 -->
<g id="Node000001" class="node">
<title>Node1</title>
<g id="a_Node000001"><a xlink:title=" ">
<polygon fill="#999999" stroke="#666666" points="610,-294 517,-294 517,-275 610,-275 610,-294"/>
<text text-anchor="middle" x="563.5" y="-282" font-family="Helvetica,sans-Serif" font-size="10.00">LinearVolume.C</text>
</a>
</g>
</g>
<!-- Node2 -->
<g id="Node000002" class="node">
<title>Node2</title>
<g id="a_Node000002"><a xlink:href="_linear_volume_8h.html" target="_top" xlink:title=" ">
<polygon fill="white" stroke="#666666" points="377.5,-239 225.5,-239 225.5,-220 377.5,-220 377.5,-239"/>
<text text-anchor="middle" x="301.5" y="-227" font-family="Helvetica,sans-Serif" font-size="10.00">matrix_free/LinearVolume.h</text>
</a>
</g>
</g>
<!-- Node1&#45;&gt;Node2 -->
<g id="edge1_Node000001_Node000002" class="edge">
<title>Node1&#45;&gt;Node2</title>
<g id="a_edge1_Node000001_Node000002"><a xlink:title=" ">
<path fill="none" stroke="#63b8ff" d="M521.41,-274.98C475.8,-265.76 402.98,-251.03 353.75,-241.07"/>
<polygon fill="#63b8ff" stroke="#63b8ff" points="354.42,-237.63 343.92,-239.08 353.03,-244.5 354.42,-237.63"/>
</a>
</g>
</g>
<!-- Node3 -->
<g id="Node000003" class="node">
<title>Node3</title>
<g id="a_Node000003"><a xlink:href="_polynomial_orders_8h.html" target="_top" xlink:title=" ">
<polygon fill="white" stroke="#666666" points="173,-184 0,-184 0,-165 173,-165 173,-184"/>
<text text-anchor="middle" x="86.5" y="-172" font-family="Helvetica,sans-Serif" font-size="10.00">matrix_free/PolynomialOrders.h</text>
</a>
</g>
</g>
<!-- Node1&#45;&gt;Node3 -->
<g id="edge27_Node000001_Node000003" class="edge">
<title>Node1&#45;&gt;Node3</title>
<g id="a_edge27_Node000001_Node000003"><a xlink:title=" ">
<path fill="none" stroke="#63b8ff" d="M516.73,-280.71C429.14,-275.05 243.75,-260.86 183.5,-239 152.96,-227.92 122.36,-205.56 103.93,-190.56"/>
<polygon fill="#63b8ff" stroke="#63b8ff" points="106.05,-187.77 96.13,-184.05 101.57,-193.15 106.05,-187.77"/>
</a>
</g>
</g>
<!-- Node5 -->
<g id="Node000005" class="node">
<title>Node5</title>
<g id="a_Node000005"><a xlink:href="_kokkos_view_types_8h.html" target="_top" xlink:title=" ">
<polygon fill="white" stroke="#666666" points="410.5,-129 238.5,-129 238.5,-110 410.5,-110 410.5,-129"/>
<text text-anchor="middle" x="324.5" y="-117" font-family="Helvetica,sans-Serif" font-size="10.00">matrix_free/KokkosViewTypes.h</text>
</a>
</g>
</g>
<!-- Node1&#45;&gt;Node5 -->
<g id="edge25_Node000001_Node000005" class="edge">
<title>Node1&#45;&gt;Node5</title>
<g id="a_edge25_Node000001_Node000005"><a xlink:title=" ">
<path fill="none" stroke="#63b8ff" d="M519.27,-274.99C491.82,-268.26 456.71,-256.95 429.5,-239 387.79,-211.48 352.37,-163.3 335.34,-137.67"/>
<polygon fill="#63b8ff" stroke="#63b8ff" points="338.12,-135.52 329.74,-129.04 332.25,-139.33 338.12,-135.52"/>
</a>
</g>
</g>
<!-- Node6 -->
<g id="Node000006" class="node">
<title>Node6</title>
<g id="a_Node000006"><a xlink:href="_kokkos_framework_8h.html" target="_top" xlink:title=" ">
<polygon fill="white" stroke="#666666" points="324,-74 149,-74 149,-55 324,-55 324,-74"/>
<text text-anchor="middle" x="236.5" y="-62" font-family="Helvetica,sans-Serif" font-size="10.00">matrix_free/KokkosFramework.h</text>
</a>
</g>
</g>
<!-- Node1&#45;&gt;Node6 -->
<g id="edge24_Node000001_Node000006" class="edge">
<title>Node1&#45;&gt;Node6</title>
<g id="a_edge24_Node000001_Node000006"><a xlink:title=" ">
<path fill="none" stroke="#63b8ff" d="M516.77,-280.89C426.67,-275.38 236.03,-261.2 216.5,-239 177.49,-194.66 209.42,-117.36 226.92,-82.92"/>
<polygon fill="#63b8ff" stroke="#63b8ff" points="230.03,-84.52 231.6,-74.04 223.84,-81.26 230.03,-84.52"/>
</a>
</g>
</g>
<!-- Node10 -->
<g id="Node000010" class="node">
<title>Node10</title>
<g id="a_Node000010"><a xlink:href="_coefficients_8h.html" target="_top" xlink:title=" ">
<polygon fill="white" stroke="#666666" points="657,-129 514,-129 514,-110 657,-110 657,-129"/>
<text text-anchor="middle" x="585.5" y="-117" font-family="Helvetica,sans-Serif" font-size="10.00">matrix_free/Coefficients.h</text>
</a>
</g>
</g>
<!-- Node1&#45;&gt;Node10 -->
<g id="edge10_Node000001_Node000010" class="edge">
<title>Node1&#45;&gt;Node10</title>
<g id="a_edge10_Node000001_Node000010"><a xlink:title=" ">
<path fill="none" stroke="#63b8ff" d="M571.78,-274.58C583.57,-262.03 606.04,-238.59 626.5,-220 645.2,-203.01 659.68,-206.83 670.5,-184 681.9,-159.95 653.36,-142.82 626.33,-132.46"/>
<polygon fill="#63b8ff" stroke="#63b8ff" points="627.5,-129.16 616.9,-129.08 625.13,-135.75 627.5,-129.16"/>
</a>
</g>
</g>
<!-- Node11 -->
<g id="Node000011" class="node">
<title>Node11</title>
<g id="a_Node000011"><a xlink:href="_array_n_d_8h.html" target="_top" xlink:title=" ">
<polygon fill="white" stroke="#666666" points="602,-74 535,-74 535,-55 602,-55 602,-74"/>
<text text-anchor="middle" x="568.5" y="-62" font-family="Helvetica,sans-Serif" font-size="10.00">ArrayND.h</text>
</a>
</g>
</g>
<!-- Node1&#45;&gt;Node11 -->
<g id="edge26_Node000001_Node000011" class="edge">
<title>Node1&#45;&gt;Node11</title>
<g id="a_edge26_Node000001_Node000011"><a xlink:title=" ">
<path fill="none" stroke="#63b8ff" d="M544.89,-274.96C510.21,-257.67 440.64,-215.83 457.5,-165 470.9,-124.61 512.87,-95.06 541.19,-79.09"/>
<polygon fill="#63b8ff" stroke="#63b8ff" points="543.09,-82.04 550.21,-74.19 539.75,-75.89 543.09,-82.04"/>
</a>
</g>
</g>
<!-- Node12 -->
<g id="Node000012" class="node">
<title>Node12</title>
<g id="a_Node000012"><a xlink:title=" ">
<polygon fill="#e0e0e0" stroke="#999999" points="855,-19 742,-19 742,0 855,0 855,-19"/>
<text text-anchor="middle" x="798.5" y="-7" font-family="Helvetica,sans-Serif" font-size="10.00">Kokkos_Macros.hpp</text>
</a>
</g>
</g>
<!-- Node1&#45;&gt;Node12 -->
<g id="edge34_Node000001_Node000012" class="edge">
<title>Node1&#45;&gt;Node12</title>
<g id="a_edge34_Node000001_Node000012"><a xlink:title=" ">
<path fill="none" stroke="#63b8ff" d="M610.2,-281.52C680.64,-277.66 809.67,-266.91 845.5,-239 893.64,-201.5 915.05,-166.7 892.5,-110 877.86,-73.19 842.43,-42.13 819.49,-24.94"/>
<polygon fill="#63b8ff" stroke="#63b8ff" points="821.53,-22.09 811.38,-19.04 817.41,-27.75 821.53,-22.09"/>
</a>
</g>
</g>
<!-- Node13 -->
<g id="Node000013" class="node">
<title>Node13</title>
<g id="a_Node000013"><a xlink:href="_hex_vertex_coordinates_8h.html" target="_top" xlink:title=" ">
<polygon fill="white" stroke="#666666" points="661,-184 466,-184 466,-165 661,-165 661,-184"/>
<text text-anchor="middle" x="563.5" y="-172" font-family="Helvetica,sans-Serif" font-size="10.00">matrix_free/HexVertexCoordinates.h</text>
</a>
</g>
</g>
<!-- Node1&#45;&gt;Node13 -->
<g id="edge14_Node000001_Node000013" class="edge">
<title>Node1&#45;&gt;Node13</title>
<g id="a_edge14_Node000001_Node000013"><a xlink:title=" ">
<path fill="none" stroke="#63b8ff" d="M563.5,-274.66C563.5,-257.17 563.5,-217.8 563.5,-194.27"/>
<polygon fill="#63b8ff" stroke="#63b8ff" points="567,-194.16 563.5,-184.16 560,-194.16 567,-194.16"/>
</a>
</g>
</g>
<!-- Node14 -->
<g id="Node000014" class="node">
<title>Node14</title>
<g id="a_Node000014"><a xlink:href="_geometric_functions_8h.html" target="_top" xlink:title=" ">
<polygon fill="white" stroke="#666666" points="818,-239 635,-239 635,-220 818,-220 818,-239"/>
<text text-anchor="middle" x="726.5" y="-227" font-family="Helvetica,sans-Serif" font-size="10.00">matrix_free/GeometricFunctions.h</text>
</a>
</g>
</g>
<!-- Node1&#45;&gt;Node14 -->
<g id="edge18_Node000001_Node000014" class="edge">
<title>Node1&#45;&gt;Node14</title>
<g id="a_edge18_Node000001_Node000014"><a xlink:title=" ">
<path fill="none" stroke="#63b8ff" d="M589.69,-274.98C616.94,-266.13 659.8,-252.19 690.28,-242.28"/>
<polygon fill="#63b8ff" stroke="#63b8ff" points="691.68,-245.5 700.11,-239.08 689.51,-238.85 691.68,-245.5"/>
</a>
</g>
</g>
<!-- Node15 -->
<g id="Node000015" class="node">
<title>Node15</title>
<g id="a_Node000015"><a xlink:href="_tensor_operations_8h.html" target="_top" xlink:title=" ">
<polygon fill="white" stroke="#666666" points="883.5,-129 713.5,-129 713.5,-110 883.5,-110 883.5,-129"/>
<text text-anchor="middle" x="798.5" y="-117" font-family="Helvetica,sans-Serif" font-size="10.00">matrix_free/TensorOperations.h</text>
</a>
</g>
</g>
<!-- Node1&#45;&gt;Node15 -->
<g id="edge28_Node000001_Node000015" class="edge">
<title>Node1&#45;&gt;Node15</title>
<g id="a_edge28_Node000001_Node000015"><a xlink:title=" ">
<path fill="none" stroke="#63b8ff" d="M610.08,-282.59C678.28,-280.16 800.19,-271.3 827.5,-239 852.24,-209.74 827.54,-162.67 810.91,-137.56"/>
<polygon fill="#63b8ff" stroke="#63b8ff" points="813.62,-135.33 805.06,-129.1 807.87,-139.31 813.62,-135.33"/>
</a>
</g>
</g>
<!-- Node16 -->
<g id="Node000016" class="node">
<title>Node16</title>
<g id="a_Node000016"><a xlink:href="_kokkos_interface_8h.html" target="_top" xlink:title=" ">
<polygon fill="white" stroke="#666666" points="1022.5,-74 918.5,-74 918.5,-55 1022.5,-55 1022.5,-74"/>
<text text-anchor="middle" x="970.5" y="-62" font-family="Helvetica,sans-Serif" font-size="10.00">KokkosInterface.h</text>
</a>
</g>
</g>
<!-- Node1&#45;&gt;Node16 -->
<g id="edge29_Node000001_Node000016" class="edge">
<title>Node1&#45;&gt;Node16</title>
<g id="a_edge29_Node000001_Node000016"><a xlink:title=" ">
<path fill="none" stroke="#63b8ff" d="M610.13,-284.06C697.13,-284.12 879.55,-279.28 925.5,-239 970.9,-199.21 973.33,-120.09 971.85,-84.1"/>
<polygon fill="#63b8ff" stroke="#63b8ff" points="975.34,-83.82 971.28,-74.03 968.35,-84.21 975.34,-83.82"/>
</a>
</g>
</g>
<!-- Node2&#45;&gt;Node3 -->
<g id="edge2_Node000002_Node000003" class="edge">
<title>Node2&#45;&gt;Node3</title>
<g id="a_edge2_Node000002_Node000003"><a xlink:title=" ">
<path fill="none" stroke="#63b8ff" d="M266.96,-219.98C230.08,-210.89 171.51,-196.46 131.16,-186.51"/>
<polygon fill="#63b8ff" stroke="#63b8ff" points="131.86,-183.08 121.31,-184.08 130.19,-189.87 131.86,-183.08"/>
</a>
</g>
</g>
<!-- Node2&#45;&gt;Node5 -->
<g id="edge4_Node000002_Node000005" class="edge">
<title>Node2&#45;&gt;Node5</title>
<g id="a_edge4_Node000002_Node000005"><a xlink:title=" ">
<path fill="none" stroke="#63b8ff" d="M303.38,-219.66C307.12,-202.09 315.57,-162.45 320.57,-138.95"/>
<polygon fill="#63b8ff" stroke="#63b8ff" points="324,-139.67 322.66,-129.16 317.15,-138.21 324,-139.67"/>
</a>
</g>
</g>
<!-- Node4 -->
<g id="Node000004" class="node">
<title>Node4</title>
<g id="a_Node000004"><a xlink:title=" ">
<polygon fill="#e0e0e0" stroke="#999999" points="217,-19 148,-19 148,0 217,0 217,-19"/>
<text text-anchor="middle" x="182.5" y="-7" font-family="Helvetica,sans-Serif" font-size="10.00">type_traits</text>
</a>
</g>
</g>
<!-- Node3&#45;&gt;Node4 -->
<g id="edge3_Node000003_Node000004" class="edge">
<title>Node3&#45;&gt;Node4</title>
<g id="a_edge3_Node000003_Node000004"><a xlink:title=" ">
<path fill="none" stroke="#63b8ff" d="M89.29,-164.97C96.13,-144.77 115.01,-92.9 140.5,-55 147.51,-44.58 157,-34.29 165.19,-26.24"/>
<polygon fill="#63b8ff" stroke="#63b8ff" points="167.68,-28.7 172.51,-19.27 162.86,-23.63 167.68,-28.7"/>
</a>
</g>
</g>
<!-- Node5&#45;&gt;Node6 -->
<g id="edge5_Node000005_Node000006" class="edge">
<title>Node5&#45;&gt;Node6</title>
<g id="a_edge5_Node000005_Node000006"><a xlink:title=" ">
<path fill="none" stroke="#63b8ff" d="M310.36,-109.98C296.71,-101.77 275.81,-89.18 259.72,-79.49"/>
<polygon fill="#63b8ff" stroke="#63b8ff" points="261.27,-76.33 250.9,-74.17 257.66,-82.33 261.27,-76.33"/>
</a>
</g>
</g>
<!-- Node9 -->
<g id="Node000009" class="node">
<title>Node9</title>
<g id="a_Node000009"><a xlink:title=" ">
<polygon fill="#e0e0e0" stroke="#999999" points="484.5,-74 342.5,-74 342.5,-55 484.5,-55 484.5,-74"/>
<text text-anchor="middle" x="413.5" y="-62" font-family="Helvetica,sans-Serif" font-size="10.00">stk_mesh/base/Types.hpp</text>
</a>
</g>
</g>
<!-- Node5&#45;&gt;Node9 -->
<g id="edge9_Node000005_Node000009" class="edge">
<title>Node5&#45;&gt;Node9</title>
<g id="a_edge9_Node000005_Node000009"><a xlink:title=" ">
<path fill="none" stroke="#63b8ff" d="M338.8,-109.98C352.6,-101.77 373.74,-89.18 390.01,-79.49"/>
<polygon fill="#63b8ff" stroke="#63b8ff" points="392.14,-82.29 398.94,-74.17 388.56,-76.28 392.14,-82.29"/>
</a>
</g>
</g>
<!-- Node6&#45;&gt;Node4 -->
<g id="edge8_Node000006_Node000004" class="edge">
<title>Node6&#45;&gt;Node4</title>
<g id="a_edge8_Node000006_Node000004"><a xlink:title=" ">
<path fill="none" stroke="#63b8ff" d="M227.58,-54.75C219.72,-47.03 208.07,-35.6 198.58,-26.28"/>
<polygon fill="#63b8ff" stroke="#63b8ff" points="200.84,-23.6 191.25,-19.09 195.94,-28.59 200.84,-23.6"/>
</a>
</g>
</g>
<!-- Node7 -->
<g id="Node000007" class="node">
<title>Node7</title>
<g id="a_Node000007"><a xlink:title=" ">
<polygon fill="#e0e0e0" stroke="#999999" points="591.5,-19 491.5,-19 491.5,0 591.5,0 591.5,-19"/>
<text text-anchor="middle" x="541.5" y="-7" font-family="Helvetica,sans-Serif" font-size="10.00">Kokkos_Core.hpp</text>
</a>
</g>
</g>
<!-- Node6&#45;&gt;Node7 -->
<g id="edge6_Node000006_Node000007" class="edge">
<title>Node6&#45;&gt;Node7</title>
<g id="a_edge6_Node000006_Node000007"><a xlink:title=" ">
<path fill="none" stroke="#63b8ff" d="M285.5,-54.98C339.12,-45.67 425.04,-30.74 482.36,-20.78"/>
<polygon fill="#63b8ff" stroke="#63b8ff" points="483.11,-24.2 492.37,-19.04 481.91,-17.3 483.11,-24.2"/>
</a>
</g>
</g>
<!-- Node8 -->
<g id="Node000008" class="node">
<title>Node8</title>
<g id="a_Node000008"><a xlink:title=" ">
<polygon fill="#e0e0e0" stroke="#999999" points="345.5,-19 235.5,-19 235.5,0 345.5,0 345.5,-19"/>
<text text-anchor="middle" x="290.5" y="-7" font-family="Helvetica,sans-Serif" font-size="10.00">stk_simd/Simd.hpp</text>
</a>
</g>
</g>
<!-- Node6&#45;&gt;Node8 -->
<g id="edge7_Node000006_Node000008" class="edge">
<title>Node6&#45;&gt;Node8</title>
<g id="a_edge7_Node000006_Node000008"><a xlink:title=" ">
<path fill="none" stroke="#63b8ff" d="M245.42,-54.75C253.28,-47.03 264.93,-35.6 274.42,-26.28"/>
<polygon fill="#63b8ff" stroke="#63b8ff" points="277.06,-28.59 281.75,-19.09 272.16,-23.6 277.06,-28.59"/>
</a>
</g>
</g>
<!-- Node10&#45;&gt;Node11 -->
<g id="edge11_Node000010_Node000011" class="edge">
<title>Node10&#45;&gt;Node11</title>
<g id="a_edge11_Node000010_Node000011"><a xlink:title=" ">
<path fill="none" stroke="#63b8ff" d="M582.69,-109.75C580.44,-102.72 577.2,-92.62 574.38,-83.84"/>
<polygon fill="#63b8ff" stroke="#63b8ff" points="577.64,-82.54 571.25,-74.09 570.98,-84.68 577.64,-82.54"/>
</a>
</g>
</g>
<!-- Node11&#45;&gt;Node4 -->
<g id="edge13_Node000011_Node000004" class="edge">
<title>Node11&#45;&gt;Node4</title>
<g id="a_edge13_Node000011_Node000004"><a xlink:title=" ">
<path fill="none" stroke="#63b8ff" d="M534.77,-59.38C464.14,-50.71 301.73,-30.54 227.36,-19.02"/>
<polygon fill="#63b8ff" stroke="#63b8ff" points="227.48,-15.49 217.05,-17.38 226.38,-22.41 227.48,-15.49"/>
</a>
</g>
</g>
<!-- Node11&#45;&gt;Node12 -->
<g id="edge12_Node000011_Node000012" class="edge">
<title>Node11&#45;&gt;Node12</title>
<g id="a_edge12_Node000011_Node000012"><a xlink:title=" ">
<path fill="none" stroke="#63b8ff" d="M602.44,-55.68C641.85,-46.6 707.12,-31.56 751.42,-21.35"/>
<polygon fill="#63b8ff" stroke="#63b8ff" points="752.41,-24.71 761.37,-19.06 750.84,-17.89 752.41,-24.71"/>
</a>
</g>
</g>
<!-- Node13&#45;&gt;Node5 -->
<g id="edge17_Node000013_Node000005" class="edge">
<title>Node13&#45;&gt;Node5</title>
<g id="a_edge17_Node000013_Node000005"><a xlink:title=" ">
<path fill="none" stroke="#63b8ff" d="M525.1,-164.98C483.76,-155.82 417.9,-141.21 373.01,-131.26"/>
<polygon fill="#63b8ff" stroke="#63b8ff" points="373.72,-127.83 363.2,-129.08 372.21,-134.66 373.72,-127.83"/>
</a>
</g>
</g>
<!-- Node13&#45;&gt;Node10 -->
<g id="edge16_Node000013_Node000010" class="edge">
<title>Node13&#45;&gt;Node10</title>
<g id="a_edge16_Node000013_Node000010"><a xlink:title=" ">
<path fill="none" stroke="#63b8ff" d="M567.13,-164.75C570.08,-157.65 574.33,-147.4 578.01,-138.56"/>
<polygon fill="#63b8ff" stroke="#63b8ff" points="581.33,-139.67 581.93,-129.09 574.87,-136.98 581.33,-139.67"/>
</a>
</g>
</g>
<!-- Node13&#45;&gt;Node11 -->
<g id="edge15_Node000013_Node000011" class="edge">
<title>Node13&#45;&gt;Node11</title>
<g id="a_edge15_Node000013_Node000011"><a xlink:title=" ">
<path fill="none" stroke="#63b8ff" d="M545.05,-164.84C523.93,-153.63 493.69,-132.8 505.5,-110 512.54,-96.41 525.84,-86.09 538.42,-78.82"/>
<polygon fill="#63b8ff" stroke="#63b8ff" points="540.17,-81.86 547.35,-74.07 536.88,-75.68 540.17,-81.86"/>
</a>
</g>
</g>
<!-- Node14&#45;&gt;Node12 -->
<g id="edge23_Node000014_Node000012" class="edge">
<title>Node14&#45;&gt;Node12</title>
<g id="a_edge23_Node000014_Node000012"><a xlink:title=" ">
<path fill="none" stroke="#63b8ff" d="M721.74,-219.85C711.38,-199.84 688.96,-149.08 704.5,-110 719.14,-73.19 754.57,-42.13 777.51,-24.94"/>
<polygon fill="#63b8ff" stroke="#63b8ff" points="779.59,-27.75 785.62,-19.04 775.47,-22.09 779.59,-27.75"/>
</a>
</g>
</g>
<!-- Node14&#45;&gt;Node13 -->
<g id="edge19_Node000014_Node000013" class="edge">
<title>Node14&#45;&gt;Node13</title>
<g id="a_edge19_Node000014_Node000013"><a xlink:title=" ">
<path fill="none" stroke="#63b8ff" d="M700.31,-219.98C673.06,-211.13 630.2,-197.19 599.72,-187.28"/>
<polygon fill="#63b8ff" stroke="#63b8ff" points="600.49,-183.85 589.89,-184.08 598.32,-190.5 600.49,-183.85"/>
</a>
</g>
</g>
<!-- Node14&#45;&gt;Node15 -->
<g id="edge20_Node000014_Node000015" class="edge">
<title>Node14&#45;&gt;Node15</title>
<g id="a_edge20_Node000014_Node000015"><a xlink:title=" ">
<path fill="none" stroke="#63b8ff" d="M732.39,-219.66C744.32,-201.77 771.5,-161 787.04,-137.69"/>
<polygon fill="#63b8ff" stroke="#63b8ff" points="790.09,-139.42 792.73,-129.16 784.27,-135.54 790.09,-139.42"/>
</a>
</g>
</g>
<!-- Node15&#45;&gt;Node11 -->
<g id="edge21_Node000015_Node000011" class="edge">
<title>Node15&#45;&gt;Node11</title>
<g id="a_edge21_Node000015_Node000011"><a xlink:title=" ">
<path fill="none" stroke="#63b8ff" d="M761.55,-109.98C720.87,-100.61 655.53,-85.55 612.31,-75.6"/>
<polygon fill="#63b8ff" stroke="#63b8ff" points="612.89,-72.14 602.36,-73.3 611.32,-78.96 612.89,-72.14"/>
</a>
</g>
</g>
<!-- Node15&#45;&gt;Node12 -->
<g id="edge22_Node000015_Node000012" class="edge">
<title>Node15&#45;&gt;Node12</title>
<g id="a_edge22_Node000015_Node000012"><a xlink:title=" ">
<path fill="none" stroke="#63b8ff" d="M798.5,-109.66C798.5,-92.17 798.5,-52.8 798.5,-29.27"/>
<polygon fill="#63b8ff" stroke="#63b8ff" points="802,-29.16 798.5,-19.16 795,-29.16 802,-29.16"/>
</a>
</g>
</g>
<!-- Node16&#45;&gt;Node7 -->
<g id="edge33_Node000016_Node000007" class="edge">
<title>Node16&#45;&gt;Node7</title>
<g id="a_edge33_Node000016_Node000007"><a xlink:title=" ">
<path fill="none" stroke="#63b8ff" d="M918.33,-57.05C838.4,-47.18 686.05,-28.36 601.6,-17.93"/>
<polygon fill="#63b8ff" stroke="#63b8ff" points="602.01,-14.45 591.65,-16.7 601.15,-21.4 602.01,-14.45"/>
</a>
</g>
</g>
<!-- Node16&#45;&gt;Node12 -->
<g id="edge32_Node000016_Node000012" class="edge">
<title>Node16&#45;&gt;Node12</title>
<g id="a_edge32_Node000016_Node000012"><a xlink:title=" ">
<path fill="none" stroke="#63b8ff" d="M942.87,-54.98C913.99,-46.09 868.49,-32.07 836.3,-22.15"/>
<polygon fill="#63b8ff" stroke="#63b8ff" points="836.94,-18.68 826.35,-19.08 834.88,-25.37 836.94,-18.68"/>
</a>
</g>
</g>
<!-- Node17 -->
<g id="Node000017" class="node">
<title>Node17</title>
<g id="a_Node000017"><a xlink:title=" ">
<polygon fill="#e0e0e0" stroke="#999999" points="972,-19 919,-19 919,0 972,0 972,-19"/>
<text text-anchor="middle" x="945.5" y="-7" font-family="Helvetica,sans-Serif" font-size="10.00">cstddef</text>
</a>
</g>
</g>
<!-- Node16&#45;&gt;Node17 -->
<g id="edge30_Node000016_Node000017" class="edge">
<title>Node16&#45;&gt;Node17</title>
<g id="a_edge30_Node000016_Node000017"><a xlink:title=" ">
<path fill="none" stroke="#63b8ff" d="M966.37,-54.75C962.99,-47.57 958.08,-37.18 953.88,-28.27"/>
<polygon fill="#63b8ff" stroke="#63b8ff" points="956.98,-26.64 949.55,-19.09 950.65,-29.63 956.98,-26.64"/>
</a>
</g>
</g>
<!-- Node18 -->
<g id="Node000018" class="node">
<title>Node18</title>
<g id="a_Node000018"><a xlink:title=" ">
<polygon fill="#e0e0e0" stroke="#999999" points="1131,-19 990,-19 990,0 1131,0 1131,-19"/>
<text text-anchor="middle" x="1060.5" y="-7" font-family="Helvetica,sans-Serif" font-size="10.00">stk_mesh/base/Entity.hpp</text>
</a>
</g>
</g>
<!-- Node16&#45;&gt;Node18 -->
<g id="edge31_Node000016_Node000018" class="edge">
<title>Node16&#45;&gt;Node18</title>
<g id="a_edge31_Node000016_Node000018"><a xlink:title=" ">
<path fill="none" stroke="#63b8ff" d="M984.96,-54.98C998.92,-46.77 1020.29,-34.18 1036.75,-24.49"/>
<polygon fill="#63b8ff" stroke="#63b8ff" points="1038.94,-27.26 1045.78,-19.17 1035.38,-21.23 1038.94,-27.26"/>
</a>
</g>
</g>
</g>
</svg>

<g id="navigator" transform="translate(0 0)" fill="#404254">
  <rect fill="#f2f5e9" fill-opacity="0.5" stroke="#606060" stroke-width=".5" x="0" y="0" width="60" height="60"/>
  <use id="zoomplus" xlink:href="#zoomPlus" x="17" y="9" onmousedown="handleZoom(evt,'in')"/>
  <use id="zoomminus" xlink:href="#zoomMin" x="42" y="9" onmousedown="handleZoom(evt,'out')"/>
  <use id="reset" xlink:href="#resetDef" x="30" y="36" onmousedown="handleReset()"/>
   <use id="arrowup" xlink:href="#arrowUp" x="0" y="0" onmousedown="handlePan(0,-1)"/>
  <use id="arrowright" xlink:href="#arrowRight" x="0" y="0" onmousedown="handlePan(1,0)"/>
  <use id="arrowdown" xlink:href="#arrowDown" x="0" y="0" onmousedown="handlePan(0,1)"/>
  <use id="arrowleft" xlink:href="#arrowLeft" x="0" y="0" onmousedown="handlePan(-1,0)"/>
</g>
<svg viewBox="0 0 15 15" width="100%" height="30px" preserveAspectRatio="xMaxYMin meet">
 <g id="arrow_out" transform="scale(0.3 0.3)">
  <a xlink:href="_linear_volume_8_c__incl_org.svg" target="_base">
   <rect id="button" ry="5" rx="5" y="6" x="6" height="38" width="38"
        fill="#f2f5e9" fill-opacity="0.5" stroke="#606060" stroke-width="1.0"/>
   <path id="arrow"
     d="M 11.500037,31.436501 C 11.940474,20.09759 22.043105,11.32322 32.158766,21.979434 L 37.068811,17.246167 C 37.068811,17.246167 37.088388,32 37.088388,32 L 22.160133,31.978069 C 22.160133,31.978069 26.997745,27.140456 26.997745,27.140456 C 18.528582,18.264221 13.291696,25.230495 11.500037,31.436501 z"
     style="fill:#404040;"/>
  </a>
 </g>
</svg>

<style type='text/css'>
<![CDATA[
[data-mouse-over-selected='false'] { opacity: 0.7; }
[data-mouse-over-selected='true']  { opacity: 1.0; }
]]>
</style>
<script type="application/ecmascript"><![CDATA[
document.addEventListener('DOMContentLoaded', (event) => {
  highlightEdges();
  highlightAdjacentNodes();
});
]]></script>
</svg>
