<?xml version="1.0" encoding="UTF-8" standalone="no"?>
<!DOCTYPE svg PUBLIC "-//W3C//DTD SVG 1.1//EN"
 "http://www.w3.org/Graphics/SVG/1.1/DTD/svg11.dtd">
<!-- Generated by graphviz version 2.43.0 (0)
 -->
<!-- Title: LinearSolvers.C Pages: 1 -->
<!--zoomable 247 -->

<svg id="main" version="1.1" xmlns="http://www.w3.org/2000/svg" xmlns:xlink="http://www.w3.org/1999/xlink" xml:space="preserve" onload="init(evt)">
<style type="text/css"><![CDATA[
.node, .edge {opacity: 0.7;}
.node.selected, .edge.selected {opacity: 1;}
.edge:hover path { stroke: red; }
.edge:hover polygon { stroke: red; fill: red; }
]]></style>

<defs>
  <circle id="rim" cx="0" cy="0" r="7"/>
  <circle id="rim2" cx="0" cy="0" r="3.5"/>
  <g id="zoomPlus">
    <use xlink:href="#rim" fill="#404040"><set attributeName="fill" to="#808080" begin="zoomplus.mouseover" end="zoomplus.mouseout"/></use>
    <path d="M-4,0h8M0,-4v8" fill="none" stroke="white" stroke-width="1.5" pointer-events="none"/>
  </g>
  <g id="zoomMin">
    <use xlink:href="#rim" fill="#404040"><set attributeName="fill" to="#808080" begin="zoomminus.mouseover" end="zoomminus.mouseout"/></use>
    <path d="M-4,0h8" fill="none" stroke="white" stroke-width="1.5" pointer-events="none"/>
  </g>
  <g id="arrowUp" transform="translate(30 24)">
    <use xlink:href="#rim"/>
    <path pointer-events="none" fill="none" stroke="white" stroke-width="1.5" d="M0,-3.0v7 M-2.5,-0.5L0,-3.0L2.5,-0.5"/>
  </g>
  <g id="arrowRight" transform="rotate(90) translate(36 -43)">
    <use xlink:href="#rim"/>
    <path pointer-events="none" fill="none" stroke="white" stroke-width="1.5" d="M0,-3.0v7 M-2.5,-0.5L0,-3.0L2.5,-0.5"/>
  </g>
  <g id="arrowDown" transform="rotate(180) translate(-30 -48)">
    <use xlink:href="#rim"/>
    <path pointer-events="none" fill="none" stroke="white" stroke-width="1.5" d="M0,-3.0v7 M-2.5,-0.5L0,-3.0L2.5,-0.5"/>
  </g>
  <g id="arrowLeft" transform="rotate(270) translate(-36 17)">
    <use xlink:href="#rim"/>
    <path pointer-events="none" fill="none" stroke="white" stroke-width="1.5" d="M0,-3.0v7 M-2.5,-0.5L0,-3.0L2.5,-0.5"/>
  </g>
  <g id="resetDef">
    <use xlink:href="#rim2" fill="#404040"><set attributeName="fill" to="#808080" begin="reset.mouseover" end="reset.mouseout"/></use>
  </g>
</defs>
<script type="application/ecmascript">
var viewWidth = 2853;
var viewHeight = 247;
var sectionId = 'dynsection-0';
</script>
<script type="application/ecmascript" xlink:href="svg.min.js"/>
<svg id="graph" class="graph">
<g id="viewport">
<title>LinearSolvers.C</title>
<!-- Node1 -->
<g id="Node000001" class="node">
<title>Node1</title>
<g id="a_Node000001"><a xlink:title=" ">
<polygon fill="#999999" stroke="#666666" points="1206,-239 1114,-239 1114,-220 1206,-220 1206,-239"/>
<text text-anchor="middle" x="1160" y="-227" font-family="Helvetica,sans-Serif" font-size="10.00">LinearSolvers.C</text>
</a>
</g>
</g>
<!-- Node2 -->
<g id="Node000002" class="node">
<title>Node2</title>
<g id="a_Node000002"><a xlink:href="_linear_solvers_8h.html" target="_top" xlink:title=" ">
<polygon fill="white" stroke="#666666" points="92,-129 0,-129 0,-110 92,-110 92,-129"/>
<text text-anchor="middle" x="46" y="-117" font-family="Helvetica,sans-Serif" font-size="10.00">LinearSolvers.h</text>
</a>
</g>
</g>
<!-- Node1&#45;&gt;Node2 -->
<g id="edge1_Node000001_Node000002" class="edge">
<title>Node1&#45;&gt;Node2</title>
<g id="a_edge1_Node000001_Node000002"><a xlink:title=" ">
<path fill="none" stroke="#63b8ff" d="M1113.73,-228.59C922.37,-228.67 198.43,-226.16 106,-184 84.52,-174.2 66.97,-152.83 56.52,-137.59"/>
<polygon fill="#63b8ff" stroke="#63b8ff" points="59.35,-135.52 50.96,-129.06 53.49,-139.35 59.35,-135.52"/>
</a>
</g>
</g>
<!-- Node6 -->
<g id="Node000006" class="node">
<title>Node6</title>
<g id="a_Node000006"><a xlink:title=" ">
<polygon fill="#e0e0e0" stroke="#999999" points="196.5,-74 47.5,-74 47.5,-55 196.5,-55 196.5,-74"/>
<text text-anchor="middle" x="122" y="-62" font-family="Helvetica,sans-Serif" font-size="10.00">Teuchos_ParameterList.hpp</text>
</a>
</g>
</g>
<!-- Node1&#45;&gt;Node6 -->
<g id="edge72_Node000001_Node000006" class="edge">
<title>Node1&#45;&gt;Node6</title>
<g id="a_edge72_Node000001_Node000006"><a xlink:title=" ">
<path fill="none" stroke="#63b8ff" d="M1113.75,-228.85C940.41,-229.4 330.88,-224.38 167,-129 149.35,-118.73 136.86,-98.46 129.58,-83.57"/>
<polygon fill="#63b8ff" stroke="#63b8ff" points="132.7,-81.97 125.38,-74.31 126.33,-84.86 132.7,-81.97"/>
</a>
</g>
</g>
<!-- Node7 -->
<g id="Node000007" class="node">
<title>Node7</title>
<g id="a_Node000007"><a xlink:href="_linear_solver_8h.html" target="_top" xlink:title=" ">
<polygon fill="white" stroke="#666666" points="2000,-184 1914,-184 1914,-165 2000,-165 2000,-184"/>
<text text-anchor="middle" x="1957" y="-172" font-family="Helvetica,sans-Serif" font-size="10.00">LinearSolver.h</text>
</a>
</g>
</g>
<!-- Node1&#45;&gt;Node7 -->
<g id="edge8_Node000001_Node000007" class="edge">
<title>Node1&#45;&gt;Node7</title>
<g id="a_edge8_Node000001_Node000007"><a xlink:title=" ">
<path fill="none" stroke="#63b8ff" d="M1206,-225.44C1344.4,-216.24 1756.41,-188.84 1903.82,-179.04"/>
<polygon fill="#63b8ff" stroke="#63b8ff" points="1904.22,-182.52 1913.97,-178.36 1903.76,-175.53 1904.22,-182.52"/>
</a>
</g>
</g>
<!-- Node20 -->
<g id="Node000020" class="node">
<title>Node20</title>
<g id="a_Node000020"><a xlink:href="_linear_solver_config_8h.html" target="_top" xlink:title=" ">
<polygon fill="white" stroke="#666666" points="1702.5,-129 1585.5,-129 1585.5,-110 1702.5,-110 1702.5,-129"/>
<text text-anchor="middle" x="1644" y="-117" font-family="Helvetica,sans-Serif" font-size="10.00">LinearSolverConfig.h</text>
</a>
</g>
</g>
<!-- Node1&#45;&gt;Node20 -->
<g id="edge29_Node000001_Node000020" class="edge">
<title>Node1&#45;&gt;Node20</title>
<g id="a_edge29_Node000001_Node000020"><a xlink:title=" ">
<path fill="none" stroke="#63b8ff" d="M1206.16,-224.39C1265.68,-218.47 1372.11,-205.79 1461,-184 1516.23,-170.46 1578.35,-147.1 1614.15,-132.8"/>
<polygon fill="#63b8ff" stroke="#63b8ff" points="1615.56,-136.01 1623.52,-129.03 1612.94,-129.52 1615.56,-136.01"/>
</a>
</g>
</g>
<!-- Node25 -->
<g id="Node000025" class="node">
<title>Node25</title>
<g id="a_Node000025"><a xlink:href="_kynema_u_g_f_env_8h.html" target="_top" xlink:title=" ">
<polygon fill="white" stroke="#666666" points="1252,-129 1148,-129 1148,-110 1252,-110 1252,-129"/>
<text text-anchor="middle" x="1200" y="-117" font-family="Helvetica,sans-Serif" font-size="10.00">KynemaUGFEnv.h</text>
</a>
</g>
</g>
<!-- Node1&#45;&gt;Node25 -->
<g id="edge30_Node000001_Node000025" class="edge">
<title>Node1&#45;&gt;Node25</title>
<g id="a_edge30_Node000001_Node000025"><a xlink:title=" ">
<path fill="none" stroke="#63b8ff" d="M1163.27,-219.66C1169.81,-202.01 1184.6,-162.09 1193.28,-138.64"/>
<polygon fill="#63b8ff" stroke="#63b8ff" points="1196.6,-139.75 1196.79,-129.16 1190.04,-137.32 1196.6,-139.75"/>
</a>
</g>
</g>
<!-- Node29 -->
<g id="Node000029" class="node">
<title>Node29</title>
<g id="a_Node000029"><a xlink:href="_kynema_u_g_f_parsing_8h.html" target="_top" xlink:title=" ">
<polygon fill="white" stroke="#666666" points="857,-184 735,-184 735,-165 857,-165 857,-184"/>
<text text-anchor="middle" x="796" y="-172" font-family="Helvetica,sans-Serif" font-size="10.00">KynemaUGFParsing.h</text>
</a>
</g>
</g>
<!-- Node1&#45;&gt;Node29 -->
<g id="edge34_Node000001_Node000029" class="edge">
<title>Node1&#45;&gt;Node29</title>
<g id="a_edge34_Node000001_Node000029"><a xlink:title=" ">
<path fill="none" stroke="#63b8ff" d="M1113.9,-221.79C1050.96,-212.62 937.63,-196.12 864.67,-185.5"/>
<polygon fill="#63b8ff" stroke="#63b8ff" points="865.05,-182.02 854.65,-184.04 864.04,-188.94 865.05,-182.02"/>
</a>
</g>
</g>
<!-- Node37 -->
<g id="Node000037" class="node">
<title>Node37</title>
<g id="a_Node000037"><a xlink:title=" ">
<polygon fill="#e0e0e0" stroke="#999999" points="1072.5,-74 973.5,-74 973.5,-55 1072.5,-55 1072.5,-74"/>
<text text-anchor="middle" x="1023" y="-62" font-family="Helvetica,sans-Serif" font-size="10.00">yaml&#45;cpp/yaml.h</text>
</a>
</g>
</g>
<!-- Node1&#45;&gt;Node37 -->
<g id="edge73_Node000001_Node000037" class="edge">
<title>Node1&#45;&gt;Node37</title>
<g id="a_edge73_Node000001_Node000037"><a xlink:title=" ">
<path fill="none" stroke="#63b8ff" d="M1152.63,-219.74C1130.71,-193.65 1065.59,-116.17 1036.87,-82"/>
<polygon fill="#63b8ff" stroke="#63b8ff" points="1039.52,-79.71 1030.4,-74.31 1034.16,-84.21 1039.52,-79.71"/>
</a>
</g>
</g>
<!-- Node39 -->
<g id="Node000039" class="node">
<title>Node39</title>
<g id="a_Node000039"><a xlink:href="_simulation_8h.html" target="_top" xlink:title=" ">
<polygon fill="white" stroke="#666666" points="1452,-184 1374,-184 1374,-165 1452,-165 1452,-184"/>
<text text-anchor="middle" x="1413" y="-172" font-family="Helvetica,sans-Serif" font-size="10.00">Simulation.h</text>
</a>
</g>
</g>
<!-- Node1&#45;&gt;Node39 -->
<g id="edge68_Node000001_Node000039" class="edge">
<title>Node1&#45;&gt;Node39</title>
<g id="a_edge68_Node000001_Node000039"><a xlink:title=" ">
<path fill="none" stroke="#63b8ff" d="M1200.65,-219.98C1245.02,-210.69 1316.09,-195.8 1363.63,-185.84"/>
<polygon fill="#63b8ff" stroke="#63b8ff" points="1364.63,-189.21 1373.7,-183.73 1363.2,-182.36 1364.63,-189.21"/>
</a>
</g>
</g>
<!-- Node3 -->
<g id="Node000003" class="node">
<title>Node3</title>
<g id="a_Node000003"><a xlink:href="_enums_8h.html" target="_top" xlink:title=" ">
<polygon fill="white" stroke="#666666" points="311.5,-74 252.5,-74 252.5,-55 311.5,-55 311.5,-74"/>
<text text-anchor="middle" x="282" y="-62" font-family="Helvetica,sans-Serif" font-size="10.00">Enums.h</text>
</a>
</g>
</g>
<!-- Node2&#45;&gt;Node3 -->
<g id="edge2_Node000002_Node000003" class="edge">
<title>Node2&#45;&gt;Node3</title>
<g id="a_edge2_Node000002_Node000003"><a xlink:title=" ">
<path fill="none" stroke="#63b8ff" d="M83.92,-109.98C127.43,-100.21 198.46,-84.26 242.6,-74.35"/>
<polygon fill="#63b8ff" stroke="#63b8ff" points="243.4,-77.75 252.39,-72.15 241.87,-70.93 243.4,-77.75"/>
</a>
</g>
</g>
<!-- Node4 -->
<g id="Node000004" class="node">
<title>Node4</title>
<g id="a_Node000004"><a xlink:title=" ">
<polygon fill="#e0e0e0" stroke="#999999" points="590,-19 546,-19 546,0 590,0 590,-19"/>
<text text-anchor="middle" x="568" y="-7" font-family="Helvetica,sans-Serif" font-size="10.00">string</text>
</a>
</g>
</g>
<!-- Node2&#45;&gt;Node4 -->
<g id="edge7_Node000002_Node000004" class="edge">
<title>Node2&#45;&gt;Node4</title>
<g id="a_edge7_Node000002_Node000004"><a xlink:title=" ">
<path fill="none" stroke="#63b8ff" d="M41.17,-109.83C34.35,-96.27 24.16,-70.05 38,-55 54.93,-36.58 423.16,-17.45 535.65,-12.02"/>
<polygon fill="#63b8ff" stroke="#63b8ff" points="535.9,-15.51 545.72,-11.54 535.56,-8.52 535.9,-15.51"/>
</a>
</g>
</g>
<!-- Node5 -->
<g id="Node000005" class="node">
<title>Node5</title>
<g id="a_Node000005"><a xlink:title=" ">
<polygon fill="#e0e0e0" stroke="#999999" points="301,-19 263,-19 263,0 301,0 301,-19"/>
<text text-anchor="middle" x="282" y="-7" font-family="Helvetica,sans-Serif" font-size="10.00">map</text>
</a>
</g>
</g>
<!-- Node2&#45;&gt;Node5 -->
<g id="edge6_Node000002_Node000005" class="edge">
<title>Node2&#45;&gt;Node5</title>
<g id="a_edge6_Node000002_Node000005"><a xlink:title=" ">
<path fill="none" stroke="#63b8ff" d="M33.77,-109.97C17.04,-97.26 -9.29,-72.95 6,-55 37.46,-18.06 188.13,-11.68 252.61,-10.65"/>
<polygon fill="#63b8ff" stroke="#63b8ff" points="252.94,-14.15 262.9,-10.52 252.85,-7.15 252.94,-14.15"/>
</a>
</g>
</g>
<!-- Node2&#45;&gt;Node6 -->
<g id="edge5_Node000002_Node000006" class="edge">
<title>Node2&#45;&gt;Node6</title>
<g id="a_edge5_Node000002_Node000006"><a xlink:title=" ">
<path fill="none" stroke="#63b8ff" d="M58.21,-109.98C69.78,-101.92 87.38,-89.65 101.16,-80.03"/>
<polygon fill="#63b8ff" stroke="#63b8ff" points="103.37,-82.76 109.57,-74.17 99.36,-77.02 103.37,-82.76"/>
</a>
</g>
</g>
<!-- Node3&#45;&gt;Node4 -->
<g id="edge3_Node000003_Node000004" class="edge">
<title>Node3&#45;&gt;Node4</title>
<g id="a_edge3_Node000003_Node000004"><a xlink:title=" ">
<path fill="none" stroke="#63b8ff" d="M311.82,-57.7C316.56,-56.79 321.41,-55.86 326,-55 401.16,-40.83 489.57,-24.71 535.92,-16.3"/>
<polygon fill="#63b8ff" stroke="#63b8ff" points="536.75,-19.71 545.97,-14.48 535.5,-12.82 536.75,-19.71"/>
</a>
</g>
</g>
<!-- Node3&#45;&gt;Node5 -->
<g id="edge4_Node000003_Node000005" class="edge">
<title>Node3&#45;&gt;Node5</title>
<g id="a_edge4_Node000003_Node000005"><a xlink:title=" ">
<path fill="none" stroke="#63b8ff" d="M282,-54.75C282,-47.8 282,-37.85 282,-29.13"/>
<polygon fill="#63b8ff" stroke="#63b8ff" points="285.5,-29.09 282,-19.09 278.5,-29.09 285.5,-29.09"/>
</a>
</g>
</g>
<!-- Node8 -->
<g id="Node000008" class="node">
<title>Node8</title>
<g id="a_Node000008"><a xlink:href="_linear_solver_types_8h.html" target="_top" xlink:title=" ">
<polygon fill="white" stroke="#666666" points="2298,-129 2184,-129 2184,-110 2298,-110 2298,-129"/>
<text text-anchor="middle" x="2241" y="-117" font-family="Helvetica,sans-Serif" font-size="10.00">LinearSolverTypes.h</text>
</a>
</g>
</g>
<!-- Node7&#45;&gt;Node8 -->
<g id="edge9_Node000007_Node000008" class="edge">
<title>Node7&#45;&gt;Node8</title>
<g id="a_edge9_Node000007_Node000008"><a xlink:title=" ">
<path fill="none" stroke="#63b8ff" d="M2000.13,-165.45C2049.55,-156.23 2130.69,-141.09 2184.96,-130.96"/>
<polygon fill="#63b8ff" stroke="#63b8ff" points="2185.91,-134.34 2195.1,-129.07 2184.63,-127.46 2185.91,-134.34"/>
</a>
</g>
</g>
<!-- Node13 -->
<g id="Node000013" class="node">
<title>Node13</title>
<g id="a_Node000013"><a xlink:title=" ">
<polygon fill="#e0e0e0" stroke="#999999" points="2007,-19 1907,-19 1907,0 2007,0 2007,-19"/>
<text text-anchor="middle" x="1957" y="-7" font-family="Helvetica,sans-Serif" font-size="10.00">Kokkos_Core.hpp</text>
</a>
</g>
</g>
<!-- Node7&#45;&gt;Node13 -->
<g id="edge25_Node000007_Node000013" class="edge">
<title>Node7&#45;&gt;Node13</title>
<g id="a_edge25_Node000007_Node000013"><a xlink:title=" ">
<path fill="none" stroke="#63b8ff" d="M1957,-164.74C1957,-139.31 1957,-65.08 1957,-29.69"/>
<polygon fill="#63b8ff" stroke="#63b8ff" points="1960.5,-29.31 1957,-19.31 1953.5,-29.31 1960.5,-29.31"/>
</a>
</g>
</g>
<!-- Node7&#45;&gt;Node20 -->
<g id="edge21_Node000007_Node000020" class="edge">
<title>Node7&#45;&gt;Node20</title>
<g id="a_edge21_Node000007_Node000020"><a xlink:title=" ">
<path fill="none" stroke="#63b8ff" d="M1913.81,-166.19C1859.4,-156.97 1765.61,-141.09 1704.19,-130.69"/>
<polygon fill="#63b8ff" stroke="#63b8ff" points="1704.69,-127.23 1694.25,-129.01 1703.52,-134.13 1704.69,-127.23"/>
</a>
</g>
</g>
<!-- Node22 -->
<g id="Node000022" class="node">
<title>Node22</title>
<g id="a_Node000022"><a xlink:title=" ">
<polygon fill="#e0e0e0" stroke="#999999" points="2485.5,-129 2316.5,-129 2316.5,-110 2485.5,-110 2485.5,-129"/>
<text text-anchor="middle" x="2401" y="-117" font-family="Helvetica,sans-Serif" font-size="10.00">Teuchos_GlobalMPISession.hpp</text>
</a>
</g>
</g>
<!-- Node7&#45;&gt;Node22 -->
<g id="edge26_Node000007_Node000022" class="edge">
<title>Node7&#45;&gt;Node22</title>
<g id="a_edge26_Node000007_Node000022"><a xlink:title=" ">
<path fill="none" stroke="#63b8ff" d="M2000.38,-168.32C2074.17,-159.51 2225.26,-141.48 2319.34,-130.25"/>
<polygon fill="#63b8ff" stroke="#63b8ff" points="2319.88,-133.71 2329.39,-129.05 2319.05,-126.76 2319.88,-133.71"/>
</a>
</g>
</g>
<!-- Node23 -->
<g id="Node000023" class="node">
<title>Node23</title>
<g id="a_Node000023"><a xlink:title=" ">
<polygon fill="#e0e0e0" stroke="#999999" points="1929,-129 1759,-129 1759,-110 1929,-110 1929,-129"/>
<text text-anchor="middle" x="1844" y="-117" font-family="Helvetica,sans-Serif" font-size="10.00">Teuchos_oblackholestream.hpp</text>
</a>
</g>
</g>
<!-- Node7&#45;&gt;Node23 -->
<g id="edge27_Node000007_Node000023" class="edge">
<title>Node7&#45;&gt;Node23</title>
<g id="a_edge27_Node000007_Node000023"><a xlink:title=" ">
<path fill="none" stroke="#63b8ff" d="M1938.84,-164.98C1920.75,-156.5 1892.72,-143.35 1871.81,-133.54"/>
<polygon fill="#63b8ff" stroke="#63b8ff" points="1873.03,-130.25 1862.49,-129.17 1870.05,-136.59 1873.03,-130.25"/>
</a>
</g>
</g>
<!-- Node24 -->
<g id="Node000024" class="node">
<title>Node24</title>
<g id="a_Node000024"><a xlink:title=" ">
<polygon fill="#e0e0e0" stroke="#999999" points="2029,-129 1985,-129 1985,-110 2029,-110 2029,-129"/>
<text text-anchor="middle" x="2007" y="-117" font-family="Helvetica,sans-Serif" font-size="10.00">limits</text>
</a>
</g>
</g>
<!-- Node7&#45;&gt;Node24 -->
<g id="edge28_Node000007_Node000024" class="edge">
<title>Node7&#45;&gt;Node24</title>
<g id="a_edge28_Node000007_Node000024"><a xlink:title=" ">
<path fill="none" stroke="#63b8ff" d="M1965.26,-164.75C1972.46,-157.11 1983.11,-145.82 1991.85,-136.56"/>
<polygon fill="#63b8ff" stroke="#63b8ff" points="1994.58,-138.76 1998.9,-129.09 1989.49,-133.96 1994.58,-138.76"/>
</a>
</g>
</g>
<!-- Node9 -->
<g id="Node000009" class="node">
<title>Node9</title>
<g id="a_Node000009"><a xlink:href="_kokkos_interface_8h.html" target="_top" xlink:title=" ">
<polygon fill="white" stroke="#666666" points="1843,-74 1739,-74 1739,-55 1843,-55 1843,-74"/>
<text text-anchor="middle" x="1791" y="-62" font-family="Helvetica,sans-Serif" font-size="10.00">KokkosInterface.h</text>
</a>
</g>
</g>
<!-- Node8&#45;&gt;Node9 -->
<g id="edge10_Node000008_Node000009" class="edge">
<title>Node8&#45;&gt;Node9</title>
<g id="a_edge10_Node000008_Node000009"><a xlink:title=" ">
<path fill="none" stroke="#63b8ff" d="M2183.55,-111.73C2098.76,-101.75 1940.75,-83.14 1853.28,-72.84"/>
<polygon fill="#63b8ff" stroke="#63b8ff" points="1853.57,-69.35 1843.23,-71.65 1852.75,-76.3 1853.57,-69.35"/>
</a>
</g>
</g>
<!-- Node14 -->
<g id="Node000014" class="node">
<title>Node14</title>
<g id="a_Node000014"><a xlink:title=" ">
<polygon fill="#e0e0e0" stroke="#999999" points="2163,-74 1985,-74 1985,-55 2163,-55 2163,-74"/>
<text text-anchor="middle" x="2074" y="-62" font-family="Helvetica,sans-Serif" font-size="10.00">Tpetra_Details_DefaultTypes.hpp</text>
</a>
</g>
</g>
<!-- Node8&#45;&gt;Node14 -->
<g id="edge15_Node000008_Node000014" class="edge">
<title>Node8&#45;&gt;Node14</title>
<g id="a_edge15_Node000008_Node000014"><a xlink:title=" ">
<path fill="none" stroke="#63b8ff" d="M2214.17,-109.98C2186.13,-101.09 2141.95,-87.07 2110.7,-77.15"/>
<polygon fill="#63b8ff" stroke="#63b8ff" points="2111.63,-73.77 2101.04,-74.08 2109.51,-80.44 2111.63,-73.77"/>
</a>
</g>
</g>
<!-- Node15 -->
<g id="Node000015" class="node">
<title>Node15</title>
<g id="a_Node000015"><a xlink:title=" ">
<polygon fill="#e0e0e0" stroke="#999999" points="2300.5,-74 2181.5,-74 2181.5,-55 2300.5,-55 2300.5,-74"/>
<text text-anchor="middle" x="2241" y="-62" font-family="Helvetica,sans-Serif" font-size="10.00">Tpetra_CrsGraph.hpp</text>
</a>
</g>
</g>
<!-- Node8&#45;&gt;Node15 -->
<g id="edge16_Node000008_Node000015" class="edge">
<title>Node8&#45;&gt;Node15</title>
<g id="a_edge16_Node000008_Node000015"><a xlink:title=" ">
<path fill="none" stroke="#63b8ff" d="M2241,-109.75C2241,-102.8 2241,-92.85 2241,-84.13"/>
<polygon fill="#63b8ff" stroke="#63b8ff" points="2244.5,-84.09 2241,-74.09 2237.5,-84.09 2244.5,-84.09"/>
</a>
</g>
</g>
<!-- Node16 -->
<g id="Node000016" class="node">
<title>Node16</title>
<g id="a_Node000016"><a xlink:title=" ">
<polygon fill="#e0e0e0" stroke="#999999" points="2441,-74 2319,-74 2319,-55 2441,-55 2441,-74"/>
<text text-anchor="middle" x="2380" y="-62" font-family="Helvetica,sans-Serif" font-size="10.00">Tpetra_CrsMatrix.hpp</text>
</a>
</g>
</g>
<!-- Node8&#45;&gt;Node16 -->
<g id="edge17_Node000008_Node000016" class="edge">
<title>Node8&#45;&gt;Node16</title>
<g id="a_edge17_Node000008_Node000016"><a xlink:title=" ">
<path fill="none" stroke="#63b8ff" d="M2263.33,-109.98C2286.2,-101.27 2321.96,-87.63 2347.86,-77.75"/>
<polygon fill="#63b8ff" stroke="#63b8ff" points="2349.16,-81 2357.26,-74.17 2346.67,-74.46 2349.16,-81"/>
</a>
</g>
</g>
<!-- Node17 -->
<g id="Node000017" class="node">
<title>Node17</title>
<g id="a_Node000017"><a xlink:title=" ">
<polygon fill="#e0e0e0" stroke="#999999" points="2563,-74 2459,-74 2459,-55 2563,-55 2563,-74"/>
<text text-anchor="middle" x="2511" y="-62" font-family="Helvetica,sans-Serif" font-size="10.00">Tpetra_Vector.hpp</text>
</a>
</g>
</g>
<!-- Node8&#45;&gt;Node17 -->
<g id="edge18_Node000008_Node000017" class="edge">
<title>Node8&#45;&gt;Node17</title>
<g id="a_edge18_Node000008_Node000017"><a xlink:title=" ">
<path fill="none" stroke="#63b8ff" d="M2284.38,-109.98C2331.38,-100.76 2406.43,-86.03 2457.16,-76.07"/>
<polygon fill="#63b8ff" stroke="#63b8ff" points="2458.14,-79.44 2467.28,-74.08 2456.79,-72.57 2458.14,-79.44"/>
</a>
</g>
</g>
<!-- Node18 -->
<g id="Node000018" class="node">
<title>Node18</title>
<g id="a_Node000018"><a xlink:title=" ">
<polygon fill="#e0e0e0" stroke="#999999" points="2710.5,-74 2581.5,-74 2581.5,-55 2710.5,-55 2710.5,-74"/>
<text text-anchor="middle" x="2646" y="-62" font-family="Helvetica,sans-Serif" font-size="10.00">Tpetra_MultiVector.hpp</text>
</a>
</g>
</g>
<!-- Node8&#45;&gt;Node18 -->
<g id="edge19_Node000008_Node000018" class="edge">
<title>Node8&#45;&gt;Node18</title>
<g id="a_edge19_Node000008_Node000018"><a xlink:title=" ">
<path fill="none" stroke="#63b8ff" d="M2298.17,-111.02C2369.64,-101.67 2492.16,-85.63 2571.07,-75.31"/>
<polygon fill="#63b8ff" stroke="#63b8ff" points="2571.97,-78.72 2581.43,-73.95 2571.06,-71.78 2571.97,-78.72"/>
</a>
</g>
</g>
<!-- Node19 -->
<g id="Node000019" class="node">
<title>Node19</title>
<g id="a_Node000019"><a xlink:title=" ">
<polygon fill="#e0e0e0" stroke="#999999" points="2845,-74 2729,-74 2729,-55 2845,-55 2845,-74"/>
<text text-anchor="middle" x="2787" y="-62" font-family="Helvetica,sans-Serif" font-size="10.00">Tpetra_Operator.hpp</text>
</a>
</g>
</g>
<!-- Node8&#45;&gt;Node19 -->
<g id="edge20_Node000008_Node000019" class="edge">
<title>Node8&#45;&gt;Node19</title>
<g id="a_edge20_Node000008_Node000019"><a xlink:title=" ">
<path fill="none" stroke="#63b8ff" d="M2298,-111.11C2301.38,-110.72 2304.74,-110.35 2308,-110 2487.55,-90.77 2535.56,-93.47 2718.94,-74.07"/>
<polygon fill="#63b8ff" stroke="#63b8ff" points="2719.34,-77.55 2728.91,-73.01 2718.6,-70.59 2719.34,-77.55"/>
</a>
</g>
</g>
<!-- Node10 -->
<g id="Node000010" class="node">
<title>Node10</title>
<g id="a_Node000010"><a xlink:title=" ">
<polygon fill="#e0e0e0" stroke="#999999" points="1729.5,-19 1676.5,-19 1676.5,0 1729.5,0 1729.5,-19"/>
<text text-anchor="middle" x="1703" y="-7" font-family="Helvetica,sans-Serif" font-size="10.00">cstddef</text>
</a>
</g>
</g>
<!-- Node9&#45;&gt;Node10 -->
<g id="edge11_Node000009_Node000010" class="edge">
<title>Node9&#45;&gt;Node10</title>
<g id="a_edge11_Node000009_Node000010"><a xlink:title=" ">
<path fill="none" stroke="#63b8ff" d="M1776.86,-54.98C1763.21,-46.77 1742.31,-34.18 1726.22,-24.49"/>
<polygon fill="#63b8ff" stroke="#63b8ff" points="1727.77,-21.33 1717.4,-19.17 1724.16,-27.33 1727.77,-21.33"/>
</a>
</g>
</g>
<!-- Node11 -->
<g id="Node000011" class="node">
<title>Node11</title>
<g id="a_Node000011"><a xlink:title=" ">
<polygon fill="#e0e0e0" stroke="#999999" points="1888.5,-19 1747.5,-19 1747.5,0 1888.5,0 1888.5,-19"/>
<text text-anchor="middle" x="1818" y="-7" font-family="Helvetica,sans-Serif" font-size="10.00">stk_mesh/base/Entity.hpp</text>
</a>
</g>
</g>
<!-- Node9&#45;&gt;Node11 -->
<g id="edge12_Node000009_Node000011" class="edge">
<title>Node9&#45;&gt;Node11</title>
<g id="a_edge12_Node000009_Node000011"><a xlink:title=" ">
<path fill="none" stroke="#63b8ff" d="M1795.46,-54.75C1799.12,-47.57 1804.41,-37.18 1808.95,-28.27"/>
<polygon fill="#63b8ff" stroke="#63b8ff" points="1812.2,-29.59 1813.62,-19.09 1805.97,-26.41 1812.2,-29.59"/>
</a>
</g>
</g>
<!-- Node12 -->
<g id="Node000012" class="node">
<title>Node12</title>
<g id="a_Node000012"><a xlink:title=" ">
<polygon fill="#e0e0e0" stroke="#999999" points="1658.5,-19 1545.5,-19 1545.5,0 1658.5,0 1658.5,-19"/>
<text text-anchor="middle" x="1602" y="-7" font-family="Helvetica,sans-Serif" font-size="10.00">Kokkos_Macros.hpp</text>
</a>
</g>
</g>
<!-- Node9&#45;&gt;Node12 -->
<g id="edge13_Node000009_Node000012" class="edge">
<title>Node9&#45;&gt;Node12</title>
<g id="a_edge13_Node000009_Node000012"><a xlink:title=" ">
<path fill="none" stroke="#63b8ff" d="M1760.63,-54.98C1728.63,-46.01 1678.04,-31.82 1642.62,-21.89"/>
<polygon fill="#63b8ff" stroke="#63b8ff" points="1643.18,-18.41 1632.6,-19.08 1641.29,-25.15 1643.18,-18.41"/>
</a>
</g>
</g>
<!-- Node9&#45;&gt;Node13 -->
<g id="edge14_Node000009_Node000013" class="edge">
<title>Node9&#45;&gt;Node13</title>
<g id="a_edge14_Node000009_Node000013"><a xlink:title=" ">
<path fill="none" stroke="#63b8ff" d="M1817.67,-54.98C1845.54,-46.09 1889.45,-32.07 1920.52,-22.15"/>
<polygon fill="#63b8ff" stroke="#63b8ff" points="1921.66,-25.46 1930.12,-19.08 1919.53,-18.79 1921.66,-25.46"/>
</a>
</g>
</g>
<!-- Node20&#45;&gt;Node4 -->
<g id="edge22_Node000020_Node000004" class="edge">
<title>Node20&#45;&gt;Node4</title>
<g id="a_edge22_Node000020_Node000004"><a xlink:title=" ">
<path fill="none" stroke="#63b8ff" d="M1607.06,-109.9C1545.6,-95.95 1418.26,-68.58 1309,-55 1036.32,-21.11 703.87,-12.8 600.34,-10.97"/>
<polygon fill="#63b8ff" stroke="#63b8ff" points="600.28,-7.47 590.22,-10.8 600.16,-14.47 600.28,-7.47"/>
</a>
</g>
</g>
<!-- Node20&#45;&gt;Node6 -->
<g id="edge23_Node000020_Node000006" class="edge">
<title>Node20&#45;&gt;Node6</title>
<g id="a_edge23_Node000020_Node000006"><a xlink:title=" ">
<path fill="none" stroke="#63b8ff" d="M1585.43,-110.81C1582.24,-110.51 1579.08,-110.23 1576,-110 985.04,-65.19 834.96,-102.77 243,-74 231.25,-73.43 218.87,-72.7 206.69,-71.92"/>
<polygon fill="#63b8ff" stroke="#63b8ff" points="206.73,-68.41 196.52,-71.24 206.27,-75.4 206.73,-68.41"/>
</a>
</g>
</g>
<!-- Node21 -->
<g id="Node000021" class="node">
<title>Node21</title>
<g id="a_Node000021"><a xlink:title=" ">
<polygon fill="#e0e0e0" stroke="#999999" points="1694,-74 1594,-74 1594,-55 1694,-55 1694,-74"/>
<text text-anchor="middle" x="1644" y="-62" font-family="Helvetica,sans-Serif" font-size="10.00">Teuchos_RCP.hpp</text>
</a>
</g>
</g>
<!-- Node20&#45;&gt;Node21 -->
<g id="edge24_Node000020_Node000021" class="edge">
<title>Node20&#45;&gt;Node21</title>
<g id="a_edge24_Node000020_Node000021"><a xlink:title=" ">
<path fill="none" stroke="#63b8ff" d="M1644,-109.75C1644,-102.8 1644,-92.85 1644,-84.13"/>
<polygon fill="#63b8ff" stroke="#63b8ff" points="1647.5,-84.09 1644,-74.09 1640.5,-84.09 1647.5,-84.09"/>
</a>
</g>
</g>
<!-- Node26 -->
<g id="Node000026" class="node">
<title>Node26</title>
<g id="a_Node000026"><a xlink:title=" ">
<polygon fill="#e0e0e0" stroke="#999999" points="1215,-74 1171,-74 1171,-55 1215,-55 1215,-74"/>
<text text-anchor="middle" x="1193" y="-62" font-family="Helvetica,sans-Serif" font-size="10.00">mpi.h</text>
</a>
</g>
</g>
<!-- Node25&#45;&gt;Node26 -->
<g id="edge31_Node000025_Node000026" class="edge">
<title>Node25&#45;&gt;Node26</title>
<g id="a_edge31_Node000025_Node000026"><a xlink:title=" ">
<path fill="none" stroke="#63b8ff" d="M1198.84,-109.75C1197.93,-102.8 1196.61,-92.85 1195.46,-84.13"/>
<polygon fill="#63b8ff" stroke="#63b8ff" points="1198.91,-83.54 1194.13,-74.09 1191.97,-84.46 1198.91,-83.54"/>
</a>
</g>
</g>
<!-- Node27 -->
<g id="Node000027" class="node">
<title>Node27</title>
<g id="a_Node000027"><a xlink:title=" ">
<polygon fill="#e0e0e0" stroke="#999999" points="1145.5,-74 1090.5,-74 1090.5,-55 1145.5,-55 1145.5,-74"/>
<text text-anchor="middle" x="1118" y="-62" font-family="Helvetica,sans-Serif" font-size="10.00">fstream</text>
</a>
</g>
</g>
<!-- Node25&#45;&gt;Node27 -->
<g id="edge32_Node000025_Node000027" class="edge">
<title>Node25&#45;&gt;Node27</title>
<g id="a_edge32_Node000025_Node000027"><a xlink:title=" ">
<path fill="none" stroke="#63b8ff" d="M1186.83,-109.98C1174.23,-101.84 1155,-89.41 1140.06,-79.76"/>
<polygon fill="#63b8ff" stroke="#63b8ff" points="1141.71,-76.66 1131.41,-74.17 1137.91,-82.54 1141.71,-76.66"/>
</a>
</g>
</g>
<!-- Node28 -->
<g id="Node000028" class="node">
<title>Node28</title>
<g id="a_Node000028"><a xlink:title=" ">
<polygon fill="#e0e0e0" stroke="#999999" points="1300.5,-74 1233.5,-74 1233.5,-55 1300.5,-55 1300.5,-74"/>
<text text-anchor="middle" x="1267" y="-62" font-family="Helvetica,sans-Serif" font-size="10.00">streambuf</text>
</a>
</g>
</g>
<!-- Node25&#45;&gt;Node28 -->
<g id="edge33_Node000025_Node000028" class="edge">
<title>Node25&#45;&gt;Node28</title>
<g id="a_edge33_Node000025_Node000028"><a xlink:title=" ">
<path fill="none" stroke="#63b8ff" d="M1210.76,-109.98C1220.77,-102.07 1235.89,-90.11 1247.93,-80.58"/>
<polygon fill="#63b8ff" stroke="#63b8ff" points="1250.37,-83.12 1256.04,-74.17 1246.03,-77.63 1250.37,-83.12"/>
</a>
</g>
</g>
<!-- Node29&#45;&gt;Node3 -->
<g id="edge41_Node000029_Node000003" class="edge">
<title>Node29&#45;&gt;Node3</title>
<g id="a_edge41_Node000029_Node000003"><a xlink:title=" ">
<path fill="none" stroke="#63b8ff" d="M734.94,-173.72C586.19,-173.61 214.48,-169.27 177,-129 153.08,-103.3 203.46,-84.38 242.39,-74.15"/>
<polygon fill="#63b8ff" stroke="#63b8ff" points="243.65,-77.45 252.5,-71.62 241.94,-70.66 243.65,-77.45"/>
</a>
</g>
</g>
<!-- Node29&#45;&gt;Node4 -->
<g id="edge66_Node000029_Node000004" class="edge">
<title>Node29&#45;&gt;Node4</title>
<g id="a_edge66_Node000029_Node000004"><a xlink:title=" ">
<path fill="none" stroke="#63b8ff" d="M795.47,-164.72C794.25,-151.48 790.23,-126.24 777,-110 731.23,-53.8 646.21,-27.4 599.97,-16.71"/>
<polygon fill="#63b8ff" stroke="#63b8ff" points="600.69,-13.28 590.18,-14.54 599.18,-20.12 600.69,-13.28"/>
</a>
</g>
</g>
<!-- Node29&#45;&gt;Node25 -->
<g id="edge62_Node000029_Node000025" class="edge">
<title>Node29&#45;&gt;Node25</title>
<g id="a_edge62_Node000029_Node000025"><a xlink:title=" ">
<path fill="none" stroke="#63b8ff" d="M857.36,-165.45C933.2,-155.5 1061.55,-138.66 1137.78,-128.66"/>
<polygon fill="#63b8ff" stroke="#63b8ff" points="1138.26,-132.13 1147.72,-127.36 1137.35,-125.19 1138.26,-132.13"/>
</a>
</g>
</g>
<!-- Node29&#45;&gt;Node27 -->
<g id="edge65_Node000029_Node000027" class="edge">
<title>Node29&#45;&gt;Node27</title>
<g id="a_edge65_Node000029_Node000027"><a xlink:title=" ">
<path fill="none" stroke="#63b8ff" d="M857.01,-171.14C908.46,-167.15 982.93,-156.63 1042,-129 1066.44,-117.57 1089.48,-96.29 1103.65,-81.53"/>
<polygon fill="#63b8ff" stroke="#63b8ff" points="1106.31,-83.81 1110.56,-74.11 1101.18,-79.04 1106.31,-83.81"/>
</a>
</g>
</g>
<!-- Node30 -->
<g id="Node000030" class="node">
<title>Node30</title>
<g id="a_Node000030"><a xlink:href="_boundary_conditions_8h.html" target="_top" xlink:title=" ">
<polygon fill="white" stroke="#666666" points="442,-129 318,-129 318,-110 442,-110 442,-129"/>
<text text-anchor="middle" x="380" y="-117" font-family="Helvetica,sans-Serif" font-size="10.00">BoundaryConditions.h</text>
</a>
</g>
</g>
<!-- Node29&#45;&gt;Node30 -->
<g id="edge35_Node000029_Node000030" class="edge">
<title>Node29&#45;&gt;Node30</title>
<g id="a_edge35_Node000029_Node000030"><a xlink:title=" ">
<path fill="none" stroke="#63b8ff" d="M734.62,-165.68C659.41,-156.1 532.17,-139.89 452.29,-129.71"/>
<polygon fill="#63b8ff" stroke="#63b8ff" points="452.68,-126.23 442.31,-128.44 451.79,-133.17 452.68,-126.23"/>
</a>
</g>
</g>
<!-- Node31 -->
<g id="Node000031" class="node">
<title>Node31</title>
<g id="a_Node000031"><a xlink:title=" ">
<polygon fill="#e0e0e0" stroke="#999999" points="643.5,-74 596.5,-74 596.5,-55 643.5,-55 643.5,-74"/>
<text text-anchor="middle" x="620" y="-62" font-family="Helvetica,sans-Serif" font-size="10.00">vector</text>
</a>
</g>
</g>
<!-- Node29&#45;&gt;Node31 -->
<g id="edge67_Node000029_Node000031" class="edge">
<title>Node29&#45;&gt;Node31</title>
<g id="a_edge67_Node000029_Node000031"><a xlink:title=" ">
<path fill="none" stroke="#63b8ff" d="M734.7,-166.71C687.58,-160.08 628.05,-148.15 613,-129 603.06,-116.35 606.63,-97.66 611.59,-83.82"/>
<polygon fill="#63b8ff" stroke="#63b8ff" points="614.91,-84.95 615.46,-74.37 608.43,-82.3 614.91,-84.95"/>
</a>
</g>
</g>
<!-- Node33 -->
<g id="Node000033" class="node">
<title>Node33</title>
<g id="a_Node000033"><a xlink:href="_initial_conditions_8h.html" target="_top" xlink:title=" ">
<polygon fill="white" stroke="#666666" points="565.5,-129 460.5,-129 460.5,-110 565.5,-110 565.5,-129"/>
<text text-anchor="middle" x="513" y="-117" font-family="Helvetica,sans-Serif" font-size="10.00">InitialConditions.h</text>
</a>
</g>
</g>
<!-- Node29&#45;&gt;Node33 -->
<g id="edge42_Node000029_Node000033" class="edge">
<title>Node29&#45;&gt;Node33</title>
<g id="a_edge42_Node000029_Node000033"><a xlink:title=" ">
<path fill="none" stroke="#63b8ff" d="M750.53,-164.98C701.06,-155.72 621.95,-140.9 568.77,-130.94"/>
<polygon fill="#63b8ff" stroke="#63b8ff" points="569.3,-127.48 558.83,-129.08 568.01,-134.36 569.3,-127.48"/>
</a>
</g>
</g>
<!-- Node34 -->
<g id="Node000034" class="node">
<title>Node34</title>
<g id="a_Node000034"><a xlink:href="_material_propertys_8h.html" target="_top" xlink:title=" ">
<polygon fill="white" stroke="#666666" points="299.5,-129 186.5,-129 186.5,-110 299.5,-110 299.5,-129"/>
<text text-anchor="middle" x="243" y="-117" font-family="Helvetica,sans-Serif" font-size="10.00">MaterialPropertys.h</text>
</a>
</g>
</g>
<!-- Node29&#45;&gt;Node34 -->
<g id="edge48_Node000029_Node000034" class="edge">
<title>Node29&#45;&gt;Node34</title>
<g id="a_edge48_Node000029_Node000034"><a xlink:title=" ">
<path fill="none" stroke="#63b8ff" d="M734.81,-168.64C644.34,-161.29 469.33,-146.46 309.53,-129.02"/>
<polygon fill="#63b8ff" stroke="#63b8ff" points="309.83,-125.53 299.51,-127.92 309.07,-132.49 309.83,-125.53"/>
</a>
</g>
</g>
<!-- Node35 -->
<g id="Node000035" class="node">
<title>Node35</title>
<g id="a_Node000035"><a xlink:href="_kynema_u_g_f_parsed_types_8h.html" target="_top" xlink:title=" ">
<polygon fill="white" stroke="#666666" points="768,-129 622,-129 622,-110 768,-110 768,-129"/>
<text text-anchor="middle" x="695" y="-117" font-family="Helvetica,sans-Serif" font-size="10.00">KynemaUGFParsedTypes.h</text>
</a>
</g>
</g>
<!-- Node29&#45;&gt;Node35 -->
<g id="edge53_Node000029_Node000035" class="edge">
<title>Node29&#45;&gt;Node35</title>
<g id="a_edge53_Node000029_Node000035"><a xlink:title=" ">
<path fill="none" stroke="#63b8ff" d="M779.77,-164.98C763.82,-156.61 739.22,-143.7 720.62,-133.95"/>
<polygon fill="#63b8ff" stroke="#63b8ff" points="722,-130.72 711.52,-129.17 718.75,-136.92 722,-130.72"/>
</a>
</g>
</g>
<!-- Node36 -->
<g id="Node000036" class="node">
<title>Node36</title>
<g id="a_Node000036"><a xlink:href="_kynema_u_g_f_parsing_helper_8h.html" target="_top" xlink:title=" ">
<polygon fill="white" stroke="#666666" points="1015.5,-129 862.5,-129 862.5,-110 1015.5,-110 1015.5,-129"/>
<text text-anchor="middle" x="939" y="-117" font-family="Helvetica,sans-Serif" font-size="10.00">KynemaUGFParsingHelper.h</text>
</a>
</g>
</g>
<!-- Node29&#45;&gt;Node36 -->
<g id="edge56_Node000029_Node000036" class="edge">
<title>Node29&#45;&gt;Node36</title>
<g id="a_edge56_Node000029_Node000036"><a xlink:title=" ">
<path fill="none" stroke="#63b8ff" d="M818.98,-164.98C842.5,-156.27 879.29,-142.63 905.94,-132.75"/>
<polygon fill="#63b8ff" stroke="#63b8ff" points="907.45,-135.93 915.61,-129.17 905.01,-129.36 907.45,-135.93"/>
</a>
</g>
</g>
<!-- Node29&#45;&gt;Node37 -->
<g id="edge63_Node000029_Node000037" class="edge">
<title>Node29&#45;&gt;Node37</title>
<g id="a_edge63_Node000029_Node000037"><a xlink:title=" ">
<path fill="none" stroke="#63b8ff" d="M857.25,-170.11C917.44,-165.34 1003.23,-154.21 1024,-129 1034.18,-116.64 1032.49,-97.88 1029.12,-83.95"/>
<polygon fill="#63b8ff" stroke="#63b8ff" points="1032.39,-82.66 1026.25,-74.03 1025.67,-84.61 1032.39,-82.66"/>
</a>
</g>
</g>
<!-- Node38 -->
<g id="Node000038" class="node">
<title>Node38</title>
<g id="a_Node000038"><a xlink:title=" ">
<polygon fill="#e0e0e0" stroke="#999999" points="897,-74 837,-74 837,-55 897,-55 897,-74"/>
<text text-anchor="middle" x="867" y="-62" font-family="Helvetica,sans-Serif" font-size="10.00">iostream</text>
</a>
</g>
</g>
<!-- Node29&#45;&gt;Node38 -->
<g id="edge64_Node000029_Node000038" class="edge">
<title>Node29&#45;&gt;Node38</title>
<g id="a_edge64_Node000029_Node000038"><a xlink:title=" ">
<path fill="none" stroke="#63b8ff" d="M801.81,-164.66C813.57,-146.77 840.37,-106 855.7,-82.69"/>
<polygon fill="#63b8ff" stroke="#63b8ff" points="858.74,-84.44 861.31,-74.16 852.89,-80.59 858.74,-84.44"/>
</a>
</g>
</g>
<!-- Node30&#45;&gt;Node3 -->
<g id="edge36_Node000030_Node000003" class="edge">
<title>Node30&#45;&gt;Node3</title>
<g id="a_edge36_Node000030_Node000003"><a xlink:title=" ">
<path fill="none" stroke="#63b8ff" d="M364.25,-109.98C348.77,-101.61 324.91,-88.7 306.86,-78.95"/>
<polygon fill="#63b8ff" stroke="#63b8ff" points="308.49,-75.85 298.03,-74.17 305.16,-82.01 308.49,-75.85"/>
</a>
</g>
</g>
<!-- Node30&#45;&gt;Node4 -->
<g id="edge38_Node000030_Node000004" class="edge">
<title>Node30&#45;&gt;Node4</title>
<g id="a_edge38_Node000030_Node000004"><a xlink:title=" ">
<path fill="none" stroke="#63b8ff" d="M385.31,-109.8C394.04,-96.2 412.7,-69.93 435,-55 465.99,-34.25 507.52,-22.4 535.87,-16.23"/>
<polygon fill="#63b8ff" stroke="#63b8ff" points="536.59,-19.65 545.68,-14.2 535.18,-12.8 536.59,-19.65"/>
</a>
</g>
</g>
<!-- Node30&#45;&gt;Node5 -->
<g id="edge37_Node000030_Node000005" class="edge">
<title>Node30&#45;&gt;Node5</title>
<g id="a_edge37_Node000030_Node000005"><a xlink:title=" ">
<path fill="none" stroke="#63b8ff" d="M371.98,-109.66C355.53,-91.54 317.76,-49.91 296.76,-26.77"/>
<polygon fill="#63b8ff" stroke="#63b8ff" points="299.17,-24.21 289.86,-19.16 293.98,-28.92 299.17,-24.21"/>
</a>
</g>
</g>
<!-- Node30&#45;&gt;Node31 -->
<g id="edge39_Node000030_Node000031" class="edge">
<title>Node30&#45;&gt;Node31</title>
<g id="a_edge39_Node000030_Node000031"><a xlink:title=" ">
<path fill="none" stroke="#63b8ff" d="M418.56,-109.98C465.05,-99.72 542.42,-82.63 586.52,-72.89"/>
<polygon fill="#63b8ff" stroke="#63b8ff" points="587.44,-76.27 596.45,-70.7 585.93,-69.44 587.44,-76.27"/>
</a>
</g>
</g>
<!-- Node32 -->
<g id="Node000032" class="node">
<title>Node32</title>
<g id="a_Node000032"><a xlink:title=" ">
<polygon fill="#e0e0e0" stroke="#999999" points="502,-74 444,-74 444,-55 502,-55 502,-74"/>
<text text-anchor="middle" x="473" y="-62" font-family="Helvetica,sans-Serif" font-size="10.00">memory</text>
</a>
</g>
</g>
<!-- Node30&#45;&gt;Node32 -->
<g id="edge40_Node000030_Node000032" class="edge">
<title>Node30&#45;&gt;Node32</title>
<g id="a_edge40_Node000030_Node000032"><a xlink:title=" ">
<path fill="none" stroke="#63b8ff" d="M394.94,-109.98C409.5,-101.69 431.87,-88.94 448.93,-79.22"/>
<polygon fill="#63b8ff" stroke="#63b8ff" points="450.83,-82.16 457.79,-74.17 447.36,-76.08 450.83,-82.16"/>
</a>
</g>
</g>
<!-- Node33&#45;&gt;Node3 -->
<g id="edge43_Node000033_Node000003" class="edge">
<title>Node33&#45;&gt;Node3</title>
<g id="a_edge43_Node000033_Node000003"><a xlink:title=" ">
<path fill="none" stroke="#63b8ff" d="M475.89,-109.98C433.62,-100.29 364.83,-84.5 321.56,-74.58"/>
<polygon fill="#63b8ff" stroke="#63b8ff" points="322.21,-71.13 311.68,-72.31 320.64,-77.96 322.21,-71.13"/>
</a>
</g>
</g>
<!-- Node33&#45;&gt;Node4 -->
<g id="edge45_Node000033_Node000004" class="edge">
<title>Node33&#45;&gt;Node4</title>
<g id="a_edge45_Node000033_Node000004"><a xlink:title=" ">
<path fill="none" stroke="#63b8ff" d="M520.1,-109.72C526.88,-101.03 537.07,-87.16 544,-74 551.73,-59.34 558.21,-41.62 562.48,-28.63"/>
<polygon fill="#63b8ff" stroke="#63b8ff" points="565.84,-29.59 565.52,-19 559.17,-27.48 565.84,-29.59"/>
</a>
</g>
</g>
<!-- Node33&#45;&gt;Node5 -->
<g id="edge44_Node000033_Node000005" class="edge">
<title>Node33&#45;&gt;Node5</title>
<g id="a_edge44_Node000033_Node000005"><a xlink:title=" ">
<path fill="none" stroke="#63b8ff" d="M515.74,-109.92C519.43,-96.5 524.15,-70.45 511,-55 485.59,-25.15 367.65,-15 311.66,-11.82"/>
<polygon fill="#63b8ff" stroke="#63b8ff" points="311.51,-8.31 301.33,-11.28 311.14,-15.3 311.51,-8.31"/>
</a>
</g>
</g>
<!-- Node33&#45;&gt;Node31 -->
<g id="edge46_Node000033_Node000031" class="edge">
<title>Node33&#45;&gt;Node31</title>
<g id="a_edge46_Node000033_Node000031"><a xlink:title=" ">
<path fill="none" stroke="#63b8ff" d="M530.19,-109.98C547.25,-101.54 573.63,-88.47 593.4,-78.68"/>
<polygon fill="#63b8ff" stroke="#63b8ff" points="595.09,-81.75 602.5,-74.17 591.98,-75.47 595.09,-81.75"/>
</a>
</g>
</g>
<!-- Node33&#45;&gt;Node32 -->
<g id="edge47_Node000033_Node000032" class="edge">
<title>Node33&#45;&gt;Node32</title>
<g id="a_edge47_Node000033_Node000032"><a xlink:title=" ">
<path fill="none" stroke="#63b8ff" d="M506.39,-109.75C500.74,-102.26 492.46,-91.28 485.55,-82.13"/>
<polygon fill="#63b8ff" stroke="#63b8ff" points="488.3,-79.96 479.48,-74.09 482.71,-84.18 488.3,-79.96"/>
</a>
</g>
</g>
<!-- Node34&#45;&gt;Node3 -->
<g id="edge49_Node000034_Node000003" class="edge">
<title>Node34&#45;&gt;Node3</title>
<g id="a_edge49_Node000034_Node000003"><a xlink:title=" ">
<path fill="none" stroke="#63b8ff" d="M249.44,-109.75C254.89,-102.34 262.86,-91.5 269.56,-82.41"/>
<polygon fill="#63b8ff" stroke="#63b8ff" points="272.57,-84.22 275.68,-74.09 266.93,-80.07 272.57,-84.22"/>
</a>
</g>
</g>
<!-- Node34&#45;&gt;Node4 -->
<g id="edge51_Node000034_Node000004" class="edge">
<title>Node34&#45;&gt;Node4</title>
<g id="a_edge51_Node000034_Node000004"><a xlink:title=" ">
<path fill="none" stroke="#63b8ff" d="M264.01,-109.9C295.62,-97.11 357.41,-72.69 411,-55 453.78,-40.88 504,-27.13 535.9,-18.74"/>
<polygon fill="#63b8ff" stroke="#63b8ff" points="537.19,-22.02 545.98,-16.11 535.42,-15.25 537.19,-22.02"/>
</a>
</g>
</g>
<!-- Node34&#45;&gt;Node5 -->
<g id="edge50_Node000034_Node000005" class="edge">
<title>Node34&#45;&gt;Node5</title>
<g id="a_edge50_Node000034_Node000005"><a xlink:title=" ">
<path fill="none" stroke="#63b8ff" d="M241.15,-109.94C238.85,-97.42 236.01,-73.57 243,-55 247.18,-43.89 255.52,-33.75 263.43,-25.96"/>
<polygon fill="#63b8ff" stroke="#63b8ff" points="266.01,-28.35 271.01,-19.01 261.28,-23.19 266.01,-28.35"/>
</a>
</g>
</g>
<!-- Node34&#45;&gt;Node31 -->
<g id="edge52_Node000034_Node000031" class="edge">
<title>Node34&#45;&gt;Node31</title>
<g id="a_edge52_Node000034_Node000031"><a xlink:title=" ">
<path fill="none" stroke="#63b8ff" d="M299.85,-110.51C379.35,-99.33 521.25,-79.38 586.05,-70.27"/>
<polygon fill="#63b8ff" stroke="#63b8ff" points="586.71,-73.71 596.13,-68.86 585.74,-66.78 586.71,-73.71"/>
</a>
</g>
</g>
<!-- Node35&#45;&gt;Node4 -->
<g id="edge54_Node000035_Node000004" class="edge">
<title>Node35&#45;&gt;Node4</title>
<g id="a_edge54_Node000035_Node000004"><a xlink:title=" ">
<path fill="none" stroke="#63b8ff" d="M690.82,-109.71C684.16,-96.45 670.03,-71.18 652,-55 636.7,-41.27 616.4,-30.37 599.6,-22.79"/>
<polygon fill="#63b8ff" stroke="#63b8ff" points="600.73,-19.47 590.17,-18.72 597.96,-25.89 600.73,-19.47"/>
</a>
</g>
</g>
<!-- Node35&#45;&gt;Node31 -->
<g id="edge55_Node000035_Node000031" class="edge">
<title>Node35&#45;&gt;Node31</title>
<g id="a_edge55_Node000035_Node000031"><a xlink:title=" ">
<path fill="none" stroke="#63b8ff" d="M682.95,-109.98C671.54,-101.92 654.17,-89.65 640.57,-80.03"/>
<polygon fill="#63b8ff" stroke="#63b8ff" points="642.46,-77.08 632.27,-74.17 638.42,-82.8 642.46,-77.08"/>
</a>
</g>
</g>
<!-- Node36&#45;&gt;Node4 -->
<g id="edge60_Node000036_Node000004" class="edge">
<title>Node36&#45;&gt;Node4</title>
<g id="a_edge60_Node000036_Node000004"><a xlink:title=" ">
<path fill="none" stroke="#63b8ff" d="M937.19,-109.83C933.77,-95.77 924.93,-68.26 906,-55 857.14,-20.77 675.65,-12.85 600.7,-11.04"/>
<polygon fill="#63b8ff" stroke="#63b8ff" points="600.52,-7.53 590.44,-10.81 600.36,-14.53 600.52,-7.53"/>
</a>
</g>
</g>
<!-- Node36&#45;&gt;Node27 -->
<g id="edge59_Node000036_Node000027" class="edge">
<title>Node36&#45;&gt;Node27</title>
<g id="a_edge59_Node000036_Node000027"><a xlink:title=" ">
<path fill="none" stroke="#63b8ff" d="M967.76,-109.98C998.39,-100.92 1046.99,-86.53 1080.58,-76.58"/>
<polygon fill="#63b8ff" stroke="#63b8ff" points="1081.89,-79.84 1090.49,-73.65 1079.91,-73.13 1081.89,-79.84"/>
</a>
</g>
</g>
<!-- Node36&#45;&gt;Node31 -->
<g id="edge61_Node000036_Node000031" class="edge">
<title>Node36&#45;&gt;Node31</title>
<g id="a_edge61_Node000036_Node000031"><a xlink:title=" ">
<path fill="none" stroke="#63b8ff" d="M887.75,-109.98C822.06,-99.07 710,-80.45 653.98,-71.15"/>
<polygon fill="#63b8ff" stroke="#63b8ff" points="654.31,-67.65 643.87,-69.47 653.16,-74.56 654.31,-67.65"/>
</a>
</g>
</g>
<!-- Node36&#45;&gt;Node37 -->
<g id="edge57_Node000036_Node000037" class="edge">
<title>Node36&#45;&gt;Node37</title>
<g id="a_edge57_Node000036_Node000037"><a xlink:title=" ">
<path fill="none" stroke="#63b8ff" d="M952.5,-109.98C965.4,-101.84 985.1,-89.41 1000.4,-79.76"/>
<polygon fill="#63b8ff" stroke="#63b8ff" points="1002.67,-82.47 1009.26,-74.17 998.93,-76.55 1002.67,-82.47"/>
</a>
</g>
</g>
<!-- Node36&#45;&gt;Node38 -->
<g id="edge58_Node000036_Node000038" class="edge">
<title>Node36&#45;&gt;Node38</title>
<g id="a_edge58_Node000036_Node000038"><a xlink:title=" ">
<path fill="none" stroke="#63b8ff" d="M927.43,-109.98C916.58,-102 900.12,-89.88 887.12,-80.31"/>
<polygon fill="#63b8ff" stroke="#63b8ff" points="888.91,-77.28 878.78,-74.17 884.76,-82.92 888.91,-77.28"/>
</a>
</g>
</g>
<!-- Node39&#45;&gt;Node9 -->
<g id="edge71_Node000039_Node000009" class="edge">
<title>Node39&#45;&gt;Node9</title>
<g id="a_edge71_Node000039_Node000009"><a xlink:title=" ">
<path fill="none" stroke="#63b8ff" d="M1452.06,-174.09C1510.91,-173.59 1624.73,-167.18 1712,-129 1737.3,-117.93 1761.27,-96.57 1776.03,-81.69"/>
<polygon fill="#63b8ff" stroke="#63b8ff" points="1778.83,-83.84 1783.24,-74.2 1773.78,-78.99 1778.83,-83.84"/>
</a>
</g>
</g>
<!-- Node40 -->
<g id="Node000040" class="node">
<title>Node40</title>
<g id="a_Node000040"><a xlink:title=" ">
<polygon fill="#e0e0e0" stroke="#999999" points="1567.5,-129 1416.5,-129 1416.5,-110 1567.5,-110 1567.5,-129"/>
<text text-anchor="middle" x="1492" y="-117" font-family="Helvetica,sans-Serif" font-size="10.00">stk_util/diag/PrintTimer.hpp</text>
</a>
</g>
</g>
<!-- Node39&#45;&gt;Node40 -->
<g id="edge69_Node000039_Node000040" class="edge">
<title>Node39&#45;&gt;Node40</title>
<g id="a_edge69_Node000039_Node000040"><a xlink:title=" ">
<path fill="none" stroke="#63b8ff" d="M1425.69,-164.98C1437.83,-156.84 1456.36,-144.41 1470.75,-134.76"/>
<polygon fill="#63b8ff" stroke="#63b8ff" points="1472.72,-137.65 1479.08,-129.17 1468.82,-131.84 1472.72,-137.65"/>
</a>
</g>
</g>
<!-- Node41 -->
<g id="Node000041" class="node">
<title>Node41</title>
<g id="a_Node000041"><a xlink:title=" ">
<polygon fill="#e0e0e0" stroke="#999999" points="1398,-129 1270,-129 1270,-110 1398,-110 1398,-129"/>
<text text-anchor="middle" x="1334" y="-117" font-family="Helvetica,sans-Serif" font-size="10.00">stk_util/diag/Timer.hpp</text>
</a>
</g>
</g>
<!-- Node39&#45;&gt;Node41 -->
<g id="edge70_Node000039_Node000041" class="edge">
<title>Node39&#45;&gt;Node41</title>
<g id="a_edge70_Node000039_Node000041"><a xlink:title=" ">
<path fill="none" stroke="#63b8ff" d="M1400.31,-164.98C1388.17,-156.84 1369.64,-144.41 1355.25,-134.76"/>
<polygon fill="#63b8ff" stroke="#63b8ff" points="1357.18,-131.84 1346.92,-129.17 1353.28,-137.65 1357.18,-131.84"/>
</a>
</g>
</g>
</g>
</svg>

<g id="navigator" transform="translate(0 0)" fill="#404254">
  <rect fill="#f2f5e9" fill-opacity="0.5" stroke="#606060" stroke-width=".5" x="0" y="0" width="60" height="60"/>
  <use id="zoomplus" xlink:href="#zoomPlus" x="17" y="9" onmousedown="handleZoom(evt,'in')"/>
  <use id="zoomminus" xlink:href="#zoomMin" x="42" y="9" onmousedown="handleZoom(evt,'out')"/>
  <use id="reset" xlink:href="#resetDef" x="30" y="36" onmousedown="handleReset()"/>
   <use id="arrowup" xlink:href="#arrowUp" x="0" y="0" onmousedown="handlePan(0,-1)"/>
  <use id="arrowright" xlink:href="#arrowRight" x="0" y="0" onmousedown="handlePan(1,0)"/>
  <use id="arrowdown" xlink:href="#arrowDown" x="0" y="0" onmousedown="handlePan(0,1)"/>
  <use id="arrowleft" xlink:href="#arrowLeft" x="0" y="0" onmousedown="handlePan(-1,0)"/>
</g>
<svg viewBox="0 0 15 15" width="100%" height="30px" preserveAspectRatio="xMaxYMin meet">
 <g id="arrow_out" transform="scale(0.3 0.3)">
  <a xlink:href="_linear_solvers_8_c__incl_org.svg" target="_base">
   <rect id="button" ry="5" rx="5" y="6" x="6" height="38" width="38"
        fill="#f2f5e9" fill-opacity="0.5" stroke="#606060" stroke-width="1.0"/>
   <path id="arrow"
     d="M 11.500037,31.436501 C 11.940474,20.09759 22.043105,11.32322 32.158766,21.979434 L 37.068811,17.246167 C 37.068811,17.246167 37.088388,32 37.088388,32 L 22.160133,31.978069 C 22.160133,31.978069 26.997745,27.140456 26.997745,27.140456 C 18.528582,18.264221 13.291696,25.230495 11.500037,31.436501 z"
     style="fill:#404040;"/>
  </a>
 </g>
</svg>

<style type='text/css'>
<![CDATA[
[data-mouse-over-selected='false'] { opacity: 0.7; }
[data-mouse-over-selected='true']  { opacity: 1.0; }
]]>
</style>
<script type="application/ecmascript"><![CDATA[
document.addEventListener('DOMContentLoaded', (event) => {
  highlightEdges();
  highlightAdjacentNodes();
});
]]></script>
</svg>
