<?xml version="1.0" encoding="UTF-8" standalone="no"?>
<!DOCTYPE svg PUBLIC "-//W3C//DTD SVG 1.1//EN"
 "http://www.w3.org/Graphics/SVG/1.1/DTD/svg11.dtd">
<!-- Generated by graphviz version 2.43.0 (0)
 -->
<!-- Title: LinearDiffusionMetric.h Pages: 1 -->
<svg width="387pt" height="84pt"
 viewBox="0.00 0.00 386.50 84.00" xmlns="http://www.w3.org/2000/svg" xmlns:xlink="http://www.w3.org/1999/xlink">
<g id="graph0" class="graph" transform="scale(1 1) rotate(0) translate(4 80)">
<title>LinearDiffusionMetric.h</title>
<polygon fill="white" stroke="transparent" points="-4,4 -4,-80 382.5,-80 382.5,4 -4,4"/>
<!-- Node1 -->
<g id="node1" class="node">
<title>Node1</title>
<g id="a_node1"><a xlink:title=" ">
<polygon fill="#bfbfbf" stroke="black" points="129,-56.5 129,-75.5 259,-75.5 259,-56.5 129,-56.5"/>
<text text-anchor="middle" x="194" y="-63.5" font-family="Helvetica,sans-Serif" font-size="10.00">LinearDiffusionMetric.h</text>
</a>
</g>
</g>
<!-- Node2 -->
<g id="node2" class="node">
<title>Node2</title>
<g id="a_node2"><a xlink:href="_conduction_fields_8_c.html" target="_top" xlink:title=" ">
<polygon fill="white" stroke="black" points="0,-0.5 0,-19.5 110,-19.5 110,-0.5 0,-0.5"/>
<text text-anchor="middle" x="55" y="-7.5" font-family="Helvetica,sans-Serif" font-size="10.00">ConductionFields.C</text>
</a>
</g>
</g>
<!-- Node1&#45;&gt;Node2 -->
<g id="edge1" class="edge">
<title>Node1&#45;&gt;Node2</title>
<path fill="none" stroke="midnightblue" d="M162.52,-52.77C136.41,-42.63 99.96,-28.47 76.92,-19.52"/>
<polygon fill="midnightblue" stroke="midnightblue" points="161.39,-56.08 171.98,-56.44 163.92,-49.56 161.39,-56.08"/>
</g>
<!-- Node3 -->
<g id="node3" class="node">
<title>Node3</title>
<g id="a_node3"><a xlink:href="_linear_diffusion_metric_8_c.html" target="_top" xlink:title=" ">
<polygon fill="white" stroke="black" points="128.5,-0.5 128.5,-19.5 259.5,-19.5 259.5,-0.5 128.5,-0.5"/>
<text text-anchor="middle" x="194" y="-7.5" font-family="Helvetica,sans-Serif" font-size="10.00">LinearDiffusionMetric.C</text>
</a>
</g>
</g>
<!-- Node1&#45;&gt;Node3 -->
<g id="edge2" class="edge">
<title>Node1&#45;&gt;Node3</title>
<path fill="none" stroke="midnightblue" d="M194,-45.8C194,-36.91 194,-26.78 194,-19.75"/>
<polygon fill="midnightblue" stroke="midnightblue" points="190.5,-46.08 194,-56.08 197.5,-46.08 190.5,-46.08"/>
</g>
<!-- Node4 -->
<g id="node4" class="node">
<title>Node4</title>
<g id="a_node4"><a xlink:href="_low_mach_fields_8_c.html" target="_top" xlink:title=" ">
<polygon fill="white" stroke="black" points="277.5,-0.5 277.5,-19.5 378.5,-19.5 378.5,-0.5 277.5,-0.5"/>
<text text-anchor="middle" x="328" y="-7.5" font-family="Helvetica,sans-Serif" font-size="10.00">LowMachFields.C</text>
</a>
</g>
</g>
<!-- Node1&#45;&gt;Node4 -->
<g id="edge3" class="edge">
<title>Node1&#45;&gt;Node4</title>
<path fill="none" stroke="midnightblue" d="M224.68,-52.64C249.82,-42.5 284.75,-28.43 306.87,-19.52"/>
<polygon fill="midnightblue" stroke="midnightblue" points="223.2,-49.46 215.23,-56.44 225.82,-55.95 223.2,-49.46"/>
</g>
</g>
</svg>
