<?xml version="1.0" encoding="UTF-8" standalone="no"?>
<!DOCTYPE svg PUBLIC "-//W3C//DTD SVG 1.1//EN"
 "http://www.w3.org/Graphics/SVG/1.1/DTD/svg11.dtd">
<!-- Generated by graphviz version 2.43.0 (0)
 -->
<!-- Title: LinearInterpolation.h Pages: 1 -->
<svg width="920pt" height="84pt"
 viewBox="0.00 0.00 920.00 84.00" xmlns="http://www.w3.org/2000/svg" xmlns:xlink="http://www.w3.org/1999/xlink">
<g id="graph0" class="graph" transform="scale(1 1) rotate(0) translate(4 80)">
<title>LinearInterpolation.h</title>
<polygon fill="white" stroke="transparent" points="-4,4 -4,-80 916,-80 916,4 -4,4"/>
<!-- Node1 -->
<g id="node1" class="node">
<title>Node1</title>
<g id="a_node1"><a xlink:title=" ">
<polygon fill="#bfbfbf" stroke="black" points="420.5,-56.5 420.5,-75.5 538.5,-75.5 538.5,-56.5 420.5,-56.5"/>
<text text-anchor="middle" x="479.5" y="-63.5" font-family="Helvetica,sans-Serif" font-size="10.00">LinearInterpolation.h</text>
</a>
</g>
</g>
<!-- Node2 -->
<g id="node2" class="node">
<title>Node2</title>
<g id="a_node2"><a xlink:href="_actuator_functors_simple_8_c.html" target="_top" xlink:title=" ">
<polygon fill="white" stroke="black" points="0,-0.5 0,-19.5 143,-19.5 143,-0.5 0,-0.5"/>
<text text-anchor="middle" x="71.5" y="-7.5" font-family="Helvetica,sans-Serif" font-size="10.00">ActuatorFunctorsSimple.C</text>
</a>
</g>
</g>
<!-- Node1&#45;&gt;Node2 -->
<g id="edge1" class="edge">
<title>Node1&#45;&gt;Node2</title>
<path fill="none" stroke="midnightblue" d="M410.12,-55.82C333.36,-45.66 210.67,-29.42 135.95,-19.53"/>
<polygon fill="midnightblue" stroke="midnightblue" points="409.8,-59.31 420.17,-57.15 410.72,-52.37 409.8,-59.31"/>
</g>
<!-- Node3 -->
<g id="node3" class="node">
<title>Node3</title>
<g id="a_node3"><a xlink:href="_a_b_l_wall_fluxes_alg_8_c.html" target="_top" xlink:title=" ">
<polygon fill="white" stroke="black" points="161,-0.5 161,-19.5 274,-19.5 274,-0.5 161,-0.5"/>
<text text-anchor="middle" x="217.5" y="-7.5" font-family="Helvetica,sans-Serif" font-size="10.00">ABLWallFluxesAlg.C</text>
</a>
</g>
</g>
<!-- Node1&#45;&gt;Node3 -->
<g id="edge2" class="edge">
<title>Node1&#45;&gt;Node3</title>
<path fill="none" stroke="midnightblue" d="M428.12,-54.41C378.6,-44.2 304.64,-28.96 258.82,-19.52"/>
<polygon fill="midnightblue" stroke="midnightblue" points="427.48,-57.85 437.99,-56.44 428.9,-51 427.48,-57.85"/>
</g>
<!-- Node4 -->
<g id="node4" class="node">
<title>Node4</title>
<g id="a_node4"><a xlink:href="_tabulated_temperature_aux_function_8_c.html" target="_top" xlink:title=" ">
<polygon fill="white" stroke="black" points="292,-0.5 292,-19.5 487,-19.5 487,-0.5 292,-0.5"/>
<text text-anchor="middle" x="389.5" y="-7.5" font-family="Helvetica,sans-Serif" font-size="10.00">TabulatedTemperatureAuxFunction.C</text>
</a>
</g>
</g>
<!-- Node1&#45;&gt;Node4 -->
<g id="edge3" class="edge">
<title>Node1&#45;&gt;Node4</title>
<path fill="none" stroke="midnightblue" d="M456.46,-51.18C439.9,-41.24 418.08,-28.15 403.92,-19.65"/>
<polygon fill="midnightblue" stroke="midnightblue" points="454.66,-54.18 465.04,-56.32 458.27,-48.18 454.66,-54.18"/>
</g>
<!-- Node5 -->
<g id="node5" class="node">
<title>Node5</title>
<g id="a_node5"><a xlink:href="_a_b_l_forcing_algorithm_8_c.html" target="_top" xlink:title=" ">
<polygon fill="white" stroke="black" points="505.5,-0.5 505.5,-19.5 633.5,-19.5 633.5,-0.5 505.5,-0.5"/>
<text text-anchor="middle" x="569.5" y="-7.5" font-family="Helvetica,sans-Serif" font-size="10.00">ABLForcingAlgorithm.C</text>
</a>
</g>
</g>
<!-- Node1&#45;&gt;Node5 -->
<g id="edge4" class="edge">
<title>Node1&#45;&gt;Node5</title>
<path fill="none" stroke="midnightblue" d="M502.54,-51.18C519.1,-41.24 540.92,-28.15 555.08,-19.65"/>
<polygon fill="midnightblue" stroke="midnightblue" points="500.73,-48.18 493.96,-56.32 504.34,-54.18 500.73,-48.18"/>
</g>
<!-- Node6 -->
<g id="node6" class="node">
<title>Node6</title>
<g id="a_node6"><a xlink:href="_bdy_height_algorithm_8_c.html" target="_top" xlink:title=" ">
<polygon fill="white" stroke="black" points="652,-0.5 652,-19.5 777,-19.5 777,-0.5 652,-0.5"/>
<text text-anchor="middle" x="714.5" y="-7.5" font-family="Helvetica,sans-Serif" font-size="10.00">BdyHeightAlgorithm.C</text>
</a>
</g>
</g>
<!-- Node1&#45;&gt;Node6 -->
<g id="edge5" class="edge">
<title>Node1&#45;&gt;Node6</title>
<path fill="none" stroke="midnightblue" d="M526.71,-54.15C571.11,-43.95 636.69,-28.88 677.44,-19.52"/>
<polygon fill="midnightblue" stroke="midnightblue" points="525.7,-50.79 516.74,-56.44 527.27,-57.62 525.7,-50.79"/>
</g>
<!-- Node7 -->
<g id="node7" class="node">
<title>Node7</title>
<g id="a_node7"><a xlink:href="_bdy_layer_statistics_8_c.html" target="_top" xlink:title=" ">
<polygon fill="white" stroke="black" points="795,-0.5 795,-19.5 912,-19.5 912,-0.5 795,-0.5"/>
<text text-anchor="middle" x="853.5" y="-7.5" font-family="Helvetica,sans-Serif" font-size="10.00">BdyLayerStatistics.C</text>
</a>
</g>
</g>
<!-- Node1&#45;&gt;Node7 -->
<g id="edge6" class="edge">
<title>Node1&#45;&gt;Node7</title>
<path fill="none" stroke="midnightblue" d="M548.92,-54.98C619.67,-44.76 728.22,-29.09 794.82,-19.47"/>
<polygon fill="midnightblue" stroke="midnightblue" points="548.16,-51.55 538.76,-56.44 549.16,-58.48 548.16,-51.55"/>
</g>
</g>
</svg>
