<?xml version="1.0" encoding="UTF-8" standalone="no"?>
<!DOCTYPE svg PUBLIC "-//W3C//DTD SVG 1.1//EN"
 "http://www.w3.org/Graphics/SVG/1.1/DTD/svg11.dtd">
<!-- Generated by graphviz version 2.43.0 (0)
 -->
<!-- Title: LowMachInfo.h Pages: 1 -->
<svg width="1156pt" height="274pt"
 viewBox="0.00 0.00 1155.50 274.00" xmlns="http://www.w3.org/2000/svg" xmlns:xlink="http://www.w3.org/1999/xlink">
<g id="graph0" class="graph" transform="scale(1 1) rotate(0) translate(4 270)">
<title>LowMachInfo.h</title>
<polygon fill="white" stroke="transparent" points="-4,4 -4,-270 1151.5,-270 1151.5,4 -4,4"/>
<!-- Node1 -->
<g id="node1" class="node">
<title>Node1</title>
<g id="a_node1"><a xlink:title=" ">
<polygon fill="#bfbfbf" stroke="black" points="793,-246.5 793,-265.5 883,-265.5 883,-246.5 793,-246.5"/>
<text text-anchor="middle" x="838" y="-253.5" font-family="Helvetica,sans-Serif" font-size="10.00">LowMachInfo.h</text>
</a>
</g>
</g>
<!-- Node2 -->
<g id="node2" class="node">
<title>Node2</title>
<g id="a_node2"><a xlink:href="_equation_update_8h.html" target="_top" xlink:title=" ">
<polygon fill="white" stroke="black" points="370,-134.5 370,-153.5 474,-153.5 474,-134.5 370,-134.5"/>
<text text-anchor="middle" x="422" y="-141.5" font-family="Helvetica,sans-Serif" font-size="10.00">EquationUpdate.h</text>
</a>
</g>
</g>
<!-- Node1&#45;&gt;Node2 -->
<g id="edge1" class="edge">
<title>Node1&#45;&gt;Node2</title>
<path fill="none" stroke="midnightblue" d="M782.89,-245.6C738.14,-237.52 673.56,-224.84 618,-210 554.44,-193.02 481.3,-166.99 444.96,-153.6"/>
<polygon fill="midnightblue" stroke="midnightblue" points="782.51,-249.09 792.97,-247.4 783.75,-242.2 782.51,-249.09"/>
</g>
<!-- Node9 -->
<g id="node9" class="node">
<title>Node9</title>
<g id="a_node9"><a xlink:href="_low_mach_update_8_c.html" target="_top" xlink:title=" ">
<polygon fill="white" stroke="black" points="633.5,-6 633.5,-25 740.5,-25 740.5,-6 633.5,-6"/>
<text text-anchor="middle" x="687" y="-13" font-family="Helvetica,sans-Serif" font-size="10.00">LowMachUpdate.C</text>
</a>
</g>
</g>
<!-- Node1&#45;&gt;Node9 -->
<g id="edge22" class="edge">
<title>Node1&#45;&gt;Node9</title>
<path fill="none" stroke="midnightblue" d="M788.62,-243.68C743.79,-230.48 680.33,-203.81 651,-154 625.2,-110.2 664.23,-47.86 680.46,-25.17"/>
<polygon fill="midnightblue" stroke="midnightblue" points="787.88,-247.1 798.45,-246.44 789.78,-240.36 787.88,-247.1"/>
</g>
<!-- Node12 -->
<g id="node12" class="node">
<title>Node12</title>
<g id="a_node12"><a xlink:href="_low_mach_gathered_field_manager_8h.html" target="_top" xlink:title=" ">
<polygon fill="white" stroke="black" points="660,-134.5 660,-153.5 842,-153.5 842,-134.5 660,-134.5"/>
<text text-anchor="middle" x="751" y="-141.5" font-family="Helvetica,sans-Serif" font-size="10.00">LowMachGatheredFieldManager.h</text>
</a>
</g>
</g>
<!-- Node1&#45;&gt;Node12 -->
<g id="edge14" class="edge">
<title>Node1&#45;&gt;Node12</title>
<path fill="none" stroke="midnightblue" d="M805.51,-242.09C791.02,-234.75 775.01,-224.16 765,-210 752.87,-192.84 750.91,-167.23 750.79,-153.85"/>
<polygon fill="midnightblue" stroke="midnightblue" points="804.19,-245.34 814.72,-246.45 807.18,-239.01 804.19,-245.34"/>
</g>
<!-- Node13 -->
<g id="node13" class="node">
<title>Node13</title>
<g id="a_node13"><a xlink:href="_low_mach_gathered_field_manager_8_c.html" target="_top" xlink:title=" ">
<polygon fill="white" stroke="black" points="794,-73 794,-92 976,-92 976,-73 794,-73"/>
<text text-anchor="middle" x="885" y="-80" font-family="Helvetica,sans-Serif" font-size="10.00">LowMachGatheredFieldManager.C</text>
</a>
</g>
</g>
<!-- Node1&#45;&gt;Node13 -->
<g id="edge21" class="edge">
<title>Node1&#45;&gt;Node13</title>
<path fill="none" stroke="midnightblue" d="M878.99,-243.22C918.67,-229.28 976.07,-201.7 999,-154 1014.93,-120.86 967.77,-101.77 929.33,-92.02"/>
<polygon fill="midnightblue" stroke="midnightblue" points="877.68,-239.97 869.32,-246.48 879.91,-246.61 877.68,-239.97"/>
</g>
<!-- Node14 -->
<g id="node14" class="node">
<title>Node14</title>
<g id="a_node14"><a xlink:href="_transport_coefficients_8h.html" target="_top" xlink:title=" ">
<polygon fill="white" stroke="black" points="774,-190.5 774,-209.5 902,-209.5 902,-190.5 774,-190.5"/>
<text text-anchor="middle" x="838" y="-197.5" font-family="Helvetica,sans-Serif" font-size="10.00">TransportCoefficients.h</text>
</a>
</g>
</g>
<!-- Node1&#45;&gt;Node14 -->
<g id="edge17" class="edge">
<title>Node1&#45;&gt;Node14</title>
<path fill="none" stroke="midnightblue" d="M838,-235.8C838,-226.91 838,-216.78 838,-209.75"/>
<polygon fill="midnightblue" stroke="midnightblue" points="834.5,-236.08 838,-246.08 841.5,-236.08 834.5,-236.08"/>
</g>
<!-- Node15 -->
<g id="node15" class="node">
<title>Node15</title>
<g id="a_node15"><a xlink:href="_transport_coefficients_8_c.html" target="_top" xlink:title=" ">
<polygon fill="white" stroke="black" points="860.5,-134.5 860.5,-153.5 989.5,-153.5 989.5,-134.5 860.5,-134.5"/>
<text text-anchor="middle" x="925" y="-141.5" font-family="Helvetica,sans-Serif" font-size="10.00">TransportCoefficients.C</text>
</a>
</g>
</g>
<!-- Node1&#45;&gt;Node15 -->
<g id="edge23" class="edge">
<title>Node1&#45;&gt;Node15</title>
<path fill="none" stroke="midnightblue" d="M870.49,-242.09C884.98,-234.75 900.99,-224.16 911,-210 923.13,-192.84 925.09,-167.23 925.21,-153.85"/>
<polygon fill="midnightblue" stroke="midnightblue" points="868.82,-239.01 861.28,-246.45 871.81,-245.34 868.82,-239.01"/>
</g>
<!-- Node16 -->
<g id="node16" class="node">
<title>Node16</title>
<g id="a_node16"><a xlink:href="_low_mach_fields_8_c.html" target="_top" xlink:title=" ">
<polygon fill="white" stroke="black" points="1046.5,-190.5 1046.5,-209.5 1147.5,-209.5 1147.5,-190.5 1046.5,-190.5"/>
<text text-anchor="middle" x="1097" y="-197.5" font-family="Helvetica,sans-Serif" font-size="10.00">LowMachFields.C</text>
</a>
</g>
</g>
<!-- Node1&#45;&gt;Node16 -->
<g id="edge20" class="edge">
<title>Node1&#45;&gt;Node16</title>
<path fill="none" stroke="midnightblue" d="M889.1,-244.35C938.05,-234.14 1010.95,-218.94 1056.15,-209.52"/>
<polygon fill="midnightblue" stroke="midnightblue" points="888.11,-240.98 879.04,-246.44 889.54,-247.83 888.11,-240.98"/>
</g>
<!-- Node3 -->
<g id="node3" class="node">
<title>Node3</title>
<g id="a_node3"><a xlink:href="_conduction_update_8h.html" target="_top" xlink:title=" ">
<polygon fill="white" stroke="black" points="0,-73 0,-92 116,-92 116,-73 0,-73"/>
<text text-anchor="middle" x="58" y="-80" font-family="Helvetica,sans-Serif" font-size="10.00">ConductionUpdate.h</text>
</a>
</g>
</g>
<!-- Node2&#45;&gt;Node3 -->
<g id="edge2" class="edge">
<title>Node2&#45;&gt;Node3</title>
<path fill="none" stroke="midnightblue" d="M359.69,-134.72C299.46,-126.44 205.73,-112.84 125,-98 115.4,-96.24 105.08,-94.11 95.48,-92.05"/>
<polygon fill="midnightblue" stroke="midnightblue" points="359.41,-138.21 369.79,-136.1 360.36,-131.28 359.41,-138.21"/>
</g>
<!-- Node6 -->
<g id="node6" class="node">
<title>Node6</title>
<g id="a_node6"><a xlink:href="_green_gauss_gradient_8h.html" target="_top" xlink:title=" ">
<polygon fill="white" stroke="black" points="312.5,-73 312.5,-92 439.5,-92 439.5,-73 312.5,-73"/>
<text text-anchor="middle" x="376" y="-80" font-family="Helvetica,sans-Serif" font-size="10.00">GreenGaussGradient.h</text>
</a>
</g>
</g>
<!-- Node2&#45;&gt;Node6 -->
<g id="edge5" class="edge">
<title>Node2&#45;&gt;Node6</title>
<path fill="none" stroke="midnightblue" d="M409.12,-126.34C400.48,-115.17 389.47,-100.93 382.58,-92.01"/>
<polygon fill="midnightblue" stroke="midnightblue" points="406.52,-128.7 415.41,-134.48 412.06,-124.42 406.52,-128.7"/>
</g>
<!-- Node8 -->
<g id="node8" class="node">
<title>Node8</title>
<g id="a_node8"><a xlink:href="_low_mach_update_8h.html" target="_top" xlink:title=" ">
<polygon fill="white" stroke="black" points="496.5,-73 496.5,-92 603.5,-92 603.5,-73 496.5,-73"/>
<text text-anchor="middle" x="550" y="-80" font-family="Helvetica,sans-Serif" font-size="10.00">LowMachUpdate.h</text>
</a>
</g>
</g>
<!-- Node2&#45;&gt;Node8 -->
<g id="edge8" class="edge">
<title>Node2&#45;&gt;Node8</title>
<path fill="none" stroke="midnightblue" d="M449.59,-130.17C474.43,-118.63 510.23,-101.99 531.69,-92.01"/>
<polygon fill="midnightblue" stroke="midnightblue" points="447.93,-127.09 440.34,-134.48 450.88,-133.43 447.93,-127.09"/>
</g>
<!-- Node10 -->
<g id="node10" class="node">
<title>Node10</title>
<g id="a_node10"><a xlink:href="_matrix_free_low_mach_equation_system_8_c.html" target="_top" xlink:title=" ">
<polygon fill="white" stroke="black" points="458,-0.5 458,-30.5 616,-30.5 616,-0.5 458,-0.5"/>
<text text-anchor="start" x="466" y="-18.5" font-family="Helvetica,sans-Serif" font-size="10.00">MatrixFreeLowMachEquation</text>
<text text-anchor="middle" x="537" y="-7.5" font-family="Helvetica,sans-Serif" font-size="10.00">System.C</text>
</a>
</g>
</g>
<!-- Node2&#45;&gt;Node10 -->
<g id="edge13" class="edge">
<title>Node2&#45;&gt;Node10</title>
<path fill="none" stroke="midnightblue" d="M435.38,-126.67C448.29,-111.08 468.55,-87.05 487,-67 498.53,-54.47 512.16,-40.78 522.27,-30.81"/>
<polygon fill="midnightblue" stroke="midnightblue" points="432.68,-124.45 429.02,-134.39 438.08,-128.9 432.68,-124.45"/>
</g>
<!-- Node11 -->
<g id="node11" class="node">
<title>Node11</title>
<g id="a_node11"><a xlink:href="_matrix_free_heat_cond_equation_system_8h.html" target="_top" xlink:title=" ">
<polygon fill="white" stroke="black" points="134,-67.5 134,-97.5 294,-97.5 294,-67.5 134,-67.5"/>
<text text-anchor="start" x="142" y="-85.5" font-family="Helvetica,sans-Serif" font-size="10.00">MatrixFreeHeatCondEquation</text>
<text text-anchor="middle" x="214" y="-74.5" font-family="Helvetica,sans-Serif" font-size="10.00">System.h</text>
</a>
</g>
</g>
<!-- Node2&#45;&gt;Node11 -->
<g id="edge11" class="edge">
<title>Node2&#45;&gt;Node11</title>
<path fill="none" stroke="midnightblue" d="M382.18,-131.61C348.25,-121.9 299.35,-107.92 263.02,-97.52"/>
<polygon fill="midnightblue" stroke="midnightblue" points="381.62,-135.09 392.2,-134.48 383.55,-128.36 381.62,-135.09"/>
</g>
<!-- Node4 -->
<g id="node4" class="node">
<title>Node4</title>
<g id="a_node4"><a xlink:href="_conduction_update_8_c.html" target="_top" xlink:title=" ">
<polygon fill="white" stroke="black" points="0,-6 0,-25 116,-25 116,-6 0,-6"/>
<text text-anchor="middle" x="58" y="-13" font-family="Helvetica,sans-Serif" font-size="10.00">ConductionUpdate.C</text>
</a>
</g>
</g>
<!-- Node3&#45;&gt;Node4 -->
<g id="edge3" class="edge">
<title>Node3&#45;&gt;Node4</title>
<path fill="none" stroke="midnightblue" d="M58,-62.54C58,-50.17 58,-34.62 58,-25.13"/>
<polygon fill="midnightblue" stroke="midnightblue" points="54.5,-62.73 58,-72.73 61.5,-62.73 54.5,-62.73"/>
</g>
<!-- Node5 -->
<g id="node5" class="node">
<title>Node5</title>
<g id="a_node5"><a xlink:href="_matrix_free_heat_cond_equation_system_8_c.html" target="_top" xlink:title=" ">
<polygon fill="white" stroke="black" points="134,-0.5 134,-30.5 294,-30.5 294,-0.5 134,-0.5"/>
<text text-anchor="start" x="142" y="-18.5" font-family="Helvetica,sans-Serif" font-size="10.00">MatrixFreeHeatCondEquation</text>
<text text-anchor="middle" x="214" y="-7.5" font-family="Helvetica,sans-Serif" font-size="10.00">System.C</text>
</a>
</g>
</g>
<!-- Node3&#45;&gt;Node5 -->
<g id="edge4" class="edge">
<title>Node3&#45;&gt;Node5</title>
<path fill="none" stroke="midnightblue" d="M88.21,-68.91C114.63,-57.91 152.94,-41.94 180.33,-30.53"/>
<polygon fill="midnightblue" stroke="midnightblue" points="86.6,-65.79 78.72,-72.87 89.29,-72.25 86.6,-65.79"/>
</g>
<!-- Node6&#45;&gt;Node5 -->
<g id="edge7" class="edge">
<title>Node6&#45;&gt;Node5</title>
<path fill="none" stroke="midnightblue" d="M344.99,-69.06C317.55,-58.05 277.53,-41.99 248.96,-30.53"/>
<polygon fill="midnightblue" stroke="midnightblue" points="343.9,-72.39 354.49,-72.87 346.51,-65.9 343.9,-72.39"/>
</g>
<!-- Node7 -->
<g id="node7" class="node">
<title>Node7</title>
<g id="a_node7"><a xlink:href="_green_gauss_gradient_8_c.html" target="_top" xlink:title=" ">
<polygon fill="white" stroke="black" points="312,-6 312,-25 440,-25 440,-6 312,-6"/>
<text text-anchor="middle" x="376" y="-13" font-family="Helvetica,sans-Serif" font-size="10.00">GreenGaussGradient.C</text>
</a>
</g>
</g>
<!-- Node6&#45;&gt;Node7 -->
<g id="edge6" class="edge">
<title>Node6&#45;&gt;Node7</title>
<path fill="none" stroke="midnightblue" d="M376,-62.54C376,-50.17 376,-34.62 376,-25.13"/>
<polygon fill="midnightblue" stroke="midnightblue" points="372.5,-62.73 376,-72.73 379.5,-62.73 372.5,-62.73"/>
</g>
<!-- Node8&#45;&gt;Node9 -->
<g id="edge9" class="edge">
<title>Node8&#45;&gt;Node9</title>
<path fill="none" stroke="midnightblue" d="M577.52,-68.44C604.65,-55.57 645.36,-36.26 668.73,-25.17"/>
<polygon fill="midnightblue" stroke="midnightblue" points="575.73,-65.42 568.19,-72.87 578.73,-71.74 575.73,-65.42"/>
</g>
<!-- Node8&#45;&gt;Node10 -->
<g id="edge10" class="edge">
<title>Node8&#45;&gt;Node10</title>
<path fill="none" stroke="midnightblue" d="M546.25,-62.74C544.2,-52.49 541.7,-40 539.82,-30.59"/>
<polygon fill="midnightblue" stroke="midnightblue" points="542.85,-63.61 548.25,-72.73 549.72,-62.24 542.85,-63.61"/>
</g>
<!-- Node11&#45;&gt;Node5 -->
<g id="edge12" class="edge">
<title>Node11&#45;&gt;Node5</title>
<path fill="none" stroke="midnightblue" d="M214,-57.11C214,-48.15 214,-38.32 214,-30.58"/>
<polygon fill="midnightblue" stroke="midnightblue" points="210.5,-57.4 214,-67.4 217.5,-57.4 210.5,-57.4"/>
</g>
<!-- Node12&#45;&gt;Node8 -->
<g id="edge15" class="edge">
<title>Node12&#45;&gt;Node8</title>
<path fill="none" stroke="midnightblue" d="M712.25,-131.53C673.18,-119.96 613.8,-102.38 578.74,-92.01"/>
<polygon fill="midnightblue" stroke="midnightblue" points="711.62,-134.99 722.2,-134.48 713.61,-128.28 711.62,-134.99"/>
</g>
<!-- Node12&#45;&gt;Node13 -->
<g id="edge16" class="edge">
<title>Node12&#45;&gt;Node13</title>
<path fill="none" stroke="midnightblue" d="M779.54,-130.33C805.55,-118.78 843.26,-102.03 865.84,-92.01"/>
<polygon fill="midnightblue" stroke="midnightblue" points="777.92,-127.22 770.2,-134.48 780.76,-133.62 777.92,-127.22"/>
</g>
<!-- Node14&#45;&gt;Node12 -->
<g id="edge18" class="edge">
<title>Node14&#45;&gt;Node12</title>
<path fill="none" stroke="midnightblue" d="M815.28,-184.9C799.33,-175 778.5,-162.07 764.94,-153.65"/>
<polygon fill="midnightblue" stroke="midnightblue" points="813.68,-188.02 824.02,-190.32 817.37,-182.08 813.68,-188.02"/>
</g>
<!-- Node14&#45;&gt;Node15 -->
<g id="edge19" class="edge">
<title>Node14&#45;&gt;Node15</title>
<path fill="none" stroke="midnightblue" d="M860.72,-184.9C876.67,-175 897.5,-162.07 911.06,-153.65"/>
<polygon fill="midnightblue" stroke="midnightblue" points="858.63,-182.08 851.98,-190.32 862.32,-188.02 858.63,-182.08"/>
</g>
</g>
</svg>
