<?xml version="1.0" encoding="UTF-8" standalone="no"?>
<!DOCTYPE svg PUBLIC "-//W3C//DTD SVG 1.1//EN"
 "http://www.w3.org/Graphics/SVG/1.1/DTD/svg11.dtd">
<!-- Generated by graphviz version 2.43.0 (0)
 -->
<!-- Title: LowMachEquationSystem.h Pages: 1 -->
<svg width="476pt" height="95pt"
 viewBox="0.00 0.00 475.50 95.00" xmlns="http://www.w3.org/2000/svg" xmlns:xlink="http://www.w3.org/1999/xlink">
<g id="graph0" class="graph" transform="scale(1 1) rotate(0) translate(4 91)">
<title>LowMachEquationSystem.h</title>
<polygon fill="white" stroke="transparent" points="-4,4 -4,-91 471.5,-91 471.5,4 -4,4"/>
<!-- Node1 -->
<g id="node1" class="node">
<title>Node1</title>
<g id="a_node1"><a xlink:title=" ">
<polygon fill="#bfbfbf" stroke="black" points="130,-67.5 130,-86.5 281,-86.5 281,-67.5 130,-67.5"/>
<text text-anchor="middle" x="205.5" y="-74.5" font-family="Helvetica,sans-Serif" font-size="10.00">LowMachEquationSystem.h</text>
</a>
</g>
</g>
<!-- Node2 -->
<g id="node2" class="node">
<title>Node2</title>
<g id="a_node2"><a xlink:href="_equation_systems_8_c.html" target="_top" xlink:title=" ">
<polygon fill="white" stroke="black" points="0,-6 0,-25 111,-25 111,-6 0,-6"/>
<text text-anchor="middle" x="55.5" y="-13" font-family="Helvetica,sans-Serif" font-size="10.00">EquationSystems.C</text>
</a>
</g>
</g>
<!-- Node1&#45;&gt;Node2 -->
<g id="edge1" class="edge">
<title>Node1&#45;&gt;Node2</title>
<path fill="none" stroke="midnightblue" d="M174.7,-63.78C145.55,-52.22 102.55,-35.16 76.95,-25.01"/>
<polygon fill="midnightblue" stroke="midnightblue" points="173.42,-67.04 184.01,-67.48 176,-60.53 173.42,-67.04"/>
</g>
<!-- Node3 -->
<g id="node3" class="node">
<title>Node3</title>
<g id="a_node3"><a xlink:href="_low_mach_equation_system_8_c.html" target="_top" xlink:title=" ">
<polygon fill="white" stroke="black" points="129.5,-6 129.5,-25 281.5,-25 281.5,-6 129.5,-6"/>
<text text-anchor="middle" x="205.5" y="-13" font-family="Helvetica,sans-Serif" font-size="10.00">LowMachEquationSystem.C</text>
</a>
</g>
</g>
<!-- Node1&#45;&gt;Node3 -->
<g id="edge2" class="edge">
<title>Node1&#45;&gt;Node3</title>
<path fill="none" stroke="midnightblue" d="M205.5,-57.32C205.5,-46.5 205.5,-33.4 205.5,-25.01"/>
<polygon fill="midnightblue" stroke="midnightblue" points="202,-57.48 205.5,-67.48 209,-57.48 202,-57.48"/>
</g>
<!-- Node4 -->
<g id="node4" class="node">
<title>Node4</title>
<g id="a_node4"><a xlink:href="_momentum_body_force_box_node_kernel_8_c.html" target="_top" xlink:title=" ">
<polygon fill="white" stroke="black" points="299.5,-0.5 299.5,-30.5 467.5,-30.5 467.5,-0.5 299.5,-0.5"/>
<text text-anchor="start" x="307.5" y="-18.5" font-family="Helvetica,sans-Serif" font-size="10.00">MomentumBodyForceBoxNode</text>
<text text-anchor="middle" x="383.5" y="-7.5" font-family="Helvetica,sans-Serif" font-size="10.00">Kernel.C</text>
</a>
</g>
</g>
<!-- Node1&#45;&gt;Node4 -->
<g id="edge3" class="edge">
<title>Node1&#45;&gt;Node4</title>
<path fill="none" stroke="midnightblue" d="M240.71,-64.23C269.69,-54.54 310.86,-40.78 341.55,-30.52"/>
<polygon fill="midnightblue" stroke="midnightblue" points="239.38,-60.99 231,-67.48 241.6,-67.62 239.38,-60.99"/>
</g>
</g>
</svg>
