<?xml version="1.0" encoding="UTF-8" standalone="no"?>
<!DOCTYPE svg PUBLIC "-//W3C//DTD SVG 1.1//EN"
 "http://www.w3.org/Graphics/SVG/1.1/DTD/svg11.dtd">
<!-- Generated by graphviz version 2.43.0 (0)
 -->
<!-- Title: MaterialPropertyData.C Pages: 1 -->
<svg width="209pt" height="207pt"
 viewBox="0.00 0.00 209.00 207.00" xmlns="http://www.w3.org/2000/svg" xmlns:xlink="http://www.w3.org/1999/xlink">
<g id="graph0" class="graph" transform="scale(1 1) rotate(0) translate(4 203)">
<title>MaterialPropertyData.C</title>
<polygon fill="white" stroke="transparent" points="-4,4 -4,-203 205,-203 205,4 -4,4"/>
<!-- Node1 -->
<g id="node1" class="node">
<title>Node1</title>
<g id="a_node1"><a xlink:title=" ">
<polygon fill="#bfbfbf" stroke="black" points="58,-179.5 58,-198.5 189,-198.5 189,-179.5 58,-179.5"/>
<text text-anchor="middle" x="123.5" y="-186.5" font-family="Helvetica,sans-Serif" font-size="10.00">MaterialPropertyData.C</text>
</a>
</g>
</g>
<!-- Node2 -->
<g id="node2" class="node">
<title>Node2</title>
<g id="a_node2"><a xlink:href="_material_property_data_8h.html" target="_top" xlink:title=" ">
<polygon fill="white" stroke="black" points="9.5,-112.5 9.5,-142.5 143.5,-142.5 143.5,-112.5 9.5,-112.5"/>
<text text-anchor="start" x="17.5" y="-130.5" font-family="Helvetica,sans-Serif" font-size="10.00">property_evaluator</text>
<text text-anchor="middle" x="76.5" y="-119.5" font-family="Helvetica,sans-Serif" font-size="10.00">/MaterialPropertyData.h</text>
</a>
</g>
</g>
<!-- Node1&#45;&gt;Node2 -->
<g id="edge1" class="edge">
<title>Node1&#45;&gt;Node2</title>
<path fill="none" stroke="midnightblue" d="M116.77,-179.48C110.82,-171.94 101.88,-160.63 93.93,-150.57"/>
<polygon fill="midnightblue" stroke="midnightblue" points="96.52,-148.2 87.58,-142.52 91.03,-152.54 96.52,-148.2"/>
</g>
<!-- Node3 -->
<g id="node3" class="node">
<title>Node3</title>
<g id="a_node3"><a xlink:href="_enums_8h.html" target="_top" xlink:title=" ">
<polygon fill="white" stroke="black" points="142,-56.5 142,-75.5 201,-75.5 201,-56.5 142,-56.5"/>
<text text-anchor="middle" x="171.5" y="-63.5" font-family="Helvetica,sans-Serif" font-size="10.00">Enums.h</text>
</a>
</g>
</g>
<!-- Node1&#45;&gt;Node3 -->
<g id="edge8" class="edge">
<title>Node1&#45;&gt;Node3</title>
<path fill="none" stroke="midnightblue" d="M130.43,-179.19C136.98,-170.46 146.66,-156.48 152.5,-143 160.59,-124.32 165.72,-101.5 168.58,-85.77"/>
<polygon fill="midnightblue" stroke="midnightblue" points="172.06,-86.18 170.27,-75.73 165.16,-85.01 172.06,-86.18"/>
</g>
<!-- Node2&#45;&gt;Node3 -->
<g id="edge2" class="edge">
<title>Node2&#45;&gt;Node3</title>
<path fill="none" stroke="midnightblue" d="M99.01,-112.4C114.1,-102.95 133.89,-90.56 148.97,-81.11"/>
<polygon fill="midnightblue" stroke="midnightblue" points="151.06,-83.93 157.68,-75.66 147.34,-78 151.06,-83.93"/>
</g>
<!-- Node4 -->
<g id="node4" class="node">
<title>Node4</title>
<g id="a_node4"><a xlink:title=" ">
<polygon fill="white" stroke="#bfbfbf" points="139.5,-0.5 139.5,-19.5 183.5,-19.5 183.5,-0.5 139.5,-0.5"/>
<text text-anchor="middle" x="161.5" y="-7.5" font-family="Helvetica,sans-Serif" font-size="10.00">string</text>
</a>
</g>
</g>
<!-- Node2&#45;&gt;Node4 -->
<g id="edge5" class="edge">
<title>Node2&#45;&gt;Node4</title>
<path fill="none" stroke="midnightblue" d="M86.92,-112.34C102.66,-90.96 132.41,-50.53 149.19,-27.73"/>
<polygon fill="midnightblue" stroke="midnightblue" points="152.01,-29.8 155.12,-19.67 146.37,-25.65 152.01,-29.8"/>
</g>
<!-- Node5 -->
<g id="node5" class="node">
<title>Node5</title>
<g id="a_node5"><a xlink:title=" ">
<polygon fill="white" stroke="#bfbfbf" points="74.5,-0.5 74.5,-19.5 112.5,-19.5 112.5,-0.5 74.5,-0.5"/>
<text text-anchor="middle" x="93.5" y="-7.5" font-family="Helvetica,sans-Serif" font-size="10.00">map</text>
</a>
</g>
</g>
<!-- Node2&#45;&gt;Node5 -->
<g id="edge7" class="edge">
<title>Node2&#45;&gt;Node5</title>
<path fill="none" stroke="midnightblue" d="M78.58,-112.34C81.65,-91.53 87.37,-52.66 90.76,-29.58"/>
<polygon fill="midnightblue" stroke="midnightblue" points="94.23,-30.07 92.22,-19.67 87.31,-29.05 94.23,-30.07"/>
</g>
<!-- Node6 -->
<g id="node6" class="node">
<title>Node6</title>
<g id="a_node6"><a xlink:title=" ">
<polygon fill="white" stroke="#bfbfbf" points="0,-56.5 0,-75.5 47,-75.5 47,-56.5 0,-56.5"/>
<text text-anchor="middle" x="23.5" y="-63.5" font-family="Helvetica,sans-Serif" font-size="10.00">vector</text>
</a>
</g>
</g>
<!-- Node2&#45;&gt;Node6 -->
<g id="edge6" class="edge">
<title>Node2&#45;&gt;Node6</title>
<path fill="none" stroke="midnightblue" d="M63.94,-112.4C56.16,-103.66 46.14,-92.41 38.02,-83.3"/>
<polygon fill="midnightblue" stroke="midnightblue" points="40.48,-80.8 31.21,-75.66 35.25,-85.45 40.48,-80.8"/>
</g>
<!-- Node3&#45;&gt;Node4 -->
<g id="edge3" class="edge">
<title>Node3&#45;&gt;Node4</title>
<path fill="none" stroke="midnightblue" d="M169.85,-56.08C168.52,-48.93 166.62,-38.64 164.96,-29.69"/>
<polygon fill="midnightblue" stroke="midnightblue" points="168.38,-28.95 163.12,-19.75 161.5,-30.22 168.38,-28.95"/>
</g>
<!-- Node3&#45;&gt;Node5 -->
<g id="edge4" class="edge">
<title>Node3&#45;&gt;Node5</title>
<path fill="none" stroke="midnightblue" d="M158.97,-56.32C146.91,-47.98 128.47,-35.21 114.23,-25.35"/>
<polygon fill="midnightblue" stroke="midnightblue" points="116.22,-22.47 106,-19.65 112.23,-28.22 116.22,-22.47"/>
</g>
</g>
</svg>
