<?xml version="1.0" encoding="UTF-8" standalone="no"?>
<!DOCTYPE svg PUBLIC "-//W3C//DTD SVG 1.1//EN"
 "http://www.w3.org/Graphics/SVG/1.1/DTD/svg11.dtd">
<!-- Generated by graphviz version 2.43.0 (0)
 -->
<!-- Title: MaxCourantReynolds.C Pages: 1 -->
<!--zoomable 313 -->

<svg id="main" version="1.1" xmlns="http://www.w3.org/2000/svg" xmlns:xlink="http://www.w3.org/1999/xlink" xml:space="preserve" onload="init(evt)">
<style type="text/css"><![CDATA[
.node, .edge {opacity: 0.7;}
.node.selected, .edge.selected {opacity: 1;}
.edge:hover path { stroke: red; }
.edge:hover polygon { stroke: red; fill: red; }
]]></style>

<defs>
  <circle id="rim" cx="0" cy="0" r="7"/>
  <circle id="rim2" cx="0" cy="0" r="3.5"/>
  <g id="zoomPlus">
    <use xlink:href="#rim" fill="#404040"><set attributeName="fill" to="#808080" begin="zoomplus.mouseover" end="zoomplus.mouseout"/></use>
    <path d="M-4,0h8M0,-4v8" fill="none" stroke="white" stroke-width="1.5" pointer-events="none"/>
  </g>
  <g id="zoomMin">
    <use xlink:href="#rim" fill="#404040"><set attributeName="fill" to="#808080" begin="zoomminus.mouseover" end="zoomminus.mouseout"/></use>
    <path d="M-4,0h8" fill="none" stroke="white" stroke-width="1.5" pointer-events="none"/>
  </g>
  <g id="arrowUp" transform="translate(30 24)">
    <use xlink:href="#rim"/>
    <path pointer-events="none" fill="none" stroke="white" stroke-width="1.5" d="M0,-3.0v7 M-2.5,-0.5L0,-3.0L2.5,-0.5"/>
  </g>
  <g id="arrowRight" transform="rotate(90) translate(36 -43)">
    <use xlink:href="#rim"/>
    <path pointer-events="none" fill="none" stroke="white" stroke-width="1.5" d="M0,-3.0v7 M-2.5,-0.5L0,-3.0L2.5,-0.5"/>
  </g>
  <g id="arrowDown" transform="rotate(180) translate(-30 -48)">
    <use xlink:href="#rim"/>
    <path pointer-events="none" fill="none" stroke="white" stroke-width="1.5" d="M0,-3.0v7 M-2.5,-0.5L0,-3.0L2.5,-0.5"/>
  </g>
  <g id="arrowLeft" transform="rotate(270) translate(-36 17)">
    <use xlink:href="#rim"/>
    <path pointer-events="none" fill="none" stroke="white" stroke-width="1.5" d="M0,-3.0v7 M-2.5,-0.5L0,-3.0L2.5,-0.5"/>
  </g>
  <g id="resetDef">
    <use xlink:href="#rim2" fill="#404040"><set attributeName="fill" to="#808080" begin="reset.mouseover" end="reset.mouseout"/></use>
  </g>
</defs>
<script type="application/ecmascript">
var viewWidth = 1288;
var viewHeight = 313;
var sectionId = 'dynsection-0';
</script>
<script type="application/ecmascript" xlink:href="svg.min.js"/>
<svg id="graph" class="graph">
<g id="viewport">
<title>MaxCourantReynolds.C</title>
<!-- Node1 -->
<g id="Node000001" class="node">
<title>Node1</title>
<g id="a_Node000001"><a xlink:title=" ">
<polygon fill="#999999" stroke="#666666" points="706.5,-305 575.5,-305 575.5,-286 706.5,-286 706.5,-305"/>
<text text-anchor="middle" x="641" y="-293" font-family="Helvetica,sans-Serif" font-size="10.00">MaxCourantReynolds.C</text>
</a>
</g>
</g>
<!-- Node2 -->
<g id="Node000002" class="node">
<title>Node2</title>
<g id="a_Node000002"><a xlink:href="_max_courant_reynolds_8h.html" target="_top" xlink:title=" ">
<polygon fill="white" stroke="#666666" points="561,-244.5 371,-244.5 371,-225.5 561,-225.5 561,-244.5"/>
<text text-anchor="middle" x="466" y="-232.5" font-family="Helvetica,sans-Serif" font-size="10.00">matrix_free/MaxCourantReynolds.h</text>
</a>
</g>
</g>
<!-- Node1&#45;&gt;Node2 -->
<g id="edge1_Node000001_Node000002" class="edge">
<title>Node1&#45;&gt;Node2</title>
<g id="a_edge1_Node000001_Node000002"><a xlink:title=" ">
<path fill="none" stroke="#63b8ff" d="M615.55,-285.99C585.36,-275.9 534.84,-259.01 500.98,-247.69"/>
<polygon fill="#63b8ff" stroke="#63b8ff" points="502.07,-244.37 491.48,-244.52 499.85,-251.01 502.07,-244.37"/>
</a>
</g>
</g>
<!-- Node3 -->
<g id="Node000003" class="node">
<title>Node3</title>
<g id="a_Node000003"><a xlink:href="_polynomial_orders_8h.html" target="_top" xlink:title=" ">
<polygon fill="white" stroke="#666666" points="256.5,-184 83.5,-184 83.5,-165 256.5,-165 256.5,-184"/>
<text text-anchor="middle" x="170" y="-172" font-family="Helvetica,sans-Serif" font-size="10.00">matrix_free/PolynomialOrders.h</text>
</a>
</g>
</g>
<!-- Node1&#45;&gt;Node3 -->
<g id="edge14_Node000001_Node000003" class="edge">
<title>Node1&#45;&gt;Node3</title>
<g id="a_edge14_Node000001_Node000003"><a xlink:title=" ">
<path fill="none" stroke="#63b8ff" d="M575.07,-292.75C453.66,-288.87 204.55,-277.6 177,-250 162.7,-235.67 163.22,-211.17 165.81,-194.2"/>
<polygon fill="#63b8ff" stroke="#63b8ff" points="169.26,-194.79 167.68,-184.32 162.38,-193.49 169.26,-194.79"/>
</a>
</g>
</g>
<!-- Node8 -->
<g id="Node000008" class="node">
<title>Node8</title>
<g id="a_Node000008"><a xlink:title=" ">
<polygon fill="#e0e0e0" stroke="#999999" points="110,-19 0,-19 0,0 110,0 110,-19"/>
<text text-anchor="middle" x="55" y="-7" font-family="Helvetica,sans-Serif" font-size="10.00">stk_simd/Simd.hpp</text>
</a>
</g>
</g>
<!-- Node1&#45;&gt;Node8 -->
<g id="edge44_Node000001_Node000008" class="edge">
<title>Node1&#45;&gt;Node8</title>
<g id="a_edge44_Node000001_Node000008"><a xlink:title=" ">
<path fill="none" stroke="#63b8ff" d="M575.48,-291.57C462.57,-286 236.13,-272.41 160,-250 91.25,-229.76 17,-247.16 17,-175.5 17,-175.5 17,-175.5 17,-118.5 17,-85.02 33.45,-48.84 44.7,-28.01"/>
<polygon fill="#63b8ff" stroke="#63b8ff" points="47.87,-29.53 49.72,-19.1 41.76,-26.1 47.87,-29.53"/>
</a>
</g>
</g>
<!-- Node10 -->
<g id="Node000010" class="node">
<title>Node10</title>
<g id="a_Node000010"><a xlink:href="_local_array_8h.html" target="_top" xlink:title=" ">
<polygon fill="white" stroke="#666666" points="695,-129 559,-129 559,-110 695,-110 695,-129"/>
<text text-anchor="middle" x="627" y="-117" font-family="Helvetica,sans-Serif" font-size="10.00">matrix_free/LocalArray.h</text>
</a>
</g>
</g>
<!-- Node1&#45;&gt;Node10 -->
<g id="edge37_Node000001_Node000010" class="edge">
<title>Node1&#45;&gt;Node10</title>
<g id="a_edge37_Node000001_Node000010"><a xlink:title=" ">
<path fill="none" stroke="#63b8ff" d="M631.98,-285.96C623.93,-277.66 612.71,-264.25 608,-250 595.34,-211.67 609.4,-164.19 619.19,-138.71"/>
<polygon fill="#63b8ff" stroke="#63b8ff" points="622.52,-139.8 623.03,-129.22 616.03,-137.17 622.52,-139.8"/>
</a>
</g>
</g>
<!-- Node12 -->
<g id="Node000012" class="node">
<title>Node12</title>
<g id="a_Node000012"><a xlink:href="_shuffled_access_8h.html" target="_top" xlink:title=" ">
<polygon fill="white" stroke="#666666" points="1078.5,-184 919.5,-184 919.5,-165 1078.5,-165 1078.5,-184"/>
<text text-anchor="middle" x="999" y="-172" font-family="Helvetica,sans-Serif" font-size="10.00">matrix_free/ShuffledAccess.h</text>
</a>
</g>
</g>
<!-- Node1&#45;&gt;Node12 -->
<g id="edge15_Node000001_Node000012" class="edge">
<title>Node1&#45;&gt;Node12</title>
<g id="a_edge15_Node000001_Node000012"><a xlink:title=" ">
<path fill="none" stroke="#63b8ff" d="M706.84,-290.79C804.1,-284.64 976.8,-270.9 996,-250 1009.65,-235.14 1007.79,-210.76 1004.25,-193.96"/>
<polygon fill="#63b8ff" stroke="#63b8ff" points="1007.63,-193.05 1001.82,-184.19 1000.84,-194.74 1007.63,-193.05"/>
</a>
</g>
</g>
<!-- Node13 -->
<g id="Node000013" class="node">
<title>Node13</title>
<g id="a_Node000013"><a xlink:href="_valid_simd_length_8h.html" target="_top" xlink:title=" ">
<polygon fill="white" stroke="#666666" points="352.5,-244.5 185.5,-244.5 185.5,-225.5 352.5,-225.5 352.5,-244.5"/>
<text text-anchor="middle" x="269" y="-232.5" font-family="Helvetica,sans-Serif" font-size="10.00">matrix_free/ValidSimdLength.h</text>
</a>
</g>
</g>
<!-- Node1&#45;&gt;Node13 -->
<g id="edge19_Node000001_Node000013" class="edge">
<title>Node1&#45;&gt;Node13</title>
<g id="a_edge19_Node000001_Node000013"><a xlink:title=" ">
<path fill="none" stroke="#63b8ff" d="M586.91,-285.99C519.69,-275.42 405.1,-257.4 333.41,-246.13"/>
<polygon fill="#63b8ff" stroke="#63b8ff" points="333.58,-242.61 323.16,-244.52 332.49,-249.53 333.58,-242.61"/>
</a>
</g>
</g>
<!-- Node14 -->
<g id="Node000014" class="node">
<title>Node14</title>
<g id="a_Node000014"><a xlink:href="_element_volume_integral_8h.html" target="_top" xlink:title=" ">
<polygon fill="white" stroke="#666666" points="771,-250 617,-250 617,-220 771,-220 771,-250"/>
<text text-anchor="start" x="625" y="-238" font-family="Helvetica,sans-Serif" font-size="10.00">matrix_free/ElementVolume</text>
<text text-anchor="middle" x="694" y="-227" font-family="Helvetica,sans-Serif" font-size="10.00">Integral.h</text>
</a>
</g>
</g>
<!-- Node1&#45;&gt;Node14 -->
<g id="edge24_Node000001_Node000014" class="edge">
<title>Node1&#45;&gt;Node14</title>
<g id="a_edge24_Node000001_Node000014"><a xlink:title=" ">
<path fill="none" stroke="#63b8ff" d="M648.82,-285.87C655.55,-278.44 665.54,-267.42 674.41,-257.62"/>
<polygon fill="#63b8ff" stroke="#63b8ff" points="677.09,-259.88 681.21,-250.11 671.9,-255.18 677.09,-259.88"/>
</a>
</g>
</g>
<!-- Node17 -->
<g id="Node000017" class="node">
<title>Node17</title>
<g id="a_Node000017"><a xlink:href="_element_s_c_s_interpolate_8h.html" target="_top" xlink:title=" ">
<polygon fill="white" stroke="#666666" points="987,-244.5 789,-244.5 789,-225.5 987,-225.5 987,-244.5"/>
<text text-anchor="middle" x="888" y="-232.5" font-family="Helvetica,sans-Serif" font-size="10.00">matrix_free/ElementSCSInterpolate.h</text>
</a>
</g>
</g>
<!-- Node1&#45;&gt;Node17 -->
<g id="edge31_Node000001_Node000017" class="edge">
<title>Node1&#45;&gt;Node17</title>
<g id="a_edge31_Node000001_Node000017"><a xlink:title=" ">
<path fill="none" stroke="#63b8ff" d="M676.92,-285.99C720.64,-275.64 794.53,-258.14 842.27,-246.83"/>
<polygon fill="#63b8ff" stroke="#63b8ff" points="843.12,-250.23 852.04,-244.52 841.5,-243.42 843.12,-250.23"/>
</a>
</g>
</g>
<!-- Node18 -->
<g id="Node000018" class="node">
<title>Node18</title>
<g id="a_Node000018"><a xlink:href="_kokkos_interface_8h.html" target="_top" xlink:title=" ">
<polygon fill="white" stroke="#666666" points="1109,-129 1005,-129 1005,-110 1109,-110 1109,-129"/>
<text text-anchor="middle" x="1057" y="-117" font-family="Helvetica,sans-Serif" font-size="10.00">KokkosInterface.h</text>
</a>
</g>
</g>
<!-- Node1&#45;&gt;Node18 -->
<g id="edge38_Node000001_Node000018" class="edge">
<title>Node1&#45;&gt;Node18</title>
<g id="a_edge38_Node000001_Node000018"><a xlink:title=" ">
<path fill="none" stroke="#63b8ff" d="M706.54,-291.48C798.74,-286.43 961.5,-274.33 1015,-250 1054.82,-231.9 1070.25,-223.98 1088,-184 1095.27,-167.63 1084.16,-149.27 1073.27,-136.53"/>
<polygon fill="#63b8ff" stroke="#63b8ff" points="1075.71,-134 1066.35,-129.03 1070.57,-138.75 1075.71,-134"/>
</a>
</g>
</g>
<!-- Node21 -->
<g id="Node000021" class="node">
<title>Node21</title>
<g id="a_Node000021"><a xlink:title=" ">
<polygon fill="#e0e0e0" stroke="#999999" points="1279.5,-244.5 1134.5,-244.5 1134.5,-225.5 1279.5,-225.5 1279.5,-244.5"/>
<text text-anchor="middle" x="1207" y="-232.5" font-family="Helvetica,sans-Serif" font-size="10.00">Kokkos_NumericTraits.hpp</text>
</a>
</g>
</g>
<!-- Node1&#45;&gt;Node21 -->
<g id="edge43_Node000001_Node000021" class="edge">
<title>Node1&#45;&gt;Node21</title>
<g id="a_edge43_Node000001_Node000021"><a xlink:title=" ">
<path fill="none" stroke="#63b8ff" d="M706.62,-289.8C799.04,-282.87 972.73,-268.67 1120,-250 1128.82,-248.88 1138.12,-247.55 1147.23,-246.16"/>
<polygon fill="#63b8ff" stroke="#63b8ff" points="1148.05,-249.57 1157.39,-244.57 1146.97,-242.66 1148.05,-249.57"/>
</a>
</g>
</g>
<!-- Node2&#45;&gt;Node3 -->
<g id="edge2_Node000002_Node000003" class="edge">
<title>Node2&#45;&gt;Node3</title>
<g id="a_edge2_Node000002_Node000003"><a xlink:title=" ">
<path fill="none" stroke="#63b8ff" d="M422.96,-225.49C370.02,-215.03 280.16,-197.27 223.02,-185.98"/>
<polygon fill="#63b8ff" stroke="#63b8ff" points="223.58,-182.52 213.09,-184.02 222.22,-189.39 223.58,-182.52"/>
</a>
</g>
</g>
<!-- Node5 -->
<g id="Node000005" class="node">
<title>Node5</title>
<g id="a_Node000005"><a xlink:href="_kokkos_view_types_8h.html" target="_top" xlink:title=" ">
<polygon fill="white" stroke="#666666" points="523,-184 351,-184 351,-165 523,-165 523,-184"/>
<text text-anchor="middle" x="437" y="-172" font-family="Helvetica,sans-Serif" font-size="10.00">matrix_free/KokkosViewTypes.h</text>
</a>
</g>
</g>
<!-- Node2&#45;&gt;Node5 -->
<g id="edge4_Node000002_Node000005" class="edge">
<title>Node2&#45;&gt;Node5</title>
<g id="a_edge4_Node000002_Node000005"><a xlink:title=" ">
<path fill="none" stroke="#63b8ff" d="M461.72,-225.37C457.57,-216.99 451.13,-204.01 445.87,-193.39"/>
<polygon fill="#63b8ff" stroke="#63b8ff" points="448.87,-191.57 441.3,-184.17 442.6,-194.68 448.87,-191.57"/>
</a>
</g>
</g>
<!-- Node2&#45;&gt;Node10 -->
<g id="edge10_Node000002_Node000010" class="edge">
<title>Node2&#45;&gt;Node10</title>
<g id="a_edge10_Node000002_Node000010"><a xlink:title=" ">
<path fill="none" stroke="#63b8ff" d="M478.1,-225.47C505.49,-206.16 572.48,-158.93 606.49,-134.96"/>
<polygon fill="#63b8ff" stroke="#63b8ff" points="608.6,-137.75 614.76,-129.13 604.57,-132.03 608.6,-137.75"/>
</a>
</g>
</g>
<!-- Node4 -->
<g id="Node000004" class="node">
<title>Node4</title>
<g id="a_Node000004"><a xlink:title=" ">
<polygon fill="#e0e0e0" stroke="#999999" points="488.5,-19 419.5,-19 419.5,0 488.5,0 488.5,-19"/>
<text text-anchor="middle" x="454" y="-7" font-family="Helvetica,sans-Serif" font-size="10.00">type_traits</text>
</a>
</g>
</g>
<!-- Node3&#45;&gt;Node4 -->
<g id="edge3_Node000003_Node000004" class="edge">
<title>Node3&#45;&gt;Node4</title>
<g id="a_edge3_Node000003_Node000004"><a xlink:title=" ">
<path fill="none" stroke="#63b8ff" d="M174.81,-164.72C187.43,-142.56 223.81,-84.05 271,-55 313.43,-28.88 370.19,-18.09 409.18,-13.63"/>
<polygon fill="#63b8ff" stroke="#63b8ff" points="409.61,-17.11 419.19,-12.58 408.88,-10.15 409.61,-17.11"/>
</a>
</g>
</g>
<!-- Node6 -->
<g id="Node000006" class="node">
<title>Node6</title>
<g id="a_Node000006"><a xlink:href="_kokkos_framework_8h.html" target="_top" xlink:title=" ">
<polygon fill="white" stroke="#666666" points="657.5,-74 482.5,-74 482.5,-55 657.5,-55 657.5,-74"/>
<text text-anchor="middle" x="570" y="-62" font-family="Helvetica,sans-Serif" font-size="10.00">matrix_free/KokkosFramework.h</text>
</a>
</g>
</g>
<!-- Node5&#45;&gt;Node6 -->
<g id="edge5_Node000005_Node000006" class="edge">
<title>Node5&#45;&gt;Node6</title>
<g id="a_edge5_Node000005_Node000006"><a xlink:title=" ">
<path fill="none" stroke="#63b8ff" d="M447.88,-164.66C470.6,-146.22 523.27,-103.45 551.44,-80.57"/>
<polygon fill="#63b8ff" stroke="#63b8ff" points="553.78,-83.18 559.34,-74.16 549.37,-77.75 553.78,-83.18"/>
</a>
</g>
</g>
<!-- Node9 -->
<g id="Node000009" class="node">
<title>Node9</title>
<g id="a_Node000009"><a xlink:title=" ">
<polygon fill="#e0e0e0" stroke="#999999" points="475,-129 333,-129 333,-110 475,-110 475,-129"/>
<text text-anchor="middle" x="404" y="-117" font-family="Helvetica,sans-Serif" font-size="10.00">stk_mesh/base/Types.hpp</text>
</a>
</g>
</g>
<!-- Node5&#45;&gt;Node9 -->
<g id="edge9_Node000005_Node000009" class="edge">
<title>Node5&#45;&gt;Node9</title>
<g id="a_edge9_Node000005_Node000009"><a xlink:title=" ">
<path fill="none" stroke="#63b8ff" d="M431.55,-164.75C426.99,-157.42 420.33,-146.73 414.71,-137.7"/>
<polygon fill="#63b8ff" stroke="#63b8ff" points="417.6,-135.73 409.35,-129.09 411.66,-139.43 417.6,-135.73"/>
</a>
</g>
</g>
<!-- Node6&#45;&gt;Node4 -->
<g id="edge8_Node000006_Node000004" class="edge">
<title>Node6&#45;&gt;Node4</title>
<g id="a_edge8_Node000006_Node000004"><a xlink:title=" ">
<path fill="none" stroke="#63b8ff" d="M551.36,-54.98C532.7,-46.46 503.75,-33.23 482.26,-23.41"/>
<polygon fill="#63b8ff" stroke="#63b8ff" points="483.53,-20.14 472.98,-19.17 480.62,-26.51 483.53,-20.14"/>
</a>
</g>
</g>
<!-- Node7 -->
<g id="Node000007" class="node">
<title>Node7</title>
<g id="a_Node000007"><a xlink:title=" ">
<polygon fill="#e0e0e0" stroke="#999999" points="620,-19 520,-19 520,0 620,0 620,-19"/>
<text text-anchor="middle" x="570" y="-7" font-family="Helvetica,sans-Serif" font-size="10.00">Kokkos_Core.hpp</text>
</a>
</g>
</g>
<!-- Node6&#45;&gt;Node7 -->
<g id="edge6_Node000006_Node000007" class="edge">
<title>Node6&#45;&gt;Node7</title>
<g id="a_edge6_Node000006_Node000007"><a xlink:title=" ">
<path fill="none" stroke="#63b8ff" d="M570,-54.75C570,-47.8 570,-37.85 570,-29.13"/>
<polygon fill="#63b8ff" stroke="#63b8ff" points="573.5,-29.09 570,-19.09 566.5,-29.09 573.5,-29.09"/>
</a>
</g>
</g>
<!-- Node6&#45;&gt;Node8 -->
<g id="edge7_Node000006_Node000008" class="edge">
<title>Node6&#45;&gt;Node8</title>
<g id="a_edge7_Node000006_Node000008"><a xlink:title=" ">
<path fill="none" stroke="#63b8ff" d="M487.26,-54.98C385.17,-44.48 213.7,-26.83 120.35,-17.23"/>
<polygon fill="#63b8ff" stroke="#63b8ff" points="120.5,-13.72 110.19,-16.18 119.78,-20.69 120.5,-13.72"/>
</a>
</g>
</g>
<!-- Node10&#45;&gt;Node4 -->
<g id="edge13_Node000010_Node000004" class="edge">
<title>Node10&#45;&gt;Node4</title>
<g id="a_edge13_Node000010_Node000004"><a xlink:title=" ">
<path fill="none" stroke="#63b8ff" d="M558.81,-112.97C529.35,-107.29 496.54,-96.05 474,-74 462,-62.27 457.18,-43.42 455.25,-29.3"/>
<polygon fill="#63b8ff" stroke="#63b8ff" points="458.72,-28.82 454.25,-19.21 451.76,-29.51 458.72,-28.82"/>
</a>
</g>
</g>
<!-- Node10&#45;&gt;Node6 -->
<g id="edge12_Node000010_Node000006" class="edge">
<title>Node10&#45;&gt;Node6</title>
<g id="a_edge12_Node000010_Node000006"><a xlink:title=" ">
<path fill="none" stroke="#63b8ff" d="M617.84,-109.98C609.5,-102.23 596.97,-90.58 586.82,-81.14"/>
<polygon fill="#63b8ff" stroke="#63b8ff" points="589.03,-78.42 579.32,-74.17 584.26,-83.54 589.03,-78.42"/>
</a>
</g>
</g>
<!-- Node11 -->
<g id="Node000011" class="node">
<title>Node11</title>
<g id="a_Node000011"><a xlink:title=" ">
<polygon fill="#e0e0e0" stroke="#999999" points="957.5,-74 844.5,-74 844.5,-55 957.5,-55 957.5,-74"/>
<text text-anchor="middle" x="901" y="-62" font-family="Helvetica,sans-Serif" font-size="10.00">Kokkos_Macros.hpp</text>
</a>
</g>
</g>
<!-- Node10&#45;&gt;Node11 -->
<g id="edge11_Node000010_Node000011" class="edge">
<title>Node10&#45;&gt;Node11</title>
<g id="a_edge11_Node000010_Node000011"><a xlink:title=" ">
<path fill="none" stroke="#63b8ff" d="M671.02,-109.98C718.82,-100.74 795.2,-85.97 846.68,-76.01"/>
<polygon fill="#63b8ff" stroke="#63b8ff" points="847.48,-79.42 856.63,-74.08 846.15,-72.54 847.48,-79.42"/>
</a>
</g>
</g>
<!-- Node12&#45;&gt;Node6 -->
<g id="edge16_Node000012_Node000006" class="edge">
<title>Node12&#45;&gt;Node6</title>
<g id="a_edge16_Node000012_Node000006"><a xlink:title=" ">
<path fill="none" stroke="#63b8ff" d="M964.98,-164.94C887.85,-145.52 699.77,-98.17 613.97,-76.57"/>
<polygon fill="#63b8ff" stroke="#63b8ff" points="614.58,-73.11 604.03,-74.07 612.87,-79.9 614.58,-73.11"/>
</a>
</g>
</g>
<!-- Node12&#45;&gt;Node10 -->
<g id="edge17_Node000012_Node000010" class="edge">
<title>Node12&#45;&gt;Node10</title>
<g id="a_edge17_Node000012_Node000010"><a xlink:title=" ">
<path fill="none" stroke="#63b8ff" d="M939.23,-164.98C873.16,-155.57 766.87,-140.43 696.97,-130.47"/>
<polygon fill="#63b8ff" stroke="#63b8ff" points="697.32,-126.98 686.93,-129.04 696.33,-133.91 697.32,-126.98"/>
</a>
</g>
</g>
<!-- Node12&#45;&gt;Node11 -->
<g id="edge18_Node000012_Node000011" class="edge">
<title>Node12&#45;&gt;Node11</title>
<g id="a_edge18_Node000012_Node000011"><a xlink:title=" ">
<path fill="none" stroke="#63b8ff" d="M990.98,-164.66C974.53,-146.54 936.76,-104.91 915.76,-81.77"/>
<polygon fill="#63b8ff" stroke="#63b8ff" points="918.17,-79.21 908.86,-74.16 912.98,-83.92 918.17,-79.21"/>
</a>
</g>
</g>
<!-- Node13&#45;&gt;Node5 -->
<g id="edge20_Node000013_Node000005" class="edge">
<title>Node13&#45;&gt;Node5</title>
<g id="a_edge20_Node000013_Node000005"><a xlink:title=" ">
<path fill="none" stroke="#63b8ff" d="M293.43,-225.49C322.29,-215.44 370.5,-198.66 403,-187.34"/>
<polygon fill="#63b8ff" stroke="#63b8ff" points="404.25,-190.61 412.54,-184.02 401.95,-184 404.25,-190.61"/>
</a>
</g>
</g>
<!-- Node13&#45;&gt;Node7 -->
<g id="edge21_Node000013_Node000007" class="edge">
<title>Node13&#45;&gt;Node7</title>
<g id="a_edge21_Node000013_Node000007"><a xlink:title=" ">
<path fill="none" stroke="#63b8ff" d="M270.55,-225.19C274.91,-202.89 289.3,-143.57 324,-110 375.74,-59.94 455.98,-33.92 510.65,-21.24"/>
<polygon fill="#63b8ff" stroke="#63b8ff" points="511.55,-24.63 520.54,-19.03 510.02,-17.8 511.55,-24.63"/>
</a>
</g>
</g>
<!-- Node13&#45;&gt;Node8 -->
<g id="edge22_Node000013_Node000008" class="edge">
<title>Node13&#45;&gt;Node8</title>
<g id="a_edge22_Node000013_Node000008"><a xlink:title=" ">
<path fill="none" stroke="#63b8ff" d="M204.72,-225.49C154.74,-217.47 91.12,-203.74 74,-184 35.83,-139.99 44.28,-64.22 50.85,-29.22"/>
<polygon fill="#63b8ff" stroke="#63b8ff" points="54.36,-29.52 52.94,-19.02 47.5,-28.12 54.36,-29.52"/>
</a>
</g>
</g>
<!-- Node13&#45;&gt;Node9 -->
<g id="edge23_Node000013_Node000009" class="edge">
<title>Node13&#45;&gt;Node9</title>
<g id="a_edge23_Node000013_Node000009"><a xlink:title=" ">
<path fill="none" stroke="#63b8ff" d="M277.64,-225.1C290.95,-211.55 317.52,-185.2 342,-165 354.87,-154.38 370.07,-143.45 382.21,-135.07"/>
<polygon fill="#63b8ff" stroke="#63b8ff" points="384.51,-137.74 390.8,-129.21 380.56,-131.96 384.51,-137.74"/>
</a>
</g>
</g>
<!-- Node14&#45;&gt;Node5 -->
<g id="edge28_Node000014_Node000005" class="edge">
<title>Node14&#45;&gt;Node5</title>
<g id="a_edge28_Node000014_Node000005"><a xlink:title=" ">
<path fill="none" stroke="#63b8ff" d="M632.44,-219.99C587.03,-209.65 526.15,-195.79 484.48,-186.31"/>
<polygon fill="#63b8ff" stroke="#63b8ff" points="485.1,-182.86 474.58,-184.05 483.55,-189.69 485.1,-182.86"/>
</a>
</g>
</g>
<!-- Node14&#45;&gt;Node10 -->
<g id="edge29_Node000014_Node000010" class="edge">
<title>Node14&#45;&gt;Node10</title>
<g id="a_edge29_Node000014_Node000010"><a xlink:title=" ">
<path fill="none" stroke="#63b8ff" d="M677.19,-219.72C667.19,-210.44 654.95,-197.57 647,-184 638.79,-169.97 633.56,-152.2 630.52,-139.02"/>
<polygon fill="#63b8ff" stroke="#63b8ff" points="633.94,-138.29 628.46,-129.22 627.09,-139.73 633.94,-138.29"/>
</a>
</g>
</g>
<!-- Node14&#45;&gt;Node12 -->
<g id="edge30_Node000014_Node000012" class="edge">
<title>Node14&#45;&gt;Node12</title>
<g id="a_edge30_Node000014_Node000012"><a xlink:title=" ">
<path fill="none" stroke="#63b8ff" d="M767.06,-219.99C821.63,-209.52 895.03,-195.44 944.53,-185.95"/>
<polygon fill="#63b8ff" stroke="#63b8ff" points="945.24,-189.37 954.4,-184.05 943.92,-182.5 945.24,-189.37"/>
</a>
</g>
</g>
<!-- Node15 -->
<g id="Node000015" class="node">
<title>Node15</title>
<g id="a_Node000015"><a xlink:title=" ">
<polygon fill="#e0e0e0" stroke="#999999" points="702.5,-184 655.5,-184 655.5,-165 702.5,-165 702.5,-184"/>
<text text-anchor="middle" x="679" y="-172" font-family="Helvetica,sans-Serif" font-size="10.00">cmath</text>
</a>
</g>
</g>
<!-- Node14&#45;&gt;Node15 -->
<g id="edge25_Node000014_Node000015" class="edge">
<title>Node14&#45;&gt;Node15</title>
<g id="a_edge25_Node000014_Node000015"><a xlink:title=" ">
<path fill="none" stroke="#63b8ff" d="M690.37,-219.84C688.39,-212.13 685.92,-202.49 683.79,-194.17"/>
<polygon fill="#63b8ff" stroke="#63b8ff" points="687.12,-193.08 681.25,-184.27 680.34,-194.82 687.12,-193.08"/>
</a>
</g>
</g>
<!-- Node16 -->
<g id="Node000016" class="node">
<title>Node16</title>
<g id="a_Node000016"><a xlink:href="_coefficients_8h.html" target="_top" xlink:title=" ">
<polygon fill="white" stroke="#666666" points="863.5,-184 720.5,-184 720.5,-165 863.5,-165 863.5,-184"/>
<text text-anchor="middle" x="792" y="-172" font-family="Helvetica,sans-Serif" font-size="10.00">matrix_free/Coefficients.h</text>
</a>
</g>
</g>
<!-- Node14&#45;&gt;Node16 -->
<g id="edge26_Node000014_Node000016" class="edge">
<title>Node14&#45;&gt;Node16</title>
<g id="a_edge26_Node000014_Node000016"><a xlink:title=" ">
<path fill="none" stroke="#63b8ff" d="M717.72,-219.84C733.2,-210.6 753.32,-198.59 768.71,-189.4"/>
<polygon fill="#63b8ff" stroke="#63b8ff" points="770.81,-192.23 777.6,-184.09 767.22,-186.21 770.81,-192.23"/>
</a>
</g>
</g>
<!-- Node16&#45;&gt;Node10 -->
<g id="edge27_Node000016_Node000010" class="edge">
<title>Node16&#45;&gt;Node10</title>
<g id="a_edge27_Node000016_Node000010"><a xlink:title=" ">
<path fill="none" stroke="#63b8ff" d="M765.49,-164.98C737.79,-156.09 694.14,-142.07 663.26,-132.15"/>
<polygon fill="#63b8ff" stroke="#63b8ff" points="664.31,-128.81 653.72,-129.08 662.17,-135.47 664.31,-128.81"/>
</a>
</g>
</g>
<!-- Node17&#45;&gt;Node5 -->
<g id="edge34_Node000017_Node000005" class="edge">
<title>Node17&#45;&gt;Node5</title>
<g id="a_edge34_Node000017_Node000005"><a xlink:title=" ">
<path fill="none" stroke="#63b8ff" d="M822.42,-225.49C740.17,-214.82 599.44,-196.57 512.7,-185.32"/>
<polygon fill="#63b8ff" stroke="#63b8ff" points="513.03,-181.83 502.66,-184.02 512.13,-188.77 513.03,-181.83"/>
</a>
</g>
</g>
<!-- Node17&#45;&gt;Node10 -->
<g id="edge35_Node000017_Node000010" class="edge">
<title>Node17&#45;&gt;Node10</title>
<g id="a_edge35_Node000017_Node000010"><a xlink:title=" ">
<path fill="none" stroke="#63b8ff" d="M888.9,-225.37C889.9,-210.72 889.58,-181.01 873,-165 849.45,-142.26 768.23,-130.87 705.49,-125.35"/>
<polygon fill="#63b8ff" stroke="#63b8ff" points="705.46,-121.83 695.2,-124.48 704.87,-128.81 705.46,-121.83"/>
</a>
</g>
</g>
<!-- Node17&#45;&gt;Node12 -->
<g id="edge36_Node000017_Node000012" class="edge">
<title>Node17&#45;&gt;Node12</title>
<g id="a_edge36_Node000017_Node000012"><a xlink:title=" ">
<path fill="none" stroke="#63b8ff" d="M904.38,-225.37C922.58,-215.78 952.2,-200.17 973.45,-188.97"/>
<polygon fill="#63b8ff" stroke="#63b8ff" points="975.34,-191.93 982.55,-184.17 972.08,-185.73 975.34,-191.93"/>
</a>
</g>
</g>
<!-- Node17&#45;&gt;Node15 -->
<g id="edge32_Node000017_Node000015" class="edge">
<title>Node17&#45;&gt;Node15</title>
<g id="a_edge32_Node000017_Node000015"><a xlink:title=" ">
<path fill="none" stroke="#63b8ff" d="M857.61,-225.49C818.97,-214.68 752.48,-196.07 712.44,-184.86"/>
<polygon fill="#63b8ff" stroke="#63b8ff" points="713.19,-181.44 702.62,-182.11 711.31,-188.18 713.19,-181.44"/>
</a>
</g>
</g>
<!-- Node17&#45;&gt;Node16 -->
<g id="edge33_Node000017_Node000016" class="edge">
<title>Node17&#45;&gt;Node16</title>
<g id="a_edge33_Node000017_Node000016"><a xlink:title=" ">
<path fill="none" stroke="#63b8ff" d="M873.83,-225.37C858.31,-215.91 833.17,-200.59 814.85,-189.42"/>
<polygon fill="#63b8ff" stroke="#63b8ff" points="816.58,-186.38 806.22,-184.17 812.94,-192.36 816.58,-186.38"/>
</a>
</g>
</g>
<!-- Node18&#45;&gt;Node7 -->
<g id="edge42_Node000018_Node000007" class="edge">
<title>Node18&#45;&gt;Node7</title>
<g id="a_edge42_Node000018_Node000007"><a xlink:title=" ">
<path fill="none" stroke="#63b8ff" d="M1057.23,-109.9C1057.08,-95.95 1054.54,-68.58 1038,-55 1007.12,-29.65 749.72,-17.05 630.36,-12.52"/>
<polygon fill="#63b8ff" stroke="#63b8ff" points="630.4,-9.02 620.28,-12.14 630.14,-16.01 630.4,-9.02"/>
</a>
</g>
</g>
<!-- Node18&#45;&gt;Node11 -->
<g id="edge41_Node000018_Node000011" class="edge">
<title>Node18&#45;&gt;Node11</title>
<g id="a_edge41_Node000018_Node000011"><a xlink:title=" ">
<path fill="none" stroke="#63b8ff" d="M1031.94,-109.98C1005.97,-101.16 965.19,-87.31 936.04,-77.41"/>
<polygon fill="#63b8ff" stroke="#63b8ff" points="936.85,-73.99 926.26,-74.08 934.6,-80.61 936.85,-73.99"/>
</a>
</g>
</g>
<!-- Node19 -->
<g id="Node000019" class="node">
<title>Node19</title>
<g id="a_Node000019"><a xlink:title=" ">
<polygon fill="#e0e0e0" stroke="#999999" points="1028.5,-74 975.5,-74 975.5,-55 1028.5,-55 1028.5,-74"/>
<text text-anchor="middle" x="1002" y="-62" font-family="Helvetica,sans-Serif" font-size="10.00">cstddef</text>
</a>
</g>
</g>
<!-- Node18&#45;&gt;Node19 -->
<g id="edge39_Node000018_Node000019" class="edge">
<title>Node18&#45;&gt;Node19</title>
<g id="a_edge39_Node000018_Node000019"><a xlink:title=" ">
<path fill="none" stroke="#63b8ff" d="M1047.92,-109.75C1039.91,-102.03 1028.04,-90.6 1018.38,-81.28"/>
<polygon fill="#63b8ff" stroke="#63b8ff" points="1020.54,-78.51 1010.91,-74.09 1015.69,-83.55 1020.54,-78.51"/>
</a>
</g>
</g>
<!-- Node20 -->
<g id="Node000020" class="node">
<title>Node20</title>
<g id="a_Node000020"><a xlink:title=" ">
<polygon fill="#e0e0e0" stroke="#999999" points="1226.5,-74 1085.5,-74 1085.5,-55 1226.5,-55 1226.5,-74"/>
<text text-anchor="middle" x="1156" y="-62" font-family="Helvetica,sans-Serif" font-size="10.00">stk_mesh/base/Entity.hpp</text>
</a>
</g>
</g>
<!-- Node18&#45;&gt;Node20 -->
<g id="edge40_Node000018_Node000020" class="edge">
<title>Node18&#45;&gt;Node20</title>
<g id="a_edge40_Node000018_Node000020"><a xlink:title=" ">
<path fill="none" stroke="#63b8ff" d="M1072.91,-109.98C1088.55,-101.61 1112.66,-88.7 1130.88,-78.95"/>
<polygon fill="#63b8ff" stroke="#63b8ff" points="1132.64,-81.98 1139.8,-74.17 1129.34,-75.8 1132.64,-81.98"/>
</a>
</g>
</g>
</g>
</svg>

<g id="navigator" transform="translate(0 0)" fill="#404254">
  <rect fill="#f2f5e9" fill-opacity="0.5" stroke="#606060" stroke-width=".5" x="0" y="0" width="60" height="60"/>
  <use id="zoomplus" xlink:href="#zoomPlus" x="17" y="9" onmousedown="handleZoom(evt,'in')"/>
  <use id="zoomminus" xlink:href="#zoomMin" x="42" y="9" onmousedown="handleZoom(evt,'out')"/>
  <use id="reset" xlink:href="#resetDef" x="30" y="36" onmousedown="handleReset()"/>
   <use id="arrowup" xlink:href="#arrowUp" x="0" y="0" onmousedown="handlePan(0,-1)"/>
  <use id="arrowright" xlink:href="#arrowRight" x="0" y="0" onmousedown="handlePan(1,0)"/>
  <use id="arrowdown" xlink:href="#arrowDown" x="0" y="0" onmousedown="handlePan(0,1)"/>
  <use id="arrowleft" xlink:href="#arrowLeft" x="0" y="0" onmousedown="handlePan(-1,0)"/>
</g>
<svg viewBox="0 0 15 15" width="100%" height="30px" preserveAspectRatio="xMaxYMin meet">
 <g id="arrow_out" transform="scale(0.3 0.3)">
  <a xlink:href="_max_courant_reynolds_8_c__incl_org.svg" target="_base">
   <rect id="button" ry="5" rx="5" y="6" x="6" height="38" width="38"
        fill="#f2f5e9" fill-opacity="0.5" stroke="#606060" stroke-width="1.0"/>
   <path id="arrow"
     d="M 11.500037,31.436501 C 11.940474,20.09759 22.043105,11.32322 32.158766,21.979434 L 37.068811,17.246167 C 37.068811,17.246167 37.088388,32 37.088388,32 L 22.160133,31.978069 C 22.160133,31.978069 26.997745,27.140456 26.997745,27.140456 C 18.528582,18.264221 13.291696,25.230495 11.500037,31.436501 z"
     style="fill:#404040;"/>
  </a>
 </g>
</svg>

<style type='text/css'>
<![CDATA[
[data-mouse-over-selected='false'] { opacity: 0.7; }
[data-mouse-over-selected='true']  { opacity: 1.0; }
]]>
</style>
<script type="application/ecmascript"><![CDATA[
document.addEventListener('DOMContentLoaded', (event) => {
  highlightEdges();
  highlightAdjacentNodes();
});
]]></script>
</svg>
