<?xml version="1.0" encoding="UTF-8" standalone="no"?>
<!DOCTYPE svg PUBLIC "-//W3C//DTD SVG 1.1//EN"
 "http://www.w3.org/Graphics/SVG/1.1/DTD/svg11.dtd">
<!-- Generated by graphviz version 2.43.0 (0)
 -->
<!-- Title: MdotOpenCorrectorAlg.h Pages: 1 -->
<!--zoomable 218 -->
<svg id="main" version="1.1" xmlns="http://www.w3.org/2000/svg" xmlns:xlink="http://www.w3.org/1999/xlink" xml:space="preserve" onload="init(evt)">
<style type="text/css"><![CDATA[
.edge:hover path { stroke: red; }
.edge:hover polygon { stroke: red; fill: red; }
]]></style>
<script type="text/javascript"><![CDATA[
var edges = document.getElementsByTagName('g');
if (edges && edges.length) {
  for (var i=0;i<edges.length;i++) {
    if (edges[i].id.substr(0,4)=='edge') {
      edges[i].setAttribute('class','edge');
    }
  }
}
]]></script>
        <defs>
                <circle id="rim" cx="0" cy="0" r="7"/>
                <circle id="rim2" cx="0" cy="0" r="3.5"/>
                <g id="zoomPlus">
                        <use xlink:href="#rim" fill="#404040">
                                <set attributeName="fill" to="#808080" begin="zoomplus.mouseover" end="zoomplus.mouseout"/>
                        </use>
                        <path d="M-4,0h8M0,-4v8" fill="none" stroke="white" stroke-width="1.5" pointer-events="none"/>
                </g>
                <g id="zoomMin">
                        <use xlink:href="#rim" fill="#404040">
                                <set attributeName="fill" to="#808080" begin="zoomminus.mouseover" end="zoomminus.mouseout"/>
                        </use>
                        <path d="M-4,0h8" fill="none" stroke="white" stroke-width="1.5" pointer-events="none"/>
                </g>
                <g id="dirArrow">
                        <path fill="none" stroke="white" stroke-width="1.5" d="M0,-3.0v7 M-2.5,-0.5L0,-3.0L2.5,-0.5"/>
                </g>
               <g id="resetDef">
                       <use xlink:href="#rim2" fill="#404040">
                               <set attributeName="fill" to="#808080" begin="reset.mouseover" end="reset.mouseout"/>
                       </use>
               </g>
        </defs>

<script type="text/javascript">
var viewWidth = 1126;
var viewHeight = 218;
var sectionId = 'dynsection-1';
</script>
<script xlink:href="svgpan.js"/>
<svg id="graph" class="graph">
<g id="viewport">
<title>MdotOpenCorrectorAlg.h</title>
<polygon fill="white" stroke="transparent" points="-4,4 -4,-214 1121.5,-214 1121.5,4 -4,4"/>
<!-- Node1 -->
<g id="node1" class="node">
<title>Node1</title>
<g id="a_node1"><a xlink:title=" ">
<polygon fill="#bfbfbf" stroke="black" points="614.5,-190.5 614.5,-209.5 751.5,-209.5 751.5,-190.5 614.5,-190.5"/>
<text text-anchor="middle" x="683" y="-197.5" font-family="Helvetica,sans-Serif" font-size="10.00">MdotOpenCorrectorAlg.h</text>
</a>
</g>
</g>
<!-- Node2 -->
<g id="node2" class="node">
<title>Node2</title>
<g id="a_node2"><a xlink:href="_mdot_alg_driver_8h.html" target="_top" xlink:title=" ">
<polygon fill="white" stroke="black" points="597.5,-134.5 597.5,-153.5 692.5,-153.5 692.5,-134.5 597.5,-134.5"/>
<text text-anchor="middle" x="645" y="-141.5" font-family="Helvetica,sans-Serif" font-size="10.00">MdotAlgDriver.h</text>
</a>
</g>
</g>
<!-- Node1&#45;&gt;Node2 -->
<g id="edge1" class="edge">
<title>Node1&#45;&gt;Node2</title>
<path fill="none" stroke="midnightblue" d="M670.94,-181.86C664.36,-172.5 656.49,-161.33 651.16,-153.75"/>
<polygon fill="midnightblue" stroke="midnightblue" points="668.11,-183.92 676.73,-190.08 673.83,-179.89 668.11,-183.92"/>
</g>
<!-- Node10 -->
<g id="node10" class="node">
<title>Node10</title>
<g id="a_node10"><a xlink:href="_mdot_open_corrector_alg_8_c.html" target="_top" xlink:title=" ">
<polygon fill="white" stroke="black" points="980.5,-73 980.5,-92 1117.5,-92 1117.5,-73 980.5,-73"/>
<text text-anchor="middle" x="1049" y="-80" font-family="Helvetica,sans-Serif" font-size="10.00">MdotOpenCorrectorAlg.C</text>
</a>
</g>
</g>
<!-- Node1&#45;&gt;Node10 -->
<g id="edge12" class="edge">
<title>Node1&#45;&gt;Node10</title>
<path fill="none" stroke="midnightblue" d="M719.98,-187.33C793.54,-164.12 956.72,-112.62 1021.61,-92.14"/>
<polygon fill="midnightblue" stroke="midnightblue" points="718.69,-184.07 710.21,-190.41 720.8,-190.74 718.69,-184.07"/>
</g>
<!-- Node3 -->
<g id="node3" class="node">
<title>Node3</title>
<g id="a_node3"><a xlink:href="_momentum_body_force_box_node_kernel_8h.html" target="_top" xlink:title=" ">
<polygon fill="white" stroke="black" points="104,-67.5 104,-97.5 272,-97.5 272,-67.5 104,-67.5"/>
<text text-anchor="start" x="112" y="-85.5" font-family="Helvetica,sans-Serif" font-size="10.00">MomentumBodyForceBoxNode</text>
<text text-anchor="middle" x="188" y="-74.5" font-family="Helvetica,sans-Serif" font-size="10.00">Kernel.h</text>
</a>
</g>
</g>
<!-- Node2&#45;&gt;Node3 -->
<g id="edge2" class="edge">
<title>Node2&#45;&gt;Node3</title>
<path fill="none" stroke="midnightblue" d="M587.03,-136.41C515.15,-128.1 388.89,-113.08 281,-98 278.09,-97.59 275.12,-97.17 272.13,-96.74"/>
<polygon fill="midnightblue" stroke="midnightblue" points="586.9,-139.92 597.24,-137.58 587.7,-132.96 586.9,-139.92"/>
</g>
<!-- Node4 -->
<g id="node4" class="node">
<title>Node4</title>
<g id="a_node4"><a xlink:href="_low_mach_equation_system_8_c.html" target="_top" xlink:title=" ">
<polygon fill="white" stroke="black" points="0,-6 0,-25 152,-25 152,-6 0,-6"/>
<text text-anchor="middle" x="76" y="-13" font-family="Helvetica,sans-Serif" font-size="10.00">LowMachEquationSystem.C</text>
</a>
</g>
</g>
<!-- Node2&#45;&gt;Node4 -->
<g id="edge5" class="edge">
<title>Node2&#45;&gt;Node4</title>
<path fill="none" stroke="midnightblue" d="M587.26,-142.07C453.63,-139.37 131.68,-129.64 95,-98 73.55,-79.5 73.75,-41.89 75.07,-25.03"/>
<polygon fill="midnightblue" stroke="midnightblue" points="587.24,-145.57 597.31,-142.26 587.38,-138.57 587.24,-145.57"/>
</g>
<!-- Node6 -->
<g id="node6" class="node">
<title>Node6</title>
<g id="a_node6"><a xlink:href="_dynamic_pressure_open_alg_8_c.html" target="_top" xlink:title=" ">
<polygon fill="white" stroke="black" points="290.5,-73 290.5,-92 443.5,-92 443.5,-73 290.5,-73"/>
<text text-anchor="middle" x="367" y="-80" font-family="Helvetica,sans-Serif" font-size="10.00">DynamicPressureOpenAlg.C</text>
</a>
</g>
</g>
<!-- Node2&#45;&gt;Node6 -->
<g id="edge6" class="edge">
<title>Node2&#45;&gt;Node6</title>
<path fill="none" stroke="midnightblue" d="M595.15,-132.33C541.24,-120.79 456.37,-102.63 406.76,-92.01"/>
<polygon fill="midnightblue" stroke="midnightblue" points="594.66,-135.8 605.17,-134.48 596.12,-128.96 594.66,-135.8"/>
</g>
<!-- Node7 -->
<g id="node7" class="node">
<title>Node7</title>
<g id="a_node7"><a xlink:href="_mdot_alg_driver_8_c.html" target="_top" xlink:title=" ">
<polygon fill="white" stroke="black" points="462,-73 462,-92 558,-92 558,-73 462,-73"/>
<text text-anchor="middle" x="510" y="-80" font-family="Helvetica,sans-Serif" font-size="10.00">MdotAlgDriver.C</text>
</a>
</g>
</g>
<!-- Node2&#45;&gt;Node7 -->
<g id="edge7" class="edge">
<title>Node2&#45;&gt;Node7</title>
<path fill="none" stroke="midnightblue" d="M616.25,-130.33C590.04,-118.78 552.05,-102.03 529.31,-92.01"/>
<polygon fill="midnightblue" stroke="midnightblue" points="615.1,-133.64 625.66,-134.48 617.92,-127.24 615.1,-133.64"/>
</g>
<!-- Node8 -->
<g id="node8" class="node">
<title>Node8</title>
<g id="a_node8"><a xlink:href="_mdot_density_accum_alg_8_c.html" target="_top" xlink:title=" ">
<polygon fill="white" stroke="black" points="576.5,-73 576.5,-92 713.5,-92 713.5,-73 576.5,-73"/>
<text text-anchor="middle" x="645" y="-80" font-family="Helvetica,sans-Serif" font-size="10.00">MdotDensityAccumAlg.C</text>
</a>
</g>
</g>
<!-- Node2&#45;&gt;Node8 -->
<g id="edge8" class="edge">
<title>Node2&#45;&gt;Node8</title>
<path fill="none" stroke="midnightblue" d="M645,-124.32C645,-113.5 645,-100.4 645,-92.01"/>
<polygon fill="midnightblue" stroke="midnightblue" points="641.5,-124.48 645,-134.48 648.5,-124.48 641.5,-124.48"/>
</g>
<!-- Node9 -->
<g id="node9" class="node">
<title>Node9</title>
<g id="a_node9"><a xlink:href="_mdot_inflow_alg_8_c.html" target="_top" xlink:title=" ">
<polygon fill="white" stroke="black" points="732,-73 732,-92 828,-92 828,-73 732,-73"/>
<text text-anchor="middle" x="780" y="-80" font-family="Helvetica,sans-Serif" font-size="10.00">MdotInflowAlg.C</text>
</a>
</g>
</g>
<!-- Node2&#45;&gt;Node9 -->
<g id="edge9" class="edge">
<title>Node2&#45;&gt;Node9</title>
<path fill="none" stroke="midnightblue" d="M673.75,-130.33C699.96,-118.78 737.95,-102.03 760.69,-92.01"/>
<polygon fill="midnightblue" stroke="midnightblue" points="672.08,-127.24 664.34,-134.48 674.9,-133.64 672.08,-127.24"/>
</g>
<!-- Node2&#45;&gt;Node10 -->
<g id="edge10" class="edge">
<title>Node2&#45;&gt;Node10</title>
<path fill="none" stroke="midnightblue" d="M702.7,-135.86C767.95,-127.6 877.31,-113.17 971,-98 982.01,-96.22 993.87,-94.11 1004.92,-92.06"/>
<polygon fill="midnightblue" stroke="midnightblue" points="702.1,-132.41 692.61,-137.13 702.97,-139.35 702.1,-132.41"/>
</g>
<!-- Node11 -->
<g id="node11" class="node">
<title>Node11</title>
<g id="a_node11"><a xlink:href="_mdot_open_edge_alg_8_c.html" target="_top" xlink:title=" ">
<polygon fill="white" stroke="black" points="846,-73 846,-92 962,-92 962,-73 846,-73"/>
<text text-anchor="middle" x="904" y="-80" font-family="Helvetica,sans-Serif" font-size="10.00">MdotOpenEdgeAlg.C</text>
</a>
</g>
</g>
<!-- Node2&#45;&gt;Node11 -->
<g id="edge11" class="edge">
<title>Node2&#45;&gt;Node11</title>
<path fill="none" stroke="midnightblue" d="M692.07,-132.19C742.33,-120.64 820.93,-102.58 866.96,-92.01"/>
<polygon fill="midnightblue" stroke="midnightblue" points="691.07,-128.82 682.11,-134.48 692.64,-135.65 691.07,-128.82"/>
</g>
<!-- Node3&#45;&gt;Node4 -->
<g id="edge3" class="edge">
<title>Node3&#45;&gt;Node4</title>
<path fill="none" stroke="midnightblue" d="M154.93,-62.31C133.59,-49.93 106.89,-34.43 90.66,-25.01"/>
<polygon fill="midnightblue" stroke="midnightblue" points="153.29,-65.4 163.7,-67.4 156.81,-59.35 153.29,-65.4"/>
</g>
<!-- Node5 -->
<g id="node5" class="node">
<title>Node5</title>
<g id="a_node5"><a xlink:href="_momentum_body_force_box_node_kernel_8_c.html" target="_top" xlink:title=" ">
<polygon fill="white" stroke="black" points="170,-0.5 170,-30.5 338,-30.5 338,-0.5 170,-0.5"/>
<text text-anchor="start" x="178" y="-18.5" font-family="Helvetica,sans-Serif" font-size="10.00">MomentumBodyForceBoxNode</text>
<text text-anchor="middle" x="254" y="-7.5" font-family="Helvetica,sans-Serif" font-size="10.00">Kernel.C</text>
</a>
</g>
</g>
<!-- Node3&#45;&gt;Node5 -->
<g id="edge4" class="edge">
<title>Node3&#45;&gt;Node5</title>
<path fill="none" stroke="midnightblue" d="M209.51,-60.31C219.41,-50.56 230.89,-39.26 239.71,-30.58"/>
<polygon fill="midnightblue" stroke="midnightblue" points="206.99,-57.89 202.32,-67.4 211.9,-62.87 206.99,-57.89"/>
</g>
</g>
</svg>
        <g id="navigator" transform="translate(0 0)" fill="#404254">
                <rect fill="#f2f5e9" fill-opacity="0.5" stroke="#606060" stroke-width=".5" x="0" y="0" width="60" height="60"/>
                <use id="zoomplus" xlink:href="#zoomPlus" x="17" y="9" onmousedown="handleZoom(evt,'in')"/>
                <use id="zoomminus" xlink:href="#zoomMin" x="42" y="9" onmousedown="handleZoom(evt,'out')"/>
                <use id="reset" xlink:href="#resetDef" x="30" y="36" onmousedown="handleReset()"/>
                <g id="arrowUp" xlink:href="#dirArrow" transform="translate(30 24)" onmousedown="handlePan(0,-1)">
                  <use xlink:href="#rim" fill="#404040">
                        <set attributeName="fill" to="#808080" begin="arrowUp.mouseover" end="arrowUp.mouseout"/>
                  </use>
                  <path fill="none" stroke="white" stroke-width="1.5" d="M0,-3.0v7 M-2.5,-0.5L0,-3.0L2.5,-0.5"/>
                </g>
                <g id="arrowRight" xlink:href="#dirArrow" transform="rotate(90) translate(36 -43)" onmousedown="handlePan(1,0)">
                  <use xlink:href="#rim" fill="#404040">
                        <set attributeName="fill" to="#808080" begin="arrowRight.mouseover" end="arrowRight.mouseout"/>
                  </use>
                  <path fill="none" stroke="white" stroke-width="1.5" d="M0,-3.0v7 M-2.5,-0.5L0,-3.0L2.5,-0.5"/>
                </g>
                <g id="arrowDown" xlink:href="#dirArrow" transform="rotate(180) translate(-30 -48)" onmousedown="handlePan(0,1)">
                  <use xlink:href="#rim" fill="#404040">
                        <set attributeName="fill" to="#808080" begin="arrowDown.mouseover" end="arrowDown.mouseout"/>
                  </use>
                  <path fill="none" stroke="white" stroke-width="1.5" d="M0,-3.0v7 M-2.5,-0.5L0,-3.0L2.5,-0.5"/>
                </g>
                <g id="arrowLeft" xlink:href="#dirArrow" transform="rotate(270) translate(-36 17)" onmousedown="handlePan(-1,0)">
                  <use xlink:href="#rim" fill="#404040">
                        <set attributeName="fill" to="#808080" begin="arrowLeft.mouseover" end="arrowLeft.mouseout"/>
                  </use>
                  <path fill="none" stroke="white" stroke-width="1.5" d="M0,-3.0v7 M-2.5,-0.5L0,-3.0L2.5,-0.5"/>
                </g>
        </g>
        <svg viewBox="0 0 15 15" width="100%" height="30px" preserveAspectRatio="xMaxYMin meet">
         <g id="arrow_out" transform="scale(0.3 0.3)">
          <a xlink:href="_mdot_open_corrector_alg_8h__dep__incl_org.svg" target="_base">
           <rect id="button" ry="5" rx="5" y="6" x="6" height="38" width="38"
                fill="#f2f5e9" fill-opacity="0.5" stroke="#606060" stroke-width="1.0"/>
           <path id="arrow"
             d="M 11.500037,31.436501 C 11.940474,20.09759 22.043105,11.32322 32.158766,21.979434 L 37.068811,17.246167 C 37.068811,17.246167 37.088388,32 37.088388,32 L 22.160133,31.978069 C 22.160133,31.978069 26.997745,27.140456 26.997745,27.140456 C 18.528582,18.264221 13.291696,25.230495 11.500037,31.436501 z"
             style="fill:#404040;"/>
          </a>
         </g>
        </svg>
</svg>
