<?xml version="1.0" encoding="UTF-8" standalone="no"?>
<!DOCTYPE svg PUBLIC "-//W3C//DTD SVG 1.1//EN"
 "http://www.w3.org/Graphics/SVG/1.1/DTD/svg11.dtd">
<!-- Generated by graphviz version 2.43.0 (0)
 -->
<!-- Title: MomentumOperator.h Pages: 1 -->
<svg width="441pt" height="207pt"
 viewBox="0.00 0.00 441.00 207.00" xmlns="http://www.w3.org/2000/svg" xmlns:xlink="http://www.w3.org/1999/xlink">
<g id="graph0" class="graph" transform="scale(1 1) rotate(0) translate(4 203)">
<title>MomentumOperator.h</title>
<polygon fill="white" stroke="transparent" points="-4,4 -4,-203 437,-203 437,4 -4,4"/>
<!-- Node1 -->
<g id="node1" class="node">
<title>Node1</title>
<g id="a_node1"><a xlink:title=" ">
<polygon fill="#bfbfbf" stroke="black" points="217.5,-179.5 217.5,-198.5 341.5,-198.5 341.5,-179.5 217.5,-179.5"/>
<text text-anchor="middle" x="279.5" y="-186.5" font-family="Helvetica,sans-Serif" font-size="10.00">MomentumOperator.h</text>
</a>
</g>
</g>
<!-- Node2 -->
<g id="node2" class="node">
<title>Node2</title>
<g id="a_node2"><a xlink:href="_momentum_solution_update_8h.html" target="_top" xlink:title=" ">
<polygon fill="white" stroke="black" points="94,-123.5 94,-142.5 251,-142.5 251,-123.5 94,-123.5"/>
<text text-anchor="middle" x="172.5" y="-130.5" font-family="Helvetica,sans-Serif" font-size="10.00">MomentumSolutionUpdate.h</text>
</a>
</g>
</g>
<!-- Node1&#45;&gt;Node2 -->
<g id="edge1" class="edge">
<title>Node1&#45;&gt;Node2</title>
<path fill="none" stroke="midnightblue" d="M253.2,-174.73C233.39,-164.73 206.79,-151.31 189.65,-142.65"/>
<polygon fill="midnightblue" stroke="midnightblue" points="251.8,-177.94 262.31,-179.32 254.96,-171.69 251.8,-177.94"/>
</g>
<!-- Node6 -->
<g id="node6" class="node">
<title>Node6</title>
<g id="a_node6"><a xlink:href="_momentum_solution_update_8_c.html" target="_top" xlink:title=" ">
<polygon fill="white" stroke="black" points="200.5,-67.5 200.5,-86.5 358.5,-86.5 358.5,-67.5 200.5,-67.5"/>
<text text-anchor="middle" x="279.5" y="-74.5" font-family="Helvetica,sans-Serif" font-size="10.00">MomentumSolutionUpdate.C</text>
</a>
</g>
</g>
<!-- Node1&#45;&gt;Node6 -->
<g id="edge7" class="edge">
<title>Node1&#45;&gt;Node6</title>
<path fill="none" stroke="midnightblue" d="M279.5,-169.35C279.5,-145.25 279.5,-104.31 279.5,-86.59"/>
<polygon fill="midnightblue" stroke="midnightblue" points="276,-169.37 279.5,-179.37 283,-169.37 276,-169.37"/>
</g>
<!-- Node7 -->
<g id="node7" class="node">
<title>Node7</title>
<g id="a_node7"><a xlink:href="_momentum_operator_8_c.html" target="_top" xlink:title=" ">
<polygon fill="white" stroke="black" points="308,-123.5 308,-142.5 433,-142.5 433,-123.5 308,-123.5"/>
<text text-anchor="middle" x="370.5" y="-130.5" font-family="Helvetica,sans-Serif" font-size="10.00">MomentumOperator.C</text>
</a>
</g>
</g>
<!-- Node1&#45;&gt;Node7 -->
<g id="edge6" class="edge">
<title>Node1&#45;&gt;Node7</title>
<path fill="none" stroke="midnightblue" d="M302.79,-174.18C319.54,-164.24 341.6,-151.15 355.92,-142.65"/>
<polygon fill="midnightblue" stroke="midnightblue" points="300.93,-171.21 294.12,-179.32 304.51,-177.23 300.93,-171.21"/>
</g>
<!-- Node3 -->
<g id="node3" class="node">
<title>Node3</title>
<g id="a_node3"><a xlink:href="_low_mach_update_8h.html" target="_top" xlink:title=" ">
<polygon fill="white" stroke="black" points="75,-67.5 75,-86.5 182,-86.5 182,-67.5 75,-67.5"/>
<text text-anchor="middle" x="128.5" y="-74.5" font-family="Helvetica,sans-Serif" font-size="10.00">LowMachUpdate.h</text>
</a>
</g>
</g>
<!-- Node2&#45;&gt;Node3 -->
<g id="edge2" class="edge">
<title>Node2&#45;&gt;Node3</title>
<path fill="none" stroke="midnightblue" d="M158.77,-115.14C151.1,-105.74 141.87,-94.4 135.63,-86.75"/>
<polygon fill="midnightblue" stroke="midnightblue" points="156.2,-117.54 165.23,-123.08 161.63,-113.12 156.2,-117.54"/>
</g>
<!-- Node2&#45;&gt;Node6 -->
<g id="edge5" class="edge">
<title>Node2&#45;&gt;Node6</title>
<path fill="none" stroke="midnightblue" d="M198.8,-118.73C218.61,-108.73 245.21,-95.31 262.35,-86.65"/>
<polygon fill="midnightblue" stroke="midnightblue" points="197.04,-115.69 189.69,-123.32 200.2,-121.94 197.04,-115.69"/>
</g>
<!-- Node4 -->
<g id="node4" class="node">
<title>Node4</title>
<g id="a_node4"><a xlink:href="_low_mach_update_8_c.html" target="_top" xlink:title=" ">
<polygon fill="white" stroke="black" points="0,-6 0,-25 107,-25 107,-6 0,-6"/>
<text text-anchor="middle" x="53.5" y="-13" font-family="Helvetica,sans-Serif" font-size="10.00">LowMachUpdate.C</text>
</a>
</g>
</g>
<!-- Node3&#45;&gt;Node4 -->
<g id="edge3" class="edge">
<title>Node3&#45;&gt;Node4</title>
<path fill="none" stroke="midnightblue" d="M109.56,-60.97C95.21,-49.59 76.02,-34.37 64.23,-25.01"/>
<polygon fill="midnightblue" stroke="midnightblue" points="107.74,-64 117.75,-67.48 112.1,-58.52 107.74,-64"/>
</g>
<!-- Node5 -->
<g id="node5" class="node">
<title>Node5</title>
<g id="a_node5"><a xlink:href="_matrix_free_low_mach_equation_system_8_c.html" target="_top" xlink:title=" ">
<polygon fill="white" stroke="black" points="125.5,-0.5 125.5,-30.5 283.5,-30.5 283.5,-0.5 125.5,-0.5"/>
<text text-anchor="start" x="133.5" y="-18.5" font-family="Helvetica,sans-Serif" font-size="10.00">MatrixFreeLowMachEquation</text>
<text text-anchor="middle" x="204.5" y="-7.5" font-family="Helvetica,sans-Serif" font-size="10.00">System.C</text>
</a>
</g>
</g>
<!-- Node3&#45;&gt;Node5 -->
<g id="edge4" class="edge">
<title>Node3&#45;&gt;Node5</title>
<path fill="none" stroke="midnightblue" d="M147.41,-61.2C159.39,-51.81 174.8,-39.75 186.59,-30.52"/>
<polygon fill="midnightblue" stroke="midnightblue" points="145.11,-58.55 139.39,-67.48 149.42,-64.07 145.11,-58.55"/>
</g>
</g>
</svg>
