<?xml version="1.0" encoding="UTF-8" standalone="no"?>
<!DOCTYPE svg PUBLIC "-//W3C//DTD SVG 1.1//EN"
 "http://www.w3.org/Graphics/SVG/1.1/DTD/svg11.dtd">
<!-- Generated by graphviz version 2.43.0 (0)
 -->
<!-- Title: MomentumOperator.h Pages: 1 -->
<svg width="1363pt" height="252pt"
 viewBox="0.00 0.00 1363.00 252.00" xmlns="http://www.w3.org/2000/svg" xmlns:xlink="http://www.w3.org/1999/xlink">
<g id="graph0" class="graph" transform="scale(1 1) rotate(0) translate(4 248)">
<title>MomentumOperator.h</title>
<polygon fill="white" stroke="transparent" points="-4,4 -4,-248 1359,-248 1359,4 -4,4"/>
<!-- Node1 -->
<g id="node1" class="node">
<title>Node1</title>
<g id="a_node1"><a xlink:title=" ">
<polygon fill="#bfbfbf" stroke="black" points="614.5,-224.5 614.5,-243.5 738.5,-243.5 738.5,-224.5 614.5,-224.5"/>
<text text-anchor="middle" x="676.5" y="-231.5" font-family="Helvetica,sans-Serif" font-size="10.00">MomentumOperator.h</text>
</a>
</g>
</g>
<!-- Node2 -->
<g id="node2" class="node">
<title>Node2</title>
<g id="a_node2"><a xlink:href="_kokkos_view_types_8h.html" target="_top" xlink:title=" ">
<polygon fill="white" stroke="black" points="755.5,-112.5 755.5,-131.5 927.5,-131.5 927.5,-112.5 755.5,-112.5"/>
<text text-anchor="middle" x="841.5" y="-119.5" font-family="Helvetica,sans-Serif" font-size="10.00">matrix_free/KokkosViewTypes.h</text>
</a>
</g>
</g>
<!-- Node1&#45;&gt;Node2 -->
<g id="edge1" class="edge">
<title>Node1&#45;&gt;Node2</title>
<path fill="none" stroke="midnightblue" d="M614.23,-231.51C543.44,-228.36 434.33,-218.52 408.5,-188 402.76,-181.21 402.55,-174.6 408.5,-168 430.62,-143.46 624.49,-131.45 745.19,-126.3"/>
<polygon fill="midnightblue" stroke="midnightblue" points="745.35,-129.8 755.19,-125.88 745.06,-122.81 745.35,-129.8"/>
</g>
<!-- Node8 -->
<g id="node8" class="node">
<title>Node8</title>
<g id="a_node8"><a xlink:href="_lin_sys_info_8h.html" target="_top" xlink:title=" ">
<polygon fill="white" stroke="black" points="169.5,-168.5 169.5,-187.5 305.5,-187.5 305.5,-168.5 169.5,-168.5"/>
<text text-anchor="middle" x="237.5" y="-175.5" font-family="Helvetica,sans-Serif" font-size="10.00">matrix_free/LinSysInfo.h</text>
</a>
</g>
</g>
<!-- Node1&#45;&gt;Node8 -->
<g id="edge7" class="edge">
<title>Node1&#45;&gt;Node8</title>
<path fill="none" stroke="midnightblue" d="M614.07,-225.32C535.7,-215.68 401.25,-199.14 316,-188.66"/>
<polygon fill="midnightblue" stroke="midnightblue" points="316.21,-185.16 305.85,-187.41 315.35,-192.1 316.21,-185.16"/>
</g>
<!-- Node10 -->
<g id="node10" class="node">
<title>Node10</title>
<g id="a_node10"><a xlink:title=" ">
<polygon fill="white" stroke="#bfbfbf" points="306,-112.5 306,-131.5 435,-131.5 435,-112.5 306,-112.5"/>
<text text-anchor="middle" x="370.5" y="-119.5" font-family="Helvetica,sans-Serif" font-size="10.00">Tpetra_MultiVector.hpp</text>
</a>
</g>
</g>
<!-- Node1&#45;&gt;Node10 -->
<g id="edge15" class="edge">
<title>Node1&#45;&gt;Node10</title>
<path fill="none" stroke="midnightblue" d="M614.2,-229.69C543.04,-224.75 432.22,-213.19 399.5,-188 384.99,-176.83 377.56,-156.8 373.88,-141.92"/>
<polygon fill="midnightblue" stroke="midnightblue" points="377.22,-140.84 371.73,-131.78 370.37,-142.28 377.22,-140.84"/>
</g>
<!-- Node12 -->
<g id="node12" class="node">
<title>Node12</title>
<g id="a_node12"><a xlink:title=" ">
<polygon fill="white" stroke="#bfbfbf" points="417.5,-168.5 417.5,-187.5 519.5,-187.5 519.5,-168.5 417.5,-168.5"/>
<text text-anchor="middle" x="468.5" y="-175.5" font-family="Helvetica,sans-Serif" font-size="10.00">Kokkos_Array.hpp</text>
</a>
</g>
</g>
<!-- Node1&#45;&gt;Node12 -->
<g id="edge11" class="edge">
<title>Node1&#45;&gt;Node12</title>
<path fill="none" stroke="midnightblue" d="M643.54,-224.44C607.71,-215.14 550.34,-200.25 511.11,-190.06"/>
<polygon fill="midnightblue" stroke="midnightblue" points="511.86,-186.64 501.3,-187.52 510.1,-193.42 511.86,-186.64"/>
</g>
<!-- Node13 -->
<g id="node13" class="node">
<title>Node13</title>
<g id="a_node13"><a xlink:title=" ">
<polygon fill="white" stroke="#bfbfbf" points="537.5,-168.5 537.5,-187.5 677.5,-187.5 677.5,-168.5 537.5,-168.5"/>
<text text-anchor="middle" x="607.5" y="-175.5" font-family="Helvetica,sans-Serif" font-size="10.00">Teuchos_BLAS_types.hpp</text>
</a>
</g>
</g>
<!-- Node1&#45;&gt;Node13 -->
<g id="edge12" class="edge">
<title>Node1&#45;&gt;Node13</title>
<path fill="none" stroke="midnightblue" d="M665.41,-224.32C655.01,-216.18 639.24,-203.84 626.78,-194.09"/>
<polygon fill="midnightblue" stroke="midnightblue" points="628.82,-191.24 618.79,-187.83 624.51,-196.75 628.82,-191.24"/>
</g>
<!-- Node14 -->
<g id="node14" class="node">
<title>Node14</title>
<g id="a_node14"><a xlink:title=" ">
<polygon fill="white" stroke="#bfbfbf" points="695.5,-168.5 695.5,-187.5 795.5,-187.5 795.5,-168.5 695.5,-168.5"/>
<text text-anchor="middle" x="745.5" y="-175.5" font-family="Helvetica,sans-Serif" font-size="10.00">Teuchos_RCP.hpp</text>
</a>
</g>
</g>
<!-- Node1&#45;&gt;Node14 -->
<g id="edge13" class="edge">
<title>Node1&#45;&gt;Node14</title>
<path fill="none" stroke="midnightblue" d="M687.59,-224.32C697.99,-216.18 713.76,-203.84 726.22,-194.09"/>
<polygon fill="midnightblue" stroke="midnightblue" points="728.49,-196.75 734.21,-187.83 724.18,-191.24 728.49,-196.75"/>
</g>
<!-- Node15 -->
<g id="node15" class="node">
<title>Node15</title>
<g id="a_node15"><a xlink:title=" ">
<polygon fill="white" stroke="#bfbfbf" points="813.5,-168.5 813.5,-187.5 919.5,-187.5 919.5,-168.5 813.5,-168.5"/>
<text text-anchor="middle" x="866.5" y="-175.5" font-family="Helvetica,sans-Serif" font-size="10.00">Tpetra_Export.hpp</text>
</a>
</g>
</g>
<!-- Node1&#45;&gt;Node15 -->
<g id="edge14" class="edge">
<title>Node1&#45;&gt;Node15</title>
<path fill="none" stroke="midnightblue" d="M706.61,-224.44C739.13,-215.2 791.08,-200.44 826.89,-190.26"/>
<polygon fill="midnightblue" stroke="midnightblue" points="827.87,-193.62 836.53,-187.52 825.96,-186.88 827.87,-193.62"/>
</g>
<!-- Node16 -->
<g id="node16" class="node">
<title>Node16</title>
<g id="a_node16"><a xlink:title=" ">
<polygon fill="white" stroke="#bfbfbf" points="937.5,-168.5 937.5,-187.5 1053.5,-187.5 1053.5,-168.5 937.5,-168.5"/>
<text text-anchor="middle" x="995.5" y="-175.5" font-family="Helvetica,sans-Serif" font-size="10.00">Tpetra_Operator.hpp</text>
</a>
</g>
</g>
<!-- Node1&#45;&gt;Node16 -->
<g id="edge16" class="edge">
<title>Node1&#45;&gt;Node16</title>
<path fill="none" stroke="midnightblue" d="M727.05,-224.44C783.51,-214.89 874.87,-199.42 935.07,-189.23"/>
<polygon fill="midnightblue" stroke="midnightblue" points="935.91,-192.64 945.19,-187.52 934.75,-185.73 935.91,-192.64"/>
</g>
<!-- Node17 -->
<g id="node17" class="node">
<title>Node17</title>
<g id="a_node17"><a xlink:href="_low_mach_fields_8h.html" target="_top" xlink:title=" ">
<polygon fill="white" stroke="black" points="1071.5,-168.5 1071.5,-187.5 1171.5,-187.5 1171.5,-168.5 1071.5,-168.5"/>
<text text-anchor="middle" x="1121.5" y="-175.5" font-family="Helvetica,sans-Serif" font-size="10.00">LowMachFields.h</text>
</a>
</g>
</g>
<!-- Node1&#45;&gt;Node17 -->
<g id="edge17" class="edge">
<title>Node1&#45;&gt;Node17</title>
<path fill="none" stroke="midnightblue" d="M738.76,-226.43C813.04,-218.43 941.24,-204.14 1061.21,-188.13"/>
<polygon fill="midnightblue" stroke="midnightblue" points="1061.86,-191.58 1071.31,-186.78 1060.93,-184.64 1061.86,-191.58"/>
</g>
<!-- Node19 -->
<g id="node19" class="node">
<title>Node19</title>
<g id="a_node19"><a xlink:title=" ">
<polygon fill="white" stroke="#bfbfbf" points="1190,-168.5 1190,-187.5 1355,-187.5 1355,-168.5 1190,-168.5"/>
<text text-anchor="middle" x="1272.5" y="-175.5" font-family="Helvetica,sans-Serif" font-size="10.00">stk_util/util/ReportHandler.hpp</text>
</a>
</g>
</g>
<!-- Node1&#45;&gt;Node19 -->
<g id="edge21" class="edge">
<title>Node1&#45;&gt;Node19</title>
<path fill="none" stroke="midnightblue" d="M738.59,-227.63C831.78,-219.52 1013.66,-203.56 1179.37,-188.1"/>
<polygon fill="midnightblue" stroke="midnightblue" points="1180.12,-191.54 1189.75,-187.13 1179.47,-184.57 1180.12,-191.54"/>
</g>
<!-- Node3 -->
<g id="node3" class="node">
<title>Node3</title>
<g id="a_node3"><a xlink:href="_kokkos_framework_8h.html" target="_top" xlink:title=" ">
<polygon fill="white" stroke="black" points="842,-56.5 842,-75.5 1017,-75.5 1017,-56.5 842,-56.5"/>
<text text-anchor="middle" x="929.5" y="-63.5" font-family="Helvetica,sans-Serif" font-size="10.00">matrix_free/KokkosFramework.h</text>
</a>
</g>
</g>
<!-- Node2&#45;&gt;Node3 -->
<g id="edge2" class="edge">
<title>Node2&#45;&gt;Node3</title>
<path fill="none" stroke="midnightblue" d="M855.64,-112.32C869.37,-103.9 890.44,-90.97 906.56,-81.07"/>
<polygon fill="midnightblue" stroke="midnightblue" points="908.7,-83.87 915.4,-75.65 905.04,-77.9 908.7,-83.87"/>
</g>
<!-- Node7 -->
<g id="node7" class="node">
<title>Node7</title>
<g id="a_node7"><a xlink:title=" ">
<polygon fill="white" stroke="#bfbfbf" points="681.5,-56.5 681.5,-75.5 823.5,-75.5 823.5,-56.5 681.5,-56.5"/>
<text text-anchor="middle" x="752.5" y="-63.5" font-family="Helvetica,sans-Serif" font-size="10.00">stk_mesh/base/Types.hpp</text>
</a>
</g>
</g>
<!-- Node2&#45;&gt;Node7 -->
<g id="edge6" class="edge">
<title>Node2&#45;&gt;Node7</title>
<path fill="none" stroke="midnightblue" d="M827.2,-112.32C813.32,-103.9 792.01,-90.97 775.7,-81.07"/>
<polygon fill="midnightblue" stroke="midnightblue" points="777.13,-77.85 766.76,-75.65 773.5,-83.83 777.13,-77.85"/>
</g>
<!-- Node4 -->
<g id="node4" class="node">
<title>Node4</title>
<g id="a_node4"><a xlink:title=" ">
<polygon fill="white" stroke="#bfbfbf" points="901.5,-0.5 901.5,-19.5 1001.5,-19.5 1001.5,-0.5 901.5,-0.5"/>
<text text-anchor="middle" x="951.5" y="-7.5" font-family="Helvetica,sans-Serif" font-size="10.00">Kokkos_Core.hpp</text>
</a>
</g>
</g>
<!-- Node3&#45;&gt;Node4 -->
<g id="edge3" class="edge">
<title>Node3&#45;&gt;Node4</title>
<path fill="none" stroke="midnightblue" d="M933.13,-56.08C936.11,-48.77 940.43,-38.18 944.12,-29.1"/>
<polygon fill="midnightblue" stroke="midnightblue" points="947.4,-30.33 947.93,-19.75 940.92,-27.69 947.4,-30.33"/>
</g>
<!-- Node5 -->
<g id="node5" class="node">
<title>Node5</title>
<g id="a_node5"><a xlink:title=" ">
<polygon fill="white" stroke="#bfbfbf" points="773.5,-0.5 773.5,-19.5 883.5,-19.5 883.5,-0.5 773.5,-0.5"/>
<text text-anchor="middle" x="828.5" y="-7.5" font-family="Helvetica,sans-Serif" font-size="10.00">stk_simd/Simd.hpp</text>
</a>
</g>
</g>
<!-- Node3&#45;&gt;Node5 -->
<g id="edge4" class="edge">
<title>Node3&#45;&gt;Node5</title>
<path fill="none" stroke="midnightblue" d="M913.27,-56.32C897.15,-47.7 872.2,-34.36 853.54,-24.39"/>
<polygon fill="midnightblue" stroke="midnightblue" points="855.16,-21.28 844.69,-19.65 851.86,-27.46 855.16,-21.28"/>
</g>
<!-- Node6 -->
<g id="node6" class="node">
<title>Node6</title>
<g id="a_node6"><a xlink:title=" ">
<polygon fill="white" stroke="#bfbfbf" points="1064,-0.5 1064,-19.5 1133,-19.5 1133,-0.5 1064,-0.5"/>
<text text-anchor="middle" x="1098.5" y="-7.5" font-family="Helvetica,sans-Serif" font-size="10.00">type_traits</text>
</a>
</g>
</g>
<!-- Node3&#45;&gt;Node6 -->
<g id="edge5" class="edge">
<title>Node3&#45;&gt;Node6</title>
<path fill="none" stroke="midnightblue" d="M956.28,-56.44C984.83,-47.32 1030.23,-32.81 1062.04,-22.65"/>
<polygon fill="midnightblue" stroke="midnightblue" points="1063.39,-25.89 1071.85,-19.52 1061.26,-19.23 1063.39,-25.89"/>
</g>
<!-- Node9 -->
<g id="node9" class="node">
<title>Node9</title>
<g id="a_node9"><a xlink:title=" ">
<polygon fill="white" stroke="#bfbfbf" points="0,-112.5 0,-131.5 95,-131.5 95,-112.5 0,-112.5"/>
<text text-anchor="middle" x="47.5" y="-119.5" font-family="Helvetica,sans-Serif" font-size="10.00">Tpetra_Map.hpp</text>
</a>
</g>
</g>
<!-- Node8&#45;&gt;Node9 -->
<g id="edge8" class="edge">
<title>Node8&#45;&gt;Node9</title>
<path fill="none" stroke="midnightblue" d="M207.39,-168.44C174.87,-159.2 122.92,-144.44 87.11,-134.26"/>
<polygon fill="midnightblue" stroke="midnightblue" points="88.04,-130.88 77.47,-131.52 86.13,-137.62 88.04,-130.88"/>
</g>
<!-- Node8&#45;&gt;Node10 -->
<g id="edge9" class="edge">
<title>Node8&#45;&gt;Node10</title>
<path fill="none" stroke="midnightblue" d="M258.57,-168.44C280.56,-159.52 315.23,-145.44 340.16,-135.32"/>
<polygon fill="midnightblue" stroke="midnightblue" points="341.58,-138.52 349.52,-131.52 338.94,-132.04 341.58,-138.52"/>
</g>
<!-- Node11 -->
<g id="node11" class="node">
<title>Node11</title>
<g id="a_node11"><a xlink:title=" ">
<polygon fill="white" stroke="#bfbfbf" points="113.5,-112.5 113.5,-131.5 287.5,-131.5 287.5,-112.5 113.5,-112.5"/>
<text text-anchor="middle" x="200.5" y="-119.5" font-family="Helvetica,sans-Serif" font-size="10.00">stk_mesh/base/GetNgpField.hpp</text>
</a>
</g>
</g>
<!-- Node8&#45;&gt;Node11 -->
<g id="edge10" class="edge">
<title>Node8&#45;&gt;Node11</title>
<path fill="none" stroke="midnightblue" d="M231.39,-168.08C226.22,-160.53 218.65,-149.49 212.31,-140.23"/>
<polygon fill="midnightblue" stroke="midnightblue" points="215.04,-138.02 206.5,-131.75 209.26,-141.98 215.04,-138.02"/>
</g>
<!-- Node17&#45;&gt;Node2 -->
<g id="edge18" class="edge">
<title>Node17&#45;&gt;Node2</title>
<path fill="none" stroke="midnightblue" d="M1077.13,-168.44C1027.88,-158.94 948.37,-143.61 895.53,-133.42"/>
<polygon fill="midnightblue" stroke="midnightblue" points="896.14,-129.97 885.66,-131.52 894.82,-136.85 896.14,-129.97"/>
</g>
<!-- Node18 -->
<g id="node18" class="node">
<title>Node18</title>
<g id="a_node18"><a xlink:href="_polynomial_orders_8h.html" target="_top" xlink:title=" ">
<polygon fill="white" stroke="black" points="1035,-56.5 1035,-75.5 1208,-75.5 1208,-56.5 1035,-56.5"/>
<text text-anchor="middle" x="1121.5" y="-63.5" font-family="Helvetica,sans-Serif" font-size="10.00">matrix_free/PolynomialOrders.h</text>
</a>
</g>
</g>
<!-- Node17&#45;&gt;Node18 -->
<g id="edge19" class="edge">
<title>Node17&#45;&gt;Node18</title>
<path fill="none" stroke="midnightblue" d="M1121.5,-168.37C1121.5,-150.62 1121.5,-109.67 1121.5,-85.6"/>
<polygon fill="midnightblue" stroke="midnightblue" points="1125,-85.59 1121.5,-75.59 1118,-85.59 1125,-85.59"/>
</g>
<!-- Node18&#45;&gt;Node6 -->
<g id="edge20" class="edge">
<title>Node18&#45;&gt;Node6</title>
<path fill="none" stroke="midnightblue" d="M1117.7,-56.08C1114.59,-48.77 1110.08,-38.18 1106.21,-29.1"/>
<polygon fill="midnightblue" stroke="midnightblue" points="1109.37,-27.58 1102.23,-19.75 1102.93,-30.32 1109.37,-27.58"/>
</g>
</g>
</svg>
