<?xml version="1.0" encoding="UTF-8" standalone="no"?>
<!DOCTYPE svg PUBLIC "-//W3C//DTD SVG 1.1//EN"
 "http://www.w3.org/Graphics/SVG/1.1/DTD/svg11.dtd">
<!-- Generated by graphviz version 2.43.0 (0)
 -->
<!-- Title: MomentumABLForceNodeKernel.h Pages: 1 -->
<svg width="1004pt" height="252pt"
 viewBox="0.00 0.00 1004.00 252.00" xmlns="http://www.w3.org/2000/svg" xmlns:xlink="http://www.w3.org/1999/xlink">
<g id="graph0" class="graph" transform="scale(1 1) rotate(0) translate(4 248)">
<title>MomentumABLForceNodeKernel.h</title>
<polygon fill="white" stroke="transparent" points="-4,4 -4,-248 1000,-248 1000,4 -4,4"/>
<!-- Node1 -->
<g id="node1" class="node">
<title>Node1</title>
<g id="a_node1"><a xlink:title=" ">
<polygon fill="#bfbfbf" stroke="black" points="423,-224.5 423,-243.5 606,-243.5 606,-224.5 423,-224.5"/>
<text text-anchor="middle" x="514.5" y="-231.5" font-family="Helvetica,sans-Serif" font-size="10.00">MomentumABLForceNodeKernel.h</text>
</a>
</g>
</g>
<!-- Node2 -->
<g id="node2" class="node">
<title>Node2</title>
<g id="a_node2"><a xlink:href="_node_kernel_8h.html" target="_top" xlink:title=" ">
<polygon fill="white" stroke="black" points="188,-168.5 188,-187.5 337,-187.5 337,-168.5 188,-168.5"/>
<text text-anchor="middle" x="262.5" y="-175.5" font-family="Helvetica,sans-Serif" font-size="10.00">node_kernels/NodeKernel.h</text>
</a>
</g>
</g>
<!-- Node1&#45;&gt;Node2 -->
<g id="edge1" class="edge">
<title>Node1&#45;&gt;Node2</title>
<path fill="none" stroke="midnightblue" d="M474.57,-224.44C430.61,-215.02 359.87,-199.87 312.32,-189.68"/>
<polygon fill="midnightblue" stroke="midnightblue" points="312.75,-186.19 302.24,-187.52 311.29,-193.03 312.75,-186.19"/>
</g>
<!-- Node10 -->
<g id="node10" class="node">
<title>Node10</title>
<g id="a_node10"><a xlink:title=" ">
<polygon fill="white" stroke="#bfbfbf" points="242.5,-112.5 242.5,-131.5 376.5,-131.5 376.5,-112.5 242.5,-112.5"/>
<text text-anchor="middle" x="309.5" y="-119.5" font-family="Helvetica,sans-Serif" font-size="10.00">stk_mesh/base/Ngp.hpp</text>
</a>
</g>
</g>
<!-- Node1&#45;&gt;Node10 -->
<g id="edge18" class="edge">
<title>Node1&#45;&gt;Node10</title>
<path fill="none" stroke="midnightblue" d="M498.41,-224.37C462.79,-205.25 377.02,-159.23 334.4,-136.36"/>
<polygon fill="midnightblue" stroke="midnightblue" points="335.98,-133.24 325.51,-131.59 332.67,-139.4 335.98,-133.24"/>
</g>
<!-- Node11 -->
<g id="node11" class="node">
<title>Node11</title>
<g id="a_node11"><a xlink:title=" ">
<polygon fill="white" stroke="#bfbfbf" points="394.5,-112.5 394.5,-131.5 536.5,-131.5 536.5,-112.5 394.5,-112.5"/>
<text text-anchor="middle" x="465.5" y="-119.5" font-family="Helvetica,sans-Serif" font-size="10.00">stk_mesh/base/Types.hpp</text>
</a>
</g>
</g>
<!-- Node1&#45;&gt;Node11 -->
<g id="edge20" class="edge">
<title>Node1&#45;&gt;Node11</title>
<path fill="none" stroke="midnightblue" d="M506.84,-224.3C499.6,-215.65 488.91,-201.72 482.5,-188 475.56,-173.14 471.11,-154.99 468.52,-141.65"/>
<polygon fill="midnightblue" stroke="midnightblue" points="471.95,-140.99 466.76,-131.76 465.06,-142.21 471.95,-140.99"/>
</g>
<!-- Node12 -->
<g id="node12" class="node">
<title>Node12</title>
<g id="a_node12"><a xlink:href="_a_b_l_src_interp_8h.html" target="_top" xlink:title=" ">
<polygon fill="white" stroke="black" points="491,-168.5 491,-187.5 644,-187.5 644,-168.5 491,-168.5"/>
<text text-anchor="middle" x="567.5" y="-175.5" font-family="Helvetica,sans-Serif" font-size="10.00">wind_energy/ABLSrcInterp.h</text>
</a>
</g>
</g>
<!-- Node1&#45;&gt;Node12 -->
<g id="edge13" class="edge">
<title>Node1&#45;&gt;Node12</title>
<path fill="none" stroke="midnightblue" d="M523.25,-224.08C530.97,-216.22 542.4,-204.57 551.72,-195.08"/>
<polygon fill="midnightblue" stroke="midnightblue" points="554.4,-197.34 558.91,-187.75 549.41,-192.44 554.4,-197.34"/>
</g>
<!-- Node15 -->
<g id="node15" class="node">
<title>Node15</title>
<g id="a_node15"><a xlink:title=" ">
<polygon fill="white" stroke="#bfbfbf" points="662,-168.5 662,-187.5 821,-187.5 821,-168.5 662,-168.5"/>
<text text-anchor="middle" x="741.5" y="-175.5" font-family="Helvetica,sans-Serif" font-size="10.00">stk_mesh/base/BulkData.hpp</text>
</a>
</g>
</g>
<!-- Node1&#45;&gt;Node15 -->
<g id="edge17" class="edge">
<title>Node1&#45;&gt;Node15</title>
<path fill="none" stroke="midnightblue" d="M550.47,-224.44C589.82,-215.08 652.99,-200.06 695.81,-189.87"/>
<polygon fill="midnightblue" stroke="midnightblue" points="696.78,-193.24 705.7,-187.52 695.16,-186.43 696.78,-193.24"/>
</g>
<!-- Node16 -->
<g id="node16" class="node">
<title>Node16</title>
<g id="a_node16"><a xlink:title=" ">
<polygon fill="white" stroke="#bfbfbf" points="839,-168.5 839,-187.5 996,-187.5 996,-168.5 839,-168.5"/>
<text text-anchor="middle" x="917.5" y="-175.5" font-family="Helvetica,sans-Serif" font-size="10.00">stk_mesh/base/NgpField.hpp</text>
</a>
</g>
</g>
<!-- Node1&#45;&gt;Node16 -->
<g id="edge19" class="edge">
<title>Node1&#45;&gt;Node16</title>
<path fill="none" stroke="midnightblue" d="M578.36,-224.44C650.57,-214.77 767.98,-199.04 843.97,-188.85"/>
<polygon fill="midnightblue" stroke="midnightblue" points="844.5,-192.31 853.94,-187.52 843.57,-185.38 844.5,-192.31"/>
</g>
<!-- Node3 -->
<g id="node3" class="node">
<title>Node3</title>
<g id="a_node3"><a xlink:href="_kokkos_interface_8h.html" target="_top" xlink:title=" ">
<polygon fill="white" stroke="black" points="190.5,-56.5 190.5,-75.5 294.5,-75.5 294.5,-56.5 190.5,-56.5"/>
<text text-anchor="middle" x="242.5" y="-63.5" font-family="Helvetica,sans-Serif" font-size="10.00">KokkosInterface.h</text>
</a>
</g>
</g>
<!-- Node2&#45;&gt;Node3 -->
<g id="edge2" class="edge">
<title>Node2&#45;&gt;Node3</title>
<path fill="none" stroke="midnightblue" d="M254.83,-168.46C247.72,-159.93 237.65,-146.09 233.5,-132 228.98,-116.63 232.14,-98.53 235.91,-85.34"/>
<polygon fill="midnightblue" stroke="midnightblue" points="239.32,-86.18 239.06,-75.58 232.66,-84.02 239.32,-86.18"/>
</g>
<!-- Node5 -->
<g id="node5" class="node">
<title>Node5</title>
<g id="a_node5"><a xlink:title=" ">
<polygon fill="white" stroke="#bfbfbf" points="0,-0.5 0,-19.5 141,-19.5 141,-0.5 0,-0.5"/>
<text text-anchor="middle" x="70.5" y="-7.5" font-family="Helvetica,sans-Serif" font-size="10.00">stk_mesh/base/Entity.hpp</text>
</a>
</g>
</g>
<!-- Node2&#45;&gt;Node5 -->
<g id="edge11" class="edge">
<title>Node2&#45;&gt;Node5</title>
<path fill="none" stroke="midnightblue" d="M202.1,-168.44C158.47,-160.98 104.66,-148.73 89.5,-132 64.01,-103.86 64.83,-56.1 67.67,-29.79"/>
<polygon fill="midnightblue" stroke="midnightblue" points="71.17,-30.01 68.98,-19.65 64.22,-29.12 71.17,-30.01"/>
</g>
<!-- Node8 -->
<g id="node8" class="node">
<title>Node8</title>
<g id="a_node8"><a xlink:href="_n_g_p_instance_8h.html" target="_top" xlink:title=" ">
<polygon fill="white" stroke="black" points="98.5,-112.5 98.5,-131.5 186.5,-131.5 186.5,-112.5 98.5,-112.5"/>
<text text-anchor="middle" x="142.5" y="-119.5" font-family="Helvetica,sans-Serif" font-size="10.00">NGPInstance.h</text>
</a>
</g>
</g>
<!-- Node2&#45;&gt;Node8 -->
<g id="edge7" class="edge">
<title>Node2&#45;&gt;Node8</title>
<path fill="none" stroke="midnightblue" d="M243.49,-168.44C223.91,-159.64 193.19,-145.81 170.77,-135.72"/>
<polygon fill="midnightblue" stroke="midnightblue" points="171.98,-132.43 161.43,-131.52 169.11,-138.81 171.98,-132.43"/>
</g>
<!-- Node2&#45;&gt;Node10 -->
<g id="edge10" class="edge">
<title>Node2&#45;&gt;Node10</title>
<path fill="none" stroke="midnightblue" d="M270.26,-168.08C277.04,-160.3 287.04,-148.8 295.26,-139.37"/>
<polygon fill="midnightblue" stroke="midnightblue" points="297.96,-141.59 301.88,-131.75 292.68,-137 297.96,-141.59"/>
</g>
<!-- Node2&#45;&gt;Node11 -->
<g id="edge12" class="edge">
<title>Node2&#45;&gt;Node11</title>
<path fill="none" stroke="midnightblue" d="M294.67,-168.44C329.56,-159.16 385.39,-144.31 423.67,-134.13"/>
<polygon fill="midnightblue" stroke="midnightblue" points="424.72,-137.47 433.48,-131.52 422.92,-130.7 424.72,-137.47"/>
</g>
<!-- Node4 -->
<g id="node4" class="node">
<title>Node4</title>
<g id="a_node4"><a xlink:title=" ">
<polygon fill="white" stroke="#bfbfbf" points="159,-0.5 159,-19.5 212,-19.5 212,-0.5 159,-0.5"/>
<text text-anchor="middle" x="185.5" y="-7.5" font-family="Helvetica,sans-Serif" font-size="10.00">cstddef</text>
</a>
</g>
</g>
<!-- Node3&#45;&gt;Node4 -->
<g id="edge3" class="edge">
<title>Node3&#45;&gt;Node4</title>
<path fill="none" stroke="midnightblue" d="M233.34,-56.32C225,-48.42 212.47,-36.55 202.32,-26.94"/>
<polygon fill="midnightblue" stroke="midnightblue" points="204.49,-24.17 194.82,-19.83 199.68,-29.25 204.49,-24.17"/>
</g>
<!-- Node3&#45;&gt;Node5 -->
<g id="edge4" class="edge">
<title>Node3&#45;&gt;Node5</title>
<path fill="none" stroke="midnightblue" d="M215.25,-56.44C186.06,-47.28 139.58,-32.69 107.19,-22.52"/>
<polygon fill="midnightblue" stroke="midnightblue" points="108.22,-19.17 97.63,-19.52 106.12,-25.85 108.22,-19.17"/>
</g>
<!-- Node6 -->
<g id="node6" class="node">
<title>Node6</title>
<g id="a_node6"><a xlink:title=" ">
<polygon fill="white" stroke="#bfbfbf" points="230,-0.5 230,-19.5 343,-19.5 343,-0.5 230,-0.5"/>
<text text-anchor="middle" x="286.5" y="-7.5" font-family="Helvetica,sans-Serif" font-size="10.00">Kokkos_Macros.hpp</text>
</a>
</g>
</g>
<!-- Node3&#45;&gt;Node6 -->
<g id="edge5" class="edge">
<title>Node3&#45;&gt;Node6</title>
<path fill="none" stroke="midnightblue" d="M249.77,-56.08C256.04,-48.38 265.29,-37.03 272.93,-27.65"/>
<polygon fill="midnightblue" stroke="midnightblue" points="275.77,-29.71 279.37,-19.75 270.34,-25.29 275.77,-29.71"/>
</g>
<!-- Node7 -->
<g id="node7" class="node">
<title>Node7</title>
<g id="a_node7"><a xlink:title=" ">
<polygon fill="white" stroke="#bfbfbf" points="361.5,-0.5 361.5,-19.5 461.5,-19.5 461.5,-0.5 361.5,-0.5"/>
<text text-anchor="middle" x="411.5" y="-7.5" font-family="Helvetica,sans-Serif" font-size="10.00">Kokkos_Core.hpp</text>
</a>
</g>
</g>
<!-- Node3&#45;&gt;Node7 -->
<g id="edge6" class="edge">
<title>Node3&#45;&gt;Node7</title>
<path fill="none" stroke="midnightblue" d="M269.28,-56.44C297.83,-47.32 343.23,-32.81 375.04,-22.65"/>
<polygon fill="midnightblue" stroke="midnightblue" points="376.39,-25.89 384.85,-19.52 374.26,-19.23 376.39,-25.89"/>
</g>
<!-- Node8&#45;&gt;Node3 -->
<g id="edge8" class="edge">
<title>Node8&#45;&gt;Node3</title>
<path fill="none" stroke="midnightblue" d="M158.57,-112.32C174.46,-103.74 199.01,-90.49 217.46,-80.52"/>
<polygon fill="midnightblue" stroke="midnightblue" points="219.34,-83.49 226.47,-75.65 216.01,-77.33 219.34,-83.49"/>
</g>
<!-- Node9 -->
<g id="node9" class="node">
<title>Node9</title>
<g id="a_node9"><a xlink:title=" ">
<polygon fill="white" stroke="#bfbfbf" points="103,-56.5 103,-75.5 172,-75.5 172,-56.5 103,-56.5"/>
<text text-anchor="middle" x="137.5" y="-63.5" font-family="Helvetica,sans-Serif" font-size="10.00">type_traits</text>
</a>
</g>
</g>
<!-- Node8&#45;&gt;Node9 -->
<g id="edge9" class="edge">
<title>Node8&#45;&gt;Node9</title>
<path fill="none" stroke="midnightblue" d="M141.67,-112.08C141.02,-105.01 140.08,-94.86 139.26,-85.99"/>
<polygon fill="midnightblue" stroke="midnightblue" points="142.72,-85.39 138.31,-75.75 135.75,-86.03 142.72,-85.39"/>
</g>
<!-- Node12&#45;&gt;Node3 -->
<g id="edge14" class="edge">
<title>Node12&#45;&gt;Node3</title>
<path fill="none" stroke="midnightblue" d="M567.28,-168.26C566.41,-154.08 562.51,-126.21 545.5,-112 509.96,-82.31 382.51,-72.19 304.68,-68.75"/>
<polygon fill="midnightblue" stroke="midnightblue" points="304.64,-65.25 294.51,-68.33 304.35,-72.24 304.64,-65.25"/>
</g>
<!-- Node13 -->
<g id="node13" class="node">
<title>Node13</title>
<g id="a_node13"><a xlink:title=" ">
<polygon fill="white" stroke="#bfbfbf" points="658,-112.5 658,-131.5 823,-131.5 823,-112.5 658,-112.5"/>
<text text-anchor="middle" x="740.5" y="-119.5" font-family="Helvetica,sans-Serif" font-size="10.00">stk_util/util/ReportHandler.hpp</text>
</a>
</g>
</g>
<!-- Node12&#45;&gt;Node13 -->
<g id="edge15" class="edge">
<title>Node12&#45;&gt;Node13</title>
<path fill="none" stroke="midnightblue" d="M594.91,-168.44C624.27,-159.28 671.02,-144.69 703.6,-134.52"/>
<polygon fill="midnightblue" stroke="midnightblue" points="704.71,-137.84 713.22,-131.52 702.63,-131.16 704.71,-137.84"/>
</g>
<!-- Node14 -->
<g id="node14" class="node">
<title>Node14</title>
<g id="a_node14"><a xlink:title=" ">
<polygon fill="white" stroke="#bfbfbf" points="593,-112.5 593,-131.5 640,-131.5 640,-112.5 593,-112.5"/>
<text text-anchor="middle" x="616.5" y="-119.5" font-family="Helvetica,sans-Serif" font-size="10.00">vector</text>
</a>
</g>
</g>
<!-- Node12&#45;&gt;Node14 -->
<g id="edge16" class="edge">
<title>Node12&#45;&gt;Node14</title>
<path fill="none" stroke="midnightblue" d="M575.59,-168.08C582.66,-160.3 593.09,-148.8 601.65,-139.37"/>
<polygon fill="midnightblue" stroke="midnightblue" points="604.43,-141.51 608.56,-131.75 599.25,-136.8 604.43,-141.51"/>
</g>
</g>
</svg>
