<?xml version="1.0" encoding="UTF-8" standalone="no"?>
<!DOCTYPE svg PUBLIC "-//W3C//DTD SVG 1.1//EN"
 "http://www.w3.org/Graphics/SVG/1.1/DTD/svg11.dtd">
<!-- Generated by graphviz version 2.43.0 (0)
 -->
<!-- Title: MomentumSolutionUpdate.h Pages: 1 -->
<svg width="367pt" height="148pt"
 viewBox="0.00 0.00 366.50 148.00" xmlns="http://www.w3.org/2000/svg" xmlns:xlink="http://www.w3.org/1999/xlink">
<g id="graph0" class="graph" transform="scale(1 1) rotate(0) translate(4 144)">
<title>MomentumSolutionUpdate.h</title>
<!-- Node1 -->
<g id="Node000001" class="node">
<title>Node1</title>
<g id="a_Node000001"><a xlink:title=" ">
<polygon fill="#999999" stroke="#666666" points="282,-140 125,-140 125,-121 282,-121 282,-140"/>
<text text-anchor="middle" x="203.5" y="-128" font-family="Helvetica,sans-Serif" font-size="10.00">MomentumSolutionUpdate.h</text>
</a>
</g>
</g>
<!-- Node2 -->
<g id="Node000002" class="node">
<title>Node2</title>
<g id="a_Node000002"><a xlink:href="_low_mach_update_8h.html" target="_top" xlink:title=" ">
<polygon fill="white" stroke="#666666" points="182,-85 75,-85 75,-66 182,-66 182,-85"/>
<text text-anchor="middle" x="128.5" y="-73" font-family="Helvetica,sans-Serif" font-size="10.00">LowMachUpdate.h</text>
</a>
</g>
</g>
<!-- Node1&#45;&gt;Node2 -->
<g id="edge1_Node000001_Node000002" class="edge">
<title>Node1&#45;&gt;Node2</title>
<g id="a_edge1_Node000001_Node000002"><a xlink:title=" ">
<path fill="none" stroke="#63b8ff" d="M183.19,-115.15C169.64,-105.57 152.26,-93.29 140.77,-85.17"/>
<polygon fill="#63b8ff" stroke="#63b8ff" points="181.26,-118.07 191.45,-120.98 185.3,-112.36 181.26,-118.07"/>
</a>
</g>
</g>
<!-- Node5 -->
<g id="Node000005" class="node">
<title>Node5</title>
<g id="a_Node000005"><a xlink:href="_momentum_solution_update_8_c.html" target="_top" xlink:title=" ">
<polygon fill="white" stroke="#666666" points="358.5,-85 200.5,-85 200.5,-66 358.5,-66 358.5,-85"/>
<text text-anchor="middle" x="279.5" y="-73" font-family="Helvetica,sans-Serif" font-size="10.00">MomentumSolutionUpdate.C</text>
</a>
</g>
</g>
<!-- Node1&#45;&gt;Node5 -->
<g id="edge4_Node000001_Node000005" class="edge">
<title>Node1&#45;&gt;Node5</title>
<g id="a_edge4_Node000001_Node000005"><a xlink:title=" ">
<path fill="none" stroke="#63b8ff" d="M224.08,-115.15C237.81,-105.57 255.43,-93.29 267.07,-85.17"/>
<polygon fill="#63b8ff" stroke="#63b8ff" points="221.91,-112.39 215.71,-120.98 225.92,-118.14 221.91,-112.39"/>
</a>
</g>
</g>
<!-- Node3 -->
<g id="Node000003" class="node">
<title>Node3</title>
<g id="a_Node000003"><a xlink:href="_low_mach_update_8_c.html" target="_top" xlink:title=" ">
<polygon fill="white" stroke="#666666" points="107,-24.5 0,-24.5 0,-5.5 107,-5.5 107,-24.5"/>
<text text-anchor="middle" x="53.5" y="-12.5" font-family="Helvetica,sans-Serif" font-size="10.00">LowMachUpdate.C</text>
</a>
</g>
</g>
<!-- Node2&#45;&gt;Node3 -->
<g id="edge2_Node000002_Node000003" class="edge">
<title>Node2&#45;&gt;Node3</title>
<g id="a_edge2_Node000002_Node000003"><a xlink:title=" ">
<path fill="none" stroke="#63b8ff" d="M109.32,-59.54C95.15,-48.49 76.37,-33.84 64.61,-24.67"/>
<polygon fill="#63b8ff" stroke="#63b8ff" points="107.4,-62.48 117.43,-65.87 111.7,-56.96 107.4,-62.48"/>
</a>
</g>
</g>
<!-- Node4 -->
<g id="Node000004" class="node">
<title>Node4</title>
<g id="a_Node000004"><a xlink:href="_matrix_free_low_mach_equation_system_8_c.html" target="_top" xlink:title=" ">
<polygon fill="white" stroke="#666666" points="283.5,-30 125.5,-30 125.5,0 283.5,0 283.5,-30"/>
<text text-anchor="start" x="133.5" y="-18" font-family="Helvetica,sans-Serif" font-size="10.00">MatrixFreeLowMachEquation</text>
<text text-anchor="middle" x="204.5" y="-7" font-family="Helvetica,sans-Serif" font-size="10.00">System.C</text>
</a>
</g>
</g>
<!-- Node2&#45;&gt;Node4 -->
<g id="edge3_Node000002_Node000004" class="edge">
<title>Node2&#45;&gt;Node4</title>
<g id="a_edge3_Node000002_Node000004"><a xlink:title=" ">
<path fill="none" stroke="#63b8ff" d="M147.64,-59.77C159.45,-50.68 174.51,-39.09 186.16,-30.11"/>
<polygon fill="#63b8ff" stroke="#63b8ff" points="145.5,-56.99 139.71,-65.87 149.77,-62.54 145.5,-56.99"/>
</a>
</g>
</g>
</g>
</svg>
