<?xml version="1.0" encoding="UTF-8" standalone="no"?>
<!DOCTYPE svg PUBLIC "-//W3C//DTD SVG 1.1//EN"
 "http://www.w3.org/Graphics/SVG/1.1/DTD/svg11.dtd">
<!-- Generated by graphviz version 2.43.0 (0)
 -->
<!-- Title: MomentumOperator.C Pages: 1 -->
<!--zoomable 313 -->

<svg id="main" version="1.1" xmlns="http://www.w3.org/2000/svg" xmlns:xlink="http://www.w3.org/1999/xlink" xml:space="preserve" onload="init(evt)">
<style type="text/css"><![CDATA[
.node, .edge {opacity: 0.7;}
.node.selected, .edge.selected {opacity: 1;}
.edge:hover path { stroke: red; }
.edge:hover polygon { stroke: red; fill: red; }
]]></style>

<defs>
  <circle id="rim" cx="0" cy="0" r="7"/>
  <circle id="rim2" cx="0" cy="0" r="3.5"/>
  <g id="zoomPlus">
    <use xlink:href="#rim" fill="#404040"><set attributeName="fill" to="#808080" begin="zoomplus.mouseover" end="zoomplus.mouseout"/></use>
    <path d="M-4,0h8M0,-4v8" fill="none" stroke="white" stroke-width="1.5" pointer-events="none"/>
  </g>
  <g id="zoomMin">
    <use xlink:href="#rim" fill="#404040"><set attributeName="fill" to="#808080" begin="zoomminus.mouseover" end="zoomminus.mouseout"/></use>
    <path d="M-4,0h8" fill="none" stroke="white" stroke-width="1.5" pointer-events="none"/>
  </g>
  <g id="arrowUp" transform="translate(30 24)">
    <use xlink:href="#rim"/>
    <path pointer-events="none" fill="none" stroke="white" stroke-width="1.5" d="M0,-3.0v7 M-2.5,-0.5L0,-3.0L2.5,-0.5"/>
  </g>
  <g id="arrowRight" transform="rotate(90) translate(36 -43)">
    <use xlink:href="#rim"/>
    <path pointer-events="none" fill="none" stroke="white" stroke-width="1.5" d="M0,-3.0v7 M-2.5,-0.5L0,-3.0L2.5,-0.5"/>
  </g>
  <g id="arrowDown" transform="rotate(180) translate(-30 -48)">
    <use xlink:href="#rim"/>
    <path pointer-events="none" fill="none" stroke="white" stroke-width="1.5" d="M0,-3.0v7 M-2.5,-0.5L0,-3.0L2.5,-0.5"/>
  </g>
  <g id="arrowLeft" transform="rotate(270) translate(-36 17)">
    <use xlink:href="#rim"/>
    <path pointer-events="none" fill="none" stroke="white" stroke-width="1.5" d="M0,-3.0v7 M-2.5,-0.5L0,-3.0L2.5,-0.5"/>
  </g>
  <g id="resetDef">
    <use xlink:href="#rim2" fill="#404040"><set attributeName="fill" to="#808080" begin="reset.mouseover" end="reset.mouseout"/></use>
  </g>
</defs>
<script type="application/ecmascript">
var viewWidth = 1602;
var viewHeight = 313;
var sectionId = 'dynsection-0';
</script>
<script type="application/ecmascript" xlink:href="svg.min.js"/>
<svg id="graph" class="graph">
<g id="viewport">
<title>MomentumOperator.C</title>
<!-- Node1 -->
<g id="Node000001" class="node">
<title>Node1</title>
<g id="a_Node000001"><a xlink:title=" ">
<polygon fill="#999999" stroke="#666666" points="778.5,-305 653.5,-305 653.5,-286 778.5,-286 778.5,-305"/>
<text text-anchor="middle" x="716" y="-293" font-family="Helvetica,sans-Serif" font-size="10.00">MomentumOperator.C</text>
</a>
</g>
</g>
<!-- Node2 -->
<g id="Node000002" class="node">
<title>Node2</title>
<g id="a_Node000002"><a xlink:href="_momentum_operator_8h.html" target="_top" xlink:title=" ">
<polygon fill="white" stroke="#666666" points="990,-244.5 806,-244.5 806,-225.5 990,-225.5 990,-244.5"/>
<text text-anchor="middle" x="898" y="-232.5" font-family="Helvetica,sans-Serif" font-size="10.00">matrix_free/MomentumOperator.h</text>
</a>
</g>
</g>
<!-- Node1&#45;&gt;Node2 -->
<g id="edge1_Node000001_Node000002" class="edge">
<title>Node1&#45;&gt;Node2</title>
<g id="a_edge1_Node000001_Node000002"><a xlink:title=" ">
<path fill="none" stroke="#63b8ff" d="M742.46,-285.99C773.87,-275.9 826.4,-259.01 861.62,-247.69"/>
<polygon fill="#63b8ff" stroke="#63b8ff" points="863.05,-250.91 871.5,-244.52 860.91,-244.24 863.05,-250.91"/>
</a>
</g>
</g>
<!-- Node3 -->
<g id="Node000003" class="node">
<title>Node3</title>
<g id="a_Node000003"><a xlink:href="_kokkos_view_types_8h.html" target="_top" xlink:title=" ">
<polygon fill="white" stroke="#666666" points="277,-129 105,-129 105,-110 277,-110 277,-129"/>
<text text-anchor="middle" x="191" y="-117" font-family="Helvetica,sans-Serif" font-size="10.00">matrix_free/KokkosViewTypes.h</text>
</a>
</g>
</g>
<!-- Node1&#45;&gt;Node3 -->
<g id="edge23_Node000001_Node000003" class="edge">
<title>Node1&#45;&gt;Node3</title>
<g id="a_edge23_Node000001_Node000003"><a xlink:title=" ">
<path fill="none" stroke="#63b8ff" d="M653.48,-291.1C525.72,-282.71 241.76,-256.19 183,-184 172.83,-171.5 176.75,-152.78 182.06,-138.91"/>
<polygon fill="#63b8ff" stroke="#63b8ff" points="185.41,-139.99 186.18,-129.42 178.99,-137.2 185.41,-139.99"/>
</a>
</g>
</g>
<!-- Node17 -->
<g id="Node000017" class="node">
<title>Node17</title>
<g id="a_Node000017"><a xlink:title=" ">
<polygon fill="#e0e0e0" stroke="#999999" points="1594,-184 1478,-184 1478,-165 1594,-165 1594,-184"/>
<text text-anchor="middle" x="1536" y="-172" font-family="Helvetica,sans-Serif" font-size="10.00">Tpetra_Operator.hpp</text>
</a>
</g>
</g>
<!-- Node1&#45;&gt;Node17 -->
<g id="edge39_Node000001_Node000017" class="edge">
<title>Node1&#45;&gt;Node17</title>
<g id="a_edge39_Node000001_Node000017"><a xlink:title=" ">
<path fill="none" stroke="#63b8ff" d="M778.7,-293.69C837.8,-290.87 927.68,-281.18 999,-250 1018.72,-241.38 1016.98,-227.9 1037,-220 1123.81,-185.76 1357.94,-193.52 1467.69,-184"/>
<polygon fill="#63b8ff" stroke="#63b8ff" points="1468.29,-187.46 1477.91,-183.02 1467.63,-180.49 1468.29,-187.46"/>
</a>
</g>
</g>
<!-- Node19 -->
<g id="Node000019" class="node">
<title>Node19</title>
<g id="a_Node000019"><a xlink:href="_polynomial_orders_8h.html" target="_top" xlink:title=" ">
<polygon fill="white" stroke="#666666" points="622.5,-129 449.5,-129 449.5,-110 622.5,-110 622.5,-129"/>
<text text-anchor="middle" x="536" y="-117" font-family="Helvetica,sans-Serif" font-size="10.00">matrix_free/PolynomialOrders.h</text>
</a>
</g>
</g>
<!-- Node1&#45;&gt;Node19 -->
<g id="edge34_Node000001_Node000019" class="edge">
<title>Node1&#45;&gt;Node19</title>
<g id="a_edge34_Node000001_Node000019"><a xlink:title=" ">
<path fill="none" stroke="#63b8ff" d="M717.6,-285.96C721.34,-263.17 728.14,-200.26 697,-165 684,-150.28 639.72,-138.69 600.87,-131.03"/>
<polygon fill="#63b8ff" stroke="#63b8ff" points="601.1,-127.5 590.62,-129.07 599.78,-134.38 601.1,-127.5"/>
</a>
</g>
</g>
<!-- Node21 -->
<g id="Node000021" class="node">
<title>Node21</title>
<g id="a_Node000021"><a xlink:href="_momentum_interior_8h.html" target="_top" xlink:title=" ">
<polygon fill="white" stroke="#666666" points="688,-184 512,-184 512,-165 688,-165 688,-184"/>
<text text-anchor="middle" x="600" y="-172" font-family="Helvetica,sans-Serif" font-size="10.00">matrix_free/MomentumInterior.h</text>
</a>
</g>
</g>
<!-- Node1&#45;&gt;Node21 -->
<g id="edge24_Node000001_Node000021" class="edge">
<title>Node1&#45;&gt;Node21</title>
<g id="a_edge24_Node000001_Node000021"><a xlink:title=" ">
<path fill="none" stroke="#63b8ff" d="M707.66,-285.94C688.44,-266.23 640.78,-217.34 615.82,-191.73"/>
<polygon fill="#63b8ff" stroke="#63b8ff" points="618.07,-189.02 608.58,-184.3 613.05,-193.91 618.07,-189.02"/>
</a>
</g>
</g>
<!-- Node24 -->
<g id="Node000024" class="node">
<title>Node24</title>
<g id="a_Node000024"><a xlink:href="_strong_dirichlet_b_c_8h.html" target="_top" xlink:title=" ">
<polygon fill="white" stroke="#666666" points="494,-184 322,-184 322,-165 494,-165 494,-184"/>
<text text-anchor="middle" x="408" y="-172" font-family="Helvetica,sans-Serif" font-size="10.00">matrix_free/StrongDirichletBC.h</text>
</a>
</g>
</g>
<!-- Node1&#45;&gt;Node24 -->
<g id="edge35_Node000001_Node000024" class="edge">
<title>Node1&#45;&gt;Node24</title>
<g id="a_edge35_Node000001_Node000024"><a xlink:title=" ">
<path fill="none" stroke="#63b8ff" d="M693.85,-285.94C640.04,-265.15 502.27,-211.92 439.73,-187.76"/>
<polygon fill="#63b8ff" stroke="#63b8ff" points="440.95,-184.48 430.36,-184.14 438.43,-191.01 440.95,-184.48"/>
</a>
</g>
</g>
<!-- Node25 -->
<g id="Node000025" class="node">
<title>Node25</title>
<g id="a_Node000025"><a xlink:title=" ">
<polygon fill="#e0e0e0" stroke="#999999" points="1198,-250 1046,-250 1046,-220 1198,-220 1198,-250"/>
<text text-anchor="start" x="1054" y="-238" font-family="Helvetica,sans-Serif" font-size="10.00">stk_mesh/base/NgpProfiling</text>
<text text-anchor="middle" x="1122" y="-227" font-family="Helvetica,sans-Serif" font-size="10.00">Block.hpp</text>
</a>
</g>
</g>
<!-- Node1&#45;&gt;Node25 -->
<g id="edge40_Node000001_Node000025" class="edge">
<title>Node1&#45;&gt;Node25</title>
<g id="a_edge40_Node000001_Node000025"><a xlink:title=" ">
<path fill="none" stroke="#63b8ff" d="M778.39,-285.98C842.16,-277.22 944.04,-263.03 1032,-250 1033.28,-249.81 1034.56,-249.62 1035.86,-249.43"/>
<polygon fill="#63b8ff" stroke="#63b8ff" points="1036.53,-252.86 1045.9,-247.92 1035.49,-245.94 1036.53,-252.86"/>
</a>
</g>
</g>
<!-- Node2&#45;&gt;Node3 -->
<g id="edge2_Node000002_Node000003" class="edge">
<title>Node2&#45;&gt;Node3</title>
<g id="a_edge2_Node000002_Node000003"><a xlink:title=" ">
<path fill="none" stroke="#63b8ff" d="M805.82,-234.06C624.89,-233.23 237.11,-226.46 195,-184 183.71,-172.61 183.94,-153.72 186.25,-139.49"/>
<polygon fill="#63b8ff" stroke="#63b8ff" points="189.76,-139.82 188.37,-129.32 182.91,-138.39 189.76,-139.82"/>
</a>
</g>
</g>
<!-- Node9 -->
<g id="Node000009" class="node">
<title>Node9</title>
<g id="a_Node000009"><a xlink:href="_lin_sys_info_8h.html" target="_top" xlink:title=" ">
<polygon fill="white" stroke="#666666" points="918,-184 782,-184 782,-165 918,-165 918,-184"/>
<text text-anchor="middle" x="850" y="-172" font-family="Helvetica,sans-Serif" font-size="10.00">matrix_free/LinSysInfo.h</text>
</a>
</g>
</g>
<!-- Node2&#45;&gt;Node9 -->
<g id="edge8_Node000002_Node000009" class="edge">
<title>Node2&#45;&gt;Node9</title>
<g id="a_edge8_Node000002_Node000009"><a xlink:title=" ">
<path fill="none" stroke="#63b8ff" d="M890.92,-225.37C883.76,-216.64 872.51,-202.93 863.61,-192.09"/>
<polygon fill="#63b8ff" stroke="#63b8ff" points="866.16,-189.68 857.11,-184.17 860.75,-194.12 866.16,-189.68"/>
</a>
</g>
</g>
<!-- Node11 -->
<g id="Node000011" class="node">
<title>Node11</title>
<g id="a_Node000011"><a xlink:title=" ">
<polygon fill="#e0e0e0" stroke="#999999" points="769.5,-129 640.5,-129 640.5,-110 769.5,-110 769.5,-129"/>
<text text-anchor="middle" x="705" y="-117" font-family="Helvetica,sans-Serif" font-size="10.00">Tpetra_MultiVector.hpp</text>
</a>
</g>
</g>
<!-- Node2&#45;&gt;Node11 -->
<g id="edge16_Node000002_Node000011" class="edge">
<title>Node2&#45;&gt;Node11</title>
<g id="a_edge16_Node000002_Node000011"><a xlink:title=" ">
<path fill="none" stroke="#63b8ff" d="M867.98,-225.46C841.69,-217.2 803.09,-203.11 773,-184 752.26,-170.82 732.15,-150.88 719.25,-136.87"/>
<polygon fill="#63b8ff" stroke="#63b8ff" points="721.83,-134.5 712.54,-129.4 716.62,-139.18 721.83,-134.5"/>
</a>
</g>
</g>
<!-- Node13 -->
<g id="Node000013" class="node">
<title>Node13</title>
<g id="a_Node000013"><a xlink:title=" ">
<polygon fill="#e0e0e0" stroke="#999999" points="1195,-129 1093,-129 1093,-110 1195,-110 1195,-129"/>
<text text-anchor="middle" x="1144" y="-117" font-family="Helvetica,sans-Serif" font-size="10.00">Kokkos_Array.hpp</text>
</a>
</g>
</g>
<!-- Node2&#45;&gt;Node13 -->
<g id="edge12_Node000002_Node000013" class="edge">
<title>Node2&#45;&gt;Node13</title>
<g id="a_edge12_Node000002_Node000013"><a xlink:title=" ">
<path fill="none" stroke="#63b8ff" d="M904.52,-225.33C916.06,-210.61 941.55,-180.81 970,-165 990.54,-153.58 1047.23,-140.18 1090.37,-131.09"/>
<polygon fill="#63b8ff" stroke="#63b8ff" points="1091.11,-134.51 1100.18,-129.05 1089.68,-127.66 1091.11,-134.51"/>
</a>
</g>
</g>
<!-- Node14 -->
<g id="Node000014" class="node">
<title>Node14</title>
<g id="a_Node000014"><a xlink:title=" ">
<polygon fill="#e0e0e0" stroke="#999999" points="1152,-184 1012,-184 1012,-165 1152,-165 1152,-184"/>
<text text-anchor="middle" x="1082" y="-172" font-family="Helvetica,sans-Serif" font-size="10.00">Teuchos_BLAS_types.hpp</text>
</a>
</g>
</g>
<!-- Node2&#45;&gt;Node14 -->
<g id="edge13_Node000002_Node000014" class="edge">
<title>Node2&#45;&gt;Node14</title>
<g id="a_edge13_Node000002_Node000014"><a xlink:title=" ">
<path fill="none" stroke="#63b8ff" d="M924.76,-225.49C956.64,-215.36 1010.07,-198.37 1045.68,-187.05"/>
<polygon fill="#63b8ff" stroke="#63b8ff" points="1046.74,-190.38 1055.21,-184.02 1044.62,-183.71 1046.74,-190.38"/>
</a>
</g>
</g>
<!-- Node15 -->
<g id="Node000015" class="node">
<title>Node15</title>
<g id="a_Node000015"><a xlink:title=" ">
<polygon fill="#e0e0e0" stroke="#999999" points="1313,-129 1213,-129 1213,-110 1313,-110 1313,-129"/>
<text text-anchor="middle" x="1263" y="-117" font-family="Helvetica,sans-Serif" font-size="10.00">Teuchos_RCP.hpp</text>
</a>
</g>
</g>
<!-- Node2&#45;&gt;Node15 -->
<g id="edge14_Node000002_Node000015" class="edge">
<title>Node2&#45;&gt;Node15</title>
<g id="a_edge14_Node000002_Node000015"><a xlink:title=" ">
<path fill="none" stroke="#63b8ff" d="M910.57,-225.32C936.21,-207.68 993.01,-168.94 1003,-165 1021.27,-157.8 1131.83,-140.26 1202.77,-129.48"/>
<polygon fill="#63b8ff" stroke="#63b8ff" points="1203.57,-132.9 1212.93,-127.94 1202.52,-125.98 1203.57,-132.9"/>
</a>
</g>
</g>
<!-- Node16 -->
<g id="Node000016" class="node">
<title>Node16</title>
<g id="a_Node000016"><a xlink:title=" ">
<polygon fill="#e0e0e0" stroke="#999999" points="1276,-184 1170,-184 1170,-165 1276,-165 1276,-184"/>
<text text-anchor="middle" x="1223" y="-172" font-family="Helvetica,sans-Serif" font-size="10.00">Tpetra_Export.hpp</text>
</a>
</g>
</g>
<!-- Node2&#45;&gt;Node16 -->
<g id="edge15_Node000002_Node000016" class="edge">
<title>Node2&#45;&gt;Node16</title>
<g id="a_edge15_Node000002_Node000016"><a xlink:title=" ">
<path fill="none" stroke="#63b8ff" d="M945.26,-225.49C1003.63,-214.99 1102.86,-197.12 1165.57,-185.84"/>
<polygon fill="#63b8ff" stroke="#63b8ff" points="1166.46,-189.23 1175.69,-184.02 1165.22,-182.34 1166.46,-189.23"/>
</a>
</g>
</g>
<!-- Node2&#45;&gt;Node17 -->
<g id="edge17_Node000002_Node000017" class="edge">
<title>Node2&#45;&gt;Node17</title>
<g id="a_edge17_Node000002_Node000017"><a xlink:title=" ">
<path fill="none" stroke="#63b8ff" d="M958.19,-225.48C973.14,-223.52 989.14,-221.56 1004,-220 1206.94,-198.76 1261.1,-204.85 1467.95,-184.06"/>
<polygon fill="#63b8ff" stroke="#63b8ff" points="1468.32,-187.54 1477.92,-183.05 1467.61,-180.57 1468.32,-187.54"/>
</a>
</g>
</g>
<!-- Node18 -->
<g id="Node000018" class="node">
<title>Node18</title>
<g id="a_Node000018"><a xlink:href="_low_mach_fields_8h.html" target="_top" xlink:title=" ">
<polygon fill="white" stroke="#666666" points="304,-184 204,-184 204,-165 304,-165 304,-184"/>
<text text-anchor="middle" x="254" y="-172" font-family="Helvetica,sans-Serif" font-size="10.00">LowMachFields.h</text>
</a>
</g>
</g>
<!-- Node2&#45;&gt;Node18 -->
<g id="edge18_Node000002_Node000018" class="edge">
<title>Node2&#45;&gt;Node18</title>
<g id="a_edge18_Node000002_Node000018"><a xlink:title=" ">
<path fill="none" stroke="#63b8ff" d="M805.89,-227.78C692.64,-219.76 494.33,-204.51 314.37,-184.09"/>
<polygon fill="#63b8ff" stroke="#63b8ff" points="314.52,-180.59 304.19,-182.93 313.72,-187.54 314.52,-180.59"/>
</a>
</g>
</g>
<!-- Node20 -->
<g id="Node000020" class="node">
<title>Node20</title>
<g id="a_Node000020"><a xlink:title=" ">
<polygon fill="#e0e0e0" stroke="#999999" points="1459.5,-184 1294.5,-184 1294.5,-165 1459.5,-165 1459.5,-184"/>
<text text-anchor="middle" x="1377" y="-172" font-family="Helvetica,sans-Serif" font-size="10.00">stk_util/util/ReportHandler.hpp</text>
</a>
</g>
</g>
<!-- Node2&#45;&gt;Node20 -->
<g id="edge22_Node000002_Node000020" class="edge">
<title>Node2&#45;&gt;Node20</title>
<g id="a_edge22_Node000002_Node000020"><a xlink:title=" ">
<path fill="none" stroke="#63b8ff" d="M961.6,-225.47C975.57,-223.63 990.28,-221.72 1004,-220 1103.39,-207.51 1217.8,-193.99 1293.42,-185.17"/>
<polygon fill="#63b8ff" stroke="#63b8ff" points="1293.83,-188.64 1303.36,-184.01 1293.02,-181.69 1293.83,-188.64"/>
</a>
</g>
</g>
<!-- Node4 -->
<g id="Node000004" class="node">
<title>Node4</title>
<g id="a_Node000004"><a xlink:href="_kokkos_framework_8h.html" target="_top" xlink:title=" ">
<polygon fill="white" stroke="#666666" points="335.5,-74 160.5,-74 160.5,-55 335.5,-55 335.5,-74"/>
<text text-anchor="middle" x="248" y="-62" font-family="Helvetica,sans-Serif" font-size="10.00">matrix_free/KokkosFramework.h</text>
</a>
</g>
</g>
<!-- Node3&#45;&gt;Node4 -->
<g id="edge3_Node000003_Node000004" class="edge">
<title>Node3&#45;&gt;Node4</title>
<g id="a_edge3_Node000003_Node000004"><a xlink:title=" ">
<path fill="none" stroke="#63b8ff" d="M200.16,-109.98C208.5,-102.23 221.03,-90.58 231.18,-81.14"/>
<polygon fill="#63b8ff" stroke="#63b8ff" points="233.74,-83.54 238.68,-74.17 228.97,-78.42 233.74,-83.54"/>
</a>
</g>
</g>
<!-- Node8 -->
<g id="Node000008" class="node">
<title>Node8</title>
<g id="a_Node000008"><a xlink:title=" ">
<polygon fill="#e0e0e0" stroke="#999999" points="142,-74 0,-74 0,-55 142,-55 142,-74"/>
<text text-anchor="middle" x="71" y="-62" font-family="Helvetica,sans-Serif" font-size="10.00">stk_mesh/base/Types.hpp</text>
</a>
</g>
</g>
<!-- Node3&#45;&gt;Node8 -->
<g id="edge7_Node000003_Node000008" class="edge">
<title>Node3&#45;&gt;Node8</title>
<g id="a_edge7_Node000003_Node000008"><a xlink:title=" ">
<path fill="none" stroke="#63b8ff" d="M171.72,-109.98C152.33,-101.42 122.19,-88.11 99.93,-78.28"/>
<polygon fill="#63b8ff" stroke="#63b8ff" points="101.19,-75.01 90.63,-74.17 98.36,-81.41 101.19,-75.01"/>
</a>
</g>
</g>
<!-- Node5 -->
<g id="Node000005" class="node">
<title>Node5</title>
<g id="a_Node000005"><a xlink:title=" ">
<polygon fill="#e0e0e0" stroke="#999999" points="179,-19 79,-19 79,0 179,0 179,-19"/>
<text text-anchor="middle" x="129" y="-7" font-family="Helvetica,sans-Serif" font-size="10.00">Kokkos_Core.hpp</text>
</a>
</g>
</g>
<!-- Node4&#45;&gt;Node5 -->
<g id="edge4_Node000004_Node000005" class="edge">
<title>Node4&#45;&gt;Node5</title>
<g id="a_edge4_Node000004_Node000005"><a xlink:title=" ">
<path fill="none" stroke="#63b8ff" d="M228.88,-54.98C209.65,-46.42 179.77,-33.11 157.69,-23.28"/>
<polygon fill="#63b8ff" stroke="#63b8ff" points="159.03,-20.04 148.47,-19.17 156.18,-26.44 159.03,-20.04"/>
</a>
</g>
</g>
<!-- Node6 -->
<g id="Node000006" class="node">
<title>Node6</title>
<g id="a_Node000006"><a xlink:title=" ">
<polygon fill="#e0e0e0" stroke="#999999" points="307,-19 197,-19 197,0 307,0 307,-19"/>
<text text-anchor="middle" x="252" y="-7" font-family="Helvetica,sans-Serif" font-size="10.00">stk_simd/Simd.hpp</text>
</a>
</g>
</g>
<!-- Node4&#45;&gt;Node6 -->
<g id="edge5_Node000004_Node000006" class="edge">
<title>Node4&#45;&gt;Node6</title>
<g id="a_edge5_Node000004_Node000006"><a xlink:title=" ">
<path fill="none" stroke="#63b8ff" d="M248.66,-54.75C249.18,-47.8 249.94,-37.85 250.59,-29.13"/>
<polygon fill="#63b8ff" stroke="#63b8ff" points="254.09,-29.32 251.35,-19.09 247.11,-28.8 254.09,-29.32"/>
</a>
</g>
</g>
<!-- Node7 -->
<g id="Node000007" class="node">
<title>Node7</title>
<g id="a_Node000007"><a xlink:title=" ">
<polygon fill="#e0e0e0" stroke="#999999" points="398.5,-19 329.5,-19 329.5,0 398.5,0 398.5,-19"/>
<text text-anchor="middle" x="364" y="-7" font-family="Helvetica,sans-Serif" font-size="10.00">type_traits</text>
</a>
</g>
</g>
<!-- Node4&#45;&gt;Node7 -->
<g id="edge6_Node000004_Node000007" class="edge">
<title>Node4&#45;&gt;Node7</title>
<g id="a_edge6_Node000004_Node000007"><a xlink:title=" ">
<path fill="none" stroke="#63b8ff" d="M266.64,-54.98C285.3,-46.46 314.25,-33.23 335.74,-23.41"/>
<polygon fill="#63b8ff" stroke="#63b8ff" points="337.38,-26.51 345.02,-19.17 334.47,-20.14 337.38,-26.51"/>
</a>
</g>
</g>
<!-- Node10 -->
<g id="Node000010" class="node">
<title>Node10</title>
<g id="a_Node000010"><a xlink:title=" ">
<polygon fill="#e0e0e0" stroke="#999999" points="882.5,-129 787.5,-129 787.5,-110 882.5,-110 882.5,-129"/>
<text text-anchor="middle" x="835" y="-117" font-family="Helvetica,sans-Serif" font-size="10.00">Tpetra_Map.hpp</text>
</a>
</g>
</g>
<!-- Node9&#45;&gt;Node10 -->
<g id="edge9_Node000009_Node000010" class="edge">
<title>Node9&#45;&gt;Node10</title>
<g id="a_edge9_Node000009_Node000010"><a xlink:title=" ">
<path fill="none" stroke="#63b8ff" d="M847.52,-164.75C845.54,-157.72 842.68,-147.62 840.19,-138.84"/>
<polygon fill="#63b8ff" stroke="#63b8ff" points="843.52,-137.76 837.43,-129.09 836.79,-139.66 843.52,-137.76"/>
</a>
</g>
</g>
<!-- Node9&#45;&gt;Node11 -->
<g id="edge10_Node000009_Node000011" class="edge">
<title>Node9&#45;&gt;Node11</title>
<g id="a_edge10_Node000009_Node000011"><a xlink:title=" ">
<path fill="none" stroke="#63b8ff" d="M826.7,-164.98C802.75,-156.23 765.22,-142.51 738.17,-132.62"/>
<polygon fill="#63b8ff" stroke="#63b8ff" points="739.31,-129.32 728.72,-129.17 736.91,-135.89 739.31,-129.32"/>
</a>
</g>
</g>
<!-- Node12 -->
<g id="Node000012" class="node">
<title>Node12</title>
<g id="a_Node000012"><a xlink:title=" ">
<polygon fill="#e0e0e0" stroke="#999999" points="1075,-129 901,-129 901,-110 1075,-110 1075,-129"/>
<text text-anchor="middle" x="988" y="-117" font-family="Helvetica,sans-Serif" font-size="10.00">stk_mesh/base/GetNgpField.hpp</text>
</a>
</g>
</g>
<!-- Node9&#45;&gt;Node12 -->
<g id="edge11_Node000009_Node000012" class="edge">
<title>Node9&#45;&gt;Node12</title>
<g id="a_edge11_Node000009_Node000012"><a xlink:title=" ">
<path fill="none" stroke="#63b8ff" d="M872.17,-164.98C894.77,-156.3 930.06,-142.75 955.75,-132.88"/>
<polygon fill="#63b8ff" stroke="#63b8ff" points="957.34,-136.02 965.42,-129.17 954.83,-129.49 957.34,-136.02"/>
</a>
</g>
</g>
<!-- Node18&#45;&gt;Node3 -->
<g id="edge19_Node000018_Node000003" class="edge">
<title>Node18&#45;&gt;Node3</title>
<g id="a_edge19_Node000018_Node000003"><a xlink:title=" ">
<path fill="none" stroke="#63b8ff" d="M243.88,-164.98C234.56,-157.15 220.53,-145.34 209.26,-135.86"/>
<polygon fill="#63b8ff" stroke="#63b8ff" points="211.21,-132.93 201.31,-129.17 206.71,-138.29 211.21,-132.93"/>
</a>
</g>
</g>
<!-- Node18&#45;&gt;Node19 -->
<g id="edge20_Node000018_Node000019" class="edge">
<title>Node18&#45;&gt;Node19</title>
<g id="a_edge20_Node000018_Node000019"><a xlink:title=" ">
<path fill="none" stroke="#63b8ff" d="M299.31,-164.98C348.6,-155.72 427.43,-140.9 480.43,-130.94"/>
<polygon fill="#63b8ff" stroke="#63b8ff" points="481.16,-134.37 490.34,-129.08 479.86,-127.49 481.16,-134.37"/>
</a>
</g>
</g>
<!-- Node19&#45;&gt;Node7 -->
<g id="edge21_Node000019_Node000007" class="edge">
<title>Node19&#45;&gt;Node7</title>
<g id="a_edge21_Node000019_Node000007"><a xlink:title=" ">
<path fill="none" stroke="#63b8ff" d="M535.44,-109.78C534.09,-96.15 529.52,-69.83 514,-55 485.74,-27.99 441.84,-17.28 408.83,-13.09"/>
<polygon fill="#63b8ff" stroke="#63b8ff" points="408.85,-9.57 398.52,-11.94 408.07,-16.52 408.85,-9.57"/>
</a>
</g>
</g>
<!-- Node21&#45;&gt;Node3 -->
<g id="edge25_Node000021_Node000003" class="edge">
<title>Node21&#45;&gt;Node3</title>
<g id="a_edge25_Node000021_Node000003"><a xlink:title=" ">
<path fill="none" stroke="#63b8ff" d="M534.29,-164.98C461.35,-155.53 343.82,-140.3 266.98,-130.35"/>
<polygon fill="#63b8ff" stroke="#63b8ff" points="267.26,-126.85 256.89,-129.04 266.36,-133.79 267.26,-126.85"/>
</a>
</g>
</g>
<!-- Node21&#45;&gt;Node11 -->
<g id="edge33_Node000021_Node000011" class="edge">
<title>Node21&#45;&gt;Node11</title>
<g id="a_edge33_Node000021_Node000011"><a xlink:title=" ">
<path fill="none" stroke="#63b8ff" d="M616.87,-164.98C633.61,-156.54 659.5,-143.47 678.89,-133.68"/>
<polygon fill="#63b8ff" stroke="#63b8ff" points="680.47,-136.8 687.82,-129.17 677.32,-130.55 680.47,-136.8"/>
</a>
</g>
</g>
<!-- Node21&#45;&gt;Node13 -->
<g id="edge31_Node000021_Node000013" class="edge">
<title>Node21&#45;&gt;Node13</title>
<g id="a_edge31_Node000021_Node000013"><a xlink:title=" ">
<path fill="none" stroke="#63b8ff" d="M688.01,-166.71C782.83,-159.1 938.41,-145.76 1082.6,-129.11"/>
<polygon fill="#63b8ff" stroke="#63b8ff" points="1083.43,-132.54 1092.96,-127.9 1082.62,-125.58 1083.43,-132.54"/>
</a>
</g>
</g>
<!-- Node21&#45;&gt;Node15 -->
<g id="edge32_Node000021_Node000015" class="edge">
<title>Node21&#45;&gt;Node15</title>
<g id="a_edge32_Node000021_Node000015"><a xlink:title=" ">
<path fill="none" stroke="#63b8ff" d="M688.2,-168.93C803.92,-162.5 1013.54,-149.36 1202.69,-129.07"/>
<polygon fill="#63b8ff" stroke="#63b8ff" points="1203.25,-132.53 1212.82,-127.97 1202.5,-125.57 1203.25,-132.53"/>
</a>
</g>
</g>
<!-- Node21&#45;&gt;Node19 -->
<g id="edge30_Node000021_Node000019" class="edge">
<title>Node21&#45;&gt;Node19</title>
<g id="a_edge30_Node000021_Node000019"><a xlink:title=" ">
<path fill="none" stroke="#63b8ff" d="M589.72,-164.98C580.16,-157.07 565.72,-145.11 554.22,-135.58"/>
<polygon fill="#63b8ff" stroke="#63b8ff" points="556.4,-132.85 546.47,-129.17 551.94,-138.24 556.4,-132.85"/>
</a>
</g>
</g>
<!-- Node22 -->
<g id="Node000022" class="node">
<title>Node22</title>
<g id="a_Node000022"><a xlink:href="_local_array_8h.html" target="_top" xlink:title=" ">
<polygon fill="white" stroke="#666666" points="431,-129 295,-129 295,-110 431,-110 431,-129"/>
<text text-anchor="middle" x="363" y="-117" font-family="Helvetica,sans-Serif" font-size="10.00">matrix_free/LocalArray.h</text>
</a>
</g>
</g>
<!-- Node21&#45;&gt;Node22 -->
<g id="edge26_Node000021_Node000022" class="edge">
<title>Node21&#45;&gt;Node22</title>
<g id="a_edge26_Node000021_Node000022"><a xlink:title=" ">
<path fill="none" stroke="#63b8ff" d="M561.92,-164.98C521.01,-155.84 455.89,-141.27 411.38,-131.32"/>
<polygon fill="#63b8ff" stroke="#63b8ff" points="411.9,-127.85 401.38,-129.08 410.37,-134.68 411.9,-127.85"/>
</a>
</g>
</g>
<!-- Node22&#45;&gt;Node4 -->
<g id="edge28_Node000022_Node000004" class="edge">
<title>Node22&#45;&gt;Node4</title>
<g id="a_edge28_Node000022_Node000004"><a xlink:title=" ">
<path fill="none" stroke="#63b8ff" d="M344.52,-109.98C326.02,-101.46 297.32,-88.23 276.02,-78.41"/>
<polygon fill="#63b8ff" stroke="#63b8ff" points="277.36,-75.18 266.81,-74.17 274.43,-81.53 277.36,-75.18"/>
</a>
</g>
</g>
<!-- Node22&#45;&gt;Node7 -->
<g id="edge29_Node000022_Node000007" class="edge">
<title>Node22&#45;&gt;Node7</title>
<g id="a_edge29_Node000022_Node000007"><a xlink:title=" ">
<path fill="none" stroke="#63b8ff" d="M363.08,-109.66C363.24,-92.17 363.61,-52.8 363.83,-29.27"/>
<polygon fill="#63b8ff" stroke="#63b8ff" points="367.33,-29.19 363.92,-19.16 360.33,-29.13 367.33,-29.19"/>
</a>
</g>
</g>
<!-- Node23 -->
<g id="Node000023" class="node">
<title>Node23</title>
<g id="a_Node000023"><a xlink:title=" ">
<polygon fill="#e0e0e0" stroke="#999999" points="505.5,-74 392.5,-74 392.5,-55 505.5,-55 505.5,-74"/>
<text text-anchor="middle" x="449" y="-62" font-family="Helvetica,sans-Serif" font-size="10.00">Kokkos_Macros.hpp</text>
</a>
</g>
</g>
<!-- Node22&#45;&gt;Node23 -->
<g id="edge27_Node000022_Node000023" class="edge">
<title>Node22&#45;&gt;Node23</title>
<g id="a_edge27_Node000022_Node000023"><a xlink:title=" ">
<path fill="none" stroke="#63b8ff" d="M376.82,-109.98C390.15,-101.77 410.58,-89.18 426.31,-79.49"/>
<polygon fill="#63b8ff" stroke="#63b8ff" points="428.25,-82.4 434.93,-74.17 424.58,-76.44 428.25,-82.4"/>
</a>
</g>
</g>
<!-- Node24&#45;&gt;Node3 -->
<g id="edge37_Node000024_Node000003" class="edge">
<title>Node24&#45;&gt;Node3</title>
<g id="a_edge37_Node000024_Node000003"><a xlink:title=" ">
<path fill="none" stroke="#63b8ff" d="M373.14,-164.98C335.91,-155.89 276.8,-141.46 236.07,-131.51"/>
<polygon fill="#63b8ff" stroke="#63b8ff" points="236.68,-128.05 226.14,-129.08 235.02,-134.85 236.68,-128.05"/>
</a>
</g>
</g>
<!-- Node24&#45;&gt;Node11 -->
<g id="edge36_Node000024_Node000011" class="edge">
<title>Node24&#45;&gt;Node11</title>
<g id="a_edge36_Node000024_Node000011"><a xlink:title=" ">
<path fill="none" stroke="#63b8ff" d="M455.72,-164.98C507.74,-155.7 591,-140.84 646.82,-130.88"/>
<polygon fill="#63b8ff" stroke="#63b8ff" points="647.68,-134.28 656.91,-129.08 646.45,-127.39 647.68,-134.28"/>
</a>
</g>
</g>
<!-- Node24&#45;&gt;Node22 -->
<g id="edge38_Node000024_Node000022" class="edge">
<title>Node24&#45;&gt;Node22</title>
<g id="a_edge38_Node000024_Node000022"><a xlink:title=" ">
<path fill="none" stroke="#63b8ff" d="M400.57,-164.75C394.15,-157.18 384.69,-146.05 376.88,-136.84"/>
<polygon fill="#63b8ff" stroke="#63b8ff" points="379.43,-134.45 370.29,-129.09 374.1,-138.98 379.43,-134.45"/>
</a>
</g>
</g>
</g>
</svg>

<g id="navigator" transform="translate(0 0)" fill="#404254">
  <rect fill="#f2f5e9" fill-opacity="0.5" stroke="#606060" stroke-width=".5" x="0" y="0" width="60" height="60"/>
  <use id="zoomplus" xlink:href="#zoomPlus" x="17" y="9" onmousedown="handleZoom(evt,'in')"/>
  <use id="zoomminus" xlink:href="#zoomMin" x="42" y="9" onmousedown="handleZoom(evt,'out')"/>
  <use id="reset" xlink:href="#resetDef" x="30" y="36" onmousedown="handleReset()"/>
   <use id="arrowup" xlink:href="#arrowUp" x="0" y="0" onmousedown="handlePan(0,-1)"/>
  <use id="arrowright" xlink:href="#arrowRight" x="0" y="0" onmousedown="handlePan(1,0)"/>
  <use id="arrowdown" xlink:href="#arrowDown" x="0" y="0" onmousedown="handlePan(0,1)"/>
  <use id="arrowleft" xlink:href="#arrowLeft" x="0" y="0" onmousedown="handlePan(-1,0)"/>
</g>
<svg viewBox="0 0 15 15" width="100%" height="30px" preserveAspectRatio="xMaxYMin meet">
 <g id="arrow_out" transform="scale(0.3 0.3)">
  <a xlink:href="_momentum_operator_8_c__incl_org.svg" target="_base">
   <rect id="button" ry="5" rx="5" y="6" x="6" height="38" width="38"
        fill="#f2f5e9" fill-opacity="0.5" stroke="#606060" stroke-width="1.0"/>
   <path id="arrow"
     d="M 11.500037,31.436501 C 11.940474,20.09759 22.043105,11.32322 32.158766,21.979434 L 37.068811,17.246167 C 37.068811,17.246167 37.088388,32 37.088388,32 L 22.160133,31.978069 C 22.160133,31.978069 26.997745,27.140456 26.997745,27.140456 C 18.528582,18.264221 13.291696,25.230495 11.500037,31.436501 z"
     style="fill:#404040;"/>
  </a>
 </g>
</svg>

<style type='text/css'>
<![CDATA[
[data-mouse-over-selected='false'] { opacity: 0.7; }
[data-mouse-over-selected='true']  { opacity: 1.0; }
]]>
</style>
<script type="application/ecmascript"><![CDATA[
document.addEventListener('DOMContentLoaded', (event) => {
  highlightEdges();
  highlightAdjacentNodes();
});
]]></script>
</svg>
