<?xml version="1.0" encoding="UTF-8" standalone="no"?>
<!DOCTYPE svg PUBLIC "-//W3C//DTD SVG 1.1//EN"
 "http://www.w3.org/Graphics/SVG/1.1/DTD/svg11.dtd">
<!-- Generated by graphviz version 2.43.0 (0)
 -->
<!-- Title: MotionDeformingInteriorKernel.C Pages: 1 -->
<svg width="2579pt" height="375pt"
 viewBox="0.00 0.00 2579.00 375.00" xmlns="http://www.w3.org/2000/svg" xmlns:xlink="http://www.w3.org/1999/xlink">
<g id="graph0" class="graph" transform="scale(1 1) rotate(0) translate(4 371)">
<title>MotionDeformingInteriorKernel.C</title>
<polygon fill="white" stroke="transparent" points="-4,4 -4,-371 2575,-371 2575,4 -4,4"/>
<!-- Node1 -->
<g id="node1" class="node">
<title>Node1</title>
<g id="a_node1"><a xlink:title=" ">
<polygon fill="#bfbfbf" stroke="black" points="1783.5,-347.5 1783.5,-366.5 1961.5,-366.5 1961.5,-347.5 1783.5,-347.5"/>
<text text-anchor="middle" x="1872.5" y="-354.5" font-family="Helvetica,sans-Serif" font-size="10.00">MotionDeformingInteriorKernel.C</text>
</a>
</g>
</g>
<!-- Node2 -->
<g id="node2" class="node">
<title>Node2</title>
<g id="a_node2"><a xlink:href="_motion_deforming_interior_kernel_8h.html" target="_top" xlink:title=" ">
<polygon fill="white" stroke="black" points="1354.5,-280.5 1354.5,-310.5 1526.5,-310.5 1526.5,-280.5 1354.5,-280.5"/>
<text text-anchor="start" x="1362.5" y="-298.5" font-family="Helvetica,sans-Serif" font-size="10.00">mesh_motion/MotionDeforming</text>
<text text-anchor="middle" x="1440.5" y="-287.5" font-family="Helvetica,sans-Serif" font-size="10.00">InteriorKernel.h</text>
</a>
</g>
</g>
<!-- Node1&#45;&gt;Node2 -->
<g id="edge1" class="edge">
<title>Node1&#45;&gt;Node2</title>
<path fill="none" stroke="midnightblue" d="M1810.6,-347.48C1738.98,-337.61 1620.17,-321.25 1536.52,-309.73"/>
<polygon fill="midnightblue" stroke="midnightblue" points="1536.89,-306.24 1526.5,-308.35 1535.93,-313.18 1536.89,-306.24"/>
</g>
<!-- Node28 -->
<g id="node28" class="node">
<title>Node28</title>
<g id="a_node28"><a xlink:href="_nalu_parsing_8h.html" target="_top" xlink:title=" ">
<polygon fill="white" stroke="black" points="1793,-168.5 1793,-187.5 1876,-187.5 1876,-168.5 1793,-168.5"/>
<text text-anchor="middle" x="1834.5" y="-175.5" font-family="Helvetica,sans-Serif" font-size="10.00">NaluParsing.h</text>
</a>
</g>
</g>
<!-- Node1&#45;&gt;Node28 -->
<g id="edge30" class="edge">
<title>Node1&#45;&gt;Node28</title>
<path fill="none" stroke="midnightblue" d="M1870.67,-347.46C1864.86,-320.43 1846.79,-236.24 1838.6,-198.11"/>
<polygon fill="midnightblue" stroke="midnightblue" points="1841.93,-196.91 1836.4,-187.87 1835.08,-198.38 1841.93,-196.91"/>
</g>
<!-- Node43 -->
<g id="node43" class="node">
<title>Node43</title>
<g id="a_node43"><a xlink:href="_compute_vector_divergence_8h.html" target="_top" xlink:title=" ">
<polygon fill="white" stroke="black" points="1967.5,-224.5 1967.5,-243.5 2147.5,-243.5 2147.5,-224.5 1967.5,-224.5"/>
<text text-anchor="middle" x="2057.5" y="-231.5" font-family="Helvetica,sans-Serif" font-size="10.00">utils/ComputeVectorDivergence.h</text>
</a>
</g>
</g>
<!-- Node1&#45;&gt;Node43 -->
<g id="edge69" class="edge">
<title>Node1&#45;&gt;Node43</title>
<path fill="none" stroke="midnightblue" d="M1872.17,-347.37C1872.05,-331.7 1874.16,-298.51 1892.5,-280 1909.95,-262.39 1933.57,-251.48 1957.48,-244.78"/>
<polygon fill="midnightblue" stroke="midnightblue" points="1958.55,-248.11 1967.36,-242.24 1956.81,-241.33 1958.55,-248.11"/>
</g>
<!-- Node47 -->
<g id="node47" class="node">
<title>Node47</title>
<g id="a_node47"><a xlink:title=" ">
<polygon fill="white" stroke="#bfbfbf" points="1901,-286 1901,-305 2064,-305 2064,-286 1901,-286"/>
<text text-anchor="middle" x="1982.5" y="-293" font-family="Helvetica,sans-Serif" font-size="10.00">stk_mesh/base/FieldBLAS.hpp</text>
</a>
</g>
</g>
<!-- Node1&#45;&gt;Node47 -->
<g id="edge75" class="edge">
<title>Node1&#45;&gt;Node47</title>
<path fill="none" stroke="midnightblue" d="M1888.26,-347.48C1906.48,-337.62 1936.67,-321.29 1957.97,-309.77"/>
<polygon fill="midnightblue" stroke="midnightblue" points="1959.64,-312.85 1966.77,-305.01 1956.31,-306.69 1959.64,-312.85"/>
</g>
<!-- Node48 -->
<g id="node48" class="node">
<title>Node48</title>
<g id="a_node48"><a xlink:title=" ">
<polygon fill="white" stroke="#bfbfbf" points="2082,-286 2082,-305 2129,-305 2129,-286 2082,-286"/>
<text text-anchor="middle" x="2105.5" y="-293" font-family="Helvetica,sans-Serif" font-size="10.00">cmath</text>
</a>
</g>
</g>
<!-- Node1&#45;&gt;Node48 -->
<g id="edge76" class="edge">
<title>Node1&#45;&gt;Node48</title>
<path fill="none" stroke="midnightblue" d="M1924.1,-347.47C1965.17,-339.96 2023.82,-327.62 2073.5,-311 2075.17,-310.44 2076.87,-309.82 2078.57,-309.17"/>
<polygon fill="midnightblue" stroke="midnightblue" points="2080.29,-312.24 2088.15,-305.14 2077.58,-305.79 2080.29,-312.24"/>
</g>
<!-- Node3 -->
<g id="node3" class="node">
<title>Node3</title>
<g id="a_node3"><a xlink:href="_ngp_motion_8h.html" target="_top" xlink:title=" ">
<polygon fill="white" stroke="black" points="1059,-224.5 1059,-243.5 1138,-243.5 1138,-224.5 1059,-224.5"/>
<text text-anchor="middle" x="1098.5" y="-231.5" font-family="Helvetica,sans-Serif" font-size="10.00">NgpMotion.h</text>
</a>
</g>
</g>
<!-- Node2&#45;&gt;Node3 -->
<g id="edge2" class="edge">
<title>Node2&#45;&gt;Node3</title>
<path fill="none" stroke="midnightblue" d="M1359.88,-280.47C1294.26,-269.06 1203.71,-253.3 1148.23,-243.65"/>
<polygon fill="midnightblue" stroke="midnightblue" points="1148.75,-240.19 1138.3,-241.92 1147.55,-247.09 1148.75,-240.19"/>
</g>
<!-- Node4 -->
<g id="node4" class="node">
<title>Node4</title>
<g id="a_node4"><a xlink:title=" ">
<polygon fill="white" stroke="#bfbfbf" points="1028.5,-168.5 1028.5,-187.5 1092.5,-187.5 1092.5,-168.5 1028.5,-168.5"/>
<text text-anchor="middle" x="1060.5" y="-175.5" font-family="Helvetica,sans-Serif" font-size="10.00">algorithm</text>
</a>
</g>
</g>
<!-- Node3&#45;&gt;Node4 -->
<g id="edge3" class="edge">
<title>Node3&#45;&gt;Node4</title>
<path fill="none" stroke="midnightblue" d="M1092.23,-224.08C1086.86,-216.46 1078.98,-205.26 1072.42,-195.94"/>
<polygon fill="midnightblue" stroke="midnightblue" points="1075.28,-193.91 1066.66,-187.75 1069.55,-197.94 1075.28,-193.91"/>
</g>
<!-- Node5 -->
<g id="node5" class="node">
<title>Node5</title>
<g id="a_node5"><a xlink:title=" ">
<polygon fill="white" stroke="#bfbfbf" points="1110.5,-168.5 1110.5,-187.5 1162.5,-187.5 1162.5,-168.5 1110.5,-168.5"/>
<text text-anchor="middle" x="1136.5" y="-175.5" font-family="Helvetica,sans-Serif" font-size="10.00">cassert</text>
</a>
</g>
</g>
<!-- Node3&#45;&gt;Node5 -->
<g id="edge4" class="edge">
<title>Node3&#45;&gt;Node5</title>
<path fill="none" stroke="midnightblue" d="M1104.77,-224.08C1110.14,-216.46 1118.02,-205.26 1124.58,-195.94"/>
<polygon fill="midnightblue" stroke="midnightblue" points="1127.45,-197.94 1130.34,-187.75 1121.72,-193.91 1127.45,-197.94"/>
</g>
<!-- Node6 -->
<g id="node6" class="node">
<title>Node6</title>
<g id="a_node6"><a xlink:title=" ">
<polygon fill="white" stroke="#bfbfbf" points="1180.5,-168.5 1180.5,-187.5 1224.5,-187.5 1224.5,-168.5 1180.5,-168.5"/>
<text text-anchor="middle" x="1202.5" y="-175.5" font-family="Helvetica,sans-Serif" font-size="10.00">cfloat</text>
</a>
</g>
</g>
<!-- Node3&#45;&gt;Node6 -->
<g id="edge5" class="edge">
<title>Node3&#45;&gt;Node6</title>
<path fill="none" stroke="midnightblue" d="M1115.21,-224.32C1131.81,-215.7 1157.5,-202.36 1176.72,-192.39"/>
<polygon fill="midnightblue" stroke="midnightblue" points="1178.57,-195.37 1185.83,-187.65 1175.34,-189.16 1178.57,-195.37"/>
</g>
<!-- Node7 -->
<g id="node7" class="node">
<title>Node7</title>
<g id="a_node7"><a xlink:href="_n_g_p_instance_8h.html" target="_top" xlink:title=" ">
<polygon fill="white" stroke="black" points="424.5,-168.5 424.5,-187.5 512.5,-187.5 512.5,-168.5 424.5,-168.5"/>
<text text-anchor="middle" x="468.5" y="-175.5" font-family="Helvetica,sans-Serif" font-size="10.00">NGPInstance.h</text>
</a>
</g>
</g>
<!-- Node3&#45;&gt;Node7 -->
<g id="edge6" class="edge">
<title>Node3&#45;&gt;Node7</title>
<path fill="none" stroke="midnightblue" d="M1058.61,-229.58C949.7,-220.25 647.08,-194.31 522.82,-183.66"/>
<polygon fill="midnightblue" stroke="midnightblue" points="523.04,-180.16 512.77,-182.79 522.44,-187.14 523.04,-180.16"/>
</g>
<!-- Node14 -->
<g id="node14" class="node">
<title>Node14</title>
<g id="a_node14"><a xlink:href="_ngp_types_8h.html" target="_top" xlink:title="Nalu&#45;Wind custom types for NGP execution.">
<polygon fill="white" stroke="black" points="890.5,-168.5 890.5,-187.5 1010.5,-187.5 1010.5,-168.5 890.5,-168.5"/>
<text text-anchor="middle" x="950.5" y="-175.5" font-family="Helvetica,sans-Serif" font-size="10.00">ngp_utils/NgpTypes.h</text>
</a>
</g>
</g>
<!-- Node3&#45;&gt;Node14 -->
<g id="edge13" class="edge">
<title>Node3&#45;&gt;Node14</title>
<path fill="none" stroke="midnightblue" d="M1075.05,-224.44C1050.37,-215.44 1011.31,-201.19 983.52,-191.05"/>
<polygon fill="midnightblue" stroke="midnightblue" points="984.44,-187.66 973.84,-187.52 982.04,-194.23 984.44,-187.66"/>
</g>
<!-- Node8 -->
<g id="node8" class="node">
<title>Node8</title>
<g id="a_node8"><a xlink:href="_kokkos_interface_8h.html" target="_top" xlink:title=" ">
<polygon fill="white" stroke="black" points="416.5,-112.5 416.5,-131.5 520.5,-131.5 520.5,-112.5 416.5,-112.5"/>
<text text-anchor="middle" x="468.5" y="-119.5" font-family="Helvetica,sans-Serif" font-size="10.00">KokkosInterface.h</text>
</a>
</g>
</g>
<!-- Node7&#45;&gt;Node8 -->
<g id="edge7" class="edge">
<title>Node7&#45;&gt;Node8</title>
<path fill="none" stroke="midnightblue" d="M468.5,-168.08C468.5,-161.01 468.5,-150.86 468.5,-141.99"/>
<polygon fill="midnightblue" stroke="midnightblue" points="472,-141.75 468.5,-131.75 465,-141.75 472,-141.75"/>
</g>
<!-- Node13 -->
<g id="node13" class="node">
<title>Node13</title>
<g id="a_node13"><a xlink:title=" ">
<polygon fill="white" stroke="#bfbfbf" points="329,-112.5 329,-131.5 398,-131.5 398,-112.5 329,-112.5"/>
<text text-anchor="middle" x="363.5" y="-119.5" font-family="Helvetica,sans-Serif" font-size="10.00">type_traits</text>
</a>
</g>
</g>
<!-- Node7&#45;&gt;Node13 -->
<g id="edge12" class="edge">
<title>Node7&#45;&gt;Node13</title>
<path fill="none" stroke="midnightblue" d="M451.63,-168.32C434.79,-159.66 408.69,-146.24 389.26,-136.25"/>
<polygon fill="midnightblue" stroke="midnightblue" points="390.82,-133.12 380.33,-131.65 387.62,-139.34 390.82,-133.12"/>
</g>
<!-- Node9 -->
<g id="node9" class="node">
<title>Node9</title>
<g id="a_node9"><a xlink:title=" ">
<polygon fill="white" stroke="#bfbfbf" points="0,-56.5 0,-75.5 53,-75.5 53,-56.5 0,-56.5"/>
<text text-anchor="middle" x="26.5" y="-63.5" font-family="Helvetica,sans-Serif" font-size="10.00">cstddef</text>
</a>
</g>
</g>
<!-- Node8&#45;&gt;Node9 -->
<g id="edge8" class="edge">
<title>Node8&#45;&gt;Node9</title>
<path fill="none" stroke="midnightblue" d="M416.43,-113.29C413.07,-112.84 409.74,-112.4 406.5,-112 256.81,-93.33 215.02,-102.84 63.32,-76.1"/>
<polygon fill="midnightblue" stroke="midnightblue" points="63.62,-72.6 53.16,-74.29 62.39,-79.49 63.62,-72.6"/>
</g>
<!-- Node10 -->
<g id="node10" class="node">
<title>Node10</title>
<g id="a_node10"><a xlink:title=" ">
<polygon fill="white" stroke="#bfbfbf" points="71,-56.5 71,-75.5 212,-75.5 212,-56.5 71,-56.5"/>
<text text-anchor="middle" x="141.5" y="-63.5" font-family="Helvetica,sans-Serif" font-size="10.00">stk_mesh/base/Entity.hpp</text>
</a>
</g>
</g>
<!-- Node8&#45;&gt;Node10 -->
<g id="edge9" class="edge">
<title>Node8&#45;&gt;Node10</title>
<path fill="none" stroke="midnightblue" d="M416.69,-112.44C358.68,-102.87 264.76,-87.36 203.06,-77.17"/>
<polygon fill="midnightblue" stroke="midnightblue" points="203.51,-73.69 193.07,-75.52 202.37,-80.6 203.51,-73.69"/>
</g>
<!-- Node11 -->
<g id="node11" class="node">
<title>Node11</title>
<g id="a_node11"><a xlink:title=" ">
<polygon fill="white" stroke="#bfbfbf" points="719,-56.5 719,-75.5 832,-75.5 832,-56.5 719,-56.5"/>
<text text-anchor="middle" x="775.5" y="-63.5" font-family="Helvetica,sans-Serif" font-size="10.00">Kokkos_Macros.hpp</text>
</a>
</g>
</g>
<!-- Node8&#45;&gt;Node11 -->
<g id="edge10" class="edge">
<title>Node8&#45;&gt;Node11</title>
<path fill="none" stroke="midnightblue" d="M517.15,-112.44C571.37,-102.9 659.05,-87.48 716.98,-77.29"/>
<polygon fill="midnightblue" stroke="midnightblue" points="717.84,-80.7 727.08,-75.52 716.63,-73.8 717.84,-80.7"/>
</g>
<!-- Node12 -->
<g id="node12" class="node">
<title>Node12</title>
<g id="a_node12"><a xlink:title=" ">
<polygon fill="white" stroke="#bfbfbf" points="230.5,-56.5 230.5,-75.5 330.5,-75.5 330.5,-56.5 230.5,-56.5"/>
<text text-anchor="middle" x="280.5" y="-63.5" font-family="Helvetica,sans-Serif" font-size="10.00">Kokkos_Core.hpp</text>
</a>
</g>
</g>
<!-- Node8&#45;&gt;Node12 -->
<g id="edge11" class="edge">
<title>Node8&#45;&gt;Node12</title>
<path fill="none" stroke="midnightblue" d="M438.71,-112.44C406.67,-103.24 355.57,-88.56 320.15,-78.39"/>
<polygon fill="midnightblue" stroke="midnightblue" points="320.73,-74.91 310.15,-75.52 318.79,-81.64 320.73,-74.91"/>
</g>
<!-- Node14&#45;&gt;Node8 -->
<g id="edge24" class="edge">
<title>Node14&#45;&gt;Node8</title>
<path fill="none" stroke="midnightblue" d="M890.43,-170.27C798.61,-159.98 624.2,-140.44 530.96,-130"/>
<polygon fill="midnightblue" stroke="midnightblue" points="531.16,-126.5 520.83,-128.86 530.38,-133.45 531.16,-126.5"/>
</g>
<!-- Node15 -->
<g id="node15" class="node">
<title>Node15</title>
<g id="a_node15"><a xlink:href="_ngp_mesh_info_8h.html" target="_top" xlink:title="NGP mesh information objects.">
<polygon fill="white" stroke="black" points="785,-112.5 785,-131.5 922,-131.5 922,-112.5 785,-112.5"/>
<text text-anchor="middle" x="853.5" y="-119.5" font-family="Helvetica,sans-Serif" font-size="10.00">ngp_utils/NgpMeshInfo.h</text>
</a>
</g>
</g>
<!-- Node14&#45;&gt;Node15 -->
<g id="edge14" class="edge">
<title>Node14&#45;&gt;Node15</title>
<path fill="none" stroke="midnightblue" d="M934.92,-168.32C919.5,-159.74 895.69,-146.49 877.79,-136.52"/>
<polygon fill="midnightblue" stroke="midnightblue" points="879.49,-133.46 869.05,-131.65 876.08,-139.58 879.49,-133.46"/>
</g>
<!-- Node17 -->
<g id="node17" class="node">
<title>Node17</title>
<g id="a_node17"><a xlink:title=" ">
<polygon fill="white" stroke="#bfbfbf" points="850.5,-56.5 850.5,-75.5 1010.5,-75.5 1010.5,-56.5 850.5,-56.5"/>
<text text-anchor="middle" x="930.5" y="-63.5" font-family="Helvetica,sans-Serif" font-size="10.00">stk_mesh/base/NgpMesh.hpp</text>
</a>
</g>
</g>
<!-- Node14&#45;&gt;Node17 -->
<g id="edge23" class="edge">
<title>Node14&#45;&gt;Node17</title>
<path fill="none" stroke="midnightblue" d="M948.93,-168.37C945.7,-150.62 938.26,-109.67 933.88,-85.6"/>
<polygon fill="midnightblue" stroke="midnightblue" points="937.29,-84.8 932.06,-75.59 930.41,-86.06 937.29,-84.8"/>
</g>
<!-- Node24 -->
<g id="node24" class="node">
<title>Node24</title>
<g id="a_node24"><a xlink:href="_simd_interface_8h.html" target="_top" xlink:title="STK SIMD Interface.">
<polygon fill="white" stroke="black" points="1017.5,-112.5 1017.5,-131.5 1111.5,-131.5 1111.5,-112.5 1017.5,-112.5"/>
<text text-anchor="middle" x="1064.5" y="-119.5" font-family="Helvetica,sans-Serif" font-size="10.00">SimdInterface.h</text>
</a>
</g>
</g>
<!-- Node14&#45;&gt;Node24 -->
<g id="edge25" class="edge">
<title>Node14&#45;&gt;Node24</title>
<path fill="none" stroke="midnightblue" d="M968.56,-168.44C987.07,-159.68 1016.08,-145.94 1037.36,-135.86"/>
<polygon fill="midnightblue" stroke="midnightblue" points="1038.98,-138.96 1046.52,-131.52 1035.99,-132.63 1038.98,-138.96"/>
</g>
<!-- Node27 -->
<g id="node27" class="node">
<title>Node27</title>
<g id="a_node27"><a xlink:title=" ">
<polygon fill="white" stroke="#bfbfbf" points="1156.5,-56.5 1156.5,-75.5 1214.5,-75.5 1214.5,-56.5 1156.5,-56.5"/>
<text text-anchor="middle" x="1185.5" y="-63.5" font-family="Helvetica,sans-Serif" font-size="10.00">memory</text>
</a>
</g>
</g>
<!-- Node14&#45;&gt;Node27 -->
<g id="edge29" class="edge">
<title>Node14&#45;&gt;Node27</title>
<path fill="none" stroke="midnightblue" d="M1010.89,-168.97C1044.79,-162.56 1086.89,-151.34 1120.5,-132 1141.81,-119.74 1161.01,-98.7 1172.92,-83.89"/>
<polygon fill="midnightblue" stroke="midnightblue" points="1175.98,-85.65 1179.35,-75.6 1170.45,-81.36 1175.98,-85.65"/>
</g>
<!-- Node16 -->
<g id="node16" class="node">
<title>Node16</title>
<g id="a_node16"><a xlink:title=" ">
<polygon fill="white" stroke="#bfbfbf" points="1232.5,-56.5 1232.5,-75.5 1366.5,-75.5 1366.5,-56.5 1232.5,-56.5"/>
<text text-anchor="middle" x="1299.5" y="-63.5" font-family="Helvetica,sans-Serif" font-size="10.00">stk_mesh/base/Ngp.hpp</text>
</a>
</g>
</g>
<!-- Node15&#45;&gt;Node16 -->
<g id="edge15" class="edge">
<title>Node15&#45;&gt;Node16</title>
<path fill="none" stroke="midnightblue" d="M922.21,-112.68C1003.22,-102.87 1137.5,-86.61 1222.11,-76.37"/>
<polygon fill="midnightblue" stroke="midnightblue" points="1222.67,-79.83 1232.17,-75.15 1221.82,-72.88 1222.67,-79.83"/>
</g>
<!-- Node15&#45;&gt;Node17 -->
<g id="edge16" class="edge">
<title>Node15&#45;&gt;Node17</title>
<path fill="none" stroke="midnightblue" d="M865.87,-112.32C877.66,-104.06 895.63,-91.45 909.64,-81.63"/>
<polygon fill="midnightblue" stroke="midnightblue" points="911.98,-84.26 918.16,-75.65 907.96,-78.53 911.98,-84.26"/>
</g>
<!-- Node18 -->
<g id="node18" class="node">
<title>Node18</title>
<g id="a_node18"><a xlink:title=" ">
<polygon fill="white" stroke="#bfbfbf" points="524,-56.5 524,-75.5 701,-75.5 701,-56.5 524,-56.5"/>
<text text-anchor="middle" x="612.5" y="-63.5" font-family="Helvetica,sans-Serif" font-size="10.00">stk_mesh/base/GetNgpMesh.hpp</text>
</a>
</g>
</g>
<!-- Node15&#45;&gt;Node18 -->
<g id="edge17" class="edge">
<title>Node15&#45;&gt;Node18</title>
<path fill="none" stroke="midnightblue" d="M815.31,-112.44C773.36,-103.04 705.91,-87.93 660.43,-77.74"/>
<polygon fill="midnightblue" stroke="midnightblue" points="661.03,-74.29 650.51,-75.52 659.5,-81.12 661.03,-74.29"/>
</g>
<!-- Node19 -->
<g id="node19" class="node">
<title>Node19</title>
<g id="a_node19"><a xlink:href="_ngp_field_manager_8h.html" target="_top" xlink:title="NGP Field Manager.">
<polygon fill="white" stroke="black" points="348.5,-56.5 348.5,-75.5 506.5,-75.5 506.5,-56.5 348.5,-56.5"/>
<text text-anchor="middle" x="427.5" y="-63.5" font-family="Helvetica,sans-Serif" font-size="10.00">ngp_utils/NgpFieldManager.h</text>
</a>
</g>
</g>
<!-- Node15&#45;&gt;Node19 -->
<g id="edge18" class="edge">
<title>Node15&#45;&gt;Node19</title>
<path fill="none" stroke="midnightblue" d="M786,-112.44C709.5,-102.75 585.05,-86.97 504.74,-76.79"/>
<polygon fill="midnightblue" stroke="midnightblue" points="505.05,-73.3 494.69,-75.52 504.17,-80.25 505.05,-73.3"/>
</g>
<!-- Node20 -->
<g id="node20" class="node">
<title>Node20</title>
<g id="a_node20"><a xlink:title=" ">
<polygon fill="white" stroke="#bfbfbf" points="169,-0.5 169,-19.5 328,-19.5 328,-0.5 169,-0.5"/>
<text text-anchor="middle" x="248.5" y="-7.5" font-family="Helvetica,sans-Serif" font-size="10.00">stk_mesh/base/BulkData.hpp</text>
</a>
</g>
</g>
<!-- Node19&#45;&gt;Node20 -->
<g id="edge19" class="edge">
<title>Node19&#45;&gt;Node20</title>
<path fill="none" stroke="midnightblue" d="M399.14,-56.44C368.76,-47.28 320.39,-32.69 286.68,-22.52"/>
<polygon fill="midnightblue" stroke="midnightblue" points="287.32,-19.05 276.73,-19.52 285.29,-25.76 287.32,-19.05"/>
</g>
<!-- Node21 -->
<g id="node21" class="node">
<title>Node21</title>
<g id="a_node21"><a xlink:title=" ">
<polygon fill="white" stroke="#bfbfbf" points="346.5,-0.5 346.5,-19.5 508.5,-19.5 508.5,-0.5 346.5,-0.5"/>
<text text-anchor="middle" x="427.5" y="-7.5" font-family="Helvetica,sans-Serif" font-size="10.00">stk_mesh/base/MetaData.hpp</text>
</a>
</g>
</g>
<!-- Node19&#45;&gt;Node21 -->
<g id="edge20" class="edge">
<title>Node19&#45;&gt;Node21</title>
<path fill="none" stroke="midnightblue" d="M427.5,-56.08C427.5,-49.01 427.5,-38.86 427.5,-29.99"/>
<polygon fill="midnightblue" stroke="midnightblue" points="431,-29.75 427.5,-19.75 424,-29.75 431,-29.75"/>
</g>
<!-- Node22 -->
<g id="node22" class="node">
<title>Node22</title>
<g id="a_node22"><a xlink:title=" ">
<polygon fill="white" stroke="#bfbfbf" points="1994,-0.5 1994,-19.5 2151,-19.5 2151,-0.5 1994,-0.5"/>
<text text-anchor="middle" x="2072.5" y="-7.5" font-family="Helvetica,sans-Serif" font-size="10.00">stk_mesh/base/NgpField.hpp</text>
</a>
</g>
</g>
<!-- Node19&#45;&gt;Node22 -->
<g id="edge21" class="edge">
<title>Node19&#45;&gt;Node22</title>
<path fill="none" stroke="midnightblue" d="M506.66,-56.56C509.31,-56.36 511.92,-56.17 514.5,-56 519.11,-55.7 1653.42,-23.05 1983.43,-13.56"/>
<polygon fill="midnightblue" stroke="midnightblue" points="1984,-17.05 1993.89,-13.26 1983.8,-10.05 1984,-17.05"/>
</g>
<!-- Node23 -->
<g id="node23" class="node">
<title>Node23</title>
<g id="a_node23"><a xlink:title=" ">
<polygon fill="white" stroke="#bfbfbf" points="526.5,-0.5 526.5,-19.5 700.5,-19.5 700.5,-0.5 526.5,-0.5"/>
<text text-anchor="middle" x="613.5" y="-7.5" font-family="Helvetica,sans-Serif" font-size="10.00">stk_mesh/base/GetNgpField.hpp</text>
</a>
</g>
</g>
<!-- Node19&#45;&gt;Node23 -->
<g id="edge22" class="edge">
<title>Node19&#45;&gt;Node23</title>
<path fill="none" stroke="midnightblue" d="M456.97,-56.44C488.67,-47.24 539.23,-32.56 574.27,-22.39"/>
<polygon fill="midnightblue" stroke="midnightblue" points="575.54,-25.67 584.17,-19.52 573.59,-18.94 575.54,-25.67"/>
</g>
<!-- Node24&#45;&gt;Node11 -->
<g id="edge27" class="edge">
<title>Node24&#45;&gt;Node11</title>
<path fill="none" stroke="midnightblue" d="M1018.71,-112.44C967.76,-102.92 885.47,-87.55 830.93,-77.36"/>
<polygon fill="midnightblue" stroke="midnightblue" points="831.55,-73.91 821.08,-75.52 830.27,-80.79 831.55,-73.91"/>
</g>
<!-- Node25 -->
<g id="node25" class="node">
<title>Node25</title>
<g id="a_node25"><a xlink:title=" ">
<polygon fill="white" stroke="#bfbfbf" points="1028.5,-56.5 1028.5,-75.5 1138.5,-75.5 1138.5,-56.5 1028.5,-56.5"/>
<text text-anchor="middle" x="1083.5" y="-63.5" font-family="Helvetica,sans-Serif" font-size="10.00">stk_simd/Simd.hpp</text>
</a>
</g>
</g>
<!-- Node24&#45;&gt;Node25 -->
<g id="edge26" class="edge">
<title>Node24&#45;&gt;Node25</title>
<path fill="none" stroke="midnightblue" d="M1067.64,-112.08C1070.18,-104.85 1073.86,-94.41 1077.03,-85.4"/>
<polygon fill="midnightblue" stroke="midnightblue" points="1080.4,-86.35 1080.42,-75.75 1073.8,-84.02 1080.4,-86.35"/>
</g>
<!-- Node26 -->
<g id="node26" class="node">
<title>Node26</title>
<g id="a_node26"><a xlink:title=" ">
<polygon fill="white" stroke="#bfbfbf" points="1615,-56.5 1615,-75.5 1662,-75.5 1662,-56.5 1615,-56.5"/>
<text text-anchor="middle" x="1638.5" y="-63.5" font-family="Helvetica,sans-Serif" font-size="10.00">vector</text>
</a>
</g>
</g>
<!-- Node24&#45;&gt;Node26 -->
<g id="edge28" class="edge">
<title>Node24&#45;&gt;Node26</title>
<path fill="none" stroke="midnightblue" d="M1111.96,-116.54C1224.84,-105.92 1507.15,-79.36 1604.71,-70.18"/>
<polygon fill="midnightblue" stroke="midnightblue" points="1605.25,-73.64 1614.88,-69.22 1604.6,-66.67 1605.25,-73.64"/>
</g>
<!-- Node28&#45;&gt;Node26 -->
<g id="edge68" class="edge">
<title>Node28&#45;&gt;Node26</title>
<path fill="none" stroke="midnightblue" d="M1792.81,-175.22C1731.77,-171.65 1622.7,-161.25 1598.5,-132 1585.48,-116.26 1602.64,-95.91 1618.36,-82.21"/>
<polygon fill="midnightblue" stroke="midnightblue" points="1620.77,-84.76 1626.28,-75.71 1616.33,-79.35 1620.77,-84.76"/>
</g>
<!-- Node29 -->
<g id="node29" class="node">
<title>Node29</title>
<g id="a_node29"><a xlink:href="_boundary_conditions_8h.html" target="_top" xlink:title=" ">
<polygon fill="white" stroke="black" points="1427.5,-112.5 1427.5,-131.5 1551.5,-131.5 1551.5,-112.5 1427.5,-112.5"/>
<text text-anchor="middle" x="1489.5" y="-119.5" font-family="Helvetica,sans-Serif" font-size="10.00">BoundaryConditions.h</text>
</a>
</g>
</g>
<!-- Node28&#45;&gt;Node29 -->
<g id="edge31" class="edge">
<title>Node28&#45;&gt;Node29</title>
<path fill="none" stroke="midnightblue" d="M1792.88,-170.49C1733.53,-161.2 1624.01,-144.05 1554.06,-133.11"/>
<polygon fill="midnightblue" stroke="midnightblue" points="1554.46,-129.63 1544.04,-131.54 1553.38,-136.54 1554.46,-129.63"/>
</g>
<!-- Node30 -->
<g id="node30" class="node">
<title>Node30</title>
<g id="a_node30"><a xlink:href="_enums_8h.html" target="_top" xlink:title=" ">
<polygon fill="white" stroke="black" points="1461,-56.5 1461,-75.5 1520,-75.5 1520,-56.5 1461,-56.5"/>
<text text-anchor="middle" x="1490.5" y="-63.5" font-family="Helvetica,sans-Serif" font-size="10.00">Enums.h</text>
</a>
</g>
</g>
<!-- Node28&#45;&gt;Node30 -->
<g id="edge39" class="edge">
<title>Node28&#45;&gt;Node30</title>
<path fill="none" stroke="midnightblue" d="M1792.67,-175.58C1692.11,-171.75 1443.22,-159.54 1418.5,-132 1400.79,-112.27 1432.09,-92.22 1458.82,-79.71"/>
<polygon fill="midnightblue" stroke="midnightblue" points="1460.3,-82.89 1468,-75.61 1457.44,-76.5 1460.3,-82.89"/>
</g>
<!-- Node31 -->
<g id="node31" class="node">
<title>Node31</title>
<g id="a_node31"><a xlink:title=" ">
<polygon fill="white" stroke="#bfbfbf" points="1706.5,-0.5 1706.5,-19.5 1750.5,-19.5 1750.5,-0.5 1706.5,-0.5"/>
<text text-anchor="middle" x="1728.5" y="-7.5" font-family="Helvetica,sans-Serif" font-size="10.00">string</text>
</a>
</g>
</g>
<!-- Node28&#45;&gt;Node31 -->
<g id="edge67" class="edge">
<title>Node28&#45;&gt;Node31</title>
<path fill="none" stroke="midnightblue" d="M1876.23,-177.72C1999.49,-178.57 2346.94,-171.1 2241.5,-56 2225.19,-38.2 1871.01,-18.39 1760.88,-12.64"/>
<polygon fill="midnightblue" stroke="midnightblue" points="1760.88,-9.14 1750.71,-12.12 1760.52,-16.13 1760.88,-9.14"/>
</g>
<!-- Node33 -->
<g id="node33" class="node">
<title>Node33</title>
<g id="a_node33"><a xlink:href="_initial_conditions_8h.html" target="_top" xlink:title=" ">
<polygon fill="white" stroke="black" points="1266,-112.5 1266,-131.5 1371,-131.5 1371,-112.5 1266,-112.5"/>
<text text-anchor="middle" x="1318.5" y="-119.5" font-family="Helvetica,sans-Serif" font-size="10.00">InitialConditions.h</text>
</a>
</g>
</g>
<!-- Node28&#45;&gt;Node33 -->
<g id="edge40" class="edge">
<title>Node28&#45;&gt;Node33</title>
<path fill="none" stroke="midnightblue" d="M1792.97,-173.31C1713.69,-166.16 1535.28,-149.56 1385.5,-132 1384.04,-131.83 1382.57,-131.65 1381.08,-131.47"/>
<polygon fill="midnightblue" stroke="midnightblue" points="1381.5,-128 1371.15,-130.24 1380.64,-134.95 1381.5,-128"/>
</g>
<!-- Node34 -->
<g id="node34" class="node">
<title>Node34</title>
<g id="a_node34"><a xlink:href="_material_propertys_8h.html" target="_top" xlink:title=" ">
<polygon fill="white" stroke="black" points="1608,-112.5 1608,-131.5 1721,-131.5 1721,-112.5 1608,-112.5"/>
<text text-anchor="middle" x="1664.5" y="-119.5" font-family="Helvetica,sans-Serif" font-size="10.00">MaterialPropertys.h</text>
</a>
</g>
</g>
<!-- Node28&#45;&gt;Node34 -->
<g id="edge46" class="edge">
<title>Node28&#45;&gt;Node34</title>
<path fill="none" stroke="midnightblue" d="M1807.56,-168.44C1778.84,-159.32 1733.17,-144.81 1701.18,-134.65"/>
<polygon fill="midnightblue" stroke="midnightblue" points="1701.9,-131.21 1691.31,-131.52 1699.78,-137.88 1701.9,-131.21"/>
</g>
<!-- Node35 -->
<g id="node35" class="node">
<title>Node35</title>
<g id="a_node35"><a xlink:href="_nalu_parsed_types_8h.html" target="_top" xlink:title=" ">
<polygon fill="white" stroke="black" points="1739.5,-112.5 1739.5,-131.5 1847.5,-131.5 1847.5,-112.5 1739.5,-112.5"/>
<text text-anchor="middle" x="1793.5" y="-119.5" font-family="Helvetica,sans-Serif" font-size="10.00">NaluParsedTypes.h</text>
</a>
</g>
</g>
<!-- Node28&#45;&gt;Node35 -->
<g id="edge51" class="edge">
<title>Node28&#45;&gt;Node35</title>
<path fill="none" stroke="midnightblue" d="M1827.73,-168.08C1821.94,-160.46 1813.44,-149.26 1806.36,-139.94"/>
<polygon fill="midnightblue" stroke="midnightblue" points="1808.98,-137.6 1800.14,-131.75 1803.4,-141.83 1808.98,-137.6"/>
</g>
<!-- Node36 -->
<g id="node36" class="node">
<title>Node36</title>
<g id="a_node36"><a xlink:href="_nalu_parsing_helper_8h.html" target="_top" xlink:title=" ">
<polygon fill="white" stroke="black" points="1904,-112.5 1904,-131.5 2019,-131.5 2019,-112.5 1904,-112.5"/>
<text text-anchor="middle" x="1961.5" y="-119.5" font-family="Helvetica,sans-Serif" font-size="10.00">NaluParsingHelper.h</text>
</a>
</g>
</g>
<!-- Node28&#45;&gt;Node36 -->
<g id="edge54" class="edge">
<title>Node28&#45;&gt;Node36</title>
<path fill="none" stroke="midnightblue" d="M1854.62,-168.44C1875.52,-159.56 1908.43,-145.56 1932.22,-135.45"/>
<polygon fill="midnightblue" stroke="midnightblue" points="1933.64,-138.65 1941.47,-131.52 1930.9,-132.21 1933.64,-138.65"/>
</g>
<!-- Node37 -->
<g id="node37" class="node">
<title>Node37</title>
<g id="a_node37"><a xlink:title=" ">
<polygon fill="white" stroke="#bfbfbf" points="1912,-56.5 1912,-75.5 2011,-75.5 2011,-56.5 1912,-56.5"/>
<text text-anchor="middle" x="1961.5" y="-63.5" font-family="Helvetica,sans-Serif" font-size="10.00">yaml&#45;cpp/yaml.h</text>
</a>
</g>
</g>
<!-- Node28&#45;&gt;Node37 -->
<g id="edge64" class="edge">
<title>Node28&#45;&gt;Node37</title>
<path fill="none" stroke="midnightblue" d="M1876.14,-173.31C1927.36,-167.81 2009.84,-155.48 2028.5,-132 2044.23,-112.2 2015.89,-92.38 1991.35,-79.93"/>
<polygon fill="midnightblue" stroke="midnightblue" points="1992.77,-76.73 1982.24,-75.53 1989.72,-83.03 1992.77,-76.73"/>
</g>
<!-- Node38 -->
<g id="node38" class="node">
<title>Node38</title>
<g id="a_node38"><a xlink:title=" ">
<polygon fill="white" stroke="#bfbfbf" points="1795.5,-56.5 1795.5,-75.5 1855.5,-75.5 1855.5,-56.5 1795.5,-56.5"/>
<text text-anchor="middle" x="1825.5" y="-63.5" font-family="Helvetica,sans-Serif" font-size="10.00">iostream</text>
</a>
</g>
</g>
<!-- Node28&#45;&gt;Node38 -->
<g id="edge65" class="edge">
<title>Node28&#45;&gt;Node38</title>
<path fill="none" stroke="midnightblue" d="M1841.14,-168.21C1849.7,-155.76 1862.8,-132.25 1856.5,-112 1853.27,-101.62 1846.72,-91.52 1840.48,-83.53"/>
<polygon fill="midnightblue" stroke="midnightblue" points="1843.08,-81.19 1833.98,-75.77 1837.71,-85.68 1843.08,-81.19"/>
</g>
<!-- Node39 -->
<g id="node39" class="node">
<title>Node39</title>
<g id="a_node39"><a xlink:title=" ">
<polygon fill="white" stroke="#bfbfbf" points="2029,-56.5 2029,-75.5 2084,-75.5 2084,-56.5 2029,-56.5"/>
<text text-anchor="middle" x="2056.5" y="-63.5" font-family="Helvetica,sans-Serif" font-size="10.00">fstream</text>
</a>
</g>
</g>
<!-- Node28&#45;&gt;Node39 -->
<g id="edge66" class="edge">
<title>Node28&#45;&gt;Node39</title>
<path fill="none" stroke="midnightblue" d="M1876.04,-173.5C1930.43,-168.05 2021.57,-155.6 2044.5,-132 2056.11,-120.05 2058.41,-100.75 2058.23,-86.28"/>
<polygon fill="midnightblue" stroke="midnightblue" points="2061.7,-85.74 2057.68,-75.94 2054.71,-86.11 2061.7,-85.74"/>
</g>
<!-- Node40 -->
<g id="node40" class="node">
<title>Node40</title>
<g id="a_node40"><a xlink:href="_nalu_env_8h.html" target="_top" xlink:title=" ">
<polygon fill="white" stroke="black" points="2114,-112.5 2114,-131.5 2179,-131.5 2179,-112.5 2114,-112.5"/>
<text text-anchor="middle" x="2146.5" y="-119.5" font-family="Helvetica,sans-Serif" font-size="10.00">NaluEnv.h</text>
</a>
</g>
</g>
<!-- Node28&#45;&gt;Node40 -->
<g id="edge60" class="edge">
<title>Node28&#45;&gt;Node40</title>
<path fill="none" stroke="midnightblue" d="M1876.31,-170.18C1928.58,-161.59 2020.74,-146.23 2099.5,-132 2100.96,-131.74 2102.44,-131.47 2103.93,-131.19"/>
<polygon fill="midnightblue" stroke="midnightblue" points="2104.71,-134.61 2113.9,-129.33 2103.43,-127.73 2104.71,-134.61"/>
</g>
<!-- Node29&#45;&gt;Node26 -->
<g id="edge37" class="edge">
<title>Node29&#45;&gt;Node26</title>
<path fill="none" stroke="midnightblue" d="M1513.11,-112.44C1537.96,-103.44 1577.27,-89.19 1605.25,-79.05"/>
<polygon fill="midnightblue" stroke="midnightblue" points="1606.79,-82.21 1615,-75.52 1604.41,-75.63 1606.79,-82.21"/>
</g>
<!-- Node29&#45;&gt;Node27 -->
<g id="edge38" class="edge">
<title>Node29&#45;&gt;Node27</title>
<path fill="none" stroke="midnightblue" d="M1432.74,-112.49C1380.97,-104.48 1302.13,-91.67 1224.46,-76.09"/>
<polygon fill="midnightblue" stroke="midnightblue" points="1225,-72.63 1214.5,-74.07 1223.61,-79.49 1225,-72.63"/>
</g>
<!-- Node29&#45;&gt;Node30 -->
<g id="edge32" class="edge">
<title>Node29&#45;&gt;Node30</title>
<path fill="none" stroke="midnightblue" d="M1489.67,-112.08C1489.8,-105.01 1489.98,-94.86 1490.15,-85.99"/>
<polygon fill="midnightblue" stroke="midnightblue" points="1493.65,-85.81 1490.34,-75.75 1486.65,-85.68 1493.65,-85.81"/>
</g>
<!-- Node29&#45;&gt;Node31 -->
<g id="edge36" class="edge">
<title>Node29&#45;&gt;Node31</title>
<path fill="none" stroke="midnightblue" d="M1503.05,-112.46C1524.33,-99.28 1567.11,-73.64 1605.5,-56 1635.64,-42.15 1671.38,-29.47 1696.54,-21.12"/>
<polygon fill="midnightblue" stroke="midnightblue" points="1697.88,-24.37 1706.3,-17.93 1695.71,-17.72 1697.88,-24.37"/>
</g>
<!-- Node32 -->
<g id="node32" class="node">
<title>Node32</title>
<g id="a_node32"><a xlink:title=" ">
<polygon fill="white" stroke="#bfbfbf" points="1500.5,-0.5 1500.5,-19.5 1538.5,-19.5 1538.5,-0.5 1500.5,-0.5"/>
<text text-anchor="middle" x="1519.5" y="-7.5" font-family="Helvetica,sans-Serif" font-size="10.00">map</text>
</a>
</g>
</g>
<!-- Node29&#45;&gt;Node32 -->
<g id="edge35" class="edge">
<title>Node29&#45;&gt;Node32</title>
<path fill="none" stroke="midnightblue" d="M1500.49,-112.37C1509.95,-104.17 1522.94,-90.92 1528.5,-76 1534.16,-60.84 1530.77,-42.49 1526.63,-29.16"/>
<polygon fill="midnightblue" stroke="midnightblue" points="1529.92,-27.98 1523.3,-19.7 1523.32,-30.3 1529.92,-27.98"/>
</g>
<!-- Node30&#45;&gt;Node31 -->
<g id="edge33" class="edge">
<title>Node30&#45;&gt;Node31</title>
<path fill="none" stroke="midnightblue" d="M1520.16,-58.27C1565.11,-48.07 1650.13,-28.78 1696.46,-18.27"/>
<polygon fill="midnightblue" stroke="midnightblue" points="1697.29,-21.67 1706.27,-16.04 1695.74,-14.84 1697.29,-21.67"/>
</g>
<!-- Node30&#45;&gt;Node32 -->
<g id="edge34" class="edge">
<title>Node30&#45;&gt;Node32</title>
<path fill="none" stroke="midnightblue" d="M1495.29,-56.08C1499.26,-48.69 1505.03,-37.95 1509.93,-28.81"/>
<polygon fill="midnightblue" stroke="midnightblue" points="1513.15,-30.22 1514.8,-19.75 1506.99,-26.91 1513.15,-30.22"/>
</g>
<!-- Node33&#45;&gt;Node26 -->
<g id="edge44" class="edge">
<title>Node33&#45;&gt;Node26</title>
<path fill="none" stroke="midnightblue" d="M1369.2,-112.44C1435.1,-101.32 1548.37,-82.21 1604.68,-72.71"/>
<polygon fill="midnightblue" stroke="midnightblue" points="1605.55,-76.11 1614.83,-71 1604.38,-69.21 1605.55,-76.11"/>
</g>
<!-- Node33&#45;&gt;Node27 -->
<g id="edge45" class="edge">
<title>Node33&#45;&gt;Node27</title>
<path fill="none" stroke="midnightblue" d="M1297.43,-112.44C1275.44,-103.52 1240.77,-89.44 1215.84,-79.32"/>
<polygon fill="midnightblue" stroke="midnightblue" points="1217.06,-76.04 1206.48,-75.52 1214.42,-82.52 1217.06,-76.04"/>
</g>
<!-- Node33&#45;&gt;Node30 -->
<g id="edge41" class="edge">
<title>Node33&#45;&gt;Node30</title>
<path fill="none" stroke="midnightblue" d="M1345.75,-112.44C1374.94,-103.28 1421.42,-88.69 1453.81,-78.52"/>
<polygon fill="midnightblue" stroke="midnightblue" points="1454.88,-81.85 1463.37,-75.52 1452.78,-75.17 1454.88,-81.85"/>
</g>
<!-- Node33&#45;&gt;Node31 -->
<g id="edge43" class="edge">
<title>Node33&#45;&gt;Node31</title>
<path fill="none" stroke="midnightblue" d="M1338.64,-112.38C1358.63,-103.67 1390.03,-89.61 1416.5,-76 1432.43,-67.81 1434.61,-61.98 1451.5,-56 1536.58,-25.89 1643.57,-15.8 1696.21,-12.51"/>
<polygon fill="midnightblue" stroke="midnightblue" points="1696.51,-16 1706.29,-11.93 1696.11,-9.01 1696.51,-16"/>
</g>
<!-- Node33&#45;&gt;Node32 -->
<g id="edge42" class="edge">
<title>Node33&#45;&gt;Node32</title>
<path fill="none" stroke="midnightblue" d="M1330.44,-112.36C1348.81,-99.26 1385.39,-73.99 1418.5,-56 1442.27,-43.08 1470.48,-30.75 1491.04,-22.27"/>
<polygon fill="midnightblue" stroke="midnightblue" points="1492.52,-25.45 1500.46,-18.43 1489.88,-18.96 1492.52,-25.45"/>
</g>
<!-- Node34&#45;&gt;Node26 -->
<g id="edge50" class="edge">
<title>Node34&#45;&gt;Node26</title>
<path fill="none" stroke="midnightblue" d="M1660.21,-112.08C1656.65,-104.69 1651.48,-93.95 1647.08,-84.81"/>
<polygon fill="midnightblue" stroke="midnightblue" points="1650.21,-83.24 1642.71,-75.75 1643.9,-86.28 1650.21,-83.24"/>
</g>
<!-- Node34&#45;&gt;Node30 -->
<g id="edge47" class="edge">
<title>Node34&#45;&gt;Node30</title>
<path fill="none" stroke="midnightblue" d="M1636.93,-112.44C1607.4,-103.28 1560.38,-88.69 1527.62,-78.52"/>
<polygon fill="midnightblue" stroke="midnightblue" points="1528.53,-75.14 1517.94,-75.52 1526.46,-81.82 1528.53,-75.14"/>
</g>
<!-- Node34&#45;&gt;Node31 -->
<g id="edge49" class="edge">
<title>Node34&#45;&gt;Node31</title>
<path fill="none" stroke="midnightblue" d="M1673.86,-112.49C1682.76,-103.99 1696.01,-90.16 1704.5,-76 1713.2,-61.49 1719.58,-43.31 1723.57,-29.87"/>
<polygon fill="midnightblue" stroke="midnightblue" points="1727.04,-30.45 1726.35,-19.87 1720.3,-28.57 1727.04,-30.45"/>
</g>
<!-- Node34&#45;&gt;Node32 -->
<g id="edge48" class="edge">
<title>Node34&#45;&gt;Node32</title>
<path fill="none" stroke="midnightblue" d="M1668.61,-112.43C1674.41,-98.98 1682.96,-72.72 1670.5,-56 1642.42,-18.34 1584.06,-10.95 1548.68,-10.17"/>
<polygon fill="midnightblue" stroke="midnightblue" points="1548.52,-6.67 1538.5,-10.12 1548.48,-13.67 1548.52,-6.67"/>
</g>
<!-- Node35&#45;&gt;Node26 -->
<g id="edge53" class="edge">
<title>Node35&#45;&gt;Node26</title>
<path fill="none" stroke="midnightblue" d="M1768.94,-112.44C1742.75,-103.32 1701.1,-88.81 1671.93,-78.65"/>
<polygon fill="midnightblue" stroke="midnightblue" points="1672.78,-75.24 1662.18,-75.25 1670.47,-81.85 1672.78,-75.24"/>
</g>
<!-- Node35&#45;&gt;Node31 -->
<g id="edge52" class="edge">
<title>Node35&#45;&gt;Node31</title>
<path fill="none" stroke="midnightblue" d="M1788.4,-112.37C1777.72,-94.3 1752.83,-52.18 1738.73,-28.31"/>
<polygon fill="midnightblue" stroke="midnightblue" points="1741.68,-26.42 1733.58,-19.59 1735.65,-29.98 1741.68,-26.42"/>
</g>
<!-- Node36&#45;&gt;Node26 -->
<g id="edge59" class="edge">
<title>Node36&#45;&gt;Node26</title>
<path fill="none" stroke="midnightblue" d="M1910.32,-112.44C1843.64,-101.3 1728.9,-82.11 1672.21,-72.64"/>
<polygon fill="midnightblue" stroke="midnightblue" points="1672.45,-69.13 1662,-70.93 1671.29,-76.03 1672.45,-69.13"/>
</g>
<!-- Node36&#45;&gt;Node31 -->
<g id="edge58" class="edge">
<title>Node36&#45;&gt;Node31</title>
<path fill="none" stroke="midnightblue" d="M1950.75,-112.36C1933.46,-98.8 1898.01,-72.39 1864.5,-56 1830.48,-39.36 1788.8,-26.59 1760.62,-18.98"/>
<polygon fill="midnightblue" stroke="midnightblue" points="1761.45,-15.58 1750.89,-16.41 1759.66,-22.34 1761.45,-15.58"/>
</g>
<!-- Node36&#45;&gt;Node37 -->
<g id="edge55" class="edge">
<title>Node36&#45;&gt;Node37</title>
<path fill="none" stroke="midnightblue" d="M1961.5,-112.08C1961.5,-105.01 1961.5,-94.86 1961.5,-85.99"/>
<polygon fill="midnightblue" stroke="midnightblue" points="1965,-85.75 1961.5,-75.75 1958,-85.75 1965,-85.75"/>
</g>
<!-- Node36&#45;&gt;Node38 -->
<g id="edge56" class="edge">
<title>Node36&#45;&gt;Node38</title>
<path fill="none" stroke="midnightblue" d="M1939.95,-112.44C1917.47,-103.52 1882.01,-89.44 1856.52,-79.32"/>
<polygon fill="midnightblue" stroke="midnightblue" points="1857.53,-75.95 1846.95,-75.52 1854.95,-82.46 1857.53,-75.95"/>
</g>
<!-- Node36&#45;&gt;Node39 -->
<g id="edge57" class="edge">
<title>Node36&#45;&gt;Node39</title>
<path fill="none" stroke="midnightblue" d="M1976.76,-112.32C1991.72,-103.82 2014.75,-90.73 2032.23,-80.8"/>
<polygon fill="midnightblue" stroke="midnightblue" points="2034.31,-83.64 2041.27,-75.65 2030.85,-77.55 2034.31,-83.64"/>
</g>
<!-- Node40&#45;&gt;Node39 -->
<g id="edge62" class="edge">
<title>Node40&#45;&gt;Node39</title>
<path fill="none" stroke="midnightblue" d="M2132.04,-112.32C2118,-103.9 2096.45,-90.97 2079.96,-81.07"/>
<polygon fill="midnightblue" stroke="midnightblue" points="2081.3,-77.8 2070.92,-75.65 2077.7,-83.8 2081.3,-77.8"/>
</g>
<!-- Node41 -->
<g id="node41" class="node">
<title>Node41</title>
<g id="a_node41"><a xlink:title=" ">
<polygon fill="white" stroke="#bfbfbf" points="2102.5,-56.5 2102.5,-75.5 2146.5,-75.5 2146.5,-56.5 2102.5,-56.5"/>
<text text-anchor="middle" x="2124.5" y="-63.5" font-family="Helvetica,sans-Serif" font-size="10.00">mpi.h</text>
</a>
</g>
</g>
<!-- Node40&#45;&gt;Node41 -->
<g id="edge61" class="edge">
<title>Node40&#45;&gt;Node41</title>
<path fill="none" stroke="midnightblue" d="M2142.87,-112.08C2139.89,-104.77 2135.57,-94.18 2131.88,-85.1"/>
<polygon fill="midnightblue" stroke="midnightblue" points="2135.08,-83.69 2128.07,-75.75 2128.6,-86.33 2135.08,-83.69"/>
</g>
<!-- Node42 -->
<g id="node42" class="node">
<title>Node42</title>
<g id="a_node42"><a xlink:title=" ">
<polygon fill="white" stroke="#bfbfbf" points="2165,-56.5 2165,-75.5 2232,-75.5 2232,-56.5 2165,-56.5"/>
<text text-anchor="middle" x="2198.5" y="-63.5" font-family="Helvetica,sans-Serif" font-size="10.00">streambuf</text>
</a>
</g>
</g>
<!-- Node40&#45;&gt;Node42 -->
<g id="edge63" class="edge">
<title>Node40&#45;&gt;Node42</title>
<path fill="none" stroke="midnightblue" d="M2155.09,-112.08C2162.66,-104.22 2173.88,-92.57 2183.01,-83.08"/>
<polygon fill="midnightblue" stroke="midnightblue" points="2185.66,-85.38 2190.07,-75.75 2180.62,-80.53 2185.66,-85.38"/>
</g>
<!-- Node44 -->
<g id="node44" class="node">
<title>Node44</title>
<g id="a_node44"><a xlink:href="_field_type_def_8h.html" target="_top" xlink:title=" ">
<polygon fill="white" stroke="black" points="2288.5,-112.5 2288.5,-131.5 2376.5,-131.5 2376.5,-112.5 2288.5,-112.5"/>
<text text-anchor="middle" x="2332.5" y="-119.5" font-family="Helvetica,sans-Serif" font-size="10.00">FieldTypeDef.h</text>
</a>
</g>
</g>
<!-- Node43&#45;&gt;Node44 -->
<g id="edge70" class="edge">
<title>Node43&#45;&gt;Node44</title>
<path fill="none" stroke="midnightblue" d="M2079.08,-224.37C2127.57,-204.97 2245.33,-157.87 2301.58,-135.37"/>
<polygon fill="midnightblue" stroke="midnightblue" points="2303.04,-138.56 2311.02,-131.59 2300.44,-132.06 2303.04,-138.56"/>
</g>
<!-- Node44&#45;&gt;Node16 -->
<g id="edge72" class="edge">
<title>Node44&#45;&gt;Node16</title>
<path fill="none" stroke="midnightblue" d="M2288.39,-118.09C2259.9,-116.24 2222.01,-113.87 2188.5,-112 1861.06,-93.77 1778.97,-93.69 1451.5,-76 1427.25,-74.69 1400.83,-73.16 1376.92,-71.74"/>
<polygon fill="midnightblue" stroke="midnightblue" points="1377.03,-68.24 1366.83,-71.14 1376.61,-75.23 1377.03,-68.24"/>
</g>
<!-- Node44&#45;&gt;Node22 -->
<g id="edge73" class="edge">
<title>Node44&#45;&gt;Node22</title>
<path fill="none" stroke="midnightblue" d="M2327.3,-112.27C2318.39,-98.1 2298.76,-70.24 2274.5,-56 2240.51,-36.05 2198.56,-24.94 2161.72,-18.75"/>
<polygon fill="midnightblue" stroke="midnightblue" points="2161.9,-15.23 2151.47,-17.13 2160.8,-22.15 2161.9,-15.23"/>
</g>
<!-- Node45 -->
<g id="node45" class="node">
<title>Node45</title>
<g id="a_node45"><a xlink:title=" ">
<polygon fill="white" stroke="#bfbfbf" points="2327,-56.5 2327,-75.5 2488,-75.5 2488,-56.5 2327,-56.5"/>
<text text-anchor="middle" x="2407.5" y="-63.5" font-family="Helvetica,sans-Serif" font-size="10.00">stk_mesh/base/FieldBase.hpp</text>
</a>
</g>
</g>
<!-- Node44&#45;&gt;Node45 -->
<g id="edge71" class="edge">
<title>Node44&#45;&gt;Node45</title>
<path fill="none" stroke="midnightblue" d="M2344.55,-112.32C2355.96,-104.11 2373.33,-91.6 2386.93,-81.81"/>
<polygon fill="midnightblue" stroke="midnightblue" points="2389.16,-84.52 2395.23,-75.83 2385.07,-78.84 2389.16,-84.52"/>
</g>
<!-- Node46 -->
<g id="node46" class="node">
<title>Node46</title>
<g id="a_node46"><a xlink:title=" ">
<polygon fill="white" stroke="#bfbfbf" points="2506,-56.5 2506,-75.5 2571,-75.5 2571,-56.5 2506,-56.5"/>
<text text-anchor="middle" x="2538.5" y="-63.5" font-family="Helvetica,sans-Serif" font-size="10.00">functional</text>
</a>
</g>
</g>
<!-- Node44&#45;&gt;Node46 -->
<g id="edge74" class="edge">
<title>Node44&#45;&gt;Node46</title>
<path fill="none" stroke="midnightblue" d="M2365.14,-112.44C2400.55,-103.16 2457.21,-88.31 2496.05,-78.13"/>
<polygon fill="midnightblue" stroke="midnightblue" points="2497.23,-81.44 2506.01,-75.52 2495.45,-74.67 2497.23,-81.44"/>
</g>
</g>
</svg>
