<?xml version="1.0" encoding="UTF-8" standalone="no"?>
<!DOCTYPE svg PUBLIC "-//W3C//DTD SVG 1.1//EN"
 "http://www.w3.org/Graphics/SVG/1.1/DTD/svg11.dtd">
<!-- Generated by graphviz version 2.43.0 (0)
 -->
<!-- Title: MotionWavesKernel.C Pages: 1 -->
<svg width="2632pt" height="364pt"
 viewBox="0.00 0.00 2632.00 364.00" xmlns="http://www.w3.org/2000/svg" xmlns:xlink="http://www.w3.org/1999/xlink">
<g id="graph0" class="graph" transform="scale(1 1) rotate(0) translate(4 360)">
<title>MotionWavesKernel.C</title>
<polygon fill="white" stroke="transparent" points="-4,4 -4,-360 2628,-360 2628,4 -4,4"/>
<!-- Node1 -->
<g id="node1" class="node">
<title>Node1</title>
<g id="a_node1"><a xlink:title=" ">
<polygon fill="#bfbfbf" stroke="black" points="1437,-336.5 1437,-355.5 1560,-355.5 1560,-336.5 1437,-336.5"/>
<text text-anchor="middle" x="1498.5" y="-343.5" font-family="Helvetica,sans-Serif" font-size="10.00">MotionWavesKernel.C</text>
</a>
</g>
</g>
<!-- Node2 -->
<g id="node2" class="node">
<title>Node2</title>
<g id="a_node2"><a xlink:href="_motion_waves_kernel_8h.html" target="_top" xlink:title=" ">
<polygon fill="white" stroke="black" points="1282.5,-280.5 1282.5,-299.5 1474.5,-299.5 1474.5,-280.5 1282.5,-280.5"/>
<text text-anchor="middle" x="1378.5" y="-287.5" font-family="Helvetica,sans-Serif" font-size="10.00">mesh_motion/MotionWavesKernel.h</text>
</a>
</g>
</g>
<!-- Node1&#45;&gt;Node2 -->
<g id="edge1" class="edge">
<title>Node1&#45;&gt;Node2</title>
<path fill="none" stroke="midnightblue" d="M1479.49,-336.44C1459.91,-327.64 1429.19,-313.81 1406.77,-303.72"/>
<polygon fill="midnightblue" stroke="midnightblue" points="1407.98,-300.43 1397.43,-299.52 1405.11,-306.81 1407.98,-300.43"/>
</g>
<!-- Node29 -->
<g id="node29" class="node">
<title>Node29</title>
<g id="a_node29"><a xlink:href="_field_type_def_8h.html" target="_top" xlink:title=" ">
<polygon fill="white" stroke="black" points="2307.5,-112.5 2307.5,-131.5 2395.5,-131.5 2395.5,-112.5 2307.5,-112.5"/>
<text text-anchor="middle" x="2351.5" y="-119.5" font-family="Helvetica,sans-Serif" font-size="10.00">FieldTypeDef.h</text>
</a>
</g>
</g>
<!-- Node1&#45;&gt;Node29 -->
<g id="edge31" class="edge">
<title>Node1&#45;&gt;Node29</title>
<path fill="none" stroke="midnightblue" d="M1513.99,-336.43C1539.33,-322.74 1591.53,-295.86 1638.5,-280 1877.71,-199.21 2176.34,-149.09 2297.09,-130.83"/>
<polygon fill="midnightblue" stroke="midnightblue" points="2297.82,-134.26 2307.19,-129.31 2296.78,-127.33 2297.82,-134.26"/>
</g>
<!-- Node32 -->
<g id="node32" class="node">
<title>Node32</title>
<g id="a_node32"><a xlink:href="_nalu_parsing_8h.html" target="_top" xlink:title=" ">
<polygon fill="white" stroke="black" points="420,-168.5 420,-187.5 503,-187.5 503,-168.5 420,-168.5"/>
<text text-anchor="middle" x="461.5" y="-175.5" font-family="Helvetica,sans-Serif" font-size="10.00">NaluParsing.h</text>
</a>
</g>
</g>
<!-- Node1&#45;&gt;Node32 -->
<g id="edge36" class="edge">
<title>Node1&#45;&gt;Node32</title>
<path fill="none" stroke="midnightblue" d="M1445.29,-336.48C1266.6,-307.88 689.34,-215.47 513.08,-187.26"/>
<polygon fill="midnightblue" stroke="midnightblue" points="513.46,-183.77 503.04,-185.65 512.36,-190.69 513.46,-183.77"/>
</g>
<!-- Node46 -->
<g id="node46" class="node">
<title>Node46</title>
<g id="a_node46"><a xlink:title=" ">
<polygon fill="white" stroke="#bfbfbf" points="1647,-280.5 1647,-299.5 1810,-299.5 1810,-280.5 1647,-280.5"/>
<text text-anchor="middle" x="1728.5" y="-287.5" font-family="Helvetica,sans-Serif" font-size="10.00">stk_mesh/base/FieldBLAS.hpp</text>
</a>
</g>
</g>
<!-- Node1&#45;&gt;Node46 -->
<g id="edge75" class="edge">
<title>Node1&#45;&gt;Node46</title>
<path fill="none" stroke="midnightblue" d="M1534.94,-336.44C1574.9,-327.06 1639.09,-311.99 1682.48,-301.8"/>
<polygon fill="midnightblue" stroke="midnightblue" points="1683.29,-305.21 1692.23,-299.52 1681.69,-298.39 1683.29,-305.21"/>
</g>
<!-- Node3 -->
<g id="node3" class="node">
<title>Node3</title>
<g id="a_node3"><a xlink:href="_ngp_motion_8h.html" target="_top" xlink:title=" ">
<polygon fill="white" stroke="black" points="1339,-224.5 1339,-243.5 1418,-243.5 1418,-224.5 1339,-224.5"/>
<text text-anchor="middle" x="1378.5" y="-231.5" font-family="Helvetica,sans-Serif" font-size="10.00">NgpMotion.h</text>
</a>
</g>
</g>
<!-- Node2&#45;&gt;Node3 -->
<g id="edge2" class="edge">
<title>Node2&#45;&gt;Node3</title>
<path fill="none" stroke="midnightblue" d="M1378.5,-280.08C1378.5,-273.01 1378.5,-262.86 1378.5,-253.99"/>
<polygon fill="midnightblue" stroke="midnightblue" points="1382,-253.75 1378.5,-243.75 1375,-253.75 1382,-253.75"/>
</g>
<!-- Node28 -->
<g id="node28" class="node">
<title>Node28</title>
<g id="a_node28"><a xlink:title=" ">
<polygon fill="white" stroke="#bfbfbf" points="656.5,-0.5 656.5,-19.5 700.5,-19.5 700.5,-0.5 656.5,-0.5"/>
<text text-anchor="middle" x="678.5" y="-7.5" font-family="Helvetica,sans-Serif" font-size="10.00">string</text>
</a>
</g>
</g>
<!-- Node2&#45;&gt;Node28 -->
<g id="edge30" class="edge">
<title>Node2&#45;&gt;Node28</title>
<path fill="none" stroke="midnightblue" d="M1354.24,-280.43C1310.53,-264.6 1216.12,-228.66 1141.5,-188 1049.6,-137.92 1043.66,-94.89 946.5,-56 924.88,-47.35 777.2,-25.27 710.76,-15.63"/>
<polygon fill="midnightblue" stroke="midnightblue" points="711.23,-12.16 700.83,-14.19 710.23,-19.09 711.23,-12.16"/>
</g>
<!-- Node4 -->
<g id="node4" class="node">
<title>Node4</title>
<g id="a_node4"><a xlink:title=" ">
<polygon fill="white" stroke="#bfbfbf" points="1456.5,-168.5 1456.5,-187.5 1520.5,-187.5 1520.5,-168.5 1456.5,-168.5"/>
<text text-anchor="middle" x="1488.5" y="-175.5" font-family="Helvetica,sans-Serif" font-size="10.00">algorithm</text>
</a>
</g>
</g>
<!-- Node3&#45;&gt;Node4 -->
<g id="edge3" class="edge">
<title>Node3&#45;&gt;Node4</title>
<path fill="none" stroke="midnightblue" d="M1396.17,-224.32C1413.89,-215.62 1441.4,-202.12 1461.79,-192.11"/>
<polygon fill="midnightblue" stroke="midnightblue" points="1463.44,-195.2 1470.87,-187.65 1460.35,-188.92 1463.44,-195.2"/>
</g>
<!-- Node5 -->
<g id="node5" class="node">
<title>Node5</title>
<g id="a_node5"><a xlink:title=" ">
<polygon fill="white" stroke="#bfbfbf" points="1538.5,-168.5 1538.5,-187.5 1590.5,-187.5 1590.5,-168.5 1538.5,-168.5"/>
<text text-anchor="middle" x="1564.5" y="-175.5" font-family="Helvetica,sans-Serif" font-size="10.00">cassert</text>
</a>
</g>
</g>
<!-- Node3&#45;&gt;Node5 -->
<g id="edge4" class="edge">
<title>Node3&#45;&gt;Node5</title>
<path fill="none" stroke="midnightblue" d="M1407.97,-224.44C1440.7,-214.94 1493.52,-199.61 1528.63,-189.41"/>
<polygon fill="midnightblue" stroke="midnightblue" points="1529.84,-192.71 1538.47,-186.56 1527.89,-185.98 1529.84,-192.71"/>
</g>
<!-- Node6 -->
<g id="node6" class="node">
<title>Node6</title>
<g id="a_node6"><a xlink:title=" ">
<polygon fill="white" stroke="#bfbfbf" points="1150.5,-168.5 1150.5,-187.5 1194.5,-187.5 1194.5,-168.5 1150.5,-168.5"/>
<text text-anchor="middle" x="1172.5" y="-175.5" font-family="Helvetica,sans-Serif" font-size="10.00">cfloat</text>
</a>
</g>
</g>
<!-- Node3&#45;&gt;Node6 -->
<g id="edge5" class="edge">
<title>Node3&#45;&gt;Node6</title>
<path fill="none" stroke="midnightblue" d="M1343.88,-224.43C1310.52,-216.1 1258.39,-202.89 1204.54,-188.23"/>
<polygon fill="midnightblue" stroke="midnightblue" points="1205.4,-184.83 1194.83,-185.57 1203.55,-191.59 1205.4,-184.83"/>
</g>
<!-- Node7 -->
<g id="node7" class="node">
<title>Node7</title>
<g id="a_node7"><a xlink:href="_n_g_p_instance_8h.html" target="_top" xlink:title=" ">
<polygon fill="white" stroke="black" points="1212.5,-168.5 1212.5,-187.5 1300.5,-187.5 1300.5,-168.5 1212.5,-168.5"/>
<text text-anchor="middle" x="1256.5" y="-175.5" font-family="Helvetica,sans-Serif" font-size="10.00">NGPInstance.h</text>
</a>
</g>
</g>
<!-- Node3&#45;&gt;Node7 -->
<g id="edge6" class="edge">
<title>Node3&#45;&gt;Node7</title>
<path fill="none" stroke="midnightblue" d="M1359.17,-224.44C1339.18,-215.6 1307.76,-201.69 1284.94,-191.59"/>
<polygon fill="midnightblue" stroke="midnightblue" points="1286.3,-188.36 1275.74,-187.52 1283.47,-194.76 1286.3,-188.36"/>
</g>
<!-- Node14 -->
<g id="node14" class="node">
<title>Node14</title>
<g id="a_node14"><a xlink:href="_ngp_types_8h.html" target="_top" xlink:title="Nalu&#45;Wind custom types for NGP execution.">
<polygon fill="white" stroke="black" points="1318.5,-168.5 1318.5,-187.5 1438.5,-187.5 1438.5,-168.5 1318.5,-168.5"/>
<text text-anchor="middle" x="1378.5" y="-175.5" font-family="Helvetica,sans-Serif" font-size="10.00">ngp_utils/NgpTypes.h</text>
</a>
</g>
</g>
<!-- Node3&#45;&gt;Node14 -->
<g id="edge13" class="edge">
<title>Node3&#45;&gt;Node14</title>
<path fill="none" stroke="midnightblue" d="M1378.5,-224.08C1378.5,-217.01 1378.5,-206.86 1378.5,-197.99"/>
<polygon fill="midnightblue" stroke="midnightblue" points="1382,-197.75 1378.5,-187.75 1375,-197.75 1382,-197.75"/>
</g>
<!-- Node8 -->
<g id="node8" class="node">
<title>Node8</title>
<g id="a_node8"><a xlink:href="_kokkos_interface_8h.html" target="_top" xlink:title=" ">
<polygon fill="white" stroke="black" points="1268.5,-112.5 1268.5,-131.5 1372.5,-131.5 1372.5,-112.5 1268.5,-112.5"/>
<text text-anchor="middle" x="1320.5" y="-119.5" font-family="Helvetica,sans-Serif" font-size="10.00">KokkosInterface.h</text>
</a>
</g>
</g>
<!-- Node7&#45;&gt;Node8 -->
<g id="edge7" class="edge">
<title>Node7&#45;&gt;Node8</title>
<path fill="none" stroke="midnightblue" d="M1266.78,-168.32C1276.34,-160.26 1290.78,-148.08 1302.28,-138.37"/>
<polygon fill="midnightblue" stroke="midnightblue" points="1304.64,-140.96 1310.03,-131.83 1300.13,-135.61 1304.64,-140.96"/>
</g>
<!-- Node13 -->
<g id="node13" class="node">
<title>Node13</title>
<g id="a_node13"><a xlink:title=" ">
<polygon fill="white" stroke="#bfbfbf" points="1143,-112.5 1143,-131.5 1212,-131.5 1212,-112.5 1143,-112.5"/>
<text text-anchor="middle" x="1177.5" y="-119.5" font-family="Helvetica,sans-Serif" font-size="10.00">type_traits</text>
</a>
</g>
</g>
<!-- Node7&#45;&gt;Node13 -->
<g id="edge12" class="edge">
<title>Node7&#45;&gt;Node13</title>
<path fill="none" stroke="midnightblue" d="M1243.81,-168.32C1231.6,-159.98 1212.92,-147.21 1198.5,-137.35"/>
<polygon fill="midnightblue" stroke="midnightblue" points="1200.39,-134.41 1190.16,-131.65 1196.44,-140.19 1200.39,-134.41"/>
</g>
<!-- Node9 -->
<g id="node9" class="node">
<title>Node9</title>
<g id="a_node9"><a xlink:title=" ">
<polygon fill="white" stroke="#bfbfbf" points="1310,-56.5 1310,-75.5 1363,-75.5 1363,-56.5 1310,-56.5"/>
<text text-anchor="middle" x="1336.5" y="-63.5" font-family="Helvetica,sans-Serif" font-size="10.00">cstddef</text>
</a>
</g>
</g>
<!-- Node8&#45;&gt;Node9 -->
<g id="edge8" class="edge">
<title>Node8&#45;&gt;Node9</title>
<path fill="none" stroke="midnightblue" d="M1323.14,-112.08C1325.29,-104.85 1328.38,-94.41 1331.05,-85.4"/>
<polygon fill="midnightblue" stroke="midnightblue" points="1334.42,-86.33 1333.91,-75.75 1327.71,-84.34 1334.42,-86.33"/>
</g>
<!-- Node10 -->
<g id="node10" class="node">
<title>Node10</title>
<g id="a_node10"><a xlink:title=" ">
<polygon fill="white" stroke="#bfbfbf" points="1032,-56.5 1032,-75.5 1173,-75.5 1173,-56.5 1032,-56.5"/>
<text text-anchor="middle" x="1102.5" y="-63.5" font-family="Helvetica,sans-Serif" font-size="10.00">stk_mesh/base/Entity.hpp</text>
</a>
</g>
</g>
<!-- Node8&#45;&gt;Node10 -->
<g id="edge9" class="edge">
<title>Node8&#45;&gt;Node10</title>
<path fill="none" stroke="midnightblue" d="M1285.96,-112.44C1248.25,-103.1 1187.76,-88.12 1146.64,-77.93"/>
<polygon fill="midnightblue" stroke="midnightblue" points="1147.43,-74.52 1136.88,-75.52 1145.75,-81.32 1147.43,-74.52"/>
</g>
<!-- Node11 -->
<g id="node11" class="node">
<title>Node11</title>
<g id="a_node11"><a xlink:title=" ">
<polygon fill="white" stroke="#bfbfbf" points="1381,-56.5 1381,-75.5 1494,-75.5 1494,-56.5 1381,-56.5"/>
<text text-anchor="middle" x="1437.5" y="-63.5" font-family="Helvetica,sans-Serif" font-size="10.00">Kokkos_Macros.hpp</text>
</a>
</g>
</g>
<!-- Node8&#45;&gt;Node11 -->
<g id="edge10" class="edge">
<title>Node8&#45;&gt;Node11</title>
<path fill="none" stroke="midnightblue" d="M1339.04,-112.44C1358.12,-103.64 1388.07,-89.81 1409.94,-79.72"/>
<polygon fill="midnightblue" stroke="midnightblue" points="1411.43,-82.88 1419.05,-75.52 1408.5,-76.53 1411.43,-82.88"/>
</g>
<!-- Node12 -->
<g id="node12" class="node">
<title>Node12</title>
<g id="a_node12"><a xlink:title=" ">
<polygon fill="white" stroke="#bfbfbf" points="1191.5,-56.5 1191.5,-75.5 1291.5,-75.5 1291.5,-56.5 1191.5,-56.5"/>
<text text-anchor="middle" x="1241.5" y="-63.5" font-family="Helvetica,sans-Serif" font-size="10.00">Kokkos_Core.hpp</text>
</a>
</g>
</g>
<!-- Node8&#45;&gt;Node12 -->
<g id="edge11" class="edge">
<title>Node8&#45;&gt;Node12</title>
<path fill="none" stroke="midnightblue" d="M1307.81,-112.32C1295.6,-103.98 1276.92,-91.21 1262.5,-81.35"/>
<polygon fill="midnightblue" stroke="midnightblue" points="1264.39,-78.41 1254.16,-75.65 1260.44,-84.19 1264.39,-78.41"/>
</g>
<!-- Node14&#45;&gt;Node8 -->
<g id="edge24" class="edge">
<title>Node14&#45;&gt;Node8</title>
<path fill="none" stroke="midnightblue" d="M1369.18,-168.32C1360.61,-160.34 1347.69,-148.31 1337.31,-138.65"/>
<polygon fill="midnightblue" stroke="midnightblue" points="1339.69,-136.09 1329.99,-131.83 1334.92,-141.21 1339.69,-136.09"/>
</g>
<!-- Node15 -->
<g id="node15" class="node">
<title>Node15</title>
<g id="a_node15"><a xlink:href="_ngp_mesh_info_8h.html" target="_top" xlink:title="NGP mesh information objects.">
<polygon fill="white" stroke="black" points="1839,-112.5 1839,-131.5 1976,-131.5 1976,-112.5 1839,-112.5"/>
<text text-anchor="middle" x="1907.5" y="-119.5" font-family="Helvetica,sans-Serif" font-size="10.00">ngp_utils/NgpMeshInfo.h</text>
</a>
</g>
</g>
<!-- Node14&#45;&gt;Node15 -->
<g id="edge14" class="edge">
<title>Node14&#45;&gt;Node15</title>
<path fill="none" stroke="midnightblue" d="M1438.7,-169.03C1441.67,-168.67 1444.62,-168.33 1447.5,-168 1581.21,-152.74 1737.15,-138.16 1828.81,-129.92"/>
<polygon fill="midnightblue" stroke="midnightblue" points="1829.2,-133.4 1838.85,-129.02 1828.57,-126.43 1829.2,-133.4"/>
</g>
<!-- Node17 -->
<g id="node17" class="node">
<title>Node17</title>
<g id="a_node17"><a xlink:title=" ">
<polygon fill="white" stroke="#bfbfbf" points="1640.5,-56.5 1640.5,-75.5 1800.5,-75.5 1800.5,-56.5 1640.5,-56.5"/>
<text text-anchor="middle" x="1720.5" y="-63.5" font-family="Helvetica,sans-Serif" font-size="10.00">stk_mesh/base/NgpMesh.hpp</text>
</a>
</g>
</g>
<!-- Node14&#45;&gt;Node17 -->
<g id="edge23" class="edge">
<title>Node14&#45;&gt;Node17</title>
<path fill="none" stroke="midnightblue" d="M1405.05,-168.46C1465.78,-148.93 1614.91,-100.96 1684.12,-78.7"/>
<polygon fill="midnightblue" stroke="midnightblue" points="1685.28,-82 1693.73,-75.61 1683.14,-75.34 1685.28,-82"/>
</g>
<!-- Node24 -->
<g id="node24" class="node">
<title>Node24</title>
<g id="a_node24"><a xlink:href="_simd_interface_8h.html" target="_top" xlink:title="STK SIMD Interface.">
<polygon fill="white" stroke="black" points="1390.5,-112.5 1390.5,-131.5 1484.5,-131.5 1484.5,-112.5 1390.5,-112.5"/>
<text text-anchor="middle" x="1437.5" y="-119.5" font-family="Helvetica,sans-Serif" font-size="10.00">SimdInterface.h</text>
</a>
</g>
</g>
<!-- Node14&#45;&gt;Node24 -->
<g id="edge25" class="edge">
<title>Node14&#45;&gt;Node24</title>
<path fill="none" stroke="midnightblue" d="M1387.98,-168.32C1396.7,-160.34 1409.84,-148.31 1420.4,-138.65"/>
<polygon fill="midnightblue" stroke="midnightblue" points="1422.83,-141.17 1427.85,-131.83 1418.11,-136 1422.83,-141.17"/>
</g>
<!-- Node27 -->
<g id="node27" class="node">
<title>Node27</title>
<g id="a_node27"><a xlink:title=" ">
<polygon fill="white" stroke="#bfbfbf" points="879.5,-56.5 879.5,-75.5 937.5,-75.5 937.5,-56.5 879.5,-56.5"/>
<text text-anchor="middle" x="908.5" y="-63.5" font-family="Helvetica,sans-Serif" font-size="10.00">memory</text>
</a>
</g>
</g>
<!-- Node14&#45;&gt;Node27 -->
<g id="edge29" class="edge">
<title>Node14&#45;&gt;Node27</title>
<path fill="none" stroke="midnightblue" d="M1353.06,-168.4C1328.71,-159.94 1291.12,-146.24 1259.5,-132 1242.1,-124.17 1239.65,-117.89 1221.5,-112 1171.29,-95.72 1019.91,-78.51 947.68,-70.95"/>
<polygon fill="midnightblue" stroke="midnightblue" points="947.92,-67.45 937.61,-69.9 947.2,-74.42 947.92,-67.45"/>
</g>
<!-- Node16 -->
<g id="node16" class="node">
<title>Node16</title>
<g id="a_node16"><a xlink:title=" ">
<polygon fill="white" stroke="#bfbfbf" points="2189.5,-56.5 2189.5,-75.5 2323.5,-75.5 2323.5,-56.5 2189.5,-56.5"/>
<text text-anchor="middle" x="2256.5" y="-63.5" font-family="Helvetica,sans-Serif" font-size="10.00">stk_mesh/base/Ngp.hpp</text>
</a>
</g>
</g>
<!-- Node15&#45;&gt;Node16 -->
<g id="edge15" class="edge">
<title>Node15&#45;&gt;Node16</title>
<path fill="none" stroke="midnightblue" d="M1962.8,-112.44C2024.83,-102.85 2125.36,-87.29 2191.2,-77.1"/>
<polygon fill="midnightblue" stroke="midnightblue" points="2192.11,-80.5 2201.46,-75.52 2191.04,-73.59 2192.11,-80.5"/>
</g>
<!-- Node15&#45;&gt;Node17 -->
<g id="edge16" class="edge">
<title>Node15&#45;&gt;Node17</title>
<path fill="none" stroke="midnightblue" d="M1877.87,-112.44C1846,-103.24 1795.17,-88.56 1759.94,-78.39"/>
<polygon fill="midnightblue" stroke="midnightblue" points="1760.57,-74.93 1749.99,-75.52 1758.63,-81.65 1760.57,-74.93"/>
</g>
<!-- Node18 -->
<g id="node18" class="node">
<title>Node18</title>
<g id="a_node18"><a xlink:title=" ">
<polygon fill="white" stroke="#bfbfbf" points="1819,-56.5 1819,-75.5 1996,-75.5 1996,-56.5 1819,-56.5"/>
<text text-anchor="middle" x="1907.5" y="-63.5" font-family="Helvetica,sans-Serif" font-size="10.00">stk_mesh/base/GetNgpMesh.hpp</text>
</a>
</g>
</g>
<!-- Node15&#45;&gt;Node18 -->
<g id="edge17" class="edge">
<title>Node15&#45;&gt;Node18</title>
<path fill="none" stroke="midnightblue" d="M1907.5,-112.08C1907.5,-105.01 1907.5,-94.86 1907.5,-85.99"/>
<polygon fill="midnightblue" stroke="midnightblue" points="1911,-85.75 1907.5,-75.75 1904,-85.75 1911,-85.75"/>
</g>
<!-- Node19 -->
<g id="node19" class="node">
<title>Node19</title>
<g id="a_node19"><a xlink:href="_ngp_field_manager_8h.html" target="_top" xlink:title="NGP Field Manager.">
<polygon fill="white" stroke="black" points="2013.5,-56.5 2013.5,-75.5 2171.5,-75.5 2171.5,-56.5 2013.5,-56.5"/>
<text text-anchor="middle" x="2092.5" y="-63.5" font-family="Helvetica,sans-Serif" font-size="10.00">ngp_utils/NgpFieldManager.h</text>
</a>
</g>
</g>
<!-- Node15&#45;&gt;Node19 -->
<g id="edge18" class="edge">
<title>Node15&#45;&gt;Node19</title>
<path fill="none" stroke="midnightblue" d="M1936.81,-112.44C1968.34,-103.24 2018.63,-88.56 2053.49,-78.39"/>
<polygon fill="midnightblue" stroke="midnightblue" points="2054.7,-81.68 2063.32,-75.52 2052.74,-74.96 2054.7,-81.68"/>
</g>
<!-- Node20 -->
<g id="node20" class="node">
<title>Node20</title>
<g id="a_node20"><a xlink:title=" ">
<polygon fill="white" stroke="#bfbfbf" points="2096,-0.5 2096,-19.5 2255,-19.5 2255,-0.5 2096,-0.5"/>
<text text-anchor="middle" x="2175.5" y="-7.5" font-family="Helvetica,sans-Serif" font-size="10.00">stk_mesh/base/BulkData.hpp</text>
</a>
</g>
</g>
<!-- Node19&#45;&gt;Node20 -->
<g id="edge19" class="edge">
<title>Node19&#45;&gt;Node20</title>
<path fill="none" stroke="midnightblue" d="M2105.84,-56.32C2118.66,-47.98 2138.28,-35.21 2153.44,-25.35"/>
<polygon fill="midnightblue" stroke="midnightblue" points="2155.72,-28.04 2162.2,-19.65 2151.91,-22.17 2155.72,-28.04"/>
</g>
<!-- Node21 -->
<g id="node21" class="node">
<title>Node21</title>
<g id="a_node21"><a xlink:title=" ">
<polygon fill="white" stroke="#bfbfbf" points="1723.5,-0.5 1723.5,-19.5 1885.5,-19.5 1885.5,-0.5 1723.5,-0.5"/>
<text text-anchor="middle" x="1804.5" y="-7.5" font-family="Helvetica,sans-Serif" font-size="10.00">stk_mesh/base/MetaData.hpp</text>
</a>
</g>
</g>
<!-- Node19&#45;&gt;Node21 -->
<g id="edge20" class="edge">
<title>Node19&#45;&gt;Node21</title>
<path fill="none" stroke="midnightblue" d="M2046.87,-56.44C1996.2,-46.94 1914.43,-31.61 1860.07,-21.42"/>
<polygon fill="midnightblue" stroke="midnightblue" points="1860.39,-17.92 1849.92,-19.52 1859.1,-24.8 1860.39,-17.92"/>
</g>
<!-- Node22 -->
<g id="node22" class="node">
<title>Node22</title>
<g id="a_node22"><a xlink:title=" ">
<polygon fill="white" stroke="#bfbfbf" points="2273,-0.5 2273,-19.5 2430,-19.5 2430,-0.5 2273,-0.5"/>
<text text-anchor="middle" x="2351.5" y="-7.5" font-family="Helvetica,sans-Serif" font-size="10.00">stk_mesh/base/NgpField.hpp</text>
</a>
</g>
</g>
<!-- Node19&#45;&gt;Node22 -->
<g id="edge21" class="edge">
<title>Node19&#45;&gt;Node22</title>
<path fill="none" stroke="midnightblue" d="M2133.54,-56.44C2178.82,-47 2251.73,-31.8 2300.61,-21.61"/>
<polygon fill="midnightblue" stroke="midnightblue" points="2301.58,-24.98 2310.65,-19.52 2300.15,-18.13 2301.58,-24.98"/>
</g>
<!-- Node23 -->
<g id="node23" class="node">
<title>Node23</title>
<g id="a_node23"><a xlink:title=" ">
<polygon fill="white" stroke="#bfbfbf" points="1903.5,-0.5 1903.5,-19.5 2077.5,-19.5 2077.5,-0.5 1903.5,-0.5"/>
<text text-anchor="middle" x="1990.5" y="-7.5" font-family="Helvetica,sans-Serif" font-size="10.00">stk_mesh/base/GetNgpField.hpp</text>
</a>
</g>
</g>
<!-- Node19&#45;&gt;Node23 -->
<g id="edge22" class="edge">
<title>Node19&#45;&gt;Node23</title>
<path fill="none" stroke="midnightblue" d="M2076.11,-56.32C2059.83,-47.7 2034.63,-34.36 2015.78,-24.39"/>
<polygon fill="midnightblue" stroke="midnightblue" points="2017.32,-21.24 2006.85,-19.65 2014.05,-27.43 2017.32,-21.24"/>
</g>
<!-- Node24&#45;&gt;Node11 -->
<g id="edge27" class="edge">
<title>Node24&#45;&gt;Node11</title>
<path fill="none" stroke="midnightblue" d="M1437.5,-112.08C1437.5,-105.01 1437.5,-94.86 1437.5,-85.99"/>
<polygon fill="midnightblue" stroke="midnightblue" points="1441,-85.75 1437.5,-75.75 1434,-85.75 1441,-85.75"/>
</g>
<!-- Node25 -->
<g id="node25" class="node">
<title>Node25</title>
<g id="a_node25"><a xlink:title=" ">
<polygon fill="white" stroke="#bfbfbf" points="1512.5,-56.5 1512.5,-75.5 1622.5,-75.5 1622.5,-56.5 1512.5,-56.5"/>
<text text-anchor="middle" x="1567.5" y="-63.5" font-family="Helvetica,sans-Serif" font-size="10.00">stk_simd/Simd.hpp</text>
</a>
</g>
</g>
<!-- Node24&#45;&gt;Node25 -->
<g id="edge26" class="edge">
<title>Node24&#45;&gt;Node25</title>
<path fill="none" stroke="midnightblue" d="M1458.1,-112.44C1479.49,-103.56 1513.18,-89.56 1537.52,-79.45"/>
<polygon fill="midnightblue" stroke="midnightblue" points="1539.11,-82.58 1547,-75.52 1536.42,-76.12 1539.11,-82.58"/>
</g>
<!-- Node26 -->
<g id="node26" class="node">
<title>Node26</title>
<g id="a_node26"><a xlink:title=" ">
<polygon fill="white" stroke="#bfbfbf" points="546,-56.5 546,-75.5 593,-75.5 593,-56.5 546,-56.5"/>
<text text-anchor="middle" x="569.5" y="-63.5" font-family="Helvetica,sans-Serif" font-size="10.00">vector</text>
</a>
</g>
</g>
<!-- Node24&#45;&gt;Node26 -->
<g id="edge28" class="edge">
<title>Node24&#45;&gt;Node26</title>
<path fill="none" stroke="midnightblue" d="M1390.49,-113.08C1387.46,-112.68 1384.44,-112.31 1381.5,-112 1087.2,-80.47 1012,-93.04 716.5,-76 677.74,-73.76 633.24,-71.01 603.45,-69.15"/>
<polygon fill="midnightblue" stroke="midnightblue" points="603.37,-65.64 593.17,-68.5 602.94,-72.62 603.37,-65.64"/>
</g>
<!-- Node29&#45;&gt;Node16 -->
<g id="edge33" class="edge">
<title>Node29&#45;&gt;Node16</title>
<path fill="none" stroke="midnightblue" d="M2336.24,-112.32C2321.28,-103.82 2298.25,-90.73 2280.77,-80.8"/>
<polygon fill="midnightblue" stroke="midnightblue" points="2282.15,-77.55 2271.73,-75.65 2278.69,-83.64 2282.15,-77.55"/>
</g>
<!-- Node29&#45;&gt;Node22 -->
<g id="edge34" class="edge">
<title>Node29&#45;&gt;Node22</title>
<path fill="none" stroke="midnightblue" d="M2351.5,-112.37C2351.5,-94.62 2351.5,-53.67 2351.5,-29.6"/>
<polygon fill="midnightblue" stroke="midnightblue" points="2355,-29.59 2351.5,-19.59 2348,-29.59 2355,-29.59"/>
</g>
<!-- Node30 -->
<g id="node30" class="node">
<title>Node30</title>
<g id="a_node30"><a xlink:title=" ">
<polygon fill="white" stroke="#bfbfbf" points="2380,-56.5 2380,-75.5 2541,-75.5 2541,-56.5 2380,-56.5"/>
<text text-anchor="middle" x="2460.5" y="-63.5" font-family="Helvetica,sans-Serif" font-size="10.00">stk_mesh/base/FieldBase.hpp</text>
</a>
</g>
</g>
<!-- Node29&#45;&gt;Node30 -->
<g id="edge32" class="edge">
<title>Node29&#45;&gt;Node30</title>
<path fill="none" stroke="midnightblue" d="M2369.01,-112.32C2386.57,-103.62 2413.83,-90.12 2434.03,-80.11"/>
<polygon fill="midnightblue" stroke="midnightblue" points="2435.62,-83.23 2443.03,-75.65 2432.52,-76.96 2435.62,-83.23"/>
</g>
<!-- Node31 -->
<g id="node31" class="node">
<title>Node31</title>
<g id="a_node31"><a xlink:title=" ">
<polygon fill="white" stroke="#bfbfbf" points="2559,-56.5 2559,-75.5 2624,-75.5 2624,-56.5 2559,-56.5"/>
<text text-anchor="middle" x="2591.5" y="-63.5" font-family="Helvetica,sans-Serif" font-size="10.00">functional</text>
</a>
</g>
</g>
<!-- Node29&#45;&gt;Node31 -->
<g id="edge35" class="edge">
<title>Node29&#45;&gt;Node31</title>
<path fill="none" stroke="midnightblue" d="M2389.53,-112.44C2432.91,-102.68 2503.66,-86.77 2548.87,-76.59"/>
<polygon fill="midnightblue" stroke="midnightblue" points="2549.67,-80 2558.66,-74.39 2548.14,-73.17 2549.67,-80"/>
</g>
<!-- Node32&#45;&gt;Node26 -->
<g id="edge74" class="edge">
<title>Node32&#45;&gt;Node26</title>
<path fill="none" stroke="midnightblue" d="M476.35,-168.44C489.87,-160.21 509.88,-146.84 524.5,-132 538.61,-117.68 551.3,-98.47 559.58,-84.66"/>
<polygon fill="midnightblue" stroke="midnightblue" points="562.79,-86.1 564.79,-75.69 556.74,-82.58 562.79,-86.1"/>
</g>
<!-- Node32&#45;&gt;Node28 -->
<g id="edge73" class="edge">
<title>Node32&#45;&gt;Node28</title>
<path fill="none" stroke="midnightblue" d="M419.85,-174.45C385.18,-170.33 336.34,-159.64 303.5,-132 276.07,-108.92 252.6,-82.72 276.5,-56 301.04,-28.56 555.11,-15.88 646.21,-12.19"/>
<polygon fill="midnightblue" stroke="midnightblue" points="646.39,-15.69 656.24,-11.79 646.11,-8.69 646.39,-15.69"/>
</g>
<!-- Node33 -->
<g id="node33" class="node">
<title>Node33</title>
<g id="a_node33"><a xlink:href="_boundary_conditions_8h.html" target="_top" xlink:title=" ">
<polygon fill="white" stroke="black" points="741.5,-112.5 741.5,-131.5 865.5,-131.5 865.5,-112.5 741.5,-112.5"/>
<text text-anchor="middle" x="803.5" y="-119.5" font-family="Helvetica,sans-Serif" font-size="10.00">BoundaryConditions.h</text>
</a>
</g>
</g>
<!-- Node32&#45;&gt;Node33 -->
<g id="edge37" class="edge">
<title>Node32&#45;&gt;Node33</title>
<path fill="none" stroke="midnightblue" d="M503.09,-170.43C562.05,-161.12 670.44,-144.01 739.64,-133.08"/>
<polygon fill="midnightblue" stroke="midnightblue" points="740.22,-136.53 749.55,-131.52 739.13,-129.62 740.22,-136.53"/>
</g>
<!-- Node34 -->
<g id="node34" class="node">
<title>Node34</title>
<g id="a_node34"><a xlink:href="_enums_8h.html" target="_top" xlink:title=" ">
<polygon fill="white" stroke="black" points="726,-56.5 726,-75.5 785,-75.5 785,-56.5 726,-56.5"/>
<text text-anchor="middle" x="755.5" y="-63.5" font-family="Helvetica,sans-Serif" font-size="10.00">Enums.h</text>
</a>
</g>
</g>
<!-- Node32&#45;&gt;Node34 -->
<g id="edge45" class="edge">
<title>Node32&#45;&gt;Node34</title>
<path fill="none" stroke="midnightblue" d="M503.02,-176.44C551.52,-174.17 632.84,-165.16 693.5,-132 714.58,-120.48 732.74,-99.29 743.86,-84.24"/>
<polygon fill="midnightblue" stroke="midnightblue" points="746.91,-85.98 749.84,-75.8 741.2,-81.94 746.91,-85.98"/>
</g>
<!-- Node36 -->
<g id="node36" class="node">
<title>Node36</title>
<g id="a_node36"><a xlink:href="_initial_conditions_8h.html" target="_top" xlink:title=" ">
<polygon fill="white" stroke="black" points="884,-112.5 884,-131.5 989,-131.5 989,-112.5 884,-112.5"/>
<text text-anchor="middle" x="936.5" y="-119.5" font-family="Helvetica,sans-Serif" font-size="10.00">InitialConditions.h</text>
</a>
</g>
</g>
<!-- Node32&#45;&gt;Node36 -->
<g id="edge46" class="edge">
<title>Node32&#45;&gt;Node36</title>
<path fill="none" stroke="midnightblue" d="M503.18,-172.95C576.01,-165.78 731.4,-149.99 873.54,-132.08"/>
<polygon fill="midnightblue" stroke="midnightblue" points="874.27,-135.52 883.75,-130.79 873.39,-128.57 874.27,-135.52"/>
</g>
<!-- Node37 -->
<g id="node37" class="node">
<title>Node37</title>
<g id="a_node37"><a xlink:href="_material_propertys_8h.html" target="_top" xlink:title=" ">
<polygon fill="white" stroke="black" points="572,-112.5 572,-131.5 685,-131.5 685,-112.5 572,-112.5"/>
<text text-anchor="middle" x="628.5" y="-119.5" font-family="Helvetica,sans-Serif" font-size="10.00">MaterialPropertys.h</text>
</a>
</g>
</g>
<!-- Node32&#45;&gt;Node37 -->
<g id="edge52" class="edge">
<title>Node32&#45;&gt;Node37</title>
<path fill="none" stroke="midnightblue" d="M487.96,-168.44C516.18,-159.32 561.04,-144.81 592.47,-134.65"/>
<polygon fill="midnightblue" stroke="midnightblue" points="593.72,-137.92 602.16,-131.52 591.57,-131.26 593.72,-137.92"/>
</g>
<!-- Node38 -->
<g id="node38" class="node">
<title>Node38</title>
<g id="a_node38"><a xlink:href="_nalu_parsed_types_8h.html" target="_top" xlink:title=" ">
<polygon fill="white" stroke="black" points="407.5,-112.5 407.5,-131.5 515.5,-131.5 515.5,-112.5 407.5,-112.5"/>
<text text-anchor="middle" x="461.5" y="-119.5" font-family="Helvetica,sans-Serif" font-size="10.00">NaluParsedTypes.h</text>
</a>
</g>
</g>
<!-- Node32&#45;&gt;Node38 -->
<g id="edge57" class="edge">
<title>Node32&#45;&gt;Node38</title>
<path fill="none" stroke="midnightblue" d="M461.5,-168.08C461.5,-161.01 461.5,-150.86 461.5,-141.99"/>
<polygon fill="midnightblue" stroke="midnightblue" points="465,-141.75 461.5,-131.75 458,-141.75 465,-141.75"/>
</g>
<!-- Node39 -->
<g id="node39" class="node">
<title>Node39</title>
<g id="a_node39"><a xlink:href="_nalu_parsing_helper_8h.html" target="_top" xlink:title=" ">
<polygon fill="white" stroke="black" points="114,-112.5 114,-131.5 229,-131.5 229,-112.5 114,-112.5"/>
<text text-anchor="middle" x="171.5" y="-119.5" font-family="Helvetica,sans-Serif" font-size="10.00">NaluParsingHelper.h</text>
</a>
</g>
</g>
<!-- Node32&#45;&gt;Node39 -->
<g id="edge60" class="edge">
<title>Node32&#45;&gt;Node39</title>
<path fill="none" stroke="midnightblue" d="M419.95,-169.26C369.38,-159.85 283.78,-143.91 227.44,-133.42"/>
<polygon fill="midnightblue" stroke="midnightblue" points="227.75,-129.91 217.28,-131.52 226.47,-136.8 227.75,-129.91"/>
</g>
<!-- Node40 -->
<g id="node40" class="node">
<title>Node40</title>
<g id="a_node40"><a xlink:title=" ">
<polygon fill="white" stroke="#bfbfbf" points="0,-56.5 0,-75.5 99,-75.5 99,-56.5 0,-56.5"/>
<text text-anchor="middle" x="49.5" y="-63.5" font-family="Helvetica,sans-Serif" font-size="10.00">yaml&#45;cpp/yaml.h</text>
</a>
</g>
</g>
<!-- Node32&#45;&gt;Node40 -->
<g id="edge70" class="edge">
<title>Node32&#45;&gt;Node40</title>
<path fill="none" stroke="midnightblue" d="M419.95,-176C336.18,-173.32 150.44,-163.87 96.5,-132 78.19,-121.18 64.99,-100.13 57.33,-84.91"/>
<polygon fill="midnightblue" stroke="midnightblue" points="60.33,-83.07 52.92,-75.5 54,-86.04 60.33,-83.07"/>
</g>
<!-- Node41 -->
<g id="node41" class="node">
<title>Node41</title>
<g id="a_node41"><a xlink:title=" ">
<polygon fill="white" stroke="#bfbfbf" points="125.5,-56.5 125.5,-75.5 185.5,-75.5 185.5,-56.5 125.5,-56.5"/>
<text text-anchor="middle" x="155.5" y="-63.5" font-family="Helvetica,sans-Serif" font-size="10.00">iostream</text>
</a>
</g>
</g>
<!-- Node32&#45;&gt;Node41 -->
<g id="edge71" class="edge">
<title>Node32&#45;&gt;Node41</title>
<path fill="none" stroke="midnightblue" d="M419.68,-174.79C329.89,-169.61 125.08,-155.34 104.5,-132 89.62,-115.13 112.1,-94.54 131.76,-81.12"/>
<polygon fill="midnightblue" stroke="midnightblue" points="133.68,-84.04 140.17,-75.66 129.87,-78.17 133.68,-84.04"/>
</g>
<!-- Node42 -->
<g id="node42" class="node">
<title>Node42</title>
<g id="a_node42"><a xlink:title=" ">
<polygon fill="white" stroke="#bfbfbf" points="286,-56.5 286,-75.5 341,-75.5 341,-56.5 286,-56.5"/>
<text text-anchor="middle" x="313.5" y="-63.5" font-family="Helvetica,sans-Serif" font-size="10.00">fstream</text>
</a>
</g>
</g>
<!-- Node32&#45;&gt;Node42 -->
<g id="edge72" class="edge">
<title>Node32&#45;&gt;Node42</title>
<path fill="none" stroke="midnightblue" d="M419.82,-176.76C385.51,-174.08 338.72,-164.22 314.5,-132 304.65,-118.9 305.65,-99.75 308.37,-85.63"/>
<polygon fill="midnightblue" stroke="midnightblue" points="311.84,-86.13 310.73,-75.59 305.03,-84.52 311.84,-86.13"/>
</g>
<!-- Node43 -->
<g id="node43" class="node">
<title>Node43</title>
<g id="a_node43"><a xlink:href="_nalu_env_8h.html" target="_top" xlink:title=" ">
<polygon fill="white" stroke="black" points="324,-112.5 324,-131.5 389,-131.5 389,-112.5 324,-112.5"/>
<text text-anchor="middle" x="356.5" y="-119.5" font-family="Helvetica,sans-Serif" font-size="10.00">NaluEnv.h</text>
</a>
</g>
</g>
<!-- Node32&#45;&gt;Node43 -->
<g id="edge66" class="edge">
<title>Node32&#45;&gt;Node43</title>
<path fill="none" stroke="midnightblue" d="M444.63,-168.32C427.79,-159.66 401.69,-146.24 382.26,-136.25"/>
<polygon fill="midnightblue" stroke="midnightblue" points="383.82,-133.12 373.33,-131.65 380.62,-139.34 383.82,-133.12"/>
</g>
<!-- Node33&#45;&gt;Node26 -->
<g id="edge43" class="edge">
<title>Node33&#45;&gt;Node26</title>
<path fill="none" stroke="midnightblue" d="M766.42,-112.44C721.44,-102.06 646.28,-84.72 602.99,-74.73"/>
<polygon fill="midnightblue" stroke="midnightblue" points="603.75,-71.31 593.22,-72.47 602.18,-78.13 603.75,-71.31"/>
</g>
<!-- Node33&#45;&gt;Node27 -->
<g id="edge44" class="edge">
<title>Node33&#45;&gt;Node27</title>
<path fill="none" stroke="midnightblue" d="M820.37,-112.32C837.21,-103.66 863.31,-90.24 882.74,-80.25"/>
<polygon fill="midnightblue" stroke="midnightblue" points="884.38,-83.34 891.67,-75.65 881.18,-77.12 884.38,-83.34"/>
</g>
<!-- Node33&#45;&gt;Node28 -->
<g id="edge42" class="edge">
<title>Node33&#45;&gt;Node28</title>
<path fill="none" stroke="midnightblue" d="M778.31,-112.38C759.56,-104.99 734.26,-92.86 716.5,-76 702.47,-62.67 691.95,-43.02 685.58,-28.81"/>
<polygon fill="midnightblue" stroke="midnightblue" points="688.81,-27.45 681.69,-19.6 682.36,-30.18 688.81,-27.45"/>
</g>
<!-- Node33&#45;&gt;Node34 -->
<g id="edge38" class="edge">
<title>Node33&#45;&gt;Node34</title>
<path fill="none" stroke="midnightblue" d="M795.57,-112.08C788.65,-104.3 778.43,-92.8 770.05,-83.37"/>
<polygon fill="midnightblue" stroke="midnightblue" points="772.54,-80.9 763.28,-75.75 767.31,-85.55 772.54,-80.9"/>
</g>
<!-- Node35 -->
<g id="node35" class="node">
<title>Node35</title>
<g id="a_node35"><a xlink:title=" ">
<polygon fill="white" stroke="#bfbfbf" points="755.5,-0.5 755.5,-19.5 793.5,-19.5 793.5,-0.5 755.5,-0.5"/>
<text text-anchor="middle" x="774.5" y="-7.5" font-family="Helvetica,sans-Serif" font-size="10.00">map</text>
</a>
</g>
</g>
<!-- Node33&#45;&gt;Node35 -->
<g id="edge41" class="edge">
<title>Node33&#45;&gt;Node35</title>
<path fill="none" stroke="midnightblue" d="M802.86,-112.44C801.77,-99.88 799.1,-75.77 793.5,-56 790.9,-46.82 786.92,-37.02 783.27,-28.91"/>
<polygon fill="midnightblue" stroke="midnightblue" points="786.37,-27.29 778.95,-19.73 780.04,-30.27 786.37,-27.29"/>
</g>
<!-- Node34&#45;&gt;Node28 -->
<g id="edge39" class="edge">
<title>Node34&#45;&gt;Node28</title>
<path fill="none" stroke="midnightblue" d="M743.13,-56.32C731.34,-48.06 713.37,-35.45 699.36,-25.63"/>
<polygon fill="midnightblue" stroke="midnightblue" points="701.04,-22.53 690.84,-19.65 697.02,-28.26 701.04,-22.53"/>
</g>
<!-- Node34&#45;&gt;Node35 -->
<g id="edge40" class="edge">
<title>Node34&#45;&gt;Node35</title>
<path fill="none" stroke="midnightblue" d="M758.64,-56.08C761.18,-48.85 764.86,-38.41 768.03,-29.4"/>
<polygon fill="midnightblue" stroke="midnightblue" points="771.4,-30.35 771.42,-19.75 764.8,-28.02 771.4,-30.35"/>
</g>
<!-- Node36&#45;&gt;Node26 -->
<g id="edge50" class="edge">
<title>Node36&#45;&gt;Node26</title>
<path fill="none" stroke="midnightblue" d="M883.92,-113.26C807.32,-101.99 667.2,-81.38 603.11,-71.95"/>
<polygon fill="midnightblue" stroke="midnightblue" points="603.54,-68.47 593.14,-70.48 602.52,-75.4 603.54,-68.47"/>
</g>
<!-- Node36&#45;&gt;Node27 -->
<g id="edge51" class="edge">
<title>Node36&#45;&gt;Node27</title>
<path fill="none" stroke="midnightblue" d="M931.88,-112.08C928.04,-104.69 922.48,-93.95 917.74,-84.81"/>
<polygon fill="midnightblue" stroke="midnightblue" points="920.75,-83.02 913.04,-75.75 914.53,-86.24 920.75,-83.02"/>
</g>
<!-- Node36&#45;&gt;Node28 -->
<g id="edge49" class="edge">
<title>Node36&#45;&gt;Node28</title>
<path fill="none" stroke="midnightblue" d="M918.58,-112.48C891.63,-99.75 838.97,-75.21 793.5,-56 765.51,-44.17 733.25,-31.64 710.04,-22.82"/>
<polygon fill="midnightblue" stroke="midnightblue" points="711.28,-19.55 700.69,-19.28 708.8,-26.09 711.28,-19.55"/>
</g>
<!-- Node36&#45;&gt;Node34 -->
<g id="edge47" class="edge">
<title>Node36&#45;&gt;Node34</title>
<path fill="none" stroke="midnightblue" d="M907.82,-112.44C876.97,-103.24 827.77,-88.56 793.67,-78.39"/>
<polygon fill="midnightblue" stroke="midnightblue" points="794.63,-75.02 784.05,-75.52 792.63,-81.73 794.63,-75.02"/>
</g>
<!-- Node36&#45;&gt;Node35 -->
<g id="edge48" class="edge">
<title>Node36&#45;&gt;Node35</title>
<path fill="none" stroke="midnightblue" d="M941.47,-112.41C948.56,-98.93 959.34,-72.63 946.5,-56 929.21,-33.6 848.43,-20.2 803.99,-14.4"/>
<polygon fill="midnightblue" stroke="midnightblue" points="804.16,-10.89 793.8,-13.12 803.29,-17.84 804.16,-10.89"/>
</g>
<!-- Node37&#45;&gt;Node26 -->
<g id="edge56" class="edge">
<title>Node37&#45;&gt;Node26</title>
<path fill="none" stroke="midnightblue" d="M619.02,-112.32C610.3,-104.34 597.16,-92.31 586.6,-82.65"/>
<polygon fill="midnightblue" stroke="midnightblue" points="588.89,-80 579.15,-75.83 584.17,-85.17 588.89,-80"/>
</g>
<!-- Node37&#45;&gt;Node28 -->
<g id="edge55" class="edge">
<title>Node37&#45;&gt;Node28</title>
<path fill="none" stroke="midnightblue" d="M629.72,-112.23C631.74,-99.39 636.48,-74.96 645.5,-56 650.33,-45.85 657.56,-35.66 664.03,-27.54"/>
<polygon fill="midnightblue" stroke="midnightblue" points="666.88,-29.58 670.59,-19.66 661.5,-25.11 666.88,-29.58"/>
</g>
<!-- Node37&#45;&gt;Node34 -->
<g id="edge53" class="edge">
<title>Node37&#45;&gt;Node34</title>
<path fill="none" stroke="midnightblue" d="M648.62,-112.44C669.52,-103.56 702.43,-89.56 726.22,-79.45"/>
<polygon fill="midnightblue" stroke="midnightblue" points="727.64,-82.65 735.47,-75.52 724.9,-76.21 727.64,-82.65"/>
</g>
<!-- Node37&#45;&gt;Node35 -->
<g id="edge54" class="edge">
<title>Node37&#45;&gt;Node35</title>
<path fill="none" stroke="midnightblue" d="M639.96,-112.37C664.8,-93.65 723.86,-49.15 754.81,-25.83"/>
<polygon fill="midnightblue" stroke="midnightblue" points="757.22,-28.4 763.1,-19.59 753,-22.81 757.22,-28.4"/>
</g>
<!-- Node38&#45;&gt;Node26 -->
<g id="edge59" class="edge">
<title>Node38&#45;&gt;Node26</title>
<path fill="none" stroke="midnightblue" d="M478.85,-112.32C496.17,-103.66 523.02,-90.24 543,-80.25"/>
<polygon fill="midnightblue" stroke="midnightblue" points="544.81,-83.26 552.19,-75.65 541.68,-77 544.81,-83.26"/>
</g>
<!-- Node38&#45;&gt;Node28 -->
<g id="edge58" class="edge">
<title>Node38&#45;&gt;Node28</title>
<path fill="none" stroke="midnightblue" d="M469.4,-112.14C482.2,-98.29 508.84,-71.49 536.5,-56 571.62,-36.33 616.53,-23.95 646.34,-17.26"/>
<polygon fill="midnightblue" stroke="midnightblue" points="647.17,-20.66 656.21,-15.13 645.7,-13.81 647.17,-20.66"/>
</g>
<!-- Node39&#45;&gt;Node26 -->
<g id="edge65" class="edge">
<title>Node39&#45;&gt;Node26</title>
<path fill="none" stroke="midnightblue" d="M229.37,-113.15C313.69,-101.71 467.64,-80.82 535.65,-71.59"/>
<polygon fill="midnightblue" stroke="midnightblue" points="536.37,-75.03 545.81,-70.21 535.43,-68.09 536.37,-75.03"/>
</g>
<!-- Node39&#45;&gt;Node28 -->
<g id="edge64" class="edge">
<title>Node39&#45;&gt;Node28</title>
<path fill="none" stroke="midnightblue" d="M177.92,-112.4C189.3,-97.89 214.58,-68.87 243.5,-56 315.66,-23.88 557.89,-14.25 646.06,-11.76"/>
<polygon fill="midnightblue" stroke="midnightblue" points="646.36,-15.26 656.26,-11.49 646.17,-8.26 646.36,-15.26"/>
</g>
<!-- Node39&#45;&gt;Node40 -->
<g id="edge61" class="edge">
<title>Node39&#45;&gt;Node40</title>
<path fill="none" stroke="midnightblue" d="M152.17,-112.44C132.18,-103.6 100.76,-89.69 77.94,-79.59"/>
<polygon fill="midnightblue" stroke="midnightblue" points="79.3,-76.36 68.74,-75.52 76.47,-82.76 79.3,-76.36"/>
</g>
<!-- Node39&#45;&gt;Node41 -->
<g id="edge62" class="edge">
<title>Node39&#45;&gt;Node41</title>
<path fill="none" stroke="midnightblue" d="M168.86,-112.08C166.71,-104.85 163.62,-94.41 160.95,-85.4"/>
<polygon fill="midnightblue" stroke="midnightblue" points="164.29,-84.34 158.09,-75.75 157.58,-86.33 164.29,-84.34"/>
</g>
<!-- Node39&#45;&gt;Node42 -->
<g id="edge63" class="edge">
<title>Node39&#45;&gt;Node42</title>
<path fill="none" stroke="midnightblue" d="M194,-112.44C217.58,-103.48 254.82,-89.31 281.46,-79.18"/>
<polygon fill="midnightblue" stroke="midnightblue" points="283,-82.34 291.1,-75.52 280.51,-75.8 283,-82.34"/>
</g>
<!-- Node43&#45;&gt;Node42 -->
<g id="edge68" class="edge">
<title>Node43&#45;&gt;Node42</title>
<path fill="none" stroke="midnightblue" d="M349.4,-112.08C343.26,-104.38 334.23,-93.03 326.76,-83.65"/>
<polygon fill="midnightblue" stroke="midnightblue" points="329.44,-81.39 320.47,-75.75 323.96,-85.75 329.44,-81.39"/>
</g>
<!-- Node44 -->
<g id="node44" class="node">
<title>Node44</title>
<g id="a_node44"><a xlink:title=" ">
<polygon fill="white" stroke="#bfbfbf" points="359.5,-56.5 359.5,-75.5 403.5,-75.5 403.5,-56.5 359.5,-56.5"/>
<text text-anchor="middle" x="381.5" y="-63.5" font-family="Helvetica,sans-Serif" font-size="10.00">mpi.h</text>
</a>
</g>
</g>
<!-- Node43&#45;&gt;Node44 -->
<g id="edge67" class="edge">
<title>Node43&#45;&gt;Node44</title>
<path fill="none" stroke="midnightblue" d="M360.63,-112.08C364.01,-104.77 368.92,-94.18 373.12,-85.1"/>
<polygon fill="midnightblue" stroke="midnightblue" points="376.42,-86.3 377.45,-75.75 370.07,-83.36 376.42,-86.3"/>
</g>
<!-- Node45 -->
<g id="node45" class="node">
<title>Node45</title>
<g id="a_node45"><a xlink:title=" ">
<polygon fill="white" stroke="#bfbfbf" points="422,-56.5 422,-75.5 489,-75.5 489,-56.5 422,-56.5"/>
<text text-anchor="middle" x="455.5" y="-63.5" font-family="Helvetica,sans-Serif" font-size="10.00">streambuf</text>
</a>
</g>
</g>
<!-- Node43&#45;&gt;Node45 -->
<g id="edge69" class="edge">
<title>Node43&#45;&gt;Node45</title>
<path fill="none" stroke="midnightblue" d="M372.41,-112.32C388.14,-103.74 412.44,-90.49 430.71,-80.52"/>
<polygon fill="midnightblue" stroke="midnightblue" points="432.53,-83.52 439.63,-75.65 429.18,-77.37 432.53,-83.52"/>
</g>
</g>
</svg>
