<?xml version="1.0" encoding="UTF-8" standalone="no"?>
<!DOCTYPE svg PUBLIC "-//W3C//DTD SVG 1.1//EN"
 "http://www.w3.org/Graphics/SVG/1.1/DTD/svg11.dtd">
<!-- Generated by graphviz version 2.43.0 (0)
 -->
<!-- Title: NaluEnv.C Pages: 1 -->
<svg width="665pt" height="151pt"
 viewBox="0.00 0.00 665.00 151.00" xmlns="http://www.w3.org/2000/svg" xmlns:xlink="http://www.w3.org/1999/xlink">
<g id="graph0" class="graph" transform="scale(1 1) rotate(0) translate(4 147)">
<title>NaluEnv.C</title>
<polygon fill="white" stroke="transparent" points="-4,4 -4,-147 661,-147 661,4 -4,4"/>
<!-- Node1 -->
<g id="node1" class="node">
<title>Node1</title>
<g id="a_node1"><a xlink:title=" ">
<polygon fill="#bfbfbf" stroke="black" points="258,-123.5 258,-142.5 324,-142.5 324,-123.5 258,-123.5"/>
<text text-anchor="middle" x="291" y="-130.5" font-family="Helvetica,sans-Serif" font-size="10.00">NaluEnv.C</text>
</a>
</g>
</g>
<!-- Node2 -->
<g id="node2" class="node">
<title>Node2</title>
<g id="a_node2"><a xlink:href="_nalu_env_8h.html" target="_top" xlink:title=" ">
<polygon fill="white" stroke="black" points="63.5,-62 63.5,-81 128.5,-81 128.5,-62 63.5,-62"/>
<text text-anchor="middle" x="96" y="-69" font-family="Helvetica,sans-Serif" font-size="10.00">NaluEnv.h</text>
</a>
</g>
</g>
<!-- Node1&#45;&gt;Node2 -->
<g id="edge1" class="edge">
<title>Node1&#45;&gt;Node2</title>
<path fill="none" stroke="midnightblue" d="M262.89,-123.49C233.11,-114.47 184.73,-99.78 143,-87 139.9,-86.05 136.68,-85.06 133.45,-84.07"/>
<polygon fill="midnightblue" stroke="midnightblue" points="134.42,-80.7 123.83,-81.11 132.36,-87.39 134.42,-80.7"/>
</g>
<!-- Node3 -->
<g id="node3" class="node">
<title>Node3</title>
<g id="a_node3"><a xlink:title=" ">
<polygon fill="white" stroke="#bfbfbf" points="0,-0.5 0,-19.5 44,-19.5 44,-0.5 0,-0.5"/>
<text text-anchor="middle" x="22" y="-7.5" font-family="Helvetica,sans-Serif" font-size="10.00">mpi.h</text>
</a>
</g>
</g>
<!-- Node1&#45;&gt;Node3 -->
<g id="edge5" class="edge">
<title>Node1&#45;&gt;Node3</title>
<path fill="none" stroke="midnightblue" d="M257.75,-129.47C200.35,-124.48 85.86,-111.69 55,-87 37.31,-72.85 28.9,-47.34 25.04,-29.81"/>
<polygon fill="midnightblue" stroke="midnightblue" points="28.41,-28.81 23.11,-19.64 21.54,-30.12 28.41,-28.81"/>
</g>
<!-- Node4 -->
<g id="node4" class="node">
<title>Node4</title>
<g id="a_node4"><a xlink:title=" ">
<polygon fill="white" stroke="#bfbfbf" points="147.5,-0.5 147.5,-19.5 202.5,-19.5 202.5,-0.5 147.5,-0.5"/>
<text text-anchor="middle" x="175" y="-7.5" font-family="Helvetica,sans-Serif" font-size="10.00">fstream</text>
</a>
</g>
</g>
<!-- Node1&#45;&gt;Node4 -->
<g id="edge6" class="edge">
<title>Node1&#45;&gt;Node4</title>
<path fill="none" stroke="midnightblue" d="M257.86,-128.89C230.88,-124.42 194.36,-113.53 176,-87 164.53,-70.43 166.39,-46.57 169.76,-30.03"/>
<polygon fill="midnightblue" stroke="midnightblue" points="173.25,-30.46 172.19,-19.92 166.45,-28.83 173.25,-30.46"/>
</g>
<!-- Node6 -->
<g id="node6" class="node">
<title>Node6</title>
<g id="a_node6"><a xlink:title=" ">
<polygon fill="white" stroke="#bfbfbf" points="185,-62 185,-81 245,-81 245,-62 185,-62"/>
<text text-anchor="middle" x="215" y="-69" font-family="Helvetica,sans-Serif" font-size="10.00">iostream</text>
</a>
</g>
</g>
<!-- Node1&#45;&gt;Node6 -->
<g id="edge7" class="edge">
<title>Node1&#45;&gt;Node6</title>
<path fill="none" stroke="midnightblue" d="M280.11,-123.48C268.03,-114.02 248.33,-98.6 233.76,-87.19"/>
<polygon fill="midnightblue" stroke="midnightblue" points="235.9,-84.42 225.87,-81.01 231.59,-89.93 235.9,-84.42"/>
</g>
<!-- Node7 -->
<g id="node7" class="node">
<title>Node7</title>
<g id="a_node7"><a xlink:title=" ">
<polygon fill="white" stroke="#bfbfbf" points="263,-62 263,-81 319,-81 319,-62 263,-62"/>
<text text-anchor="middle" x="291" y="-69" font-family="Helvetica,sans-Serif" font-size="10.00">iomanip</text>
</a>
</g>
</g>
<!-- Node1&#45;&gt;Node7 -->
<g id="edge8" class="edge">
<title>Node1&#45;&gt;Node7</title>
<path fill="none" stroke="midnightblue" d="M291,-123.48C291,-115.08 291,-101.98 291,-91.16"/>
<polygon fill="midnightblue" stroke="midnightblue" points="294.5,-91.01 291,-81.01 287.5,-91.01 294.5,-91.01"/>
</g>
<!-- Node8 -->
<g id="node8" class="node">
<title>Node8</title>
<g id="a_node8"><a xlink:title=" ">
<polygon fill="white" stroke="#bfbfbf" points="337,-62 337,-81 393,-81 393,-62 337,-62"/>
<text text-anchor="middle" x="365" y="-69" font-family="Helvetica,sans-Serif" font-size="10.00">sstream</text>
</a>
</g>
</g>
<!-- Node1&#45;&gt;Node8 -->
<g id="edge9" class="edge">
<title>Node1&#45;&gt;Node8</title>
<path fill="none" stroke="midnightblue" d="M301.6,-123.48C313.25,-114.11 332.19,-98.88 346.33,-87.51"/>
<polygon fill="midnightblue" stroke="midnightblue" points="348.82,-90 354.42,-81.01 344.43,-84.55 348.82,-90"/>
</g>
<!-- Node9 -->
<g id="node9" class="node">
<title>Node9</title>
<g id="a_node9"><a xlink:title=" ">
<polygon fill="white" stroke="#bfbfbf" points="411,-62 411,-81 455,-81 455,-62 411,-62"/>
<text text-anchor="middle" x="433" y="-69" font-family="Helvetica,sans-Serif" font-size="10.00">string</text>
</a>
</g>
</g>
<!-- Node1&#45;&gt;Node9 -->
<g id="edge10" class="edge">
<title>Node1&#45;&gt;Node9</title>
<path fill="none" stroke="midnightblue" d="M313.26,-123.37C335.77,-114.56 371.5,-100.3 402,-87 403.19,-86.48 404.41,-85.94 405.64,-85.39"/>
<polygon fill="midnightblue" stroke="midnightblue" points="407.4,-88.44 415.04,-81.09 404.49,-82.07 407.4,-88.44"/>
</g>
<!-- Node10 -->
<g id="node10" class="node">
<title>Node10</title>
<g id="a_node10"><a xlink:title=" ">
<polygon fill="white" stroke="#bfbfbf" points="473.5,-62 473.5,-81 520.5,-81 520.5,-62 473.5,-62"/>
<text text-anchor="middle" x="497" y="-69" font-family="Helvetica,sans-Serif" font-size="10.00">cmath</text>
</a>
</g>
</g>
<!-- Node1&#45;&gt;Node10 -->
<g id="edge11" class="edge">
<title>Node1&#45;&gt;Node10</title>
<path fill="none" stroke="midnightblue" d="M324.31,-125C359.49,-117.22 416.36,-103.54 464,-87 465.86,-86.35 467.77,-85.65 469.67,-84.9"/>
<polygon fill="midnightblue" stroke="midnightblue" points="471.16,-88.08 479.05,-81.01 468.47,-81.61 471.16,-88.08"/>
</g>
<!-- Node11 -->
<g id="node11" class="node">
<title>Node11</title>
<g id="a_node11"><a xlink:title=" ">
<polygon fill="white" stroke="#bfbfbf" points="539,-56.5 539,-86.5 657,-86.5 657,-56.5 539,-56.5"/>
<text text-anchor="start" x="547" y="-74.5" font-family="Helvetica,sans-Serif" font-size="10.00">stk_util/environment</text>
<text text-anchor="middle" x="598" y="-63.5" font-family="Helvetica,sans-Serif" font-size="10.00">/WallTime.hpp</text>
</a>
</g>
</g>
<!-- Node1&#45;&gt;Node11 -->
<g id="edge12" class="edge">
<title>Node1&#45;&gt;Node11</title>
<path fill="none" stroke="midnightblue" d="M324.3,-125.99C368.63,-117.93 449.72,-103 528.58,-87.26"/>
<polygon fill="midnightblue" stroke="midnightblue" points="529.56,-90.63 538.68,-85.24 528.19,-83.77 529.56,-90.63"/>
</g>
<!-- Node2&#45;&gt;Node3 -->
<g id="edge2" class="edge">
<title>Node2&#45;&gt;Node3</title>
<path fill="none" stroke="midnightblue" d="M85.4,-61.98C73.75,-52.61 54.81,-37.38 40.67,-26.01"/>
<polygon fill="midnightblue" stroke="midnightblue" points="42.57,-23.05 32.58,-19.51 38.18,-28.5 42.57,-23.05"/>
</g>
<!-- Node2&#45;&gt;Node4 -->
<g id="edge3" class="edge">
<title>Node2&#45;&gt;Node4</title>
<path fill="none" stroke="midnightblue" d="M107.32,-61.98C119.87,-52.52 140.35,-37.1 155.5,-25.69"/>
<polygon fill="midnightblue" stroke="midnightblue" points="157.82,-28.32 163.7,-19.51 153.61,-22.73 157.82,-28.32"/>
</g>
<!-- Node5 -->
<g id="node5" class="node">
<title>Node5</title>
<g id="a_node5"><a xlink:title=" ">
<polygon fill="white" stroke="#bfbfbf" points="62.5,-0.5 62.5,-19.5 129.5,-19.5 129.5,-0.5 62.5,-0.5"/>
<text text-anchor="middle" x="96" y="-7.5" font-family="Helvetica,sans-Serif" font-size="10.00">streambuf</text>
</a>
</g>
</g>
<!-- Node2&#45;&gt;Node5 -->
<g id="edge4" class="edge">
<title>Node2&#45;&gt;Node5</title>
<path fill="none" stroke="midnightblue" d="M96,-61.98C96,-53.58 96,-40.48 96,-29.66"/>
<polygon fill="midnightblue" stroke="midnightblue" points="99.5,-29.51 96,-19.51 92.5,-29.51 99.5,-29.51"/>
</g>
</g>
</svg>
