<?xml version="1.0" encoding="UTF-8" standalone="no"?>
<!DOCTYPE svg PUBLIC "-//W3C//DTD SVG 1.1//EN"
 "http://www.w3.org/Graphics/SVG/1.1/DTD/svg11.dtd">
<!-- Generated by graphviz version 2.43.0 (0)
 -->
<!-- Title: NaluEnv.C Pages: 1 -->
<svg width="665pt" height="148pt"
 viewBox="0.00 0.00 665.00 148.00" xmlns="http://www.w3.org/2000/svg" xmlns:xlink="http://www.w3.org/1999/xlink">
<g id="graph0" class="graph" transform="scale(1 1) rotate(0) translate(4 144)">
<title>NaluEnv.C</title>
<!-- Node1 -->
<g id="Node000001" class="node">
<title>Node1</title>
<g id="a_Node000001"><a xlink:title=" ">
<polygon fill="#999999" stroke="#666666" points="324,-140 258,-140 258,-121 324,-121 324,-140"/>
<text text-anchor="middle" x="291" y="-128" font-family="Helvetica,sans-Serif" font-size="10.00">NaluEnv.C</text>
</a>
</g>
</g>
<!-- Node2 -->
<g id="Node000002" class="node">
<title>Node2</title>
<g id="a_Node000002"><a xlink:href="_nalu_env_8h.html" target="_top" xlink:title=" ">
<polygon fill="white" stroke="#666666" points="128.5,-79.5 63.5,-79.5 63.5,-60.5 128.5,-60.5 128.5,-79.5"/>
<text text-anchor="middle" x="96" y="-67.5" font-family="Helvetica,sans-Serif" font-size="10.00">NaluEnv.h</text>
</a>
</g>
</g>
<!-- Node1&#45;&gt;Node2 -->
<g id="edge1_Node000001_Node000002" class="edge">
<title>Node1&#45;&gt;Node2</title>
<g id="a_edge1_Node000001_Node000002"><a xlink:title=" ">
<path fill="none" stroke="#63b8ff" d="M262.65,-120.99C228.71,-110.81 171.74,-93.72 134.01,-82.4"/>
<polygon fill="#63b8ff" stroke="#63b8ff" points="134.97,-79.04 124.39,-79.52 132.96,-85.74 134.97,-79.04"/>
</a>
</g>
</g>
<!-- Node3 -->
<g id="Node000003" class="node">
<title>Node3</title>
<g id="a_Node000003"><a xlink:title=" ">
<polygon fill="#e0e0e0" stroke="#999999" points="44,-19 0,-19 0,0 44,0 44,-19"/>
<text text-anchor="middle" x="22" y="-7" font-family="Helvetica,sans-Serif" font-size="10.00">mpi.h</text>
</a>
</g>
</g>
<!-- Node1&#45;&gt;Node3 -->
<g id="edge5_Node000001_Node000003" class="edge">
<title>Node1&#45;&gt;Node3</title>
<g id="a_edge5_Node000001_Node000003"><a xlink:title=" ">
<path fill="none" stroke="#63b8ff" d="M257.77,-127.02C200.4,-122.13 85.96,-109.54 55,-85 37.63,-71.23 29.16,-46.41 25.2,-29.22"/>
<polygon fill="#63b8ff" stroke="#63b8ff" points="28.6,-28.35 23.21,-19.22 21.73,-29.72 28.6,-28.35"/>
</a>
</g>
</g>
<!-- Node4 -->
<g id="Node000004" class="node">
<title>Node4</title>
<g id="a_Node000004"><a xlink:title=" ">
<polygon fill="#e0e0e0" stroke="#999999" points="202.5,-19 147.5,-19 147.5,0 202.5,0 202.5,-19"/>
<text text-anchor="middle" x="175" y="-7" font-family="Helvetica,sans-Serif" font-size="10.00">fstream</text>
</a>
</g>
</g>
<!-- Node1&#45;&gt;Node4 -->
<g id="edge6_Node000001_Node000004" class="edge">
<title>Node1&#45;&gt;Node4</title>
<g id="a_edge6_Node000001_Node000004"><a xlink:title=" ">
<path fill="none" stroke="#63b8ff" d="M257.88,-126.53C230.9,-122.18 194.39,-111.45 176,-85 164.72,-68.78 166.55,-45.39 169.85,-29.16"/>
<polygon fill="#63b8ff" stroke="#63b8ff" points="173.3,-29.79 172.24,-19.25 166.5,-28.16 173.3,-29.79"/>
</a>
</g>
</g>
<!-- Node6 -->
<g id="Node000006" class="node">
<title>Node6</title>
<g id="a_Node000006"><a xlink:title=" ">
<polygon fill="#e0e0e0" stroke="#999999" points="245,-79.5 185,-79.5 185,-60.5 245,-60.5 245,-79.5"/>
<text text-anchor="middle" x="215" y="-67.5" font-family="Helvetica,sans-Serif" font-size="10.00">iostream</text>
</a>
</g>
</g>
<!-- Node1&#45;&gt;Node6 -->
<g id="edge7_Node000001_Node000006" class="edge">
<title>Node1&#45;&gt;Node6</title>
<g id="a_edge7_Node000001_Node000006"><a xlink:title=" ">
<path fill="none" stroke="#63b8ff" d="M279.79,-120.87C267.89,-111.71 248.86,-97.06 234.49,-86.01"/>
<polygon fill="#63b8ff" stroke="#63b8ff" points="236.32,-82.99 226.26,-79.67 232.05,-88.54 236.32,-82.99"/>
</a>
</g>
</g>
<!-- Node7 -->
<g id="Node000007" class="node">
<title>Node7</title>
<g id="a_Node000007"><a xlink:title=" ">
<polygon fill="#e0e0e0" stroke="#999999" points="319,-79.5 263,-79.5 263,-60.5 319,-60.5 319,-79.5"/>
<text text-anchor="middle" x="291" y="-67.5" font-family="Helvetica,sans-Serif" font-size="10.00">iomanip</text>
</a>
</g>
</g>
<!-- Node1&#45;&gt;Node7 -->
<g id="edge8_Node000001_Node000007" class="edge">
<title>Node1&#45;&gt;Node7</title>
<g id="a_edge8_Node000001_Node000007"><a xlink:title=" ">
<path fill="none" stroke="#63b8ff" d="M291,-120.87C291,-112.75 291,-100.31 291,-89.89"/>
<polygon fill="#63b8ff" stroke="#63b8ff" points="294.5,-89.67 291,-79.67 287.5,-89.67 294.5,-89.67"/>
</a>
</g>
</g>
<!-- Node8 -->
<g id="Node000008" class="node">
<title>Node8</title>
<g id="a_Node000008"><a xlink:title=" ">
<polygon fill="#e0e0e0" stroke="#999999" points="393,-79.5 337,-79.5 337,-60.5 393,-60.5 393,-79.5"/>
<text text-anchor="middle" x="365" y="-67.5" font-family="Helvetica,sans-Serif" font-size="10.00">sstream</text>
</a>
</g>
</g>
<!-- Node1&#45;&gt;Node8 -->
<g id="edge9_Node000001_Node000008" class="edge">
<title>Node1&#45;&gt;Node8</title>
<g id="a_edge9_Node000001_Node000008"><a xlink:title=" ">
<path fill="none" stroke="#63b8ff" d="M301.92,-120.87C313.51,-111.71 332.03,-97.06 346.02,-86.01"/>
<polygon fill="#63b8ff" stroke="#63b8ff" points="348.36,-88.61 354.04,-79.67 344.02,-83.12 348.36,-88.61"/>
</a>
</g>
</g>
<!-- Node9 -->
<g id="Node000009" class="node">
<title>Node9</title>
<g id="a_Node000009"><a xlink:title=" ">
<polygon fill="#e0e0e0" stroke="#999999" points="455,-79.5 411,-79.5 411,-60.5 455,-60.5 455,-79.5"/>
<text text-anchor="middle" x="433" y="-67.5" font-family="Helvetica,sans-Serif" font-size="10.00">string</text>
</a>
</g>
</g>
<!-- Node1&#45;&gt;Node9 -->
<g id="edge10_Node000001_Node000009" class="edge">
<title>Node1&#45;&gt;Node9</title>
<g id="a_edge10_Node000001_Node000009"><a xlink:title=" ">
<path fill="none" stroke="#63b8ff" d="M313.23,-120.91C335.72,-112.15 371.44,-98.02 402,-85 403.01,-84.57 404.03,-84.13 405.06,-83.69"/>
<polygon fill="#63b8ff" stroke="#63b8ff" points="406.64,-86.81 414.37,-79.57 403.81,-80.41 406.64,-86.81"/>
</a>
</g>
</g>
<!-- Node10 -->
<g id="Node000010" class="node">
<title>Node10</title>
<g id="a_Node000010"><a xlink:title=" ">
<polygon fill="#e0e0e0" stroke="#999999" points="520.5,-79.5 473.5,-79.5 473.5,-60.5 520.5,-60.5 520.5,-79.5"/>
<text text-anchor="middle" x="497" y="-67.5" font-family="Helvetica,sans-Serif" font-size="10.00">cmath</text>
</a>
</g>
</g>
<!-- Node1&#45;&gt;Node10 -->
<g id="edge11_Node000001_Node000010" class="edge">
<title>Node1&#45;&gt;Node10</title>
<g id="a_edge11_Node000001_Node000010"><a xlink:title=" ">
<path fill="none" stroke="#63b8ff" d="M324.27,-122.5C359.43,-114.74 416.27,-101.16 464,-85 465.44,-84.51 466.9,-83.99 468.37,-83.45"/>
<polygon fill="#63b8ff" stroke="#63b8ff" points="469.99,-86.57 477.99,-79.63 467.41,-80.07 469.99,-86.57"/>
</a>
</g>
</g>
<!-- Node11 -->
<g id="Node000011" class="node">
<title>Node11</title>
<g id="a_Node000011"><a xlink:title=" ">
<polygon fill="#e0e0e0" stroke="#999999" points="657,-85 539,-85 539,-55 657,-55 657,-85"/>
<text text-anchor="start" x="547" y="-73" font-family="Helvetica,sans-Serif" font-size="10.00">stk_util/environment</text>
<text text-anchor="middle" x="598" y="-62" font-family="Helvetica,sans-Serif" font-size="10.00">/WallTime.hpp</text>
</a>
</g>
</g>
<!-- Node1&#45;&gt;Node11 -->
<g id="edge12_Node000001_Node000011" class="edge">
<title>Node1&#45;&gt;Node11</title>
<g id="a_edge12_Node000001_Node000011"><a xlink:title=" ">
<path fill="none" stroke="#63b8ff" d="M324.29,-123.51C368.61,-115.49 449.69,-100.65 528.57,-85.26"/>
<polygon fill="#63b8ff" stroke="#63b8ff" points="529.53,-88.64 538.68,-83.28 528.19,-81.77 529.53,-88.64"/>
</a>
</g>
</g>
<!-- Node2&#45;&gt;Node3 -->
<g id="edge2_Node000002_Node000003" class="edge">
<title>Node2&#45;&gt;Node3</title>
<g id="a_edge2_Node000002_Node000003"><a xlink:title=" ">
<path fill="none" stroke="#63b8ff" d="M85.08,-60.37C73.49,-51.21 54.97,-36.56 40.98,-25.51"/>
<polygon fill="#63b8ff" stroke="#63b8ff" points="42.98,-22.62 32.96,-19.17 38.64,-28.11 42.98,-22.62"/>
</a>
</g>
</g>
<!-- Node2&#45;&gt;Node4 -->
<g id="edge3_Node000002_Node000004" class="edge">
<title>Node2&#45;&gt;Node4</title>
<g id="a_edge3_Node000002_Node000004"><a xlink:title=" ">
<path fill="none" stroke="#63b8ff" d="M107.66,-60.37C120.14,-51.12 140.18,-36.28 155.16,-25.19"/>
<polygon fill="#63b8ff" stroke="#63b8ff" points="157.34,-27.93 163.3,-19.17 153.18,-22.31 157.34,-27.93"/>
</a>
</g>
</g>
<!-- Node5 -->
<g id="Node000005" class="node">
<title>Node5</title>
<g id="a_Node000005"><a xlink:title=" ">
<polygon fill="#e0e0e0" stroke="#999999" points="129.5,-19 62.5,-19 62.5,0 129.5,0 129.5,-19"/>
<text text-anchor="middle" x="96" y="-7" font-family="Helvetica,sans-Serif" font-size="10.00">streambuf</text>
</a>
</g>
</g>
<!-- Node2&#45;&gt;Node5 -->
<g id="edge4_Node000002_Node000005" class="edge">
<title>Node2&#45;&gt;Node5</title>
<g id="a_edge4_Node000002_Node000005"><a xlink:title=" ">
<path fill="none" stroke="#63b8ff" d="M96,-60.37C96,-52.25 96,-39.81 96,-29.39"/>
<polygon fill="#63b8ff" stroke="#63b8ff" points="99.5,-29.17 96,-19.17 92.5,-29.17 99.5,-29.17"/>
</a>
</g>
</g>
</g>
</svg>
