<?xml version="1.0" encoding="UTF-8" standalone="no"?>
<!DOCTYPE svg PUBLIC "-//W3C//DTD SVG 1.1//EN"
 "http://www.w3.org/Graphics/SVG/1.1/DTD/svg11.dtd">
<!-- Generated by graphviz version 2.43.0 (0)
 -->
<!-- Title: NgpMotion.h Pages: 1 -->
<svg width="1547pt" height="247pt"
 viewBox="0.00 0.00 1547.00 247.00" xmlns="http://www.w3.org/2000/svg" xmlns:xlink="http://www.w3.org/1999/xlink">
<g id="graph0" class="graph" transform="scale(1 1) rotate(0) translate(4 243)">
<title>NgpMotion.h</title>
<!-- Node1 -->
<g id="Node000001" class="node">
<title>Node1</title>
<g id="a_Node000001"><a xlink:title=" ">
<polygon fill="#999999" stroke="#666666" points="701.5,-239 622.5,-239 622.5,-220 701.5,-220 701.5,-239"/>
<text text-anchor="middle" x="662" y="-227" font-family="Helvetica,sans-Serif" font-size="10.00">NgpMotion.h</text>
</a>
</g>
</g>
<!-- Node2 -->
<g id="Node000002" class="node">
<title>Node2</title>
<g id="a_Node000002"><a xlink:href="_frame_base_8h.html" target="_top" xlink:title=" ">
<polygon fill="white" stroke="#666666" points="1137,-184 1057,-184 1057,-165 1137,-165 1137,-184"/>
<text text-anchor="middle" x="1097" y="-172" font-family="Helvetica,sans-Serif" font-size="10.00">FrameBase.h</text>
</a>
</g>
</g>
<!-- Node1&#45;&gt;Node2 -->
<g id="edge1_Node000001_Node000002" class="edge">
<title>Node1&#45;&gt;Node2</title>
<g id="a_edge1_Node000001_Node000002"><a xlink:title=" ">
<path fill="none" stroke="#63b8ff" d="M711.82,-223.19C784.34,-215.34 923.19,-199.85 1041,-184 1046.17,-183.3 1051.59,-182.53 1056.95,-181.75"/>
<polygon fill="#63b8ff" stroke="#63b8ff" points="711.18,-219.74 701.61,-224.29 711.93,-226.7 711.18,-219.74"/>
</a>
</g>
</g>
<!-- Node14 -->
<g id="Node000014" class="node">
<title>Node14</title>
<g id="a_Node000014"><a xlink:href="_motion_deforming_interior_kernel_8h.html" target="_top" xlink:title=" ">
<polygon fill="white" stroke="#666666" points="280.5,-184 103.5,-184 103.5,-165 280.5,-165 280.5,-184"/>
<text text-anchor="middle" x="192" y="-172" font-family="Helvetica,sans-Serif" font-size="10.00">MotionDeformingInteriorKernel.h</text>
</a>
</g>
</g>
<!-- Node1&#45;&gt;Node14 -->
<g id="edge16_Node000001_Node000014" class="edge">
<title>Node1&#45;&gt;Node14</title>
<g id="a_edge16_Node000001_Node000014"><a xlink:title=" ">
<path fill="none" stroke="#63b8ff" d="M612.23,-222.89C529.84,-213.6 364.61,-194.96 267.7,-184.04"/>
<polygon fill="#63b8ff" stroke="#63b8ff" points="612,-226.38 622.33,-224.03 612.79,-219.43 612,-226.38"/>
</a>
</g>
</g>
<!-- Node16 -->
<g id="Node000016" class="node">
<title>Node16</title>
<g id="a_Node000016"><a xlink:href="_motion_rotation_kernel_8h.html" target="_top" xlink:title=" ">
<polygon fill="white" stroke="#666666" points="429.5,-184 298.5,-184 298.5,-165 429.5,-165 429.5,-184"/>
<text text-anchor="middle" x="364" y="-172" font-family="Helvetica,sans-Serif" font-size="10.00">MotionRotationKernel.h</text>
</a>
</g>
</g>
<!-- Node1&#45;&gt;Node16 -->
<g id="edge19_Node000001_Node000016" class="edge">
<title>Node1&#45;&gt;Node16</title>
<g id="a_edge19_Node000001_Node000016"><a xlink:title=" ">
<path fill="none" stroke="#63b8ff" d="M612.44,-219.69C556.73,-209.78 466.89,-193.8 411.88,-184.01"/>
<polygon fill="#63b8ff" stroke="#63b8ff" points="611.97,-223.16 622.43,-221.46 613.2,-216.26 611.97,-223.16"/>
</a>
</g>
</g>
<!-- Node18 -->
<g id="Node000018" class="node">
<title>Node18</title>
<g id="a_Node000018"><a xlink:href="_motion_scaling_kernel_8h.html" target="_top" xlink:title=" ">
<polygon fill="white" stroke="#666666" points="572.5,-184 447.5,-184 447.5,-165 572.5,-165 572.5,-184"/>
<text text-anchor="middle" x="510" y="-172" font-family="Helvetica,sans-Serif" font-size="10.00">MotionScalingKernel.h</text>
</a>
</g>
</g>
<!-- Node1&#45;&gt;Node18 -->
<g id="edge22_Node000001_Node000018" class="edge">
<title>Node1&#45;&gt;Node18</title>
<g id="a_edge22_Node000001_Node000018"><a xlink:title=" ">
<path fill="none" stroke="#63b8ff" d="M628.07,-216.67C599.73,-206.79 559.98,-192.93 534.61,-184.08"/>
<polygon fill="#63b8ff" stroke="#63b8ff" points="626.98,-220 637.58,-219.98 629.29,-213.39 626.98,-220"/>
</a>
</g>
</g>
<!-- Node20 -->
<g id="Node000020" class="node">
<title>Node20</title>
<g id="a_Node000020"><a xlink:href="_motion_translation_kernel_8h.html" target="_top" xlink:title=" ">
<polygon fill="white" stroke="#666666" points="733.5,-184 590.5,-184 590.5,-165 733.5,-165 733.5,-184"/>
<text text-anchor="middle" x="662" y="-172" font-family="Helvetica,sans-Serif" font-size="10.00">MotionTranslationKernel.h</text>
</a>
</g>
</g>
<!-- Node1&#45;&gt;Node20 -->
<g id="edge25_Node000001_Node000020" class="edge">
<title>Node1&#45;&gt;Node20</title>
<g id="a_edge25_Node000001_Node000020"><a xlink:title=" ">
<path fill="none" stroke="#63b8ff" d="M662,-209.66C662,-200.93 662,-190.99 662,-184.09"/>
<polygon fill="#63b8ff" stroke="#63b8ff" points="658.5,-209.75 662,-219.75 665.5,-209.75 658.5,-209.75"/>
</a>
</g>
</g>
<!-- Node22 -->
<g id="Node000022" class="node">
<title>Node22</title>
<g id="a_Node000022"><a xlink:href="_motion_waves_kernel_8h.html" target="_top" xlink:title=" ">
<polygon fill="white" stroke="#666666" points="874,-184 752,-184 752,-165 874,-165 874,-184"/>
<text text-anchor="middle" x="813" y="-172" font-family="Helvetica,sans-Serif" font-size="10.00">MotionWavesKernel.h</text>
</a>
</g>
</g>
<!-- Node1&#45;&gt;Node22 -->
<g id="edge28_Node000001_Node000022" class="edge">
<title>Node1&#45;&gt;Node22</title>
<g id="a_edge28_Node000001_Node000022"><a xlink:title=" ">
<path fill="none" stroke="#63b8ff" d="M696.05,-216.55C724.09,-206.71 763.18,-192.98 788.3,-184.17"/>
<polygon fill="#63b8ff" stroke="#63b8ff" points="694.54,-213.37 686.26,-219.98 696.86,-219.98 694.54,-213.37"/>
</a>
</g>
</g>
<!-- Node24 -->
<g id="Node000024" class="node">
<title>Node24</title>
<g id="a_Node000024"><a xlink:href="_turbine_surrogate_kernel_8h.html" target="_top" xlink:title=" ">
<polygon fill="white" stroke="#666666" points="1031.5,-184 892.5,-184 892.5,-165 1031.5,-165 1031.5,-184"/>
<text text-anchor="middle" x="962" y="-172" font-family="Helvetica,sans-Serif" font-size="10.00">TurbineSurrogateKernel.h</text>
</a>
</g>
</g>
<!-- Node1&#45;&gt;Node24 -->
<g id="edge31_Node000001_Node000024" class="edge">
<title>Node1&#45;&gt;Node24</title>
<g id="a_edge31_Node000001_Node000024"><a xlink:title=" ">
<path fill="none" stroke="#63b8ff" d="M711.57,-219.74C767.6,-209.84 858.2,-193.84 913.69,-184.03"/>
<polygon fill="#63b8ff" stroke="#63b8ff" points="710.77,-216.33 701.53,-221.52 711.98,-223.22 710.77,-216.33"/>
</a>
</g>
</g>
<!-- Node3 -->
<g id="Node000003" class="node">
<title>Node3</title>
<g id="a_Node000003"><a xlink:href="_frame_base_8_c.html" target="_top" xlink:title=" ">
<polygon fill="white" stroke="#666666" points="571.5,-129 490.5,-129 490.5,-110 571.5,-110 571.5,-129"/>
<text text-anchor="middle" x="531" y="-117" font-family="Helvetica,sans-Serif" font-size="10.00">FrameBase.C</text>
</a>
</g>
</g>
<!-- Node2&#45;&gt;Node3 -->
<g id="edge2_Node000002_Node000003" class="edge">
<title>Node2&#45;&gt;Node3</title>
<g id="a_edge2_Node000002_Node000003"><a xlink:title=" ">
<path fill="none" stroke="#63b8ff" d="M1046.92,-165.71C1044.92,-165.46 1042.94,-165.22 1041,-165 837.27,-141.6 784.51,-154.21 581,-129 577.94,-128.62 574.78,-128.19 571.61,-127.72"/>
<polygon fill="#63b8ff" stroke="#63b8ff" points="1046.6,-169.2 1056.97,-167.06 1047.53,-162.27 1046.6,-169.2"/>
</a>
</g>
</g>
<!-- Node4 -->
<g id="Node000004" class="node">
<title>Node4</title>
<g id="a_Node000004"><a xlink:href="_frame_moving_8h.html" target="_top" xlink:title=" ">
<polygon fill="white" stroke="#666666" points="1398,-129 1306,-129 1306,-110 1398,-110 1398,-129"/>
<text text-anchor="middle" x="1352" y="-117" font-family="Helvetica,sans-Serif" font-size="10.00">FrameMoving.h</text>
</a>
</g>
</g>
<!-- Node2&#45;&gt;Node4 -->
<g id="edge3_Node000002_Node000004" class="edge">
<title>Node2&#45;&gt;Node4</title>
<g id="a_edge3_Node000002_Node000004"><a xlink:title=" ">
<path fill="none" stroke="#63b8ff" d="M1146.96,-163.12C1194.82,-153.17 1266.17,-138.34 1310.84,-129.05"/>
<polygon fill="#63b8ff" stroke="#63b8ff" points="1146.2,-159.7 1137.12,-165.16 1147.63,-166.55 1146.2,-159.7"/>
</a>
</g>
</g>
<!-- Node10 -->
<g id="Node000010" class="node">
<title>Node10</title>
<g id="a_Node000010"><a xlink:href="_frame_reference_8h.html" target="_top" xlink:title=" ">
<polygon fill="white" stroke="#666666" points="1158,-129 1052,-129 1052,-110 1158,-110 1158,-129"/>
<text text-anchor="middle" x="1105" y="-117" font-family="Helvetica,sans-Serif" font-size="10.00">FrameReference.h</text>
</a>
</g>
</g>
<!-- Node2&#45;&gt;Node10 -->
<g id="edge10_Node000002_Node000010" class="edge">
<title>Node2&#45;&gt;Node10</title>
<g id="a_edge10_Node000002_Node000010"><a xlink:title=" ">
<path fill="none" stroke="#63b8ff" d="M1099.84,-154.66C1101.16,-145.93 1102.66,-135.99 1103.7,-129.09"/>
<polygon fill="#63b8ff" stroke="#63b8ff" points="1096.35,-154.34 1098.32,-164.75 1103.27,-155.38 1096.35,-154.34"/>
</a>
</g>
</g>
<!-- Node5 -->
<g id="Node000005" class="node">
<title>Node5</title>
<g id="a_Node000005"><a xlink:href="_frame_moving_8_c.html" target="_top" xlink:title=" ">
<polygon fill="white" stroke="#666666" points="1340.5,-74 1247.5,-74 1247.5,-55 1340.5,-55 1340.5,-74"/>
<text text-anchor="middle" x="1294" y="-62" font-family="Helvetica,sans-Serif" font-size="10.00">FrameMoving.C</text>
</a>
</g>
</g>
<!-- Node4&#45;&gt;Node5 -->
<g id="edge4_Node000004_Node000005" class="edge">
<title>Node4&#45;&gt;Node5</title>
<g id="a_edge4_Node000004_Node000005"><a xlink:title=" ">
<path fill="none" stroke="#63b8ff" d="M1335.09,-103.04C1324.8,-93.64 1312.03,-81.98 1303.49,-74.17"/>
<polygon fill="#63b8ff" stroke="#63b8ff" points="1332.94,-105.82 1342.68,-109.98 1337.66,-100.66 1332.94,-105.82"/>
</a>
</g>
</g>
<!-- Node6 -->
<g id="Node000006" class="node">
<title>Node6</title>
<g id="a_Node000006"><a xlink:href="_mesh_motion_alg_8_c.html" target="_top" xlink:title=" ">
<polygon fill="white" stroke="#666666" points="1539,-19 1437,-19 1437,0 1539,0 1539,-19"/>
<text text-anchor="middle" x="1488" y="-7" font-family="Helvetica,sans-Serif" font-size="10.00">MeshMotionAlg.C</text>
</a>
</g>
</g>
<!-- Node4&#45;&gt;Node6 -->
<g id="edge5_Node000004_Node000006" class="edge">
<title>Node4&#45;&gt;Node6</title>
<g id="a_edge5_Node000004_Node000006"><a xlink:title=" ">
<path fill="none" stroke="#63b8ff" d="M1407.84,-108.38C1429.53,-101.87 1452.96,-91.25 1469,-74 1483.42,-58.49 1486.93,-32.47 1487.76,-19.06"/>
<polygon fill="#63b8ff" stroke="#63b8ff" points="1406.73,-105.06 1398.03,-111.1 1408.6,-111.81 1406.73,-105.06"/>
</a>
</g>
</g>
<!-- Node7 -->
<g id="Node000007" class="node">
<title>Node7</title>
<g id="a_Node000007"><a xlink:href="_mesh_motion_alg_8h.html" target="_top" xlink:title=" ">
<polygon fill="white" stroke="#666666" points="1459.5,-74 1358.5,-74 1358.5,-55 1459.5,-55 1459.5,-74"/>
<text text-anchor="middle" x="1409" y="-62" font-family="Helvetica,sans-Serif" font-size="10.00">MeshMotionAlg.h</text>
</a>
</g>
</g>
<!-- Node4&#45;&gt;Node7 -->
<g id="edge6_Node000004_Node000007" class="edge">
<title>Node4&#45;&gt;Node7</title>
<g id="a_edge6_Node000004_Node000007"><a xlink:title=" ">
<path fill="none" stroke="#63b8ff" d="M1368.62,-103.04C1378.73,-93.64 1391.28,-81.98 1399.68,-74.17"/>
<polygon fill="#63b8ff" stroke="#63b8ff" points="1366.1,-100.61 1361.16,-109.98 1370.86,-105.74 1366.1,-100.61"/>
</a>
</g>
</g>
<!-- Node7&#45;&gt;Node6 -->
<g id="edge7_Node000007_Node000006" class="edge">
<title>Node7&#45;&gt;Node6</title>
<g id="a_edge7_Node000007_Node000006"><a xlink:title=" ">
<path fill="none" stroke="#63b8ff" d="M1430.39,-49.15C1444.67,-39.57 1462.97,-27.29 1475.08,-19.17"/>
<polygon fill="#63b8ff" stroke="#63b8ff" points="1428.05,-46.51 1421.69,-54.98 1431.95,-52.32 1428.05,-46.51"/>
</a>
</g>
</g>
<!-- Node8 -->
<g id="Node000008" class="node">
<title>Node8</title>
<g id="a_Node000008"><a xlink:href="_realm_8_c.html" target="_top" xlink:title=" ">
<polygon fill="white" stroke="#666666" points="1218,-19 1160,-19 1160,0 1218,0 1218,-19"/>
<text text-anchor="middle" x="1189" y="-7" font-family="Helvetica,sans-Serif" font-size="10.00">Realm.C</text>
</a>
</g>
</g>
<!-- Node7&#45;&gt;Node8 -->
<g id="edge8_Node000007_Node000008" class="edge">
<title>Node7&#45;&gt;Node8</title>
<g id="a_edge8_Node000007_Node000008"><a xlink:title=" ">
<path fill="none" stroke="#63b8ff" d="M1363.87,-52.63C1320.28,-42.13 1255.54,-26.53 1218.28,-17.55"/>
<polygon fill="#63b8ff" stroke="#63b8ff" points="1363.11,-56.05 1373.65,-54.98 1364.75,-49.24 1363.11,-56.05"/>
</a>
</g>
</g>
<!-- Node9 -->
<g id="Node000009" class="node">
<title>Node9</title>
<g id="a_Node000009"><a xlink:href="_time_integrator_8_c.html" target="_top" xlink:title=" ">
<polygon fill="white" stroke="#666666" points="1419,-19 1321,-19 1321,0 1419,0 1419,-19"/>
<text text-anchor="middle" x="1370" y="-7" font-family="Helvetica,sans-Serif" font-size="10.00">TimeIntegrator.C</text>
</a>
</g>
</g>
<!-- Node7&#45;&gt;Node9 -->
<g id="edge9_Node000007_Node000009" class="edge">
<title>Node7&#45;&gt;Node9</title>
<g id="a_edge9_Node000007_Node000009"><a xlink:title=" ">
<path fill="none" stroke="#63b8ff" d="M1396.62,-46.67C1389.86,-37.5 1381.79,-26.52 1376.32,-19.09"/>
<polygon fill="#63b8ff" stroke="#63b8ff" points="1393.81,-48.77 1402.56,-54.75 1399.45,-44.62 1393.81,-48.77"/>
</a>
</g>
</g>
<!-- Node11 -->
<g id="Node000011" class="node">
<title>Node11</title>
<g id="a_Node000011"><a xlink:href="_frame_reference_8_c.html" target="_top" xlink:title=" ">
<polygon fill="white" stroke="#666666" points="1229.5,-74 1122.5,-74 1122.5,-55 1229.5,-55 1229.5,-74"/>
<text text-anchor="middle" x="1176" y="-62" font-family="Helvetica,sans-Serif" font-size="10.00">FrameReference.C</text>
</a>
</g>
</g>
<!-- Node10&#45;&gt;Node11 -->
<g id="edge11_Node000010_Node000011" class="edge">
<title>Node10&#45;&gt;Node11</title>
<g id="a_edge11_Node000010_Node000011"><a xlink:title=" ">
<path fill="none" stroke="#63b8ff" d="M1124.59,-103.88C1137.37,-94.34 1153.61,-82.21 1164.39,-74.17"/>
<polygon fill="#63b8ff" stroke="#63b8ff" points="1122.33,-101.2 1116.41,-109.98 1126.51,-106.81 1122.33,-101.2"/>
</a>
</g>
</g>
<!-- Node12 -->
<g id="Node000012" class="node">
<title>Node12</title>
<g id="a_Node000012"><a xlink:href="_mesh_transformation_alg_8_c.html" target="_top" xlink:title=" ">
<polygon fill="white" stroke="#666666" points="1056,-19 914,-19 914,0 1056,0 1056,-19"/>
<text text-anchor="middle" x="985" y="-7" font-family="Helvetica,sans-Serif" font-size="10.00">MeshTransformationAlg.C</text>
</a>
</g>
</g>
<!-- Node10&#45;&gt;Node12 -->
<g id="edge12_Node000010_Node000012" class="edge">
<title>Node10&#45;&gt;Node12</title>
<g id="a_edge12_Node000010_Node000012"><a xlink:title=" ">
<path fill="none" stroke="#63b8ff" d="M1043.35,-107.89C1006.97,-100.23 965.95,-88.67 955,-74 941.87,-56.41 962.04,-32.16 975.17,-19.32"/>
<polygon fill="#63b8ff" stroke="#63b8ff" points="1042.97,-111.38 1053.46,-109.95 1044.36,-104.52 1042.97,-111.38"/>
</a>
</g>
</g>
<!-- Node13 -->
<g id="Node000013" class="node">
<title>Node13</title>
<g id="a_Node000013"><a xlink:href="_mesh_transformation_alg_8h.html" target="_top" xlink:title=" ">
<polygon fill="white" stroke="#666666" points="1104.5,-74 963.5,-74 963.5,-55 1104.5,-55 1104.5,-74"/>
<text text-anchor="middle" x="1034" y="-62" font-family="Helvetica,sans-Serif" font-size="10.00">MeshTransformationAlg.h</text>
</a>
</g>
</g>
<!-- Node10&#45;&gt;Node13 -->
<g id="edge13_Node000010_Node000013" class="edge">
<title>Node10&#45;&gt;Node13</title>
<g id="a_edge13_Node000010_Node000013"><a xlink:title=" ">
<path fill="none" stroke="#63b8ff" d="M1085.41,-103.88C1072.63,-94.34 1056.39,-82.21 1045.61,-74.17"/>
<polygon fill="#63b8ff" stroke="#63b8ff" points="1083.49,-106.81 1093.59,-109.98 1087.67,-101.2 1083.49,-106.81"/>
</a>
</g>
</g>
<!-- Node13&#45;&gt;Node8 -->
<g id="edge15_Node000013_Node000008" class="edge">
<title>Node13&#45;&gt;Node8</title>
<g id="a_edge15_Node000013_Node000008"><a xlink:title=" ">
<path fill="none" stroke="#63b8ff" d="M1068.6,-51.67C1097.5,-41.79 1138.03,-27.93 1163.9,-19.08"/>
<polygon fill="#63b8ff" stroke="#63b8ff" points="1067.23,-48.44 1058.9,-54.98 1069.5,-55.06 1067.23,-48.44"/>
</a>
</g>
</g>
<!-- Node13&#45;&gt;Node12 -->
<g id="edge14_Node000013_Node000012" class="edge">
<title>Node13&#45;&gt;Node12</title>
<g id="a_edge14_Node000013_Node000012"><a xlink:title=" ">
<path fill="none" stroke="#63b8ff" d="M1018.97,-47.24C1010.38,-37.95 999.96,-26.68 992.94,-19.09"/>
<polygon fill="#63b8ff" stroke="#63b8ff" points="1016.55,-49.78 1025.91,-54.75 1021.69,-45.03 1016.55,-49.78"/>
</a>
</g>
</g>
<!-- Node14&#45;&gt;Node3 -->
<g id="edge17_Node000014_Node000003" class="edge">
<title>Node14&#45;&gt;Node3</title>
<g id="a_edge17_Node000014_Node000003"><a xlink:title=" ">
<path fill="none" stroke="#63b8ff" d="M259.31,-163.44C317.91,-154.61 405.13,-141.29 481,-129 484.04,-128.51 487.19,-127.99 490.35,-127.47"/>
<polygon fill="#63b8ff" stroke="#63b8ff" points="258.44,-160.03 249.07,-164.98 259.48,-166.95 258.44,-160.03"/>
</a>
</g>
</g>
<!-- Node15 -->
<g id="Node000015" class="node">
<title>Node15</title>
<g id="a_Node000015"><a xlink:href="_motion_deforming_interior_kernel_8_c.html" target="_top" xlink:title=" ">
<polygon fill="white" stroke="#666666" points="178,-129 0,-129 0,-110 178,-110 178,-129"/>
<text text-anchor="middle" x="89" y="-117" font-family="Helvetica,sans-Serif" font-size="10.00">MotionDeformingInteriorKernel.C</text>
</a>
</g>
</g>
<!-- Node14&#45;&gt;Node15 -->
<g id="edge18_Node000014_Node000015" class="edge">
<title>Node14&#45;&gt;Node15</title>
<g id="a_edge18_Node000014_Node000015"><a xlink:title=" ">
<path fill="none" stroke="#63b8ff" d="M166.48,-160.37C147.56,-150.63 122.3,-137.64 105.85,-129.17"/>
<polygon fill="#63b8ff" stroke="#63b8ff" points="164.96,-163.52 175.45,-164.98 168.16,-157.3 164.96,-163.52"/>
</a>
</g>
</g>
<!-- Node16&#45;&gt;Node3 -->
<g id="edge20_Node000016_Node000003" class="edge">
<title>Node16&#45;&gt;Node3</title>
<g id="a_edge20_Node000016_Node000003"><a xlink:title=" ">
<path fill="none" stroke="#63b8ff" d="M400.46,-161.93C431.66,-152.03 475.84,-138.01 503.96,-129.08"/>
<polygon fill="#63b8ff" stroke="#63b8ff" points="399.3,-158.62 390.83,-164.98 401.42,-165.3 399.3,-158.62"/>
</a>
</g>
</g>
<!-- Node17 -->
<g id="Node000017" class="node">
<title>Node17</title>
<g id="a_Node000017"><a xlink:href="_motion_rotation_kernel_8_c.html" target="_top" xlink:title=" ">
<polygon fill="white" stroke="#666666" points="328,-129 196,-129 196,-110 328,-110 328,-129"/>
<text text-anchor="middle" x="262" y="-117" font-family="Helvetica,sans-Serif" font-size="10.00">MotionRotationKernel.C</text>
</a>
</g>
</g>
<!-- Node16&#45;&gt;Node17 -->
<g id="edge21_Node000016_Node000017" class="edge">
<title>Node16&#45;&gt;Node17</title>
<g id="a_edge21_Node000016_Node000017"><a xlink:title=" ">
<path fill="none" stroke="#63b8ff" d="M338.73,-160.37C319.99,-150.63 294.98,-137.64 278.69,-129.17"/>
<polygon fill="#63b8ff" stroke="#63b8ff" points="337.12,-163.48 347.61,-164.98 340.35,-157.27 337.12,-163.48"/>
</a>
</g>
</g>
<!-- Node18&#45;&gt;Node3 -->
<g id="edge23_Node000018_Node000003" class="edge">
<title>Node18&#45;&gt;Node3</title>
<g id="a_edge23_Node000018_Node000003"><a xlink:title=" ">
<path fill="none" stroke="#63b8ff" d="M517.24,-155.24C520.75,-146.37 524.8,-136.14 527.6,-129.09"/>
<polygon fill="#63b8ff" stroke="#63b8ff" points="513.9,-154.16 513.47,-164.75 520.41,-156.74 513.9,-154.16"/>
</a>
</g>
</g>
<!-- Node19 -->
<g id="Node000019" class="node">
<title>Node19</title>
<g id="a_Node000019"><a xlink:href="_motion_scaling_kernel_8_c.html" target="_top" xlink:title=" ">
<polygon fill="white" stroke="#666666" points="472,-129 346,-129 346,-110 472,-110 472,-129"/>
<text text-anchor="middle" x="409" y="-117" font-family="Helvetica,sans-Serif" font-size="10.00">MotionScalingKernel.C</text>
</a>
</g>
</g>
<!-- Node18&#45;&gt;Node19 -->
<g id="edge24_Node000018_Node000019" class="edge">
<title>Node18&#45;&gt;Node19</title>
<g id="a_edge24_Node000018_Node000019"><a xlink:title=" ">
<path fill="none" stroke="#63b8ff" d="M484.72,-160.23C466.2,-150.51 441.58,-137.6 425.52,-129.17"/>
<polygon fill="#63b8ff" stroke="#63b8ff" points="483.29,-163.44 493.77,-164.98 486.54,-157.24 483.29,-163.44"/>
</a>
</g>
</g>
<!-- Node20&#45;&gt;Node3 -->
<g id="edge26_Node000020_Node000003" class="edge">
<title>Node20&#45;&gt;Node3</title>
<g id="a_edge26_Node000020_Node000003"><a xlink:title=" ">
<path fill="none" stroke="#63b8ff" d="M631.5,-161.16C607.25,-151.35 573.93,-137.87 552.43,-129.17"/>
<polygon fill="#63b8ff" stroke="#63b8ff" points="630.37,-164.48 640.95,-164.98 633,-157.99 630.37,-164.48"/>
</a>
</g>
</g>
<!-- Node21 -->
<g id="Node000021" class="node">
<title>Node21</title>
<g id="a_Node000021"><a xlink:href="_motion_translation_kernel_8_c.html" target="_top" xlink:title=" ">
<polygon fill="white" stroke="#666666" points="734,-129 590,-129 590,-110 734,-110 734,-129"/>
<text text-anchor="middle" x="662" y="-117" font-family="Helvetica,sans-Serif" font-size="10.00">MotionTranslationKernel.C</text>
</a>
</g>
</g>
<!-- Node20&#45;&gt;Node21 -->
<g id="edge27_Node000020_Node000021" class="edge">
<title>Node20&#45;&gt;Node21</title>
<g id="a_edge27_Node000020_Node000021"><a xlink:title=" ">
<path fill="none" stroke="#63b8ff" d="M662,-154.66C662,-145.93 662,-135.99 662,-129.09"/>
<polygon fill="#63b8ff" stroke="#63b8ff" points="658.5,-154.75 662,-164.75 665.5,-154.75 658.5,-154.75"/>
</a>
</g>
</g>
<!-- Node22&#45;&gt;Node3 -->
<g id="edge29_Node000022_Node000003" class="edge">
<title>Node22&#45;&gt;Node3</title>
<g id="a_edge29_Node000022_Node000003"><a xlink:title=" ">
<path fill="none" stroke="#63b8ff" d="M757.81,-163.13C703.11,-152.85 620.59,-137.34 571.62,-128.13"/>
<polygon fill="#63b8ff" stroke="#63b8ff" points="757.22,-166.58 767.69,-164.98 758.51,-159.7 757.22,-166.58"/>
</a>
</g>
</g>
<!-- Node23 -->
<g id="Node000023" class="node">
<title>Node23</title>
<g id="a_Node000023"><a xlink:href="_motion_waves_kernel_8_c.html" target="_top" xlink:title=" ">
<polygon fill="white" stroke="#666666" points="875.5,-129 752.5,-129 752.5,-110 875.5,-110 875.5,-129"/>
<text text-anchor="middle" x="814" y="-117" font-family="Helvetica,sans-Serif" font-size="10.00">MotionWavesKernel.C</text>
</a>
</g>
</g>
<!-- Node22&#45;&gt;Node23 -->
<g id="edge30_Node000022_Node000023" class="edge">
<title>Node22&#45;&gt;Node23</title>
<g id="a_edge30_Node000022_Node000023"><a xlink:title=" ">
<path fill="none" stroke="#63b8ff" d="M813.36,-154.66C813.52,-145.93 813.71,-135.99 813.84,-129.09"/>
<polygon fill="#63b8ff" stroke="#63b8ff" points="809.85,-154.68 813.17,-164.75 816.85,-154.82 809.85,-154.68"/>
</a>
</g>
</g>
<!-- Node24&#45;&gt;Node3 -->
<g id="edge32_Node000024_Node000003" class="edge">
<title>Node24&#45;&gt;Node3</title>
<g id="a_edge32_Node000024_Node000003"><a xlink:title=" ">
<path fill="none" stroke="#63b8ff" d="M882.16,-164.67C788.03,-154.17 637.29,-137.07 581,-129 577.95,-128.56 574.8,-128.09 571.63,-127.59"/>
<polygon fill="#63b8ff" stroke="#63b8ff" points="881.89,-168.16 892.21,-165.79 882.66,-161.2 881.89,-168.16"/>
</a>
</g>
</g>
<!-- Node25 -->
<g id="Node000025" class="node">
<title>Node25</title>
<g id="a_Node000025"><a xlink:href="_turbine_surrogate_kernel_8_c.html" target="_top" xlink:title=" ">
<polygon fill="white" stroke="#666666" points="1034,-129 894,-129 894,-110 1034,-110 1034,-129"/>
<text text-anchor="middle" x="964" y="-117" font-family="Helvetica,sans-Serif" font-size="10.00">TurbineSurrogateKernel.C</text>
</a>
</g>
</g>
<!-- Node24&#45;&gt;Node25 -->
<g id="edge33_Node000024_Node000025" class="edge">
<title>Node24&#45;&gt;Node25</title>
<g id="a_edge33_Node000024_Node000025"><a xlink:title=" ">
<path fill="none" stroke="#63b8ff" d="M962.71,-154.66C963.04,-145.93 963.42,-135.99 963.68,-129.09"/>
<polygon fill="#63b8ff" stroke="#63b8ff" points="959.21,-154.62 962.33,-164.75 966.2,-154.89 959.21,-154.62"/>
</a>
</g>
</g>
</g>
</svg>
