<?xml version="1.0" encoding="UTF-8" standalone="no"?>
<!DOCTYPE svg PUBLIC "-//W3C//DTD SVG 1.1//EN"
 "http://www.w3.org/Graphics/SVG/1.1/DTD/svg11.dtd">
<!-- Generated by graphviz version 2.43.0 (0)
 -->
<!-- Title: NgpFieldUtils.h Pages: 1 -->
<!--zoomable 159 -->

<svg id="main" version="1.1" xmlns="http://www.w3.org/2000/svg" xmlns:xlink="http://www.w3.org/1999/xlink" xml:space="preserve" onload="init(evt)">
<style type="text/css"><![CDATA[
.node, .edge {opacity: 0.7;}
.node.selected, .edge.selected {opacity: 1;}
.edge:hover path { stroke: red; }
.edge:hover polygon { stroke: red; fill: red; }
]]></style>

<defs>
  <circle id="rim" cx="0" cy="0" r="7"/>
  <circle id="rim2" cx="0" cy="0" r="3.5"/>
  <g id="zoomPlus">
    <use xlink:href="#rim" fill="#404040"><set attributeName="fill" to="#808080" begin="zoomplus.mouseover" end="zoomplus.mouseout"/></use>
    <path d="M-4,0h8M0,-4v8" fill="none" stroke="white" stroke-width="1.5" pointer-events="none"/>
  </g>
  <g id="zoomMin">
    <use xlink:href="#rim" fill="#404040"><set attributeName="fill" to="#808080" begin="zoomminus.mouseover" end="zoomminus.mouseout"/></use>
    <path d="M-4,0h8" fill="none" stroke="white" stroke-width="1.5" pointer-events="none"/>
  </g>
  <g id="arrowUp" transform="translate(30 24)">
    <use xlink:href="#rim"/>
    <path pointer-events="none" fill="none" stroke="white" stroke-width="1.5" d="M0,-3.0v7 M-2.5,-0.5L0,-3.0L2.5,-0.5"/>
  </g>
  <g id="arrowRight" transform="rotate(90) translate(36 -43)">
    <use xlink:href="#rim"/>
    <path pointer-events="none" fill="none" stroke="white" stroke-width="1.5" d="M0,-3.0v7 M-2.5,-0.5L0,-3.0L2.5,-0.5"/>
  </g>
  <g id="arrowDown" transform="rotate(180) translate(-30 -48)">
    <use xlink:href="#rim"/>
    <path pointer-events="none" fill="none" stroke="white" stroke-width="1.5" d="M0,-3.0v7 M-2.5,-0.5L0,-3.0L2.5,-0.5"/>
  </g>
  <g id="arrowLeft" transform="rotate(270) translate(-36 17)">
    <use xlink:href="#rim"/>
    <path pointer-events="none" fill="none" stroke="white" stroke-width="1.5" d="M0,-3.0v7 M-2.5,-0.5L0,-3.0L2.5,-0.5"/>
  </g>
  <g id="resetDef">
    <use xlink:href="#rim2" fill="#404040"><set attributeName="fill" to="#808080" begin="reset.mouseover" end="reset.mouseout"/></use>
  </g>
</defs>
<script type="application/ecmascript">
var viewWidth = 3115;
var viewHeight = 159;
var sectionId = 'dynsection-1';
</script>
<script type="application/ecmascript" xlink:href="svg.min.js"/>
<svg id="graph" class="graph">
<g id="viewport">
<title>NgpFieldUtils.h</title>
<!-- Node1 -->
<g id="Node000001" class="node">
<title>Node1</title>
<g id="a_Node000001"><a xlink:title=" ">
<polygon fill="#999999" stroke="#666666" points="1445.5,-151 1354.5,-151 1354.5,-132 1445.5,-132 1445.5,-151"/>
<text text-anchor="middle" x="1400" y="-139" font-family="Helvetica,sans-Serif" font-size="10.00">NgpFieldUtils.h</text>
</a>
</g>
</g>
<!-- Node2 -->
<g id="Node000002" class="node">
<title>Node2</title>
<g id="a_Node000002"><a xlink:href="_a_m_s_momentum_edge_peclet_alg_8_c.html" target="_top" xlink:title=" ">
<polygon fill="white" stroke="#666666" points="736,-90.5 562,-90.5 562,-71.5 736,-71.5 736,-90.5"/>
<text text-anchor="middle" x="649" y="-78.5" font-family="Helvetica,sans-Serif" font-size="10.00">AMSMomentumEdgePecletAlg.C</text>
</a>
</g>
</g>
<!-- Node1&#45;&gt;Node2 -->
<g id="edge1_Node000001_Node000002" class="edge">
<title>Node1&#45;&gt;Node2</title>
<g id="a_edge1_Node000001_Node000002"><a xlink:title=" ">
<path fill="none" stroke="#63b8ff" d="M1344.07,-138.15C1230.79,-133.08 966.18,-119.61 745,-96 731.1,-94.52 716.12,-92.52 702.23,-90.51"/>
<polygon fill="#63b8ff" stroke="#63b8ff" points="1344.09,-141.66 1354.23,-138.6 1344.4,-134.67 1344.09,-141.66"/>
</a>
</g>
</g>
<!-- Node3 -->
<g id="Node000003" class="node">
<title>Node3</title>
<g id="a_Node000003"><a xlink:href="_bdy_layer_statistics_8_c.html" target="_top" xlink:title=" ">
<polygon fill="white" stroke="#666666" points="871.5,-90.5 754.5,-90.5 754.5,-71.5 871.5,-71.5 871.5,-90.5"/>
<text text-anchor="middle" x="813" y="-78.5" font-family="Helvetica,sans-Serif" font-size="10.00">BdyLayerStatistics.C</text>
</a>
</g>
</g>
<!-- Node1&#45;&gt;Node3 -->
<g id="edge2_Node000001_Node000003" class="edge">
<title>Node1&#45;&gt;Node3</title>
<g id="a_edge2_Node000001_Node000003"><a xlink:title=" ">
<path fill="none" stroke="#63b8ff" d="M1344.25,-137.56C1249.68,-132.16 1051.9,-119.03 886,-96 875.39,-94.53 863.99,-92.54 853.42,-90.52"/>
<polygon fill="#63b8ff" stroke="#63b8ff" points="1344.26,-141.07 1354.44,-138.14 1344.66,-134.08 1344.26,-141.07"/>
</a>
</g>
</g>
<!-- Node4 -->
<g id="Node000004" class="node">
<title>Node4</title>
<g id="a_Node000004"><a xlink:href="_chien_k_epsilon_equation_system_8_c.html" target="_top" xlink:title=" ">
<polygon fill="white" stroke="#666666" points="176,-24.5 0,-24.5 0,-5.5 176,-5.5 176,-24.5"/>
<text text-anchor="middle" x="88" y="-12.5" font-family="Helvetica,sans-Serif" font-size="10.00">ChienKEpsilonEquationSystem.C</text>
</a>
</g>
</g>
<!-- Node1&#45;&gt;Node4 -->
<g id="edge3_Node000001_Node000004" class="edge">
<title>Node1&#45;&gt;Node4</title>
<g id="a_edge3_Node000001_Node000004"><a xlink:title=" ">
<path fill="none" stroke="#63b8ff" d="M1344.05,-139.71C1233.24,-137.45 990.03,-128.79 914,-96 895.49,-88.02 898.66,-73.61 880,-66 736.81,-7.58 338.92,-45.06 185,-30 170.61,-28.59 155.08,-26.57 140.75,-24.51"/>
<polygon fill="#63b8ff" stroke="#63b8ff" points="1344.28,-143.22 1354.35,-139.91 1344.42,-136.22 1344.28,-143.22"/>
</a>
</g>
</g>
<!-- Node5 -->
<g id="Node000005" class="node">
<title>Node5</title>
<g id="a_Node000005"><a xlink:href="_geometry_alg_driver_8_c.html" target="_top" xlink:title=" ">
<polygon fill="white" stroke="#666666" points="314,-24.5 194,-24.5 194,-5.5 314,-5.5 314,-24.5"/>
<text text-anchor="middle" x="254" y="-12.5" font-family="Helvetica,sans-Serif" font-size="10.00">GeometryAlgDriver.C</text>
</a>
</g>
</g>
<!-- Node1&#45;&gt;Node5 -->
<g id="edge4_Node000001_Node000005" class="edge">
<title>Node1&#45;&gt;Node5</title>
<g id="a_edge4_Node000001_Node000005"><a xlink:title=" ">
<path fill="none" stroke="#63b8ff" d="M1344.07,-138.39C1241.32,-133.93 1026.64,-121.79 957,-96 935.15,-87.91 936.01,-73.66 914,-66 789.74,-22.74 453.46,-47.12 323,-30 312.58,-28.63 301.37,-26.6 291.08,-24.51"/>
<polygon fill="#63b8ff" stroke="#63b8ff" points="1344.11,-141.89 1354.25,-138.82 1344.41,-134.9 1344.11,-141.89"/>
</a>
</g>
</g>
<!-- Node6 -->
<g id="Node000006" class="node">
<title>Node6</title>
<g id="a_Node000006"><a xlink:href="_low_mach_equation_system_8_c.html" target="_top" xlink:title=" ">
<polygon fill="white" stroke="#666666" points="484,-24.5 332,-24.5 332,-5.5 484,-5.5 484,-24.5"/>
<text text-anchor="middle" x="408" y="-12.5" font-family="Helvetica,sans-Serif" font-size="10.00">LowMachEquationSystem.C</text>
</a>
</g>
</g>
<!-- Node1&#45;&gt;Node6 -->
<g id="edge5_Node000001_Node000006" class="edge">
<title>Node1&#45;&gt;Node6</title>
<g id="a_edge5_Node000001_Node000006"><a xlink:title=" ">
<path fill="none" stroke="#63b8ff" d="M1344.04,-138.05C1292.84,-134.04 1216.01,-123.54 1155,-96 1135.39,-87.15 1137.12,-73.64 1117,-66 987.15,-16.69 631.05,-45.31 493,-30 480.37,-28.6 466.75,-26.58 454.2,-24.52"/>
<polygon fill="#63b8ff" stroke="#63b8ff" points="1344.02,-141.55 1354.24,-138.78 1344.52,-134.57 1344.02,-141.55"/>
</a>
</g>
</g>
<!-- Node7 -->
<g id="Node000007" class="node">
<title>Node7</title>
<g id="a_Node000007"><a xlink:href="_momentum_a_b_l_wall_func_mask_util_8_c.html" target="_top" xlink:title=" ">
<polygon fill="white" stroke="#666666" points="1616,-90.5 1428,-90.5 1428,-71.5 1616,-71.5 1616,-90.5"/>
<text text-anchor="middle" x="1522" y="-78.5" font-family="Helvetica,sans-Serif" font-size="10.00">MomentumABLWallFuncMaskUtil.C</text>
</a>
</g>
</g>
<!-- Node1&#45;&gt;Node7 -->
<g id="edge6_Node000001_Node000007" class="edge">
<title>Node1&#45;&gt;Node7</title>
<g id="a_edge6_Node000001_Node000007"><a xlink:title=" ">
<path fill="none" stroke="#63b8ff" d="M1426.83,-127.63C1450.36,-116.35 1483.9,-100.27 1504.24,-90.52"/>
<polygon fill="#63b8ff" stroke="#63b8ff" points="1425.24,-124.51 1417.74,-131.99 1428.27,-130.83 1425.24,-124.51"/>
</a>
</g>
</g>
<!-- Node8 -->
<g id="Node000008" class="node">
<title>Node8</title>
<g id="a_Node000008"><a xlink:href="_momentum_edge_peclet_alg_8_c.html" target="_top" xlink:title=" ">
<polygon fill="white" stroke="#666666" points="1786,-90.5 1634,-90.5 1634,-71.5 1786,-71.5 1786,-90.5"/>
<text text-anchor="middle" x="1710" y="-78.5" font-family="Helvetica,sans-Serif" font-size="10.00">MomentumEdgePecletAlg.C</text>
</a>
</g>
</g>
<!-- Node1&#45;&gt;Node8 -->
<g id="edge7_Node000001_Node000008" class="edge">
<title>Node1&#45;&gt;Node8</title>
<g id="a_edge7_Node000001_Node000008"><a xlink:title=" ">
<path fill="none" stroke="#63b8ff" d="M1455.09,-130.1C1514.9,-118.82 1609.28,-101.01 1664.87,-90.52"/>
<polygon fill="#63b8ff" stroke="#63b8ff" points="1454.25,-126.7 1445.08,-131.99 1455.55,-133.58 1454.25,-126.7"/>
</a>
</g>
</g>
<!-- Node9 -->
<g id="Node000009" class="node">
<title>Node9</title>
<g id="a_Node000009"><a xlink:href="_ngp_field_b_l_a_s_8h.html" target="_top" xlink:title=" ">
<polygon fill="white" stroke="#666666" points="1258,-90.5 1164,-90.5 1164,-71.5 1258,-71.5 1258,-90.5"/>
<text text-anchor="middle" x="1211" y="-78.5" font-family="Helvetica,sans-Serif" font-size="10.00">NgpFieldBLAS.h</text>
</a>
</g>
</g>
<!-- Node1&#45;&gt;Node9 -->
<g id="edge8_Node000001_Node000009" class="edge">
<title>Node1&#45;&gt;Node9</title>
<g id="a_edge8_Node000001_Node000009"><a xlink:title=" ">
<path fill="none" stroke="#63b8ff" d="M1362.73,-128.96C1326.17,-117.65 1271.28,-100.66 1238.52,-90.52"/>
<polygon fill="#63b8ff" stroke="#63b8ff" points="1361.93,-132.38 1372.52,-131.99 1364,-125.69 1361.93,-132.38"/>
</a>
</g>
</g>
<!-- Node15 -->
<g id="Node000015" class="node">
<title>Node15</title>
<g id="a_Node000015"><a xlink:href="_realm_8_c.html" target="_top" xlink:title=" ">
<polygon fill="white" stroke="#666666" points="1803,-24.5 1745,-24.5 1745,-5.5 1803,-5.5 1803,-24.5"/>
<text text-anchor="middle" x="1774" y="-12.5" font-family="Helvetica,sans-Serif" font-size="10.00">Realm.C</text>
</a>
</g>
</g>
<!-- Node1&#45;&gt;Node15 -->
<g id="edge28_Node000001_Node000015" class="edge">
<title>Node1&#45;&gt;Node15</title>
<g id="a_edge28_Node000001_Node000015"><a xlink:title=" ">
<path fill="none" stroke="#63b8ff" d="M1352.45,-128.29C1336.1,-121.56 1319.53,-111.35 1310,-96 1302.97,-84.67 1300.98,-75.82 1310,-66 1342.14,-31.03 1689.63,-40.3 1736,-30 1741.9,-28.69 1748.13,-26.68 1753.79,-24.59"/>
<polygon fill="#63b8ff" stroke="#63b8ff" points="1351.39,-131.63 1361.99,-131.85 1353.85,-125.07 1351.39,-131.63"/>
</a>
</g>
</g>
<!-- Node16 -->
<g id="Node000016" class="node">
<title>Node16</title>
<g id="a_Node000016"><a xlink:href="_shear_stress_transport_equation_system_8_c.html" target="_top" xlink:title=" ">
<polygon fill="white" stroke="#666666" points="1983,-30 1821,-30 1821,0 1983,0 1983,-30"/>
<text text-anchor="start" x="1829" y="-18" font-family="Helvetica,sans-Serif" font-size="10.00">ShearStressTransportEquation</text>
<text text-anchor="middle" x="1902" y="-7" font-family="Helvetica,sans-Serif" font-size="10.00">System.C</text>
</a>
</g>
</g>
<!-- Node1&#45;&gt;Node16 -->
<g id="edge31_Node000001_Node000016" class="edge">
<title>Node1&#45;&gt;Node16</title>
<g id="a_edge31_Node000001_Node000016"><a xlink:title=" ">
<path fill="none" stroke="#63b8ff" d="M1378.01,-126.01C1356.83,-110.33 1330.39,-85.03 1348,-66 1383.12,-28.05 1760.64,-35.98 1812,-30 1814.83,-29.67 1817.7,-29.32 1820.6,-28.95"/>
<polygon fill="#63b8ff" stroke="#63b8ff" points="1376.15,-128.98 1386.34,-131.9 1380.19,-123.27 1376.15,-128.98"/>
</a>
</g>
</g>
<!-- Node20 -->
<g id="Node000020" class="node">
<title>Node20</title>
<g id="a_Node000020"><a xlink:href="_volume_of_fluid_equation_system_8_c.html" target="_top" xlink:title=" ">
<polygon fill="white" stroke="#666666" points="2179,-24.5 2001,-24.5 2001,-5.5 2179,-5.5 2179,-24.5"/>
<text text-anchor="middle" x="2090" y="-12.5" font-family="Helvetica,sans-Serif" font-size="10.00">VolumeOfFluidEquationSystem.C</text>
</a>
</g>
</g>
<!-- Node1&#45;&gt;Node20 -->
<g id="edge36_Node000001_Node000020" class="edge">
<title>Node1&#45;&gt;Node20</title>
<g id="a_edge36_Node000001_Node000020"><a xlink:title=" ">
<path fill="none" stroke="#63b8ff" d="M1389.28,-123.02C1380.51,-106.23 1371.66,-81.21 1386,-66 1432.26,-16.91 1924.89,-36.78 1992,-30 2006.36,-28.55 2021.85,-26.54 2036.18,-24.5"/>
<polygon fill="#63b8ff" stroke="#63b8ff" points="1386.3,-124.85 1394.27,-131.83 1392.39,-121.4 1386.3,-124.85"/>
</a>
</g>
</g>
<!-- Node21 -->
<g id="Node000021" class="node">
<title>Node21</title>
<g id="a_Node000021"><a xlink:href="_wilcox_k_omega_equation_system_8_c.html" target="_top" xlink:title=" ">
<polygon fill="white" stroke="#666666" points="2377,-24.5 2197,-24.5 2197,-5.5 2377,-5.5 2377,-24.5"/>
<text text-anchor="middle" x="2287" y="-12.5" font-family="Helvetica,sans-Serif" font-size="10.00">WilcoxKOmegaEquationSystem.C</text>
</a>
</g>
</g>
<!-- Node1&#45;&gt;Node21 -->
<g id="edge37_Node000001_Node000021" class="edge">
<title>Node1&#45;&gt;Node21</title>
<g id="a_edge37_Node000001_Node000021"><a xlink:title=" ">
<path fill="none" stroke="#63b8ff" d="M1399.04,-121.8C1399.27,-104.42 1402.71,-79.28 1419,-66 1485.3,-11.95 2102.84,-38 2188,-30 2202.78,-28.61 2218.73,-26.59 2233.42,-24.51"/>
<polygon fill="#63b8ff" stroke="#63b8ff" points="1395.54,-121.97 1399.24,-131.9 1402.54,-121.83 1395.54,-121.97"/>
</a>
</g>
</g>
<!-- Node22 -->
<g id="Node000022" class="node">
<title>Node22</title>
<g id="a_Node000022"><a xlink:href="_nodal_buoyancy_alg_driver_8_c.html" target="_top" xlink:title=" ">
<polygon fill="white" stroke="#666666" points="1952,-90.5 1804,-90.5 1804,-71.5 1952,-71.5 1952,-90.5"/>
<text text-anchor="middle" x="1878" y="-78.5" font-family="Helvetica,sans-Serif" font-size="10.00">NodalBuoyancyAlgDriver.C</text>
</a>
</g>
</g>
<!-- Node1&#45;&gt;Node22 -->
<g id="edge24_Node000001_Node000022" class="edge">
<title>Node1&#45;&gt;Node22</title>
<g id="a_edge24_Node000001_Node000022"><a xlink:title=" ">
<path fill="none" stroke="#63b8ff" d="M1456.1,-135.16C1532.79,-127.63 1674.58,-112.93 1795,-96 1806.43,-94.39 1818.71,-92.44 1830.23,-90.52"/>
<polygon fill="#63b8ff" stroke="#63b8ff" points="1455.33,-131.72 1445.72,-136.17 1456.01,-138.68 1455.33,-131.72"/>
</a>
</g>
</g>
<!-- Node23 -->
<g id="Node000023" class="node">
<title>Node23</title>
<g id="a_Node000023"><a xlink:href="_nodal_buoyancy_func_util_8h.html" target="_top" xlink:title=" ">
<polygon fill="white" stroke="#666666" points="1108,-90.5 966,-90.5 966,-71.5 1108,-71.5 1108,-90.5"/>
<text text-anchor="middle" x="1037" y="-78.5" font-family="Helvetica,sans-Serif" font-size="10.00">NodalBuoyancyFuncUtil.h</text>
</a>
</g>
</g>
<!-- Node1&#45;&gt;Node23 -->
<g id="edge25_Node000001_Node000023" class="edge">
<title>Node1&#45;&gt;Node23</title>
<g id="a_edge25_Node000001_Node000023"><a xlink:title=" ">
<path fill="none" stroke="#63b8ff" d="M1344.15,-131.64C1288.01,-122.71 1198.99,-108.5 1122,-96 1111.22,-94.25 1099.68,-92.36 1088.69,-90.55"/>
<polygon fill="#63b8ff" stroke="#63b8ff" points="1343.82,-135.13 1354.24,-133.24 1344.91,-128.21 1343.82,-135.13"/>
</a>
</g>
</g>
<!-- Node24 -->
<g id="Node000024" class="node">
<title>Node24</title>
<g id="a_Node000024"><a xlink:href="_nodal_grad_alg_driver_8_c.html" target="_top" xlink:title=" ">
<polygon fill="white" stroke="#666666" points="2093.5,-90.5 1970.5,-90.5 1970.5,-71.5 2093.5,-71.5 2093.5,-90.5"/>
<text text-anchor="middle" x="2032" y="-78.5" font-family="Helvetica,sans-Serif" font-size="10.00">NodalGradAlgDriver.C</text>
</a>
</g>
</g>
<!-- Node1&#45;&gt;Node24 -->
<g id="edge27_Node000001_Node000024" class="edge">
<title>Node1&#45;&gt;Node24</title>
<g id="a_edge27_Node000001_Node000024"><a xlink:title=" ">
<path fill="none" stroke="#63b8ff" d="M1455.93,-138.21C1557.1,-133.58 1777.08,-121.34 1961,-96 1971.45,-94.56 1982.69,-92.56 1993.07,-90.52"/>
<polygon fill="#63b8ff" stroke="#63b8ff" points="1455.47,-134.72 1445.64,-138.67 1455.79,-141.72 1455.47,-134.72"/>
</a>
</g>
</g>
<!-- Node25 -->
<g id="Node000025" class="node">
<title>Node25</title>
<g id="a_Node000025"><a xlink:href="_s_d_r_wall_func_alg_driver_8_c.html" target="_top" xlink:title=" ">
<polygon fill="white" stroke="#666666" points="2246.5,-90.5 2111.5,-90.5 2111.5,-71.5 2246.5,-71.5 2246.5,-90.5"/>
<text text-anchor="middle" x="2179" y="-78.5" font-family="Helvetica,sans-Serif" font-size="10.00">SDRWallFuncAlgDriver.C</text>
</a>
</g>
</g>
<!-- Node1&#45;&gt;Node25 -->
<g id="edge29_Node000001_Node000025" class="edge">
<title>Node1&#45;&gt;Node25</title>
<g id="a_edge29_Node000001_Node000025"><a xlink:title=" ">
<path fill="none" stroke="#63b8ff" d="M1456.17,-139.21C1575.62,-135.97 1863.54,-125.53 2103,-96 2114.32,-94.6 2126.5,-92.59 2137.72,-90.53"/>
<polygon fill="#63b8ff" stroke="#63b8ff" points="1455.73,-135.72 1445.82,-139.49 1455.91,-142.72 1455.73,-135.72"/>
</a>
</g>
</g>
<!-- Node26 -->
<g id="Node000026" class="node">
<title>Node26</title>
<g id="a_Node000026"><a xlink:href="_s_s_t_max_length_scale_driver_8_c.html" target="_top" xlink:title=" ">
<polygon fill="white" stroke="#666666" points="2419,-90.5 2265,-90.5 2265,-71.5 2419,-71.5 2419,-90.5"/>
<text text-anchor="middle" x="2342" y="-78.5" font-family="Helvetica,sans-Serif" font-size="10.00">SSTMaxLengthScaleDriver.C</text>
</a>
</g>
</g>
<!-- Node1&#45;&gt;Node26 -->
<g id="edge30_Node000001_Node000026" class="edge">
<title>Node1&#45;&gt;Node26</title>
<g id="a_edge30_Node000001_Node000026"><a xlink:title=" ">
<path fill="none" stroke="#63b8ff" d="M1455.84,-139.71C1592.64,-137.32 1955.32,-128.19 2256,-96 2268.78,-94.63 2282.56,-92.63 2295.26,-90.56"/>
<polygon fill="#63b8ff" stroke="#63b8ff" points="1455.55,-136.21 1445.61,-139.88 1455.67,-143.21 1455.55,-136.21"/>
</a>
</g>
</g>
<!-- Node27 -->
<g id="Node000027" class="node">
<title>Node27</title>
<g id="a_Node000027"><a xlink:href="_solver_algorithm_8_c.html" target="_top" xlink:title=" ">
<polygon fill="white" stroke="#666666" points="2542.5,-90.5 2437.5,-90.5 2437.5,-71.5 2542.5,-71.5 2542.5,-90.5"/>
<text text-anchor="middle" x="2490" y="-78.5" font-family="Helvetica,sans-Serif" font-size="10.00">SolverAlgorithm.C</text>
</a>
</g>
</g>
<!-- Node1&#45;&gt;Node27 -->
<g id="edge32_Node000001_Node000027" class="edge">
<title>Node1&#45;&gt;Node27</title>
<g id="a_edge32_Node000001_Node000027"><a xlink:title=" ">
<path fill="none" stroke="#63b8ff" d="M1455.86,-139.4C1641.61,-135.53 2237.6,-121.41 2428,-96 2437.63,-94.72 2447.96,-92.66 2457.38,-90.51"/>
<polygon fill="#63b8ff" stroke="#63b8ff" points="1455.69,-135.9 1445.77,-139.61 1455.84,-142.9 1455.69,-135.9"/>
</a>
</g>
</g>
<!-- Node28 -->
<g id="Node000028" class="node">
<title>Node28</title>
<g id="a_Node000028"><a xlink:href="_strelets_upwind_edge_alg_8_c.html" target="_top" xlink:title=" ">
<polygon fill="white" stroke="#666666" points="2701,-90.5 2561,-90.5 2561,-71.5 2701,-71.5 2701,-90.5"/>
<text text-anchor="middle" x="2631" y="-78.5" font-family="Helvetica,sans-Serif" font-size="10.00">StreletsUpwindEdgeAlg.C</text>
</a>
</g>
</g>
<!-- Node1&#45;&gt;Node28 -->
<g id="edge33_Node000001_Node000028" class="edge">
<title>Node1&#45;&gt;Node28</title>
<g id="a_edge33_Node000001_Node000028"><a xlink:title=" ">
<path fill="none" stroke="#63b8ff" d="M1455.74,-141.04C1622.58,-142.09 2132.43,-141.07 2552,-96 2564.05,-94.71 2577.03,-92.67 2588.92,-90.56"/>
<polygon fill="#63b8ff" stroke="#63b8ff" points="1455.74,-137.54 1445.71,-140.97 1455.69,-144.54 1455.74,-137.54"/>
</a>
</g>
</g>
<!-- Node29 -->
<g id="Node000029" class="node">
<title>Node29</title>
<g id="a_Node000029"><a xlink:href="_turbulence_averaging_post_processing_8_c.html" target="_top" xlink:title=" ">
<polygon fill="white" stroke="#666666" points="2920.5,-90.5 2719.5,-90.5 2719.5,-71.5 2920.5,-71.5 2920.5,-90.5"/>
<text text-anchor="middle" x="2820" y="-78.5" font-family="Helvetica,sans-Serif" font-size="10.00">TurbulenceAveragingPostProcessing.C</text>
</a>
</g>
</g>
<!-- Node1&#45;&gt;Node29 -->
<g id="edge34_Node000001_Node000029" class="edge">
<title>Node1&#45;&gt;Node29</title>
<g id="a_edge34_Node000001_Node000029"><a xlink:title=" ">
<path fill="none" stroke="#63b8ff" d="M1455.71,-140.45C1636.82,-139.9 2225.21,-135 2710,-96 2726.6,-94.66 2744.54,-92.63 2761.02,-90.53"/>
<polygon fill="#63b8ff" stroke="#63b8ff" points="1455.62,-136.95 1445.63,-140.48 1455.64,-143.95 1455.62,-136.95"/>
</a>
</g>
</g>
<!-- Node30 -->
<g id="Node000030" class="node">
<title>Node30</title>
<g id="a_Node000030"><a xlink:href="_update_overset_fringe_algorithm_driver_8_c.html" target="_top" xlink:title=" ">
<polygon fill="white" stroke="#666666" points="3107,-96 2939,-96 2939,-66 3107,-66 3107,-96"/>
<text text-anchor="start" x="2947" y="-84" font-family="Helvetica,sans-Serif" font-size="10.00">UpdateOversetFringeAlgorithm</text>
<text text-anchor="middle" x="3023" y="-73" font-family="Helvetica,sans-Serif" font-size="10.00">Driver.C</text>
</a>
</g>
</g>
<!-- Node1&#45;&gt;Node30 -->
<g id="edge35_Node000001_Node000030" class="edge">
<title>Node1&#45;&gt;Node30</title>
<g id="a_edge35_Node000001_Node000030"><a xlink:title=" ">
<path fill="none" stroke="#63b8ff" d="M1456,-139.78C1695.57,-136.54 2635.29,-122.37 2930,-96 2932.93,-95.74 2935.9,-95.44 2938.91,-95.12"/>
<polygon fill="#63b8ff" stroke="#63b8ff" points="1455.74,-136.28 1445.79,-139.91 1455.83,-143.28 1455.74,-136.28"/>
</a>
</g>
</g>
<!-- Node9&#45;&gt;Node4 -->
<g id="edge10_Node000009_Node000004" class="edge">
<title>Node9&#45;&gt;Node4</title>
<g id="a_edge10_Node000009_Node000004"><a xlink:title=" ">
<path fill="none" stroke="#63b8ff" d="M1153.78,-70.46C1141.67,-68.73 1128.94,-67.12 1117,-66 704.27,-27.41 597.82,-67.66 185,-30 170.34,-28.66 154.52,-26.63 139.98,-24.53"/>
<polygon fill="#63b8ff" stroke="#63b8ff" points="1153.38,-73.94 1163.78,-71.94 1154.4,-67.01 1153.38,-73.94"/>
</a>
</g>
</g>
<!-- Node9&#45;&gt;Node5 -->
<g id="edge15_Node000009_Node000005" class="edge">
<title>Node9&#45;&gt;Node5</title>
<g id="a_edge15_Node000009_Node000005"><a xlink:title=" ">
<path fill="none" stroke="#63b8ff" d="M1153.78,-70.52C1141.66,-68.78 1128.93,-67.16 1117,-66 765.39,-31.94 673.59,-73.25 323,-30 312.45,-28.7 301.1,-26.66 290.71,-24.55"/>
<polygon fill="#63b8ff" stroke="#63b8ff" points="1153.37,-74 1163.78,-72 1154.4,-67.08 1153.37,-74"/>
</a>
</g>
</g>
<!-- Node9&#45;&gt;Node6 -->
<g id="edge16_Node000009_Node000006" class="edge">
<title>Node9&#45;&gt;Node6</title>
<g id="a_edge16_Node000009_Node000006"><a xlink:title=" ">
<path fill="none" stroke="#63b8ff" d="M1168.42,-69.26C1162.27,-67.99 1156,-66.85 1150,-66 860.43,-25.14 783.7,-61.81 493,-30 480.36,-28.62 466.75,-26.61 454.2,-24.54"/>
<polygon fill="#63b8ff" stroke="#63b8ff" points="1168.07,-72.76 1178.58,-71.48 1169.56,-65.92 1168.07,-72.76"/>
</a>
</g>
</g>
<!-- Node10 -->
<g id="Node000010" class="node">
<title>Node10</title>
<g id="a_Node000010"><a xlink:href="_a_m_s_alg_driver_8_c.html" target="_top" xlink:title=" ">
<polygon fill="white" stroke="#666666" points="1132,-24.5 1038,-24.5 1038,-5.5 1132,-5.5 1132,-24.5"/>
<text text-anchor="middle" x="1085" y="-12.5" font-family="Helvetica,sans-Serif" font-size="10.00">AMSAlgDriver.C</text>
</a>
</g>
</g>
<!-- Node9&#45;&gt;Node10 -->
<g id="edge9_Node000009_Node000010" class="edge">
<title>Node9&#45;&gt;Node10</title>
<g id="a_edge9_Node000009_Node000010"><a xlink:title=" ">
<path fill="none" stroke="#63b8ff" d="M1184.81,-66.69C1159.98,-54.09 1123.42,-35.51 1102.13,-24.7"/>
<polygon fill="#63b8ff" stroke="#63b8ff" points="1183.51,-69.96 1194.01,-71.37 1186.68,-63.72 1183.51,-69.96"/>
</a>
</g>
</g>
<!-- Node11 -->
<g id="Node000011" class="node">
<title>Node11</title>
<g id="a_Node000011"><a xlink:href="_copy_field_algorithm_8_c.html" target="_top" xlink:title=" ">
<polygon fill="white" stroke="#666666" points="1272,-24.5 1150,-24.5 1150,-5.5 1272,-5.5 1272,-24.5"/>
<text text-anchor="middle" x="1211" y="-12.5" font-family="Helvetica,sans-Serif" font-size="10.00">CopyFieldAlgorithm.C</text>
</a>
</g>
</g>
<!-- Node9&#45;&gt;Node11 -->
<g id="edge11_Node000009_Node000011" class="edge">
<title>Node9&#45;&gt;Node11</title>
<g id="a_edge11_Node000009_Node000011"><a xlink:title=" ">
<path fill="none" stroke="#63b8ff" d="M1211,-61.08C1211,-49.13 1211,-34.22 1211,-24.91"/>
<polygon fill="#63b8ff" stroke="#63b8ff" points="1207.5,-61.37 1211,-71.37 1214.5,-61.37 1207.5,-61.37"/>
</a>
</g>
</g>
<!-- Node12 -->
<g id="Node000012" class="node">
<title>Node12</title>
<g id="a_Node000012"><a xlink:href="_enthalpy_equation_system_8_c.html" target="_top" xlink:title=" ">
<polygon fill="white" stroke="#666666" points="1439.5,-24.5 1290.5,-24.5 1290.5,-5.5 1439.5,-5.5 1439.5,-24.5"/>
<text text-anchor="middle" x="1365" y="-12.5" font-family="Helvetica,sans-Serif" font-size="10.00">EnthalpyEquationSystem.C</text>
</a>
</g>
</g>
<!-- Node9&#45;&gt;Node12 -->
<g id="edge12_Node000009_Node000012" class="edge">
<title>Node9&#45;&gt;Node12</title>
<g id="a_edge12_Node000009_Node000012"><a xlink:title=" ">
<path fill="none" stroke="#63b8ff" d="M1241.02,-67.52C1271.37,-54.91 1317.47,-35.75 1344.07,-24.7"/>
<polygon fill="#63b8ff" stroke="#63b8ff" points="1239.66,-64.3 1231.77,-71.37 1242.35,-70.76 1239.66,-64.3"/>
</a>
</g>
</g>
<!-- Node13 -->
<g id="Node000013" class="node">
<title>Node13</title>
<g id="a_Node000013"><a xlink:href="_equation_system_8_c.html" target="_top" xlink:title=" ">
<polygon fill="white" stroke="#666666" points="1563,-24.5 1457,-24.5 1457,-5.5 1563,-5.5 1563,-24.5"/>
<text text-anchor="middle" x="1510" y="-12.5" font-family="Helvetica,sans-Serif" font-size="10.00">EquationSystem.C</text>
</a>
</g>
</g>
<!-- Node9&#45;&gt;Node13 -->
<g id="edge13_Node000009_Node000013" class="edge">
<title>Node9&#45;&gt;Node13</title>
<g id="a_edge13_Node000009_Node000013"><a xlink:title=" ">
<path fill="none" stroke="#63b8ff" d="M1257.43,-69.22C1262.34,-68.12 1267.27,-67.03 1272,-66 1350.03,-49.07 1369.94,-46.79 1448,-30 1455.98,-28.28 1464.53,-26.39 1472.65,-24.56"/>
<polygon fill="#63b8ff" stroke="#63b8ff" points="1256.4,-65.87 1247.42,-71.49 1257.94,-72.7 1256.4,-65.87"/>
</a>
</g>
</g>
<!-- Node14 -->
<g id="Node000014" class="node">
<title>Node14</title>
<g id="a_Node000014"><a xlink:href="_gamma_equation_system_8_c.html" target="_top" xlink:title=" ">
<polygon fill="white" stroke="#666666" points="1726.5,-24.5 1581.5,-24.5 1581.5,-5.5 1726.5,-5.5 1726.5,-24.5"/>
<text text-anchor="middle" x="1654" y="-12.5" font-family="Helvetica,sans-Serif" font-size="10.00">GammaEquationSystem.C</text>
</a>
</g>
</g>
<!-- Node9&#45;&gt;Node14 -->
<g id="edge14_Node000009_Node000014" class="edge">
<title>Node9&#45;&gt;Node14</title>
<g id="a_edge14_Node000009_Node000014"><a xlink:title=" ">
<path fill="none" stroke="#63b8ff" d="M1255.32,-69.25C1260.92,-68.06 1266.58,-66.94 1272,-66 1404.3,-42.95 1439.11,-49.31 1572,-30 1583.15,-28.38 1595.11,-26.45 1606.37,-24.54"/>
<polygon fill="#63b8ff" stroke="#63b8ff" points="1254.4,-65.87 1245.39,-71.44 1255.91,-72.7 1254.4,-65.87"/>
</a>
</g>
</g>
<!-- Node9&#45;&gt;Node15 -->
<g id="edge17_Node000009_Node000015" class="edge">
<title>Node9&#45;&gt;Node15</title>
<g id="a_edge17_Node000009_Node000015"><a xlink:title=" ">
<path fill="none" stroke="#63b8ff" d="M1254.02,-69.29C1260.03,-68.04 1266.15,-66.89 1272,-66 1476.47,-34.78 1533.93,-74.17 1736,-30 1741.91,-28.71 1748.13,-26.71 1753.8,-24.61"/>
<polygon fill="#63b8ff" stroke="#63b8ff" points="1253.09,-65.91 1244.07,-71.47 1254.59,-72.75 1253.09,-65.91"/>
</a>
</g>
</g>
<!-- Node9&#45;&gt;Node16 -->
<g id="edge18_Node000009_Node000016" class="edge">
<title>Node9&#45;&gt;Node16</title>
<g id="a_edge18_Node000009_Node000016"><a xlink:title=" ">
<path fill="none" stroke="#63b8ff" d="M1268.24,-71.22C1281.9,-69.32 1296.45,-67.44 1310,-66 1532.43,-42.33 1589.74,-55.21 1812,-30 1814.83,-29.68 1817.7,-29.33 1820.61,-28.97"/>
<polygon fill="#63b8ff" stroke="#63b8ff" points="1267.41,-67.8 1258,-72.68 1268.4,-74.73 1267.41,-67.8"/>
</a>
</g>
</g>
<!-- Node17 -->
<g id="Node000017" class="node">
<title>Node17</title>
<g id="a_Node000017"><a xlink:href="_specific_dissipation_rate_equation_system_8_c.html" target="_top" xlink:title=" ">
<polygon fill="white" stroke="#666666" points="676,-30 502,-30 502,0 676,0 676,-30"/>
<text text-anchor="start" x="510" y="-18" font-family="Helvetica,sans-Serif" font-size="10.00">SpecificDissipationRateEquation</text>
<text text-anchor="middle" x="589" y="-7" font-family="Helvetica,sans-Serif" font-size="10.00">System.C</text>
</a>
</g>
</g>
<!-- Node9&#45;&gt;Node17 -->
<g id="edge19_Node000009_Node000017" class="edge">
<title>Node9&#45;&gt;Node17</title>
<g id="a_edge19_Node000009_Node000017"><a xlink:title=" ">
<path fill="none" stroke="#63b8ff" d="M1167.98,-69.29C1161.97,-68.04 1155.85,-66.89 1150,-66 945.09,-34.73 891.01,-52.97 685,-30 682.07,-29.67 679.09,-29.33 676.09,-28.96"/>
<polygon fill="#63b8ff" stroke="#63b8ff" points="1167.41,-72.75 1177.93,-71.47 1168.91,-65.91 1167.41,-72.75"/>
</a>
</g>
</g>
<!-- Node18 -->
<g id="Node000018" class="node">
<title>Node18</title>
<g id="a_Node000018"><a xlink:href="_total_dissipation_rate_equation_system_8_c.html" target="_top" xlink:title=" ">
<polygon fill="white" stroke="#666666" points="854,-30 694,-30 694,0 854,0 854,-30"/>
<text text-anchor="start" x="702" y="-18" font-family="Helvetica,sans-Serif" font-size="10.00">TotalDissipationRateEquation</text>
<text text-anchor="middle" x="774" y="-7" font-family="Helvetica,sans-Serif" font-size="10.00">System.C</text>
</a>
</g>
</g>
<!-- Node9&#45;&gt;Node18 -->
<g id="edge20_Node000009_Node000018" class="edge">
<title>Node9&#45;&gt;Node18</title>
<g id="a_edge20_Node000009_Node000018"><a xlink:title=" ">
<path fill="none" stroke="#63b8ff" d="M1166.67,-69.28C1161.08,-68.09 1155.42,-66.96 1150,-66 1023.41,-43.59 990.29,-47.99 863,-30 860.06,-29.58 857.06,-29.15 854.04,-28.71"/>
<polygon fill="#63b8ff" stroke="#63b8ff" points="1166.09,-72.73 1176.61,-71.47 1167.59,-65.9 1166.09,-72.73"/>
</a>
</g>
</g>
<!-- Node19 -->
<g id="Node000019" class="node">
<title>Node19</title>
<g id="a_Node000019"><a xlink:href="_turb_kinetic_energy_equation_system_8_c.html" target="_top" xlink:title=" ">
<polygon fill="white" stroke="#666666" points="1019.5,-30 872.5,-30 872.5,0 1019.5,0 1019.5,-30"/>
<text text-anchor="start" x="880.5" y="-18" font-family="Helvetica,sans-Serif" font-size="10.00">TurbKineticEnergyEquation</text>
<text text-anchor="middle" x="946" y="-7" font-family="Helvetica,sans-Serif" font-size="10.00">System.C</text>
</a>
</g>
</g>
<!-- Node9&#45;&gt;Node19 -->
<g id="edge21_Node000009_Node000019" class="edge">
<title>Node9&#45;&gt;Node19</title>
<g id="a_edge21_Node000009_Node000019"><a xlink:title=" ">
<path fill="none" stroke="#63b8ff" d="M1165.56,-69.02C1120.92,-58.24 1052.63,-41.75 1004.07,-30.02"/>
<polygon fill="#63b8ff" stroke="#63b8ff" points="1164.99,-72.49 1175.54,-71.44 1166.64,-65.69 1164.99,-72.49"/>
</a>
</g>
</g>
<!-- Node9&#45;&gt;Node20 -->
<g id="edge22_Node000009_Node000020" class="edge">
<title>Node9&#45;&gt;Node20</title>
<g id="a_edge22_Node000009_Node000020"><a xlink:title=" ">
<path fill="none" stroke="#63b8ff" d="M1268.4,-73.54C1292.9,-70.94 1321.83,-68.07 1348,-66 1633.78,-43.42 1706.73,-58.3 1992,-30 2006.45,-28.57 2022.04,-26.55 2036.44,-24.5"/>
<polygon fill="#63b8ff" stroke="#63b8ff" points="1267.76,-70.09 1258.19,-74.64 1268.5,-77.05 1267.76,-70.09"/>
</a>
</g>
</g>
<!-- Node9&#45;&gt;Node21 -->
<g id="edge23_Node000009_Node000021" class="edge">
<title>Node9&#45;&gt;Node21</title>
<g id="a_edge23_Node000009_Node000021"><a xlink:title=" ">
<path fill="none" stroke="#63b8ff" d="M1268.39,-74.9C1302.53,-71.99 1346.72,-68.45 1386,-66 1742.11,-43.77 1832.73,-63.02 2188,-30 2202.78,-28.63 2218.73,-26.61 2233.42,-24.53"/>
<polygon fill="#63b8ff" stroke="#63b8ff" points="1267.8,-71.44 1258.13,-75.78 1268.4,-78.41 1267.8,-71.44"/>
</a>
</g>
</g>
<!-- Node23&#45;&gt;Node6 -->
<g id="edge26_Node000023_Node000006" class="edge">
<title>Node23&#45;&gt;Node6</title>
<g id="a_edge26_Node000023_Node000006"><a xlink:title=" ">
<path fill="none" stroke="#63b8ff" d="M979.29,-69.82C970.18,-68.41 960.85,-67.07 952,-66 748.86,-41.35 696.14,-54.65 493,-30 480.83,-28.52 467.73,-26.56 455.55,-24.56"/>
<polygon fill="#63b8ff" stroke="#63b8ff" points="979.02,-73.32 989.45,-71.44 980.12,-66.41 979.02,-73.32"/>
</a>
</g>
</g>
</g>
</svg>

<g id="navigator" transform="translate(0 0)" fill="#404254">
  <rect fill="#f2f5e9" fill-opacity="0.5" stroke="#606060" stroke-width=".5" x="0" y="0" width="60" height="60"/>
  <use id="zoomplus" xlink:href="#zoomPlus" x="17" y="9" onmousedown="handleZoom(evt,'in')"/>
  <use id="zoomminus" xlink:href="#zoomMin" x="42" y="9" onmousedown="handleZoom(evt,'out')"/>
  <use id="reset" xlink:href="#resetDef" x="30" y="36" onmousedown="handleReset()"/>
   <use id="arrowup" xlink:href="#arrowUp" x="0" y="0" onmousedown="handlePan(0,-1)"/>
  <use id="arrowright" xlink:href="#arrowRight" x="0" y="0" onmousedown="handlePan(1,0)"/>
  <use id="arrowdown" xlink:href="#arrowDown" x="0" y="0" onmousedown="handlePan(0,1)"/>
  <use id="arrowleft" xlink:href="#arrowLeft" x="0" y="0" onmousedown="handlePan(-1,0)"/>
</g>
<svg viewBox="0 0 15 15" width="100%" height="30px" preserveAspectRatio="xMaxYMin meet">
 <g id="arrow_out" transform="scale(0.3 0.3)">
  <a xlink:href="_ngp_field_utils_8h__dep__incl_org.svg" target="_base">
   <rect id="button" ry="5" rx="5" y="6" x="6" height="38" width="38"
        fill="#f2f5e9" fill-opacity="0.5" stroke="#606060" stroke-width="1.0"/>
   <path id="arrow"
     d="M 11.500037,31.436501 C 11.940474,20.09759 22.043105,11.32322 32.158766,21.979434 L 37.068811,17.246167 C 37.068811,17.246167 37.088388,32 37.088388,32 L 22.160133,31.978069 C 22.160133,31.978069 26.997745,27.140456 26.997745,27.140456 C 18.528582,18.264221 13.291696,25.230495 11.500037,31.436501 z"
     style="fill:#404040;"/>
  </a>
 </g>
</svg>

<style type='text/css'>
<![CDATA[
[data-mouse-over-selected='false'] { opacity: 0.7; }
[data-mouse-over-selected='true']  { opacity: 1.0; }
]]>
</style>
<script type="application/ecmascript"><![CDATA[
document.addEventListener('DOMContentLoaded', (event) => {
  highlightEdges();
  highlightAdjacentNodes();
});
]]></script>
</svg>
