<?xml version="1.0" encoding="UTF-8" standalone="no"?>
<!DOCTYPE svg PUBLIC "-//W3C//DTD SVG 1.1//EN"
 "http://www.w3.org/Graphics/SVG/1.1/DTD/svg11.dtd">
<!-- Generated by graphviz version 2.43.0 (0)
 -->
<!-- Title: NgpMEUtils.h Pages: 1 -->
<svg width="827pt" height="192pt"
 viewBox="0.00 0.00 826.50 192.00" xmlns="http://www.w3.org/2000/svg" xmlns:xlink="http://www.w3.org/1999/xlink">
<g id="graph0" class="graph" transform="scale(1 1) rotate(0) translate(4 188)">
<title>NgpMEUtils.h</title>
<!-- Node1 -->
<g id="Node000001" class="node">
<title>Node1</title>
<g id="a_Node000001"><a xlink:title="Utility functions to extract ME info from device instances.">
<polygon fill="#999999" stroke="#666666" points="535,-184 452,-184 452,-165 535,-165 535,-184"/>
<text text-anchor="middle" x="493.5" y="-172" font-family="Helvetica,sans-Serif" font-size="10.00">NgpMEUtils.h</text>
</a>
</g>
</g>
<!-- Node2 -->
<g id="Node000002" class="node">
<title>Node2</title>
<g id="a_Node000002"><a xlink:href="_master_element_8h.html" target="_top" xlink:title=" ">
<polygon fill="white" stroke="#666666" points="585,-129 402,-129 402,-110 585,-110 585,-129"/>
<text text-anchor="middle" x="493.5" y="-117" font-family="Helvetica,sans-Serif" font-size="10.00">master_element/MasterElement.h</text>
</a>
</g>
</g>
<!-- Node1&#45;&gt;Node2 -->
<g id="edge1_Node000001_Node000002" class="edge">
<title>Node1&#45;&gt;Node2</title>
<g id="a_edge1_Node000001_Node000002"><a xlink:title=" ">
<path fill="none" stroke="#63b8ff" d="M493.5,-164.75C493.5,-157.8 493.5,-147.85 493.5,-139.13"/>
<polygon fill="#63b8ff" stroke="#63b8ff" points="497,-139.09 493.5,-129.09 490,-139.09 497,-139.09"/>
</a>
</g>
</g>
<!-- Node3 -->
<g id="Node000003" class="node">
<title>Node3</title>
<g id="a_Node000003"><a xlink:href="_alg_traits_8h.html" target="_top" xlink:title=" ">
<polygon fill="white" stroke="#666666" points="198.5,-74 130.5,-74 130.5,-55 198.5,-55 198.5,-74"/>
<text text-anchor="middle" x="164.5" y="-62" font-family="Helvetica,sans-Serif" font-size="10.00">AlgTraits.h</text>
</a>
</g>
</g>
<!-- Node2&#45;&gt;Node3 -->
<g id="edge2_Node000002_Node000003" class="edge">
<title>Node2&#45;&gt;Node3</title>
<g id="a_edge2_Node000002_Node000003"><a xlink:title=" ">
<path fill="none" stroke="#63b8ff" d="M440.64,-109.98C376.25,-99.61 268.65,-82.28 208.54,-72.59"/>
<polygon fill="#63b8ff" stroke="#63b8ff" points="209.03,-69.13 198.6,-70.99 207.92,-76.04 209.03,-69.13"/>
</a>
</g>
</g>
<!-- Node5 -->
<g id="Node000005" class="node">
<title>Node5</title>
<g id="a_Node000005"><a xlink:href="_simd_interface_8h.html" target="_top" xlink:title="STK SIMD Interface.">
<polygon fill="white" stroke="#666666" points="382.5,-74 288.5,-74 288.5,-55 382.5,-55 382.5,-74"/>
<text text-anchor="middle" x="335.5" y="-62" font-family="Helvetica,sans-Serif" font-size="10.00">SimdInterface.h</text>
</a>
</g>
</g>
<!-- Node2&#45;&gt;Node5 -->
<g id="edge4_Node000002_Node000005" class="edge">
<title>Node2&#45;&gt;Node5</title>
<g id="a_edge4_Node000002_Node000005"><a xlink:title=" ">
<path fill="none" stroke="#63b8ff" d="M468.11,-109.98C441.7,-101.13 400.15,-87.19 370.61,-77.28"/>
<polygon fill="#63b8ff" stroke="#63b8ff" points="371.68,-73.94 361.08,-74.08 369.45,-80.58 371.68,-73.94"/>
</a>
</g>
</g>
<!-- Node9 -->
<g id="Node000009" class="node">
<title>Node9</title>
<g id="a_Node000009"><a xlink:href="_kokkos_interface_8h.html" target="_top" xlink:title=" ">
<polygon fill="white" stroke="#666666" points="545.5,-74 441.5,-74 441.5,-55 545.5,-55 545.5,-74"/>
<text text-anchor="middle" x="493.5" y="-62" font-family="Helvetica,sans-Serif" font-size="10.00">KokkosInterface.h</text>
</a>
</g>
</g>
<!-- Node2&#45;&gt;Node9 -->
<g id="edge8_Node000002_Node000009" class="edge">
<title>Node2&#45;&gt;Node9</title>
<g id="a_edge8_Node000002_Node000009"><a xlink:title=" ">
<path fill="none" stroke="#63b8ff" d="M493.5,-109.75C493.5,-102.8 493.5,-92.85 493.5,-84.13"/>
<polygon fill="#63b8ff" stroke="#63b8ff" points="497,-84.09 493.5,-74.09 490,-84.09 497,-84.09"/>
</a>
</g>
</g>
<!-- Node13 -->
<g id="Node000013" class="node">
<title>Node13</title>
<g id="a_Node000013"><a xlink:title=" ">
<polygon fill="#e0e0e0" stroke="#999999" points="729,-74 564,-74 564,-55 729,-55 729,-74"/>
<text text-anchor="middle" x="646.5" y="-62" font-family="Helvetica,sans-Serif" font-size="10.00">stk_util/util/ReportHandler.hpp</text>
</a>
</g>
</g>
<!-- Node2&#45;&gt;Node13 -->
<g id="edge13_Node000002_Node000013" class="edge">
<title>Node2&#45;&gt;Node13</title>
<g id="a_edge13_Node000002_Node000013"><a xlink:title=" ">
<path fill="none" stroke="#63b8ff" d="M518.08,-109.98C543.55,-101.16 583.54,-87.31 612.13,-77.41"/>
<polygon fill="#63b8ff" stroke="#63b8ff" points="613.42,-80.66 621.73,-74.08 611.13,-74.05 613.42,-80.66"/>
</a>
</g>
</g>
<!-- Node14 -->
<g id="Node000014" class="node">
<title>Node14</title>
<g id="a_Node000014"><a xlink:title=" ">
<polygon fill="#e0e0e0" stroke="#999999" points="812,-74 747,-74 747,-55 812,-55 812,-74"/>
<text text-anchor="middle" x="779.5" y="-62" font-family="Helvetica,sans-Serif" font-size="10.00">stdexcept</text>
</a>
</g>
</g>
<!-- Node2&#45;&gt;Node14 -->
<g id="edge14_Node000002_Node000014" class="edge">
<title>Node2&#45;&gt;Node14</title>
<g id="a_edge14_Node000002_Node000014"><a xlink:title=" ">
<path fill="none" stroke="#63b8ff" d="M542.38,-109.99C589.75,-101.66 663.89,-88.4 737,-74.26"/>
<polygon fill="#63b8ff" stroke="#63b8ff" points="737.69,-77.69 746.84,-72.35 736.36,-70.82 737.69,-77.69"/>
</a>
</g>
</g>
<!-- Node4 -->
<g id="Node000004" class="node">
<title>Node4</title>
<g id="a_Node000004"><a xlink:title=" ">
<polygon fill="#e0e0e0" stroke="#999999" points="145,-19 0,-19 0,0 145,0 145,-19"/>
<text text-anchor="middle" x="72.5" y="-7" font-family="Helvetica,sans-Serif" font-size="10.00">stk_topology/topology.hpp</text>
</a>
</g>
</g>
<!-- Node3&#45;&gt;Node4 -->
<g id="edge3_Node000003_Node000004" class="edge">
<title>Node3&#45;&gt;Node4</title>
<g id="a_edge3_Node000003_Node000004"><a xlink:title=" ">
<path fill="none" stroke="#63b8ff" d="M149.72,-54.98C135.32,-46.69 113.19,-33.94 96.31,-24.22"/>
<polygon fill="#63b8ff" stroke="#63b8ff" points="97.96,-21.13 87.55,-19.17 94.47,-27.19 97.96,-21.13"/>
</a>
</g>
</g>
<!-- Node6 -->
<g id="Node000006" class="node">
<title>Node6</title>
<g id="a_Node000006"><a xlink:title=" ">
<polygon fill="#e0e0e0" stroke="#999999" points="273.5,-19 163.5,-19 163.5,0 273.5,0 273.5,-19"/>
<text text-anchor="middle" x="218.5" y="-7" font-family="Helvetica,sans-Serif" font-size="10.00">stk_simd/Simd.hpp</text>
</a>
</g>
</g>
<!-- Node5&#45;&gt;Node6 -->
<g id="edge5_Node000005_Node000006" class="edge">
<title>Node5&#45;&gt;Node6</title>
<g id="a_edge5_Node000005_Node000006"><a xlink:title=" ">
<path fill="none" stroke="#63b8ff" d="M316.7,-54.98C297.88,-46.46 268.68,-33.23 247,-23.41"/>
<polygon fill="#63b8ff" stroke="#63b8ff" points="248.19,-20.11 237.64,-19.17 245.3,-26.48 248.19,-20.11"/>
</a>
</g>
</g>
<!-- Node7 -->
<g id="Node000007" class="node">
<title>Node7</title>
<g id="a_Node000007"><a xlink:title=" ">
<polygon fill="#e0e0e0" stroke="#999999" points="470,-19 357,-19 357,0 470,0 470,-19"/>
<text text-anchor="middle" x="413.5" y="-7" font-family="Helvetica,sans-Serif" font-size="10.00">Kokkos_Macros.hpp</text>
</a>
</g>
</g>
<!-- Node5&#45;&gt;Node7 -->
<g id="edge6_Node000005_Node000007" class="edge">
<title>Node5&#45;&gt;Node7</title>
<g id="a_edge6_Node000005_Node000007"><a xlink:title=" ">
<path fill="none" stroke="#63b8ff" d="M348.03,-54.98C359.9,-46.92 377.96,-34.65 392.11,-25.03"/>
<polygon fill="#63b8ff" stroke="#63b8ff" points="394.44,-27.69 400.74,-19.17 390.5,-21.9 394.44,-27.69"/>
</a>
</g>
</g>
<!-- Node8 -->
<g id="Node000008" class="node">
<title>Node8</title>
<g id="a_Node000008"><a xlink:title=" ">
<polygon fill="#e0e0e0" stroke="#999999" points="339,-19 292,-19 292,0 339,0 339,-19"/>
<text text-anchor="middle" x="315.5" y="-7" font-family="Helvetica,sans-Serif" font-size="10.00">vector</text>
</a>
</g>
</g>
<!-- Node5&#45;&gt;Node8 -->
<g id="edge7_Node000005_Node000008" class="edge">
<title>Node5&#45;&gt;Node8</title>
<g id="a_edge7_Node000005_Node000008"><a xlink:title=" ">
<path fill="none" stroke="#63b8ff" d="M332.2,-54.75C329.52,-47.65 325.65,-37.4 322.31,-28.56"/>
<polygon fill="#63b8ff" stroke="#63b8ff" points="325.55,-27.21 318.74,-19.09 319,-29.68 325.55,-27.21"/>
</a>
</g>
</g>
<!-- Node9&#45;&gt;Node7 -->
<g id="edge11_Node000009_Node000007" class="edge">
<title>Node9&#45;&gt;Node7</title>
<g id="a_edge11_Node000009_Node000007"><a xlink:title=" ">
<path fill="none" stroke="#63b8ff" d="M480.65,-54.98C468.36,-46.84 449.59,-34.41 435.02,-24.76"/>
<polygon fill="#63b8ff" stroke="#63b8ff" points="436.86,-21.78 426.59,-19.17 432.99,-27.61 436.86,-21.78"/>
</a>
</g>
</g>
<!-- Node10 -->
<g id="Node000010" class="node">
<title>Node10</title>
<g id="a_Node000010"><a xlink:title=" ">
<polygon fill="#e0e0e0" stroke="#999999" points="541,-19 488,-19 488,0 541,0 541,-19"/>
<text text-anchor="middle" x="514.5" y="-7" font-family="Helvetica,sans-Serif" font-size="10.00">cstddef</text>
</a>
</g>
</g>
<!-- Node9&#45;&gt;Node10 -->
<g id="edge9_Node000009_Node000010" class="edge">
<title>Node9&#45;&gt;Node10</title>
<g id="a_edge9_Node000009_Node000010"><a xlink:title=" ">
<path fill="none" stroke="#63b8ff" d="M496.97,-54.75C499.78,-47.65 503.84,-37.4 507.35,-28.56"/>
<polygon fill="#63b8ff" stroke="#63b8ff" points="510.67,-29.68 511.1,-19.09 504.16,-27.1 510.67,-29.68"/>
</a>
</g>
</g>
<!-- Node11 -->
<g id="Node000011" class="node">
<title>Node11</title>
<g id="a_Node000011"><a xlink:title=" ">
<polygon fill="#e0e0e0" stroke="#999999" points="700,-19 559,-19 559,0 700,0 700,-19"/>
<text text-anchor="middle" x="629.5" y="-7" font-family="Helvetica,sans-Serif" font-size="10.00">stk_mesh/base/Entity.hpp</text>
</a>
</g>
</g>
<!-- Node9&#45;&gt;Node11 -->
<g id="edge10_Node000009_Node000011" class="edge">
<title>Node9&#45;&gt;Node11</title>
<g id="a_edge10_Node000009_Node000011"><a xlink:title=" ">
<path fill="none" stroke="#63b8ff" d="M515.35,-54.98C537.62,-46.3 572.4,-32.75 597.72,-22.88"/>
<polygon fill="#63b8ff" stroke="#63b8ff" points="599.21,-26.06 607.25,-19.17 596.66,-19.54 599.21,-26.06"/>
</a>
</g>
</g>
<!-- Node12 -->
<g id="Node000012" class="node">
<title>Node12</title>
<g id="a_Node000012"><a xlink:title=" ">
<polygon fill="#e0e0e0" stroke="#999999" points="818.5,-19 718.5,-19 718.5,0 818.5,0 818.5,-19"/>
<text text-anchor="middle" x="768.5" y="-7" font-family="Helvetica,sans-Serif" font-size="10.00">Kokkos_Core.hpp</text>
</a>
</g>
</g>
<!-- Node9&#45;&gt;Node12 -->
<g id="edge12_Node000009_Node000012" class="edge">
<title>Node9&#45;&gt;Node12</title>
<g id="a_edge12_Node000009_Node000012"><a xlink:title=" ">
<path fill="none" stroke="#63b8ff" d="M537.68,-54.98C585.65,-45.74 662.31,-30.97 713.98,-21.01"/>
<polygon fill="#63b8ff" stroke="#63b8ff" points="714.81,-24.41 723.97,-19.08 713.49,-17.54 714.81,-24.41"/>
</a>
</g>
</g>
</g>
</svg>
