<?xml version="1.0" encoding="UTF-8" standalone="no"?>
<!DOCTYPE svg PUBLIC "-//W3C//DTD SVG 1.1//EN"
 "http://www.w3.org/Graphics/SVG/1.1/DTD/svg11.dtd">
<!-- Generated by graphviz version 2.43.0 (0)
 -->
<!-- Title: NodalGradElemAlg.h Pages: 1 -->
<svg width="1329pt" height="95pt"
 viewBox="0.00 0.00 1328.50 95.00" xmlns="http://www.w3.org/2000/svg" xmlns:xlink="http://www.w3.org/1999/xlink">
<g id="graph0" class="graph" transform="scale(1 1) rotate(0) translate(4 91)">
<title>NodalGradElemAlg.h</title>
<polygon fill="white" stroke="transparent" points="-4,4 -4,-91 1324.5,-91 1324.5,4 -4,4"/>
<!-- Node1 -->
<g id="node1" class="node">
<title>Node1</title>
<g id="a_node1"><a xlink:title=" ">
<polygon fill="#bfbfbf" stroke="black" points="583.5,-67.5 583.5,-86.5 701.5,-86.5 701.5,-67.5 583.5,-67.5"/>
<text text-anchor="middle" x="642.5" y="-74.5" font-family="Helvetica,sans-Serif" font-size="10.00">NodalGradElemAlg.h</text>
</a>
</g>
</g>
<!-- Node2 -->
<g id="node2" class="node">
<title>Node2</title>
<g id="a_node2"><a xlink:href="_enthalpy_equation_system_8_c.html" target="_top" xlink:title=" ">
<polygon fill="white" stroke="black" points="0,-6 0,-25 149,-25 149,-6 0,-6"/>
<text text-anchor="middle" x="74.5" y="-13" font-family="Helvetica,sans-Serif" font-size="10.00">EnthalpyEquationSystem.C</text>
</a>
</g>
</g>
<!-- Node1&#45;&gt;Node2 -->
<g id="edge1" class="edge">
<title>Node1&#45;&gt;Node2</title>
<path fill="none" stroke="midnightblue" d="M573.37,-71.34C479.11,-64.59 305.09,-50.71 157.5,-31 145.18,-29.35 131.89,-27.2 119.63,-25.06"/>
<polygon fill="midnightblue" stroke="midnightblue" points="573.12,-74.83 583.35,-72.05 573.62,-67.85 573.12,-74.83"/>
</g>
<!-- Node3 -->
<g id="node3" class="node">
<title>Node3</title>
<g id="a_node3"><a xlink:href="_gamma_equation_system_8_c.html" target="_top" xlink:title=" ">
<polygon fill="white" stroke="black" points="167,-6 167,-25 312,-25 312,-6 167,-6"/>
<text text-anchor="middle" x="239.5" y="-13" font-family="Helvetica,sans-Serif" font-size="10.00">GammaEquationSystem.C</text>
</a>
</g>
</g>
<!-- Node1&#45;&gt;Node3 -->
<g id="edge2" class="edge">
<title>Node1&#45;&gt;Node3</title>
<path fill="none" stroke="midnightblue" d="M573.1,-67C508.02,-58.39 408.02,-44.71 321.5,-31 310.08,-29.19 297.79,-27.1 286.28,-25.07"/>
<polygon fill="midnightblue" stroke="midnightblue" points="572.87,-70.5 583.24,-68.34 573.79,-63.56 572.87,-70.5"/>
</g>
<!-- Node4 -->
<g id="node4" class="node">
<title>Node4</title>
<g id="a_node4"><a xlink:href="_low_mach_equation_system_8_c.html" target="_top" xlink:title=" ">
<polygon fill="white" stroke="black" points="330.5,-6 330.5,-25 482.5,-25 482.5,-6 330.5,-6"/>
<text text-anchor="middle" x="406.5" y="-13" font-family="Helvetica,sans-Serif" font-size="10.00">LowMachEquationSystem.C</text>
</a>
</g>
</g>
<!-- Node1&#45;&gt;Node4 -->
<g id="edge3" class="edge">
<title>Node1&#45;&gt;Node4</title>
<path fill="none" stroke="midnightblue" d="M598.74,-64.97C552.92,-53.41 481.93,-35.52 440.25,-25.01"/>
<polygon fill="midnightblue" stroke="midnightblue" points="598.13,-68.42 608.69,-67.48 599.85,-61.64 598.13,-68.42"/>
</g>
<!-- Node5 -->
<g id="node5" class="node">
<title>Node5</title>
<g id="a_node5"><a xlink:href="_nodal_grad_elem_alg_8_c.html" target="_top" xlink:title=" ">
<polygon fill="white" stroke="black" points="501,-6 501,-25 620,-25 620,-6 501,-6"/>
<text text-anchor="middle" x="560.5" y="-13" font-family="Helvetica,sans-Serif" font-size="10.00">NodalGradElemAlg.C</text>
</a>
</g>
</g>
<!-- Node1&#45;&gt;Node5 -->
<g id="edge4" class="edge">
<title>Node1&#45;&gt;Node5</title>
<path fill="none" stroke="midnightblue" d="M622.23,-61.29C606.5,-49.88 585.25,-34.46 572.23,-25.01"/>
<polygon fill="midnightblue" stroke="midnightblue" points="620.6,-64.43 630.75,-67.48 624.71,-58.77 620.6,-64.43"/>
</g>
<!-- Node6 -->
<g id="node6" class="node">
<title>Node6</title>
<g id="a_node6"><a xlink:href="_specific_dissipation_rate_equation_system_8_c.html" target="_top" xlink:title=" ">
<polygon fill="white" stroke="black" points="638.5,-0.5 638.5,-30.5 812.5,-30.5 812.5,-0.5 638.5,-0.5"/>
<text text-anchor="start" x="646.5" y="-18.5" font-family="Helvetica,sans-Serif" font-size="10.00">SpecificDissipationRateEquation</text>
<text text-anchor="middle" x="725.5" y="-7.5" font-family="Helvetica,sans-Serif" font-size="10.00">System.C</text>
</a>
</g>
</g>
<!-- Node1&#45;&gt;Node6 -->
<g id="edge5" class="edge">
<title>Node1&#45;&gt;Node6</title>
<path fill="none" stroke="midnightblue" d="M662.77,-61.47C675.91,-52.05 692.94,-39.84 705.94,-30.52"/>
<polygon fill="midnightblue" stroke="midnightblue" points="660.48,-58.8 654.39,-67.48 664.56,-64.49 660.48,-58.8"/>
</g>
<!-- Node7 -->
<g id="node7" class="node">
<title>Node7</title>
<g id="a_node7"><a xlink:href="_total_dissipation_rate_equation_system_8_c.html" target="_top" xlink:title=" ">
<polygon fill="white" stroke="black" points="830.5,-0.5 830.5,-30.5 990.5,-30.5 990.5,-0.5 830.5,-0.5"/>
<text text-anchor="start" x="838.5" y="-18.5" font-family="Helvetica,sans-Serif" font-size="10.00">TotalDissipationRateEquation</text>
<text text-anchor="middle" x="910.5" y="-7.5" font-family="Helvetica,sans-Serif" font-size="10.00">System.C</text>
</a>
</g>
</g>
<!-- Node1&#45;&gt;Node7 -->
<g id="edge6" class="edge">
<title>Node1&#45;&gt;Node7</title>
<path fill="none" stroke="midnightblue" d="M690.73,-65.29C734.53,-55.57 799.42,-41.16 847.34,-30.52"/>
<polygon fill="midnightblue" stroke="midnightblue" points="689.9,-61.89 680.9,-67.48 691.42,-68.72 689.9,-61.89"/>
</g>
<!-- Node8 -->
<g id="node8" class="node">
<title>Node8</title>
<g id="a_node8"><a xlink:href="_turb_kinetic_energy_equation_system_8_c.html" target="_top" xlink:title=" ">
<polygon fill="white" stroke="black" points="1009,-0.5 1009,-30.5 1156,-30.5 1156,-0.5 1009,-0.5"/>
<text text-anchor="start" x="1017" y="-18.5" font-family="Helvetica,sans-Serif" font-size="10.00">TurbKineticEnergyEquation</text>
<text text-anchor="middle" x="1082.5" y="-7.5" font-family="Helvetica,sans-Serif" font-size="10.00">System.C</text>
</a>
</g>
</g>
<!-- Node1&#45;&gt;Node8 -->
<g id="edge7" class="edge">
<title>Node1&#45;&gt;Node8</title>
<path fill="none" stroke="midnightblue" d="M711.99,-68.23C784.03,-59.95 899.85,-45.98 999.5,-31 1002.54,-30.54 1005.64,-30.06 1008.76,-29.57"/>
<polygon fill="midnightblue" stroke="midnightblue" points="711.22,-64.8 701.68,-69.41 712.02,-71.75 711.22,-64.8"/>
</g>
<!-- Node9 -->
<g id="node9" class="node">
<title>Node9</title>
<g id="a_node9"><a xlink:href="_wall_dist_equation_system_8_c.html" target="_top" xlink:title=" ">
<polygon fill="white" stroke="black" points="1174.5,-6 1174.5,-25 1320.5,-25 1320.5,-6 1174.5,-6"/>
<text text-anchor="middle" x="1247.5" y="-13" font-family="Helvetica,sans-Serif" font-size="10.00">WallDistEquationSystem.C</text>
</a>
</g>
</g>
<!-- Node1&#45;&gt;Node9 -->
<g id="edge8" class="edge">
<title>Node1&#45;&gt;Node9</title>
<path fill="none" stroke="midnightblue" d="M711.51,-72.03C811.77,-65.82 1003.45,-52.26 1165.5,-31 1177.83,-29.38 1191.13,-27.22 1203.35,-25.05"/>
<polygon fill="midnightblue" stroke="midnightblue" points="711.28,-68.54 701.51,-72.64 711.71,-75.52 711.28,-68.54"/>
</g>
</g>
</svg>
