<?xml version="1.0" encoding="UTF-8" standalone="no"?>
<!DOCTYPE svg PUBLIC "-//W3C//DTD SVG 1.1//EN"
 "http://www.w3.org/Graphics/SVG/1.1/DTD/svg11.dtd">
<!-- Generated by graphviz version 2.43.0 (0)
 -->
<!-- Title: NodeKernel.h Pages: 1 -->
<svg width="584pt" height="196pt"
 viewBox="0.00 0.00 583.50 196.00" xmlns="http://www.w3.org/2000/svg" xmlns:xlink="http://www.w3.org/1999/xlink">
<g id="graph0" class="graph" transform="scale(1 1) rotate(0) translate(4 192)">
<title>NodeKernel.h</title>
<polygon fill="white" stroke="transparent" points="-4,4 -4,-192 579.5,-192 579.5,4 -4,4"/>
<!-- Node1 -->
<g id="node1" class="node">
<title>Node1</title>
<g id="a_node1"><a xlink:title=" ">
<polygon fill="#bfbfbf" stroke="black" points="178.5,-168.5 178.5,-187.5 260.5,-187.5 260.5,-168.5 178.5,-168.5"/>
<text text-anchor="middle" x="219.5" y="-175.5" font-family="Helvetica,sans-Serif" font-size="10.00">NodeKernel.h</text>
</a>
</g>
</g>
<!-- Node2 -->
<g id="node2" class="node">
<title>Node2</title>
<g id="a_node2"><a xlink:href="_kokkos_interface_8h.html" target="_top" xlink:title=" ">
<polygon fill="white" stroke="black" points="133.5,-56.5 133.5,-75.5 237.5,-75.5 237.5,-56.5 133.5,-56.5"/>
<text text-anchor="middle" x="185.5" y="-63.5" font-family="Helvetica,sans-Serif" font-size="10.00">KokkosInterface.h</text>
</a>
</g>
</g>
<!-- Node1&#45;&gt;Node2 -->
<g id="edge1" class="edge">
<title>Node1&#45;&gt;Node2</title>
<path fill="none" stroke="midnightblue" d="M203.17,-168.39C190.54,-160.72 174,-148.21 166.5,-132 159.35,-116.55 166.37,-97.77 173.82,-84.38"/>
<polygon fill="midnightblue" stroke="midnightblue" points="176.89,-86.06 179.12,-75.71 170.92,-82.41 176.89,-86.06"/>
</g>
<!-- Node4 -->
<g id="node4" class="node">
<title>Node4</title>
<g id="a_node4"><a xlink:title=" ">
<polygon fill="white" stroke="#bfbfbf" points="0,-0.5 0,-19.5 141,-19.5 141,-0.5 0,-0.5"/>
<text text-anchor="middle" x="70.5" y="-7.5" font-family="Helvetica,sans-Serif" font-size="10.00">stk_mesh/base/Entity.hpp</text>
</a>
</g>
</g>
<!-- Node1&#45;&gt;Node4 -->
<g id="edge10" class="edge">
<title>Node1&#45;&gt;Node4</title>
<path fill="none" stroke="midnightblue" d="M205.99,-168.31C193.44,-159.88 174.62,-146.3 160.5,-132 127.52,-98.62 96.61,-52.68 81.03,-28.12"/>
<polygon fill="midnightblue" stroke="midnightblue" points="83.94,-26.17 75.67,-19.55 78.01,-29.88 83.94,-26.17"/>
</g>
<!-- Node7 -->
<g id="node7" class="node">
<title>Node7</title>
<g id="a_node7"><a xlink:href="_n_g_p_instance_8h.html" target="_top" xlink:title=" ">
<polygon fill="white" stroke="black" points="175.5,-112.5 175.5,-131.5 263.5,-131.5 263.5,-112.5 175.5,-112.5"/>
<text text-anchor="middle" x="219.5" y="-119.5" font-family="Helvetica,sans-Serif" font-size="10.00">NGPInstance.h</text>
</a>
</g>
</g>
<!-- Node1&#45;&gt;Node7 -->
<g id="edge6" class="edge">
<title>Node1&#45;&gt;Node7</title>
<path fill="none" stroke="midnightblue" d="M219.5,-168.08C219.5,-161.01 219.5,-150.86 219.5,-141.99"/>
<polygon fill="midnightblue" stroke="midnightblue" points="223,-141.75 219.5,-131.75 216,-141.75 223,-141.75"/>
</g>
<!-- Node9 -->
<g id="node9" class="node">
<title>Node9</title>
<g id="a_node9"><a xlink:title=" ">
<polygon fill="white" stroke="#bfbfbf" points="281.5,-112.5 281.5,-131.5 415.5,-131.5 415.5,-112.5 281.5,-112.5"/>
<text text-anchor="middle" x="348.5" y="-119.5" font-family="Helvetica,sans-Serif" font-size="10.00">stk_mesh/base/Ngp.hpp</text>
</a>
</g>
</g>
<!-- Node1&#45;&gt;Node9 -->
<g id="edge9" class="edge">
<title>Node1&#45;&gt;Node9</title>
<path fill="none" stroke="midnightblue" d="M239.94,-168.44C261.17,-159.56 294.6,-145.56 318.75,-135.45"/>
<polygon fill="midnightblue" stroke="midnightblue" points="320.28,-138.61 328.16,-131.52 317.58,-132.15 320.28,-138.61"/>
</g>
<!-- Node10 -->
<g id="node10" class="node">
<title>Node10</title>
<g id="a_node10"><a xlink:title=" ">
<polygon fill="white" stroke="#bfbfbf" points="433.5,-112.5 433.5,-131.5 575.5,-131.5 575.5,-112.5 433.5,-112.5"/>
<text text-anchor="middle" x="504.5" y="-119.5" font-family="Helvetica,sans-Serif" font-size="10.00">stk_mesh/base/Types.hpp</text>
</a>
</g>
</g>
<!-- Node1&#45;&gt;Node10 -->
<g id="edge11" class="edge">
<title>Node1&#45;&gt;Node10</title>
<path fill="none" stroke="midnightblue" d="M260.64,-169.21C310.41,-159.77 394.4,-143.86 449.65,-133.39"/>
<polygon fill="midnightblue" stroke="midnightblue" points="450.44,-136.81 459.61,-131.5 449.14,-129.93 450.44,-136.81"/>
</g>
<!-- Node3 -->
<g id="node3" class="node">
<title>Node3</title>
<g id="a_node3"><a xlink:title=" ">
<polygon fill="white" stroke="#bfbfbf" points="159,-0.5 159,-19.5 212,-19.5 212,-0.5 159,-0.5"/>
<text text-anchor="middle" x="185.5" y="-7.5" font-family="Helvetica,sans-Serif" font-size="10.00">cstddef</text>
</a>
</g>
</g>
<!-- Node2&#45;&gt;Node3 -->
<g id="edge2" class="edge">
<title>Node2&#45;&gt;Node3</title>
<path fill="none" stroke="midnightblue" d="M185.5,-56.08C185.5,-49.01 185.5,-38.86 185.5,-29.99"/>
<polygon fill="midnightblue" stroke="midnightblue" points="189,-29.75 185.5,-19.75 182,-29.75 189,-29.75"/>
</g>
<!-- Node2&#45;&gt;Node4 -->
<g id="edge3" class="edge">
<title>Node2&#45;&gt;Node4</title>
<path fill="none" stroke="midnightblue" d="M167.28,-56.44C148.6,-47.68 119.34,-33.94 97.88,-23.86"/>
<polygon fill="midnightblue" stroke="midnightblue" points="99.18,-20.6 88.64,-19.52 96.2,-26.93 99.18,-20.6"/>
</g>
<!-- Node5 -->
<g id="node5" class="node">
<title>Node5</title>
<g id="a_node5"><a xlink:title=" ">
<polygon fill="white" stroke="#bfbfbf" points="230,-0.5 230,-19.5 343,-19.5 343,-0.5 230,-0.5"/>
<text text-anchor="middle" x="286.5" y="-7.5" font-family="Helvetica,sans-Serif" font-size="10.00">Kokkos_Macros.hpp</text>
</a>
</g>
</g>
<!-- Node2&#45;&gt;Node5 -->
<g id="edge4" class="edge">
<title>Node2&#45;&gt;Node5</title>
<path fill="none" stroke="midnightblue" d="M201.73,-56.32C217.85,-47.7 242.8,-34.36 261.46,-24.39"/>
<polygon fill="midnightblue" stroke="midnightblue" points="263.14,-27.46 270.31,-19.65 259.84,-21.28 263.14,-27.46"/>
</g>
<!-- Node6 -->
<g id="node6" class="node">
<title>Node6</title>
<g id="a_node6"><a xlink:title=" ">
<polygon fill="white" stroke="#bfbfbf" points="361.5,-0.5 361.5,-19.5 461.5,-19.5 461.5,-0.5 361.5,-0.5"/>
<text text-anchor="middle" x="411.5" y="-7.5" font-family="Helvetica,sans-Serif" font-size="10.00">Kokkos_Core.hpp</text>
</a>
</g>
</g>
<!-- Node2&#45;&gt;Node6 -->
<g id="edge5" class="edge">
<title>Node2&#45;&gt;Node6</title>
<path fill="none" stroke="midnightblue" d="M221.31,-56.44C260.49,-47.08 323.38,-32.06 366.02,-21.87"/>
<polygon fill="midnightblue" stroke="midnightblue" points="366.94,-25.24 375.86,-19.52 365.32,-18.44 366.94,-25.24"/>
</g>
<!-- Node7&#45;&gt;Node2 -->
<g id="edge7" class="edge">
<title>Node7&#45;&gt;Node2</title>
<path fill="none" stroke="midnightblue" d="M213.89,-112.08C209.13,-104.53 202.18,-93.49 196.35,-84.23"/>
<polygon fill="midnightblue" stroke="midnightblue" points="199.3,-82.35 191.01,-75.75 193.38,-86.08 199.3,-82.35"/>
</g>
<!-- Node8 -->
<g id="node8" class="node">
<title>Node8</title>
<g id="a_node8"><a xlink:title=" ">
<polygon fill="white" stroke="#bfbfbf" points="256,-56.5 256,-75.5 325,-75.5 325,-56.5 256,-56.5"/>
<text text-anchor="middle" x="290.5" y="-63.5" font-family="Helvetica,sans-Serif" font-size="10.00">type_traits</text>
</a>
</g>
</g>
<!-- Node7&#45;&gt;Node8 -->
<g id="edge8" class="edge">
<title>Node7&#45;&gt;Node8</title>
<path fill="none" stroke="midnightblue" d="M230.91,-112.32C241.61,-104.18 257.84,-91.84 270.66,-82.09"/>
<polygon fill="midnightblue" stroke="midnightblue" points="273.04,-84.67 278.89,-75.83 268.81,-79.1 273.04,-84.67"/>
</g>
</g>
</svg>
