<?xml version="1.0" encoding="UTF-8" standalone="no"?>
<!DOCTYPE svg PUBLIC "-//W3C//DTD SVG 1.1//EN"
 "http://www.w3.org/Graphics/SVG/1.1/DTD/svg11.dtd">
<!-- Generated by graphviz version 2.43.0 (0)
 -->
<!-- Title: NodalGradEdgeAlg.h Pages: 1 -->
<svg width="1523pt" height="95pt"
 viewBox="0.00 0.00 1522.50 95.00" xmlns="http://www.w3.org/2000/svg" xmlns:xlink="http://www.w3.org/1999/xlink">
<g id="graph0" class="graph" transform="scale(1 1) rotate(0) translate(4 91)">
<title>NodalGradEdgeAlg.h</title>
<polygon fill="white" stroke="transparent" points="-4,4 -4,-91 1518.5,-91 1518.5,4 -4,4"/>
<!-- Node1 -->
<g id="node1" class="node">
<title>Node1</title>
<g id="a_node1"><a xlink:title=" ">
<polygon fill="#bfbfbf" stroke="black" points="665,-67.5 665,-86.5 782,-86.5 782,-67.5 665,-67.5"/>
<text text-anchor="middle" x="723.5" y="-74.5" font-family="Helvetica,sans-Serif" font-size="10.00">NodalGradEdgeAlg.h</text>
</a>
</g>
</g>
<!-- Node2 -->
<g id="node2" class="node">
<title>Node2</title>
<g id="a_node2"><a xlink:href="_enthalpy_equation_system_8_c.html" target="_top" xlink:title=" ">
<polygon fill="white" stroke="black" points="0,-6 0,-25 149,-25 149,-6 0,-6"/>
<text text-anchor="middle" x="74.5" y="-13" font-family="Helvetica,sans-Serif" font-size="10.00">EnthalpyEquationSystem.C</text>
</a>
</g>
</g>
<!-- Node1&#45;&gt;Node2 -->
<g id="edge1" class="edge">
<title>Node1&#45;&gt;Node2</title>
<path fill="none" stroke="midnightblue" d="M654.65,-72.61C547.88,-66.88 336.08,-53.65 157.5,-31 144.87,-29.4 131.24,-27.21 118.75,-25.02"/>
<polygon fill="midnightblue" stroke="midnightblue" points="654.48,-76.1 664.65,-73.14 654.85,-69.11 654.48,-76.1"/>
</g>
<!-- Node3 -->
<g id="node3" class="node">
<title>Node3</title>
<g id="a_node3"><a xlink:href="_gamma_equation_system_8_c.html" target="_top" xlink:title=" ">
<polygon fill="white" stroke="black" points="167,-6 167,-25 312,-25 312,-6 167,-6"/>
<text text-anchor="middle" x="239.5" y="-13" font-family="Helvetica,sans-Serif" font-size="10.00">GammaEquationSystem.C</text>
</a>
</g>
</g>
<!-- Node1&#45;&gt;Node3 -->
<g id="edge2" class="edge">
<title>Node1&#45;&gt;Node3</title>
<path fill="none" stroke="midnightblue" d="M654.79,-69.65C574.62,-61.93 438.15,-47.83 321.5,-31 309.62,-29.29 296.83,-27.16 284.96,-25.07"/>
<polygon fill="midnightblue" stroke="midnightblue" points="654.48,-73.14 664.76,-70.61 655.14,-66.17 654.48,-73.14"/>
</g>
<!-- Node4 -->
<g id="node4" class="node">
<title>Node4</title>
<g id="a_node4"><a xlink:href="_low_mach_equation_system_8_c.html" target="_top" xlink:title=" ">
<polygon fill="white" stroke="black" points="330.5,-6 330.5,-25 482.5,-25 482.5,-6 330.5,-6"/>
<text text-anchor="middle" x="406.5" y="-13" font-family="Helvetica,sans-Serif" font-size="10.00">LowMachEquationSystem.C</text>
</a>
</g>
</g>
<!-- Node1&#45;&gt;Node4 -->
<g id="edge3" class="edge">
<title>Node1&#45;&gt;Node4</title>
<path fill="none" stroke="midnightblue" d="M668.18,-65.62C606.79,-54.09 508.88,-35.72 451.83,-25.01"/>
<polygon fill="midnightblue" stroke="midnightblue" points="667.61,-69.07 678.08,-67.48 668.9,-62.19 667.61,-69.07"/>
</g>
<!-- Node5 -->
<g id="node5" class="node">
<title>Node5</title>
<g id="a_node5"><a xlink:href="_nodal_grad_edge_alg_8_c.html" target="_top" xlink:title=" ">
<polygon fill="white" stroke="black" points="500.5,-6 500.5,-25 618.5,-25 618.5,-6 500.5,-6"/>
<text text-anchor="middle" x="559.5" y="-13" font-family="Helvetica,sans-Serif" font-size="10.00">NodalGradEdgeAlg.C</text>
</a>
</g>
</g>
<!-- Node1&#45;&gt;Node5 -->
<g id="edge4" class="edge">
<title>Node1&#45;&gt;Node5</title>
<path fill="none" stroke="midnightblue" d="M690.24,-63.93C658.36,-52.37 611.07,-35.21 582.95,-25.01"/>
<polygon fill="midnightblue" stroke="midnightblue" points="689.41,-67.35 700,-67.48 691.8,-60.77 689.41,-67.35"/>
</g>
<!-- Node6 -->
<g id="node6" class="node">
<title>Node6</title>
<g id="a_node6"><a xlink:href="_specific_dissipation_rate_equation_system_8_c.html" target="_top" xlink:title=" ">
<polygon fill="white" stroke="black" points="636.5,-0.5 636.5,-30.5 810.5,-30.5 810.5,-0.5 636.5,-0.5"/>
<text text-anchor="start" x="644.5" y="-18.5" font-family="Helvetica,sans-Serif" font-size="10.00">SpecificDissipationRateEquation</text>
<text text-anchor="middle" x="723.5" y="-7.5" font-family="Helvetica,sans-Serif" font-size="10.00">System.C</text>
</a>
</g>
</g>
<!-- Node1&#45;&gt;Node6 -->
<g id="edge5" class="edge">
<title>Node1&#45;&gt;Node6</title>
<path fill="none" stroke="midnightblue" d="M723.5,-57.23C723.5,-48.59 723.5,-38.5 723.5,-30.52"/>
<polygon fill="midnightblue" stroke="midnightblue" points="720,-57.48 723.5,-67.48 727,-57.48 720,-57.48"/>
</g>
<!-- Node7 -->
<g id="node7" class="node">
<title>Node7</title>
<g id="a_node7"><a xlink:href="_total_dissipation_rate_equation_system_8_c.html" target="_top" xlink:title=" ">
<polygon fill="white" stroke="black" points="828.5,-0.5 828.5,-30.5 988.5,-30.5 988.5,-0.5 828.5,-0.5"/>
<text text-anchor="start" x="836.5" y="-18.5" font-family="Helvetica,sans-Serif" font-size="10.00">TotalDissipationRateEquation</text>
<text text-anchor="middle" x="908.5" y="-7.5" font-family="Helvetica,sans-Serif" font-size="10.00">System.C</text>
</a>
</g>
</g>
<!-- Node1&#45;&gt;Node7 -->
<g id="edge6" class="edge">
<title>Node1&#45;&gt;Node7</title>
<path fill="none" stroke="midnightblue" d="M759.7,-64.36C789.85,-54.66 832.86,-40.83 864.9,-30.52"/>
<polygon fill="midnightblue" stroke="midnightblue" points="758.45,-61.08 750.01,-67.48 760.6,-67.75 758.45,-61.08"/>
</g>
<!-- Node8 -->
<g id="node8" class="node">
<title>Node8</title>
<g id="a_node8"><a xlink:href="_turb_kinetic_energy_equation_system_8_c.html" target="_top" xlink:title=" ">
<polygon fill="white" stroke="black" points="1007,-0.5 1007,-30.5 1154,-30.5 1154,-0.5 1007,-0.5"/>
<text text-anchor="start" x="1015" y="-18.5" font-family="Helvetica,sans-Serif" font-size="10.00">TurbKineticEnergyEquation</text>
<text text-anchor="middle" x="1080.5" y="-7.5" font-family="Helvetica,sans-Serif" font-size="10.00">System.C</text>
</a>
</g>
</g>
<!-- Node1&#45;&gt;Node8 -->
<g id="edge7" class="edge">
<title>Node1&#45;&gt;Node8</title>
<path fill="none" stroke="midnightblue" d="M786.35,-65.86C841.91,-56.86 925.13,-43.26 997.5,-31 1000.53,-30.49 1003.62,-29.96 1006.74,-29.43"/>
<polygon fill="midnightblue" stroke="midnightblue" points="785.62,-62.44 776.31,-67.49 786.74,-69.35 785.62,-62.44"/>
</g>
<!-- Node9 -->
<g id="node9" class="node">
<title>Node9</title>
<g id="a_node9"><a xlink:href="_volume_of_fluid_equation_system_8_c.html" target="_top" xlink:title=" ">
<polygon fill="white" stroke="black" points="1172.5,-6 1172.5,-25 1350.5,-25 1350.5,-6 1172.5,-6"/>
<text text-anchor="middle" x="1261.5" y="-13" font-family="Helvetica,sans-Serif" font-size="10.00">VolumeOfFluidEquationSystem.C</text>
</a>
</g>
</g>
<!-- Node1&#45;&gt;Node9 -->
<g id="edge8" class="edge">
<title>Node1&#45;&gt;Node9</title>
<path fill="none" stroke="midnightblue" d="M792.29,-69.93C878.98,-62.06 1032.49,-47.38 1163.5,-31 1177.58,-29.24 1192.76,-27.11 1206.87,-25.03"/>
<polygon fill="midnightblue" stroke="midnightblue" points="791.95,-66.45 782.31,-70.83 792.59,-73.42 791.95,-66.45"/>
</g>
<!-- Node10 -->
<g id="node10" class="node">
<title>Node10</title>
<g id="a_node10"><a xlink:href="_wall_dist_equation_system_8_c.html" target="_top" xlink:title=" ">
<polygon fill="white" stroke="black" points="1368.5,-6 1368.5,-25 1514.5,-25 1514.5,-6 1368.5,-6"/>
<text text-anchor="middle" x="1441.5" y="-13" font-family="Helvetica,sans-Serif" font-size="10.00">WallDistEquationSystem.C</text>
</a>
</g>
</g>
<!-- Node1&#45;&gt;Node10 -->
<g id="edge9" class="edge">
<title>Node1&#45;&gt;Node10</title>
<path fill="none" stroke="midnightblue" d="M792.24,-73.49C909.13,-68.7 1153.95,-56.38 1359.5,-31 1372.13,-29.44 1385.76,-27.24 1398.22,-25.02"/>
<polygon fill="midnightblue" stroke="midnightblue" points="791.86,-70 782.01,-73.9 792.14,-77 791.86,-70"/>
</g>
</g>
</svg>
