<?xml version="1.0" encoding="UTF-8" standalone="no"?>
<!DOCTYPE svg PUBLIC "-//W3C//DTD SVG 1.1//EN"
 "http://www.w3.org/Graphics/SVG/1.1/DTD/svg11.dtd">
<!-- Generated by graphviz version 2.43.0 (0)
 -->
<!-- Title: NonConformalManager.h Pages: 1 -->
<!--zoomable 207 -->
<svg id="main" version="1.1" xmlns="http://www.w3.org/2000/svg" xmlns:xlink="http://www.w3.org/1999/xlink" xml:space="preserve" onload="init(evt)">
<style type="text/css"><![CDATA[
.edge:hover path { stroke: red; }
.edge:hover polygon { stroke: red; fill: red; }
]]></style>
<script type="text/javascript"><![CDATA[
var edges = document.getElementsByTagName('g');
if (edges && edges.length) {
  for (var i=0;i<edges.length;i++) {
    if (edges[i].id.substr(0,4)=='edge') {
      edges[i].setAttribute('class','edge');
    }
  }
}
]]></script>
        <defs>
                <circle id="rim" cx="0" cy="0" r="7"/>
                <circle id="rim2" cx="0" cy="0" r="3.5"/>
                <g id="zoomPlus">
                        <use xlink:href="#rim" fill="#404040">
                                <set attributeName="fill" to="#808080" begin="zoomplus.mouseover" end="zoomplus.mouseout"/>
                        </use>
                        <path d="M-4,0h8M0,-4v8" fill="none" stroke="white" stroke-width="1.5" pointer-events="none"/>
                </g>
                <g id="zoomMin">
                        <use xlink:href="#rim" fill="#404040">
                                <set attributeName="fill" to="#808080" begin="zoomminus.mouseover" end="zoomminus.mouseout"/>
                        </use>
                        <path d="M-4,0h8" fill="none" stroke="white" stroke-width="1.5" pointer-events="none"/>
                </g>
                <g id="dirArrow">
                        <path fill="none" stroke="white" stroke-width="1.5" d="M0,-3.0v7 M-2.5,-0.5L0,-3.0L2.5,-0.5"/>
                </g>
               <g id="resetDef">
                       <use xlink:href="#rim2" fill="#404040">
                               <set attributeName="fill" to="#808080" begin="reset.mouseover" end="reset.mouseout"/>
                       </use>
               </g>
        </defs>

<script type="text/javascript">
var viewWidth = 2985;
var viewHeight = 207;
var sectionId = 'dynsection-1';
</script>
<script xlink:href="svgpan.js"/>
<svg id="graph" class="graph">
<g id="viewport">
<title>NonConformalManager.h</title>
<polygon fill="white" stroke="transparent" points="-4,4 -4,-203 2981,-203 2981,4 -4,4"/>
<!-- Node1 -->
<g id="node1" class="node">
<title>Node1</title>
<g id="a_node1"><a xlink:title=" ">
<polygon fill="#bfbfbf" stroke="black" points="1399,-179.5 1399,-198.5 1537,-198.5 1537,-179.5 1399,-179.5"/>
<text text-anchor="middle" x="1468" y="-186.5" font-family="Helvetica,sans-Serif" font-size="10.00">NonConformalManager.h</text>
</a>
</g>
</g>
<!-- Node2 -->
<g id="node2" class="node">
<title>Node2</title>
<g id="a_node2"><a xlink:href="_hypre_linear_system_8h.html" target="_top" xlink:title=" ">
<polygon fill="white" stroke="black" points="152,-118 152,-137 274,-137 274,-118 152,-118"/>
<text text-anchor="middle" x="213" y="-125" font-family="Helvetica,sans-Serif" font-size="10.00">HypreLinearSystem.h</text>
</a>
</g>
</g>
<!-- Node1&#45;&gt;Node2 -->
<g id="edge1" class="edge">
<title>Node1&#45;&gt;Node2</title>
<path fill="none" stroke="midnightblue" d="M1388.7,-186.51C1205.89,-182.7 740.83,-170.88 353,-143 327.16,-141.14 298.72,-138.34 274.26,-135.69"/>
<polygon fill="midnightblue" stroke="midnightblue" points="1388.69,-190.01 1398.76,-186.72 1388.83,-183.01 1388.69,-190.01"/>
</g>
<!-- Node6 -->
<g id="node6" class="node">
<title>Node6</title>
<g id="a_node6"><a xlink:href="_tpetra_linear_system_helpers_8h.html" target="_top" xlink:title=" ">
<polygon fill="white" stroke="black" points="395.5,-118 395.5,-137 556.5,-137 556.5,-118 395.5,-118"/>
<text text-anchor="middle" x="476" y="-125" font-family="Helvetica,sans-Serif" font-size="10.00">TpetraLinearSystemHelpers.h</text>
</a>
</g>
</g>
<!-- Node1&#45;&gt;Node6 -->
<g id="edge5" class="edge">
<title>Node1&#45;&gt;Node6</title>
<path fill="none" stroke="midnightblue" d="M1388.88,-186.72C1232.33,-183.6 872.13,-173.46 571,-143 556.23,-141.51 540.24,-139.3 525.68,-137.05"/>
<polygon fill="midnightblue" stroke="midnightblue" points="1388.82,-190.22 1398.89,-186.92 1388.96,-183.22 1388.82,-190.22"/>
</g>
<!-- Node7 -->
<g id="node7" class="node">
<title>Node7</title>
<g id="a_node7"><a xlink:href="_tpetra_linear_system_8_c.html" target="_top" xlink:title=" ">
<polygon fill="white" stroke="black" points="304.5,-56.5 304.5,-75.5 429.5,-75.5 429.5,-56.5 304.5,-56.5"/>
<text text-anchor="middle" x="367" y="-63.5" font-family="Helvetica,sans-Serif" font-size="10.00">TpetraLinearSystem.C</text>
</a>
</g>
</g>
<!-- Node1&#45;&gt;Node7 -->
<g id="edge21" class="edge">
<title>Node1&#45;&gt;Node7</title>
<path fill="none" stroke="midnightblue" d="M1388.49,-187.28C1145.17,-184.73 424.73,-174.56 386,-143 365.76,-126.51 365.19,-92 366.17,-75.78"/>
<polygon fill="midnightblue" stroke="midnightblue" points="1388.64,-190.78 1398.68,-187.38 1388.72,-183.78 1388.64,-190.78"/>
</g>
<!-- Node8 -->
<g id="node8" class="node">
<title>Node8</title>
<g id="a_node8"><a xlink:href="_tpetra_linear_system_helpers_8_c.html" target="_top" xlink:title=" ">
<polygon fill="white" stroke="black" points="448,-56.5 448,-75.5 610,-75.5 610,-56.5 448,-56.5"/>
<text text-anchor="middle" x="529" y="-63.5" font-family="Helvetica,sans-Serif" font-size="10.00">TpetraLinearSystemHelpers.C</text>
</a>
</g>
</g>
<!-- Node1&#45;&gt;Node8 -->
<g id="edge22" class="edge">
<title>Node1&#45;&gt;Node8</title>
<path fill="none" stroke="midnightblue" d="M1388.76,-186.35C1193.69,-181.91 700.99,-168.31 631,-143 590.71,-128.43 552.91,-92.3 536.96,-75.65"/>
<polygon fill="midnightblue" stroke="midnightblue" points="1388.86,-189.85 1398.94,-186.58 1389.02,-182.85 1388.86,-189.85"/>
</g>
<!-- Node9 -->
<g id="node9" class="node">
<title>Node9</title>
<g id="a_node9"><a xlink:href="_tpetra_segregated_linear_system_8_c.html" target="_top" xlink:title=" ">
<polygon fill="white" stroke="black" points="628,-56.5 628,-75.5 808,-75.5 808,-56.5 628,-56.5"/>
<text text-anchor="middle" x="718" y="-63.5" font-family="Helvetica,sans-Serif" font-size="10.00">TpetraSegregatedLinearSystem.C</text>
</a>
</g>
</g>
<!-- Node1&#45;&gt;Node9 -->
<g id="edge23" class="edge">
<title>Node1&#45;&gt;Node9</title>
<path fill="none" stroke="midnightblue" d="M1388.45,-186.59C1186.38,-182.62 667.42,-169.84 642,-143 632.53,-133 635.18,-123.97 642,-112 652.25,-94.02 672.83,-82.49 689.98,-75.6"/>
<polygon fill="midnightblue" stroke="midnightblue" points="1388.64,-190.09 1398.7,-186.79 1388.77,-183.09 1388.64,-190.09"/>
</g>
<!-- Node10 -->
<g id="node10" class="node">
<title>Node10</title>
<g id="a_node10"><a xlink:href="_assemble_continuity_non_conformal_solver_algorithm_8_c.html" target="_top" xlink:title=" ">
<polygon fill="white" stroke="black" points="650.5,-112.5 650.5,-142.5 835.5,-142.5 835.5,-112.5 650.5,-112.5"/>
<text text-anchor="start" x="658.5" y="-130.5" font-family="Helvetica,sans-Serif" font-size="10.00">AssembleContinuityNonConformal</text>
<text text-anchor="middle" x="743" y="-119.5" font-family="Helvetica,sans-Serif" font-size="10.00">SolverAlgorithm.C</text>
</a>
</g>
</g>
<!-- Node1&#45;&gt;Node10 -->
<g id="edge9" class="edge">
<title>Node1&#45;&gt;Node10</title>
<path fill="none" stroke="midnightblue" d="M1388.64,-184.03C1270.11,-177.7 1039.88,-163.86 845,-143 841.89,-142.67 838.72,-142.31 835.53,-141.94"/>
<polygon fill="midnightblue" stroke="midnightblue" points="1388.55,-187.53 1398.72,-184.56 1388.92,-180.54 1388.55,-187.53"/>
</g>
<!-- Node11 -->
<g id="node11" class="node">
<title>Node11</title>
<g id="a_node11"><a xlink:href="_assemble_momentum_non_conformal_solver_algorithm_8_c.html" target="_top" xlink:title=" ">
<polygon fill="white" stroke="black" points="853.5,-112.5 853.5,-142.5 1044.5,-142.5 1044.5,-112.5 853.5,-112.5"/>
<text text-anchor="start" x="861.5" y="-130.5" font-family="Helvetica,sans-Serif" font-size="10.00">AssembleMomentumNonConformal</text>
<text text-anchor="middle" x="949" y="-119.5" font-family="Helvetica,sans-Serif" font-size="10.00">SolverAlgorithm.C</text>
</a>
</g>
</g>
<!-- Node1&#45;&gt;Node11 -->
<g id="edge10" class="edge">
<title>Node1&#45;&gt;Node11</title>
<path fill="none" stroke="midnightblue" d="M1388.54,-180.05C1305.14,-171.55 1170.24,-157.34 1054,-143 1050.9,-142.62 1047.74,-142.22 1044.55,-141.82"/>
<polygon fill="midnightblue" stroke="midnightblue" points="1388.4,-183.56 1398.71,-181.09 1389.11,-176.59 1388.4,-183.56"/>
</g>
<!-- Node12 -->
<g id="node12" class="node">
<title>Node12</title>
<g id="a_node12"><a xlink:href="_assemble_nodal_grad_non_conformal_algorithm_8_c.html" target="_top" xlink:title=" ">
<polygon fill="white" stroke="black" points="1062.5,-112.5 1062.5,-142.5 1249.5,-142.5 1249.5,-112.5 1062.5,-112.5"/>
<text text-anchor="start" x="1070.5" y="-130.5" font-family="Helvetica,sans-Serif" font-size="10.00">AssembleNodalGradNonConformal</text>
<text text-anchor="middle" x="1156" y="-119.5" font-family="Helvetica,sans-Serif" font-size="10.00">Algorithm.C</text>
</a>
</g>
</g>
<!-- Node1&#45;&gt;Node12 -->
<g id="edge11" class="edge">
<title>Node1&#45;&gt;Node12</title>
<path fill="none" stroke="midnightblue" d="M1413.45,-177.6C1362.45,-167.87 1285.91,-153.27 1229.53,-142.52"/>
<polygon fill="midnightblue" stroke="midnightblue" points="1412.82,-181.04 1423.3,-179.48 1414.13,-174.16 1412.82,-181.04"/>
</g>
<!-- Node13 -->
<g id="node13" class="node">
<title>Node13</title>
<g id="a_node13"><a xlink:href="_assemble_nodal_grad_u_non_conformal_algorithm_8_c.html" target="_top" xlink:title=" ">
<polygon fill="white" stroke="black" points="1267,-112.5 1267,-142.5 1461,-142.5 1461,-112.5 1267,-112.5"/>
<text text-anchor="start" x="1275" y="-130.5" font-family="Helvetica,sans-Serif" font-size="10.00">AssembleNodalGradUNonConformal</text>
<text text-anchor="middle" x="1364" y="-119.5" font-family="Helvetica,sans-Serif" font-size="10.00">Algorithm.C</text>
</a>
</g>
</g>
<!-- Node1&#45;&gt;Node13 -->
<g id="edge12" class="edge">
<title>Node1&#45;&gt;Node13</title>
<path fill="none" stroke="midnightblue" d="M1444.01,-174.28C1427.37,-164.75 1405.27,-152.11 1388.51,-142.52"/>
<polygon fill="midnightblue" stroke="midnightblue" points="1442.68,-177.55 1453.1,-179.48 1446.16,-171.47 1442.68,-177.55"/>
</g>
<!-- Node14 -->
<g id="node14" class="node">
<title>Node14</title>
<g id="a_node14"><a xlink:href="_assemble_p_n_g_non_conformal_solver_algorithm_8_c.html" target="_top" xlink:title=" ">
<polygon fill="white" stroke="black" points="1478.5,-112.5 1478.5,-142.5 1665.5,-142.5 1665.5,-112.5 1478.5,-112.5"/>
<text text-anchor="start" x="1486.5" y="-130.5" font-family="Helvetica,sans-Serif" font-size="10.00">AssemblePNGNonConformalSolver</text>
<text text-anchor="middle" x="1572" y="-119.5" font-family="Helvetica,sans-Serif" font-size="10.00">Algorithm.C</text>
</a>
</g>
</g>
<!-- Node1&#45;&gt;Node14 -->
<g id="edge13" class="edge">
<title>Node1&#45;&gt;Node14</title>
<path fill="none" stroke="midnightblue" d="M1491.99,-174.28C1508.63,-164.75 1530.73,-152.11 1547.49,-142.52"/>
<polygon fill="midnightblue" stroke="midnightblue" points="1489.84,-171.47 1482.9,-179.48 1493.32,-177.55 1489.84,-171.47"/>
</g>
<!-- Node15 -->
<g id="node15" class="node">
<title>Node15</title>
<g id="a_node15"><a xlink:href="_assemble_scalar_non_conformal_solver_algorithm_8_c.html" target="_top" xlink:title=" ">
<polygon fill="white" stroke="black" points="1683.5,-112.5 1683.5,-142.5 1848.5,-142.5 1848.5,-112.5 1683.5,-112.5"/>
<text text-anchor="start" x="1691.5" y="-130.5" font-family="Helvetica,sans-Serif" font-size="10.00">AssembleScalarNonConformal</text>
<text text-anchor="middle" x="1766" y="-119.5" font-family="Helvetica,sans-Serif" font-size="10.00">SolverAlgorithm.C</text>
</a>
</g>
</g>
<!-- Node1&#45;&gt;Node15 -->
<g id="edge14" class="edge">
<title>Node1&#45;&gt;Node15</title>
<path fill="none" stroke="midnightblue" d="M1520.71,-177.48C1569.42,-167.75 1642.14,-153.23 1695.77,-142.52"/>
<polygon fill="midnightblue" stroke="midnightblue" points="1519.82,-174.08 1510.7,-179.48 1521.19,-180.95 1519.82,-174.08"/>
</g>
<!-- Node16 -->
<g id="node16" class="node">
<title>Node16</title>
<g id="a_node16"><a xlink:href="_assemble_wall_dist_non_conformal_algorithm_8_c.html" target="_top" xlink:title=" ">
<polygon fill="white" stroke="black" points="1867,-112.5 1867,-142.5 2043,-142.5 2043,-112.5 1867,-112.5"/>
<text text-anchor="start" x="1875" y="-130.5" font-family="Helvetica,sans-Serif" font-size="10.00">AssembleWallDistNonConformal</text>
<text text-anchor="middle" x="1955" y="-119.5" font-family="Helvetica,sans-Serif" font-size="10.00">Algorithm.C</text>
</a>
</g>
</g>
<!-- Node1&#45;&gt;Node16 -->
<g id="edge15" class="edge">
<title>Node1&#45;&gt;Node16</title>
<path fill="none" stroke="midnightblue" d="M1547.47,-179.62C1626.35,-171.11 1750.66,-157.21 1858,-143 1860.95,-142.61 1863.96,-142.2 1866.99,-141.79"/>
<polygon fill="midnightblue" stroke="midnightblue" points="1546.69,-176.18 1537.13,-180.73 1547.44,-183.14 1546.69,-176.18"/>
</g>
<!-- Node17 -->
<g id="node17" class="node">
<title>Node17</title>
<g id="a_node17"><a xlink:href="_compute_mdot_non_conformal_algorithm_8_c.html" target="_top" xlink:title=" ">
<polygon fill="white" stroke="black" points="2061,-118 2061,-137 2275,-137 2275,-118 2061,-118"/>
<text text-anchor="middle" x="2168" y="-125" font-family="Helvetica,sans-Serif" font-size="10.00">ComputeMdotNonConformalAlgorithm.C</text>
</a>
</g>
</g>
<!-- Node1&#45;&gt;Node17 -->
<g id="edge16" class="edge">
<title>Node1&#45;&gt;Node17</title>
<path fill="none" stroke="midnightblue" d="M1547.56,-183.07C1660.05,-175.83 1871.96,-161.18 2052,-143 2068.96,-141.29 2087.28,-139.14 2104.24,-137.02"/>
<polygon fill="midnightblue" stroke="midnightblue" points="1547.07,-179.59 1537.32,-183.73 1547.52,-186.58 1547.07,-179.59"/>
</g>
<!-- Node18 -->
<g id="node18" class="node">
<title>Node18</title>
<g id="a_node18"><a xlink:href="_low_mach_equation_system_8_c.html" target="_top" xlink:title=" ">
<polygon fill="white" stroke="black" points="2293,-118 2293,-137 2445,-137 2445,-118 2293,-118"/>
<text text-anchor="middle" x="2369" y="-125" font-family="Helvetica,sans-Serif" font-size="10.00">LowMachEquationSystem.C</text>
</a>
</g>
</g>
<!-- Node1&#45;&gt;Node18 -->
<g id="edge17" class="edge">
<title>Node1&#45;&gt;Node18</title>
<path fill="none" stroke="midnightblue" d="M1547.49,-186.62C1693.7,-183.41 2014.99,-173.26 2284,-143 2297.24,-141.51 2311.55,-139.3 2324.58,-137.06"/>
<polygon fill="midnightblue" stroke="midnightblue" points="1547.19,-183.12 1537.27,-186.84 1547.34,-190.12 1547.19,-183.12"/>
</g>
<!-- Node19 -->
<g id="node19" class="node">
<title>Node19</title>
<g id="a_node19"><a xlink:href="_non_conformal_info_8_c.html" target="_top" xlink:title=" ">
<polygon fill="white" stroke="black" points="2463,-118 2463,-137 2579,-137 2579,-118 2463,-118"/>
<text text-anchor="middle" x="2521" y="-125" font-family="Helvetica,sans-Serif" font-size="10.00">NonConformalInfo.C</text>
</a>
</g>
</g>
<!-- Node1&#45;&gt;Node19 -->
<g id="edge18" class="edge">
<title>Node1&#45;&gt;Node19</title>
<path fill="none" stroke="midnightblue" d="M1547.32,-188.87C1715.31,-189.73 2119.04,-186.58 2454,-143 2464.74,-141.6 2476.31,-139.37 2486.76,-137.06"/>
<polygon fill="midnightblue" stroke="midnightblue" points="1547.1,-185.37 1537.08,-188.81 1547.06,-192.37 1547.1,-185.37"/>
</g>
<!-- Node20 -->
<g id="node20" class="node">
<title>Node20</title>
<g id="a_node20"><a xlink:href="_non_conformal_manager_8_c.html" target="_top" xlink:title=" ">
<polygon fill="white" stroke="black" points="2597.5,-118 2597.5,-137 2736.5,-137 2736.5,-118 2597.5,-118"/>
<text text-anchor="middle" x="2667" y="-125" font-family="Helvetica,sans-Serif" font-size="10.00">NonConformalManager.C</text>
</a>
</g>
</g>
<!-- Node1&#45;&gt;Node20 -->
<g id="edge19" class="edge">
<title>Node1&#45;&gt;Node20</title>
<path fill="none" stroke="midnightblue" d="M1547.18,-188.65C1730.74,-189.33 2199.35,-186.26 2588,-143 2600.61,-141.6 2614.24,-139.36 2626.57,-137.06"/>
<polygon fill="midnightblue" stroke="midnightblue" points="1547.09,-185.15 1537.08,-188.61 1547.06,-192.15 1547.09,-185.15"/>
</g>
<!-- Node21 -->
<g id="node21" class="node">
<title>Node21</title>
<g id="a_node21"><a xlink:href="_realm_8_c.html" target="_top" xlink:title=" ">
<polygon fill="white" stroke="black" points="2755,-118 2755,-137 2813,-137 2813,-118 2755,-118"/>
<text text-anchor="middle" x="2784" y="-125" font-family="Helvetica,sans-Serif" font-size="10.00">Realm.C</text>
</a>
</g>
</g>
<!-- Node1&#45;&gt;Node21 -->
<g id="edge20" class="edge">
<title>Node1&#45;&gt;Node21</title>
<path fill="none" stroke="midnightblue" d="M1547.15,-188.61C1788.89,-189.92 2515.13,-189.77 2746,-143 2752.37,-141.71 2759.07,-139.47 2765.03,-137.14"/>
<polygon fill="midnightblue" stroke="midnightblue" points="1547.06,-185.11 1537.04,-188.55 1547.02,-192.11 1547.06,-185.11"/>
</g>
<!-- Node22 -->
<g id="node22" class="node">
<title>Node22</title>
<g id="a_node22"><a xlink:href="_wall_dist_equation_system_8_c.html" target="_top" xlink:title=" ">
<polygon fill="white" stroke="black" points="2831,-118 2831,-137 2977,-137 2977,-118 2831,-118"/>
<text text-anchor="middle" x="2904" y="-125" font-family="Helvetica,sans-Serif" font-size="10.00">WallDistEquationSystem.C</text>
</a>
</g>
</g>
<!-- Node1&#45;&gt;Node22 -->
<g id="edge24" class="edge">
<title>Node1&#45;&gt;Node22</title>
<path fill="none" stroke="midnightblue" d="M1547.21,-186.84C1797.94,-182.95 2572.38,-169.08 2822,-143 2835.23,-141.62 2849.54,-139.36 2862.45,-137.03"/>
<polygon fill="midnightblue" stroke="midnightblue" points="1547.03,-183.35 1537.09,-187 1547.14,-190.35 1547.03,-183.35"/>
</g>
<!-- Node3 -->
<g id="node3" class="node">
<title>Node3</title>
<g id="a_node3"><a xlink:href="_hypre_u_v_w_linear_system_8h.html" target="_top" xlink:title=" ">
<polygon fill="white" stroke="black" points="140,-56.5 140,-75.5 286,-75.5 286,-56.5 140,-56.5"/>
<text text-anchor="middle" x="213" y="-63.5" font-family="Helvetica,sans-Serif" font-size="10.00">HypreUVWLinearSystem.h</text>
</a>
</g>
</g>
<!-- Node2&#45;&gt;Node3 -->
<g id="edge2" class="edge">
<title>Node2&#45;&gt;Node3</title>
<path fill="none" stroke="midnightblue" d="M213,-107.82C213,-97 213,-83.9 213,-75.51"/>
<polygon fill="midnightblue" stroke="midnightblue" points="209.5,-107.98 213,-117.98 216.5,-107.98 209.5,-107.98"/>
</g>
<!-- Node5 -->
<g id="node5" class="node">
<title>Node5</title>
<g id="a_node5"><a xlink:href="_hypre_linear_system_8_c.html" target="_top" xlink:title=" ">
<polygon fill="white" stroke="black" points="0,-56.5 0,-75.5 122,-75.5 122,-56.5 0,-56.5"/>
<text text-anchor="middle" x="61" y="-63.5" font-family="Helvetica,sans-Serif" font-size="10.00">HypreLinearSystem.C</text>
</a>
</g>
</g>
<!-- Node2&#45;&gt;Node5 -->
<g id="edge4" class="edge">
<title>Node2&#45;&gt;Node5</title>
<path fill="none" stroke="midnightblue" d="M181.79,-114.28C152.25,-102.72 108.68,-85.66 82.74,-75.51"/>
<polygon fill="midnightblue" stroke="midnightblue" points="180.63,-117.59 191.22,-117.98 183.19,-111.07 180.63,-117.59"/>
</g>
<!-- Node4 -->
<g id="node4" class="node">
<title>Node4</title>
<g id="a_node4"><a xlink:href="_hypre_u_v_w_linear_system_8_c.html" target="_top" xlink:title=" ">
<polygon fill="white" stroke="black" points="140,-0.5 140,-19.5 286,-19.5 286,-0.5 140,-0.5"/>
<text text-anchor="middle" x="213" y="-7.5" font-family="Helvetica,sans-Serif" font-size="10.00">HypreUVWLinearSystem.C</text>
</a>
</g>
</g>
<!-- Node3&#45;&gt;Node4 -->
<g id="edge3" class="edge">
<title>Node3&#45;&gt;Node4</title>
<path fill="none" stroke="midnightblue" d="M213,-45.8C213,-36.91 213,-26.78 213,-19.75"/>
<polygon fill="midnightblue" stroke="midnightblue" points="209.5,-46.08 213,-56.08 216.5,-46.08 209.5,-46.08"/>
</g>
<!-- Node6&#45;&gt;Node7 -->
<g id="edge6" class="edge">
<title>Node6&#45;&gt;Node7</title>
<path fill="none" stroke="midnightblue" d="M451.37,-113.06C430.28,-101.54 400.54,-85.31 382.59,-75.51"/>
<polygon fill="midnightblue" stroke="midnightblue" points="449.93,-116.26 460.38,-117.98 453.28,-110.11 449.93,-116.26"/>
</g>
<!-- Node6&#45;&gt;Node8 -->
<g id="edge7" class="edge">
<title>Node6&#45;&gt;Node8</title>
<path fill="none" stroke="midnightblue" d="M490.25,-110.5C500.29,-99.24 513.32,-84.6 521.42,-75.51"/>
<polygon fill="midnightblue" stroke="midnightblue" points="487.63,-108.18 483.59,-117.98 492.86,-112.84 487.63,-108.18"/>
</g>
<!-- Node6&#45;&gt;Node9 -->
<g id="edge8" class="edge">
<title>Node6&#45;&gt;Node9</title>
<path fill="none" stroke="midnightblue" d="M520.57,-115.54C567.55,-103.99 640.56,-86.04 683.39,-75.51"/>
<polygon fill="midnightblue" stroke="midnightblue" points="519.55,-112.19 510.67,-117.98 521.22,-118.99 519.55,-112.19"/>
</g>
</g>
</svg>
        <g id="navigator" transform="translate(0 0)" fill="#404254">
                <rect fill="#f2f5e9" fill-opacity="0.5" stroke="#606060" stroke-width=".5" x="0" y="0" width="60" height="60"/>
                <use id="zoomplus" xlink:href="#zoomPlus" x="17" y="9" onmousedown="handleZoom(evt,'in')"/>
                <use id="zoomminus" xlink:href="#zoomMin" x="42" y="9" onmousedown="handleZoom(evt,'out')"/>
                <use id="reset" xlink:href="#resetDef" x="30" y="36" onmousedown="handleReset()"/>
                <g id="arrowUp" xlink:href="#dirArrow" transform="translate(30 24)" onmousedown="handlePan(0,-1)">
                  <use xlink:href="#rim" fill="#404040">
                        <set attributeName="fill" to="#808080" begin="arrowUp.mouseover" end="arrowUp.mouseout"/>
                  </use>
                  <path fill="none" stroke="white" stroke-width="1.5" d="M0,-3.0v7 M-2.5,-0.5L0,-3.0L2.5,-0.5"/>
                </g>
                <g id="arrowRight" xlink:href="#dirArrow" transform="rotate(90) translate(36 -43)" onmousedown="handlePan(1,0)">
                  <use xlink:href="#rim" fill="#404040">
                        <set attributeName="fill" to="#808080" begin="arrowRight.mouseover" end="arrowRight.mouseout"/>
                  </use>
                  <path fill="none" stroke="white" stroke-width="1.5" d="M0,-3.0v7 M-2.5,-0.5L0,-3.0L2.5,-0.5"/>
                </g>
                <g id="arrowDown" xlink:href="#dirArrow" transform="rotate(180) translate(-30 -48)" onmousedown="handlePan(0,1)">
                  <use xlink:href="#rim" fill="#404040">
                        <set attributeName="fill" to="#808080" begin="arrowDown.mouseover" end="arrowDown.mouseout"/>
                  </use>
                  <path fill="none" stroke="white" stroke-width="1.5" d="M0,-3.0v7 M-2.5,-0.5L0,-3.0L2.5,-0.5"/>
                </g>
                <g id="arrowLeft" xlink:href="#dirArrow" transform="rotate(270) translate(-36 17)" onmousedown="handlePan(-1,0)">
                  <use xlink:href="#rim" fill="#404040">
                        <set attributeName="fill" to="#808080" begin="arrowLeft.mouseover" end="arrowLeft.mouseout"/>
                  </use>
                  <path fill="none" stroke="white" stroke-width="1.5" d="M0,-3.0v7 M-2.5,-0.5L0,-3.0L2.5,-0.5"/>
                </g>
        </g>
        <svg viewBox="0 0 15 15" width="100%" height="30px" preserveAspectRatio="xMaxYMin meet">
         <g id="arrow_out" transform="scale(0.3 0.3)">
          <a xlink:href="_non_conformal_manager_8h__dep__incl_org.svg" target="_base">
           <rect id="button" ry="5" rx="5" y="6" x="6" height="38" width="38"
                fill="#f2f5e9" fill-opacity="0.5" stroke="#606060" stroke-width="1.0"/>
           <path id="arrow"
             d="M 11.500037,31.436501 C 11.940474,20.09759 22.043105,11.32322 32.158766,21.979434 L 37.068811,17.246167 C 37.068811,17.246167 37.088388,32 37.088388,32 L 22.160133,31.978069 C 22.160133,31.978069 26.997745,27.140456 26.997745,27.140456 C 18.528582,18.264221 13.291696,25.230495 11.500037,31.436501 z"
             style="fill:#404040;"/>
          </a>
         </g>
        </svg>
</svg>
