<?xml version="1.0" encoding="UTF-8" standalone="no"?>
<!DOCTYPE svg PUBLIC "-//W3C//DTD SVG 1.1//EN"
 "http://www.w3.org/Graphics/SVG/1.1/DTD/svg11.dtd">
<!-- Generated by graphviz version 2.43.0 (0)
 -->
<!-- Title: OpenfastFSI.h Pages: 1 -->
<!--zoomable 364 -->
<svg id="main" version="1.1" xmlns="http://www.w3.org/2000/svg" xmlns:xlink="http://www.w3.org/1999/xlink" xml:space="preserve" onload="init(evt)">
<style type="text/css"><![CDATA[
.edge:hover path { stroke: red; }
.edge:hover polygon { stroke: red; fill: red; }
]]></style>
<script type="text/javascript"><![CDATA[
var edges = document.getElementsByTagName('g');
if (edges && edges.length) {
  for (var i=0;i<edges.length;i++) {
    if (edges[i].id.substr(0,4)=='edge') {
      edges[i].setAttribute('class','edge');
    }
  }
}
]]></script>
        <defs>
                <circle id="rim" cx="0" cy="0" r="7"/>
                <circle id="rim2" cx="0" cy="0" r="3.5"/>
                <g id="zoomPlus">
                        <use xlink:href="#rim" fill="#404040">
                                <set attributeName="fill" to="#808080" begin="zoomplus.mouseover" end="zoomplus.mouseout"/>
                        </use>
                        <path d="M-4,0h8M0,-4v8" fill="none" stroke="white" stroke-width="1.5" pointer-events="none"/>
                </g>
                <g id="zoomMin">
                        <use xlink:href="#rim" fill="#404040">
                                <set attributeName="fill" to="#808080" begin="zoomminus.mouseover" end="zoomminus.mouseout"/>
                        </use>
                        <path d="M-4,0h8" fill="none" stroke="white" stroke-width="1.5" pointer-events="none"/>
                </g>
                <g id="dirArrow">
                        <path fill="none" stroke="white" stroke-width="1.5" d="M0,-3.0v7 M-2.5,-0.5L0,-3.0L2.5,-0.5"/>
                </g>
               <g id="resetDef">
                       <use xlink:href="#rim2" fill="#404040">
                               <set attributeName="fill" to="#808080" begin="reset.mouseover" end="reset.mouseout"/>
                       </use>
               </g>
        </defs>

<script type="text/javascript">
var viewWidth = 1494;
var viewHeight = 364;
var sectionId = 'dynsection-0';
</script>
<script xlink:href="svgpan.js"/>
<svg id="graph" class="graph">
<g id="viewport">
<title>OpenfastFSI.h</title>
<polygon fill="white" stroke="transparent" points="-4,4 -4,-360 1490,-360 1490,4 -4,4"/>
<!-- Node1 -->
<g id="node1" class="node">
<title>Node1</title>
<g id="a_node1"><a xlink:title=" ">
<polygon fill="#bfbfbf" stroke="black" points="1215.5,-336.5 1215.5,-355.5 1299.5,-355.5 1299.5,-336.5 1215.5,-336.5"/>
<text text-anchor="middle" x="1257.5" y="-343.5" font-family="Helvetica,sans-Serif" font-size="10.00">OpenfastFSI.h</text>
</a>
</g>
</g>
<!-- Node2 -->
<g id="node2" class="node">
<title>Node2</title>
<g id="a_node2"><a xlink:href="_f_s_iturbine_8h.html" target="_top" xlink:title=" ">
<polygon fill="white" stroke="black" points="953.5,-280.5 953.5,-299.5 1067.5,-299.5 1067.5,-280.5 953.5,-280.5"/>
<text text-anchor="middle" x="1010.5" y="-287.5" font-family="Helvetica,sans-Serif" font-size="10.00">aero/fsi/FSIturbine.h</text>
</a>
</g>
</g>
<!-- Node1&#45;&gt;Node2 -->
<g id="edge1" class="edge">
<title>Node1&#45;&gt;Node2</title>
<path fill="none" stroke="midnightblue" d="M1218.36,-336.44C1175.27,-327.02 1105.94,-311.87 1059.33,-301.68"/>
<polygon fill="midnightblue" stroke="midnightblue" points="1059.97,-298.23 1049.45,-299.52 1058.48,-305.07 1059.97,-298.23"/>
</g>
<!-- Node3 -->
<g id="node3" class="node">
<title>Node3</title>
<g id="a_node3"><a xlink:title=" ">
<polygon fill="white" stroke="#bfbfbf" points="124,-224.5 124,-243.5 199,-243.5 199,-224.5 124,-224.5"/>
<text text-anchor="middle" x="161.5" y="-231.5" font-family="Helvetica,sans-Serif" font-size="10.00">OpenFAST.H</text>
</a>
</g>
</g>
<!-- Node1&#45;&gt;Node3 -->
<g id="edge40" class="edge">
<title>Node1&#45;&gt;Node3</title>
<path fill="none" stroke="midnightblue" d="M1215.1,-342.04C1073.06,-331.9 601.05,-296.21 213.5,-244 212.2,-243.82 210.88,-243.64 209.55,-243.45"/>
<polygon fill="midnightblue" stroke="midnightblue" points="209.64,-239.92 199.22,-241.87 208.58,-246.84 209.64,-239.92"/>
</g>
<!-- Node17 -->
<g id="node17" class="node">
<title>Node17</title>
<g id="a_node17"><a xlink:title=" ">
<polygon fill="white" stroke="#bfbfbf" points="1326.5,-224.5 1326.5,-243.5 1368.5,-243.5 1368.5,-224.5 1326.5,-224.5"/>
<text text-anchor="middle" x="1347.5" y="-231.5" font-family="Helvetica,sans-Serif" font-size="10.00">array</text>
</a>
</g>
</g>
<!-- Node1&#45;&gt;Node17 -->
<g id="edge42" class="edge">
<title>Node1&#45;&gt;Node17</title>
<path fill="none" stroke="midnightblue" d="M1258.98,-336.17C1261.58,-322.83 1268.02,-297.25 1281.5,-280 1291.67,-266.98 1306.66,-256.34 1319.78,-248.68"/>
<polygon fill="midnightblue" stroke="midnightblue" points="1321.86,-251.53 1328.92,-243.63 1318.47,-245.4 1321.86,-251.53"/>
</g>
<!-- Node18 -->
<g id="node18" class="node">
<title>Node18</title>
<g id="a_node18"><a xlink:title=" ">
<polygon fill="white" stroke="#bfbfbf" points="1387,-224.5 1387,-243.5 1486,-243.5 1486,-224.5 1387,-224.5"/>
<text text-anchor="middle" x="1436.5" y="-231.5" font-family="Helvetica,sans-Serif" font-size="10.00">yaml&#45;cpp/yaml.h</text>
</a>
</g>
</g>
<!-- Node1&#45;&gt;Node18 -->
<g id="edge41" class="edge">
<title>Node1&#45;&gt;Node18</title>
<path fill="none" stroke="midnightblue" d="M1263.09,-336.18C1272.25,-322.38 1291.74,-295.64 1314.5,-280 1337.05,-264.5 1365.59,-253.6 1389.39,-246.4"/>
<polygon fill="midnightblue" stroke="midnightblue" points="1390.64,-249.69 1399.27,-243.55 1388.7,-242.96 1390.64,-249.69"/>
</g>
<!-- Node31 -->
<g id="node31" class="node">
<title>Node31</title>
<g id="a_node31"><a xlink:title=" ">
<polygon fill="white" stroke="#bfbfbf" points="1323.5,-280.5 1323.5,-299.5 1381.5,-299.5 1381.5,-280.5 1323.5,-280.5"/>
<text text-anchor="middle" x="1352.5" y="-287.5" font-family="Helvetica,sans-Serif" font-size="10.00">memory</text>
</a>
</g>
</g>
<!-- Node1&#45;&gt;Node31 -->
<g id="edge43" class="edge">
<title>Node1&#45;&gt;Node31</title>
<path fill="none" stroke="midnightblue" d="M1272.76,-336.32C1287.72,-327.82 1310.75,-314.73 1328.23,-304.8"/>
<polygon fill="midnightblue" stroke="midnightblue" points="1330.31,-307.64 1337.27,-299.65 1326.85,-301.55 1330.31,-307.64"/>
</g>
<!-- Node2&#45;&gt;Node3 -->
<g id="edge2" class="edge">
<title>Node2&#45;&gt;Node3</title>
<path fill="none" stroke="midnightblue" d="M953.29,-288.02C822.09,-285.3 489.57,-275.58 213.5,-244 212.19,-243.85 210.87,-243.69 209.54,-243.52"/>
<polygon fill="midnightblue" stroke="midnightblue" points="209.59,-239.99 199.2,-242.05 208.61,-246.92 209.59,-239.99"/>
</g>
<!-- Node4 -->
<g id="node4" class="node">
<title>Node4</title>
<g id="a_node4"><a xlink:href="_calc_loads_8h.html" target="_top" xlink:title=" ">
<polygon fill="white" stroke="black" points="378,-224.5 378,-243.5 493,-243.5 493,-224.5 378,-224.5"/>
<text text-anchor="middle" x="435.5" y="-231.5" font-family="Helvetica,sans-Serif" font-size="10.00">aero/fsi/CalcLoads.h</text>
</a>
</g>
</g>
<!-- Node2&#45;&gt;Node4 -->
<g id="edge3" class="edge">
<title>Node2&#45;&gt;Node4</title>
<path fill="none" stroke="midnightblue" d="M953.28,-284.78C860.97,-277.78 673.25,-262.78 503.35,-244.05"/>
<polygon fill="midnightblue" stroke="midnightblue" points="503.55,-240.55 493.22,-242.92 502.78,-247.5 503.55,-240.55"/>
</g>
<!-- Node5 -->
<g id="node5" class="node">
<title>Node5</title>
<g id="a_node5"><a xlink:href="_field_type_def_8h.html" target="_top" xlink:title=" ">
<polygon fill="white" stroke="black" points="1047.5,-168.5 1047.5,-187.5 1135.5,-187.5 1135.5,-168.5 1047.5,-168.5"/>
<text text-anchor="middle" x="1091.5" y="-175.5" font-family="Helvetica,sans-Serif" font-size="10.00">FieldTypeDef.h</text>
</a>
</g>
</g>
<!-- Node2&#45;&gt;Node5 -->
<g id="edge13" class="edge">
<title>Node2&#45;&gt;Node5</title>
<path fill="none" stroke="midnightblue" d="M1067.73,-287.77C1138.51,-284.9 1252.92,-275.4 1279.5,-244 1318.93,-197.43 1214.38,-184.18 1145.82,-180.44"/>
<polygon fill="midnightblue" stroke="midnightblue" points="1145.72,-176.93 1135.56,-179.94 1145.38,-183.92 1145.72,-176.93"/>
</g>
<!-- Node11 -->
<g id="node11" class="node">
<title>Node11</title>
<g id="a_node11"><a xlink:title=" ">
<polygon fill="white" stroke="#bfbfbf" points="511.5,-224.5 511.5,-243.5 673.5,-243.5 673.5,-224.5 511.5,-224.5"/>
<text text-anchor="middle" x="592.5" y="-231.5" font-family="Helvetica,sans-Serif" font-size="10.00">stk_mesh/base/MetaData.hpp</text>
</a>
</g>
</g>
<!-- Node2&#45;&gt;Node11 -->
<g id="edge10" class="edge">
<title>Node2&#45;&gt;Node11</title>
<path fill="none" stroke="midnightblue" d="M953.26,-281.6C879.31,-272.05 750.38,-255.4 668.35,-244.8"/>
<polygon fill="midnightblue" stroke="midnightblue" points="668.7,-241.32 658.34,-243.51 667.81,-248.26 668.7,-241.32"/>
</g>
<!-- Node12 -->
<g id="node12" class="node">
<title>Node12</title>
<g id="a_node12"><a xlink:title=" ">
<polygon fill="white" stroke="#bfbfbf" points="692,-224.5 692,-243.5 851,-243.5 851,-224.5 692,-224.5"/>
<text text-anchor="middle" x="771.5" y="-231.5" font-family="Helvetica,sans-Serif" font-size="10.00">stk_mesh/base/BulkData.hpp</text>
</a>
</g>
</g>
<!-- Node2&#45;&gt;Node12 -->
<g id="edge11" class="edge">
<title>Node2&#45;&gt;Node12</title>
<path fill="none" stroke="midnightblue" d="M972.63,-280.44C931.02,-271.04 864.13,-255.93 819.03,-245.74"/>
<polygon fill="midnightblue" stroke="midnightblue" points="819.72,-242.31 809.19,-243.52 818.18,-249.13 819.72,-242.31"/>
</g>
<!-- Node13 -->
<g id="node13" class="node">
<title>Node13</title>
<g id="a_node13"><a xlink:title=" ">
<polygon fill="white" stroke="#bfbfbf" points="869,-224.5 869,-243.5 1006,-243.5 1006,-224.5 869,-224.5"/>
<text text-anchor="middle" x="937.5" y="-231.5" font-family="Helvetica,sans-Serif" font-size="10.00">stk_mesh/base/Field.hpp</text>
</a>
</g>
</g>
<!-- Node2&#45;&gt;Node13 -->
<g id="edge12" class="edge">
<title>Node2&#45;&gt;Node13</title>
<path fill="none" stroke="midnightblue" d="M998.77,-280.32C987.66,-272.11 970.76,-259.6 957.52,-249.81"/>
<polygon fill="midnightblue" stroke="midnightblue" points="959.56,-246.97 949.44,-243.83 955.4,-252.59 959.56,-246.97"/>
</g>
<!-- Node14 -->
<g id="node14" class="node">
<title>Node14</title>
<g id="a_node14"><a xlink:title=" ">
<polygon fill="white" stroke="#bfbfbf" points="1024.5,-224.5 1024.5,-243.5 1142.5,-243.5 1142.5,-224.5 1024.5,-224.5"/>
<text text-anchor="middle" x="1083.5" y="-231.5" font-family="Helvetica,sans-Serif" font-size="10.00">stk_search/Point.hpp</text>
</a>
</g>
</g>
<!-- Node2&#45;&gt;Node14 -->
<g id="edge14" class="edge">
<title>Node2&#45;&gt;Node14</title>
<path fill="none" stroke="midnightblue" d="M1022.23,-280.32C1033.34,-272.11 1050.24,-259.6 1063.48,-249.81"/>
<polygon fill="midnightblue" stroke="midnightblue" points="1065.6,-252.59 1071.56,-243.83 1061.44,-246.97 1065.6,-252.59"/>
</g>
<!-- Node15 -->
<g id="node15" class="node">
<title>Node15</title>
<g id="a_node15"><a xlink:title=" ">
<polygon fill="white" stroke="#bfbfbf" points="1161,-224.5 1161,-243.5 1208,-243.5 1208,-224.5 1161,-224.5"/>
<text text-anchor="middle" x="1184.5" y="-231.5" font-family="Helvetica,sans-Serif" font-size="10.00">vector</text>
</a>
</g>
</g>
<!-- Node2&#45;&gt;Node15 -->
<g id="edge15" class="edge">
<title>Node2&#45;&gt;Node15</title>
<path fill="none" stroke="midnightblue" d="M1038.07,-280.44C1068.81,-270.9 1118.52,-255.48 1151.36,-245.29"/>
<polygon fill="midnightblue" stroke="midnightblue" points="1152.45,-248.61 1160.96,-242.3 1150.38,-241.93 1152.45,-248.61"/>
</g>
<!-- Node16 -->
<g id="node16" class="node">
<title>Node16</title>
<g id="a_node16"><a xlink:title=" ">
<polygon fill="white" stroke="#bfbfbf" points="1226.5,-224.5 1226.5,-243.5 1270.5,-243.5 1270.5,-224.5 1226.5,-224.5"/>
<text text-anchor="middle" x="1248.5" y="-231.5" font-family="Helvetica,sans-Serif" font-size="10.00">string</text>
</a>
</g>
</g>
<!-- Node2&#45;&gt;Node16 -->
<g id="edge16" class="edge">
<title>Node2&#45;&gt;Node16</title>
<path fill="none" stroke="midnightblue" d="M1053.92,-280.46C1093.81,-272.42 1154.77,-259.62 1216.32,-244.17"/>
<polygon fill="midnightblue" stroke="midnightblue" points="1217.36,-247.52 1226.2,-241.67 1215.65,-240.73 1217.36,-247.52"/>
</g>
<!-- Node2&#45;&gt;Node17 -->
<g id="edge17" class="edge">
<title>Node2&#45;&gt;Node17</title>
<path fill="none" stroke="midnightblue" d="M1067.58,-282.29C1128.54,-274.7 1227.81,-261.15 1312.5,-244 1313.78,-243.74 1315.08,-243.46 1316.4,-243.17"/>
<polygon fill="midnightblue" stroke="midnightblue" points="1317.56,-246.5 1326.48,-240.78 1315.94,-239.69 1317.56,-246.5"/>
</g>
<!-- Node2&#45;&gt;Node18 -->
<g id="edge18" class="edge">
<title>Node2&#45;&gt;Node18</title>
<path fill="none" stroke="midnightblue" d="M1067.78,-282.5C1138,-274.42 1260.91,-259.9 1376.82,-244.06"/>
<polygon fill="midnightblue" stroke="midnightblue" points="1377.51,-247.5 1386.94,-242.67 1376.56,-240.56 1377.51,-247.5"/>
</g>
<!-- Node19 -->
<g id="node19" class="node">
<title>Node19</title>
<g id="a_node19"><a xlink:href="vector__space_8h.html" target="_top" xlink:title=" ">
<polygon fill="white" stroke="black" points="255.5,-224.5 255.5,-243.5 359.5,-243.5 359.5,-224.5 255.5,-224.5"/>
<text text-anchor="middle" x="307.5" y="-231.5" font-family="Helvetica,sans-Serif" font-size="10.00">vs/vector_space.h</text>
</a>
</g>
</g>
<!-- Node2&#45;&gt;Node19 -->
<g id="edge19" class="edge">
<title>Node2&#45;&gt;Node19</title>
<path fill="none" stroke="midnightblue" d="M953.26,-286.46C842.6,-281.23 591.47,-267.8 369.9,-244.07"/>
<polygon fill="midnightblue" stroke="midnightblue" points="370.03,-240.57 359.71,-242.97 369.28,-247.53 370.03,-240.57"/>
</g>
<!-- Node20 -->
<g id="node20" class="node">
<title>Node20</title>
<g id="a_node20"><a xlink:href="vector_8h.html" target="_top" xlink:title=" ">
<polygon fill="white" stroke="black" points="192.5,-112.5 192.5,-131.5 262.5,-131.5 262.5,-112.5 192.5,-112.5"/>
<text text-anchor="middle" x="227.5" y="-119.5" font-family="Helvetica,sans-Serif" font-size="10.00">vs/vector.h</text>
</a>
</g>
</g>
<!-- Node2&#45;&gt;Node20 -->
<g id="edge39" class="edge">
<title>Node2&#45;&gt;Node20</title>
<path fill="none" stroke="midnightblue" d="M953.47,-287.58C780.6,-283.03 272.6,-267.69 246.5,-244 218.12,-218.24 220.28,-168.77 224.05,-141.75"/>
<polygon fill="midnightblue" stroke="midnightblue" points="227.54,-142.11 225.68,-131.68 220.63,-140.99 227.54,-142.11"/>
</g>
<!-- Node4&#45;&gt;Node5 -->
<g id="edge4" class="edge">
<title>Node4&#45;&gt;Node5</title>
<path fill="none" stroke="midnightblue" d="M493.22,-225.03C496.36,-224.67 499.47,-224.32 502.5,-224 698.97,-203.32 933.27,-188.28 1037.22,-182.1"/>
<polygon fill="midnightblue" stroke="midnightblue" points="1037.68,-185.58 1047.46,-181.5 1037.27,-178.6 1037.68,-185.58"/>
</g>
<!-- Node10 -->
<g id="node10" class="node">
<title>Node10</title>
<g id="a_node10"><a xlink:title=" ">
<polygon fill="white" stroke="#bfbfbf" points="382,-168.5 382,-187.5 515,-187.5 515,-168.5 382,-168.5"/>
<text text-anchor="middle" x="448.5" y="-175.5" font-family="Helvetica,sans-Serif" font-size="10.00">stk_mesh/base/Part.hpp</text>
</a>
</g>
</g>
<!-- Node4&#45;&gt;Node10 -->
<g id="edge9" class="edge">
<title>Node4&#45;&gt;Node10</title>
<path fill="none" stroke="midnightblue" d="M437.65,-224.08C439.37,-216.93 441.85,-206.64 444,-197.69"/>
<polygon fill="midnightblue" stroke="midnightblue" points="447.46,-198.29 446.39,-187.75 440.65,-196.65 447.46,-198.29"/>
</g>
<!-- Node6 -->
<g id="node6" class="node">
<title>Node6</title>
<g id="a_node6"><a xlink:title=" ">
<polygon fill="white" stroke="#bfbfbf" points="763,-112.5 763,-131.5 924,-131.5 924,-112.5 763,-112.5"/>
<text text-anchor="middle" x="843.5" y="-119.5" font-family="Helvetica,sans-Serif" font-size="10.00">stk_mesh/base/FieldBase.hpp</text>
</a>
</g>
</g>
<!-- Node5&#45;&gt;Node6 -->
<g id="edge5" class="edge">
<title>Node5&#45;&gt;Node6</title>
<path fill="none" stroke="midnightblue" d="M1052.2,-168.44C1008.94,-159.02 939.33,-143.87 892.53,-133.68"/>
<polygon fill="midnightblue" stroke="midnightblue" points="893.13,-130.22 882.61,-131.52 891.64,-137.06 893.13,-130.22"/>
</g>
<!-- Node7 -->
<g id="node7" class="node">
<title>Node7</title>
<g id="a_node7"><a xlink:title=" ">
<polygon fill="white" stroke="#bfbfbf" points="942.5,-112.5 942.5,-131.5 1076.5,-131.5 1076.5,-112.5 942.5,-112.5"/>
<text text-anchor="middle" x="1009.5" y="-119.5" font-family="Helvetica,sans-Serif" font-size="10.00">stk_mesh/base/Ngp.hpp</text>
</a>
</g>
</g>
<!-- Node5&#45;&gt;Node7 -->
<g id="edge6" class="edge">
<title>Node5&#45;&gt;Node7</title>
<path fill="none" stroke="midnightblue" d="M1078.33,-168.32C1065.65,-159.98 1046.27,-147.21 1031.29,-137.35"/>
<polygon fill="midnightblue" stroke="midnightblue" points="1032.92,-134.23 1022.64,-131.65 1029.07,-140.08 1032.92,-134.23"/>
</g>
<!-- Node8 -->
<g id="node8" class="node">
<title>Node8</title>
<g id="a_node8"><a xlink:title=" ">
<polygon fill="white" stroke="#bfbfbf" points="1095,-112.5 1095,-131.5 1252,-131.5 1252,-112.5 1095,-112.5"/>
<text text-anchor="middle" x="1173.5" y="-119.5" font-family="Helvetica,sans-Serif" font-size="10.00">stk_mesh/base/NgpField.hpp</text>
</a>
</g>
</g>
<!-- Node5&#45;&gt;Node8 -->
<g id="edge7" class="edge">
<title>Node5&#45;&gt;Node8</title>
<path fill="none" stroke="midnightblue" d="M1104.67,-168.32C1117.35,-159.98 1136.73,-147.21 1151.71,-137.35"/>
<polygon fill="midnightblue" stroke="midnightblue" points="1153.93,-140.08 1160.36,-131.65 1150.08,-134.23 1153.93,-140.08"/>
</g>
<!-- Node9 -->
<g id="node9" class="node">
<title>Node9</title>
<g id="a_node9"><a xlink:title=" ">
<polygon fill="white" stroke="#bfbfbf" points="1270,-112.5 1270,-131.5 1335,-131.5 1335,-112.5 1270,-112.5"/>
<text text-anchor="middle" x="1302.5" y="-119.5" font-family="Helvetica,sans-Serif" font-size="10.00">functional</text>
</a>
</g>
</g>
<!-- Node5&#45;&gt;Node9 -->
<g id="edge8" class="edge">
<title>Node5&#45;&gt;Node9</title>
<path fill="none" stroke="midnightblue" d="M1124.93,-168.44C1161.49,-159.09 1220.17,-144.07 1259.98,-133.88"/>
<polygon fill="midnightblue" stroke="midnightblue" points="1261.1,-137.21 1269.92,-131.34 1259.36,-130.43 1261.1,-137.21"/>
</g>
<!-- Node19&#45;&gt;Node20 -->
<g id="edge20" class="edge">
<title>Node19&#45;&gt;Node20</title>
<path fill="none" stroke="midnightblue" d="M301.22,-224.37C288.02,-206.22 257.17,-163.8 239.86,-139.99"/>
<polygon fill="midnightblue" stroke="midnightblue" points="242.46,-137.62 233.75,-131.59 236.8,-141.74 242.46,-137.62"/>
</g>
<!-- Node28 -->
<g id="node28" class="node">
<title>Node28</title>
<g id="a_node28"><a xlink:href="tensor_8h.html" target="_top" xlink:title=" ">
<polygon fill="white" stroke="black" points="293.5,-168.5 293.5,-187.5 363.5,-187.5 363.5,-168.5 293.5,-168.5"/>
<text text-anchor="middle" x="328.5" y="-175.5" font-family="Helvetica,sans-Serif" font-size="10.00">vs/tensor.h</text>
</a>
</g>
</g>
<!-- Node19&#45;&gt;Node28 -->
<g id="edge29" class="edge">
<title>Node19&#45;&gt;Node28</title>
<path fill="none" stroke="midnightblue" d="M310.97,-224.08C313.81,-216.77 317.93,-206.18 321.46,-197.1"/>
<polygon fill="midnightblue" stroke="midnightblue" points="324.73,-198.34 325.1,-187.75 318.21,-195.8 324.73,-198.34"/>
</g>
<!-- Node21 -->
<g id="node21" class="node">
<title>Node21</title>
<g id="a_node21"><a xlink:title=" ">
<polygon fill="white" stroke="#bfbfbf" points="302.5,-0.5 302.5,-19.5 402.5,-19.5 402.5,-0.5 302.5,-0.5"/>
<text text-anchor="middle" x="352.5" y="-7.5" font-family="Helvetica,sans-Serif" font-size="10.00">Kokkos_Core.hpp</text>
</a>
</g>
</g>
<!-- Node20&#45;&gt;Node21 -->
<g id="edge21" class="edge">
<title>Node20&#45;&gt;Node21</title>
<path fill="none" stroke="midnightblue" d="M226.31,-112.36C224.95,-98.8 224.37,-72.4 237.5,-56 251.21,-38.88 272.33,-28.26 292.74,-21.67"/>
<polygon fill="midnightblue" stroke="midnightblue" points="293.75,-25.02 302.35,-18.84 291.77,-18.31 293.75,-25.02"/>
</g>
<!-- Node22 -->
<g id="node22" class="node">
<title>Node22</title>
<g id="a_node22"><a xlink:href="vstraits_8h.html" target="_top" xlink:title=" ">
<polygon fill="white" stroke="black" points="247,-56.5 247,-75.5 324,-75.5 324,-56.5 247,-56.5"/>
<text text-anchor="middle" x="285.5" y="-63.5" font-family="Helvetica,sans-Serif" font-size="10.00">vs/vstraits.h</text>
</a>
</g>
</g>
<!-- Node20&#45;&gt;Node22 -->
<g id="edge22" class="edge">
<title>Node20&#45;&gt;Node22</title>
<path fill="none" stroke="midnightblue" d="M236.82,-112.32C245.39,-104.34 258.31,-92.31 268.69,-82.65"/>
<polygon fill="midnightblue" stroke="midnightblue" points="271.08,-85.21 276.01,-75.83 266.31,-80.09 271.08,-85.21"/>
</g>
<!-- Node24 -->
<g id="node24" class="node">
<title>Node24</title>
<g id="a_node24"><a xlink:href="vector_i_8h.html" target="_top" xlink:title=" ">
<polygon fill="white" stroke="black" points="116.5,-56.5 116.5,-75.5 190.5,-75.5 190.5,-56.5 116.5,-56.5"/>
<text text-anchor="middle" x="153.5" y="-63.5" font-family="Helvetica,sans-Serif" font-size="10.00">vs/vectorI.h</text>
</a>
</g>
</g>
<!-- Node20&#45;&gt;Node24 -->
<g id="edge24" class="edge">
<title>Node20&#45;&gt;Node24</title>
<path fill="none" stroke="midnightblue" d="M210.5,-112.32C197.7,-104.26 180.66,-92.08 168.4,-82.37"/>
<polygon fill="midnightblue" stroke="midnightblue" points="170.4,-79.48 160.46,-75.83 165.96,-84.89 170.4,-79.48"/>
</g>
<!-- Node23 -->
<g id="node23" class="node">
<title>Node23</title>
<g id="a_node23"><a xlink:title=" ">
<polygon fill="white" stroke="#bfbfbf" points="240.5,-0.5 240.5,-19.5 284.5,-19.5 284.5,-0.5 240.5,-0.5"/>
<text text-anchor="middle" x="262.5" y="-7.5" font-family="Helvetica,sans-Serif" font-size="10.00">limits</text>
</a>
</g>
</g>
<!-- Node22&#45;&gt;Node23 -->
<g id="edge23" class="edge">
<title>Node22&#45;&gt;Node23</title>
<path fill="none" stroke="midnightblue" d="M281.7,-56.08C278.59,-48.77 274.08,-38.18 270.21,-29.1"/>
<polygon fill="midnightblue" stroke="midnightblue" points="273.37,-27.58 266.23,-19.75 266.93,-30.32 273.37,-27.58"/>
</g>
<!-- Node24&#45;&gt;Node20 -->
<g id="edge28" class="edge">
<title>Node24&#45;&gt;Node20</title>
<path fill="none" stroke="midnightblue" d="M170.47,-75.65C183.33,-83.76 200.51,-96.04 212.78,-105.78"/>
<polygon fill="midnightblue" stroke="midnightblue" points="210.78,-108.66 220.73,-112.32 215.23,-103.26 210.78,-108.66"/>
</g>
<!-- Node25 -->
<g id="node25" class="node">
<title>Node25</title>
<g id="a_node25"><a xlink:title=" ">
<polygon fill="white" stroke="#bfbfbf" points="145,-0.5 145,-19.5 202,-19.5 202,-0.5 145,-0.5"/>
<text text-anchor="middle" x="173.5" y="-7.5" font-family="Helvetica,sans-Serif" font-size="10.00">ostream</text>
</a>
</g>
</g>
<!-- Node24&#45;&gt;Node25 -->
<g id="edge25" class="edge">
<title>Node24&#45;&gt;Node25</title>
<path fill="none" stroke="midnightblue" d="M156.8,-56.08C159.48,-48.85 163.35,-38.41 166.69,-29.4"/>
<polygon fill="midnightblue" stroke="midnightblue" points="170.07,-30.34 170.26,-19.75 163.5,-27.91 170.07,-30.34"/>
</g>
<!-- Node26 -->
<g id="node26" class="node">
<title>Node26</title>
<g id="a_node26"><a xlink:title=" ">
<polygon fill="white" stroke="#bfbfbf" points="421,-0.5 421,-19.5 468,-19.5 468,-0.5 421,-0.5"/>
<text text-anchor="middle" x="444.5" y="-7.5" font-family="Helvetica,sans-Serif" font-size="10.00">cmath</text>
</a>
</g>
</g>
<!-- Node24&#45;&gt;Node26 -->
<g id="edge26" class="edge">
<title>Node24&#45;&gt;Node26</title>
<path fill="none" stroke="midnightblue" d="M190.89,-59.6C239.35,-52.36 326.64,-38.48 410.79,-19.98"/>
<polygon fill="midnightblue" stroke="midnightblue" points="411.77,-23.34 420.77,-17.76 410.25,-16.51 411.77,-23.34"/>
</g>
<!-- Node27 -->
<g id="node27" class="node">
<title>Node27</title>
<g id="a_node27"><a xlink:title=" ">
<polygon fill="white" stroke="#bfbfbf" points="0,-0.5 0,-19.5 127,-19.5 127,-0.5 0,-0.5"/>
<text text-anchor="middle" x="63.5" y="-7.5" font-family="Helvetica,sans-Serif" font-size="10.00">stk_math/StkMath.hpp</text>
</a>
</g>
</g>
<!-- Node24&#45;&gt;Node27 -->
<g id="edge27" class="edge">
<title>Node24&#45;&gt;Node27</title>
<path fill="none" stroke="midnightblue" d="M139.04,-56.32C125,-47.9 103.45,-34.97 86.96,-25.07"/>
<polygon fill="midnightblue" stroke="midnightblue" points="88.3,-21.8 77.92,-19.65 84.7,-27.8 88.3,-21.8"/>
</g>
<!-- Node28&#45;&gt;Node20 -->
<g id="edge32" class="edge">
<title>Node28&#45;&gt;Node20</title>
<path fill="none" stroke="midnightblue" d="M312.27,-168.32C296.15,-159.7 271.2,-146.36 252.54,-136.39"/>
<polygon fill="midnightblue" stroke="midnightblue" points="254.16,-133.28 243.69,-131.65 250.86,-139.46 254.16,-133.28"/>
</g>
<!-- Node28&#45;&gt;Node21 -->
<g id="edge30" class="edge">
<title>Node28&#45;&gt;Node21</title>
<path fill="none" stroke="midnightblue" d="M329.79,-168.08C333.57,-141.95 344.66,-65.21 349.81,-29.58"/>
<polygon fill="midnightblue" stroke="midnightblue" points="353.29,-29.97 351.26,-19.57 346.37,-28.96 353.29,-29.97"/>
</g>
<!-- Node28&#45;&gt;Node22 -->
<g id="edge31" class="edge">
<title>Node28&#45;&gt;Node22</title>
<path fill="none" stroke="midnightblue" d="M325.13,-168.37C318.12,-150.46 301.89,-108.92 292.52,-84.95"/>
<polygon fill="midnightblue" stroke="midnightblue" points="295.76,-83.63 288.86,-75.59 289.24,-86.18 295.76,-83.63"/>
</g>
<!-- Node29 -->
<g id="node29" class="node">
<title>Node29</title>
<g id="a_node29"><a xlink:href="tensor_i_8h.html" target="_top" xlink:title=" ">
<polygon fill="white" stroke="black" points="381.5,-112.5 381.5,-131.5 455.5,-131.5 455.5,-112.5 381.5,-112.5"/>
<text text-anchor="middle" x="418.5" y="-119.5" font-family="Helvetica,sans-Serif" font-size="10.00">vs/tensorI.h</text>
</a>
</g>
</g>
<!-- Node28&#45;&gt;Node29 -->
<g id="edge33" class="edge">
<title>Node28&#45;&gt;Node29</title>
<path fill="none" stroke="midnightblue" d="M337.85,-168.32C350.29,-159.74 372.11,-146.49 390.02,-136.52"/>
<polygon fill="midnightblue" stroke="midnightblue" points="391.86,-139.51 398.97,-131.65 388.51,-133.36 391.86,-139.51"/>
</g>
<!-- Node29&#45;&gt;Node26 -->
<g id="edge34" class="edge">
<title>Node29&#45;&gt;Node26</title>
<path fill="none" stroke="midnightblue" d="M433.45,-112.47C445.43,-104.7 461.37,-92 468.5,-76 475.66,-59.93 466.8,-41.01 457.9,-27.74"/>
<polygon fill="midnightblue" stroke="midnightblue" points="460.65,-25.56 451.92,-19.55 454.99,-29.69 460.65,-25.56"/>
</g>
<!-- Node29&#45;&gt;Node28 -->
<g id="edge35" class="edge">
<title>Node29&#45;&gt;Node28</title>
<path fill="none" stroke="midnightblue" d="M409.19,-131.65C396.76,-140.23 374.94,-153.48 357.02,-163.45"/>
<polygon fill="midnightblue" stroke="midnightblue" points="355.18,-160.47 348.07,-168.32 358.53,-166.62 355.18,-160.47"/>
</g>
<!-- Node30 -->
<g id="node30" class="node">
<title>Node30</title>
<g id="a_node30"><a xlink:href="trig__ops_8h.html" target="_top" xlink:title="Trigonometric utilities.">
<polygon fill="white" stroke="black" points="381,-56.5 381,-75.5 460,-75.5 460,-56.5 381,-56.5"/>
<text text-anchor="middle" x="420.5" y="-63.5" font-family="Helvetica,sans-Serif" font-size="10.00">vs/trig_ops.h</text>
</a>
</g>
</g>
<!-- Node29&#45;&gt;Node30 -->
<g id="edge36" class="edge">
<title>Node29&#45;&gt;Node30</title>
<path fill="none" stroke="midnightblue" d="M418.83,-112.08C419.09,-105.01 419.47,-94.86 419.8,-85.99"/>
<polygon fill="midnightblue" stroke="midnightblue" points="423.3,-85.87 420.18,-75.75 416.31,-85.61 423.3,-85.87"/>
</g>
<!-- Node30&#45;&gt;Node21 -->
<g id="edge38" class="edge">
<title>Node30&#45;&gt;Node21</title>
<path fill="none" stroke="midnightblue" d="M409.57,-56.32C399.33,-48.18 383.78,-35.84 371.5,-26.09"/>
<polygon fill="midnightblue" stroke="midnightblue" points="373.63,-23.31 363.62,-19.83 369.28,-28.79 373.63,-23.31"/>
</g>
<!-- Node30&#45;&gt;Node26 -->
<g id="edge37" class="edge">
<title>Node30&#45;&gt;Node26</title>
<path fill="none" stroke="midnightblue" d="M424.46,-56.08C427.71,-48.77 432.42,-38.18 436.45,-29.1"/>
<polygon fill="midnightblue" stroke="midnightblue" points="439.75,-30.31 440.61,-19.75 433.35,-27.47 439.75,-30.31"/>
</g>
</g>
</svg>
        <g id="navigator" transform="translate(0 0)" fill="#404254">
                <rect fill="#f2f5e9" fill-opacity="0.5" stroke="#606060" stroke-width=".5" x="0" y="0" width="60" height="60"/>
                <use id="zoomplus" xlink:href="#zoomPlus" x="17" y="9" onmousedown="handleZoom(evt,'in')"/>
                <use id="zoomminus" xlink:href="#zoomMin" x="42" y="9" onmousedown="handleZoom(evt,'out')"/>
                <use id="reset" xlink:href="#resetDef" x="30" y="36" onmousedown="handleReset()"/>
                <g id="arrowUp" xlink:href="#dirArrow" transform="translate(30 24)" onmousedown="handlePan(0,-1)">
                  <use xlink:href="#rim" fill="#404040">
                        <set attributeName="fill" to="#808080" begin="arrowUp.mouseover" end="arrowUp.mouseout"/>
                  </use>
                  <path fill="none" stroke="white" stroke-width="1.5" d="M0,-3.0v7 M-2.5,-0.5L0,-3.0L2.5,-0.5"/>
                </g>
                <g id="arrowRight" xlink:href="#dirArrow" transform="rotate(90) translate(36 -43)" onmousedown="handlePan(1,0)">
                  <use xlink:href="#rim" fill="#404040">
                        <set attributeName="fill" to="#808080" begin="arrowRight.mouseover" end="arrowRight.mouseout"/>
                  </use>
                  <path fill="none" stroke="white" stroke-width="1.5" d="M0,-3.0v7 M-2.5,-0.5L0,-3.0L2.5,-0.5"/>
                </g>
                <g id="arrowDown" xlink:href="#dirArrow" transform="rotate(180) translate(-30 -48)" onmousedown="handlePan(0,1)">
                  <use xlink:href="#rim" fill="#404040">
                        <set attributeName="fill" to="#808080" begin="arrowDown.mouseover" end="arrowDown.mouseout"/>
                  </use>
                  <path fill="none" stroke="white" stroke-width="1.5" d="M0,-3.0v7 M-2.5,-0.5L0,-3.0L2.5,-0.5"/>
                </g>
                <g id="arrowLeft" xlink:href="#dirArrow" transform="rotate(270) translate(-36 17)" onmousedown="handlePan(-1,0)">
                  <use xlink:href="#rim" fill="#404040">
                        <set attributeName="fill" to="#808080" begin="arrowLeft.mouseover" end="arrowLeft.mouseout"/>
                  </use>
                  <path fill="none" stroke="white" stroke-width="1.5" d="M0,-3.0v7 M-2.5,-0.5L0,-3.0L2.5,-0.5"/>
                </g>
        </g>
        <svg viewBox="0 0 15 15" width="100%" height="30px" preserveAspectRatio="xMaxYMin meet">
         <g id="arrow_out" transform="scale(0.3 0.3)">
          <a xlink:href="_openfast_f_s_i_8h__incl_org.svg" target="_base">
           <rect id="button" ry="5" rx="5" y="6" x="6" height="38" width="38"
                fill="#f2f5e9" fill-opacity="0.5" stroke="#606060" stroke-width="1.0"/>
           <path id="arrow"
             d="M 11.500037,31.436501 C 11.940474,20.09759 22.043105,11.32322 32.158766,21.979434 L 37.068811,17.246167 C 37.068811,17.246167 37.088388,32 37.088388,32 L 22.160133,31.978069 C 22.160133,31.978069 26.997745,27.140456 26.997745,27.140456 C 18.528582,18.264221 13.291696,25.230495 11.500037,31.436501 z"
             style="fill:#404040;"/>
          </a>
         </g>
        </svg>
</svg>
