<?xml version="1.0" encoding="UTF-8" standalone="no"?>
<!DOCTYPE svg PUBLIC "-//W3C//DTD SVG 1.1//EN"
 "http://www.w3.org/Graphics/SVG/1.1/DTD/svg11.dtd">
<!-- Generated by graphviz version 2.43.0 (0)
 -->
<!-- Title: OutputInfo.C Pages: 1 -->
<!--zoomable 252 -->
<svg id="main" version="1.1" xmlns="http://www.w3.org/2000/svg" xmlns:xlink="http://www.w3.org/1999/xlink" xml:space="preserve" onload="init(evt)">
<style type="text/css"><![CDATA[
.edge:hover path { stroke: red; }
.edge:hover polygon { stroke: red; fill: red; }
]]></style>
<script type="text/javascript"><![CDATA[
var edges = document.getElementsByTagName('g');
if (edges && edges.length) {
  for (var i=0;i<edges.length;i++) {
    if (edges[i].id.substr(0,4)=='edge') {
      edges[i].setAttribute('class','edge');
    }
  }
}
]]></script>
        <defs>
                <circle id="rim" cx="0" cy="0" r="7"/>
                <circle id="rim2" cx="0" cy="0" r="3.5"/>
                <g id="zoomPlus">
                        <use xlink:href="#rim" fill="#404040">
                                <set attributeName="fill" to="#808080" begin="zoomplus.mouseover" end="zoomplus.mouseout"/>
                        </use>
                        <path d="M-4,0h8M0,-4v8" fill="none" stroke="white" stroke-width="1.5" pointer-events="none"/>
                </g>
                <g id="zoomMin">
                        <use xlink:href="#rim" fill="#404040">
                                <set attributeName="fill" to="#808080" begin="zoomminus.mouseover" end="zoomminus.mouseout"/>
                        </use>
                        <path d="M-4,0h8" fill="none" stroke="white" stroke-width="1.5" pointer-events="none"/>
                </g>
                <g id="dirArrow">
                        <path fill="none" stroke="white" stroke-width="1.5" d="M0,-3.0v7 M-2.5,-0.5L0,-3.0L2.5,-0.5"/>
                </g>
               <g id="resetDef">
                       <use xlink:href="#rim2" fill="#404040">
                               <set attributeName="fill" to="#808080" begin="reset.mouseover" end="reset.mouseout"/>
                       </use>
               </g>
        </defs>

<script type="text/javascript">
var viewWidth = 1135;
var viewHeight = 252;
var sectionId = 'dynsection-0';
</script>
<script xlink:href="svgpan.js"/>
<svg id="graph" class="graph">
<g id="viewport">
<title>OutputInfo.C</title>
<polygon fill="white" stroke="transparent" points="-4,4 -4,-248 1130.5,-248 1130.5,4 -4,4"/>
<!-- Node1 -->
<g id="node1" class="node">
<title>Node1</title>
<g id="a_node1"><a xlink:title=" ">
<polygon fill="#bfbfbf" stroke="black" points="734,-224.5 734,-243.5 812,-243.5 812,-224.5 734,-224.5"/>
<text text-anchor="middle" x="773" y="-231.5" font-family="Helvetica,sans-Serif" font-size="10.00">OutputInfo.C</text>
</a>
</g>
</g>
<!-- Node2 -->
<g id="node2" class="node">
<title>Node2</title>
<g id="a_node2"><a xlink:href="_output_info_8h.html" target="_top" xlink:title=" ">
<polygon fill="white" stroke="black" points="21.5,-168.5 21.5,-187.5 98.5,-187.5 98.5,-168.5 21.5,-168.5"/>
<text text-anchor="middle" x="60" y="-175.5" font-family="Helvetica,sans-Serif" font-size="10.00">OutputInfo.h</text>
</a>
</g>
</g>
<!-- Node1&#45;&gt;Node2 -->
<g id="edge1" class="edge">
<title>Node1&#45;&gt;Node2</title>
<path fill="none" stroke="midnightblue" d="M733.91,-230.04C612.67,-220.86 243.18,-192.87 109.19,-182.73"/>
<polygon fill="midnightblue" stroke="midnightblue" points="109.07,-179.21 98.83,-181.94 108.54,-186.19 109.07,-179.21"/>
</g>
<!-- Node5 -->
<g id="node5" class="node">
<title>Node5</title>
<g id="a_node5"><a xlink:href="_nalu_env_8h.html" target="_top" xlink:title=" ">
<polygon fill="white" stroke="black" points="973.5,-112.5 973.5,-131.5 1038.5,-131.5 1038.5,-112.5 973.5,-112.5"/>
<text text-anchor="middle" x="1006" y="-119.5" font-family="Helvetica,sans-Serif" font-size="10.00">NaluEnv.h</text>
</a>
</g>
</g>
<!-- Node1&#45;&gt;Node5 -->
<g id="edge4" class="edge">
<title>Node1&#45;&gt;Node5</title>
<path fill="none" stroke="midnightblue" d="M763.71,-224.13C750.8,-210.72 730.56,-185.07 745,-168 776.14,-131.18 911.54,-140.54 959,-132 960.46,-131.74 961.94,-131.47 963.43,-131.2"/>
<polygon fill="midnightblue" stroke="midnightblue" points="964.21,-134.61 973.4,-129.34 962.93,-127.73 964.21,-134.61"/>
</g>
<!-- Node9 -->
<g id="node9" class="node">
<title>Node9</title>
<g id="a_node9"><a xlink:href="_nalu_parsing_8h.html" target="_top" xlink:title=" ">
<polygon fill="white" stroke="black" points="614.5,-168.5 614.5,-187.5 697.5,-187.5 697.5,-168.5 614.5,-168.5"/>
<text text-anchor="middle" x="656" y="-175.5" font-family="Helvetica,sans-Serif" font-size="10.00">NaluParsing.h</text>
</a>
</g>
</g>
<!-- Node1&#45;&gt;Node9 -->
<g id="edge8" class="edge">
<title>Node1&#45;&gt;Node9</title>
<path fill="none" stroke="midnightblue" d="M754.46,-224.44C735.38,-215.64 705.43,-201.81 683.56,-191.72"/>
<polygon fill="midnightblue" stroke="midnightblue" points="685,-188.53 674.45,-187.52 682.07,-194.88 685,-188.53"/>
</g>
<!-- Node21 -->
<g id="node21" class="node">
<title>Node21</title>
<g id="a_node21"><a xlink:title=" ">
<polygon fill="white" stroke="#bfbfbf" points="754,-168.5 754,-187.5 888,-187.5 888,-168.5 754,-168.5"/>
<text text-anchor="middle" x="821" y="-175.5" font-family="Helvetica,sans-Serif" font-size="10.00">Ioss_PropertyManager.h</text>
</a>
</g>
</g>
<!-- Node1&#45;&gt;Node21 -->
<g id="edge44" class="edge">
<title>Node1&#45;&gt;Node21</title>
<path fill="none" stroke="midnightblue" d="M780.93,-224.08C787.85,-216.3 798.07,-204.8 806.45,-195.37"/>
<polygon fill="midnightblue" stroke="midnightblue" points="809.19,-197.55 813.22,-187.75 803.96,-192.9 809.19,-197.55"/>
</g>
<!-- Node22 -->
<g id="node22" class="node">
<title>Node22</title>
<g id="a_node22"><a xlink:title=" ">
<polygon fill="white" stroke="#bfbfbf" points="906,-168.5 906,-187.5 996,-187.5 996,-168.5 906,-168.5"/>
<text text-anchor="middle" x="951" y="-175.5" font-family="Helvetica,sans-Serif" font-size="10.00">Ioss_Property.h</text>
</a>
</g>
</g>
<!-- Node1&#45;&gt;Node22 -->
<g id="edge45" class="edge">
<title>Node1&#45;&gt;Node22</title>
<path fill="none" stroke="midnightblue" d="M801.2,-224.44C831.41,-215.28 879.51,-200.69 913.03,-190.52"/>
<polygon fill="midnightblue" stroke="midnightblue" points="914.37,-193.77 922.93,-187.52 912.34,-187.07 914.37,-193.77"/>
</g>
<!-- Node23 -->
<g id="node23" class="node">
<title>Node23</title>
<g id="a_node23"><a xlink:title=" ">
<polygon fill="white" stroke="#bfbfbf" points="1014.5,-168.5 1014.5,-187.5 1079.5,-187.5 1079.5,-168.5 1014.5,-168.5"/>
<text text-anchor="middle" x="1047" y="-175.5" font-family="Helvetica,sans-Serif" font-size="10.00">stdexcept</text>
</a>
</g>
</g>
<!-- Node1&#45;&gt;Node23 -->
<g id="edge46" class="edge">
<title>Node1&#45;&gt;Node23</title>
<path fill="none" stroke="midnightblue" d="M812.04,-225.67C856.2,-217.32 930.53,-203.11 1004.5,-188.07"/>
<polygon fill="midnightblue" stroke="midnightblue" points="1005.35,-191.47 1014.45,-186.04 1003.96,-184.61 1005.35,-191.47"/>
</g>
<!-- Node3 -->
<g id="node3" class="node">
<title>Node3</title>
<g id="a_node3"><a xlink:title=" ">
<polygon fill="white" stroke="#bfbfbf" points="371,-0.5 371,-19.5 415,-19.5 415,-0.5 371,-0.5"/>
<text text-anchor="middle" x="393" y="-7.5" font-family="Helvetica,sans-Serif" font-size="10.00">string</text>
</a>
</g>
</g>
<!-- Node2&#45;&gt;Node3 -->
<g id="edge2" class="edge">
<title>Node2&#45;&gt;Node3</title>
<path fill="none" stroke="midnightblue" d="M60.81,-168.27C62.41,-155.06 66.91,-129.66 79,-112 102.1,-78.26 114.65,-72.65 152,-56 170.88,-47.58 299.88,-26.03 361,-16.12"/>
<polygon fill="midnightblue" stroke="midnightblue" points="361.58,-19.57 370.9,-14.52 360.47,-12.66 361.58,-19.57"/>
</g>
<!-- Node4 -->
<g id="node4" class="node">
<title>Node4</title>
<g id="a_node4"><a xlink:title=" ">
<polygon fill="white" stroke="#bfbfbf" points="0,-112.5 0,-131.5 32,-131.5 32,-112.5 0,-112.5"/>
<text text-anchor="middle" x="16" y="-119.5" font-family="Helvetica,sans-Serif" font-size="10.00">set</text>
</a>
</g>
</g>
<!-- Node2&#45;&gt;Node4 -->
<g id="edge3" class="edge">
<title>Node2&#45;&gt;Node4</title>
<path fill="none" stroke="midnightblue" d="M52.73,-168.08C46.46,-160.38 37.21,-149.03 29.57,-139.65"/>
<polygon fill="midnightblue" stroke="midnightblue" points="32.16,-137.29 23.13,-131.75 26.73,-141.71 32.16,-137.29"/>
</g>
<!-- Node6 -->
<g id="node6" class="node">
<title>Node6</title>
<g id="a_node6"><a xlink:title=" ">
<polygon fill="white" stroke="#bfbfbf" points="997,-56.5 997,-75.5 1041,-75.5 1041,-56.5 997,-56.5"/>
<text text-anchor="middle" x="1019" y="-63.5" font-family="Helvetica,sans-Serif" font-size="10.00">mpi.h</text>
</a>
</g>
</g>
<!-- Node5&#45;&gt;Node6 -->
<g id="edge5" class="edge">
<title>Node5&#45;&gt;Node6</title>
<path fill="none" stroke="midnightblue" d="M1008.15,-112.08C1009.87,-104.93 1012.35,-94.64 1014.5,-85.69"/>
<polygon fill="midnightblue" stroke="midnightblue" points="1017.96,-86.29 1016.89,-75.75 1011.15,-84.65 1017.96,-86.29"/>
</g>
<!-- Node7 -->
<g id="node7" class="node">
<title>Node7</title>
<g id="a_node7"><a xlink:title=" ">
<polygon fill="white" stroke="#bfbfbf" points="923.5,-56.5 923.5,-75.5 978.5,-75.5 978.5,-56.5 923.5,-56.5"/>
<text text-anchor="middle" x="951" y="-63.5" font-family="Helvetica,sans-Serif" font-size="10.00">fstream</text>
</a>
</g>
</g>
<!-- Node5&#45;&gt;Node7 -->
<g id="edge6" class="edge">
<title>Node5&#45;&gt;Node7</title>
<path fill="none" stroke="midnightblue" d="M996.92,-112.08C988.83,-104.14 976.8,-92.34 967.09,-82.8"/>
<polygon fill="midnightblue" stroke="midnightblue" points="969.5,-80.26 959.91,-75.75 964.6,-85.25 969.5,-80.26"/>
</g>
<!-- Node8 -->
<g id="node8" class="node">
<title>Node8</title>
<g id="a_node8"><a xlink:title=" ">
<polygon fill="white" stroke="#bfbfbf" points="1059.5,-56.5 1059.5,-75.5 1126.5,-75.5 1126.5,-56.5 1059.5,-56.5"/>
<text text-anchor="middle" x="1093" y="-63.5" font-family="Helvetica,sans-Serif" font-size="10.00">streambuf</text>
</a>
</g>
</g>
<!-- Node5&#45;&gt;Node8 -->
<g id="edge7" class="edge">
<title>Node5&#45;&gt;Node8</title>
<path fill="none" stroke="midnightblue" d="M1019.98,-112.32C1033.55,-103.9 1054.38,-90.97 1070.32,-81.07"/>
<polygon fill="midnightblue" stroke="midnightblue" points="1072.41,-83.9 1079.06,-75.65 1068.71,-77.95 1072.41,-83.9"/>
</g>
<!-- Node9&#45;&gt;Node3 -->
<g id="edge42" class="edge">
<title>Node9&#45;&gt;Node3</title>
<path fill="none" stroke="midnightblue" d="M663.52,-168.11C673.54,-155.13 688.8,-130.52 678,-112 626.5,-23.7 488.44,-11.29 425.31,-10.41"/>
<polygon fill="midnightblue" stroke="midnightblue" points="425.15,-6.91 415.13,-10.36 425.12,-13.91 425.15,-6.91"/>
</g>
<!-- Node9&#45;&gt;Node5 -->
<g id="edge38" class="edge">
<title>Node9&#45;&gt;Node5</title>
<path fill="none" stroke="midnightblue" d="M697.58,-170.25C702.44,-169.48 707.33,-168.72 712,-168 821.66,-151.2 849.61,-150.44 959,-132 960.46,-131.75 961.94,-131.5 963.44,-131.24"/>
<polygon fill="midnightblue" stroke="midnightblue" points="964.2,-134.66 973.42,-129.43 962.95,-127.77 964.2,-134.66"/>
</g>
<!-- Node9&#45;&gt;Node7 -->
<g id="edge41" class="edge">
<title>Node9&#45;&gt;Node7</title>
<path fill="none" stroke="midnightblue" d="M697.54,-171.24C763.8,-161.8 887.74,-142.98 905,-132 922.62,-120.78 935.47,-100.16 943.04,-85.14"/>
<polygon fill="midnightblue" stroke="midnightblue" points="946.33,-86.36 947.43,-75.82 940,-83.38 946.33,-86.36"/>
</g>
<!-- Node10 -->
<g id="node10" class="node">
<title>Node10</title>
<g id="a_node10"><a xlink:href="_boundary_conditions_8h.html" target="_top" xlink:title=" ">
<polygon fill="white" stroke="black" points="88,-112.5 88,-131.5 212,-131.5 212,-112.5 88,-112.5"/>
<text text-anchor="middle" x="150" y="-119.5" font-family="Helvetica,sans-Serif" font-size="10.00">BoundaryConditions.h</text>
</a>
</g>
</g>
<!-- Node9&#45;&gt;Node10 -->
<g id="edge9" class="edge">
<title>Node9&#45;&gt;Node10</title>
<path fill="none" stroke="midnightblue" d="M614.47,-172.84C537.72,-165.12 368.48,-147.89 226,-132 224.74,-131.86 223.46,-131.72 222.18,-131.57"/>
<polygon fill="midnightblue" stroke="midnightblue" points="222.54,-128.09 212.21,-130.44 221.75,-135.05 222.54,-128.09"/>
</g>
<!-- Node11 -->
<g id="node11" class="node">
<title>Node11</title>
<g id="a_node11"><a xlink:href="_enums_8h.html" target="_top" xlink:title=" ">
<polygon fill="white" stroke="black" points="291.5,-56.5 291.5,-75.5 350.5,-75.5 350.5,-56.5 291.5,-56.5"/>
<text text-anchor="middle" x="321" y="-63.5" font-family="Helvetica,sans-Serif" font-size="10.00">Enums.h</text>
</a>
</g>
</g>
<!-- Node9&#45;&gt;Node11 -->
<g id="edge17" class="edge">
<title>Node9&#45;&gt;Node11</title>
<path fill="none" stroke="midnightblue" d="M614.3,-175.36C517.18,-171.1 282.39,-158.19 259,-132 242.68,-113.72 269.75,-93.39 293.1,-80.42"/>
<polygon fill="midnightblue" stroke="midnightblue" points="294.89,-83.43 302.09,-75.66 291.61,-77.24 294.89,-83.43"/>
</g>
<!-- Node13 -->
<g id="node13" class="node">
<title>Node13</title>
<g id="a_node13"><a xlink:title=" ">
<polygon fill="white" stroke="#bfbfbf" points="496.5,-56.5 496.5,-75.5 543.5,-75.5 543.5,-56.5 496.5,-56.5"/>
<text text-anchor="middle" x="520" y="-63.5" font-family="Helvetica,sans-Serif" font-size="10.00">vector</text>
</a>
</g>
</g>
<!-- Node9&#45;&gt;Node13 -->
<g id="edge43" class="edge">
<title>Node9&#45;&gt;Node13</title>
<path fill="none" stroke="midnightblue" d="M620.66,-168.47C598.69,-161.65 571.09,-150.18 552,-132 538.64,-119.28 530.09,-99.81 525.22,-85.49"/>
<polygon fill="midnightblue" stroke="midnightblue" points="528.5,-84.26 522.19,-75.75 521.81,-86.33 528.5,-84.26"/>
</g>
<!-- Node15 -->
<g id="node15" class="node">
<title>Node15</title>
<g id="a_node15"><a xlink:href="_initial_conditions_8h.html" target="_top" xlink:title=" ">
<polygon fill="white" stroke="black" points="268.5,-112.5 268.5,-131.5 373.5,-131.5 373.5,-112.5 268.5,-112.5"/>
<text text-anchor="middle" x="321" y="-119.5" font-family="Helvetica,sans-Serif" font-size="10.00">InitialConditions.h</text>
</a>
</g>
</g>
<!-- Node9&#45;&gt;Node15 -->
<g id="edge18" class="edge">
<title>Node9&#45;&gt;Node15</title>
<path fill="none" stroke="midnightblue" d="M614.25,-170.27C556.36,-160.94 451.24,-143.99 383.84,-133.13"/>
<polygon fill="midnightblue" stroke="midnightblue" points="384.2,-129.64 373.77,-131.51 383.09,-136.55 384.2,-129.64"/>
</g>
<!-- Node16 -->
<g id="node16" class="node">
<title>Node16</title>
<g id="a_node16"><a xlink:href="_material_propertys_8h.html" target="_top" xlink:title=" ">
<polygon fill="white" stroke="black" points="391.5,-112.5 391.5,-131.5 504.5,-131.5 504.5,-112.5 391.5,-112.5"/>
<text text-anchor="middle" x="448" y="-119.5" font-family="Helvetica,sans-Serif" font-size="10.00">MaterialPropertys.h</text>
</a>
</g>
</g>
<!-- Node9&#45;&gt;Node16 -->
<g id="edge24" class="edge">
<title>Node9&#45;&gt;Node16</title>
<path fill="none" stroke="midnightblue" d="M623.04,-168.44C587.21,-159.14 529.84,-144.25 490.61,-134.06"/>
<polygon fill="midnightblue" stroke="midnightblue" points="491.36,-130.64 480.8,-131.52 489.6,-137.42 491.36,-130.64"/>
</g>
<!-- Node17 -->
<g id="node17" class="node">
<title>Node17</title>
<g id="a_node17"><a xlink:href="_nalu_parsed_types_8h.html" target="_top" xlink:title=" ">
<polygon fill="white" stroke="black" points="561,-112.5 561,-131.5 669,-131.5 669,-112.5 561,-112.5"/>
<text text-anchor="middle" x="615" y="-119.5" font-family="Helvetica,sans-Serif" font-size="10.00">NaluParsedTypes.h</text>
</a>
</g>
</g>
<!-- Node9&#45;&gt;Node17 -->
<g id="edge29" class="edge">
<title>Node9&#45;&gt;Node17</title>
<path fill="none" stroke="midnightblue" d="M649.23,-168.08C643.44,-160.46 634.94,-149.26 627.86,-139.94"/>
<polygon fill="midnightblue" stroke="midnightblue" points="630.48,-137.6 621.64,-131.75 624.9,-141.83 630.48,-137.6"/>
</g>
<!-- Node18 -->
<g id="node18" class="node">
<title>Node18</title>
<g id="a_node18"><a xlink:href="_nalu_parsing_helper_8h.html" target="_top" xlink:title=" ">
<polygon fill="white" stroke="black" points="763.5,-112.5 763.5,-131.5 878.5,-131.5 878.5,-112.5 763.5,-112.5"/>
<text text-anchor="middle" x="821" y="-119.5" font-family="Helvetica,sans-Serif" font-size="10.00">NaluParsingHelper.h</text>
</a>
</g>
</g>
<!-- Node9&#45;&gt;Node18 -->
<g id="edge32" class="edge">
<title>Node9&#45;&gt;Node18</title>
<path fill="none" stroke="midnightblue" d="M682.14,-168.44C710.02,-159.32 754.35,-144.81 785.4,-134.65"/>
<polygon fill="midnightblue" stroke="midnightblue" points="786.56,-137.95 794.98,-131.52 784.38,-131.3 786.56,-137.95"/>
</g>
<!-- Node19 -->
<g id="node19" class="node">
<title>Node19</title>
<g id="a_node19"><a xlink:title=" ">
<polygon fill="white" stroke="#bfbfbf" points="689.5,-56.5 689.5,-75.5 788.5,-75.5 788.5,-56.5 689.5,-56.5"/>
<text text-anchor="middle" x="739" y="-63.5" font-family="Helvetica,sans-Serif" font-size="10.00">yaml&#45;cpp/yaml.h</text>
</a>
</g>
</g>
<!-- Node9&#45;&gt;Node19 -->
<g id="edge39" class="edge">
<title>Node9&#45;&gt;Node19</title>
<path fill="none" stroke="midnightblue" d="M669.79,-168.49C681.98,-160.37 699.56,-147.17 711,-132 721.62,-117.91 729.14,-99.17 733.69,-85.44"/>
<polygon fill="midnightblue" stroke="midnightblue" points="737.1,-86.26 736.71,-75.68 730.41,-84.2 737.1,-86.26"/>
</g>
<!-- Node20 -->
<g id="node20" class="node">
<title>Node20</title>
<g id="a_node20"><a xlink:title=" ">
<polygon fill="white" stroke="#bfbfbf" points="845,-56.5 845,-75.5 905,-75.5 905,-56.5 845,-56.5"/>
<text text-anchor="middle" x="875" y="-63.5" font-family="Helvetica,sans-Serif" font-size="10.00">iostream</text>
</a>
</g>
</g>
<!-- Node9&#45;&gt;Node20 -->
<g id="edge40" class="edge">
<title>Node9&#45;&gt;Node20</title>
<path fill="none" stroke="midnightblue" d="M697.54,-170.3C762.39,-159.65 880.98,-139.31 887,-132 897.91,-118.76 891.98,-98.82 885.17,-84.51"/>
<polygon fill="midnightblue" stroke="midnightblue" points="888.26,-82.88 880.5,-75.67 882.07,-86.14 888.26,-82.88"/>
</g>
<!-- Node10&#45;&gt;Node3 -->
<g id="edge14" class="edge">
<title>Node10&#45;&gt;Node3</title>
<path fill="none" stroke="midnightblue" d="M149.72,-112.4C149.78,-98.42 152.05,-70.83 168,-56 175.05,-49.44 299.85,-27.11 360.47,-16.58"/>
<polygon fill="midnightblue" stroke="midnightblue" points="361.4,-19.97 370.66,-14.82 360.21,-13.08 361.4,-19.97"/>
</g>
<!-- Node10&#45;&gt;Node11 -->
<g id="edge10" class="edge">
<title>Node10&#45;&gt;Node11</title>
<path fill="none" stroke="midnightblue" d="M177.1,-112.44C205.99,-103.32 251.92,-88.81 284.11,-78.65"/>
<polygon fill="midnightblue" stroke="midnightblue" points="285.55,-81.87 294.03,-75.52 283.44,-75.19 285.55,-81.87"/>
</g>
<!-- Node12 -->
<g id="node12" class="node">
<title>Node12</title>
<g id="a_node12"><a xlink:title=" ">
<polygon fill="white" stroke="#bfbfbf" points="287,-0.5 287,-19.5 325,-19.5 325,-0.5 287,-0.5"/>
<text text-anchor="middle" x="306" y="-7.5" font-family="Helvetica,sans-Serif" font-size="10.00">map</text>
</a>
</g>
</g>
<!-- Node10&#45;&gt;Node12 -->
<g id="edge13" class="edge">
<title>Node10&#45;&gt;Node12</title>
<path fill="none" stroke="midnightblue" d="M144.02,-112.47C135.43,-99.07 121.99,-72.88 135,-56 152.18,-33.71 232.49,-20.26 276.67,-14.43"/>
<polygon fill="midnightblue" stroke="midnightblue" points="277.33,-17.87 286.81,-13.14 276.45,-10.93 277.33,-17.87"/>
</g>
<!-- Node10&#45;&gt;Node13 -->
<g id="edge15" class="edge">
<title>Node10&#45;&gt;Node13</title>
<path fill="none" stroke="midnightblue" d="M208.63,-112.44C286.83,-101.03 422.75,-81.19 485.92,-71.97"/>
<polygon fill="midnightblue" stroke="midnightblue" points="486.74,-75.39 496.13,-70.48 485.73,-68.47 486.74,-75.39"/>
</g>
<!-- Node14 -->
<g id="node14" class="node">
<title>Node14</title>
<g id="a_node14"><a xlink:title=" ">
<polygon fill="white" stroke="#bfbfbf" points="177,-56.5 177,-75.5 235,-75.5 235,-56.5 177,-56.5"/>
<text text-anchor="middle" x="206" y="-63.5" font-family="Helvetica,sans-Serif" font-size="10.00">memory</text>
</a>
</g>
</g>
<!-- Node10&#45;&gt;Node14 -->
<g id="edge16" class="edge">
<title>Node10&#45;&gt;Node14</title>
<path fill="none" stroke="midnightblue" d="M159,-112.32C167.19,-104.42 179.51,-92.55 189.47,-82.94"/>
<polygon fill="midnightblue" stroke="midnightblue" points="192.07,-85.29 196.84,-75.83 187.21,-80.26 192.07,-85.29"/>
</g>
<!-- Node11&#45;&gt;Node3 -->
<g id="edge11" class="edge">
<title>Node11&#45;&gt;Node3</title>
<path fill="none" stroke="midnightblue" d="M332.57,-56.32C343.42,-48.18 359.88,-35.84 372.88,-26.09"/>
<polygon fill="midnightblue" stroke="midnightblue" points="375.32,-28.63 381.22,-19.83 371.12,-23.03 375.32,-28.63"/>
</g>
<!-- Node11&#45;&gt;Node12 -->
<g id="edge12" class="edge">
<title>Node11&#45;&gt;Node12</title>
<path fill="none" stroke="midnightblue" d="M318.52,-56.08C316.51,-48.85 313.61,-38.41 311.11,-29.4"/>
<polygon fill="midnightblue" stroke="midnightblue" points="314.48,-28.45 308.43,-19.75 307.74,-30.32 314.48,-28.45"/>
</g>
<!-- Node15&#45;&gt;Node3 -->
<g id="edge21" class="edge">
<title>Node15&#45;&gt;Node3</title>
<path fill="none" stroke="midnightblue" d="M329.17,-112.49C337.31,-103.76 349.88,-89.58 359,-76 369.19,-60.84 378.63,-42.26 384.97,-28.85"/>
<polygon fill="midnightblue" stroke="midnightblue" points="388.16,-30.3 389.17,-19.75 381.8,-27.37 388.16,-30.3"/>
</g>
<!-- Node15&#45;&gt;Node11 -->
<g id="edge19" class="edge">
<title>Node15&#45;&gt;Node11</title>
<path fill="none" stroke="midnightblue" d="M321,-112.08C321,-105.01 321,-94.86 321,-85.99"/>
<polygon fill="midnightblue" stroke="midnightblue" points="324.5,-85.75 321,-75.75 317.5,-85.75 324.5,-85.75"/>
</g>
<!-- Node15&#45;&gt;Node12 -->
<g id="edge20" class="edge">
<title>Node15&#45;&gt;Node12</title>
<path fill="none" stroke="midnightblue" d="M310.01,-112.37C300.55,-104.17 287.56,-90.92 282,-76 275.98,-59.86 284.21,-41.43 292.63,-28.33"/>
<polygon fill="midnightblue" stroke="midnightblue" points="295.71,-30.03 298.59,-19.84 289.98,-26.01 295.71,-30.03"/>
</g>
<!-- Node15&#45;&gt;Node13 -->
<g id="edge22" class="edge">
<title>Node15&#45;&gt;Node13</title>
<path fill="none" stroke="midnightblue" d="M352.53,-112.44C389.1,-102.52 449.12,-86.23 486.5,-76.09"/>
<polygon fill="midnightblue" stroke="midnightblue" points="487.67,-79.4 496.41,-73.4 485.84,-72.64 487.67,-79.4"/>
</g>
<!-- Node15&#45;&gt;Node14 -->
<g id="edge23" class="edge">
<title>Node15&#45;&gt;Node14</title>
<path fill="none" stroke="midnightblue" d="M302.78,-112.44C284.1,-103.68 254.84,-89.94 233.38,-79.86"/>
<polygon fill="midnightblue" stroke="midnightblue" points="234.68,-76.6 224.14,-75.52 231.7,-82.93 234.68,-76.6"/>
</g>
<!-- Node16&#45;&gt;Node3 -->
<g id="edge27" class="edge">
<title>Node16&#45;&gt;Node3</title>
<path fill="none" stroke="midnightblue" d="M446.95,-112.14C445.14,-99.2 440.67,-74.64 431,-56 425.49,-45.38 417.08,-35.07 409.57,-27"/>
<polygon fill="midnightblue" stroke="midnightblue" points="411.99,-24.47 402.5,-19.75 406.98,-29.36 411.99,-24.47"/>
</g>
<!-- Node16&#45;&gt;Node11 -->
<g id="edge25" class="edge">
<title>Node16&#45;&gt;Node11</title>
<path fill="none" stroke="midnightblue" d="M427.88,-112.44C406.98,-103.56 374.07,-89.56 350.28,-79.45"/>
<polygon fill="midnightblue" stroke="midnightblue" points="351.6,-76.21 341.03,-75.52 348.86,-82.65 351.6,-76.21"/>
</g>
<!-- Node16&#45;&gt;Node12 -->
<g id="edge26" class="edge">
<title>Node16&#45;&gt;Node12</title>
<path fill="none" stroke="midnightblue" d="M436.86,-112.37C412.7,-93.65 355.25,-49.15 325.15,-25.83"/>
<polygon fill="midnightblue" stroke="midnightblue" points="327.14,-22.95 317.09,-19.59 322.85,-28.48 327.14,-22.95"/>
</g>
<!-- Node16&#45;&gt;Node13 -->
<g id="edge28" class="edge">
<title>Node16&#45;&gt;Node13</title>
<path fill="none" stroke="midnightblue" d="M459.57,-112.32C470.42,-104.18 486.88,-91.84 499.88,-82.09"/>
<polygon fill="midnightblue" stroke="midnightblue" points="502.32,-84.63 508.22,-75.83 498.12,-79.03 502.32,-84.63"/>
</g>
<!-- Node17&#45;&gt;Node3 -->
<g id="edge30" class="edge">
<title>Node17&#45;&gt;Node3</title>
<path fill="none" stroke="midnightblue" d="M609.07,-112.44C598.98,-98.51 577.1,-70.99 552,-56 512.11,-32.17 459.05,-20.48 425.45,-15.11"/>
<polygon fill="midnightblue" stroke="midnightblue" points="425.67,-11.6 415.27,-13.58 424.63,-18.53 425.67,-11.6"/>
</g>
<!-- Node17&#45;&gt;Node13 -->
<g id="edge31" class="edge">
<title>Node17&#45;&gt;Node13</title>
<path fill="none" stroke="midnightblue" d="M599.74,-112.32C584.78,-103.82 561.75,-90.73 544.27,-80.8"/>
<polygon fill="midnightblue" stroke="midnightblue" points="545.65,-77.55 535.23,-75.65 542.19,-83.64 545.65,-77.55"/>
</g>
<!-- Node18&#45;&gt;Node3 -->
<g id="edge36" class="edge">
<title>Node18&#45;&gt;Node3</title>
<path fill="none" stroke="midnightblue" d="M820.55,-112.17C819.31,-97.85 814.62,-69.79 797,-56 739.44,-10.95 510.52,-9.34 425.24,-10.37"/>
<polygon fill="midnightblue" stroke="midnightblue" points="425.06,-6.87 415.11,-10.51 425.16,-13.87 425.06,-6.87"/>
</g>
<!-- Node18&#45;&gt;Node7 -->
<g id="edge35" class="edge">
<title>Node18&#45;&gt;Node7</title>
<path fill="none" stroke="midnightblue" d="M841.6,-112.44C862.99,-103.56 896.68,-89.56 921.02,-79.45"/>
<polygon fill="midnightblue" stroke="midnightblue" points="922.61,-82.58 930.5,-75.52 919.92,-76.12 922.61,-82.58"/>
</g>
<!-- Node18&#45;&gt;Node13 -->
<g id="edge37" class="edge">
<title>Node18&#45;&gt;Node13</title>
<path fill="none" stroke="midnightblue" d="M773.31,-112.44C712.07,-101.46 607.35,-82.67 553.76,-73.06"/>
<polygon fill="midnightblue" stroke="midnightblue" points="554.22,-69.58 543.75,-71.26 552.98,-76.47 554.22,-69.58"/>
</g>
<!-- Node18&#45;&gt;Node19 -->
<g id="edge33" class="edge">
<title>Node18&#45;&gt;Node19</title>
<path fill="none" stroke="midnightblue" d="M807.83,-112.32C795.15,-103.98 775.77,-91.21 760.79,-81.35"/>
<polygon fill="midnightblue" stroke="midnightblue" points="762.42,-78.23 752.14,-75.65 758.57,-84.08 762.42,-78.23"/>
</g>
<!-- Node18&#45;&gt;Node20 -->
<g id="edge34" class="edge">
<title>Node18&#45;&gt;Node20</title>
<path fill="none" stroke="midnightblue" d="M829.92,-112.08C837.78,-104.22 849.43,-92.57 858.92,-83.08"/>
<polygon fill="midnightblue" stroke="midnightblue" points="861.65,-85.3 866.25,-75.75 856.7,-80.35 861.65,-85.3"/>
</g>
</g>
</svg>
        <g id="navigator" transform="translate(0 0)" fill="#404254">
                <rect fill="#f2f5e9" fill-opacity="0.5" stroke="#606060" stroke-width=".5" x="0" y="0" width="60" height="60"/>
                <use id="zoomplus" xlink:href="#zoomPlus" x="17" y="9" onmousedown="handleZoom(evt,'in')"/>
                <use id="zoomminus" xlink:href="#zoomMin" x="42" y="9" onmousedown="handleZoom(evt,'out')"/>
                <use id="reset" xlink:href="#resetDef" x="30" y="36" onmousedown="handleReset()"/>
                <g id="arrowUp" xlink:href="#dirArrow" transform="translate(30 24)" onmousedown="handlePan(0,-1)">
                  <use xlink:href="#rim" fill="#404040">
                        <set attributeName="fill" to="#808080" begin="arrowUp.mouseover" end="arrowUp.mouseout"/>
                  </use>
                  <path fill="none" stroke="white" stroke-width="1.5" d="M0,-3.0v7 M-2.5,-0.5L0,-3.0L2.5,-0.5"/>
                </g>
                <g id="arrowRight" xlink:href="#dirArrow" transform="rotate(90) translate(36 -43)" onmousedown="handlePan(1,0)">
                  <use xlink:href="#rim" fill="#404040">
                        <set attributeName="fill" to="#808080" begin="arrowRight.mouseover" end="arrowRight.mouseout"/>
                  </use>
                  <path fill="none" stroke="white" stroke-width="1.5" d="M0,-3.0v7 M-2.5,-0.5L0,-3.0L2.5,-0.5"/>
                </g>
                <g id="arrowDown" xlink:href="#dirArrow" transform="rotate(180) translate(-30 -48)" onmousedown="handlePan(0,1)">
                  <use xlink:href="#rim" fill="#404040">
                        <set attributeName="fill" to="#808080" begin="arrowDown.mouseover" end="arrowDown.mouseout"/>
                  </use>
                  <path fill="none" stroke="white" stroke-width="1.5" d="M0,-3.0v7 M-2.5,-0.5L0,-3.0L2.5,-0.5"/>
                </g>
                <g id="arrowLeft" xlink:href="#dirArrow" transform="rotate(270) translate(-36 17)" onmousedown="handlePan(-1,0)">
                  <use xlink:href="#rim" fill="#404040">
                        <set attributeName="fill" to="#808080" begin="arrowLeft.mouseover" end="arrowLeft.mouseout"/>
                  </use>
                  <path fill="none" stroke="white" stroke-width="1.5" d="M0,-3.0v7 M-2.5,-0.5L0,-3.0L2.5,-0.5"/>
                </g>
        </g>
        <svg viewBox="0 0 15 15" width="100%" height="30px" preserveAspectRatio="xMaxYMin meet">
         <g id="arrow_out" transform="scale(0.3 0.3)">
          <a xlink:href="_output_info_8_c__incl_org.svg" target="_base">
           <rect id="button" ry="5" rx="5" y="6" x="6" height="38" width="38"
                fill="#f2f5e9" fill-opacity="0.5" stroke="#606060" stroke-width="1.0"/>
           <path id="arrow"
             d="M 11.500037,31.436501 C 11.940474,20.09759 22.043105,11.32322 32.158766,21.979434 L 37.068811,17.246167 C 37.068811,17.246167 37.088388,32 37.088388,32 L 22.160133,31.978069 C 22.160133,31.978069 26.997745,27.140456 26.997745,27.140456 C 18.528582,18.264221 13.291696,25.230495 11.500037,31.436501 z"
             style="fill:#404040;"/>
          </a>
         </g>
        </svg>
</svg>
