<?xml version="1.0" encoding="UTF-8" standalone="no"?>
<!DOCTYPE svg PUBLIC "-//W3C//DTD SVG 1.1//EN"
 "http://www.w3.org/Graphics/SVG/1.1/DTD/svg11.dtd">
<!-- Generated by graphviz version 2.43.0 (0)
 -->
<!-- Title: OversetInfo.h Pages: 1 -->
<!--zoomable 203 -->

<svg id="main" version="1.1" xmlns="http://www.w3.org/2000/svg" xmlns:xlink="http://www.w3.org/1999/xlink" xml:space="preserve" onload="init(evt)">
<style type="text/css"><![CDATA[
.node, .edge {opacity: 0.7;}
.node.selected, .edge.selected {opacity: 1;}
.edge:hover path { stroke: red; }
.edge:hover polygon { stroke: red; fill: red; }
]]></style>

<defs>
  <circle id="rim" cx="0" cy="0" r="7"/>
  <circle id="rim2" cx="0" cy="0" r="3.5"/>
  <g id="zoomPlus">
    <use xlink:href="#rim" fill="#404040"><set attributeName="fill" to="#808080" begin="zoomplus.mouseover" end="zoomplus.mouseout"/></use>
    <path d="M-4,0h8M0,-4v8" fill="none" stroke="white" stroke-width="1.5" pointer-events="none"/>
  </g>
  <g id="zoomMin">
    <use xlink:href="#rim" fill="#404040"><set attributeName="fill" to="#808080" begin="zoomminus.mouseover" end="zoomminus.mouseout"/></use>
    <path d="M-4,0h8" fill="none" stroke="white" stroke-width="1.5" pointer-events="none"/>
  </g>
  <g id="arrowUp" transform="translate(30 24)">
    <use xlink:href="#rim"/>
    <path pointer-events="none" fill="none" stroke="white" stroke-width="1.5" d="M0,-3.0v7 M-2.5,-0.5L0,-3.0L2.5,-0.5"/>
  </g>
  <g id="arrowRight" transform="rotate(90) translate(36 -43)">
    <use xlink:href="#rim"/>
    <path pointer-events="none" fill="none" stroke="white" stroke-width="1.5" d="M0,-3.0v7 M-2.5,-0.5L0,-3.0L2.5,-0.5"/>
  </g>
  <g id="arrowDown" transform="rotate(180) translate(-30 -48)">
    <use xlink:href="#rim"/>
    <path pointer-events="none" fill="none" stroke="white" stroke-width="1.5" d="M0,-3.0v7 M-2.5,-0.5L0,-3.0L2.5,-0.5"/>
  </g>
  <g id="arrowLeft" transform="rotate(270) translate(-36 17)">
    <use xlink:href="#rim"/>
    <path pointer-events="none" fill="none" stroke="white" stroke-width="1.5" d="M0,-3.0v7 M-2.5,-0.5L0,-3.0L2.5,-0.5"/>
  </g>
  <g id="resetDef">
    <use xlink:href="#rim2" fill="#404040"><set attributeName="fill" to="#808080" begin="reset.mouseover" end="reset.mouseout"/></use>
  </g>
</defs>
<script type="application/ecmascript">
var viewWidth = 1515;
var viewHeight = 203;
var sectionId = 'dynsection-1';
</script>
<script type="application/ecmascript" xlink:href="svg.min.js"/>
<svg id="graph" class="graph">
<g id="viewport">
<title>OversetInfo.h</title>
<!-- Node1 -->
<g id="Node000001" class="node">
<title>Node1</title>
<g id="a_Node000001"><a xlink:title=" ">
<polygon fill="#999999" stroke="#666666" points="919,-195 836,-195 836,-176 919,-176 919,-195"/>
<text text-anchor="middle" x="877.5" y="-183" font-family="Helvetica,sans-Serif" font-size="10.00">OversetInfo.h</text>
</a>
</g>
</g>
<!-- Node2 -->
<g id="Node000002" class="node">
<title>Node2</title>
<g id="a_Node000002"><a xlink:href="_assemble_overset_decoupled_algorithm_8_c.html" target="_top" xlink:title=" ">
<polygon fill="white" stroke="#666666" points="155,-140 0,-140 0,-110 155,-110 155,-140"/>
<text text-anchor="start" x="8" y="-128" font-family="Helvetica,sans-Serif" font-size="10.00">AssembleOversetDecoupled</text>
<text text-anchor="middle" x="77.5" y="-117" font-family="Helvetica,sans-Serif" font-size="10.00">Algorithm.C</text>
</a>
</g>
</g>
<!-- Node1&#45;&gt;Node2 -->
<g id="edge1_Node000001_Node000002" class="edge">
<title>Node1&#45;&gt;Node2</title>
<g id="a_edge1_Node000001_Node000002"><a xlink:title=" ">
<path fill="none" stroke="#63b8ff" d="M825.75,-183.03C707.9,-179.31 410.6,-167.74 163.5,-140 160.79,-139.7 158.04,-139.37 155.27,-139.01"/>
<polygon fill="#63b8ff" stroke="#63b8ff" points="825.82,-186.54 835.93,-183.35 826.04,-179.54 825.82,-186.54"/>
</a>
</g>
</g>
<!-- Node3 -->
<g id="Node000003" class="node">
<title>Node3</title>
<g id="a_Node000003"><a xlink:href="_assemble_overset_pressure_algorithm_8_c.html" target="_top" xlink:title=" ">
<polygon fill="white" stroke="#666666" points="376,-134.5 173,-134.5 173,-115.5 376,-115.5 376,-134.5"/>
<text text-anchor="middle" x="274.5" y="-122.5" font-family="Helvetica,sans-Serif" font-size="10.00">AssembleOversetPressureAlgorithm.C</text>
</a>
</g>
</g>
<!-- Node1&#45;&gt;Node3 -->
<g id="edge2_Node000001_Node000003" class="edge">
<title>Node1&#45;&gt;Node3</title>
<g id="a_edge2_Node000001_Node000003"><a xlink:title=" ">
<path fill="none" stroke="#63b8ff" d="M825.81,-180.43C736.11,-173.23 545.85,-157.36 385.5,-140 370.44,-138.37 354.25,-136.43 339.02,-134.53"/>
<polygon fill="#63b8ff" stroke="#63b8ff" points="825.74,-183.93 835.98,-181.24 826.29,-176.96 825.74,-183.93"/>
</a>
</g>
</g>
<!-- Node4 -->
<g id="Node000004" class="node">
<title>Node4</title>
<g id="a_Node000004"><a xlink:href="_assemble_overset_solver_constraint_algorithm_8_c.html" target="_top" xlink:title=" ">
<polygon fill="white" stroke="#666666" points="578.5,-140 394.5,-140 394.5,-110 578.5,-110 578.5,-140"/>
<text text-anchor="start" x="402.5" y="-128" font-family="Helvetica,sans-Serif" font-size="10.00">AssembleOversetSolverConstraint</text>
<text text-anchor="middle" x="486.5" y="-117" font-family="Helvetica,sans-Serif" font-size="10.00">Algorithm.C</text>
</a>
</g>
</g>
<!-- Node1&#45;&gt;Node4 -->
<g id="edge3_Node000001_Node000004" class="edge">
<title>Node1&#45;&gt;Node4</title>
<g id="a_edge3_Node000001_Node000004"><a xlink:title=" ">
<path fill="none" stroke="#63b8ff" d="M825.57,-176.73C762.66,-167.32 655.55,-151.29 578.54,-139.77"/>
<polygon fill="#63b8ff" stroke="#63b8ff" points="825.25,-180.22 835.66,-178.24 826.28,-173.3 825.25,-180.22"/>
</a>
</g>
</g>
<!-- Node5 -->
<g id="Node000005" class="node">
<title>Node5</title>
<g id="a_Node000005"><a xlink:href="_assemble_overset_wall_dist_algorithm_8_c.html" target="_top" xlink:title=" ">
<polygon fill="white" stroke="#666666" points="798,-134.5 597,-134.5 597,-115.5 798,-115.5 798,-134.5"/>
<text text-anchor="middle" x="697.5" y="-122.5" font-family="Helvetica,sans-Serif" font-size="10.00">AssembleOversetWallDistAlgorithm.C</text>
</a>
</g>
</g>
<!-- Node1&#45;&gt;Node5 -->
<g id="edge4_Node000001_Node000005" class="edge">
<title>Node1&#45;&gt;Node5</title>
<g id="a_edge4_Node000001_Node000005"><a xlink:title=" ">
<path fill="none" stroke="#63b8ff" d="M841.55,-172.82C806.74,-161.5 754.78,-144.62 723.71,-134.52"/>
<polygon fill="#63b8ff" stroke="#63b8ff" points="840.73,-176.23 851.33,-175.99 842.9,-169.57 840.73,-176.23"/>
</a>
</g>
</g>
<!-- Node6 -->
<g id="Node000006" class="node">
<title>Node6</title>
<g id="a_Node000006"><a xlink:href="_hypre_linear_system_8h.html" target="_top" xlink:title=" ">
<polygon fill="white" stroke="#666666" points="938.5,-134.5 816.5,-134.5 816.5,-115.5 938.5,-115.5 938.5,-134.5"/>
<text text-anchor="middle" x="877.5" y="-122.5" font-family="Helvetica,sans-Serif" font-size="10.00">HypreLinearSystem.h</text>
</a>
</g>
</g>
<!-- Node1&#45;&gt;Node6 -->
<g id="edge5_Node000001_Node000006" class="edge">
<title>Node1&#45;&gt;Node6</title>
<g id="a_edge5_Node000001_Node000006"><a xlink:title=" ">
<path fill="none" stroke="#63b8ff" d="M877.5,-165.66C877.5,-155.24 877.5,-142.8 877.5,-134.67"/>
<polygon fill="#63b8ff" stroke="#63b8ff" points="874,-165.87 877.5,-175.87 881,-165.87 874,-165.87"/>
</a>
</g>
</g>
<!-- Node10 -->
<g id="Node000010" class="node">
<title>Node10</title>
<g id="a_Node000010"><a xlink:href="_overset_info_8_c.html" target="_top" xlink:title=" ">
<polygon fill="white" stroke="#666666" points="1040,-134.5 957,-134.5 957,-115.5 1040,-115.5 1040,-134.5"/>
<text text-anchor="middle" x="998.5" y="-122.5" font-family="Helvetica,sans-Serif" font-size="10.00">OversetInfo.C</text>
</a>
</g>
</g>
<!-- Node1&#45;&gt;Node10 -->
<g id="edge9_Node000001_Node000010" class="edge">
<title>Node1&#45;&gt;Node10</title>
<g id="a_edge9_Node000001_Node000010"><a xlink:title=" ">
<path fill="none" stroke="#63b8ff" d="M904.11,-171.63C927.45,-160.35 960.71,-144.27 980.88,-134.52"/>
<polygon fill="#63b8ff" stroke="#63b8ff" points="902.57,-168.49 895.09,-175.99 905.62,-174.79 902.57,-168.49"/>
</a>
</g>
</g>
<!-- Node11 -->
<g id="Node000011" class="node">
<title>Node11</title>
<g id="a_Node000011"><a xlink:href="_overset_manager_8_c.html" target="_top" xlink:title=" ">
<polygon fill="white" stroke="#666666" points="1165,-134.5 1058,-134.5 1058,-115.5 1165,-115.5 1165,-134.5"/>
<text text-anchor="middle" x="1111.5" y="-122.5" font-family="Helvetica,sans-Serif" font-size="10.00">OversetManager.C</text>
</a>
</g>
</g>
<!-- Node1&#45;&gt;Node11 -->
<g id="edge10_Node000001_Node000011" class="edge">
<title>Node1&#45;&gt;Node11</title>
<g id="a_edge10_Node000001_Node000011"><a xlink:title=" ">
<path fill="none" stroke="#63b8ff" d="M921.35,-173.54C966.58,-162.23 1036.17,-144.83 1077.43,-134.52"/>
<polygon fill="#63b8ff" stroke="#63b8ff" points="920.38,-170.17 911.53,-175.99 922.08,-176.96 920.38,-170.17"/>
</a>
</g>
</g>
<!-- Node12 -->
<g id="Node000012" class="node">
<title>Node12</title>
<g id="a_Node000012"><a xlink:href="_tpetra_linear_system_8_c.html" target="_top" xlink:title=" ">
<polygon fill="white" stroke="#666666" points="1308,-134.5 1183,-134.5 1183,-115.5 1308,-115.5 1308,-134.5"/>
<text text-anchor="middle" x="1245.5" y="-122.5" font-family="Helvetica,sans-Serif" font-size="10.00">TpetraLinearSystem.C</text>
</a>
</g>
</g>
<!-- Node1&#45;&gt;Node12 -->
<g id="edge11_Node000001_Node000012" class="edge">
<title>Node1&#45;&gt;Node12</title>
<g id="a_edge11_Node000001_Node000012"><a xlink:title=" ">
<path fill="none" stroke="#63b8ff" d="M929.65,-177.43C989.06,-169.2 1088.97,-154.83 1174.5,-140 1184.03,-138.35 1194.25,-136.42 1203.89,-134.54"/>
<polygon fill="#63b8ff" stroke="#63b8ff" points="928.83,-174.01 919.41,-178.84 929.79,-180.94 928.83,-174.01"/>
</a>
</g>
</g>
<!-- Node13 -->
<g id="Node000013" class="node">
<title>Node13</title>
<g id="a_Node000013"><a xlink:href="_tpetra_segregated_linear_system_8_c.html" target="_top" xlink:title=" ">
<polygon fill="white" stroke="#666666" points="1506.5,-134.5 1326.5,-134.5 1326.5,-115.5 1506.5,-115.5 1506.5,-134.5"/>
<text text-anchor="middle" x="1416.5" y="-122.5" font-family="Helvetica,sans-Serif" font-size="10.00">TpetraSegregatedLinearSystem.C</text>
</a>
</g>
</g>
<!-- Node1&#45;&gt;Node13 -->
<g id="edge12_Node000001_Node000013" class="edge">
<title>Node1&#45;&gt;Node13</title>
<g id="a_edge12_Node000001_Node000013"><a xlink:title=" ">
<path fill="none" stroke="#63b8ff" d="M929.21,-179.94C1011.51,-172.53 1177.34,-156.99 1317.5,-140 1330.94,-138.37 1345.38,-136.43 1358.97,-134.53"/>
<polygon fill="#63b8ff" stroke="#63b8ff" points="928.76,-176.47 919.12,-180.85 929.39,-183.44 928.76,-176.47"/>
</a>
</g>
</g>
<!-- Node7 -->
<g id="Node000007" class="node">
<title>Node7</title>
<g id="a_Node000007"><a xlink:href="_hypre_linear_system_8_c.html" target="_top" xlink:title=" ">
<polygon fill="white" stroke="#666666" points="862.5,-74 740.5,-74 740.5,-55 862.5,-55 862.5,-74"/>
<text text-anchor="middle" x="801.5" y="-62" font-family="Helvetica,sans-Serif" font-size="10.00">HypreLinearSystem.C</text>
</a>
</g>
</g>
<!-- Node6&#45;&gt;Node7 -->
<g id="edge6_Node000006_Node000007" class="edge">
<title>Node6&#45;&gt;Node7</title>
<g id="a_edge6_Node000006_Node000007"><a xlink:title=" ">
<path fill="none" stroke="#63b8ff" d="M858.06,-109.04C843.71,-97.99 824.68,-83.34 812.76,-74.17"/>
<polygon fill="#63b8ff" stroke="#63b8ff" points="856.23,-112.04 866.29,-115.37 860.5,-106.49 856.23,-112.04"/>
</a>
</g>
</g>
<!-- Node8 -->
<g id="Node000008" class="node">
<title>Node8</title>
<g id="a_Node000008"><a xlink:href="_hypre_u_v_w_linear_system_8h.html" target="_top" xlink:title=" ">
<polygon fill="white" stroke="#666666" points="1026.5,-74 880.5,-74 880.5,-55 1026.5,-55 1026.5,-74"/>
<text text-anchor="middle" x="953.5" y="-62" font-family="Helvetica,sans-Serif" font-size="10.00">HypreUVWLinearSystem.h</text>
</a>
</g>
</g>
<!-- Node6&#45;&gt;Node8 -->
<g id="edge7_Node000006_Node000008" class="edge">
<title>Node6&#45;&gt;Node8</title>
<g id="a_edge7_Node000006_Node000008"><a xlink:title=" ">
<path fill="none" stroke="#63b8ff" d="M896.94,-109.04C911.29,-97.99 930.32,-83.34 942.24,-74.17"/>
<polygon fill="#63b8ff" stroke="#63b8ff" points="894.5,-106.49 888.71,-115.37 898.77,-112.04 894.5,-106.49"/>
</a>
</g>
</g>
<!-- Node9 -->
<g id="Node000009" class="node">
<title>Node9</title>
<g id="a_Node000009"><a xlink:href="_hypre_u_v_w_linear_system_8_c.html" target="_top" xlink:title=" ">
<polygon fill="white" stroke="#666666" points="1026.5,-19 880.5,-19 880.5,0 1026.5,0 1026.5,-19"/>
<text text-anchor="middle" x="953.5" y="-7" font-family="Helvetica,sans-Serif" font-size="10.00">HypreUVWLinearSystem.C</text>
</a>
</g>
</g>
<!-- Node8&#45;&gt;Node9 -->
<g id="edge8_Node000008_Node000009" class="edge">
<title>Node8&#45;&gt;Node9</title>
<g id="a_edge8_Node000008_Node000009"><a xlink:title=" ">
<path fill="none" stroke="#63b8ff" d="M953.5,-44.66C953.5,-35.93 953.5,-25.99 953.5,-19.09"/>
<polygon fill="#63b8ff" stroke="#63b8ff" points="950,-44.75 953.5,-54.75 957,-44.75 950,-44.75"/>
</a>
</g>
</g>
</g>
</svg>

<g id="navigator" transform="translate(0 0)" fill="#404254">
  <rect fill="#f2f5e9" fill-opacity="0.5" stroke="#606060" stroke-width=".5" x="0" y="0" width="60" height="60"/>
  <use id="zoomplus" xlink:href="#zoomPlus" x="17" y="9" onmousedown="handleZoom(evt,'in')"/>
  <use id="zoomminus" xlink:href="#zoomMin" x="42" y="9" onmousedown="handleZoom(evt,'out')"/>
  <use id="reset" xlink:href="#resetDef" x="30" y="36" onmousedown="handleReset()"/>
   <use id="arrowup" xlink:href="#arrowUp" x="0" y="0" onmousedown="handlePan(0,-1)"/>
  <use id="arrowright" xlink:href="#arrowRight" x="0" y="0" onmousedown="handlePan(1,0)"/>
  <use id="arrowdown" xlink:href="#arrowDown" x="0" y="0" onmousedown="handlePan(0,1)"/>
  <use id="arrowleft" xlink:href="#arrowLeft" x="0" y="0" onmousedown="handlePan(-1,0)"/>
</g>
<svg viewBox="0 0 15 15" width="100%" height="30px" preserveAspectRatio="xMaxYMin meet">
 <g id="arrow_out" transform="scale(0.3 0.3)">
  <a xlink:href="_overset_info_8h__dep__incl_org.svg" target="_base">
   <rect id="button" ry="5" rx="5" y="6" x="6" height="38" width="38"
        fill="#f2f5e9" fill-opacity="0.5" stroke="#606060" stroke-width="1.0"/>
   <path id="arrow"
     d="M 11.500037,31.436501 C 11.940474,20.09759 22.043105,11.32322 32.158766,21.979434 L 37.068811,17.246167 C 37.068811,17.246167 37.088388,32 37.088388,32 L 22.160133,31.978069 C 22.160133,31.978069 26.997745,27.140456 26.997745,27.140456 C 18.528582,18.264221 13.291696,25.230495 11.500037,31.436501 z"
     style="fill:#404040;"/>
  </a>
 </g>
</svg>

<style type='text/css'>
<![CDATA[
[data-mouse-over-selected='false'] { opacity: 0.7; }
[data-mouse-over-selected='true']  { opacity: 1.0; }
]]>
</style>
<script type="application/ecmascript"><![CDATA[
document.addEventListener('DOMContentLoaded', (event) => {
  highlightEdges();
  highlightAdjacentNodes();
});
]]></script>
</svg>
