<?xml version="1.0" encoding="UTF-8" standalone="no"?>
<!DOCTYPE svg PUBLIC "-//W3C//DTD SVG 1.1//EN"
 "http://www.w3.org/Graphics/SVG/1.1/DTD/svg11.dtd">
<!-- Generated by graphviz version 2.43.0 (0)
 -->
<!-- Title: OversetManager.h Pages: 1 -->
<svg width="2169pt" height="203pt"
 viewBox="0.00 0.00 2168.50 203.00" xmlns="http://www.w3.org/2000/svg" xmlns:xlink="http://www.w3.org/1999/xlink">
<g id="graph0" class="graph" transform="scale(1 1) rotate(0) translate(4 199)">
<title>OversetManager.h</title>
<!-- Node1 -->
<g id="Node000001" class="node">
<title>Node1</title>
<g id="a_Node000001"><a xlink:title=" ">
<polygon fill="#999999" stroke="#666666" points="1220.5,-195 1114.5,-195 1114.5,-176 1220.5,-176 1220.5,-195"/>
<text text-anchor="middle" x="1167.5" y="-183" font-family="Helvetica,sans-Serif" font-size="10.00">OversetManager.h</text>
</a>
</g>
</g>
<!-- Node2 -->
<g id="Node000002" class="node">
<title>Node2</title>
<g id="a_Node000002"><a xlink:href="_assemble_overset_decoupled_algorithm_8_c.html" target="_top" xlink:title=" ">
<polygon fill="white" stroke="#666666" points="155,-140 0,-140 0,-110 155,-110 155,-140"/>
<text text-anchor="start" x="8" y="-128" font-family="Helvetica,sans-Serif" font-size="10.00">AssembleOversetDecoupled</text>
<text text-anchor="middle" x="77.5" y="-117" font-family="Helvetica,sans-Serif" font-size="10.00">Algorithm.C</text>
</a>
</g>
</g>
<!-- Node1&#45;&gt;Node2 -->
<g id="edge1_Node000001_Node000002" class="edge">
<title>Node1&#45;&gt;Node2</title>
<g id="a_edge1_Node000001_Node000002"><a xlink:title=" ">
<path fill="none" stroke="#63b8ff" d="M1104.21,-184.26C945.48,-183.11 517.8,-176.56 163.5,-140 160.79,-139.72 158.04,-139.41 155.26,-139.08"/>
<polygon fill="#63b8ff" stroke="#63b8ff" points="1104.25,-187.76 1114.27,-184.33 1104.3,-180.76 1104.25,-187.76"/>
</a>
</g>
</g>
<!-- Node3 -->
<g id="Node000003" class="node">
<title>Node3</title>
<g id="a_Node000003"><a xlink:href="_assemble_overset_pressure_algorithm_8_c.html" target="_top" xlink:title=" ">
<polygon fill="white" stroke="#666666" points="376,-134.5 173,-134.5 173,-115.5 376,-115.5 376,-134.5"/>
<text text-anchor="middle" x="274.5" y="-122.5" font-family="Helvetica,sans-Serif" font-size="10.00">AssembleOversetPressureAlgorithm.C</text>
</a>
</g>
</g>
<!-- Node1&#45;&gt;Node3 -->
<g id="edge2_Node000001_Node000003" class="edge">
<title>Node1&#45;&gt;Node3</title>
<g id="a_edge2_Node000001_Node000003"><a xlink:title=" ">
<path fill="none" stroke="#63b8ff" d="M1104.28,-182.37C971.13,-177.57 652.1,-164.37 385.5,-140 369.45,-138.53 352.13,-136.54 336.07,-134.53"/>
<polygon fill="#63b8ff" stroke="#63b8ff" points="1104.19,-185.87 1114.31,-182.73 1104.44,-178.88 1104.19,-185.87"/>
</a>
</g>
</g>
<!-- Node4 -->
<g id="Node000004" class="node">
<title>Node4</title>
<g id="a_Node000004"><a xlink:href="_assemble_overset_solver_constraint_algorithm_8_c.html" target="_top" xlink:title=" ">
<polygon fill="white" stroke="#666666" points="578.5,-140 394.5,-140 394.5,-110 578.5,-110 578.5,-140"/>
<text text-anchor="start" x="402.5" y="-128" font-family="Helvetica,sans-Serif" font-size="10.00">AssembleOversetSolverConstraint</text>
<text text-anchor="middle" x="486.5" y="-117" font-family="Helvetica,sans-Serif" font-size="10.00">Algorithm.C</text>
</a>
</g>
</g>
<!-- Node1&#45;&gt;Node4 -->
<g id="edge3_Node000001_Node000004" class="edge">
<title>Node1&#45;&gt;Node4</title>
<g id="a_edge3_Node000001_Node000004"><a xlink:title=" ">
<path fill="none" stroke="#63b8ff" d="M1103.94,-180.9C997.1,-174.56 774.81,-160.15 587.5,-140 584.6,-139.69 581.65,-139.36 578.67,-139.01"/>
<polygon fill="#63b8ff" stroke="#63b8ff" points="1104.03,-184.41 1114.22,-181.51 1104.45,-177.42 1104.03,-184.41"/>
</a>
</g>
</g>
<!-- Node5 -->
<g id="Node000005" class="node">
<title>Node5</title>
<g id="a_Node000005"><a xlink:href="_assemble_overset_wall_dist_algorithm_8_c.html" target="_top" xlink:title=" ">
<polygon fill="white" stroke="#666666" points="798,-134.5 597,-134.5 597,-115.5 798,-115.5 798,-134.5"/>
<text text-anchor="middle" x="697.5" y="-122.5" font-family="Helvetica,sans-Serif" font-size="10.00">AssembleOversetWallDistAlgorithm.C</text>
</a>
</g>
</g>
<!-- Node1&#45;&gt;Node5 -->
<g id="edge4_Node000001_Node000005" class="edge">
<title>Node1&#45;&gt;Node5</title>
<g id="a_edge4_Node000001_Node000005"><a xlink:title=" ">
<path fill="none" stroke="#63b8ff" d="M1104.18,-176.74C1032.27,-167.92 911.43,-153.04 807.5,-140 793.46,-138.24 778.42,-136.33 764.1,-134.52"/>
<polygon fill="#63b8ff" stroke="#63b8ff" points="1104.07,-180.26 1114.42,-178 1104.93,-173.31 1104.07,-180.26"/>
</a>
</g>
</g>
<!-- Node6 -->
<g id="Node000006" class="node">
<title>Node6</title>
<g id="a_Node000006"><a xlink:href="_hypre_linear_system_8h.html" target="_top" xlink:title=" ">
<polygon fill="white" stroke="#666666" points="938.5,-134.5 816.5,-134.5 816.5,-115.5 938.5,-115.5 938.5,-134.5"/>
<text text-anchor="middle" x="877.5" y="-122.5" font-family="Helvetica,sans-Serif" font-size="10.00">HypreLinearSystem.h</text>
</a>
</g>
</g>
<!-- Node1&#45;&gt;Node6 -->
<g id="edge5_Node000001_Node000006" class="edge">
<title>Node1&#45;&gt;Node6</title>
<g id="a_edge5_Node000001_Node000006"><a xlink:title=" ">
<path fill="none" stroke="#63b8ff" d="M1115.26,-173.96C1059.28,-162.67 971.5,-144.96 919.72,-134.52"/>
<polygon fill="#63b8ff" stroke="#63b8ff" points="1114.84,-177.45 1125.33,-175.99 1116.22,-170.59 1114.84,-177.45"/>
</a>
</g>
</g>
<!-- Node10 -->
<g id="Node000010" class="node">
<title>Node10</title>
<g id="a_Node000010"><a xlink:href="_overset_constraint_base_8_c.html" target="_top" xlink:title=" ">
<polygon fill="white" stroke="#666666" points="1096,-134.5 957,-134.5 957,-115.5 1096,-115.5 1096,-134.5"/>
<text text-anchor="middle" x="1026.5" y="-122.5" font-family="Helvetica,sans-Serif" font-size="10.00">OversetConstraintBase.C</text>
</a>
</g>
</g>
<!-- Node1&#45;&gt;Node10 -->
<g id="edge9_Node000001_Node000010" class="edge">
<title>Node1&#45;&gt;Node10</title>
<g id="a_edge9_Node000001_Node000010"><a xlink:title=" ">
<path fill="none" stroke="#63b8ff" d="M1137.57,-172.08C1110.33,-160.78 1070.85,-144.4 1047.03,-134.52"/>
<polygon fill="#63b8ff" stroke="#63b8ff" points="1136.42,-175.39 1147,-175.99 1139.1,-168.93 1136.42,-175.39"/>
</a>
</g>
</g>
<!-- Node11 -->
<g id="Node000011" class="node">
<title>Node11</title>
<g id="a_Node000011"><a xlink:href="_overset_manager_8_c.html" target="_top" xlink:title=" ">
<polygon fill="white" stroke="#666666" points="1221,-134.5 1114,-134.5 1114,-115.5 1221,-115.5 1221,-134.5"/>
<text text-anchor="middle" x="1167.5" y="-122.5" font-family="Helvetica,sans-Serif" font-size="10.00">OversetManager.C</text>
</a>
</g>
</g>
<!-- Node1&#45;&gt;Node11 -->
<g id="edge10_Node000001_Node000011" class="edge">
<title>Node1&#45;&gt;Node11</title>
<g id="a_edge10_Node000001_Node000011"><a xlink:title=" ">
<path fill="none" stroke="#63b8ff" d="M1167.5,-165.66C1167.5,-155.24 1167.5,-142.8 1167.5,-134.67"/>
<polygon fill="#63b8ff" stroke="#63b8ff" points="1164,-165.87 1167.5,-175.87 1171,-165.87 1164,-165.87"/>
</a>
</g>
</g>
<!-- Node12 -->
<g id="Node000012" class="node">
<title>Node12</title>
<g id="a_Node000012"><a xlink:href="_overset_manager_t_i_o_g_a_8h.html" target="_top" xlink:title=" ">
<polygon fill="white" stroke="#666666" points="1376,-134.5 1239,-134.5 1239,-115.5 1376,-115.5 1376,-134.5"/>
<text text-anchor="middle" x="1307.5" y="-122.5" font-family="Helvetica,sans-Serif" font-size="10.00">OversetManagerTIOGA.h</text>
</a>
</g>
</g>
<!-- Node1&#45;&gt;Node12 -->
<g id="edge11_Node000001_Node000012" class="edge">
<title>Node1&#45;&gt;Node12</title>
<g id="a_edge11_Node000001_Node000012"><a xlink:title=" ">
<path fill="none" stroke="#63b8ff" d="M1197.22,-172.08C1224.26,-160.78 1263.47,-144.4 1287.12,-134.52"/>
<polygon fill="#63b8ff" stroke="#63b8ff" points="1195.73,-168.91 1187.86,-175.99 1198.43,-175.37 1195.73,-168.91"/>
</a>
</g>
</g>
<!-- Node14 -->
<g id="Node000014" class="node">
<title>Node14</title>
<g id="a_Node000014"><a xlink:href="_realm_8_c.html" target="_top" xlink:title=" ">
<polygon fill="white" stroke="#666666" points="1452.5,-134.5 1394.5,-134.5 1394.5,-115.5 1452.5,-115.5 1452.5,-134.5"/>
<text text-anchor="middle" x="1423.5" y="-122.5" font-family="Helvetica,sans-Serif" font-size="10.00">Realm.C</text>
</a>
</g>
</g>
<!-- Node1&#45;&gt;Node14 -->
<g id="edge13_Node000001_Node000014" class="edge">
<title>Node1&#45;&gt;Node14</title>
<g id="a_edge13_Node000001_Node000014"><a xlink:title=" ">
<path fill="none" stroke="#63b8ff" d="M1230.85,-174.19C1274.69,-166.42 1334.14,-154.61 1385.5,-140 1390.91,-138.46 1396.65,-136.52 1401.98,-134.57"/>
<polygon fill="#63b8ff" stroke="#63b8ff" points="1230.15,-170.76 1220.9,-175.93 1231.36,-177.65 1230.15,-170.76"/>
</a>
</g>
</g>
<!-- Node15 -->
<g id="Node000015" class="node">
<title>Node15</title>
<g id="a_Node000015"><a xlink:href="_tpetra_linear_system_8_c.html" target="_top" xlink:title=" ">
<polygon fill="white" stroke="#666666" points="1596,-134.5 1471,-134.5 1471,-115.5 1596,-115.5 1596,-134.5"/>
<text text-anchor="middle" x="1533.5" y="-122.5" font-family="Helvetica,sans-Serif" font-size="10.00">TpetraLinearSystem.C</text>
</a>
</g>
</g>
<!-- Node1&#45;&gt;Node15 -->
<g id="edge14_Node000001_Node000015" class="edge">
<title>Node1&#45;&gt;Node15</title>
<g id="a_edge14_Node000001_Node000015"><a xlink:title=" ">
<path fill="none" stroke="#63b8ff" d="M1230.74,-175.71C1290.36,-167.23 1382.16,-153.71 1461.5,-140 1471.16,-138.33 1481.53,-136.4 1491.29,-134.51"/>
<polygon fill="#63b8ff" stroke="#63b8ff" points="1230.13,-172.26 1220.72,-177.13 1231.11,-179.19 1230.13,-172.26"/>
</a>
</g>
</g>
<!-- Node16 -->
<g id="Node000016" class="node">
<title>Node16</title>
<g id="a_Node000016"><a xlink:href="_tpetra_linear_system_helpers_8_c.html" target="_top" xlink:title=" ">
<polygon fill="white" stroke="#666666" points="1776.5,-134.5 1614.5,-134.5 1614.5,-115.5 1776.5,-115.5 1776.5,-134.5"/>
<text text-anchor="middle" x="1695.5" y="-122.5" font-family="Helvetica,sans-Serif" font-size="10.00">TpetraLinearSystemHelpers.C</text>
</a>
</g>
</g>
<!-- Node1&#45;&gt;Node16 -->
<g id="edge15_Node000001_Node000016" class="edge">
<title>Node1&#45;&gt;Node16</title>
<g id="a_edge15_Node000001_Node000016"><a xlink:title=" ">
<path fill="none" stroke="#63b8ff" d="M1230.56,-179.15C1315.78,-171.68 1472.37,-157.11 1605.5,-140 1617.89,-138.41 1631.2,-136.47 1643.69,-134.54"/>
<polygon fill="#63b8ff" stroke="#63b8ff" points="1230.19,-175.67 1220.53,-180.03 1230.8,-182.64 1230.19,-175.67"/>
</a>
</g>
</g>
<!-- Node17 -->
<g id="Node000017" class="node">
<title>Node17</title>
<g id="a_Node000017"><a xlink:href="_tpetra_segregated_linear_system_8_c.html" target="_top" xlink:title=" ">
<polygon fill="white" stroke="#666666" points="1974.5,-134.5 1794.5,-134.5 1794.5,-115.5 1974.5,-115.5 1974.5,-134.5"/>
<text text-anchor="middle" x="1884.5" y="-122.5" font-family="Helvetica,sans-Serif" font-size="10.00">TpetraSegregatedLinearSystem.C</text>
</a>
</g>
</g>
<!-- Node1&#45;&gt;Node17 -->
<g id="edge16_Node000001_Node000017" class="edge">
<title>Node1&#45;&gt;Node17</title>
<g id="a_edge16_Node000001_Node000017"><a xlink:title=" ">
<path fill="none" stroke="#63b8ff" d="M1230.62,-181.39C1342.59,-175.55 1583.24,-161.56 1785.5,-140 1799.65,-138.49 1814.9,-136.51 1829.08,-134.52"/>
<polygon fill="#63b8ff" stroke="#63b8ff" points="1230.32,-177.9 1220.52,-181.91 1230.68,-184.89 1230.32,-177.9"/>
</a>
</g>
</g>
<!-- Node18 -->
<g id="Node000018" class="node">
<title>Node18</title>
<g id="a_Node000018"><a xlink:href="_update_overset_fringe_algorithm_driver_8_c.html" target="_top" xlink:title=" ">
<polygon fill="white" stroke="#666666" points="2160.5,-140 1992.5,-140 1992.5,-110 2160.5,-110 2160.5,-140"/>
<text text-anchor="start" x="2000.5" y="-128" font-family="Helvetica,sans-Serif" font-size="10.00">UpdateOversetFringeAlgorithm</text>
<text text-anchor="middle" x="2076.5" y="-117" font-family="Helvetica,sans-Serif" font-size="10.00">Driver.C</text>
</a>
</g>
</g>
<!-- Node1&#45;&gt;Node18 -->
<g id="edge17_Node000001_Node000018" class="edge">
<title>Node1&#45;&gt;Node18</title>
<g id="a_edge17_Node000001_Node000018"><a xlink:title=" ">
<path fill="none" stroke="#63b8ff" d="M1230.96,-183.09C1368.43,-179.58 1703.92,-168.6 1983.5,-140 1986.42,-139.7 1989.4,-139.37 1992.4,-139.03"/>
<polygon fill="#63b8ff" stroke="#63b8ff" points="1230.53,-179.6 1220.62,-183.35 1230.71,-186.6 1230.53,-179.6"/>
</a>
</g>
</g>
<!-- Node7 -->
<g id="Node000007" class="node">
<title>Node7</title>
<g id="a_Node000007"><a xlink:href="_hypre_linear_system_8_c.html" target="_top" xlink:title=" ">
<polygon fill="white" stroke="#666666" points="862.5,-74 740.5,-74 740.5,-55 862.5,-55 862.5,-74"/>
<text text-anchor="middle" x="801.5" y="-62" font-family="Helvetica,sans-Serif" font-size="10.00">HypreLinearSystem.C</text>
</a>
</g>
</g>
<!-- Node6&#45;&gt;Node7 -->
<g id="edge6_Node000006_Node000007" class="edge">
<title>Node6&#45;&gt;Node7</title>
<g id="a_edge6_Node000006_Node000007"><a xlink:title=" ">
<path fill="none" stroke="#63b8ff" d="M858.06,-109.04C843.71,-97.99 824.68,-83.34 812.76,-74.17"/>
<polygon fill="#63b8ff" stroke="#63b8ff" points="856.23,-112.04 866.29,-115.37 860.5,-106.49 856.23,-112.04"/>
</a>
</g>
</g>
<!-- Node8 -->
<g id="Node000008" class="node">
<title>Node8</title>
<g id="a_Node000008"><a xlink:href="_hypre_u_v_w_linear_system_8h.html" target="_top" xlink:title=" ">
<polygon fill="white" stroke="#666666" points="1026.5,-74 880.5,-74 880.5,-55 1026.5,-55 1026.5,-74"/>
<text text-anchor="middle" x="953.5" y="-62" font-family="Helvetica,sans-Serif" font-size="10.00">HypreUVWLinearSystem.h</text>
</a>
</g>
</g>
<!-- Node6&#45;&gt;Node8 -->
<g id="edge7_Node000006_Node000008" class="edge">
<title>Node6&#45;&gt;Node8</title>
<g id="a_edge7_Node000006_Node000008"><a xlink:title=" ">
<path fill="none" stroke="#63b8ff" d="M896.94,-109.04C911.29,-97.99 930.32,-83.34 942.24,-74.17"/>
<polygon fill="#63b8ff" stroke="#63b8ff" points="894.5,-106.49 888.71,-115.37 898.77,-112.04 894.5,-106.49"/>
</a>
</g>
</g>
<!-- Node9 -->
<g id="Node000009" class="node">
<title>Node9</title>
<g id="a_Node000009"><a xlink:href="_hypre_u_v_w_linear_system_8_c.html" target="_top" xlink:title=" ">
<polygon fill="white" stroke="#666666" points="1026.5,-19 880.5,-19 880.5,0 1026.5,0 1026.5,-19"/>
<text text-anchor="middle" x="953.5" y="-7" font-family="Helvetica,sans-Serif" font-size="10.00">HypreUVWLinearSystem.C</text>
</a>
</g>
</g>
<!-- Node8&#45;&gt;Node9 -->
<g id="edge8_Node000008_Node000009" class="edge">
<title>Node8&#45;&gt;Node9</title>
<g id="a_edge8_Node000008_Node000009"><a xlink:title=" ">
<path fill="none" stroke="#63b8ff" d="M953.5,-44.66C953.5,-35.93 953.5,-25.99 953.5,-19.09"/>
<polygon fill="#63b8ff" stroke="#63b8ff" points="950,-44.75 953.5,-54.75 957,-44.75 950,-44.75"/>
</a>
</g>
</g>
<!-- Node13 -->
<g id="Node000013" class="node">
<title>Node13</title>
<g id="a_Node000013"><a xlink:href="_ext_overset_8_c.html" target="_top" xlink:title=" ">
<polygon fill="white" stroke="#666666" points="1347.5,-74 1267.5,-74 1267.5,-55 1347.5,-55 1347.5,-74"/>
<text text-anchor="middle" x="1307.5" y="-62" font-family="Helvetica,sans-Serif" font-size="10.00">ExtOverset.C</text>
</a>
</g>
</g>
<!-- Node12&#45;&gt;Node13 -->
<g id="edge12_Node000012_Node000013" class="edge">
<title>Node12&#45;&gt;Node13</title>
<g id="a_edge12_Node000012_Node000013"><a xlink:title=" ">
<path fill="none" stroke="#63b8ff" d="M1307.5,-105.16C1307.5,-94.74 1307.5,-82.3 1307.5,-74.17"/>
<polygon fill="#63b8ff" stroke="#63b8ff" points="1304,-105.37 1307.5,-115.37 1311,-105.37 1304,-105.37"/>
</a>
</g>
</g>
</g>
</svg>
