<?xml version="1.0" encoding="UTF-8" standalone="no"?>
<!DOCTYPE svg PUBLIC "-//W3C//DTD SVG 1.1//EN"
 "http://www.w3.org/Graphics/SVG/1.1/DTD/svg11.dtd">
<!-- Generated by graphviz version 2.43.0 (0)
 -->
<!-- Title: PeriodicManager.h Pages: 1 -->
<svg width="1322pt" height="148pt"
 viewBox="0.00 0.00 1321.50 148.00" xmlns="http://www.w3.org/2000/svg" xmlns:xlink="http://www.w3.org/1999/xlink">
<g id="graph0" class="graph" transform="scale(1 1) rotate(0) translate(4 144)">
<title>PeriodicManager.h</title>
<!-- Node1 -->
<g id="Node000001" class="node">
<title>Node1</title>
<g id="a_Node000001"><a xlink:title=" ">
<polygon fill="#999999" stroke="#666666" points="799,-140 692,-140 692,-121 799,-121 799,-140"/>
<text text-anchor="middle" x="745.5" y="-128" font-family="Helvetica,sans-Serif" font-size="10.00">PeriodicManager.h</text>
</a>
</g>
</g>
<!-- Node2 -->
<g id="Node000002" class="node">
<title>Node2</title>
<g id="a_Node000002"><a xlink:href="_fix_pressure_at_node_algorithm_8_c.html" target="_top" xlink:title=" ">
<polygon fill="white" stroke="#666666" points="167,-79.5 0,-79.5 0,-60.5 167,-60.5 167,-79.5"/>
<text text-anchor="middle" x="83.5" y="-67.5" font-family="Helvetica,sans-Serif" font-size="10.00">FixPressureAtNodeAlgorithm.C</text>
</a>
</g>
</g>
<!-- Node1&#45;&gt;Node2 -->
<g id="edge1_Node000001_Node000002" class="edge">
<title>Node1&#45;&gt;Node2</title>
<g id="a_edge1_Node000001_Node000002"><a xlink:title=" ">
<path fill="none" stroke="#63b8ff" d="M681.48,-125.99C576.01,-119.86 359.19,-105.87 176.5,-85 163.2,-83.48 148.88,-81.5 135.55,-79.51"/>
<polygon fill="#63b8ff" stroke="#63b8ff" points="681.45,-129.49 691.64,-126.57 681.86,-122.5 681.45,-129.49"/>
</a>
</g>
</g>
<!-- Node3 -->
<g id="Node000003" class="node">
<title>Node3</title>
<g id="a_Node000003"><a xlink:href="_low_mach_equation_system_8_c.html" target="_top" xlink:title=" ">
<polygon fill="white" stroke="#666666" points="337.5,-79.5 185.5,-79.5 185.5,-60.5 337.5,-60.5 337.5,-79.5"/>
<text text-anchor="middle" x="261.5" y="-67.5" font-family="Helvetica,sans-Serif" font-size="10.00">LowMachEquationSystem.C</text>
</a>
</g>
</g>
<!-- Node1&#45;&gt;Node3 -->
<g id="edge2_Node000001_Node000003" class="edge">
<title>Node1&#45;&gt;Node3</title>
<g id="a_edge2_Node000001_Node000003"><a xlink:title=" ">
<path fill="none" stroke="#63b8ff" d="M681.56,-123.41C602.66,-115.65 464.45,-101.28 346.5,-85 334.8,-83.38 322.22,-81.43 310.43,-79.51"/>
<polygon fill="#63b8ff" stroke="#63b8ff" points="681.53,-126.92 691.82,-124.41 682.21,-119.95 681.53,-126.92"/>
</a>
</g>
</g>
<!-- Node4 -->
<g id="Node000004" class="node">
<title>Node4</title>
<g id="a_Node000004"><a xlink:href="_matrix_free_heat_cond_equation_system_8_c.html" target="_top" xlink:title=" ">
<polygon fill="white" stroke="#666666" points="515.5,-85 355.5,-85 355.5,-55 515.5,-55 515.5,-85"/>
<text text-anchor="start" x="363.5" y="-73" font-family="Helvetica,sans-Serif" font-size="10.00">MatrixFreeHeatCondEquation</text>
<text text-anchor="middle" x="435.5" y="-62" font-family="Helvetica,sans-Serif" font-size="10.00">System.C</text>
</a>
</g>
</g>
<!-- Node1&#45;&gt;Node4 -->
<g id="edge3_Node000001_Node000004" class="edge">
<title>Node1&#45;&gt;Node4</title>
<g id="a_edge3_Node000001_Node000004"><a xlink:title=" ">
<path fill="none" stroke="#63b8ff" d="M690.39,-119.1C640.07,-109.6 565.29,-95.49 509.73,-85.01"/>
<polygon fill="#63b8ff" stroke="#63b8ff" points="689.95,-122.58 700.42,-120.99 691.25,-115.7 689.95,-122.58"/>
</a>
</g>
</g>
<!-- Node5 -->
<g id="Node000005" class="node">
<title>Node5</title>
<g id="a_Node000005"><a xlink:href="_periodic_manager_8_c.html" target="_top" xlink:title=" ">
<polygon fill="white" stroke="#666666" points="641,-79.5 534,-79.5 534,-60.5 641,-60.5 641,-79.5"/>
<text text-anchor="middle" x="587.5" y="-67.5" font-family="Helvetica,sans-Serif" font-size="10.00">PeriodicManager.C</text>
</a>
</g>
</g>
<!-- Node1&#45;&gt;Node5 -->
<g id="edge4_Node000001_Node000005" class="edge">
<title>Node1&#45;&gt;Node5</title>
<g id="a_edge4_Node000001_Node000005"><a xlink:title=" ">
<path fill="none" stroke="#63b8ff" d="M712.76,-117.38C682.22,-106.07 637.43,-89.49 610.5,-79.52"/>
<polygon fill="#63b8ff" stroke="#63b8ff" points="711.93,-120.8 722.53,-120.99 714.36,-114.24 711.93,-120.8"/>
</a>
</g>
</g>
<!-- Node6 -->
<g id="Node000006" class="node">
<title>Node6</title>
<g id="a_Node000006"><a xlink:href="_realm_8_c.html" target="_top" xlink:title=" ">
<polygon fill="white" stroke="#666666" points="717.5,-79.5 659.5,-79.5 659.5,-60.5 717.5,-60.5 717.5,-79.5"/>
<text text-anchor="middle" x="688.5" y="-67.5" font-family="Helvetica,sans-Serif" font-size="10.00">Realm.C</text>
</a>
</g>
</g>
<!-- Node1&#45;&gt;Node6 -->
<g id="edge5_Node000001_Node000006" class="edge">
<title>Node1&#45;&gt;Node6</title>
<g id="a_edge5_Node000001_Node000006"><a xlink:title=" ">
<path fill="none" stroke="#63b8ff" d="M730,-113.59C719.35,-102.67 705.63,-88.58 696.95,-79.67"/>
<polygon fill="#63b8ff" stroke="#63b8ff" points="727.6,-116.15 737.09,-120.87 732.62,-111.26 727.6,-116.15"/>
</a>
</g>
</g>
<!-- Node7 -->
<g id="Node000007" class="node">
<title>Node7</title>
<g id="a_Node000007"><a xlink:href="_s_d_r_wall_func_alg_driver_8_c.html" target="_top" xlink:title=" ">
<polygon fill="white" stroke="#666666" points="871,-79.5 736,-79.5 736,-60.5 871,-60.5 871,-79.5"/>
<text text-anchor="middle" x="803.5" y="-67.5" font-family="Helvetica,sans-Serif" font-size="10.00">SDRWallFuncAlgDriver.C</text>
</a>
</g>
</g>
<!-- Node1&#45;&gt;Node7 -->
<g id="edge6_Node000001_Node000007" class="edge">
<title>Node1&#45;&gt;Node7</title>
<g id="a_edge6_Node000001_Node000007"><a xlink:title=" ">
<path fill="none" stroke="#63b8ff" d="M761.27,-113.59C772.1,-102.67 786.07,-88.58 794.91,-79.67"/>
<polygon fill="#63b8ff" stroke="#63b8ff" points="758.61,-111.3 754.06,-120.87 763.58,-116.23 758.61,-111.3"/>
</a>
</g>
</g>
<!-- Node8 -->
<g id="Node000008" class="node">
<title>Node8</title>
<g id="a_Node000008"><a xlink:href="_tpetra_linear_system_8_c.html" target="_top" xlink:title=" ">
<polygon fill="white" stroke="#666666" points="935,-19 810,-19 810,0 935,0 935,-19"/>
<text text-anchor="middle" x="872.5" y="-7" font-family="Helvetica,sans-Serif" font-size="10.00">TpetraLinearSystem.C</text>
</a>
</g>
</g>
<!-- Node1&#45;&gt;Node8 -->
<g id="edge7_Node000001_Node000008" class="edge">
<title>Node1&#45;&gt;Node8</title>
<g id="a_edge7_Node000001_Node000008"><a xlink:title=" ">
<path fill="none" stroke="#63b8ff" d="M809.01,-124.39C835.25,-118.78 863.28,-107.47 879.5,-85 893.79,-65.19 883.32,-34.3 876.74,-19.28"/>
<polygon fill="#63b8ff" stroke="#63b8ff" points="808.24,-120.98 799.07,-126.28 809.55,-127.85 808.24,-120.98"/>
</a>
</g>
</g>
<!-- Node9 -->
<g id="Node000009" class="node">
<title>Node9</title>
<g id="a_Node000009"><a xlink:href="_tpetra_linear_system_helpers_8_c.html" target="_top" xlink:title=" ">
<polygon fill="white" stroke="#666666" points="1115.5,-19 953.5,-19 953.5,0 1115.5,0 1115.5,-19"/>
<text text-anchor="middle" x="1034.5" y="-7" font-family="Helvetica,sans-Serif" font-size="10.00">TpetraLinearSystemHelpers.C</text>
</a>
</g>
</g>
<!-- Node1&#45;&gt;Node9 -->
<g id="edge8_Node000001_Node000009" class="edge">
<title>Node1&#45;&gt;Node9</title>
<g id="a_edge8_Node000001_Node000009"><a xlink:title=" ">
<path fill="none" stroke="#63b8ff" d="M809.41,-125.96C905.94,-119.95 1079.73,-106.29 1098.5,-85 1107.32,-75 1104.68,-66.82 1098.5,-55 1089.66,-38.09 1071.14,-26.31 1056.29,-19.13"/>
<polygon fill="#63b8ff" stroke="#63b8ff" points="808.95,-122.48 799.18,-126.58 809.38,-129.47 808.95,-122.48"/>
</a>
</g>
</g>
<!-- Node10 -->
<g id="Node000010" class="node">
<title>Node10</title>
<g id="a_Node000010"><a xlink:href="_tpetra_linear_system_helpers_8h.html" target="_top" xlink:title=" ">
<polygon fill="white" stroke="#666666" points="1089,-79.5 928,-79.5 928,-60.5 1089,-60.5 1089,-79.5"/>
<text text-anchor="middle" x="1008.5" y="-67.5" font-family="Helvetica,sans-Serif" font-size="10.00">TpetraLinearSystemHelpers.h</text>
</a>
</g>
</g>
<!-- Node1&#45;&gt;Node10 -->
<g id="edge9_Node000001_Node000010" class="edge">
<title>Node1&#45;&gt;Node10</title>
<g id="a_edge9_Node000001_Node000010"><a xlink:title=" ">
<path fill="none" stroke="#63b8ff" d="M793.51,-118.82C844.3,-107.52 923.44,-89.92 970.21,-79.52"/>
<polygon fill="#63b8ff" stroke="#63b8ff" points="792.74,-115.41 783.74,-120.99 794.26,-122.24 792.74,-115.41"/>
</a>
</g>
</g>
<!-- Node11 -->
<g id="Node000011" class="node">
<title>Node11</title>
<g id="a_Node000011"><a xlink:href="_tpetra_segregated_linear_system_8_c.html" target="_top" xlink:title=" ">
<polygon fill="white" stroke="#666666" points="1313.5,-19 1133.5,-19 1133.5,0 1313.5,0 1313.5,-19"/>
<text text-anchor="middle" x="1223.5" y="-7" font-family="Helvetica,sans-Serif" font-size="10.00">TpetraSegregatedLinearSystem.C</text>
</a>
</g>
</g>
<!-- Node1&#45;&gt;Node11 -->
<g id="edge13_Node000001_Node000011" class="edge">
<title>Node1&#45;&gt;Node11</title>
<g id="a_edge13_Node000001_Node000011"><a xlink:title=" ">
<path fill="none" stroke="#63b8ff" d="M809.29,-125.48C899.69,-119.15 1060.13,-105.45 1114.5,-85 1155.69,-69.51 1196.41,-35.35 1214.19,-19.24"/>
<polygon fill="#63b8ff" stroke="#63b8ff" points="808.9,-121.99 799.16,-126.17 809.38,-128.98 808.9,-121.99"/>
</a>
</g>
</g>
<!-- Node10&#45;&gt;Node8 -->
<g id="edge10_Node000010_Node000008" class="edge">
<title>Node10&#45;&gt;Node8</title>
<g id="a_edge10_Node000010_Node000008"><a xlink:title=" ">
<path fill="none" stroke="#63b8ff" d="M979.28,-56.43C953.02,-45.14 915.17,-28.86 892.3,-19.02"/>
<polygon fill="#63b8ff" stroke="#63b8ff" points="978.16,-59.76 988.72,-60.49 980.92,-53.33 978.16,-59.76"/>
</a>
</g>
</g>
<!-- Node10&#45;&gt;Node9 -->
<g id="edge11_Node000010_Node000009" class="edge">
<title>Node10&#45;&gt;Node9</title>
<g id="a_edge11_Node000010_Node000009"><a xlink:title=" ">
<path fill="none" stroke="#63b8ff" d="M1016.43,-51.15C1021.15,-40.54 1026.92,-27.56 1030.65,-19.17"/>
<polygon fill="#63b8ff" stroke="#63b8ff" points="1013.2,-49.81 1012.34,-60.37 1019.6,-52.65 1013.2,-49.81"/>
</a>
</g>
</g>
<!-- Node10&#45;&gt;Node11 -->
<g id="edge12_Node000010_Node000011" class="edge">
<title>Node10&#45;&gt;Node11</title>
<g id="a_edge12_Node000010_Node000011"><a xlink:title=" ">
<path fill="none" stroke="#63b8ff" d="M1049.58,-57.82C1091.15,-46.51 1154.52,-29.27 1192.2,-19.02"/>
<polygon fill="#63b8ff" stroke="#63b8ff" points="1048.49,-54.49 1039.76,-60.49 1050.33,-61.25 1048.49,-54.49"/>
</a>
</g>
</g>
</g>
</svg>
