<?xml version="1.0" encoding="UTF-8" standalone="no"?>
<!DOCTYPE svg PUBLIC "-//W3C//DTD SVG 1.1//EN"
 "http://www.w3.org/Graphics/SVG/1.1/DTD/svg11.dtd">
<!-- Generated by graphviz version 2.43.0 (0)
 -->
<!-- Title: PerturbedShearLayerAuxFunctions.C Pages: 1 -->
<svg width="495pt" height="148pt"
 viewBox="0.00 0.00 495.00 148.00" xmlns="http://www.w3.org/2000/svg" xmlns:xlink="http://www.w3.org/1999/xlink">

<svg id="main" version="1.1" xmlns="http://www.w3.org/2000/svg" xmlns:xlink="http://www.w3.org/1999/xlink" xml:space="preserve" onload="init(evt)">
<style type="text/css"><![CDATA[
.node, .edge {opacity: 0.7;}
.node.selected, .edge.selected {opacity: 1;}
.edge:hover path { stroke: red; }
.edge:hover polygon { stroke: red; fill: red; }
]]></style>
<script type="application/ecmascript" xlink:href="svg.min.js"/>
<svg id="graph" class="graph">
<g id="graph0" class="graph" transform="scale(1 1) rotate(0) translate(4 144)">
<title>PerturbedShearLayerAuxFunctions.C</title>
<!-- Node1 -->
<g id="Node000001" class="node">
<title>Node1</title>
<g id="a_Node000001"><a xlink:title=" ">
<polygon fill="#999999" stroke="#666666" points="368,-140 174,-140 174,-121 368,-121 368,-140"/>
<text text-anchor="middle" x="271" y="-128" font-family="Helvetica,sans-Serif" font-size="10.00">PerturbedShearLayerAuxFunctions.C</text>
</a>
</g>
</g>
<!-- Node2 -->
<g id="Node000002" class="node">
<title>Node2</title>
<g id="a_Node000002"><a xlink:href="_perturbed_shear_layer_aux_functions_8h.html" target="_top" xlink:title=" ">
<polygon fill="white" stroke="#666666" points="146,-85 0,-85 0,-55 146,-55 146,-85"/>
<text text-anchor="start" x="8" y="-73" font-family="Helvetica,sans-Serif" font-size="10.00">user_functions/Perturbed</text>
<text text-anchor="middle" x="73" y="-62" font-family="Helvetica,sans-Serif" font-size="10.00">ShearLayerAuxFunctions.h</text>
</a>
</g>
</g>
<!-- Node1&#45;&gt;Node2 -->
<g id="edge1_Node000001_Node000002" class="edge">
<title>Node1&#45;&gt;Node2</title>
<g id="a_edge1_Node000001_Node000002"><a xlink:title=" ">
<path fill="none" stroke="#63b8ff" d="M242.21,-120.99C212.97,-112.35 166.89,-98.74 130.2,-87.9"/>
<polygon fill="#63b8ff" stroke="#63b8ff" points="131.18,-84.54 120.6,-85.06 129.2,-91.25 131.18,-84.54"/>
</a>
</g>
</g>
<!-- Node4 -->
<g id="Node000004" class="node">
<title>Node4</title>
<g id="a_Node000004"><a xlink:title=" ">
<polygon fill="#e0e0e0" stroke="#999999" points="189.5,-19 142.5,-19 142.5,0 189.5,0 189.5,-19"/>
<text text-anchor="middle" x="166" y="-7" font-family="Helvetica,sans-Serif" font-size="10.00">vector</text>
</a>
</g>
</g>
<!-- Node1&#45;&gt;Node4 -->
<g id="edge6_Node000001_Node000004" class="edge">
<title>Node1&#45;&gt;Node4</title>
<g id="a_edge6_Node000001_Node000004"><a xlink:title=" ">
<path fill="none" stroke="#63b8ff" d="M246.86,-120.96C229.7,-113.77 207.26,-101.93 193,-85 179.46,-68.93 172.47,-45.51 169.03,-29.24"/>
<polygon fill="#63b8ff" stroke="#63b8ff" points="172.45,-28.48 167.18,-19.29 165.56,-29.76 172.45,-28.48"/>
</a>
</g>
</g>
<!-- Node5 -->
<g id="Node000005" class="node">
<title>Node5</title>
<g id="a_Node000005"><a xlink:title=" ">
<polygon fill="#e0e0e0" stroke="#999999" points="266,-79.5 202,-79.5 202,-60.5 266,-60.5 266,-79.5"/>
<text text-anchor="middle" x="234" y="-67.5" font-family="Helvetica,sans-Serif" font-size="10.00">algorithm</text>
</a>
</g>
</g>
<!-- Node1&#45;&gt;Node5 -->
<g id="edge4_Node000001_Node000005" class="edge">
<title>Node1&#45;&gt;Node5</title>
<g id="a_edge4_Node000001_Node000005"><a xlink:title=" ">
<path fill="none" stroke="#63b8ff" d="M265.54,-120.87C260.13,-112.31 251.69,-98.97 244.9,-88.24"/>
<polygon fill="#63b8ff" stroke="#63b8ff" points="247.79,-86.25 239.48,-79.67 241.87,-89.99 247.79,-86.25"/>
</a>
</g>
</g>
<!-- Node6 -->
<g id="Node000006" class="node">
<title>Node6</title>
<g id="a_Node000006"><a xlink:title=" ">
<polygon fill="#e0e0e0" stroke="#999999" points="331.5,-79.5 284.5,-79.5 284.5,-60.5 331.5,-60.5 331.5,-79.5"/>
<text text-anchor="middle" x="308" y="-67.5" font-family="Helvetica,sans-Serif" font-size="10.00">cmath</text>
</a>
</g>
</g>
<!-- Node1&#45;&gt;Node6 -->
<g id="edge5_Node000001_Node000006" class="edge">
<title>Node1&#45;&gt;Node6</title>
<g id="a_edge5_Node000001_Node000006"><a xlink:title=" ">
<path fill="none" stroke="#63b8ff" d="M276.46,-120.87C281.87,-112.31 290.31,-98.97 297.1,-88.24"/>
<polygon fill="#63b8ff" stroke="#63b8ff" points="300.13,-89.99 302.52,-79.67 294.21,-86.25 300.13,-89.99"/>
</a>
</g>
</g>
<!-- Node7 -->
<g id="Node000007" class="node">
<title>Node7</title>
<g id="a_Node000007"><a xlink:title=" ">
<polygon fill="#e0e0e0" stroke="#999999" points="414.5,-79.5 349.5,-79.5 349.5,-60.5 414.5,-60.5 414.5,-79.5"/>
<text text-anchor="middle" x="382" y="-67.5" font-family="Helvetica,sans-Serif" font-size="10.00">stdexcept</text>
</a>
</g>
</g>
<!-- Node1&#45;&gt;Node7 -->
<g id="edge7_Node000001_Node000007" class="edge">
<title>Node1&#45;&gt;Node7</title>
<g id="a_edge7_Node000001_Node000007"><a xlink:title=" ">
<path fill="none" stroke="#63b8ff" d="M287.38,-120.87C305.58,-111.28 335.2,-95.67 356.45,-84.47"/>
<polygon fill="#63b8ff" stroke="#63b8ff" points="358.34,-87.43 365.55,-79.67 355.08,-81.23 358.34,-87.43"/>
</a>
</g>
</g>
<!-- Node8 -->
<g id="Node000008" class="node">
<title>Node8</title>
<g id="a_Node000008"><a xlink:title=" ">
<polygon fill="#e0e0e0" stroke="#999999" points="487,-79.5 433,-79.5 433,-60.5 487,-60.5 487,-79.5"/>
<text text-anchor="middle" x="460" y="-67.5" font-family="Helvetica,sans-Serif" font-size="10.00">random</text>
</a>
</g>
</g>
<!-- Node1&#45;&gt;Node8 -->
<g id="edge8_Node000001_Node000008" class="edge">
<title>Node1&#45;&gt;Node8</title>
<g id="a_edge8_Node000001_Node000008"><a xlink:title=" ">
<path fill="none" stroke="#63b8ff" d="M303.49,-120.94C334.64,-112.53 382.87,-98.95 424,-85 425.66,-84.44 427.35,-83.84 429.06,-83.23"/>
<polygon fill="#63b8ff" stroke="#63b8ff" points="430.65,-86.38 438.79,-79.6 428.2,-79.82 430.65,-86.38"/>
</a>
</g>
</g>
<!-- Node3 -->
<g id="Node000003" class="node">
<title>Node3</title>
<g id="a_Node000003"><a xlink:href="_aux_function_8h.html" target="_top" xlink:title=" ">
<polygon fill="white" stroke="#666666" points="116,-19 30,-19 30,0 116,0 116,-19"/>
<text text-anchor="middle" x="73" y="-7" font-family="Helvetica,sans-Serif" font-size="10.00">AuxFunction.h</text>
</a>
</g>
</g>
<!-- Node2&#45;&gt;Node3 -->
<g id="edge2_Node000002_Node000003" class="edge">
<title>Node2&#45;&gt;Node3</title>
<g id="a_edge2_Node000002_Node000003"><a xlink:title=" ">
<path fill="none" stroke="#63b8ff" d="M73,-54.84C73,-47.21 73,-37.7 73,-29.45"/>
<polygon fill="#63b8ff" stroke="#63b8ff" points="76.5,-29.27 73,-19.27 69.5,-29.27 76.5,-29.27"/>
</a>
</g>
</g>
<!-- Node2&#45;&gt;Node4 -->
<g id="edge3_Node000002_Node000004" class="edge">
<title>Node2&#45;&gt;Node4</title>
<g id="a_edge3_Node000002_Node000004"><a xlink:title=" ">
<path fill="none" stroke="#63b8ff" d="M95.51,-54.84C110.06,-45.68 128.93,-33.82 143.49,-24.66"/>
<polygon fill="#63b8ff" stroke="#63b8ff" points="145.74,-27.38 152.34,-19.09 142.01,-21.46 145.74,-27.38"/>
</a>
</g>
</g>
</g>
</svg>
</svg>

<style type='text/css'>
<![CDATA[
[data-mouse-over-selected='false'] { opacity: 0.7; }
[data-mouse-over-selected='true']  { opacity: 1.0; }
]]>
</style>
<script type="application/ecmascript"><![CDATA[
document.addEventListener('DOMContentLoaded', (event) => {
  highlightEdges();
  highlightAdjacentNodes();
});
]]></script>
</svg>
