<?xml version="1.0" encoding="UTF-8" standalone="no"?>
<!DOCTYPE svg PUBLIC "-//W3C//DTD SVG 1.1//EN"
 "http://www.w3.org/Graphics/SVG/1.1/DTD/svg11.dtd">
<!-- Generated by graphviz version 2.43.0 (0)
 -->
<!-- Title: PolynomialPropertyEvaluator.h Pages: 1 -->
<svg width="698pt" height="140pt"
 viewBox="0.00 0.00 698.00 140.00" xmlns="http://www.w3.org/2000/svg" xmlns:xlink="http://www.w3.org/1999/xlink">
<g id="graph0" class="graph" transform="scale(1 1) rotate(0) translate(4 136)">
<title>PolynomialPropertyEvaluator.h</title>
<polygon fill="white" stroke="transparent" points="-4,4 -4,-136 694,-136 694,4 -4,4"/>
<!-- Node1 -->
<g id="node1" class="node">
<title>Node1</title>
<g id="a_node1"><a xlink:title=" ">
<polygon fill="#bfbfbf" stroke="black" points="295.5,-112.5 295.5,-131.5 462.5,-131.5 462.5,-112.5 295.5,-112.5"/>
<text text-anchor="middle" x="379" y="-119.5" font-family="Helvetica,sans-Serif" font-size="10.00">PolynomialPropertyEvaluator.h</text>
</a>
</g>
</g>
<!-- Node2 -->
<g id="node2" class="node">
<title>Node2</title>
<g id="a_node2"><a xlink:href="_enthalpy_property_evaluator_8h.html" target="_top" xlink:title=" ">
<polygon fill="white" stroke="black" points="119.5,-56.5 119.5,-75.5 274.5,-75.5 274.5,-56.5 119.5,-56.5"/>
<text text-anchor="middle" x="197" y="-63.5" font-family="Helvetica,sans-Serif" font-size="10.00">EnthalpyPropertyEvaluator.h</text>
</a>
</g>
</g>
<!-- Node1&#45;&gt;Node2 -->
<g id="edge1" class="edge">
<title>Node1&#45;&gt;Node2</title>
<path fill="none" stroke="midnightblue" d="M340.47,-109.57C306.14,-99.38 256.67,-84.7 225.7,-75.52"/>
<polygon fill="midnightblue" stroke="midnightblue" points="339.58,-112.95 350.16,-112.44 341.57,-106.24 339.58,-112.95"/>
</g>
<!-- Node4 -->
<g id="node4" class="node">
<title>Node4</title>
<g id="a_node4"><a xlink:href="_enthalpy_property_evaluator_8_c.html" target="_top" xlink:title=" ">
<polygon fill="white" stroke="black" points="0,-0.5 0,-19.5 156,-19.5 156,-0.5 0,-0.5"/>
<text text-anchor="middle" x="78" y="-7.5" font-family="Helvetica,sans-Serif" font-size="10.00">EnthalpyPropertyEvaluator.C</text>
</a>
</g>
</g>
<!-- Node1&#45;&gt;Node4 -->
<g id="edge9" class="edge">
<title>Node1&#45;&gt;Node4</title>
<path fill="none" stroke="midnightblue" d="M285.11,-114.36C218.9,-108.02 137.33,-96.33 110,-76 91.23,-62.04 82.84,-34.05 79.66,-19.79"/>
<polygon fill="midnightblue" stroke="midnightblue" points="284.89,-117.86 295.17,-115.3 285.54,-110.89 284.89,-117.86"/>
</g>
<!-- Node6 -->
<g id="node6" class="node">
<title>Node6</title>
<g id="a_node6"><a xlink:href="_specific_heat_property_evaluator_8h.html" target="_top" xlink:title=" ">
<polygon fill="white" stroke="black" points="292.5,-56.5 292.5,-75.5 465.5,-75.5 465.5,-56.5 292.5,-56.5"/>
<text text-anchor="middle" x="379" y="-63.5" font-family="Helvetica,sans-Serif" font-size="10.00">SpecificHeatPropertyEvaluator.h</text>
</a>
</g>
</g>
<!-- Node1&#45;&gt;Node6 -->
<g id="edge5" class="edge">
<title>Node1&#45;&gt;Node6</title>
<path fill="none" stroke="midnightblue" d="M379,-101.8C379,-92.91 379,-82.78 379,-75.75"/>
<polygon fill="midnightblue" stroke="midnightblue" points="375.5,-102.08 379,-112.08 382.5,-102.08 375.5,-102.08"/>
</g>
<!-- Node7 -->
<g id="node7" class="node">
<title>Node7</title>
<g id="a_node7"><a xlink:href="_specific_heat_property_evaluator_8_c.html" target="_top" xlink:title=" ">
<polygon fill="white" stroke="black" points="417,-0.5 417,-19.5 591,-19.5 591,-0.5 417,-0.5"/>
<text text-anchor="middle" x="504" y="-7.5" font-family="Helvetica,sans-Serif" font-size="10.00">SpecificHeatPropertyEvaluator.C</text>
</a>
</g>
</g>
<!-- Node1&#45;&gt;Node7 -->
<g id="edge11" class="edge">
<title>Node1&#45;&gt;Node7</title>
<path fill="none" stroke="midnightblue" d="M419.74,-108.87C438.16,-101.72 459.09,-91.06 474,-76 490.09,-59.75 498.55,-33.28 502.03,-19.68"/>
<polygon fill="midnightblue" stroke="midnightblue" points="418.29,-105.67 410.1,-112.39 420.69,-112.24 418.29,-105.67"/>
</g>
<!-- Node8 -->
<g id="node8" class="node">
<title>Node8</title>
<g id="a_node8"><a xlink:href="_polynomial_property_evaluator_8_c.html" target="_top" xlink:title=" ">
<polygon fill="white" stroke="black" points="522,-56.5 522,-75.5 690,-75.5 690,-56.5 522,-56.5"/>
<text text-anchor="middle" x="606" y="-63.5" font-family="Helvetica,sans-Serif" font-size="10.00">PolynomialPropertyEvaluator.C</text>
</a>
</g>
</g>
<!-- Node1&#45;&gt;Node8 -->
<g id="edge10" class="edge">
<title>Node1&#45;&gt;Node8</title>
<path fill="none" stroke="midnightblue" d="M424.87,-110.09C467.75,-99.89 530.92,-84.86 570.2,-75.52"/>
<polygon fill="midnightblue" stroke="midnightblue" points="423.89,-106.72 414.97,-112.44 425.51,-113.53 423.89,-106.72"/>
</g>
<!-- Node3 -->
<g id="node3" class="node">
<title>Node3</title>
<g id="a_node3"><a xlink:href="_enthalpy_equation_system_8_c.html" target="_top" xlink:title=" ">
<polygon fill="white" stroke="black" points="174.5,-0.5 174.5,-19.5 323.5,-19.5 323.5,-0.5 174.5,-0.5"/>
<text text-anchor="middle" x="249" y="-7.5" font-family="Helvetica,sans-Serif" font-size="10.00">EnthalpyEquationSystem.C</text>
</a>
</g>
</g>
<!-- Node2&#45;&gt;Node3 -->
<g id="edge2" class="edge">
<title>Node2&#45;&gt;Node3</title>
<path fill="none" stroke="midnightblue" d="M212.68,-48.72C221.84,-39.2 233.05,-27.56 240.57,-19.75"/>
<polygon fill="midnightblue" stroke="midnightblue" points="210,-46.45 205.59,-56.08 215.04,-51.31 210,-46.45"/>
</g>
<!-- Node2&#45;&gt;Node4 -->
<g id="edge3" class="edge">
<title>Node2&#45;&gt;Node4</title>
<path fill="none" stroke="midnightblue" d="M168.86,-52.23C146.6,-42.13 116.14,-28.31 96.77,-19.52"/>
<polygon fill="midnightblue" stroke="midnightblue" points="167.59,-55.5 178.14,-56.44 170.48,-49.12 167.59,-55.5"/>
</g>
<!-- Node5 -->
<g id="node5" class="node">
<title>Node5</title>
<g id="a_node5"><a xlink:href="_realm_8_c.html" target="_top" xlink:title=" ">
<polygon fill="white" stroke="black" points="341,-0.5 341,-19.5 399,-19.5 399,-0.5 341,-0.5"/>
<text text-anchor="middle" x="370" y="-7.5" font-family="Helvetica,sans-Serif" font-size="10.00">Realm.C</text>
</a>
</g>
</g>
<!-- Node2&#45;&gt;Node5 -->
<g id="edge4" class="edge">
<title>Node2&#45;&gt;Node5</title>
<path fill="none" stroke="midnightblue" d="M234.05,-53.44C266.66,-43.26 313.41,-28.66 342.72,-19.52"/>
<polygon fill="midnightblue" stroke="midnightblue" points="232.92,-50.12 224.41,-56.44 235,-56.8 232.92,-50.12"/>
</g>
<!-- Node6&#45;&gt;Node3 -->
<g id="edge6" class="edge">
<title>Node6&#45;&gt;Node3</title>
<path fill="none" stroke="midnightblue" d="M348.91,-52.5C324.54,-42.38 290.86,-28.39 269.5,-19.52"/>
<polygon fill="midnightblue" stroke="midnightblue" points="347.82,-55.84 358.4,-56.44 350.51,-49.38 347.82,-55.84"/>
</g>
<!-- Node6&#45;&gt;Node5 -->
<g id="edge8" class="edge">
<title>Node6&#45;&gt;Node5</title>
<path fill="none" stroke="midnightblue" d="M375.85,-46.1C374.36,-37.14 372.64,-26.86 371.46,-19.75"/>
<polygon fill="midnightblue" stroke="midnightblue" points="372.42,-46.79 377.51,-56.08 379.32,-45.64 372.42,-46.79"/>
</g>
<!-- Node6&#45;&gt;Node7 -->
<g id="edge7" class="edge">
<title>Node6&#45;&gt;Node7</title>
<path fill="none" stroke="midnightblue" d="M408.24,-52.37C431.65,-42.26 463.84,-28.35 484.29,-19.52"/>
<polygon fill="midnightblue" stroke="midnightblue" points="406.6,-49.26 398.81,-56.44 409.37,-55.69 406.6,-49.26"/>
</g>
</g>
</svg>
