<?xml version="1.0" encoding="UTF-8" standalone="no"?>
<!DOCTYPE svg PUBLIC "-//W3C//DTD SVG 1.1//EN"
 "http://www.w3.org/Graphics/SVG/1.1/DTD/svg11.dtd">
<!-- Generated by graphviz version 2.43.0 (0)
 -->
<!-- Title: PromotedPartHelper.C Pages: 1 -->
<svg width="981pt" height="151pt"
 viewBox="0.00 0.00 980.50 151.00" xmlns="http://www.w3.org/2000/svg" xmlns:xlink="http://www.w3.org/1999/xlink">
<g id="graph0" class="graph" transform="scale(1 1) rotate(0) translate(4 147)">
<title>PromotedPartHelper.C</title>
<polygon fill="white" stroke="transparent" points="-4,4 -4,-147 976.5,-147 976.5,4 -4,4"/>
<!-- Node1 -->
<g id="node1" class="node">
<title>Node1</title>
<g id="a_node1"><a xlink:title=" ">
<polygon fill="#bfbfbf" stroke="black" points="280.5,-123.5 280.5,-142.5 404.5,-142.5 404.5,-123.5 280.5,-123.5"/>
<text text-anchor="middle" x="342.5" y="-130.5" font-family="Helvetica,sans-Serif" font-size="10.00">PromotedPartHelper.C</text>
</a>
</g>
</g>
<!-- Node2 -->
<g id="node2" class="node">
<title>Node2</title>
<g id="a_node2"><a xlink:href="_promoted_part_helper_8h.html" target="_top" xlink:title=" ">
<polygon fill="white" stroke="black" points="90,-56.5 90,-86.5 253,-86.5 253,-56.5 90,-56.5"/>
<text text-anchor="start" x="98" y="-74.5" font-family="Helvetica,sans-Serif" font-size="10.00">element_promotion/Promoted</text>
<text text-anchor="middle" x="171.5" y="-63.5" font-family="Helvetica,sans-Serif" font-size="10.00">PartHelper.h</text>
</a>
</g>
</g>
<!-- Node1&#45;&gt;Node2 -->
<g id="edge1" class="edge">
<title>Node1&#45;&gt;Node2</title>
<path fill="none" stroke="midnightblue" d="M318,-123.48C292.89,-114.74 253.14,-100.91 221.38,-89.86"/>
<polygon fill="midnightblue" stroke="midnightblue" points="222.4,-86.5 211.8,-86.52 220.1,-93.11 222.4,-86.5"/>
</g>
<!-- Node3 -->
<g id="node3" class="node">
<title>Node3</title>
<g id="a_node3"><a xlink:title=" ">
<polygon fill="white" stroke="#bfbfbf" points="0,-0.5 0,-19.5 47,-19.5 47,-0.5 0,-0.5"/>
<text text-anchor="middle" x="23.5" y="-7.5" font-family="Helvetica,sans-Serif" font-size="10.00">vector</text>
</a>
</g>
</g>
<!-- Node1&#45;&gt;Node3 -->
<g id="edge14" class="edge">
<title>Node1&#45;&gt;Node3</title>
<path fill="none" stroke="midnightblue" d="M280.41,-127.88C210.45,-122.2 102.08,-109.95 68.5,-87 48.37,-73.24 35.89,-47.26 29.32,-29.54"/>
<polygon fill="midnightblue" stroke="midnightblue" points="32.52,-28.09 25.97,-19.76 25.9,-30.35 32.52,-28.09"/>
</g>
<!-- Node4 -->
<g id="node4" class="node">
<title>Node4</title>
<g id="a_node4"><a xlink:title=" ">
<polygon fill="white" stroke="#bfbfbf" points="65.5,-0.5 65.5,-19.5 109.5,-19.5 109.5,-0.5 65.5,-0.5"/>
<text text-anchor="middle" x="87.5" y="-7.5" font-family="Helvetica,sans-Serif" font-size="10.00">string</text>
</a>
</g>
</g>
<!-- Node1&#45;&gt;Node4 -->
<g id="edge15" class="edge">
<title>Node1&#45;&gt;Node4</title>
<path fill="none" stroke="midnightblue" d="M280.38,-130.24C211.14,-126.82 105.56,-116.73 80.5,-87 67.06,-71.06 72.79,-46 79.2,-29.06"/>
<polygon fill="midnightblue" stroke="midnightblue" points="82.48,-30.29 83.11,-19.71 76.02,-27.58 82.48,-30.29"/>
</g>
<!-- Node5 -->
<g id="node5" class="node">
<title>Node5</title>
<g id="a_node5"><a xlink:title=" ">
<polygon fill="white" stroke="#bfbfbf" points="128,-0.5 128,-19.5 273,-19.5 273,-0.5 128,-0.5"/>
<text text-anchor="middle" x="200.5" y="-7.5" font-family="Helvetica,sans-Serif" font-size="10.00">stk_topology/topology.hpp</text>
</a>
</g>
</g>
<!-- Node1&#45;&gt;Node5 -->
<g id="edge12" class="edge">
<title>Node1&#45;&gt;Node5</title>
<path fill="none" stroke="midnightblue" d="M333.82,-123.21C319.33,-108.67 289.06,-78.96 261.5,-56 248.61,-45.26 233.43,-34.06 221.43,-25.51"/>
<polygon fill="midnightblue" stroke="midnightblue" points="223.17,-22.45 212.98,-19.55 219.13,-28.17 223.17,-22.45"/>
</g>
<!-- Node6 -->
<g id="node6" class="node">
<title>Node6</title>
<g id="a_node6"><a xlink:href="_nalu_env_8h.html" target="_top" xlink:title=" ">
<polygon fill="white" stroke="black" points="310,-62 310,-81 375,-81 375,-62 310,-62"/>
<text text-anchor="middle" x="342.5" y="-69" font-family="Helvetica,sans-Serif" font-size="10.00">NaluEnv.h</text>
</a>
</g>
</g>
<!-- Node1&#45;&gt;Node6 -->
<g id="edge5" class="edge">
<title>Node1&#45;&gt;Node6</title>
<path fill="none" stroke="midnightblue" d="M342.5,-123.48C342.5,-115.08 342.5,-101.98 342.5,-91.16"/>
<polygon fill="midnightblue" stroke="midnightblue" points="346,-91.01 342.5,-81.01 339,-91.01 346,-91.01"/>
</g>
<!-- Node10 -->
<g id="node10" class="node">
<title>Node10</title>
<g id="a_node10"><a xlink:title=" ">
<polygon fill="white" stroke="#bfbfbf" points="393.5,-62 393.5,-81 555.5,-81 555.5,-62 393.5,-62"/>
<text text-anchor="middle" x="474.5" y="-69" font-family="Helvetica,sans-Serif" font-size="10.00">stk_mesh/base/MetaData.hpp</text>
</a>
</g>
</g>
<!-- Node1&#45;&gt;Node10 -->
<g id="edge9" class="edge">
<title>Node1&#45;&gt;Node10</title>
<path fill="none" stroke="midnightblue" d="M361.41,-123.48C383.66,-113.45 420.81,-96.7 446.43,-85.15"/>
<polygon fill="midnightblue" stroke="midnightblue" points="447.94,-88.31 455.62,-81.01 445.07,-81.93 447.94,-88.31"/>
</g>
<!-- Node11 -->
<g id="node11" class="node">
<title>Node11</title>
<g id="a_node11"><a xlink:title=" ">
<polygon fill="white" stroke="#bfbfbf" points="574,-62 574,-81 707,-81 707,-62 574,-62"/>
<text text-anchor="middle" x="640.5" y="-69" font-family="Helvetica,sans-Serif" font-size="10.00">stk_mesh/base/Part.hpp</text>
</a>
</g>
</g>
<!-- Node1&#45;&gt;Node11 -->
<g id="edge10" class="edge">
<title>Node1&#45;&gt;Node11</title>
<path fill="none" stroke="midnightblue" d="M385.2,-123.48C438.64,-112.8 530.15,-94.53 587.87,-83.01"/>
<polygon fill="midnightblue" stroke="midnightblue" points="588.76,-86.4 597.88,-81.01 587.39,-79.53 588.76,-86.4"/>
</g>
<!-- Node12 -->
<g id="node12" class="node">
<title>Node12</title>
<g id="a_node12"><a xlink:title=" ">
<polygon fill="white" stroke="#bfbfbf" points="725,-62 725,-81 890,-81 890,-62 725,-62"/>
<text text-anchor="middle" x="807.5" y="-69" font-family="Helvetica,sans-Serif" font-size="10.00">stk_util/util/ReportHandler.hpp</text>
</a>
</g>
</g>
<!-- Node1&#45;&gt;Node12 -->
<g id="edge11" class="edge">
<title>Node1&#45;&gt;Node12</title>
<path fill="none" stroke="midnightblue" d="M404.8,-125.24C479.11,-117.01 607.04,-102.3 716.5,-87 726.02,-85.67 736.09,-84.16 745.93,-82.64"/>
<polygon fill="midnightblue" stroke="midnightblue" points="746.72,-86.06 756.06,-81.05 745.64,-79.14 746.72,-86.06"/>
</g>
<!-- Node13 -->
<g id="node13" class="node">
<title>Node13</title>
<g id="a_node13"><a xlink:title=" ">
<polygon fill="white" stroke="#bfbfbf" points="908.5,-62 908.5,-81 972.5,-81 972.5,-62 908.5,-62"/>
<text text-anchor="middle" x="940.5" y="-69" font-family="Helvetica,sans-Serif" font-size="10.00">algorithm</text>
</a>
</g>
</g>
<!-- Node1&#45;&gt;Node13 -->
<g id="edge13" class="edge">
<title>Node1&#45;&gt;Node13</title>
<path fill="none" stroke="midnightblue" d="M404.66,-132.2C508.38,-131.37 722.79,-124.72 899.5,-87 902.93,-86.27 906.46,-85.33 909.94,-84.27"/>
<polygon fill="midnightblue" stroke="midnightblue" points="911.13,-87.57 919.52,-81.09 908.93,-80.92 911.13,-87.57"/>
</g>
<!-- Node2&#45;&gt;Node3 -->
<g id="edge2" class="edge">
<title>Node2&#45;&gt;Node3</title>
<path fill="none" stroke="midnightblue" d="M136.43,-56.4C111.48,-46.37 78.29,-33.03 54.36,-23.4"/>
<polygon fill="midnightblue" stroke="midnightblue" points="55.62,-20.14 45.04,-19.66 53.01,-26.64 55.62,-20.14"/>
</g>
<!-- Node2&#45;&gt;Node4 -->
<g id="edge3" class="edge">
<title>Node2&#45;&gt;Node4</title>
<path fill="none" stroke="midnightblue" d="M151.59,-56.4C138.51,-47.13 121.42,-35.03 108.18,-25.65"/>
<polygon fill="midnightblue" stroke="midnightblue" points="109.91,-22.58 99.72,-19.66 105.86,-28.29 109.91,-22.58"/>
</g>
<!-- Node2&#45;&gt;Node5 -->
<g id="edge4" class="edge">
<title>Node2&#45;&gt;Node5</title>
<path fill="none" stroke="midnightblue" d="M178.37,-56.4C182.41,-48.11 187.56,-37.55 191.87,-28.71"/>
<polygon fill="midnightblue" stroke="midnightblue" points="195.05,-30.18 196.28,-19.66 188.75,-27.11 195.05,-30.18"/>
</g>
<!-- Node7 -->
<g id="node7" class="node">
<title>Node7</title>
<g id="a_node7"><a xlink:title=" ">
<polygon fill="white" stroke="#bfbfbf" points="291.5,-0.5 291.5,-19.5 335.5,-19.5 335.5,-0.5 291.5,-0.5"/>
<text text-anchor="middle" x="313.5" y="-7.5" font-family="Helvetica,sans-Serif" font-size="10.00">mpi.h</text>
</a>
</g>
</g>
<!-- Node6&#45;&gt;Node7 -->
<g id="edge6" class="edge">
<title>Node6&#45;&gt;Node7</title>
<path fill="none" stroke="midnightblue" d="M338.35,-61.98C334.12,-53.32 327.46,-39.65 322.1,-28.65"/>
<polygon fill="midnightblue" stroke="midnightblue" points="325.17,-26.96 317.65,-19.51 318.88,-30.03 325.17,-26.96"/>
</g>
<!-- Node8 -->
<g id="node8" class="node">
<title>Node8</title>
<g id="a_node8"><a xlink:title=" ">
<polygon fill="white" stroke="#bfbfbf" points="354,-0.5 354,-19.5 409,-19.5 409,-0.5 354,-0.5"/>
<text text-anchor="middle" x="381.5" y="-7.5" font-family="Helvetica,sans-Serif" font-size="10.00">fstream</text>
</a>
</g>
</g>
<!-- Node6&#45;&gt;Node8 -->
<g id="edge7" class="edge">
<title>Node6&#45;&gt;Node8</title>
<path fill="none" stroke="midnightblue" d="M348.09,-61.98C353.88,-53.14 363.09,-39.09 370.37,-27.98"/>
<polygon fill="midnightblue" stroke="midnightblue" points="373.37,-29.79 375.92,-19.51 367.51,-25.95 373.37,-29.79"/>
</g>
<!-- Node9 -->
<g id="node9" class="node">
<title>Node9</title>
<g id="a_node9"><a xlink:title=" ">
<polygon fill="white" stroke="#bfbfbf" points="427,-0.5 427,-19.5 494,-19.5 494,-0.5 427,-0.5"/>
<text text-anchor="middle" x="460.5" y="-7.5" font-family="Helvetica,sans-Serif" font-size="10.00">streambuf</text>
</a>
</g>
</g>
<!-- Node6&#45;&gt;Node9 -->
<g id="edge8" class="edge">
<title>Node6&#45;&gt;Node9</title>
<path fill="none" stroke="midnightblue" d="M359.41,-61.98C379.03,-52.08 411.63,-35.64 434.49,-24.12"/>
<polygon fill="midnightblue" stroke="midnightblue" points="436.27,-27.14 443.62,-19.51 433.12,-20.89 436.27,-27.14"/>
</g>
</g>
</svg>
