<?xml version="1.0" encoding="UTF-8" standalone="no"?>
<!DOCTYPE svg PUBLIC "-//W3C//DTD SVG 1.1//EN"
 "http://www.w3.org/Graphics/SVG/1.1/DTD/svg11.dtd">
<!-- Generated by graphviz version 2.43.0 (0)
 -->
<!-- Title: Realms.h Pages: 1 -->
<!--zoomable 357 -->

<svg id="main" version="1.1" xmlns="http://www.w3.org/2000/svg" xmlns:xlink="http://www.w3.org/1999/xlink" xml:space="preserve" onload="init(evt)">
<style type="text/css"><![CDATA[
.node, .edge {opacity: 0.7;}
.node.selected, .edge.selected {opacity: 1;}
.edge:hover path { stroke: red; }
.edge:hover polygon { stroke: red; fill: red; }
]]></style>

<defs>
  <circle id="rim" cx="0" cy="0" r="7"/>
  <circle id="rim2" cx="0" cy="0" r="3.5"/>
  <g id="zoomPlus">
    <use xlink:href="#rim" fill="#404040"><set attributeName="fill" to="#808080" begin="zoomplus.mouseover" end="zoomplus.mouseout"/></use>
    <path d="M-4,0h8M0,-4v8" fill="none" stroke="white" stroke-width="1.5" pointer-events="none"/>
  </g>
  <g id="zoomMin">
    <use xlink:href="#rim" fill="#404040"><set attributeName="fill" to="#808080" begin="zoomminus.mouseover" end="zoomminus.mouseout"/></use>
    <path d="M-4,0h8" fill="none" stroke="white" stroke-width="1.5" pointer-events="none"/>
  </g>
  <g id="arrowUp" transform="translate(30 24)">
    <use xlink:href="#rim"/>
    <path pointer-events="none" fill="none" stroke="white" stroke-width="1.5" d="M0,-3.0v7 M-2.5,-0.5L0,-3.0L2.5,-0.5"/>
  </g>
  <g id="arrowRight" transform="rotate(90) translate(36 -43)">
    <use xlink:href="#rim"/>
    <path pointer-events="none" fill="none" stroke="white" stroke-width="1.5" d="M0,-3.0v7 M-2.5,-0.5L0,-3.0L2.5,-0.5"/>
  </g>
  <g id="arrowDown" transform="rotate(180) translate(-30 -48)">
    <use xlink:href="#rim"/>
    <path pointer-events="none" fill="none" stroke="white" stroke-width="1.5" d="M0,-3.0v7 M-2.5,-0.5L0,-3.0L2.5,-0.5"/>
  </g>
  <g id="arrowLeft" transform="rotate(270) translate(-36 17)">
    <use xlink:href="#rim"/>
    <path pointer-events="none" fill="none" stroke="white" stroke-width="1.5" d="M0,-3.0v7 M-2.5,-0.5L0,-3.0L2.5,-0.5"/>
  </g>
  <g id="resetDef">
    <use xlink:href="#rim2" fill="#404040"><set attributeName="fill" to="#808080" begin="reset.mouseover" end="reset.mouseout"/></use>
  </g>
</defs>
<script type="application/ecmascript">
var viewWidth = 2028;
var viewHeight = 357;
var sectionId = 'dynsection-0';
</script>
<script type="application/ecmascript" xlink:href="svg.min.js"/>
<svg id="graph" class="graph">
<g id="viewport">
<title>Realms.h</title>
<!-- Node1 -->
<g id="Node000001" class="node">
<title>Node1</title>
<g id="a_Node000001"><a xlink:title=" ">
<polygon fill="#999999" stroke="#666666" points="701.23,-349 639.23,-349 639.23,-330 701.23,-330 701.23,-349"/>
<text text-anchor="middle" x="670.23" y="-337" font-family="Helvetica,sans-Serif" font-size="10.00">Realms.h</text>
</a>
</g>
</g>
<!-- Node2 -->
<g id="Node000002" class="node">
<title>Node2</title>
<g id="a_Node000002"><a xlink:href="_enums_8h.html" target="_top" xlink:title=" ">
<polygon fill="white" stroke="#666666" points="621.73,-184 562.73,-184 562.73,-165 621.73,-165 621.73,-184"/>
<text text-anchor="middle" x="592.23" y="-172" font-family="Helvetica,sans-Serif" font-size="10.00">Enums.h</text>
</a>
</g>
</g>
<!-- Node1&#45;&gt;Node2 -->
<g id="edge1_Node000001_Node000002" class="edge">
<title>Node1&#45;&gt;Node2</title>
<g id="a_edge1_Node000001_Node000002"><a xlink:title=" ">
<path fill="none" stroke="#63b8ff" d="M689.01,-329.96C728.25,-310.97 812.54,-263.49 778.23,-220 760.37,-197.37 681.16,-184.96 632.04,-179.33"/>
<polygon fill="#63b8ff" stroke="#63b8ff" points="632.38,-175.84 622.05,-178.22 631.61,-182.8 632.38,-175.84"/>
</a>
</g>
</g>
<!-- Node3 -->
<g id="Node000003" class="node">
<title>Node3</title>
<g id="a_Node000003"><a xlink:title=" ">
<polygon fill="#e0e0e0" stroke="#999999" points="681.23,-129 637.23,-129 637.23,-110 681.23,-110 681.23,-129"/>
<text text-anchor="middle" x="659.23" y="-117" font-family="Helvetica,sans-Serif" font-size="10.00">string</text>
</a>
</g>
</g>
<!-- Node1&#45;&gt;Node3 -->
<g id="edge71_Node000001_Node000003" class="edge">
<title>Node1&#45;&gt;Node3</title>
<g id="a_edge71_Node000001_Node000003"><a xlink:title=" ">
<path fill="none" stroke="#63b8ff" d="M701.27,-331.72C723.8,-325.38 753.65,-313.81 773.23,-294 797.44,-269.5 803,-253.77 796.23,-220 791.01,-194.02 792.18,-183.51 773.23,-165 750.78,-143.08 716.3,-131.65 691.14,-125.89"/>
<polygon fill="#63b8ff" stroke="#63b8ff" points="691.83,-122.46 681.32,-123.82 690.39,-129.31 691.83,-122.46"/>
</a>
</g>
</g>
<!-- Node4 -->
<g id="Node000004" class="node">
<title>Node4</title>
<g id="a_Node000004"><a xlink:title=" ">
<polygon fill="#e0e0e0" stroke="#999999" points="325.23,-129 287.23,-129 287.23,-110 325.23,-110 325.23,-129"/>
<text text-anchor="middle" x="306.23" y="-117" font-family="Helvetica,sans-Serif" font-size="10.00">map</text>
</a>
</g>
</g>
<!-- Node1&#45;&gt;Node4 -->
<g id="edge70_Node000001_Node000004" class="edge">
<title>Node1&#45;&gt;Node4</title>
<g id="a_edge70_Node000001_Node000004"><a xlink:title=" ">
<path fill="none" stroke="#63b8ff" d="M639.07,-338.78C521.09,-339.13 104.35,-333.55 23.23,-239 10.47,-224.14 10.55,-187.26 33.23,-165 50.47,-148.07 209.39,-130.25 276.52,-123.41"/>
<polygon fill="#63b8ff" stroke="#63b8ff" points="277.24,-126.85 286.83,-122.37 276.53,-119.89 277.24,-126.85"/>
</a>
</g>
</g>
<!-- Node5 -->
<g id="Node000005" class="node">
<title>Node5</title>
<g id="a_Node000005"><a xlink:href="_realm_8h.html" target="_top" xlink:title=" ">
<polygon fill="white" stroke="#666666" points="530.73,-294 473.73,-294 473.73,-275 530.73,-275 530.73,-294"/>
<text text-anchor="middle" x="502.23" y="-282" font-family="Helvetica,sans-Serif" font-size="10.00">Realm.h</text>
</a>
</g>
</g>
<!-- Node1&#45;&gt;Node5 -->
<g id="edge4_Node000001_Node000005" class="edge">
<title>Node1&#45;&gt;Node5</title>
<g id="a_edge4_Node000001_Node000005"><a xlink:title=" ">
<path fill="none" stroke="#63b8ff" d="M643.23,-329.98C615.03,-321.09 570.59,-307.07 539.15,-297.15"/>
<polygon fill="#63b8ff" stroke="#63b8ff" points="540.02,-293.75 529.43,-294.08 537.91,-300.43 540.02,-293.75"/>
</a>
</g>
</g>
<!-- Node12 -->
<g id="Node000012" class="node">
<title>Node12</title>
<g id="a_Node000012"><a xlink:title=" ">
<polygon fill="#e0e0e0" stroke="#999999" points="203.73,-129 156.73,-129 156.73,-110 203.73,-110 203.73,-129"/>
<text text-anchor="middle" x="180.23" y="-117" font-family="Helvetica,sans-Serif" font-size="10.00">vector</text>
</a>
</g>
</g>
<!-- Node1&#45;&gt;Node12 -->
<g id="edge73_Node000001_Node000012" class="edge">
<title>Node1&#45;&gt;Node12</title>
<g id="a_edge73_Node000001_Node000012"><a xlink:title=" ">
<path fill="none" stroke="#63b8ff" d="M638.95,-338.61C531.97,-338.62 181.55,-335.41 78.23,-294 19.18,-270.33 -24.67,-213.72 16.23,-165 32.83,-145.22 103.42,-131.68 146.39,-125.1"/>
<polygon fill="#63b8ff" stroke="#63b8ff" points="147.04,-128.54 156.41,-123.61 146.01,-121.62 147.04,-128.54"/>
</a>
</g>
</g>
<!-- Node35 -->
<g id="Node000035" class="node">
<title>Node35</title>
<g id="a_Node000035"><a xlink:title=" ">
<polygon fill="#e0e0e0" stroke="#999999" points="964.23,-294 900.23,-294 900.23,-275 964.23,-275 964.23,-294"/>
<text text-anchor="middle" x="932.23" y="-282" font-family="Helvetica,sans-Serif" font-size="10.00">algorithm</text>
</a>
</g>
</g>
<!-- Node1&#45;&gt;Node35 -->
<g id="edge72_Node000001_Node000035" class="edge">
<title>Node1&#45;&gt;Node35</title>
<g id="a_edge72_Node000001_Node000035"><a xlink:title=" ">
<path fill="none" stroke="#63b8ff" d="M701.31,-332.21C748.2,-322.73 837.14,-304.73 889.91,-294.06"/>
<polygon fill="#63b8ff" stroke="#63b8ff" points="890.85,-297.44 899.95,-292.03 889.46,-290.58 890.85,-297.44"/>
</a>
</g>
</g>
<!-- Node2&#45;&gt;Node3 -->
<g id="edge2_Node000002_Node000003" class="edge">
<title>Node2&#45;&gt;Node3</title>
<g id="a_edge2_Node000002_Node000003"><a xlink:title=" ">
<path fill="none" stroke="#63b8ff" d="M602.99,-164.98C612.99,-157.07 628.11,-145.11 640.16,-135.58"/>
<polygon fill="#63b8ff" stroke="#63b8ff" points="642.59,-138.12 648.27,-129.17 638.25,-132.63 642.59,-138.12"/>
</a>
</g>
</g>
<!-- Node2&#45;&gt;Node4 -->
<g id="edge3_Node000002_Node000004" class="edge">
<title>Node2&#45;&gt;Node4</title>
<g id="a_edge3_Node000002_Node000004"><a xlink:title=" ">
<path fill="none" stroke="#63b8ff" d="M562.7,-168.03C507.71,-157.84 390.23,-136.07 335.46,-125.92"/>
<polygon fill="#63b8ff" stroke="#63b8ff" points="335.85,-122.43 325.38,-124.05 334.58,-129.31 335.85,-122.43"/>
</a>
</g>
</g>
<!-- Node5&#45;&gt;Node2 -->
<g id="edge5_Node000005_Node000002" class="edge">
<title>Node5&#45;&gt;Node2</title>
<g id="a_edge5_Node000005_Node000002"><a xlink:title=" ">
<path fill="none" stroke="#63b8ff" d="M494.44,-274.63C484.1,-261.71 468.43,-237.38 480.23,-220 488.82,-207.34 524.15,-194.62 552.86,-186.04"/>
<polygon fill="#63b8ff" stroke="#63b8ff" points="554.06,-189.34 562.69,-183.19 552.11,-182.62 554.06,-189.34"/>
</a>
</g>
</g>
<!-- Node5&#45;&gt;Node3 -->
<g id="edge67_Node000005_Node000003" class="edge">
<title>Node5&#45;&gt;Node3</title>
<g id="a_edge67_Node000005_Node000003"><a xlink:title=" ">
<path fill="none" stroke="#63b8ff" d="M531.07,-283.36C595.25,-282.36 746.68,-276.04 778.23,-239 813.26,-197.87 735.21,-154.19 689.44,-133.2"/>
<polygon fill="#63b8ff" stroke="#63b8ff" points="690.78,-129.97 680.22,-129.08 687.92,-136.36 690.78,-129.97"/>
</a>
</g>
</g>
<!-- Node5&#45;&gt;Node4 -->
<g id="edge66_Node000005_Node000004" class="edge">
<title>Node5&#45;&gt;Node4</title>
<g id="a_edge66_Node000005_Node000004"><a xlink:title=" ">
<path fill="none" stroke="#63b8ff" d="M473.6,-282.94C377.02,-280.77 67.58,-271.3 38.23,-239 -33.8,-159.74 193.88,-130.7 277.04,-122.89"/>
<polygon fill="#63b8ff" stroke="#63b8ff" points="277.46,-126.36 287.11,-121.98 276.83,-119.39 277.46,-126.36"/>
</a>
</g>
</g>
<!-- Node6 -->
<g id="Node000006" class="node">
<title>Node6</title>
<g id="a_Node000006"><a xlink:href="_field_type_def_8h.html" target="_top" xlink:title=" ">
<polygon fill="white" stroke="#666666" points="1045.23,-74 957.23,-74 957.23,-55 1045.23,-55 1045.23,-74"/>
<text text-anchor="middle" x="1001.23" y="-62" font-family="Helvetica,sans-Serif" font-size="10.00">FieldTypeDef.h</text>
</a>
</g>
</g>
<!-- Node5&#45;&gt;Node6 -->
<g id="edge6_Node000005_Node000006" class="edge">
<title>Node5&#45;&gt;Node6</title>
<g id="a_edge6_Node000005_Node000006"><a xlink:title=" ">
<path fill="none" stroke="#63b8ff" d="M473.69,-283.1C373.56,-281.42 42.54,-273.28 11.23,-239 0.95,-227.75 -6.2,-195.55 16.23,-165 53.84,-113.77 86.25,-124.08 148.23,-110 301.22,-75.23 784.09,-67.54 946.97,-65.91"/>
<polygon fill="#63b8ff" stroke="#63b8ff" points="947.26,-69.41 957.23,-65.82 947.19,-62.41 947.26,-69.41"/>
</a>
</g>
</g>
<!-- Node11 -->
<g id="Node000011" class="node">
<title>Node11</title>
<g id="a_Node000011"><a xlink:href="_boundary_conditions_8h.html" target="_top" xlink:title=" ">
<polygon fill="white" stroke="#666666" points="304.23,-239 180.23,-239 180.23,-220 304.23,-220 304.23,-239"/>
<text text-anchor="middle" x="242.23" y="-227" font-family="Helvetica,sans-Serif" font-size="10.00">BoundaryConditions.h</text>
</a>
</g>
</g>
<!-- Node5&#45;&gt;Node11 -->
<g id="edge11_Node000005_Node000011" class="edge">
<title>Node5&#45;&gt;Node11</title>
<g id="a_edge11_Node000005_Node000011"><a xlink:title=" ">
<path fill="none" stroke="#63b8ff" d="M473.41,-277.63C430.18,-268.81 347.9,-252.04 294.06,-241.07"/>
<polygon fill="#63b8ff" stroke="#63b8ff" points="294.52,-237.59 284.03,-239.02 293.13,-244.45 294.52,-237.59"/>
</a>
</g>
</g>
<!-- Node5&#45;&gt;Node12 -->
<g id="edge68_Node000005_Node000012" class="edge">
<title>Node5&#45;&gt;Node12</title>
<g id="a_edge68_Node000005_Node000012"><a xlink:title=" ">
<path fill="none" stroke="#63b8ff" d="M473.71,-283.03C375.21,-281.14 53.68,-272.41 23.23,-239 10.57,-225.11 10.82,-190.12 33.23,-165 61.81,-132.95 112.62,-123.61 146.37,-121.1"/>
<polygon fill="#63b8ff" stroke="#63b8ff" points="146.9,-124.57 156.68,-120.5 146.49,-117.58 146.9,-124.57"/>
</a>
</g>
</g>
<!-- Node13 -->
<g id="Node000013" class="node">
<title>Node13</title>
<g id="a_Node000013"><a xlink:title=" ">
<polygon fill="#e0e0e0" stroke="#999999" points="152.23,-184 94.23,-184 94.23,-165 152.23,-165 152.23,-184"/>
<text text-anchor="middle" x="123.23" y="-172" font-family="Helvetica,sans-Serif" font-size="10.00">memory</text>
</a>
</g>
</g>
<!-- Node5&#45;&gt;Node13 -->
<g id="edge69_Node000005_Node000013" class="edge">
<title>Node5&#45;&gt;Node13</title>
<g id="a_edge69_Node000005_Node000013"><a xlink:title=" ">
<path fill="none" stroke="#63b8ff" d="M473.55,-282.88C378.31,-280.51 76.85,-270.57 48.23,-239 30.39,-219.33 61.97,-200.1 89.46,-188.05"/>
<polygon fill="#63b8ff" stroke="#63b8ff" points="91.05,-191.18 98.93,-184.1 88.36,-184.72 91.05,-191.18"/>
</a>
</g>
</g>
<!-- Node14 -->
<g id="Node000014" class="node">
<title>Node14</title>
<g id="a_Node000014"><a xlink:href="_initial_conditions_8h.html" target="_top" xlink:title=" ">
<polygon fill="white" stroke="#666666" points="161.73,-239 56.73,-239 56.73,-220 161.73,-220 161.73,-239"/>
<text text-anchor="middle" x="109.23" y="-227" font-family="Helvetica,sans-Serif" font-size="10.00">InitialConditions.h</text>
</a>
</g>
</g>
<!-- Node5&#45;&gt;Node14 -->
<g id="edge17_Node000005_Node000014" class="edge">
<title>Node5&#45;&gt;Node14</title>
<g id="a_edge17_Node000005_Node000014"><a xlink:title=" ">
<path fill="none" stroke="#63b8ff" d="M473.44,-279.66C417.56,-272.19 290.19,-255.14 171.94,-239.09"/>
<polygon fill="#63b8ff" stroke="#63b8ff" points="172.37,-235.62 161.99,-237.74 171.43,-242.56 172.37,-235.62"/>
</a>
</g>
</g>
<!-- Node15 -->
<g id="Node000015" class="node">
<title>Node15</title>
<g id="a_Node000015"><a xlink:href="_material_propertys_8h.html" target="_top" xlink:title=" ">
<polygon fill="white" stroke="#666666" points="601.73,-239 488.73,-239 488.73,-220 601.73,-220 601.73,-239"/>
<text text-anchor="middle" x="545.23" y="-227" font-family="Helvetica,sans-Serif" font-size="10.00">MaterialPropertys.h</text>
</a>
</g>
</g>
<!-- Node5&#45;&gt;Node15 -->
<g id="edge23_Node000005_Node000015" class="edge">
<title>Node5&#45;&gt;Node15</title>
<g id="a_edge23_Node000005_Node000015"><a xlink:title=" ">
<path fill="none" stroke="#63b8ff" d="M509.33,-274.75C515.4,-267.26 524.31,-256.28 531.74,-247.13"/>
<polygon fill="#63b8ff" stroke="#63b8ff" points="534.68,-249.06 538.26,-239.09 529.24,-244.65 534.68,-249.06"/>
</a>
</g>
</g>
<!-- Node16 -->
<g id="Node000016" class="node">
<title>Node16</title>
<g id="a_Node000016"><a xlink:href="_equation_systems_8h.html" target="_top" xlink:title=" ">
<polygon fill="white" stroke="#666666" points="432.23,-239 322.23,-239 322.23,-220 432.23,-220 432.23,-239"/>
<text text-anchor="middle" x="377.23" y="-227" font-family="Helvetica,sans-Serif" font-size="10.00">EquationSystems.h</text>
</a>
</g>
</g>
<!-- Node5&#45;&gt;Node16 -->
<g id="edge28_Node000005_Node000016" class="edge">
<title>Node5&#45;&gt;Node16</title>
<g id="a_edge28_Node000005_Node000016"><a xlink:title=" ">
<path fill="none" stroke="#63b8ff" d="M482.14,-274.98C461.85,-266.38 430.27,-252.99 407.06,-243.15"/>
<polygon fill="#63b8ff" stroke="#63b8ff" points="408.25,-239.85 397.68,-239.17 405.52,-246.3 408.25,-239.85"/>
</a>
</g>
</g>
<!-- Node18 -->
<g id="Node000018" class="node">
<title>Node18</title>
<g id="a_Node000018"><a xlink:href="_field_manager_8h.html" target="_top" xlink:title=" ">
<polygon fill="white" stroke="#666666" points="1139.73,-239 1048.73,-239 1048.73,-220 1139.73,-220 1139.73,-239"/>
<text text-anchor="middle" x="1094.23" y="-227" font-family="Helvetica,sans-Serif" font-size="10.00">FieldManager.h</text>
</a>
</g>
</g>
<!-- Node5&#45;&gt;Node18 -->
<g id="edge37_Node000005_Node000018" class="edge">
<title>Node5&#45;&gt;Node18</title>
<g id="a_edge37_Node000005_Node000018"><a xlink:title=" ">
<path fill="none" stroke="#63b8ff" d="M530.78,-280.94C623.22,-272.67 915.46,-246.5 1038.63,-235.48"/>
<polygon fill="#63b8ff" stroke="#63b8ff" points="1038.96,-238.96 1048.61,-234.58 1038.34,-231.99 1038.96,-238.96"/>
</a>
</g>
</g>
<!-- Node28 -->
<g id="Node000028" class="node">
<title>Node28</title>
<g id="a_Node000028"><a xlink:title=" ">
<polygon fill="#e0e0e0" stroke="#999999" points="768.73,-239 619.73,-239 619.73,-220 768.73,-220 768.73,-239"/>
<text text-anchor="middle" x="694.23" y="-227" font-family="Helvetica,sans-Serif" font-size="10.00">Teuchos_ParameterList.hpp</text>
</a>
</g>
</g>
<!-- Node5&#45;&gt;Node28 -->
<g id="edge54_Node000005_Node000028" class="edge">
<title>Node5&#45;&gt;Node28</title>
<g id="a_edge54_Node000005_Node000028"><a xlink:title=" ">
<path fill="none" stroke="#63b8ff" d="M530.97,-275.57C563.48,-266.59 616.68,-251.91 653.46,-241.75"/>
<polygon fill="#63b8ff" stroke="#63b8ff" points="654.67,-245.05 663.38,-239.02 652.8,-238.3 654.67,-245.05"/>
</a>
</g>
</g>
<!-- Node29 -->
<g id="Node000029" class="node">
<title>Node29</title>
<g id="a_Node000029"><a xlink:href="_ngp_field_manager_8h.html" target="_top" xlink:title="NGP Field Manager.">
<polygon fill="white" stroke="#666666" points="1839.23,-184 1681.23,-184 1681.23,-165 1839.23,-165 1839.23,-184"/>
<text text-anchor="middle" x="1760.23" y="-172" font-family="Helvetica,sans-Serif" font-size="10.00">ngp_utils/NgpFieldManager.h</text>
</a>
</g>
</g>
<!-- Node5&#45;&gt;Node29 -->
<g id="edge55_Node000005_Node000029" class="edge">
<title>Node5&#45;&gt;Node29</title>
<g id="a_edge55_Node000005_Node000029"><a xlink:title=" ">
<path fill="none" stroke="#63b8ff" d="M530.99,-282.65C700.23,-277.62 1560.87,-251.52 1615.23,-239 1660.26,-228.63 1708.7,-204.48 1736.64,-189.13"/>
<polygon fill="#63b8ff" stroke="#63b8ff" points="1738.61,-192.04 1745.63,-184.11 1735.19,-185.93 1738.61,-192.04"/>
</a>
</g>
</g>
<!-- Node32 -->
<g id="Node000032" class="node">
<title>Node32</title>
<g id="a_Node000032"><a xlink:href="_ngp_mesh_info_8h.html" target="_top" xlink:title="NGP mesh information objects.">
<polygon fill="white" stroke="#666666" points="1605.73,-239 1468.73,-239 1468.73,-220 1605.73,-220 1605.73,-239"/>
<text text-anchor="middle" x="1537.23" y="-227" font-family="Helvetica,sans-Serif" font-size="10.00">ngp_utils/NgpMeshInfo.h</text>
</a>
</g>
</g>
<!-- Node5&#45;&gt;Node32 -->
<g id="edge60_Node000005_Node000032" class="edge">
<title>Node5&#45;&gt;Node32</title>
<g id="a_edge60_Node000005_Node000032"><a xlink:title=" ">
<path fill="none" stroke="#63b8ff" d="M530.99,-282.03C666.71,-275.08 1245.34,-245.45 1458.22,-234.55"/>
<polygon fill="#63b8ff" stroke="#63b8ff" points="1458.57,-238.03 1468.38,-234.03 1458.21,-231.04 1458.57,-238.03"/>
</a>
</g>
</g>
<!-- Node33 -->
<g id="Node000033" class="node">
<title>Node33</title>
<g id="a_Node000033"><a xlink:title=" ">
<polygon fill="#e0e0e0" stroke="#999999" points="1430.23,-184 1270.23,-184 1270.23,-165 1430.23,-165 1430.23,-184"/>
<text text-anchor="middle" x="1350.23" y="-172" font-family="Helvetica,sans-Serif" font-size="10.00">stk_mesh/base/NgpMesh.hpp</text>
</a>
</g>
</g>
<!-- Node5&#45;&gt;Node33 -->
<g id="edge65_Node000005_Node000033" class="edge">
<title>Node5&#45;&gt;Node33</title>
<g id="a_edge65_Node000005_Node000033"><a xlink:title=" ">
<path fill="none" stroke="#63b8ff" d="M530.91,-283.94C622.17,-284.81 913.6,-283.66 1149.23,-239 1210.95,-227.3 1280.27,-202.74 1319.25,-187.83"/>
<polygon fill="#63b8ff" stroke="#63b8ff" points="1320.88,-190.95 1328.95,-184.07 1318.36,-184.42 1320.88,-190.95"/>
</a>
</g>
</g>
<!-- Node7 -->
<g id="Node000007" class="node">
<title>Node7</title>
<g id="a_Node000007"><a xlink:title=" ">
<polygon fill="#e0e0e0" stroke="#999999" points="1147.73,-19 986.73,-19 986.73,0 1147.73,0 1147.73,-19"/>
<text text-anchor="middle" x="1067.23" y="-7" font-family="Helvetica,sans-Serif" font-size="10.00">stk_mesh/base/FieldBase.hpp</text>
</a>
</g>
</g>
<!-- Node6&#45;&gt;Node7 -->
<g id="edge7_Node000006_Node000007" class="edge">
<title>Node6&#45;&gt;Node7</title>
<g id="a_edge7_Node000006_Node000007"><a xlink:title=" ">
<path fill="none" stroke="#63b8ff" d="M1011.83,-54.98C1021.68,-47.07 1036.58,-35.11 1048.44,-25.58"/>
<polygon fill="#63b8ff" stroke="#63b8ff" points="1050.82,-28.16 1056.43,-19.17 1046.44,-22.7 1050.82,-28.16"/>
</a>
</g>
</g>
<!-- Node8 -->
<g id="Node000008" class="node">
<title>Node8</title>
<g id="a_Node000008"><a xlink:title=" ">
<polygon fill="#e0e0e0" stroke="#999999" points="1710.23,-19 1576.23,-19 1576.23,0 1710.23,0 1710.23,-19"/>
<text text-anchor="middle" x="1643.23" y="-7" font-family="Helvetica,sans-Serif" font-size="10.00">stk_mesh/base/Ngp.hpp</text>
</a>
</g>
</g>
<!-- Node6&#45;&gt;Node8 -->
<g id="edge8_Node000006_Node000008" class="edge">
<title>Node6&#45;&gt;Node8</title>
<g id="a_edge8_Node000006_Node000008"><a xlink:title=" ">
<path fill="none" stroke="#63b8ff" d="M1045.43,-56.11C1048.4,-55.71 1051.36,-55.33 1054.23,-55 1277.96,-29.26 1337.86,-39.4 1565.83,-19.09"/>
<polygon fill="#63b8ff" stroke="#63b8ff" points="1566.46,-22.54 1576.11,-18.16 1565.83,-15.57 1566.46,-22.54"/>
</a>
</g>
</g>
<!-- Node9 -->
<g id="Node000009" class="node">
<title>Node9</title>
<g id="a_Node000009"><a xlink:title=" ">
<polygon fill="#e0e0e0" stroke="#999999" points="1426.73,-19 1269.73,-19 1269.73,0 1426.73,0 1426.73,-19"/>
<text text-anchor="middle" x="1348.23" y="-7" font-family="Helvetica,sans-Serif" font-size="10.00">stk_mesh/base/NgpField.hpp</text>
</a>
</g>
</g>
<!-- Node6&#45;&gt;Node9 -->
<g id="edge9_Node000006_Node000009" class="edge">
<title>Node6&#45;&gt;Node9</title>
<g id="a_edge9_Node000006_Node000009"><a xlink:title=" ">
<path fill="none" stroke="#63b8ff" d="M1045.47,-56.37C1048.43,-55.91 1051.37,-55.44 1054.23,-55 1131.98,-42.88 1221.37,-29.42 1280.98,-20.51"/>
<polygon fill="#63b8ff" stroke="#63b8ff" points="1281.64,-23.95 1291.02,-19.01 1280.61,-17.02 1281.64,-23.95"/>
</a>
</g>
</g>
<!-- Node10 -->
<g id="Node000010" class="node">
<title>Node10</title>
<g id="a_Node000010"><a xlink:title=" ">
<polygon fill="#e0e0e0" stroke="#999999" points="968.73,-19 903.73,-19 903.73,0 968.73,0 968.73,-19"/>
<text text-anchor="middle" x="936.23" y="-7" font-family="Helvetica,sans-Serif" font-size="10.00">functional</text>
</a>
</g>
</g>
<!-- Node6&#45;&gt;Node10 -->
<g id="edge10_Node000006_Node000010" class="edge">
<title>Node6&#45;&gt;Node10</title>
<g id="a_edge10_Node000006_Node000010"><a xlink:title=" ">
<path fill="none" stroke="#63b8ff" d="M990.78,-54.98C981.08,-47.07 966.41,-35.11 954.73,-25.58"/>
<polygon fill="#63b8ff" stroke="#63b8ff" points="956.82,-22.78 946.86,-19.17 952.4,-28.2 956.82,-22.78"/>
</a>
</g>
</g>
<!-- Node11&#45;&gt;Node2 -->
<g id="edge12_Node000011_Node000002" class="edge">
<title>Node11&#45;&gt;Node2</title>
<g id="a_edge12_Node000011_Node000002"><a xlink:title=" ">
<path fill="none" stroke="#63b8ff" d="M298.46,-219.98C369.52,-209.22 490.04,-190.97 552.32,-181.54"/>
<polygon fill="#63b8ff" stroke="#63b8ff" points="553.16,-184.96 562.53,-180 552.11,-178.03 553.16,-184.96"/>
</a>
</g>
</g>
<!-- Node11&#45;&gt;Node3 -->
<g id="edge14_Node000011_Node000003" class="edge">
<title>Node11&#45;&gt;Node3</title>
<g id="a_edge14_Node000011_Node000003"><a xlink:title=" ">
<path fill="none" stroke="#63b8ff" d="M258.49,-219.9C285.09,-206.2 339.88,-179.49 389.23,-165 473.06,-140.39 575.8,-128.17 627,-123.24"/>
<polygon fill="#63b8ff" stroke="#63b8ff" points="627.49,-126.71 637.12,-122.3 626.84,-119.74 627.49,-126.71"/>
</a>
</g>
</g>
<!-- Node11&#45;&gt;Node4 -->
<g id="edge13_Node000011_Node000004" class="edge">
<title>Node11&#45;&gt;Node4</title>
<g id="a_edge13_Node000011_Node000004"><a xlink:title=" ">
<path fill="none" stroke="#63b8ff" d="M247.46,-219.66C258.02,-201.85 282.01,-161.37 295.85,-138.01"/>
<polygon fill="#63b8ff" stroke="#63b8ff" points="299.01,-139.55 301.1,-129.16 292.99,-135.98 299.01,-139.55"/>
</a>
</g>
</g>
<!-- Node11&#45;&gt;Node12 -->
<g id="edge15_Node000011_Node000012" class="edge">
<title>Node11&#45;&gt;Node12</title>
<g id="a_edge15_Node000011_Node000012"><a xlink:title=" ">
<path fill="none" stroke="#63b8ff" d="M233.05,-219.68C224.64,-211.18 212.29,-197.64 204.23,-184 195.79,-169.73 189.38,-151.98 185.32,-138.88"/>
<polygon fill="#63b8ff" stroke="#63b8ff" points="188.63,-137.75 182.46,-129.14 181.92,-139.72 188.63,-137.75"/>
</a>
</g>
</g>
<!-- Node11&#45;&gt;Node13 -->
<g id="edge16_Node000011_Node000013" class="edge">
<title>Node11&#45;&gt;Node13</title>
<g id="a_edge16_Node000011_Node000013"><a xlink:title=" ">
<path fill="none" stroke="#63b8ff" d="M223.11,-219.98C203.88,-211.42 173.99,-198.11 151.92,-188.28"/>
<polygon fill="#63b8ff" stroke="#63b8ff" points="153.25,-185.04 142.69,-184.17 150.4,-191.44 153.25,-185.04"/>
</a>
</g>
</g>
<!-- Node14&#45;&gt;Node2 -->
<g id="edge18_Node000014_Node000002" class="edge">
<title>Node14&#45;&gt;Node2</title>
<g id="a_edge18_Node000014_Node000002"><a xlink:title=" ">
<path fill="none" stroke="#63b8ff" d="M161.98,-221.15C165.11,-220.75 168.21,-220.36 171.23,-220 323.84,-201.56 362.38,-200.43 515.23,-184 527.33,-182.7 540.49,-181.26 552.46,-179.93"/>
<polygon fill="#63b8ff" stroke="#63b8ff" points="553.06,-183.39 562.61,-178.81 552.29,-176.43 553.06,-183.39"/>
</a>
</g>
</g>
<!-- Node14&#45;&gt;Node3 -->
<g id="edge20_Node000014_Node000003" class="edge">
<title>Node14&#45;&gt;Node3</title>
<g id="a_edge20_Node000014_Node000003"><a xlink:title=" ">
<path fill="none" stroke="#63b8ff" d="M135.04,-219.99C176.72,-206.54 261.61,-180.32 335.23,-165 440.93,-143 568.38,-129.13 626.94,-123.45"/>
<polygon fill="#63b8ff" stroke="#63b8ff" points="627.43,-126.92 637.05,-122.49 626.76,-119.95 627.43,-126.92"/>
</a>
</g>
</g>
<!-- Node14&#45;&gt;Node4 -->
<g id="edge19_Node000014_Node000004" class="edge">
<title>Node14&#45;&gt;Node4</title>
<g id="a_edge19_Node000014_Node000004"><a xlink:title=" ">
<path fill="none" stroke="#63b8ff" d="M100.96,-219.81C89.5,-206.69 71.64,-181.6 85.23,-165 97.34,-150.21 219.72,-132.07 276.98,-124.31"/>
<polygon fill="#63b8ff" stroke="#63b8ff" points="277.74,-127.74 287.19,-122.95 276.82,-120.8 277.74,-127.74"/>
</a>
</g>
</g>
<!-- Node14&#45;&gt;Node12 -->
<g id="edge21_Node000014_Node000012" class="edge">
<title>Node14&#45;&gt;Node12</title>
<g id="a_edge21_Node000014_Node000012"><a xlink:title=" ">
<path fill="none" stroke="#63b8ff" d="M91.58,-220C69.72,-208.29 37.12,-186.25 52.23,-165 73.45,-135.16 116.18,-125.15 146.42,-121.9"/>
<polygon fill="#63b8ff" stroke="#63b8ff" points="146.89,-125.37 156.54,-121 146.27,-118.39 146.89,-125.37"/>
</a>
</g>
</g>
<!-- Node14&#45;&gt;Node13 -->
<g id="edge22_Node000014_Node000013" class="edge">
<title>Node14&#45;&gt;Node13</title>
<g id="a_edge22_Node000014_Node000013"><a xlink:title=" ">
<path fill="none" stroke="#63b8ff" d="M111.54,-219.75C113.39,-212.72 116.06,-202.62 118.38,-193.84"/>
<polygon fill="#63b8ff" stroke="#63b8ff" points="121.79,-194.65 120.96,-184.09 115.02,-192.86 121.79,-194.65"/>
</a>
</g>
</g>
<!-- Node15&#45;&gt;Node2 -->
<g id="edge24_Node000015_Node000002" class="edge">
<title>Node15&#45;&gt;Node2</title>
<g id="a_edge24_Node000015_Node000002"><a xlink:title=" ">
<path fill="none" stroke="#63b8ff" d="M552.99,-219.75C559.7,-212.18 569.57,-201.05 577.73,-191.84"/>
<polygon fill="#63b8ff" stroke="#63b8ff" points="580.59,-193.89 584.61,-184.09 575.36,-189.25 580.59,-193.89"/>
</a>
</g>
</g>
<!-- Node15&#45;&gt;Node3 -->
<g id="edge26_Node000015_Node000003" class="edge">
<title>Node15&#45;&gt;Node3</title>
<g id="a_edge26_Node000015_Node000003"><a xlink:title=" ">
<path fill="none" stroke="#63b8ff" d="M600.78,-219.97C640.78,-212.57 689.8,-200.44 702.23,-184 714.47,-167.81 696.88,-148.39 680.66,-135.32"/>
<polygon fill="#63b8ff" stroke="#63b8ff" points="682.54,-132.36 672.46,-129.12 678.32,-137.94 682.54,-132.36"/>
</a>
</g>
</g>
<!-- Node15&#45;&gt;Node4 -->
<g id="edge25_Node000015_Node000004" class="edge">
<title>Node15&#45;&gt;Node4</title>
<g id="a_edge25_Node000015_Node000004"><a xlink:title=" ">
<path fill="none" stroke="#63b8ff" d="M594.56,-219.99C637.33,-210.53 688.8,-192.82 664.23,-165 642.55,-140.46 417.42,-126.32 335.68,-121.96"/>
<polygon fill="#63b8ff" stroke="#63b8ff" points="335.73,-118.46 325.56,-121.43 335.37,-125.45 335.73,-118.46"/>
</a>
</g>
</g>
<!-- Node15&#45;&gt;Node12 -->
<g id="edge27_Node000015_Node000012" class="edge">
<title>Node15&#45;&gt;Node12</title>
<g id="a_edge27_Node000015_Node000012"><a xlink:title=" ">
<path fill="none" stroke="#63b8ff" d="M574.42,-219.93C607.01,-208.95 652.54,-188.52 631.23,-165 627.71,-161.12 318.01,-132.91 213.92,-123.52"/>
<polygon fill="#63b8ff" stroke="#63b8ff" points="214.22,-120.04 203.94,-122.63 213.59,-127.01 214.22,-120.04"/>
</a>
</g>
</g>
<!-- Node16&#45;&gt;Node2 -->
<g id="edge29_Node000016_Node000002" class="edge">
<title>Node16&#45;&gt;Node2</title>
<g id="a_edge29_Node000016_Node000002"><a xlink:title=" ">
<path fill="none" stroke="#63b8ff" d="M411.77,-219.98C450.29,-210.49 512.47,-195.16 552.85,-185.21"/>
<polygon fill="#63b8ff" stroke="#63b8ff" points="553.74,-188.59 562.61,-182.8 552.07,-181.8 553.74,-188.59"/>
</a>
</g>
</g>
<!-- Node16&#45;&gt;Node3 -->
<g id="edge34_Node000016_Node000003" class="edge">
<title>Node16&#45;&gt;Node3</title>
<g id="a_edge34_Node000016_Node000003"><a xlink:title=" ">
<path fill="none" stroke="#63b8ff" d="M407.82,-219.99C436.08,-211.81 479.03,-198.57 515.23,-184 533.11,-176.8 536.68,-172.99 554.23,-165 579.12,-153.67 607.72,-141.61 628.77,-132.91"/>
<polygon fill="#63b8ff" stroke="#63b8ff" points="630.25,-136.09 638.17,-129.04 627.59,-129.61 630.25,-136.09"/>
</a>
</g>
</g>
<!-- Node16&#45;&gt;Node4 -->
<g id="edge33_Node000016_Node000004" class="edge">
<title>Node16&#45;&gt;Node4</title>
<g id="a_edge33_Node000016_Node000004"><a xlink:title=" ">
<path fill="none" stroke="#63b8ff" d="M373.92,-219.87C368.88,-207.26 358.57,-183.31 346.23,-165 339.35,-154.79 330.26,-144.5 322.49,-136.39"/>
<polygon fill="#63b8ff" stroke="#63b8ff" points="324.81,-133.75 315.29,-129.09 319.82,-138.66 324.81,-133.75"/>
</a>
</g>
</g>
<!-- Node16&#45;&gt;Node12 -->
<g id="edge35_Node000016_Node000012" class="edge">
<title>Node16&#45;&gt;Node12</title>
<g id="a_edge35_Node000016_Node000012"><a xlink:title=" ">
<path fill="none" stroke="#63b8ff" d="M361.44,-219.84C327.13,-201.04 245.59,-156.33 204.61,-133.87"/>
<polygon fill="#63b8ff" stroke="#63b8ff" points="206.27,-130.79 195.82,-129.05 202.9,-136.92 206.27,-130.79"/>
</a>
</g>
</g>
<!-- Node16&#45;&gt;Node13 -->
<g id="edge36_Node000016_Node000013" class="edge">
<title>Node16&#45;&gt;Node13</title>
<g id="a_edge36_Node000016_Node000013"><a xlink:title=" ">
<path fill="none" stroke="#63b8ff" d="M336.42,-219.98C288.47,-209.98 209.49,-193.5 162.3,-183.65"/>
<polygon fill="#63b8ff" stroke="#63b8ff" points="162.96,-180.22 152.45,-181.6 161.53,-187.07 162.96,-180.22"/>
</a>
</g>
</g>
<!-- Node17 -->
<g id="Node000017" class="node">
<title>Node17</title>
<g id="a_Node000017"><a xlink:href="_nalu_parsed_types_8h.html" target="_top" xlink:title=" ">
<polygon fill="white" stroke="#666666" points="506.23,-184 398.23,-184 398.23,-165 506.23,-165 506.23,-184"/>
<text text-anchor="middle" x="452.23" y="-172" font-family="Helvetica,sans-Serif" font-size="10.00">NaluParsedTypes.h</text>
</a>
</g>
</g>
<!-- Node16&#45;&gt;Node17 -->
<g id="edge30_Node000016_Node000017" class="edge">
<title>Node16&#45;&gt;Node17</title>
<g id="a_edge30_Node000016_Node000017"><a xlink:title=" ">
<path fill="none" stroke="#63b8ff" d="M389.28,-219.98C400.69,-211.92 418.06,-199.65 431.66,-190.03"/>
<polygon fill="#63b8ff" stroke="#63b8ff" points="433.81,-192.8 439.96,-184.17 429.77,-187.08 433.81,-192.8"/>
</a>
</g>
</g>
<!-- Node17&#45;&gt;Node3 -->
<g id="edge31_Node000017_Node000003" class="edge">
<title>Node17&#45;&gt;Node3</title>
<g id="a_edge31_Node000017_Node000003"><a xlink:title=" ">
<path fill="none" stroke="#63b8ff" d="M485.48,-164.98C524.45,-155.01 588.56,-138.59 627.05,-128.74"/>
<polygon fill="#63b8ff" stroke="#63b8ff" points="628.37,-132.01 637.19,-126.14 626.63,-125.23 628.37,-132.01"/>
</a>
</g>
</g>
<!-- Node17&#45;&gt;Node12 -->
<g id="edge32_Node000017_Node000012" class="edge">
<title>Node17&#45;&gt;Node12</title>
<g id="a_edge32_Node000017_Node000012"><a xlink:title=" ">
<path fill="none" stroke="#63b8ff" d="M408.53,-164.98C354.38,-154.43 263.28,-136.68 214.13,-127.11"/>
<polygon fill="#63b8ff" stroke="#63b8ff" points="214.5,-123.61 204.01,-125.13 213.16,-130.48 214.5,-123.61"/>
</a>
</g>
</g>
<!-- Node18&#45;&gt;Node3 -->
<g id="edge52_Node000018_Node000003" class="edge">
<title>Node18&#45;&gt;Node3</title>
<g id="a_edge52_Node000018_Node000003"><a xlink:title=" ">
<path fill="none" stroke="#63b8ff" d="M1085.03,-219.75C1069.54,-205.59 1036.65,-177.92 1003.23,-165 894.65,-123.02 753.89,-119.06 691.47,-119.65"/>
<polygon fill="#63b8ff" stroke="#63b8ff" points="691.4,-116.15 681.45,-119.79 691.49,-123.15 691.4,-116.15"/>
</a>
</g>
</g>
<!-- Node19 -->
<g id="Node000019" class="node">
<title>Node19</title>
<g id="a_Node000019"><a xlink:href="_field_registry_8h.html" target="_top" xlink:title=" ">
<polygon fill="white" stroke="#666666" points="1138.23,-184 1050.23,-184 1050.23,-165 1138.23,-165 1138.23,-184"/>
<text text-anchor="middle" x="1094.23" y="-172" font-family="Helvetica,sans-Serif" font-size="10.00">FieldRegistry.h</text>
</a>
</g>
</g>
<!-- Node18&#45;&gt;Node19 -->
<g id="edge38_Node000018_Node000019" class="edge">
<title>Node18&#45;&gt;Node19</title>
<g id="a_edge38_Node000018_Node000019"><a xlink:title=" ">
<path fill="none" stroke="#63b8ff" d="M1094.23,-219.75C1094.23,-212.8 1094.23,-202.85 1094.23,-194.13"/>
<polygon fill="#63b8ff" stroke="#63b8ff" points="1097.73,-194.09 1094.23,-184.09 1090.73,-194.09 1097.73,-194.09"/>
</a>
</g>
</g>
<!-- Node22 -->
<g id="Node000022" class="node">
<title>Node22</title>
<g id="a_Node000022"><a xlink:title=" ">
<polygon fill="#e0e0e0" stroke="#999999" points="1200.73,-74 1131.73,-74 1131.73,-55 1200.73,-55 1200.73,-74"/>
<text text-anchor="middle" x="1166.23" y="-62" font-family="Helvetica,sans-Serif" font-size="10.00">type_traits</text>
</a>
</g>
</g>
<!-- Node18&#45;&gt;Node22 -->
<g id="edge53_Node000018_Node000022" class="edge">
<title>Node18&#45;&gt;Node22</title>
<g id="a_edge53_Node000018_Node000022"><a xlink:title=" ">
<path fill="none" stroke="#63b8ff" d="M1109.39,-219.99C1121.67,-212.26 1138.34,-199.68 1147.23,-184 1165.14,-152.39 1167.47,-108.86 1167.13,-84.32"/>
<polygon fill="#63b8ff" stroke="#63b8ff" points="1170.62,-84.09 1166.82,-74.21 1163.63,-84.31 1170.62,-84.09"/>
</a>
</g>
</g>
<!-- Node24 -->
<g id="Node000024" class="node">
<title>Node24</title>
<g id="a_Node000024"><a xlink:href="_smart_field_8h.html" target="_top" xlink:title=" ">
<polygon fill="white" stroke="#666666" points="1540.23,-74 1462.23,-74 1462.23,-55 1540.23,-55 1540.23,-74"/>
<text text-anchor="middle" x="1501.23" y="-62" font-family="Helvetica,sans-Serif" font-size="10.00">SmartField.h</text>
</a>
</g>
</g>
<!-- Node18&#45;&gt;Node24 -->
<g id="edge46_Node000018_Node000024" class="edge">
<title>Node18&#45;&gt;Node24</title>
<g id="a_edge46_Node000018_Node000024"><a xlink:title=" ">
<path fill="none" stroke="#63b8ff" d="M1111.43,-219.92C1126.55,-211.88 1148.68,-198.89 1165.23,-184 1196.28,-156.04 1187.22,-131.21 1223.23,-110 1261.03,-87.73 1382.54,-74.81 1451.75,-69.08"/>
<polygon fill="#63b8ff" stroke="#63b8ff" points="1452.3,-72.55 1461.98,-68.25 1451.73,-65.57 1452.3,-72.55"/>
</a>
</g>
</g>
<!-- Node26 -->
<g id="Node000026" class="node">
<title>Node26</title>
<g id="a_Node000026"><a xlink:title=" ">
<polygon fill="#e0e0e0" stroke="#999999" points="993.73,-184 830.73,-184 830.73,-165 993.73,-165 993.73,-184"/>
<text text-anchor="middle" x="912.23" y="-172" font-family="Helvetica,sans-Serif" font-size="10.00">stk_mesh/base/FieldState.hpp</text>
</a>
</g>
</g>
<!-- Node18&#45;&gt;Node26 -->
<g id="edge50_Node000018_Node000026" class="edge">
<title>Node18&#45;&gt;Node26</title>
<g id="a_edge50_Node000018_Node000026"><a xlink:title=" ">
<path fill="none" stroke="#63b8ff" d="M1064.99,-219.98C1034.16,-211.01 985.45,-196.82 951.34,-186.89"/>
<polygon fill="#63b8ff" stroke="#63b8ff" points="952.28,-183.52 941.7,-184.08 950.32,-190.24 952.28,-183.52"/>
</a>
</g>
</g>
<!-- Node27 -->
<g id="Node000027" class="node">
<title>Node27</title>
<g id="a_Node000027"><a xlink:title=" ">
<polygon fill="#e0e0e0" stroke="#999999" points="1406.23,-129 1232.23,-129 1232.23,-110 1406.23,-110 1406.23,-129"/>
<text text-anchor="middle" x="1319.23" y="-117" font-family="Helvetica,sans-Serif" font-size="10.00">stk_mesh/base/GetNgpField.hpp</text>
</a>
</g>
</g>
<!-- Node18&#45;&gt;Node27 -->
<g id="edge51_Node000018_Node000027" class="edge">
<title>Node18&#45;&gt;Node27</title>
<g id="a_edge51_Node000018_Node000027"><a xlink:title=" ">
<path fill="none" stroke="#63b8ff" d="M1123.52,-219.97C1149.11,-212.05 1186.97,-199.21 1218.23,-184 1247.62,-169.7 1279.16,-148.89 1299.03,-135.04"/>
<polygon fill="#63b8ff" stroke="#63b8ff" points="1301.13,-137.84 1307.28,-129.22 1297.1,-132.12 1301.13,-137.84"/>
</a>
</g>
</g>
<!-- Node19&#45;&gt;Node3 -->
<g id="edge40_Node000019_Node000003" class="edge">
<title>Node19&#45;&gt;Node3</title>
<g id="a_edge40_Node000019_Node000003"><a xlink:title=" ">
<path fill="none" stroke="#63b8ff" d="M1050.23,-166.92C1045.5,-166.25 1040.77,-165.6 1036.23,-165 908.73,-148.14 756.56,-131.13 691.4,-123.99"/>
<polygon fill="#63b8ff" stroke="#63b8ff" points="691.67,-120.5 681.35,-122.89 690.91,-127.46 691.67,-120.5"/>
</a>
</g>
</g>
<!-- Node19&#45;&gt;Node4 -->
<g id="edge41_Node000019_Node000004" class="edge">
<title>Node19&#45;&gt;Node4</title>
<g id="a_edge41_Node000019_Node000004"><a xlink:title=" ">
<path fill="none" stroke="#63b8ff" d="M1049.82,-169.09C1035.01,-167.69 1018.41,-166.19 1003.23,-165 744.54,-144.66 431.28,-127.23 335.46,-122.06"/>
<polygon fill="#63b8ff" stroke="#63b8ff" points="335.54,-118.56 325.37,-121.52 335.16,-125.55 335.54,-118.56"/>
</a>
</g>
</g>
<!-- Node20 -->
<g id="Node000020" class="node">
<title>Node20</title>
<g id="a_Node000020"><a xlink:title=" ">
<polygon fill="#e0e0e0" stroke="#999999" points="1018.73,-129 953.73,-129 953.73,-110 1018.73,-110 1018.73,-129"/>
<text text-anchor="middle" x="986.23" y="-117" font-family="Helvetica,sans-Serif" font-size="10.00">stdexcept</text>
</a>
</g>
</g>
<!-- Node19&#45;&gt;Node20 -->
<g id="edge39_Node000019_Node000020" class="edge">
<title>Node19&#45;&gt;Node20</title>
<g id="a_edge39_Node000019_Node000020"><a xlink:title=" ">
<path fill="none" stroke="#63b8ff" d="M1076.87,-164.98C1059.66,-156.54 1033.03,-143.47 1013.08,-133.68"/>
<polygon fill="#63b8ff" stroke="#63b8ff" points="1014.41,-130.43 1003.89,-129.17 1011.33,-136.72 1014.41,-130.43"/>
</a>
</g>
</g>
<!-- Node21 -->
<g id="Node000021" class="node">
<title>Node21</title>
<g id="a_Node000021"><a xlink:href="_field_definitions_8h.html" target="_top" xlink:title=" ">
<polygon fill="white" stroke="#666666" points="1137.73,-129 1036.73,-129 1036.73,-110 1137.73,-110 1137.73,-129"/>
<text text-anchor="middle" x="1087.23" y="-117" font-family="Helvetica,sans-Serif" font-size="10.00">FieldDefinitions.h</text>
</a>
</g>
</g>
<!-- Node19&#45;&gt;Node21 -->
<g id="edge42_Node000019_Node000021" class="edge">
<title>Node19&#45;&gt;Node21</title>
<g id="a_edge42_Node000019_Node000021"><a xlink:title=" ">
<path fill="none" stroke="#63b8ff" d="M1093.07,-164.75C1092.15,-157.8 1090.84,-147.85 1089.69,-139.13"/>
<polygon fill="#63b8ff" stroke="#63b8ff" points="1093.14,-138.54 1088.36,-129.09 1086.2,-139.46 1093.14,-138.54"/>
</a>
</g>
</g>
<!-- Node21&#45;&gt;Node6 -->
<g id="edge43_Node000021_Node000006" class="edge">
<title>Node21&#45;&gt;Node6</title>
<g id="a_edge43_Node000021_Node000006"><a xlink:title=" ">
<path fill="none" stroke="#63b8ff" d="M1073.41,-109.98C1060.07,-101.77 1039.65,-89.18 1023.92,-79.49"/>
<polygon fill="#63b8ff" stroke="#63b8ff" points="1025.65,-76.44 1015.3,-74.17 1021.97,-82.4 1025.65,-76.44"/>
</a>
</g>
</g>
<!-- Node21&#45;&gt;Node22 -->
<g id="edge44_Node000021_Node000022" class="edge">
<title>Node21&#45;&gt;Node22</title>
<g id="a_edge44_Node000021_Node000022"><a xlink:title=" ">
<path fill="none" stroke="#63b8ff" d="M1099.92,-109.98C1112.06,-101.84 1130.58,-89.41 1144.97,-79.76"/>
<polygon fill="#63b8ff" stroke="#63b8ff" points="1146.95,-82.65 1153.3,-74.17 1143.05,-76.84 1146.95,-82.65"/>
</a>
</g>
</g>
<!-- Node23 -->
<g id="Node000023" class="node">
<title>Node23</title>
<g id="a_Node000023"><a xlink:title=" ">
<polygon fill="#e0e0e0" stroke="#999999" points="1113.73,-74 1062.73,-74 1062.73,-55 1113.73,-55 1113.73,-74"/>
<text text-anchor="middle" x="1088.23" y="-62" font-family="Helvetica,sans-Serif" font-size="10.00">variant</text>
</a>
</g>
</g>
<!-- Node21&#45;&gt;Node23 -->
<g id="edge45_Node000021_Node000023" class="edge">
<title>Node21&#45;&gt;Node23</title>
<g id="a_edge45_Node000021_Node000023"><a xlink:title=" ">
<path fill="none" stroke="#63b8ff" d="M1087.39,-109.75C1087.52,-102.8 1087.71,-92.85 1087.88,-84.13"/>
<polygon fill="#63b8ff" stroke="#63b8ff" points="1091.38,-84.15 1088.06,-74.09 1084.38,-84.02 1091.38,-84.15"/>
</a>
</g>
</g>
<!-- Node24&#45;&gt;Node8 -->
<g id="edge48_Node000024_Node000008" class="edge">
<title>Node24&#45;&gt;Node8</title>
<g id="a_edge48_Node000024_Node000008"><a xlink:title=" ">
<path fill="none" stroke="#63b8ff" d="M1524.04,-54.98C1547.4,-46.27 1583.93,-32.63 1610.4,-22.75"/>
<polygon fill="#63b8ff" stroke="#63b8ff" points="1611.85,-25.95 1620,-19.17 1609.4,-19.39 1611.85,-25.95"/>
</a>
</g>
</g>
<!-- Node24&#45;&gt;Node9 -->
<g id="edge49_Node000024_Node000009" class="edge">
<title>Node24&#45;&gt;Node9</title>
<g id="a_edge49_Node000024_Node000009"><a xlink:title=" ">
<path fill="none" stroke="#63b8ff" d="M1476.64,-54.98C1451.18,-46.16 1411.18,-32.31 1382.6,-22.41"/>
<polygon fill="#63b8ff" stroke="#63b8ff" points="1383.6,-19.05 1373,-19.08 1381.3,-25.66 1383.6,-19.05"/>
</a>
</g>
</g>
<!-- Node25 -->
<g id="Node000025" class="node">
<title>Node25</title>
<g id="a_Node000025"><a xlink:title=" ">
<polygon fill="#e0e0e0" stroke="#999999" points="1557.73,-19 1444.73,-19 1444.73,0 1557.73,0 1557.73,-19"/>
<text text-anchor="middle" x="1501.23" y="-7" font-family="Helvetica,sans-Serif" font-size="10.00">Kokkos_Macros.hpp</text>
</a>
</g>
</g>
<!-- Node24&#45;&gt;Node25 -->
<g id="edge47_Node000024_Node000025" class="edge">
<title>Node24&#45;&gt;Node25</title>
<g id="a_edge47_Node000024_Node000025"><a xlink:title=" ">
<path fill="none" stroke="#63b8ff" d="M1501.23,-54.75C1501.23,-47.8 1501.23,-37.85 1501.23,-29.13"/>
<polygon fill="#63b8ff" stroke="#63b8ff" points="1504.73,-29.09 1501.23,-19.09 1497.73,-29.09 1504.73,-29.09"/>
</a>
</g>
</g>
<!-- Node29&#45;&gt;Node9 -->
<g id="edge58_Node000029_Node000009" class="edge">
<title>Node29&#45;&gt;Node9</title>
<g id="a_edge58_Node000029_Node000009"><a xlink:title=" ">
<path fill="none" stroke="#63b8ff" d="M1725.18,-164.97C1667.12,-150.21 1548.01,-117.32 1453.23,-74 1422.34,-59.88 1389.21,-38.73 1368.6,-24.77"/>
<polygon fill="#63b8ff" stroke="#63b8ff" points="1370.55,-21.86 1360.32,-19.09 1366.59,-27.63 1370.55,-21.86"/>
</a>
</g>
</g>
<!-- Node29&#45;&gt;Node27 -->
<g id="edge59_Node000029_Node000027" class="edge">
<title>Node29&#45;&gt;Node27</title>
<g id="a_edge59_Node000029_Node000027"><a xlink:title=" ">
<path fill="none" stroke="#63b8ff" d="M1689.37,-164.98C1610.49,-155.5 1483.22,-140.21 1400.4,-130.26"/>
<polygon fill="#63b8ff" stroke="#63b8ff" points="1400.62,-126.76 1390.27,-129.04 1399.78,-133.71 1400.62,-126.76"/>
</a>
</g>
</g>
<!-- Node30 -->
<g id="Node000030" class="node">
<title>Node30</title>
<g id="a_Node000030"><a xlink:title=" ">
<polygon fill="#e0e0e0" stroke="#999999" points="1839.73,-129 1680.73,-129 1680.73,-110 1839.73,-110 1839.73,-129"/>
<text text-anchor="middle" x="1760.23" y="-117" font-family="Helvetica,sans-Serif" font-size="10.00">stk_mesh/base/BulkData.hpp</text>
</a>
</g>
</g>
<!-- Node29&#45;&gt;Node30 -->
<g id="edge56_Node000029_Node000030" class="edge">
<title>Node29&#45;&gt;Node30</title>
<g id="a_edge56_Node000029_Node000030"><a xlink:title=" ">
<path fill="none" stroke="#63b8ff" d="M1760.23,-164.75C1760.23,-157.8 1760.23,-147.85 1760.23,-139.13"/>
<polygon fill="#63b8ff" stroke="#63b8ff" points="1763.73,-139.09 1760.23,-129.09 1756.73,-139.09 1763.73,-139.09"/>
</a>
</g>
</g>
<!-- Node31 -->
<g id="Node000031" class="node">
<title>Node31</title>
<g id="a_Node000031"><a xlink:title=" ">
<polygon fill="#e0e0e0" stroke="#999999" points="2020.23,-129 1858.23,-129 1858.23,-110 2020.23,-110 2020.23,-129"/>
<text text-anchor="middle" x="1939.23" y="-117" font-family="Helvetica,sans-Serif" font-size="10.00">stk_mesh/base/MetaData.hpp</text>
</a>
</g>
</g>
<!-- Node29&#45;&gt;Node31 -->
<g id="edge57_Node000029_Node000031" class="edge">
<title>Node29&#45;&gt;Node31</title>
<g id="a_edge57_Node000029_Node000031"><a xlink:title=" ">
<path fill="none" stroke="#63b8ff" d="M1788.99,-164.98C1819.17,-156.05 1866.8,-141.94 1900.33,-132.02"/>
<polygon fill="#63b8ff" stroke="#63b8ff" points="1901.65,-135.28 1910.24,-129.08 1899.66,-128.57 1901.65,-135.28"/>
</a>
</g>
</g>
<!-- Node32&#45;&gt;Node8 -->
<g id="edge61_Node000032_Node000008" class="edge">
<title>Node32&#45;&gt;Node8</title>
<g id="a_edge61_Node000032_Node000008"><a xlink:title=" ">
<path fill="none" stroke="#63b8ff" d="M1579.92,-219.97C1600.15,-213.59 1622.6,-202.64 1635.23,-184 1667.59,-136.22 1656.04,-62.92 1648.14,-28.96"/>
<polygon fill="#63b8ff" stroke="#63b8ff" points="1651.49,-27.9 1645.67,-19.04 1644.69,-29.59 1651.49,-27.9"/>
</a>
</g>
</g>
<!-- Node32&#45;&gt;Node29 -->
<g id="edge64_Node000032_Node000029" class="edge">
<title>Node32&#45;&gt;Node29</title>
<g id="a_edge64_Node000032_Node000029"><a xlink:title=" ">
<path fill="none" stroke="#63b8ff" d="M1573.06,-219.98C1611.39,-210.87 1672.31,-196.4 1714.17,-186.45"/>
<polygon fill="#63b8ff" stroke="#63b8ff" points="1715.2,-189.8 1724.12,-184.08 1713.58,-182.99 1715.2,-189.8"/>
</a>
</g>
</g>
<!-- Node32&#45;&gt;Node33 -->
<g id="edge62_Node000032_Node000033" class="edge">
<title>Node32&#45;&gt;Node33</title>
<g id="a_edge62_Node000032_Node000033"><a xlink:title=" ">
<path fill="none" stroke="#63b8ff" d="M1507.18,-219.98C1475.51,-211.01 1425.46,-196.82 1390.41,-186.89"/>
<polygon fill="#63b8ff" stroke="#63b8ff" points="1391.08,-183.44 1380.51,-184.08 1389.17,-190.18 1391.08,-183.44"/>
</a>
</g>
</g>
<!-- Node34 -->
<g id="Node000034" class="node">
<title>Node34</title>
<g id="a_Node000034"><a xlink:title=" ">
<polygon fill="#e0e0e0" stroke="#999999" points="1625.73,-184 1448.73,-184 1448.73,-165 1625.73,-165 1625.73,-184"/>
<text text-anchor="middle" x="1537.23" y="-172" font-family="Helvetica,sans-Serif" font-size="10.00">stk_mesh/base/GetNgpMesh.hpp</text>
</a>
</g>
</g>
<!-- Node32&#45;&gt;Node34 -->
<g id="edge63_Node000032_Node000034" class="edge">
<title>Node32&#45;&gt;Node34</title>
<g id="a_edge63_Node000032_Node000034"><a xlink:title=" ">
<path fill="none" stroke="#63b8ff" d="M1537.23,-219.75C1537.23,-212.8 1537.23,-202.85 1537.23,-194.13"/>
<polygon fill="#63b8ff" stroke="#63b8ff" points="1540.73,-194.09 1537.23,-184.09 1533.73,-194.09 1540.73,-194.09"/>
</a>
</g>
</g>
</g>
</svg>

<g id="navigator" transform="translate(0 0)" fill="#404254">
  <rect fill="#f2f5e9" fill-opacity="0.5" stroke="#606060" stroke-width=".5" x="0" y="0" width="60" height="60"/>
  <use id="zoomplus" xlink:href="#zoomPlus" x="17" y="9" onmousedown="handleZoom(evt,'in')"/>
  <use id="zoomminus" xlink:href="#zoomMin" x="42" y="9" onmousedown="handleZoom(evt,'out')"/>
  <use id="reset" xlink:href="#resetDef" x="30" y="36" onmousedown="handleReset()"/>
   <use id="arrowup" xlink:href="#arrowUp" x="0" y="0" onmousedown="handlePan(0,-1)"/>
  <use id="arrowright" xlink:href="#arrowRight" x="0" y="0" onmousedown="handlePan(1,0)"/>
  <use id="arrowdown" xlink:href="#arrowDown" x="0" y="0" onmousedown="handlePan(0,1)"/>
  <use id="arrowleft" xlink:href="#arrowLeft" x="0" y="0" onmousedown="handlePan(-1,0)"/>
</g>
<svg viewBox="0 0 15 15" width="100%" height="30px" preserveAspectRatio="xMaxYMin meet">
 <g id="arrow_out" transform="scale(0.3 0.3)">
  <a xlink:href="_realms_8h__incl_org.svg" target="_base">
   <rect id="button" ry="5" rx="5" y="6" x="6" height="38" width="38"
        fill="#f2f5e9" fill-opacity="0.5" stroke="#606060" stroke-width="1.0"/>
   <path id="arrow"
     d="M 11.500037,31.436501 C 11.940474,20.09759 22.043105,11.32322 32.158766,21.979434 L 37.068811,17.246167 C 37.068811,17.246167 37.088388,32 37.088388,32 L 22.160133,31.978069 C 22.160133,31.978069 26.997745,27.140456 26.997745,27.140456 C 18.528582,18.264221 13.291696,25.230495 11.500037,31.436501 z"
     style="fill:#404040;"/>
  </a>
 </g>
</svg>

<style type='text/css'>
<![CDATA[
[data-mouse-over-selected='false'] { opacity: 0.7; }
[data-mouse-over-selected='true']  { opacity: 1.0; }
]]>
</style>
<script type="application/ecmascript"><![CDATA[
document.addEventListener('DOMContentLoaded', (event) => {
  highlightEdges();
  highlightAdjacentNodes();
});
]]></script>
</svg>
