<?xml version="1.0" encoding="UTF-8" standalone="no"?>
<!DOCTYPE svg PUBLIC "-//W3C//DTD SVG 1.1//EN"
 "http://www.w3.org/Graphics/SVG/1.1/DTD/svg11.dtd">
<!-- Generated by graphviz version 2.43.0 (0)
 -->
<!-- Title: ReferencePropertyData.h Pages: 1 -->
<svg width="1098pt" height="84pt"
 viewBox="0.00 0.00 1097.50 84.00" xmlns="http://www.w3.org/2000/svg" xmlns:xlink="http://www.w3.org/1999/xlink">
<g id="graph0" class="graph" transform="scale(1 1) rotate(0) translate(4 80)">
<title>ReferencePropertyData.h</title>
<polygon fill="white" stroke="transparent" points="-4,4 -4,-80 1093.5,-80 1093.5,4 -4,4"/>
<!-- Node1 -->
<g id="node1" class="node">
<title>Node1</title>
<g id="a_node1"><a xlink:title=" ">
<polygon fill="#bfbfbf" stroke="black" points="491.5,-56.5 491.5,-75.5 631.5,-75.5 631.5,-56.5 491.5,-56.5"/>
<text text-anchor="middle" x="561.5" y="-63.5" font-family="Helvetica,sans-Serif" font-size="10.00">ReferencePropertyData.h</text>
</a>
</g>
</g>
<!-- Node2 -->
<g id="node2" class="node">
<title>Node2</title>
<g id="a_node2"><a xlink:href="_material_propertys_8_c.html" target="_top" xlink:title=" ">
<polygon fill="white" stroke="black" points="0,-0.5 0,-19.5 113,-19.5 113,-0.5 0,-0.5"/>
<text text-anchor="middle" x="56.5" y="-7.5" font-family="Helvetica,sans-Serif" font-size="10.00">MaterialPropertys.C</text>
</a>
</g>
</g>
<!-- Node1&#45;&gt;Node2 -->
<g id="edge1" class="edge">
<title>Node1&#45;&gt;Node2</title>
<path fill="none" stroke="midnightblue" d="M481.28,-57.59C393.2,-49.26 247.63,-34.94 122.5,-20 119.4,-19.63 116.22,-19.24 113.01,-18.83"/>
<polygon fill="midnightblue" stroke="midnightblue" points="481.19,-61.09 491.47,-58.55 481.84,-54.13 481.19,-61.09"/>
</g>
<!-- Node3 -->
<g id="node3" class="node">
<title>Node3</title>
<g id="a_node3"><a xlink:href="_enthalpy_property_evaluator_8_c.html" target="_top" xlink:title=" ">
<polygon fill="white" stroke="black" points="131.5,-0.5 131.5,-19.5 287.5,-19.5 287.5,-0.5 131.5,-0.5"/>
<text text-anchor="middle" x="209.5" y="-7.5" font-family="Helvetica,sans-Serif" font-size="10.00">EnthalpyPropertyEvaluator.C</text>
</a>
</g>
</g>
<!-- Node1&#45;&gt;Node3 -->
<g id="edge2" class="edge">
<title>Node1&#45;&gt;Node3</title>
<path fill="none" stroke="midnightblue" d="M495.77,-54.92C429.27,-44.71 327.6,-29.12 265.01,-19.52"/>
<polygon fill="midnightblue" stroke="midnightblue" points="495.31,-58.39 505.72,-56.44 496.37,-51.47 495.31,-58.39"/>
</g>
<!-- Node4 -->
<g id="node4" class="node">
<title>Node4</title>
<g id="a_node4"><a xlink:href="_polynomial_property_evaluator_8_c.html" target="_top" xlink:title=" ">
<polygon fill="white" stroke="black" points="305.5,-0.5 305.5,-19.5 473.5,-19.5 473.5,-0.5 305.5,-0.5"/>
<text text-anchor="middle" x="389.5" y="-7.5" font-family="Helvetica,sans-Serif" font-size="10.00">PolynomialPropertyEvaluator.C</text>
</a>
</g>
</g>
<!-- Node1&#45;&gt;Node4 -->
<g id="edge3" class="edge">
<title>Node1&#45;&gt;Node4</title>
<path fill="none" stroke="midnightblue" d="M524.67,-53.44C492.24,-43.26 445.76,-28.66 416.63,-19.52"/>
<polygon fill="midnightblue" stroke="midnightblue" points="523.66,-56.79 534.25,-56.44 525.75,-50.11 523.66,-56.79"/>
</g>
<!-- Node5 -->
<g id="node5" class="node">
<title>Node5</title>
<g id="a_node5"><a xlink:href="_reference_property_data_8_c.html" target="_top" xlink:title=" ">
<polygon fill="white" stroke="black" points="491.5,-0.5 491.5,-19.5 631.5,-19.5 631.5,-0.5 491.5,-0.5"/>
<text text-anchor="middle" x="561.5" y="-7.5" font-family="Helvetica,sans-Serif" font-size="10.00">ReferencePropertyData.C</text>
</a>
</g>
</g>
<!-- Node1&#45;&gt;Node5 -->
<g id="edge4" class="edge">
<title>Node1&#45;&gt;Node5</title>
<path fill="none" stroke="midnightblue" d="M561.5,-45.8C561.5,-36.91 561.5,-26.78 561.5,-19.75"/>
<polygon fill="midnightblue" stroke="midnightblue" points="558,-46.08 561.5,-56.08 565,-46.08 558,-46.08"/>
</g>
<!-- Node6 -->
<g id="node6" class="node">
<title>Node6</title>
<g id="a_node6"><a xlink:href="_specific_heat_property_evaluator_8_c.html" target="_top" xlink:title=" ">
<polygon fill="white" stroke="black" points="649.5,-0.5 649.5,-19.5 823.5,-19.5 823.5,-0.5 649.5,-0.5"/>
<text text-anchor="middle" x="736.5" y="-7.5" font-family="Helvetica,sans-Serif" font-size="10.00">SpecificHeatPropertyEvaluator.C</text>
</a>
</g>
</g>
<!-- Node1&#45;&gt;Node6 -->
<g id="edge5" class="edge">
<title>Node1&#45;&gt;Node6</title>
<path fill="none" stroke="midnightblue" d="M598.97,-53.44C631.97,-43.26 679.26,-28.66 708.9,-19.52"/>
<polygon fill="midnightblue" stroke="midnightblue" points="597.75,-50.15 589.23,-56.44 599.82,-56.84 597.75,-50.15"/>
</g>
<!-- Node7 -->
<g id="node7" class="node">
<title>Node7</title>
<g id="a_node7"><a xlink:href="_sutherlands_property_evaluator_8_c.html" target="_top" xlink:title=" ">
<polygon fill="white" stroke="black" points="842,-0.5 842,-19.5 1013,-19.5 1013,-0.5 842,-0.5"/>
<text text-anchor="middle" x="927.5" y="-7.5" font-family="Helvetica,sans-Serif" font-size="10.00">SutherlandsPropertyEvaluator.C</text>
</a>
</g>
</g>
<!-- Node1&#45;&gt;Node7 -->
<g id="edge6" class="edge">
<title>Node1&#45;&gt;Node7</title>
<path fill="none" stroke="midnightblue" d="M629.42,-54.98C698.55,-44.78 804.57,-29.14 869.78,-19.52"/>
<polygon fill="midnightblue" stroke="midnightblue" points="628.88,-51.52 619.49,-56.44 629.9,-58.45 628.88,-51.52"/>
</g>
<!-- Node8 -->
<g id="node8" class="node">
<title>Node8</title>
<g id="a_node8"><a xlink:href="_realm_8_c.html" target="_top" xlink:title=" ">
<polygon fill="white" stroke="black" points="1031.5,-0.5 1031.5,-19.5 1089.5,-19.5 1089.5,-0.5 1031.5,-0.5"/>
<text text-anchor="middle" x="1060.5" y="-7.5" font-family="Helvetica,sans-Serif" font-size="10.00">Realm.C</text>
</a>
</g>
</g>
<!-- Node1&#45;&gt;Node8 -->
<g id="edge7" class="edge">
<title>Node1&#45;&gt;Node8</title>
<path fill="none" stroke="midnightblue" d="M641.9,-60.46C734.23,-54.48 890.04,-42.05 1022.5,-20 1025.31,-19.53 1028.22,-18.98 1031.12,-18.37"/>
<polygon fill="midnightblue" stroke="midnightblue" points="641.54,-56.97 631.79,-61.1 641.99,-63.96 641.54,-56.97"/>
</g>
</g>
</svg>
