<?xml version="1.0" encoding="UTF-8" standalone="no"?>
<!DOCTYPE svg PUBLIC "-//W3C//DTD SVG 1.1//EN"
 "http://www.w3.org/Graphics/SVG/1.1/DTD/svg11.dtd">
<!-- Generated by graphviz version 2.43.0 (0)
 -->
<!-- Title: ReferencePropertyData.h Pages: 1 -->
<svg width="1098pt" height="82pt"
 viewBox="0.00 0.00 1097.50 82.00" xmlns="http://www.w3.org/2000/svg" xmlns:xlink="http://www.w3.org/1999/xlink">
<g id="graph0" class="graph" transform="scale(1 1) rotate(0) translate(4 78)">
<title>ReferencePropertyData.h</title>
<!-- Node1 -->
<g id="Node000001" class="node">
<title>Node1</title>
<g id="a_Node000001"><a xlink:title=" ">
<polygon fill="#999999" stroke="#666666" points="591,-74 451,-74 451,-55 591,-55 591,-74"/>
<text text-anchor="middle" x="521" y="-62" font-family="Helvetica,sans-Serif" font-size="10.00">ReferencePropertyData.h</text>
</a>
</g>
</g>
<!-- Node2 -->
<g id="Node000002" class="node">
<title>Node2</title>
<g id="a_Node000002"><a xlink:href="_enthalpy_property_evaluator_8_c.html" target="_top" xlink:title=" ">
<polygon fill="white" stroke="#666666" points="156,-19 0,-19 0,0 156,0 156,-19"/>
<text text-anchor="middle" x="78" y="-7" font-family="Helvetica,sans-Serif" font-size="10.00">EnthalpyPropertyEvaluator.C</text>
</a>
</g>
</g>
<!-- Node1&#45;&gt;Node2 -->
<g id="edge1_Node000001_Node000002" class="edge">
<title>Node1&#45;&gt;Node2</title>
<g id="a_edge1_Node000001_Node000002"><a xlink:title=" ">
<path fill="none" stroke="#63b8ff" d="M440.65,-53.89C357.53,-43.94 228.96,-28.56 149.33,-19.03"/>
<polygon fill="#63b8ff" stroke="#63b8ff" points="440.46,-57.39 450.81,-55.1 441.29,-50.44 440.46,-57.39"/>
</a>
</g>
</g>
<!-- Node3 -->
<g id="Node000003" class="node">
<title>Node3</title>
<g id="a_Node000003"><a xlink:href="_material_propertys_8_c.html" target="_top" xlink:title=" ">
<polygon fill="white" stroke="#666666" points="287.5,-19 174.5,-19 174.5,0 287.5,0 287.5,-19"/>
<text text-anchor="middle" x="231" y="-7" font-family="Helvetica,sans-Serif" font-size="10.00">MaterialPropertys.C</text>
</a>
</g>
</g>
<!-- Node1&#45;&gt;Node3 -->
<g id="edge2_Node000001_Node000003" class="edge">
<title>Node1&#45;&gt;Node3</title>
<g id="a_edge2_Node000001_Node000003"><a xlink:title=" ">
<path fill="none" stroke="#63b8ff" d="M464.24,-53.13C409.87,-43.19 328.79,-28.37 277.96,-19.08"/>
<polygon fill="#63b8ff" stroke="#63b8ff" points="463.94,-56.63 474.41,-54.98 465.2,-49.74 463.94,-56.63"/>
</a>
</g>
</g>
<!-- Node4 -->
<g id="Node000004" class="node">
<title>Node4</title>
<g id="a_Node000004"><a xlink:href="_polynomial_property_evaluator_8_c.html" target="_top" xlink:title=" ">
<polygon fill="white" stroke="#666666" points="474,-19 306,-19 306,0 474,0 474,-19"/>
<text text-anchor="middle" x="390" y="-7" font-family="Helvetica,sans-Serif" font-size="10.00">PolynomialPropertyEvaluator.C</text>
</a>
</g>
</g>
<!-- Node1&#45;&gt;Node4 -->
<g id="edge3_Node000001_Node000004" class="edge">
<title>Node1&#45;&gt;Node4</title>
<g id="a_edge3_Node000001_Node000004"><a xlink:title=" ">
<path fill="none" stroke="#63b8ff" d="M490.5,-51.16C466.25,-41.35 432.93,-27.87 411.43,-19.17"/>
<polygon fill="#63b8ff" stroke="#63b8ff" points="489.37,-54.48 499.95,-54.98 492,-47.99 489.37,-54.48"/>
</a>
</g>
</g>
<!-- Node5 -->
<g id="Node000005" class="node">
<title>Node5</title>
<g id="a_Node000005"><a xlink:href="_realm_8_c.html" target="_top" xlink:title=" ">
<polygon fill="white" stroke="#666666" points="550,-19 492,-19 492,0 550,0 550,-19"/>
<text text-anchor="middle" x="521" y="-7" font-family="Helvetica,sans-Serif" font-size="10.00">Realm.C</text>
</a>
</g>
</g>
<!-- Node1&#45;&gt;Node5 -->
<g id="edge4_Node000001_Node000005" class="edge">
<title>Node1&#45;&gt;Node5</title>
<g id="a_edge4_Node000001_Node000005"><a xlink:title=" ">
<path fill="none" stroke="#63b8ff" d="M521,-44.66C521,-35.93 521,-25.99 521,-19.09"/>
<polygon fill="#63b8ff" stroke="#63b8ff" points="517.5,-44.75 521,-54.75 524.5,-44.75 517.5,-44.75"/>
</a>
</g>
</g>
<!-- Node6 -->
<g id="Node000006" class="node">
<title>Node6</title>
<g id="a_Node000006"><a xlink:href="_reference_property_data_8_c.html" target="_top" xlink:title=" ">
<polygon fill="white" stroke="#666666" points="708,-19 568,-19 568,0 708,0 708,-19"/>
<text text-anchor="middle" x="638" y="-7" font-family="Helvetica,sans-Serif" font-size="10.00">ReferencePropertyData.C</text>
</a>
</g>
</g>
<!-- Node1&#45;&gt;Node6 -->
<g id="edge5_Node000001_Node000006" class="edge">
<title>Node1&#45;&gt;Node6</title>
<g id="a_edge5_Node000001_Node000006"><a xlink:title=" ">
<path fill="none" stroke="#63b8ff" d="M549.11,-50.77C570.69,-40.99 599.91,-27.75 618.86,-19.17"/>
<polygon fill="#63b8ff" stroke="#63b8ff" points="547.46,-47.67 539.8,-54.98 550.35,-54.05 547.46,-47.67"/>
</a>
</g>
</g>
<!-- Node7 -->
<g id="Node000007" class="node">
<title>Node7</title>
<g id="a_Node000007"><a xlink:href="_specific_heat_property_evaluator_8_c.html" target="_top" xlink:title=" ">
<polygon fill="white" stroke="#666666" points="900,-19 726,-19 726,0 900,0 900,-19"/>
<text text-anchor="middle" x="813" y="-7" font-family="Helvetica,sans-Serif" font-size="10.00">SpecificHeatPropertyEvaluator.C</text>
</a>
</g>
</g>
<!-- Node1&#45;&gt;Node7 -->
<g id="edge6_Node000001_Node000007" class="edge">
<title>Node1&#45;&gt;Node7</title>
<g id="a_edge6_Node000001_Node000007"><a xlink:title=" ">
<path fill="none" stroke="#63b8ff" d="M577.81,-53.19C632.55,-43.25 714.42,-28.39 765.72,-19.08"/>
<polygon fill="#63b8ff" stroke="#63b8ff" points="577.13,-49.75 567.91,-54.98 578.38,-56.64 577.13,-49.75"/>
</a>
</g>
</g>
<!-- Node8 -->
<g id="Node000008" class="node">
<title>Node8</title>
<g id="a_Node000008"><a xlink:href="_sutherlands_property_evaluator_8_c.html" target="_top" xlink:title=" ">
<polygon fill="white" stroke="#666666" points="1089.5,-19 918.5,-19 918.5,0 1089.5,0 1089.5,-19"/>
<text text-anchor="middle" x="1004" y="-7" font-family="Helvetica,sans-Serif" font-size="10.00">SutherlandsPropertyEvaluator.C</text>
</a>
</g>
</g>
<!-- Node1&#45;&gt;Node8 -->
<g id="edge7_Node000001_Node000008" class="edge">
<title>Node1&#45;&gt;Node8</title>
<g id="a_edge7_Node000001_Node000008"><a xlink:title=" ">
<path fill="none" stroke="#63b8ff" d="M601.42,-54.68C691.76,-44.76 837.36,-28.79 926.48,-19.01"/>
<polygon fill="#63b8ff" stroke="#63b8ff" points="600.79,-51.22 591.23,-55.79 601.55,-58.18 600.79,-51.22"/>
</a>
</g>
</g>
</g>
</svg>
