<?xml version="1.0" encoding="UTF-8" standalone="no"?>
<!DOCTYPE svg PUBLIC "-//W3C//DTD SVG 1.1//EN"
 "http://www.w3.org/Graphics/SVG/1.1/DTD/svg11.dtd">
<!-- Generated by graphviz version 2.43.0 (0)
 -->
<!-- Title: SSTMaxLengthScaleAlg.h Pages: 1 -->
<svg width="1325pt" height="137pt"
 viewBox="0.00 0.00 1325.00 137.00" xmlns="http://www.w3.org/2000/svg" xmlns:xlink="http://www.w3.org/1999/xlink">
<g id="graph0" class="graph" transform="scale(1 1) rotate(0) translate(4 133)">
<title>SSTMaxLengthScaleAlg.h</title>
<!-- Node1 -->
<g id="Node000001" class="node">
<title>Node1</title>
<g id="a_Node000001"><a xlink:title=" ">
<polygon fill="#999999" stroke="#666666" points="600.5,-129 460.5,-129 460.5,-110 600.5,-110 600.5,-129"/>
<text text-anchor="middle" x="530.5" y="-117" font-family="Helvetica,sans-Serif" font-size="10.00">SSTMaxLengthScaleAlg.h</text>
</a>
</g>
</g>
<!-- Node2 -->
<g id="Node000002" class="node">
<title>Node2</title>
<g id="a_Node000002"><a xlink:href="_algorithm_8h.html" target="_top" xlink:title=" ">
<polygon fill="white" stroke="#666666" points="194.5,-74 120.5,-74 120.5,-55 194.5,-55 194.5,-74"/>
<text text-anchor="middle" x="157.5" y="-62" font-family="Helvetica,sans-Serif" font-size="10.00">Algorithm.h</text>
</a>
</g>
</g>
<!-- Node1&#45;&gt;Node2 -->
<g id="edge1_Node000001_Node000002" class="edge">
<title>Node1&#45;&gt;Node2</title>
<g id="a_edge1_Node000001_Node000002"><a xlink:title=" ">
<path fill="none" stroke="#63b8ff" d="M470.57,-109.98C396.53,-99.46 272.09,-81.78 204.55,-72.19"/>
<polygon fill="#63b8ff" stroke="#63b8ff" points="205.01,-68.71 194.61,-70.77 204.02,-75.65 205.01,-68.71"/>
</a>
</g>
</g>
<!-- Node4 -->
<g id="Node000004" class="node">
<title>Node4</title>
<g id="a_Node000004"><a xlink:href="_elem_data_requests_8h.html" target="_top" xlink:title=" ">
<polygon fill="white" stroke="#666666" points="758,-74 639,-74 639,-55 758,-55 758,-74"/>
<text text-anchor="middle" x="698.5" y="-62" font-family="Helvetica,sans-Serif" font-size="10.00">ElemDataRequests.h</text>
</a>
</g>
</g>
<!-- Node1&#45;&gt;Node4 -->
<g id="edge3_Node000001_Node000004" class="edge">
<title>Node1&#45;&gt;Node4</title>
<g id="a_edge3_Node000001_Node000004"><a xlink:title=" ">
<path fill="none" stroke="#63b8ff" d="M557.49,-109.98C585.7,-101.09 630.14,-87.07 661.58,-77.15"/>
<polygon fill="#63b8ff" stroke="#63b8ff" points="662.81,-80.43 671.3,-74.08 660.71,-73.75 662.81,-80.43"/>
</a>
</g>
</g>
<!-- Node13 -->
<g id="Node000013" class="node">
<title>Node13</title>
<g id="a_Node000013"><a xlink:href="_field_type_def_8h.html" target="_top" xlink:title=" ">
<polygon fill="white" stroke="#666666" points="434.5,-74 346.5,-74 346.5,-55 434.5,-55 434.5,-74"/>
<text text-anchor="middle" x="390.5" y="-62" font-family="Helvetica,sans-Serif" font-size="10.00">FieldTypeDef.h</text>
</a>
</g>
</g>
<!-- Node1&#45;&gt;Node13 -->
<g id="edge12_Node000001_Node000013" class="edge">
<title>Node1&#45;&gt;Node13</title>
<g id="a_edge12_Node000001_Node000013"><a xlink:title=" ">
<path fill="none" stroke="#63b8ff" d="M508.01,-109.98C484.98,-101.27 448.96,-87.63 422.87,-77.75"/>
<polygon fill="#63b8ff" stroke="#63b8ff" points="423.99,-74.44 413.4,-74.17 421.52,-80.98 423.99,-74.44"/>
</a>
</g>
</g>
<!-- Node16 -->
<g id="Node000016" class="node">
<title>Node16</title>
<g id="a_Node000016"><a xlink:title=" ">
<polygon fill="#e0e0e0" stroke="#999999" points="918.5,-74 776.5,-74 776.5,-55 918.5,-55 918.5,-74"/>
<text text-anchor="middle" x="847.5" y="-62" font-family="Helvetica,sans-Serif" font-size="10.00">stk_mesh/base/Types.hpp</text>
</a>
</g>
</g>
<!-- Node1&#45;&gt;Node16 -->
<g id="edge17_Node000001_Node000016" class="edge">
<title>Node1&#45;&gt;Node16</title>
<g id="a_edge17_Node000001_Node000016"><a xlink:title=" ">
<path fill="none" stroke="#63b8ff" d="M581.43,-109.98C637.27,-100.65 726.83,-85.67 786.41,-75.71"/>
<polygon fill="#63b8ff" stroke="#63b8ff" points="787.15,-79.14 796.43,-74.04 785.99,-72.24 787.15,-79.14"/>
</a>
</g>
</g>
<!-- Node3 -->
<g id="Node000003" class="node">
<title>Node3</title>
<g id="a_Node000003"><a xlink:title=" ">
<polygon fill="#e0e0e0" stroke="#999999" points="47,-19 0,-19 0,0 47,0 47,-19"/>
<text text-anchor="middle" x="23.5" y="-7" font-family="Helvetica,sans-Serif" font-size="10.00">vector</text>
</a>
</g>
</g>
<!-- Node2&#45;&gt;Node3 -->
<g id="edge2_Node000002_Node000003" class="edge">
<title>Node2&#45;&gt;Node3</title>
<g id="a_edge2_Node000002_Node000003"><a xlink:title=" ">
<path fill="none" stroke="#63b8ff" d="M135.97,-54.98C114.03,-46.3 79.76,-32.75 54.81,-22.88"/>
<polygon fill="#63b8ff" stroke="#63b8ff" points="56.01,-19.59 45.42,-19.17 53.43,-26.1 56.01,-19.59"/>
</a>
</g>
</g>
<!-- Node5 -->
<g id="Node000005" class="node">
<title>Node5</title>
<g id="a_Node000005"><a xlink:title=" ">
<polygon fill="#e0e0e0" stroke="#999999" points="959,-19 822,-19 822,0 959,0 959,-19"/>
<text text-anchor="middle" x="890.5" y="-7" font-family="Helvetica,sans-Serif" font-size="10.00">stk_mesh/base/Field.hpp</text>
</a>
</g>
</g>
<!-- Node4&#45;&gt;Node5 -->
<g id="edge4_Node000004_Node000005" class="edge">
<title>Node4&#45;&gt;Node5</title>
<g id="a_edge4_Node000004_Node000005"><a xlink:title=" ">
<path fill="none" stroke="#63b8ff" d="M729.35,-54.98C762,-45.97 813.7,-31.7 849.7,-21.76"/>
<polygon fill="#63b8ff" stroke="#63b8ff" points="850.7,-25.12 859.41,-19.08 848.84,-18.37 850.7,-25.12"/>
</a>
</g>
</g>
<!-- Node6 -->
<g id="Node000006" class="node">
<title>Node6</title>
<g id="a_Node000006"><a xlink:title=" ">
<polygon fill="#e0e0e0" stroke="#999999" points="637,-19 476,-19 476,0 637,0 637,-19"/>
<text text-anchor="middle" x="556.5" y="-7" font-family="Helvetica,sans-Serif" font-size="10.00">stk_mesh/base/FieldBase.hpp</text>
</a>
</g>
</g>
<!-- Node4&#45;&gt;Node6 -->
<g id="edge5_Node000004_Node000006" class="edge">
<title>Node4&#45;&gt;Node6</title>
<g id="a_edge5_Node000004_Node000006"><a xlink:title=" ">
<path fill="none" stroke="#63b8ff" d="M675.69,-54.98C652.33,-46.27 615.8,-32.63 589.33,-22.75"/>
<polygon fill="#63b8ff" stroke="#63b8ff" points="590.32,-19.39 579.73,-19.17 587.87,-25.95 590.32,-19.39"/>
</a>
</g>
</g>
<!-- Node7 -->
<g id="Node000007" class="node">
<title>Node7</title>
<g id="a_Node000007"><a xlink:title=" ">
<polygon fill="#e0e0e0" stroke="#999999" points="1139.5,-19 977.5,-19 977.5,0 1139.5,0 1139.5,-19"/>
<text text-anchor="middle" x="1058.5" y="-7" font-family="Helvetica,sans-Serif" font-size="10.00">stk_mesh/base/MetaData.hpp</text>
</a>
</g>
</g>
<!-- Node4&#45;&gt;Node7 -->
<g id="edge6_Node000004_Node000007" class="edge">
<title>Node4&#45;&gt;Node7</title>
<g id="a_edge6_Node000004_Node000007"><a xlink:title=" ">
<path fill="none" stroke="#63b8ff" d="M756.34,-54.98C820.15,-45.59 922.72,-30.49 990.37,-20.53"/>
<polygon fill="#63b8ff" stroke="#63b8ff" points="991.12,-23.96 1000.51,-19.04 990.1,-17.03 991.12,-23.96"/>
</a>
</g>
</g>
<!-- Node8 -->
<g id="Node000008" class="node">
<title>Node8</title>
<g id="a_Node000008"><a xlink:title=" ">
<polygon fill="#e0e0e0" stroke="#999999" points="1317,-19 1158,-19 1158,0 1317,0 1317,-19"/>
<text text-anchor="middle" x="1237.5" y="-7" font-family="Helvetica,sans-Serif" font-size="10.00">stk_mesh/base/BulkData.hpp</text>
</a>
</g>
</g>
<!-- Node4&#45;&gt;Node8 -->
<g id="edge7_Node000004_Node000008" class="edge">
<title>Node4&#45;&gt;Node8</title>
<g id="a_edge7_Node000004_Node000008"><a xlink:title=" ">
<path fill="none" stroke="#63b8ff" d="M758.33,-56.02C761.43,-55.67 764.5,-55.33 767.5,-55 933.37,-36.95 977.51,-35.15 1147.86,-19.06"/>
<polygon fill="#63b8ff" stroke="#63b8ff" points="1148.3,-22.53 1157.92,-18.1 1147.64,-15.56 1148.3,-22.53"/>
</a>
</g>
</g>
<!-- Node9 -->
<g id="Node000009" class="node">
<title>Node9</title>
<g id="a_Node000009"><a xlink:title=" ">
<polygon fill="#e0e0e0" stroke="#999999" points="457.5,-19 323.5,-19 323.5,0 457.5,0 457.5,-19"/>
<text text-anchor="middle" x="390.5" y="-7" font-family="Helvetica,sans-Serif" font-size="10.00">stk_mesh/base/Ngp.hpp</text>
</a>
</g>
</g>
<!-- Node4&#45;&gt;Node9 -->
<g id="edge8_Node000004_Node000009" class="edge">
<title>Node4&#45;&gt;Node9</title>
<g id="a_edge8_Node000004_Node000009"><a xlink:title=" ">
<path fill="none" stroke="#63b8ff" d="M649.01,-54.98C594.87,-45.67 508.1,-30.74 450.22,-20.78"/>
<polygon fill="#63b8ff" stroke="#63b8ff" points="450.57,-17.28 440.12,-19.04 449.38,-24.18 450.57,-17.28"/>
</a>
</g>
</g>
<!-- Node10 -->
<g id="Node000010" class="node">
<title>Node10</title>
<g id="a_Node000010"><a xlink:title=" ">
<polygon fill="#e0e0e0" stroke="#999999" points="687.5,-19 655.5,-19 655.5,0 687.5,0 687.5,-19"/>
<text text-anchor="middle" x="671.5" y="-7" font-family="Helvetica,sans-Serif" font-size="10.00">set</text>
</a>
</g>
</g>
<!-- Node4&#45;&gt;Node10 -->
<g id="edge9_Node000004_Node000010" class="edge">
<title>Node4&#45;&gt;Node10</title>
<g id="a_edge9_Node000004_Node000010"><a xlink:title=" ">
<path fill="none" stroke="#63b8ff" d="M694.04,-54.75C690.38,-47.57 685.09,-37.18 680.55,-28.27"/>
<polygon fill="#63b8ff" stroke="#63b8ff" points="683.53,-26.41 675.88,-19.09 677.3,-29.59 683.53,-26.41"/>
</a>
</g>
</g>
<!-- Node11 -->
<g id="Node000011" class="node">
<title>Node11</title>
<g id="a_Node000011"><a xlink:title=" ">
<polygon fill="#e0e0e0" stroke="#999999" points="747.5,-19 705.5,-19 705.5,0 747.5,0 747.5,-19"/>
<text text-anchor="middle" x="726.5" y="-7" font-family="Helvetica,sans-Serif" font-size="10.00">array</text>
</a>
</g>
</g>
<!-- Node4&#45;&gt;Node11 -->
<g id="edge10_Node000004_Node000011" class="edge">
<title>Node4&#45;&gt;Node11</title>
<g id="a_edge10_Node000004_Node000011"><a xlink:title=" ">
<path fill="none" stroke="#63b8ff" d="M703.12,-54.75C706.96,-47.49 712.52,-36.95 717.26,-27.98"/>
<polygon fill="#63b8ff" stroke="#63b8ff" points="720.39,-29.57 721.96,-19.09 714.2,-26.3 720.39,-29.57"/>
</a>
</g>
</g>
<!-- Node12 -->
<g id="Node000012" class="node">
<title>Node12</title>
<g id="a_Node000012"><a xlink:title=" ">
<polygon fill="#e0e0e0" stroke="#999999" points="803.5,-19 765.5,-19 765.5,0 803.5,0 803.5,-19"/>
<text text-anchor="middle" x="784.5" y="-7" font-family="Helvetica,sans-Serif" font-size="10.00">map</text>
</a>
</g>
</g>
<!-- Node4&#45;&gt;Node12 -->
<g id="edge11_Node000004_Node000012" class="edge">
<title>Node4&#45;&gt;Node12</title>
<g id="a_edge11_Node000004_Node000012"><a xlink:title=" ">
<path fill="none" stroke="#63b8ff" d="M712.32,-54.98C725.65,-46.77 746.08,-34.18 761.81,-24.49"/>
<polygon fill="#63b8ff" stroke="#63b8ff" points="763.75,-27.4 770.43,-19.17 760.08,-21.44 763.75,-27.4"/>
</a>
</g>
</g>
<!-- Node13&#45;&gt;Node6 -->
<g id="edge13_Node000013_Node000006" class="edge">
<title>Node13&#45;&gt;Node6</title>
<g id="a_edge13_Node000013_Node000006"><a xlink:title=" ">
<path fill="none" stroke="#63b8ff" d="M417.17,-54.98C445.04,-46.09 488.95,-32.07 520.02,-22.15"/>
<polygon fill="#63b8ff" stroke="#63b8ff" points="521.16,-25.46 529.62,-19.08 519.03,-18.79 521.16,-25.46"/>
</a>
</g>
</g>
<!-- Node13&#45;&gt;Node9 -->
<g id="edge14_Node000013_Node000009" class="edge">
<title>Node13&#45;&gt;Node9</title>
<g id="a_edge14_Node000013_Node000009"><a xlink:title=" ">
<path fill="none" stroke="#63b8ff" d="M390.5,-54.75C390.5,-47.8 390.5,-37.85 390.5,-29.13"/>
<polygon fill="#63b8ff" stroke="#63b8ff" points="394,-29.09 390.5,-19.09 387,-29.09 394,-29.09"/>
</a>
</g>
</g>
<!-- Node14 -->
<g id="Node000014" class="node">
<title>Node14</title>
<g id="a_Node000014"><a xlink:title=" ">
<polygon fill="#e0e0e0" stroke="#999999" points="305,-19 148,-19 148,0 305,0 305,-19"/>
<text text-anchor="middle" x="226.5" y="-7" font-family="Helvetica,sans-Serif" font-size="10.00">stk_mesh/base/NgpField.hpp</text>
</a>
</g>
</g>
<!-- Node13&#45;&gt;Node14 -->
<g id="edge15_Node000013_Node000014" class="edge">
<title>Node13&#45;&gt;Node14</title>
<g id="a_edge15_Node000013_Node000014"><a xlink:title=" ">
<path fill="none" stroke="#63b8ff" d="M364.15,-54.98C336.74,-46.13 293.61,-32.19 262.94,-22.28"/>
<polygon fill="#63b8ff" stroke="#63b8ff" points="263.65,-18.83 253.06,-19.08 261.5,-25.49 263.65,-18.83"/>
</a>
</g>
</g>
<!-- Node15 -->
<g id="Node000015" class="node">
<title>Node15</title>
<g id="a_Node000015"><a xlink:title=" ">
<polygon fill="#e0e0e0" stroke="#999999" points="130,-19 65,-19 65,0 130,0 130,-19"/>
<text text-anchor="middle" x="97.5" y="-7" font-family="Helvetica,sans-Serif" font-size="10.00">functional</text>
</a>
</g>
</g>
<!-- Node13&#45;&gt;Node15 -->
<g id="edge16_Node000013_Node000015" class="edge">
<title>Node13&#45;&gt;Node15</title>
<g id="a_edge16_Node000013_Node000015"><a xlink:title=" ">
<path fill="none" stroke="#63b8ff" d="M346.46,-56.02C298.35,-47.78 218.76,-33.94 140.13,-19.08"/>
<polygon fill="#63b8ff" stroke="#63b8ff" points="140.52,-15.59 130.04,-17.17 139.22,-22.47 140.52,-15.59"/>
</a>
</g>
</g>
</g>
</svg>
