<?xml version="1.0" encoding="UTF-8" standalone="no"?>
<!DOCTYPE svg PUBLIC "-//W3C//DTD SVG 1.1//EN"
 "http://www.w3.org/Graphics/SVG/1.1/DTD/svg11.dtd">
<!-- Generated by graphviz version 2.43.0 (0)
 -->
<!-- Title: ScalarMassBDFNodeKernel.h Pages: 1 -->
<svg width="1032pt" height="95pt"
 viewBox="0.00 0.00 1032.00 95.00" xmlns="http://www.w3.org/2000/svg" xmlns:xlink="http://www.w3.org/1999/xlink">
<g id="graph0" class="graph" transform="scale(1 1) rotate(0) translate(4 91)">
<title>ScalarMassBDFNodeKernel.h</title>
<polygon fill="white" stroke="transparent" points="-4,4 -4,-91 1028,-91 1028,4 -4,4"/>
<!-- Node1 -->
<g id="node1" class="node">
<title>Node1</title>
<g id="a_node1"><a xlink:title=" ">
<polygon fill="#bfbfbf" stroke="black" points="422.5,-67.5 422.5,-86.5 580.5,-86.5 580.5,-67.5 422.5,-67.5"/>
<text text-anchor="middle" x="501.5" y="-74.5" font-family="Helvetica,sans-Serif" font-size="10.00">ScalarMassBDFNodeKernel.h</text>
</a>
</g>
</g>
<!-- Node2 -->
<g id="node2" class="node">
<title>Node2</title>
<g id="a_node2"><a xlink:href="_enthalpy_equation_system_8_c.html" target="_top" xlink:title=" ">
<polygon fill="white" stroke="black" points="0,-6 0,-25 149,-25 149,-6 0,-6"/>
<text text-anchor="middle" x="74.5" y="-13" font-family="Helvetica,sans-Serif" font-size="10.00">EnthalpyEquationSystem.C</text>
</a>
</g>
</g>
<!-- Node1&#45;&gt;Node2 -->
<g id="edge1" class="edge">
<title>Node1&#45;&gt;Node2</title>
<path fill="none" stroke="midnightblue" d="M419.51,-66.28C349.72,-57.76 246.88,-44.65 157.5,-31 145.79,-29.21 133.18,-27.1 121.41,-25.06"/>
<polygon fill="midnightblue" stroke="midnightblue" points="419.21,-69.77 429.56,-67.5 420.05,-62.82 419.21,-69.77"/>
</g>
<!-- Node3 -->
<g id="node3" class="node">
<title>Node3</title>
<g id="a_node3"><a xlink:href="_gamma_equation_system_8_c.html" target="_top" xlink:title=" ">
<polygon fill="white" stroke="black" points="167,-6 167,-25 312,-25 312,-6 167,-6"/>
<text text-anchor="middle" x="239.5" y="-13" font-family="Helvetica,sans-Serif" font-size="10.00">GammaEquationSystem.C</text>
</a>
</g>
</g>
<!-- Node1&#45;&gt;Node3 -->
<g id="edge2" class="edge">
<title>Node1&#45;&gt;Node3</title>
<path fill="none" stroke="midnightblue" d="M454.2,-65.26C403.38,-53.72 323.63,-35.61 276.97,-25.01"/>
<polygon fill="midnightblue" stroke="midnightblue" points="453.43,-68.67 463.96,-67.48 454.99,-61.85 453.43,-68.67"/>
</g>
<!-- Node4 -->
<g id="node4" class="node">
<title>Node4</title>
<g id="a_node4"><a xlink:href="_scalar_mass_b_d_f_node_kernel_8_c.html" target="_top" xlink:title=" ">
<polygon fill="white" stroke="black" points="330.5,-6 330.5,-25 488.5,-25 488.5,-6 330.5,-6"/>
<text text-anchor="middle" x="409.5" y="-13" font-family="Helvetica,sans-Serif" font-size="10.00">ScalarMassBDFNodeKernel.C</text>
</a>
</g>
</g>
<!-- Node1&#45;&gt;Node4 -->
<g id="edge3" class="edge">
<title>Node1&#45;&gt;Node4</title>
<path fill="none" stroke="midnightblue" d="M479.74,-61.93C462.01,-50.46 437.54,-34.63 422.66,-25.01"/>
<polygon fill="midnightblue" stroke="midnightblue" points="478.02,-64.98 488.32,-67.48 481.82,-59.11 478.02,-64.98"/>
</g>
<!-- Node5 -->
<g id="node5" class="node">
<title>Node5</title>
<g id="a_node5"><a xlink:href="_specific_dissipation_rate_equation_system_8_c.html" target="_top" xlink:title=" ">
<polygon fill="white" stroke="black" points="506.5,-0.5 506.5,-30.5 680.5,-30.5 680.5,-0.5 506.5,-0.5"/>
<text text-anchor="start" x="514.5" y="-18.5" font-family="Helvetica,sans-Serif" font-size="10.00">SpecificDissipationRateEquation</text>
<text text-anchor="middle" x="593.5" y="-7.5" font-family="Helvetica,sans-Serif" font-size="10.00">System.C</text>
</a>
</g>
</g>
<!-- Node1&#45;&gt;Node5 -->
<g id="edge4" class="edge">
<title>Node1&#45;&gt;Node5</title>
<path fill="none" stroke="midnightblue" d="M523.13,-62.01C537.81,-52.52 557.13,-40.02 571.82,-30.52"/>
<polygon fill="midnightblue" stroke="midnightblue" points="521.18,-59.11 514.68,-67.48 524.98,-64.98 521.18,-59.11"/>
</g>
<!-- Node6 -->
<g id="node6" class="node">
<title>Node6</title>
<g id="a_node6"><a xlink:href="_total_dissipation_rate_equation_system_8_c.html" target="_top" xlink:title=" ">
<polygon fill="white" stroke="black" points="698.5,-0.5 698.5,-30.5 858.5,-30.5 858.5,-0.5 698.5,-0.5"/>
<text text-anchor="start" x="706.5" y="-18.5" font-family="Helvetica,sans-Serif" font-size="10.00">TotalDissipationRateEquation</text>
<text text-anchor="middle" x="778.5" y="-7.5" font-family="Helvetica,sans-Serif" font-size="10.00">System.C</text>
</a>
</g>
</g>
<!-- Node1&#45;&gt;Node6 -->
<g id="edge5" class="edge">
<title>Node1&#45;&gt;Node6</title>
<path fill="none" stroke="midnightblue" d="M551.07,-65.35C596.34,-55.63 663.58,-41.18 713.22,-30.52"/>
<polygon fill="midnightblue" stroke="midnightblue" points="550.23,-61.95 541.19,-67.48 551.7,-68.8 550.23,-61.95"/>
</g>
<!-- Node7 -->
<g id="node7" class="node">
<title>Node7</title>
<g id="a_node7"><a xlink:href="_turb_kinetic_energy_equation_system_8_c.html" target="_top" xlink:title=" ">
<polygon fill="white" stroke="black" points="877,-0.5 877,-30.5 1024,-30.5 1024,-0.5 877,-0.5"/>
<text text-anchor="start" x="885" y="-18.5" font-family="Helvetica,sans-Serif" font-size="10.00">TurbKineticEnergyEquation</text>
<text text-anchor="middle" x="950.5" y="-7.5" font-family="Helvetica,sans-Serif" font-size="10.00">System.C</text>
</a>
</g>
</g>
<!-- Node1&#45;&gt;Node7 -->
<g id="edge6" class="edge">
<title>Node1&#45;&gt;Node7</title>
<path fill="none" stroke="midnightblue" d="M590.43,-66.34C664.65,-57.97 773.15,-45.03 867.5,-31 870.54,-30.55 873.64,-30.07 876.77,-29.58"/>
<polygon fill="midnightblue" stroke="midnightblue" points="589.74,-62.9 580.19,-67.49 590.52,-69.85 589.74,-62.9"/>
</g>
</g>
</svg>
