<?xml version="1.0" encoding="UTF-8" standalone="no"?>
<!DOCTYPE svg PUBLIC "-//W3C//DTD SVG 1.1//EN"
 "http://www.w3.org/Graphics/SVG/1.1/DTD/svg11.dtd">
<!-- Generated by graphviz version 2.43.0 (0)
 -->
<!-- Title: SharedMemData.h Pages: 1 -->
<!--zoomable 274 -->
<svg id="main" version="1.1" xmlns="http://www.w3.org/2000/svg" xmlns:xlink="http://www.w3.org/1999/xlink" xml:space="preserve" onload="init(evt)">
<style type="text/css"><![CDATA[
.edge:hover path { stroke: red; }
.edge:hover polygon { stroke: red; fill: red; }
]]></style>
<script type="text/javascript"><![CDATA[
var edges = document.getElementsByTagName('g');
if (edges && edges.length) {
  for (var i=0;i<edges.length;i++) {
    if (edges[i].id.substr(0,4)=='edge') {
      edges[i].setAttribute('class','edge');
    }
  }
}
]]></script>
        <defs>
                <circle id="rim" cx="0" cy="0" r="7"/>
                <circle id="rim2" cx="0" cy="0" r="3.5"/>
                <g id="zoomPlus">
                        <use xlink:href="#rim" fill="#404040">
                                <set attributeName="fill" to="#808080" begin="zoomplus.mouseover" end="zoomplus.mouseout"/>
                        </use>
                        <path d="M-4,0h8M0,-4v8" fill="none" stroke="white" stroke-width="1.5" pointer-events="none"/>
                </g>
                <g id="zoomMin">
                        <use xlink:href="#rim" fill="#404040">
                                <set attributeName="fill" to="#808080" begin="zoomminus.mouseover" end="zoomminus.mouseout"/>
                        </use>
                        <path d="M-4,0h8" fill="none" stroke="white" stroke-width="1.5" pointer-events="none"/>
                </g>
                <g id="dirArrow">
                        <path fill="none" stroke="white" stroke-width="1.5" d="M0,-3.0v7 M-2.5,-0.5L0,-3.0L2.5,-0.5"/>
                </g>
               <g id="resetDef">
                       <use xlink:href="#rim2" fill="#404040">
                               <set attributeName="fill" to="#808080" begin="reset.mouseover" end="reset.mouseout"/>
                       </use>
               </g>
        </defs>

<script type="text/javascript">
var viewWidth = 3335;
var viewHeight = 274;
var sectionId = 'dynsection-1';
</script>
<script xlink:href="svgpan.js"/>
<svg id="graph" class="graph">
<g id="viewport">
<title>SharedMemData.h</title>
<polygon fill="white" stroke="transparent" points="-4,4 -4,-270 3331,-270 3331,4 -4,4"/>
<!-- Node1 -->
<g id="node1" class="node">
<title>Node1</title>
<g id="a_node1"><a xlink:title=" ">
<polygon fill="#bfbfbf" stroke="black" points="949.5,-246.5 949.5,-265.5 1056.5,-265.5 1056.5,-246.5 949.5,-246.5"/>
<text text-anchor="middle" x="1003" y="-253.5" font-family="Helvetica,sans-Serif" font-size="10.00">SharedMemData.h</text>
</a>
</g>
</g>
<!-- Node2 -->
<g id="node2" class="node">
<title>Node2</title>
<g id="a_node2"><a xlink:href="_assemble_edge_solver_algorithm_8h.html" target="_top" xlink:title=" ">
<polygon fill="white" stroke="black" points="2156,-190.5 2156,-209.5 2332,-209.5 2332,-190.5 2156,-190.5"/>
<text text-anchor="middle" x="2244" y="-197.5" font-family="Helvetica,sans-Serif" font-size="10.00">AssembleEdgeSolverAlgorithm.h</text>
</a>
</g>
</g>
<!-- Node1&#45;&gt;Node2 -->
<g id="edge1" class="edge">
<title>Node1&#45;&gt;Node2</title>
<path fill="none" stroke="midnightblue" d="M1066.76,-252.23C1272.43,-243.28 1918.68,-215.16 2155.71,-204.84"/>
<polygon fill="midnightblue" stroke="midnightblue" points="1066.56,-248.73 1056.72,-252.66 1066.87,-255.72 1066.56,-248.73"/>
</g>
<!-- Node30 -->
<g id="node30" class="node">
<title>Node30</title>
<g id="a_node30"><a xlink:href="_assemble_elem_solver_algorithm_8h.html" target="_top" xlink:title=" ">
<polygon fill="white" stroke="black" points="811.5,-190.5 811.5,-209.5 988.5,-209.5 988.5,-190.5 811.5,-190.5"/>
<text text-anchor="middle" x="900" y="-197.5" font-family="Helvetica,sans-Serif" font-size="10.00">AssembleElemSolverAlgorithm.h</text>
</a>
</g>
</g>
<!-- Node1&#45;&gt;Node30 -->
<g id="edge33" class="edge">
<title>Node1&#45;&gt;Node30</title>
<path fill="none" stroke="midnightblue" d="M977.42,-241.59C958.38,-231.61 932.94,-218.27 916.51,-209.65"/>
<polygon fill="midnightblue" stroke="midnightblue" points="975.97,-244.78 986.45,-246.32 979.22,-238.58 975.97,-244.78"/>
</g>
<!-- Node34 -->
<g id="node34" class="node">
<title>Node34</title>
<g id="a_node34"><a xlink:href="_assemble_face_elem_solver_algorithm_8h.html" target="_top" xlink:title=" ">
<polygon fill="white" stroke="black" points="1006.5,-190.5 1006.5,-209.5 1205.5,-209.5 1205.5,-190.5 1006.5,-190.5"/>
<text text-anchor="middle" x="1106" y="-197.5" font-family="Helvetica,sans-Serif" font-size="10.00">AssembleFaceElemSolverAlgorithm.h</text>
</a>
</g>
</g>
<!-- Node1&#45;&gt;Node34 -->
<g id="edge48" class="edge">
<title>Node1&#45;&gt;Node34</title>
<path fill="none" stroke="midnightblue" d="M1028.58,-241.59C1047.62,-231.61 1073.06,-218.27 1089.49,-209.65"/>
<polygon fill="midnightblue" stroke="midnightblue" points="1026.78,-238.58 1019.55,-246.32 1030.03,-244.78 1026.78,-238.58"/>
</g>
<!-- Node36 -->
<g id="node36" class="node">
<title>Node36</title>
<g id="a_node36"><a xlink:href="_edge_kernel_8h.html" target="_top" xlink:title="Kernel&#45;style implementation of Edge algorithms.">
<polygon fill="white" stroke="black" points="269,-129 269,-148 349,-148 349,-129 269,-129"/>
<text text-anchor="middle" x="309" y="-136" font-family="Helvetica,sans-Serif" font-size="10.00">EdgeKernel.h</text>
</a>
</g>
</g>
<!-- Node1&#45;&gt;Node36 -->
<g id="edge51" class="edge">
<title>Node1&#45;&gt;Node36</title>
<path fill="none" stroke="midnightblue" d="M941.61,-244.78C802.36,-221.61 465.65,-165.57 349.33,-146.21"/>
<polygon fill="midnightblue" stroke="midnightblue" points="941.25,-248.27 951.69,-246.46 942.4,-241.37 941.25,-248.27"/>
</g>
<!-- Node3 -->
<g id="node3" class="node">
<title>Node3</title>
<g id="a_node3"><a xlink:href="_assemble_edge_kernel_alg_8h.html" target="_top" xlink:title=" ">
<polygon fill="white" stroke="black" points="627,-129 627,-148 771,-148 771,-129 627,-129"/>
<text text-anchor="middle" x="699" y="-136" font-family="Helvetica,sans-Serif" font-size="10.00">AssembleEdgeKernelAlg.h</text>
</a>
</g>
</g>
<!-- Node2&#45;&gt;Node3 -->
<g id="edge2" class="edge">
<title>Node2&#45;&gt;Node3</title>
<path fill="none" stroke="midnightblue" d="M2145.48,-196.5C1927.56,-190.77 1388.23,-175.51 937,-154 881.28,-151.34 818.28,-147.47 771.1,-144.39"/>
<polygon fill="midnightblue" stroke="midnightblue" points="2145.52,-200 2155.61,-196.76 2145.71,-193 2145.52,-200"/>
</g>
<!-- Node8 -->
<g id="node8" class="node">
<title>Node8</title>
<g id="a_node8"><a xlink:href="_continuity_edge_solver_alg_8h.html" target="_top" xlink:title=" ">
<polygon fill="white" stroke="black" points="2081,-129 2081,-148 2227,-148 2227,-129 2081,-129"/>
<text text-anchor="middle" x="2154" y="-136" font-family="Helvetica,sans-Serif" font-size="10.00">ContinuityEdgeSolverAlg.h</text>
</a>
</g>
</g>
<!-- Node2&#45;&gt;Node8 -->
<g id="edge7" class="edge">
<title>Node2&#45;&gt;Node8</title>
<path fill="none" stroke="midnightblue" d="M2222.72,-184.93C2205.37,-173.46 2181.43,-157.63 2166.87,-148.01"/>
<polygon fill="midnightblue" stroke="midnightblue" points="2220.83,-187.88 2231.11,-190.48 2224.69,-182.04 2220.83,-187.88"/>
</g>
<!-- Node10 -->
<g id="node10" class="node">
<title>Node10</title>
<g id="a_node10"><a xlink:href="_momentum_edge_solver_alg_8h.html" target="_top" xlink:title=" ">
<polygon fill="white" stroke="black" points="2647,-129 2647,-148 2799,-148 2799,-129 2647,-129"/>
<text text-anchor="middle" x="2723" y="-136" font-family="Helvetica,sans-Serif" font-size="10.00">MomentumEdgeSolverAlg.h</text>
</a>
</g>
</g>
<!-- Node2&#45;&gt;Node10 -->
<g id="edge10" class="edge">
<title>Node2&#45;&gt;Node10</title>
<path fill="none" stroke="midnightblue" d="M2340.69,-189.46C2420.57,-181.22 2536.85,-168.39 2638,-154 2650.3,-152.25 2663.56,-150.11 2675.86,-148.02"/>
<polygon fill="midnightblue" stroke="midnightblue" points="2340.23,-185.99 2330.65,-190.49 2340.95,-192.95 2340.23,-185.99"/>
</g>
<!-- Node12 -->
<g id="node12" class="node">
<title>Node12</title>
<g id="a_node12"><a xlink:href="_scalar_edge_solver_alg_8h.html" target="_top" xlink:title=" ">
<polygon fill="white" stroke="black" points="1164,-129 1164,-148 1290,-148 1290,-129 1164,-129"/>
<text text-anchor="middle" x="1227" y="-136" font-family="Helvetica,sans-Serif" font-size="10.00">ScalarEdgeSolverAlg.h</text>
</a>
</g>
</g>
<!-- Node2&#45;&gt;Node12 -->
<g id="edge13" class="edge">
<title>Node2&#45;&gt;Node12</title>
<path fill="none" stroke="midnightblue" d="M2145.73,-198.01C1975.74,-195.46 1616.02,-186.36 1314,-154 1300.3,-152.53 1285.48,-150.3 1272.02,-148.03"/>
<polygon fill="midnightblue" stroke="midnightblue" points="2145.85,-201.51 2155.9,-198.16 2145.96,-194.51 2145.85,-201.51"/>
</g>
<!-- Node19 -->
<g id="node19" class="node">
<title>Node19</title>
<g id="a_node19"><a xlink:href="_v_o_f_advection_edge_alg_8h.html" target="_top" xlink:title=" ">
<polygon fill="white" stroke="black" points="3019.5,-129 3019.5,-148 3152.5,-148 3152.5,-129 3019.5,-129"/>
<text text-anchor="middle" x="3086" y="-136" font-family="Helvetica,sans-Serif" font-size="10.00">VOFAdvectionEdgeAlg.h</text>
</a>
</g>
</g>
<!-- Node2&#45;&gt;Node19 -->
<g id="edge20" class="edge">
<title>Node2&#45;&gt;Node19</title>
<path fill="none" stroke="midnightblue" d="M2342.14,-195.77C2484.68,-190.46 2757.2,-178.01 2988,-154 3003.05,-152.43 3019.34,-150.23 3034.23,-148.01"/>
<polygon fill="midnightblue" stroke="midnightblue" points="2341.97,-192.27 2332.1,-196.14 2342.23,-199.27 2341.97,-192.27"/>
</g>
<!-- Node22 -->
<g id="node22" class="node">
<title>Node22</title>
<g id="a_node22"><a xlink:href="_wall_dist_edge_solver_alg_8h.html" target="_top" xlink:title=" ">
<polygon fill="white" stroke="black" points="1925.5,-129 1925.5,-148 2062.5,-148 2062.5,-129 1925.5,-129"/>
<text text-anchor="middle" x="1994" y="-136" font-family="Helvetica,sans-Serif" font-size="10.00">WallDistEdgeSolverAlg.h</text>
</a>
</g>
</g>
<!-- Node2&#45;&gt;Node22 -->
<g id="edge23" class="edge">
<title>Node2&#45;&gt;Node22</title>
<path fill="none" stroke="midnightblue" d="M2198.26,-188.11C2149.74,-176.57 2074.09,-158.56 2029.75,-148.01"/>
<polygon fill="midnightblue" stroke="midnightblue" points="2197.64,-191.56 2208.18,-190.48 2199.26,-184.75 2197.64,-191.56"/>
</g>
<!-- Node25 -->
<g id="node25" class="node">
<title>Node25</title>
<g id="a_node25"><a xlink:href="_zalesak_disk_mass_flow_rate_kernel_8h.html" target="_top" xlink:title=" ">
<polygon fill="white" stroke="black" points="2441,-129 2441,-148 2629,-148 2629,-129 2441,-129"/>
<text text-anchor="middle" x="2535" y="-136" font-family="Helvetica,sans-Serif" font-size="10.00">ZalesakDiskMassFlowRateKernel.h</text>
</a>
</g>
</g>
<!-- Node2&#45;&gt;Node25 -->
<g id="edge26" class="edge">
<title>Node2&#45;&gt;Node25</title>
<path fill="none" stroke="midnightblue" d="M2295.83,-188.4C2352.25,-176.87 2441.34,-158.65 2493.38,-148.01"/>
<polygon fill="midnightblue" stroke="midnightblue" points="2294.79,-185.04 2285.69,-190.48 2296.19,-191.9 2294.79,-185.04"/>
</g>
<!-- Node27 -->
<g id="node27" class="node">
<title>Node27</title>
<g id="a_node27"><a xlink:href="_zalesak_sphere_mass_flow_rate_kernel_8h.html" target="_top" xlink:title=" ">
<polygon fill="white" stroke="black" points="2817.5,-123.5 2817.5,-153.5 2978.5,-153.5 2978.5,-123.5 2817.5,-123.5"/>
<text text-anchor="start" x="2825.5" y="-141.5" font-family="Helvetica,sans-Serif" font-size="10.00">ZalesakSphereMassFlowRate</text>
<text text-anchor="middle" x="2898" y="-130.5" font-family="Helvetica,sans-Serif" font-size="10.00">Kernel.h</text>
</a>
</g>
</g>
<!-- Node2&#45;&gt;Node27 -->
<g id="edge29" class="edge">
<title>Node2&#45;&gt;Node27</title>
<path fill="none" stroke="midnightblue" d="M2342.13,-193.56C2454.83,-186.76 2645.17,-173.58 2808,-154 2810.99,-153.64 2814.02,-153.26 2817.09,-152.85"/>
<polygon fill="midnightblue" stroke="midnightblue" points="2341.91,-190.07 2332.14,-194.16 2342.33,-197.06 2341.91,-190.07"/>
</g>
<!-- Node29 -->
<g id="node29" class="node">
<title>Node29</title>
<g id="a_node29"><a xlink:href="_assemble_edge_solver_algorithm_8_c.html" target="_top" xlink:title=" ">
<polygon fill="white" stroke="black" points="2245.5,-129 2245.5,-148 2422.5,-148 2422.5,-129 2245.5,-129"/>
<text text-anchor="middle" x="2334" y="-136" font-family="Helvetica,sans-Serif" font-size="10.00">AssembleEdgeSolverAlgorithm.C</text>
</a>
</g>
</g>
<!-- Node2&#45;&gt;Node29 -->
<g id="edge32" class="edge">
<title>Node2&#45;&gt;Node29</title>
<path fill="none" stroke="midnightblue" d="M2265.28,-184.93C2282.63,-173.46 2306.57,-157.63 2321.13,-148.01"/>
<polygon fill="midnightblue" stroke="midnightblue" points="2263.31,-182.04 2256.89,-190.48 2267.17,-187.88 2263.31,-182.04"/>
</g>
<!-- Node4 -->
<g id="node4" class="node">
<title>Node4</title>
<g id="a_node4"><a xlink:href="_assemble_a_m_s_edge_kernel_alg_8h.html" target="_top" xlink:title=" ">
<polygon fill="white" stroke="black" points="450,-62 450,-81 616,-81 616,-62 450,-62"/>
<text text-anchor="middle" x="533" y="-69" font-family="Helvetica,sans-Serif" font-size="10.00">AssembleAMSEdgeKernelAlg.h</text>
</a>
</g>
</g>
<!-- Node3&#45;&gt;Node4 -->
<g id="edge3" class="edge">
<title>Node3&#45;&gt;Node4</title>
<path fill="none" stroke="midnightblue" d="M667.34,-125.1C634.38,-112.2 583.64,-92.33 554.87,-81.06"/>
<polygon fill="midnightblue" stroke="midnightblue" points="666.37,-128.48 676.96,-128.87 668.92,-121.96 666.37,-128.48"/>
</g>
<!-- Node7 -->
<g id="node7" class="node">
<title>Node7</title>
<g id="a_node7"><a xlink:href="_assemble_edge_kernel_alg_8_c.html" target="_top" xlink:title=" ">
<polygon fill="white" stroke="black" points="286.5,-62 286.5,-81 431.5,-81 431.5,-62 286.5,-62"/>
<text text-anchor="middle" x="359" y="-69" font-family="Helvetica,sans-Serif" font-size="10.00">AssembleEdgeKernelAlg.C</text>
</a>
</g>
</g>
<!-- Node3&#45;&gt;Node7 -->
<g id="edge6" class="edge">
<title>Node3&#45;&gt;Node7</title>
<path fill="none" stroke="midnightblue" d="M644.27,-127.04C577.4,-114.25 465.54,-92.87 403.63,-81.03"/>
<polygon fill="midnightblue" stroke="midnightblue" points="643.72,-130.5 654.2,-128.94 645.04,-123.62 643.72,-130.5"/>
</g>
<!-- Node5 -->
<g id="node5" class="node">
<title>Node5</title>
<g id="a_node5"><a xlink:href="_assemble_a_m_s_edge_kernel_alg_8_c.html" target="_top" xlink:title=" ">
<polygon fill="white" stroke="black" points="211.5,-0.5 211.5,-19.5 378.5,-19.5 378.5,-0.5 211.5,-0.5"/>
<text text-anchor="middle" x="295" y="-7.5" font-family="Helvetica,sans-Serif" font-size="10.00">AssembleAMSEdgeKernelAlg.C</text>
</a>
</g>
</g>
<!-- Node4&#45;&gt;Node5 -->
<g id="edge4" class="edge">
<title>Node4&#45;&gt;Node5</title>
<path fill="none" stroke="midnightblue" d="M489.16,-59.54C442.96,-47.99 371.16,-30.04 329.04,-19.51"/>
<polygon fill="midnightblue" stroke="midnightblue" points="488.35,-62.95 498.9,-61.98 490.05,-56.15 488.35,-62.95"/>
</g>
<!-- Node6 -->
<g id="node6" class="node">
<title>Node6</title>
<g id="a_node6"><a xlink:href="_low_mach_equation_system_8_c.html" target="_top" xlink:title=" ">
<polygon fill="white" stroke="black" points="1952,-0.5 1952,-19.5 2104,-19.5 2104,-0.5 1952,-0.5"/>
<text text-anchor="middle" x="2028" y="-7.5" font-family="Helvetica,sans-Serif" font-size="10.00">LowMachEquationSystem.C</text>
</a>
</g>
</g>
<!-- Node4&#45;&gt;Node6 -->
<g id="edge5" class="edge">
<title>Node4&#45;&gt;Node6</title>
<path fill="none" stroke="midnightblue" d="M589.71,-60.43C601.35,-58.68 613.55,-57.08 625,-56 885.82,-31.36 1698.13,-16.37 1951.64,-12.2"/>
<polygon fill="midnightblue" stroke="midnightblue" points="589,-57 579.66,-61.99 590.08,-63.92 589,-57"/>
</g>
<!-- Node8&#45;&gt;Node6 -->
<g id="edge9" class="edge">
<title>Node8&#45;&gt;Node6</title>
<path fill="none" stroke="midnightblue" d="M2169.54,-121.27C2184.28,-103.85 2202.11,-75.98 2187,-56 2174.37,-39.3 2124.43,-27.01 2083.84,-19.53"/>
<polygon fill="midnightblue" stroke="midnightblue" points="2166.76,-119.12 2162.7,-128.9 2171.98,-123.79 2166.76,-119.12"/>
</g>
<!-- Node9 -->
<g id="node9" class="node">
<title>Node9</title>
<g id="a_node9"><a xlink:href="_continuity_edge_solver_alg_8_c.html" target="_top" xlink:title=" ">
<polygon fill="white" stroke="black" points="2235.5,-62 2235.5,-81 2382.5,-81 2382.5,-62 2235.5,-62"/>
<text text-anchor="middle" x="2309" y="-69" font-family="Helvetica,sans-Serif" font-size="10.00">ContinuityEdgeSolverAlg.C</text>
</a>
</g>
</g>
<!-- Node8&#45;&gt;Node9 -->
<g id="edge8" class="edge">
<title>Node8&#45;&gt;Node9</title>
<path fill="none" stroke="midnightblue" d="M2183.93,-124.95C2214.62,-112.08 2261.54,-92.4 2288.33,-81.17"/>
<polygon fill="midnightblue" stroke="midnightblue" points="2182.45,-121.77 2174.58,-128.87 2185.16,-128.23 2182.45,-121.77"/>
</g>
<!-- Node10&#45;&gt;Node6 -->
<g id="edge12" class="edge">
<title>Node10&#45;&gt;Node6</title>
<path fill="none" stroke="midnightblue" d="M2697.73,-123.9C2680.28,-114.21 2656.76,-100.55 2637,-87 2618.74,-74.47 2618.6,-64.11 2598,-56 2510.14,-21.4 2238.06,-13.37 2104.1,-11.53"/>
<polygon fill="midnightblue" stroke="midnightblue" points="2696.28,-127.1 2706.73,-128.85 2699.66,-120.96 2696.28,-127.1"/>
</g>
<!-- Node11 -->
<g id="node11" class="node">
<title>Node11</title>
<g id="a_node11"><a xlink:href="_momentum_edge_solver_alg_8_c.html" target="_top" xlink:title=" ">
<polygon fill="white" stroke="black" points="2646.5,-62 2646.5,-81 2799.5,-81 2799.5,-62 2646.5,-62"/>
<text text-anchor="middle" x="2723" y="-69" font-family="Helvetica,sans-Serif" font-size="10.00">MomentumEdgeSolverAlg.C</text>
</a>
</g>
</g>
<!-- Node10&#45;&gt;Node11 -->
<g id="edge11" class="edge">
<title>Node10&#45;&gt;Node11</title>
<path fill="none" stroke="midnightblue" d="M2723,-118.54C2723,-106.17 2723,-90.62 2723,-81.13"/>
<polygon fill="midnightblue" stroke="midnightblue" points="2719.5,-118.73 2723,-128.73 2726.5,-118.73 2719.5,-118.73"/>
</g>
<!-- Node13 -->
<g id="node13" class="node">
<title>Node13</title>
<g id="a_node13"><a xlink:href="_scalar_edge_solver_alg_8_c.html" target="_top" xlink:title=" ">
<polygon fill="white" stroke="black" points="1155.5,-62 1155.5,-81 1282.5,-81 1282.5,-62 1155.5,-62"/>
<text text-anchor="middle" x="1219" y="-69" font-family="Helvetica,sans-Serif" font-size="10.00">ScalarEdgeSolverAlg.C</text>
</a>
</g>
</g>
<!-- Node12&#45;&gt;Node13 -->
<g id="edge14" class="edge">
<title>Node12&#45;&gt;Node13</title>
<path fill="none" stroke="midnightblue" d="M1224.67,-118.54C1223.14,-106.17 1221.23,-90.62 1220.06,-81.13"/>
<polygon fill="midnightblue" stroke="midnightblue" points="1221.23,-119.24 1225.92,-128.73 1228.17,-118.38 1221.23,-119.24"/>
</g>
<!-- Node14 -->
<g id="node14" class="node">
<title>Node14</title>
<g id="a_node14"><a xlink:href="_enthalpy_equation_system_8_c.html" target="_top" xlink:title=" ">
<polygon fill="white" stroke="black" points="1300.5,-62 1300.5,-81 1449.5,-81 1449.5,-62 1300.5,-62"/>
<text text-anchor="middle" x="1375" y="-69" font-family="Helvetica,sans-Serif" font-size="10.00">EnthalpyEquationSystem.C</text>
</a>
</g>
</g>
<!-- Node12&#45;&gt;Node14 -->
<g id="edge15" class="edge">
<title>Node12&#45;&gt;Node14</title>
<path fill="none" stroke="midnightblue" d="M1255.96,-124.78C1285.27,-111.91 1329.79,-92.35 1355.27,-81.17"/>
<polygon fill="midnightblue" stroke="midnightblue" points="1254.4,-121.64 1246.65,-128.87 1257.22,-128.05 1254.4,-121.64"/>
</g>
<!-- Node15 -->
<g id="node15" class="node">
<title>Node15</title>
<g id="a_node15"><a xlink:href="_gamma_equation_system_8_c.html" target="_top" xlink:title=" ">
<polygon fill="white" stroke="black" points="634.5,-62 634.5,-81 779.5,-81 779.5,-62 634.5,-62"/>
<text text-anchor="middle" x="707" y="-69" font-family="Helvetica,sans-Serif" font-size="10.00">GammaEquationSystem.C</text>
</a>
</g>
</g>
<!-- Node12&#45;&gt;Node15 -->
<g id="edge16" class="edge">
<title>Node12&#45;&gt;Node15</title>
<path fill="none" stroke="midnightblue" d="M1178.24,-126.99C1170.49,-125.52 1162.54,-124.13 1155,-123 992.9,-98.79 950.35,-109.46 788,-87 775.97,-85.34 763,-83.18 751.04,-81.04"/>
<polygon fill="midnightblue" stroke="midnightblue" points="1177.78,-130.46 1188.27,-128.95 1179.12,-123.6 1177.78,-130.46"/>
</g>
<!-- Node16 -->
<g id="node16" class="node">
<title>Node16</title>
<g id="a_node16"><a xlink:href="_specific_dissipation_rate_equation_system_8_c.html" target="_top" xlink:title=" ">
<polygon fill="white" stroke="black" points="963,-56.5 963,-86.5 1137,-86.5 1137,-56.5 963,-56.5"/>
<text text-anchor="start" x="971" y="-74.5" font-family="Helvetica,sans-Serif" font-size="10.00">SpecificDissipationRateEquation</text>
<text text-anchor="middle" x="1050" y="-63.5" font-family="Helvetica,sans-Serif" font-size="10.00">System.C</text>
</a>
</g>
</g>
<!-- Node12&#45;&gt;Node16 -->
<g id="edge17" class="edge">
<title>Node12&#45;&gt;Node16</title>
<path fill="none" stroke="midnightblue" d="M1193.91,-125.35C1163.9,-114.33 1119.69,-98.09 1088.2,-86.53"/>
<polygon fill="midnightblue" stroke="midnightblue" points="1192.9,-128.71 1203.5,-128.87 1195.32,-122.14 1192.9,-128.71"/>
</g>
<!-- Node17 -->
<g id="node17" class="node">
<title>Node17</title>
<g id="a_node17"><a xlink:href="_total_dissipation_rate_equation_system_8_c.html" target="_top" xlink:title=" ">
<polygon fill="white" stroke="black" points="1661,-56.5 1661,-86.5 1821,-86.5 1821,-56.5 1661,-56.5"/>
<text text-anchor="start" x="1669" y="-74.5" font-family="Helvetica,sans-Serif" font-size="10.00">TotalDissipationRateEquation</text>
<text text-anchor="middle" x="1741" y="-63.5" font-family="Helvetica,sans-Serif" font-size="10.00">System.C</text>
</a>
</g>
</g>
<!-- Node12&#45;&gt;Node17 -->
<g id="edge18" class="edge">
<title>Node12&#45;&gt;Node17</title>
<path fill="none" stroke="midnightblue" d="M1285.14,-127.32C1294.77,-125.78 1304.65,-124.28 1314,-123 1463.68,-102.57 1502.28,-107.15 1652,-87 1654.95,-86.6 1657.95,-86.19 1660.98,-85.75"/>
<polygon fill="midnightblue" stroke="midnightblue" points="1284.55,-123.87 1275.24,-128.94 1285.68,-130.78 1284.55,-123.87"/>
</g>
<!-- Node18 -->
<g id="node18" class="node">
<title>Node18</title>
<g id="a_node18"><a xlink:href="_turb_kinetic_energy_equation_system_8_c.html" target="_top" xlink:title=" ">
<polygon fill="white" stroke="black" points="797.5,-56.5 797.5,-86.5 944.5,-86.5 944.5,-56.5 797.5,-56.5"/>
<text text-anchor="start" x="805.5" y="-74.5" font-family="Helvetica,sans-Serif" font-size="10.00">TurbKineticEnergyEquation</text>
<text text-anchor="middle" x="871" y="-63.5" font-family="Helvetica,sans-Serif" font-size="10.00">System.C</text>
</a>
</g>
</g>
<!-- Node12&#45;&gt;Node18 -->
<g id="edge19" class="edge">
<title>Node12&#45;&gt;Node18</title>
<path fill="none" stroke="midnightblue" d="M1175.54,-126.99C1168.64,-125.62 1161.65,-124.26 1155,-123 1115.7,-115.55 1014.86,-97.73 944.58,-85.39"/>
<polygon fill="midnightblue" stroke="midnightblue" points="1175.04,-130.46 1185.53,-128.98 1176.41,-123.59 1175.04,-130.46"/>
</g>
<!-- Node20 -->
<g id="node20" class="node">
<title>Node20</title>
<g id="a_node20"><a xlink:href="_v_o_f_advection_edge_alg_8_c.html" target="_top" xlink:title=" ">
<polygon fill="white" stroke="black" points="3193,-62 3193,-81 3327,-81 3327,-62 3193,-62"/>
<text text-anchor="middle" x="3260" y="-69" font-family="Helvetica,sans-Serif" font-size="10.00">VOFAdvectionEdgeAlg.C</text>
</a>
</g>
</g>
<!-- Node19&#45;&gt;Node20 -->
<g id="edge21" class="edge">
<title>Node19&#45;&gt;Node20</title>
<path fill="none" stroke="midnightblue" d="M3118.74,-125.27C3153.27,-112.37 3206.79,-92.38 3237.08,-81.06"/>
<polygon fill="midnightblue" stroke="midnightblue" points="3117.25,-122.09 3109.11,-128.87 3119.7,-128.65 3117.25,-122.09"/>
</g>
<!-- Node21 -->
<g id="node21" class="node">
<title>Node21</title>
<g id="a_node21"><a xlink:href="_volume_of_fluid_equation_system_8_c.html" target="_top" xlink:title=" ">
<polygon fill="white" stroke="black" points="2997,-62 2997,-81 3175,-81 3175,-62 2997,-62"/>
<text text-anchor="middle" x="3086" y="-69" font-family="Helvetica,sans-Serif" font-size="10.00">VolumeOfFluidEquationSystem.C</text>
</a>
</g>
</g>
<!-- Node19&#45;&gt;Node21 -->
<g id="edge22" class="edge">
<title>Node19&#45;&gt;Node21</title>
<path fill="none" stroke="midnightblue" d="M3086,-118.54C3086,-106.17 3086,-90.62 3086,-81.13"/>
<polygon fill="midnightblue" stroke="midnightblue" points="3082.5,-118.73 3086,-128.73 3089.5,-118.73 3082.5,-118.73"/>
</g>
<!-- Node23 -->
<g id="node23" class="node">
<title>Node23</title>
<g id="a_node23"><a xlink:href="_wall_dist_edge_solver_alg_8_c.html" target="_top" xlink:title=" ">
<polygon fill="white" stroke="black" points="2041.5,-62 2041.5,-81 2178.5,-81 2178.5,-62 2041.5,-62"/>
<text text-anchor="middle" x="2110" y="-69" font-family="Helvetica,sans-Serif" font-size="10.00">WallDistEdgeSolverAlg.C</text>
</a>
</g>
</g>
<!-- Node22&#45;&gt;Node23 -->
<g id="edge24" class="edge">
<title>Node22&#45;&gt;Node23</title>
<path fill="none" stroke="midnightblue" d="M2018.47,-123.79C2041.46,-110.9 2075.16,-92.02 2094.6,-81.13"/>
<polygon fill="midnightblue" stroke="midnightblue" points="2016.66,-120.79 2009.64,-128.73 2020.08,-126.9 2016.66,-120.79"/>
</g>
<!-- Node24 -->
<g id="node24" class="node">
<title>Node24</title>
<g id="a_node24"><a xlink:href="_wall_dist_equation_system_8_c.html" target="_top" xlink:title=" ">
<polygon fill="white" stroke="black" points="1877,-62 1877,-81 2023,-81 2023,-62 1877,-62"/>
<text text-anchor="middle" x="1950" y="-69" font-family="Helvetica,sans-Serif" font-size="10.00">WallDistEquationSystem.C</text>
</a>
</g>
</g>
<!-- Node22&#45;&gt;Node24 -->
<g id="edge25" class="edge">
<title>Node22&#45;&gt;Node24</title>
<path fill="none" stroke="midnightblue" d="M1982.43,-120.4C1973.88,-107.77 1962.59,-91.1 1955.84,-81.13"/>
<polygon fill="midnightblue" stroke="midnightblue" points="1979.56,-122.41 1988.07,-128.73 1985.36,-118.49 1979.56,-122.41"/>
</g>
<!-- Node25&#45;&gt;Node21 -->
<g id="edge28" class="edge">
<title>Node25&#45;&gt;Node21</title>
<path fill="none" stroke="midnightblue" d="M2602.87,-127.58C2614.57,-125.97 2626.63,-124.38 2638,-123 2793.23,-104.1 2832.84,-106.45 2988,-87 3002.08,-85.24 3017.26,-83.1 3031.37,-81.02"/>
<polygon fill="midnightblue" stroke="midnightblue" points="2602.12,-124.15 2592.69,-128.99 2603.08,-131.08 2602.12,-124.15"/>
</g>
<!-- Node26 -->
<g id="node26" class="node">
<title>Node26</title>
<g id="a_node26"><a xlink:href="_zalesak_disk_mass_flow_rate_kernel_8_c.html" target="_top" xlink:title=" ">
<polygon fill="white" stroke="black" points="2400.5,-62 2400.5,-81 2589.5,-81 2589.5,-62 2400.5,-62"/>
<text text-anchor="middle" x="2495" y="-69" font-family="Helvetica,sans-Serif" font-size="10.00">ZalesakDiskMassFlowRateKernel.C</text>
</a>
</g>
</g>
<!-- Node25&#45;&gt;Node26 -->
<g id="edge27" class="edge">
<title>Node25&#45;&gt;Node26</title>
<path fill="none" stroke="midnightblue" d="M2524.25,-120.03C2516.51,-107.45 2506.39,-91.01 2500.31,-81.13"/>
<polygon fill="midnightblue" stroke="midnightblue" points="2521.38,-122.05 2529.61,-128.73 2527.35,-118.38 2521.38,-122.05"/>
</g>
<!-- Node27&#45;&gt;Node21 -->
<g id="edge31" class="edge">
<title>Node27&#45;&gt;Node21</title>
<path fill="none" stroke="midnightblue" d="M2948.3,-120.11C2984.88,-107.46 3032.8,-90.89 3061.4,-81.01"/>
<polygon fill="midnightblue" stroke="midnightblue" points="2947.1,-116.82 2938.79,-123.4 2949.39,-123.44 2947.1,-116.82"/>
</g>
<!-- Node28 -->
<g id="node28" class="node">
<title>Node28</title>
<g id="a_node28"><a xlink:href="_zalesak_sphere_mass_flow_rate_kernel_8_c.html" target="_top" xlink:title=" ">
<polygon fill="white" stroke="black" points="2817.5,-56.5 2817.5,-86.5 2978.5,-86.5 2978.5,-56.5 2817.5,-56.5"/>
<text text-anchor="start" x="2825.5" y="-74.5" font-family="Helvetica,sans-Serif" font-size="10.00">ZalesakSphereMassFlowRate</text>
<text text-anchor="middle" x="2898" y="-63.5" font-family="Helvetica,sans-Serif" font-size="10.00">Kernel.C</text>
</a>
</g>
</g>
<!-- Node27&#45;&gt;Node28 -->
<g id="edge30" class="edge">
<title>Node27&#45;&gt;Node28</title>
<path fill="none" stroke="midnightblue" d="M2898,-113.11C2898,-104.15 2898,-94.32 2898,-86.58"/>
<polygon fill="midnightblue" stroke="midnightblue" points="2894.5,-113.4 2898,-123.4 2901.5,-113.4 2894.5,-113.4"/>
</g>
<!-- Node30&#45;&gt;Node15 -->
<g id="edge44" class="edge">
<title>Node30&#45;&gt;Node15</title>
<path fill="none" stroke="midnightblue" d="M878.17,-184.69C837.82,-158.24 752.72,-102.47 720.1,-81.09"/>
<polygon fill="midnightblue" stroke="midnightblue" points="876.45,-187.75 886.73,-190.31 880.29,-181.9 876.45,-187.75"/>
</g>
<!-- Node30&#45;&gt;Node16 -->
<g id="edge45" class="edge">
<title>Node30&#45;&gt;Node16</title>
<path fill="none" stroke="midnightblue" d="M905.01,-180.51C910.43,-163.61 920.56,-138.91 937,-123 954.29,-106.26 978.09,-94.51 999.38,-86.57"/>
<polygon fill="midnightblue" stroke="midnightblue" points="901.59,-179.73 902.11,-190.32 908.3,-181.72 901.59,-179.73"/>
</g>
<!-- Node30&#45;&gt;Node17 -->
<g id="edge46" class="edge">
<title>Node30&#45;&gt;Node17</title>
<path fill="none" stroke="midnightblue" d="M998.53,-189.88C1187.55,-173.65 1238.28,-185.03 1422,-154 1521.06,-137.27 1634.45,-105.1 1695.81,-86.57"/>
<polygon fill="midnightblue" stroke="midnightblue" points="998.2,-186.4 988.54,-190.76 998.81,-193.37 998.2,-186.4"/>
</g>
<!-- Node30&#45;&gt;Node18 -->
<g id="edge47" class="edge">
<title>Node30&#45;&gt;Node18</title>
<path fill="none" stroke="midnightblue" d="M895.75,-180.45C889.92,-155.03 879.58,-109.91 874.3,-86.89"/>
<polygon fill="midnightblue" stroke="midnightblue" points="892.36,-181.34 898.01,-190.31 899.18,-179.78 892.36,-181.34"/>
</g>
<!-- Node31 -->
<g id="node31" class="node">
<title>Node31</title>
<g id="a_node31"><a xlink:href="_kernel_builder_8h.html" target="_top" xlink:title=" ">
<polygon fill="white" stroke="black" points="1323,-129 1323,-148 1413,-148 1413,-129 1323,-129"/>
<text text-anchor="middle" x="1368" y="-136" font-family="Helvetica,sans-Serif" font-size="10.00">KernelBuilder.h</text>
</a>
</g>
</g>
<!-- Node30&#45;&gt;Node31 -->
<g id="edge34" class="edge">
<title>Node30&#45;&gt;Node31</title>
<path fill="none" stroke="midnightblue" d="M994.17,-189.42C1093.17,-179.17 1242.28,-163.14 1299,-154 1309.27,-152.35 1320.33,-150.19 1330.52,-148.05"/>
<polygon fill="midnightblue" stroke="midnightblue" points="993.74,-185.95 984.16,-190.46 994.46,-192.91 993.74,-185.95"/>
</g>
<!-- Node33 -->
<g id="node33" class="node">
<title>Node33</title>
<g id="a_node33"><a xlink:href="_assemble_elem_solver_algorithm_8_c.html" target="_top" xlink:title=" ">
<polygon fill="white" stroke="black" points="431,-129 431,-148 609,-148 609,-129 431,-129"/>
<text text-anchor="middle" x="520" y="-136" font-family="Helvetica,sans-Serif" font-size="10.00">AssembleElemSolverAlgorithm.C</text>
</a>
</g>
</g>
<!-- Node30&#45;&gt;Node33 -->
<g id="edge43" class="edge">
<title>Node30&#45;&gt;Node33</title>
<path fill="none" stroke="midnightblue" d="M835.5,-188.9C762.04,-177.4 643.29,-158.8 574.34,-148.01"/>
<polygon fill="midnightblue" stroke="midnightblue" points="835.13,-192.39 845.56,-190.48 836.22,-185.47 835.13,-192.39"/>
</g>
<!-- Node31&#45;&gt;Node6 -->
<g id="edge37" class="edge">
<title>Node31&#45;&gt;Node6</title>
<path fill="none" stroke="midnightblue" d="M1423.4,-135.37C1529.62,-130.65 1757.79,-117.24 1830,-87 1850.1,-78.58 1848.66,-66.05 1868,-56 1902.69,-37.97 1945.49,-26.42 1978.08,-19.54"/>
<polygon fill="midnightblue" stroke="midnightblue" points="1423.05,-131.88 1413.21,-135.81 1423.35,-138.88 1423.05,-131.88"/>
</g>
<!-- Node31&#45;&gt;Node14 -->
<g id="edge35" class="edge">
<title>Node31&#45;&gt;Node14</title>
<path fill="none" stroke="midnightblue" d="M1370.04,-118.54C1371.37,-106.17 1373.05,-90.62 1374.07,-81.13"/>
<polygon fill="midnightblue" stroke="midnightblue" points="1366.53,-118.42 1368.94,-128.73 1373.49,-119.17 1366.53,-118.42"/>
</g>
<!-- Node31&#45;&gt;Node15 -->
<g id="edge36" class="edge">
<title>Node31&#45;&gt;Node15</title>
<path fill="none" stroke="midnightblue" d="M1322.09,-126.94C1314.41,-125.44 1306.5,-124.05 1299,-123 1073.51,-91.52 1013.93,-115.1 788,-87 775.52,-85.45 762.05,-83.25 749.75,-81.03"/>
<polygon fill="midnightblue" stroke="midnightblue" points="1321.5,-130.39 1332,-128.96 1322.9,-123.53 1321.5,-130.39"/>
</g>
<!-- Node31&#45;&gt;Node16 -->
<g id="edge39" class="edge">
<title>Node31&#45;&gt;Node16</title>
<path fill="none" stroke="midnightblue" d="M1317.71,-126.89C1311.41,-125.57 1305.06,-124.25 1299,-123 1238.52,-110.51 1169.72,-96.58 1119.79,-86.52"/>
<polygon fill="midnightblue" stroke="midnightblue" points="1317.01,-130.32 1327.51,-128.94 1318.44,-123.47 1317.01,-130.32"/>
</g>
<!-- Node31&#45;&gt;Node17 -->
<g id="edge40" class="edge">
<title>Node31&#45;&gt;Node17</title>
<path fill="none" stroke="midnightblue" d="M1423.47,-127.83C1486.27,-116.89 1589.12,-98.97 1660.69,-86.49"/>
<polygon fill="midnightblue" stroke="midnightblue" points="1422.61,-124.43 1413.36,-129.59 1423.82,-131.33 1422.61,-124.43"/>
</g>
<!-- Node31&#45;&gt;Node18 -->
<g id="edge41" class="edge">
<title>Node31&#45;&gt;Node18</title>
<path fill="none" stroke="midnightblue" d="M1321.03,-126.95C1313.68,-125.5 1306.15,-124.12 1299,-123 1146.7,-99.12 1106.69,-108.28 954,-87 950.96,-86.58 947.86,-86.12 944.72,-85.65"/>
<polygon fill="midnightblue" stroke="midnightblue" points="1320.39,-130.39 1330.89,-128.97 1321.79,-123.54 1320.39,-130.39"/>
</g>
<!-- Node31&#45;&gt;Node24 -->
<g id="edge42" class="edge">
<title>Node31&#45;&gt;Node24</title>
<path fill="none" stroke="midnightblue" d="M1423.31,-133.01C1514.94,-125.32 1703.89,-108.35 1863,-87 1875.75,-85.29 1889.5,-83.14 1902.22,-81.02"/>
<polygon fill="midnightblue" stroke="midnightblue" points="1422.83,-129.54 1413.16,-133.86 1423.41,-136.51 1422.83,-129.54"/>
</g>
<!-- Node32 -->
<g id="node32" class="node">
<title>Node32</title>
<g id="a_node32"><a xlink:href="_projected_nodal_gradient_equation_system_8_c.html" target="_top" xlink:title=" ">
<polygon fill="white" stroke="black" points="1467,-56.5 1467,-86.5 1643,-86.5 1643,-56.5 1467,-56.5"/>
<text text-anchor="start" x="1475" y="-74.5" font-family="Helvetica,sans-Serif" font-size="10.00">ProjectedNodalGradientEquation</text>
<text text-anchor="middle" x="1555" y="-63.5" font-family="Helvetica,sans-Serif" font-size="10.00">System.C</text>
</a>
</g>
</g>
<!-- Node31&#45;&gt;Node32 -->
<g id="edge38" class="edge">
<title>Node31&#45;&gt;Node32</title>
<path fill="none" stroke="midnightblue" d="M1402.55,-125.49C1434.25,-114.47 1481.23,-98.14 1514.64,-86.53"/>
<polygon fill="midnightblue" stroke="midnightblue" points="1401.13,-122.28 1392.83,-128.87 1403.43,-128.89 1401.13,-122.28"/>
</g>
<!-- Node34&#45;&gt;Node31 -->
<g id="edge49" class="edge">
<title>Node34&#45;&gt;Node31</title>
<path fill="none" stroke="midnightblue" d="M1153.3,-188.26C1204.12,-176.72 1283.87,-158.61 1330.53,-148.01"/>
<polygon fill="midnightblue" stroke="midnightblue" points="1152.51,-184.85 1143.54,-190.48 1154.07,-191.67 1152.51,-184.85"/>
</g>
<!-- Node35 -->
<g id="node35" class="node">
<title>Node35</title>
<g id="a_node35"><a xlink:href="_assemble_face_elem_solver_algorithm_8_c.html" target="_top" xlink:title=" ">
<polygon fill="white" stroke="black" points="946,-129 946,-148 1146,-148 1146,-129 946,-129"/>
<text text-anchor="middle" x="1046" y="-136" font-family="Helvetica,sans-Serif" font-size="10.00">AssembleFaceElemSolverAlgorithm.C</text>
</a>
</g>
</g>
<!-- Node34&#45;&gt;Node35 -->
<g id="edge50" class="edge">
<title>Node34&#45;&gt;Node35</title>
<path fill="none" stroke="midnightblue" d="M1090.19,-183.32C1078.79,-172.02 1063.84,-157.19 1054.58,-148.01"/>
<polygon fill="midnightblue" stroke="midnightblue" points="1087.84,-185.92 1097.4,-190.48 1092.77,-180.95 1087.84,-185.92"/>
</g>
<!-- Node36&#45;&gt;Node5 -->
<g id="edge55" class="edge">
<title>Node36&#45;&gt;Node5</title>
<path fill="none" stroke="midnightblue" d="M295.16,-120.99C288.24,-111.65 280.59,-99.39 277,-87 269.97,-62.78 282.66,-33.63 290.12,-19.51"/>
<polygon fill="midnightblue" stroke="midnightblue" points="292.48,-123.25 301.41,-128.96 297.99,-118.93 292.48,-123.25"/>
</g>
<!-- Node36&#45;&gt;Node7 -->
<g id="edge56" class="edge">
<title>Node36&#45;&gt;Node7</title>
<path fill="none" stroke="midnightblue" d="M321.87,-120.77C331.62,-108.1 344.61,-91.2 352.36,-81.13"/>
<polygon fill="midnightblue" stroke="midnightblue" points="319.07,-118.67 315.74,-128.73 324.61,-122.94 319.07,-118.67"/>
</g>
<!-- Node37 -->
<g id="node37" class="node">
<title>Node37</title>
<g id="a_node37"><a xlink:href="_momentum_s_s_t_a_m_s_diff_edge_kernel_8h.html" target="_top" xlink:title=" ">
<polygon fill="white" stroke="black" points="36.5,-62 36.5,-81 229.5,-81 229.5,-62 36.5,-62"/>
<text text-anchor="middle" x="133" y="-69" font-family="Helvetica,sans-Serif" font-size="10.00">MomentumSSTAMSDiffEdgeKernel.h</text>
</a>
</g>
</g>
<!-- Node36&#45;&gt;Node37 -->
<g id="edge52" class="edge">
<title>Node36&#45;&gt;Node37</title>
<path fill="none" stroke="midnightblue" d="M275.89,-125.27C240.96,-112.37 186.82,-92.38 156.19,-81.06"/>
<polygon fill="midnightblue" stroke="midnightblue" points="275.04,-128.69 285.63,-128.87 277.46,-122.12 275.04,-128.69"/>
</g>
<!-- Node37&#45;&gt;Node5 -->
<g id="edge53" class="edge">
<title>Node37&#45;&gt;Node5</title>
<path fill="none" stroke="midnightblue" d="M165.85,-58.43C197.34,-46.87 244.06,-29.71 271.83,-19.51"/>
<polygon fill="midnightblue" stroke="midnightblue" points="164.39,-55.24 156.21,-61.98 166.8,-61.81 164.39,-55.24"/>
</g>
<!-- Node38 -->
<g id="node38" class="node">
<title>Node38</title>
<g id="a_node38"><a xlink:href="_momentum_s_s_t_a_m_s_diff_edge_kernel_8_c.html" target="_top" xlink:title=" ">
<polygon fill="white" stroke="black" points="0,-0.5 0,-19.5 194,-19.5 194,-0.5 0,-0.5"/>
<text text-anchor="middle" x="97" y="-7.5" font-family="Helvetica,sans-Serif" font-size="10.00">MomentumSSTAMSDiffEdgeKernel.C</text>
</a>
</g>
</g>
<!-- Node37&#45;&gt;Node38 -->
<g id="edge54" class="edge">
<title>Node37&#45;&gt;Node38</title>
<path fill="none" stroke="midnightblue" d="M122.52,-53.17C115.82,-42.11 107.44,-28.25 102.15,-19.51"/>
<polygon fill="midnightblue" stroke="midnightblue" points="119.67,-55.23 127.84,-61.98 125.66,-51.61 119.67,-55.23"/>
</g>
</g>
</svg>
        <g id="navigator" transform="translate(0 0)" fill="#404254">
                <rect fill="#f2f5e9" fill-opacity="0.5" stroke="#606060" stroke-width=".5" x="0" y="0" width="60" height="60"/>
                <use id="zoomplus" xlink:href="#zoomPlus" x="17" y="9" onmousedown="handleZoom(evt,'in')"/>
                <use id="zoomminus" xlink:href="#zoomMin" x="42" y="9" onmousedown="handleZoom(evt,'out')"/>
                <use id="reset" xlink:href="#resetDef" x="30" y="36" onmousedown="handleReset()"/>
                <g id="arrowUp" xlink:href="#dirArrow" transform="translate(30 24)" onmousedown="handlePan(0,-1)">
                  <use xlink:href="#rim" fill="#404040">
                        <set attributeName="fill" to="#808080" begin="arrowUp.mouseover" end="arrowUp.mouseout"/>
                  </use>
                  <path fill="none" stroke="white" stroke-width="1.5" d="M0,-3.0v7 M-2.5,-0.5L0,-3.0L2.5,-0.5"/>
                </g>
                <g id="arrowRight" xlink:href="#dirArrow" transform="rotate(90) translate(36 -43)" onmousedown="handlePan(1,0)">
                  <use xlink:href="#rim" fill="#404040">
                        <set attributeName="fill" to="#808080" begin="arrowRight.mouseover" end="arrowRight.mouseout"/>
                  </use>
                  <path fill="none" stroke="white" stroke-width="1.5" d="M0,-3.0v7 M-2.5,-0.5L0,-3.0L2.5,-0.5"/>
                </g>
                <g id="arrowDown" xlink:href="#dirArrow" transform="rotate(180) translate(-30 -48)" onmousedown="handlePan(0,1)">
                  <use xlink:href="#rim" fill="#404040">
                        <set attributeName="fill" to="#808080" begin="arrowDown.mouseover" end="arrowDown.mouseout"/>
                  </use>
                  <path fill="none" stroke="white" stroke-width="1.5" d="M0,-3.0v7 M-2.5,-0.5L0,-3.0L2.5,-0.5"/>
                </g>
                <g id="arrowLeft" xlink:href="#dirArrow" transform="rotate(270) translate(-36 17)" onmousedown="handlePan(-1,0)">
                  <use xlink:href="#rim" fill="#404040">
                        <set attributeName="fill" to="#808080" begin="arrowLeft.mouseover" end="arrowLeft.mouseout"/>
                  </use>
                  <path fill="none" stroke="white" stroke-width="1.5" d="M0,-3.0v7 M-2.5,-0.5L0,-3.0L2.5,-0.5"/>
                </g>
        </g>
        <svg viewBox="0 0 15 15" width="100%" height="30px" preserveAspectRatio="xMaxYMin meet">
         <g id="arrow_out" transform="scale(0.3 0.3)">
          <a xlink:href="_shared_mem_data_8h__dep__incl_org.svg" target="_base">
           <rect id="button" ry="5" rx="5" y="6" x="6" height="38" width="38"
                fill="#f2f5e9" fill-opacity="0.5" stroke="#606060" stroke-width="1.0"/>
           <path id="arrow"
             d="M 11.500037,31.436501 C 11.940474,20.09759 22.043105,11.32322 32.158766,21.979434 L 37.068811,17.246167 C 37.068811,17.246167 37.088388,32 37.088388,32 L 22.160133,31.978069 C 22.160133,31.978069 26.997745,27.140456 26.997745,27.140456 C 18.528582,18.264221 13.291696,25.230495 11.500037,31.436501 z"
             style="fill:#404040;"/>
          </a>
         </g>
        </svg>
</svg>
