<?xml version="1.0" encoding="UTF-8" standalone="no"?>
<!DOCTYPE svg PUBLIC "-//W3C//DTD SVG 1.1//EN"
 "http://www.w3.org/Graphics/SVG/1.1/DTD/svg11.dtd">
<!-- Generated by graphviz version 2.43.0 (0)
 -->
<!-- Title: SimdInterface.h Pages: 1 -->
<svg width="315pt" height="82pt"
 viewBox="0.00 0.00 314.50 82.00" xmlns="http://www.w3.org/2000/svg" xmlns:xlink="http://www.w3.org/1999/xlink">
<g id="graph0" class="graph" transform="scale(1 1) rotate(0) translate(4 78)">
<title>SimdInterface.h</title>
<!-- Node1 -->
<g id="Node000001" class="node">
<title>Node1</title>
<g id="a_Node000001"><a xlink:title="STK SIMD Interface.">
<polygon fill="#999999" stroke="#666666" points="232,-74 138,-74 138,-55 232,-55 232,-74"/>
<text text-anchor="middle" x="185" y="-62" font-family="Helvetica,sans-Serif" font-size="10.00">SimdInterface.h</text>
</a>
</g>
</g>
<!-- Node2 -->
<g id="Node000002" class="node">
<title>Node2</title>
<g id="a_Node000002"><a xlink:title=" ">
<polygon fill="#e0e0e0" stroke="#999999" points="110,-19 0,-19 0,0 110,0 110,-19"/>
<text text-anchor="middle" x="55" y="-7" font-family="Helvetica,sans-Serif" font-size="10.00">stk_simd/Simd.hpp</text>
</a>
</g>
</g>
<!-- Node1&#45;&gt;Node2 -->
<g id="edge1_Node000001_Node000002" class="edge">
<title>Node1&#45;&gt;Node2</title>
<g id="a_edge1_Node000001_Node000002"><a xlink:title=" ">
<path fill="none" stroke="#63b8ff" d="M164.11,-54.98C142.92,-46.34 109.87,-32.87 85.7,-23.02"/>
<polygon fill="#63b8ff" stroke="#63b8ff" points="86.85,-19.7 76.27,-19.17 84.21,-26.19 86.85,-19.7"/>
</a>
</g>
</g>
<!-- Node3 -->
<g id="Node000003" class="node">
<title>Node3</title>
<g id="a_Node000003"><a xlink:title=" ">
<polygon fill="#e0e0e0" stroke="#999999" points="241.5,-19 128.5,-19 128.5,0 241.5,0 241.5,-19"/>
<text text-anchor="middle" x="185" y="-7" font-family="Helvetica,sans-Serif" font-size="10.00">Kokkos_Macros.hpp</text>
</a>
</g>
</g>
<!-- Node1&#45;&gt;Node3 -->
<g id="edge2_Node000001_Node000003" class="edge">
<title>Node1&#45;&gt;Node3</title>
<g id="a_edge2_Node000001_Node000003"><a xlink:title=" ">
<path fill="none" stroke="#63b8ff" d="M185,-54.75C185,-47.8 185,-37.85 185,-29.13"/>
<polygon fill="#63b8ff" stroke="#63b8ff" points="188.5,-29.09 185,-19.09 181.5,-29.09 188.5,-29.09"/>
</a>
</g>
</g>
<!-- Node4 -->
<g id="Node000004" class="node">
<title>Node4</title>
<g id="a_Node000004"><a xlink:title=" ">
<polygon fill="#e0e0e0" stroke="#999999" points="306.5,-19 259.5,-19 259.5,0 306.5,0 306.5,-19"/>
<text text-anchor="middle" x="283" y="-7" font-family="Helvetica,sans-Serif" font-size="10.00">vector</text>
</a>
</g>
</g>
<!-- Node1&#45;&gt;Node4 -->
<g id="edge3_Node000001_Node000004" class="edge">
<title>Node1&#45;&gt;Node4</title>
<g id="a_edge3_Node000001_Node000004"><a xlink:title=" ">
<path fill="none" stroke="#63b8ff" d="M200.75,-54.98C216.23,-46.61 240.09,-33.7 258.14,-23.95"/>
<polygon fill="#63b8ff" stroke="#63b8ff" points="259.84,-27.01 266.97,-19.17 256.51,-20.85 259.84,-27.01"/>
</a>
</g>
</g>
</g>
</svg>
