<?xml version="1.0" encoding="UTF-8" standalone="no"?>
<!DOCTYPE svg PUBLIC "-//W3C//DTD SVG 1.1//EN"
 "http://www.w3.org/Graphics/SVG/1.1/DTD/svg11.dtd">
<!-- Generated by graphviz version 2.43.0 (0)
 -->
<!-- Title: SloshingTankVOFAuxFunction.C Pages: 1 -->
<svg width="511pt" height="148pt"
 viewBox="0.00 0.00 510.50 148.00" xmlns="http://www.w3.org/2000/svg" xmlns:xlink="http://www.w3.org/1999/xlink">
<g id="graph0" class="graph" transform="scale(1 1) rotate(0) translate(4 144)">
<title>SloshingTankVOFAuxFunction.C</title>
<!-- Node1 -->
<g id="Node000001" class="node">
<title>Node1</title>
<g id="a_Node000001"><a xlink:title=" ">
<polygon fill="#999999" stroke="#666666" points="365,-140 196,-140 196,-121 365,-121 365,-140"/>
<text text-anchor="middle" x="280.5" y="-128" font-family="Helvetica,sans-Serif" font-size="10.00">SloshingTankVOFAuxFunction.C</text>
</a>
</g>
</g>
<!-- Node2 -->
<g id="Node000002" class="node">
<title>Node2</title>
<g id="a_Node000002"><a xlink:href="_sloshing_tank_v_o_f_aux_function_8h.html" target="_top" xlink:title=" ">
<polygon fill="white" stroke="#666666" points="155,-85 0,-85 0,-55 155,-55 155,-85"/>
<text text-anchor="start" x="8" y="-73" font-family="Helvetica,sans-Serif" font-size="10.00">user_functions/SloshingTank</text>
<text text-anchor="middle" x="77.5" y="-62" font-family="Helvetica,sans-Serif" font-size="10.00">VOFAuxFunction.h</text>
</a>
</g>
</g>
<!-- Node1&#45;&gt;Node2 -->
<g id="edge1_Node000001_Node000002" class="edge">
<title>Node1&#45;&gt;Node2</title>
<g id="a_edge1_Node000001_Node000002"><a xlink:title=" ">
<path fill="none" stroke="#63b8ff" d="M250.98,-120.99C221,-112.35 173.76,-98.74 136.14,-87.9"/>
<polygon fill="#63b8ff" stroke="#63b8ff" points="136.88,-84.47 126.3,-85.06 134.94,-91.2 136.88,-84.47"/>
</a>
</g>
</g>
<!-- Node4 -->
<g id="Node000004" class="node">
<title>Node4</title>
<g id="a_Node000004"><a xlink:title=" ">
<polygon fill="#e0e0e0" stroke="#999999" points="196,-19 149,-19 149,0 196,0 196,-19"/>
<text text-anchor="middle" x="172.5" y="-7" font-family="Helvetica,sans-Serif" font-size="10.00">vector</text>
</a>
</g>
</g>
<!-- Node1&#45;&gt;Node4 -->
<g id="edge6_Node000001_Node000004" class="edge">
<title>Node1&#45;&gt;Node4</title>
<g id="a_edge6_Node000001_Node000004"><a xlink:title=" ">
<path fill="none" stroke="#63b8ff" d="M256.89,-120.96C239.78,-113.71 217.16,-101.8 202.5,-85 188.49,-68.95 180.52,-45.53 176.37,-29.25"/>
<polygon fill="#63b8ff" stroke="#63b8ff" points="179.73,-28.26 174.08,-19.3 172.91,-29.83 179.73,-28.26"/>
</a>
</g>
</g>
<!-- Node5 -->
<g id="Node000005" class="node">
<title>Node5</title>
<g id="a_Node000005"><a xlink:title=" ">
<polygon fill="#e0e0e0" stroke="#999999" points="275.5,-79.5 211.5,-79.5 211.5,-60.5 275.5,-60.5 275.5,-79.5"/>
<text text-anchor="middle" x="243.5" y="-67.5" font-family="Helvetica,sans-Serif" font-size="10.00">algorithm</text>
</a>
</g>
</g>
<!-- Node1&#45;&gt;Node5 -->
<g id="edge4_Node000001_Node000005" class="edge">
<title>Node1&#45;&gt;Node5</title>
<g id="a_edge4_Node000001_Node000005"><a xlink:title=" ">
<path fill="none" stroke="#63b8ff" d="M275.04,-120.87C269.63,-112.31 261.19,-98.97 254.4,-88.24"/>
<polygon fill="#63b8ff" stroke="#63b8ff" points="257.29,-86.25 248.98,-79.67 251.37,-89.99 257.29,-86.25"/>
</a>
</g>
</g>
<!-- Node6 -->
<g id="Node000006" class="node">
<title>Node6</title>
<g id="a_Node000006"><a xlink:title=" ">
<polygon fill="#e0e0e0" stroke="#999999" points="341,-79.5 294,-79.5 294,-60.5 341,-60.5 341,-79.5"/>
<text text-anchor="middle" x="317.5" y="-67.5" font-family="Helvetica,sans-Serif" font-size="10.00">cmath</text>
</a>
</g>
</g>
<!-- Node1&#45;&gt;Node6 -->
<g id="edge5_Node000001_Node000006" class="edge">
<title>Node1&#45;&gt;Node6</title>
<g id="a_edge5_Node000001_Node000006"><a xlink:title=" ">
<path fill="none" stroke="#63b8ff" d="M285.96,-120.87C291.37,-112.31 299.81,-98.97 306.6,-88.24"/>
<polygon fill="#63b8ff" stroke="#63b8ff" points="309.63,-89.99 312.02,-79.67 303.71,-86.25 309.63,-89.99"/>
</a>
</g>
</g>
<!-- Node7 -->
<g id="Node000007" class="node">
<title>Node7</title>
<g id="a_Node000007"><a xlink:title=" ">
<polygon fill="#e0e0e0" stroke="#999999" points="424,-79.5 359,-79.5 359,-60.5 424,-60.5 424,-79.5"/>
<text text-anchor="middle" x="391.5" y="-67.5" font-family="Helvetica,sans-Serif" font-size="10.00">stdexcept</text>
</a>
</g>
</g>
<!-- Node1&#45;&gt;Node7 -->
<g id="edge7_Node000001_Node000007" class="edge">
<title>Node1&#45;&gt;Node7</title>
<g id="a_edge7_Node000001_Node000007"><a xlink:title=" ">
<path fill="none" stroke="#63b8ff" d="M296.88,-120.87C315.08,-111.28 344.7,-95.67 365.95,-84.47"/>
<polygon fill="#63b8ff" stroke="#63b8ff" points="367.84,-87.43 375.05,-79.67 364.58,-81.23 367.84,-87.43"/>
</a>
</g>
</g>
<!-- Node8 -->
<g id="Node000008" class="node">
<title>Node8</title>
<g id="a_Node000008"><a xlink:title=" ">
<polygon fill="#e0e0e0" stroke="#999999" points="502.5,-79.5 442.5,-79.5 442.5,-60.5 502.5,-60.5 502.5,-79.5"/>
<text text-anchor="middle" x="472.5" y="-67.5" font-family="Helvetica,sans-Serif" font-size="10.00">iostream</text>
</a>
</g>
</g>
<!-- Node1&#45;&gt;Node8 -->
<g id="edge8_Node000001_Node000008" class="edge">
<title>Node1&#45;&gt;Node8</title>
<g id="a_edge8_Node000001_Node000008"><a xlink:title=" ">
<path fill="none" stroke="#63b8ff" d="M312.03,-120.94C343.08,-112.37 391.8,-98.54 433.5,-85 435.61,-84.31 437.78,-83.59 439.97,-82.85"/>
<polygon fill="#63b8ff" stroke="#63b8ff" points="441.19,-86.13 449.48,-79.53 438.89,-79.52 441.19,-86.13"/>
</a>
</g>
</g>
<!-- Node3 -->
<g id="Node000003" class="node">
<title>Node3</title>
<g id="a_Node000003"><a xlink:href="_aux_function_8h.html" target="_top" xlink:title=" ">
<polygon fill="white" stroke="#666666" points="120.5,-19 34.5,-19 34.5,0 120.5,0 120.5,-19"/>
<text text-anchor="middle" x="77.5" y="-7" font-family="Helvetica,sans-Serif" font-size="10.00">AuxFunction.h</text>
</a>
</g>
</g>
<!-- Node2&#45;&gt;Node3 -->
<g id="edge2_Node000002_Node000003" class="edge">
<title>Node2&#45;&gt;Node3</title>
<g id="a_edge2_Node000002_Node000003"><a xlink:title=" ">
<path fill="none" stroke="#63b8ff" d="M77.5,-54.84C77.5,-47.21 77.5,-37.7 77.5,-29.45"/>
<polygon fill="#63b8ff" stroke="#63b8ff" points="81,-29.27 77.5,-19.27 74,-29.27 81,-29.27"/>
</a>
</g>
</g>
<!-- Node2&#45;&gt;Node4 -->
<g id="edge3_Node000002_Node000004" class="edge">
<title>Node2&#45;&gt;Node4</title>
<g id="a_edge3_Node000002_Node000004"><a xlink:title=" ">
<path fill="none" stroke="#63b8ff" d="M100.5,-54.84C115.5,-45.6 135,-33.59 149.93,-24.4"/>
<polygon fill="#63b8ff" stroke="#63b8ff" points="151.86,-27.32 158.54,-19.09 148.19,-21.36 151.86,-27.32"/>
</a>
</g>
</g>
</g>
</svg>
