<?xml version="1.0" encoding="UTF-8" standalone="no"?>
<!DOCTYPE svg PUBLIC "-//W3C//DTD SVG 1.1//EN"
 "http://www.w3.org/Graphics/SVG/1.1/DTD/svg11.dtd">
<!-- Generated by graphviz version 2.43.0 (0)
 -->
<!-- Title: SolverAlgorithmDriver.h Pages: 1 -->
<svg width="1857pt" height="93pt"
 viewBox="0.00 0.00 1856.50 93.00" xmlns="http://www.w3.org/2000/svg" xmlns:xlink="http://www.w3.org/1999/xlink">
<g id="graph0" class="graph" transform="scale(1 1) rotate(0) translate(4 89)">
<title>SolverAlgorithmDriver.h</title>
<!-- Node1 -->
<g id="Node000001" class="node">
<title>Node1</title>
<g id="a_Node000001"><a xlink:title=" ">
<polygon fill="#999999" stroke="#666666" points="952.5,-85 818.5,-85 818.5,-66 952.5,-66 952.5,-85"/>
<text text-anchor="middle" x="885.5" y="-73" font-family="Helvetica,sans-Serif" font-size="10.00">SolverAlgorithmDriver.h</text>
</a>
</g>
</g>
<!-- Node2 -->
<g id="Node000002" class="node">
<title>Node2</title>
<g id="a_Node000002"><a xlink:href="_enthalpy_equation_system_8_c.html" target="_top" xlink:title=" ">
<polygon fill="white" stroke="#666666" points="149,-24.5 0,-24.5 0,-5.5 149,-5.5 149,-24.5"/>
<text text-anchor="middle" x="74.5" y="-12.5" font-family="Helvetica,sans-Serif" font-size="10.00">EnthalpyEquationSystem.C</text>
</a>
</g>
</g>
<!-- Node1&#45;&gt;Node2 -->
<g id="edge1_Node000001_Node000002" class="edge">
<title>Node1&#45;&gt;Node2</title>
<g id="a_edge1_Node000001_Node000002"><a xlink:title=" ">
<path fill="none" stroke="#63b8ff" d="M808.19,-72.47C674.96,-68.36 393.67,-57.06 157.5,-30 145.16,-28.59 131.86,-26.57 119.61,-24.5"/>
<polygon fill="#63b8ff" stroke="#63b8ff" points="808.19,-75.97 818.3,-72.77 808.41,-68.97 808.19,-75.97"/>
</a>
</g>
</g>
<!-- Node3 -->
<g id="Node000003" class="node">
<title>Node3</title>
<g id="a_Node000003"><a xlink:href="_equation_system_8_c.html" target="_top" xlink:title=" ">
<polygon fill="white" stroke="#666666" points="272.5,-24.5 166.5,-24.5 166.5,-5.5 272.5,-5.5 272.5,-24.5"/>
<text text-anchor="middle" x="219.5" y="-12.5" font-family="Helvetica,sans-Serif" font-size="10.00">EquationSystem.C</text>
</a>
</g>
</g>
<!-- Node1&#45;&gt;Node3 -->
<g id="edge2_Node000001_Node000003" class="edge">
<title>Node1&#45;&gt;Node3</title>
<g id="a_edge2_Node000001_Node000003"><a xlink:title=" ">
<path fill="none" stroke="#63b8ff" d="M807.96,-72.47C692.62,-68.62 469.27,-57.96 281.5,-30 272.22,-28.62 262.27,-26.61 253.12,-24.55"/>
<polygon fill="#63b8ff" stroke="#63b8ff" points="808,-75.97 818.11,-72.8 808.23,-68.97 808,-75.97"/>
</a>
</g>
</g>
<!-- Node4 -->
<g id="Node000004" class="node">
<title>Node4</title>
<g id="a_Node000004"><a xlink:href="_gamma_equation_system_8_c.html" target="_top" xlink:title=" ">
<polygon fill="white" stroke="#666666" points="436,-24.5 291,-24.5 291,-5.5 436,-5.5 436,-24.5"/>
<text text-anchor="middle" x="363.5" y="-12.5" font-family="Helvetica,sans-Serif" font-size="10.00">GammaEquationSystem.C</text>
</a>
</g>
</g>
<!-- Node1&#45;&gt;Node4 -->
<g id="edge3_Node000001_Node000004" class="edge">
<title>Node1&#45;&gt;Node4</title>
<g id="a_edge3_Node000001_Node000004"><a xlink:title=" ">
<path fill="none" stroke="#63b8ff" d="M808.07,-68.28C720.04,-60.84 572.11,-47.19 445.5,-30 434.05,-28.45 421.75,-26.5 410.25,-24.55"/>
<polygon fill="#63b8ff" stroke="#63b8ff" points="807.98,-71.79 818.24,-69.14 808.57,-64.81 807.98,-71.79"/>
</a>
</g>
</g>
<!-- Node5 -->
<g id="Node000005" class="node">
<title>Node5</title>
<g id="a_Node000005"><a xlink:href="_low_mach_equation_system_8_c.html" target="_top" xlink:title=" ">
<polygon fill="white" stroke="#666666" points="606.5,-24.5 454.5,-24.5 454.5,-5.5 606.5,-5.5 606.5,-24.5"/>
<text text-anchor="middle" x="530.5" y="-12.5" font-family="Helvetica,sans-Serif" font-size="10.00">LowMachEquationSystem.C</text>
</a>
</g>
</g>
<!-- Node1&#45;&gt;Node5 -->
<g id="edge4_Node000001_Node000005" class="edge">
<title>Node1&#45;&gt;Node5</title>
<g id="a_edge4_Node000001_Node000005"><a xlink:title=" ">
<path fill="none" stroke="#63b8ff" d="M823.68,-64.31C755.26,-53.04 646.23,-35.07 582.18,-24.52"/>
<polygon fill="#63b8ff" stroke="#63b8ff" points="823.44,-67.82 833.88,-65.99 824.58,-60.91 823.44,-67.82"/>
</a>
</g>
</g>
<!-- Node6 -->
<g id="Node000006" class="node">
<title>Node6</title>
<g id="a_Node000006"><a xlink:href="_projected_nodal_gradient_equation_system_8_c.html" target="_top" xlink:title=" ">
<polygon fill="white" stroke="#666666" points="800.5,-30 624.5,-30 624.5,0 800.5,0 800.5,-30"/>
<text text-anchor="start" x="632.5" y="-18" font-family="Helvetica,sans-Serif" font-size="10.00">ProjectedNodalGradientEquation</text>
<text text-anchor="middle" x="712.5" y="-7" font-family="Helvetica,sans-Serif" font-size="10.00">System.C</text>
</a>
</g>
</g>
<!-- Node1&#45;&gt;Node6 -->
<g id="edge5_Node000001_Node000006" class="edge">
<title>Node1&#45;&gt;Node6</title>
<g id="a_edge5_Node000001_Node000006"><a xlink:title=" ">
<path fill="none" stroke="#63b8ff" d="M850.62,-62.71C822.75,-53.28 783.6,-40.04 754.09,-30.06"/>
<polygon fill="#63b8ff" stroke="#63b8ff" points="849.75,-66.11 860.34,-65.99 851.99,-59.47 849.75,-66.11"/>
</a>
</g>
</g>
<!-- Node7 -->
<g id="Node000007" class="node">
<title>Node7</title>
<g id="a_Node000007"><a xlink:href="_solver_algorithm_driver_8_c.html" target="_top" xlink:title=" ">
<polygon fill="white" stroke="#666666" points="952.5,-24.5 818.5,-24.5 818.5,-5.5 952.5,-5.5 952.5,-24.5"/>
<text text-anchor="middle" x="885.5" y="-12.5" font-family="Helvetica,sans-Serif" font-size="10.00">SolverAlgorithmDriver.C</text>
</a>
</g>
</g>
<!-- Node1&#45;&gt;Node7 -->
<g id="edge6_Node000001_Node000007" class="edge">
<title>Node1&#45;&gt;Node7</title>
<g id="a_edge6_Node000001_Node000007"><a xlink:title=" ">
<path fill="none" stroke="#63b8ff" d="M885.5,-55.66C885.5,-45.24 885.5,-32.8 885.5,-24.67"/>
<polygon fill="#63b8ff" stroke="#63b8ff" points="882,-55.87 885.5,-65.87 889,-55.87 882,-55.87"/>
</a>
</g>
</g>
<!-- Node8 -->
<g id="Node000008" class="node">
<title>Node8</title>
<g id="a_Node000008"><a xlink:href="_specific_dissipation_rate_equation_system_8_c.html" target="_top" xlink:title=" ">
<polygon fill="white" stroke="#666666" points="1144.5,-30 970.5,-30 970.5,0 1144.5,0 1144.5,-30"/>
<text text-anchor="start" x="978.5" y="-18" font-family="Helvetica,sans-Serif" font-size="10.00">SpecificDissipationRateEquation</text>
<text text-anchor="middle" x="1057.5" y="-7" font-family="Helvetica,sans-Serif" font-size="10.00">System.C</text>
</a>
</g>
</g>
<!-- Node1&#45;&gt;Node8 -->
<g id="edge7_Node000001_Node000008" class="edge">
<title>Node1&#45;&gt;Node8</title>
<g id="a_edge7_Node000001_Node000008"><a xlink:title=" ">
<path fill="none" stroke="#63b8ff" d="M920.17,-62.71C947.89,-53.28 986.81,-40.04 1016.15,-30.06"/>
<polygon fill="#63b8ff" stroke="#63b8ff" points="918.85,-59.46 910.51,-65.99 921.1,-66.09 918.85,-59.46"/>
</a>
</g>
</g>
<!-- Node9 -->
<g id="Node000009" class="node">
<title>Node9</title>
<g id="a_Node000009"><a xlink:href="_total_dissipation_rate_equation_system_8_c.html" target="_top" xlink:title=" ">
<polygon fill="white" stroke="#666666" points="1322.5,-30 1162.5,-30 1162.5,0 1322.5,0 1322.5,-30"/>
<text text-anchor="start" x="1170.5" y="-18" font-family="Helvetica,sans-Serif" font-size="10.00">TotalDissipationRateEquation</text>
<text text-anchor="middle" x="1242.5" y="-7" font-family="Helvetica,sans-Serif" font-size="10.00">System.C</text>
</a>
</g>
</g>
<!-- Node1&#45;&gt;Node9 -->
<g id="edge8_Node000001_Node000009" class="edge">
<title>Node1&#45;&gt;Node9</title>
<g id="a_edge8_Node000001_Node000009"><a xlink:title=" ">
<path fill="none" stroke="#63b8ff" d="M947.43,-64.35C1007.04,-54.58 1097.45,-39.77 1162.48,-29.11"/>
<polygon fill="#63b8ff" stroke="#63b8ff" points="946.71,-60.92 937.41,-65.99 947.85,-67.83 946.71,-60.92"/>
</a>
</g>
</g>
<!-- Node10 -->
<g id="Node000010" class="node">
<title>Node10</title>
<g id="a_Node000010"><a xlink:href="_turb_kinetic_energy_equation_system_8_c.html" target="_top" xlink:title=" ">
<polygon fill="white" stroke="#666666" points="1488,-30 1341,-30 1341,0 1488,0 1488,-30"/>
<text text-anchor="start" x="1349" y="-18" font-family="Helvetica,sans-Serif" font-size="10.00">TurbKineticEnergyEquation</text>
<text text-anchor="middle" x="1414.5" y="-7" font-family="Helvetica,sans-Serif" font-size="10.00">System.C</text>
</a>
</g>
</g>
<!-- Node1&#45;&gt;Node10 -->
<g id="edge9_Node000001_Node000010" class="edge">
<title>Node1&#45;&gt;Node10</title>
<g id="a_edge9_Node000001_Node000010"><a xlink:title=" ">
<path fill="none" stroke="#63b8ff" d="M962.55,-68.41C1051.6,-60.99 1202.47,-47.3 1331.5,-30 1334.54,-29.59 1337.64,-29.16 1340.77,-28.7"/>
<polygon fill="#63b8ff" stroke="#63b8ff" points="962.21,-64.92 952.54,-69.23 962.79,-71.9 962.21,-64.92"/>
</a>
</g>
</g>
<!-- Node11 -->
<g id="Node000011" class="node">
<title>Node11</title>
<g id="a_Node000011"><a xlink:href="_volume_of_fluid_equation_system_8_c.html" target="_top" xlink:title=" ">
<polygon fill="white" stroke="#666666" points="1684.5,-24.5 1506.5,-24.5 1506.5,-5.5 1684.5,-5.5 1684.5,-24.5"/>
<text text-anchor="middle" x="1595.5" y="-12.5" font-family="Helvetica,sans-Serif" font-size="10.00">VolumeOfFluidEquationSystem.C</text>
</a>
</g>
</g>
<!-- Node1&#45;&gt;Node11 -->
<g id="edge10_Node000001_Node000011" class="edge">
<title>Node1&#45;&gt;Node11</title>
<g id="a_edge10_Node000001_Node000011"><a xlink:title=" ">
<path fill="none" stroke="#63b8ff" d="M962.87,-70.6C1079.14,-64.34 1305.75,-50.64 1497.5,-30 1511.51,-28.49 1526.6,-26.51 1540.64,-24.52"/>
<polygon fill="#63b8ff" stroke="#63b8ff" points="962.45,-67.12 952.65,-71.14 962.82,-74.11 962.45,-67.12"/>
</a>
</g>
</g>
<!-- Node12 -->
<g id="Node000012" class="node">
<title>Node12</title>
<g id="a_Node000012"><a xlink:href="_wall_dist_equation_system_8_c.html" target="_top" xlink:title=" ">
<polygon fill="white" stroke="#666666" points="1848.5,-24.5 1702.5,-24.5 1702.5,-5.5 1848.5,-5.5 1848.5,-24.5"/>
<text text-anchor="middle" x="1775.5" y="-12.5" font-family="Helvetica,sans-Serif" font-size="10.00">WallDistEquationSystem.C</text>
</a>
</g>
</g>
<!-- Node1&#45;&gt;Node12 -->
<g id="edge11_Node000001_Node000012" class="edge">
<title>Node1&#45;&gt;Node12</title>
<g id="a_edge11_Node000001_Node000012"><a xlink:title=" ">
<path fill="none" stroke="#63b8ff" d="M962.83,-73.17C1106.96,-70.05 1426.28,-60.07 1693.5,-30 1705.7,-28.63 1718.84,-26.62 1730.95,-24.56"/>
<polygon fill="#63b8ff" stroke="#63b8ff" points="962.68,-69.68 952.76,-73.39 962.83,-76.67 962.68,-69.68"/>
</a>
</g>
</g>
</g>
</svg>
