<?xml version="1.0" encoding="UTF-8" standalone="no"?>
<!DOCTYPE svg PUBLIC "-//W3C//DTD SVG 1.1//EN"
 "http://www.w3.org/Graphics/SVG/1.1/DTD/svg11.dtd">
<!-- Generated by graphviz version 2.43.0 (0)
 -->
<!-- Title: SolverAlgorithmDriver.h Pages: 1 -->
<svg width="1857pt" height="95pt"
 viewBox="0.00 0.00 1856.50 95.00" xmlns="http://www.w3.org/2000/svg" xmlns:xlink="http://www.w3.org/1999/xlink">
<g id="graph0" class="graph" transform="scale(1 1) rotate(0) translate(4 91)">
<title>SolverAlgorithmDriver.h</title>
<polygon fill="white" stroke="transparent" points="-4,4 -4,-91 1852.5,-91 1852.5,4 -4,4"/>
<!-- Node1 -->
<g id="node1" class="node">
<title>Node1</title>
<g id="a_node1"><a xlink:title=" ">
<polygon fill="#bfbfbf" stroke="black" points="818.5,-67.5 818.5,-86.5 952.5,-86.5 952.5,-67.5 818.5,-67.5"/>
<text text-anchor="middle" x="885.5" y="-74.5" font-family="Helvetica,sans-Serif" font-size="10.00">SolverAlgorithmDriver.h</text>
</a>
</g>
</g>
<!-- Node2 -->
<g id="node2" class="node">
<title>Node2</title>
<g id="a_node2"><a xlink:href="_enthalpy_equation_system_8_c.html" target="_top" xlink:title=" ">
<polygon fill="white" stroke="black" points="0,-6 0,-25 149,-25 149,-6 0,-6"/>
<text text-anchor="middle" x="74.5" y="-13" font-family="Helvetica,sans-Serif" font-size="10.00">EnthalpyEquationSystem.C</text>
</a>
</g>
</g>
<!-- Node1&#45;&gt;Node2 -->
<g id="edge1" class="edge">
<title>Node1&#45;&gt;Node2</title>
<path fill="none" stroke="midnightblue" d="M808.17,-74.04C674.92,-70.04 393.59,-58.83 157.5,-31 144.57,-29.48 130.6,-27.26 117.87,-25.02"/>
<polygon fill="midnightblue" stroke="midnightblue" points="808.18,-77.55 818.28,-74.34 808.39,-70.55 808.18,-77.55"/>
</g>
<!-- Node3 -->
<g id="node3" class="node">
<title>Node3</title>
<g id="a_node3"><a xlink:href="_equation_system_8_c.html" target="_top" xlink:title=" ">
<polygon fill="white" stroke="black" points="166.5,-6 166.5,-25 272.5,-25 272.5,-6 166.5,-6"/>
<text text-anchor="middle" x="219.5" y="-13" font-family="Helvetica,sans-Serif" font-size="10.00">EquationSystem.C</text>
</a>
</g>
</g>
<!-- Node1&#45;&gt;Node3 -->
<g id="edge2" class="edge">
<title>Node1&#45;&gt;Node3</title>
<path fill="none" stroke="midnightblue" d="M807.93,-74.07C692.56,-70.33 469.16,-59.76 281.5,-31 271.78,-29.51 261.32,-27.3 251.81,-25.06"/>
<polygon fill="midnightblue" stroke="midnightblue" points="807.98,-77.57 818.08,-74.39 808.2,-70.58 807.98,-77.57"/>
</g>
<!-- Node4 -->
<g id="node4" class="node">
<title>Node4</title>
<g id="a_node4"><a xlink:href="_gamma_equation_system_8_c.html" target="_top" xlink:title=" ">
<polygon fill="white" stroke="black" points="291,-6 291,-25 436,-25 436,-6 291,-6"/>
<text text-anchor="middle" x="363.5" y="-13" font-family="Helvetica,sans-Serif" font-size="10.00">GammaEquationSystem.C</text>
</a>
</g>
</g>
<!-- Node1&#45;&gt;Node4 -->
<g id="edge3" class="edge">
<title>Node1&#45;&gt;Node4</title>
<path fill="none" stroke="midnightblue" d="M808.06,-69.8C720.01,-62.36 572.06,-48.64 445.5,-31 433.47,-29.32 420.51,-27.19 408.52,-25.07"/>
<polygon fill="midnightblue" stroke="midnightblue" points="807.97,-73.31 818.23,-70.66 808.56,-66.33 807.97,-73.31"/>
</g>
<!-- Node5 -->
<g id="node5" class="node">
<title>Node5</title>
<g id="a_node5"><a xlink:href="_low_mach_equation_system_8_c.html" target="_top" xlink:title=" ">
<polygon fill="white" stroke="black" points="454.5,-6 454.5,-25 606.5,-25 606.5,-6 454.5,-6"/>
<text text-anchor="middle" x="530.5" y="-13" font-family="Helvetica,sans-Serif" font-size="10.00">LowMachEquationSystem.C</text>
</a>
</g>
</g>
<!-- Node1&#45;&gt;Node5 -->
<g id="edge4" class="edge">
<title>Node1&#45;&gt;Node5</title>
<path fill="none" stroke="midnightblue" d="M824.09,-65.83C769.36,-56.76 687.08,-43.07 615.5,-31 604.13,-29.08 591.91,-27.01 580.38,-25.04"/>
<polygon fill="midnightblue" stroke="midnightblue" points="823.54,-69.29 833.98,-67.47 824.69,-62.38 823.54,-69.29"/>
</g>
<!-- Node6 -->
<g id="node6" class="node">
<title>Node6</title>
<g id="a_node6"><a xlink:href="_projected_nodal_gradient_equation_system_8_c.html" target="_top" xlink:title=" ">
<polygon fill="white" stroke="black" points="624.5,-0.5 624.5,-30.5 800.5,-30.5 800.5,-0.5 624.5,-0.5"/>
<text text-anchor="start" x="632.5" y="-18.5" font-family="Helvetica,sans-Serif" font-size="10.00">ProjectedNodalGradientEquation</text>
<text text-anchor="middle" x="712.5" y="-7.5" font-family="Helvetica,sans-Serif" font-size="10.00">System.C</text>
</a>
</g>
</g>
<!-- Node1&#45;&gt;Node6 -->
<g id="edge5" class="edge">
<title>Node1&#45;&gt;Node6</title>
<path fill="none" stroke="midnightblue" d="M850.91,-64.1C822.76,-54.42 782.97,-40.74 753.27,-30.52"/>
<polygon fill="midnightblue" stroke="midnightblue" points="850.12,-67.53 860.71,-67.48 852.4,-60.91 850.12,-67.53"/>
</g>
<!-- Node7 -->
<g id="node7" class="node">
<title>Node7</title>
<g id="a_node7"><a xlink:href="_solver_algorithm_driver_8_c.html" target="_top" xlink:title=" ">
<polygon fill="white" stroke="black" points="818.5,-6 818.5,-25 952.5,-25 952.5,-6 818.5,-6"/>
<text text-anchor="middle" x="885.5" y="-13" font-family="Helvetica,sans-Serif" font-size="10.00">SolverAlgorithmDriver.C</text>
</a>
</g>
</g>
<!-- Node1&#45;&gt;Node7 -->
<g id="edge6" class="edge">
<title>Node1&#45;&gt;Node7</title>
<path fill="none" stroke="midnightblue" d="M885.5,-57.32C885.5,-46.5 885.5,-33.4 885.5,-25.01"/>
<polygon fill="midnightblue" stroke="midnightblue" points="882,-57.48 885.5,-67.48 889,-57.48 882,-57.48"/>
</g>
<!-- Node8 -->
<g id="node8" class="node">
<title>Node8</title>
<g id="a_node8"><a xlink:href="_specific_dissipation_rate_equation_system_8_c.html" target="_top" xlink:title=" ">
<polygon fill="white" stroke="black" points="970.5,-0.5 970.5,-30.5 1144.5,-30.5 1144.5,-0.5 970.5,-0.5"/>
<text text-anchor="start" x="978.5" y="-18.5" font-family="Helvetica,sans-Serif" font-size="10.00">SpecificDissipationRateEquation</text>
<text text-anchor="middle" x="1057.5" y="-7.5" font-family="Helvetica,sans-Serif" font-size="10.00">System.C</text>
</a>
</g>
</g>
<!-- Node1&#45;&gt;Node8 -->
<g id="edge7" class="edge">
<title>Node1&#45;&gt;Node8</title>
<path fill="none" stroke="midnightblue" d="M919.89,-64.1C947.88,-54.42 987.44,-40.74 1016.96,-30.52"/>
<polygon fill="midnightblue" stroke="midnightblue" points="918.45,-60.9 910.14,-67.48 920.74,-67.51 918.45,-60.9"/>
</g>
<!-- Node9 -->
<g id="node9" class="node">
<title>Node9</title>
<g id="a_node9"><a xlink:href="_total_dissipation_rate_equation_system_8_c.html" target="_top" xlink:title=" ">
<polygon fill="white" stroke="black" points="1162.5,-0.5 1162.5,-30.5 1322.5,-30.5 1322.5,-0.5 1162.5,-0.5"/>
<text text-anchor="start" x="1170.5" y="-18.5" font-family="Helvetica,sans-Serif" font-size="10.00">TotalDissipationRateEquation</text>
<text text-anchor="middle" x="1242.5" y="-7.5" font-family="Helvetica,sans-Serif" font-size="10.00">System.C</text>
</a>
</g>
</g>
<!-- Node1&#45;&gt;Node9 -->
<g id="edge8" class="edge">
<title>Node1&#45;&gt;Node9</title>
<path fill="none" stroke="midnightblue" d="M946.67,-65.81C1006.25,-55.88 1097.15,-40.73 1162.46,-29.84"/>
<polygon fill="midnightblue" stroke="midnightblue" points="945.94,-62.38 936.65,-67.48 947.09,-69.28 945.94,-62.38"/>
</g>
<!-- Node10 -->
<g id="node10" class="node">
<title>Node10</title>
<g id="a_node10"><a xlink:href="_turb_kinetic_energy_equation_system_8_c.html" target="_top" xlink:title=" ">
<polygon fill="white" stroke="black" points="1341,-0.5 1341,-30.5 1488,-30.5 1488,-0.5 1341,-0.5"/>
<text text-anchor="start" x="1349" y="-18.5" font-family="Helvetica,sans-Serif" font-size="10.00">TurbKineticEnergyEquation</text>
<text text-anchor="middle" x="1414.5" y="-7.5" font-family="Helvetica,sans-Serif" font-size="10.00">System.C</text>
</a>
</g>
</g>
<!-- Node1&#45;&gt;Node10 -->
<g id="edge9" class="edge">
<title>Node1&#45;&gt;Node10</title>
<path fill="none" stroke="midnightblue" d="M962.57,-69.93C1051.64,-62.52 1202.51,-48.75 1331.5,-31 1334.54,-30.58 1337.65,-30.13 1340.78,-29.66"/>
<polygon fill="midnightblue" stroke="midnightblue" points="962.23,-66.45 952.55,-70.76 962.8,-73.42 962.23,-66.45"/>
</g>
<!-- Node11 -->
<g id="node11" class="node">
<title>Node11</title>
<g id="a_node11"><a xlink:href="_volume_of_fluid_equation_system_8_c.html" target="_top" xlink:title=" ">
<polygon fill="white" stroke="black" points="1506.5,-6 1506.5,-25 1684.5,-25 1684.5,-6 1506.5,-6"/>
<text text-anchor="middle" x="1595.5" y="-13" font-family="Helvetica,sans-Serif" font-size="10.00">VolumeOfFluidEquationSystem.C</text>
</a>
</g>
</g>
<!-- Node1&#45;&gt;Node11 -->
<g id="edge10" class="edge">
<title>Node1&#45;&gt;Node11</title>
<path fill="none" stroke="midnightblue" d="M962.89,-72.14C1079.17,-65.92 1305.8,-52.2 1497.5,-31 1512.29,-29.36 1528.27,-27.18 1542.95,-25"/>
<polygon fill="midnightblue" stroke="midnightblue" points="962.46,-68.66 952.66,-72.68 962.83,-75.65 962.46,-68.66"/>
</g>
<!-- Node12 -->
<g id="node12" class="node">
<title>Node12</title>
<g id="a_node12"><a xlink:href="_wall_dist_equation_system_8_c.html" target="_top" xlink:title=" ">
<polygon fill="white" stroke="black" points="1702.5,-6 1702.5,-25 1848.5,-25 1848.5,-6 1702.5,-6"/>
<text text-anchor="middle" x="1775.5" y="-13" font-family="Helvetica,sans-Serif" font-size="10.00">WallDistEquationSystem.C</text>
</a>
</g>
</g>
<!-- Node1&#45;&gt;Node12 -->
<g id="edge11" class="edge">
<title>Node1&#45;&gt;Node12</title>
<path fill="none" stroke="midnightblue" d="M962.57,-74.77C1106.6,-71.78 1426.2,-61.96 1693.5,-31 1706.28,-29.52 1720.09,-27.32 1732.66,-25.07"/>
<polygon fill="midnightblue" stroke="midnightblue" points="962.43,-71.27 952.51,-74.97 962.57,-78.27 962.43,-71.27"/>
</g>
</g>
</svg>
