<?xml version="1.0" encoding="UTF-8" standalone="no"?>
<!DOCTYPE svg PUBLIC "-//W3C//DTD SVG 1.1//EN"
 "http://www.w3.org/Graphics/SVG/1.1/DTD/svg11.dtd">
<!-- Generated by graphviz version 2.43.0 (0)
 -->
<!-- Title: SolverAlgorithmDriver.C Pages: 1 -->
<!--zoomable 302 -->

<svg id="main" version="1.1" xmlns="http://www.w3.org/2000/svg" xmlns:xlink="http://www.w3.org/1999/xlink" xml:space="preserve" onload="init(evt)">
<style type="text/css"><![CDATA[
.node, .edge {opacity: 0.7;}
.node.selected, .edge.selected {opacity: 1;}
.edge:hover path { stroke: red; }
.edge:hover polygon { stroke: red; fill: red; }
]]></style>

<defs>
  <circle id="rim" cx="0" cy="0" r="7"/>
  <circle id="rim2" cx="0" cy="0" r="3.5"/>
  <g id="zoomPlus">
    <use xlink:href="#rim" fill="#404040"><set attributeName="fill" to="#808080" begin="zoomplus.mouseover" end="zoomplus.mouseout"/></use>
    <path d="M-4,0h8M0,-4v8" fill="none" stroke="white" stroke-width="1.5" pointer-events="none"/>
  </g>
  <g id="zoomMin">
    <use xlink:href="#rim" fill="#404040"><set attributeName="fill" to="#808080" begin="zoomminus.mouseover" end="zoomminus.mouseout"/></use>
    <path d="M-4,0h8" fill="none" stroke="white" stroke-width="1.5" pointer-events="none"/>
  </g>
  <g id="arrowUp" transform="translate(30 24)">
    <use xlink:href="#rim"/>
    <path pointer-events="none" fill="none" stroke="white" stroke-width="1.5" d="M0,-3.0v7 M-2.5,-0.5L0,-3.0L2.5,-0.5"/>
  </g>
  <g id="arrowRight" transform="rotate(90) translate(36 -43)">
    <use xlink:href="#rim"/>
    <path pointer-events="none" fill="none" stroke="white" stroke-width="1.5" d="M0,-3.0v7 M-2.5,-0.5L0,-3.0L2.5,-0.5"/>
  </g>
  <g id="arrowDown" transform="rotate(180) translate(-30 -48)">
    <use xlink:href="#rim"/>
    <path pointer-events="none" fill="none" stroke="white" stroke-width="1.5" d="M0,-3.0v7 M-2.5,-0.5L0,-3.0L2.5,-0.5"/>
  </g>
  <g id="arrowLeft" transform="rotate(270) translate(-36 17)">
    <use xlink:href="#rim"/>
    <path pointer-events="none" fill="none" stroke="white" stroke-width="1.5" d="M0,-3.0v7 M-2.5,-0.5L0,-3.0L2.5,-0.5"/>
  </g>
  <g id="resetDef">
    <use xlink:href="#rim2" fill="#404040"><set attributeName="fill" to="#808080" begin="reset.mouseover" end="reset.mouseout"/></use>
  </g>
</defs>
<script type="application/ecmascript">
var viewWidth = 1353;
var viewHeight = 302;
var sectionId = 'dynsection-0';
</script>
<script type="application/ecmascript" xlink:href="svg.min.js"/>
<svg id="graph" class="graph">
<g id="viewport">
<title>SolverAlgorithmDriver.C</title>
<!-- Node1 -->
<g id="Node000001" class="node">
<title>Node1</title>
<g id="a_Node000001"><a xlink:title=" ">
<polygon fill="#999999" stroke="#666666" points="253.5,-294 119.5,-294 119.5,-275 253.5,-275 253.5,-294"/>
<text text-anchor="middle" x="186.5" y="-282" font-family="Helvetica,sans-Serif" font-size="10.00">SolverAlgorithmDriver.C</text>
</a>
</g>
</g>
<!-- Node2 -->
<g id="Node000002" class="node">
<title>Node2</title>
<g id="a_Node000002"><a xlink:href="_solver_algorithm_driver_8h.html" target="_top" xlink:title=" ">
<polygon fill="white" stroke="#666666" points="206.5,-239 72.5,-239 72.5,-220 206.5,-220 206.5,-239"/>
<text text-anchor="middle" x="139.5" y="-227" font-family="Helvetica,sans-Serif" font-size="10.00">SolverAlgorithmDriver.h</text>
</a>
</g>
</g>
<!-- Node1&#45;&gt;Node2 -->
<g id="edge1_Node000001_Node000002" class="edge">
<title>Node1&#45;&gt;Node2</title>
<g id="a_edge1_Node000001_Node000002"><a xlink:title=" ">
<path fill="none" stroke="#63b8ff" d="M178.74,-274.75C172.03,-267.18 162.16,-256.05 153.99,-246.84"/>
<polygon fill="#63b8ff" stroke="#63b8ff" points="156.37,-244.25 147.12,-239.09 151.13,-248.89 156.37,-244.25"/>
</a>
</g>
</g>
<!-- Node3 -->
<g id="Node000003" class="node">
<title>Node3</title>
<g id="a_Node000003"><a xlink:href="_algorithm_driver_8h.html" target="_top" xlink:title=" ">
<polygon fill="white" stroke="#666666" points="103,-184 0,-184 0,-165 103,-165 103,-184"/>
<text text-anchor="middle" x="51.5" y="-172" font-family="Helvetica,sans-Serif" font-size="10.00">AlgorithmDriver.h</text>
</a>
</g>
</g>
<!-- Node1&#45;&gt;Node3 -->
<g id="edge9_Node000001_Node000003" class="edge">
<title>Node1&#45;&gt;Node3</title>
<g id="a_edge9_Node000001_Node000003"><a xlink:title=" ">
<path fill="none" stroke="#63b8ff" d="M127.28,-274.98C104.22,-268.71 79.54,-257.85 63.5,-239 53.05,-226.72 50.55,-208.21 50.37,-194.34"/>
<polygon fill="#63b8ff" stroke="#63b8ff" points="53.88,-194.1 50.64,-184.01 46.88,-193.92 53.88,-194.1"/>
</a>
</g>
</g>
<!-- Node4 -->
<g id="Node000004" class="node">
<title>Node4</title>
<g id="a_Node000004"><a xlink:href="_enums_8h.html" target="_top" xlink:title=" ">
<polygon fill="white" stroke="#666666" points="219,-129 160,-129 160,-110 219,-110 219,-129"/>
<text text-anchor="middle" x="189.5" y="-117" font-family="Helvetica,sans-Serif" font-size="10.00">Enums.h</text>
</a>
</g>
</g>
<!-- Node1&#45;&gt;Node4 -->
<g id="edge10_Node000001_Node000004" class="edge">
<title>Node1&#45;&gt;Node4</title>
<g id="a_edge10_Node000001_Node000004"><a xlink:title=" ">
<path fill="none" stroke="#63b8ff" d="M194.44,-274.75C201.53,-266.3 211.4,-252.79 215.5,-239 225.95,-203.82 210.14,-161.64 198.96,-138.28"/>
<polygon fill="#63b8ff" stroke="#63b8ff" points="202.03,-136.59 194.41,-129.23 195.78,-139.74 202.03,-136.59"/>
</a>
</g>
</g>
<!-- Node7 -->
<g id="Node000007" class="node">
<title>Node7</title>
<g id="a_Node000007"><a xlink:href="_solver_algorithm_8h.html" target="_top" xlink:title=" ">
<polygon fill="white" stroke="#666666" points="1173.5,-239 1069.5,-239 1069.5,-220 1173.5,-220 1173.5,-239"/>
<text text-anchor="middle" x="1121.5" y="-227" font-family="Helvetica,sans-Serif" font-size="10.00">SolverAlgorithm.h</text>
</a>
</g>
</g>
<!-- Node1&#45;&gt;Node7 -->
<g id="edge11_Node000001_Node000007" class="edge">
<title>Node1&#45;&gt;Node7</title>
<g id="a_edge11_Node000001_Node000007"><a xlink:title=" ">
<path fill="none" stroke="#63b8ff" d="M253.74,-279.69C427.74,-269.83 890.91,-243.57 1059.24,-234.03"/>
<polygon fill="#63b8ff" stroke="#63b8ff" points="1059.64,-237.51 1069.42,-233.45 1059.24,-230.52 1059.64,-237.51"/>
</a>
</g>
</g>
<!-- Node2&#45;&gt;Node3 -->
<g id="edge2_Node000002_Node000003" class="edge">
<title>Node2&#45;&gt;Node3</title>
<g id="a_edge2_Node000002_Node000003"><a xlink:title=" ">
<path fill="none" stroke="#63b8ff" d="M125.36,-219.98C111.71,-211.77 90.81,-199.18 74.72,-189.49"/>
<polygon fill="#63b8ff" stroke="#63b8ff" points="76.27,-186.33 65.9,-184.17 72.66,-192.33 76.27,-186.33"/>
</a>
</g>
</g>
<!-- Node2&#45;&gt;Node4 -->
<g id="edge7_Node000002_Node000004" class="edge">
<title>Node2&#45;&gt;Node4</title>
<g id="a_edge7_Node000002_Node000004"><a xlink:title=" ">
<path fill="none" stroke="#63b8ff" d="M143.59,-219.66C151.8,-201.93 170.41,-161.73 181.25,-138.32"/>
<polygon fill="#63b8ff" stroke="#63b8ff" points="184.47,-139.7 185.49,-129.16 178.11,-136.76 184.47,-139.7"/>
</a>
</g>
</g>
<!-- Node6 -->
<g id="Node000006" class="node">
<title>Node6</title>
<g id="a_Node000006"><a xlink:title=" ">
<polygon fill="#e0e0e0" stroke="#999999" points="149.5,-74 111.5,-74 111.5,-55 149.5,-55 149.5,-74"/>
<text text-anchor="middle" x="130.5" y="-62" font-family="Helvetica,sans-Serif" font-size="10.00">map</text>
</a>
</g>
</g>
<!-- Node2&#45;&gt;Node6 -->
<g id="edge8_Node000002_Node000006" class="edge">
<title>Node2&#45;&gt;Node6</title>
<g id="a_edge8_Node000002_Node000006"><a xlink:title=" ">
<path fill="none" stroke="#63b8ff" d="M139.02,-219.74C137.61,-194.31 133.51,-120.08 131.56,-84.69"/>
<polygon fill="#63b8ff" stroke="#63b8ff" points="135.03,-84.1 130.99,-74.31 128.04,-84.48 135.03,-84.1"/>
</a>
</g>
</g>
<!-- Node3&#45;&gt;Node4 -->
<g id="edge3_Node000003_Node000004" class="edge">
<title>Node3&#45;&gt;Node4</title>
<g id="a_edge3_Node000003_Node000004"><a xlink:title=" ">
<path fill="none" stroke="#63b8ff" d="M73.67,-164.98C96.27,-156.3 131.56,-142.75 157.25,-132.88"/>
<polygon fill="#63b8ff" stroke="#63b8ff" points="158.84,-136.02 166.92,-129.17 156.33,-129.49 158.84,-136.02"/>
</a>
</g>
</g>
<!-- Node3&#45;&gt;Node6 -->
<g id="edge6_Node000003_Node000006" class="edge">
<title>Node3&#45;&gt;Node6</title>
<g id="a_edge6_Node000003_Node000006"><a xlink:title=" ">
<path fill="none" stroke="#63b8ff" d="M57.96,-164.66C71.11,-146.69 101.14,-105.64 118.15,-82.38"/>
<polygon fill="#63b8ff" stroke="#63b8ff" points="121.09,-84.3 124.17,-74.16 115.44,-80.16 121.09,-84.3"/>
</a>
</g>
</g>
<!-- Node5 -->
<g id="Node000005" class="node">
<title>Node5</title>
<g id="a_Node000005"><a xlink:title=" ">
<polygon fill="#e0e0e0" stroke="#999999" points="211.5,-74 167.5,-74 167.5,-55 211.5,-55 211.5,-74"/>
<text text-anchor="middle" x="189.5" y="-62" font-family="Helvetica,sans-Serif" font-size="10.00">string</text>
</a>
</g>
</g>
<!-- Node4&#45;&gt;Node5 -->
<g id="edge4_Node000004_Node000005" class="edge">
<title>Node4&#45;&gt;Node5</title>
<g id="a_edge4_Node000004_Node000005"><a xlink:title=" ">
<path fill="none" stroke="#63b8ff" d="M189.5,-109.75C189.5,-102.8 189.5,-92.85 189.5,-84.13"/>
<polygon fill="#63b8ff" stroke="#63b8ff" points="193,-84.09 189.5,-74.09 186,-84.09 193,-84.09"/>
</a>
</g>
</g>
<!-- Node4&#45;&gt;Node6 -->
<g id="edge5_Node000004_Node000006" class="edge">
<title>Node4&#45;&gt;Node6</title>
<g id="a_edge5_Node000004_Node000006"><a xlink:title=" ">
<path fill="none" stroke="#63b8ff" d="M180.02,-109.98C171.3,-102.15 158.16,-90.34 147.6,-80.86"/>
<polygon fill="#63b8ff" stroke="#63b8ff" points="149.93,-78.25 140.15,-74.17 145.25,-83.46 149.93,-78.25"/>
</a>
</g>
</g>
<!-- Node8 -->
<g id="Node000008" class="node">
<title>Node8</title>
<g id="a_Node000008"><a xlink:href="_algorithm_8h.html" target="_top" xlink:title=" ">
<polygon fill="white" stroke="#666666" points="1316.5,-184 1242.5,-184 1242.5,-165 1316.5,-165 1316.5,-184"/>
<text text-anchor="middle" x="1279.5" y="-172" font-family="Helvetica,sans-Serif" font-size="10.00">Algorithm.h</text>
</a>
</g>
</g>
<!-- Node7&#45;&gt;Node8 -->
<g id="edge12_Node000007_Node000008" class="edge">
<title>Node7&#45;&gt;Node8</title>
<g id="a_edge12_Node000007_Node000008"><a xlink:title=" ">
<path fill="none" stroke="#63b8ff" d="M1146.89,-219.98C1173.3,-211.13 1214.85,-197.19 1244.39,-187.28"/>
<polygon fill="#63b8ff" stroke="#63b8ff" points="1245.55,-190.58 1253.92,-184.08 1243.32,-183.94 1245.55,-190.58"/>
</a>
</g>
</g>
<!-- Node9 -->
<g id="Node000009" class="node">
<title>Node9</title>
<g id="a_Node000009"><a xlink:title=" ">
<polygon fill="#e0e0e0" stroke="#999999" points="1303,-129 1256,-129 1256,-110 1303,-110 1303,-129"/>
<text text-anchor="middle" x="1279.5" y="-117" font-family="Helvetica,sans-Serif" font-size="10.00">vector</text>
</a>
</g>
</g>
<!-- Node7&#45;&gt;Node9 -->
<g id="edge37_Node000007_Node000009" class="edge">
<title>Node7&#45;&gt;Node9</title>
<g id="a_edge37_Node000007_Node000009"><a xlink:title=" ">
<path fill="none" stroke="#63b8ff" d="M1173.89,-224.41C1227.9,-218.97 1306.8,-207.22 1325.5,-184 1338.63,-167.69 1319.38,-148.05 1301.91,-134.98"/>
<polygon fill="#63b8ff" stroke="#63b8ff" points="1303.82,-132.04 1293.63,-129.13 1299.78,-137.76 1303.82,-132.04"/>
</a>
</g>
</g>
<!-- Node10 -->
<g id="Node000010" class="node">
<title>Node10</title>
<g id="a_Node000010"><a xlink:href="_kokkos_interface_8h.html" target="_top" xlink:title=" ">
<polygon fill="white" stroke="#666666" points="1211.5,-74 1107.5,-74 1107.5,-55 1211.5,-55 1211.5,-74"/>
<text text-anchor="middle" x="1159.5" y="-62" font-family="Helvetica,sans-Serif" font-size="10.00">KokkosInterface.h</text>
</a>
</g>
</g>
<!-- Node7&#45;&gt;Node10 -->
<g id="edge14_Node000007_Node000010" class="edge">
<title>Node7&#45;&gt;Node10</title>
<g id="a_edge14_Node000007_Node000010"><a xlink:title=" ">
<path fill="none" stroke="#63b8ff" d="M1123.54,-219.74C1129.5,-194.2 1146.93,-119.43 1155.13,-84.23"/>
<polygon fill="#63b8ff" stroke="#63b8ff" points="1158.58,-84.84 1157.45,-74.31 1151.77,-83.25 1158.58,-84.84"/>
</a>
</g>
</g>
<!-- Node12 -->
<g id="Node000012" class="node">
<title>Node12</title>
<g id="a_Node000012"><a xlink:title=" ">
<polygon fill="#e0e0e0" stroke="#999999" points="1345,-19 1204,-19 1204,0 1345,0 1345,-19"/>
<text text-anchor="middle" x="1274.5" y="-7" font-family="Helvetica,sans-Serif" font-size="10.00">stk_mesh/base/Entity.hpp</text>
</a>
</g>
</g>
<!-- Node7&#45;&gt;Node12 -->
<g id="edge33_Node000007_Node000012" class="edge">
<title>Node7&#45;&gt;Node12</title>
<g id="a_edge33_Node000007_Node000012"><a xlink:title=" ">
<path fill="none" stroke="#63b8ff" d="M1127.5,-219.95C1150.3,-187.47 1231.83,-71.29 1262.62,-27.43"/>
<polygon fill="#63b8ff" stroke="#63b8ff" points="1265.5,-29.42 1268.38,-19.22 1259.77,-25.4 1265.5,-29.42"/>
</a>
</g>
</g>
<!-- Node15 -->
<g id="Node000015" class="node">
<title>Node15</title>
<g id="a_Node000015"><a xlink:href="_linear_system_8h.html" target="_top" xlink:title=" ">
<polygon fill="white" stroke="#666666" points="917.5,-184 825.5,-184 825.5,-165 917.5,-165 917.5,-184"/>
<text text-anchor="middle" x="871.5" y="-172" font-family="Helvetica,sans-Serif" font-size="10.00">LinearSystem.h</text>
</a>
</g>
</g>
<!-- Node7&#45;&gt;Node15 -->
<g id="edge19_Node000007_Node000015" class="edge">
<title>Node7&#45;&gt;Node15</title>
<g id="a_edge19_Node000007_Node000015"><a xlink:title=" ">
<path fill="none" stroke="#63b8ff" d="M1081.33,-219.98C1038,-210.8 968.91,-196.15 921.94,-186.19"/>
<polygon fill="#63b8ff" stroke="#63b8ff" points="922.49,-182.73 911.98,-184.08 921.04,-189.58 922.49,-182.73"/>
</a>
</g>
</g>
<!-- Node23 -->
<g id="Node000023" class="node">
<title>Node23</title>
<g id="a_Node000023"><a xlink:title=" ">
<polygon fill="#e0e0e0" stroke="#999999" points="725.5,-129 591.5,-129 591.5,-110 725.5,-110 725.5,-129"/>
<text text-anchor="middle" x="658.5" y="-117" font-family="Helvetica,sans-Serif" font-size="10.00">stk_mesh/base/Ngp.hpp</text>
</a>
</g>
</g>
<!-- Node7&#45;&gt;Node23 -->
<g id="edge34_Node000007_Node000023" class="edge">
<title>Node7&#45;&gt;Node23</title>
<g id="a_edge34_Node000007_Node000023"><a xlink:title=" ">
<path fill="none" stroke="#63b8ff" d="M1069.47,-224.69C1008.15,-219.33 903.56,-207.49 816.5,-184 768.85,-171.15 716.16,-148.05 685.27,-133.54"/>
<polygon fill="#63b8ff" stroke="#63b8ff" points="686.57,-130.29 676.03,-129.16 683.56,-136.61 686.57,-130.29"/>
</a>
</g>
</g>
<!-- Node24 -->
<g id="Node000024" class="node">
<title>Node24</title>
<g id="a_Node000024"><a xlink:title=" ">
<polygon fill="#e0e0e0" stroke="#999999" points="1125.5,-129 965.5,-129 965.5,-110 1125.5,-110 1125.5,-129"/>
<text text-anchor="middle" x="1045.5" y="-117" font-family="Helvetica,sans-Serif" font-size="10.00">stk_mesh/base/NgpMesh.hpp</text>
</a>
</g>
</g>
<!-- Node7&#45;&gt;Node24 -->
<g id="edge35_Node000007_Node000024" class="edge">
<title>Node7&#45;&gt;Node24</title>
<g id="a_edge35_Node000007_Node000024"><a xlink:title=" ">
<path fill="none" stroke="#63b8ff" d="M1120.62,-219.98C1118.93,-207.09 1114.31,-182.29 1102.5,-165 1094.12,-152.73 1081.3,-142.29 1069.94,-134.62"/>
<polygon fill="#63b8ff" stroke="#63b8ff" points="1071.57,-131.51 1061.26,-129.07 1067.8,-137.4 1071.57,-131.51"/>
</a>
</g>
</g>
<!-- Node25 -->
<g id="Node000025" class="node">
<title>Node25</title>
<g id="a_Node000025"><a xlink:title=" ">
<polygon fill="#e0e0e0" stroke="#999999" points="1093,-184 936,-184 936,-165 1093,-165 1093,-184"/>
<text text-anchor="middle" x="1014.5" y="-172" font-family="Helvetica,sans-Serif" font-size="10.00">stk_mesh/base/NgpField.hpp</text>
</a>
</g>
</g>
<!-- Node7&#45;&gt;Node25 -->
<g id="edge36_Node000007_Node000025" class="edge">
<title>Node7&#45;&gt;Node25</title>
<g id="a_edge36_Node000007_Node000025"><a xlink:title=" ">
<path fill="none" stroke="#63b8ff" d="M1104.31,-219.98C1087.25,-211.54 1060.87,-198.47 1041.1,-188.68"/>
<polygon fill="#63b8ff" stroke="#63b8ff" points="1042.52,-185.47 1032,-184.17 1039.41,-191.75 1042.52,-185.47"/>
</a>
</g>
</g>
<!-- Node8&#45;&gt;Node9 -->
<g id="edge13_Node000008_Node000009" class="edge">
<title>Node8&#45;&gt;Node9</title>
<g id="a_edge13_Node000008_Node000009"><a xlink:title=" ">
<path fill="none" stroke="#63b8ff" d="M1279.5,-164.75C1279.5,-157.8 1279.5,-147.85 1279.5,-139.13"/>
<polygon fill="#63b8ff" stroke="#63b8ff" points="1283,-139.09 1279.5,-129.09 1276,-139.09 1283,-139.09"/>
</a>
</g>
</g>
<!-- Node11 -->
<g id="Node000011" class="node">
<title>Node11</title>
<g id="a_Node000011"><a xlink:title=" ">
<polygon fill="#e0e0e0" stroke="#999999" points="1186,-19 1133,-19 1133,0 1186,0 1186,-19"/>
<text text-anchor="middle" x="1159.5" y="-7" font-family="Helvetica,sans-Serif" font-size="10.00">cstddef</text>
</a>
</g>
</g>
<!-- Node10&#45;&gt;Node11 -->
<g id="edge15_Node000010_Node000011" class="edge">
<title>Node10&#45;&gt;Node11</title>
<g id="a_edge15_Node000010_Node000011"><a xlink:title=" ">
<path fill="none" stroke="#63b8ff" d="M1159.5,-54.75C1159.5,-47.8 1159.5,-37.85 1159.5,-29.13"/>
<polygon fill="#63b8ff" stroke="#63b8ff" points="1163,-29.09 1159.5,-19.09 1156,-29.09 1163,-29.09"/>
</a>
</g>
</g>
<!-- Node10&#45;&gt;Node12 -->
<g id="edge16_Node000010_Node000012" class="edge">
<title>Node10&#45;&gt;Node12</title>
<g id="a_edge16_Node000010_Node000012"><a xlink:title=" ">
<path fill="none" stroke="#63b8ff" d="M1177.98,-54.98C1196.48,-46.46 1225.18,-33.23 1246.48,-23.41"/>
<polygon fill="#63b8ff" stroke="#63b8ff" points="1248.07,-26.53 1255.69,-19.17 1245.14,-20.18 1248.07,-26.53"/>
</a>
</g>
</g>
<!-- Node13 -->
<g id="Node000013" class="node">
<title>Node13</title>
<g id="a_Node000013"><a xlink:title=" ">
<polygon fill="#e0e0e0" stroke="#999999" points="996,-19 883,-19 883,0 996,0 996,-19"/>
<text text-anchor="middle" x="939.5" y="-7" font-family="Helvetica,sans-Serif" font-size="10.00">Kokkos_Macros.hpp</text>
</a>
</g>
</g>
<!-- Node10&#45;&gt;Node13 -->
<g id="edge17_Node000010_Node000013" class="edge">
<title>Node10&#45;&gt;Node13</title>
<g id="a_edge17_Node000010_Node000013"><a xlink:title=" ">
<path fill="none" stroke="#63b8ff" d="M1124.15,-54.98C1086.34,-45.87 1026.24,-31.4 984.93,-21.45"/>
<polygon fill="#63b8ff" stroke="#63b8ff" points="985.67,-18.02 975.12,-19.08 984.03,-24.83 985.67,-18.02"/>
</a>
</g>
</g>
<!-- Node14 -->
<g id="Node000014" class="node">
<title>Node14</title>
<g id="a_Node000014"><a xlink:title=" ">
<polygon fill="#e0e0e0" stroke="#999999" points="1114.5,-19 1014.5,-19 1014.5,0 1114.5,0 1114.5,-19"/>
<text text-anchor="middle" x="1064.5" y="-7" font-family="Helvetica,sans-Serif" font-size="10.00">Kokkos_Core.hpp</text>
</a>
</g>
</g>
<!-- Node10&#45;&gt;Node14 -->
<g id="edge18_Node000010_Node000014" class="edge">
<title>Node10&#45;&gt;Node14</title>
<g id="a_edge18_Node000010_Node000014"><a xlink:title=" ">
<path fill="none" stroke="#63b8ff" d="M1144.24,-54.98C1129.37,-46.69 1106.52,-33.94 1089.08,-24.22"/>
<polygon fill="#63b8ff" stroke="#63b8ff" points="1090.48,-20.99 1080.04,-19.17 1087.07,-27.1 1090.48,-20.99"/>
</a>
</g>
</g>
<!-- Node15&#45;&gt;Node5 -->
<g id="edge32_Node000015_Node000005" class="edge">
<title>Node15&#45;&gt;Node5</title>
<g id="a_edge32_Node000015_Node000005"><a xlink:title=" ">
<path fill="none" stroke="#63b8ff" d="M851.67,-164.87C831.6,-156.08 799.74,-141.93 772.5,-129 755.44,-120.91 752.71,-114.98 734.5,-110 517.15,-50.58 448.89,-109.78 221.65,-73.61"/>
<polygon fill="#63b8ff" stroke="#63b8ff" points="222.2,-70.15 211.76,-71.99 221.07,-77.06 222.2,-70.15"/>
</a>
</g>
</g>
<!-- Node15&#45;&gt;Node9 -->
<g id="edge31_Node000015_Node000009" class="edge">
<title>Node15&#45;&gt;Node9</title>
<g id="a_edge31_Node000015_Node000009"><a xlink:title=" ">
<path fill="none" stroke="#63b8ff" d="M917.63,-166.4C920.97,-165.92 924.29,-165.45 927.5,-165 1044.29,-148.76 1183.24,-131.92 1245.9,-124.47"/>
<polygon fill="#63b8ff" stroke="#63b8ff" points="1246.48,-127.92 1255.99,-123.27 1245.65,-120.97 1246.48,-127.92"/>
</a>
</g>
</g>
<!-- Node15&#45;&gt;Node10 -->
<g id="edge28_Node000015_Node000010" class="edge">
<title>Node15&#45;&gt;Node10</title>
<g id="a_edge28_Node000015_Node000010"><a xlink:title=" ">
<path fill="none" stroke="#63b8ff" d="M880.57,-164.6C895.25,-150.73 925.67,-124.09 956.5,-110 981.52,-98.56 1048.76,-84.96 1099.05,-75.83"/>
<polygon fill="#63b8ff" stroke="#63b8ff" points="1099.96,-79.23 1109.18,-74.01 1098.72,-72.34 1099.96,-79.23"/>
</a>
</g>
</g>
<!-- Node16 -->
<g id="Node000016" class="node">
<title>Node16</title>
<g id="a_Node000016"><a xlink:href="_linear_solver_types_8h.html" target="_top" xlink:title=" ">
<polygon fill="white" stroke="#666666" points="895.5,-129 781.5,-129 781.5,-110 895.5,-110 895.5,-129"/>
<text text-anchor="middle" x="838.5" y="-117" font-family="Helvetica,sans-Serif" font-size="10.00">LinearSolverTypes.h</text>
</a>
</g>
</g>
<!-- Node15&#45;&gt;Node16 -->
<g id="edge20_Node000015_Node000016" class="edge">
<title>Node15&#45;&gt;Node16</title>
<g id="a_edge20_Node000015_Node000016"><a xlink:title=" ">
<path fill="none" stroke="#63b8ff" d="M866.05,-164.75C861.49,-157.42 854.83,-146.73 849.21,-137.7"/>
<polygon fill="#63b8ff" stroke="#63b8ff" points="852.1,-135.73 843.85,-129.09 846.16,-139.43 852.1,-135.73"/>
</a>
</g>
</g>
<!-- Node15&#45;&gt;Node23 -->
<g id="edge29_Node000015_Node000023" class="edge">
<title>Node15&#45;&gt;Node23</title>
<g id="a_edge29_Node000015_Node000023"><a xlink:title=" ">
<path fill="none" stroke="#63b8ff" d="M837.28,-164.98C800.74,-155.89 742.72,-141.46 702.74,-131.51"/>
<polygon fill="#63b8ff" stroke="#63b8ff" points="703.54,-128.1 692.99,-129.08 701.85,-134.89 703.54,-128.1"/>
</a>
</g>
</g>
<!-- Node15&#45;&gt;Node24 -->
<g id="edge30_Node000015_Node000024" class="edge">
<title>Node15&#45;&gt;Node24</title>
<g id="a_edge30_Node000015_Node000024"><a xlink:title=" ">
<path fill="none" stroke="#63b8ff" d="M899.46,-164.98C928.8,-156.05 975.1,-141.94 1007.69,-132.02"/>
<polygon fill="#63b8ff" stroke="#63b8ff" points="1008.78,-135.34 1017.32,-129.08 1006.74,-128.65 1008.78,-135.34"/>
</a>
</g>
</g>
<!-- Node16&#45;&gt;Node10 -->
<g id="edge21_Node000016_Node000010" class="edge">
<title>Node16&#45;&gt;Node10</title>
<g id="a_edge21_Node000016_Node000010"><a xlink:title=" ">
<path fill="none" stroke="#63b8ff" d="M890.07,-109.98C946.62,-100.65 1037.31,-85.67 1097.64,-75.71"/>
<polygon fill="#63b8ff" stroke="#63b8ff" points="1098.49,-79.12 1107.79,-74.04 1097.35,-72.21 1098.49,-79.12"/>
</a>
</g>
</g>
<!-- Node17 -->
<g id="Node000017" class="node">
<title>Node17</title>
<g id="a_Node000017"><a xlink:title=" ">
<polygon fill="#e0e0e0" stroke="#999999" points="1089.5,-74 911.5,-74 911.5,-55 1089.5,-55 1089.5,-74"/>
<text text-anchor="middle" x="1000.5" y="-62" font-family="Helvetica,sans-Serif" font-size="10.00">Tpetra_Details_DefaultTypes.hpp</text>
</a>
</g>
</g>
<!-- Node16&#45;&gt;Node17 -->
<g id="edge22_Node000016_Node000017" class="edge">
<title>Node16&#45;&gt;Node17</title>
<g id="a_edge22_Node000016_Node000017"><a xlink:title=" ">
<path fill="none" stroke="#63b8ff" d="M864.53,-109.98C891.61,-101.13 934.21,-87.19 964.51,-77.28"/>
<polygon fill="#63b8ff" stroke="#63b8ff" points="965.85,-80.52 974.27,-74.08 963.68,-73.87 965.85,-80.52"/>
</a>
</g>
</g>
<!-- Node18 -->
<g id="Node000018" class="node">
<title>Node18</title>
<g id="a_Node000018"><a xlink:title=" ">
<polygon fill="#e0e0e0" stroke="#999999" points="349,-74 230,-74 230,-55 349,-55 349,-74"/>
<text text-anchor="middle" x="289.5" y="-62" font-family="Helvetica,sans-Serif" font-size="10.00">Tpetra_CrsGraph.hpp</text>
</a>
</g>
</g>
<!-- Node16&#45;&gt;Node18 -->
<g id="edge23_Node000016_Node000018" class="edge">
<title>Node16&#45;&gt;Node18</title>
<g id="a_edge23_Node000016_Node000018"><a xlink:title=" ">
<path fill="none" stroke="#63b8ff" d="M781.17,-111.48C776.54,-110.96 771.95,-110.46 767.5,-110 589.27,-91.49 541.68,-93.09 359.52,-74.07"/>
<polygon fill="#63b8ff" stroke="#63b8ff" points="359.64,-70.56 349.32,-73 358.9,-77.52 359.64,-70.56"/>
</a>
</g>
</g>
<!-- Node19 -->
<g id="Node000019" class="node">
<title>Node19</title>
<g id="a_Node000019"><a xlink:title=" ">
<polygon fill="#e0e0e0" stroke="#999999" points="489.5,-74 367.5,-74 367.5,-55 489.5,-55 489.5,-74"/>
<text text-anchor="middle" x="428.5" y="-62" font-family="Helvetica,sans-Serif" font-size="10.00">Tpetra_CrsMatrix.hpp</text>
</a>
</g>
</g>
<!-- Node16&#45;&gt;Node19 -->
<g id="edge24_Node000016_Node000019" class="edge">
<title>Node16&#45;&gt;Node19</title>
<g id="a_edge24_Node000016_Node000019"><a xlink:title=" ">
<path fill="none" stroke="#63b8ff" d="M781.49,-111.13C707.85,-101.61 579.65,-85.04 499.69,-74.7"/>
<polygon fill="#63b8ff" stroke="#63b8ff" points="500.07,-71.22 489.7,-73.41 499.17,-78.16 500.07,-71.22"/>
</a>
</g>
</g>
<!-- Node20 -->
<g id="Node000020" class="node">
<title>Node20</title>
<g id="a_Node000020"><a xlink:title=" ">
<polygon fill="#e0e0e0" stroke="#999999" points="611.5,-74 507.5,-74 507.5,-55 611.5,-55 611.5,-74"/>
<text text-anchor="middle" x="559.5" y="-62" font-family="Helvetica,sans-Serif" font-size="10.00">Tpetra_Vector.hpp</text>
</a>
</g>
</g>
<!-- Node16&#45;&gt;Node20 -->
<g id="edge25_Node000016_Node000020" class="edge">
<title>Node16&#45;&gt;Node20</title>
<g id="a_edge25_Node000016_Node000020"><a xlink:title=" ">
<path fill="none" stroke="#63b8ff" d="M793.67,-109.98C745.01,-100.74 667.24,-85.97 614.81,-76.01"/>
<polygon fill="#63b8ff" stroke="#63b8ff" points="615.16,-72.51 604.68,-74.08 613.85,-79.39 615.16,-72.51"/>
</a>
</g>
</g>
<!-- Node21 -->
<g id="Node000021" class="node">
<title>Node21</title>
<g id="a_Node000021"><a xlink:title=" ">
<polygon fill="#e0e0e0" stroke="#999999" points="759,-74 630,-74 630,-55 759,-55 759,-74"/>
<text text-anchor="middle" x="694.5" y="-62" font-family="Helvetica,sans-Serif" font-size="10.00">Tpetra_MultiVector.hpp</text>
</a>
</g>
</g>
<!-- Node16&#45;&gt;Node21 -->
<g id="edge26_Node000016_Node000021" class="edge">
<title>Node16&#45;&gt;Node21</title>
<g id="a_edge26_Node000016_Node000021"><a xlink:title=" ">
<path fill="none" stroke="#63b8ff" d="M815.36,-109.98C791.68,-101.27 754.63,-87.63 727.79,-77.75"/>
<polygon fill="#63b8ff" stroke="#63b8ff" points="728.65,-74.34 718.06,-74.17 726.23,-80.91 728.65,-74.34"/>
</a>
</g>
</g>
<!-- Node22 -->
<g id="Node000022" class="node">
<title>Node22</title>
<g id="a_Node000022"><a xlink:title=" ">
<polygon fill="#e0e0e0" stroke="#999999" points="893.5,-74 777.5,-74 777.5,-55 893.5,-55 893.5,-74"/>
<text text-anchor="middle" x="835.5" y="-62" font-family="Helvetica,sans-Serif" font-size="10.00">Tpetra_Operator.hpp</text>
</a>
</g>
</g>
<!-- Node16&#45;&gt;Node22 -->
<g id="edge27_Node000016_Node000022" class="edge">
<title>Node16&#45;&gt;Node22</title>
<g id="a_edge27_Node000016_Node000022"><a xlink:title=" ">
<path fill="none" stroke="#63b8ff" d="M838,-109.75C837.61,-102.8 837.05,-92.85 836.55,-84.13"/>
<polygon fill="#63b8ff" stroke="#63b8ff" points="840.05,-83.88 835.99,-74.09 833.06,-84.27 840.05,-83.88"/>
</a>
</g>
</g>
</g>
</svg>

<g id="navigator" transform="translate(0 0)" fill="#404254">
  <rect fill="#f2f5e9" fill-opacity="0.5" stroke="#606060" stroke-width=".5" x="0" y="0" width="60" height="60"/>
  <use id="zoomplus" xlink:href="#zoomPlus" x="17" y="9" onmousedown="handleZoom(evt,'in')"/>
  <use id="zoomminus" xlink:href="#zoomMin" x="42" y="9" onmousedown="handleZoom(evt,'out')"/>
  <use id="reset" xlink:href="#resetDef" x="30" y="36" onmousedown="handleReset()"/>
   <use id="arrowup" xlink:href="#arrowUp" x="0" y="0" onmousedown="handlePan(0,-1)"/>
  <use id="arrowright" xlink:href="#arrowRight" x="0" y="0" onmousedown="handlePan(1,0)"/>
  <use id="arrowdown" xlink:href="#arrowDown" x="0" y="0" onmousedown="handlePan(0,1)"/>
  <use id="arrowleft" xlink:href="#arrowLeft" x="0" y="0" onmousedown="handlePan(-1,0)"/>
</g>
<svg viewBox="0 0 15 15" width="100%" height="30px" preserveAspectRatio="xMaxYMin meet">
 <g id="arrow_out" transform="scale(0.3 0.3)">
  <a xlink:href="_solver_algorithm_driver_8_c__incl_org.svg" target="_base">
   <rect id="button" ry="5" rx="5" y="6" x="6" height="38" width="38"
        fill="#f2f5e9" fill-opacity="0.5" stroke="#606060" stroke-width="1.0"/>
   <path id="arrow"
     d="M 11.500037,31.436501 C 11.940474,20.09759 22.043105,11.32322 32.158766,21.979434 L 37.068811,17.246167 C 37.068811,17.246167 37.088388,32 37.088388,32 L 22.160133,31.978069 C 22.160133,31.978069 26.997745,27.140456 26.997745,27.140456 C 18.528582,18.264221 13.291696,25.230495 11.500037,31.436501 z"
     style="fill:#404040;"/>
  </a>
 </g>
</svg>

<style type='text/css'>
<![CDATA[
[data-mouse-over-selected='false'] { opacity: 0.7; }
[data-mouse-over-selected='true']  { opacity: 1.0; }
]]>
</style>
<script type="application/ecmascript"><![CDATA[
document.addEventListener('DOMContentLoaded', (event) => {
  highlightEdges();
  highlightAdjacentNodes();
});
]]></script>
</svg>
