<?xml version="1.0" encoding="UTF-8" standalone="no"?>
<!DOCTYPE svg PUBLIC "-//W3C//DTD SVG 1.1//EN"
 "http://www.w3.org/Graphics/SVG/1.1/DTD/svg11.dtd">
<!-- Generated by graphviz version 2.43.0 (0)
 -->
<!-- Title: SolutionOptions.h Pages: 1 -->
<svg width="334pt" height="140pt"
 viewBox="0.00 0.00 333.50 140.00" xmlns="http://www.w3.org/2000/svg" xmlns:xlink="http://www.w3.org/1999/xlink">
<g id="graph0" class="graph" transform="scale(1 1) rotate(0) translate(4 136)">
<title>SolutionOptions.h</title>
<polygon fill="white" stroke="transparent" points="-4,4 -4,-136 329.5,-136 329.5,4 -4,4"/>
<!-- Node1 -->
<g id="node1" class="node">
<title>Node1</title>
<g id="a_node1"><a xlink:title=" ">
<polygon fill="#bfbfbf" stroke="black" points="83.5,-112.5 83.5,-131.5 186.5,-131.5 186.5,-112.5 83.5,-112.5"/>
<text text-anchor="middle" x="135" y="-119.5" font-family="Helvetica,sans-Serif" font-size="10.00">SolutionOptions.h</text>
</a>
</g>
</g>
<!-- Node2 -->
<g id="node2" class="node">
<title>Node2</title>
<g id="a_node2"><a xlink:href="_enums_8h.html" target="_top" xlink:title=" ">
<polygon fill="white" stroke="black" points="22.5,-56.5 22.5,-75.5 81.5,-75.5 81.5,-56.5 22.5,-56.5"/>
<text text-anchor="middle" x="52" y="-63.5" font-family="Helvetica,sans-Serif" font-size="10.00">Enums.h</text>
</a>
</g>
</g>
<!-- Node1&#45;&gt;Node2 -->
<g id="edge1" class="edge">
<title>Node1&#45;&gt;Node2</title>
<path fill="none" stroke="midnightblue" d="M121.66,-112.32C108.84,-103.98 89.22,-91.21 74.06,-81.35"/>
<polygon fill="midnightblue" stroke="midnightblue" points="75.59,-78.17 65.3,-75.65 71.78,-84.04 75.59,-78.17"/>
</g>
<!-- Node3 -->
<g id="node3" class="node">
<title>Node3</title>
<g id="a_node3"><a xlink:title=" ">
<polygon fill="white" stroke="#bfbfbf" points="0,-0.5 0,-19.5 44,-19.5 44,-0.5 0,-0.5"/>
<text text-anchor="middle" x="22" y="-7.5" font-family="Helvetica,sans-Serif" font-size="10.00">string</text>
</a>
</g>
</g>
<!-- Node1&#45;&gt;Node3 -->
<g id="edge4" class="edge">
<title>Node1&#45;&gt;Node3</title>
<path fill="none" stroke="midnightblue" d="M83.28,-115.63C57.66,-110.06 28.88,-98.78 13,-76 3.55,-62.45 7.7,-43.39 13.07,-29.41"/>
<polygon fill="midnightblue" stroke="midnightblue" points="16.43,-30.46 17.21,-19.89 10.01,-27.67 16.43,-30.46"/>
</g>
<!-- Node4 -->
<g id="node4" class="node">
<title>Node4</title>
<g id="a_node4"><a xlink:title=" ">
<polygon fill="white" stroke="#bfbfbf" points="76,-0.5 76,-19.5 114,-19.5 114,-0.5 76,-0.5"/>
<text text-anchor="middle" x="95" y="-7.5" font-family="Helvetica,sans-Serif" font-size="10.00">map</text>
</a>
</g>
</g>
<!-- Node1&#45;&gt;Node4 -->
<g id="edge5" class="edge">
<title>Node1&#45;&gt;Node4</title>
<path fill="none" stroke="midnightblue" d="M131.86,-112.37C125.38,-94.54 110.38,-53.3 101.64,-29.27"/>
<polygon fill="midnightblue" stroke="midnightblue" points="104.83,-27.79 98.12,-19.59 98.25,-30.19 104.83,-27.79"/>
</g>
<!-- Node5 -->
<g id="node5" class="node">
<title>Node5</title>
<g id="a_node5"><a xlink:title=" ">
<polygon fill="white" stroke="#bfbfbf" points="138.5,-56.5 138.5,-75.5 183.5,-75.5 183.5,-56.5 138.5,-56.5"/>
<text text-anchor="middle" x="161" y="-63.5" font-family="Helvetica,sans-Serif" font-size="10.00">utility</text>
</a>
</g>
</g>
<!-- Node1&#45;&gt;Node5 -->
<g id="edge6" class="edge">
<title>Node1&#45;&gt;Node5</title>
<path fill="none" stroke="midnightblue" d="M139.29,-112.08C142.85,-104.69 148.02,-93.95 152.42,-84.81"/>
<polygon fill="midnightblue" stroke="midnightblue" points="155.6,-86.28 156.79,-75.75 149.29,-83.24 155.6,-86.28"/>
</g>
<!-- Node6 -->
<g id="node6" class="node">
<title>Node6</title>
<g id="a_node6"><a xlink:title=" ">
<polygon fill="white" stroke="#bfbfbf" points="202,-56.5 202,-75.5 260,-75.5 260,-56.5 202,-56.5"/>
<text text-anchor="middle" x="231" y="-63.5" font-family="Helvetica,sans-Serif" font-size="10.00">memory</text>
</a>
</g>
</g>
<!-- Node1&#45;&gt;Node6 -->
<g id="edge7" class="edge">
<title>Node1&#45;&gt;Node6</title>
<path fill="none" stroke="midnightblue" d="M150.42,-112.32C165.54,-103.82 188.82,-90.73 206.47,-80.8"/>
<polygon fill="midnightblue" stroke="midnightblue" points="208.61,-83.61 215.61,-75.65 205.18,-77.51 208.61,-83.61"/>
</g>
<!-- Node7 -->
<g id="node7" class="node">
<title>Node7</title>
<g id="a_node7"><a xlink:title=" ">
<polygon fill="white" stroke="#bfbfbf" points="278.5,-56.5 278.5,-75.5 325.5,-75.5 325.5,-56.5 278.5,-56.5"/>
<text text-anchor="middle" x="302" y="-63.5" font-family="Helvetica,sans-Serif" font-size="10.00">vector</text>
</a>
</g>
</g>
<!-- Node1&#45;&gt;Node7 -->
<g id="edge8" class="edge">
<title>Node1&#45;&gt;Node7</title>
<path fill="none" stroke="midnightblue" d="M161.46,-112.44C190.51,-103.05 237.19,-87.96 268.71,-77.77"/>
<polygon fill="midnightblue" stroke="midnightblue" points="269.92,-81.05 278.36,-74.64 267.77,-74.39 269.92,-81.05"/>
</g>
<!-- Node2&#45;&gt;Node3 -->
<g id="edge2" class="edge">
<title>Node2&#45;&gt;Node3</title>
<path fill="none" stroke="midnightblue" d="M47.05,-56.08C42.9,-48.61 36.85,-37.72 31.73,-28.52"/>
<polygon fill="midnightblue" stroke="midnightblue" points="34.78,-26.79 26.86,-19.75 28.66,-30.19 34.78,-26.79"/>
</g>
<!-- Node2&#45;&gt;Node4 -->
<g id="edge3" class="edge">
<title>Node2&#45;&gt;Node4</title>
<path fill="none" stroke="midnightblue" d="M59.1,-56.08C65.24,-48.38 74.27,-37.03 81.74,-27.65"/>
<polygon fill="midnightblue" stroke="midnightblue" points="84.54,-29.75 88.03,-19.75 79.06,-25.39 84.54,-29.75"/>
</g>
</g>
</svg>
