<?xml version="1.0" encoding="UTF-8" standalone="no"?>
<!DOCTYPE svg PUBLIC "-//W3C//DTD SVG 1.1//EN"
 "http://www.w3.org/Graphics/SVG/1.1/DTD/svg11.dtd">
<!-- Generated by graphviz version 2.43.0 (0)
 -->
<!-- Title: SparsifiedEdgeLaplacian.C Pages: 1 -->
<svg width="2034pt" height="368pt"
 viewBox="0.00 0.00 2034.39 368.00" xmlns="http://www.w3.org/2000/svg" xmlns:xlink="http://www.w3.org/1999/xlink">
<g id="graph0" class="graph" transform="scale(1 1) rotate(0) translate(4 364)">
<title>SparsifiedEdgeLaplacian.C</title>
<!-- Node1 -->
<g id="Node000001" class="node">
<title>Node1</title>
<g id="a_Node000001"><a xlink:title=" ">
<polygon fill="#999999" stroke="#666666" points="1243.39,-360 1098.39,-360 1098.39,-341 1243.39,-341 1243.39,-360"/>
<text text-anchor="middle" x="1170.89" y="-348" font-family="Helvetica,sans-Serif" font-size="10.00">SparsifiedEdgeLaplacian.C</text>
</a>
</g>
</g>
<!-- Node2 -->
<g id="Node000002" class="node">
<title>Node2</title>
<g id="a_Node000002"><a xlink:href="_sparsified_edge_laplacian_8h.html" target="_top" xlink:title=" ">
<polygon fill="white" stroke="#666666" points="519.39,-305 370.39,-305 370.39,-275 519.39,-275 519.39,-305"/>
<text text-anchor="start" x="378.39" y="-293" font-family="Helvetica,sans-Serif" font-size="10.00">matrix_free/SparsifiedEdge</text>
<text text-anchor="middle" x="444.89" y="-282" font-family="Helvetica,sans-Serif" font-size="10.00">Laplacian.h</text>
</a>
</g>
</g>
<!-- Node1&#45;&gt;Node2 -->
<g id="edge1_Node000001_Node000002" class="edge">
<title>Node1&#45;&gt;Node2</title>
<g id="a_edge1_Node000001_Node000002"><a xlink:title=" ">
<path fill="none" stroke="#63b8ff" d="M1098.29,-343.65C963.09,-332.76 673.46,-309.42 529.59,-297.82"/>
<polygon fill="#63b8ff" stroke="#63b8ff" points="529.73,-294.33 519.49,-297.01 529.17,-301.3 529.73,-294.33"/>
</a>
</g>
</g>
<!-- Node3 -->
<g id="Node000003" class="node">
<title>Node3</title>
<g id="a_Node000003"><a xlink:href="_polynomial_orders_8h.html" target="_top" xlink:title=" ">
<polygon fill="white" stroke="#666666" points="959.39,-239 786.39,-239 786.39,-220 959.39,-220 959.39,-239"/>
<text text-anchor="middle" x="872.89" y="-227" font-family="Helvetica,sans-Serif" font-size="10.00">matrix_free/PolynomialOrders.h</text>
</a>
</g>
</g>
<!-- Node1&#45;&gt;Node3 -->
<g id="edge23_Node000001_Node000003" class="edge">
<title>Node1&#45;&gt;Node3</title>
<g id="a_edge23_Node000001_Node000003"><a xlink:title=" ">
<path fill="none" stroke="#63b8ff" d="M1149.46,-340.94C1097.5,-320.19 964.65,-267.14 903.96,-242.91"/>
<polygon fill="#63b8ff" stroke="#63b8ff" points="905.11,-239.6 894.53,-239.14 902.52,-246.1 905.11,-239.6"/>
</a>
</g>
</g>
<!-- Node11 -->
<g id="Node000011" class="node">
<title>Node11</title>
<g id="a_Node000011"><a xlink:href="_hex_vertex_coordinates_8h.html" target="_top" xlink:title=" ">
<polygon fill="white" stroke="#666666" points="1648.39,-239 1453.39,-239 1453.39,-220 1648.39,-220 1648.39,-239"/>
<text text-anchor="middle" x="1550.89" y="-227" font-family="Helvetica,sans-Serif" font-size="10.00">matrix_free/HexVertexCoordinates.h</text>
</a>
</g>
</g>
<!-- Node1&#45;&gt;Node11 -->
<g id="edge10_Node000001_Node000011" class="edge">
<title>Node1&#45;&gt;Node11</title>
<g id="a_edge10_Node000001_Node000011"><a xlink:title=" ">
<path fill="none" stroke="#63b8ff" d="M1198.22,-340.94C1265.24,-319.95 1437.81,-265.91 1513.91,-242.08"/>
<polygon fill="#63b8ff" stroke="#63b8ff" points="1515.06,-245.39 1523.55,-239.06 1512.96,-238.71 1515.06,-245.39"/>
</a>
</g>
</g>
<!-- Node19 -->
<g id="Node000019" class="node">
<title>Node19</title>
<g id="a_Node000019"><a xlink:href="_valid_simd_length_8h.html" target="_top" xlink:title=" ">
<polygon fill="white" stroke="#666666" points="1144.39,-239 977.39,-239 977.39,-220 1144.39,-220 1144.39,-239"/>
<text text-anchor="middle" x="1060.89" y="-227" font-family="Helvetica,sans-Serif" font-size="10.00">matrix_free/ValidSimdLength.h</text>
</a>
</g>
</g>
<!-- Node1&#45;&gt;Node19 -->
<g id="edge24_Node000001_Node000019" class="edge">
<title>Node1&#45;&gt;Node19</title>
<g id="a_edge24_Node000001_Node000019"><a xlink:title=" ">
<path fill="none" stroke="#63b8ff" d="M1138.71,-340.97C1119.31,-334.24 1095.59,-322.92 1080.89,-305 1067.92,-289.18 1063.3,-265.72 1061.69,-249.36"/>
<polygon fill="#63b8ff" stroke="#63b8ff" points="1065.18,-249.09 1060.99,-239.36 1058.2,-249.58 1065.18,-249.09"/>
</a>
</g>
</g>
<!-- Node20 -->
<g id="Node000020" class="node">
<title>Node20</title>
<g id="a_Node000020"><a xlink:href="_tensor_operations_8h.html" target="_top" xlink:title=" ">
<polygon fill="white" stroke="#666666" points="1759.89,-184 1589.89,-184 1589.89,-165 1759.89,-165 1759.89,-184"/>
<text text-anchor="middle" x="1674.89" y="-172" font-family="Helvetica,sans-Serif" font-size="10.00">matrix_free/TensorOperations.h</text>
</a>
</g>
</g>
<!-- Node1&#45;&gt;Node20 -->
<g id="edge29_Node000001_Node000020" class="edge">
<title>Node1&#45;&gt;Node20</title>
<g id="a_edge29_Node000001_Node000020"><a xlink:title=" ">
<path fill="none" stroke="#63b8ff" d="M1243.55,-348.3C1375.81,-345.36 1644.97,-335.64 1673.89,-305 1702.09,-275.12 1690.54,-221.91 1681.62,-193.9"/>
<polygon fill="#63b8ff" stroke="#63b8ff" points="1684.85,-192.53 1678.3,-184.2 1678.22,-194.79 1684.85,-192.53"/>
</a>
</g>
</g>
<!-- Node21 -->
<g id="Node000021" class="node">
<title>Node21</title>
<g id="a_Node000021"><a xlink:href="_geometric_functions_8h.html" target="_top" xlink:title=" ">
<polygon fill="white" stroke="#666666" points="1664.39,-299.5 1481.39,-299.5 1481.39,-280.5 1664.39,-280.5 1664.39,-299.5"/>
<text text-anchor="middle" x="1572.89" y="-287.5" font-family="Helvetica,sans-Serif" font-size="10.00">matrix_free/GeometricFunctions.h</text>
</a>
</g>
</g>
<!-- Node1&#45;&gt;Node21 -->
<g id="edge32_Node000001_Node000021" class="edge">
<title>Node1&#45;&gt;Node21</title>
<g id="a_edge32_Node000001_Node000021"><a xlink:title=" ">
<path fill="none" stroke="#63b8ff" d="M1229.34,-340.99C1302.29,-330.38 1426.83,-312.26 1504.23,-300.99"/>
<polygon fill="#63b8ff" stroke="#63b8ff" points="1504.97,-304.42 1514.36,-299.52 1503.96,-297.49 1504.97,-304.42"/>
</a>
</g>
</g>
<!-- Node22 -->
<g id="Node000022" class="node">
<title>Node22</title>
<g id="a_Node000022"><a xlink:href="_stk_simd_connectivity_map_8h.html" target="_top" xlink:title=" ">
<polygon fill="white" stroke="#666666" points="962.39,-305 783.39,-305 783.39,-275 962.39,-275 962.39,-305"/>
<text text-anchor="start" x="791.39" y="-293" font-family="Helvetica,sans-Serif" font-size="10.00">matrix_free/StkSimdConnectivity</text>
<text text-anchor="middle" x="872.89" y="-282" font-family="Helvetica,sans-Serif" font-size="10.00">Map.h</text>
</a>
</g>
</g>
<!-- Node1&#45;&gt;Node22 -->
<g id="edge36_Node000001_Node000022" class="edge">
<title>Node1&#45;&gt;Node22</title>
<g id="a_edge36_Node000001_Node000022"><a xlink:title=" ">
<path fill="none" stroke="#63b8ff" d="M1127.56,-340.99C1082.25,-332.1 1010.1,-317.94 954.14,-306.95"/>
<polygon fill="#63b8ff" stroke="#63b8ff" points="954.73,-303.5 944.24,-305.01 953.38,-310.37 954.73,-303.5"/>
</a>
</g>
</g>
<!-- Node23 -->
<g id="Node000023" class="node">
<title>Node23</title>
<g id="a_Node000023"><a xlink:href="_stk_simd_gathered_element_data_8h.html" target="_top" xlink:title=" ">
<polygon fill="white" stroke="#666666" points="1251.89,-305 1089.89,-305 1089.89,-275 1251.89,-275 1251.89,-305"/>
<text text-anchor="start" x="1097.89" y="-293" font-family="Helvetica,sans-Serif" font-size="10.00">matrix_free/StkSimdGathered</text>
<text text-anchor="middle" x="1170.89" y="-282" font-family="Helvetica,sans-Serif" font-size="10.00">ElementData.h</text>
</a>
</g>
</g>
<!-- Node1&#45;&gt;Node23 -->
<g id="edge41_Node000001_Node000023" class="edge">
<title>Node1&#45;&gt;Node23</title>
<g id="a_edge41_Node000001_Node000023"><a xlink:title=" ">
<path fill="none" stroke="#63b8ff" d="M1170.89,-340.87C1170.89,-334.11 1170.89,-324.35 1170.89,-315.26"/>
<polygon fill="#63b8ff" stroke="#63b8ff" points="1174.39,-315.11 1170.89,-305.11 1167.39,-315.11 1174.39,-315.11"/>
</a>
</g>
</g>
<!-- Node25 -->
<g id="Node000025" class="node">
<title>Node25</title>
<g id="a_Node000025"><a xlink:href="_kokkos_interface_8h.html" target="_top" xlink:title=" ">
<polygon fill="white" stroke="#666666" points="1908.89,-129 1804.89,-129 1804.89,-110 1908.89,-110 1908.89,-129"/>
<text text-anchor="middle" x="1856.89" y="-117" font-family="Helvetica,sans-Serif" font-size="10.00">KokkosInterface.h</text>
</a>
</g>
</g>
<!-- Node1&#45;&gt;Node25 -->
<g id="edge48_Node000001_Node000025" class="edge">
<title>Node1&#45;&gt;Node25</title>
<g id="a_edge48_Node000001_Node000025"><a xlink:title=" ">
<path fill="none" stroke="#63b8ff" d="M1243.46,-349.94C1368.3,-349.62 1617.77,-343.93 1694.89,-305 1770.69,-266.74 1826.61,-176.31 1847.7,-138.07"/>
<polygon fill="#63b8ff" stroke="#63b8ff" points="1850.85,-139.6 1852.5,-129.14 1844.68,-136.28 1850.85,-139.6"/>
</a>
</g>
</g>
<!-- Node2&#45;&gt;Node3 -->
<g id="edge2_Node000002_Node000003" class="edge">
<title>Node2&#45;&gt;Node3</title>
<g id="a_edge2_Node000002_Node000003"><a xlink:title=" ">
<path fill="none" stroke="#63b8ff" d="M519.44,-278.81C598.4,-268.02 722.23,-251.09 800.4,-240.41"/>
<polygon fill="#63b8ff" stroke="#63b8ff" points="801.21,-243.83 810.65,-239.01 800.27,-236.89 801.21,-243.83"/>
</a>
</g>
</g>
<!-- Node5 -->
<g id="Node000005" class="node">
<title>Node5</title>
<g id="a_Node000005"><a xlink:title=" ">
<polygon fill="#e0e0e0" stroke="#999999" points="1077.89,-19 977.89,-19 977.89,0 1077.89,0 1077.89,-19"/>
<text text-anchor="middle" x="1027.89" y="-7" font-family="Helvetica,sans-Serif" font-size="10.00">Kokkos_Core.hpp</text>
</a>
</g>
</g>
<!-- Node2&#45;&gt;Node5 -->
<g id="edge4_Node000002_Node000005" class="edge">
<title>Node2&#45;&gt;Node5</title>
<g id="a_edge4_Node000002_Node000005"><a xlink:title=" ">
<path fill="none" stroke="#63b8ff" d="M370.09,-289.77C262.51,-289.33 71.38,-282.24 19.89,-239 -2.67,-220.05 0.89,-204.96 0.89,-175.5 0.89,-175.5 0.89,-175.5 0.89,-118.5 0.89,-20.66 747.58,-11.15 967.59,-10.47"/>
<polygon fill="#63b8ff" stroke="#63b8ff" points="967.67,-13.97 977.66,-10.45 967.65,-6.97 967.67,-13.97"/>
</a>
</g>
</g>
<!-- Node6 -->
<g id="Node000006" class="node">
<title>Node6</title>
<g id="a_Node000006"><a xlink:title=" ">
<polygon fill="#e0e0e0" stroke="#999999" points="128.89,-239 28.89,-239 28.89,-220 128.89,-220 128.89,-239"/>
<text text-anchor="middle" x="78.89" y="-227" font-family="Helvetica,sans-Serif" font-size="10.00">Teuchos_RCP.hpp</text>
</a>
</g>
</g>
<!-- Node2&#45;&gt;Node6 -->
<g id="edge5_Node000002_Node000006" class="edge">
<title>Node2&#45;&gt;Node6</title>
<g id="a_edge5_Node000002_Node000006"><a xlink:title=" ">
<path fill="none" stroke="#63b8ff" d="M370.38,-277.09C302.18,-266.19 202.5,-250.26 139.18,-240.14"/>
<polygon fill="#63b8ff" stroke="#63b8ff" points="139.38,-236.62 128.95,-238.5 138.27,-243.54 139.38,-236.62"/>
</a>
</g>
</g>
<!-- Node7 -->
<g id="Node000007" class="node">
<title>Node7</title>
<g id="a_Node000007"><a xlink:title=" ">
<polygon fill="#e0e0e0" stroke="#999999" points="268.89,-239 146.89,-239 146.89,-220 268.89,-220 268.89,-239"/>
<text text-anchor="middle" x="207.89" y="-227" font-family="Helvetica,sans-Serif" font-size="10.00">Tpetra_CrsMatrix.hpp</text>
</a>
</g>
</g>
<!-- Node2&#45;&gt;Node7 -->
<g id="edge6_Node000002_Node000007" class="edge">
<title>Node2&#45;&gt;Node7</title>
<g id="a_edge6_Node000002_Node000007"><a xlink:title=" ">
<path fill="none" stroke="#63b8ff" d="M388.12,-274.99C346.51,-264.72 290.81,-250.97 252.4,-241.49"/>
<polygon fill="#63b8ff" stroke="#63b8ff" points="253.09,-238.05 242.54,-239.05 251.41,-244.85 253.09,-238.05"/>
</a>
</g>
</g>
<!-- Node8 -->
<g id="Node000008" class="node">
<title>Node8</title>
<g id="a_Node000008"><a xlink:title=" ">
<polygon fill="#e0e0e0" stroke="#999999" points="592.89,-239 458.89,-239 458.89,-220 592.89,-220 592.89,-239"/>
<text text-anchor="middle" x="525.89" y="-227" font-family="Helvetica,sans-Serif" font-size="10.00">stk_mesh/base/Ngp.hpp</text>
</a>
</g>
</g>
<!-- Node2&#45;&gt;Node8 -->
<g id="edge7_Node000002_Node000008" class="edge">
<title>Node2&#45;&gt;Node8</title>
<g id="a_edge7_Node000002_Node000008"><a xlink:title=" ">
<path fill="none" stroke="#63b8ff" d="M464.5,-274.84C476.86,-265.91 492.79,-254.41 505.32,-245.35"/>
<polygon fill="#63b8ff" stroke="#63b8ff" points="507.69,-247.96 513.75,-239.27 503.6,-242.28 507.69,-247.96"/>
</a>
</g>
</g>
<!-- Node9 -->
<g id="Node000009" class="node">
<title>Node9</title>
<g id="a_Node000009"><a xlink:title=" ">
<polygon fill="#e0e0e0" stroke="#999999" points="768.39,-239 611.39,-239 611.39,-220 768.39,-220 768.39,-239"/>
<text text-anchor="middle" x="689.89" y="-227" font-family="Helvetica,sans-Serif" font-size="10.00">stk_mesh/base/NgpField.hpp</text>
</a>
</g>
</g>
<!-- Node2&#45;&gt;Node9 -->
<g id="edge8_Node000002_Node000009" class="edge">
<title>Node2&#45;&gt;Node9</title>
<g id="a_edge8_Node000002_Node000009"><a xlink:title=" ">
<path fill="none" stroke="#63b8ff" d="M503.57,-274.99C546.68,-264.7 604.41,-250.91 644.13,-241.43"/>
<polygon fill="#63b8ff" stroke="#63b8ff" points="645.15,-244.78 654.07,-239.05 643.53,-237.97 645.15,-244.78"/>
</a>
</g>
</g>
<!-- Node10 -->
<g id="Node000010" class="node">
<title>Node10</title>
<g id="a_Node000010"><a xlink:title=" ">
<polygon fill="#e0e0e0" stroke="#999999" points="440.39,-239 287.39,-239 287.39,-220 440.39,-220 440.39,-239"/>
<text text-anchor="middle" x="363.89" y="-227" font-family="Helvetica,sans-Serif" font-size="10.00">stk_mesh/base/Selector.hpp</text>
</a>
</g>
</g>
<!-- Node2&#45;&gt;Node10 -->
<g id="edge9_Node000002_Node000010" class="edge">
<title>Node2&#45;&gt;Node10</title>
<g id="a_edge9_Node000002_Node000010"><a xlink:title=" ">
<path fill="none" stroke="#63b8ff" d="M425.28,-274.84C412.92,-265.91 396.99,-254.41 384.46,-245.35"/>
<polygon fill="#63b8ff" stroke="#63b8ff" points="386.18,-242.28 376.03,-239.27 382.08,-247.96 386.18,-242.28"/>
</a>
</g>
</g>
<!-- Node4 -->
<g id="Node000004" class="node">
<title>Node4</title>
<g id="a_Node000004"><a xlink:title=" ">
<polygon fill="#e0e0e0" stroke="#999999" points="1324.39,-19 1255.39,-19 1255.39,0 1324.39,0 1324.39,-19"/>
<text text-anchor="middle" x="1289.89" y="-7" font-family="Helvetica,sans-Serif" font-size="10.00">type_traits</text>
</a>
</g>
</g>
<!-- Node3&#45;&gt;Node4 -->
<g id="edge3_Node000003_Node000004" class="edge">
<title>Node3&#45;&gt;Node4</title>
<g id="a_edge3_Node000003_Node000004"><a xlink:title=" ">
<path fill="none" stroke="#63b8ff" d="M887.38,-219.93C924.19,-198.49 1024.73,-142 1114.89,-110 1181.95,-86.2 1218.99,-122.68 1270.89,-74 1283.07,-62.57 1287.55,-43.68 1289.14,-29.47"/>
<polygon fill="#63b8ff" stroke="#63b8ff" points="1292.65,-29.54 1289.89,-19.31 1285.66,-29.02 1292.65,-29.54"/>
</a>
</g>
</g>
<!-- Node12 -->
<g id="Node000012" class="node">
<title>Node12</title>
<g id="a_Node000012"><a xlink:href="_local_array_8h.html" target="_top" xlink:title=" ">
<polygon fill="white" stroke="#666666" points="1579.89,-129 1443.89,-129 1443.89,-110 1579.89,-110 1579.89,-129"/>
<text text-anchor="middle" x="1511.89" y="-117" font-family="Helvetica,sans-Serif" font-size="10.00">matrix_free/LocalArray.h</text>
</a>
</g>
</g>
<!-- Node11&#45;&gt;Node12 -->
<g id="edge11_Node000011_Node000012" class="edge">
<title>Node11&#45;&gt;Node12</title>
<g id="a_edge11_Node000011_Node000012"><a xlink:title=" ">
<path fill="none" stroke="#63b8ff" d="M1551.09,-219.97C1551.1,-207.48 1550.06,-183.67 1542.89,-165 1539.06,-155.04 1532.55,-145.17 1526.47,-137.27"/>
<polygon fill="#63b8ff" stroke="#63b8ff" points="1529,-134.83 1519.97,-129.29 1523.57,-139.25 1529,-134.83"/>
</a>
</g>
</g>
<!-- Node16 -->
<g id="Node000016" class="node">
<title>Node16</title>
<g id="a_Node000016"><a xlink:href="_coefficients_8h.html" target="_top" xlink:title=" ">
<polygon fill="white" stroke="#666666" points="1533.39,-184 1390.39,-184 1390.39,-165 1533.39,-165 1533.39,-184"/>
<text text-anchor="middle" x="1461.89" y="-172" font-family="Helvetica,sans-Serif" font-size="10.00">matrix_free/Coefficients.h</text>
</a>
</g>
</g>
<!-- Node11&#45;&gt;Node16 -->
<g id="edge18_Node000011_Node000016" class="edge">
<title>Node11&#45;&gt;Node16</title>
<g id="a_edge18_Node000011_Node000016"><a xlink:title=" ">
<path fill="none" stroke="#63b8ff" d="M1536.59,-219.98C1522.79,-211.77 1501.65,-199.18 1485.38,-189.49"/>
<polygon fill="#63b8ff" stroke="#63b8ff" points="1486.83,-186.28 1476.45,-184.17 1483.25,-192.29 1486.83,-186.28"/>
</a>
</g>
</g>
<!-- Node17 -->
<g id="Node000017" class="node">
<title>Node17</title>
<g id="a_Node000017"><a xlink:href="_kokkos_view_types_8h.html" target="_top" xlink:title=" ">
<polygon fill="white" stroke="#666666" points="1371.89,-184 1199.89,-184 1199.89,-165 1371.89,-165 1371.89,-184"/>
<text text-anchor="middle" x="1285.89" y="-172" font-family="Helvetica,sans-Serif" font-size="10.00">matrix_free/KokkosViewTypes.h</text>
</a>
</g>
</g>
<!-- Node11&#45;&gt;Node17 -->
<g id="edge20_Node000011_Node000017" class="edge">
<title>Node11&#45;&gt;Node17</title>
<g id="a_edge20_Node000011_Node000017"><a xlink:title=" ">
<path fill="none" stroke="#63b8ff" d="M1508.31,-219.98C1462.18,-210.76 1388.53,-196.03 1338.73,-186.07"/>
<polygon fill="#63b8ff" stroke="#63b8ff" points="1339.29,-182.61 1328.8,-184.08 1337.92,-189.48 1339.29,-182.61"/>
</a>
</g>
</g>
<!-- Node12&#45;&gt;Node4 -->
<g id="edge17_Node000012_Node000004" class="edge">
<title>Node12&#45;&gt;Node4</title>
<g id="a_edge17_Node000012_Node000004"><a xlink:title=" ">
<path fill="none" stroke="#63b8ff" d="M1494.1,-109.84C1455.19,-90.92 1362.38,-45.77 1316.5,-23.45"/>
<polygon fill="#63b8ff" stroke="#63b8ff" points="1317.98,-20.27 1307.46,-19.05 1314.92,-26.57 1317.98,-20.27"/>
</a>
</g>
</g>
<!-- Node13 -->
<g id="Node000013" class="node">
<title>Node13</title>
<g id="a_Node000013"><a xlink:title=" ">
<polygon fill="#e0e0e0" stroke="#999999" points="1745.39,-74 1632.39,-74 1632.39,-55 1745.39,-55 1745.39,-74"/>
<text text-anchor="middle" x="1688.89" y="-62" font-family="Helvetica,sans-Serif" font-size="10.00">Kokkos_Macros.hpp</text>
</a>
</g>
</g>
<!-- Node12&#45;&gt;Node13 -->
<g id="edge12_Node000012_Node000013" class="edge">
<title>Node12&#45;&gt;Node13</title>
<g id="a_edge12_Node000012_Node000013"><a xlink:title=" ">
<path fill="none" stroke="#63b8ff" d="M1540.33,-109.98C1570.17,-101.05 1617.27,-86.94 1650.42,-77.02"/>
<polygon fill="#63b8ff" stroke="#63b8ff" points="1651.65,-80.3 1660.23,-74.08 1649.64,-73.6 1651.65,-80.3"/>
</a>
</g>
</g>
<!-- Node14 -->
<g id="Node000014" class="node">
<title>Node14</title>
<g id="a_Node000014"><a xlink:href="_kokkos_framework_8h.html" target="_top" xlink:title=" ">
<polygon fill="white" stroke="#666666" points="1261.39,-74 1086.39,-74 1086.39,-55 1261.39,-55 1261.39,-74"/>
<text text-anchor="middle" x="1173.89" y="-62" font-family="Helvetica,sans-Serif" font-size="10.00">matrix_free/KokkosFramework.h</text>
</a>
</g>
</g>
<!-- Node12&#45;&gt;Node14 -->
<g id="edge13_Node000012_Node000014" class="edge">
<title>Node12&#45;&gt;Node14</title>
<g id="a_edge13_Node000012_Node000014"><a xlink:title=" ">
<path fill="none" stroke="#63b8ff" d="M1457.58,-109.98C1397.8,-100.61 1301.76,-85.55 1238.24,-75.59"/>
<polygon fill="#63b8ff" stroke="#63b8ff" points="1238.76,-72.13 1228.34,-74.04 1237.68,-79.05 1238.76,-72.13"/>
</a>
</g>
</g>
<!-- Node14&#45;&gt;Node4 -->
<g id="edge16_Node000014_Node000004" class="edge">
<title>Node14&#45;&gt;Node4</title>
<g id="a_edge16_Node000014_Node000004"><a xlink:title=" ">
<path fill="none" stroke="#63b8ff" d="M1192.53,-54.98C1211.19,-46.46 1240.14,-33.23 1261.63,-23.41"/>
<polygon fill="#63b8ff" stroke="#63b8ff" points="1263.27,-26.51 1270.91,-19.17 1260.36,-20.14 1263.27,-26.51"/>
</a>
</g>
</g>
<!-- Node14&#45;&gt;Node5 -->
<g id="edge14_Node000014_Node000005" class="edge">
<title>Node14&#45;&gt;Node5</title>
<g id="a_edge14_Node000014_Node000005"><a xlink:title=" ">
<path fill="none" stroke="#63b8ff" d="M1150.43,-54.98C1126.31,-46.23 1088.52,-32.51 1061.29,-22.62"/>
<polygon fill="#63b8ff" stroke="#63b8ff" points="1062.37,-19.29 1051.77,-19.17 1059.98,-25.87 1062.37,-19.29"/>
</a>
</g>
</g>
<!-- Node15 -->
<g id="Node000015" class="node">
<title>Node15</title>
<g id="a_Node000015"><a xlink:title=" ">
<polygon fill="#e0e0e0" stroke="#999999" points="1213.89,-19 1103.89,-19 1103.89,0 1213.89,0 1213.89,-19"/>
<text text-anchor="middle" x="1158.89" y="-7" font-family="Helvetica,sans-Serif" font-size="10.00">stk_simd/Simd.hpp</text>
</a>
</g>
</g>
<!-- Node14&#45;&gt;Node15 -->
<g id="edge15_Node000014_Node000015" class="edge">
<title>Node14&#45;&gt;Node15</title>
<g id="a_edge15_Node000014_Node000015"><a xlink:title=" ">
<path fill="none" stroke="#63b8ff" d="M1171.41,-54.75C1169.42,-47.72 1166.57,-37.62 1164.08,-28.84"/>
<polygon fill="#63b8ff" stroke="#63b8ff" points="1167.41,-27.76 1161.32,-19.09 1160.68,-29.66 1167.41,-27.76"/>
</a>
</g>
</g>
<!-- Node16&#45;&gt;Node12 -->
<g id="edge19_Node000016_Node000012" class="edge">
<title>Node16&#45;&gt;Node12</title>
<g id="a_edge19_Node000016_Node000012"><a xlink:title=" ">
<path fill="none" stroke="#63b8ff" d="M1470.15,-164.75C1477.35,-157.11 1488,-145.82 1496.74,-136.56"/>
<polygon fill="#63b8ff" stroke="#63b8ff" points="1499.47,-138.76 1503.79,-129.09 1494.38,-133.96 1499.47,-138.76"/>
</a>
</g>
</g>
<!-- Node17&#45;&gt;Node14 -->
<g id="edge21_Node000017_Node000014" class="edge">
<title>Node17&#45;&gt;Node14</title>
<g id="a_edge21_Node000017_Node000014"><a xlink:title=" ">
<path fill="none" stroke="#63b8ff" d="M1286.81,-164.67C1287.7,-151.37 1287.43,-126.04 1274.89,-110 1262.58,-94.26 1243.55,-83.96 1225.31,-77.28"/>
<polygon fill="#63b8ff" stroke="#63b8ff" points="1226.19,-73.88 1215.59,-74.02 1223.96,-80.52 1226.19,-73.88"/>
</a>
</g>
</g>
<!-- Node18 -->
<g id="Node000018" class="node">
<title>Node18</title>
<g id="a_Node000018"><a xlink:title=" ">
<polygon fill="#e0e0e0" stroke="#999999" points="1265.89,-129 1123.89,-129 1123.89,-110 1265.89,-110 1265.89,-129"/>
<text text-anchor="middle" x="1194.89" y="-117" font-family="Helvetica,sans-Serif" font-size="10.00">stk_mesh/base/Types.hpp</text>
</a>
</g>
</g>
<!-- Node17&#45;&gt;Node18 -->
<g id="edge22_Node000017_Node000018" class="edge">
<title>Node17&#45;&gt;Node18</title>
<g id="a_edge22_Node000017_Node000018"><a xlink:title=" ">
<path fill="none" stroke="#63b8ff" d="M1271.27,-164.98C1257.03,-156.69 1235.14,-143.94 1218.44,-134.22"/>
<polygon fill="#63b8ff" stroke="#63b8ff" points="1220.18,-131.18 1209.78,-129.17 1216.66,-137.23 1220.18,-131.18"/>
</a>
</g>
</g>
<!-- Node19&#45;&gt;Node5 -->
<g id="edge26_Node000019_Node000005" class="edge">
<title>Node19&#45;&gt;Node5</title>
<g id="a_edge26_Node000019_Node000005"><a xlink:title=" ">
<path fill="none" stroke="#63b8ff" d="M1056.77,-219.86C1052.78,-211.05 1046.89,-196.89 1043.89,-184 1031.08,-128.89 1028.45,-61.7 1027.96,-29.49"/>
<polygon fill="#63b8ff" stroke="#63b8ff" points="1031.46,-29.27 1027.86,-19.3 1024.46,-29.33 1031.46,-29.27"/>
</a>
</g>
</g>
<!-- Node19&#45;&gt;Node15 -->
<g id="edge27_Node000019_Node000015" class="edge">
<title>Node19&#45;&gt;Node15</title>
<g id="a_edge27_Node000019_Node000015"><a xlink:title=" ">
<path fill="none" stroke="#63b8ff" d="M1059.09,-219.63C1054.09,-192.4 1042.56,-108.56 1077.89,-55 1087.62,-40.25 1103.97,-29.95 1119.44,-23.01"/>
<polygon fill="#63b8ff" stroke="#63b8ff" points="1120.99,-26.16 1128.9,-19.11 1118.32,-19.69 1120.99,-26.16"/>
</a>
</g>
</g>
<!-- Node19&#45;&gt;Node17 -->
<g id="edge25_Node000019_Node000017" class="edge">
<title>Node19&#45;&gt;Node17</title>
<g id="a_edge25_Node000019_Node000017"><a xlink:title=" ">
<path fill="none" stroke="#63b8ff" d="M1097.04,-219.98C1135.8,-210.86 1197.44,-196.33 1239.69,-186.38"/>
<polygon fill="#63b8ff" stroke="#63b8ff" points="1240.52,-189.78 1249.46,-184.08 1238.92,-182.97 1240.52,-189.78"/>
</a>
</g>
</g>
<!-- Node19&#45;&gt;Node18 -->
<g id="edge28_Node000019_Node000018" class="edge">
<title>Node19&#45;&gt;Node18</title>
<g id="a_edge28_Node000019_Node000018"><a xlink:title=" ">
<path fill="none" stroke="#63b8ff" d="M1071.86,-219.66C1094.74,-201.22 1147.81,-158.45 1176.19,-135.57"/>
<polygon fill="#63b8ff" stroke="#63b8ff" points="1178.56,-138.16 1184.15,-129.16 1174.16,-132.71 1178.56,-138.16"/>
</a>
</g>
</g>
<!-- Node20&#45;&gt;Node12 -->
<g id="edge30_Node000020_Node000012" class="edge">
<title>Node20&#45;&gt;Node12</title>
<g id="a_edge30_Node000020_Node000012"><a xlink:title=" ">
<path fill="none" stroke="#63b8ff" d="M1648.7,-164.98C1621.45,-156.13 1578.59,-142.19 1548.11,-132.28"/>
<polygon fill="#63b8ff" stroke="#63b8ff" points="1548.88,-128.85 1538.28,-129.08 1546.71,-135.5 1548.88,-128.85"/>
</a>
</g>
</g>
<!-- Node20&#45;&gt;Node13 -->
<g id="edge31_Node000020_Node000013" class="edge">
<title>Node20&#45;&gt;Node13</title>
<g id="a_edge31_Node000020_Node000013"><a xlink:title=" ">
<path fill="none" stroke="#63b8ff" d="M1676.04,-164.66C1678.3,-147.17 1683.41,-107.8 1686.46,-84.27"/>
<polygon fill="#63b8ff" stroke="#63b8ff" points="1689.95,-84.53 1687.77,-74.16 1683.01,-83.63 1689.95,-84.53"/>
</a>
</g>
</g>
<!-- Node21&#45;&gt;Node11 -->
<g id="edge33_Node000021_Node000011" class="edge">
<title>Node21&#45;&gt;Node11</title>
<g id="a_edge33_Node000021_Node000011"><a xlink:title=" ">
<path fill="none" stroke="#63b8ff" d="M1569.64,-280.37C1566.52,-272.07 1561.71,-259.28 1557.74,-248.72"/>
<polygon fill="#63b8ff" stroke="#63b8ff" points="1560.95,-247.3 1554.15,-239.17 1554.39,-249.76 1560.95,-247.3"/>
</a>
</g>
</g>
<!-- Node21&#45;&gt;Node13 -->
<g id="edge35_Node000021_Node000013" class="edge">
<title>Node21&#45;&gt;Node13</title>
<g id="a_edge35_Node000021_Node000013"><a xlink:title=" ">
<path fill="none" stroke="#63b8ff" d="M1614.21,-280.5C1661.5,-268.28 1736.57,-240.67 1768.89,-184 1791.16,-144.95 1741.88,-101.84 1711.14,-79.96"/>
<polygon fill="#63b8ff" stroke="#63b8ff" points="1712.88,-76.91 1702.66,-74.13 1708.91,-82.68 1712.88,-76.91"/>
</a>
</g>
</g>
<!-- Node21&#45;&gt;Node20 -->
<g id="edge34_Node000021_Node000020" class="edge">
<title>Node21&#45;&gt;Node20</title>
<g id="a_edge34_Node000021_Node000020"><a xlink:title=" ">
<path fill="none" stroke="#63b8ff" d="M1597.71,-280.42C1616.89,-272.54 1642.65,-259.03 1657.89,-239 1667.71,-226.09 1671.87,-207.93 1673.62,-194.33"/>
<polygon fill="#63b8ff" stroke="#63b8ff" points="1677.12,-194.5 1674.6,-184.21 1670.16,-193.82 1677.12,-194.5"/>
</a>
</g>
</g>
<!-- Node22&#45;&gt;Node3 -->
<g id="edge38_Node000022_Node000003" class="edge">
<title>Node22&#45;&gt;Node3</title>
<g id="a_edge38_Node000022_Node000003"><a xlink:title=" ">
<path fill="none" stroke="#63b8ff" d="M872.89,-274.84C872.89,-267.21 872.89,-257.7 872.89,-249.45"/>
<polygon fill="#63b8ff" stroke="#63b8ff" points="876.39,-249.27 872.89,-239.27 869.39,-249.27 876.39,-249.27"/>
</a>
</g>
</g>
<!-- Node22&#45;&gt;Node8 -->
<g id="edge39_Node000022_Node000008" class="edge">
<title>Node22&#45;&gt;Node8</title>
<g id="a_edge39_Node000022_Node000008"><a xlink:title=" ">
<path fill="none" stroke="#63b8ff" d="M789.77,-274.99C727.2,-264.44 642.87,-250.22 586.55,-240.73"/>
<polygon fill="#63b8ff" stroke="#63b8ff" points="586.82,-237.22 576.37,-239.01 585.65,-244.12 586.82,-237.22"/>
</a>
</g>
</g>
<!-- Node22&#45;&gt;Node10 -->
<g id="edge40_Node000022_Node000010" class="edge">
<title>Node22&#45;&gt;Node10</title>
<g id="a_edge40_Node000022_Node000010"><a xlink:title=" ">
<path fill="none" stroke="#63b8ff" d="M783.35,-278.71C688.77,-267.84 540.78,-250.83 448.21,-240.19"/>
<polygon fill="#63b8ff" stroke="#63b8ff" points="448.38,-236.69 438.04,-239.02 447.58,-243.64 448.38,-236.69"/>
</a>
</g>
</g>
<!-- Node22&#45;&gt;Node17 -->
<g id="edge37_Node000022_Node000017" class="edge">
<title>Node22&#45;&gt;Node17</title>
<g id="a_edge37_Node000022_Node000017"><a xlink:title=" ">
<path fill="none" stroke="#63b8ff" d="M962.68,-279.36C1018.6,-271.81 1091.53,-259.13 1153.89,-239 1193.59,-226.19 1236.61,-203.72 1262.4,-189.23"/>
<polygon fill="#63b8ff" stroke="#63b8ff" points="1264.44,-192.1 1271.39,-184.11 1260.97,-186.02 1264.44,-192.1"/>
</a>
</g>
</g>
<!-- Node23&#45;&gt;Node3 -->
<g id="edge43_Node000023_Node000003" class="edge">
<title>Node23&#45;&gt;Node3</title>
<g id="a_edge43_Node000023_Node000003"><a xlink:title=" ">
<path fill="none" stroke="#63b8ff" d="M1099.51,-274.99C1046.3,-264.54 974.77,-250.5 926.41,-241.01"/>
<polygon fill="#63b8ff" stroke="#63b8ff" points="926.95,-237.55 916.46,-239.05 925.6,-244.41 926.95,-237.55"/>
</a>
</g>
</g>
<!-- Node23&#45;&gt;Node9 -->
<g id="edge47_Node000023_Node000009" class="edge">
<title>Node23&#45;&gt;Node9</title>
<g id="a_edge47_Node000023_Node000009"><a xlink:title=" ">
<path fill="none" stroke="#63b8ff" d="M1089.84,-279.14C1000.77,-268.31 858.59,-251.02 769.93,-240.23"/>
<polygon fill="#63b8ff" stroke="#63b8ff" points="770.27,-236.75 759.92,-239.02 769.42,-243.7 770.27,-236.75"/>
</a>
</g>
</g>
<!-- Node23&#45;&gt;Node17 -->
<g id="edge42_Node000023_Node000017" class="edge">
<title>Node23&#45;&gt;Node17</title>
<g id="a_edge42_Node000023_Node000017"><a xlink:title=" ">
<path fill="none" stroke="#63b8ff" d="M1251.96,-282.57C1312.32,-275.9 1387.48,-262.96 1406.89,-239 1428.28,-212.61 1387.88,-195.87 1348.13,-186.25"/>
<polygon fill="#63b8ff" stroke="#63b8ff" points="1348.87,-182.83 1338.34,-184.01 1347.31,-189.65 1348.87,-182.83"/>
</a>
</g>
</g>
<!-- Node23&#45;&gt;Node18 -->
<g id="edge45_Node000023_Node000018" class="edge">
<title>Node23&#45;&gt;Node18</title>
<g id="a_edge45_Node000023_Node000018"><a xlink:title=" ">
<path fill="none" stroke="#63b8ff" d="M1172.89,-274.92C1177.21,-244.65 1187.36,-173.35 1192.22,-139.27"/>
<polygon fill="#63b8ff" stroke="#63b8ff" points="1195.7,-139.65 1193.64,-129.25 1188.77,-138.66 1195.7,-139.65"/>
</a>
</g>
</g>
<!-- Node23&#45;&gt;Node19 -->
<g id="edge44_Node000023_Node000019" class="edge">
<title>Node23&#45;&gt;Node19</title>
<g id="a_edge44_Node000023_Node000019"><a xlink:title=" ">
<path fill="none" stroke="#63b8ff" d="M1144.54,-274.99C1126.84,-265.58 1103.66,-253.24 1086.18,-243.95"/>
<polygon fill="#63b8ff" stroke="#63b8ff" points="1087.61,-240.74 1077.13,-239.14 1084.32,-246.92 1087.61,-240.74"/>
</a>
</g>
</g>
<!-- Node24 -->
<g id="Node000024" class="node">
<title>Node24</title>
<g id="a_Node000024"><a xlink:title=" ">
<polygon fill="#e0e0e0" stroke="#999999" points="1397.89,-239 1237.89,-239 1237.89,-220 1397.89,-220 1397.89,-239"/>
<text text-anchor="middle" x="1317.89" y="-227" font-family="Helvetica,sans-Serif" font-size="10.00">stk_mesh/base/NgpMesh.hpp</text>
</a>
</g>
</g>
<!-- Node23&#45;&gt;Node24 -->
<g id="edge46_Node000023_Node000024" class="edge">
<title>Node23&#45;&gt;Node24</title>
<g id="a_edge46_Node000023_Node000024"><a xlink:title=" ">
<path fill="none" stroke="#63b8ff" d="M1206.1,-274.99C1230.63,-265.23 1263.04,-252.33 1286.65,-242.93"/>
<polygon fill="#63b8ff" stroke="#63b8ff" points="1288.18,-246.09 1296.18,-239.14 1285.6,-239.58 1288.18,-246.09"/>
</a>
</g>
</g>
<!-- Node25&#45;&gt;Node5 -->
<g id="edge52_Node000025_Node000005" class="edge">
<title>Node25&#45;&gt;Node5</title>
<g id="a_edge52_Node000025_Node000005"><a xlink:title=" ">
<path fill="none" stroke="#63b8ff" d="M1847.04,-109.94C1829.77,-95.52 1792.29,-66.8 1754.89,-55 1614.81,-10.8 1241.18,-32.25 1094.89,-19 1092.66,-18.8 1090.39,-18.58 1088.1,-18.35"/>
<polygon fill="#63b8ff" stroke="#63b8ff" points="1088.29,-14.85 1077.97,-17.25 1087.54,-21.81 1088.29,-14.85"/>
</a>
</g>
</g>
<!-- Node25&#45;&gt;Node13 -->
<g id="edge51_Node000025_Node000013" class="edge">
<title>Node25&#45;&gt;Node13</title>
<g id="a_edge51_Node000025_Node000013"><a xlink:title=" ">
<path fill="none" stroke="#63b8ff" d="M1829.9,-109.98C1801.69,-101.09 1757.25,-87.07 1725.81,-77.15"/>
<polygon fill="#63b8ff" stroke="#63b8ff" points="1726.68,-73.75 1716.09,-74.08 1724.58,-80.43 1726.68,-73.75"/>
</a>
</g>
</g>
<!-- Node26 -->
<g id="Node000026" class="node">
<title>Node26</title>
<g id="a_Node000026"><a xlink:title=" ">
<polygon fill="#e0e0e0" stroke="#999999" points="1867.39,-74 1814.39,-74 1814.39,-55 1867.39,-55 1867.39,-74"/>
<text text-anchor="middle" x="1840.89" y="-62" font-family="Helvetica,sans-Serif" font-size="10.00">cstddef</text>
</a>
</g>
</g>
<!-- Node25&#45;&gt;Node26 -->
<g id="edge49_Node000025_Node000026" class="edge">
<title>Node25&#45;&gt;Node26</title>
<g id="a_edge49_Node000025_Node000026"><a xlink:title=" ">
<path fill="none" stroke="#63b8ff" d="M1854.25,-109.75C1852.13,-102.72 1849.08,-92.62 1846.43,-83.84"/>
<polygon fill="#63b8ff" stroke="#63b8ff" points="1849.72,-82.65 1843.48,-74.09 1843.02,-84.67 1849.72,-82.65"/>
</a>
</g>
</g>
<!-- Node27 -->
<g id="Node000027" class="node">
<title>Node27</title>
<g id="a_Node000027"><a xlink:title=" ">
<polygon fill="#e0e0e0" stroke="#999999" points="2026.39,-74 1885.39,-74 1885.39,-55 2026.39,-55 2026.39,-74"/>
<text text-anchor="middle" x="1955.89" y="-62" font-family="Helvetica,sans-Serif" font-size="10.00">stk_mesh/base/Entity.hpp</text>
</a>
</g>
</g>
<!-- Node25&#45;&gt;Node27 -->
<g id="edge50_Node000025_Node000027" class="edge">
<title>Node25&#45;&gt;Node27</title>
<g id="a_edge50_Node000025_Node000027"><a xlink:title=" ">
<path fill="none" stroke="#63b8ff" d="M1872.8,-109.98C1888.43,-101.61 1912.54,-88.7 1930.77,-78.95"/>
<polygon fill="#63b8ff" stroke="#63b8ff" points="1932.53,-81.98 1939.69,-74.17 1929.23,-75.8 1932.53,-81.98"/>
</a>
</g>
</g>
</g>
</svg>
