<?xml version="1.0" encoding="UTF-8" standalone="no"?>
<!DOCTYPE svg PUBLIC "-//W3C//DTD SVG 1.1//EN"
 "http://www.w3.org/Graphics/SVG/1.1/DTD/svg11.dtd">
<!-- Generated by graphviz version 2.43.0 (0)
 -->
<!-- Title: StkSimdFaceConnectivityMap.h Pages: 1 -->
<svg width="1034pt" height="82pt"
 viewBox="0.00 0.00 1034.00 82.00" xmlns="http://www.w3.org/2000/svg" xmlns:xlink="http://www.w3.org/1999/xlink">
<g id="graph0" class="graph" transform="scale(1 1) rotate(0) translate(4 78)">
<title>StkSimdFaceConnectivityMap.h</title>
<!-- Node1 -->
<g id="Node000001" class="node">
<title>Node1</title>
<g id="a_Node000001"><a xlink:title=" ">
<polygon fill="#999999" stroke="#666666" points="618.5,-74 448.5,-74 448.5,-55 618.5,-55 618.5,-74"/>
<text text-anchor="middle" x="533.5" y="-62" font-family="Helvetica,sans-Serif" font-size="10.00">StkSimdFaceConnectivityMap.h</text>
</a>
</g>
</g>
<!-- Node2 -->
<g id="Node000002" class="node">
<title>Node2</title>
<g id="a_Node000002"><a xlink:href="_conduction_gathered_field_manager_8_c.html" target="_top" xlink:title=" ">
<polygon fill="white" stroke="#666666" points="191,-19 0,-19 0,0 191,0 191,-19"/>
<text text-anchor="middle" x="95.5" y="-7" font-family="Helvetica,sans-Serif" font-size="10.00">ConductionGatheredFieldManager.C</text>
</a>
</g>
</g>
<!-- Node1&#45;&gt;Node2 -->
<g id="edge1_Node000001_Node000002" class="edge">
<title>Node1&#45;&gt;Node2</title>
<g id="a_edge1_Node000001_Node000002"><a xlink:title=" ">
<path fill="none" stroke="#63b8ff" d="M453.08,-53.77C370.89,-43.82 244.48,-28.53 166.06,-19.04"/>
<polygon fill="#63b8ff" stroke="#63b8ff" points="452.78,-57.26 463.13,-54.98 453.62,-50.31 452.78,-57.26"/>
</a>
</g>
</g>
<!-- Node3 -->
<g id="Node000003" class="node">
<title>Node3</title>
<g id="a_Node000003"><a xlink:href="_conduction_solution_update_8_c.html" target="_top" xlink:title=" ">
<polygon fill="white" stroke="#666666" points="365.5,-19 209.5,-19 209.5,0 365.5,0 365.5,-19"/>
<text text-anchor="middle" x="287.5" y="-7" font-family="Helvetica,sans-Serif" font-size="10.00">ConductionSolutionUpdate.C</text>
</a>
</g>
</g>
<!-- Node1&#45;&gt;Node3 -->
<g id="edge2_Node000001_Node000003" class="edge">
<title>Node1&#45;&gt;Node3</title>
<g id="a_edge2_Node000001_Node000003"><a xlink:title=" ">
<path fill="none" stroke="#63b8ff" d="M484.2,-52.88C438.09,-42.94 370.1,-28.3 327.33,-19.08"/>
<polygon fill="#63b8ff" stroke="#63b8ff" points="483.46,-56.3 493.98,-54.98 484.94,-49.46 483.46,-56.3"/>
</a>
</g>
</g>
<!-- Node4 -->
<g id="Node000004" class="node">
<title>Node4</title>
<g id="a_Node000004"><a xlink:href="_green_gauss_gradient_8_c.html" target="_top" xlink:title=" ">
<polygon fill="white" stroke="#666666" points="511.5,-19 383.5,-19 383.5,0 511.5,0 511.5,-19"/>
<text text-anchor="middle" x="447.5" y="-7" font-family="Helvetica,sans-Serif" font-size="10.00">GreenGaussGradient.C</text>
</a>
</g>
</g>
<!-- Node1&#45;&gt;Node4 -->
<g id="edge3_Node000001_Node000004" class="edge">
<title>Node1&#45;&gt;Node4</title>
<g id="a_edge3_Node000001_Node000004"><a xlink:title=" ">
<path fill="none" stroke="#63b8ff" d="M511.1,-49.7C495.43,-40.04 474.99,-27.44 461.57,-19.17"/>
<polygon fill="#63b8ff" stroke="#63b8ff" points="509.33,-52.72 519.68,-54.98 513.01,-46.76 509.33,-52.72"/>
</a>
</g>
</g>
<!-- Node5 -->
<g id="Node000005" class="node">
<title>Node5</title>
<g id="a_Node000005"><a xlink:href="_low_mach_gathered_field_manager_8_c.html" target="_top" xlink:title=" ">
<polygon fill="white" stroke="#666666" points="711.5,-19 529.5,-19 529.5,0 711.5,0 711.5,-19"/>
<text text-anchor="middle" x="620.5" y="-7" font-family="Helvetica,sans-Serif" font-size="10.00">LowMachGatheredFieldManager.C</text>
</a>
</g>
</g>
<!-- Node1&#45;&gt;Node5 -->
<g id="edge4_Node000001_Node000005" class="edge">
<title>Node1&#45;&gt;Node5</title>
<g id="a_edge4_Node000001_Node000005"><a xlink:title=" ">
<path fill="none" stroke="#63b8ff" d="M556.16,-49.7C572.01,-40.04 592.69,-27.44 606.27,-19.17"/>
<polygon fill="#63b8ff" stroke="#63b8ff" points="554.2,-46.79 547.48,-54.98 557.84,-52.77 554.2,-46.79"/>
</a>
</g>
</g>
<!-- Node6 -->
<g id="Node000006" class="node">
<title>Node6</title>
<g id="a_Node000006"><a xlink:href="_low_mach_update_8_c.html" target="_top" xlink:title=" ">
<polygon fill="white" stroke="#666666" points="837,-19 730,-19 730,0 837,0 837,-19"/>
<text text-anchor="middle" x="783.5" y="-7" font-family="Helvetica,sans-Serif" font-size="10.00">LowMachUpdate.C</text>
</a>
</g>
</g>
<!-- Node1&#45;&gt;Node6 -->
<g id="edge5_Node000001_Node000006" class="edge">
<title>Node1&#45;&gt;Node6</title>
<g id="a_edge5_Node000001_Node000006"><a xlink:title=" ">
<path fill="none" stroke="#63b8ff" d="M583.6,-52.88C630.46,-42.94 699.56,-28.3 743.02,-19.08"/>
<polygon fill="#63b8ff" stroke="#63b8ff" points="582.72,-49.49 573.67,-54.98 584.18,-56.33 582.72,-49.49"/>
</a>
</g>
</g>
<!-- Node7 -->
<g id="Node000007" class="node">
<title>Node7</title>
<g id="a_Node000007"><a xlink:href="_stk_simd_face_connectivity_map_8_c.html" target="_top" xlink:title=" ">
<polygon fill="white" stroke="#666666" points="1026,-19 855,-19 855,0 1026,0 1026,-19"/>
<text text-anchor="middle" x="940.5" y="-7" font-family="Helvetica,sans-Serif" font-size="10.00">StkSimdFaceConnectivityMap.C</text>
</a>
</g>
</g>
<!-- Node1&#45;&gt;Node7 -->
<g id="edge6_Node000001_Node000007" class="edge">
<title>Node1&#45;&gt;Node7</title>
<g id="a_edge6_Node000001_Node000007"><a xlink:title=" ">
<path fill="none" stroke="#63b8ff" d="M608.93,-53.68C685.32,-43.73 802.28,-28.5 874.93,-19.04"/>
<polygon fill="#63b8ff" stroke="#63b8ff" points="608.36,-50.22 598.89,-54.98 609.26,-57.16 608.36,-50.22"/>
</a>
</g>
</g>
</g>
</svg>
