<?xml version="1.0" encoding="UTF-8" standalone="no"?>
<!DOCTYPE svg PUBLIC "-//W3C//DTD SVG 1.1//EN"
 "http://www.w3.org/Graphics/SVG/1.1/DTD/svg11.dtd">
<!-- Generated by graphviz version 2.43.0 (0)
 -->
<!-- Title: StkSimdFaceConnectivityMap.C Pages: 1 -->
<!--zoomable 258 -->

<svg id="main" version="1.1" xmlns="http://www.w3.org/2000/svg" xmlns:xlink="http://www.w3.org/1999/xlink" xml:space="preserve" onload="init(evt)">
<style type="text/css"><![CDATA[
.node, .edge {opacity: 0.7;}
.node.selected, .edge.selected {opacity: 1;}
.edge:hover path { stroke: red; }
.edge:hover polygon { stroke: red; fill: red; }
]]></style>

<defs>
  <circle id="rim" cx="0" cy="0" r="7"/>
  <circle id="rim2" cx="0" cy="0" r="3.5"/>
  <g id="zoomPlus">
    <use xlink:href="#rim" fill="#404040"><set attributeName="fill" to="#808080" begin="zoomplus.mouseover" end="zoomplus.mouseout"/></use>
    <path d="M-4,0h8M0,-4v8" fill="none" stroke="white" stroke-width="1.5" pointer-events="none"/>
  </g>
  <g id="zoomMin">
    <use xlink:href="#rim" fill="#404040"><set attributeName="fill" to="#808080" begin="zoomminus.mouseover" end="zoomminus.mouseout"/></use>
    <path d="M-4,0h8" fill="none" stroke="white" stroke-width="1.5" pointer-events="none"/>
  </g>
  <g id="arrowUp" transform="translate(30 24)">
    <use xlink:href="#rim"/>
    <path pointer-events="none" fill="none" stroke="white" stroke-width="1.5" d="M0,-3.0v7 M-2.5,-0.5L0,-3.0L2.5,-0.5"/>
  </g>
  <g id="arrowRight" transform="rotate(90) translate(36 -43)">
    <use xlink:href="#rim"/>
    <path pointer-events="none" fill="none" stroke="white" stroke-width="1.5" d="M0,-3.0v7 M-2.5,-0.5L0,-3.0L2.5,-0.5"/>
  </g>
  <g id="arrowDown" transform="rotate(180) translate(-30 -48)">
    <use xlink:href="#rim"/>
    <path pointer-events="none" fill="none" stroke="white" stroke-width="1.5" d="M0,-3.0v7 M-2.5,-0.5L0,-3.0L2.5,-0.5"/>
  </g>
  <g id="arrowLeft" transform="rotate(270) translate(-36 17)">
    <use xlink:href="#rim"/>
    <path pointer-events="none" fill="none" stroke="white" stroke-width="1.5" d="M0,-3.0v7 M-2.5,-0.5L0,-3.0L2.5,-0.5"/>
  </g>
  <g id="resetDef">
    <use xlink:href="#rim2" fill="#404040"><set attributeName="fill" to="#808080" begin="reset.mouseover" end="reset.mouseout"/></use>
  </g>
</defs>
<script type="application/ecmascript">
var viewWidth = 1720;
var viewHeight = 258;
var sectionId = 'dynsection-0';
</script>
<script type="application/ecmascript" xlink:href="svg.min.js"/>
<svg id="graph" class="graph">
<g id="viewport">
<title>StkSimdFaceConnectivityMap.C</title>
<!-- Node1 -->
<g id="Node000001" class="node">
<title>Node1</title>
<g id="a_Node000001"><a xlink:title=" ">
<polygon fill="#999999" stroke="#666666" points="933,-250 762,-250 762,-231 933,-231 933,-250"/>
<text text-anchor="middle" x="847.5" y="-238" font-family="Helvetica,sans-Serif" font-size="10.00">StkSimdFaceConnectivityMap.C</text>
</a>
</g>
</g>
<!-- Node2 -->
<g id="Node000002" class="node">
<title>Node2</title>
<g id="a_Node000002"><a xlink:href="_stk_simd_face_connectivity_map_8h.html" target="_top" xlink:title=" ">
<polygon fill="white" stroke="#666666" points="877.5,-195 677.5,-195 677.5,-165 877.5,-165 877.5,-195"/>
<text text-anchor="start" x="685.5" y="-183" font-family="Helvetica,sans-Serif" font-size="10.00">matrix_free/StkSimdFaceConnectivity</text>
<text text-anchor="middle" x="777.5" y="-172" font-family="Helvetica,sans-Serif" font-size="10.00">Map.h</text>
</a>
</g>
</g>
<!-- Node1&#45;&gt;Node2 -->
<g id="edge1_Node000001_Node000002" class="edge">
<title>Node1&#45;&gt;Node2</title>
<g id="a_edge1_Node000001_Node000002"><a xlink:title=" ">
<path fill="none" stroke="#63b8ff" d="M837.17,-230.87C828.02,-223.22 814.31,-211.76 802.33,-201.75"/>
<polygon fill="#63b8ff" stroke="#63b8ff" points="804.31,-198.84 794.39,-195.11 799.82,-204.21 804.31,-198.84"/>
</a>
</g>
</g>
<!-- Node9 -->
<g id="Node000009" class="node">
<title>Node9</title>
<g id="a_Node000009"><a xlink:href="_polynomial_orders_8h.html" target="_top" xlink:title=" ">
<polygon fill="white" stroke="#666666" points="388,-129 215,-129 215,-110 388,-110 388,-129"/>
<text text-anchor="middle" x="301.5" y="-117" font-family="Helvetica,sans-Serif" font-size="10.00">matrix_free/PolynomialOrders.h</text>
</a>
</g>
</g>
<!-- Node1&#45;&gt;Node9 -->
<g id="edge16_Node000001_Node000009" class="edge">
<title>Node1&#45;&gt;Node9</title>
<g id="a_edge16_Node000001_Node000009"><a xlink:title=" ">
<path fill="none" stroke="#63b8ff" d="M761.61,-236.45C650.67,-231.56 464.25,-219.89 400.5,-195 367.14,-181.98 335.29,-154.38 317.11,-136.68"/>
<polygon fill="#63b8ff" stroke="#63b8ff" points="319.3,-133.92 309.76,-129.32 314.35,-138.87 319.3,-133.92"/>
</a>
</g>
</g>
<!-- Node10 -->
<g id="Node000010" class="node">
<title>Node10</title>
<g id="a_Node000010"><a xlink:title=" ">
<polygon fill="#e0e0e0" stroke="#999999" points="1016,-129 863,-129 863,-110 1016,-110 1016,-129"/>
<text text-anchor="middle" x="939.5" y="-117" font-family="Helvetica,sans-Serif" font-size="10.00">stk_mesh/base/Selector.hpp</text>
</a>
</g>
</g>
<!-- Node1&#45;&gt;Node10 -->
<g id="edge33_Node000001_Node000010" class="edge">
<title>Node1&#45;&gt;Node10</title>
<g id="a_edge33_Node000001_Node000010"><a xlink:title=" ">
<path fill="none" stroke="#63b8ff" d="M855.54,-230.86C863.62,-222.05 876.31,-207.89 886.5,-195 901.5,-176.03 917.42,-153.25 927.85,-137.91"/>
<polygon fill="#63b8ff" stroke="#63b8ff" points="930.88,-139.67 933.58,-129.43 925.08,-135.76 930.88,-139.67"/>
</a>
</g>
</g>
<!-- Node12 -->
<g id="Node000012" class="node">
<title>Node12</title>
<g id="a_Node000012"><a xlink:href="_node_order_map_8h.html" target="_top" xlink:title=" ">
<polygon fill="white" stroke="#666666" points="159,-189.5 0,-189.5 0,-170.5 159,-170.5 159,-189.5"/>
<text text-anchor="middle" x="79.5" y="-177.5" font-family="Helvetica,sans-Serif" font-size="10.00">matrix_free/NodeOrderMap.h</text>
</a>
</g>
</g>
<!-- Node1&#45;&gt;Node12 -->
<g id="edge12_Node000001_Node000012" class="edge">
<title>Node1&#45;&gt;Node12</title>
<g id="a_edge12_Node000001_Node000012"><a xlink:title=" ">
<path fill="none" stroke="#63b8ff" d="M761.79,-236.15C633.41,-230.61 383.69,-217.82 172.5,-195 162.29,-193.9 151.48,-192.49 140.99,-191"/>
<polygon fill="#63b8ff" stroke="#63b8ff" points="141.45,-187.53 131.05,-189.54 140.44,-194.45 141.45,-187.53"/>
</a>
</g>
</g>
<!-- Node14 -->
<g id="Node000014" class="node">
<title>Node14</title>
<g id="a_Node000014"><a xlink:title=" ">
<polygon fill="#e0e0e0" stroke="#999999" points="255,-74 142,-74 142,-55 255,-55 255,-74"/>
<text text-anchor="middle" x="198.5" y="-62" font-family="Helvetica,sans-Serif" font-size="10.00">Kokkos_Macros.hpp</text>
</a>
</g>
</g>
<!-- Node1&#45;&gt;Node14 -->
<g id="edge36_Node000001_Node000014" class="edge">
<title>Node1&#45;&gt;Node14</title>
<g id="a_edge36_Node000001_Node000014"><a xlink:title=" ">
<path fill="none" stroke="#63b8ff" d="M761.75,-235.45C639.97,-229.08 423.31,-215.32 347.5,-195 280.28,-176.98 246.09,-185.53 205.5,-129 196.3,-116.19 195.16,-98.02 195.97,-84.4"/>
<polygon fill="#63b8ff" stroke="#63b8ff" points="199.47,-84.53 196.97,-74.24 192.5,-83.85 199.47,-84.53"/>
</a>
</g>
</g>
<!-- Node15 -->
<g id="Node000015" class="node">
<title>Node15</title>
<g id="a_Node000015"><a xlink:href="_stk_simd_mesh_traverser_8h.html" target="_top" xlink:title=" ">
<polygon fill="white" stroke="#666666" points="1157,-189.5 960,-189.5 960,-170.5 1157,-170.5 1157,-189.5"/>
<text text-anchor="middle" x="1058.5" y="-177.5" font-family="Helvetica,sans-Serif" font-size="10.00">matrix_free/StkSimdMeshTraverser.h</text>
</a>
</g>
</g>
<!-- Node1&#45;&gt;Node15 -->
<g id="edge17_Node000001_Node000015" class="edge">
<title>Node1&#45;&gt;Node15</title>
<g id="a_edge17_Node000001_Node000015"><a xlink:title=" ">
<path fill="none" stroke="#63b8ff" d="M878.18,-230.99C915.06,-220.77 977.07,-203.58 1017.89,-192.26"/>
<polygon fill="#63b8ff" stroke="#63b8ff" points="1019.08,-195.56 1027.78,-189.52 1017.21,-188.82 1019.08,-195.56"/>
</a>
</g>
</g>
<!-- Node16 -->
<g id="Node000016" class="node">
<title>Node16</title>
<g id="a_Node000016"><a xlink:href="_kokkos_interface_8h.html" target="_top" xlink:title=" ">
<polygon fill="white" stroke="#666666" points="1510.5,-129 1406.5,-129 1406.5,-110 1510.5,-110 1510.5,-129"/>
<text text-anchor="middle" x="1458.5" y="-117" font-family="Helvetica,sans-Serif" font-size="10.00">KokkosInterface.h</text>
</a>
</g>
</g>
<!-- Node1&#45;&gt;Node16 -->
<g id="edge35_Node000001_Node000016" class="edge">
<title>Node1&#45;&gt;Node16</title>
<g id="a_edge35_Node000001_Node000016"><a xlink:title=" ">
<path fill="none" stroke="#63b8ff" d="M926.24,-230.99C991.05,-223.39 1085.16,-211 1166.5,-195 1258.08,-176.99 1363.82,-147.9 1419.52,-131.92"/>
<polygon fill="#63b8ff" stroke="#63b8ff" points="1420.68,-135.23 1429.32,-129.1 1418.74,-128.5 1420.68,-135.23"/>
</a>
</g>
</g>
<!-- Node18 -->
<g id="Node000018" class="node">
<title>Node18</title>
<g id="a_Node000018"><a xlink:title=" ">
<polygon fill="#e0e0e0" stroke="#999999" points="1609,-74 1468,-74 1468,-55 1609,-55 1609,-74"/>
<text text-anchor="middle" x="1538.5" y="-62" font-family="Helvetica,sans-Serif" font-size="10.00">stk_mesh/base/Entity.hpp</text>
</a>
</g>
</g>
<!-- Node1&#45;&gt;Node18 -->
<g id="edge32_Node000001_Node000018" class="edge">
<title>Node1&#45;&gt;Node18</title>
<g id="a_edge32_Node000001_Node000018"><a xlink:title=" ">
<path fill="none" stroke="#63b8ff" d="M933.25,-237.02C1095,-230.52 1436.41,-207.62 1519.5,-129 1531.64,-117.52 1536.12,-98.63 1537.72,-84.44"/>
<polygon fill="#63b8ff" stroke="#63b8ff" points="1541.23,-84.52 1538.49,-74.29 1534.25,-84 1541.23,-84.52"/>
</a>
</g>
</g>
<!-- Node21 -->
<g id="Node000021" class="node">
<title>Node21</title>
<g id="a_Node000021"><a xlink:href="_valid_simd_length_8h.html" target="_top" xlink:title=" ">
<polygon fill="white" stroke="#666666" points="576,-189.5 409,-189.5 409,-170.5 576,-170.5 576,-189.5"/>
<text text-anchor="middle" x="492.5" y="-177.5" font-family="Helvetica,sans-Serif" font-size="10.00">matrix_free/ValidSimdLength.h</text>
</a>
</g>
</g>
<!-- Node1&#45;&gt;Node21 -->
<g id="edge27_Node000001_Node000021" class="edge">
<title>Node1&#45;&gt;Node21</title>
<g id="a_edge27_Node000001_Node000021"><a xlink:title=" ">
<path fill="none" stroke="#63b8ff" d="M795.88,-230.99C731.86,-220.44 622.83,-202.48 554.39,-191.2"/>
<polygon fill="#63b8ff" stroke="#63b8ff" points="554.62,-187.69 544.18,-189.52 553.48,-194.6 554.62,-187.69"/>
</a>
</g>
</g>
<!-- Node22 -->
<g id="Node000022" class="node">
<title>Node22</title>
<g id="a_Node000022"><a xlink:title=" ">
<polygon fill="#e0e0e0" stroke="#999999" points="1712,-189.5 1567,-189.5 1567,-170.5 1712,-170.5 1712,-189.5"/>
<text text-anchor="middle" x="1639.5" y="-177.5" font-family="Helvetica,sans-Serif" font-size="10.00">stk_topology/topology.hpp</text>
</a>
</g>
</g>
<!-- Node1&#45;&gt;Node22 -->
<g id="edge34_Node000001_Node000022" class="edge">
<title>Node1&#45;&gt;Node22</title>
<g id="a_edge34_Node000001_Node000022"><a xlink:title=" ">
<path fill="none" stroke="#63b8ff" d="M933.19,-236.76C1066.12,-231.91 1329.92,-219.88 1552.5,-195 1561.98,-193.94 1572,-192.57 1581.74,-191.09"/>
<polygon fill="#63b8ff" stroke="#63b8ff" points="1582.41,-194.53 1591.75,-189.53 1581.33,-187.62 1582.41,-194.53"/>
</a>
</g>
</g>
<!-- Node3 -->
<g id="Node000003" class="node">
<title>Node3</title>
<g id="a_Node000003"><a xlink:href="_kokkos_view_types_8h.html" target="_top" xlink:title=" ">
<polygon fill="white" stroke="#666666" points="692.5,-129 520.5,-129 520.5,-110 692.5,-110 692.5,-129"/>
<text text-anchor="middle" x="606.5" y="-117" font-family="Helvetica,sans-Serif" font-size="10.00">matrix_free/KokkosViewTypes.h</text>
</a>
</g>
</g>
<!-- Node2&#45;&gt;Node3 -->
<g id="edge2_Node000002_Node000003" class="edge">
<title>Node2&#45;&gt;Node3</title>
<g id="a_edge2_Node000002_Node000003"><a xlink:title=" ">
<path fill="none" stroke="#63b8ff" d="M736.54,-164.99C707.5,-155.05 668.95,-141.86 641.38,-132.43"/>
<polygon fill="#63b8ff" stroke="#63b8ff" points="642.35,-129.06 631.75,-129.14 640.08,-135.69 642.35,-129.06"/>
</a>
</g>
</g>
<!-- Node2&#45;&gt;Node9 -->
<g id="edge8_Node000002_Node000009" class="edge">
<title>Node2&#45;&gt;Node9</title>
<g id="a_edge8_Node000002_Node000009"><a xlink:title=" ">
<path fill="none" stroke="#63b8ff" d="M677.42,-166.7C589.17,-155.85 462.27,-140.26 380.85,-130.25"/>
<polygon fill="#63b8ff" stroke="#63b8ff" points="381.02,-126.75 370.66,-129 380.16,-133.69 381.02,-126.75"/>
</a>
</g>
</g>
<!-- Node2&#45;&gt;Node10 -->
<g id="edge10_Node000002_Node000010" class="edge">
<title>Node2&#45;&gt;Node10</title>
<g id="a_edge10_Node000002_Node000010"><a xlink:title=" ">
<path fill="none" stroke="#63b8ff" d="M816.3,-164.99C843.69,-155.1 880.02,-141.98 906.11,-132.56"/>
<polygon fill="#63b8ff" stroke="#63b8ff" points="907.36,-135.83 915.58,-129.14 904.98,-129.24 907.36,-135.83"/>
</a>
</g>
</g>
<!-- Node11 -->
<g id="Node000011" class="node">
<title>Node11</title>
<g id="a_Node000011"><a xlink:title=" ">
<polygon fill="#e0e0e0" stroke="#999999" points="844.5,-129 710.5,-129 710.5,-110 844.5,-110 844.5,-129"/>
<text text-anchor="middle" x="777.5" y="-117" font-family="Helvetica,sans-Serif" font-size="10.00">stk_mesh/base/Ngp.hpp</text>
</a>
</g>
</g>
<!-- Node2&#45;&gt;Node11 -->
<g id="edge11_Node000002_Node000011" class="edge">
<title>Node2&#45;&gt;Node11</title>
<g id="a_edge11_Node000002_Node000011"><a xlink:title=" ">
<path fill="none" stroke="#63b8ff" d="M777.5,-164.84C777.5,-157.21 777.5,-147.7 777.5,-139.45"/>
<polygon fill="#63b8ff" stroke="#63b8ff" points="781,-139.27 777.5,-129.27 774,-139.27 781,-139.27"/>
</a>
</g>
</g>
<!-- Node4 -->
<g id="Node000004" class="node">
<title>Node4</title>
<g id="a_Node000004"><a xlink:href="_kokkos_framework_8h.html" target="_top" xlink:title=" ">
<polygon fill="white" stroke="#666666" points="617,-74 442,-74 442,-55 617,-55 617,-74"/>
<text text-anchor="middle" x="529.5" y="-62" font-family="Helvetica,sans-Serif" font-size="10.00">matrix_free/KokkosFramework.h</text>
</a>
</g>
</g>
<!-- Node3&#45;&gt;Node4 -->
<g id="edge3_Node000003_Node000004" class="edge">
<title>Node3&#45;&gt;Node4</title>
<g id="a_edge3_Node000003_Node000004"><a xlink:title=" ">
<path fill="none" stroke="#63b8ff" d="M594.13,-109.98C582.41,-101.92 564.58,-89.65 550.61,-80.03"/>
<polygon fill="#63b8ff" stroke="#63b8ff" points="552.32,-76.96 542.1,-74.17 548.35,-82.72 552.32,-76.96"/>
</a>
</g>
</g>
<!-- Node8 -->
<g id="Node000008" class="node">
<title>Node8</title>
<g id="a_Node000008"><a xlink:title=" ">
<polygon fill="#e0e0e0" stroke="#999999" points="815.5,-74 673.5,-74 673.5,-55 815.5,-55 815.5,-74"/>
<text text-anchor="middle" x="744.5" y="-62" font-family="Helvetica,sans-Serif" font-size="10.00">stk_mesh/base/Types.hpp</text>
</a>
</g>
</g>
<!-- Node3&#45;&gt;Node8 -->
<g id="edge7_Node000003_Node000008" class="edge">
<title>Node3&#45;&gt;Node8</title>
<g id="a_edge7_Node000003_Node000008"><a xlink:title=" ">
<path fill="none" stroke="#63b8ff" d="M628.67,-109.98C651.27,-101.3 686.56,-87.75 712.25,-77.88"/>
<polygon fill="#63b8ff" stroke="#63b8ff" points="713.84,-81.02 721.92,-74.17 711.33,-74.49 713.84,-81.02"/>
</a>
</g>
</g>
<!-- Node5 -->
<g id="Node000005" class="node">
<title>Node5</title>
<g id="a_Node000005"><a xlink:title=" ">
<polygon fill="#e0e0e0" stroke="#999999" points="695.5,-19 595.5,-19 595.5,0 695.5,0 695.5,-19"/>
<text text-anchor="middle" x="645.5" y="-7" font-family="Helvetica,sans-Serif" font-size="10.00">Kokkos_Core.hpp</text>
</a>
</g>
</g>
<!-- Node4&#45;&gt;Node5 -->
<g id="edge4_Node000004_Node000005" class="edge">
<title>Node4&#45;&gt;Node5</title>
<g id="a_edge4_Node000004_Node000005"><a xlink:title=" ">
<path fill="none" stroke="#63b8ff" d="M548.14,-54.98C566.8,-46.46 595.75,-33.23 617.24,-23.41"/>
<polygon fill="#63b8ff" stroke="#63b8ff" points="618.88,-26.51 626.52,-19.17 615.97,-20.14 618.88,-26.51"/>
</a>
</g>
</g>
<!-- Node6 -->
<g id="Node000006" class="node">
<title>Node6</title>
<g id="a_Node000006"><a xlink:title=" ">
<polygon fill="#e0e0e0" stroke="#999999" points="522.5,-19 412.5,-19 412.5,0 522.5,0 522.5,-19"/>
<text text-anchor="middle" x="467.5" y="-7" font-family="Helvetica,sans-Serif" font-size="10.00">stk_simd/Simd.hpp</text>
</a>
</g>
</g>
<!-- Node4&#45;&gt;Node6 -->
<g id="edge5_Node000004_Node000006" class="edge">
<title>Node4&#45;&gt;Node6</title>
<g id="a_edge5_Node000004_Node000006"><a xlink:title=" ">
<path fill="none" stroke="#63b8ff" d="M519.54,-54.98C510.37,-47.15 496.56,-35.34 485.47,-25.86"/>
<polygon fill="#63b8ff" stroke="#63b8ff" points="487.52,-23.01 477.64,-19.17 482.97,-28.33 487.52,-23.01"/>
</a>
</g>
</g>
<!-- Node7 -->
<g id="Node000007" class="node">
<title>Node7</title>
<g id="a_Node000007"><a xlink:title=" ">
<polygon fill="#e0e0e0" stroke="#999999" points="336,-19 267,-19 267,0 336,0 336,-19"/>
<text text-anchor="middle" x="301.5" y="-7" font-family="Helvetica,sans-Serif" font-size="10.00">type_traits</text>
</a>
</g>
</g>
<!-- Node4&#45;&gt;Node7 -->
<g id="edge6_Node000004_Node000007" class="edge">
<title>Node4&#45;&gt;Node7</title>
<g id="a_edge6_Node000004_Node000007"><a xlink:title=" ">
<path fill="none" stroke="#63b8ff" d="M492.87,-54.98C452.9,-45.69 388.9,-30.82 346.05,-20.86"/>
<polygon fill="#63b8ff" stroke="#63b8ff" points="346.71,-17.42 336.17,-18.56 345.12,-24.23 346.71,-17.42"/>
</a>
</g>
</g>
<!-- Node9&#45;&gt;Node7 -->
<g id="edge9_Node000009_Node000007" class="edge">
<title>Node9&#45;&gt;Node7</title>
<g id="a_edge9_Node000009_Node000007"><a xlink:title=" ">
<path fill="none" stroke="#63b8ff" d="M301.5,-109.66C301.5,-92.17 301.5,-52.8 301.5,-29.27"/>
<polygon fill="#63b8ff" stroke="#63b8ff" points="305,-29.16 301.5,-19.16 298,-29.16 305,-29.16"/>
</a>
</g>
</g>
<!-- Node13 -->
<g id="Node000013" class="node">
<title>Node13</title>
<g id="a_Node000013"><a xlink:href="_array_n_d_8h.html" target="_top" xlink:title=" ">
<polygon fill="white" stroke="#666666" points="147,-129 80,-129 80,-110 147,-110 147,-129"/>
<text text-anchor="middle" x="113.5" y="-117" font-family="Helvetica,sans-Serif" font-size="10.00">ArrayND.h</text>
</a>
</g>
</g>
<!-- Node12&#45;&gt;Node13 -->
<g id="edge13_Node000012_Node000013" class="edge">
<title>Node12&#45;&gt;Node13</title>
<g id="a_edge13_Node000012_Node000013"><a xlink:title=" ">
<path fill="none" stroke="#63b8ff" d="M84.52,-170.37C89.44,-161.9 97.09,-148.74 103.29,-138.07"/>
<polygon fill="#63b8ff" stroke="#63b8ff" points="106.46,-139.57 108.46,-129.17 100.41,-136.05 106.46,-139.57"/>
</a>
</g>
</g>
<!-- Node13&#45;&gt;Node7 -->
<g id="edge15_Node000013_Node000007" class="edge">
<title>Node13&#45;&gt;Node7</title>
<g id="a_edge15_Node000013_Node000007"><a xlink:title=" ">
<path fill="none" stroke="#63b8ff" d="M113.55,-109.75C114.12,-96.08 117.28,-69.72 132.5,-55 165.59,-22.99 218.83,-13.29 256.7,-10.7"/>
<polygon fill="#63b8ff" stroke="#63b8ff" points="257.15,-14.18 266.95,-10.15 256.77,-7.2 257.15,-14.18"/>
</a>
</g>
</g>
<!-- Node13&#45;&gt;Node14 -->
<g id="edge14_Node000013_Node000014" class="edge">
<title>Node13&#45;&gt;Node14</title>
<g id="a_edge14_Node000013_Node000014"><a xlink:title=" ">
<path fill="none" stroke="#63b8ff" d="M127.16,-109.98C140.34,-101.77 160.53,-89.18 176.07,-79.49"/>
<polygon fill="#63b8ff" stroke="#63b8ff" points="177.96,-82.43 184.59,-74.17 174.26,-76.49 177.96,-82.43"/>
</a>
</g>
</g>
<!-- Node15&#45;&gt;Node8 -->
<g id="edge25_Node000015_Node000008" class="edge">
<title>Node15&#45;&gt;Node8</title>
<g id="a_edge25_Node000015_Node000008"><a xlink:title=" ">
<path fill="none" stroke="#63b8ff" d="M1056.99,-170.14C1053.93,-155.14 1045.51,-124.93 1025.5,-110 994.7,-87.02 897.53,-75.54 826.05,-70.06"/>
<polygon fill="#63b8ff" stroke="#63b8ff" points="825.93,-66.55 815.7,-69.3 825.42,-73.53 825.93,-66.55"/>
</a>
</g>
</g>
<!-- Node15&#45;&gt;Node10 -->
<g id="edge24_Node000015_Node000010" class="edge">
<title>Node15&#45;&gt;Node10</title>
<g id="a_edge24_Node000015_Node000010"><a xlink:title=" ">
<path fill="none" stroke="#63b8ff" d="M1041.2,-170.49C1021.45,-160.79 988.95,-144.81 966.01,-133.53"/>
<polygon fill="#63b8ff" stroke="#63b8ff" points="967.34,-130.29 956.82,-129.02 964.25,-136.57 967.34,-130.29"/>
</a>
</g>
</g>
<!-- Node15&#45;&gt;Node16 -->
<g id="edge18_Node000015_Node000016" class="edge">
<title>Node15&#45;&gt;Node16</title>
<g id="a_edge18_Node000015_Node000016"><a xlink:title=" ">
<path fill="none" stroke="#63b8ff" d="M1116.66,-170.49C1191.21,-159.59 1319.93,-140.77 1396.35,-129.59"/>
<polygon fill="#63b8ff" stroke="#63b8ff" points="1396.93,-133.04 1406.32,-128.13 1395.92,-126.12 1396.93,-133.04"/>
</a>
</g>
</g>
<!-- Node19 -->
<g id="Node000019" class="node">
<title>Node19</title>
<g id="a_Node000019"><a xlink:title=" ">
<polygon fill="#e0e0e0" stroke="#999999" points="1210,-129 1073,-129 1073,-110 1210,-110 1210,-129"/>
<text text-anchor="middle" x="1141.5" y="-117" font-family="Helvetica,sans-Serif" font-size="10.00">stk_mesh/base/Field.hpp</text>
</a>
</g>
</g>
<!-- Node15&#45;&gt;Node19 -->
<g id="edge23_Node000015_Node000019" class="edge">
<title>Node15&#45;&gt;Node19</title>
<g id="a_edge23_Node000015_Node000019"><a xlink:title=" ">
<path fill="none" stroke="#63b8ff" d="M1070.75,-170.37C1083.86,-161.12 1104.92,-146.28 1120.65,-135.19"/>
<polygon fill="#63b8ff" stroke="#63b8ff" points="1123.05,-137.79 1129.2,-129.17 1119.01,-132.07 1123.05,-137.79"/>
</a>
</g>
</g>
<!-- Node20 -->
<g id="Node000020" class="node">
<title>Node20</title>
<g id="a_Node000020"><a xlink:title=" ">
<polygon fill="#e0e0e0" stroke="#999999" points="1388.5,-129 1228.5,-129 1228.5,-110 1388.5,-110 1388.5,-129"/>
<text text-anchor="middle" x="1308.5" y="-117" font-family="Helvetica,sans-Serif" font-size="10.00">stk_mesh/base/NgpMesh.hpp</text>
</a>
</g>
</g>
<!-- Node15&#45;&gt;Node20 -->
<g id="edge26_Node000015_Node000020" class="edge">
<title>Node15&#45;&gt;Node20</title>
<g id="a_edge26_Node000015_Node000020"><a xlink:title=" ">
<path fill="none" stroke="#63b8ff" d="M1094.85,-170.49C1139.1,-160.14 1213.89,-142.64 1262.21,-131.33"/>
<polygon fill="#63b8ff" stroke="#63b8ff" points="1263.16,-134.7 1272.1,-129.02 1261.57,-127.89 1263.16,-134.7"/>
</a>
</g>
</g>
<!-- Node16&#45;&gt;Node5 -->
<g id="edge22_Node000016_Node000005" class="edge">
<title>Node16&#45;&gt;Node5</title>
<g id="a_edge22_Node000016_Node000005"><a xlink:title=" ">
<path fill="none" stroke="#63b8ff" d="M1406.26,-111.2C1403.3,-110.79 1400.36,-110.39 1397.5,-110 1140.21,-75.05 833.19,-34.92 705.64,-18.31"/>
<polygon fill="#63b8ff" stroke="#63b8ff" points="706.05,-14.84 695.68,-17.02 705.14,-21.78 706.05,-14.84"/>
</a>
</g>
</g>
<!-- Node16&#45;&gt;Node14 -->
<g id="edge21_Node000016_Node000014" class="edge">
<title>Node16&#45;&gt;Node14</title>
<g id="a_edge21_Node000016_Node000014"><a xlink:title=" ">
<path fill="none" stroke="#63b8ff" d="M1406.3,-110.87C1403.32,-110.55 1400.38,-110.25 1397.5,-110 1383.29,-108.75 515.24,-77.05 265.21,-67.93"/>
<polygon fill="#63b8ff" stroke="#63b8ff" points="265.29,-64.43 255.17,-67.56 265.04,-71.43 265.29,-64.43"/>
</a>
</g>
</g>
<!-- Node17 -->
<g id="Node000017" class="node">
<title>Node17</title>
<g id="a_Node000017"><a xlink:title=" ">
<polygon fill="#e0e0e0" stroke="#999999" points="1450,-74 1397,-74 1397,-55 1450,-55 1450,-74"/>
<text text-anchor="middle" x="1423.5" y="-62" font-family="Helvetica,sans-Serif" font-size="10.00">cstddef</text>
</a>
</g>
</g>
<!-- Node16&#45;&gt;Node17 -->
<g id="edge19_Node000016_Node000017" class="edge">
<title>Node16&#45;&gt;Node17</title>
<g id="a_edge19_Node000016_Node000017"><a xlink:title=" ">
<path fill="none" stroke="#63b8ff" d="M1452.72,-109.75C1447.88,-102.42 1440.82,-91.73 1434.86,-82.7"/>
<polygon fill="#63b8ff" stroke="#63b8ff" points="1437.6,-80.5 1429.17,-74.09 1431.76,-84.36 1437.6,-80.5"/>
</a>
</g>
</g>
<!-- Node16&#45;&gt;Node18 -->
<g id="edge20_Node000016_Node000018" class="edge">
<title>Node16&#45;&gt;Node18</title>
<g id="a_edge20_Node000016_Node000018"><a xlink:title=" ">
<path fill="none" stroke="#63b8ff" d="M1471.35,-109.98C1483.64,-101.84 1502.41,-89.41 1516.98,-79.76"/>
<polygon fill="#63b8ff" stroke="#63b8ff" points="1519.01,-82.61 1525.41,-74.17 1515.14,-76.78 1519.01,-82.61"/>
</a>
</g>
</g>
<!-- Node21&#45;&gt;Node3 -->
<g id="edge28_Node000021_Node000003" class="edge">
<title>Node21&#45;&gt;Node3</title>
<g id="a_edge28_Node000021_Node000003"><a xlink:title=" ">
<path fill="none" stroke="#63b8ff" d="M509.32,-170.37C528.1,-160.73 558.7,-145.03 580.55,-133.81"/>
<polygon fill="#63b8ff" stroke="#63b8ff" points="582.31,-136.85 589.61,-129.17 579.11,-130.62 582.31,-136.85"/>
</a>
</g>
</g>
<!-- Node21&#45;&gt;Node5 -->
<g id="edge29_Node000021_Node000005" class="edge">
<title>Node21&#45;&gt;Node5</title>
<g id="a_edge29_Node000021_Node000005"><a xlink:title=" ">
<path fill="none" stroke="#63b8ff" d="M489.77,-170.27C485.91,-156 480.71,-127.52 494.5,-110 532.11,-62.21 582.98,-116.47 626.5,-74 638.46,-62.33 642.96,-43.47 644.62,-29.33"/>
<polygon fill="#63b8ff" stroke="#63b8ff" points="648.12,-29.48 645.43,-19.23 641.14,-28.92 648.12,-29.48"/>
</a>
</g>
</g>
<!-- Node21&#45;&gt;Node6 -->
<g id="edge30_Node000021_Node000006" class="edge">
<title>Node21&#45;&gt;Node6</title>
<g id="a_edge30_Node000021_Node000006"><a xlink:title=" ">
<path fill="none" stroke="#63b8ff" d="M479.45,-170.37C467.23,-161.52 449.54,-146.6 440.5,-129 425.38,-99.58 421.68,-86.26 432.5,-55 436.17,-44.38 443.54,-34.38 450.58,-26.55"/>
<polygon fill="#63b8ff" stroke="#63b8ff" points="453.2,-28.88 457.62,-19.25 448.16,-24.02 453.2,-28.88"/>
</a>
</g>
</g>
<!-- Node21&#45;&gt;Node8 -->
<g id="edge31_Node000021_Node000008" class="edge">
<title>Node21&#45;&gt;Node8</title>
<g id="a_edge31_Node000021_Node000008"><a xlink:title=" ">
<path fill="none" stroke="#63b8ff" d="M492.18,-170.33C492.13,-155.63 494.34,-125.84 511.5,-110 523.35,-99.06 607.91,-84.85 671.78,-75.47"/>
<polygon fill="#63b8ff" stroke="#63b8ff" points="672.45,-78.91 681.84,-74 671.44,-71.98 672.45,-78.91"/>
</a>
</g>
</g>
</g>
</svg>

<g id="navigator" transform="translate(0 0)" fill="#404254">
  <rect fill="#f2f5e9" fill-opacity="0.5" stroke="#606060" stroke-width=".5" x="0" y="0" width="60" height="60"/>
  <use id="zoomplus" xlink:href="#zoomPlus" x="17" y="9" onmousedown="handleZoom(evt,'in')"/>
  <use id="zoomminus" xlink:href="#zoomMin" x="42" y="9" onmousedown="handleZoom(evt,'out')"/>
  <use id="reset" xlink:href="#resetDef" x="30" y="36" onmousedown="handleReset()"/>
   <use id="arrowup" xlink:href="#arrowUp" x="0" y="0" onmousedown="handlePan(0,-1)"/>
  <use id="arrowright" xlink:href="#arrowRight" x="0" y="0" onmousedown="handlePan(1,0)"/>
  <use id="arrowdown" xlink:href="#arrowDown" x="0" y="0" onmousedown="handlePan(0,1)"/>
  <use id="arrowleft" xlink:href="#arrowLeft" x="0" y="0" onmousedown="handlePan(-1,0)"/>
</g>
<svg viewBox="0 0 15 15" width="100%" height="30px" preserveAspectRatio="xMaxYMin meet">
 <g id="arrow_out" transform="scale(0.3 0.3)">
  <a xlink:href="_stk_simd_face_connectivity_map_8_c__incl_org.svg" target="_base">
   <rect id="button" ry="5" rx="5" y="6" x="6" height="38" width="38"
        fill="#f2f5e9" fill-opacity="0.5" stroke="#606060" stroke-width="1.0"/>
   <path id="arrow"
     d="M 11.500037,31.436501 C 11.940474,20.09759 22.043105,11.32322 32.158766,21.979434 L 37.068811,17.246167 C 37.068811,17.246167 37.088388,32 37.088388,32 L 22.160133,31.978069 C 22.160133,31.978069 26.997745,27.140456 26.997745,27.140456 C 18.528582,18.264221 13.291696,25.230495 11.500037,31.436501 z"
     style="fill:#404040;"/>
  </a>
 </g>
</svg>

<style type='text/css'>
<![CDATA[
[data-mouse-over-selected='false'] { opacity: 0.7; }
[data-mouse-over-selected='true']  { opacity: 1.0; }
]]>
</style>
<script type="application/ecmascript"><![CDATA[
document.addEventListener('DOMContentLoaded', (event) => {
  highlightEdges();
  highlightAdjacentNodes();
});
]]></script>
</svg>
