<?xml version="1.0" encoding="UTF-8" standalone="no"?>
<!DOCTYPE svg PUBLIC "-//W3C//DTD SVG 1.1//EN"
 "http://www.w3.org/Graphics/SVG/1.1/DTD/svg11.dtd">
<!-- Generated by graphviz version 2.43.0 (0)
 -->
<!-- Title: StkSimdNodeConnectivityMap.C Pages: 1 -->
<svg width="1429pt" height="258pt"
 viewBox="0.00 0.00 1428.50 258.00" xmlns="http://www.w3.org/2000/svg" xmlns:xlink="http://www.w3.org/1999/xlink">
<g id="graph0" class="graph" transform="scale(1 1) rotate(0) translate(4 254)">
<title>StkSimdNodeConnectivityMap.C</title>
<!-- Node1 -->
<g id="Node000001" class="node">
<title>Node1</title>
<g id="a_Node000001"><a xlink:title=" ">
<polygon fill="#999999" stroke="#666666" points="815.5,-250 640.5,-250 640.5,-231 815.5,-231 815.5,-250"/>
<text text-anchor="middle" x="728" y="-238" font-family="Helvetica,sans-Serif" font-size="10.00">StkSimdNodeConnectivityMap.C</text>
</a>
</g>
</g>
<!-- Node2 -->
<g id="Node000002" class="node">
<title>Node2</title>
<g id="a_Node000002"><a xlink:href="_stk_simd_node_connectivity_map_8h.html" target="_top" xlink:title=" ">
<polygon fill="white" stroke="#666666" points="337,-195 133,-195 133,-165 337,-165 337,-195"/>
<text text-anchor="start" x="141" y="-183" font-family="Helvetica,sans-Serif" font-size="10.00">matrix_free/StkSimdNodeConnectivity</text>
<text text-anchor="middle" x="235" y="-172" font-family="Helvetica,sans-Serif" font-size="10.00">Map.h</text>
</a>
</g>
</g>
<!-- Node1&#45;&gt;Node2 -->
<g id="edge1_Node000001_Node000002" class="edge">
<title>Node1&#45;&gt;Node2</title>
<g id="a_edge1_Node000001_Node000002"><a xlink:title=" ">
<path fill="none" stroke="#63b8ff" d="M655.37,-230.98C579.45,-222.07 456.85,-207.63 351,-195 349.73,-194.85 348.44,-194.69 347.15,-194.54"/>
<polygon fill="#63b8ff" stroke="#63b8ff" points="347.5,-191.06 337.16,-193.34 346.67,-198.01 347.5,-191.06"/>
</a>
</g>
</g>
<!-- Node3 -->
<g id="Node000003" class="node">
<title>Node3</title>
<g id="a_Node000003"><a xlink:href="_kokkos_view_types_8h.html" target="_top" xlink:title=" ">
<polygon fill="white" stroke="#666666" points="906,-129 734,-129 734,-110 906,-110 906,-129"/>
<text text-anchor="middle" x="820" y="-117" font-family="Helvetica,sans-Serif" font-size="10.00">matrix_free/KokkosViewTypes.h</text>
</a>
</g>
</g>
<!-- Node1&#45;&gt;Node3 -->
<g id="edge10_Node000001_Node000003" class="edge">
<title>Node1&#45;&gt;Node3</title>
<g id="a_edge10_Node000001_Node000003"><a xlink:title=" ">
<path fill="none" stroke="#63b8ff" d="M734.62,-230.94C749.73,-211.4 787,-163.18 806.93,-137.4"/>
<polygon fill="#63b8ff" stroke="#63b8ff" points="809.85,-139.35 813.2,-129.3 804.31,-135.07 809.85,-139.35"/>
</a>
</g>
</g>
<!-- Node8 -->
<g id="Node000008" class="node">
<title>Node8</title>
<g id="a_Node000008"><a xlink:title=" ">
<polygon fill="#e0e0e0" stroke="#999999" points="579,-74 437,-74 437,-55 579,-55 579,-74"/>
<text text-anchor="middle" x="508" y="-62" font-family="Helvetica,sans-Serif" font-size="10.00">stk_mesh/base/Types.hpp</text>
</a>
</g>
</g>
<!-- Node1&#45;&gt;Node8 -->
<g id="edge29_Node000001_Node000008" class="edge">
<title>Node1&#45;&gt;Node8</title>
<g id="a_edge29_Node000001_Node000008"><a xlink:title=" ">
<path fill="none" stroke="#63b8ff" d="M640.36,-237.58C585.14,-233.43 513.65,-222.51 456,-195 416.23,-176.02 400.02,-169.22 382,-129 369.51,-101.13 399.08,-85.34 432.7,-76.48"/>
<polygon fill="#63b8ff" stroke="#63b8ff" points="433.84,-79.81 442.74,-74.05 432.2,-73 433.84,-79.81"/>
</a>
</g>
</g>
<!-- Node9 -->
<g id="Node000009" class="node">
<title>Node9</title>
<g id="a_Node000009"><a xlink:title=" ">
<polygon fill="#e0e0e0" stroke="#999999" points="134,-129 0,-129 0,-110 134,-110 134,-129"/>
<text text-anchor="middle" x="67" y="-117" font-family="Helvetica,sans-Serif" font-size="10.00">stk_mesh/base/Ngp.hpp</text>
</a>
</g>
</g>
<!-- Node1&#45;&gt;Node9 -->
<g id="edge27_Node000001_Node000009" class="edge">
<title>Node1&#45;&gt;Node9</title>
<g id="a_edge27_Node000001_Node000009"><a xlink:title=" ">
<path fill="none" stroke="#63b8ff" d="M640.31,-237.49C481.37,-233.22 158,-221.38 114,-195 93.15,-182.5 80.07,-156.78 73.15,-139.1"/>
<polygon fill="#63b8ff" stroke="#63b8ff" points="76.3,-137.53 69.62,-129.31 69.72,-139.9 76.3,-137.53"/>
</a>
</g>
</g>
<!-- Node10 -->
<g id="Node000010" class="node">
<title>Node10</title>
<g id="a_Node000010"><a xlink:title=" ">
<polygon fill="#e0e0e0" stroke="#999999" points="305.5,-129 152.5,-129 152.5,-110 305.5,-110 305.5,-129"/>
<text text-anchor="middle" x="229" y="-117" font-family="Helvetica,sans-Serif" font-size="10.00">stk_mesh/base/Selector.hpp</text>
</a>
</g>
</g>
<!-- Node1&#45;&gt;Node10 -->
<g id="edge28_Node000001_Node000010" class="edge">
<title>Node1&#45;&gt;Node10</title>
<g id="a_edge28_Node000001_Node000010"><a xlink:title=" ">
<path fill="none" stroke="#63b8ff" d="M640.38,-239.48C481.35,-238.53 158.37,-232 124,-195 114.92,-185.23 116.64,-176.12 124,-165 134.52,-149.12 151.95,-138.89 169.62,-132.31"/>
<polygon fill="#63b8ff" stroke="#63b8ff" points="171.06,-135.52 179.42,-129.02 168.83,-128.89 171.06,-135.52"/>
</a>
</g>
</g>
<!-- Node11 -->
<g id="Node000011" class="node">
<title>Node11</title>
<g id="a_Node000011"><a xlink:href="_stk_simd_mesh_traverser_8h.html" target="_top" xlink:title=" ">
<polygon fill="white" stroke="#666666" points="662.5,-189.5 465.5,-189.5 465.5,-170.5 662.5,-170.5 662.5,-189.5"/>
<text text-anchor="middle" x="564" y="-177.5" font-family="Helvetica,sans-Serif" font-size="10.00">matrix_free/StkSimdMeshTraverser.h</text>
</a>
</g>
</g>
<!-- Node1&#45;&gt;Node11 -->
<g id="edge11_Node000001_Node000011" class="edge">
<title>Node1&#45;&gt;Node11</title>
<g id="a_edge11_Node000001_Node000011"><a xlink:title=" ">
<path fill="none" stroke="#63b8ff" d="M704.15,-230.99C676.1,-220.99 629.33,-204.3 597.6,-192.99"/>
<polygon fill="#63b8ff" stroke="#63b8ff" points="598.47,-189.58 587.88,-189.52 596.12,-196.17 598.47,-189.58"/>
</a>
</g>
</g>
<!-- Node12 -->
<g id="Node000012" class="node">
<title>Node12</title>
<g id="a_Node000012"><a xlink:href="_kokkos_interface_8h.html" target="_top" xlink:title=" ">
<polygon fill="white" stroke="#666666" points="1147,-129 1043,-129 1043,-110 1147,-110 1147,-129"/>
<text text-anchor="middle" x="1095" y="-117" font-family="Helvetica,sans-Serif" font-size="10.00">KokkosInterface.h</text>
</a>
</g>
</g>
<!-- Node1&#45;&gt;Node12 -->
<g id="edge31_Node000001_Node000012" class="edge">
<title>Node1&#45;&gt;Node12</title>
<g id="a_edge31_Node000001_Node000012"><a xlink:title=" ">
<path fill="none" stroke="#63b8ff" d="M815.59,-232.98C890.38,-226.24 991.33,-214 1027,-195 1052.04,-181.66 1072.62,-155.37 1084.36,-137.86"/>
<polygon fill="#63b8ff" stroke="#63b8ff" points="1087.48,-139.48 1089.94,-129.18 1081.59,-135.7 1087.48,-139.48"/>
</a>
</g>
</g>
<!-- Node14 -->
<g id="Node000014" class="node">
<title>Node14</title>
<g id="a_Node000014"><a xlink:title=" ">
<polygon fill="#e0e0e0" stroke="#999999" points="1420.5,-74 1279.5,-74 1279.5,-55 1420.5,-55 1420.5,-74"/>
<text text-anchor="middle" x="1350" y="-62" font-family="Helvetica,sans-Serif" font-size="10.00">stk_mesh/base/Entity.hpp</text>
</a>
</g>
</g>
<!-- Node1&#45;&gt;Node14 -->
<g id="edge26_Node000001_Node000014" class="edge">
<title>Node1&#45;&gt;Node14</title>
<g id="a_edge26_Node000001_Node000014"><a xlink:title=" ">
<path fill="none" stroke="#63b8ff" d="M815.53,-234.47C882.84,-228.99 977.62,-217.74 1058,-195 1162.05,-165.56 1277.01,-105.83 1325.89,-79.04"/>
<polygon fill="#63b8ff" stroke="#63b8ff" points="1327.7,-82.04 1334.76,-74.14 1324.31,-75.91 1327.7,-82.04"/>
</a>
</g>
</g>
<!-- Node18 -->
<g id="Node000018" class="node">
<title>Node18</title>
<g id="a_Node000018"><a xlink:href="_valid_simd_length_8h.html" target="_top" xlink:title=" ">
<polygon fill="white" stroke="#666666" points="1017.5,-189.5 850.5,-189.5 850.5,-170.5 1017.5,-170.5 1017.5,-189.5"/>
<text text-anchor="middle" x="934" y="-177.5" font-family="Helvetica,sans-Serif" font-size="10.00">matrix_free/ValidSimdLength.h</text>
</a>
</g>
</g>
<!-- Node1&#45;&gt;Node18 -->
<g id="edge21_Node000001_Node000018" class="edge">
<title>Node1&#45;&gt;Node18</title>
<g id="a_edge21_Node000001_Node000018"><a xlink:title=" ">
<path fill="none" stroke="#63b8ff" d="M757.95,-230.99C793.96,-220.77 854.5,-203.58 894.35,-192.26"/>
<polygon fill="#63b8ff" stroke="#63b8ff" points="895.35,-195.62 904.01,-189.52 893.43,-188.88 895.35,-195.62"/>
</a>
</g>
</g>
<!-- Node19 -->
<g id="Node000019" class="node">
<title>Node19</title>
<g id="a_Node000019"><a xlink:title=" ">
<polygon fill="#e0e0e0" stroke="#999999" points="1348.5,-189.5 1203.5,-189.5 1203.5,-170.5 1348.5,-170.5 1348.5,-189.5"/>
<text text-anchor="middle" x="1276" y="-177.5" font-family="Helvetica,sans-Serif" font-size="10.00">stk_topology/topology.hpp</text>
</a>
</g>
</g>
<!-- Node1&#45;&gt;Node19 -->
<g id="edge30_Node000001_Node000019" class="edge">
<title>Node1&#45;&gt;Node19</title>
<g id="a_edge30_Node000001_Node000019"><a xlink:title=" ">
<path fill="none" stroke="#63b8ff" d="M815.7,-232.7C908.59,-225.1 1059.41,-211.66 1189,-195 1197.82,-193.87 1207.12,-192.53 1216.23,-191.13"/>
<polygon fill="#63b8ff" stroke="#63b8ff" points="1217.05,-194.54 1226.39,-189.54 1215.97,-187.63 1217.05,-194.54"/>
</a>
</g>
</g>
<!-- Node2&#45;&gt;Node3 -->
<g id="edge2_Node000002_Node000003" class="edge">
<title>Node2&#45;&gt;Node3</title>
<g id="a_edge2_Node000002_Node000003"><a xlink:title=" ">
<path fill="none" stroke="#63b8ff" d="M337.23,-168.78C446.38,-157.86 617.97,-140.7 724.47,-130.05"/>
<polygon fill="#63b8ff" stroke="#63b8ff" points="724.97,-133.52 734.57,-129.04 724.27,-126.56 724.97,-133.52"/>
</a>
</g>
</g>
<!-- Node2&#45;&gt;Node9 -->
<g id="edge8_Node000002_Node000009" class="edge">
<title>Node2&#45;&gt;Node9</title>
<g id="a_edge8_Node000002_Node000009"><a xlink:title=" ">
<path fill="none" stroke="#63b8ff" d="M194.76,-164.99C166.23,-155.05 128.35,-141.86 101.27,-132.43"/>
<polygon fill="#63b8ff" stroke="#63b8ff" points="102.4,-129.12 91.81,-129.14 100.1,-135.73 102.4,-129.12"/>
</a>
</g>
</g>
<!-- Node2&#45;&gt;Node10 -->
<g id="edge9_Node000002_Node000010" class="edge">
<title>Node2&#45;&gt;Node10</title>
<g id="a_edge9_Node000002_Node000010"><a xlink:title=" ">
<path fill="none" stroke="#63b8ff" d="M233.55,-164.84C232.77,-157.21 231.79,-147.7 230.94,-139.45"/>
<polygon fill="#63b8ff" stroke="#63b8ff" points="234.4,-138.86 229.9,-129.27 227.44,-139.57 234.4,-138.86"/>
</a>
</g>
</g>
<!-- Node4 -->
<g id="Node000004" class="node">
<title>Node4</title>
<g id="a_Node000004"><a xlink:href="_kokkos_framework_8h.html" target="_top" xlink:title=" ">
<polygon fill="white" stroke="#666666" points="925.5,-74 750.5,-74 750.5,-55 925.5,-55 925.5,-74"/>
<text text-anchor="middle" x="838" y="-62" font-family="Helvetica,sans-Serif" font-size="10.00">matrix_free/KokkosFramework.h</text>
</a>
</g>
</g>
<!-- Node3&#45;&gt;Node4 -->
<g id="edge3_Node000003_Node000004" class="edge">
<title>Node3&#45;&gt;Node4</title>
<g id="a_edge3_Node000003_Node000004"><a xlink:title=" ">
<path fill="none" stroke="#63b8ff" d="M822.97,-109.75C825.36,-102.72 828.79,-92.62 831.77,-83.84"/>
<polygon fill="#63b8ff" stroke="#63b8ff" points="835.18,-84.68 835.08,-74.09 828.55,-82.43 835.18,-84.68"/>
</a>
</g>
</g>
<!-- Node3&#45;&gt;Node8 -->
<g id="edge7_Node000003_Node000008" class="edge">
<title>Node3&#45;&gt;Node8</title>
<g id="a_edge7_Node000003_Node000008"><a xlink:title=" ">
<path fill="none" stroke="#63b8ff" d="M769.87,-109.98C714.91,-100.65 626.77,-85.67 568.13,-75.71"/>
<polygon fill="#63b8ff" stroke="#63b8ff" points="568.71,-72.26 558.26,-74.04 567.53,-79.16 568.71,-72.26"/>
</a>
</g>
</g>
<!-- Node5 -->
<g id="Node000005" class="node">
<title>Node5</title>
<g id="a_Node000005"><a xlink:title=" ">
<polygon fill="#e0e0e0" stroke="#999999" points="1089,-19 989,-19 989,0 1089,0 1089,-19"/>
<text text-anchor="middle" x="1039" y="-7" font-family="Helvetica,sans-Serif" font-size="10.00">Kokkos_Core.hpp</text>
</a>
</g>
</g>
<!-- Node4&#45;&gt;Node5 -->
<g id="edge4_Node000004_Node000005" class="edge">
<title>Node4&#45;&gt;Node5</title>
<g id="a_edge4_Node000004_Node000005"><a xlink:title=" ">
<path fill="none" stroke="#63b8ff" d="M870.29,-54.98C904.62,-45.93 959.06,-31.58 996.77,-21.64"/>
<polygon fill="#63b8ff" stroke="#63b8ff" points="997.68,-25.02 1006.45,-19.08 995.89,-18.25 997.68,-25.02"/>
</a>
</g>
</g>
<!-- Node6 -->
<g id="Node000006" class="node">
<title>Node6</title>
<g id="a_Node000006"><a xlink:title=" ">
<polygon fill="#e0e0e0" stroke="#999999" points="971,-19 861,-19 861,0 971,0 971,-19"/>
<text text-anchor="middle" x="916" y="-7" font-family="Helvetica,sans-Serif" font-size="10.00">stk_simd/Simd.hpp</text>
</a>
</g>
</g>
<!-- Node4&#45;&gt;Node6 -->
<g id="edge5_Node000004_Node000006" class="edge">
<title>Node4&#45;&gt;Node6</title>
<g id="a_edge5_Node000004_Node000006"><a xlink:title=" ">
<path fill="none" stroke="#63b8ff" d="M850.53,-54.98C862.4,-46.92 880.46,-34.65 894.61,-25.03"/>
<polygon fill="#63b8ff" stroke="#63b8ff" points="896.94,-27.69 903.24,-19.17 893,-21.9 896.94,-27.69"/>
</a>
</g>
</g>
<!-- Node7 -->
<g id="Node000007" class="node">
<title>Node7</title>
<g id="a_Node000007"><a xlink:title=" ">
<polygon fill="#e0e0e0" stroke="#999999" points="842.5,-19 773.5,-19 773.5,0 842.5,0 842.5,-19"/>
<text text-anchor="middle" x="808" y="-7" font-family="Helvetica,sans-Serif" font-size="10.00">type_traits</text>
</a>
</g>
</g>
<!-- Node4&#45;&gt;Node7 -->
<g id="edge6_Node000004_Node000007" class="edge">
<title>Node4&#45;&gt;Node7</title>
<g id="a_edge6_Node000004_Node000007"><a xlink:title=" ">
<path fill="none" stroke="#63b8ff" d="M833.05,-54.75C828.94,-47.49 822.97,-36.95 817.9,-27.98"/>
<polygon fill="#63b8ff" stroke="#63b8ff" points="820.83,-26.07 812.86,-19.09 814.74,-29.52 820.83,-26.07"/>
</a>
</g>
</g>
<!-- Node11&#45;&gt;Node8 -->
<g id="edge19_Node000011_Node000008" class="edge">
<title>Node11&#45;&gt;Node8</title>
<g id="a_edge19_Node000011_Node000008"><a xlink:title=" ">
<path fill="none" stroke="#63b8ff" d="M509.06,-170.43C463.98,-162.15 405.33,-148.05 391,-129 371.3,-102.8 409.34,-86.14 447.19,-76.49"/>
<polygon fill="#63b8ff" stroke="#63b8ff" points="448.38,-79.81 457.29,-74.07 446.75,-73 448.38,-79.81"/>
</a>
</g>
</g>
<!-- Node11&#45;&gt;Node10 -->
<g id="edge18_Node000011_Node000010" class="edge">
<title>Node11&#45;&gt;Node10</title>
<g id="a_edge18_Node000011_Node000010"><a xlink:title=" ">
<path fill="none" stroke="#63b8ff" d="M515.29,-170.49C455,-159.97 352.41,-142.05 287.8,-130.77"/>
<polygon fill="#63b8ff" stroke="#63b8ff" points="288.22,-127.29 277.77,-129.02 287.02,-134.18 288.22,-127.29"/>
</a>
</g>
</g>
<!-- Node11&#45;&gt;Node12 -->
<g id="edge12_Node000011_Node000012" class="edge">
<title>Node11&#45;&gt;Node12</title>
<g id="a_edge12_Node000011_Node000012"><a xlink:title=" ">
<path fill="none" stroke="#63b8ff" d="M641.21,-170.49C747.2,-158.82 935.65,-138.06 1032.99,-127.33"/>
<polygon fill="#63b8ff" stroke="#63b8ff" points="1033.42,-130.81 1042.97,-126.23 1032.65,-123.85 1033.42,-130.81"/>
</a>
</g>
</g>
<!-- Node16 -->
<g id="Node000016" class="node">
<title>Node16</title>
<g id="a_Node000016"><a xlink:title=" ">
<polygon fill="#e0e0e0" stroke="#999999" points="537.5,-129 400.5,-129 400.5,-110 537.5,-110 537.5,-129"/>
<text text-anchor="middle" x="469" y="-117" font-family="Helvetica,sans-Serif" font-size="10.00">stk_mesh/base/Field.hpp</text>
</a>
</g>
</g>
<!-- Node11&#45;&gt;Node16 -->
<g id="edge17_Node000011_Node000016" class="edge">
<title>Node11&#45;&gt;Node16</title>
<g id="a_edge17_Node000011_Node000016"><a xlink:title=" ">
<path fill="none" stroke="#63b8ff" d="M549.98,-170.37C534.69,-160.95 509.97,-145.73 491.86,-134.58"/>
<polygon fill="#63b8ff" stroke="#63b8ff" points="493.43,-131.43 483.08,-129.17 489.75,-137.39 493.43,-131.43"/>
</a>
</g>
</g>
<!-- Node17 -->
<g id="Node000017" class="node">
<title>Node17</title>
<g id="a_Node000017"><a xlink:title=" ">
<polygon fill="#e0e0e0" stroke="#999999" points="716,-129 556,-129 556,-110 716,-110 716,-129"/>
<text text-anchor="middle" x="636" y="-117" font-family="Helvetica,sans-Serif" font-size="10.00">stk_mesh/base/NgpMesh.hpp</text>
</a>
</g>
</g>
<!-- Node11&#45;&gt;Node17 -->
<g id="edge20_Node000011_Node000017" class="edge">
<title>Node11&#45;&gt;Node17</title>
<g id="a_edge20_Node000011_Node000017"><a xlink:title=" ">
<path fill="none" stroke="#63b8ff" d="M574.62,-170.37C585.9,-161.21 603.92,-146.56 617.53,-135.51"/>
<polygon fill="#63b8ff" stroke="#63b8ff" points="619.78,-138.19 625.33,-129.17 615.36,-132.76 619.78,-138.19"/>
</a>
</g>
</g>
<!-- Node12&#45;&gt;Node5 -->
<g id="edge16_Node000012_Node000005" class="edge">
<title>Node12&#45;&gt;Node5</title>
<g id="a_edge16_Node000012_Node000005"><a xlink:title=" ">
<path fill="none" stroke="#63b8ff" d="M1139.28,-109.97C1174.93,-102.1 1220.86,-89.33 1232,-74 1236.96,-67.17 1237.26,-61.61 1232,-55 1215.58,-34.36 1149.51,-22.47 1099.21,-16.27"/>
<polygon fill="#63b8ff" stroke="#63b8ff" points="1099.4,-12.76 1089.06,-15.06 1098.58,-19.72 1099.4,-12.76"/>
</a>
</g>
</g>
<!-- Node13 -->
<g id="Node000013" class="node">
<title>Node13</title>
<g id="a_Node000013"><a xlink:title=" ">
<polygon fill="#e0e0e0" stroke="#999999" points="1222.5,-74 1169.5,-74 1169.5,-55 1222.5,-55 1222.5,-74"/>
<text text-anchor="middle" x="1196" y="-62" font-family="Helvetica,sans-Serif" font-size="10.00">cstddef</text>
</a>
</g>
</g>
<!-- Node12&#45;&gt;Node13 -->
<g id="edge13_Node000012_Node000013" class="edge">
<title>Node12&#45;&gt;Node13</title>
<g id="a_edge13_Node000012_Node000013"><a xlink:title=" ">
<path fill="none" stroke="#63b8ff" d="M1111.23,-109.98C1127.18,-101.61 1151.78,-88.7 1170.38,-78.95"/>
<polygon fill="#63b8ff" stroke="#63b8ff" points="1172.25,-81.92 1179.48,-74.17 1169,-75.72 1172.25,-81.92"/>
</a>
</g>
</g>
<!-- Node12&#45;&gt;Node14 -->
<g id="edge14_Node000012_Node000014" class="edge">
<title>Node12&#45;&gt;Node14</title>
<g id="a_edge14_Node000012_Node000014"><a xlink:title=" ">
<path fill="none" stroke="#63b8ff" d="M1135.97,-109.98C1180.26,-100.78 1250.94,-86.09 1298.85,-76.13"/>
<polygon fill="#63b8ff" stroke="#63b8ff" points="1299.63,-79.54 1308.71,-74.08 1298.21,-72.69 1299.63,-79.54"/>
</a>
</g>
</g>
<!-- Node15 -->
<g id="Node000015" class="node">
<title>Node15</title>
<g id="a_Node000015"><a xlink:title=" ">
<polygon fill="#e0e0e0" stroke="#999999" points="1151.5,-74 1038.5,-74 1038.5,-55 1151.5,-55 1151.5,-74"/>
<text text-anchor="middle" x="1095" y="-62" font-family="Helvetica,sans-Serif" font-size="10.00">Kokkos_Macros.hpp</text>
</a>
</g>
</g>
<!-- Node12&#45;&gt;Node15 -->
<g id="edge15_Node000012_Node000015" class="edge">
<title>Node12&#45;&gt;Node15</title>
<g id="a_edge15_Node000012_Node000015"><a xlink:title=" ">
<path fill="none" stroke="#63b8ff" d="M1095,-109.75C1095,-102.8 1095,-92.85 1095,-84.13"/>
<polygon fill="#63b8ff" stroke="#63b8ff" points="1098.5,-84.09 1095,-74.09 1091.5,-84.09 1098.5,-84.09"/>
</a>
</g>
</g>
<!-- Node18&#45;&gt;Node3 -->
<g id="edge22_Node000018_Node000003" class="edge">
<title>Node18&#45;&gt;Node3</title>
<g id="a_edge22_Node000018_Node000003"><a xlink:title=" ">
<path fill="none" stroke="#63b8ff" d="M917.18,-170.37C898.4,-160.73 867.8,-145.03 845.95,-133.81"/>
<polygon fill="#63b8ff" stroke="#63b8ff" points="847.39,-130.62 836.89,-129.17 844.19,-136.85 847.39,-130.62"/>
</a>
</g>
</g>
<!-- Node18&#45;&gt;Node5 -->
<g id="edge23_Node000018_Node000005" class="edge">
<title>Node18&#45;&gt;Node5</title>
<g id="a_edge23_Node000018_Node000005"><a xlink:title=" ">
<path fill="none" stroke="#63b8ff" d="M939.35,-170.41C955.78,-144.05 1005.71,-63.93 1028.02,-28.12"/>
<polygon fill="#63b8ff" stroke="#63b8ff" points="1031.22,-29.61 1033.53,-19.27 1025.27,-25.91 1031.22,-29.61"/>
</a>
</g>
</g>
<!-- Node18&#45;&gt;Node6 -->
<g id="edge24_Node000018_Node000006" class="edge">
<title>Node18&#45;&gt;Node6</title>
<g id="a_edge24_Node000018_Node000006"><a xlink:title=" ">
<path fill="none" stroke="#63b8ff" d="M935.28,-170.46C938.05,-150.18 943.71,-97.61 935,-55 933.11,-45.74 929.21,-36.03 925.43,-28.04"/>
<polygon fill="#63b8ff" stroke="#63b8ff" points="928.51,-26.37 920.88,-19.02 922.26,-29.53 928.51,-26.37"/>
</a>
</g>
</g>
<!-- Node18&#45;&gt;Node8 -->
<g id="edge25_Node000018_Node000008" class="edge">
<title>Node18&#45;&gt;Node8</title>
<g id="a_edge25_Node000018_Node000008"><a xlink:title=" ">
<path fill="none" stroke="#63b8ff" d="M934.45,-170.19C934.69,-155.26 932.78,-125.15 915,-110 890.76,-89.36 701.12,-75.81 589.45,-69.54"/>
<polygon fill="#63b8ff" stroke="#63b8ff" points="589.4,-66.03 579.22,-68.98 589.02,-73.02 589.4,-66.03"/>
</a>
</g>
</g>
</g>
</svg>
