<?xml version="1.0" encoding="UTF-8" standalone="no"?>
<!DOCTYPE svg PUBLIC "-//W3C//DTD SVG 1.1//EN"
 "http://www.w3.org/Graphics/SVG/1.1/DTD/svg11.dtd">
<!-- Generated by graphviz version 2.43.0 (0)
 -->
<!-- Title: StkSimdNodeConnectivityMap.h Pages: 1 -->
<svg width="892pt" height="82pt"
 viewBox="0.00 0.00 892.00 82.00" xmlns="http://www.w3.org/2000/svg" xmlns:xlink="http://www.w3.org/1999/xlink">
<g id="graph0" class="graph" transform="scale(1 1) rotate(0) translate(4 78)">
<title>StkSimdNodeConnectivityMap.h</title>
<!-- Node1 -->
<g id="Node000001" class="node">
<title>Node1</title>
<g id="a_Node000001"><a xlink:title=" ">
<polygon fill="#999999" stroke="#666666" points="561.5,-74 387.5,-74 387.5,-55 561.5,-55 561.5,-74"/>
<text text-anchor="middle" x="474.5" y="-62" font-family="Helvetica,sans-Serif" font-size="10.00">StkSimdNodeConnectivityMap.h</text>
</a>
</g>
</g>
<!-- Node2 -->
<g id="Node000002" class="node">
<title>Node2</title>
<g id="a_Node000002"><a xlink:href="_conduction_gathered_field_manager_8_c.html" target="_top" xlink:title=" ">
<polygon fill="white" stroke="#666666" points="191,-19 0,-19 0,0 191,0 191,-19"/>
<text text-anchor="middle" x="95.5" y="-7" font-family="Helvetica,sans-Serif" font-size="10.00">ConductionGatheredFieldManager.C</text>
</a>
</g>
</g>
<!-- Node1&#45;&gt;Node2 -->
<g id="edge1_Node000001_Node000002" class="edge">
<title>Node1&#45;&gt;Node2</title>
<g id="a_edge1_Node000001_Node000002"><a xlink:title=" ">
<path fill="none" stroke="#63b8ff" d="M403.39,-53.56C332.23,-43.61 223.93,-28.46 156.56,-19.04"/>
<polygon fill="#63b8ff" stroke="#63b8ff" points="403.22,-57.07 413.61,-54.98 404.19,-50.13 403.22,-57.07"/>
</a>
</g>
</g>
<!-- Node3 -->
<g id="Node000003" class="node">
<title>Node3</title>
<g id="a_Node000003"><a xlink:href="_conduction_solution_update_8_c.html" target="_top" xlink:title=" ">
<polygon fill="white" stroke="#666666" points="365.5,-19 209.5,-19 209.5,0 365.5,0 365.5,-19"/>
<text text-anchor="middle" x="287.5" y="-7" font-family="Helvetica,sans-Serif" font-size="10.00">ConductionSolutionUpdate.C</text>
</a>
</g>
</g>
<!-- Node1&#45;&gt;Node3 -->
<g id="edge2_Node000001_Node000003" class="edge">
<title>Node1&#45;&gt;Node3</title>
<g id="a_edge2_Node000001_Node000003"><a xlink:title=" ">
<path fill="none" stroke="#63b8ff" d="M434.57,-52.18C399.6,-42.27 349.54,-28.08 317.78,-19.08"/>
<polygon fill="#63b8ff" stroke="#63b8ff" points="433.88,-55.63 444.46,-54.98 435.79,-48.89 433.88,-55.63"/>
</a>
</g>
</g>
<!-- Node4 -->
<g id="Node000004" class="node">
<title>Node4</title>
<g id="a_Node000004"><a xlink:href="_low_mach_gathered_field_manager_8_c.html" target="_top" xlink:title=" ">
<polygon fill="white" stroke="#666666" points="565.5,-19 383.5,-19 383.5,0 565.5,0 565.5,-19"/>
<text text-anchor="middle" x="474.5" y="-7" font-family="Helvetica,sans-Serif" font-size="10.00">LowMachGatheredFieldManager.C</text>
</a>
</g>
</g>
<!-- Node1&#45;&gt;Node4 -->
<g id="edge3_Node000001_Node000004" class="edge">
<title>Node1&#45;&gt;Node4</title>
<g id="a_edge3_Node000001_Node000004"><a xlink:title=" ">
<path fill="none" stroke="#63b8ff" d="M474.5,-44.66C474.5,-35.93 474.5,-25.99 474.5,-19.09"/>
<polygon fill="#63b8ff" stroke="#63b8ff" points="471,-44.75 474.5,-54.75 478,-44.75 471,-44.75"/>
</a>
</g>
</g>
<!-- Node5 -->
<g id="Node000005" class="node">
<title>Node5</title>
<g id="a_Node000005"><a xlink:href="_low_mach_update_8_c.html" target="_top" xlink:title=" ">
<polygon fill="white" stroke="#666666" points="691,-19 584,-19 584,0 691,0 691,-19"/>
<text text-anchor="middle" x="637.5" y="-7" font-family="Helvetica,sans-Serif" font-size="10.00">LowMachUpdate.C</text>
</a>
</g>
</g>
<!-- Node1&#45;&gt;Node5 -->
<g id="edge4_Node000001_Node000005" class="edge">
<title>Node1&#45;&gt;Node5</title>
<g id="a_edge4_Node000001_Node000005"><a xlink:title=" ">
<path fill="none" stroke="#63b8ff" d="M510.49,-51.8C540.91,-41.91 583.78,-27.97 611.11,-19.08"/>
<polygon fill="#63b8ff" stroke="#63b8ff" points="509.12,-48.56 500.69,-54.98 511.28,-55.22 509.12,-48.56"/>
</a>
</g>
</g>
<!-- Node6 -->
<g id="Node000006" class="node">
<title>Node6</title>
<g id="a_Node000006"><a xlink:href="_stk_simd_node_connectivity_map_8_c.html" target="_top" xlink:title=" ">
<polygon fill="white" stroke="#666666" points="884,-19 709,-19 709,0 884,0 884,-19"/>
<text text-anchor="middle" x="796.5" y="-7" font-family="Helvetica,sans-Serif" font-size="10.00">StkSimdNodeConnectivityMap.C</text>
</a>
</g>
</g>
<!-- Node1&#45;&gt;Node6 -->
<g id="edge5_Node000001_Node000006" class="edge">
<title>Node1&#45;&gt;Node6</title>
<g id="a_edge5_Node000001_Node000006"><a xlink:title=" ">
<path fill="none" stroke="#63b8ff" d="M536.41,-53.31C596.88,-43.36 687.85,-28.38 744.63,-19.04"/>
<polygon fill="#63b8ff" stroke="#63b8ff" points="535.53,-49.91 526.23,-54.98 536.67,-56.81 535.53,-49.91"/>
</a>
</g>
</g>
</g>
</svg>
