<?xml version="1.0" encoding="UTF-8" standalone="no"?>
<!DOCTYPE svg PUBLIC "-//W3C//DTD SVG 1.1//EN"
 "http://www.w3.org/Graphics/SVG/1.1/DTD/svg11.dtd">
<!-- Generated by graphviz version 2.43.0 (0)
 -->
<!-- Title: StkSimdNodeConnectivityMap.h Pages: 1 -->
<svg width="679pt" height="192pt"
 viewBox="0.00 0.00 678.50 192.00" xmlns="http://www.w3.org/2000/svg" xmlns:xlink="http://www.w3.org/1999/xlink">
<g id="graph0" class="graph" transform="scale(1 1) rotate(0) translate(4 188)">
<title>StkSimdNodeConnectivityMap.h</title>
<!-- Node1 -->
<g id="Node000001" class="node">
<title>Node1</title>
<g id="a_Node000001"><a xlink:title=" ">
<polygon fill="#999999" stroke="#666666" points="519,-184 345,-184 345,-165 519,-165 519,-184"/>
<text text-anchor="middle" x="432" y="-172" font-family="Helvetica,sans-Serif" font-size="10.00">StkSimdNodeConnectivityMap.h</text>
</a>
</g>
</g>
<!-- Node2 -->
<g id="Node000002" class="node">
<title>Node2</title>
<g id="a_Node000002"><a xlink:href="_kokkos_view_types_8h.html" target="_top" xlink:title=" ">
<polygon fill="white" stroke="#666666" points="347,-129 175,-129 175,-110 347,-110 347,-129"/>
<text text-anchor="middle" x="261" y="-117" font-family="Helvetica,sans-Serif" font-size="10.00">matrix_free/KokkosViewTypes.h</text>
</a>
</g>
</g>
<!-- Node1&#45;&gt;Node2 -->
<g id="edge1_Node000001_Node000002" class="edge">
<title>Node1&#45;&gt;Node2</title>
<g id="a_edge1_Node000001_Node000002"><a xlink:title=" ">
<path fill="none" stroke="#63b8ff" d="M404.53,-164.98C375.82,-156.09 330.58,-142.07 298.58,-132.15"/>
<polygon fill="#63b8ff" stroke="#63b8ff" points="299.28,-128.7 288.69,-129.08 297.2,-135.39 299.28,-128.7"/>
</a>
</g>
</g>
<!-- Node8 -->
<g id="Node000008" class="node">
<title>Node8</title>
<g id="a_Node000008"><a xlink:title=" ">
<polygon fill="#e0e0e0" stroke="#999999" points="499,-129 365,-129 365,-110 499,-110 499,-129"/>
<text text-anchor="middle" x="432" y="-117" font-family="Helvetica,sans-Serif" font-size="10.00">stk_mesh/base/Ngp.hpp</text>
</a>
</g>
</g>
<!-- Node1&#45;&gt;Node8 -->
<g id="edge7_Node000001_Node000008" class="edge">
<title>Node1&#45;&gt;Node8</title>
<g id="a_edge7_Node000001_Node000008"><a xlink:title=" ">
<path fill="none" stroke="#63b8ff" d="M432,-164.75C432,-157.8 432,-147.85 432,-139.13"/>
<polygon fill="#63b8ff" stroke="#63b8ff" points="435.5,-139.09 432,-129.09 428.5,-139.09 435.5,-139.09"/>
</a>
</g>
</g>
<!-- Node9 -->
<g id="Node000009" class="node">
<title>Node9</title>
<g id="a_Node000009"><a xlink:title=" ">
<polygon fill="#e0e0e0" stroke="#999999" points="670.5,-129 517.5,-129 517.5,-110 670.5,-110 670.5,-129"/>
<text text-anchor="middle" x="594" y="-117" font-family="Helvetica,sans-Serif" font-size="10.00">stk_mesh/base/Selector.hpp</text>
</a>
</g>
</g>
<!-- Node1&#45;&gt;Node9 -->
<g id="edge8_Node000001_Node000009" class="edge">
<title>Node1&#45;&gt;Node9</title>
<g id="a_edge8_Node000001_Node000009"><a xlink:title=" ">
<path fill="none" stroke="#63b8ff" d="M458.03,-164.98C485.11,-156.13 527.71,-142.19 558.01,-132.28"/>
<polygon fill="#63b8ff" stroke="#63b8ff" points="559.35,-135.52 567.77,-129.08 557.18,-128.87 559.35,-135.52"/>
</a>
</g>
</g>
<!-- Node3 -->
<g id="Node000003" class="node">
<title>Node3</title>
<g id="a_Node000003"><a xlink:href="_kokkos_framework_8h.html" target="_top" xlink:title=" ">
<polygon fill="white" stroke="#666666" points="260.5,-74 85.5,-74 85.5,-55 260.5,-55 260.5,-74"/>
<text text-anchor="middle" x="173" y="-62" font-family="Helvetica,sans-Serif" font-size="10.00">matrix_free/KokkosFramework.h</text>
</a>
</g>
</g>
<!-- Node2&#45;&gt;Node3 -->
<g id="edge2_Node000002_Node000003" class="edge">
<title>Node2&#45;&gt;Node3</title>
<g id="a_edge2_Node000002_Node000003"><a xlink:title=" ">
<path fill="none" stroke="#63b8ff" d="M246.86,-109.98C233.21,-101.77 212.31,-89.18 196.22,-79.49"/>
<polygon fill="#63b8ff" stroke="#63b8ff" points="197.77,-76.33 187.4,-74.17 194.16,-82.33 197.77,-76.33"/>
</a>
</g>
</g>
<!-- Node7 -->
<g id="Node000007" class="node">
<title>Node7</title>
<g id="a_Node000007"><a xlink:title=" ">
<polygon fill="#e0e0e0" stroke="#999999" points="421,-74 279,-74 279,-55 421,-55 421,-74"/>
<text text-anchor="middle" x="350" y="-62" font-family="Helvetica,sans-Serif" font-size="10.00">stk_mesh/base/Types.hpp</text>
</a>
</g>
</g>
<!-- Node2&#45;&gt;Node7 -->
<g id="edge6_Node000002_Node000007" class="edge">
<title>Node2&#45;&gt;Node7</title>
<g id="a_edge6_Node000002_Node000007"><a xlink:title=" ">
<path fill="none" stroke="#63b8ff" d="M275.3,-109.98C289.1,-101.77 310.24,-89.18 326.51,-79.49"/>
<polygon fill="#63b8ff" stroke="#63b8ff" points="328.64,-82.29 335.44,-74.17 325.06,-76.28 328.64,-82.29"/>
</a>
</g>
</g>
<!-- Node4 -->
<g id="Node000004" class="node">
<title>Node4</title>
<g id="a_Node000004"><a xlink:title=" ">
<polygon fill="#e0e0e0" stroke="#999999" points="100,-19 0,-19 0,0 100,0 100,-19"/>
<text text-anchor="middle" x="50" y="-7" font-family="Helvetica,sans-Serif" font-size="10.00">Kokkos_Core.hpp</text>
</a>
</g>
</g>
<!-- Node3&#45;&gt;Node4 -->
<g id="edge3_Node000003_Node000004" class="edge">
<title>Node3&#45;&gt;Node4</title>
<g id="a_edge3_Node000003_Node000004"><a xlink:title=" ">
<path fill="none" stroke="#63b8ff" d="M153.24,-54.98C133.27,-46.38 102.2,-32.99 79.35,-23.15"/>
<polygon fill="#63b8ff" stroke="#63b8ff" points="80.69,-19.91 70.12,-19.17 77.92,-26.34 80.69,-19.91"/>
</a>
</g>
</g>
<!-- Node5 -->
<g id="Node000005" class="node">
<title>Node5</title>
<g id="a_Node000005"><a xlink:title=" ">
<polygon fill="#e0e0e0" stroke="#999999" points="228,-19 118,-19 118,0 228,0 228,-19"/>
<text text-anchor="middle" x="173" y="-7" font-family="Helvetica,sans-Serif" font-size="10.00">stk_simd/Simd.hpp</text>
</a>
</g>
</g>
<!-- Node3&#45;&gt;Node5 -->
<g id="edge4_Node000003_Node000005" class="edge">
<title>Node3&#45;&gt;Node5</title>
<g id="a_edge4_Node000003_Node000005"><a xlink:title=" ">
<path fill="none" stroke="#63b8ff" d="M173,-54.75C173,-47.8 173,-37.85 173,-29.13"/>
<polygon fill="#63b8ff" stroke="#63b8ff" points="176.5,-29.09 173,-19.09 169.5,-29.09 176.5,-29.09"/>
</a>
</g>
</g>
<!-- Node6 -->
<g id="Node000006" class="node">
<title>Node6</title>
<g id="a_Node000006"><a xlink:title=" ">
<polygon fill="#e0e0e0" stroke="#999999" points="315.5,-19 246.5,-19 246.5,0 315.5,0 315.5,-19"/>
<text text-anchor="middle" x="281" y="-7" font-family="Helvetica,sans-Serif" font-size="10.00">type_traits</text>
</a>
</g>
</g>
<!-- Node3&#45;&gt;Node6 -->
<g id="edge5_Node000003_Node000006" class="edge">
<title>Node3&#45;&gt;Node6</title>
<g id="a_edge5_Node000003_Node000006"><a xlink:title=" ">
<path fill="none" stroke="#63b8ff" d="M190.35,-54.98C207.57,-46.54 234.2,-33.47 254.15,-23.68"/>
<polygon fill="#63b8ff" stroke="#63b8ff" points="255.9,-26.72 263.33,-19.17 252.81,-20.43 255.9,-26.72"/>
</a>
</g>
</g>
</g>
</svg>
