<?xml version="1.0" encoding="UTF-8" standalone="no"?>
<!DOCTYPE svg PUBLIC "-//W3C//DTD SVG 1.1//EN"
 "http://www.w3.org/Graphics/SVG/1.1/DTD/svg11.dtd">
<!-- Generated by graphviz version 2.43.0 (0)
 -->
<!-- Title: StkSimdFaceConnectivityMap.h Pages: 1 -->
<svg width="1034pt" height="84pt"
 viewBox="0.00 0.00 1034.00 84.00" xmlns="http://www.w3.org/2000/svg" xmlns:xlink="http://www.w3.org/1999/xlink">
<g id="graph0" class="graph" transform="scale(1 1) rotate(0) translate(4 80)">
<title>StkSimdFaceConnectivityMap.h</title>
<polygon fill="white" stroke="transparent" points="-4,4 -4,-80 1030,-80 1030,4 -4,4"/>
<!-- Node1 -->
<g id="node1" class="node">
<title>Node1</title>
<g id="a_node1"><a xlink:title=" ">
<polygon fill="#bfbfbf" stroke="black" points="448.5,-56.5 448.5,-75.5 618.5,-75.5 618.5,-56.5 448.5,-56.5"/>
<text text-anchor="middle" x="533.5" y="-63.5" font-family="Helvetica,sans-Serif" font-size="10.00">StkSimdFaceConnectivityMap.h</text>
</a>
</g>
</g>
<!-- Node2 -->
<g id="node2" class="node">
<title>Node2</title>
<g id="a_node2"><a xlink:href="_conduction_gathered_field_manager_8_c.html" target="_top" xlink:title=" ">
<polygon fill="white" stroke="black" points="0,-0.5 0,-19.5 191,-19.5 191,-0.5 0,-0.5"/>
<text text-anchor="middle" x="95.5" y="-7.5" font-family="Helvetica,sans-Serif" font-size="10.00">ConductionGatheredFieldManager.C</text>
</a>
</g>
</g>
<!-- Node1&#45;&gt;Node2 -->
<g id="edge1" class="edge">
<title>Node1&#45;&gt;Node2</title>
<path fill="none" stroke="midnightblue" d="M454,-55.2C371.31,-45 243.17,-29.21 164.58,-19.52"/>
<polygon fill="midnightblue" stroke="midnightblue" points="453.74,-58.69 464.1,-56.44 454.6,-51.75 453.74,-58.69"/>
</g>
<!-- Node3 -->
<g id="node3" class="node">
<title>Node3</title>
<g id="a_node3"><a xlink:href="_conduction_solution_update_8_c.html" target="_top" xlink:title=" ">
<polygon fill="white" stroke="black" points="209.5,-0.5 209.5,-19.5 365.5,-19.5 365.5,-0.5 209.5,-0.5"/>
<text text-anchor="middle" x="287.5" y="-7.5" font-family="Helvetica,sans-Serif" font-size="10.00">ConductionSolutionUpdate.C</text>
</a>
</g>
</g>
<!-- Node1&#45;&gt;Node3 -->
<g id="edge2" class="edge">
<title>Node1&#45;&gt;Node3</title>
<path fill="none" stroke="midnightblue" d="M484.67,-54.28C438.18,-44.08 369.14,-28.92 326.3,-19.52"/>
<polygon fill="midnightblue" stroke="midnightblue" points="484,-57.72 494.52,-56.44 485.5,-50.88 484,-57.72"/>
</g>
<!-- Node4 -->
<g id="node4" class="node">
<title>Node4</title>
<g id="a_node4"><a xlink:href="_green_gauss_gradient_8_c.html" target="_top" xlink:title=" ">
<polygon fill="white" stroke="black" points="383.5,-0.5 383.5,-19.5 511.5,-19.5 511.5,-0.5 383.5,-0.5"/>
<text text-anchor="middle" x="447.5" y="-7.5" font-family="Helvetica,sans-Serif" font-size="10.00">GreenGaussGradient.C</text>
</a>
</g>
</g>
<!-- Node1&#45;&gt;Node4 -->
<g id="edge3" class="edge">
<title>Node1&#45;&gt;Node4</title>
<path fill="none" stroke="midnightblue" d="M511.05,-50.9C495.28,-41 474.69,-28.07 461.28,-19.65"/>
<polygon fill="midnightblue" stroke="midnightblue" points="509.35,-53.97 519.68,-56.32 513.07,-48.04 509.35,-53.97"/>
</g>
<!-- Node5 -->
<g id="node5" class="node">
<title>Node5</title>
<g id="a_node5"><a xlink:href="_low_mach_gathered_field_manager_8_c.html" target="_top" xlink:title=" ">
<polygon fill="white" stroke="black" points="529.5,-0.5 529.5,-19.5 711.5,-19.5 711.5,-0.5 529.5,-0.5"/>
<text text-anchor="middle" x="620.5" y="-7.5" font-family="Helvetica,sans-Serif" font-size="10.00">LowMachGatheredFieldManager.C</text>
</a>
</g>
</g>
<!-- Node1&#45;&gt;Node5 -->
<g id="edge4" class="edge">
<title>Node1&#45;&gt;Node5</title>
<path fill="none" stroke="midnightblue" d="M556.22,-50.9C572.17,-41 593,-28.07 606.56,-19.65"/>
<polygon fill="midnightblue" stroke="midnightblue" points="554.13,-48.08 547.48,-56.32 557.82,-54.02 554.13,-48.08"/>
</g>
<!-- Node6 -->
<g id="node6" class="node">
<title>Node6</title>
<g id="a_node6"><a xlink:href="_low_mach_update_8_c.html" target="_top" xlink:title=" ">
<polygon fill="white" stroke="black" points="730,-0.5 730,-19.5 837,-19.5 837,-0.5 730,-0.5"/>
<text text-anchor="middle" x="783.5" y="-7.5" font-family="Helvetica,sans-Serif" font-size="10.00">LowMachUpdate.C</text>
</a>
</g>
</g>
<!-- Node1&#45;&gt;Node6 -->
<g id="edge5" class="edge">
<title>Node1&#45;&gt;Node6</title>
<path fill="none" stroke="midnightblue" d="M583.12,-54.28C630.37,-44.08 700.54,-28.92 744.07,-19.52"/>
<polygon fill="midnightblue" stroke="midnightblue" points="582.15,-50.91 573.11,-56.44 583.63,-57.75 582.15,-50.91"/>
</g>
<!-- Node7 -->
<g id="node7" class="node">
<title>Node7</title>
<g id="a_node7"><a xlink:href="_stk_simd_face_connectivity_map_8_c.html" target="_top" xlink:title=" ">
<polygon fill="white" stroke="black" points="855,-0.5 855,-19.5 1026,-19.5 1026,-0.5 855,-0.5"/>
<text text-anchor="middle" x="940.5" y="-7.5" font-family="Helvetica,sans-Serif" font-size="10.00">StkSimdFaceConnectivityMap.C</text>
</a>
</g>
</g>
<!-- Node1&#45;&gt;Node7 -->
<g id="edge6" class="edge">
<title>Node1&#45;&gt;Node7</title>
<path fill="none" stroke="midnightblue" d="M608.08,-55.1C684.94,-44.91 803.5,-29.18 876.31,-19.52"/>
<polygon fill="midnightblue" stroke="midnightblue" points="607.44,-51.66 597.99,-56.44 608.36,-58.6 607.44,-51.66"/>
</g>
</g>
</svg>
