<?xml version="1.0" encoding="UTF-8" standalone="no"?>
<!DOCTYPE svg PUBLIC "-//W3C//DTD SVG 1.1//EN"
 "http://www.w3.org/Graphics/SVG/1.1/DTD/svg11.dtd">
<!-- Generated by graphviz version 2.43.0 (0)
 -->
<!-- Title: StkHelpers.C Pages: 1 -->
<svg width="2468pt" height="386pt"
 viewBox="0.00 0.00 2468.32 386.00" xmlns="http://www.w3.org/2000/svg" xmlns:xlink="http://www.w3.org/1999/xlink">
<g id="graph0" class="graph" transform="scale(1 1) rotate(0) translate(4 382)">
<title>StkHelpers.C</title>
<polygon fill="white" stroke="transparent" points="-4,4 -4,-382 2464.32,-382 2464.32,4 -4,4"/>
<!-- Node1 -->
<g id="node1" class="node">
<title>Node1</title>
<g id="a_node1"><a xlink:title=" ">
<polygon fill="#bfbfbf" stroke="black" points="896,-358.5 896,-377.5 976,-377.5 976,-358.5 896,-358.5"/>
<text text-anchor="middle" x="936" y="-365.5" font-family="Helvetica,sans-Serif" font-size="10.00">StkHelpers.C</text>
</a>
</g>
</g>
<!-- Node2 -->
<g id="node2" class="node">
<title>Node2</title>
<g id="a_node2"><a xlink:href="_stk_helpers_8h.html" target="_top" xlink:title=" ">
<polygon fill="white" stroke="black" points="198.5,-174 198.5,-193 301.5,-193 301.5,-174 198.5,-174"/>
<text text-anchor="middle" x="250" y="-181" font-family="Helvetica,sans-Serif" font-size="10.00">utils/StkHelpers.h</text>
</a>
</g>
</g>
<!-- Node1&#45;&gt;Node2 -->
<g id="edge1" class="edge">
<title>Node1&#45;&gt;Node2</title>
<path fill="none" stroke="midnightblue" d="M895.72,-366.4C765.85,-364.13 363.78,-354.54 316,-322 275.25,-294.25 258.86,-234.12 252.95,-203.4"/>
<polygon fill="midnightblue" stroke="midnightblue" points="256.34,-202.44 251.18,-193.19 249.44,-203.64 256.34,-202.44"/>
</g>
<!-- Node3 -->
<g id="node3" class="node">
<title>Node3</title>
<g id="a_node3"><a xlink:title=" ">
<polygon fill="white" stroke="#bfbfbf" points="60,-112.5 60,-131.5 222,-131.5 222,-112.5 60,-112.5"/>
<text text-anchor="middle" x="141" y="-119.5" font-family="Helvetica,sans-Serif" font-size="10.00">stk_mesh/base/MetaData.hpp</text>
</a>
</g>
</g>
<!-- Node1&#45;&gt;Node3 -->
<g id="edge80" class="edge">
<title>Node1&#45;&gt;Node3</title>
<path fill="none" stroke="midnightblue" d="M895.79,-366.13C762.09,-362.98 337.84,-350.79 284,-322 208.58,-281.67 163.43,-181.96 147.51,-141"/>
<polygon fill="midnightblue" stroke="midnightblue" points="150.74,-139.65 143.95,-131.52 144.19,-142.11 150.74,-139.65"/>
</g>
<!-- Node4 -->
<g id="node4" class="node">
<title>Node4</title>
<g id="a_node4"><a xlink:title=" ">
<polygon fill="white" stroke="#bfbfbf" points="277.5,-112.5 277.5,-131.5 436.5,-131.5 436.5,-112.5 277.5,-112.5"/>
<text text-anchor="middle" x="357" y="-119.5" font-family="Helvetica,sans-Serif" font-size="10.00">stk_mesh/base/BulkData.hpp</text>
</a>
</g>
</g>
<!-- Node1&#45;&gt;Node4 -->
<g id="edge81" class="edge">
<title>Node1&#45;&gt;Node4</title>
<path fill="none" stroke="midnightblue" d="M895.76,-366.06C828.34,-363.59 688.85,-354.61 576,-322 508.57,-302.52 490.46,-295.31 433,-255 404.19,-234.78 394.53,-229.52 377,-199 366.72,-181.1 361.61,-157.82 359.14,-141.76"/>
<polygon fill="midnightblue" stroke="midnightblue" points="362.57,-140.98 357.78,-131.53 355.63,-141.9 362.57,-140.98"/>
</g>
<!-- Node6 -->
<g id="node6" class="node">
<title>Node6</title>
<g id="a_node6"><a xlink:title=" ">
<polygon fill="white" stroke="#bfbfbf" points="454.5,-112.5 454.5,-131.5 599.5,-131.5 599.5,-112.5 454.5,-112.5"/>
<text text-anchor="middle" x="527" y="-119.5" font-family="Helvetica,sans-Serif" font-size="10.00">stk_topology/topology.hpp</text>
</a>
</g>
</g>
<!-- Node1&#45;&gt;Node6 -->
<g id="edge83" class="edge">
<title>Node1&#45;&gt;Node6</title>
<path fill="none" stroke="midnightblue" d="M895.64,-360.89C779.58,-342.43 449.32,-283.24 387,-199 362,-165.2 416.06,-144.74 464.1,-133.7"/>
<polygon fill="midnightblue" stroke="midnightblue" points="464.9,-137.11 473.92,-131.55 463.4,-130.27 464.9,-137.11"/>
</g>
<!-- Node13 -->
<g id="node13" class="node">
<title>Node13</title>
<g id="a_node13"><a xlink:href="_promoted_part_helper_8h.html" target="_top" xlink:title=" ">
<polygon fill="white" stroke="black" points="610.5,-168.5 610.5,-198.5 773.5,-198.5 773.5,-168.5 610.5,-168.5"/>
<text text-anchor="start" x="618.5" y="-186.5" font-family="Helvetica,sans-Serif" font-size="10.00">element_promotion/Promoted</text>
<text text-anchor="middle" x="692" y="-175.5" font-family="Helvetica,sans-Serif" font-size="10.00">PartHelper.h</text>
</a>
</g>
</g>
<!-- Node1&#45;&gt;Node13 -->
<g id="edge12" class="edge">
<title>Node1&#45;&gt;Node13</title>
<path fill="none" stroke="midnightblue" d="M923.08,-358.3C895.84,-339.84 830.66,-295.17 778,-255 756.76,-238.8 733.36,-219.52 716.34,-205.22"/>
<polygon fill="midnightblue" stroke="midnightblue" points="718.43,-202.4 708.53,-198.63 713.92,-207.75 718.43,-202.4"/>
</g>
<!-- Node16 -->
<g id="node16" class="node">
<title>Node16</title>
<g id="a_node16"><a xlink:href="_realm_8h.html" target="_top" xlink:title=" ">
<polygon fill="white" stroke="black" points="1190.5,-297 1190.5,-316 1247.5,-316 1247.5,-297 1190.5,-297"/>
<text text-anchor="middle" x="1219" y="-304" font-family="Helvetica,sans-Serif" font-size="10.00">Realm.h</text>
</a>
</g>
</g>
<!-- Node1&#45;&gt;Node16 -->
<g id="edge16" class="edge">
<title>Node1&#45;&gt;Node16</title>
<path fill="none" stroke="midnightblue" d="M976.25,-358.54C1030.61,-347.11 1126.85,-326.87 1180.37,-315.62"/>
<polygon fill="midnightblue" stroke="midnightblue" points="1181.41,-318.98 1190.48,-313.5 1179.97,-312.13 1181.41,-318.98"/>
</g>
<!-- Node39 -->
<g id="node39" class="node">
<title>Node39</title>
<g id="a_node39"><a xlink:title=" ">
<polygon fill="white" stroke="#bfbfbf" points="1265,-297 1265,-316 1423,-316 1423,-297 1265,-297"/>
<text text-anchor="middle" x="1344" y="-304" font-family="Helvetica,sans-Serif" font-size="10.00">stk_mesh/base/Ghosting.hpp</text>
</a>
</g>
</g>
<!-- Node1&#45;&gt;Node39 -->
<g id="edge82" class="edge">
<title>Node1&#45;&gt;Node39</title>
<path fill="none" stroke="midnightblue" d="M976.08,-361.72C1036.89,-353.63 1156.04,-337.49 1257,-322 1265.89,-320.64 1275.28,-319.13 1284.48,-317.63"/>
<polygon fill="midnightblue" stroke="midnightblue" points="1285.05,-321.08 1294.35,-316 1283.91,-314.18 1285.05,-321.08"/>
</g>
<!-- Node40 -->
<g id="node40" class="node">
<title>Node40</title>
<g id="a_node40"><a xlink:title=" ">
<polygon fill="white" stroke="#bfbfbf" points="1441.5,-291.5 1441.5,-321.5 1572.5,-321.5 1572.5,-291.5 1441.5,-291.5"/>
<text text-anchor="start" x="1449.5" y="-309.5" font-family="Helvetica,sans-Serif" font-size="10.00">stk_util/parallel/Parallel</text>
<text text-anchor="middle" x="1507" y="-298.5" font-family="Helvetica,sans-Serif" font-size="10.00">Reduce.hpp</text>
</a>
</g>
</g>
<!-- Node1&#45;&gt;Node40 -->
<g id="edge84" class="edge">
<title>Node1&#45;&gt;Node40</title>
<path fill="none" stroke="midnightblue" d="M976.02,-364.74C1058.97,-359.75 1255.86,-346.4 1431.29,-322"/>
<polygon fill="midnightblue" stroke="midnightblue" points="1431.8,-325.47 1441.21,-320.61 1430.82,-318.53 1431.8,-325.47"/>
</g>
<!-- Node41 -->
<g id="node41" class="node">
<title>Node41</title>
<g id="a_node41"><a xlink:title=" ">
<polygon fill="white" stroke="#bfbfbf" points="1591,-297 1591,-316 1773,-316 1773,-297 1591,-297"/>
<text text-anchor="middle" x="1682" y="-304" font-family="Helvetica,sans-Serif" font-size="10.00">stk_util/parallel/CommSparse.hpp</text>
</a>
</g>
</g>
<!-- Node1&#45;&gt;Node41 -->
<g id="edge85" class="edge">
<title>Node1&#45;&gt;Node41</title>
<path fill="none" stroke="midnightblue" d="M976.16,-365.24C1077.8,-360.57 1353.4,-346.5 1582,-322 1593.79,-320.74 1606.32,-319.13 1618.38,-317.45"/>
<polygon fill="midnightblue" stroke="midnightblue" points="1618.97,-320.9 1628.38,-316.03 1617.99,-313.97 1618.97,-320.9"/>
</g>
<!-- Node42 -->
<g id="node42" class="node">
<title>Node42</title>
<g id="a_node42"><a xlink:title=" ">
<polygon fill="white" stroke="#bfbfbf" points="1791,-297 1791,-316 1959,-316 1959,-297 1791,-297"/>
<text text-anchor="middle" x="1875" y="-304" font-family="Helvetica,sans-Serif" font-size="10.00">stk_util/util/SortAndUnique.hpp</text>
</a>
</g>
</g>
<!-- Node1&#45;&gt;Node42 -->
<g id="edge86" class="edge">
<title>Node1&#45;&gt;Node42</title>
<path fill="none" stroke="midnightblue" d="M976.19,-366.31C1097.88,-363.91 1472.96,-354.23 1782,-322 1793.07,-320.85 1804.84,-319.28 1816.15,-317.6"/>
<polygon fill="midnightblue" stroke="midnightblue" points="1817.02,-321.01 1826.37,-316.04 1815.96,-314.09 1817.02,-321.01"/>
</g>
<!-- Node2&#45;&gt;Node3 -->
<g id="edge2" class="edge">
<title>Node2&#45;&gt;Node3</title>
<path fill="none" stroke="midnightblue" d="M234.38,-173.98C216.41,-164.17 186.68,-147.93 165.59,-136.42"/>
<polygon fill="midnightblue" stroke="midnightblue" points="167.04,-133.23 156.59,-131.51 163.69,-139.37 167.04,-133.23"/>
</g>
<!-- Node2&#45;&gt;Node4 -->
<g id="edge3" class="edge">
<title>Node2&#45;&gt;Node4</title>
<path fill="none" stroke="midnightblue" d="M265.33,-173.98C282.97,-164.17 312.16,-147.93 332.86,-136.42"/>
<polygon fill="midnightblue" stroke="midnightblue" points="334.66,-139.43 341.7,-131.51 331.26,-133.31 334.66,-139.43"/>
</g>
<!-- Node5 -->
<g id="node5" class="node">
<title>Node5</title>
<g id="a_node5"><a xlink:title=" ">
<polygon fill="white" stroke="#bfbfbf" points="656,-112.5 656,-131.5 830,-131.5 830,-112.5 656,-112.5"/>
<text text-anchor="middle" x="743" y="-119.5" font-family="Helvetica,sans-Serif" font-size="10.00">stk_mesh/base/GetNgpField.hpp</text>
</a>
</g>
</g>
<!-- Node2&#45;&gt;Node5 -->
<g id="edge4" class="edge">
<title>Node2&#45;&gt;Node5</title>
<path fill="none" stroke="midnightblue" d="M301.83,-176.24C387.84,-165.86 560.67,-145.01 662.61,-132.7"/>
<polygon fill="midnightblue" stroke="midnightblue" points="663.04,-136.18 672.55,-131.5 662.21,-129.23 663.04,-136.18"/>
</g>
<!-- Node2&#45;&gt;Node6 -->
<g id="edge5" class="edge">
<title>Node2&#45;&gt;Node6</title>
<path fill="none" stroke="midnightblue" d="M289.69,-173.98C339.16,-163.35 423.72,-145.18 477.41,-133.65"/>
<polygon fill="midnightblue" stroke="midnightblue" points="478.34,-137.03 487.39,-131.51 476.87,-130.19 478.34,-137.03"/>
</g>
<!-- Node7 -->
<g id="node7" class="node">
<title>Node7</title>
<g id="a_node7"><a xlink:href="_field_type_def_8h.html" target="_top" xlink:title=" ">
<polygon fill="white" stroke="black" points="910,-56.5 910,-75.5 998,-75.5 998,-56.5 910,-56.5"/>
<text text-anchor="middle" x="954" y="-63.5" font-family="Helvetica,sans-Serif" font-size="10.00">FieldTypeDef.h</text>
</a>
</g>
</g>
<!-- Node2&#45;&gt;Node7 -->
<g id="edge6" class="edge">
<title>Node2&#45;&gt;Node7</title>
<path fill="none" stroke="midnightblue" d="M249.29,-173.92C248.57,-158.74 249.54,-127.34 268,-112 316.16,-72 746.14,-67.34 899.75,-66.96"/>
<polygon fill="midnightblue" stroke="midnightblue" points="899.9,-70.46 909.89,-66.94 899.89,-63.46 899.9,-70.46"/>
</g>
<!-- Node12 -->
<g id="node12" class="node">
<title>Node12</title>
<g id="a_node12"><a xlink:title=" ">
<polygon fill="white" stroke="#bfbfbf" points="0,-112.5 0,-131.5 42,-131.5 42,-112.5 0,-112.5"/>
<text text-anchor="middle" x="21" y="-119.5" font-family="Helvetica,sans-Serif" font-size="10.00">array</text>
</a>
</g>
</g>
<!-- Node2&#45;&gt;Node12 -->
<g id="edge11" class="edge">
<title>Node2&#45;&gt;Node12</title>
<path fill="none" stroke="midnightblue" d="M214.29,-173.93C176.39,-164.72 114.54,-149.39 52.27,-132.27"/>
<polygon fill="midnightblue" stroke="midnightblue" points="52.84,-128.8 42.27,-129.5 50.98,-135.54 52.84,-128.8"/>
</g>
<!-- Node8 -->
<g id="node8" class="node">
<title>Node8</title>
<g id="a_node8"><a xlink:title=" ">
<polygon fill="white" stroke="#bfbfbf" points="896.5,-0.5 896.5,-19.5 1057.5,-19.5 1057.5,-0.5 896.5,-0.5"/>
<text text-anchor="middle" x="977" y="-7.5" font-family="Helvetica,sans-Serif" font-size="10.00">stk_mesh/base/FieldBase.hpp</text>
</a>
</g>
</g>
<!-- Node7&#45;&gt;Node8 -->
<g id="edge7" class="edge">
<title>Node7&#45;&gt;Node8</title>
<path fill="none" stroke="midnightblue" d="M957.8,-56.08C960.91,-48.77 965.42,-38.18 969.29,-29.1"/>
<polygon fill="midnightblue" stroke="midnightblue" points="972.57,-30.32 973.27,-19.75 966.13,-27.58 972.57,-30.32"/>
</g>
<!-- Node9 -->
<g id="node9" class="node">
<title>Node9</title>
<g id="a_node9"><a xlink:title=" ">
<polygon fill="white" stroke="#bfbfbf" points="744,-0.5 744,-19.5 878,-19.5 878,-0.5 744,-0.5"/>
<text text-anchor="middle" x="811" y="-7.5" font-family="Helvetica,sans-Serif" font-size="10.00">stk_mesh/base/Ngp.hpp</text>
</a>
</g>
</g>
<!-- Node7&#45;&gt;Node9 -->
<g id="edge8" class="edge">
<title>Node7&#45;&gt;Node9</title>
<path fill="none" stroke="midnightblue" d="M931.34,-56.44C907.6,-47.48 870.09,-33.31 843.26,-23.18"/>
<polygon fill="midnightblue" stroke="midnightblue" points="844.14,-19.77 833.55,-19.52 841.67,-26.32 844.14,-19.77"/>
</g>
<!-- Node10 -->
<g id="node10" class="node">
<title>Node10</title>
<g id="a_node10"><a xlink:title=" ">
<polygon fill="white" stroke="#bfbfbf" points="1158.5,-0.5 1158.5,-19.5 1315.5,-19.5 1315.5,-0.5 1158.5,-0.5"/>
<text text-anchor="middle" x="1237" y="-7.5" font-family="Helvetica,sans-Serif" font-size="10.00">stk_mesh/base/NgpField.hpp</text>
</a>
</g>
</g>
<!-- Node7&#45;&gt;Node10 -->
<g id="edge9" class="edge">
<title>Node7&#45;&gt;Node10</title>
<path fill="none" stroke="midnightblue" d="M998.22,-56.56C1047.87,-47.09 1128.51,-31.7 1182.14,-21.47"/>
<polygon fill="midnightblue" stroke="midnightblue" points="1182.99,-24.87 1192.16,-19.56 1181.68,-17.99 1182.99,-24.87"/>
</g>
<!-- Node11 -->
<g id="node11" class="node">
<title>Node11</title>
<g id="a_node11"><a xlink:title=" ">
<polygon fill="white" stroke="#bfbfbf" points="1075.5,-0.5 1075.5,-19.5 1140.5,-19.5 1140.5,-0.5 1075.5,-0.5"/>
<text text-anchor="middle" x="1108" y="-7.5" font-family="Helvetica,sans-Serif" font-size="10.00">functional</text>
</a>
</g>
</g>
<!-- Node7&#45;&gt;Node11 -->
<g id="edge10" class="edge">
<title>Node7&#45;&gt;Node11</title>
<path fill="none" stroke="midnightblue" d="M978.4,-56.44C1004.2,-47.4 1045.08,-33.06 1074.02,-22.92"/>
<polygon fill="midnightblue" stroke="midnightblue" points="1075.43,-26.13 1083.71,-19.52 1073.12,-19.52 1075.43,-26.13"/>
</g>
<!-- Node13&#45;&gt;Node6 -->
<g id="edge15" class="edge">
<title>Node13&#45;&gt;Node6</title>
<path fill="none" stroke="midnightblue" d="M652.9,-168.4C624.84,-158.28 587.43,-144.79 560.69,-135.15"/>
<polygon fill="midnightblue" stroke="midnightblue" points="561.6,-131.76 551.01,-131.66 559.23,-138.34 561.6,-131.76"/>
</g>
<!-- Node14 -->
<g id="node14" class="node">
<title>Node14</title>
<g id="a_node14"><a xlink:title=" ">
<polygon fill="white" stroke="#bfbfbf" points="1609.5,-112.5 1609.5,-131.5 1656.5,-131.5 1656.5,-112.5 1609.5,-112.5"/>
<text text-anchor="middle" x="1633" y="-119.5" font-family="Helvetica,sans-Serif" font-size="10.00">vector</text>
</a>
</g>
</g>
<!-- Node13&#45;&gt;Node14 -->
<g id="edge13" class="edge">
<title>Node13&#45;&gt;Node14</title>
<path fill="none" stroke="midnightblue" d="M773.8,-169.02C776.9,-168.65 779.98,-168.31 783,-168 1137.97,-131.87 1230.56,-172.98 1585,-132 1589.58,-131.47 1594.37,-130.76 1599.09,-129.97"/>
<polygon fill="midnightblue" stroke="midnightblue" points="1599.95,-133.37 1609.17,-128.15 1598.71,-126.48 1599.95,-133.37"/>
</g>
<!-- Node15 -->
<g id="node15" class="node">
<title>Node15</title>
<g id="a_node15"><a xlink:title=" ">
<polygon fill="white" stroke="#bfbfbf" points="1392,-112.5 1392,-131.5 1436,-131.5 1436,-112.5 1392,-112.5"/>
<text text-anchor="middle" x="1414" y="-119.5" font-family="Helvetica,sans-Serif" font-size="10.00">string</text>
</a>
</g>
</g>
<!-- Node13&#45;&gt;Node15 -->
<g id="edge14" class="edge">
<title>Node13&#45;&gt;Node15</title>
<path fill="none" stroke="midnightblue" d="M773.81,-169.12C776.91,-168.72 779.98,-168.35 783,-168 1011.53,-141.69 1288.51,-128.31 1381.67,-124.31"/>
<polygon fill="midnightblue" stroke="midnightblue" points="1382.02,-127.8 1391.86,-123.88 1381.72,-120.81 1382.02,-127.8"/>
</g>
<!-- Node16&#45;&gt;Node7 -->
<g id="edge20" class="edge">
<title>Node16&#45;&gt;Node7</title>
<path fill="none" stroke="midnightblue" d="M1237.45,-296.86C1243.26,-294.53 1249.79,-292.29 1256,-291 1469.14,-246.66 2023.89,-308.16 2235,-255 2296.81,-239.44 2387.83,-218.54 2349,-168 2290.15,-91.4 2234.52,-126.37 2139,-112 1916.5,-78.54 1210.1,-69.41 1008.31,-67.46"/>
<polygon fill="midnightblue" stroke="midnightblue" points="1008.28,-63.96 998.25,-67.36 1008.21,-70.96 1008.28,-63.96"/>
</g>
<!-- Node16&#45;&gt;Node14 -->
<g id="edge78" class="edge">
<title>Node16&#45;&gt;Node14</title>
<path fill="none" stroke="midnightblue" d="M1237.45,-296.88C1243.26,-294.54 1249.79,-292.3 1256,-291 1646.05,-209.16 1759.26,-322.78 2152,-255 2234.56,-240.75 2282.33,-266.47 2332,-199 2340.17,-187.9 2341.42,-178.05 2332,-168 2326.24,-161.85 1806.11,-132.6 1666.93,-124.87"/>
<polygon fill="midnightblue" stroke="midnightblue" points="1667.02,-121.37 1656.84,-124.31 1666.63,-128.36 1667.02,-121.37"/>
</g>
<!-- Node16&#45;&gt;Node15 -->
<g id="edge77" class="edge">
<title>Node16&#45;&gt;Node15</title>
<path fill="none" stroke="midnightblue" d="M1212.3,-296.81C1202.57,-283.05 1186.84,-255.68 1198,-235 1235.08,-166.28 1331.23,-138.41 1381.81,-128.22"/>
<polygon fill="midnightblue" stroke="midnightblue" points="1382.71,-131.61 1391.88,-126.31 1381.4,-124.74 1382.71,-131.61"/>
</g>
<!-- Node17 -->
<g id="node17" class="node">
<title>Node17</title>
<g id="a_node17"><a xlink:href="_enums_8h.html" target="_top" xlink:title=" ">
<polygon fill="white" stroke="black" points="1355.5,-174 1355.5,-193 1414.5,-193 1414.5,-174 1355.5,-174"/>
<text text-anchor="middle" x="1385" y="-181" font-family="Helvetica,sans-Serif" font-size="10.00">Enums.h</text>
</a>
</g>
</g>
<!-- Node16&#45;&gt;Node17 -->
<g id="edge17" class="edge">
<title>Node16&#45;&gt;Node17</title>
<path fill="none" stroke="midnightblue" d="M1240.72,-296.94C1268.44,-285.78 1314.53,-266.35 1329,-255 1347.95,-240.14 1364.37,-217.64 1374.44,-202.07"/>
<polygon fill="midnightblue" stroke="midnightblue" points="1377.53,-203.74 1379.86,-193.41 1371.59,-200.03 1377.53,-203.74"/>
</g>
<!-- Node18 -->
<g id="node18" class="node">
<title>Node18</title>
<g id="a_node18"><a xlink:title=" ">
<polygon fill="white" stroke="#bfbfbf" points="1538,-112.5 1538,-131.5 1576,-131.5 1576,-112.5 1538,-112.5"/>
<text text-anchor="middle" x="1557" y="-119.5" font-family="Helvetica,sans-Serif" font-size="10.00">map</text>
</a>
</g>
</g>
<!-- Node16&#45;&gt;Node18 -->
<g id="edge76" class="edge">
<title>Node16&#45;&gt;Node18</title>
<path fill="none" stroke="midnightblue" d="M1238.31,-297C1243.93,-294.78 1250.14,-292.58 1256,-291 1358.04,-263.56 1405.6,-317.21 1491,-255 1529.21,-227.16 1546.63,-170.88 1553.37,-141.62"/>
<polygon fill="midnightblue" stroke="midnightblue" points="1556.86,-142.04 1555.52,-131.53 1550.02,-140.58 1556.86,-142.04"/>
</g>
<!-- Node19 -->
<g id="node19" class="node">
<title>Node19</title>
<g id="a_node19"><a xlink:href="_boundary_conditions_8h.html" target="_top" xlink:title=" ">
<polygon fill="white" stroke="black" points="1538,-235.5 1538,-254.5 1662,-254.5 1662,-235.5 1538,-235.5"/>
<text text-anchor="middle" x="1600" y="-242.5" font-family="Helvetica,sans-Serif" font-size="10.00">BoundaryConditions.h</text>
</a>
</g>
</g>
<!-- Node16&#45;&gt;Node19 -->
<g id="edge21" class="edge">
<title>Node16&#45;&gt;Node19</title>
<path fill="none" stroke="midnightblue" d="M1238.29,-296.92C1243.91,-294.7 1250.12,-292.51 1256,-291 1268.99,-287.66 1430.57,-267.17 1527.59,-255.02"/>
<polygon fill="midnightblue" stroke="midnightblue" points="1528.15,-258.47 1537.63,-253.76 1527.28,-251.53 1528.15,-258.47"/>
</g>
<!-- Node20 -->
<g id="node20" class="node">
<title>Node20</title>
<g id="a_node20"><a xlink:title=" ">
<polygon fill="white" stroke="#bfbfbf" points="1661,-174 1661,-193 1719,-193 1719,-174 1661,-174"/>
<text text-anchor="middle" x="1690" y="-181" font-family="Helvetica,sans-Serif" font-size="10.00">memory</text>
</a>
</g>
</g>
<!-- Node16&#45;&gt;Node20 -->
<g id="edge79" class="edge">
<title>Node16&#45;&gt;Node20</title>
<path fill="none" stroke="midnightblue" d="M1237.87,-296.9C1243.59,-294.63 1249.95,-292.42 1256,-291 1346.13,-269.9 1600.02,-314.42 1671,-255 1686,-242.44 1689.82,-219.39 1690.49,-203.07"/>
<polygon fill="midnightblue" stroke="midnightblue" points="1693.99,-203.08 1690.54,-193.06 1686.99,-203.04 1693.99,-203.08"/>
</g>
<!-- Node21 -->
<g id="node21" class="node">
<title>Node21</title>
<g id="a_node21"><a xlink:href="_initial_conditions_8h.html" target="_top" xlink:title=" ">
<polygon fill="white" stroke="black" points="1376.5,-235.5 1376.5,-254.5 1481.5,-254.5 1481.5,-235.5 1376.5,-235.5"/>
<text text-anchor="middle" x="1429" y="-242.5" font-family="Helvetica,sans-Serif" font-size="10.00">InitialConditions.h</text>
</a>
</g>
</g>
<!-- Node16&#45;&gt;Node21 -->
<g id="edge27" class="edge">
<title>Node16&#45;&gt;Node21</title>
<path fill="none" stroke="midnightblue" d="M1239.59,-296.93C1244.89,-294.86 1250.62,-292.75 1256,-291 1297.64,-277.48 1345.92,-265.19 1380.88,-256.89"/>
<polygon fill="midnightblue" stroke="midnightblue" points="1381.9,-260.25 1390.83,-254.55 1380.29,-253.43 1381.9,-260.25"/>
</g>
<!-- Node22 -->
<g id="node22" class="node">
<title>Node22</title>
<g id="a_node22"><a xlink:href="_material_propertys_8h.html" target="_top" xlink:title=" ">
<polygon fill="white" stroke="black" points="1206.5,-235.5 1206.5,-254.5 1319.5,-254.5 1319.5,-235.5 1206.5,-235.5"/>
<text text-anchor="middle" x="1263" y="-242.5" font-family="Helvetica,sans-Serif" font-size="10.00">MaterialPropertys.h</text>
</a>
</g>
</g>
<!-- Node16&#45;&gt;Node22 -->
<g id="edge33" class="edge">
<title>Node16&#45;&gt;Node22</title>
<path fill="none" stroke="midnightblue" d="M1225.3,-296.98C1231.9,-288.05 1242.44,-273.81 1250.69,-262.64"/>
<polygon fill="midnightblue" stroke="midnightblue" points="1253.58,-264.63 1256.71,-254.51 1247.95,-260.47 1253.58,-264.63"/>
</g>
<!-- Node23 -->
<g id="node23" class="node">
<title>Node23</title>
<g id="a_node23"><a xlink:href="_equation_systems_8h.html" target="_top" xlink:title=" ">
<polygon fill="white" stroke="black" points="1718,-235.5 1718,-254.5 1828,-254.5 1828,-235.5 1718,-235.5"/>
<text text-anchor="middle" x="1773" y="-242.5" font-family="Helvetica,sans-Serif" font-size="10.00">EquationSystems.h</text>
</a>
</g>
</g>
<!-- Node16&#45;&gt;Node23 -->
<g id="edge38" class="edge">
<title>Node16&#45;&gt;Node23</title>
<path fill="none" stroke="midnightblue" d="M1237.86,-296.88C1243.58,-294.6 1249.95,-292.4 1256,-291 1450.64,-246.08 1505.35,-275.92 1704,-255 1705.11,-254.88 1706.23,-254.76 1707.36,-254.64"/>
<polygon fill="midnightblue" stroke="midnightblue" points="1708.13,-258.07 1717.67,-253.46 1707.33,-251.12 1708.13,-258.07"/>
</g>
<!-- Node25 -->
<g id="node25" class="node">
<title>Node25</title>
<g id="a_node25"><a xlink:href="_field_manager_8h.html" target="_top" xlink:title=" ">
<polygon fill="white" stroke="black" points="2051.5,-235.5 2051.5,-254.5 2142.5,-254.5 2142.5,-235.5 2051.5,-235.5"/>
<text text-anchor="middle" x="2097" y="-242.5" font-family="Helvetica,sans-Serif" font-size="10.00">FieldManager.h</text>
</a>
</g>
</g>
<!-- Node16&#45;&gt;Node25 -->
<g id="edge47" class="edge">
<title>Node16&#45;&gt;Node25</title>
<path fill="none" stroke="midnightblue" d="M1237.46,-296.93C1243.27,-294.6 1249.8,-292.34 1256,-291 1332.27,-274.47 1866.25,-254.21 2041.46,-247.94"/>
<polygon fill="midnightblue" stroke="midnightblue" points="2041.63,-251.44 2051.5,-247.58 2041.38,-244.44 2041.63,-251.44"/>
</g>
<!-- Node34 -->
<g id="node34" class="node">
<title>Node34</title>
<g id="a_node34"><a xlink:title=" ">
<polygon fill="white" stroke="#bfbfbf" points="786.5,-235.5 786.5,-254.5 935.5,-254.5 935.5,-235.5 786.5,-235.5"/>
<text text-anchor="middle" x="861" y="-242.5" font-family="Helvetica,sans-Serif" font-size="10.00">Teuchos_ParameterList.hpp</text>
</a>
</g>
</g>
<!-- Node16&#45;&gt;Node34 -->
<g id="edge64" class="edge">
<title>Node16&#45;&gt;Node34</title>
<path fill="none" stroke="midnightblue" d="M1190.31,-300.73C1132.43,-291.11 1000.55,-269.19 922.38,-256.2"/>
<polygon fill="midnightblue" stroke="midnightblue" points="922.62,-252.69 912.19,-254.51 921.48,-259.6 922.62,-252.69"/>
</g>
<!-- Node35 -->
<g id="node35" class="node">
<title>Node35</title>
<g id="a_node35"><a xlink:href="_ngp_field_manager_8h.html" target="_top" xlink:title="NGP Field Manager.">
<polygon fill="white" stroke="black" points="396,-174 396,-193 554,-193 554,-174 396,-174"/>
<text text-anchor="middle" x="475" y="-181" font-family="Helvetica,sans-Serif" font-size="10.00">ngp_utils/NgpFieldManager.h</text>
</a>
</g>
</g>
<!-- Node16&#45;&gt;Node35 -->
<g id="edge65" class="edge">
<title>Node16&#45;&gt;Node35</title>
<path fill="none" stroke="midnightblue" d="M1190.46,-303.37C1120.05,-297.88 932.53,-281.73 778,-255 683.62,-238.67 574.58,-211.13 516.5,-195.75"/>
<polygon fill="midnightblue" stroke="midnightblue" points="517.16,-192.31 506.6,-193.12 515.36,-199.07 517.16,-192.31"/>
</g>
<!-- Node36 -->
<g id="node36" class="node">
<title>Node36</title>
<g id="a_node36"><a xlink:href="_ngp_mesh_info_8h.html" target="_top" xlink:title="NGP mesh information objects.">
<polygon fill="white" stroke="black" points="953.5,-235.5 953.5,-254.5 1090.5,-254.5 1090.5,-235.5 953.5,-235.5"/>
<text text-anchor="middle" x="1022" y="-242.5" font-family="Helvetica,sans-Serif" font-size="10.00">ngp_utils/NgpMeshInfo.h</text>
</a>
</g>
</g>
<!-- Node16&#45;&gt;Node36 -->
<g id="edge70" class="edge">
<title>Node16&#45;&gt;Node36</title>
<path fill="none" stroke="midnightblue" d="M1190.77,-296.98C1156.4,-286.59 1098.19,-269.01 1059.92,-257.45"/>
<polygon fill="midnightblue" stroke="midnightblue" points="1060.76,-254.05 1050.17,-254.51 1058.73,-260.75 1060.76,-254.05"/>
</g>
<!-- Node37 -->
<g id="node37" class="node">
<title>Node37</title>
<g id="a_node37"><a xlink:title=" ">
<polygon fill="white" stroke="#bfbfbf" points="987,-174 987,-193 1147,-193 1147,-174 987,-174"/>
<text text-anchor="middle" x="1067" y="-181" font-family="Helvetica,sans-Serif" font-size="10.00">stk_mesh/base/NgpMesh.hpp</text>
</a>
</g>
</g>
<!-- Node16&#45;&gt;Node37 -->
<g id="edge75" class="edge">
<title>Node16&#45;&gt;Node37</title>
<path fill="none" stroke="midnightblue" d="M1208.07,-296.8C1182.43,-276.39 1118.19,-225.25 1086,-199.63"/>
<polygon fill="midnightblue" stroke="midnightblue" points="1087.84,-196.61 1077.83,-193.12 1083.48,-202.09 1087.84,-196.61"/>
</g>
<!-- Node17&#45;&gt;Node15 -->
<g id="edge18" class="edge">
<title>Node17&#45;&gt;Node15</title>
<path fill="none" stroke="midnightblue" d="M1389.15,-173.98C1393.38,-165.32 1400.04,-151.65 1405.4,-140.65"/>
<polygon fill="midnightblue" stroke="midnightblue" points="1408.62,-142.03 1409.85,-131.51 1402.33,-138.96 1408.62,-142.03"/>
</g>
<!-- Node17&#45;&gt;Node18 -->
<g id="edge19" class="edge">
<title>Node17&#45;&gt;Node18</title>
<path fill="none" stroke="midnightblue" d="M1409.64,-173.98C1441.04,-163.11 1495.21,-144.37 1528.4,-132.89"/>
<polygon fill="midnightblue" stroke="midnightblue" points="1529.67,-136.16 1537.98,-129.58 1527.38,-129.54 1529.67,-136.16"/>
</g>
<!-- Node19&#45;&gt;Node14 -->
<g id="edge25" class="edge">
<title>Node19&#45;&gt;Node14</title>
<path fill="none" stroke="midnightblue" d="M1602.37,-235.3C1607.7,-215.76 1620.71,-168.06 1627.94,-141.55"/>
<polygon fill="midnightblue" stroke="midnightblue" points="1631.39,-142.19 1630.65,-131.62 1624.64,-140.35 1631.39,-142.19"/>
</g>
<!-- Node19&#45;&gt;Node15 -->
<g id="edge24" class="edge">
<title>Node19&#45;&gt;Node15</title>
<path fill="none" stroke="midnightblue" d="M1586.92,-235.49C1555.38,-214.97 1474.87,-162.6 1435.85,-137.21"/>
<polygon fill="midnightblue" stroke="midnightblue" points="1437.6,-134.18 1427.31,-131.66 1433.79,-140.05 1437.6,-134.18"/>
</g>
<!-- Node19&#45;&gt;Node17 -->
<g id="edge22" class="edge">
<title>Node19&#45;&gt;Node17</title>
<path fill="none" stroke="midnightblue" d="M1565.11,-235.48C1530.43,-226.86 1475.8,-212.86 1429,-199 1426.01,-198.12 1422.92,-197.17 1419.82,-196.19"/>
<polygon fill="midnightblue" stroke="midnightblue" points="1420.64,-192.78 1410.05,-193.05 1418.49,-199.44 1420.64,-192.78"/>
</g>
<!-- Node19&#45;&gt;Node18 -->
<g id="edge23" class="edge">
<title>Node19&#45;&gt;Node18</title>
<path fill="none" stroke="midnightblue" d="M1596.91,-235.3C1589.93,-215.68 1572.86,-167.64 1563.47,-141.19"/>
<polygon fill="midnightblue" stroke="midnightblue" points="1566.71,-139.87 1560.06,-131.62 1560.12,-142.22 1566.71,-139.87"/>
</g>
<!-- Node19&#45;&gt;Node20 -->
<g id="edge26" class="edge">
<title>Node19&#45;&gt;Node20</title>
<path fill="none" stroke="midnightblue" d="M1612.89,-235.48C1627.46,-225.84 1651.4,-210.02 1668.75,-198.55"/>
<polygon fill="midnightblue" stroke="midnightblue" points="1670.72,-201.44 1677.13,-193.01 1666.86,-195.6 1670.72,-201.44"/>
</g>
<!-- Node21&#45;&gt;Node14 -->
<g id="edge31" class="edge">
<title>Node21&#45;&gt;Node14</title>
<path fill="none" stroke="midnightblue" d="M1443.34,-235.49C1478.08,-214.89 1566.99,-162.15 1609.57,-136.89"/>
<polygon fill="midnightblue" stroke="midnightblue" points="1611.58,-139.77 1618.4,-131.66 1608.01,-133.75 1611.58,-139.77"/>
</g>
<!-- Node21&#45;&gt;Node15 -->
<g id="edge30" class="edge">
<title>Node21&#45;&gt;Node15</title>
<path fill="none" stroke="midnightblue" d="M1397.19,-235.38C1379.05,-228.66 1357.84,-217.31 1347,-199 1339.98,-187.14 1340.52,-180.16 1347,-168 1354.66,-153.63 1369.17,-143.04 1382.73,-135.75"/>
<polygon fill="midnightblue" stroke="midnightblue" points="1384.46,-138.8 1391.87,-131.23 1381.36,-132.52 1384.46,-138.8"/>
</g>
<!-- Node21&#45;&gt;Node17 -->
<g id="edge28" class="edge">
<title>Node21&#45;&gt;Node17</title>
<path fill="none" stroke="midnightblue" d="M1422.7,-235.48C1416.1,-226.55 1405.56,-212.31 1397.31,-201.14"/>
<polygon fill="midnightblue" stroke="midnightblue" points="1400.05,-198.97 1391.29,-193.01 1394.42,-203.13 1400.05,-198.97"/>
</g>
<!-- Node21&#45;&gt;Node18 -->
<g id="edge29" class="edge">
<title>Node21&#45;&gt;Node18</title>
<path fill="none" stroke="midnightblue" d="M1437.24,-235.36C1450.98,-221.05 1479.59,-191.64 1505,-168 1515.93,-157.83 1528.58,-146.87 1538.67,-138.31"/>
<polygon fill="midnightblue" stroke="midnightblue" points="1541.06,-140.87 1546.45,-131.75 1536.54,-135.52 1541.06,-140.87"/>
</g>
<!-- Node21&#45;&gt;Node20 -->
<g id="edge32" class="edge">
<title>Node21&#45;&gt;Node20</title>
<path fill="none" stroke="midnightblue" d="M1466.39,-235.48C1515.45,-224.29 1601.13,-204.76 1650.98,-193.4"/>
<polygon fill="midnightblue" stroke="midnightblue" points="1651.78,-196.8 1660.75,-191.17 1650.22,-189.98 1651.78,-196.8"/>
</g>
<!-- Node22&#45;&gt;Node14 -->
<g id="edge37" class="edge">
<title>Node22&#45;&gt;Node14</title>
<path fill="none" stroke="midnightblue" d="M1272.34,-235.42C1293.75,-215.77 1344.76,-169.06 1347,-168 1443.66,-122.16 1479.52,-149.86 1585,-132 1589.54,-131.23 1594.32,-130.38 1599.03,-129.52"/>
<polygon fill="midnightblue" stroke="midnightblue" points="1599.91,-132.92 1609.1,-127.65 1598.63,-126.04 1599.91,-132.92"/>
</g>
<!-- Node22&#45;&gt;Node15 -->
<g id="edge36" class="edge">
<title>Node22&#45;&gt;Node15</title>
<path fill="none" stroke="midnightblue" d="M1270.12,-235.28C1282.6,-220.32 1309.73,-189.33 1337,-168 1352.65,-155.75 1371.97,-144.48 1387.34,-136.27"/>
<polygon fill="midnightblue" stroke="midnightblue" points="1389.08,-139.31 1396.33,-131.58 1385.84,-133.1 1389.08,-139.31"/>
</g>
<!-- Node22&#45;&gt;Node17 -->
<g id="edge34" class="edge">
<title>Node22&#45;&gt;Node17</title>
<path fill="none" stroke="midnightblue" d="M1280.48,-235.48C1300.86,-225.53 1334.78,-208.99 1358.42,-197.46"/>
<polygon fill="midnightblue" stroke="midnightblue" points="1360.1,-200.54 1367.55,-193.01 1357.03,-194.25 1360.1,-200.54"/>
</g>
<!-- Node22&#45;&gt;Node18 -->
<g id="edge35" class="edge">
<title>Node22&#45;&gt;Node18</title>
<path fill="none" stroke="midnightblue" d="M1266.07,-235.27C1272.24,-219.13 1287.73,-184.76 1313,-168 1347.9,-144.85 1470.58,-130.9 1527.54,-125.54"/>
<polygon fill="midnightblue" stroke="midnightblue" points="1528.05,-129 1537.69,-124.61 1527.41,-122.03 1528.05,-129"/>
</g>
<!-- Node23&#45;&gt;Node14 -->
<g id="edge45" class="edge">
<title>Node23&#45;&gt;Node14</title>
<path fill="none" stroke="midnightblue" d="M1828.03,-243.03C1910.69,-239.71 2052.09,-225.72 2001,-168 1978.99,-143.13 1753.27,-129.11 1666.62,-124.61"/>
<polygon fill="midnightblue" stroke="midnightblue" points="1666.69,-121.11 1656.53,-124.1 1666.34,-128.1 1666.69,-121.11"/>
</g>
<!-- Node23&#45;&gt;Node15 -->
<g id="edge44" class="edge">
<title>Node23&#45;&gt;Node15</title>
<path fill="none" stroke="midnightblue" d="M1770.56,-235.19C1765.55,-218.93 1752.48,-184.36 1728,-168 1704.82,-152.5 1521.77,-133.36 1446.33,-126.04"/>
<polygon fill="midnightblue" stroke="midnightblue" points="1446.3,-122.52 1436.01,-125.05 1445.63,-129.49 1446.3,-122.52"/>
</g>
<!-- Node23&#45;&gt;Node17 -->
<g id="edge39" class="edge">
<title>Node23&#45;&gt;Node17</title>
<path fill="none" stroke="midnightblue" d="M1717.82,-235.54C1638.62,-223.39 1494.59,-201.31 1424.89,-190.62"/>
<polygon fill="midnightblue" stroke="midnightblue" points="1425.18,-187.12 1414.77,-189.06 1424.12,-194.04 1425.18,-187.12"/>
</g>
<!-- Node23&#45;&gt;Node18 -->
<g id="edge43" class="edge">
<title>Node23&#45;&gt;Node18</title>
<path fill="none" stroke="midnightblue" d="M1828.07,-240.5C1899.89,-233.99 2011.5,-215.98 1968,-168 1940.48,-137.65 1641.51,-138.11 1601,-132 1596.15,-131.27 1591.02,-130.35 1586.05,-129.39"/>
<polygon fill="midnightblue" stroke="midnightblue" points="1586.7,-125.95 1576.2,-127.38 1585.3,-132.81 1586.7,-125.95"/>
</g>
<!-- Node23&#45;&gt;Node20 -->
<g id="edge46" class="edge">
<title>Node23&#45;&gt;Node20</title>
<path fill="none" stroke="midnightblue" d="M1761.11,-235.48C1747.8,-225.93 1726,-210.31 1710.04,-198.87"/>
<polygon fill="midnightblue" stroke="midnightblue" points="1712.04,-195.99 1701.87,-193.01 1707.96,-201.68 1712.04,-195.99"/>
</g>
<!-- Node24 -->
<g id="node24" class="node">
<title>Node24</title>
<g id="a_node24"><a xlink:href="_nalu_parsed_types_8h.html" target="_top" xlink:title=" ">
<polygon fill="white" stroke="black" points="1851,-174 1851,-193 1959,-193 1959,-174 1851,-174"/>
<text text-anchor="middle" x="1905" y="-181" font-family="Helvetica,sans-Serif" font-size="10.00">NaluParsedTypes.h</text>
</a>
</g>
</g>
<!-- Node23&#45;&gt;Node24 -->
<g id="edge40" class="edge">
<title>Node23&#45;&gt;Node24</title>
<path fill="none" stroke="midnightblue" d="M1791.91,-235.48C1814.16,-225.45 1851.31,-208.7 1876.93,-197.15"/>
<polygon fill="midnightblue" stroke="midnightblue" points="1878.44,-200.31 1886.12,-193.01 1875.57,-193.93 1878.44,-200.31"/>
</g>
<!-- Node24&#45;&gt;Node14 -->
<g id="edge42" class="edge">
<title>Node24&#45;&gt;Node14</title>
<path fill="none" stroke="midnightblue" d="M1866.03,-173.98C1812.54,-162.28 1717.28,-141.44 1666.71,-130.37"/>
<polygon fill="midnightblue" stroke="midnightblue" points="1667.15,-126.89 1656.63,-128.17 1665.65,-133.73 1667.15,-126.89"/>
</g>
<!-- Node24&#45;&gt;Node15 -->
<g id="edge41" class="edge">
<title>Node24&#45;&gt;Node15</title>
<path fill="none" stroke="midnightblue" d="M1868.43,-173.97C1858.29,-171.81 1847.25,-169.63 1837,-168 1761.55,-155.98 1531.76,-133.99 1446.39,-126"/>
<polygon fill="midnightblue" stroke="midnightblue" points="1446.53,-122.5 1436.25,-125.06 1445.88,-129.47 1446.53,-122.5"/>
</g>
<!-- Node25&#45;&gt;Node5 -->
<g id="edge61" class="edge">
<title>Node25&#45;&gt;Node5</title>
<path fill="none" stroke="midnightblue" d="M2051.28,-240.83C1992.1,-235.88 1886.23,-224.15 1799,-199 1765.92,-189.46 1761.54,-175.8 1728,-168 1561.39,-129.23 1054.61,-123.57 840.32,-122.95"/>
<polygon fill="midnightblue" stroke="midnightblue" points="840.04,-119.45 830.03,-122.92 840.02,-126.45 840.04,-119.45"/>
</g>
<!-- Node25&#45;&gt;Node15 -->
<g id="edge62" class="edge">
<title>Node25&#45;&gt;Node15</title>
<path fill="none" stroke="midnightblue" d="M2051.04,-242.06C1998.6,-238.46 1911.16,-228.21 1842,-199 1820.3,-189.83 1820.96,-176.53 1799,-168 1766.41,-155.34 1532.99,-133.58 1446.3,-125.84"/>
<polygon fill="midnightblue" stroke="midnightblue" points="1446.51,-122.34 1436.24,-124.94 1445.9,-129.31 1446.51,-122.34"/>
</g>
<!-- Node26 -->
<g id="node26" class="node">
<title>Node26</title>
<g id="a_node26"><a xlink:href="_field_registry_8h.html" target="_top" xlink:title=" ">
<polygon fill="white" stroke="black" points="2053,-174 2053,-193 2141,-193 2141,-174 2053,-174"/>
<text text-anchor="middle" x="2097" y="-181" font-family="Helvetica,sans-Serif" font-size="10.00">FieldRegistry.h</text>
</a>
</g>
</g>
<!-- Node25&#45;&gt;Node26 -->
<g id="edge48" class="edge">
<title>Node25&#45;&gt;Node26</title>
<path fill="none" stroke="midnightblue" d="M2097,-235.48C2097,-227.08 2097,-213.98 2097,-203.16"/>
<polygon fill="midnightblue" stroke="midnightblue" points="2100.5,-203.01 2097,-193.01 2093.5,-203.01 2100.5,-203.01"/>
</g>
<!-- Node29 -->
<g id="node29" class="node">
<title>Node29</title>
<g id="a_node29"><a xlink:title=" ">
<polygon fill="white" stroke="#bfbfbf" points="1864.5,-56.5 1864.5,-75.5 1933.5,-75.5 1933.5,-56.5 1864.5,-56.5"/>
<text text-anchor="middle" x="1899" y="-63.5" font-family="Helvetica,sans-Serif" font-size="10.00">type_traits</text>
</a>
</g>
</g>
<!-- Node25&#45;&gt;Node29 -->
<g id="edge63" class="edge">
<title>Node25&#45;&gt;Node29</title>
<path fill="none" stroke="midnightblue" d="M2142.67,-244.47C2224.12,-243.69 2381.51,-233.91 2332,-168 2227.23,-28.51 2121.3,-106.89 1943.46,-75.96"/>
<polygon fill="midnightblue" stroke="midnightblue" points="1944.04,-72.51 1933.57,-74.14 1942.78,-79.39 1944.04,-72.51"/>
</g>
<!-- Node31 -->
<g id="node31" class="node">
<title>Node31</title>
<g id="a_node31"><a xlink:href="_smart_field_8h.html" target="_top" xlink:title=" ">
<polygon fill="white" stroke="black" points="1952,-56.5 1952,-75.5 2030,-75.5 2030,-56.5 1952,-56.5"/>
<text text-anchor="middle" x="1991" y="-63.5" font-family="Helvetica,sans-Serif" font-size="10.00">SmartField.h</text>
</a>
</g>
</g>
<!-- Node25&#45;&gt;Node31 -->
<g id="edge56" class="edge">
<title>Node25&#45;&gt;Node31</title>
<path fill="none" stroke="midnightblue" d="M2142.65,-241.33C2231.69,-235.66 2421.61,-221.1 2441,-199 2466.51,-169.94 2466.95,-140.67 2441,-112 2414.49,-82.71 2151.54,-71.66 2040.29,-68.27"/>
<polygon fill="midnightblue" stroke="midnightblue" points="2040.11,-64.77 2030.01,-67.97 2039.91,-71.77 2040.11,-64.77"/>
</g>
<!-- Node33 -->
<g id="node33" class="node">
<title>Node33</title>
<g id="a_node33"><a xlink:title=" ">
<polygon fill="white" stroke="#bfbfbf" points="2159.5,-174 2159.5,-193 2322.5,-193 2322.5,-174 2159.5,-174"/>
<text text-anchor="middle" x="2241" y="-181" font-family="Helvetica,sans-Serif" font-size="10.00">stk_mesh/base/FieldState.hpp</text>
</a>
</g>
</g>
<!-- Node25&#45;&gt;Node33 -->
<g id="edge60" class="edge">
<title>Node25&#45;&gt;Node33</title>
<path fill="none" stroke="midnightblue" d="M2117.63,-235.48C2142.12,-225.36 2183.15,-208.4 2211.11,-196.85"/>
<polygon fill="midnightblue" stroke="midnightblue" points="2212.5,-200.06 2220.41,-193.01 2209.83,-193.59 2212.5,-200.06"/>
</g>
<!-- Node26&#45;&gt;Node15 -->
<g id="edge50" class="edge">
<title>Node26&#45;&gt;Node15</title>
<path fill="none" stroke="midnightblue" d="M2052.85,-177.2C2027.96,-174.29 1996.26,-170.74 1968,-168 1916.12,-162.98 1557.21,-134.38 1446.47,-125.58"/>
<polygon fill="midnightblue" stroke="midnightblue" points="1446.49,-122.07 1436.25,-124.77 1445.94,-129.05 1446.49,-122.07"/>
</g>
<!-- Node26&#45;&gt;Node18 -->
<g id="edge51" class="edge">
<title>Node26&#45;&gt;Node18</title>
<path fill="none" stroke="midnightblue" d="M2052.63,-175.23C2036.41,-172.72 2017.9,-170.04 2001,-168 1823.78,-146.66 1777.6,-157.93 1601,-132 1596.14,-131.29 1591.02,-130.38 1586.05,-129.42"/>
<polygon fill="midnightblue" stroke="midnightblue" points="1586.69,-125.98 1576.19,-127.41 1585.29,-132.84 1586.69,-125.98"/>
</g>
<!-- Node27 -->
<g id="node27" class="node">
<title>Node27</title>
<g id="a_node27"><a xlink:title=" ">
<polygon fill="white" stroke="#bfbfbf" points="2064.5,-112.5 2064.5,-131.5 2129.5,-131.5 2129.5,-112.5 2064.5,-112.5"/>
<text text-anchor="middle" x="2097" y="-119.5" font-family="Helvetica,sans-Serif" font-size="10.00">stdexcept</text>
</a>
</g>
</g>
<!-- Node26&#45;&gt;Node27 -->
<g id="edge49" class="edge">
<title>Node26&#45;&gt;Node27</title>
<path fill="none" stroke="midnightblue" d="M2097,-173.98C2097,-165.58 2097,-152.48 2097,-141.66"/>
<polygon fill="midnightblue" stroke="midnightblue" points="2100.5,-141.51 2097,-131.51 2093.5,-141.51 2100.5,-141.51"/>
</g>
<!-- Node28 -->
<g id="node28" class="node">
<title>Node28</title>
<g id="a_node28"><a xlink:href="_field_definitions_8h.html" target="_top" xlink:title=" ">
<polygon fill="white" stroke="black" points="1809.5,-112.5 1809.5,-131.5 1910.5,-131.5 1910.5,-112.5 1809.5,-112.5"/>
<text text-anchor="middle" x="1860" y="-119.5" font-family="Helvetica,sans-Serif" font-size="10.00">FieldDefinitions.h</text>
</a>
</g>
</g>
<!-- Node26&#45;&gt;Node28 -->
<g id="edge52" class="edge">
<title>Node26&#45;&gt;Node28</title>
<path fill="none" stroke="midnightblue" d="M2063.04,-173.98C2021.16,-163.46 1949.87,-145.56 1903.87,-134.01"/>
<polygon fill="midnightblue" stroke="midnightblue" points="1904.44,-130.55 1893.89,-131.51 1902.74,-137.34 1904.44,-130.55"/>
</g>
<!-- Node28&#45;&gt;Node7 -->
<g id="edge53" class="edge">
<title>Node28&#45;&gt;Node7</title>
<path fill="none" stroke="midnightblue" d="M1809.35,-117.98C1651.73,-108.59 1170.8,-79.92 1008.3,-70.24"/>
<polygon fill="midnightblue" stroke="midnightblue" points="1008.26,-66.73 998.07,-69.63 1007.84,-73.72 1008.26,-66.73"/>
</g>
<!-- Node28&#45;&gt;Node29 -->
<g id="edge54" class="edge">
<title>Node28&#45;&gt;Node29</title>
<path fill="none" stroke="midnightblue" d="M1866.44,-112.08C1871.95,-104.46 1880.03,-93.26 1886.76,-83.94"/>
<polygon fill="midnightblue" stroke="midnightblue" points="1889.66,-85.91 1892.68,-75.75 1883.99,-81.81 1889.66,-85.91"/>
</g>
<!-- Node30 -->
<g id="node30" class="node">
<title>Node30</title>
<g id="a_node30"><a xlink:title=" ">
<polygon fill="white" stroke="#bfbfbf" points="1795.5,-56.5 1795.5,-75.5 1846.5,-75.5 1846.5,-56.5 1795.5,-56.5"/>
<text text-anchor="middle" x="1821" y="-63.5" font-family="Helvetica,sans-Serif" font-size="10.00">variant</text>
</a>
</g>
</g>
<!-- Node28&#45;&gt;Node30 -->
<g id="edge55" class="edge">
<title>Node28&#45;&gt;Node30</title>
<path fill="none" stroke="midnightblue" d="M1853.56,-112.08C1848.05,-104.46 1839.97,-93.26 1833.24,-83.94"/>
<polygon fill="midnightblue" stroke="midnightblue" points="1836.01,-81.81 1827.32,-75.75 1830.34,-85.91 1836.01,-81.81"/>
</g>
<!-- Node31&#45;&gt;Node9 -->
<g id="edge58" class="edge">
<title>Node31&#45;&gt;Node9</title>
<path fill="none" stroke="midnightblue" d="M1951.78,-57.15C1948.82,-56.71 1945.87,-56.32 1943,-56 1479.96,-4.99 1357.56,-54.55 888.25,-19.93"/>
<polygon fill="midnightblue" stroke="midnightblue" points="888.39,-16.43 878.16,-19.18 887.87,-23.41 888.39,-16.43"/>
</g>
<!-- Node31&#45;&gt;Node10 -->
<g id="edge59" class="edge">
<title>Node31&#45;&gt;Node10</title>
<path fill="none" stroke="midnightblue" d="M1951.77,-57.24C1948.81,-56.78 1945.86,-56.36 1943,-56 1722.08,-28.35 1460.03,-17.3 1325.87,-13.2"/>
<polygon fill="midnightblue" stroke="midnightblue" points="1325.75,-9.69 1315.65,-12.89 1325.54,-16.69 1325.75,-9.69"/>
</g>
<!-- Node32 -->
<g id="node32" class="node">
<title>Node32</title>
<g id="a_node32"><a xlink:title=" ">
<polygon fill="white" stroke="#bfbfbf" points="1934.5,-0.5 1934.5,-19.5 2047.5,-19.5 2047.5,-0.5 1934.5,-0.5"/>
<text text-anchor="middle" x="1991" y="-7.5" font-family="Helvetica,sans-Serif" font-size="10.00">Kokkos_Macros.hpp</text>
</a>
</g>
</g>
<!-- Node31&#45;&gt;Node32 -->
<g id="edge57" class="edge">
<title>Node31&#45;&gt;Node32</title>
<path fill="none" stroke="midnightblue" d="M1991,-56.08C1991,-49.01 1991,-38.86 1991,-29.99"/>
<polygon fill="midnightblue" stroke="midnightblue" points="1994.5,-29.75 1991,-19.75 1987.5,-29.75 1994.5,-29.75"/>
</g>
<!-- Node35&#45;&gt;Node3 -->
<g id="edge67" class="edge">
<title>Node35&#45;&gt;Node3</title>
<path fill="none" stroke="midnightblue" d="M427.15,-173.98C366.88,-163.24 263.41,-144.81 198.79,-133.29"/>
<polygon fill="midnightblue" stroke="midnightblue" points="199.22,-129.82 188.77,-131.51 198,-136.71 199.22,-129.82"/>
</g>
<!-- Node35&#45;&gt;Node4 -->
<g id="edge66" class="edge">
<title>Node35&#45;&gt;Node4</title>
<path fill="none" stroke="midnightblue" d="M458.09,-173.98C438.47,-164.08 405.87,-147.64 383.01,-136.12"/>
<polygon fill="midnightblue" stroke="midnightblue" points="384.38,-132.89 373.88,-131.51 381.23,-139.14 384.38,-132.89"/>
</g>
<!-- Node35&#45;&gt;Node5 -->
<g id="edge69" class="edge">
<title>Node35&#45;&gt;Node5</title>
<path fill="none" stroke="midnightblue" d="M513.4,-173.98C561.16,-163.37 642.74,-145.26 694.7,-133.72"/>
<polygon fill="midnightblue" stroke="midnightblue" points="695.67,-137.09 704.67,-131.51 694.15,-130.26 695.67,-137.09"/>
</g>
<!-- Node35&#45;&gt;Node10 -->
<g id="edge68" class="edge">
<title>Node35&#45;&gt;Node10</title>
<path fill="none" stroke="midnightblue" d="M499.84,-174C526.81,-164.55 570.99,-148.46 608,-132 625.8,-124.09 628.32,-117.51 647,-112 801.23,-66.52 849.02,-105.98 1007,-76 1077.54,-62.61 1157.79,-37.63 1202.4,-22.84"/>
<polygon fill="midnightblue" stroke="midnightblue" points="1203.78,-26.07 1212.16,-19.58 1201.57,-19.43 1203.78,-26.07"/>
</g>
<!-- Node36&#45;&gt;Node9 -->
<g id="edge71" class="edge">
<title>Node36&#45;&gt;Node9</title>
<path fill="none" stroke="midnightblue" d="M953.16,-235.91C950.4,-235.6 947.68,-235.3 945,-235 906.8,-230.77 626.72,-227.55 601,-199 591.78,-188.76 592.02,-178.45 601,-168 670.76,-86.89 769.24,-213.11 839,-132 864.56,-102.28 839.7,-53.76 823.14,-28.12"/>
<polygon fill="midnightblue" stroke="midnightblue" points="825.82,-25.83 817.32,-19.5 820.02,-29.75 825.82,-25.83"/>
</g>
<!-- Node36&#45;&gt;Node35 -->
<g id="edge74" class="edge">
<title>Node36&#45;&gt;Node35</title>
<path fill="none" stroke="midnightblue" d="M953.16,-235.88C950.41,-235.58 947.68,-235.28 945,-235 777.62,-217.23 735.01,-219.97 568,-199 557.68,-197.7 546.74,-196.16 536.13,-194.56"/>
<polygon fill="midnightblue" stroke="midnightblue" points="536.5,-191.08 526.09,-193.02 535.44,-198 536.5,-191.08"/>
</g>
<!-- Node36&#45;&gt;Node37 -->
<g id="edge72" class="edge">
<title>Node36&#45;&gt;Node37</title>
<path fill="none" stroke="midnightblue" d="M1028.45,-235.48C1035.2,-226.55 1045.97,-212.31 1054.41,-201.14"/>
<polygon fill="midnightblue" stroke="midnightblue" points="1057.32,-203.1 1060.56,-193.01 1051.74,-198.87 1057.32,-203.1"/>
</g>
<!-- Node38 -->
<g id="node38" class="node">
<title>Node38</title>
<g id="a_node38"><a xlink:title=" ">
<polygon fill="white" stroke="#bfbfbf" points="791.5,-174 791.5,-193 968.5,-193 968.5,-174 791.5,-174"/>
<text text-anchor="middle" x="880" y="-181" font-family="Helvetica,sans-Serif" font-size="10.00">stk_mesh/base/GetNgpMesh.hpp</text>
</a>
</g>
</g>
<!-- Node36&#45;&gt;Node38 -->
<g id="edge73" class="edge">
<title>Node36&#45;&gt;Node38</title>
<path fill="none" stroke="midnightblue" d="M1001.65,-235.48C977.61,-225.4 937.4,-208.55 909.84,-197"/>
<polygon fill="midnightblue" stroke="midnightblue" points="910.88,-193.65 900.31,-193.01 908.18,-200.1 910.88,-193.65"/>
</g>
</g>
</svg>
