<?xml version="1.0" encoding="UTF-8" standalone="no"?>
<!DOCTYPE svg PUBLIC "-//W3C//DTD SVG 1.1//EN"
 "http://www.w3.org/Graphics/SVG/1.1/DTD/svg11.dtd">
<!-- Generated by graphviz version 2.43.0 (0)
 -->
<!-- Title: StrongDirichletBC.h Pages: 1 -->
<svg width="735pt" height="82pt"
 viewBox="0.00 0.00 734.50 82.00" xmlns="http://www.w3.org/2000/svg" xmlns:xlink="http://www.w3.org/1999/xlink">
<g id="graph0" class="graph" transform="scale(1 1) rotate(0) translate(4 78)">
<title>StrongDirichletBC.h</title>
<!-- Node1 -->
<g id="Node000001" class="node">
<title>Node1</title>
<g id="a_Node000001"><a xlink:title=" ">
<polygon fill="#999999" stroke="#666666" points="452,-74 340,-74 340,-55 452,-55 452,-74"/>
<text text-anchor="middle" x="396" y="-62" font-family="Helvetica,sans-Serif" font-size="10.00">StrongDirichletBC.h</text>
</a>
</g>
</g>
<!-- Node2 -->
<g id="Node000002" class="node">
<title>Node2</title>
<g id="a_Node000002"><a xlink:href="_conduction_jacobi_preconditioner_8_c.html" target="_top" xlink:title=" ">
<polygon fill="white" stroke="#666666" points="180,-19 0,-19 0,0 180,0 180,-19"/>
<text text-anchor="middle" x="90" y="-7" font-family="Helvetica,sans-Serif" font-size="10.00">ConductionJacobiPreconditioner.C</text>
</a>
</g>
</g>
<!-- Node1&#45;&gt;Node2 -->
<g id="edge1_Node000001_Node000002" class="edge">
<title>Node1&#45;&gt;Node2</title>
<g id="a_edge1_Node000001_Node000002"><a xlink:title=" ">
<path fill="none" stroke="#63b8ff" d="M336.81,-53.25C279.35,-43.3 193.14,-28.36 139.3,-19.04"/>
<polygon fill="#63b8ff" stroke="#63b8ff" points="336.39,-56.73 346.84,-54.98 337.58,-49.83 336.39,-56.73"/>
</a>
</g>
</g>
<!-- Node3 -->
<g id="Node000003" class="node">
<title>Node3</title>
<g id="a_Node000003"><a xlink:href="_conduction_operator_8_c.html" target="_top" xlink:title=" ">
<polygon fill="white" stroke="#666666" points="321.5,-19 198.5,-19 198.5,0 321.5,0 321.5,-19"/>
<text text-anchor="middle" x="260" y="-7" font-family="Helvetica,sans-Serif" font-size="10.00">ConductionOperator.C</text>
</a>
</g>
</g>
<!-- Node1&#45;&gt;Node3 -->
<g id="edge2_Node000001_Node000003" class="edge">
<title>Node1&#45;&gt;Node3</title>
<g id="a_edge2_Node000001_Node000003"><a xlink:title=" ">
<path fill="none" stroke="#63b8ff" d="M364.67,-51.29C339.46,-41.47 304.67,-27.91 282.25,-19.17"/>
<polygon fill="#63b8ff" stroke="#63b8ff" points="363.56,-54.61 374.15,-54.98 366.1,-48.09 363.56,-54.61"/>
</a>
</g>
</g>
<!-- Node4 -->
<g id="Node000004" class="node">
<title>Node4</title>
<g id="a_Node000004"><a xlink:href="_momentum_jacobi_8_c.html" target="_top" xlink:title=" ">
<polygon fill="white" stroke="#666666" points="452,-19 340,-19 340,0 452,0 452,-19"/>
<text text-anchor="middle" x="396" y="-7" font-family="Helvetica,sans-Serif" font-size="10.00">MomentumJacobi.C</text>
</a>
</g>
</g>
<!-- Node1&#45;&gt;Node4 -->
<g id="edge3_Node000001_Node000004" class="edge">
<title>Node1&#45;&gt;Node4</title>
<g id="a_edge3_Node000001_Node000004"><a xlink:title=" ">
<path fill="none" stroke="#63b8ff" d="M396,-44.66C396,-35.93 396,-25.99 396,-19.09"/>
<polygon fill="#63b8ff" stroke="#63b8ff" points="392.5,-44.75 396,-54.75 399.5,-44.75 392.5,-44.75"/>
</a>
</g>
</g>
<!-- Node5 -->
<g id="Node000005" class="node">
<title>Node5</title>
<g id="a_Node000005"><a xlink:href="_momentum_operator_8_c.html" target="_top" xlink:title=" ">
<polygon fill="white" stroke="#666666" points="595.5,-19 470.5,-19 470.5,0 595.5,0 595.5,-19"/>
<text text-anchor="middle" x="533" y="-7" font-family="Helvetica,sans-Serif" font-size="10.00">MomentumOperator.C</text>
</a>
</g>
</g>
<!-- Node1&#45;&gt;Node5 -->
<g id="edge4_Node000001_Node000005" class="edge">
<title>Node1&#45;&gt;Node5</title>
<g id="a_edge4_Node000001_Node000005"><a xlink:title=" ">
<path fill="none" stroke="#63b8ff" d="M427.56,-51.29C452.95,-41.47 488,-27.91 510.59,-19.17"/>
<polygon fill="#63b8ff" stroke="#63b8ff" points="426.08,-48.11 418.01,-54.98 428.6,-54.64 426.08,-48.11"/>
</a>
</g>
</g>
<!-- Node6 -->
<g id="Node000006" class="node">
<title>Node6</title>
<g id="a_Node000006"><a xlink:href="_strong_dirichlet_b_c_8_c.html" target="_top" xlink:title=" ">
<polygon fill="white" stroke="#666666" points="726.5,-19 613.5,-19 613.5,0 726.5,0 726.5,-19"/>
<text text-anchor="middle" x="670" y="-7" font-family="Helvetica,sans-Serif" font-size="10.00">StrongDirichletBC.C</text>
</a>
</g>
</g>
<!-- Node1&#45;&gt;Node6 -->
<g id="edge5_Node000001_Node000006" class="edge">
<title>Node1&#45;&gt;Node6</title>
<g id="a_edge5_Node000001_Node000006"><a xlink:title=" ">
<path fill="none" stroke="#63b8ff" d="M449.95,-53.07C501.31,-43.13 577.7,-28.35 625.63,-19.08"/>
<polygon fill="#63b8ff" stroke="#63b8ff" points="449.18,-49.65 440.02,-54.98 450.51,-56.52 449.18,-49.65"/>
</a>
</g>
</g>
</g>
</svg>
