<?xml version="1.0" encoding="UTF-8" standalone="no"?>
<!DOCTYPE svg PUBLIC "-//W3C//DTD SVG 1.1//EN"
 "http://www.w3.org/Graphics/SVG/1.1/DTD/svg11.dtd">
<!-- Generated by graphviz version 2.43.0 (0)
 -->
<!-- Title: SupplementalAlgorithm.C Pages: 1 -->
<svg width="867pt" height="252pt"
 viewBox="0.00 0.00 867.00 252.00" xmlns="http://www.w3.org/2000/svg" xmlns:xlink="http://www.w3.org/1999/xlink">
<g id="graph0" class="graph" transform="scale(1 1) rotate(0) translate(4 248)">
<title>SupplementalAlgorithm.C</title>
<polygon fill="white" stroke="transparent" points="-4,4 -4,-248 863,-248 863,4 -4,4"/>
<!-- Node1 -->
<g id="node1" class="node">
<title>Node1</title>
<g id="a_node1"><a xlink:title=" ">
<polygon fill="#bfbfbf" stroke="black" points="48.5,-224.5 48.5,-243.5 190.5,-243.5 190.5,-224.5 48.5,-224.5"/>
<text text-anchor="middle" x="119.5" y="-231.5" font-family="Helvetica,sans-Serif" font-size="10.00">SupplementalAlgorithm.C</text>
</a>
</g>
</g>
<!-- Node2 -->
<g id="node2" class="node">
<title>Node2</title>
<g id="a_node2"><a xlink:href="_supplemental_algorithm_8h.html" target="_top" xlink:title=" ">
<polygon fill="white" stroke="black" points="137,-168.5 137,-187.5 278,-187.5 278,-168.5 137,-168.5"/>
<text text-anchor="middle" x="207.5" y="-175.5" font-family="Helvetica,sans-Serif" font-size="10.00">SupplementalAlgorithm.h</text>
</a>
</g>
</g>
<!-- Node1&#45;&gt;Node2 -->
<g id="edge1" class="edge">
<title>Node1&#45;&gt;Node2</title>
<path fill="none" stroke="midnightblue" d="M133.64,-224.32C147.37,-215.9 168.44,-202.97 184.56,-193.07"/>
<polygon fill="midnightblue" stroke="midnightblue" points="186.7,-195.87 193.4,-187.65 183.04,-189.9 186.7,-195.87"/>
</g>
<!-- Node12 -->
<g id="node12" class="node">
<title>Node12</title>
<g id="a_node12"><a xlink:title=" ">
<polygon fill="white" stroke="#bfbfbf" points="0,-0.5 0,-19.5 141,-19.5 141,-0.5 0,-0.5"/>
<text text-anchor="middle" x="70.5" y="-7.5" font-family="Helvetica,sans-Serif" font-size="10.00">stk_mesh/base/Entity.hpp</text>
</a>
</g>
</g>
<!-- Node1&#45;&gt;Node12 -->
<g id="edge20" class="edge">
<title>Node1&#45;&gt;Node12</title>
<path fill="none" stroke="midnightblue" d="M117.58,-224.3C110.35,-191.56 84.71,-75.38 74.62,-29.67"/>
<polygon fill="midnightblue" stroke="midnightblue" points="78.03,-28.89 72.46,-19.88 71.2,-30.4 78.03,-28.89"/>
</g>
<!-- Node3 -->
<g id="node3" class="node">
<title>Node3</title>
<g id="a_node3"><a xlink:href="_master_element_8h.html" target="_top" xlink:title=" ">
<polygon fill="white" stroke="black" points="393,-112.5 393,-131.5 576,-131.5 576,-112.5 393,-112.5"/>
<text text-anchor="middle" x="484.5" y="-119.5" font-family="Helvetica,sans-Serif" font-size="10.00">master_element/MasterElement.h</text>
</a>
</g>
</g>
<!-- Node2&#45;&gt;Node3 -->
<g id="edge2" class="edge">
<title>Node2&#45;&gt;Node3</title>
<path fill="none" stroke="midnightblue" d="M251.39,-168.44C300.02,-158.96 378.45,-143.67 430.72,-133.48"/>
<polygon fill="midnightblue" stroke="midnightblue" points="431.67,-136.87 440.81,-131.52 430.33,-129.99 431.67,-136.87"/>
</g>
<!-- Node9 -->
<g id="node9" class="node">
<title>Node9</title>
<g id="a_node9"><a xlink:title=" ">
<polygon fill="white" stroke="#bfbfbf" points="480,-0.5 480,-19.5 527,-19.5 527,-0.5 480,-0.5"/>
<text text-anchor="middle" x="503.5" y="-7.5" font-family="Helvetica,sans-Serif" font-size="10.00">vector</text>
</a>
</g>
</g>
<!-- Node2&#45;&gt;Node9 -->
<g id="edge17" class="edge">
<title>Node2&#45;&gt;Node9</title>
<path fill="none" stroke="midnightblue" d="M251.11,-168.47C275.33,-161.89 304.68,-150.65 325.5,-132 353.78,-106.67 335.58,-80.6 364.5,-56 368.67,-52.45 430.58,-33.18 470.36,-21.03"/>
<polygon fill="midnightblue" stroke="midnightblue" points="471.4,-24.38 479.94,-18.11 469.36,-17.68 471.4,-24.38"/>
</g>
<!-- Node10 -->
<g id="node10" class="node">
<title>Node10</title>
<g id="a_node10"><a xlink:href="_kokkos_interface_8h.html" target="_top" xlink:title=" ">
<polygon fill="white" stroke="black" points="174.5,-56.5 174.5,-75.5 278.5,-75.5 278.5,-56.5 174.5,-56.5"/>
<text text-anchor="middle" x="226.5" y="-63.5" font-family="Helvetica,sans-Serif" font-size="10.00">KokkosInterface.h</text>
</a>
</g>
</g>
<!-- Node2&#45;&gt;Node10 -->
<g id="edge16" class="edge">
<title>Node2&#45;&gt;Node10</title>
<path fill="none" stroke="midnightblue" d="M194.91,-168.32C178.96,-156.17 154.78,-133.23 165.5,-112 172.31,-98.52 185.27,-88.08 197.5,-80.67"/>
<polygon fill="midnightblue" stroke="midnightblue" points="199.57,-83.52 206.59,-75.59 196.16,-77.41 199.57,-83.52"/>
</g>
<!-- Node2&#45;&gt;Node12 -->
<g id="edge19" class="edge">
<title>Node2&#45;&gt;Node12</title>
<path fill="none" stroke="midnightblue" d="M197.05,-168.2C186.96,-159.48 171.48,-145.5 159.5,-132 128.63,-97.22 97.58,-52.18 81.58,-28.05"/>
<polygon fill="midnightblue" stroke="midnightblue" points="84.46,-26.06 76.04,-19.62 78.61,-29.9 84.46,-26.06"/>
</g>
<!-- Node16 -->
<g id="node16" class="node">
<title>Node16</title>
<g id="a_node16"><a xlink:title=" ">
<polygon fill="white" stroke="#bfbfbf" points="174.5,-112.5 174.5,-131.5 316.5,-131.5 316.5,-112.5 174.5,-112.5"/>
<text text-anchor="middle" x="245.5" y="-119.5" font-family="Helvetica,sans-Serif" font-size="10.00">stk_mesh/base/Types.hpp</text>
</a>
</g>
</g>
<!-- Node2&#45;&gt;Node16 -->
<g id="edge18" class="edge">
<title>Node2&#45;&gt;Node16</title>
<path fill="none" stroke="midnightblue" d="M213.77,-168.08C219.14,-160.46 227.02,-149.26 233.58,-139.94"/>
<polygon fill="midnightblue" stroke="midnightblue" points="236.45,-141.94 239.34,-131.75 230.72,-137.91 236.45,-141.94"/>
</g>
<!-- Node4 -->
<g id="node4" class="node">
<title>Node4</title>
<g id="a_node4"><a xlink:href="_alg_traits_8h.html" target="_top" xlink:title=" ">
<polygon fill="white" stroke="black" points="752.5,-56.5 752.5,-75.5 820.5,-75.5 820.5,-56.5 752.5,-56.5"/>
<text text-anchor="middle" x="786.5" y="-63.5" font-family="Helvetica,sans-Serif" font-size="10.00">AlgTraits.h</text>
</a>
</g>
</g>
<!-- Node3&#45;&gt;Node4 -->
<g id="edge3" class="edge">
<title>Node3&#45;&gt;Node4</title>
<path fill="none" stroke="midnightblue" d="M536.68,-112.47C586.91,-104.14 665.25,-90.84 742.37,-76.17"/>
<polygon fill="midnightblue" stroke="midnightblue" points="743.09,-79.59 752.25,-74.28 741.77,-72.72 743.09,-79.59"/>
</g>
<!-- Node6 -->
<g id="node6" class="node">
<title>Node6</title>
<g id="a_node6"><a xlink:href="_simd_interface_8h.html" target="_top" xlink:title="STK SIMD Interface.">
<polygon fill="white" stroke="black" points="456.5,-56.5 456.5,-75.5 550.5,-75.5 550.5,-56.5 456.5,-56.5"/>
<text text-anchor="middle" x="503.5" y="-63.5" font-family="Helvetica,sans-Serif" font-size="10.00">SimdInterface.h</text>
</a>
</g>
</g>
<!-- Node3&#45;&gt;Node6 -->
<g id="edge5" class="edge">
<title>Node3&#45;&gt;Node6</title>
<path fill="none" stroke="midnightblue" d="M487.64,-112.08C490.18,-104.85 493.86,-94.41 497.03,-85.4"/>
<polygon fill="midnightblue" stroke="midnightblue" points="500.4,-86.35 500.42,-75.75 493.8,-84.02 500.4,-86.35"/>
</g>
<!-- Node3&#45;&gt;Node10 -->
<g id="edge9" class="edge">
<title>Node3&#45;&gt;Node10</title>
<path fill="none" stroke="midnightblue" d="M443.62,-112.44C398.52,-103 325.89,-87.8 277.2,-77.61"/>
<polygon fill="midnightblue" stroke="midnightblue" points="277.69,-74.14 267.19,-75.52 276.26,-80.99 277.69,-74.14"/>
</g>
<!-- Node14 -->
<g id="node14" class="node">
<title>Node14</title>
<g id="a_node14"><a xlink:title=" ">
<polygon fill="white" stroke="#bfbfbf" points="569,-56.5 569,-75.5 734,-75.5 734,-56.5 569,-56.5"/>
<text text-anchor="middle" x="651.5" y="-63.5" font-family="Helvetica,sans-Serif" font-size="10.00">stk_util/util/ReportHandler.hpp</text>
</a>
</g>
</g>
<!-- Node3&#45;&gt;Node14 -->
<g id="edge14" class="edge">
<title>Node3&#45;&gt;Node14</title>
<path fill="none" stroke="midnightblue" d="M510.96,-112.44C539.18,-103.32 584.04,-88.81 615.47,-78.65"/>
<polygon fill="midnightblue" stroke="midnightblue" points="616.72,-81.92 625.16,-75.52 614.57,-75.26 616.72,-81.92"/>
</g>
<!-- Node15 -->
<g id="node15" class="node">
<title>Node15</title>
<g id="a_node15"><a xlink:title=" ">
<polygon fill="white" stroke="#bfbfbf" points="373,-56.5 373,-75.5 438,-75.5 438,-56.5 373,-56.5"/>
<text text-anchor="middle" x="405.5" y="-63.5" font-family="Helvetica,sans-Serif" font-size="10.00">stdexcept</text>
</a>
</g>
</g>
<!-- Node3&#45;&gt;Node15 -->
<g id="edge15" class="edge">
<title>Node3&#45;&gt;Node15</title>
<path fill="none" stroke="midnightblue" d="M471.81,-112.32C459.6,-103.98 440.92,-91.21 426.5,-81.35"/>
<polygon fill="midnightblue" stroke="midnightblue" points="428.39,-78.41 418.16,-75.65 424.44,-84.19 428.39,-78.41"/>
</g>
<!-- Node5 -->
<g id="node5" class="node">
<title>Node5</title>
<g id="a_node5"><a xlink:title=" ">
<polygon fill="white" stroke="#bfbfbf" points="714,-0.5 714,-19.5 859,-19.5 859,-0.5 714,-0.5"/>
<text text-anchor="middle" x="786.5" y="-7.5" font-family="Helvetica,sans-Serif" font-size="10.00">stk_topology/topology.hpp</text>
</a>
</g>
</g>
<!-- Node4&#45;&gt;Node5 -->
<g id="edge4" class="edge">
<title>Node4&#45;&gt;Node5</title>
<path fill="none" stroke="midnightblue" d="M786.5,-56.08C786.5,-49.01 786.5,-38.86 786.5,-29.99"/>
<polygon fill="midnightblue" stroke="midnightblue" points="790,-29.75 786.5,-19.75 783,-29.75 790,-29.75"/>
</g>
<!-- Node7 -->
<g id="node7" class="node">
<title>Node7</title>
<g id="a_node7"><a xlink:title=" ">
<polygon fill="white" stroke="#bfbfbf" points="545.5,-0.5 545.5,-19.5 655.5,-19.5 655.5,-0.5 545.5,-0.5"/>
<text text-anchor="middle" x="600.5" y="-7.5" font-family="Helvetica,sans-Serif" font-size="10.00">stk_simd/Simd.hpp</text>
</a>
</g>
</g>
<!-- Node6&#45;&gt;Node7 -->
<g id="edge6" class="edge">
<title>Node6&#45;&gt;Node7</title>
<path fill="none" stroke="midnightblue" d="M519.08,-56.32C534.5,-47.74 558.31,-34.49 576.21,-24.52"/>
<polygon fill="midnightblue" stroke="midnightblue" points="577.92,-27.58 584.95,-19.65 574.51,-21.46 577.92,-27.58"/>
</g>
<!-- Node8 -->
<g id="node8" class="node">
<title>Node8</title>
<g id="a_node8"><a xlink:title=" ">
<polygon fill="white" stroke="#bfbfbf" points="349,-0.5 349,-19.5 462,-19.5 462,-0.5 349,-0.5"/>
<text text-anchor="middle" x="405.5" y="-7.5" font-family="Helvetica,sans-Serif" font-size="10.00">Kokkos_Macros.hpp</text>
</a>
</g>
</g>
<!-- Node6&#45;&gt;Node8 -->
<g id="edge7" class="edge">
<title>Node6&#45;&gt;Node8</title>
<path fill="none" stroke="midnightblue" d="M487.75,-56.32C472.18,-47.74 448.12,-34.49 430.04,-24.52"/>
<polygon fill="midnightblue" stroke="midnightblue" points="431.65,-21.42 421.21,-19.65 428.28,-27.55 431.65,-21.42"/>
</g>
<!-- Node6&#45;&gt;Node9 -->
<g id="edge8" class="edge">
<title>Node6&#45;&gt;Node9</title>
<path fill="none" stroke="midnightblue" d="M503.5,-56.08C503.5,-49.01 503.5,-38.86 503.5,-29.99"/>
<polygon fill="midnightblue" stroke="midnightblue" points="507,-29.75 503.5,-19.75 500,-29.75 507,-29.75"/>
</g>
<!-- Node10&#45;&gt;Node8 -->
<g id="edge12" class="edge">
<title>Node10&#45;&gt;Node8</title>
<path fill="none" stroke="midnightblue" d="M254.86,-56.44C285.24,-47.28 333.61,-32.69 367.32,-22.52"/>
<polygon fill="midnightblue" stroke="midnightblue" points="368.71,-25.76 377.27,-19.52 366.68,-19.05 368.71,-25.76"/>
</g>
<!-- Node11 -->
<g id="node11" class="node">
<title>Node11</title>
<g id="a_node11"><a xlink:title=" ">
<polygon fill="white" stroke="#bfbfbf" points="159,-0.5 159,-19.5 212,-19.5 212,-0.5 159,-0.5"/>
<text text-anchor="middle" x="185.5" y="-7.5" font-family="Helvetica,sans-Serif" font-size="10.00">cstddef</text>
</a>
</g>
</g>
<!-- Node10&#45;&gt;Node11 -->
<g id="edge10" class="edge">
<title>Node10&#45;&gt;Node11</title>
<path fill="none" stroke="midnightblue" d="M219.73,-56.08C213.94,-48.46 205.44,-37.26 198.36,-27.94"/>
<polygon fill="midnightblue" stroke="midnightblue" points="200.98,-25.6 192.14,-19.75 195.4,-29.83 200.98,-25.6"/>
</g>
<!-- Node10&#45;&gt;Node12 -->
<g id="edge11" class="edge">
<title>Node10&#45;&gt;Node12</title>
<path fill="none" stroke="midnightblue" d="M201.78,-56.44C175.65,-47.4 134.24,-33.06 104.92,-22.92"/>
<polygon fill="midnightblue" stroke="midnightblue" points="105.7,-19.48 95.1,-19.52 103.41,-26.1 105.7,-19.48"/>
</g>
<!-- Node13 -->
<g id="node13" class="node">
<title>Node13</title>
<g id="a_node13"><a xlink:title=" ">
<polygon fill="white" stroke="#bfbfbf" points="230.5,-0.5 230.5,-19.5 330.5,-19.5 330.5,-0.5 230.5,-0.5"/>
<text text-anchor="middle" x="280.5" y="-7.5" font-family="Helvetica,sans-Serif" font-size="10.00">Kokkos_Core.hpp</text>
</a>
</g>
</g>
<!-- Node10&#45;&gt;Node13 -->
<g id="edge13" class="edge">
<title>Node10&#45;&gt;Node13</title>
<path fill="none" stroke="midnightblue" d="M235.42,-56.08C243.28,-48.22 254.93,-36.57 264.42,-27.08"/>
<polygon fill="midnightblue" stroke="midnightblue" points="267.15,-29.3 271.75,-19.75 262.2,-24.35 267.15,-29.3"/>
</g>
</g>
</svg>
