<?xml version="1.0" encoding="UTF-8" standalone="no"?>
<!DOCTYPE svg PUBLIC "-//W3C//DTD SVG 1.1//EN"
 "http://www.w3.org/Graphics/SVG/1.1/DTD/svg11.dtd">
<!-- Generated by graphviz version 2.43.0 (0)
 -->
<!-- Title: SurfaceForceAndMomentAlgorithmDriver.h Pages: 1 -->
<svg width="233pt" height="207pt"
 viewBox="0.00 0.00 233.00 207.00" xmlns="http://www.w3.org/2000/svg" xmlns:xlink="http://www.w3.org/1999/xlink">
<g id="graph0" class="graph" transform="scale(1 1) rotate(0) translate(4 203)">
<title>SurfaceForceAndMomentAlgorithmDriver.h</title>
<polygon fill="white" stroke="transparent" points="-4,4 -4,-203 229,-203 229,4 -4,4"/>
<!-- Node1 -->
<g id="node1" class="node">
<title>Node1</title>
<g id="a_node1"><a xlink:title=" ">
<polygon fill="#bfbfbf" stroke="black" points="38,-168.5 38,-198.5 225,-198.5 225,-168.5 38,-168.5"/>
<text text-anchor="start" x="46" y="-186.5" font-family="Helvetica,sans-Serif" font-size="10.00">SurfaceForceAndMomentAlgorithm</text>
<text text-anchor="middle" x="131.5" y="-175.5" font-family="Helvetica,sans-Serif" font-size="10.00">Driver.h</text>
</a>
</g>
</g>
<!-- Node2 -->
<g id="node2" class="node">
<title>Node2</title>
<g id="a_node2"><a xlink:href="_algorithm_driver_8h.html" target="_top" xlink:title=" ">
<polygon fill="white" stroke="black" points="0,-112.5 0,-131.5 103,-131.5 103,-112.5 0,-112.5"/>
<text text-anchor="middle" x="51.5" y="-119.5" font-family="Helvetica,sans-Serif" font-size="10.00">AlgorithmDriver.h</text>
</a>
</g>
</g>
<!-- Node1&#45;&gt;Node2 -->
<g id="edge1" class="edge">
<title>Node1&#45;&gt;Node2</title>
<path fill="none" stroke="midnightblue" d="M112.54,-168.4C100.08,-159.13 83.8,-147.03 71.19,-137.65"/>
<polygon fill="midnightblue" stroke="midnightblue" points="73.25,-134.82 63.14,-131.66 69.08,-140.43 73.25,-134.82"/>
</g>
<!-- Node4 -->
<g id="node4" class="node">
<title>Node4</title>
<g id="a_node4"><a xlink:title=" ">
<polygon fill="white" stroke="#bfbfbf" points="94.5,-0.5 94.5,-19.5 138.5,-19.5 138.5,-0.5 94.5,-0.5"/>
<text text-anchor="middle" x="116.5" y="-7.5" font-family="Helvetica,sans-Serif" font-size="10.00">string</text>
</a>
</g>
</g>
<!-- Node1&#45;&gt;Node4 -->
<g id="edge6" class="edge">
<title>Node1&#45;&gt;Node4</title>
<path fill="none" stroke="midnightblue" d="M130.27,-168.47C127.58,-137.7 121.16,-64.33 118.14,-29.7"/>
<polygon fill="midnightblue" stroke="midnightblue" points="121.61,-29.22 117.25,-19.56 114.63,-29.83 121.61,-29.22"/>
</g>
<!-- Node6 -->
<g id="node6" class="node">
<title>Node6</title>
<g id="a_node6"><a xlink:title=" ">
<polygon fill="white" stroke="#bfbfbf" points="160,-112.5 160,-131.5 207,-131.5 207,-112.5 160,-112.5"/>
<text text-anchor="middle" x="183.5" y="-119.5" font-family="Helvetica,sans-Serif" font-size="10.00">vector</text>
</a>
</g>
</g>
<!-- Node1&#45;&gt;Node6 -->
<g id="edge7" class="edge">
<title>Node1&#45;&gt;Node6</title>
<path fill="none" stroke="midnightblue" d="M143.82,-168.4C151.46,-159.66 161.29,-148.41 169.26,-139.3"/>
<polygon fill="midnightblue" stroke="midnightblue" points="171.99,-141.49 175.93,-131.66 166.72,-136.88 171.99,-141.49"/>
</g>
<!-- Node3 -->
<g id="node3" class="node">
<title>Node3</title>
<g id="a_node3"><a xlink:href="_enums_8h.html" target="_top" xlink:title=" ">
<polygon fill="white" stroke="black" points="44,-56.5 44,-75.5 103,-75.5 103,-56.5 44,-56.5"/>
<text text-anchor="middle" x="73.5" y="-63.5" font-family="Helvetica,sans-Serif" font-size="10.00">Enums.h</text>
</a>
</g>
</g>
<!-- Node2&#45;&gt;Node3 -->
<g id="edge2" class="edge">
<title>Node2&#45;&gt;Node3</title>
<path fill="none" stroke="midnightblue" d="M55.13,-112.08C58.11,-104.77 62.43,-94.18 66.12,-85.1"/>
<polygon fill="midnightblue" stroke="midnightblue" points="69.4,-86.33 69.93,-75.75 62.92,-83.69 69.4,-86.33"/>
</g>
<!-- Node5 -->
<g id="node5" class="node">
<title>Node5</title>
<g id="a_node5"><a xlink:title=" ">
<polygon fill="white" stroke="#bfbfbf" points="24.5,-0.5 24.5,-19.5 62.5,-19.5 62.5,-0.5 24.5,-0.5"/>
<text text-anchor="middle" x="43.5" y="-7.5" font-family="Helvetica,sans-Serif" font-size="10.00">map</text>
</a>
</g>
</g>
<!-- Node2&#45;&gt;Node5 -->
<g id="edge5" class="edge">
<title>Node2&#45;&gt;Node5</title>
<path fill="none" stroke="midnightblue" d="M47.13,-112.31C42.94,-103.44 36.9,-89.14 34.5,-76 31.65,-60.42 34.56,-42.58 37.8,-29.54"/>
<polygon fill="midnightblue" stroke="midnightblue" points="41.18,-30.44 40.49,-19.87 34.44,-28.57 41.18,-30.44"/>
</g>
<!-- Node3&#45;&gt;Node4 -->
<g id="edge3" class="edge">
<title>Node3&#45;&gt;Node4</title>
<path fill="none" stroke="midnightblue" d="M80.6,-56.08C86.74,-48.38 95.77,-37.03 103.24,-27.65"/>
<polygon fill="midnightblue" stroke="midnightblue" points="106.04,-29.75 109.53,-19.75 100.56,-25.39 106.04,-29.75"/>
</g>
<!-- Node3&#45;&gt;Node5 -->
<g id="edge4" class="edge">
<title>Node3&#45;&gt;Node5</title>
<path fill="none" stroke="midnightblue" d="M68.55,-56.08C64.4,-48.61 58.35,-37.72 53.23,-28.52"/>
<polygon fill="midnightblue" stroke="midnightblue" points="56.28,-26.79 48.36,-19.75 50.16,-30.19 56.28,-26.79"/>
</g>
</g>
</svg>
