<?xml version="1.0" encoding="UTF-8" standalone="no"?>
<!DOCTYPE svg PUBLIC "-//W3C//DTD SVG 1.1//EN"
 "http://www.w3.org/Graphics/SVG/1.1/DTD/svg11.dtd">
<!-- Generated by graphviz version 2.43.0 (0)
 -->
<!-- Title: SutherlandsPropertyEvaluator.C Pages: 1 -->
<svg width="1214pt" height="214pt"
 viewBox="0.00 0.00 1214.00 214.00" xmlns="http://www.w3.org/2000/svg" xmlns:xlink="http://www.w3.org/1999/xlink">
<g id="graph0" class="graph" transform="scale(1 1) rotate(0) translate(4 210)">
<title>SutherlandsPropertyEvaluator.C</title>
<!-- Node1 -->
<g id="Node000001" class="node">
<title>Node1</title>
<g id="a_Node000001"><a xlink:title=" ">
<polygon fill="#999999" stroke="#666666" points="819,-206 648,-206 648,-187 819,-187 819,-206"/>
<text text-anchor="middle" x="733.5" y="-194" font-family="Helvetica,sans-Serif" font-size="10.00">SutherlandsPropertyEvaluator.C</text>
</a>
</g>
</g>
<!-- Node2 -->
<g id="Node000002" class="node">
<title>Node2</title>
<g id="a_Node000002"><a xlink:href="_property_evaluator_8h.html" target="_top" xlink:title=" ">
<polygon fill="white" stroke="#666666" points="240.5,-85 124.5,-85 124.5,-55 240.5,-55 240.5,-85"/>
<text text-anchor="start" x="132.5" y="-73" font-family="Helvetica,sans-Serif" font-size="10.00">property_evaluator</text>
<text text-anchor="middle" x="182.5" y="-62" font-family="Helvetica,sans-Serif" font-size="10.00">/PropertyEvaluator.h</text>
</a>
</g>
</g>
<!-- Node1&#45;&gt;Node2 -->
<g id="edge1_Node000001_Node000002" class="edge">
<title>Node1&#45;&gt;Node2</title>
<g id="a_edge1_Node000001_Node000002"><a xlink:title=" ">
<path fill="none" stroke="#63b8ff" d="M647.82,-193.76C505.95,-190.09 234.52,-179.41 201.5,-151 185.74,-137.44 181.76,-113.43 181.26,-95.24"/>
<polygon fill="#63b8ff" stroke="#63b8ff" points="184.76,-95.08 181.32,-85.07 177.76,-95.05 184.76,-95.08"/>
</a>
</g>
</g>
<!-- Node5 -->
<g id="Node000005" class="node">
<title>Node5</title>
<g id="a_Node000005"><a xlink:href="_sutherlands_property_evaluator_8h.html" target="_top" xlink:title=" ">
<polygon fill="white" stroke="#666666" points="384,-151 211,-151 211,-121 384,-121 384,-151"/>
<text text-anchor="start" x="219" y="-139" font-family="Helvetica,sans-Serif" font-size="10.00">property_evaluator</text>
<text text-anchor="middle" x="297.5" y="-128" font-family="Helvetica,sans-Serif" font-size="10.00">/SutherlandsPropertyEvaluator.h</text>
</a>
</g>
</g>
<!-- Node1&#45;&gt;Node5 -->
<g id="edge4_Node000001_Node000005" class="edge">
<title>Node1&#45;&gt;Node5</title>
<g id="a_edge4_Node000001_Node000005"><a xlink:title=" ">
<path fill="none" stroke="#63b8ff" d="M666.05,-186.97C599.63,-178.5 495.01,-164.98 394.16,-151.08"/>
<polygon fill="#63b8ff" stroke="#63b8ff" points="394.48,-147.59 384.1,-149.69 393.53,-154.52 394.48,-147.59"/>
</a>
</g>
</g>
<!-- Node12 -->
<g id="Node000012" class="node">
<title>Node12</title>
<g id="a_Node000012"><a xlink:href="_reference_property_data_8h.html" target="_top" xlink:title=" ">
<polygon fill="white" stroke="#666666" points="545,-151 402,-151 402,-121 545,-121 545,-151"/>
<text text-anchor="start" x="410" y="-139" font-family="Helvetica,sans-Serif" font-size="10.00">property_evaluator</text>
<text text-anchor="middle" x="473.5" y="-128" font-family="Helvetica,sans-Serif" font-size="10.00">/ReferencePropertyData.h</text>
</a>
</g>
</g>
<!-- Node1&#45;&gt;Node12 -->
<g id="edge13_Node000001_Node000012" class="edge">
<title>Node1&#45;&gt;Node12</title>
<g id="a_edge13_Node000001_Node000012"><a xlink:title=" ">
<path fill="none" stroke="#63b8ff" d="M695.69,-186.99C656.49,-178.17 594.25,-164.17 545.61,-153.22"/>
<polygon fill="#63b8ff" stroke="#63b8ff" points="546.28,-149.79 535.76,-151.01 544.74,-156.62 546.28,-149.79"/>
</a>
</g>
</g>
<!-- Node15 -->
<g id="Node000015" class="node">
<title>Node15</title>
<g id="a_Node000015"><a xlink:title=" ">
<polygon fill="#e0e0e0" stroke="#999999" points="725.5,-145.5 563.5,-145.5 563.5,-126.5 725.5,-126.5 725.5,-145.5"/>
<text text-anchor="middle" x="644.5" y="-133.5" font-family="Helvetica,sans-Serif" font-size="10.00">stk_mesh/base/MetaData.hpp</text>
</a>
</g>
</g>
<!-- Node1&#45;&gt;Node15 -->
<g id="edge18_Node000001_Node000015" class="edge">
<title>Node1&#45;&gt;Node15</title>
<g id="a_edge18_Node000001_Node000015"><a xlink:title=" ">
<path fill="none" stroke="#63b8ff" d="M720.37,-186.87C706.17,-177.54 683.3,-162.51 666.38,-151.38"/>
<polygon fill="#63b8ff" stroke="#63b8ff" points="667.97,-148.24 657.69,-145.67 664.12,-154.08 667.97,-148.24"/>
</a>
</g>
</g>
<!-- Node16 -->
<g id="Node000016" class="node">
<title>Node16</title>
<g id="a_Node000016"><a xlink:title=" ">
<polygon fill="#e0e0e0" stroke="#999999" points="903,-145.5 744,-145.5 744,-126.5 903,-126.5 903,-145.5"/>
<text text-anchor="middle" x="823.5" y="-133.5" font-family="Helvetica,sans-Serif" font-size="10.00">stk_mesh/base/BulkData.hpp</text>
</a>
</g>
</g>
<!-- Node1&#45;&gt;Node16 -->
<g id="edge19_Node000001_Node000016" class="edge">
<title>Node1&#45;&gt;Node16</title>
<g id="a_edge19_Node000001_Node000016"><a xlink:title=" ">
<path fill="none" stroke="#63b8ff" d="M746.78,-186.87C761.14,-177.54 784.26,-162.51 801.37,-151.38"/>
<polygon fill="#63b8ff" stroke="#63b8ff" points="803.69,-154.05 810.17,-145.67 799.87,-148.18 803.69,-154.05"/>
</a>
</g>
</g>
<!-- Node17 -->
<g id="Node000017" class="node">
<title>Node17</title>
<g id="a_Node000017"><a xlink:title=" ">
<polygon fill="#e0e0e0" stroke="#999999" points="1058,-145.5 921,-145.5 921,-126.5 1058,-126.5 1058,-145.5"/>
<text text-anchor="middle" x="989.5" y="-133.5" font-family="Helvetica,sans-Serif" font-size="10.00">stk_mesh/base/Field.hpp</text>
</a>
</g>
</g>
<!-- Node1&#45;&gt;Node17 -->
<g id="edge20_Node000001_Node000017" class="edge">
<title>Node1&#45;&gt;Node17</title>
<g id="a_edge20_Node000001_Node000017"><a xlink:title=" ">
<path fill="none" stroke="#63b8ff" d="M770.72,-186.99C816.13,-176.62 892.94,-159.07 942.41,-147.76"/>
<polygon fill="#63b8ff" stroke="#63b8ff" points="943.26,-151.16 952.23,-145.52 941.7,-144.33 943.26,-151.16"/>
</a>
</g>
</g>
<!-- Node18 -->
<g id="Node000018" class="node">
<title>Node18</title>
<g id="a_Node000018"><a xlink:title=" ">
<polygon fill="#e0e0e0" stroke="#999999" points="1123,-145.5 1076,-145.5 1076,-126.5 1123,-126.5 1123,-145.5"/>
<text text-anchor="middle" x="1099.5" y="-133.5" font-family="Helvetica,sans-Serif" font-size="10.00">cmath</text>
</a>
</g>
</g>
<!-- Node1&#45;&gt;Node18 -->
<g id="edge21_Node000001_Node000018" class="edge">
<title>Node1&#45;&gt;Node18</title>
<g id="a_edge21_Node000001_Node000018"><a xlink:title=" ">
<path fill="none" stroke="#63b8ff" d="M819.24,-190.7C887.51,-185.3 984.96,-174.06 1067.5,-151 1069.19,-150.53 1070.9,-149.99 1072.61,-149.39"/>
<polygon fill="#63b8ff" stroke="#63b8ff" points="1074.2,-152.53 1082.22,-145.61 1071.63,-146.02 1074.2,-152.53"/>
</a>
</g>
</g>
<!-- Node19 -->
<g id="Node000019" class="node">
<title>Node19</title>
<g id="a_Node000019"><a xlink:title=" ">
<polygon fill="#e0e0e0" stroke="#999999" points="1206,-145.5 1141,-145.5 1141,-126.5 1206,-126.5 1206,-145.5"/>
<text text-anchor="middle" x="1173.5" y="-133.5" font-family="Helvetica,sans-Serif" font-size="10.00">stdexcept</text>
</a>
</g>
</g>
<!-- Node1&#45;&gt;Node19 -->
<g id="edge22_Node000001_Node000019" class="edge">
<title>Node1&#45;&gt;Node19</title>
<g id="a_edge22_Node000001_Node000019"><a xlink:title=" ">
<path fill="none" stroke="#63b8ff" d="M819.23,-191.35C900.64,-186.14 1026.05,-174.81 1132.5,-151 1135.49,-150.33 1138.56,-149.52 1141.62,-148.63"/>
<polygon fill="#63b8ff" stroke="#63b8ff" points="1142.72,-151.96 1151.2,-145.6 1140.61,-145.28 1142.72,-151.96"/>
</a>
</g>
</g>
<!-- Node3 -->
<g id="Node000003" class="node">
<title>Node3</title>
<g id="a_Node000003"><a xlink:title=" ">
<polygon fill="#e0e0e0" stroke="#999999" points="141,-19 0,-19 0,0 141,0 141,-19"/>
<text text-anchor="middle" x="70.5" y="-7" font-family="Helvetica,sans-Serif" font-size="10.00">stk_mesh/base/Entity.hpp</text>
</a>
</g>
</g>
<!-- Node2&#45;&gt;Node3 -->
<g id="edge2_Node000002_Node000003" class="edge">
<title>Node2&#45;&gt;Node3</title>
<g id="a_edge2_Node000002_Node000003"><a xlink:title=" ">
<path fill="none" stroke="#63b8ff" d="M155.67,-54.99C137.65,-45.58 114.04,-33.24 96.25,-23.95"/>
<polygon fill="#63b8ff" stroke="#63b8ff" points="97.52,-20.67 87.04,-19.14 94.28,-26.87 97.52,-20.67"/>
</a>
</g>
</g>
<!-- Node4 -->
<g id="Node000004" class="node">
<title>Node4</title>
<g id="a_Node000004"><a xlink:title=" ">
<polygon fill="#e0e0e0" stroke="#999999" points="206,-19 159,-19 159,0 206,0 206,-19"/>
<text text-anchor="middle" x="182.5" y="-7" font-family="Helvetica,sans-Serif" font-size="10.00">vector</text>
</a>
</g>
</g>
<!-- Node2&#45;&gt;Node4 -->
<g id="edge3_Node000002_Node000004" class="edge">
<title>Node2&#45;&gt;Node4</title>
<g id="a_edge3_Node000002_Node000004"><a xlink:title=" ">
<path fill="none" stroke="#63b8ff" d="M182.5,-54.84C182.5,-47.21 182.5,-37.7 182.5,-29.45"/>
<polygon fill="#63b8ff" stroke="#63b8ff" points="186,-29.27 182.5,-19.27 179,-29.27 186,-29.27"/>
</a>
</g>
</g>
<!-- Node5&#45;&gt;Node2 -->
<g id="edge5_Node000005_Node000002" class="edge">
<title>Node5&#45;&gt;Node2</title>
<g id="a_edge5_Node000005_Node000002"><a xlink:title=" ">
<path fill="none" stroke="#63b8ff" d="M272.26,-120.95C255.93,-111.87 234.48,-99.93 216.63,-90"/>
<polygon fill="#63b8ff" stroke="#63b8ff" points="218.12,-86.82 207.68,-85.01 214.71,-92.93 218.12,-86.82"/>
</a>
</g>
</g>
<!-- Node5&#45;&gt;Node4 -->
<g id="edge11_Node000005_Node000004" class="edge">
<title>Node5&#45;&gt;Node4</title>
<g id="a_edge11_Node000005_Node000004"><a xlink:title=" ">
<path fill="none" stroke="#63b8ff" d="M291.33,-120.72C283.45,-103.66 268.52,-74.91 249.5,-55 237.67,-42.61 221.79,-31.88 208.46,-24.06"/>
<polygon fill="#63b8ff" stroke="#63b8ff" points="210.15,-20.99 199.72,-19.12 206.71,-27.09 210.15,-20.99"/>
</a>
</g>
</g>
<!-- Node6 -->
<g id="Node000006" class="node">
<title>Node6</title>
<g id="a_Node000006"><a xlink:href="_field_type_def_8h.html" target="_top" xlink:title=" ">
<polygon fill="white" stroke="#666666" points="499.5,-79.5 411.5,-79.5 411.5,-60.5 499.5,-60.5 499.5,-79.5"/>
<text text-anchor="middle" x="455.5" y="-67.5" font-family="Helvetica,sans-Serif" font-size="10.00">FieldTypeDef.h</text>
</a>
</g>
</g>
<!-- Node5&#45;&gt;Node6 -->
<g id="edge6_Node000005_Node000006" class="edge">
<title>Node5&#45;&gt;Node6</title>
<g id="a_edge6_Node000005_Node000006"><a xlink:title=" ">
<path fill="none" stroke="#63b8ff" d="M332.17,-120.95C359.88,-109.73 398.35,-94.15 424.92,-83.39"/>
<polygon fill="#63b8ff" stroke="#63b8ff" points="426.52,-86.52 434.47,-79.52 423.89,-80.03 426.52,-86.52"/>
</a>
</g>
</g>
<!-- Node11 -->
<g id="Node000011" class="node">
<title>Node11</title>
<g id="a_Node000011"><a xlink:title=" ">
<polygon fill="#e0e0e0" stroke="#999999" points="852.5,-19 814.5,-19 814.5,0 852.5,0 852.5,-19"/>
<text text-anchor="middle" x="833.5" y="-7" font-family="Helvetica,sans-Serif" font-size="10.00">map</text>
</a>
</g>
</g>
<!-- Node5&#45;&gt;Node11 -->
<g id="edge12_Node000005_Node000011" class="edge">
<title>Node5&#45;&gt;Node11</title>
<g id="a_edge12_Node000005_Node000011"><a xlink:title=" ">
<path fill="none" stroke="#63b8ff" d="M366.07,-120.94C462.11,-100.89 642.22,-62.01 804.59,-19.1"/>
<polygon fill="#63b8ff" stroke="#63b8ff" points="805.5,-22.48 814.27,-16.53 803.71,-15.71 805.5,-22.48"/>
</a>
</g>
</g>
<!-- Node7 -->
<g id="Node000007" class="node">
<title>Node7</title>
<g id="a_Node000007"><a xlink:title=" ">
<polygon fill="#e0e0e0" stroke="#999999" points="796,-19 635,-19 635,0 796,0 796,-19"/>
<text text-anchor="middle" x="715.5" y="-7" font-family="Helvetica,sans-Serif" font-size="10.00">stk_mesh/base/FieldBase.hpp</text>
</a>
</g>
</g>
<!-- Node6&#45;&gt;Node7 -->
<g id="edge7_Node000006_Node000007" class="edge">
<title>Node6&#45;&gt;Node7</title>
<g id="a_edge7_Node000006_Node000007"><a xlink:title=" ">
<path fill="none" stroke="#63b8ff" d="M493.31,-60.49C539.42,-50.12 617.43,-32.57 667.68,-21.26"/>
<polygon fill="#63b8ff" stroke="#63b8ff" points="668.66,-24.63 677.65,-19.02 667.12,-17.8 668.66,-24.63"/>
</a>
</g>
</g>
<!-- Node8 -->
<g id="Node000008" class="node">
<title>Node8</title>
<g id="a_Node000008"><a xlink:title=" ">
<polygon fill="#e0e0e0" stroke="#999999" points="358.5,-19 224.5,-19 224.5,0 358.5,0 358.5,-19"/>
<text text-anchor="middle" x="291.5" y="-7" font-family="Helvetica,sans-Serif" font-size="10.00">stk_mesh/base/Ngp.hpp</text>
</a>
</g>
</g>
<!-- Node6&#45;&gt;Node8 -->
<g id="edge8_Node000006_Node000008" class="edge">
<title>Node6&#45;&gt;Node8</title>
<g id="a_edge8_Node000006_Node000008"><a xlink:title=" ">
<path fill="none" stroke="#63b8ff" d="M431.65,-60.49C403.6,-50.49 356.83,-33.8 325.1,-22.49"/>
<polygon fill="#63b8ff" stroke="#63b8ff" points="325.97,-19.08 315.38,-19.02 323.62,-25.67 325.97,-19.08"/>
</a>
</g>
</g>
<!-- Node9 -->
<g id="Node000009" class="node">
<title>Node9</title>
<g id="a_Node000009"><a xlink:title=" ">
<polygon fill="#e0e0e0" stroke="#999999" points="534,-19 377,-19 377,0 534,0 534,-19"/>
<text text-anchor="middle" x="455.5" y="-7" font-family="Helvetica,sans-Serif" font-size="10.00">stk_mesh/base/NgpField.hpp</text>
</a>
</g>
</g>
<!-- Node6&#45;&gt;Node9 -->
<g id="edge9_Node000006_Node000009" class="edge">
<title>Node6&#45;&gt;Node9</title>
<g id="a_edge9_Node000006_Node000009"><a xlink:title=" ">
<path fill="none" stroke="#63b8ff" d="M455.5,-60.37C455.5,-52.25 455.5,-39.81 455.5,-29.39"/>
<polygon fill="#63b8ff" stroke="#63b8ff" points="459,-29.17 455.5,-19.17 452,-29.17 459,-29.17"/>
</a>
</g>
</g>
<!-- Node10 -->
<g id="Node000010" class="node">
<title>Node10</title>
<g id="a_Node000010"><a xlink:title=" ">
<polygon fill="#e0e0e0" stroke="#999999" points="617,-19 552,-19 552,0 617,0 617,-19"/>
<text text-anchor="middle" x="584.5" y="-7" font-family="Helvetica,sans-Serif" font-size="10.00">functional</text>
</a>
</g>
</g>
<!-- Node6&#45;&gt;Node10 -->
<g id="edge10_Node000006_Node000010" class="edge">
<title>Node6&#45;&gt;Node10</title>
<g id="a_edge10_Node000006_Node000010"><a xlink:title=" ">
<path fill="none" stroke="#63b8ff" d="M474.26,-60.49C495.85,-50.7 531.53,-34.52 556.43,-23.23"/>
<polygon fill="#63b8ff" stroke="#63b8ff" points="558.06,-26.33 565.72,-19.02 555.17,-19.96 558.06,-26.33"/>
</a>
</g>
</g>
<!-- Node12&#45;&gt;Node4 -->
<g id="edge17_Node000012_Node000004" class="edge">
<title>Node12&#45;&gt;Node4</title>
<g id="a_edge17_Node000012_Node000004"><a xlink:title=" ">
<path fill="none" stroke="#63b8ff" d="M440.68,-120.96C383.59,-96.53 266.86,-46.59 212.1,-23.16"/>
<polygon fill="#63b8ff" stroke="#63b8ff" points="213.19,-19.83 202.62,-19.11 210.44,-26.26 213.19,-19.83"/>
</a>
</g>
</g>
<!-- Node13 -->
<g id="Node000013" class="node">
<title>Node13</title>
<g id="a_Node000013"><a xlink:href="_enums_8h.html" target="_top" xlink:title=" ">
<polygon fill="white" stroke="#666666" points="863,-79.5 804,-79.5 804,-60.5 863,-60.5 863,-79.5"/>
<text text-anchor="middle" x="833.5" y="-67.5" font-family="Helvetica,sans-Serif" font-size="10.00">Enums.h</text>
</a>
</g>
</g>
<!-- Node12&#45;&gt;Node13 -->
<g id="edge14_Node000012_Node000013" class="edge">
<title>Node12&#45;&gt;Node13</title>
<g id="a_edge14_Node000012_Node000013"><a xlink:title=" ">
<path fill="none" stroke="#63b8ff" d="M545.05,-122.28C619.53,-109.04 733.49,-88.78 793.44,-78.12"/>
<polygon fill="#63b8ff" stroke="#63b8ff" points="794.4,-81.51 803.63,-76.31 793.18,-74.61 794.4,-81.51"/>
</a>
</g>
</g>
<!-- Node13&#45;&gt;Node11 -->
<g id="edge16_Node000013_Node000011" class="edge">
<title>Node13&#45;&gt;Node11</title>
<g id="a_edge16_Node000013_Node000011"><a xlink:title=" ">
<path fill="none" stroke="#63b8ff" d="M833.5,-60.37C833.5,-52.25 833.5,-39.81 833.5,-29.39"/>
<polygon fill="#63b8ff" stroke="#63b8ff" points="837,-29.17 833.5,-19.17 830,-29.17 837,-29.17"/>
</a>
</g>
</g>
<!-- Node14 -->
<g id="Node000014" class="node">
<title>Node14</title>
<g id="a_Node000014"><a xlink:title=" ">
<polygon fill="#e0e0e0" stroke="#999999" points="914.5,-19 870.5,-19 870.5,0 914.5,0 914.5,-19"/>
<text text-anchor="middle" x="892.5" y="-7" font-family="Helvetica,sans-Serif" font-size="10.00">string</text>
</a>
</g>
</g>
<!-- Node13&#45;&gt;Node14 -->
<g id="edge15_Node000013_Node000014" class="edge">
<title>Node13&#45;&gt;Node14</title>
<g id="a_edge15_Node000013_Node000014"><a xlink:title=" ">
<path fill="none" stroke="#63b8ff" d="M842.21,-60.37C851.18,-51.47 865.38,-37.39 876.41,-26.45"/>
<polygon fill="#63b8ff" stroke="#63b8ff" points="879.12,-28.69 883.76,-19.17 874.19,-23.72 879.12,-28.69"/>
</a>
</g>
</g>
</g>
</svg>
