<?xml version="1.0" encoding="UTF-8" standalone="no"?>
<!DOCTYPE svg PUBLIC "-//W3C//DTD SVG 1.1//EN"
 "http://www.w3.org/Graphics/SVG/1.1/DTD/svg11.dtd">
<!-- Generated by graphviz version 2.43.0 (0)
 -->
<!-- Title: TensorProductCVFEMScalarBDF2TimeDerivative.h Pages: 1 -->
<svg width="866pt" height="269pt"
 viewBox="0.00 0.00 865.50 269.00" xmlns="http://www.w3.org/2000/svg" xmlns:xlink="http://www.w3.org/1999/xlink">
<g id="graph0" class="graph" transform="scale(1 1) rotate(0) translate(4 265)">
<title>TensorProductCVFEMScalarBDF2TimeDerivative.h</title>
<!-- Node1 -->
<g id="Node000001" class="node">
<title>Node1</title>
<g id="a_Node000001"><a xlink:title=" ">
<polygon fill="#999999" stroke="#666666" points="445.5,-261 296.5,-261 296.5,-231 445.5,-231 445.5,-261"/>
<text text-anchor="start" x="304.5" y="-249" font-family="Helvetica,sans-Serif" font-size="10.00">TensorProductCVFEMScalar</text>
<text text-anchor="middle" x="371" y="-238" font-family="Helvetica,sans-Serif" font-size="10.00">BDF2TimeDerivative.h</text>
</a>
</g>
</g>
<!-- Node2 -->
<g id="Node000002" class="node">
<title>Node2</title>
<g id="a_Node000002"><a xlink:title=" ">
<polygon fill="#e0e0e0" stroke="#999999" points="168,-195 0,-195 0,-165 168,-165 168,-195"/>
<text text-anchor="start" x="8" y="-183" font-family="Helvetica,sans-Serif" font-size="10.00">master_element/TensorProduct</text>
<text text-anchor="middle" x="84" y="-172" font-family="Helvetica,sans-Serif" font-size="10.00">CVFEMOperators.h</text>
</a>
</g>
</g>
<!-- Node1&#45;&gt;Node2 -->
<g id="edge1_Node000001_Node000002" class="edge">
<title>Node1&#45;&gt;Node2</title>
<g id="a_edge1_Node000001_Node000002"><a xlink:title=" ">
<path fill="none" stroke="#63b8ff" d="M308.02,-230.95C263.44,-221.01 203.53,-207.65 156.88,-197.25"/>
<polygon fill="#63b8ff" stroke="#63b8ff" points="157.36,-193.77 146.84,-195.01 155.83,-200.6 157.36,-193.77"/>
</a>
</g>
</g>
<!-- Node3 -->
<g id="Node000003" class="node">
<title>Node3</title>
<g id="a_Node000003"><a xlink:title=" ">
<polygon fill="#e0e0e0" stroke="#999999" points="372.5,-195 185.5,-195 185.5,-165 372.5,-165 372.5,-195"/>
<text text-anchor="start" x="193.5" y="-183" font-family="Helvetica,sans-Serif" font-size="10.00">master_element/CVFEMCoefficient</text>
<text text-anchor="middle" x="279" y="-172" font-family="Helvetica,sans-Serif" font-size="10.00">Matrices.h</text>
</a>
</g>
</g>
<!-- Node1&#45;&gt;Node3 -->
<g id="edge2_Node000001_Node000003" class="edge">
<title>Node1&#45;&gt;Node3</title>
<g id="a_edge2_Node000001_Node000003"><a xlink:title=" ">
<path fill="none" stroke="#63b8ff" d="M350.58,-230.8C337.96,-222.01 321.56,-210.61 307.65,-200.93"/>
<polygon fill="#63b8ff" stroke="#63b8ff" points="309.57,-198 299.36,-195.16 305.57,-203.75 309.57,-198"/>
</a>
</g>
</g>
<!-- Node4 -->
<g id="Node000004" class="node">
<title>Node4</title>
<g id="a_Node000004"><a xlink:href="_direction_macros_8h.html" target="_top" xlink:title=" ">
<polygon fill="white" stroke="#666666" points="535,-195 391,-195 391,-165 535,-165 535,-195"/>
<text text-anchor="start" x="399" y="-183" font-family="Helvetica,sans-Serif" font-size="10.00">master_element/Direction</text>
<text text-anchor="middle" x="463" y="-172" font-family="Helvetica,sans-Serif" font-size="10.00">Macros.h</text>
</a>
</g>
</g>
<!-- Node1&#45;&gt;Node4 -->
<g id="edge3_Node000001_Node000004" class="edge">
<title>Node1&#45;&gt;Node4</title>
<g id="a_edge3_Node000001_Node000004"><a xlink:title=" ">
<path fill="none" stroke="#63b8ff" d="M391.42,-230.8C404.04,-222.01 420.44,-210.61 434.35,-200.93"/>
<polygon fill="#63b8ff" stroke="#63b8ff" points="436.43,-203.75 442.64,-195.16 432.43,-198 436.43,-203.75"/>
</a>
</g>
</g>
<!-- Node5 -->
<g id="Node000005" class="node">
<title>Node5</title>
<g id="a_Node000005"><a xlink:href="_c_v_f_e_m_type_defs_8h.html" target="_top" xlink:title=" ">
<polygon fill="white" stroke="#666666" points="658.5,-189.5 553.5,-189.5 553.5,-170.5 658.5,-170.5 658.5,-189.5"/>
<text text-anchor="middle" x="606" y="-177.5" font-family="Helvetica,sans-Serif" font-size="10.00">CVFEMTypeDefs.h</text>
</a>
</g>
</g>
<!-- Node1&#45;&gt;Node5 -->
<g id="edge4_Node000001_Node000005" class="edge">
<title>Node1&#45;&gt;Node5</title>
<g id="a_edge4_Node000001_Node000005"><a xlink:title=" ">
<path fill="none" stroke="#63b8ff" d="M422.57,-230.95C465.33,-219.31 525.3,-202.98 564.88,-192.2"/>
<polygon fill="#63b8ff" stroke="#63b8ff" points="566,-195.52 574.73,-189.52 564.16,-188.77 566,-195.52"/>
</a>
</g>
</g>
<!-- Node6 -->
<g id="Node000006" class="node">
<title>Node6</title>
<g id="a_Node000006"><a xlink:href="_scratch_work_view_8h.html" target="_top" xlink:title=" ">
<polygon fill="white" stroke="#666666" points="620,-129 510,-129 510,-110 620,-110 620,-129"/>
<text text-anchor="middle" x="565" y="-117" font-family="Helvetica,sans-Serif" font-size="10.00">ScratchWorkView.h</text>
</a>
</g>
</g>
<!-- Node5&#45;&gt;Node6 -->
<g id="edge5_Node000005_Node000006" class="edge">
<title>Node5&#45;&gt;Node6</title>
<g id="a_edge5_Node000005_Node000006"><a xlink:title=" ">
<path fill="none" stroke="#63b8ff" d="M599.95,-170.37C593.89,-161.73 584.41,-148.2 576.86,-137.42"/>
<polygon fill="#63b8ff" stroke="#63b8ff" points="579.68,-135.35 571.07,-129.17 573.95,-139.37 579.68,-135.35"/>
</a>
</g>
</g>
<!-- Node7 -->
<g id="Node000007" class="node">
<title>Node7</title>
<g id="a_Node000007"><a xlink:href="_kokkos_interface_8h.html" target="_top" xlink:title=" ">
<polygon fill="white" stroke="#666666" points="534,-74 430,-74 430,-55 534,-55 534,-74"/>
<text text-anchor="middle" x="482" y="-62" font-family="Helvetica,sans-Serif" font-size="10.00">KokkosInterface.h</text>
</a>
</g>
</g>
<!-- Node5&#45;&gt;Node7 -->
<g id="edge16_Node000005_Node000007" class="edge">
<title>Node5&#45;&gt;Node7</title>
<g id="a_edge16_Node000005_Node000007"><a xlink:title=" ">
<path fill="none" stroke="#63b8ff" d="M571.2,-170.41C548.23,-163.03 519.13,-150.16 501,-129 490.35,-116.58 485.67,-98.36 483.61,-84.63"/>
<polygon fill="#63b8ff" stroke="#63b8ff" points="487.05,-83.9 482.43,-74.36 480.1,-84.7 487.05,-83.9"/>
</a>
</g>
</g>
<!-- Node12 -->
<g id="Node000012" class="node">
<title>Node12</title>
<g id="a_Node000012"><a xlink:href="_simd_interface_8h.html" target="_top" xlink:title="STK SIMD Interface.">
<polygon fill="white" stroke="#666666" points="695,-74 601,-74 601,-55 695,-55 695,-74"/>
<text text-anchor="middle" x="648" y="-62" font-family="Helvetica,sans-Serif" font-size="10.00">SimdInterface.h</text>
</a>
</g>
</g>
<!-- Node5&#45;&gt;Node12 -->
<g id="edge15_Node000005_Node000012" class="edge">
<title>Node5&#45;&gt;Node12</title>
<g id="a_edge15_Node000005_Node000012"><a xlink:title=" ">
<path fill="none" stroke="#63b8ff" d="M610.45,-170.31C615.39,-160.46 623.4,-143.84 629,-129 634.59,-114.18 639.67,-96.93 643.16,-84.16"/>
<polygon fill="#63b8ff" stroke="#63b8ff" points="646.61,-84.82 645.8,-74.26 639.84,-83.02 646.61,-84.82"/>
</a>
</g>
</g>
<!-- Node15 -->
<g id="Node000015" class="node">
<title>Node15</title>
<g id="a_Node000015"><a xlink:title=" ">
<polygon fill="#e0e0e0" stroke="#999999" points="718,-129 676,-129 676,-110 718,-110 718,-129"/>
<text text-anchor="middle" x="697" y="-117" font-family="Helvetica,sans-Serif" font-size="10.00">array</text>
</a>
</g>
</g>
<!-- Node5&#45;&gt;Node15 -->
<g id="edge17_Node000005_Node000015" class="edge">
<title>Node5&#45;&gt;Node15</title>
<g id="a_edge17_Node000005_Node000015"><a xlink:title=" ">
<path fill="none" stroke="#63b8ff" d="M619.43,-170.37C634.08,-160.95 657.76,-145.73 675.1,-134.58"/>
<polygon fill="#63b8ff" stroke="#63b8ff" points="677,-137.52 683.52,-129.17 673.21,-131.63 677,-137.52"/>
</a>
</g>
</g>
<!-- Node6&#45;&gt;Node7 -->
<g id="edge6_Node000006_Node000007" class="edge">
<title>Node6&#45;&gt;Node7</title>
<g id="a_edge6_Node000006_Node000007"><a xlink:title=" ">
<path fill="none" stroke="#63b8ff" d="M551.66,-109.98C538.91,-101.84 519.45,-89.41 504.33,-79.76"/>
<polygon fill="#63b8ff" stroke="#63b8ff" points="505.89,-76.6 495.58,-74.17 502.12,-82.5 505.89,-76.6"/>
</a>
</g>
</g>
<!-- Node6&#45;&gt;Node12 -->
<g id="edge11_Node000006_Node000012" class="edge">
<title>Node6&#45;&gt;Node12</title>
<g id="a_edge11_Node000006_Node000012"><a xlink:title=" ">
<path fill="none" stroke="#63b8ff" d="M578.34,-109.98C591.09,-101.84 610.55,-89.41 625.67,-79.76"/>
<polygon fill="#63b8ff" stroke="#63b8ff" points="627.88,-82.5 634.42,-74.17 624.11,-76.6 627.88,-82.5"/>
</a>
</g>
</g>
<!-- Node8 -->
<g id="Node000008" class="node">
<title>Node8</title>
<g id="a_Node000008"><a xlink:title=" ">
<polygon fill="#e0e0e0" stroke="#999999" points="254.5,-19 201.5,-19 201.5,0 254.5,0 254.5,-19"/>
<text text-anchor="middle" x="228" y="-7" font-family="Helvetica,sans-Serif" font-size="10.00">cstddef</text>
</a>
</g>
</g>
<!-- Node7&#45;&gt;Node8 -->
<g id="edge7_Node000007_Node000008" class="edge">
<title>Node7&#45;&gt;Node8</title>
<g id="a_edge7_Node000007_Node000008"><a xlink:title=" ">
<path fill="none" stroke="#63b8ff" d="M437.43,-54.96C395.27,-46.76 329.98,-33.77 264.77,-19.34"/>
<polygon fill="#63b8ff" stroke="#63b8ff" points="265.25,-15.86 254.73,-17.1 263.73,-22.69 265.25,-15.86"/>
</a>
</g>
</g>
<!-- Node9 -->
<g id="Node000009" class="node">
<title>Node9</title>
<g id="a_Node000009"><a xlink:title=" ">
<polygon fill="#e0e0e0" stroke="#999999" points="413.5,-19 272.5,-19 272.5,0 413.5,0 413.5,-19"/>
<text text-anchor="middle" x="343" y="-7" font-family="Helvetica,sans-Serif" font-size="10.00">stk_mesh/base/Entity.hpp</text>
</a>
</g>
</g>
<!-- Node7&#45;&gt;Node9 -->
<g id="edge8_Node000007_Node000009" class="edge">
<title>Node7&#45;&gt;Node9</title>
<g id="a_edge8_Node000007_Node000009"><a xlink:title=" ">
<path fill="none" stroke="#63b8ff" d="M459.67,-54.98C436.8,-46.27 401.04,-32.63 375.14,-22.75"/>
<polygon fill="#63b8ff" stroke="#63b8ff" points="376.33,-19.46 365.74,-19.17 373.84,-26 376.33,-19.46"/>
</a>
</g>
</g>
<!-- Node10 -->
<g id="Node000010" class="node">
<title>Node10</title>
<g id="a_Node000010"><a xlink:title=" ">
<polygon fill="#e0e0e0" stroke="#999999" points="663.5,-19 550.5,-19 550.5,0 663.5,0 663.5,-19"/>
<text text-anchor="middle" x="607" y="-7" font-family="Helvetica,sans-Serif" font-size="10.00">Kokkos_Macros.hpp</text>
</a>
</g>
</g>
<!-- Node7&#45;&gt;Node10 -->
<g id="edge9_Node000007_Node000010" class="edge">
<title>Node7&#45;&gt;Node10</title>
<g id="a_edge9_Node000007_Node000010"><a xlink:title=" ">
<path fill="none" stroke="#63b8ff" d="M502.08,-54.98C522.37,-46.38 553.96,-32.99 577.17,-23.15"/>
<polygon fill="#63b8ff" stroke="#63b8ff" points="578.71,-26.3 586.55,-19.17 575.98,-19.85 578.71,-26.3"/>
</a>
</g>
</g>
<!-- Node11 -->
<g id="Node000011" class="node">
<title>Node11</title>
<g id="a_Node000011"><a xlink:title=" ">
<polygon fill="#e0e0e0" stroke="#999999" points="532,-19 432,-19 432,0 532,0 532,-19"/>
<text text-anchor="middle" x="482" y="-7" font-family="Helvetica,sans-Serif" font-size="10.00">Kokkos_Core.hpp</text>
</a>
</g>
</g>
<!-- Node7&#45;&gt;Node11 -->
<g id="edge10_Node000007_Node000011" class="edge">
<title>Node7&#45;&gt;Node11</title>
<g id="a_edge10_Node000007_Node000011"><a xlink:title=" ">
<path fill="none" stroke="#63b8ff" d="M482,-54.75C482,-47.8 482,-37.85 482,-29.13"/>
<polygon fill="#63b8ff" stroke="#63b8ff" points="485.5,-29.09 482,-19.09 478.5,-29.09 485.5,-29.09"/>
</a>
</g>
</g>
<!-- Node12&#45;&gt;Node10 -->
<g id="edge13_Node000012_Node000010" class="edge">
<title>Node12&#45;&gt;Node10</title>
<g id="a_edge13_Node000012_Node000010"><a xlink:title=" ">
<path fill="none" stroke="#63b8ff" d="M641.23,-54.75C635.44,-47.26 626.94,-36.28 619.86,-27.13"/>
<polygon fill="#63b8ff" stroke="#63b8ff" points="622.53,-24.86 613.64,-19.09 616.99,-29.14 622.53,-24.86"/>
</a>
</g>
</g>
<!-- Node13 -->
<g id="Node000013" class="node">
<title>Node13</title>
<g id="a_Node000013"><a xlink:title=" ">
<polygon fill="#e0e0e0" stroke="#999999" points="792,-19 682,-19 682,0 792,0 792,-19"/>
<text text-anchor="middle" x="737" y="-7" font-family="Helvetica,sans-Serif" font-size="10.00">stk_simd/Simd.hpp</text>
</a>
</g>
</g>
<!-- Node12&#45;&gt;Node13 -->
<g id="edge12_Node000012_Node000013" class="edge">
<title>Node12&#45;&gt;Node13</title>
<g id="a_edge12_Node000012_Node000013"><a xlink:title=" ">
<path fill="none" stroke="#63b8ff" d="M662.3,-54.98C676.1,-46.77 697.24,-34.18 713.51,-24.49"/>
<polygon fill="#63b8ff" stroke="#63b8ff" points="715.64,-27.29 722.44,-19.17 712.06,-21.28 715.64,-27.29"/>
</a>
</g>
</g>
<!-- Node14 -->
<g id="Node000014" class="node">
<title>Node14</title>
<g id="a_Node000014"><a xlink:title=" ">
<polygon fill="#e0e0e0" stroke="#999999" points="857.5,-19 810.5,-19 810.5,0 857.5,0 857.5,-19"/>
<text text-anchor="middle" x="834" y="-7" font-family="Helvetica,sans-Serif" font-size="10.00">vector</text>
</a>
</g>
</g>
<!-- Node12&#45;&gt;Node14 -->
<g id="edge14_Node000012_Node000014" class="edge">
<title>Node12&#45;&gt;Node14</title>
<g id="a_edge14_Node000012_Node000014"><a xlink:title=" ">
<path fill="none" stroke="#63b8ff" d="M677.88,-54.98C711.44,-45.42 765.75,-29.95 800.65,-20"/>
<polygon fill="#63b8ff" stroke="#63b8ff" points="801.73,-23.34 810.39,-17.23 799.81,-16.6 801.73,-23.34"/>
</a>
</g>
</g>
</g>
</svg>
