<?xml version="1.0" encoding="UTF-8" standalone="no"?>
<!DOCTYPE svg PUBLIC "-//W3C//DTD SVG 1.1//EN"
 "http://www.w3.org/Graphics/SVG/1.1/DTD/svg11.dtd">
<!-- Generated by graphviz version 2.43.0 (0)
 -->
<!-- Title: TensorOperations.h Pages: 1 -->
<!--zoomable 196 -->
<svg id="main" version="1.1" xmlns="http://www.w3.org/2000/svg" xmlns:xlink="http://www.w3.org/1999/xlink" xml:space="preserve" onload="init(evt)">
<style type="text/css"><![CDATA[
.edge:hover path { stroke: red; }
.edge:hover polygon { stroke: red; fill: red; }
]]></style>
<script type="text/javascript"><![CDATA[
var edges = document.getElementsByTagName('g');
if (edges && edges.length) {
  for (var i=0;i<edges.length;i++) {
    if (edges[i].id.substr(0,4)=='edge') {
      edges[i].setAttribute('class','edge');
    }
  }
}
]]></script>
        <defs>
                <circle id="rim" cx="0" cy="0" r="7"/>
                <circle id="rim2" cx="0" cy="0" r="3.5"/>
                <g id="zoomPlus">
                        <use xlink:href="#rim" fill="#404040">
                                <set attributeName="fill" to="#808080" begin="zoomplus.mouseover" end="zoomplus.mouseout"/>
                        </use>
                        <path d="M-4,0h8M0,-4v8" fill="none" stroke="white" stroke-width="1.5" pointer-events="none"/>
                </g>
                <g id="zoomMin">
                        <use xlink:href="#rim" fill="#404040">
                                <set attributeName="fill" to="#808080" begin="zoomminus.mouseover" end="zoomminus.mouseout"/>
                        </use>
                        <path d="M-4,0h8" fill="none" stroke="white" stroke-width="1.5" pointer-events="none"/>
                </g>
                <g id="dirArrow">
                        <path fill="none" stroke="white" stroke-width="1.5" d="M0,-3.0v7 M-2.5,-0.5L0,-3.0L2.5,-0.5"/>
                </g>
               <g id="resetDef">
                       <use xlink:href="#rim2" fill="#404040">
                               <set attributeName="fill" to="#808080" begin="reset.mouseover" end="reset.mouseout"/>
                       </use>
               </g>
        </defs>

<script type="text/javascript">
var viewWidth = 891;
var viewHeight = 196;
var sectionId = 'dynsection-1';
</script>
<script xlink:href="svgpan.js"/>
<svg id="graph" class="graph">
<g id="viewport">
<title>TensorOperations.h</title>
<polygon fill="white" stroke="transparent" points="-4,4 -4,-192 887.11,-192 887.11,4 -4,4"/>
<!-- Node1 -->
<g id="node1" class="node">
<title>Node1</title>
<g id="a_node1"><a xlink:title=" ">
<polygon fill="#bfbfbf" stroke="black" points="414.61,-168.5 414.61,-187.5 524.61,-187.5 524.61,-168.5 414.61,-168.5"/>
<text text-anchor="middle" x="469.61" y="-175.5" font-family="Helvetica,sans-Serif" font-size="10.00">TensorOperations.h</text>
</a>
</g>
</g>
<!-- Node2 -->
<g id="node2" class="node">
<title>Node2</title>
<g id="a_node2"><a xlink:href="_element_gradient_8h.html" target="_top" xlink:title=" ">
<polygon fill="white" stroke="black" points="13.61,-56.5 13.61,-75.5 121.61,-75.5 121.61,-56.5 13.61,-56.5"/>
<text text-anchor="middle" x="67.61" y="-63.5" font-family="Helvetica,sans-Serif" font-size="10.00">ElementGradient.h</text>
</a>
</g>
</g>
<!-- Node1&#45;&gt;Node2 -->
<g id="edge1" class="edge">
<title>Node1&#45;&gt;Node2</title>
<path fill="none" stroke="midnightblue" d="M428.61,-165.78C348.05,-143.74 170.69,-95.21 98.8,-75.53"/>
<polygon fill="midnightblue" stroke="midnightblue" points="427.83,-169.2 438.4,-168.46 429.68,-162.44 427.83,-169.2"/>
</g>
<!-- Node3 -->
<g id="node3" class="node">
<title>Node3</title>
<g id="a_node3"><a xlink:href="_momentum_interior_8_c.html" target="_top" xlink:title=" ">
<polygon fill="white" stroke="black" points="9.11,-0.5 9.11,-19.5 126.11,-19.5 126.11,-0.5 9.11,-0.5"/>
<text text-anchor="middle" x="67.61" y="-7.5" font-family="Helvetica,sans-Serif" font-size="10.00">MomentumInterior.C</text>
</a>
</g>
</g>
<!-- Node1&#45;&gt;Node3 -->
<g id="edge15" class="edge">
<title>Node1&#45;&gt;Node3</title>
<path fill="none" stroke="midnightblue" d="M404.26,-172.8C288.08,-163.8 53.16,-138.18 4.61,-76 -12.41,-54.2 23.75,-31.65 48.01,-19.69"/>
<polygon fill="midnightblue" stroke="midnightblue" points="404.22,-176.3 414.45,-173.57 404.74,-169.32 404.22,-176.3"/>
</g>
<!-- Node5 -->
<g id="node5" class="node">
<title>Node5</title>
<g id="a_node5"><a xlink:href="_geometric_functions_8h.html" target="_top" xlink:title=" ">
<polygon fill="white" stroke="black" points="363.11,-112.5 363.11,-131.5 486.11,-131.5 486.11,-112.5 363.11,-112.5"/>
<text text-anchor="middle" x="424.61" y="-119.5" font-family="Helvetica,sans-Serif" font-size="10.00">GeometricFunctions.h</text>
</a>
</g>
</g>
<!-- Node1&#45;&gt;Node5 -->
<g id="edge4" class="edge">
<title>Node1&#45;&gt;Node5</title>
<path fill="none" stroke="midnightblue" d="M455.56,-160.14C447.72,-150.74 438.28,-139.4 431.9,-131.75"/>
<polygon fill="midnightblue" stroke="midnightblue" points="453.09,-162.64 462.18,-168.08 458.47,-158.16 453.09,-162.64"/>
</g>
<!-- Node8 -->
<g id="node8" class="node">
<title>Node8</title>
<g id="a_node8"><a xlink:href="_linear_volume_8_c.html" target="_top" xlink:title=" ">
<polygon fill="white" stroke="black" points="468.11,-56.5 468.11,-75.5 561.11,-75.5 561.11,-56.5 468.11,-56.5"/>
<text text-anchor="middle" x="514.61" y="-63.5" font-family="Helvetica,sans-Serif" font-size="10.00">LinearVolume.C</text>
</a>
</g>
</g>
<!-- Node1&#45;&gt;Node8 -->
<g id="edge13" class="edge">
<title>Node1&#45;&gt;Node8</title>
<path fill="none" stroke="midnightblue" d="M480.34,-159.69C485.13,-151.5 490.58,-141.46 494.61,-132 502.94,-112.45 509.44,-88.26 512.57,-75.62"/>
<polygon fill="midnightblue" stroke="midnightblue" points="477.31,-157.94 475.16,-168.31 483.31,-161.55 477.31,-157.94"/>
</g>
<!-- Node9 -->
<g id="node9" class="node">
<title>Node9</title>
<g id="a_node9"><a xlink:href="_local_dual_nodal_volume_8_c.html" target="_top" xlink:title=" ">
<polygon fill="white" stroke="black" points="579.61,-56.5 579.61,-75.5 719.61,-75.5 719.61,-56.5 579.61,-56.5"/>
<text text-anchor="middle" x="649.61" y="-63.5" font-family="Helvetica,sans-Serif" font-size="10.00">LocalDualNodalVolume.C</text>
</a>
</g>
</g>
<!-- Node1&#45;&gt;Node9 -->
<g id="edge14" class="edge">
<title>Node1&#45;&gt;Node9</title>
<path fill="none" stroke="midnightblue" d="M492.5,-163.01C530.29,-139.92 604.59,-94.51 635.55,-75.59"/>
<polygon fill="midnightblue" stroke="midnightblue" points="490.44,-160.17 483.73,-168.37 494.09,-166.14 490.44,-160.17"/>
</g>
<!-- Node10 -->
<g id="node10" class="node">
<title>Node10</title>
<g id="a_node10"><a xlink:href="_sparsified_edge_laplacian_8_c.html" target="_top" xlink:title=" ">
<polygon fill="white" stroke="black" points="738.11,-56.5 738.11,-75.5 883.11,-75.5 883.11,-56.5 738.11,-56.5"/>
<text text-anchor="middle" x="810.61" y="-63.5" font-family="Helvetica,sans-Serif" font-size="10.00">SparsifiedEdgeLaplacian.C</text>
</a>
</g>
</g>
<!-- Node1&#45;&gt;Node10 -->
<g id="edge16" class="edge">
<title>Node1&#45;&gt;Node10</title>
<path fill="none" stroke="midnightblue" d="M505.64,-165.38C574.46,-143.18 723.15,-95.21 783.92,-75.61"/>
<polygon fill="midnightblue" stroke="midnightblue" points="504.53,-162.06 496.08,-168.46 506.68,-168.72 504.53,-162.06"/>
</g>
<!-- Node2&#45;&gt;Node3 -->
<g id="edge2" class="edge">
<title>Node2&#45;&gt;Node3</title>
<path fill="none" stroke="midnightblue" d="M67.61,-45.8C67.61,-36.91 67.61,-26.78 67.61,-19.75"/>
<polygon fill="midnightblue" stroke="midnightblue" points="64.11,-46.08 67.61,-56.08 71.11,-46.08 64.11,-46.08"/>
</g>
<!-- Node4 -->
<g id="node4" class="node">
<title>Node4</title>
<g id="a_node4"><a xlink:href="_transport_coefficients_8_c.html" target="_top" xlink:title=" ">
<polygon fill="white" stroke="black" points="259.11,-0.5 259.11,-19.5 388.11,-19.5 388.11,-0.5 259.11,-0.5"/>
<text text-anchor="middle" x="323.61" y="-7.5" font-family="Helvetica,sans-Serif" font-size="10.00">TransportCoefficients.C</text>
</a>
</g>
</g>
<!-- Node2&#45;&gt;Node4 -->
<g id="edge3" class="edge">
<title>Node2&#45;&gt;Node4</title>
<path fill="none" stroke="midnightblue" d="M118.12,-54.35C166.5,-44.14 238.56,-28.94 283.24,-19.52"/>
<polygon fill="midnightblue" stroke="midnightblue" points="117.24,-50.95 108.17,-56.44 118.68,-57.8 117.24,-50.95"/>
</g>
<!-- Node5&#45;&gt;Node2 -->
<g id="edge5" class="edge">
<title>Node5&#45;&gt;Node2</title>
<path fill="none" stroke="midnightblue" d="M357.84,-110.9C289.66,-100.59 185.12,-84.77 121.87,-75.21"/>
<polygon fill="midnightblue" stroke="midnightblue" points="357.63,-114.41 368.04,-112.44 358.68,-107.49 357.63,-114.41"/>
</g>
<!-- Node5&#45;&gt;Node3 -->
<g id="edge10" class="edge">
<title>Node5&#45;&gt;Node3</title>
<path fill="none" stroke="midnightblue" d="M352.8,-116.04C300.32,-110.61 228.2,-99.31 168.61,-76 149.87,-68.67 101.98,-35.45 79.55,-19.54"/>
<polygon fill="midnightblue" stroke="midnightblue" points="352.73,-119.55 363.03,-117.05 353.42,-112.59 352.73,-119.55"/>
</g>
<!-- Node5&#45;&gt;Node4 -->
<g id="edge12" class="edge">
<title>Node5&#45;&gt;Node4</title>
<path fill="none" stroke="midnightblue" d="M427.91,-102.15C429.3,-88.2 428.85,-69.37 419.61,-56 406.64,-37.22 383.71,-26.08 363.51,-19.58"/>
<polygon fill="midnightblue" stroke="midnightblue" points="424.44,-101.71 426.53,-112.09 431.37,-102.67 424.44,-101.71"/>
</g>
<!-- Node6 -->
<g id="node6" class="node">
<title>Node6</title>
<g id="a_node6"><a xlink:href="_linear_areas_8_c.html" target="_top" xlink:title=" ">
<polygon fill="white" stroke="black" points="177.61,-56.5 177.61,-75.5 261.61,-75.5 261.61,-56.5 177.61,-56.5"/>
<text text-anchor="middle" x="219.61" y="-63.5" font-family="Helvetica,sans-Serif" font-size="10.00">LinearAreas.C</text>
</a>
</g>
</g>
<!-- Node5&#45;&gt;Node6 -->
<g id="edge6" class="edge">
<title>Node5&#45;&gt;Node6</title>
<path fill="none" stroke="midnightblue" d="M382.2,-109.83C343.5,-99.63 287.12,-84.78 251.94,-75.52"/>
<polygon fill="midnightblue" stroke="midnightblue" points="381.57,-113.28 392.13,-112.44 383.35,-106.51 381.57,-113.28"/>
</g>
<!-- Node7 -->
<g id="node7" class="node">
<title>Node7</title>
<g id="a_node7"><a xlink:href="_linear_diffusion_metric_8_c.html" target="_top" xlink:title=" ">
<polygon fill="white" stroke="black" points="280.11,-56.5 280.11,-75.5 411.11,-75.5 411.11,-56.5 280.11,-56.5"/>
<text text-anchor="middle" x="345.61" y="-63.5" font-family="Helvetica,sans-Serif" font-size="10.00">LinearDiffusionMetric.C</text>
</a>
</g>
</g>
<!-- Node5&#45;&gt;Node7 -->
<g id="edge7" class="edge">
<title>Node5&#45;&gt;Node7</title>
<path fill="none" stroke="midnightblue" d="M403.58,-106.62C389.14,-96.76 370.47,-83.99 358.27,-75.65"/>
<polygon fill="midnightblue" stroke="midnightblue" points="401.69,-109.57 411.92,-112.32 405.64,-103.79 401.69,-109.57"/>
</g>
<!-- Node5&#45;&gt;Node8 -->
<g id="edge8" class="edge">
<title>Node5&#45;&gt;Node8</title>
<path fill="none" stroke="midnightblue" d="M447.65,-107.18C464.21,-97.24 486.03,-84.15 500.19,-75.65"/>
<polygon fill="midnightblue" stroke="midnightblue" points="445.84,-104.18 439.07,-112.32 449.45,-110.18 445.84,-104.18"/>
</g>
<!-- Node5&#45;&gt;Node9 -->
<g id="edge9" class="edge">
<title>Node5&#45;&gt;Node9</title>
<path fill="none" stroke="midnightblue" d="M470.08,-110.09C512.58,-99.89 575.19,-84.86 614.13,-75.52"/>
<polygon fill="midnightblue" stroke="midnightblue" points="469.17,-106.71 460.26,-112.44 470.8,-113.51 469.17,-106.71"/>
</g>
<!-- Node5&#45;&gt;Node10 -->
<g id="edge11" class="edge">
<title>Node5&#45;&gt;Node10</title>
<path fill="none" stroke="midnightblue" d="M495.79,-111.04C568.69,-100.84 680.82,-85.16 749.73,-75.52"/>
<polygon fill="midnightblue" stroke="midnightblue" points="495.19,-107.59 485.77,-112.44 496.16,-114.52 495.19,-107.59"/>
</g>
</g>
</svg>
        <g id="navigator" transform="translate(0 0)" fill="#404254">
                <rect fill="#f2f5e9" fill-opacity="0.5" stroke="#606060" stroke-width=".5" x="0" y="0" width="60" height="60"/>
                <use id="zoomplus" xlink:href="#zoomPlus" x="17" y="9" onmousedown="handleZoom(evt,'in')"/>
                <use id="zoomminus" xlink:href="#zoomMin" x="42" y="9" onmousedown="handleZoom(evt,'out')"/>
                <use id="reset" xlink:href="#resetDef" x="30" y="36" onmousedown="handleReset()"/>
                <g id="arrowUp" xlink:href="#dirArrow" transform="translate(30 24)" onmousedown="handlePan(0,-1)">
                  <use xlink:href="#rim" fill="#404040">
                        <set attributeName="fill" to="#808080" begin="arrowUp.mouseover" end="arrowUp.mouseout"/>
                  </use>
                  <path fill="none" stroke="white" stroke-width="1.5" d="M0,-3.0v7 M-2.5,-0.5L0,-3.0L2.5,-0.5"/>
                </g>
                <g id="arrowRight" xlink:href="#dirArrow" transform="rotate(90) translate(36 -43)" onmousedown="handlePan(1,0)">
                  <use xlink:href="#rim" fill="#404040">
                        <set attributeName="fill" to="#808080" begin="arrowRight.mouseover" end="arrowRight.mouseout"/>
                  </use>
                  <path fill="none" stroke="white" stroke-width="1.5" d="M0,-3.0v7 M-2.5,-0.5L0,-3.0L2.5,-0.5"/>
                </g>
                <g id="arrowDown" xlink:href="#dirArrow" transform="rotate(180) translate(-30 -48)" onmousedown="handlePan(0,1)">
                  <use xlink:href="#rim" fill="#404040">
                        <set attributeName="fill" to="#808080" begin="arrowDown.mouseover" end="arrowDown.mouseout"/>
                  </use>
                  <path fill="none" stroke="white" stroke-width="1.5" d="M0,-3.0v7 M-2.5,-0.5L0,-3.0L2.5,-0.5"/>
                </g>
                <g id="arrowLeft" xlink:href="#dirArrow" transform="rotate(270) translate(-36 17)" onmousedown="handlePan(-1,0)">
                  <use xlink:href="#rim" fill="#404040">
                        <set attributeName="fill" to="#808080" begin="arrowLeft.mouseover" end="arrowLeft.mouseout"/>
                  </use>
                  <path fill="none" stroke="white" stroke-width="1.5" d="M0,-3.0v7 M-2.5,-0.5L0,-3.0L2.5,-0.5"/>
                </g>
        </g>
        <svg viewBox="0 0 15 15" width="100%" height="30px" preserveAspectRatio="xMaxYMin meet">
         <g id="arrow_out" transform="scale(0.3 0.3)">
          <a xlink:href="_tensor_operations_8h__dep__incl_org.svg" target="_base">
           <rect id="button" ry="5" rx="5" y="6" x="6" height="38" width="38"
                fill="#f2f5e9" fill-opacity="0.5" stroke="#606060" stroke-width="1.0"/>
           <path id="arrow"
             d="M 11.500037,31.436501 C 11.940474,20.09759 22.043105,11.32322 32.158766,21.979434 L 37.068811,17.246167 C 37.068811,17.246167 37.088388,32 37.088388,32 L 22.160133,31.978069 C 22.160133,31.978069 26.997745,27.140456 26.997745,27.140456 C 18.528582,18.264221 13.291696,25.230495 11.500037,31.436501 z"
             style="fill:#404040;"/>
          </a>
         </g>
        </svg>
</svg>
