<?xml version="1.0" encoding="UTF-8" standalone="no"?>
<!DOCTYPE svg PUBLIC "-//W3C//DTD SVG 1.1//EN"
 "http://www.w3.org/Graphics/SVG/1.1/DTD/svg11.dtd">
<!-- Generated by graphviz version 2.43.0 (0)
 -->
<!-- Title: TiogaOptions.h Pages: 1 -->
<svg width="311pt" height="196pt"
 viewBox="0.00 0.00 310.50 196.00" xmlns="http://www.w3.org/2000/svg" xmlns:xlink="http://www.w3.org/1999/xlink">
<g id="graph0" class="graph" transform="scale(1 1) rotate(0) translate(4 192)">
<title>TiogaOptions.h</title>
<polygon fill="white" stroke="transparent" points="-4,4 -4,-192 306.5,-192 306.5,4 -4,4"/>
<!-- Node1 -->
<g id="node1" class="node">
<title>Node1</title>
<g id="a_node1"><a xlink:title=" ">
<polygon fill="#bfbfbf" stroke="black" points="101,-168.5 101,-187.5 191,-187.5 191,-168.5 101,-168.5"/>
<text text-anchor="middle" x="146" y="-175.5" font-family="Helvetica,sans-Serif" font-size="10.00">TiogaOptions.h</text>
</a>
</g>
</g>
<!-- Node2 -->
<g id="node2" class="node">
<title>Node2</title>
<g id="a_node2"><a xlink:href="_tioga_block_8h.html" target="_top" xlink:title=" ">
<polygon fill="white" stroke="black" points="0,-112.5 0,-131.5 80,-131.5 80,-112.5 0,-112.5"/>
<text text-anchor="middle" x="40" y="-119.5" font-family="Helvetica,sans-Serif" font-size="10.00">TiogaBlock.h</text>
</a>
</g>
</g>
<!-- Node1&#45;&gt;Node2 -->
<g id="edge1" class="edge">
<title>Node1&#45;&gt;Node2</title>
<path fill="none" stroke="midnightblue" d="M119.94,-163.73C100.32,-153.73 73.97,-140.31 56.99,-131.65"/>
<polygon fill="midnightblue" stroke="midnightblue" points="118.47,-166.9 128.97,-168.32 121.65,-160.67 118.47,-166.9"/>
</g>
<!-- Node3 -->
<g id="node3" class="node">
<title>Node3</title>
<g id="a_node3"><a xlink:href="_tioga_s_t_k_iface_8h.html" target="_top" xlink:title=" ">
<polygon fill="white" stroke="black" points="98.5,-112.5 98.5,-131.5 193.5,-131.5 193.5,-112.5 98.5,-112.5"/>
<text text-anchor="middle" x="146" y="-119.5" font-family="Helvetica,sans-Serif" font-size="10.00">TiogaSTKIface.h</text>
</a>
</g>
</g>
<!-- Node1&#45;&gt;Node3 -->
<g id="edge2" class="edge">
<title>Node1&#45;&gt;Node3</title>
<path fill="none" stroke="midnightblue" d="M146,-157.8C146,-148.91 146,-138.78 146,-131.75"/>
<polygon fill="midnightblue" stroke="midnightblue" points="142.5,-158.08 146,-168.08 149.5,-158.08 142.5,-158.08"/>
</g>
<!-- Node6 -->
<g id="node6" class="node">
<title>Node6</title>
<g id="a_node6"><a xlink:href="_tioga_options_8_c.html" target="_top" xlink:title=" ">
<polygon fill="white" stroke="black" points="211.5,-112.5 211.5,-131.5 302.5,-131.5 302.5,-112.5 211.5,-112.5"/>
<text text-anchor="middle" x="257" y="-119.5" font-family="Helvetica,sans-Serif" font-size="10.00">TiogaOptions.C</text>
</a>
</g>
</g>
<!-- Node1&#45;&gt;Node6 -->
<g id="edge5" class="edge">
<title>Node1&#45;&gt;Node6</title>
<path fill="none" stroke="midnightblue" d="M173.01,-163.86C193.59,-153.85 221.34,-140.35 239.21,-131.65"/>
<polygon fill="midnightblue" stroke="midnightblue" points="171.3,-160.8 163.83,-168.32 174.36,-167.1 171.3,-160.8"/>
</g>
<!-- Node4 -->
<g id="node4" class="node">
<title>Node4</title>
<g id="a_node4"><a xlink:href="_overset_manager_t_i_o_g_a_8h.html" target="_top" xlink:title=" ">
<polygon fill="white" stroke="black" points="77.5,-56.5 77.5,-75.5 214.5,-75.5 214.5,-56.5 77.5,-56.5"/>
<text text-anchor="middle" x="146" y="-63.5" font-family="Helvetica,sans-Serif" font-size="10.00">OversetManagerTIOGA.h</text>
</a>
</g>
</g>
<!-- Node3&#45;&gt;Node4 -->
<g id="edge3" class="edge">
<title>Node3&#45;&gt;Node4</title>
<path fill="none" stroke="midnightblue" d="M146,-101.8C146,-92.91 146,-82.78 146,-75.75"/>
<polygon fill="midnightblue" stroke="midnightblue" points="142.5,-102.08 146,-112.08 149.5,-102.08 142.5,-102.08"/>
</g>
<!-- Node5 -->
<g id="node5" class="node">
<title>Node5</title>
<g id="a_node5"><a xlink:href="_ext_overset_8_c.html" target="_top" xlink:title=" ">
<polygon fill="white" stroke="black" points="106,-0.5 106,-19.5 186,-19.5 186,-0.5 106,-0.5"/>
<text text-anchor="middle" x="146" y="-7.5" font-family="Helvetica,sans-Serif" font-size="10.00">ExtOverset.C</text>
</a>
</g>
</g>
<!-- Node4&#45;&gt;Node5 -->
<g id="edge4" class="edge">
<title>Node4&#45;&gt;Node5</title>
<path fill="none" stroke="midnightblue" d="M146,-45.8C146,-36.91 146,-26.78 146,-19.75"/>
<polygon fill="midnightblue" stroke="midnightblue" points="142.5,-46.08 146,-56.08 149.5,-46.08 142.5,-46.08"/>
</g>
</g>
</svg>
