<?xml version="1.0" encoding="UTF-8" standalone="no"?>
<!DOCTYPE svg PUBLIC "-//W3C//DTD SVG 1.1//EN"
 "http://www.w3.org/Graphics/SVG/1.1/DTD/svg11.dtd">
<!-- Generated by graphviz version 2.43.0 (0)
 -->
<!-- Title: TpetraSegregatedLinearSystem.h Pages: 1 -->
<!--zoomable 247 -->

<svg id="main" version="1.1" xmlns="http://www.w3.org/2000/svg" xmlns:xlink="http://www.w3.org/1999/xlink" xml:space="preserve" onload="init(evt)">
<style type="text/css"><![CDATA[
.node, .edge {opacity: 0.7;}
.node.selected, .edge.selected {opacity: 1;}
.edge:hover path { stroke: red; }
.edge:hover polygon { stroke: red; fill: red; }
]]></style>

<defs>
  <circle id="rim" cx="0" cy="0" r="7"/>
  <circle id="rim2" cx="0" cy="0" r="3.5"/>
  <g id="zoomPlus">
    <use xlink:href="#rim" fill="#404040"><set attributeName="fill" to="#808080" begin="zoomplus.mouseover" end="zoomplus.mouseout"/></use>
    <path d="M-4,0h8M0,-4v8" fill="none" stroke="white" stroke-width="1.5" pointer-events="none"/>
  </g>
  <g id="zoomMin">
    <use xlink:href="#rim" fill="#404040"><set attributeName="fill" to="#808080" begin="zoomminus.mouseover" end="zoomminus.mouseout"/></use>
    <path d="M-4,0h8" fill="none" stroke="white" stroke-width="1.5" pointer-events="none"/>
  </g>
  <g id="arrowUp" transform="translate(30 24)">
    <use xlink:href="#rim"/>
    <path pointer-events="none" fill="none" stroke="white" stroke-width="1.5" d="M0,-3.0v7 M-2.5,-0.5L0,-3.0L2.5,-0.5"/>
  </g>
  <g id="arrowRight" transform="rotate(90) translate(36 -43)">
    <use xlink:href="#rim"/>
    <path pointer-events="none" fill="none" stroke="white" stroke-width="1.5" d="M0,-3.0v7 M-2.5,-0.5L0,-3.0L2.5,-0.5"/>
  </g>
  <g id="arrowDown" transform="rotate(180) translate(-30 -48)">
    <use xlink:href="#rim"/>
    <path pointer-events="none" fill="none" stroke="white" stroke-width="1.5" d="M0,-3.0v7 M-2.5,-0.5L0,-3.0L2.5,-0.5"/>
  </g>
  <g id="arrowLeft" transform="rotate(270) translate(-36 17)">
    <use xlink:href="#rim"/>
    <path pointer-events="none" fill="none" stroke="white" stroke-width="1.5" d="M0,-3.0v7 M-2.5,-0.5L0,-3.0L2.5,-0.5"/>
  </g>
  <g id="resetDef">
    <use xlink:href="#rim2" fill="#404040"><set attributeName="fill" to="#808080" begin="reset.mouseover" end="reset.mouseout"/></use>
  </g>
</defs>
<script type="application/ecmascript">
var viewWidth = 1357;
var viewHeight = 247;
var sectionId = 'dynsection-0';
</script>
<script type="application/ecmascript" xlink:href="svg.min.js"/>
<svg id="graph" class="graph">
<g id="viewport">
<title>TpetraSegregatedLinearSystem.h</title>
<!-- Node1 -->
<g id="Node000001" class="node">
<title>Node1</title>
<g id="a_Node000001"><a xlink:title=" ">
<polygon fill="#999999" stroke="#666666" points="933.2,-239 754.2,-239 754.2,-220 933.2,-220 933.2,-239"/>
<text text-anchor="middle" x="843.7" y="-227" font-family="Helvetica,sans-Serif" font-size="10.00">TpetraSegregatedLinearSystem.h</text>
</a>
</g>
</g>
<!-- Node2 -->
<g id="Node000002" class="node">
<title>Node2</title>
<g id="a_Node000002"><a xlink:href="_linear_system_8h.html" target="_top" xlink:title=" ">
<polygon fill="white" stroke="#666666" points="963.7,-184 871.7,-184 871.7,-165 963.7,-165 963.7,-184"/>
<text text-anchor="middle" x="917.7" y="-172" font-family="Helvetica,sans-Serif" font-size="10.00">LinearSystem.h</text>
</a>
</g>
</g>
<!-- Node1&#45;&gt;Node2 -->
<g id="edge1_Node000001_Node000002" class="edge">
<title>Node1&#45;&gt;Node2</title>
<g id="a_edge1_Node000001_Node000002"><a xlink:title=" ">
<path fill="none" stroke="#63b8ff" d="M855.59,-219.98C866.85,-211.92 883.98,-199.65 897.41,-190.03"/>
<polygon fill="#63b8ff" stroke="#63b8ff" points="899.5,-192.84 905.59,-184.17 895.42,-187.15 899.5,-192.84"/>
</a>
</g>
</g>
<!-- Node4 -->
<g id="Node000004" class="node">
<title>Node4</title>
<g id="a_Node000004"><a xlink:href="_kokkos_interface_8h.html" target="_top" xlink:title=" ">
<polygon fill="white" stroke="#666666" points="994.7,-74 890.7,-74 890.7,-55 994.7,-55 994.7,-74"/>
<text text-anchor="middle" x="942.7" y="-62" font-family="Helvetica,sans-Serif" font-size="10.00">KokkosInterface.h</text>
</a>
</g>
</g>
<!-- Node1&#45;&gt;Node4 -->
<g id="edge19_Node000001_Node000004" class="edge">
<title>Node1&#45;&gt;Node4</title>
<g id="a_edge19_Node000001_Node000004"><a xlink:title=" ">
<path fill="none" stroke="#63b8ff" d="M845.58,-219.61C848.4,-207.09 854.3,-183.68 862.7,-165 874.47,-138.79 878.68,-132.39 896.7,-110 905.13,-99.53 915.86,-89.02 924.84,-80.84"/>
<polygon fill="#63b8ff" stroke="#63b8ff" points="927.32,-83.32 932.48,-74.06 922.68,-78.08 927.32,-83.32"/>
</a>
</g>
</g>
<!-- Node6 -->
<g id="Node000006" class="node">
<title>Node6</title>
<g id="a_Node000006"><a xlink:title=" ">
<polygon fill="#e0e0e0" stroke="#999999" points="426.2,-19 285.2,-19 285.2,0 426.2,0 426.2,-19"/>
<text text-anchor="middle" x="355.7" y="-7" font-family="Helvetica,sans-Serif" font-size="10.00">stk_mesh/base/Entity.hpp</text>
</a>
</g>
</g>
<!-- Node1&#45;&gt;Node6 -->
<g id="edge28_Node000001_Node000006" class="edge">
<title>Node1&#45;&gt;Node6</title>
<g id="a_edge28_Node000001_Node000006"><a xlink:title=" ">
<path fill="none" stroke="#63b8ff" d="M753.88,-225.89C576.72,-220.3 194.54,-205.88 138.7,-184 66.63,-155.77 36.91,-143.91 3.7,-74 0.07,-66.37 -1.89,-61.33 3.7,-55 21.35,-34.97 176.53,-21.66 274.86,-15.16"/>
<polygon fill="#63b8ff" stroke="#63b8ff" points="275.33,-18.63 285.08,-14.49 274.88,-11.65 275.33,-18.63"/>
</a>
</g>
</g>
<!-- Node11 -->
<g id="Node000011" class="node">
<title>Node11</title>
<g id="a_Node000011"><a xlink:title=" ">
<polygon fill="#e0e0e0" stroke="#999999" points="134.7,-74 12.7,-74 12.7,-55 134.7,-55 134.7,-74"/>
<text text-anchor="middle" x="73.7" y="-62" font-family="Helvetica,sans-Serif" font-size="10.00">Tpetra_CrsMatrix.hpp</text>
</a>
</g>
</g>
<!-- Node1&#45;&gt;Node11 -->
<g id="edge26_Node000001_Node000011" class="edge">
<title>Node1&#45;&gt;Node11</title>
<g id="a_edge26_Node000001_Node000011"><a xlink:title=" ">
<path fill="none" stroke="#63b8ff" d="M754.18,-226.38C604.48,-222.14 309.87,-210.63 209.7,-184 155.33,-169.55 133.1,-171.02 95.7,-129 84.67,-116.61 79.1,-98.39 76.34,-84.65"/>
<polygon fill="#63b8ff" stroke="#63b8ff" points="79.72,-83.66 74.61,-74.37 72.82,-84.82 79.72,-83.66"/>
</a>
</g>
</g>
<!-- Node13 -->
<g id="Node000013" class="node">
<title>Node13</title>
<g id="a_Node000013"><a xlink:title=" ">
<polygon fill="#e0e0e0" stroke="#999999" points="282.2,-74 153.2,-74 153.2,-55 282.2,-55 282.2,-74"/>
<text text-anchor="middle" x="217.7" y="-62" font-family="Helvetica,sans-Serif" font-size="10.00">Tpetra_MultiVector.hpp</text>
</a>
</g>
</g>
<!-- Node1&#45;&gt;Node13 -->
<g id="edge25_Node000001_Node000013" class="edge">
<title>Node1&#45;&gt;Node13</title>
<g id="a_edge25_Node000001_Node000013"><a xlink:title=" ">
<path fill="none" stroke="#63b8ff" d="M754.1,-223.13C566.39,-210.94 145.7,-178.35 104.7,-129 83.71,-103.74 123.39,-86.64 161.37,-76.61"/>
<polygon fill="#63b8ff" stroke="#63b8ff" points="162.62,-79.9 171.47,-74.09 160.92,-73.11 162.62,-79.9"/>
</a>
</g>
</g>
<!-- Node15 -->
<g id="Node000015" class="node">
<title>Node15</title>
<g id="a_Node000015"><a xlink:title=" ">
<polygon fill="#e0e0e0" stroke="#999999" points="685.7,-129 551.7,-129 551.7,-110 685.7,-110 685.7,-129"/>
<text text-anchor="middle" x="618.7" y="-117" font-family="Helvetica,sans-Serif" font-size="10.00">stk_mesh/base/Ngp.hpp</text>
</a>
</g>
</g>
<!-- Node1&#45;&gt;Node15 -->
<g id="edge30_Node000001_Node000015" class="edge">
<title>Node1&#45;&gt;Node15</title>
<g id="a_edge30_Node000001_Node000015"><a xlink:title=" ">
<path fill="none" stroke="#63b8ff" d="M825.67,-219.84C786.24,-200.92 692.17,-155.77 645.67,-133.45"/>
<polygon fill="#63b8ff" stroke="#63b8ff" points="647.03,-130.22 636.5,-129.05 644,-136.53 647.03,-130.22"/>
</a>
</g>
</g>
<!-- Node16 -->
<g id="Node000016" class="node">
<title>Node16</title>
<g id="a_Node000016"><a xlink:title=" ">
<polygon fill="#e0e0e0" stroke="#999999" points="1071.7,-129 911.7,-129 911.7,-110 1071.7,-110 1071.7,-129"/>
<text text-anchor="middle" x="991.7" y="-117" font-family="Helvetica,sans-Serif" font-size="10.00">stk_mesh/base/NgpMesh.hpp</text>
</a>
</g>
</g>
<!-- Node1&#45;&gt;Node16 -->
<g id="edge31_Node000001_Node000016" class="edge">
<title>Node1&#45;&gt;Node16</title>
<g id="a_edge31_Node000001_Node000016"><a xlink:title=" ">
<path fill="none" stroke="#63b8ff" d="M904.11,-219.94C928.3,-213.67 954.66,-202.81 972.7,-184 984.26,-171.94 988.82,-153.14 990.6,-139.12"/>
<polygon fill="#63b8ff" stroke="#63b8ff" points="994.09,-139.39 991.51,-129.12 987.12,-138.76 994.09,-139.39"/>
</a>
</g>
</g>
<!-- Node17 -->
<g id="Node000017" class="node">
<title>Node17</title>
<g id="a_Node000017"><a xlink:title=" ">
<polygon fill="#e0e0e0" stroke="#999999" points="1137.2,-129 1090.2,-129 1090.2,-110 1137.2,-110 1137.2,-129"/>
<text text-anchor="middle" x="1113.7" y="-117" font-family="Helvetica,sans-Serif" font-size="10.00">vector</text>
</a>
</g>
</g>
<!-- Node1&#45;&gt;Node17 -->
<g id="edge32_Node000001_Node000017" class="edge">
<title>Node1&#45;&gt;Node17</title>
<g id="a_edge32_Node000001_Node000017"><a xlink:title=" ">
<path fill="none" stroke="#63b8ff" d="M879.28,-219.94C909.89,-212.1 954.94,-199.38 992.7,-184 1028.19,-169.54 1067.08,-148.04 1090.94,-134.15"/>
<polygon fill="#63b8ff" stroke="#63b8ff" points="1092.76,-137.14 1099.6,-129.05 1089.21,-131.11 1092.76,-137.14"/>
</a>
</g>
</g>
<!-- Node18 -->
<g id="Node000018" class="node">
<title>Node18</title>
<g id="a_Node000018"><a xlink:title=" ">
<polygon fill="#e0e0e0" stroke="#999999" points="1199.7,-129 1155.7,-129 1155.7,-110 1199.7,-110 1199.7,-129"/>
<text text-anchor="middle" x="1177.7" y="-117" font-family="Helvetica,sans-Serif" font-size="10.00">string</text>
</a>
</g>
</g>
<!-- Node1&#45;&gt;Node18 -->
<g id="edge33_Node000001_Node000018" class="edge">
<title>Node1&#45;&gt;Node18</title>
<g id="a_edge33_Node000001_Node000018"><a xlink:title=" ">
<path fill="none" stroke="#63b8ff" d="M887.76,-219.96C925.39,-212.16 980.73,-199.51 1027.7,-184 1071.85,-169.42 1121.16,-147.38 1150.79,-133.47"/>
<polygon fill="#63b8ff" stroke="#63b8ff" points="1152.51,-136.53 1160.05,-129.09 1149.51,-130.2 1152.51,-136.53"/>
</a>
</g>
</g>
<!-- Node19 -->
<g id="Node000019" class="node">
<title>Node19</title>
<g id="a_Node000019"><a xlink:href="_field_type_def_8h.html" target="_top" xlink:title=" ">
<polygon fill="white" stroke="#666666" points="496.7,-184 408.7,-184 408.7,-165 496.7,-165 496.7,-184"/>
<text text-anchor="middle" x="452.7" y="-172" font-family="Helvetica,sans-Serif" font-size="10.00">FieldTypeDef.h</text>
</a>
</g>
</g>
<!-- Node1&#45;&gt;Node19 -->
<g id="edge20_Node000001_Node000019" class="edge">
<title>Node1&#45;&gt;Node19</title>
<g id="a_edge20_Node000001_Node000019"><a xlink:title=" ">
<path fill="none" stroke="#63b8ff" d="M780.88,-219.98C705.06,-209.71 578.83,-192.6 507.03,-182.86"/>
<polygon fill="#63b8ff" stroke="#63b8ff" points="507.22,-179.36 496.84,-181.48 506.28,-186.29 507.22,-179.36"/>
</a>
</g>
</g>
<!-- Node20 -->
<g id="Node000020" class="node">
<title>Node20</title>
<g id="a_Node000020"><a xlink:title=" ">
<polygon fill="#e0e0e0" stroke="#999999" points="533.2,-129 372.2,-129 372.2,-110 533.2,-110 533.2,-129"/>
<text text-anchor="middle" x="452.7" y="-117" font-family="Helvetica,sans-Serif" font-size="10.00">stk_mesh/base/FieldBase.hpp</text>
</a>
</g>
</g>
<!-- Node1&#45;&gt;Node20 -->
<g id="edge29_Node000001_Node000020" class="edge">
<title>Node1&#45;&gt;Node20</title>
<g id="a_edge29_Node000001_Node000020"><a xlink:title=" ">
<path fill="none" stroke="#63b8ff" d="M812.69,-219.94C742.68,-200.6 572.36,-153.55 493.73,-131.83"/>
<polygon fill="#63b8ff" stroke="#63b8ff" points="494.28,-128.35 483.71,-129.07 492.42,-135.1 494.28,-128.35"/>
</a>
</g>
</g>
<!-- Node23 -->
<g id="Node000023" class="node">
<title>Node23</title>
<g id="a_Node000023"><a xlink:title=" ">
<polygon fill="#e0e0e0" stroke="#999999" points="1237.7,-184 1095.7,-184 1095.7,-165 1237.7,-165 1237.7,-184"/>
<text text-anchor="middle" x="1166.7" y="-172" font-family="Helvetica,sans-Serif" font-size="10.00">stk_mesh/base/Types.hpp</text>
</a>
</g>
</g>
<!-- Node1&#45;&gt;Node23 -->
<g id="edge27_Node000001_Node000023" class="edge">
<title>Node1&#45;&gt;Node23</title>
<g id="a_edge27_Node000001_Node000023"><a xlink:title=" ">
<path fill="none" stroke="#63b8ff" d="M895.59,-219.98C952.49,-210.65 1043.74,-195.67 1104.45,-185.71"/>
<polygon fill="#63b8ff" stroke="#63b8ff" points="1105.36,-189.11 1114.66,-184.04 1104.23,-182.2 1105.36,-189.11"/>
</a>
</g>
</g>
<!-- Node24 -->
<g id="Node000024" class="node">
<title>Node24</title>
<g id="a_Node000024"><a xlink:title=" ">
<polygon fill="#e0e0e0" stroke="#999999" points="1349.2,-184 1256.2,-184 1256.2,-165 1349.2,-165 1349.2,-184"/>
<text text-anchor="middle" x="1302.7" y="-172" font-family="Helvetica,sans-Serif" font-size="10.00">unordered_map</text>
</a>
</g>
</g>
<!-- Node1&#45;&gt;Node24 -->
<g id="edge34_Node000001_Node000024" class="edge">
<title>Node1&#45;&gt;Node24</title>
<g id="a_edge34_Node000001_Node000024"><a xlink:title=" ">
<path fill="none" stroke="#63b8ff" d="M930.29,-219.97C1009.67,-211.91 1130.73,-199.02 1245.91,-184.05"/>
<polygon fill="#63b8ff" stroke="#63b8ff" points="1246.51,-187.5 1255.97,-182.74 1245.6,-180.56 1246.51,-187.5"/>
</a>
</g>
</g>
<!-- Node3 -->
<g id="Node000003" class="node">
<title>Node3</title>
<g id="a_Node000003"><a xlink:href="_linear_solver_types_8h.html" target="_top" xlink:title=" ">
<polygon fill="white" stroke="#666666" points="817.7,-129 703.7,-129 703.7,-110 817.7,-110 817.7,-129"/>
<text text-anchor="middle" x="760.7" y="-117" font-family="Helvetica,sans-Serif" font-size="10.00">LinearSolverTypes.h</text>
</a>
</g>
</g>
<!-- Node2&#45;&gt;Node3 -->
<g id="edge2_Node000002_Node000003" class="edge">
<title>Node2&#45;&gt;Node3</title>
<g id="a_edge2_Node000002_Node000003"><a xlink:title=" ">
<path fill="none" stroke="#63b8ff" d="M892.47,-164.98C866.34,-156.16 825.3,-142.31 795.97,-132.41"/>
<polygon fill="#63b8ff" stroke="#63b8ff" points="796.71,-128.96 786.12,-129.08 794.48,-135.6 796.71,-128.96"/>
</a>
</g>
</g>
<!-- Node2&#45;&gt;Node4 -->
<g id="edge14_Node000002_Node000004" class="edge">
<title>Node2&#45;&gt;Node4</title>
<g id="a_edge14_Node000002_Node000004"><a xlink:title=" ">
<path fill="none" stroke="#63b8ff" d="M912.36,-164.65C905.55,-152.17 895.48,-128.83 902.7,-110 906.94,-98.94 915.33,-88.91 923.34,-81.18"/>
<polygon fill="#63b8ff" stroke="#63b8ff" points="925.95,-83.55 931.06,-74.27 921.27,-78.33 925.95,-83.55"/>
</a>
</g>
</g>
<!-- Node2&#45;&gt;Node15 -->
<g id="edge15_Node000002_Node000015" class="edge">
<title>Node2&#45;&gt;Node15</title>
<g id="a_edge15_Node000002_Node000015"><a xlink:title=" ">
<path fill="none" stroke="#63b8ff" d="M871.63,-165.33C819.25,-156.05 733.62,-140.87 676.72,-130.79"/>
<polygon fill="#63b8ff" stroke="#63b8ff" points="677.25,-127.32 666.8,-129.03 676.03,-134.22 677.25,-127.32"/>
</a>
</g>
</g>
<!-- Node2&#45;&gt;Node16 -->
<g id="edge16_Node000002_Node000016" class="edge">
<title>Node2&#45;&gt;Node16</title>
<g id="a_edge16_Node000002_Node000016"><a xlink:title=" ">
<path fill="none" stroke="#63b8ff" d="M929.59,-164.98C940.85,-156.92 957.98,-144.65 971.41,-135.03"/>
<polygon fill="#63b8ff" stroke="#63b8ff" points="973.5,-137.84 979.59,-129.17 969.42,-132.15 973.5,-137.84"/>
</a>
</g>
</g>
<!-- Node2&#45;&gt;Node17 -->
<g id="edge17_Node000002_Node000017" class="edge">
<title>Node2&#45;&gt;Node17</title>
<g id="a_edge17_Node000002_Node000017"><a xlink:title=" ">
<path fill="none" stroke="#63b8ff" d="M949.19,-164.98C985.09,-155.28 1043.55,-139.47 1080.25,-129.54"/>
<polygon fill="#63b8ff" stroke="#63b8ff" points="1081.25,-132.9 1089.99,-126.91 1079.42,-126.14 1081.25,-132.9"/>
</a>
</g>
</g>
<!-- Node2&#45;&gt;Node18 -->
<g id="edge18_Node000002_Node000018" class="edge">
<title>Node2&#45;&gt;Node18</title>
<g id="a_edge18_Node000002_Node000018"><a xlink:title=" ">
<path fill="none" stroke="#63b8ff" d="M963.97,-165.57C1008.21,-157.75 1076.97,-144.98 1145.32,-129.18"/>
<polygon fill="#63b8ff" stroke="#63b8ff" points="1146.46,-132.51 1155.4,-126.83 1144.86,-125.7 1146.46,-132.51"/>
</a>
</g>
</g>
<!-- Node3&#45;&gt;Node4 -->
<g id="edge3_Node000003_Node000004" class="edge">
<title>Node3&#45;&gt;Node4</title>
<g id="a_edge3_Node000003_Node000004"><a xlink:title=" ">
<path fill="none" stroke="#63b8ff" d="M789.94,-109.98C820.76,-101.01 869.48,-86.82 903.58,-76.89"/>
<polygon fill="#63b8ff" stroke="#63b8ff" points="904.6,-80.24 913.23,-74.08 902.65,-73.52 904.6,-80.24"/>
</a>
</g>
</g>
<!-- Node9 -->
<g id="Node000009" class="node">
<title>Node9</title>
<g id="a_Node000009"><a xlink:title=" ">
<polygon fill="#e0e0e0" stroke="#999999" points="478.7,-74 300.7,-74 300.7,-55 478.7,-55 478.7,-74"/>
<text text-anchor="middle" x="389.7" y="-62" font-family="Helvetica,sans-Serif" font-size="10.00">Tpetra_Details_DefaultTypes.hpp</text>
</a>
</g>
</g>
<!-- Node3&#45;&gt;Node9 -->
<g id="edge8_Node000003_Node000009" class="edge">
<title>Node3&#45;&gt;Node9</title>
<g id="a_edge8_Node000003_Node000009"><a xlink:title=" ">
<path fill="none" stroke="#63b8ff" d="M703.54,-110.33C637.87,-100.95 530.09,-85.56 459.51,-75.47"/>
<polygon fill="#63b8ff" stroke="#63b8ff" points="459.77,-71.98 449.38,-74.03 458.78,-78.9 459.77,-71.98"/>
</a>
</g>
</g>
<!-- Node10 -->
<g id="Node000010" class="node">
<title>Node10</title>
<g id="a_Node000010"><a xlink:title=" ">
<polygon fill="#e0e0e0" stroke="#999999" points="616.2,-74 497.2,-74 497.2,-55 616.2,-55 616.2,-74"/>
<text text-anchor="middle" x="556.7" y="-62" font-family="Helvetica,sans-Serif" font-size="10.00">Tpetra_CrsGraph.hpp</text>
</a>
</g>
</g>
<!-- Node3&#45;&gt;Node10 -->
<g id="edge9_Node000003_Node000010" class="edge">
<title>Node3&#45;&gt;Node10</title>
<g id="a_edge9_Node000003_Node000010"><a xlink:title=" ">
<path fill="none" stroke="#63b8ff" d="M727.92,-109.98C693.08,-100.93 637.83,-86.58 599.56,-76.64"/>
<polygon fill="#63b8ff" stroke="#63b8ff" points="600.29,-73.21 589.73,-74.08 598.53,-79.98 600.29,-73.21"/>
</a>
</g>
</g>
<!-- Node3&#45;&gt;Node11 -->
<g id="edge10_Node000003_Node000011" class="edge">
<title>Node3&#45;&gt;Node11</title>
<g id="a_edge10_Node000003_Node000011"><a xlink:title=" ">
<path fill="none" stroke="#63b8ff" d="M703.49,-110.91C700.52,-110.58 697.57,-110.28 694.7,-110 453.77,-86.64 389.79,-96.52 145.04,-74.07"/>
<polygon fill="#63b8ff" stroke="#63b8ff" points="145.04,-70.55 134.76,-73.12 144.39,-77.52 145.04,-70.55"/>
</a>
</g>
</g>
<!-- Node12 -->
<g id="Node000012" class="node">
<title>Node12</title>
<g id="a_Node000012"><a xlink:title=" ">
<polygon fill="#e0e0e0" stroke="#999999" points="738.7,-74 634.7,-74 634.7,-55 738.7,-55 738.7,-74"/>
<text text-anchor="middle" x="686.7" y="-62" font-family="Helvetica,sans-Serif" font-size="10.00">Tpetra_Vector.hpp</text>
</a>
</g>
</g>
<!-- Node3&#45;&gt;Node12 -->
<g id="edge11_Node000003_Node000012" class="edge">
<title>Node3&#45;&gt;Node12</title>
<g id="a_edge11_Node000003_Node000012"><a xlink:title=" ">
<path fill="none" stroke="#63b8ff" d="M748.81,-109.98C737.55,-101.92 720.41,-89.65 706.99,-80.03"/>
<polygon fill="#63b8ff" stroke="#63b8ff" points="708.97,-77.15 698.8,-74.17 704.9,-82.84 708.97,-77.15"/>
</a>
</g>
</g>
<!-- Node3&#45;&gt;Node13 -->
<g id="edge12_Node000003_Node000013" class="edge">
<title>Node3&#45;&gt;Node13</title>
<g id="a_edge12_Node000003_Node000013"><a xlink:title=" ">
<path fill="none" stroke="#63b8ff" d="M703.48,-110.99C700.51,-110.65 697.57,-110.31 694.7,-110 519.16,-90.86 472.27,-92.21 292.33,-74.04"/>
<polygon fill="#63b8ff" stroke="#63b8ff" points="292.56,-70.54 282.26,-73.01 291.86,-77.51 292.56,-70.54"/>
</a>
</g>
</g>
<!-- Node14 -->
<g id="Node000014" class="node">
<title>Node14</title>
<g id="a_Node000014"><a xlink:title=" ">
<polygon fill="#e0e0e0" stroke="#999999" points="872.7,-74 756.7,-74 756.7,-55 872.7,-55 872.7,-74"/>
<text text-anchor="middle" x="814.7" y="-62" font-family="Helvetica,sans-Serif" font-size="10.00">Tpetra_Operator.hpp</text>
</a>
</g>
</g>
<!-- Node3&#45;&gt;Node14 -->
<g id="edge13_Node000003_Node000014" class="edge">
<title>Node3&#45;&gt;Node14</title>
<g id="a_edge13_Node000003_Node000014"><a xlink:title=" ">
<path fill="none" stroke="#63b8ff" d="M769.62,-109.75C777.48,-102.03 789.13,-90.6 798.62,-81.28"/>
<polygon fill="#63b8ff" stroke="#63b8ff" points="801.26,-83.59 805.95,-74.09 796.36,-78.6 801.26,-83.59"/>
</a>
</g>
</g>
<!-- Node5 -->
<g id="Node000005" class="node">
<title>Node5</title>
<g id="a_Node000005"><a xlink:title=" ">
<polygon fill="#e0e0e0" stroke="#999999" points="868.2,-19 815.2,-19 815.2,0 868.2,0 868.2,-19"/>
<text text-anchor="middle" x="841.7" y="-7" font-family="Helvetica,sans-Serif" font-size="10.00">cstddef</text>
</a>
</g>
</g>
<!-- Node4&#45;&gt;Node5 -->
<g id="edge4_Node000004_Node000005" class="edge">
<title>Node4&#45;&gt;Node5</title>
<g id="a_edge4_Node000004_Node000005"><a xlink:title=" ">
<path fill="none" stroke="#63b8ff" d="M926.47,-54.98C910.52,-46.61 885.92,-33.7 867.32,-23.95"/>
<polygon fill="#63b8ff" stroke="#63b8ff" points="868.7,-20.72 858.22,-19.17 865.45,-26.92 868.7,-20.72"/>
</a>
</g>
</g>
<!-- Node4&#45;&gt;Node6 -->
<g id="edge5_Node000004_Node000006" class="edge">
<title>Node4&#45;&gt;Node6</title>
<g id="a_edge5_Node000004_Node000006"><a xlink:title=" ">
<path fill="none" stroke="#63b8ff" d="M890.48,-56.03C887.51,-55.67 884.57,-55.32 881.7,-55 724.36,-37.4 539.85,-23.29 436.48,-15.97"/>
<polygon fill="#63b8ff" stroke="#63b8ff" points="436.65,-12.48 426.43,-15.26 436.16,-19.46 436.65,-12.48"/>
</a>
</g>
</g>
<!-- Node7 -->
<g id="Node000007" class="node">
<title>Node7</title>
<g id="a_Node000007"><a xlink:title=" ">
<polygon fill="#e0e0e0" stroke="#999999" points="999.2,-19 886.2,-19 886.2,0 999.2,0 999.2,-19"/>
<text text-anchor="middle" x="942.7" y="-7" font-family="Helvetica,sans-Serif" font-size="10.00">Kokkos_Macros.hpp</text>
</a>
</g>
</g>
<!-- Node4&#45;&gt;Node7 -->
<g id="edge6_Node000004_Node000007" class="edge">
<title>Node4&#45;&gt;Node7</title>
<g id="a_edge6_Node000004_Node000007"><a xlink:title=" ">
<path fill="none" stroke="#63b8ff" d="M942.7,-54.75C942.7,-47.8 942.7,-37.85 942.7,-29.13"/>
<polygon fill="#63b8ff" stroke="#63b8ff" points="946.2,-29.09 942.7,-19.09 939.2,-29.09 946.2,-29.09"/>
</a>
</g>
</g>
<!-- Node8 -->
<g id="Node000008" class="node">
<title>Node8</title>
<g id="a_Node000008"><a xlink:title=" ">
<polygon fill="#e0e0e0" stroke="#999999" points="1117.7,-19 1017.7,-19 1017.7,0 1117.7,0 1117.7,-19"/>
<text text-anchor="middle" x="1067.7" y="-7" font-family="Helvetica,sans-Serif" font-size="10.00">Kokkos_Core.hpp</text>
</a>
</g>
</g>
<!-- Node4&#45;&gt;Node8 -->
<g id="edge7_Node000004_Node000008" class="edge">
<title>Node4&#45;&gt;Node8</title>
<g id="a_edge7_Node000004_Node000008"><a xlink:title=" ">
<path fill="none" stroke="#63b8ff" d="M962.78,-54.98C983.07,-46.38 1014.65,-32.99 1037.87,-23.15"/>
<polygon fill="#63b8ff" stroke="#63b8ff" points="1039.41,-26.3 1047.25,-19.17 1036.68,-19.85 1039.41,-26.3"/>
</a>
</g>
</g>
<!-- Node19&#45;&gt;Node15 -->
<g id="edge22_Node000019_Node000015" class="edge">
<title>Node19&#45;&gt;Node15</title>
<g id="a_edge22_Node000019_Node000015"><a xlink:title=" ">
<path fill="none" stroke="#63b8ff" d="M479.37,-164.98C507.24,-156.09 551.15,-142.07 582.22,-132.15"/>
<polygon fill="#63b8ff" stroke="#63b8ff" points="583.36,-135.46 591.82,-129.08 581.23,-128.79 583.36,-135.46"/>
</a>
</g>
</g>
<!-- Node19&#45;&gt;Node20 -->
<g id="edge21_Node000019_Node000020" class="edge">
<title>Node19&#45;&gt;Node20</title>
<g id="a_edge21_Node000019_Node000020"><a xlink:title=" ">
<path fill="none" stroke="#63b8ff" d="M452.7,-164.75C452.7,-157.8 452.7,-147.85 452.7,-139.13"/>
<polygon fill="#63b8ff" stroke="#63b8ff" points="456.2,-139.09 452.7,-129.09 449.2,-139.09 456.2,-139.09"/>
</a>
</g>
</g>
<!-- Node21 -->
<g id="Node000021" class="node">
<title>Node21</title>
<g id="a_Node000021"><a xlink:title=" ">
<polygon fill="#e0e0e0" stroke="#999999" points="354.2,-129 197.2,-129 197.2,-110 354.2,-110 354.2,-129"/>
<text text-anchor="middle" x="275.7" y="-117" font-family="Helvetica,sans-Serif" font-size="10.00">stk_mesh/base/NgpField.hpp</text>
</a>
</g>
</g>
<!-- Node19&#45;&gt;Node21 -->
<g id="edge23_Node000019_Node000021" class="edge">
<title>Node19&#45;&gt;Node21</title>
<g id="a_edge23_Node000019_Node000021"><a xlink:title=" ">
<path fill="none" stroke="#63b8ff" d="M424.26,-164.98C394.41,-156.05 347.32,-141.94 314.16,-132.02"/>
<polygon fill="#63b8ff" stroke="#63b8ff" points="314.94,-128.6 304.36,-129.08 312.93,-135.3 314.94,-128.6"/>
</a>
</g>
</g>
<!-- Node22 -->
<g id="Node000022" class="node">
<title>Node22</title>
<g id="a_Node000022"><a xlink:title=" ">
<polygon fill="#e0e0e0" stroke="#999999" points="179.2,-129 114.2,-129 114.2,-110 179.2,-110 179.2,-129"/>
<text text-anchor="middle" x="146.7" y="-117" font-family="Helvetica,sans-Serif" font-size="10.00">functional</text>
</a>
</g>
</g>
<!-- Node19&#45;&gt;Node22 -->
<g id="edge24_Node000019_Node000022" class="edge">
<title>Node19&#45;&gt;Node22</title>
<g id="a_edge24_Node000019_Node000022"><a xlink:title=" ">
<path fill="none" stroke="#63b8ff" d="M408.53,-166.61C357.91,-158.6 272.21,-144.67 189.43,-129.27"/>
<polygon fill="#63b8ff" stroke="#63b8ff" points="189.82,-125.78 179.35,-127.39 188.54,-132.67 189.82,-125.78"/>
</a>
</g>
</g>
</g>
</svg>

<g id="navigator" transform="translate(0 0)" fill="#404254">
  <rect fill="#f2f5e9" fill-opacity="0.5" stroke="#606060" stroke-width=".5" x="0" y="0" width="60" height="60"/>
  <use id="zoomplus" xlink:href="#zoomPlus" x="17" y="9" onmousedown="handleZoom(evt,'in')"/>
  <use id="zoomminus" xlink:href="#zoomMin" x="42" y="9" onmousedown="handleZoom(evt,'out')"/>
  <use id="reset" xlink:href="#resetDef" x="30" y="36" onmousedown="handleReset()"/>
   <use id="arrowup" xlink:href="#arrowUp" x="0" y="0" onmousedown="handlePan(0,-1)"/>
  <use id="arrowright" xlink:href="#arrowRight" x="0" y="0" onmousedown="handlePan(1,0)"/>
  <use id="arrowdown" xlink:href="#arrowDown" x="0" y="0" onmousedown="handlePan(0,1)"/>
  <use id="arrowleft" xlink:href="#arrowLeft" x="0" y="0" onmousedown="handlePan(-1,0)"/>
</g>
<svg viewBox="0 0 15 15" width="100%" height="30px" preserveAspectRatio="xMaxYMin meet">
 <g id="arrow_out" transform="scale(0.3 0.3)">
  <a xlink:href="_tpetra_segregated_linear_system_8h__incl_org.svg" target="_base">
   <rect id="button" ry="5" rx="5" y="6" x="6" height="38" width="38"
        fill="#f2f5e9" fill-opacity="0.5" stroke="#606060" stroke-width="1.0"/>
   <path id="arrow"
     d="M 11.500037,31.436501 C 11.940474,20.09759 22.043105,11.32322 32.158766,21.979434 L 37.068811,17.246167 C 37.068811,17.246167 37.088388,32 37.088388,32 L 22.160133,31.978069 C 22.160133,31.978069 26.997745,27.140456 26.997745,27.140456 C 18.528582,18.264221 13.291696,25.230495 11.500037,31.436501 z"
     style="fill:#404040;"/>
  </a>
 </g>
</svg>

<style type='text/css'>
<![CDATA[
[data-mouse-over-selected='false'] { opacity: 0.7; }
[data-mouse-over-selected='true']  { opacity: 1.0; }
]]>
</style>
<script type="application/ecmascript"><![CDATA[
document.addEventListener('DOMContentLoaded', (event) => {
  highlightEdges();
  highlightAdjacentNodes();
});
]]></script>
</svg>
