<?xml version="1.0" encoding="UTF-8" standalone="no"?>
<!DOCTYPE svg PUBLIC "-//W3C//DTD SVG 1.1//EN"
 "http://www.w3.org/Graphics/SVG/1.1/DTD/svg11.dtd">
<!-- Generated by graphviz version 2.43.0 (0)
 -->
<!-- Title: Tri32DCVFEM.C Pages: 1 -->
<!--zoomable 263 -->
<svg id="main" version="1.1" xmlns="http://www.w3.org/2000/svg" xmlns:xlink="http://www.w3.org/1999/xlink" xml:space="preserve" onload="init(evt)">
<style type="text/css"><![CDATA[
.edge:hover path { stroke: red; }
.edge:hover polygon { stroke: red; fill: red; }
]]></style>
<script type="text/javascript"><![CDATA[
var edges = document.getElementsByTagName('g');
if (edges && edges.length) {
  for (var i=0;i<edges.length;i++) {
    if (edges[i].id.substr(0,4)=='edge') {
      edges[i].setAttribute('class','edge');
    }
  }
}
]]></script>
        <defs>
                <circle id="rim" cx="0" cy="0" r="7"/>
                <circle id="rim2" cx="0" cy="0" r="3.5"/>
                <g id="zoomPlus">
                        <use xlink:href="#rim" fill="#404040">
                                <set attributeName="fill" to="#808080" begin="zoomplus.mouseover" end="zoomplus.mouseout"/>
                        </use>
                        <path d="M-4,0h8M0,-4v8" fill="none" stroke="white" stroke-width="1.5" pointer-events="none"/>
                </g>
                <g id="zoomMin">
                        <use xlink:href="#rim" fill="#404040">
                                <set attributeName="fill" to="#808080" begin="zoomminus.mouseover" end="zoomminus.mouseout"/>
                        </use>
                        <path d="M-4,0h8" fill="none" stroke="white" stroke-width="1.5" pointer-events="none"/>
                </g>
                <g id="dirArrow">
                        <path fill="none" stroke="white" stroke-width="1.5" d="M0,-3.0v7 M-2.5,-0.5L0,-3.0L2.5,-0.5"/>
                </g>
               <g id="resetDef">
                       <use xlink:href="#rim2" fill="#404040">
                               <set attributeName="fill" to="#808080" begin="reset.mouseover" end="reset.mouseout"/>
                       </use>
               </g>
        </defs>

<script type="text/javascript">
var viewWidth = 1796;
var viewHeight = 263;
var sectionId = 'dynsection-0';
</script>
<script xlink:href="svgpan.js"/>
<svg id="graph" class="graph">
<g id="viewport">
<title>Tri32DCVFEM.C</title>
<polygon fill="white" stroke="transparent" points="-4,4 -4,-259 1792,-259 1792,4 -4,4"/>
<!-- Node1 -->
<g id="node1" class="node">
<title>Node1</title>
<g id="a_node1"><a xlink:title=" ">
<polygon fill="#bfbfbf" stroke="black" points="1097.5,-235.5 1097.5,-254.5 1189.5,-254.5 1189.5,-235.5 1097.5,-235.5"/>
<text text-anchor="middle" x="1143.5" y="-242.5" font-family="Helvetica,sans-Serif" font-size="10.00">Tri32DCVFEM.C</text>
</a>
</g>
</g>
<!-- Node2 -->
<g id="node2" class="node">
<title>Node2</title>
<g id="a_node2"><a xlink:href="_tri32_d_c_v_f_e_m_8h.html" target="_top" xlink:title=" ">
<polygon fill="white" stroke="black" points="190.5,-174 190.5,-193 364.5,-193 364.5,-174 190.5,-174"/>
<text text-anchor="middle" x="277.5" y="-181" font-family="Helvetica,sans-Serif" font-size="10.00">master_element/Tri32DCVFEM.h</text>
</a>
</g>
</g>
<!-- Node1&#45;&gt;Node2 -->
<g id="edge1" class="edge">
<title>Node1&#45;&gt;Node2</title>
<path fill="none" stroke="midnightblue" d="M1097.25,-240.82C961.3,-231.48 560.89,-203.97 374.72,-191.18"/>
<polygon fill="midnightblue" stroke="midnightblue" points="374.88,-187.68 364.67,-190.49 374.4,-194.67 374.88,-187.68"/>
</g>
<!-- Node4 -->
<g id="node4" class="node">
<title>Node4</title>
<g id="a_node4"><a xlink:href="_alg_traits_8h.html" target="_top" xlink:title=" ">
<polygon fill="white" stroke="black" points="76.5,-56.5 76.5,-75.5 144.5,-75.5 144.5,-56.5 76.5,-56.5"/>
<text text-anchor="middle" x="110.5" y="-63.5" font-family="Helvetica,sans-Serif" font-size="10.00">AlgTraits.h</text>
</a>
</g>
</g>
<!-- Node1&#45;&gt;Node4 -->
<g id="edge51" class="edge">
<title>Node1&#45;&gt;Node4</title>
<path fill="none" stroke="midnightblue" d="M1097.42,-244.33C916.52,-245.28 261.03,-245.47 181.5,-199 139.66,-174.55 121.12,-115.83 114.13,-85.63"/>
<polygon fill="midnightblue" stroke="midnightblue" points="117.49,-84.63 111.98,-75.58 110.65,-86.09 117.49,-84.63"/>
</g>
<!-- Node5 -->
<g id="node5" class="node">
<title>Node5</title>
<g id="a_node5"><a xlink:title=" ">
<polygon fill="white" stroke="#bfbfbf" points="0,-0.5 0,-19.5 145,-19.5 145,-0.5 0,-0.5"/>
<text text-anchor="middle" x="72.5" y="-7.5" font-family="Helvetica,sans-Serif" font-size="10.00">stk_topology/topology.hpp</text>
</a>
</g>
</g>
<!-- Node1&#45;&gt;Node5 -->
<g id="edge54" class="edge">
<title>Node1&#45;&gt;Node5</title>
<path fill="none" stroke="midnightblue" d="M1097.34,-244.39C912.2,-245.6 229.46,-246.77 146.5,-199 90.2,-166.58 85.8,-138.34 67.5,-76 63.02,-60.73 64.97,-42.62 67.64,-29.4"/>
<polygon fill="midnightblue" stroke="midnightblue" points="71.06,-30.15 69.92,-19.62 64.24,-28.56 71.06,-30.15"/>
</g>
<!-- Node14 -->
<g id="node14" class="node">
<title>Node14</title>
<g id="a_node14"><a xlink:title=" ">
<polygon fill="white" stroke="#bfbfbf" points="909,-56.5 909,-75.5 1074,-75.5 1074,-56.5 909,-56.5"/>
<text text-anchor="middle" x="991.5" y="-63.5" font-family="Helvetica,sans-Serif" font-size="10.00">stk_util/util/ReportHandler.hpp</text>
</a>
</g>
</g>
<!-- Node1&#45;&gt;Node14 -->
<g id="edge53" class="edge">
<title>Node1&#45;&gt;Node14</title>
<path fill="none" stroke="midnightblue" d="M1141.82,-235.44C1136.93,-212.58 1120.68,-149.29 1084.5,-112 1069.89,-96.94 1049.21,-86.25 1031.07,-79.08"/>
<polygon fill="midnightblue" stroke="midnightblue" points="1032.17,-75.75 1021.58,-75.54 1029.73,-82.31 1032.17,-75.75"/>
</g>
<!-- Node18 -->
<g id="node18" class="node">
<title>Node18</title>
<g id="a_node18"><a xlink:title=" ">
<polygon fill="white" stroke="#bfbfbf" points="668.5,-56.5 668.5,-75.5 710.5,-75.5 710.5,-56.5 668.5,-56.5"/>
<text text-anchor="middle" x="689.5" y="-63.5" font-family="Helvetica,sans-Serif" font-size="10.00">array</text>
</a>
</g>
</g>
<!-- Node1&#45;&gt;Node18 -->
<g id="edge58" class="edge">
<title>Node1&#45;&gt;Node18</title>
<path fill="none" stroke="midnightblue" d="M1097.49,-242.26C992.33,-237.86 741.26,-224.74 713.5,-199 682.14,-169.92 683.42,-114.64 686.65,-85.71"/>
<polygon fill="midnightblue" stroke="midnightblue" points="690.13,-86.08 687.97,-75.71 683.19,-85.16 690.13,-86.08"/>
</g>
<!-- Node19 -->
<g id="node19" class="node">
<title>Node19</title>
<g id="a_node19"><a xlink:href="_master_element_functions_8h.html" target="_top" xlink:title=" ">
<polygon fill="white" stroke="black" points="722.5,-168.5 722.5,-198.5 896.5,-198.5 896.5,-168.5 722.5,-168.5"/>
<text text-anchor="start" x="730.5" y="-186.5" font-family="Helvetica,sans-Serif" font-size="10.00">master_element/MasterElement</text>
<text text-anchor="middle" x="809.5" y="-175.5" font-family="Helvetica,sans-Serif" font-size="10.00">Functions.h</text>
</a>
</g>
</g>
<!-- Node1&#45;&gt;Node19 -->
<g id="edge23" class="edge">
<title>Node1&#45;&gt;Node19</title>
<path fill="none" stroke="midnightblue" d="M1097.41,-235.79C1046.19,-226.67 962.28,-211.72 898.22,-200.31"/>
<polygon fill="midnightblue" stroke="midnightblue" points="898.58,-196.81 888.12,-198.51 897.35,-203.71 898.58,-196.81"/>
</g>
<!-- Node21 -->
<g id="node21" class="node">
<title>Node21</title>
<g id="a_node21"><a xlink:title=" ">
<polygon fill="white" stroke="#bfbfbf" points="1104.5,-56.5 1104.5,-75.5 1148.5,-75.5 1148.5,-56.5 1104.5,-56.5"/>
<text text-anchor="middle" x="1126.5" y="-63.5" font-family="Helvetica,sans-Serif" font-size="10.00">limits</text>
</a>
</g>
</g>
<!-- Node1&#45;&gt;Node21 -->
<g id="edge57" class="edge">
<title>Node1&#45;&gt;Node21</title>
<path fill="none" stroke="midnightblue" d="M1143.84,-235.29C1144.51,-214.06 1145.42,-158.04 1138.5,-112 1137.16,-103.09 1134.72,-93.42 1132.38,-85.33"/>
<polygon fill="midnightblue" stroke="midnightblue" points="1135.65,-84.05 1129.38,-75.51 1128.95,-86.09 1135.65,-84.05"/>
</g>
<!-- Node28 -->
<g id="node28" class="node">
<title>Node28</title>
<g id="a_node28"><a xlink:href="_nalu_env_8h.html" target="_top" xlink:title=" ">
<polygon fill="white" stroke="black" points="1586,-56.5 1586,-75.5 1651,-75.5 1651,-56.5 1586,-56.5"/>
<text text-anchor="middle" x="1618.5" y="-63.5" font-family="Helvetica,sans-Serif" font-size="10.00">NaluEnv.h</text>
</a>
</g>
</g>
<!-- Node1&#45;&gt;Node28 -->
<g id="edge52" class="edge">
<title>Node1&#45;&gt;Node28</title>
<path fill="none" stroke="midnightblue" d="M1149.53,-235.43C1161.16,-219.58 1188.32,-185.65 1219.5,-168 1276.91,-135.5 1299.54,-148.15 1363.5,-132 1438.3,-113.12 1525.38,-90.86 1575.98,-77.9"/>
<polygon fill="midnightblue" stroke="midnightblue" points="1577.09,-81.23 1585.91,-75.36 1575.35,-74.45 1577.09,-81.23"/>
</g>
<!-- Node33 -->
<g id="node33" class="node">
<title>Node33</title>
<g id="a_node33"><a xlink:title=" ">
<polygon fill="white" stroke="#bfbfbf" points="1228.5,-174 1228.5,-193 1288.5,-193 1288.5,-174 1228.5,-174"/>
<text text-anchor="middle" x="1258.5" y="-181" font-family="Helvetica,sans-Serif" font-size="10.00">iostream</text>
</a>
</g>
</g>
<!-- Node1&#45;&gt;Node33 -->
<g id="edge55" class="edge">
<title>Node1&#45;&gt;Node33</title>
<path fill="none" stroke="midnightblue" d="M1159.98,-235.48C1179.11,-225.58 1210.87,-209.14 1233.15,-197.62"/>
<polygon fill="midnightblue" stroke="midnightblue" points="1234.78,-200.71 1242.05,-193.01 1231.56,-194.5 1234.78,-200.71"/>
</g>
<!-- Node34 -->
<g id="node34" class="node">
<title>Node34</title>
<g id="a_node34"><a xlink:title=" ">
<polygon fill="white" stroke="#bfbfbf" points="1307,-174 1307,-193 1354,-193 1354,-174 1307,-174"/>
<text text-anchor="middle" x="1330.5" y="-181" font-family="Helvetica,sans-Serif" font-size="10.00">cmath</text>
</a>
</g>
</g>
<!-- Node1&#45;&gt;Node34 -->
<g id="edge56" class="edge">
<title>Node1&#45;&gt;Node34</title>
<path fill="none" stroke="midnightblue" d="M1177.25,-235.49C1208.72,-227.24 1256.8,-213.82 1297.5,-199 1299.16,-198.4 1300.85,-197.75 1302.55,-197.08"/>
<polygon fill="midnightblue" stroke="midnightblue" points="1304.29,-200.14 1312.17,-193.06 1301.59,-193.68 1304.29,-200.14"/>
</g>
<!-- Node35 -->
<g id="node35" class="node">
<title>Node35</title>
<g id="a_node35"><a xlink:title=" ">
<polygon fill="white" stroke="#bfbfbf" points="1372.5,-174 1372.5,-193 1410.5,-193 1410.5,-174 1372.5,-174"/>
<text text-anchor="middle" x="1391.5" y="-181" font-family="Helvetica,sans-Serif" font-size="10.00">map</text>
</a>
</g>
</g>
<!-- Node1&#45;&gt;Node35 -->
<g id="edge59" class="edge">
<title>Node1&#45;&gt;Node35</title>
<path fill="none" stroke="midnightblue" d="M1189.58,-238.35C1234.79,-231.94 1305.24,-219.59 1363.5,-199 1364.75,-198.56 1366.01,-198.07 1367.27,-197.55"/>
<polygon fill="midnightblue" stroke="midnightblue" points="1369.16,-200.53 1376.73,-193.11 1366.19,-194.19 1369.16,-200.53"/>
</g>
<!-- Node36 -->
<g id="node36" class="node">
<title>Node36</title>
<g id="a_node36"><a xlink:title=" ">
<polygon fill="white" stroke="#bfbfbf" points="1428.5,-174 1428.5,-193 1486.5,-193 1486.5,-174 1428.5,-174"/>
<text text-anchor="middle" x="1457.5" y="-181" font-family="Helvetica,sans-Serif" font-size="10.00">memory</text>
</a>
</g>
</g>
<!-- Node1&#45;&gt;Node36 -->
<g id="edge60" class="edge">
<title>Node1&#45;&gt;Node36</title>
<path fill="none" stroke="midnightblue" d="M1189.52,-239.39C1244.81,-233.19 1340.04,-220.4 1419.5,-199 1422.16,-198.28 1424.89,-197.45 1427.6,-196.55"/>
<polygon fill="midnightblue" stroke="midnightblue" points="1429.01,-199.77 1437.24,-193.1 1426.65,-193.18 1429.01,-199.77"/>
</g>
<!-- Node3 -->
<g id="node3" class="node">
<title>Node3</title>
<g id="a_node3"><a xlink:href="_master_element_8h.html" target="_top" xlink:title=" ">
<polygon fill="white" stroke="black" points="459,-112.5 459,-131.5 642,-131.5 642,-112.5 459,-112.5"/>
<text text-anchor="middle" x="550.5" y="-119.5" font-family="Helvetica,sans-Serif" font-size="10.00">master_element/MasterElement.h</text>
</a>
</g>
</g>
<!-- Node2&#45;&gt;Node3 -->
<g id="edge2" class="edge">
<title>Node2&#45;&gt;Node3</title>
<path fill="none" stroke="midnightblue" d="M316.61,-173.98C365.37,-163.35 448.71,-145.18 501.62,-133.65"/>
<polygon fill="midnightblue" stroke="midnightblue" points="502.43,-137.06 511.46,-131.51 500.94,-130.22 502.43,-137.06"/>
</g>
<!-- Node2&#45;&gt;Node4 -->
<g id="edge16" class="edge">
<title>Node2&#45;&gt;Node4</title>
<path fill="none" stroke="midnightblue" d="M248.81,-173.99C224.48,-165.84 189.48,-151.83 163.5,-132 146.03,-118.67 130.74,-98.46 121.13,-84.12"/>
<polygon fill="midnightblue" stroke="midnightblue" points="124.03,-82.17 115.66,-75.68 118.16,-85.97 124.03,-82.17"/>
</g>
<!-- Node6 -->
<g id="node6" class="node">
<title>Node6</title>
<g id="a_node6"><a xlink:href="_simd_interface_8h.html" target="_top" xlink:title="STK SIMD Interface.">
<polygon fill="white" stroke="black" points="759.5,-56.5 759.5,-75.5 853.5,-75.5 853.5,-56.5 759.5,-56.5"/>
<text text-anchor="middle" x="806.5" y="-63.5" font-family="Helvetica,sans-Serif" font-size="10.00">SimdInterface.h</text>
</a>
</g>
</g>
<!-- Node2&#45;&gt;Node6 -->
<g id="edge17" class="edge">
<title>Node2&#45;&gt;Node6</title>
<path fill="none" stroke="midnightblue" d="M364.57,-177.24C441.2,-171.09 555.25,-158.19 651.5,-132 698.76,-119.14 750.67,-95.21 780.83,-80.24"/>
<polygon fill="midnightblue" stroke="midnightblue" points="782.45,-83.34 789.82,-75.73 779.31,-77.09 782.45,-83.34"/>
</g>
<!-- Node10 -->
<g id="node10" class="node">
<title>Node10</title>
<g id="a_node10"><a xlink:href="_kokkos_interface_8h.html" target="_top" xlink:title=" ">
<polygon fill="white" stroke="black" points="498.5,-56.5 498.5,-75.5 602.5,-75.5 602.5,-56.5 498.5,-56.5"/>
<text text-anchor="middle" x="550.5" y="-63.5" font-family="Helvetica,sans-Serif" font-size="10.00">KokkosInterface.h</text>
</a>
</g>
</g>
<!-- Node2&#45;&gt;Node10 -->
<g id="edge18" class="edge">
<title>Node2&#45;&gt;Node10</title>
<path fill="none" stroke="midnightblue" d="M258.43,-173.81C232.19,-160.71 190.36,-134.98 210.5,-112 215.05,-106.81 391.41,-85.53 488.28,-74.19"/>
<polygon fill="midnightblue" stroke="midnightblue" points="488.73,-77.66 498.26,-73.02 487.92,-70.71 488.73,-77.66"/>
</g>
<!-- Node15 -->
<g id="node15" class="node">
<title>Node15</title>
<g id="a_node15"><a xlink:title=" ">
<polygon fill="white" stroke="#bfbfbf" points="398,-56.5 398,-75.5 463,-75.5 463,-56.5 398,-56.5"/>
<text text-anchor="middle" x="430.5" y="-63.5" font-family="Helvetica,sans-Serif" font-size="10.00">stdexcept</text>
</a>
</g>
</g>
<!-- Node2&#45;&gt;Node15 -->
<g id="edge20" class="edge">
<title>Node2&#45;&gt;Node15</title>
<path fill="none" stroke="midnightblue" d="M242.81,-173.95C203.63,-162.67 148.27,-140.82 172.5,-112 199.51,-79.87 321.75,-70.68 387.81,-68.05"/>
<polygon fill="midnightblue" stroke="midnightblue" points="388.05,-71.55 397.91,-67.68 387.79,-64.55 388.05,-71.55"/>
</g>
<!-- Node16 -->
<g id="node16" class="node">
<title>Node16</title>
<g id="a_node16"><a xlink:title=" ">
<polygon fill="white" stroke="#bfbfbf" points="253,-112.5 253,-131.5 302,-131.5 302,-112.5 253,-112.5"/>
<text text-anchor="middle" x="277.5" y="-119.5" font-family="Helvetica,sans-Serif" font-size="10.00">cstdlib</text>
</a>
</g>
</g>
<!-- Node2&#45;&gt;Node16 -->
<g id="edge19" class="edge">
<title>Node2&#45;&gt;Node16</title>
<path fill="none" stroke="midnightblue" d="M277.5,-173.98C277.5,-165.58 277.5,-152.48 277.5,-141.66"/>
<polygon fill="midnightblue" stroke="midnightblue" points="281,-141.51 277.5,-131.51 274,-141.51 281,-141.51"/>
</g>
<!-- Node17 -->
<g id="node17" class="node">
<title>Node17</title>
<g id="a_node17"><a xlink:title=" ">
<polygon fill="white" stroke="#bfbfbf" points="320.5,-112.5 320.5,-131.5 364.5,-131.5 364.5,-112.5 320.5,-112.5"/>
<text text-anchor="middle" x="342.5" y="-119.5" font-family="Helvetica,sans-Serif" font-size="10.00">string</text>
</a>
</g>
</g>
<!-- Node2&#45;&gt;Node17 -->
<g id="edge21" class="edge">
<title>Node2&#45;&gt;Node17</title>
<path fill="none" stroke="midnightblue" d="M286.81,-173.98C296.95,-164.7 313.36,-149.67 325.75,-138.33"/>
<polygon fill="midnightblue" stroke="midnightblue" points="328.19,-140.84 333.2,-131.51 323.46,-135.68 328.19,-140.84"/>
</g>
<!-- Node2&#45;&gt;Node18 -->
<g id="edge22" class="edge">
<title>Node2&#45;&gt;Node18</title>
<path fill="none" stroke="midnightblue" d="M267.66,-173.75C252.69,-159.4 227.62,-130.62 244.5,-112 272.02,-81.65 570.76,-80.35 611.5,-76 626.84,-74.36 643.86,-72.41 658.07,-70.75"/>
<polygon fill="midnightblue" stroke="midnightblue" points="658.8,-74.19 668.32,-69.54 657.98,-67.24 658.8,-74.19"/>
</g>
<!-- Node3&#45;&gt;Node4 -->
<g id="edge3" class="edge">
<title>Node3&#45;&gt;Node4</title>
<path fill="none" stroke="midnightblue" d="M480.78,-112.44C389.36,-101.22 231.63,-81.87 154.94,-72.45"/>
<polygon fill="midnightblue" stroke="midnightblue" points="155.03,-68.94 144.68,-71.19 154.17,-75.89 155.03,-68.94"/>
</g>
<!-- Node3&#45;&gt;Node6 -->
<g id="edge5" class="edge">
<title>Node3&#45;&gt;Node6</title>
<path fill="none" stroke="midnightblue" d="M591.06,-112.44C635.82,-103 707.88,-87.8 756.2,-77.61"/>
<polygon fill="midnightblue" stroke="midnightblue" points="757.06,-81.01 766.13,-75.52 755.62,-74.16 757.06,-81.01"/>
</g>
<!-- Node3&#45;&gt;Node10 -->
<g id="edge9" class="edge">
<title>Node3&#45;&gt;Node10</title>
<path fill="none" stroke="midnightblue" d="M550.5,-112.08C550.5,-105.01 550.5,-94.86 550.5,-85.99"/>
<polygon fill="midnightblue" stroke="midnightblue" points="554,-85.75 550.5,-75.75 547,-85.75 554,-85.75"/>
</g>
<!-- Node3&#45;&gt;Node14 -->
<g id="edge14" class="edge">
<title>Node3&#45;&gt;Node14</title>
<path fill="none" stroke="midnightblue" d="M620.38,-112.44C699.65,-102.74 828.67,-86.94 911.79,-76.76"/>
<polygon fill="midnightblue" stroke="midnightblue" points="912.45,-80.21 921.95,-75.52 911.6,-73.26 912.45,-80.21"/>
</g>
<!-- Node3&#45;&gt;Node15 -->
<g id="edge15" class="edge">
<title>Node3&#45;&gt;Node15</title>
<path fill="none" stroke="midnightblue" d="M531.49,-112.44C511.91,-103.64 481.19,-89.81 458.77,-79.72"/>
<polygon fill="midnightblue" stroke="midnightblue" points="459.98,-76.43 449.43,-75.52 457.11,-82.81 459.98,-76.43"/>
</g>
<!-- Node4&#45;&gt;Node5 -->
<g id="edge4" class="edge">
<title>Node4&#45;&gt;Node5</title>
<path fill="none" stroke="midnightblue" d="M104.23,-56.08C98.86,-48.46 90.98,-37.26 84.42,-27.94"/>
<polygon fill="midnightblue" stroke="midnightblue" points="87.28,-25.91 78.66,-19.75 81.55,-29.94 87.28,-25.91"/>
</g>
<!-- Node7 -->
<g id="node7" class="node">
<title>Node7</title>
<g id="a_node7"><a xlink:title=" ">
<polygon fill="white" stroke="#bfbfbf" points="866.5,-0.5 866.5,-19.5 976.5,-19.5 976.5,-0.5 866.5,-0.5"/>
<text text-anchor="middle" x="921.5" y="-7.5" font-family="Helvetica,sans-Serif" font-size="10.00">stk_simd/Simd.hpp</text>
</a>
</g>
</g>
<!-- Node6&#45;&gt;Node7 -->
<g id="edge6" class="edge">
<title>Node6&#45;&gt;Node7</title>
<path fill="none" stroke="midnightblue" d="M824.72,-56.44C843.4,-47.68 872.66,-33.94 894.12,-23.86"/>
<polygon fill="midnightblue" stroke="midnightblue" points="895.8,-26.93 903.36,-19.52 892.82,-20.6 895.8,-26.93"/>
</g>
<!-- Node8 -->
<g id="node8" class="node">
<title>Node8</title>
<g id="a_node8"><a xlink:title=" ">
<polygon fill="white" stroke="#bfbfbf" points="552,-0.5 552,-19.5 665,-19.5 665,-0.5 552,-0.5"/>
<text text-anchor="middle" x="608.5" y="-7.5" font-family="Helvetica,sans-Serif" font-size="10.00">Kokkos_Macros.hpp</text>
</a>
</g>
</g>
<!-- Node6&#45;&gt;Node8 -->
<g id="edge7" class="edge">
<title>Node6&#45;&gt;Node8</title>
<path fill="none" stroke="midnightblue" d="M775.13,-56.44C741.24,-47.2 687.1,-32.44 649.78,-22.26"/>
<polygon fill="midnightblue" stroke="midnightblue" points="650.3,-18.77 639.73,-19.52 648.45,-25.52 650.3,-18.77"/>
</g>
<!-- Node9 -->
<g id="node9" class="node">
<title>Node9</title>
<g id="a_node9"><a xlink:title=" ">
<polygon fill="white" stroke="#bfbfbf" points="683,-0.5 683,-19.5 730,-19.5 730,-0.5 683,-0.5"/>
<text text-anchor="middle" x="706.5" y="-7.5" font-family="Helvetica,sans-Serif" font-size="10.00">vector</text>
</a>
</g>
</g>
<!-- Node6&#45;&gt;Node9 -->
<g id="edge8" class="edge">
<title>Node6&#45;&gt;Node9</title>
<path fill="none" stroke="midnightblue" d="M790.43,-56.32C774.54,-47.74 749.99,-34.49 731.54,-24.52"/>
<polygon fill="midnightblue" stroke="midnightblue" points="732.99,-21.33 722.53,-19.65 729.66,-27.49 732.99,-21.33"/>
</g>
<!-- Node10&#45;&gt;Node8 -->
<g id="edge12" class="edge">
<title>Node10&#45;&gt;Node8</title>
<path fill="none" stroke="midnightblue" d="M559.82,-56.32C568.39,-48.34 581.31,-36.31 591.69,-26.65"/>
<polygon fill="midnightblue" stroke="midnightblue" points="594.08,-29.21 599.01,-19.83 589.31,-24.09 594.08,-29.21"/>
</g>
<!-- Node11 -->
<g id="node11" class="node">
<title>Node11</title>
<g id="a_node11"><a xlink:title=" ">
<polygon fill="white" stroke="#bfbfbf" points="481,-0.5 481,-19.5 534,-19.5 534,-0.5 481,-0.5"/>
<text text-anchor="middle" x="507.5" y="-7.5" font-family="Helvetica,sans-Serif" font-size="10.00">cstddef</text>
</a>
</g>
</g>
<!-- Node10&#45;&gt;Node11 -->
<g id="edge10" class="edge">
<title>Node10&#45;&gt;Node11</title>
<path fill="none" stroke="midnightblue" d="M543.4,-56.08C537.26,-48.38 528.23,-37.03 520.76,-27.65"/>
<polygon fill="midnightblue" stroke="midnightblue" points="523.44,-25.39 514.47,-19.75 517.96,-29.75 523.44,-25.39"/>
</g>
<!-- Node12 -->
<g id="node12" class="node">
<title>Node12</title>
<g id="a_node12"><a xlink:title=" ">
<polygon fill="white" stroke="#bfbfbf" points="322,-0.5 322,-19.5 463,-19.5 463,-0.5 322,-0.5"/>
<text text-anchor="middle" x="392.5" y="-7.5" font-family="Helvetica,sans-Serif" font-size="10.00">stk_mesh/base/Entity.hpp</text>
</a>
</g>
</g>
<!-- Node10&#45;&gt;Node12 -->
<g id="edge11" class="edge">
<title>Node10&#45;&gt;Node12</title>
<path fill="none" stroke="midnightblue" d="M525.46,-56.44C498.88,-47.36 456.69,-32.94 426.98,-22.78"/>
<polygon fill="midnightblue" stroke="midnightblue" points="428.01,-19.44 417.42,-19.52 425.75,-26.06 428.01,-19.44"/>
</g>
<!-- Node13 -->
<g id="node13" class="node">
<title>Node13</title>
<g id="a_node13"><a xlink:title=" ">
<polygon fill="white" stroke="#bfbfbf" points="748.5,-0.5 748.5,-19.5 848.5,-19.5 848.5,-0.5 748.5,-0.5"/>
<text text-anchor="middle" x="798.5" y="-7.5" font-family="Helvetica,sans-Serif" font-size="10.00">Kokkos_Core.hpp</text>
</a>
</g>
</g>
<!-- Node10&#45;&gt;Node13 -->
<g id="edge13" class="edge">
<title>Node10&#45;&gt;Node13</title>
<path fill="none" stroke="midnightblue" d="M589.8,-56.44C633.06,-47.02 702.67,-31.87 749.47,-21.68"/>
<polygon fill="midnightblue" stroke="midnightblue" points="750.36,-25.06 759.39,-19.52 748.87,-18.22 750.36,-25.06"/>
</g>
<!-- Node19&#45;&gt;Node3 -->
<g id="edge25" class="edge">
<title>Node19&#45;&gt;Node3</title>
<path fill="none" stroke="midnightblue" d="M748.45,-168.47C702.2,-157.85 639.62,-143.47 597.3,-133.75"/>
<polygon fill="midnightblue" stroke="midnightblue" points="598.06,-130.33 587.53,-131.51 596.49,-137.16 598.06,-130.33"/>
</g>
<!-- Node19&#45;&gt;Node4 -->
<g id="edge24" class="edge">
<title>Node19&#45;&gt;Node4</title>
<path fill="none" stroke="midnightblue" d="M722.16,-175.63C645.19,-168.44 530.39,-154.92 432.5,-132 405.54,-125.69 400.34,-118.8 373.5,-112 297.72,-92.8 207.57,-79.36 154.92,-72.43"/>
<polygon fill="midnightblue" stroke="midnightblue" points="155.27,-68.94 144.9,-71.13 154.37,-75.89 155.27,-68.94"/>
</g>
<!-- Node19&#45;&gt;Node6 -->
<g id="edge32" class="edge">
<title>Node19&#45;&gt;Node6</title>
<path fill="none" stroke="midnightblue" d="M828.14,-168.37C843.83,-154.63 862.4,-132.83 853.5,-112 848.35,-99.95 838.22,-89.58 828.67,-81.84"/>
<polygon fill="midnightblue" stroke="midnightblue" points="830.67,-78.96 820.58,-75.74 826.46,-84.55 830.67,-78.96"/>
</g>
<!-- Node19&#45;&gt;Node13 -->
<g id="edge33" class="edge">
<title>Node19&#45;&gt;Node13</title>
<path fill="none" stroke="midnightblue" d="M896.52,-179.02C1023.33,-170.94 1235.73,-144.18 1157.5,-56 1114.85,-7.93 940,-27.2 859.02,-19.92"/>
<polygon fill="midnightblue" stroke="midnightblue" points="859.02,-16.4 848.7,-18.77 858.25,-23.35 859.02,-16.4"/>
</g>
<!-- Node19&#45;&gt;Node14 -->
<g id="edge45" class="edge">
<title>Node19&#45;&gt;Node14</title>
<path fill="none" stroke="midnightblue" d="M896.71,-177.15C963.18,-171.04 1046.87,-158.25 1068.5,-132 1085.81,-110.98 1053.61,-91.5 1025.7,-79.45"/>
<polygon fill="midnightblue" stroke="midnightblue" points="1026.68,-76.06 1016.1,-75.5 1024.02,-82.54 1026.68,-76.06"/>
</g>
<!-- Node19&#45;&gt;Node15 -->
<g id="edge47" class="edge">
<title>Node19&#45;&gt;Node15</title>
<path fill="none" stroke="midnightblue" d="M722.32,-180.73C629.4,-177.07 490.25,-165.89 450.5,-132 437.18,-120.65 432.58,-100.65 431.07,-85.83"/>
<polygon fill="midnightblue" stroke="midnightblue" points="434.55,-85.48 430.42,-75.73 427.57,-85.93 434.55,-85.48"/>
</g>
<!-- Node19&#45;&gt;Node16 -->
<g id="edge46" class="edge">
<title>Node19&#45;&gt;Node16</title>
<path fill="none" stroke="midnightblue" d="M722.1,-177.82C624.44,-171.65 461.59,-158.54 312.53,-131.9"/>
<polygon fill="midnightblue" stroke="midnightblue" points="312.74,-128.38 302.28,-130.04 311.5,-135.27 312.74,-128.38"/>
</g>
<!-- Node19&#45;&gt;Node17 -->
<g id="edge48" class="edge">
<title>Node19&#45;&gt;Node17</title>
<path fill="none" stroke="midnightblue" d="M722.33,-175.59C634.92,-167.89 496.71,-153.61 378.5,-132 377.25,-131.77 375.98,-131.53 374.7,-131.27"/>
<polygon fill="midnightblue" stroke="midnightblue" points="375.39,-127.83 364.87,-129.06 373.87,-134.66 375.39,-127.83"/>
</g>
<!-- Node19&#45;&gt;Node18 -->
<g id="edge49" class="edge">
<title>Node19&#45;&gt;Node18</title>
<path fill="none" stroke="midnightblue" d="M794.79,-168.34C772.28,-146.68 729.45,-105.45 705.95,-82.83"/>
<polygon fill="midnightblue" stroke="midnightblue" points="708.14,-80.08 698.51,-75.67 703.28,-85.13 708.14,-80.08"/>
</g>
<!-- Node20 -->
<g id="node20" class="node">
<title>Node20</title>
<g id="a_node20"><a xlink:href="_tensor_ops_8h.html" target="_top" xlink:title=" ">
<polygon fill="white" stroke="black" points="900,-112.5 900,-131.5 1059,-131.5 1059,-112.5 900,-112.5"/>
<text text-anchor="middle" x="979.5" y="-119.5" font-family="Helvetica,sans-Serif" font-size="10.00">master_element/TensorOps.h</text>
</a>
</g>
</g>
<!-- Node19&#45;&gt;Node20 -->
<g id="edge26" class="edge">
<title>Node19&#45;&gt;Node20</title>
<path fill="none" stroke="midnightblue" d="M849.79,-168.4C878.82,-158.24 917.58,-144.67 945.15,-135.02"/>
<polygon fill="midnightblue" stroke="midnightblue" points="946.48,-138.26 954.76,-131.66 944.17,-131.66 946.48,-138.26"/>
</g>
<!-- Node22 -->
<g id="node22" class="node">
<title>Node22</title>
<g id="a_node22"><a xlink:href="_eigen_decomposition_8h.html" target="_top" xlink:title=" ">
<polygon fill="white" stroke="black" points="1228.5,-112.5 1228.5,-131.5 1354.5,-131.5 1354.5,-112.5 1228.5,-112.5"/>
<text text-anchor="middle" x="1291.5" y="-119.5" font-family="Helvetica,sans-Serif" font-size="10.00">EigenDecomposition.h</text>
</a>
</g>
</g>
<!-- Node19&#45;&gt;Node22 -->
<g id="edge34" class="edge">
<title>Node19&#45;&gt;Node22</title>
<path fill="none" stroke="midnightblue" d="M896.51,-171.76C988.45,-160.41 1131.85,-142.71 1218.23,-132.04"/>
<polygon fill="midnightblue" stroke="midnightblue" points="1218.72,-135.51 1228.21,-130.81 1217.86,-128.56 1218.72,-135.51"/>
</g>
<!-- Node32 -->
<g id="node32" class="node">
<title>Node32</title>
<g id="a_node32"><a xlink:title=" ">
<polygon fill="white" stroke="#bfbfbf" points="775,-112.5 775,-131.5 844,-131.5 844,-112.5 775,-112.5"/>
<text text-anchor="middle" x="809.5" y="-119.5" font-family="Helvetica,sans-Serif" font-size="10.00">type_traits</text>
</a>
</g>
</g>
<!-- Node19&#45;&gt;Node32 -->
<g id="edge50" class="edge">
<title>Node19&#45;&gt;Node32</title>
<path fill="none" stroke="midnightblue" d="M809.5,-168.4C809.5,-160.47 809.5,-150.46 809.5,-141.86"/>
<polygon fill="midnightblue" stroke="midnightblue" points="813,-141.66 809.5,-131.66 806,-141.66 813,-141.66"/>
</g>
<!-- Node20&#45;&gt;Node6 -->
<g id="edge31" class="edge">
<title>Node20&#45;&gt;Node6</title>
<path fill="none" stroke="midnightblue" d="M952.09,-112.44C922.73,-103.28 875.98,-88.69 843.4,-78.52"/>
<polygon fill="midnightblue" stroke="midnightblue" points="844.37,-75.16 833.78,-75.52 842.29,-81.84 844.37,-75.16"/>
</g>
<!-- Node20&#45;&gt;Node10 -->
<g id="edge30" class="edge">
<title>Node20&#45;&gt;Node10</title>
<path fill="none" stroke="midnightblue" d="M911.52,-112.44C829.45,-102.11 692.54,-84.88 613,-74.87"/>
<polygon fill="midnightblue" stroke="midnightblue" points="613,-71.34 602.64,-73.56 612.12,-78.28 613,-71.34"/>
</g>
<!-- Node20&#45;&gt;Node14 -->
<g id="edge29" class="edge">
<title>Node20&#45;&gt;Node14</title>
<path fill="none" stroke="midnightblue" d="M981.48,-112.08C983.07,-104.93 985.36,-94.64 987.35,-85.69"/>
<polygon fill="midnightblue" stroke="midnightblue" points="990.8,-86.27 989.56,-75.75 983.97,-84.75 990.8,-86.27"/>
</g>
<!-- Node20&#45;&gt;Node18 -->
<g id="edge27" class="edge">
<title>Node20&#45;&gt;Node18</title>
<path fill="none" stroke="midnightblue" d="M933.55,-112.44C874.06,-101.37 771.95,-82.35 720.73,-72.81"/>
<polygon fill="midnightblue" stroke="midnightblue" points="721.08,-69.32 710.6,-70.93 719.79,-76.2 721.08,-69.32"/>
</g>
<!-- Node20&#45;&gt;Node21 -->
<g id="edge28" class="edge">
<title>Node20&#45;&gt;Node21</title>
<path fill="none" stroke="midnightblue" d="M1002.79,-112.44C1027.6,-103.33 1067.01,-88.85 1094.67,-78.69"/>
<polygon fill="midnightblue" stroke="midnightblue" points="1096.1,-81.9 1104.28,-75.16 1093.69,-75.33 1096.1,-81.9"/>
</g>
<!-- Node22&#45;&gt;Node6 -->
<g id="edge40" class="edge">
<title>Node22&#45;&gt;Node6</title>
<path fill="none" stroke="midnightblue" d="M1228.09,-113.94C1133.03,-103.36 955,-83.53 863.7,-73.37"/>
<polygon fill="midnightblue" stroke="midnightblue" points="863.87,-69.87 853.54,-72.24 863.1,-76.82 863.87,-69.87"/>
</g>
<!-- Node23 -->
<g id="node23" class="node">
<title>Node23</title>
<g id="a_node23"><a xlink:href="_field_type_def_8h.html" target="_top" xlink:title=" ">
<polygon fill="white" stroke="black" points="1247.5,-56.5 1247.5,-75.5 1335.5,-75.5 1335.5,-56.5 1247.5,-56.5"/>
<text text-anchor="middle" x="1291.5" y="-63.5" font-family="Helvetica,sans-Serif" font-size="10.00">FieldTypeDef.h</text>
</a>
</g>
</g>
<!-- Node22&#45;&gt;Node23 -->
<g id="edge35" class="edge">
<title>Node22&#45;&gt;Node23</title>
<path fill="none" stroke="midnightblue" d="M1291.5,-112.08C1291.5,-105.01 1291.5,-94.86 1291.5,-85.99"/>
<polygon fill="midnightblue" stroke="midnightblue" points="1295,-85.75 1291.5,-75.75 1288,-85.75 1295,-85.75"/>
</g>
<!-- Node22&#45;&gt;Node28 -->
<g id="edge41" class="edge">
<title>Node22&#45;&gt;Node28</title>
<path fill="none" stroke="midnightblue" d="M1343.31,-112.44C1407.53,-101.84 1515.78,-83.96 1575.58,-74.09"/>
<polygon fill="midnightblue" stroke="midnightblue" points="1576.51,-77.48 1585.81,-72.4 1575.37,-70.58 1576.51,-77.48"/>
</g>
<!-- Node24 -->
<g id="node24" class="node">
<title>Node24</title>
<g id="a_node24"><a xlink:title=" ">
<polygon fill="white" stroke="#bfbfbf" points="1253,-0.5 1253,-19.5 1414,-19.5 1414,-0.5 1253,-0.5"/>
<text text-anchor="middle" x="1333.5" y="-7.5" font-family="Helvetica,sans-Serif" font-size="10.00">stk_mesh/base/FieldBase.hpp</text>
</a>
</g>
</g>
<!-- Node23&#45;&gt;Node24 -->
<g id="edge36" class="edge">
<title>Node23&#45;&gt;Node24</title>
<path fill="none" stroke="midnightblue" d="M1298.44,-56.08C1304.43,-48.38 1313.25,-37.03 1320.55,-27.65"/>
<polygon fill="midnightblue" stroke="midnightblue" points="1323.32,-29.79 1326.69,-19.75 1317.79,-25.5 1323.32,-29.79"/>
</g>
<!-- Node25 -->
<g id="node25" class="node">
<title>Node25</title>
<g id="a_node25"><a xlink:title=" ">
<polygon fill="white" stroke="#bfbfbf" points="1432.5,-0.5 1432.5,-19.5 1566.5,-19.5 1566.5,-0.5 1432.5,-0.5"/>
<text text-anchor="middle" x="1499.5" y="-7.5" font-family="Helvetica,sans-Serif" font-size="10.00">stk_mesh/base/Ngp.hpp</text>
</a>
</g>
</g>
<!-- Node23&#45;&gt;Node25 -->
<g id="edge37" class="edge">
<title>Node23&#45;&gt;Node25</title>
<path fill="none" stroke="midnightblue" d="M1324.46,-56.44C1360.29,-47.14 1417.66,-32.25 1456.89,-22.06"/>
<polygon fill="midnightblue" stroke="midnightblue" points="1457.9,-25.42 1466.7,-19.52 1456.14,-18.64 1457.9,-25.42"/>
</g>
<!-- Node26 -->
<g id="node26" class="node">
<title>Node26</title>
<g id="a_node26"><a xlink:title=" ">
<polygon fill="white" stroke="#bfbfbf" points="995,-0.5 995,-19.5 1152,-19.5 1152,-0.5 995,-0.5"/>
<text text-anchor="middle" x="1073.5" y="-7.5" font-family="Helvetica,sans-Serif" font-size="10.00">stk_mesh/base/NgpField.hpp</text>
</a>
</g>
</g>
<!-- Node23&#45;&gt;Node26 -->
<g id="edge38" class="edge">
<title>Node23&#45;&gt;Node26</title>
<path fill="none" stroke="midnightblue" d="M1256.96,-56.44C1219.25,-47.1 1158.76,-32.12 1117.64,-21.93"/>
<polygon fill="midnightblue" stroke="midnightblue" points="1118.43,-18.52 1107.88,-19.52 1116.75,-25.32 1118.43,-18.52"/>
</g>
<!-- Node27 -->
<g id="node27" class="node">
<title>Node27</title>
<g id="a_node27"><a xlink:title=" ">
<polygon fill="white" stroke="#bfbfbf" points="1170,-0.5 1170,-19.5 1235,-19.5 1235,-0.5 1170,-0.5"/>
<text text-anchor="middle" x="1202.5" y="-7.5" font-family="Helvetica,sans-Serif" font-size="10.00">functional</text>
</a>
</g>
</g>
<!-- Node23&#45;&gt;Node27 -->
<g id="edge39" class="edge">
<title>Node23&#45;&gt;Node27</title>
<path fill="none" stroke="midnightblue" d="M1277.2,-56.32C1263.32,-47.9 1242.01,-34.97 1225.7,-25.07"/>
<polygon fill="midnightblue" stroke="midnightblue" points="1227.13,-21.85 1216.76,-19.65 1223.5,-27.83 1227.13,-21.85"/>
</g>
<!-- Node29 -->
<g id="node29" class="node">
<title>Node29</title>
<g id="a_node29"><a xlink:title=" ">
<polygon fill="white" stroke="#bfbfbf" points="1670.5,-0.5 1670.5,-19.5 1714.5,-19.5 1714.5,-0.5 1670.5,-0.5"/>
<text text-anchor="middle" x="1692.5" y="-7.5" font-family="Helvetica,sans-Serif" font-size="10.00">mpi.h</text>
</a>
</g>
</g>
<!-- Node28&#45;&gt;Node29 -->
<g id="edge42" class="edge">
<title>Node28&#45;&gt;Node29</title>
<path fill="none" stroke="midnightblue" d="M1630.39,-56.32C1641.65,-48.11 1658.79,-35.6 1672.21,-25.81"/>
<polygon fill="midnightblue" stroke="midnightblue" points="1674.38,-28.56 1680.39,-19.83 1670.25,-22.9 1674.38,-28.56"/>
</g>
<!-- Node30 -->
<g id="node30" class="node">
<title>Node30</title>
<g id="a_node30"><a xlink:title=" ">
<polygon fill="white" stroke="#bfbfbf" points="1733,-0.5 1733,-19.5 1788,-19.5 1788,-0.5 1733,-0.5"/>
<text text-anchor="middle" x="1760.5" y="-7.5" font-family="Helvetica,sans-Serif" font-size="10.00">fstream</text>
</a>
</g>
</g>
<!-- Node28&#45;&gt;Node30 -->
<g id="edge43" class="edge">
<title>Node28&#45;&gt;Node30</title>
<path fill="none" stroke="midnightblue" d="M1641,-56.44C1664.58,-47.48 1701.82,-33.31 1728.46,-23.18"/>
<polygon fill="midnightblue" stroke="midnightblue" points="1730,-26.34 1738.1,-19.52 1727.51,-19.8 1730,-26.34"/>
</g>
<!-- Node31 -->
<g id="node31" class="node">
<title>Node31</title>
<g id="a_node31"><a xlink:title=" ">
<polygon fill="white" stroke="#bfbfbf" points="1585,-0.5 1585,-19.5 1652,-19.5 1652,-0.5 1585,-0.5"/>
<text text-anchor="middle" x="1618.5" y="-7.5" font-family="Helvetica,sans-Serif" font-size="10.00">streambuf</text>
</a>
</g>
</g>
<!-- Node28&#45;&gt;Node31 -->
<g id="edge44" class="edge">
<title>Node28&#45;&gt;Node31</title>
<path fill="none" stroke="midnightblue" d="M1618.5,-56.08C1618.5,-49.01 1618.5,-38.86 1618.5,-29.99"/>
<polygon fill="midnightblue" stroke="midnightblue" points="1622,-29.75 1618.5,-19.75 1615,-29.75 1622,-29.75"/>
</g>
</g>
</svg>
        <g id="navigator" transform="translate(0 0)" fill="#404254">
                <rect fill="#f2f5e9" fill-opacity="0.5" stroke="#606060" stroke-width=".5" x="0" y="0" width="60" height="60"/>
                <use id="zoomplus" xlink:href="#zoomPlus" x="17" y="9" onmousedown="handleZoom(evt,'in')"/>
                <use id="zoomminus" xlink:href="#zoomMin" x="42" y="9" onmousedown="handleZoom(evt,'out')"/>
                <use id="reset" xlink:href="#resetDef" x="30" y="36" onmousedown="handleReset()"/>
                <g id="arrowUp" xlink:href="#dirArrow" transform="translate(30 24)" onmousedown="handlePan(0,-1)">
                  <use xlink:href="#rim" fill="#404040">
                        <set attributeName="fill" to="#808080" begin="arrowUp.mouseover" end="arrowUp.mouseout"/>
                  </use>
                  <path fill="none" stroke="white" stroke-width="1.5" d="M0,-3.0v7 M-2.5,-0.5L0,-3.0L2.5,-0.5"/>
                </g>
                <g id="arrowRight" xlink:href="#dirArrow" transform="rotate(90) translate(36 -43)" onmousedown="handlePan(1,0)">
                  <use xlink:href="#rim" fill="#404040">
                        <set attributeName="fill" to="#808080" begin="arrowRight.mouseover" end="arrowRight.mouseout"/>
                  </use>
                  <path fill="none" stroke="white" stroke-width="1.5" d="M0,-3.0v7 M-2.5,-0.5L0,-3.0L2.5,-0.5"/>
                </g>
                <g id="arrowDown" xlink:href="#dirArrow" transform="rotate(180) translate(-30 -48)" onmousedown="handlePan(0,1)">
                  <use xlink:href="#rim" fill="#404040">
                        <set attributeName="fill" to="#808080" begin="arrowDown.mouseover" end="arrowDown.mouseout"/>
                  </use>
                  <path fill="none" stroke="white" stroke-width="1.5" d="M0,-3.0v7 M-2.5,-0.5L0,-3.0L2.5,-0.5"/>
                </g>
                <g id="arrowLeft" xlink:href="#dirArrow" transform="rotate(270) translate(-36 17)" onmousedown="handlePan(-1,0)">
                  <use xlink:href="#rim" fill="#404040">
                        <set attributeName="fill" to="#808080" begin="arrowLeft.mouseover" end="arrowLeft.mouseout"/>
                  </use>
                  <path fill="none" stroke="white" stroke-width="1.5" d="M0,-3.0v7 M-2.5,-0.5L0,-3.0L2.5,-0.5"/>
                </g>
        </g>
        <svg viewBox="0 0 15 15" width="100%" height="30px" preserveAspectRatio="xMaxYMin meet">
         <g id="arrow_out" transform="scale(0.3 0.3)">
          <a xlink:href="_tri32_d_c_v_f_e_m_8_c__incl_org.svg" target="_base">
           <rect id="button" ry="5" rx="5" y="6" x="6" height="38" width="38"
                fill="#f2f5e9" fill-opacity="0.5" stroke="#606060" stroke-width="1.0"/>
           <path id="arrow"
             d="M 11.500037,31.436501 C 11.940474,20.09759 22.043105,11.32322 32.158766,21.979434 L 37.068811,17.246167 C 37.068811,17.246167 37.088388,32 37.088388,32 L 22.160133,31.978069 C 22.160133,31.978069 26.997745,27.140456 26.997745,27.140456 C 18.528582,18.264221 13.291696,25.230495 11.500037,31.436501 z"
             style="fill:#404040;"/>
          </a>
         </g>
        </svg>
</svg>
