<?xml version="1.0" encoding="UTF-8" standalone="no"?>
<!DOCTYPE svg PUBLIC "-//W3C//DTD SVG 1.1//EN"
 "http://www.w3.org/Graphics/SVG/1.1/DTD/svg11.dtd">
<!-- Generated by graphviz version 2.43.0 (0)
 -->
<!-- Title: TurbulenceAveragingPostProcessing.h Pages: 1 -->
<svg width="421pt" height="82pt"
 viewBox="0.00 0.00 421.00 82.00" xmlns="http://www.w3.org/2000/svg" xmlns:xlink="http://www.w3.org/1999/xlink">
<g id="graph0" class="graph" transform="scale(1 1) rotate(0) translate(4 78)">
<title>TurbulenceAveragingPostProcessing.h</title>
<!-- Node1 -->
<g id="Node000001" class="node">
<title>Node1</title>
<g id="a_Node000001"><a xlink:title=" ">
<polygon fill="#999999" stroke="#666666" points="264.5,-74 64.5,-74 64.5,-55 264.5,-55 264.5,-74"/>
<text text-anchor="middle" x="164.5" y="-62" font-family="Helvetica,sans-Serif" font-size="10.00">TurbulenceAveragingPostProcessing.h</text>
</a>
</g>
</g>
<!-- Node2 -->
<g id="Node000002" class="node">
<title>Node2</title>
<g id="a_Node000002"><a xlink:href="_bdy_layer_statistics_8_c.html" target="_top" xlink:title=" ">
<polygon fill="white" stroke="#666666" points="117,-19 0,-19 0,0 117,0 117,-19"/>
<text text-anchor="middle" x="58.5" y="-7" font-family="Helvetica,sans-Serif" font-size="10.00">BdyLayerStatistics.C</text>
</a>
</g>
</g>
<!-- Node1&#45;&gt;Node2 -->
<g id="edge1_Node000001_Node000002" class="edge">
<title>Node1&#45;&gt;Node2</title>
<g id="a_edge1_Node000001_Node000002"><a xlink:title=" ">
<path fill="none" stroke="#63b8ff" d="M138.5,-50.5C119,-40.75 92.85,-27.68 75.84,-19.17"/>
<polygon fill="#63b8ff" stroke="#63b8ff" points="136.96,-53.64 147.47,-54.98 140.09,-47.38 136.96,-53.64"/>
</a>
</g>
</g>
<!-- Node3 -->
<g id="Node000003" class="node">
<title>Node3</title>
<g id="a_Node000003"><a xlink:href="_realm_8_c.html" target="_top" xlink:title=" ">
<polygon fill="white" stroke="#666666" points="193.5,-19 135.5,-19 135.5,0 193.5,0 193.5,-19"/>
<text text-anchor="middle" x="164.5" y="-7" font-family="Helvetica,sans-Serif" font-size="10.00">Realm.C</text>
</a>
</g>
</g>
<!-- Node1&#45;&gt;Node3 -->
<g id="edge2_Node000001_Node000003" class="edge">
<title>Node1&#45;&gt;Node3</title>
<g id="a_edge2_Node000001_Node000003"><a xlink:title=" ">
<path fill="none" stroke="#63b8ff" d="M164.5,-44.66C164.5,-35.93 164.5,-25.99 164.5,-19.09"/>
<polygon fill="#63b8ff" stroke="#63b8ff" points="161,-44.75 164.5,-54.75 168,-44.75 161,-44.75"/>
</a>
</g>
</g>
<!-- Node4 -->
<g id="Node000004" class="node">
<title>Node4</title>
<g id="a_Node000004"><a xlink:href="_turbulence_averaging_post_processing_8_c.html" target="_top" xlink:title=" ">
<polygon fill="white" stroke="#666666" points="413,-19 212,-19 212,0 413,0 413,-19"/>
<text text-anchor="middle" x="312.5" y="-7" font-family="Helvetica,sans-Serif" font-size="10.00">TurbulenceAveragingPostProcessing.C</text>
</a>
</g>
</g>
<!-- Node1&#45;&gt;Node4 -->
<g id="edge3_Node000001_Node000004" class="edge">
<title>Node1&#45;&gt;Node4</title>
<g id="a_edge3_Node000001_Node000004"><a xlink:title=" ">
<path fill="none" stroke="#63b8ff" d="M197.87,-51.55C225.35,-41.71 263.67,-27.98 288.29,-19.17"/>
<polygon fill="#63b8ff" stroke="#63b8ff" points="196.51,-48.32 188.28,-54.98 198.87,-54.91 196.51,-48.32"/>
</a>
</g>
</g>
</g>
</svg>
