<?xml version="1.0" encoding="UTF-8" standalone="no"?>
<!DOCTYPE svg PUBLIC "-//W3C//DTD SVG 1.1//EN"
 "http://www.w3.org/Graphics/SVG/1.1/DTD/svg11.dtd">
<!-- Generated by graphviz version 2.43.0 (0)
 -->
<!-- Title: TurbulenceAveragingPostProcessing.h Pages: 1 -->
<svg width="421pt" height="84pt"
 viewBox="0.00 0.00 420.50 84.00" xmlns="http://www.w3.org/2000/svg" xmlns:xlink="http://www.w3.org/1999/xlink">
<g id="graph0" class="graph" transform="scale(1 1) rotate(0) translate(4 80)">
<title>TurbulenceAveragingPostProcessing.h</title>
<polygon fill="white" stroke="transparent" points="-4,4 -4,-80 416.5,-80 416.5,4 -4,4"/>
<!-- Node1 -->
<g id="node1" class="node">
<title>Node1</title>
<g id="a_node1"><a xlink:title=" ">
<polygon fill="#bfbfbf" stroke="black" points="77,-56.5 77,-75.5 277,-75.5 277,-56.5 77,-56.5"/>
<text text-anchor="middle" x="177" y="-63.5" font-family="Helvetica,sans-Serif" font-size="10.00">TurbulenceAveragingPostProcessing.h</text>
</a>
</g>
</g>
<!-- Node2 -->
<g id="node2" class="node">
<title>Node2</title>
<g id="a_node2"><a xlink:href="_realm_8_c.html" target="_top" xlink:title=" ">
<polygon fill="white" stroke="black" points="0,-0.5 0,-19.5 58,-19.5 58,-0.5 0,-0.5"/>
<text text-anchor="middle" x="29" y="-7.5" font-family="Helvetica,sans-Serif" font-size="10.00">Realm.C</text>
</a>
</g>
</g>
<!-- Node1&#45;&gt;Node2 -->
<g id="edge1" class="edge">
<title>Node1&#45;&gt;Node2</title>
<path fill="none" stroke="midnightblue" d="M143.85,-52.91C116.03,-42.75 76.98,-28.51 52.34,-19.52"/>
<polygon fill="midnightblue" stroke="midnightblue" points="142.96,-56.3 153.55,-56.44 145.35,-49.73 142.96,-56.3"/>
</g>
<!-- Node3 -->
<g id="node3" class="node">
<title>Node3</title>
<g id="a_node3"><a xlink:href="_turbulence_averaging_post_processing_8_c.html" target="_top" xlink:title=" ">
<polygon fill="white" stroke="black" points="76.5,-0.5 76.5,-19.5 277.5,-19.5 277.5,-0.5 76.5,-0.5"/>
<text text-anchor="middle" x="177" y="-7.5" font-family="Helvetica,sans-Serif" font-size="10.00">TurbulenceAveragingPostProcessing.C</text>
</a>
</g>
</g>
<!-- Node1&#45;&gt;Node3 -->
<g id="edge2" class="edge">
<title>Node1&#45;&gt;Node3</title>
<path fill="none" stroke="midnightblue" d="M177,-45.8C177,-36.91 177,-26.78 177,-19.75"/>
<polygon fill="midnightblue" stroke="midnightblue" points="173.5,-46.08 177,-56.08 180.5,-46.08 173.5,-46.08"/>
</g>
<!-- Node4 -->
<g id="node4" class="node">
<title>Node4</title>
<g id="a_node4"><a xlink:href="_bdy_layer_statistics_8_c.html" target="_top" xlink:title=" ">
<polygon fill="white" stroke="black" points="295.5,-0.5 295.5,-19.5 412.5,-19.5 412.5,-0.5 295.5,-0.5"/>
<text text-anchor="middle" x="354" y="-7.5" font-family="Helvetica,sans-Serif" font-size="10.00">BdyLayerStatistics.C</text>
</a>
</g>
</g>
<!-- Node1&#45;&gt;Node4 -->
<g id="edge3" class="edge">
<title>Node1&#45;&gt;Node4</title>
<path fill="none" stroke="midnightblue" d="M214.9,-53.44C248.28,-43.26 296.1,-28.66 326.09,-19.52"/>
<polygon fill="midnightblue" stroke="midnightblue" points="213.59,-50.18 205.05,-56.44 215.63,-56.87 213.59,-50.18"/>
</g>
</g>
</svg>
