<?xml version="1.0" encoding="UTF-8" standalone="no"?>
<!DOCTYPE svg PUBLIC "-//W3C//DTD SVG 1.1//EN"
 "http://www.w3.org/Graphics/SVG/1.1/DTD/svg11.dtd">
<!-- Generated by graphviz version 2.43.0 (0)
 -->
<!-- Title: TurbViscWaleAlgorithm.C Pages: 1 -->
<svg width="2607pt" height="357pt"
 viewBox="0.00 0.00 2606.50 357.00" xmlns="http://www.w3.org/2000/svg" xmlns:xlink="http://www.w3.org/1999/xlink">
<g id="graph0" class="graph" transform="scale(1 1) rotate(0) translate(4 353)">
<title>TurbViscWaleAlgorithm.C</title>
<!-- Node1 -->
<g id="Node000001" class="node">
<title>Node1</title>
<g id="a_Node000001"><a xlink:title=" ">
<polygon fill="#999999" stroke="#666666" points="2125.5,-349 1986.5,-349 1986.5,-330 2125.5,-330 2125.5,-349"/>
<text text-anchor="middle" x="2056" y="-337" font-family="Helvetica,sans-Serif" font-size="10.00">TurbViscWaleAlgorithm.C</text>
</a>
</g>
</g>
<!-- Node2 -->
<g id="Node000002" class="node">
<title>Node2</title>
<g id="a_Node000002"><a xlink:href="_turb_visc_wale_algorithm_8h.html" target="_top" xlink:title=" ">
<polygon fill="white" stroke="#666666" points="172,-294 34,-294 34,-275 172,-275 172,-294"/>
<text text-anchor="middle" x="103" y="-282" font-family="Helvetica,sans-Serif" font-size="10.00">TurbViscWaleAlgorithm.h</text>
</a>
</g>
</g>
<!-- Node1&#45;&gt;Node2 -->
<g id="edge1_Node000001_Node000002" class="edge">
<title>Node1&#45;&gt;Node2</title>
<g id="a_edge1_Node000001_Node000002"><a xlink:title=" ">
<path fill="none" stroke="#63b8ff" d="M1986.49,-336.61C1686.18,-328.46 500.95,-296.3 182.26,-287.65"/>
<polygon fill="#63b8ff" stroke="#63b8ff" points="182.27,-284.15 172.18,-287.38 182.08,-291.15 182.27,-284.15"/>
</a>
</g>
</g>
<!-- Node3 -->
<g id="Node000003" class="node">
<title>Node3</title>
<g id="a_Node000003"><a xlink:href="_algorithm_8h.html" target="_top" xlink:title=" ">
<polygon fill="white" stroke="#666666" points="140,-239 66,-239 66,-220 140,-220 140,-239"/>
<text text-anchor="middle" x="103" y="-227" font-family="Helvetica,sans-Serif" font-size="10.00">Algorithm.h</text>
</a>
</g>
</g>
<!-- Node1&#45;&gt;Node3 -->
<g id="edge9_Node000001_Node000003" class="edge">
<title>Node1&#45;&gt;Node3</title>
<g id="a_edge9_Node000001_Node000003"><a xlink:title=" ">
<path fill="none" stroke="#63b8ff" d="M1986.2,-337.13C1797.77,-333.18 1263.05,-320.34 819,-294 522.96,-276.44 448.29,-275.63 154,-239 152.75,-238.84 151.48,-238.68 150.2,-238.51"/>
<polygon fill="#63b8ff" stroke="#63b8ff" points="150.67,-235.04 140.27,-237.08 149.67,-241.97 150.67,-235.04"/>
</a>
</g>
</g>
<!-- Node5 -->
<g id="Node000005" class="node">
<title>Node5</title>
<g id="a_Node000005"><a xlink:href="_field_type_def_8h.html" target="_top" xlink:title=" ">
<polygon fill="white" stroke="#666666" points="690,-74 602,-74 602,-55 690,-55 690,-74"/>
<text text-anchor="middle" x="646" y="-62" font-family="Helvetica,sans-Serif" font-size="10.00">FieldTypeDef.h</text>
</a>
</g>
</g>
<!-- Node1&#45;&gt;Node5 -->
<g id="edge10_Node000001_Node000005" class="edge">
<title>Node1&#45;&gt;Node5</title>
<g id="a_edge10_Node000001_Node000005"><a xlink:title=" ">
<path fill="none" stroke="#63b8ff" d="M1986.46,-338.03C1634.66,-335.5 66.09,-322.65 25,-294 0.12,-276.65 0,-260.83 0,-230.5 0,-230.5 0,-230.5 0,-173.5 0,-93.26 90.81,-128 169,-110 319.47,-75.37 502.56,-67.56 591.82,-65.89"/>
<polygon fill="#63b8ff" stroke="#63b8ff" points="592.04,-69.39 601.98,-65.72 591.92,-62.39 592.04,-69.39"/>
</a>
</g>
</g>
<!-- Node10 -->
<g id="Node000010" class="node">
<title>Node10</title>
<g id="a_Node000010"><a xlink:href="_realm_8h.html" target="_top" xlink:title=" ">
<polygon fill="white" stroke="#666666" points="884.5,-294 827.5,-294 827.5,-275 884.5,-275 884.5,-294"/>
<text text-anchor="middle" x="856" y="-282" font-family="Helvetica,sans-Serif" font-size="10.00">Realm.h</text>
</a>
</g>
</g>
<!-- Node1&#45;&gt;Node10 -->
<g id="edge11_Node000001_Node000010" class="edge">
<title>Node1&#45;&gt;Node10</title>
<g id="a_edge11_Node000001_Node000010"><a xlink:title=" ">
<path fill="none" stroke="#63b8ff" d="M1986.3,-335.42C1762.51,-325.54 1066.81,-294.81 894.77,-287.21"/>
<polygon fill="#63b8ff" stroke="#63b8ff" points="894.81,-283.71 884.66,-286.77 894.5,-290.7 894.81,-283.71"/>
</a>
</g>
</g>
<!-- Node32 -->
<g id="Node000032" class="node">
<title>Node32</title>
<g id="a_Node000032"><a xlink:title=" ">
<polygon fill="#e0e0e0" stroke="#999999" points="2028.5,-129 1869.5,-129 1869.5,-110 2028.5,-110 2028.5,-129"/>
<text text-anchor="middle" x="1949" y="-117" font-family="Helvetica,sans-Serif" font-size="10.00">stk_mesh/base/BulkData.hpp</text>
</a>
</g>
</g>
<!-- Node1&#45;&gt;Node32 -->
<g id="edge75_Node000001_Node000032" class="edge">
<title>Node1&#45;&gt;Node32</title>
<g id="a_edge75_Node000001_Node000032"><a xlink:title=" ">
<path fill="none" stroke="#63b8ff" d="M2057.68,-329.95C2062.5,-302.93 2073.75,-218.06 2037,-165 2026.49,-149.82 2009.22,-139.54 1992.75,-132.71"/>
<polygon fill="#63b8ff" stroke="#63b8ff" points="1993.79,-129.37 1983.2,-129.09 1991.3,-135.91 1993.79,-129.37"/>
</a>
</g>
</g>
<!-- Node33 -->
<g id="Node000033" class="node">
<title>Node33</title>
<g id="a_Node000033"><a xlink:title=" ">
<polygon fill="#e0e0e0" stroke="#999999" points="2209,-129 2047,-129 2047,-110 2209,-110 2209,-129"/>
<text text-anchor="middle" x="2128" y="-117" font-family="Helvetica,sans-Serif" font-size="10.00">stk_mesh/base/MetaData.hpp</text>
</a>
</g>
</g>
<!-- Node1&#45;&gt;Node33 -->
<g id="edge77_Node000001_Node000033" class="edge">
<title>Node1&#45;&gt;Node33</title>
<g id="a_edge77_Node000001_Node000033"><a xlink:title=" ">
<path fill="none" stroke="#63b8ff" d="M2058.82,-329.95C2069.44,-297.81 2107.12,-183.72 2121.95,-138.83"/>
<polygon fill="#63b8ff" stroke="#63b8ff" points="2125.31,-139.82 2125.12,-129.22 2118.66,-137.62 2125.31,-139.82"/>
</a>
</g>
</g>
<!-- Node37 -->
<g id="Node000037" class="node">
<title>Node37</title>
<g id="a_Node000037"><a xlink:title=" ">
<polygon fill="#e0e0e0" stroke="#999999" points="2292,-294 2122,-294 2122,-275 2292,-275 2292,-294"/>
<text text-anchor="middle" x="2207" y="-282" font-family="Helvetica,sans-Serif" font-size="10.00">stk_mesh/base/GetBuckets.hpp</text>
</a>
</g>
</g>
<!-- Node1&#45;&gt;Node37 -->
<g id="edge76_Node000001_Node000037" class="edge">
<title>Node1&#45;&gt;Node37</title>
<g id="a_edge76_Node000001_Node000037"><a xlink:title=" ">
<path fill="none" stroke="#63b8ff" d="M2080.26,-329.98C2105.32,-321.19 2144.63,-307.39 2172.83,-297.49"/>
<polygon fill="#63b8ff" stroke="#63b8ff" points="2174.02,-300.78 2182.3,-294.17 2171.7,-294.18 2174.02,-300.78"/>
</a>
</g>
</g>
<!-- Node38 -->
<g id="Node000038" class="node">
<title>Node38</title>
<g id="a_Node000038"><a xlink:title=" ">
<polygon fill="#e0e0e0" stroke="#999999" points="2443.5,-294 2310.5,-294 2310.5,-275 2443.5,-275 2443.5,-294"/>
<text text-anchor="middle" x="2377" y="-282" font-family="Helvetica,sans-Serif" font-size="10.00">stk_mesh/base/Part.hpp</text>
</a>
</g>
</g>
<!-- Node1&#45;&gt;Node38 -->
<g id="edge78_Node000001_Node000038" class="edge">
<title>Node1&#45;&gt;Node38</title>
<g id="a_edge78_Node000001_Node000038"><a xlink:title=" ">
<path fill="none" stroke="#63b8ff" d="M2107.57,-329.98C2164.12,-320.65 2254.81,-305.67 2315.14,-295.71"/>
<polygon fill="#63b8ff" stroke="#63b8ff" points="2315.99,-299.12 2325.29,-294.04 2314.85,-292.21 2315.99,-299.12"/>
</a>
</g>
</g>
<!-- Node39 -->
<g id="Node000039" class="node">
<title>Node39</title>
<g id="a_Node000039"><a xlink:title=" ">
<polygon fill="#e0e0e0" stroke="#999999" points="2598.5,-294 2461.5,-294 2461.5,-275 2598.5,-275 2598.5,-294"/>
<text text-anchor="middle" x="2530" y="-282" font-family="Helvetica,sans-Serif" font-size="10.00">stk_mesh/base/Field.hpp</text>
</a>
</g>
</g>
<!-- Node1&#45;&gt;Node39 -->
<g id="edge79_Node000001_Node000039" class="edge">
<title>Node1&#45;&gt;Node39</title>
<g id="a_edge79_Node000001_Node000039"><a xlink:title=" ">
<path fill="none" stroke="#63b8ff" d="M2125.69,-330.71C2212.5,-321 2360.44,-304.46 2451.27,-294.3"/>
<polygon fill="#63b8ff" stroke="#63b8ff" points="2451.68,-297.78 2461.23,-293.19 2450.91,-290.82 2451.68,-297.78"/>
</a>
</g>
</g>
<!-- Node2&#45;&gt;Node3 -->
<g id="edge2_Node000002_Node000003" class="edge">
<title>Node2&#45;&gt;Node3</title>
<g id="a_edge2_Node000002_Node000003"><a xlink:title=" ">
<path fill="none" stroke="#63b8ff" d="M103,-274.75C103,-267.8 103,-257.85 103,-249.13"/>
<polygon fill="#63b8ff" stroke="#63b8ff" points="106.5,-249.09 103,-239.09 99.5,-249.09 106.5,-249.09"/>
</a>
</g>
</g>
<!-- Node2&#45;&gt;Node5 -->
<g id="edge4_Node000002_Node000005" class="edge">
<title>Node2&#45;&gt;Node5</title>
<g id="a_edge4_Node000002_Node000005"><a xlink:title=" ">
<path fill="none" stroke="#63b8ff" d="M88.93,-274.91C71.48,-263.11 45.39,-240.96 57,-220 101.72,-139.32 145.82,-140.15 233,-110 297.94,-87.54 495.03,-73.86 591.56,-68.33"/>
<polygon fill="#63b8ff" stroke="#63b8ff" points="591.91,-71.82 601.7,-67.76 591.52,-64.83 591.91,-71.82"/>
</a>
</g>
</g>
<!-- Node4 -->
<g id="Node000004" class="node">
<title>Node4</title>
<g id="a_Node000004"><a xlink:title=" ">
<polygon fill="#e0e0e0" stroke="#999999" points="322.5,-129 275.5,-129 275.5,-110 322.5,-110 322.5,-129"/>
<text text-anchor="middle" x="299" y="-117" font-family="Helvetica,sans-Serif" font-size="10.00">vector</text>
</a>
</g>
</g>
<!-- Node3&#45;&gt;Node4 -->
<g id="edge3_Node000003_Node000004" class="edge">
<title>Node3&#45;&gt;Node4</title>
<g id="a_edge3_Node000003_Node000004"><a xlink:title=" ">
<path fill="none" stroke="#63b8ff" d="M109.25,-219.82C119.45,-206.26 140.97,-180.03 165,-165 196.28,-145.43 237.1,-133.49 265.43,-126.97"/>
<polygon fill="#63b8ff" stroke="#63b8ff" points="266.24,-130.38 275.26,-124.81 264.74,-123.54 266.24,-130.38"/>
</a>
</g>
</g>
<!-- Node6 -->
<g id="Node000006" class="node">
<title>Node6</title>
<g id="a_Node000006"><a xlink:title=" ">
<polygon fill="#e0e0e0" stroke="#999999" points="792.5,-19 631.5,-19 631.5,0 792.5,0 792.5,-19"/>
<text text-anchor="middle" x="712" y="-7" font-family="Helvetica,sans-Serif" font-size="10.00">stk_mesh/base/FieldBase.hpp</text>
</a>
</g>
</g>
<!-- Node5&#45;&gt;Node6 -->
<g id="edge5_Node000005_Node000006" class="edge">
<title>Node5&#45;&gt;Node6</title>
<g id="a_edge5_Node000005_Node000006"><a xlink:title=" ">
<path fill="none" stroke="#63b8ff" d="M656.6,-54.98C666.46,-47.07 681.35,-35.11 693.22,-25.58"/>
<polygon fill="#63b8ff" stroke="#63b8ff" points="695.6,-28.16 701.2,-19.17 691.21,-22.7 695.6,-28.16"/>
</a>
</g>
</g>
<!-- Node7 -->
<g id="Node000007" class="node">
<title>Node7</title>
<g id="a_Node000007"><a xlink:title=" ">
<polygon fill="#e0e0e0" stroke="#999999" points="1757,-19 1623,-19 1623,0 1757,0 1757,-19"/>
<text text-anchor="middle" x="1690" y="-7" font-family="Helvetica,sans-Serif" font-size="10.00">stk_mesh/base/Ngp.hpp</text>
</a>
</g>
</g>
<!-- Node5&#45;&gt;Node7 -->
<g id="edge6_Node000005_Node000007" class="edge">
<title>Node5&#45;&gt;Node7</title>
<g id="a_edge6_Node000005_Node000007"><a xlink:title=" ">
<path fill="none" stroke="#63b8ff" d="M690.45,-62.49C826.66,-59.18 1250.49,-47.25 1612.73,-19.04"/>
<polygon fill="#63b8ff" stroke="#63b8ff" points="1613.19,-22.52 1622.89,-18.25 1612.64,-15.54 1613.19,-22.52"/>
</a>
</g>
</g>
<!-- Node8 -->
<g id="Node000008" class="node">
<title>Node8</title>
<g id="a_Node000008"><a xlink:title=" ">
<polygon fill="#e0e0e0" stroke="#999999" points="1604.5,-19 1447.5,-19 1447.5,0 1604.5,0 1604.5,-19"/>
<text text-anchor="middle" x="1526" y="-7" font-family="Helvetica,sans-Serif" font-size="10.00">stk_mesh/base/NgpField.hpp</text>
</a>
</g>
</g>
<!-- Node5&#45;&gt;Node8 -->
<g id="edge7_Node000005_Node000008" class="edge">
<title>Node5&#45;&gt;Node8</title>
<g id="a_edge7_Node000005_Node000008"><a xlink:title=" ">
<path fill="none" stroke="#63b8ff" d="M690.24,-60.84C828.08,-52.53 1251.61,-27.03 1437.25,-15.84"/>
<polygon fill="#63b8ff" stroke="#63b8ff" points="1437.48,-19.34 1447.26,-15.24 1437.06,-12.35 1437.48,-19.34"/>
</a>
</g>
</g>
<!-- Node9 -->
<g id="Node000009" class="node">
<title>Node9</title>
<g id="a_Node000009"><a xlink:title=" ">
<polygon fill="#e0e0e0" stroke="#999999" points="613.5,-19 548.5,-19 548.5,0 613.5,0 613.5,-19"/>
<text text-anchor="middle" x="581" y="-7" font-family="Helvetica,sans-Serif" font-size="10.00">functional</text>
</a>
</g>
</g>
<!-- Node5&#45;&gt;Node9 -->
<g id="edge8_Node000005_Node000009" class="edge">
<title>Node5&#45;&gt;Node9</title>
<g id="a_edge8_Node000005_Node000009"><a xlink:title=" ">
<path fill="none" stroke="#63b8ff" d="M635.56,-54.98C625.85,-47.07 611.18,-35.11 599.5,-25.58"/>
<polygon fill="#63b8ff" stroke="#63b8ff" points="601.6,-22.78 591.63,-19.17 597.17,-28.2 601.6,-22.78"/>
</a>
</g>
</g>
<!-- Node10&#45;&gt;Node4 -->
<g id="edge73_Node000010_Node000004" class="edge">
<title>Node10&#45;&gt;Node4</title>
<g id="a_edge73_Node000010_Node000004"><a xlink:title=" ">
<path fill="none" stroke="#63b8ff" d="M827.14,-281.98C721.57,-276.3 359.99,-255.81 311,-239 268.79,-224.51 248.22,-223.26 227,-184 215.18,-162.12 241.59,-144.18 265.69,-133.01"/>
<polygon fill="#63b8ff" stroke="#63b8ff" points="267.29,-136.13 275.06,-128.93 264.5,-129.71 267.29,-136.13"/>
</a>
</g>
</g>
<!-- Node10&#45;&gt;Node5 -->
<g id="edge15_Node000010_Node000005" class="edge">
<title>Node10&#45;&gt;Node5</title>
<g id="a_edge15_Node000010_Node000005"><a xlink:title=" ">
<path fill="none" stroke="#63b8ff" d="M827.21,-282.07C710.92,-276.22 280.89,-253.67 256,-239 230.83,-224.16 228.35,-212 220,-184 208.87,-146.66 232.63,-128.35 267,-110 321.94,-80.68 500.59,-70.42 591.62,-67.04"/>
<polygon fill="#63b8ff" stroke="#63b8ff" points="591.87,-70.54 601.74,-66.68 591.62,-63.54 591.87,-70.54"/>
</a>
</g>
</g>
<!-- Node11 -->
<g id="Node000011" class="node">
<title>Node11</title>
<g id="a_Node000011"><a xlink:href="_enums_8h.html" target="_top" xlink:title=" ">
<polygon fill="white" stroke="#666666" points="810.5,-184 751.5,-184 751.5,-165 810.5,-165 810.5,-184"/>
<text text-anchor="middle" x="781" y="-172" font-family="Helvetica,sans-Serif" font-size="10.00">Enums.h</text>
</a>
</g>
</g>
<!-- Node10&#45;&gt;Node11 -->
<g id="edge12_Node000010_Node000011" class="edge">
<title>Node10&#45;&gt;Node11</title>
<g id="a_edge12_Node000010_Node000011"><a xlink:title=" ">
<path fill="none" stroke="#63b8ff" d="M849.86,-274.66C837.38,-256.69 808.88,-215.64 792.72,-192.38"/>
<polygon fill="#63b8ff" stroke="#63b8ff" points="795.59,-190.38 787.01,-184.16 789.84,-194.37 795.59,-190.38"/>
</a>
</g>
</g>
<!-- Node12 -->
<g id="Node000012" class="node">
<title>Node12</title>
<g id="a_Node000012"><a xlink:title=" ">
<polygon fill="#e0e0e0" stroke="#999999" points="745,-129 701,-129 701,-110 745,-110 745,-129"/>
<text text-anchor="middle" x="723" y="-117" font-family="Helvetica,sans-Serif" font-size="10.00">string</text>
</a>
</g>
</g>
<!-- Node10&#45;&gt;Node12 -->
<g id="edge72_Node000010_Node000012" class="edge">
<title>Node10&#45;&gt;Node12</title>
<g id="a_edge72_Node000010_Node000012"><a xlink:title=" ">
<path fill="none" stroke="#63b8ff" d="M827.42,-281.56C776.58,-277.46 673.71,-265.96 652,-239 624.34,-204.66 673.03,-158.52 702.67,-135.25"/>
<polygon fill="#63b8ff" stroke="#63b8ff" points="704.96,-137.9 710.8,-129.06 700.72,-132.33 704.96,-137.9"/>
</a>
</g>
</g>
<!-- Node13 -->
<g id="Node000013" class="node">
<title>Node13</title>
<g id="a_Node000013"><a xlink:title=" ">
<polygon fill="#e0e0e0" stroke="#999999" points="858,-129 820,-129 820,-110 858,-110 858,-129"/>
<text text-anchor="middle" x="839" y="-117" font-family="Helvetica,sans-Serif" font-size="10.00">map</text>
</a>
</g>
</g>
<!-- Node10&#45;&gt;Node13 -->
<g id="edge71_Node000010_Node000013" class="edge">
<title>Node10&#45;&gt;Node13</title>
<g id="a_edge71_Node000010_Node000013"><a xlink:title=" ">
<path fill="none" stroke="#63b8ff" d="M884.51,-280.47C910.15,-276.06 946.4,-265.29 964,-239 968.7,-231.98 965.47,-228.32 964,-220 959.49,-194.38 961.91,-183.86 944,-165 923.7,-143.61 891.47,-132.05 868.07,-126.12"/>
<polygon fill="#63b8ff" stroke="#63b8ff" points="868.87,-122.71 858.33,-123.84 867.27,-129.52 868.87,-122.71"/>
</a>
</g>
</g>
<!-- Node14 -->
<g id="Node000014" class="node">
<title>Node14</title>
<g id="a_Node000014"><a xlink:href="_boundary_conditions_8h.html" target="_top" xlink:title=" ">
<polygon fill="white" stroke="#666666" points="785,-239 661,-239 661,-220 785,-220 785,-239"/>
<text text-anchor="middle" x="723" y="-227" font-family="Helvetica,sans-Serif" font-size="10.00">BoundaryConditions.h</text>
</a>
</g>
</g>
<!-- Node10&#45;&gt;Node14 -->
<g id="edge16_Node000010_Node000014" class="edge">
<title>Node10&#45;&gt;Node14</title>
<g id="a_edge16_Node000010_Node000014"><a xlink:title=" ">
<path fill="none" stroke="#63b8ff" d="M834.63,-274.98C812.85,-266.3 778.84,-252.75 754.08,-242.88"/>
<polygon fill="#63b8ff" stroke="#63b8ff" points="755.34,-239.62 744.76,-239.17 752.75,-246.12 755.34,-239.62"/>
</a>
</g>
</g>
<!-- Node15 -->
<g id="Node000015" class="node">
<title>Node15</title>
<g id="a_Node000015"><a xlink:title=" ">
<polygon fill="#e0e0e0" stroke="#999999" points="467,-184 409,-184 409,-165 467,-165 467,-184"/>
<text text-anchor="middle" x="438" y="-172" font-family="Helvetica,sans-Serif" font-size="10.00">memory</text>
</a>
</g>
</g>
<!-- Node10&#45;&gt;Node15 -->
<g id="edge74_Node000010_Node000015" class="edge">
<title>Node10&#45;&gt;Node15</title>
<g id="a_edge74_Node000010_Node000015"><a xlink:title=" ">
<path fill="none" stroke="#63b8ff" d="M827.25,-283.26C749.33,-282.13 536.12,-275.67 478,-239 461.51,-228.59 450.63,-208.65 444.43,-193.88"/>
<polygon fill="#63b8ff" stroke="#63b8ff" points="447.59,-192.33 440.74,-184.25 441.05,-194.84 447.59,-192.33"/>
</a>
</g>
</g>
<!-- Node16 -->
<g id="Node000016" class="node">
<title>Node16</title>
<g id="a_Node000016"><a xlink:href="_initial_conditions_8h.html" target="_top" xlink:title=" ">
<polygon fill="white" stroke="#666666" points="591.5,-239 486.5,-239 486.5,-220 591.5,-220 591.5,-239"/>
<text text-anchor="middle" x="539" y="-227" font-family="Helvetica,sans-Serif" font-size="10.00">InitialConditions.h</text>
</a>
</g>
</g>
<!-- Node10&#45;&gt;Node16 -->
<g id="edge22_Node000010_Node000016" class="edge">
<title>Node10&#45;&gt;Node16</title>
<g id="a_edge22_Node000010_Node000016"><a xlink:title=" ">
<path fill="none" stroke="#63b8ff" d="M827.31,-278.7C776.21,-270.16 668.4,-252.13 600.06,-240.71"/>
<polygon fill="#63b8ff" stroke="#63b8ff" points="600.31,-237.2 589.86,-239 599.15,-244.11 600.31,-237.2"/>
</a>
</g>
</g>
<!-- Node17 -->
<g id="Node000017" class="node">
<title>Node17</title>
<g id="a_Node000017"><a xlink:href="_material_propertys_8h.html" target="_top" xlink:title=" ">
<polygon fill="white" stroke="#666666" points="954.5,-239 841.5,-239 841.5,-220 954.5,-220 954.5,-239"/>
<text text-anchor="middle" x="898" y="-227" font-family="Helvetica,sans-Serif" font-size="10.00">MaterialPropertys.h</text>
</a>
</g>
</g>
<!-- Node10&#45;&gt;Node17 -->
<g id="edge28_Node000010_Node000017" class="edge">
<title>Node10&#45;&gt;Node17</title>
<g id="a_edge28_Node000010_Node000017"><a xlink:title=" ">
<path fill="none" stroke="#63b8ff" d="M862.94,-274.75C868.87,-267.26 877.57,-256.28 884.82,-247.13"/>
<polygon fill="#63b8ff" stroke="#63b8ff" points="887.73,-249.1 891.19,-239.09 882.24,-244.75 887.73,-249.1"/>
</a>
</g>
</g>
<!-- Node18 -->
<g id="Node000018" class="node">
<title>Node18</title>
<g id="a_Node000018"><a xlink:href="_equation_systems_8h.html" target="_top" xlink:title=" ">
<polygon fill="white" stroke="#666666" points="430,-239 320,-239 320,-220 430,-220 430,-239"/>
<text text-anchor="middle" x="375" y="-227" font-family="Helvetica,sans-Serif" font-size="10.00">EquationSystems.h</text>
</a>
</g>
</g>
<!-- Node10&#45;&gt;Node18 -->
<g id="edge33_Node000010_Node000018" class="edge">
<title>Node10&#45;&gt;Node18</title>
<g id="a_edge33_Node000010_Node000018"><a xlink:title=" ">
<path fill="none" stroke="#63b8ff" d="M827.26,-280.55C760.14,-273.61 587.83,-255.63 444,-239 442.89,-238.87 441.77,-238.74 440.65,-238.61"/>
<polygon fill="#63b8ff" stroke="#63b8ff" points="440.69,-235.09 430.35,-237.39 439.87,-242.04 440.69,-235.09"/>
</a>
</g>
</g>
<!-- Node20 -->
<g id="Node000020" class="node">
<title>Node20</title>
<g id="a_Node000020"><a xlink:href="_field_manager_8h.html" target="_top" xlink:title=" ">
<polygon fill="white" stroke="#666666" points="1256.5,-239 1165.5,-239 1165.5,-220 1256.5,-220 1256.5,-239"/>
<text text-anchor="middle" x="1211" y="-227" font-family="Helvetica,sans-Serif" font-size="10.00">FieldManager.h</text>
</a>
</g>
</g>
<!-- Node10&#45;&gt;Node20 -->
<g id="edge42_Node000010_Node000020" class="edge">
<title>Node10&#45;&gt;Node20</title>
<g id="a_edge42_Node000010_Node000020"><a xlink:title=" ">
<path fill="none" stroke="#63b8ff" d="M884.75,-279.21C943.6,-270.42 1078.66,-250.26 1155.28,-238.82"/>
<polygon fill="#63b8ff" stroke="#63b8ff" points="1155.86,-242.27 1165.23,-237.33 1154.83,-235.35 1155.86,-242.27"/>
</a>
</g>
</g>
<!-- Node30 -->
<g id="Node000030" class="node">
<title>Node30</title>
<g id="a_Node000030"><a xlink:title=" ">
<polygon fill="#e0e0e0" stroke="#999999" points="1423.5,-239 1274.5,-239 1274.5,-220 1423.5,-220 1423.5,-239"/>
<text text-anchor="middle" x="1349" y="-227" font-family="Helvetica,sans-Serif" font-size="10.00">Teuchos_ParameterList.hpp</text>
</a>
</g>
</g>
<!-- Node10&#45;&gt;Node30 -->
<g id="edge59_Node000010_Node000030" class="edge">
<title>Node10&#45;&gt;Node30</title>
<g id="a_edge59_Node000010_Node000030"><a xlink:title=" ">
<path fill="none" stroke="#63b8ff" d="M884.64,-280.42C957.35,-272.6 1151.33,-251.75 1264.24,-239.61"/>
<polygon fill="#63b8ff" stroke="#63b8ff" points="1264.67,-243.09 1274.24,-238.54 1263.92,-236.13 1264.67,-243.09"/>
</a>
</g>
</g>
<!-- Node31 -->
<g id="Node000031" class="node">
<title>Node31</title>
<g id="a_Node000031"><a xlink:href="_ngp_field_manager_8h.html" target="_top" xlink:title="NGP Field Manager.">
<polygon fill="white" stroke="#666666" points="2028,-184 1870,-184 1870,-165 2028,-165 2028,-184"/>
<text text-anchor="middle" x="1949" y="-172" font-family="Helvetica,sans-Serif" font-size="10.00">ngp_utils/NgpFieldManager.h</text>
</a>
</g>
</g>
<!-- Node10&#45;&gt;Node31 -->
<g id="edge60_Node000010_Node000031" class="edge">
<title>Node10&#45;&gt;Node31</title>
<g id="a_edge60_Node000010_Node000031"><a xlink:title=" ">
<path fill="none" stroke="#63b8ff" d="M884.54,-283.56C1022.68,-283.62 1622.71,-281.42 1804,-239 1849,-228.47 1897.45,-204.37 1925.4,-189.08"/>
<polygon fill="#63b8ff" stroke="#63b8ff" points="1927.36,-191.99 1934.39,-184.07 1923.95,-185.88 1927.36,-191.99"/>
</a>
</g>
</g>
<!-- Node34 -->
<g id="Node000034" class="node">
<title>Node34</title>
<g id="a_Node000034"><a xlink:href="_ngp_mesh_info_8h.html" target="_top" xlink:title="NGP mesh information objects.">
<polygon fill="white" stroke="#666666" points="1794.5,-239 1657.5,-239 1657.5,-220 1794.5,-220 1794.5,-239"/>
<text text-anchor="middle" x="1726" y="-227" font-family="Helvetica,sans-Serif" font-size="10.00">ngp_utils/NgpMeshInfo.h</text>
</a>
</g>
</g>
<!-- Node10&#45;&gt;Node34 -->
<g id="edge65_Node000010_Node000034" class="edge">
<title>Node10&#45;&gt;Node34</title>
<g id="a_edge65_Node000010_Node000034"><a xlink:title=" ">
<path fill="none" stroke="#63b8ff" d="M884.95,-281.74C1004.46,-274.46 1461.87,-246.59 1647.26,-235.3"/>
<polygon fill="#63b8ff" stroke="#63b8ff" points="1647.71,-238.78 1657.48,-234.67 1647.29,-231.79 1647.71,-238.78"/>
</a>
</g>
</g>
<!-- Node35 -->
<g id="Node000035" class="node">
<title>Node35</title>
<g id="a_Node000035"><a xlink:title=" ">
<polygon fill="#e0e0e0" stroke="#999999" points="1619,-184 1459,-184 1459,-165 1619,-165 1619,-184"/>
<text text-anchor="middle" x="1539" y="-172" font-family="Helvetica,sans-Serif" font-size="10.00">stk_mesh/base/NgpMesh.hpp</text>
</a>
</g>
</g>
<!-- Node10&#45;&gt;Node35 -->
<g id="edge70_Node000010_Node000035" class="edge">
<title>Node10&#45;&gt;Node35</title>
<g id="a_edge70_Node000010_Node000035"><a xlink:title=" ">
<path fill="none" stroke="#63b8ff" d="M884.51,-283.03C985.98,-281.07 1329.01,-272.12 1433,-239 1466.3,-228.39 1500.14,-205.58 1520.35,-190.38"/>
<polygon fill="#63b8ff" stroke="#63b8ff" points="1522.59,-193.07 1528.38,-184.2 1518.32,-187.52 1522.59,-193.07"/>
</a>
</g>
</g>
<!-- Node11&#45;&gt;Node12 -->
<g id="edge13_Node000011_Node000012" class="edge">
<title>Node11&#45;&gt;Node12</title>
<g id="a_edge13_Node000011_Node000012"><a xlink:title=" ">
<path fill="none" stroke="#63b8ff" d="M771.68,-164.98C763.19,-157.23 750.44,-145.58 740.12,-136.14"/>
<polygon fill="#63b8ff" stroke="#63b8ff" points="742.23,-133.33 732.49,-129.17 737.51,-138.5 742.23,-133.33"/>
</a>
</g>
</g>
<!-- Node11&#45;&gt;Node13 -->
<g id="edge14_Node000011_Node000013" class="edge">
<title>Node11&#45;&gt;Node13</title>
<g id="a_edge14_Node000011_Node000013"><a xlink:title=" ">
<path fill="none" stroke="#63b8ff" d="M790.32,-164.98C798.81,-157.23 811.56,-145.58 821.88,-136.14"/>
<polygon fill="#63b8ff" stroke="#63b8ff" points="824.49,-138.5 829.51,-129.17 819.77,-133.33 824.49,-138.5"/>
</a>
</g>
</g>
<!-- Node14&#45;&gt;Node4 -->
<g id="edge20_Node000014_Node000004" class="edge">
<title>Node14&#45;&gt;Node4</title>
<g id="a_edge20_Node000014_Node000004"><a xlink:title=" ">
<path fill="none" stroke="#63b8ff" d="M695.11,-219.92C653.19,-207.17 571.34,-182.79 501,-165 442.07,-150.1 372.76,-135.45 332.56,-127.23"/>
<polygon fill="#63b8ff" stroke="#63b8ff" points="333.24,-123.8 322.75,-125.24 331.85,-130.66 333.24,-123.8"/>
</a>
</g>
</g>
<!-- Node14&#45;&gt;Node11 -->
<g id="edge17_Node000014_Node000011" class="edge">
<title>Node14&#45;&gt;Node11</title>
<g id="a_edge17_Node000014_Node000011"><a xlink:title=" ">
<path fill="none" stroke="#63b8ff" d="M732.32,-219.98C740.81,-212.23 753.56,-200.58 763.88,-191.14"/>
<polygon fill="#63b8ff" stroke="#63b8ff" points="766.49,-193.5 771.51,-184.17 761.77,-188.33 766.49,-193.5"/>
</a>
</g>
</g>
<!-- Node14&#45;&gt;Node12 -->
<g id="edge19_Node000014_Node000012" class="edge">
<title>Node14&#45;&gt;Node12</title>
<g id="a_edge19_Node000014_Node000012"><a xlink:title=" ">
<path fill="none" stroke="#63b8ff" d="M723,-219.66C723,-202.17 723,-162.8 723,-139.27"/>
<polygon fill="#63b8ff" stroke="#63b8ff" points="726.5,-139.16 723,-129.16 719.5,-139.16 726.5,-139.16"/>
</a>
</g>
</g>
<!-- Node14&#45;&gt;Node13 -->
<g id="edge18_Node000014_Node000013" class="edge">
<title>Node14&#45;&gt;Node13</title>
<g id="a_edge18_Node000014_Node000013"><a xlink:title=" ">
<path fill="none" stroke="#63b8ff" d="M758.88,-219.98C779.43,-213.37 804.2,-202.18 820,-184 830.74,-171.65 835.41,-153.43 837.44,-139.67"/>
<polygon fill="#63b8ff" stroke="#63b8ff" points="840.96,-139.72 838.6,-129.39 834,-138.93 840.96,-139.72"/>
</a>
</g>
</g>
<!-- Node14&#45;&gt;Node15 -->
<g id="edge21_Node000014_Node000015" class="edge">
<title>Node14&#45;&gt;Node15</title>
<g id="a_edge21_Node000014_Node000015"><a xlink:title=" ">
<path fill="none" stroke="#63b8ff" d="M677.21,-219.98C621.74,-209.67 529.27,-192.47 477.03,-182.76"/>
<polygon fill="#63b8ff" stroke="#63b8ff" points="477.62,-179.31 467.14,-180.92 476.34,-186.19 477.62,-179.31"/>
</a>
</g>
</g>
<!-- Node16&#45;&gt;Node4 -->
<g id="edge26_Node000016_Node000004" class="edge">
<title>Node16&#45;&gt;Node4</title>
<g id="a_edge26_Node000016_Node000004"><a xlink:title=" ">
<path fill="none" stroke="#63b8ff" d="M532.74,-219.61C522.51,-205.76 500.83,-179.14 476,-165 430.52,-139.09 370.03,-128.09 332.84,-123.55"/>
<polygon fill="#63b8ff" stroke="#63b8ff" points="332.88,-120.03 322.55,-122.38 332.09,-126.98 332.88,-120.03"/>
</a>
</g>
</g>
<!-- Node16&#45;&gt;Node11 -->
<g id="edge23_Node000016_Node000011" class="edge">
<title>Node16&#45;&gt;Node11</title>
<g id="a_edge23_Node000016_Node000011"><a xlink:title=" ">
<path fill="none" stroke="#63b8ff" d="M577.88,-219.98C622.75,-210.16 696.15,-194.08 741.35,-184.18"/>
<polygon fill="#63b8ff" stroke="#63b8ff" points="742.35,-187.55 751.37,-181.99 740.85,-180.71 742.35,-187.55"/>
</a>
</g>
</g>
<!-- Node16&#45;&gt;Node12 -->
<g id="edge25_Node000016_Node000012" class="edge">
<title>Node16&#45;&gt;Node12</title>
<g id="a_edge25_Node000016_Node000012"><a xlink:title=" ">
<path fill="none" stroke="#63b8ff" d="M538.91,-219.77C539.26,-206.13 541.99,-179.8 557,-165 592.78,-129.73 653.3,-121.61 690.55,-120.18"/>
<polygon fill="#63b8ff" stroke="#63b8ff" points="690.93,-123.67 700.85,-119.93 690.77,-116.67 690.93,-123.67"/>
</a>
</g>
</g>
<!-- Node16&#45;&gt;Node13 -->
<g id="edge24_Node000016_Node000013" class="edge">
<title>Node16&#45;&gt;Node13</title>
<g id="a_edge24_Node000016_Node000013"><a xlink:title=" ">
<path fill="none" stroke="#63b8ff" d="M562.79,-219.94C617.42,-200.27 751.66,-151.94 810.54,-130.75"/>
<polygon fill="#63b8ff" stroke="#63b8ff" points="811.75,-134.03 819.97,-127.35 809.38,-127.44 811.75,-134.03"/>
</a>
</g>
</g>
<!-- Node16&#45;&gt;Node15 -->
<g id="edge27_Node000016_Node000015" class="edge">
<title>Node16&#45;&gt;Node15</title>
<g id="a_edge27_Node000016_Node000015"><a xlink:title=" ">
<path fill="none" stroke="#63b8ff" d="M522.77,-219.98C506.82,-211.61 482.22,-198.7 463.62,-188.95"/>
<polygon fill="#63b8ff" stroke="#63b8ff" points="465,-185.72 454.52,-184.17 461.75,-191.92 465,-185.72"/>
</a>
</g>
</g>
<!-- Node17&#45;&gt;Node4 -->
<g id="edge32_Node000017_Node000004" class="edge">
<title>Node17&#45;&gt;Node4</title>
<g id="a_edge32_Node000017_Node000004"><a xlink:title=" ">
<path fill="none" stroke="#63b8ff" d="M890.45,-219.58C877.64,-205.18 850.11,-177.17 820,-165 731.08,-129.05 434.01,-122.13 332.97,-120.81"/>
<polygon fill="#63b8ff" stroke="#63b8ff" points="332.77,-117.31 322.73,-120.68 332.69,-124.3 332.77,-117.31"/>
</a>
</g>
</g>
<!-- Node17&#45;&gt;Node11 -->
<g id="edge29_Node000017_Node000011" class="edge">
<title>Node17&#45;&gt;Node11</title>
<g id="a_edge29_Node000017_Node000011"><a xlink:title=" ">
<path fill="none" stroke="#63b8ff" d="M879.2,-219.98C860.38,-211.46 831.18,-198.23 809.5,-188.41"/>
<polygon fill="#63b8ff" stroke="#63b8ff" points="810.69,-185.11 800.14,-184.17 807.8,-191.48 810.69,-185.11"/>
</a>
</g>
</g>
<!-- Node17&#45;&gt;Node12 -->
<g id="edge31_Node000017_Node000012" class="edge">
<title>Node17&#45;&gt;Node12</title>
<g id="a_edge31_Node000017_Node000012"><a xlink:title=" ">
<path fill="none" stroke="#63b8ff" d="M899.81,-219.93C902.11,-206.5 904.32,-180.47 891,-165 873.45,-144.62 798.85,-131.04 755.19,-124.68"/>
<polygon fill="#63b8ff" stroke="#63b8ff" points="755.45,-121.18 745.06,-123.25 754.48,-128.11 755.45,-121.18"/>
</a>
</g>
</g>
<!-- Node17&#45;&gt;Node13 -->
<g id="edge30_Node000017_Node000013" class="edge">
<title>Node17&#45;&gt;Node13</title>
<g id="a_edge30_Node000017_Node000013"><a xlink:title=" ">
<path fill="none" stroke="#63b8ff" d="M907.65,-219.99C920.59,-207.53 940.65,-183.76 929,-165 915.72,-143.62 888.8,-132.2 867.84,-126.31"/>
<polygon fill="#63b8ff" stroke="#63b8ff" points="868.67,-122.91 858.12,-123.84 866.95,-129.7 868.67,-122.91"/>
</a>
</g>
</g>
<!-- Node18&#45;&gt;Node4 -->
<g id="edge40_Node000018_Node000004" class="edge">
<title>Node18&#45;&gt;Node4</title>
<g id="a_edge40_Node000018_Node000004"><a xlink:title=" ">
<path fill="none" stroke="#63b8ff" d="M319.84,-225.9C289.87,-221.32 255.12,-210.2 236,-184 222,-164.82 247.21,-145.89 269.78,-133.76"/>
<polygon fill="#63b8ff" stroke="#63b8ff" points="271.52,-136.8 278.85,-129.15 268.35,-130.56 271.52,-136.8"/>
</a>
</g>
</g>
<!-- Node18&#45;&gt;Node11 -->
<g id="edge34_Node000018_Node000011" class="edge">
<title>Node18&#45;&gt;Node11</title>
<g id="a_edge34_Node000018_Node000011"><a xlink:title=" ">
<path fill="none" stroke="#63b8ff" d="M430.18,-221.3C513.25,-210.45 668.46,-190.19 741.31,-180.68"/>
<polygon fill="#63b8ff" stroke="#63b8ff" points="741.98,-184.12 751.45,-179.36 741.08,-177.18 741.98,-184.12"/>
</a>
</g>
</g>
<!-- Node18&#45;&gt;Node12 -->
<g id="edge39_Node000018_Node000012" class="edge">
<title>Node18&#45;&gt;Node12</title>
<g id="a_edge39_Node000018_Node000012"><a xlink:title=" ">
<path fill="none" stroke="#63b8ff" d="M375.7,-219.91C377.33,-205.97 382.68,-178.62 400,-165 444.65,-129.89 617.81,-122.48 690.54,-120.92"/>
<polygon fill="#63b8ff" stroke="#63b8ff" points="690.99,-124.41 700.92,-120.72 690.85,-117.41 690.99,-124.41"/>
</a>
</g>
</g>
<!-- Node18&#45;&gt;Node13 -->
<g id="edge38_Node000018_Node000013" class="edge">
<title>Node18&#45;&gt;Node13</title>
<g id="a_edge38_Node000018_Node000013"><a xlink:title=" ">
<path fill="none" stroke="#63b8ff" d="M411.8,-219.94C501.24,-199.12 728.63,-146.19 809.72,-127.31"/>
<polygon fill="#63b8ff" stroke="#63b8ff" points="810.79,-130.66 819.73,-124.98 809.2,-123.84 810.79,-130.66"/>
</a>
</g>
</g>
<!-- Node18&#45;&gt;Node15 -->
<g id="edge41_Node000018_Node000015" class="edge">
<title>Node18&#45;&gt;Node15</title>
<g id="a_edge41_Node000018_Node000015"><a xlink:title=" ">
<path fill="none" stroke="#63b8ff" d="M385.12,-219.98C394.44,-212.15 408.47,-200.34 419.74,-190.86"/>
<polygon fill="#63b8ff" stroke="#63b8ff" points="422.29,-193.29 427.69,-184.17 417.79,-187.93 422.29,-193.29"/>
</a>
</g>
</g>
<!-- Node19 -->
<g id="Node000019" class="node">
<title>Node19</title>
<g id="a_Node000019"><a xlink:href="_nalu_parsed_types_8h.html" target="_top" xlink:title=" ">
<polygon fill="white" stroke="#666666" points="353,-184 245,-184 245,-165 353,-165 353,-184"/>
<text text-anchor="middle" x="299" y="-172" font-family="Helvetica,sans-Serif" font-size="10.00">NaluParsedTypes.h</text>
</a>
</g>
</g>
<!-- Node18&#45;&gt;Node19 -->
<g id="edge35_Node000018_Node000019" class="edge">
<title>Node18&#45;&gt;Node19</title>
<g id="a_edge35_Node000018_Node000019"><a xlink:title=" ">
<path fill="none" stroke="#63b8ff" d="M362.79,-219.98C351.22,-211.92 333.62,-199.65 319.84,-190.03"/>
<polygon fill="#63b8ff" stroke="#63b8ff" points="321.64,-187.02 311.43,-184.17 317.63,-192.76 321.64,-187.02"/>
</a>
</g>
</g>
<!-- Node19&#45;&gt;Node4 -->
<g id="edge37_Node000019_Node000004" class="edge">
<title>Node19&#45;&gt;Node4</title>
<g id="a_edge37_Node000019_Node000004"><a xlink:title=" ">
<path fill="none" stroke="#63b8ff" d="M299,-164.75C299,-157.8 299,-147.85 299,-139.13"/>
<polygon fill="#63b8ff" stroke="#63b8ff" points="302.5,-139.09 299,-129.09 295.5,-139.09 302.5,-139.09"/>
</a>
</g>
</g>
<!-- Node19&#45;&gt;Node12 -->
<g id="edge36_Node000019_Node000012" class="edge">
<title>Node19&#45;&gt;Node12</title>
<g id="a_edge36_Node000019_Node000012"><a xlink:title=" ">
<path fill="none" stroke="#63b8ff" d="M353.13,-166.73C442.32,-155.59 617.5,-133.69 690.19,-124.6"/>
<polygon fill="#63b8ff" stroke="#63b8ff" points="691.06,-128.02 700.55,-123.31 690.19,-121.07 691.06,-128.02"/>
</a>
</g>
</g>
<!-- Node20&#45;&gt;Node12 -->
<g id="edge57_Node000020_Node000012" class="edge">
<title>Node20&#45;&gt;Node12</title>
<g id="a_edge57_Node000020_Node000012"><a xlink:title=" ">
<path fill="none" stroke="#63b8ff" d="M1172.3,-219.94C1078.7,-199.22 841.46,-146.72 755.08,-127.6"/>
<polygon fill="#63b8ff" stroke="#63b8ff" points="755.6,-124.13 745.08,-125.39 754.09,-130.97 755.6,-124.13"/>
</a>
</g>
</g>
<!-- Node21 -->
<g id="Node000021" class="node">
<title>Node21</title>
<g id="a_Node000021"><a xlink:href="_field_registry_8h.html" target="_top" xlink:title=" ">
<polygon fill="white" stroke="#666666" points="1327,-184 1239,-184 1239,-165 1327,-165 1327,-184"/>
<text text-anchor="middle" x="1283" y="-172" font-family="Helvetica,sans-Serif" font-size="10.00">FieldRegistry.h</text>
</a>
</g>
</g>
<!-- Node20&#45;&gt;Node21 -->
<g id="edge43_Node000020_Node000021" class="edge">
<title>Node20&#45;&gt;Node21</title>
<g id="a_edge43_Node000020_Node000021"><a xlink:title=" ">
<path fill="none" stroke="#63b8ff" d="M1222.57,-219.98C1233.42,-212 1249.88,-199.88 1262.88,-190.31"/>
<polygon fill="#63b8ff" stroke="#63b8ff" points="1265.24,-192.92 1271.22,-184.17 1261.09,-187.28 1265.24,-192.92"/>
</a>
</g>
</g>
<!-- Node24 -->
<g id="Node000024" class="node">
<title>Node24</title>
<g id="a_Node000024"><a xlink:title=" ">
<polygon fill="#e0e0e0" stroke="#999999" points="1389.5,-74 1320.5,-74 1320.5,-55 1389.5,-55 1389.5,-74"/>
<text text-anchor="middle" x="1355" y="-62" font-family="Helvetica,sans-Serif" font-size="10.00">type_traits</text>
</a>
</g>
</g>
<!-- Node20&#45;&gt;Node24 -->
<g id="edge58_Node000020_Node000024" class="edge">
<title>Node20&#45;&gt;Node24</title>
<g id="a_edge58_Node000020_Node000024"><a xlink:title=" ">
<path fill="none" stroke="#63b8ff" d="M1247.12,-220C1279.76,-211.58 1324.4,-197.95 1336,-184 1359.57,-155.66 1359.64,-109.9 1357.43,-84.33"/>
<polygon fill="#63b8ff" stroke="#63b8ff" points="1360.88,-83.7 1356.33,-74.14 1353.92,-84.45 1360.88,-83.7"/>
</a>
</g>
</g>
<!-- Node26 -->
<g id="Node000026" class="node">
<title>Node26</title>
<g id="a_Node000026"><a xlink:href="_smart_field_8h.html" target="_top" xlink:title=" ">
<polygon fill="white" stroke="#666666" points="1729,-74 1651,-74 1651,-55 1729,-55 1729,-74"/>
<text text-anchor="middle" x="1690" y="-62" font-family="Helvetica,sans-Serif" font-size="10.00">SmartField.h</text>
</a>
</g>
</g>
<!-- Node20&#45;&gt;Node26 -->
<g id="edge51_Node000020_Node000026" class="edge">
<title>Node20&#45;&gt;Node26</title>
<g id="a_edge51_Node000020_Node000026"><a xlink:title=" ">
<path fill="none" stroke="#63b8ff" d="M1256.66,-221.78C1286.67,-215.67 1325.66,-204.38 1355,-184 1389.1,-160.32 1376.32,-131.22 1412,-110 1449.76,-87.54 1571.58,-74.68 1640.78,-69.01"/>
<polygon fill="#63b8ff" stroke="#63b8ff" points="1641.31,-72.48 1651,-68.2 1640.75,-65.5 1641.31,-72.48"/>
</a>
</g>
</g>
<!-- Node28 -->
<g id="Node000028" class="node">
<title>Node28</title>
<g id="a_Node000028"><a xlink:title=" ">
<polygon fill="#e0e0e0" stroke="#999999" points="1220.5,-184 1057.5,-184 1057.5,-165 1220.5,-165 1220.5,-184"/>
<text text-anchor="middle" x="1139" y="-172" font-family="Helvetica,sans-Serif" font-size="10.00">stk_mesh/base/FieldState.hpp</text>
</a>
</g>
</g>
<!-- Node20&#45;&gt;Node28 -->
<g id="edge55_Node000020_Node000028" class="edge">
<title>Node20&#45;&gt;Node28</title>
<g id="a_edge55_Node000020_Node000028"><a xlink:title=" ">
<path fill="none" stroke="#63b8ff" d="M1199.43,-219.98C1188.58,-212 1172.12,-199.88 1159.12,-190.31"/>
<polygon fill="#63b8ff" stroke="#63b8ff" points="1160.91,-187.28 1150.78,-184.17 1156.76,-192.92 1160.91,-187.28"/>
</a>
</g>
</g>
<!-- Node29 -->
<g id="Node000029" class="node">
<title>Node29</title>
<g id="a_Node000029"><a xlink:title=" ">
<polygon fill="#e0e0e0" stroke="#999999" points="1595,-129 1421,-129 1421,-110 1595,-110 1595,-129"/>
<text text-anchor="middle" x="1508" y="-117" font-family="Helvetica,sans-Serif" font-size="10.00">stk_mesh/base/GetNgpField.hpp</text>
</a>
</g>
</g>
<!-- Node20&#45;&gt;Node29 -->
<g id="edge56_Node000020_Node000029" class="edge">
<title>Node20&#45;&gt;Node29</title>
<g id="a_edge56_Node000020_Node000029"><a xlink:title=" ">
<path fill="none" stroke="#63b8ff" d="M1256.72,-219.97C1305.77,-210.5 1380.24,-195.07 1407,-184 1437.7,-171.3 1469.59,-149.58 1489.12,-135.13"/>
<polygon fill="#63b8ff" stroke="#63b8ff" points="1491.29,-137.88 1497.17,-129.06 1487.08,-132.29 1491.29,-137.88"/>
</a>
</g>
</g>
<!-- Node21&#45;&gt;Node12 -->
<g id="edge45_Node000021_Node000012" class="edge">
<title>Node21&#45;&gt;Node12</title>
<g id="a_edge45_Node000021_Node000012"><a xlink:title=" ">
<path fill="none" stroke="#63b8ff" d="M1238.79,-166.16C1235.82,-165.74 1232.87,-165.35 1230,-165 1044.49,-142.19 997.13,-145.99 811,-129 792.57,-127.32 771.98,-125.33 755.35,-123.71"/>
<polygon fill="#63b8ff" stroke="#63b8ff" points="755.35,-120.19 745.05,-122.7 754.66,-127.16 755.35,-120.19"/>
</a>
</g>
</g>
<!-- Node21&#45;&gt;Node13 -->
<g id="edge46_Node000021_Node000013" class="edge">
<title>Node21&#45;&gt;Node13</title>
<g id="a_edge46_Node000021_Node000013"><a xlink:title=" ">
<path fill="none" stroke="#63b8ff" d="M1238.78,-166.25C1235.81,-165.81 1232.86,-165.39 1230,-165 1095.31,-146.54 933.77,-129.89 868.5,-123.39"/>
<polygon fill="#63b8ff" stroke="#63b8ff" points="868.46,-119.87 858.16,-122.37 867.77,-126.84 868.46,-119.87"/>
</a>
</g>
</g>
<!-- Node22 -->
<g id="Node000022" class="node">
<title>Node22</title>
<g id="a_Node000022"><a xlink:title=" ">
<polygon fill="#e0e0e0" stroke="#999999" points="1207.5,-129 1142.5,-129 1142.5,-110 1207.5,-110 1207.5,-129"/>
<text text-anchor="middle" x="1175" y="-117" font-family="Helvetica,sans-Serif" font-size="10.00">stdexcept</text>
</a>
</g>
</g>
<!-- Node21&#45;&gt;Node22 -->
<g id="edge44_Node000021_Node000022" class="edge">
<title>Node21&#45;&gt;Node22</title>
<g id="a_edge44_Node000021_Node000022"><a xlink:title=" ">
<path fill="none" stroke="#63b8ff" d="M1265.65,-164.98C1248.43,-156.54 1221.8,-143.47 1201.85,-133.68"/>
<polygon fill="#63b8ff" stroke="#63b8ff" points="1203.19,-130.43 1192.67,-129.17 1200.1,-136.72 1203.19,-130.43"/>
</a>
</g>
</g>
<!-- Node23 -->
<g id="Node000023" class="node">
<title>Node23</title>
<g id="a_Node000023"><a xlink:href="_field_definitions_8h.html" target="_top" xlink:title=" ">
<polygon fill="white" stroke="#666666" points="1326.5,-129 1225.5,-129 1225.5,-110 1326.5,-110 1326.5,-129"/>
<text text-anchor="middle" x="1276" y="-117" font-family="Helvetica,sans-Serif" font-size="10.00">FieldDefinitions.h</text>
</a>
</g>
</g>
<!-- Node21&#45;&gt;Node23 -->
<g id="edge47_Node000021_Node000023" class="edge">
<title>Node21&#45;&gt;Node23</title>
<g id="a_edge47_Node000021_Node000023"><a xlink:title=" ">
<path fill="none" stroke="#63b8ff" d="M1281.84,-164.75C1280.93,-157.8 1279.61,-147.85 1278.46,-139.13"/>
<polygon fill="#63b8ff" stroke="#63b8ff" points="1281.91,-138.54 1277.13,-129.09 1274.97,-139.46 1281.91,-138.54"/>
</a>
</g>
</g>
<!-- Node23&#45;&gt;Node5 -->
<g id="edge48_Node000023_Node000005" class="edge">
<title>Node23&#45;&gt;Node5</title>
<g id="a_edge48_Node000023_Node000005"><a xlink:title=" ">
<path fill="none" stroke="#63b8ff" d="M1225.5,-111C1222.62,-110.65 1219.78,-110.31 1217,-110 1027.58,-89 801.72,-74.5 700.17,-68.54"/>
<polygon fill="#63b8ff" stroke="#63b8ff" points="700.34,-65.04 690.15,-67.96 699.93,-72.03 700.34,-65.04"/>
</a>
</g>
</g>
<!-- Node23&#45;&gt;Node24 -->
<g id="edge49_Node000023_Node000024" class="edge">
<title>Node23&#45;&gt;Node24</title>
<g id="a_edge49_Node000023_Node000024"><a xlink:title=" ">
<path fill="none" stroke="#63b8ff" d="M1288.69,-109.98C1300.83,-101.84 1319.36,-89.41 1333.75,-79.76"/>
<polygon fill="#63b8ff" stroke="#63b8ff" points="1335.72,-82.65 1342.08,-74.17 1331.82,-76.84 1335.72,-82.65"/>
</a>
</g>
</g>
<!-- Node25 -->
<g id="Node000025" class="node">
<title>Node25</title>
<g id="a_Node000025"><a xlink:title=" ">
<polygon fill="#e0e0e0" stroke="#999999" points="1301.5,-74 1250.5,-74 1250.5,-55 1301.5,-55 1301.5,-74"/>
<text text-anchor="middle" x="1276" y="-62" font-family="Helvetica,sans-Serif" font-size="10.00">variant</text>
</a>
</g>
</g>
<!-- Node23&#45;&gt;Node25 -->
<g id="edge50_Node000023_Node000025" class="edge">
<title>Node23&#45;&gt;Node25</title>
<g id="a_edge50_Node000023_Node000025"><a xlink:title=" ">
<path fill="none" stroke="#63b8ff" d="M1276,-109.75C1276,-102.8 1276,-92.85 1276,-84.13"/>
<polygon fill="#63b8ff" stroke="#63b8ff" points="1279.5,-84.09 1276,-74.09 1272.5,-84.09 1279.5,-84.09"/>
</a>
</g>
</g>
<!-- Node26&#45;&gt;Node7 -->
<g id="edge53_Node000026_Node000007" class="edge">
<title>Node26&#45;&gt;Node7</title>
<g id="a_edge53_Node000026_Node000007"><a xlink:title=" ">
<path fill="none" stroke="#63b8ff" d="M1690,-54.75C1690,-47.8 1690,-37.85 1690,-29.13"/>
<polygon fill="#63b8ff" stroke="#63b8ff" points="1693.5,-29.09 1690,-19.09 1686.5,-29.09 1693.5,-29.09"/>
</a>
</g>
</g>
<!-- Node26&#45;&gt;Node8 -->
<g id="edge54_Node000026_Node000008" class="edge">
<title>Node26&#45;&gt;Node8</title>
<g id="a_edge54_Node000026_Node000008"><a xlink:title=" ">
<path fill="none" stroke="#63b8ff" d="M1663.65,-54.98C1636.24,-46.13 1593.11,-32.19 1562.44,-22.28"/>
<polygon fill="#63b8ff" stroke="#63b8ff" points="1563.15,-18.83 1552.56,-19.08 1561,-25.49 1563.15,-18.83"/>
</a>
</g>
</g>
<!-- Node27 -->
<g id="Node000027" class="node">
<title>Node27</title>
<g id="a_Node000027"><a xlink:title=" ">
<polygon fill="#e0e0e0" stroke="#999999" points="1888.5,-19 1775.5,-19 1775.5,0 1888.5,0 1888.5,-19"/>
<text text-anchor="middle" x="1832" y="-7" font-family="Helvetica,sans-Serif" font-size="10.00">Kokkos_Macros.hpp</text>
</a>
</g>
</g>
<!-- Node26&#45;&gt;Node27 -->
<g id="edge52_Node000026_Node000027" class="edge">
<title>Node26&#45;&gt;Node27</title>
<g id="a_edge52_Node000026_Node000027"><a xlink:title=" ">
<path fill="none" stroke="#63b8ff" d="M1712.81,-54.98C1736.17,-46.27 1772.7,-32.63 1799.17,-22.75"/>
<polygon fill="#63b8ff" stroke="#63b8ff" points="1800.63,-25.95 1808.77,-19.17 1798.18,-19.39 1800.63,-25.95"/>
</a>
</g>
</g>
<!-- Node31&#45;&gt;Node8 -->
<g id="edge63_Node000031_Node000008" class="edge">
<title>Node31&#45;&gt;Node8</title>
<g id="a_edge63_Node000031_Node000008"><a xlink:title=" ">
<path fill="none" stroke="#63b8ff" d="M1916,-165C1858.95,-149.82 1738.72,-115.71 1642,-74 1608.28,-59.46 1571.41,-38.3 1548.49,-24.47"/>
<polygon fill="#63b8ff" stroke="#63b8ff" points="1550.22,-21.42 1539.86,-19.2 1546.57,-27.4 1550.22,-21.42"/>
</a>
</g>
</g>
<!-- Node31&#45;&gt;Node29 -->
<g id="edge64_Node000031_Node000029" class="edge">
<title>Node31&#45;&gt;Node29</title>
<g id="a_edge64_Node000031_Node000029"><a xlink:title=" ">
<path fill="none" stroke="#63b8ff" d="M1878.15,-164.98C1799.26,-155.5 1672,-140.21 1589.17,-130.26"/>
<polygon fill="#63b8ff" stroke="#63b8ff" points="1589.39,-126.76 1579.04,-129.04 1588.55,-133.71 1589.39,-126.76"/>
</a>
</g>
</g>
<!-- Node31&#45;&gt;Node32 -->
<g id="edge61_Node000031_Node000032" class="edge">
<title>Node31&#45;&gt;Node32</title>
<g id="a_edge61_Node000031_Node000032"><a xlink:title=" ">
<path fill="none" stroke="#63b8ff" d="M1949,-164.75C1949,-157.8 1949,-147.85 1949,-139.13"/>
<polygon fill="#63b8ff" stroke="#63b8ff" points="1952.5,-139.09 1949,-129.09 1945.5,-139.09 1952.5,-139.09"/>
</a>
</g>
</g>
<!-- Node31&#45;&gt;Node33 -->
<g id="edge62_Node000031_Node000033" class="edge">
<title>Node31&#45;&gt;Node33</title>
<g id="a_edge62_Node000031_Node000033"><a xlink:title=" ">
<path fill="none" stroke="#63b8ff" d="M1977.76,-164.98C2007.94,-156.05 2055.57,-141.94 2089.1,-132.02"/>
<polygon fill="#63b8ff" stroke="#63b8ff" points="2090.42,-135.28 2099.02,-129.08 2088.43,-128.57 2090.42,-135.28"/>
</a>
</g>
</g>
<!-- Node34&#45;&gt;Node7 -->
<g id="edge66_Node000034_Node000007" class="edge">
<title>Node34&#45;&gt;Node7</title>
<g id="a_edge66_Node000034_Node000007"><a xlink:title=" ">
<path fill="none" stroke="#63b8ff" d="M1769.81,-219.97C1789.94,-213.62 1811.96,-202.69 1824,-184 1828.57,-176.9 1826.75,-172.98 1824,-165 1802.65,-103.02 1742.39,-50.07 1710.45,-25.37"/>
<polygon fill="#63b8ff" stroke="#63b8ff" points="1712.34,-22.41 1702.25,-19.17 1708.12,-28 1712.34,-22.41"/>
</a>
</g>
</g>
<!-- Node34&#45;&gt;Node31 -->
<g id="edge69_Node000034_Node000031" class="edge">
<title>Node34&#45;&gt;Node31</title>
<g id="a_edge69_Node000034_Node000031"><a xlink:title=" ">
<path fill="none" stroke="#63b8ff" d="M1761.83,-219.98C1800.16,-210.87 1861.08,-196.4 1902.95,-186.45"/>
<polygon fill="#63b8ff" stroke="#63b8ff" points="1903.97,-189.8 1912.89,-184.08 1902.35,-182.99 1903.97,-189.8"/>
</a>
</g>
</g>
<!-- Node34&#45;&gt;Node35 -->
<g id="edge67_Node000034_Node000035" class="edge">
<title>Node34&#45;&gt;Node35</title>
<g id="a_edge67_Node000034_Node000035"><a xlink:title=" ">
<path fill="none" stroke="#63b8ff" d="M1695.96,-219.98C1664.29,-211.01 1614.23,-196.82 1579.19,-186.89"/>
<polygon fill="#63b8ff" stroke="#63b8ff" points="1579.86,-183.44 1569.28,-184.08 1577.95,-190.18 1579.86,-183.44"/>
</a>
</g>
</g>
<!-- Node36 -->
<g id="Node000036" class="node">
<title>Node36</title>
<g id="a_Node000036"><a xlink:title=" ">
<polygon fill="#e0e0e0" stroke="#999999" points="1814.5,-184 1637.5,-184 1637.5,-165 1814.5,-165 1814.5,-184"/>
<text text-anchor="middle" x="1726" y="-172" font-family="Helvetica,sans-Serif" font-size="10.00">stk_mesh/base/GetNgpMesh.hpp</text>
</a>
</g>
</g>
<!-- Node34&#45;&gt;Node36 -->
<g id="edge68_Node000034_Node000036" class="edge">
<title>Node34&#45;&gt;Node36</title>
<g id="a_edge68_Node000034_Node000036"><a xlink:title=" ">
<path fill="none" stroke="#63b8ff" d="M1726,-219.75C1726,-212.8 1726,-202.85 1726,-194.13"/>
<polygon fill="#63b8ff" stroke="#63b8ff" points="1729.5,-194.09 1726,-184.09 1722.5,-194.09 1729.5,-194.09"/>
</a>
</g>
</g>
</g>
</svg>
