<?xml version="1.0" encoding="UTF-8" standalone="no"?>
<!DOCTYPE svg PUBLIC "-//W3C//DTD SVG 1.1//EN"
 "http://www.w3.org/Graphics/SVG/1.1/DTD/svg11.dtd">
<!-- Generated by graphviz version 2.43.0 (0)
 -->
<!-- Title: TurbViscSmagorinskyAlgorithm.C Pages: 1 -->
<svg width="2714pt" height="357pt"
 viewBox="0.00 0.00 2714.00 357.00" xmlns="http://www.w3.org/2000/svg" xmlns:xlink="http://www.w3.org/1999/xlink">
<g id="graph0" class="graph" transform="scale(1 1) rotate(0) translate(4 353)">
<title>TurbViscSmagorinskyAlgorithm.C</title>
<!-- Node1 -->
<g id="Node000001" class="node">
<title>Node1</title>
<g id="a_Node000001"><a xlink:title=" ">
<polygon fill="#999999" stroke="#666666" points="1674.5,-349 1496.5,-349 1496.5,-330 1674.5,-330 1674.5,-349"/>
<text text-anchor="middle" x="1585.5" y="-337" font-family="Helvetica,sans-Serif" font-size="10.00">TurbViscSmagorinskyAlgorithm.C</text>
</a>
</g>
</g>
<!-- Node2 -->
<g id="Node000002" class="node">
<title>Node2</title>
<g id="a_Node000002"><a xlink:href="_turb_visc_smagorinsky_algorithm_8h.html" target="_top" xlink:title=" ">
<polygon fill="white" stroke="#666666" points="323,-294 146,-294 146,-275 323,-275 323,-294"/>
<text text-anchor="middle" x="234.5" y="-282" font-family="Helvetica,sans-Serif" font-size="10.00">TurbViscSmagorinskyAlgorithm.h</text>
</a>
</g>
</g>
<!-- Node1&#45;&gt;Node2 -->
<g id="edge1_Node000001_Node000002" class="edge">
<title>Node1&#45;&gt;Node2</title>
<g id="a_edge1_Node000001_Node000002"><a xlink:title=" ">
<path fill="none" stroke="#63b8ff" d="M1496.33,-335C1254.41,-325.51 586.88,-299.32 333.66,-289.39"/>
<polygon fill="#63b8ff" stroke="#63b8ff" points="333.5,-285.88 323.37,-288.99 333.23,-292.88 333.5,-285.88"/>
</a>
</g>
</g>
<!-- Node3 -->
<g id="Node000003" class="node">
<title>Node3</title>
<g id="a_Node000003"><a xlink:href="_algorithm_8h.html" target="_top" xlink:title=" ">
<polygon fill="white" stroke="#666666" points="258.5,-239 184.5,-239 184.5,-220 258.5,-220 258.5,-239"/>
<text text-anchor="middle" x="221.5" y="-227" font-family="Helvetica,sans-Serif" font-size="10.00">Algorithm.h</text>
</a>
</g>
</g>
<!-- Node1&#45;&gt;Node3 -->
<g id="edge9_Node000001_Node000003" class="edge">
<title>Node1&#45;&gt;Node3</title>
<g id="a_edge9_Node000001_Node000003"><a xlink:title=" ">
<path fill="none" stroke="#63b8ff" d="M1496.45,-334.67C1284.03,-324.89 731.08,-295.69 272.5,-239 271.25,-238.85 269.98,-238.68 268.7,-238.51"/>
<polygon fill="#63b8ff" stroke="#63b8ff" points="269.17,-235.04 258.77,-237.08 268.17,-241.97 269.17,-235.04"/>
</a>
</g>
</g>
<!-- Node5 -->
<g id="Node000005" class="node">
<title>Node5</title>
<g id="a_Node000005"><a xlink:href="_field_type_def_8h.html" target="_top" xlink:title=" ">
<polygon fill="white" stroke="#666666" points="255.5,-74 167.5,-74 167.5,-55 255.5,-55 255.5,-74"/>
<text text-anchor="middle" x="211.5" y="-62" font-family="Helvetica,sans-Serif" font-size="10.00">FieldTypeDef.h</text>
</a>
</g>
</g>
<!-- Node1&#45;&gt;Node5 -->
<g id="edge10_Node000001_Node000005" class="edge">
<title>Node1&#45;&gt;Node5</title>
<g id="a_edge10_Node000001_Node000005"><a xlink:title=" ">
<path fill="none" stroke="#63b8ff" d="M1496.31,-338.61C1189.21,-338.63 191.45,-335.47 137.5,-294 114.15,-276.05 118.5,-259.96 118.5,-230.5 118.5,-230.5 118.5,-230.5 118.5,-173.5 118.5,-131.48 159.42,-97.69 186.97,-79.7"/>
<polygon fill="#63b8ff" stroke="#63b8ff" points="189.11,-82.49 195.72,-74.21 185.39,-76.56 189.11,-82.49"/>
</a>
</g>
</g>
<!-- Node6 -->
<g id="Node000006" class="node">
<title>Node6</title>
<g id="a_Node000006"><a xlink:title=" ">
<polygon fill="#e0e0e0" stroke="#999999" points="161,-19 0,-19 0,0 161,0 161,-19"/>
<text text-anchor="middle" x="80.5" y="-7" font-family="Helvetica,sans-Serif" font-size="10.00">stk_mesh/base/FieldBase.hpp</text>
</a>
</g>
</g>
<!-- Node1&#45;&gt;Node6 -->
<g id="edge79_Node000001_Node000006" class="edge">
<title>Node1&#45;&gt;Node6</title>
<g id="a_edge79_Node000001_Node000006"><a xlink:title=" ">
<path fill="none" stroke="#63b8ff" d="M1496.28,-338.15C1187.23,-336.61 178,-328.94 118.5,-294 90.14,-277.35 80.5,-263.39 80.5,-230.5 80.5,-230.5 80.5,-230.5 80.5,-118.5 80.5,-87.19 80.5,-50.77 80.5,-29.23"/>
<polygon fill="#63b8ff" stroke="#63b8ff" points="84,-29.18 80.5,-19.18 77,-29.18 84,-29.18"/>
</a>
</g>
</g>
<!-- Node10 -->
<g id="Node000010" class="node">
<title>Node10</title>
<g id="a_Node000010"><a xlink:href="_realm_8h.html" target="_top" xlink:title=" ">
<polygon fill="white" stroke="#666666" points="1017,-294 960,-294 960,-275 1017,-275 1017,-294"/>
<text text-anchor="middle" x="988.5" y="-282" font-family="Helvetica,sans-Serif" font-size="10.00">Realm.h</text>
</a>
</g>
</g>
<!-- Node1&#45;&gt;Node10 -->
<g id="edge11_Node000001_Node000010" class="edge">
<title>Node1&#45;&gt;Node10</title>
<g id="a_edge11_Node000001_Node000010"><a xlink:title=" ">
<path fill="none" stroke="#63b8ff" d="M1496.45,-330.59C1364.21,-318.85 1121.43,-297.3 1027.26,-288.94"/>
<polygon fill="#63b8ff" stroke="#63b8ff" points="1027.32,-285.43 1017.05,-288.03 1026.7,-292.41 1027.32,-285.43"/>
</a>
</g>
</g>
<!-- Node32 -->
<g id="Node000032" class="node">
<title>Node32</title>
<g id="a_Node000032"><a xlink:title=" ">
<polygon fill="#e0e0e0" stroke="#999999" points="2136,-129 1977,-129 1977,-110 2136,-110 2136,-129"/>
<text text-anchor="middle" x="2056.5" y="-117" font-family="Helvetica,sans-Serif" font-size="10.00">stk_mesh/base/BulkData.hpp</text>
</a>
</g>
</g>
<!-- Node1&#45;&gt;Node32 -->
<g id="edge75_Node000001_Node000032" class="edge">
<title>Node1&#45;&gt;Node32</title>
<g id="a_edge75_Node000001_Node000032"><a xlink:title=" ">
<path fill="none" stroke="#63b8ff" d="M1653.43,-330C1788.96,-311.48 2085.05,-262.76 2144.5,-184 2161.6,-161.34 2128.08,-143.36 2097.61,-132.39"/>
<polygon fill="#63b8ff" stroke="#63b8ff" points="2098.48,-128.99 2087.89,-129.08 2096.22,-135.62 2098.48,-128.99"/>
</a>
</g>
</g>
<!-- Node33 -->
<g id="Node000033" class="node">
<title>Node33</title>
<g id="a_Node000033"><a xlink:title=" ">
<polygon fill="#e0e0e0" stroke="#999999" points="2316.5,-129 2154.5,-129 2154.5,-110 2316.5,-110 2316.5,-129"/>
<text text-anchor="middle" x="2235.5" y="-117" font-family="Helvetica,sans-Serif" font-size="10.00">stk_mesh/base/MetaData.hpp</text>
</a>
</g>
</g>
<!-- Node1&#45;&gt;Node33 -->
<g id="edge77_Node000001_Node000033" class="edge">
<title>Node1&#45;&gt;Node33</title>
<g id="a_edge77_Node000001_Node000033"><a xlink:title=" ">
<path fill="none" stroke="#63b8ff" d="M1674.63,-336.72C1780.26,-331.2 1958.77,-310.87 2092.5,-239 2145.04,-210.77 2196.31,-161.46 2220.72,-136.28"/>
<polygon fill="#63b8ff" stroke="#63b8ff" points="2223.29,-138.66 2227.67,-129.01 2218.23,-133.82 2223.29,-138.66"/>
</a>
</g>
</g>
<!-- Node37 -->
<g id="Node000037" class="node">
<title>Node37</title>
<g id="a_Node000037"><a xlink:title=" ">
<polygon fill="#e0e0e0" stroke="#999999" points="2399.5,-294 2229.5,-294 2229.5,-275 2399.5,-275 2399.5,-294"/>
<text text-anchor="middle" x="2314.5" y="-282" font-family="Helvetica,sans-Serif" font-size="10.00">stk_mesh/base/GetBuckets.hpp</text>
</a>
</g>
</g>
<!-- Node1&#45;&gt;Node37 -->
<g id="edge76_Node000001_Node000037" class="edge">
<title>Node1&#45;&gt;Node37</title>
<g id="a_edge76_Node000001_Node000037"><a xlink:title=" ">
<path fill="none" stroke="#63b8ff" d="M1674.73,-332.62C1796.84,-324.49 2022.84,-309.07 2215.5,-294 2216.78,-293.9 2218.07,-293.8 2219.37,-293.7"/>
<polygon fill="#63b8ff" stroke="#63b8ff" points="2219.76,-297.18 2229.45,-292.89 2219.2,-290.2 2219.76,-297.18"/>
</a>
</g>
</g>
<!-- Node38 -->
<g id="Node000038" class="node">
<title>Node38</title>
<g id="a_Node000038"><a xlink:title=" ">
<polygon fill="#e0e0e0" stroke="#999999" points="2551,-294 2418,-294 2418,-275 2551,-275 2551,-294"/>
<text text-anchor="middle" x="2484.5" y="-282" font-family="Helvetica,sans-Serif" font-size="10.00">stk_mesh/base/Part.hpp</text>
</a>
</g>
</g>
<!-- Node1&#45;&gt;Node38 -->
<g id="edge78_Node000001_Node000038" class="edge">
<title>Node1&#45;&gt;Node38</title>
<g id="a_edge78_Node000001_Node000038"><a xlink:title=" ">
<path fill="none" stroke="#63b8ff" d="M1674.52,-335.36C1823.77,-329.73 2134.14,-316.43 2407.67,-294.01"/>
<polygon fill="#63b8ff" stroke="#63b8ff" points="2408.11,-297.49 2417.79,-293.18 2407.54,-290.51 2408.11,-297.49"/>
</a>
</g>
</g>
<!-- Node39 -->
<g id="Node000039" class="node">
<title>Node39</title>
<g id="a_Node000039"><a xlink:title=" ">
<polygon fill="#e0e0e0" stroke="#999999" points="2706,-294 2569,-294 2569,-275 2706,-275 2706,-294"/>
<text text-anchor="middle" x="2637.5" y="-282" font-family="Helvetica,sans-Serif" font-size="10.00">stk_mesh/base/Field.hpp</text>
</a>
</g>
</g>
<!-- Node1&#45;&gt;Node39 -->
<g id="edge80_Node000001_Node000039" class="edge">
<title>Node1&#45;&gt;Node39</title>
<g id="a_edge80_Node000001_Node000039"><a xlink:title=" ">
<path fill="none" stroke="#63b8ff" d="M1674.68,-336.35C1844.6,-331.83 2226.73,-319.65 2558.38,-294.12"/>
<polygon fill="#63b8ff" stroke="#63b8ff" points="2558.97,-297.58 2568.67,-293.32 2558.43,-290.6 2558.97,-297.58"/>
</a>
</g>
</g>
<!-- Node2&#45;&gt;Node3 -->
<g id="edge2_Node000002_Node000003" class="edge">
<title>Node2&#45;&gt;Node3</title>
<g id="a_edge2_Node000002_Node000003"><a xlink:title=" ">
<path fill="none" stroke="#63b8ff" d="M232.35,-274.75C230.63,-267.72 228.15,-257.62 226,-248.84"/>
<polygon fill="#63b8ff" stroke="#63b8ff" points="229.39,-247.97 223.61,-239.09 222.59,-249.63 229.39,-247.97"/>
</a>
</g>
</g>
<!-- Node2&#45;&gt;Node5 -->
<g id="edge4_Node000002_Node000005" class="edge">
<title>Node2&#45;&gt;Node5</title>
<g id="a_edge4_Node000002_Node000005"><a xlink:title=" ">
<path fill="none" stroke="#63b8ff" d="M215.23,-274.9C201.38,-267.55 183.74,-255.54 175.5,-239 149.26,-186.35 182.31,-115.55 200.71,-83.09"/>
<polygon fill="#63b8ff" stroke="#63b8ff" points="203.82,-84.71 205.87,-74.31 197.79,-81.16 203.82,-84.71"/>
</a>
</g>
</g>
<!-- Node4 -->
<g id="Node000004" class="node">
<title>Node4</title>
<g id="a_Node000004"><a xlink:title=" ">
<polygon fill="#e0e0e0" stroke="#999999" points="424,-129 377,-129 377,-110 424,-110 424,-129"/>
<text text-anchor="middle" x="400.5" y="-117" font-family="Helvetica,sans-Serif" font-size="10.00">vector</text>
</a>
</g>
</g>
<!-- Node3&#45;&gt;Node4 -->
<g id="edge3_Node000003_Node000004" class="edge">
<title>Node3&#45;&gt;Node4</title>
<g id="a_edge3_Node000003_Node000004"><a xlink:title=" ">
<path fill="none" stroke="#63b8ff" d="M226.29,-219.82C234.19,-206.24 251.24,-180 272.5,-165 301.14,-144.8 339.79,-133.04 367.1,-126.74"/>
<polygon fill="#63b8ff" stroke="#63b8ff" points="367.95,-130.14 376.97,-124.58 366.46,-123.3 367.95,-130.14"/>
</a>
</g>
</g>
<!-- Node5&#45;&gt;Node6 -->
<g id="edge5_Node000005_Node000006" class="edge">
<title>Node5&#45;&gt;Node6</title>
<g id="a_edge5_Node000005_Node000006"><a xlink:title=" ">
<path fill="none" stroke="#63b8ff" d="M190.45,-54.98C169.09,-46.34 135.8,-32.87 111.44,-23.02"/>
<polygon fill="#63b8ff" stroke="#63b8ff" points="112.51,-19.68 101.93,-19.17 109.89,-26.17 112.51,-19.68"/>
</a>
</g>
</g>
<!-- Node7 -->
<g id="Node000007" class="node">
<title>Node7</title>
<g id="a_Node000007"><a xlink:title=" ">
<polygon fill="#e0e0e0" stroke="#999999" points="2006.5,-19 1872.5,-19 1872.5,0 2006.5,0 2006.5,-19"/>
<text text-anchor="middle" x="1939.5" y="-7" font-family="Helvetica,sans-Serif" font-size="10.00">stk_mesh/base/Ngp.hpp</text>
</a>
</g>
</g>
<!-- Node5&#45;&gt;Node7 -->
<g id="edge6_Node000005_Node000007" class="edge">
<title>Node5&#45;&gt;Node7</title>
<g id="a_edge6_Node000005_Node000007"><a xlink:title=" ">
<path fill="none" stroke="#63b8ff" d="M255.6,-63.68C446.12,-64.16 1217.59,-63.17 1861.96,-19.04"/>
<polygon fill="#63b8ff" stroke="#63b8ff" points="1862.66,-22.5 1872.39,-18.32 1862.17,-15.51 1862.66,-22.5"/>
</a>
</g>
</g>
<!-- Node8 -->
<g id="Node000008" class="node">
<title>Node8</title>
<g id="a_Node000008"><a xlink:title=" ">
<polygon fill="#e0e0e0" stroke="#999999" points="1723,-19 1566,-19 1566,0 1723,0 1723,-19"/>
<text text-anchor="middle" x="1644.5" y="-7" font-family="Helvetica,sans-Serif" font-size="10.00">stk_mesh/base/NgpField.hpp</text>
</a>
</g>
</g>
<!-- Node5&#45;&gt;Node8 -->
<g id="edge7_Node000005_Node000008" class="edge">
<title>Node5&#45;&gt;Node8</title>
<g id="a_edge7_Node000005_Node000008"><a xlink:title=" ">
<path fill="none" stroke="#63b8ff" d="M255.56,-61.87C455.76,-54.47 1281.67,-23.92 1555.69,-13.78"/>
<polygon fill="#63b8ff" stroke="#63b8ff" points="1556.12,-17.27 1565.99,-13.4 1555.87,-10.28 1556.12,-17.27"/>
</a>
</g>
</g>
<!-- Node9 -->
<g id="Node000009" class="node">
<title>Node9</title>
<g id="a_Node000009"><a xlink:title=" ">
<polygon fill="#e0e0e0" stroke="#999999" points="244,-19 179,-19 179,0 244,0 244,-19"/>
<text text-anchor="middle" x="211.5" y="-7" font-family="Helvetica,sans-Serif" font-size="10.00">functional</text>
</a>
</g>
</g>
<!-- Node5&#45;&gt;Node9 -->
<g id="edge8_Node000005_Node000009" class="edge">
<title>Node5&#45;&gt;Node9</title>
<g id="a_edge8_Node000005_Node000009"><a xlink:title=" ">
<path fill="none" stroke="#63b8ff" d="M211.5,-54.75C211.5,-47.8 211.5,-37.85 211.5,-29.13"/>
<polygon fill="#63b8ff" stroke="#63b8ff" points="215,-29.09 211.5,-19.09 208,-29.09 215,-29.09"/>
</a>
</g>
</g>
<!-- Node10&#45;&gt;Node4 -->
<g id="edge73_Node000010_Node000004" class="edge">
<title>Node10&#45;&gt;Node4</title>
<g id="a_edge73_Node000010_Node000004"><a xlink:title=" ">
<path fill="none" stroke="#63b8ff" d="M959.9,-282.53C840.24,-278.36 385.06,-261.08 364.5,-239 337.76,-210.29 367.43,-162.3 386.68,-137.1"/>
<polygon fill="#63b8ff" stroke="#63b8ff" points="389.47,-139.22 392.95,-129.21 383.99,-134.87 389.47,-139.22"/>
</a>
</g>
</g>
<!-- Node10&#45;&gt;Node5 -->
<g id="edge15_Node000010_Node000005" class="edge">
<title>Node10&#45;&gt;Node5</title>
<g id="a_edge15_Node000010_Node000005"><a xlink:title=" ">
<path fill="none" stroke="#63b8ff" d="M959.99,-282.15C839.61,-276.37 377.86,-253.33 350.5,-239 283.28,-203.79 237.33,-120.34 219.62,-83.51"/>
<polygon fill="#63b8ff" stroke="#63b8ff" points="222.61,-81.63 215.21,-74.05 216.27,-84.59 222.61,-81.63"/>
</a>
</g>
</g>
<!-- Node11 -->
<g id="Node000011" class="node">
<title>Node11</title>
<g id="a_Node000011"><a xlink:href="_enums_8h.html" target="_top" xlink:title=" ">
<polygon fill="white" stroke="#666666" points="842,-184 783,-184 783,-165 842,-165 842,-184"/>
<text text-anchor="middle" x="812.5" y="-172" font-family="Helvetica,sans-Serif" font-size="10.00">Enums.h</text>
</a>
</g>
</g>
<!-- Node10&#45;&gt;Node11 -->
<g id="edge12_Node000010_Node000011" class="edge">
<title>Node10&#45;&gt;Node11</title>
<g id="a_edge12_Node000010_Node000011"><a xlink:title=" ">
<path fill="none" stroke="#63b8ff" d="M985.71,-274.74C980.91,-261.07 969.81,-234.7 951.5,-220 922.87,-197.01 882.11,-185.79 852.13,-180.38"/>
<polygon fill="#63b8ff" stroke="#63b8ff" points="852.45,-176.88 842.01,-178.7 851.3,-183.79 852.45,-176.88"/>
</a>
</g>
</g>
<!-- Node12 -->
<g id="Node000012" class="node">
<title>Node12</title>
<g id="a_Node000012"><a xlink:title=" ">
<polygon fill="#e0e0e0" stroke="#999999" points="738.5,-129 694.5,-129 694.5,-110 738.5,-110 738.5,-129"/>
<text text-anchor="middle" x="716.5" y="-117" font-family="Helvetica,sans-Serif" font-size="10.00">string</text>
</a>
</g>
</g>
<!-- Node10&#45;&gt;Node12 -->
<g id="edge72_Node000010_Node000012" class="edge">
<title>Node10&#45;&gt;Node12</title>
<g id="a_edge72_Node000010_Node000012"><a xlink:title=" ">
<path fill="none" stroke="#63b8ff" d="M959.93,-282.47C842.52,-278.12 402.4,-260.42 382.5,-239 293.19,-142.89 584.38,-124.68 684.17,-121.27"/>
<polygon fill="#63b8ff" stroke="#63b8ff" points="684.4,-124.76 694.29,-120.95 684.18,-117.77 684.4,-124.76"/>
</a>
</g>
</g>
<!-- Node13 -->
<g id="Node000013" class="node">
<title>Node13</title>
<g id="a_Node000013"><a xlink:title=" ">
<polygon fill="#e0e0e0" stroke="#999999" points="889.5,-129 851.5,-129 851.5,-110 889.5,-110 889.5,-129"/>
<text text-anchor="middle" x="870.5" y="-117" font-family="Helvetica,sans-Serif" font-size="10.00">map</text>
</a>
</g>
</g>
<!-- Node10&#45;&gt;Node13 -->
<g id="edge71_Node000010_Node000013" class="edge">
<title>Node10&#45;&gt;Node13</title>
<g id="a_edge71_Node000010_Node000013"><a xlink:title=" ">
<path fill="none" stroke="#63b8ff" d="M1017.03,-283.14C1070.8,-281.28 1179.24,-271.25 1150.5,-220 1100.63,-131.07 960.88,-120.15 899.75,-119.79"/>
<polygon fill="#63b8ff" stroke="#63b8ff" points="899.61,-116.29 889.63,-119.83 899.64,-123.29 899.61,-116.29"/>
</a>
</g>
</g>
<!-- Node14 -->
<g id="Node000014" class="node">
<title>Node14</title>
<g id="a_Node000014"><a xlink:href="_boundary_conditions_8h.html" target="_top" xlink:title=" ">
<polygon fill="white" stroke="#666666" points="774.5,-239 650.5,-239 650.5,-220 774.5,-220 774.5,-239"/>
<text text-anchor="middle" x="712.5" y="-227" font-family="Helvetica,sans-Serif" font-size="10.00">BoundaryConditions.h</text>
</a>
</g>
</g>
<!-- Node10&#45;&gt;Node14 -->
<g id="edge16_Node000010_Node000014" class="edge">
<title>Node10&#45;&gt;Node14</title>
<g id="a_edge16_Node000010_Node000014"><a xlink:title=" ">
<path fill="none" stroke="#63b8ff" d="M959.74,-277.98C914.29,-269.25 825.06,-252.11 767.15,-240.99"/>
<polygon fill="#63b8ff" stroke="#63b8ff" points="767.55,-237.51 757.07,-239.06 766.23,-244.38 767.55,-237.51"/>
</a>
</g>
</g>
<!-- Node15 -->
<g id="Node000015" class="node">
<title>Node15</title>
<g id="a_Node000015"><a xlink:title=" ">
<polygon fill="#e0e0e0" stroke="#999999" points="956.5,-184 898.5,-184 898.5,-165 956.5,-165 956.5,-184"/>
<text text-anchor="middle" x="927.5" y="-172" font-family="Helvetica,sans-Serif" font-size="10.00">memory</text>
</a>
</g>
</g>
<!-- Node10&#45;&gt;Node15 -->
<g id="edge74_Node000010_Node000015" class="edge">
<title>Node10&#45;&gt;Node15</title>
<g id="a_edge74_Node000010_Node000015"><a xlink:title=" ">
<path fill="none" stroke="#63b8ff" d="M989.91,-274.68C991.52,-261.83 992.85,-237.57 983.5,-220 976.73,-207.28 964.6,-196.96 953.36,-189.46"/>
<polygon fill="#63b8ff" stroke="#63b8ff" points="954.99,-186.36 944.65,-184.07 951.31,-192.31 954.99,-186.36"/>
</a>
</g>
</g>
<!-- Node16 -->
<g id="Node000016" class="node">
<title>Node16</title>
<g id="a_Node000016"><a xlink:href="_initial_conditions_8h.html" target="_top" xlink:title=" ">
<polygon fill="white" stroke="#666666" points="1141,-239 1036,-239 1036,-220 1141,-220 1141,-239"/>
<text text-anchor="middle" x="1088.5" y="-227" font-family="Helvetica,sans-Serif" font-size="10.00">InitialConditions.h</text>
</a>
</g>
</g>
<!-- Node10&#45;&gt;Node16 -->
<g id="edge22_Node000010_Node000016" class="edge">
<title>Node10&#45;&gt;Node16</title>
<g id="a_edge22_Node000010_Node000016"><a xlink:title=" ">
<path fill="none" stroke="#63b8ff" d="M1004.57,-274.98C1020.36,-266.61 1044.72,-253.7 1063.13,-243.95"/>
<polygon fill="#63b8ff" stroke="#63b8ff" points="1064.94,-246.95 1072.14,-239.17 1061.67,-240.76 1064.94,-246.95"/>
</a>
</g>
</g>
<!-- Node17 -->
<g id="Node000017" class="node">
<title>Node17</title>
<g id="a_Node000017"><a xlink:href="_material_propertys_8h.html" target="_top" xlink:title=" ">
<polygon fill="white" stroke="#666666" points="504,-239 391,-239 391,-220 504,-220 504,-239"/>
<text text-anchor="middle" x="447.5" y="-227" font-family="Helvetica,sans-Serif" font-size="10.00">MaterialPropertys.h</text>
</a>
</g>
</g>
<!-- Node10&#45;&gt;Node17 -->
<g id="edge28_Node000010_Node000017" class="edge">
<title>Node10&#45;&gt;Node17</title>
<g id="a_edge28_Node000010_Node000017"><a xlink:title=" ">
<path fill="none" stroke="#63b8ff" d="M959.82,-281.16C887.2,-275.17 689.96,-258.43 513.97,-239.01"/>
<polygon fill="#63b8ff" stroke="#63b8ff" points="514.33,-235.53 504.01,-237.91 513.56,-242.49 514.33,-235.53"/>
</a>
</g>
</g>
<!-- Node18 -->
<g id="Node000018" class="node">
<title>Node18</title>
<g id="a_Node000018"><a xlink:href="_equation_systems_8h.html" target="_top" xlink:title=" ">
<polygon fill="white" stroke="#666666" points="632.5,-239 522.5,-239 522.5,-220 632.5,-220 632.5,-239"/>
<text text-anchor="middle" x="577.5" y="-227" font-family="Helvetica,sans-Serif" font-size="10.00">EquationSystems.h</text>
</a>
</g>
</g>
<!-- Node10&#45;&gt;Node18 -->
<g id="edge33_Node000010_Node000018" class="edge">
<title>Node10&#45;&gt;Node18</title>
<g id="a_edge33_Node000010_Node000018"><a xlink:title=" ">
<path fill="none" stroke="#63b8ff" d="M959.7,-279.85C901.81,-272.51 766.91,-255.34 642.72,-239.15"/>
<polygon fill="#63b8ff" stroke="#63b8ff" points="643.02,-235.66 632.66,-237.84 642.12,-242.61 643.02,-235.66"/>
</a>
</g>
</g>
<!-- Node20 -->
<g id="Node000020" class="node">
<title>Node20</title>
<g id="a_Node000020"><a xlink:href="_field_manager_8h.html" target="_top" xlink:title=" ">
<polygon fill="white" stroke="#666666" points="1436,-239 1345,-239 1345,-220 1436,-220 1436,-239"/>
<text text-anchor="middle" x="1390.5" y="-227" font-family="Helvetica,sans-Serif" font-size="10.00">FieldManager.h</text>
</a>
</g>
</g>
<!-- Node10&#45;&gt;Node20 -->
<g id="edge42_Node000010_Node000020" class="edge">
<title>Node10&#45;&gt;Node20</title>
<g id="a_edge42_Node000010_Node000020"><a xlink:title=" ">
<path fill="none" stroke="#63b8ff" d="M1017.09,-279.73C1083.26,-271.01 1247.92,-249.3 1334.8,-237.84"/>
<polygon fill="#63b8ff" stroke="#63b8ff" points="1335.29,-241.31 1344.74,-236.53 1334.37,-234.37 1335.29,-241.31"/>
</a>
</g>
</g>
<!-- Node30 -->
<g id="Node000030" class="node">
<title>Node30</title>
<g id="a_Node000030"><a xlink:title=" ">
<polygon fill="#e0e0e0" stroke="#999999" points="942,-239 793,-239 793,-220 942,-220 942,-239"/>
<text text-anchor="middle" x="867.5" y="-227" font-family="Helvetica,sans-Serif" font-size="10.00">Teuchos_ParameterList.hpp</text>
</a>
</g>
</g>
<!-- Node10&#45;&gt;Node30 -->
<g id="edge59_Node000010_Node000030" class="edge">
<title>Node10&#45;&gt;Node30</title>
<g id="a_edge59_Node000010_Node000030"><a xlink:title=" ">
<path fill="none" stroke="#63b8ff" d="M969.06,-274.98C949.51,-266.42 919.12,-253.11 896.68,-243.28"/>
<polygon fill="#63b8ff" stroke="#63b8ff" points="897.86,-239.98 887.29,-239.17 895.05,-246.39 897.86,-239.98"/>
</a>
</g>
</g>
<!-- Node31 -->
<g id="Node000031" class="node">
<title>Node31</title>
<g id="a_Node000031"><a xlink:href="_ngp_field_manager_8h.html" target="_top" xlink:title="NGP Field Manager.">
<polygon fill="white" stroke="#666666" points="2135.5,-184 1977.5,-184 1977.5,-165 2135.5,-165 2135.5,-184"/>
<text text-anchor="middle" x="2056.5" y="-172" font-family="Helvetica,sans-Serif" font-size="10.00">ngp_utils/NgpFieldManager.h</text>
</a>
</g>
</g>
<!-- Node10&#45;&gt;Node31 -->
<g id="edge60_Node000010_Node000031" class="edge">
<title>Node10&#45;&gt;Node31</title>
<g id="a_edge60_Node000010_Node000031"><a xlink:title=" ">
<path fill="none" stroke="#63b8ff" d="M1017.18,-283.52C1153.37,-283.37 1735.4,-280.32 1911.5,-239 1956.49,-228.44 2004.95,-204.35 2032.9,-189.07"/>
<polygon fill="#63b8ff" stroke="#63b8ff" points="2034.85,-191.98 2041.89,-184.06 2031.45,-185.87 2034.85,-191.98"/>
</a>
</g>
</g>
<!-- Node34 -->
<g id="Node000034" class="node">
<title>Node34</title>
<g id="a_Node000034"><a xlink:href="_ngp_mesh_info_8h.html" target="_top" xlink:title="NGP mesh information objects.">
<polygon fill="white" stroke="#666666" points="1902,-239 1765,-239 1765,-220 1902,-220 1902,-239"/>
<text text-anchor="middle" x="1833.5" y="-227" font-family="Helvetica,sans-Serif" font-size="10.00">ngp_utils/NgpMeshInfo.h</text>
</a>
</g>
</g>
<!-- Node10&#45;&gt;Node34 -->
<g id="edge65_Node000010_Node000034" class="edge">
<title>Node10&#45;&gt;Node34</title>
<g id="a_edge65_Node000010_Node000034"><a xlink:title=" ">
<path fill="none" stroke="#63b8ff" d="M1017.1,-281.71C1133.46,-274.41 1573.71,-246.79 1754.88,-235.43"/>
<polygon fill="#63b8ff" stroke="#63b8ff" points="1755.12,-238.92 1764.88,-234.8 1754.68,-231.94 1755.12,-238.92"/>
</a>
</g>
</g>
<!-- Node35 -->
<g id="Node000035" class="node">
<title>Node35</title>
<g id="a_Node000035"><a xlink:title=" ">
<polygon fill="#e0e0e0" stroke="#999999" points="1726.5,-184 1566.5,-184 1566.5,-165 1726.5,-165 1726.5,-184"/>
<text text-anchor="middle" x="1646.5" y="-172" font-family="Helvetica,sans-Serif" font-size="10.00">stk_mesh/base/NgpMesh.hpp</text>
</a>
</g>
</g>
<!-- Node10&#45;&gt;Node35 -->
<g id="edge70_Node000010_Node000035" class="edge">
<title>Node10&#45;&gt;Node35</title>
<g id="a_edge70_Node000010_Node000035"><a xlink:title=" ">
<path fill="none" stroke="#63b8ff" d="M1017.15,-282.78C1089.61,-280.53 1285.78,-271.63 1445.5,-239 1506.85,-226.47 1575.98,-202.32 1615.09,-187.68"/>
<polygon fill="#63b8ff" stroke="#63b8ff" points="1616.48,-190.9 1624.59,-184.09 1614,-184.35 1616.48,-190.9"/>
</a>
</g>
</g>
<!-- Node11&#45;&gt;Node12 -->
<g id="edge13_Node000011_Node000012" class="edge">
<title>Node11&#45;&gt;Node12</title>
<g id="a_edge13_Node000011_Node000012"><a xlink:title=" ">
<path fill="none" stroke="#63b8ff" d="M797.08,-164.98C782.05,-156.69 758.96,-143.94 741.34,-134.22"/>
<polygon fill="#63b8ff" stroke="#63b8ff" points="742.65,-130.94 732.2,-129.17 739.27,-137.07 742.65,-130.94"/>
</a>
</g>
</g>
<!-- Node11&#45;&gt;Node13 -->
<g id="edge14_Node000011_Node000013" class="edge">
<title>Node11&#45;&gt;Node13</title>
<g id="a_edge14_Node000011_Node000013"><a xlink:title=" ">
<path fill="none" stroke="#63b8ff" d="M821.82,-164.98C830.31,-157.23 843.06,-145.58 853.38,-136.14"/>
<polygon fill="#63b8ff" stroke="#63b8ff" points="855.99,-138.5 861.01,-129.17 851.27,-133.33 855.99,-138.5"/>
</a>
</g>
</g>
<!-- Node14&#45;&gt;Node4 -->
<g id="edge20_Node000014_Node000004" class="edge">
<title>Node14&#45;&gt;Node4</title>
<g id="a_edge20_Node000014_Node000004"><a xlink:title=" ">
<path fill="none" stroke="#63b8ff" d="M658.84,-219.93C604.49,-210.82 524.42,-196.08 495.5,-184 466.4,-171.84 436.8,-150.29 418.55,-135.71"/>
<polygon fill="#63b8ff" stroke="#63b8ff" points="420.51,-132.79 410.55,-129.18 416.09,-138.21 420.51,-132.79"/>
</a>
</g>
</g>
<!-- Node14&#45;&gt;Node11 -->
<g id="edge17_Node000014_Node000011" class="edge">
<title>Node14&#45;&gt;Node11</title>
<g id="a_edge17_Node000014_Node000011"><a xlink:title=" ">
<path fill="none" stroke="#63b8ff" d="M728.57,-219.98C744.36,-211.61 768.72,-198.7 787.13,-188.95"/>
<polygon fill="#63b8ff" stroke="#63b8ff" points="788.94,-191.95 796.14,-184.17 785.67,-185.76 788.94,-191.95"/>
</a>
</g>
</g>
<!-- Node14&#45;&gt;Node12 -->
<g id="edge19_Node000014_Node000012" class="edge">
<title>Node14&#45;&gt;Node12</title>
<g id="a_edge19_Node000014_Node000012"><a xlink:title=" ">
<path fill="none" stroke="#63b8ff" d="M712.83,-219.66C713.48,-202.17 714.93,-162.8 715.8,-139.27"/>
<polygon fill="#63b8ff" stroke="#63b8ff" points="719.31,-139.28 716.18,-129.16 712.31,-139.02 719.31,-139.28"/>
</a>
</g>
</g>
<!-- Node14&#45;&gt;Node13 -->
<g id="edge18_Node000014_Node000013" class="edge">
<title>Node14&#45;&gt;Node13</title>
<g id="a_edge18_Node000014_Node000013"><a xlink:title=" ">
<path fill="none" stroke="#63b8ff" d="M774.68,-221.65C801.49,-215.7 831.27,-204.62 851.5,-184 863.2,-172.07 867.74,-153.25 869.48,-139.19"/>
<polygon fill="#63b8ff" stroke="#63b8ff" points="872.97,-139.42 870.36,-129.16 866,-138.81 872.97,-139.42"/>
</a>
</g>
</g>
<!-- Node14&#45;&gt;Node15 -->
<g id="edge21_Node000014_Node000015" class="edge">
<title>Node14&#45;&gt;Node15</title>
<g id="a_edge21_Node000014_Node000015"><a xlink:title=" ">
<path fill="none" stroke="#63b8ff" d="M747.04,-219.98C785.67,-210.46 848.1,-195.07 888.46,-185.12"/>
<polygon fill="#63b8ff" stroke="#63b8ff" points="889.35,-188.51 898.22,-182.72 887.68,-181.71 889.35,-188.51"/>
</a>
</g>
</g>
<!-- Node16&#45;&gt;Node4 -->
<g id="edge26_Node000016_Node000004" class="edge">
<title>Node16&#45;&gt;Node4</title>
<g id="a_edge26_Node000016_Node000004"><a xlink:title=" ">
<path fill="none" stroke="#63b8ff" d="M1070.4,-219.97C1052.1,-211.24 1023.1,-197.14 998.5,-184 983.57,-176.02 981.67,-170.01 965.5,-165 865.32,-133.96 540.19,-123.76 434.23,-121.21"/>
<polygon fill="#63b8ff" stroke="#63b8ff" points="434.18,-117.71 424.1,-120.98 434.02,-124.71 434.18,-117.71"/>
</a>
</g>
</g>
<!-- Node16&#45;&gt;Node11 -->
<g id="edge23_Node000016_Node000011" class="edge">
<title>Node16&#45;&gt;Node11</title>
<g id="a_edge23_Node000016_Node000011"><a xlink:title=" ">
<path fill="none" stroke="#63b8ff" d="M1044.16,-219.98C991.12,-209.8 903.15,-192.91 852.24,-183.13"/>
<polygon fill="#63b8ff" stroke="#63b8ff" points="852.76,-179.67 842.27,-181.22 851.43,-186.54 852.76,-179.67"/>
</a>
</g>
</g>
<!-- Node16&#45;&gt;Node12 -->
<g id="edge25_Node000016_Node000012" class="edge">
<title>Node16&#45;&gt;Node12</title>
<g id="a_edge25_Node000016_Node000012"><a xlink:title=" ">
<path fill="none" stroke="#63b8ff" d="M1079.39,-219.85C1064.03,-205.83 1031.46,-178.37 998.5,-165 953.67,-146.81 813.24,-130.49 749.07,-123.76"/>
<polygon fill="#63b8ff" stroke="#63b8ff" points="749.04,-120.24 738.73,-122.69 748.32,-127.2 749.04,-120.24"/>
</a>
</g>
</g>
<!-- Node16&#45;&gt;Node13 -->
<g id="edge24_Node000016_Node000013" class="edge">
<title>Node16&#45;&gt;Node13</title>
<g id="a_edge24_Node000016_Node000013"><a xlink:title=" ">
<path fill="none" stroke="#63b8ff" d="M1083.7,-219.63C1075.75,-205.8 1058.53,-179.22 1036.5,-165 993.91,-137.5 934.72,-126.9 899.74,-122.88"/>
<polygon fill="#63b8ff" stroke="#63b8ff" points="900.01,-119.39 889.7,-121.84 899.28,-126.35 900.01,-119.39"/>
</a>
</g>
</g>
<!-- Node16&#45;&gt;Node15 -->
<g id="edge27_Node000016_Node000015" class="edge">
<title>Node16&#45;&gt;Node15</title>
<g id="a_edge27_Node000016_Node000015"><a xlink:title=" ">
<path fill="none" stroke="#63b8ff" d="M1062.63,-219.98C1035.72,-211.13 993.38,-197.19 963.27,-187.28"/>
<polygon fill="#63b8ff" stroke="#63b8ff" points="964.16,-183.88 953.57,-184.08 961.97,-190.53 964.16,-183.88"/>
</a>
</g>
</g>
<!-- Node17&#45;&gt;Node4 -->
<g id="edge32_Node000017_Node000004" class="edge">
<title>Node17&#45;&gt;Node4</title>
<g id="a_edge32_Node000017_Node000004"><a xlink:title=" ">
<path fill="none" stroke="#63b8ff" d="M427.3,-219.91C413.03,-212.64 394.99,-200.71 386.5,-184 379.16,-169.57 384.44,-151.37 390.5,-138.16"/>
<polygon fill="#63b8ff" stroke="#63b8ff" points="393.66,-139.67 395.1,-129.18 387.43,-136.49 393.66,-139.67"/>
</a>
</g>
</g>
<!-- Node17&#45;&gt;Node11 -->
<g id="edge29_Node000017_Node000011" class="edge">
<title>Node17&#45;&gt;Node11</title>
<g id="a_edge29_Node000017_Node000011"><a xlink:title=" ">
<path fill="none" stroke="#63b8ff" d="M504.13,-220.28C578.48,-209.48 707.19,-190.79 772.3,-181.34"/>
<polygon fill="#63b8ff" stroke="#63b8ff" points="773.16,-184.75 782.56,-179.85 772.16,-177.82 773.16,-184.75"/>
</a>
</g>
</g>
<!-- Node17&#45;&gt;Node12 -->
<g id="edge31_Node000017_Node000012" class="edge">
<title>Node17&#45;&gt;Node12</title>
<g id="a_edge31_Node000017_Node000012"><a xlink:title=" ">
<path fill="none" stroke="#63b8ff" d="M451.42,-219.92C458.26,-206 473.74,-178.68 495.5,-165 554.55,-127.88 638.49,-120.88 684.04,-120.05"/>
<polygon fill="#63b8ff" stroke="#63b8ff" points="684.26,-123.55 694.23,-119.96 684.2,-116.55 684.26,-123.55"/>
</a>
</g>
</g>
<!-- Node17&#45;&gt;Node13 -->
<g id="edge30_Node000017_Node000013" class="edge">
<title>Node17&#45;&gt;Node13</title>
<g id="a_edge30_Node000017_Node000013"><a xlink:title=" ">
<path fill="none" stroke="#63b8ff" d="M481.05,-219.94C561.67,-199.35 765.26,-147.37 841.28,-127.96"/>
<polygon fill="#63b8ff" stroke="#63b8ff" points="842.31,-131.31 851.13,-125.45 840.57,-124.53 842.31,-131.31"/>
</a>
</g>
</g>
<!-- Node18&#45;&gt;Node4 -->
<g id="edge40_Node000018_Node000004" class="edge">
<title>Node18&#45;&gt;Node4</title>
<g id="a_edge40_Node000018_Node000004"><a xlink:title=" ">
<path fill="none" stroke="#63b8ff" d="M532.2,-219.98C493.01,-211.8 440.24,-198.55 424.5,-184 411.94,-172.38 405.9,-153.52 403.04,-139.36"/>
<polygon fill="#63b8ff" stroke="#63b8ff" points="406.45,-138.54 401.35,-129.25 399.54,-139.69 406.45,-138.54"/>
</a>
</g>
</g>
<!-- Node18&#45;&gt;Node11 -->
<g id="edge34_Node000018_Node000011" class="edge">
<title>Node18&#45;&gt;Node11</title>
<g id="a_edge34_Node000018_Node000011"><a xlink:title=" ">
<path fill="none" stroke="#63b8ff" d="M615.26,-219.98C658.47,-210.24 728.93,-194.35 772.9,-184.43"/>
<polygon fill="#63b8ff" stroke="#63b8ff" points="773.68,-187.84 782.66,-182.23 772.14,-181.01 773.68,-187.84"/>
</a>
</g>
</g>
<!-- Node18&#45;&gt;Node12 -->
<g id="edge39_Node000018_Node000012" class="edge">
<title>Node18&#45;&gt;Node12</title>
<g id="a_edge39_Node000018_Node000012"><a xlink:title=" ">
<path fill="none" stroke="#63b8ff" d="M588.87,-219.66C612.61,-201.22 667.66,-158.45 697.1,-135.57"/>
<polygon fill="#63b8ff" stroke="#63b8ff" points="699.61,-138.06 705.36,-129.16 695.31,-132.53 699.61,-138.06"/>
</a>
</g>
</g>
<!-- Node18&#45;&gt;Node13 -->
<g id="edge38_Node000018_Node000013" class="edge">
<title>Node18&#45;&gt;Node13</title>
<g id="a_edge38_Node000018_Node000013"><a xlink:title=" ">
<path fill="none" stroke="#63b8ff" d="M600.98,-219.84C654.15,-200.25 783.59,-152.54 841.57,-131.16"/>
<polygon fill="#63b8ff" stroke="#63b8ff" points="843.04,-134.35 851.21,-127.61 840.62,-127.78 843.04,-134.35"/>
</a>
</g>
</g>
<!-- Node18&#45;&gt;Node15 -->
<g id="edge41_Node000018_Node000015" class="edge">
<title>Node18&#45;&gt;Node15</title>
<g id="a_edge41_Node000018_Node000015"><a xlink:title=" ">
<path fill="none" stroke="#63b8ff" d="M632.57,-220.16C703.73,-209.39 825.85,-190.89 888.27,-181.44"/>
<polygon fill="#63b8ff" stroke="#63b8ff" points="889.12,-184.85 898.48,-179.89 888.07,-177.93 889.12,-184.85"/>
</a>
</g>
</g>
<!-- Node19 -->
<g id="Node000019" class="node">
<title>Node19</title>
<g id="a_Node000019"><a xlink:href="_nalu_parsed_types_8h.html" target="_top" xlink:title=" ">
<polygon fill="white" stroke="#666666" points="612.5,-184 504.5,-184 504.5,-165 612.5,-165 612.5,-184"/>
<text text-anchor="middle" x="558.5" y="-172" font-family="Helvetica,sans-Serif" font-size="10.00">NaluParsedTypes.h</text>
</a>
</g>
</g>
<!-- Node18&#45;&gt;Node19 -->
<g id="edge35_Node000018_Node000019" class="edge">
<title>Node18&#45;&gt;Node19</title>
<g id="a_edge35_Node000018_Node000019"><a xlink:title=" ">
<path fill="none" stroke="#63b8ff" d="M574.36,-219.75C571.82,-212.65 568.14,-202.4 564.97,-193.56"/>
<polygon fill="#63b8ff" stroke="#63b8ff" points="568.25,-192.32 561.58,-184.09 561.66,-194.68 568.25,-192.32"/>
</a>
</g>
</g>
<!-- Node19&#45;&gt;Node4 -->
<g id="edge37_Node000019_Node000004" class="edge">
<title>Node19&#45;&gt;Node4</title>
<g id="a_edge37_Node000019_Node000004"><a xlink:title=" ">
<path fill="none" stroke="#63b8ff" d="M533.11,-164.98C506.08,-155.91 463.17,-141.52 433.52,-131.58"/>
<polygon fill="#63b8ff" stroke="#63b8ff" points="434.61,-128.25 424.02,-128.39 432.38,-134.89 434.61,-128.25"/>
</a>
</g>
</g>
<!-- Node19&#45;&gt;Node12 -->
<g id="edge36_Node000019_Node000012" class="edge">
<title>Node19&#45;&gt;Node12</title>
<g id="a_edge36_Node000019_Node000012"><a xlink:title=" ">
<path fill="none" stroke="#63b8ff" d="M583.89,-164.98C611.27,-155.8 654.94,-141.15 684.62,-131.19"/>
<polygon fill="#63b8ff" stroke="#63b8ff" points="686.12,-134.38 694.49,-127.88 683.9,-127.74 686.12,-134.38"/>
</a>
</g>
</g>
<!-- Node20&#45;&gt;Node12 -->
<g id="edge57_Node000020_Node000012" class="edge">
<title>Node20&#45;&gt;Node12</title>
<g id="a_edge57_Node000020_Node000012"><a xlink:title=" ">
<path fill="none" stroke="#63b8ff" d="M1344.99,-220C1276.61,-207.34 1143.25,-183.09 1029.5,-165 927.14,-148.73 805.49,-132.25 748.7,-124.72"/>
<polygon fill="#63b8ff" stroke="#63b8ff" points="748.92,-121.22 738.55,-123.38 748,-128.16 748.92,-121.22"/>
</a>
</g>
</g>
<!-- Node21 -->
<g id="Node000021" class="node">
<title>Node21</title>
<g id="a_Node000021"><a xlink:href="_field_registry_8h.html" target="_top" xlink:title=" ">
<polygon fill="white" stroke="#666666" points="1434.5,-184 1346.5,-184 1346.5,-165 1434.5,-165 1434.5,-184"/>
<text text-anchor="middle" x="1390.5" y="-172" font-family="Helvetica,sans-Serif" font-size="10.00">FieldRegistry.h</text>
</a>
</g>
</g>
<!-- Node20&#45;&gt;Node21 -->
<g id="edge43_Node000020_Node000021" class="edge">
<title>Node20&#45;&gt;Node21</title>
<g id="a_edge43_Node000020_Node000021"><a xlink:title=" ">
<path fill="none" stroke="#63b8ff" d="M1390.5,-219.75C1390.5,-212.8 1390.5,-202.85 1390.5,-194.13"/>
<polygon fill="#63b8ff" stroke="#63b8ff" points="1394,-194.09 1390.5,-184.09 1387,-194.09 1394,-194.09"/>
</a>
</g>
</g>
<!-- Node24 -->
<g id="Node000024" class="node">
<title>Node24</title>
<g id="a_Node000024"><a xlink:title=" ">
<polygon fill="#e0e0e0" stroke="#999999" points="1497,-74 1428,-74 1428,-55 1497,-55 1497,-74"/>
<text text-anchor="middle" x="1462.5" y="-62" font-family="Helvetica,sans-Serif" font-size="10.00">type_traits</text>
</a>
</g>
</g>
<!-- Node20&#45;&gt;Node24 -->
<g id="edge58_Node000020_Node000024" class="edge">
<title>Node20&#45;&gt;Node24</title>
<g id="a_edge58_Node000020_Node000024"><a xlink:title=" ">
<path fill="none" stroke="#63b8ff" d="M1405.66,-219.99C1417.94,-212.26 1434.61,-199.68 1443.5,-184 1461.42,-152.39 1463.74,-108.86 1463.4,-84.32"/>
<polygon fill="#63b8ff" stroke="#63b8ff" points="1466.9,-84.09 1463.09,-74.21 1459.9,-84.31 1466.9,-84.09"/>
</a>
</g>
</g>
<!-- Node26 -->
<g id="Node000026" class="node">
<title>Node26</title>
<g id="a_Node000026"><a xlink:href="_smart_field_8h.html" target="_top" xlink:title=" ">
<polygon fill="white" stroke="#666666" points="1836.5,-74 1758.5,-74 1758.5,-55 1836.5,-55 1836.5,-74"/>
<text text-anchor="middle" x="1797.5" y="-62" font-family="Helvetica,sans-Serif" font-size="10.00">SmartField.h</text>
</a>
</g>
</g>
<!-- Node20&#45;&gt;Node26 -->
<g id="edge51_Node000020_Node000026" class="edge">
<title>Node20&#45;&gt;Node26</title>
<g id="a_edge51_Node000020_Node000026"><a xlink:title=" ">
<path fill="none" stroke="#63b8ff" d="M1407.7,-219.92C1422.83,-211.88 1444.96,-198.89 1461.5,-184 1492.56,-156.04 1483.5,-131.21 1519.5,-110 1557.3,-87.73 1678.81,-74.81 1748.03,-69.08"/>
<polygon fill="#63b8ff" stroke="#63b8ff" points="1748.57,-72.55 1758.25,-68.25 1748,-65.57 1748.57,-72.55"/>
</a>
</g>
</g>
<!-- Node28 -->
<g id="Node000028" class="node">
<title>Node28</title>
<g id="a_Node000028"><a xlink:title=" ">
<polygon fill="#e0e0e0" stroke="#999999" points="1328,-184 1165,-184 1165,-165 1328,-165 1328,-184"/>
<text text-anchor="middle" x="1246.5" y="-172" font-family="Helvetica,sans-Serif" font-size="10.00">stk_mesh/base/FieldState.hpp</text>
</a>
</g>
</g>
<!-- Node20&#45;&gt;Node28 -->
<g id="edge55_Node000020_Node000028" class="edge">
<title>Node20&#45;&gt;Node28</title>
<g id="a_edge55_Node000020_Node000028"><a xlink:title=" ">
<path fill="none" stroke="#63b8ff" d="M1367.36,-219.98C1343.68,-211.27 1306.63,-197.63 1279.79,-187.75"/>
<polygon fill="#63b8ff" stroke="#63b8ff" points="1280.65,-184.34 1270.06,-184.17 1278.23,-190.91 1280.65,-184.34"/>
</a>
</g>
</g>
<!-- Node29 -->
<g id="Node000029" class="node">
<title>Node29</title>
<g id="a_Node000029"><a xlink:title=" ">
<polygon fill="#e0e0e0" stroke="#999999" points="1702.5,-129 1528.5,-129 1528.5,-110 1702.5,-110 1702.5,-129"/>
<text text-anchor="middle" x="1615.5" y="-117" font-family="Helvetica,sans-Serif" font-size="10.00">stk_mesh/base/GetNgpField.hpp</text>
</a>
</g>
</g>
<!-- Node20&#45;&gt;Node29 -->
<g id="edge56_Node000020_Node000029" class="edge">
<title>Node20&#45;&gt;Node29</title>
<g id="a_edge56_Node000020_Node000029"><a xlink:title=" ">
<path fill="none" stroke="#63b8ff" d="M1419.79,-219.97C1445.39,-212.05 1483.24,-199.21 1514.5,-184 1543.89,-169.7 1575.43,-148.89 1595.3,-135.04"/>
<polygon fill="#63b8ff" stroke="#63b8ff" points="1597.41,-137.84 1603.56,-129.22 1593.37,-132.12 1597.41,-137.84"/>
</a>
</g>
</g>
<!-- Node21&#45;&gt;Node12 -->
<g id="edge45_Node000021_Node000012" class="edge">
<title>Node21&#45;&gt;Node12</title>
<g id="a_edge45_Node000021_Node000012"><a xlink:title=" ">
<path fill="none" stroke="#63b8ff" d="M1346.29,-166.11C1343.32,-165.71 1340.37,-165.33 1337.5,-165 1308.06,-161.59 873.04,-131.35 749.18,-122.76"/>
<polygon fill="#63b8ff" stroke="#63b8ff" points="749.05,-119.24 738.84,-122.05 748.57,-126.23 749.05,-119.24"/>
</a>
</g>
</g>
<!-- Node21&#45;&gt;Node13 -->
<g id="edge46_Node000021_Node000013" class="edge">
<title>Node21&#45;&gt;Node13</title>
<g id="a_edge46_Node000021_Node000013"><a xlink:title=" ">
<path fill="none" stroke="#63b8ff" d="M1346.28,-166.19C1343.31,-165.77 1340.37,-165.37 1337.5,-165 1172.67,-143.95 973.95,-128.19 900.05,-122.66"/>
<polygon fill="#63b8ff" stroke="#63b8ff" points="899.91,-119.14 889.68,-121.88 899.39,-126.12 899.91,-119.14"/>
</a>
</g>
</g>
<!-- Node22 -->
<g id="Node000022" class="node">
<title>Node22</title>
<g id="a_Node000022"><a xlink:title=" ">
<polygon fill="#e0e0e0" stroke="#999999" points="1315,-129 1250,-129 1250,-110 1315,-110 1315,-129"/>
<text text-anchor="middle" x="1282.5" y="-117" font-family="Helvetica,sans-Serif" font-size="10.00">stdexcept</text>
</a>
</g>
</g>
<!-- Node21&#45;&gt;Node22 -->
<g id="edge44_Node000021_Node000022" class="edge">
<title>Node21&#45;&gt;Node22</title>
<g id="a_edge44_Node000021_Node000022"><a xlink:title=" ">
<path fill="none" stroke="#63b8ff" d="M1373.15,-164.98C1355.93,-156.54 1329.3,-143.47 1309.35,-133.68"/>
<polygon fill="#63b8ff" stroke="#63b8ff" points="1310.69,-130.43 1300.17,-129.17 1307.6,-136.72 1310.69,-130.43"/>
</a>
</g>
</g>
<!-- Node23 -->
<g id="Node000023" class="node">
<title>Node23</title>
<g id="a_Node000023"><a xlink:href="_field_definitions_8h.html" target="_top" xlink:title=" ">
<polygon fill="white" stroke="#666666" points="1434,-129 1333,-129 1333,-110 1434,-110 1434,-129"/>
<text text-anchor="middle" x="1383.5" y="-117" font-family="Helvetica,sans-Serif" font-size="10.00">FieldDefinitions.h</text>
</a>
</g>
</g>
<!-- Node21&#45;&gt;Node23 -->
<g id="edge47_Node000021_Node000023" class="edge">
<title>Node21&#45;&gt;Node23</title>
<g id="a_edge47_Node000021_Node000023"><a xlink:title=" ">
<path fill="none" stroke="#63b8ff" d="M1389.34,-164.75C1388.43,-157.8 1387.11,-147.85 1385.96,-139.13"/>
<polygon fill="#63b8ff" stroke="#63b8ff" points="1389.41,-138.54 1384.63,-129.09 1382.47,-139.46 1389.41,-138.54"/>
</a>
</g>
</g>
<!-- Node23&#45;&gt;Node5 -->
<g id="edge48_Node000023_Node000005" class="edge">
<title>Node23&#45;&gt;Node5</title>
<g id="a_edge48_Node000023_Node000005"><a xlink:title=" ">
<path fill="none" stroke="#63b8ff" d="M1332.69,-110.84C1329.92,-110.53 1327.18,-110.25 1324.5,-110 918.89,-72.77 427.3,-66.68 265.77,-65.69"/>
<polygon fill="#63b8ff" stroke="#63b8ff" points="265.64,-62.19 255.62,-65.63 265.6,-69.19 265.64,-62.19"/>
</a>
</g>
</g>
<!-- Node23&#45;&gt;Node24 -->
<g id="edge49_Node000023_Node000024" class="edge">
<title>Node23&#45;&gt;Node24</title>
<g id="a_edge49_Node000023_Node000024"><a xlink:title=" ">
<path fill="none" stroke="#63b8ff" d="M1396.19,-109.98C1408.33,-101.84 1426.86,-89.41 1441.25,-79.76"/>
<polygon fill="#63b8ff" stroke="#63b8ff" points="1443.22,-82.65 1449.58,-74.17 1439.32,-76.84 1443.22,-82.65"/>
</a>
</g>
</g>
<!-- Node25 -->
<g id="Node000025" class="node">
<title>Node25</title>
<g id="a_Node000025"><a xlink:title=" ">
<polygon fill="#e0e0e0" stroke="#999999" points="1409,-74 1358,-74 1358,-55 1409,-55 1409,-74"/>
<text text-anchor="middle" x="1383.5" y="-62" font-family="Helvetica,sans-Serif" font-size="10.00">variant</text>
</a>
</g>
</g>
<!-- Node23&#45;&gt;Node25 -->
<g id="edge50_Node000023_Node000025" class="edge">
<title>Node23&#45;&gt;Node25</title>
<g id="a_edge50_Node000023_Node000025"><a xlink:title=" ">
<path fill="none" stroke="#63b8ff" d="M1383.5,-109.75C1383.5,-102.8 1383.5,-92.85 1383.5,-84.13"/>
<polygon fill="#63b8ff" stroke="#63b8ff" points="1387,-84.09 1383.5,-74.09 1380,-84.09 1387,-84.09"/>
</a>
</g>
</g>
<!-- Node26&#45;&gt;Node7 -->
<g id="edge53_Node000026_Node000007" class="edge">
<title>Node26&#45;&gt;Node7</title>
<g id="a_edge53_Node000026_Node000007"><a xlink:title=" ">
<path fill="none" stroke="#63b8ff" d="M1820.31,-54.98C1843.67,-46.27 1880.2,-32.63 1906.67,-22.75"/>
<polygon fill="#63b8ff" stroke="#63b8ff" points="1908.13,-25.95 1916.27,-19.17 1905.68,-19.39 1908.13,-25.95"/>
</a>
</g>
</g>
<!-- Node26&#45;&gt;Node8 -->
<g id="edge54_Node000026_Node000008" class="edge">
<title>Node26&#45;&gt;Node8</title>
<g id="a_edge54_Node000026_Node000008"><a xlink:title=" ">
<path fill="none" stroke="#63b8ff" d="M1772.92,-54.98C1747.45,-46.16 1707.46,-32.31 1678.87,-22.41"/>
<polygon fill="#63b8ff" stroke="#63b8ff" points="1679.87,-19.05 1669.27,-19.08 1677.58,-25.66 1679.87,-19.05"/>
</a>
</g>
</g>
<!-- Node27 -->
<g id="Node000027" class="node">
<title>Node27</title>
<g id="a_Node000027"><a xlink:title=" ">
<polygon fill="#e0e0e0" stroke="#999999" points="1854,-19 1741,-19 1741,0 1854,0 1854,-19"/>
<text text-anchor="middle" x="1797.5" y="-7" font-family="Helvetica,sans-Serif" font-size="10.00">Kokkos_Macros.hpp</text>
</a>
</g>
</g>
<!-- Node26&#45;&gt;Node27 -->
<g id="edge52_Node000026_Node000027" class="edge">
<title>Node26&#45;&gt;Node27</title>
<g id="a_edge52_Node000026_Node000027"><a xlink:title=" ">
<path fill="none" stroke="#63b8ff" d="M1797.5,-54.75C1797.5,-47.8 1797.5,-37.85 1797.5,-29.13"/>
<polygon fill="#63b8ff" stroke="#63b8ff" points="1801,-29.09 1797.5,-19.09 1794,-29.09 1801,-29.09"/>
</a>
</g>
</g>
<!-- Node31&#45;&gt;Node8 -->
<g id="edge63_Node000031_Node000008" class="edge">
<title>Node31&#45;&gt;Node8</title>
<g id="a_edge63_Node000031_Node000008"><a xlink:title=" ">
<path fill="none" stroke="#63b8ff" d="M2021.45,-164.97C1963.4,-150.21 1844.28,-117.32 1749.5,-74 1718.61,-59.88 1685.48,-38.73 1664.87,-24.77"/>
<polygon fill="#63b8ff" stroke="#63b8ff" points="1666.82,-21.86 1656.59,-19.09 1662.86,-27.63 1666.82,-21.86"/>
</a>
</g>
</g>
<!-- Node31&#45;&gt;Node29 -->
<g id="edge64_Node000031_Node000029" class="edge">
<title>Node31&#45;&gt;Node29</title>
<g id="a_edge64_Node000031_Node000029"><a xlink:title=" ">
<path fill="none" stroke="#63b8ff" d="M1985.65,-164.98C1906.76,-155.5 1779.5,-140.21 1696.67,-130.26"/>
<polygon fill="#63b8ff" stroke="#63b8ff" points="1696.89,-126.76 1686.54,-129.04 1696.05,-133.71 1696.89,-126.76"/>
</a>
</g>
</g>
<!-- Node31&#45;&gt;Node32 -->
<g id="edge61_Node000031_Node000032" class="edge">
<title>Node31&#45;&gt;Node32</title>
<g id="a_edge61_Node000031_Node000032"><a xlink:title=" ">
<path fill="none" stroke="#63b8ff" d="M2056.5,-164.75C2056.5,-157.8 2056.5,-147.85 2056.5,-139.13"/>
<polygon fill="#63b8ff" stroke="#63b8ff" points="2060,-139.09 2056.5,-129.09 2053,-139.09 2060,-139.09"/>
</a>
</g>
</g>
<!-- Node31&#45;&gt;Node33 -->
<g id="edge62_Node000031_Node000033" class="edge">
<title>Node31&#45;&gt;Node33</title>
<g id="a_edge62_Node000031_Node000033"><a xlink:title=" ">
<path fill="none" stroke="#63b8ff" d="M2085.26,-164.98C2115.44,-156.05 2163.07,-141.94 2196.6,-132.02"/>
<polygon fill="#63b8ff" stroke="#63b8ff" points="2197.92,-135.28 2206.52,-129.08 2195.93,-128.57 2197.92,-135.28"/>
</a>
</g>
</g>
<!-- Node34&#45;&gt;Node7 -->
<g id="edge66_Node000034_Node000007" class="edge">
<title>Node34&#45;&gt;Node7</title>
<g id="a_edge66_Node000034_Node000007"><a xlink:title=" ">
<path fill="none" stroke="#63b8ff" d="M1876.19,-219.97C1896.42,-213.59 1918.87,-202.64 1931.5,-184 1963.86,-136.22 1952.31,-62.92 1944.42,-28.96"/>
<polygon fill="#63b8ff" stroke="#63b8ff" points="1947.76,-27.9 1941.95,-19.04 1940.97,-29.59 1947.76,-27.9"/>
</a>
</g>
</g>
<!-- Node34&#45;&gt;Node31 -->
<g id="edge69_Node000034_Node000031" class="edge">
<title>Node34&#45;&gt;Node31</title>
<g id="a_edge69_Node000034_Node000031"><a xlink:title=" ">
<path fill="none" stroke="#63b8ff" d="M1869.33,-219.98C1907.66,-210.87 1968.58,-196.4 2010.45,-186.45"/>
<polygon fill="#63b8ff" stroke="#63b8ff" points="2011.47,-189.8 2020.39,-184.08 2009.85,-182.99 2011.47,-189.8"/>
</a>
</g>
</g>
<!-- Node34&#45;&gt;Node35 -->
<g id="edge67_Node000034_Node000035" class="edge">
<title>Node34&#45;&gt;Node35</title>
<g id="a_edge67_Node000034_Node000035"><a xlink:title=" ">
<path fill="none" stroke="#63b8ff" d="M1803.46,-219.98C1771.79,-211.01 1721.73,-196.82 1686.69,-186.89"/>
<polygon fill="#63b8ff" stroke="#63b8ff" points="1687.36,-183.44 1676.78,-184.08 1685.45,-190.18 1687.36,-183.44"/>
</a>
</g>
</g>
<!-- Node36 -->
<g id="Node000036" class="node">
<title>Node36</title>
<g id="a_Node000036"><a xlink:title=" ">
<polygon fill="#e0e0e0" stroke="#999999" points="1922,-184 1745,-184 1745,-165 1922,-165 1922,-184"/>
<text text-anchor="middle" x="1833.5" y="-172" font-family="Helvetica,sans-Serif" font-size="10.00">stk_mesh/base/GetNgpMesh.hpp</text>
</a>
</g>
</g>
<!-- Node34&#45;&gt;Node36 -->
<g id="edge68_Node000034_Node000036" class="edge">
<title>Node34&#45;&gt;Node36</title>
<g id="a_edge68_Node000034_Node000036"><a xlink:title=" ">
<path fill="none" stroke="#63b8ff" d="M1833.5,-219.75C1833.5,-212.8 1833.5,-202.85 1833.5,-194.13"/>
<polygon fill="#63b8ff" stroke="#63b8ff" points="1837,-194.09 1833.5,-184.09 1830,-194.09 1837,-194.09"/>
</a>
</g>
</g>
</g>
</svg>
