<?xml version="1.0" encoding="UTF-8" standalone="no"?>
<!DOCTYPE svg PUBLIC "-//W3C//DTD SVG 1.1//EN"
 "http://www.w3.org/Graphics/SVG/1.1/DTD/svg11.dtd">
<!-- Generated by graphviz version 2.43.0 (0)
 -->
<!-- Title: UtilitiesActuator.C Pages: 1 -->
<!--zoomable 319 -->
<svg id="main" version="1.1" xmlns="http://www.w3.org/2000/svg" xmlns:xlink="http://www.w3.org/1999/xlink" xml:space="preserve" onload="init(evt)">
<style type="text/css"><![CDATA[
.edge:hover path { stroke: red; }
.edge:hover polygon { stroke: red; fill: red; }
]]></style>
<script type="text/javascript"><![CDATA[
var edges = document.getElementsByTagName('g');
if (edges && edges.length) {
  for (var i=0;i<edges.length;i++) {
    if (edges[i].id.substr(0,4)=='edge') {
      edges[i].setAttribute('class','edge');
    }
  }
}
]]></script>
        <defs>
                <circle id="rim" cx="0" cy="0" r="7"/>
                <circle id="rim2" cx="0" cy="0" r="3.5"/>
                <g id="zoomPlus">
                        <use xlink:href="#rim" fill="#404040">
                                <set attributeName="fill" to="#808080" begin="zoomplus.mouseover" end="zoomplus.mouseout"/>
                        </use>
                        <path d="M-4,0h8M0,-4v8" fill="none" stroke="white" stroke-width="1.5" pointer-events="none"/>
                </g>
                <g id="zoomMin">
                        <use xlink:href="#rim" fill="#404040">
                                <set attributeName="fill" to="#808080" begin="zoomminus.mouseover" end="zoomminus.mouseout"/>
                        </use>
                        <path d="M-4,0h8" fill="none" stroke="white" stroke-width="1.5" pointer-events="none"/>
                </g>
                <g id="dirArrow">
                        <path fill="none" stroke="white" stroke-width="1.5" d="M0,-3.0v7 M-2.5,-0.5L0,-3.0L2.5,-0.5"/>
                </g>
               <g id="resetDef">
                       <use xlink:href="#rim2" fill="#404040">
                               <set attributeName="fill" to="#808080" begin="reset.mouseover" end="reset.mouseout"/>
                       </use>
               </g>
        </defs>

<script type="text/javascript">
var viewWidth = 2535;
var viewHeight = 319;
var sectionId = 'dynsection-0';
</script>
<script xlink:href="svgpan.js"/>
<svg id="graph" class="graph">
<g id="viewport">
<title>UtilitiesActuator.C</title>
<polygon fill="white" stroke="transparent" points="-4,4 -4,-315 2531.09,-315 2531.09,4 -4,4"/>
<!-- Node1 -->
<g id="node1" class="node">
<title>Node1</title>
<g id="a_node1"><a xlink:title=" ">
<polygon fill="#bfbfbf" stroke="black" points="839.09,-291.5 839.09,-310.5 944.09,-310.5 944.09,-291.5 839.09,-291.5"/>
<text text-anchor="middle" x="891.59" y="-298.5" font-family="Helvetica,sans-Serif" font-size="10.00">UtilitiesActuator.C</text>
</a>
</g>
</g>
<!-- Node2 -->
<g id="node2" class="node">
<title>Node2</title>
<g id="a_node2"><a xlink:title=" ">
<polygon fill="white" stroke="#bfbfbf" points="816.09,-235.5 816.09,-254.5 863.09,-254.5 863.09,-235.5 816.09,-235.5"/>
<text text-anchor="middle" x="839.59" y="-242.5" font-family="Helvetica,sans-Serif" font-size="10.00">cmath</text>
</a>
</g>
</g>
<!-- Node1&#45;&gt;Node2 -->
<g id="edge1" class="edge">
<title>Node1&#45;&gt;Node2</title>
<path fill="none" stroke="midnightblue" d="M883,-291.08C875.43,-283.22 864.21,-271.57 855.07,-262.08"/>
<polygon fill="midnightblue" stroke="midnightblue" points="857.47,-259.53 848.01,-254.75 852.43,-264.38 857.47,-259.53"/>
</g>
<!-- Node3 -->
<g id="node3" class="node">
<title>Node3</title>
<g id="a_node3"><a xlink:href="_utilities_actuator_8h.html" target="_top" xlink:title=" ">
<polygon fill="white" stroke="black" points="1306.09,-235.5 1306.09,-254.5 1479.09,-254.5 1479.09,-235.5 1306.09,-235.5"/>
<text text-anchor="middle" x="1392.59" y="-242.5" font-family="Helvetica,sans-Serif" font-size="10.00">aero/actuator/UtilitiesActuator.h</text>
</a>
</g>
</g>
<!-- Node1&#45;&gt;Node3 -->
<g id="edge2" class="edge">
<title>Node1&#45;&gt;Node3</title>
<path fill="none" stroke="midnightblue" d="M944.25,-294.32C1029.59,-285.12 1199.04,-266.86 1303.42,-255.61"/>
<polygon fill="midnightblue" stroke="midnightblue" points="1304.06,-259.06 1313.63,-254.51 1303.31,-252.1 1304.06,-259.06"/>
</g>
<!-- Node35 -->
<g id="node35" class="node">
<title>Node35</title>
<g id="a_node35"><a xlink:href="_nalu_parsing_8h.html" target="_top" xlink:title=" ">
<polygon fill="white" stroke="black" points="465.09,-174 465.09,-193 548.09,-193 548.09,-174 465.09,-174"/>
<text text-anchor="middle" x="506.59" y="-181" font-family="Helvetica,sans-Serif" font-size="10.00">NaluParsing.h</text>
</a>
</g>
</g>
<!-- Node1&#45;&gt;Node35 -->
<g id="edge40" class="edge">
<title>Node1&#45;&gt;Node35</title>
<path fill="none" stroke="midnightblue" d="M891.7,-291.23C891.37,-277 888.46,-249.05 871.59,-235 818.45,-190.78 630.54,-211.69 562.59,-199 557.22,-198 551.6,-196.77 546.09,-195.45"/>
<polygon fill="midnightblue" stroke="midnightblue" points="546.9,-192.04 536.35,-193.02 545.2,-198.84 546.9,-192.04"/>
</g>
<!-- Node4 -->
<g id="node4" class="node">
<title>Node4</title>
<g id="a_node4"><a xlink:href="_master_element_8h.html" target="_top" xlink:title=" ">
<polygon fill="white" stroke="black" points="2148.09,-174 2148.09,-193 2331.09,-193 2331.09,-174 2148.09,-174"/>
<text text-anchor="middle" x="2239.59" y="-181" font-family="Helvetica,sans-Serif" font-size="10.00">master_element/MasterElement.h</text>
</a>
</g>
</g>
<!-- Node3&#45;&gt;Node4 -->
<g id="edge3" class="edge">
<title>Node3&#45;&gt;Node4</title>
<path fill="none" stroke="midnightblue" d="M1479.21,-241.09C1618.45,-235.9 1900.59,-223.22 2138.59,-199 2150.63,-197.77 2163.45,-196.17 2175.76,-194.47"/>
<polygon fill="midnightblue" stroke="midnightblue" points="2176.55,-197.9 2185.96,-193.04 2175.57,-190.97 2176.55,-197.9"/>
</g>
<!-- Node13 -->
<g id="node13" class="node">
<title>Node13</title>
<g id="a_node13"><a xlink:title=" ">
<polygon fill="white" stroke="#bfbfbf" points="2386.09,-0.5 2386.09,-19.5 2527.09,-19.5 2527.09,-0.5 2386.09,-0.5"/>
<text text-anchor="middle" x="2456.59" y="-7.5" font-family="Helvetica,sans-Serif" font-size="10.00">stk_mesh/base/Entity.hpp</text>
</a>
</g>
</g>
<!-- Node3&#45;&gt;Node13 -->
<g id="edge32" class="edge">
<title>Node3&#45;&gt;Node13</title>
<path fill="none" stroke="midnightblue" d="M1479.23,-242.26C1697.7,-237.53 2259.45,-223.16 2340.59,-199 2396.91,-182.23 2424.98,-182.77 2454.59,-132 2473.22,-100.05 2467.17,-54.82 2461.58,-29.69"/>
<polygon fill="midnightblue" stroke="midnightblue" points="2464.9,-28.56 2459.13,-19.67 2458.1,-30.22 2464.9,-28.56"/>
</g>
<!-- Node17 -->
<g id="node17" class="node">
<title>Node17</title>
<g id="a_node17"><a xlink:href="_master_element_repo_8h.html" target="_top" xlink:title=" ">
<polygon fill="white" stroke="black" points="1955.59,-168.5 1955.59,-198.5 2129.59,-198.5 2129.59,-168.5 1955.59,-168.5"/>
<text text-anchor="start" x="1963.59" y="-186.5" font-family="Helvetica,sans-Serif" font-size="10.00">master_element/MasterElement</text>
<text text-anchor="middle" x="2042.59" y="-175.5" font-family="Helvetica,sans-Serif" font-size="10.00">Repo.h</text>
</a>
</g>
</g>
<!-- Node3&#45;&gt;Node17 -->
<g id="edge17" class="edge">
<title>Node3&#45;&gt;Node17</title>
<path fill="none" stroke="midnightblue" d="M1479.13,-238.82C1586.23,-232 1774.38,-218.64 1945.55,-199.07"/>
<polygon fill="midnightblue" stroke="midnightblue" points="1945.97,-202.54 1955.5,-197.92 1945.16,-195.59 1945.97,-202.54"/>
</g>
<!-- Node23 -->
<g id="node23" class="node">
<title>Node23</title>
<g id="a_node23"><a xlink:href="_nalu_env_8h.html" target="_top" xlink:title=" ">
<polygon fill="white" stroke="black" points="947.09,-112.5 947.09,-131.5 1012.09,-131.5 1012.09,-112.5 947.09,-112.5"/>
<text text-anchor="middle" x="979.59" y="-119.5" font-family="Helvetica,sans-Serif" font-size="10.00">NaluEnv.h</text>
</a>
</g>
</g>
<!-- Node3&#45;&gt;Node23 -->
<g id="edge27" class="edge">
<title>Node3&#45;&gt;Node23</title>
<path fill="none" stroke="midnightblue" d="M1305.76,-242.27C1103.98,-237.83 618.71,-224.53 594.59,-199 585.12,-188.99 585.37,-178.25 594.59,-168 645.09,-111.83 857.87,-143.11 932.59,-132 934.05,-131.78 935.54,-131.55 937.04,-131.31"/>
<polygon fill="midnightblue" stroke="midnightblue" points="937.76,-134.74 947.03,-129.6 936.58,-127.84 937.76,-134.74"/>
</g>
<!-- Node27 -->
<g id="node27" class="node">
<title>Node27</title>
<g id="a_node27"><a xlink:title=" ">
<polygon fill="white" stroke="#bfbfbf" points="604.09,-174 604.09,-193 763.09,-193 763.09,-174 604.09,-174"/>
<text text-anchor="middle" x="683.59" y="-181" font-family="Helvetica,sans-Serif" font-size="10.00">stk_mesh/base/BulkData.hpp</text>
</a>
</g>
</g>
<!-- Node3&#45;&gt;Node27 -->
<g id="edge31" class="edge">
<title>Node3&#45;&gt;Node27</title>
<path fill="none" stroke="midnightblue" d="M1305.95,-240.21C1185.72,-234.39 961.59,-221.49 771.59,-199 761.55,-197.81 750.92,-196.29 740.64,-194.68"/>
<polygon fill="midnightblue" stroke="midnightblue" points="740.94,-191.18 730.51,-193.04 739.83,-198.09 740.94,-191.18"/>
</g>
<!-- Node28 -->
<g id="node28" class="node">
<title>Node28</title>
<g id="a_node28"><a xlink:title=" ">
<polygon fill="white" stroke="#bfbfbf" points="781.09,-174 781.09,-193 918.09,-193 918.09,-174 781.09,-174"/>
<text text-anchor="middle" x="849.59" y="-181" font-family="Helvetica,sans-Serif" font-size="10.00">stk_mesh/base/Field.hpp</text>
</a>
</g>
</g>
<!-- Node3&#45;&gt;Node28 -->
<g id="edge33" class="edge">
<title>Node3&#45;&gt;Node28</title>
<path fill="none" stroke="midnightblue" d="M1305.99,-237.98C1212.22,-230.91 1058.35,-217.73 926.59,-199 918.26,-197.82 909.47,-196.36 900.92,-194.83"/>
<polygon fill="midnightblue" stroke="midnightblue" points="901.5,-191.38 891.03,-193.01 900.23,-198.26 901.5,-191.38"/>
</g>
<!-- Node29 -->
<g id="node29" class="node">
<title>Node29</title>
<g id="a_node29"><a xlink:title=" ">
<polygon fill="white" stroke="#bfbfbf" points="936.09,-174 936.09,-193 1109.09,-193 1109.09,-174 936.09,-174"/>
<text text-anchor="middle" x="1022.59" y="-181" font-family="Helvetica,sans-Serif" font-size="10.00">stk_mesh/base/FieldParallel.hpp</text>
</a>
</g>
</g>
<!-- Node3&#45;&gt;Node29 -->
<g id="edge34" class="edge">
<title>Node3&#45;&gt;Node29</title>
<path fill="none" stroke="midnightblue" d="M1339.57,-235.48C1272.53,-224.69 1157.24,-206.15 1085.72,-194.65"/>
<polygon fill="midnightblue" stroke="midnightblue" points="1085.93,-191.14 1075.5,-193.01 1084.82,-198.05 1085.93,-191.14"/>
</g>
<!-- Node30 -->
<g id="node30" class="node">
<title>Node30</title>
<g id="a_node30"><a xlink:title=" ">
<polygon fill="white" stroke="#bfbfbf" points="1127.59,-174 1127.59,-193 1297.59,-193 1297.59,-174 1127.59,-174"/>
<text text-anchor="middle" x="1212.59" y="-181" font-family="Helvetica,sans-Serif" font-size="10.00">stk_mesh/base/GetBuckets.hpp</text>
</a>
</g>
</g>
<!-- Node3&#45;&gt;Node30 -->
<g id="edge35" class="edge">
<title>Node3&#45;&gt;Node30</title>
<path fill="none" stroke="midnightblue" d="M1366.8,-235.48C1335.65,-225.18 1283.1,-207.81 1248.13,-196.25"/>
<polygon fill="midnightblue" stroke="midnightblue" points="1248.92,-192.82 1238.33,-193.01 1246.72,-199.47 1248.92,-192.82"/>
</g>
<!-- Node31 -->
<g id="node31" class="node">
<title>Node31</title>
<g id="a_node31"><a xlink:title=" ">
<polygon fill="white" stroke="#bfbfbf" points="1316.09,-174 1316.09,-193 1469.09,-193 1469.09,-174 1316.09,-174"/>
<text text-anchor="middle" x="1392.59" y="-181" font-family="Helvetica,sans-Serif" font-size="10.00">stk_mesh/base/Selector.hpp</text>
</a>
</g>
</g>
<!-- Node3&#45;&gt;Node31 -->
<g id="edge36" class="edge">
<title>Node3&#45;&gt;Node31</title>
<path fill="none" stroke="midnightblue" d="M1392.59,-235.48C1392.59,-227.08 1392.59,-213.98 1392.59,-203.16"/>
<polygon fill="midnightblue" stroke="midnightblue" points="1396.09,-203.01 1392.59,-193.01 1389.09,-203.01 1396.09,-203.01"/>
</g>
<!-- Node32 -->
<g id="node32" class="node">
<title>Node32</title>
<g id="a_node32"><a xlink:title=" ">
<polygon fill="white" stroke="#bfbfbf" points="1487.59,-174 1487.59,-193 1649.59,-193 1649.59,-174 1487.59,-174"/>
<text text-anchor="middle" x="1568.59" y="-181" font-family="Helvetica,sans-Serif" font-size="10.00">stk_mesh/base/MetaData.hpp</text>
</a>
</g>
</g>
<!-- Node3&#45;&gt;Node32 -->
<g id="edge37" class="edge">
<title>Node3&#45;&gt;Node32</title>
<path fill="none" stroke="midnightblue" d="M1417.8,-235.48C1448.25,-225.18 1499.63,-207.81 1533.83,-196.25"/>
<polygon fill="midnightblue" stroke="midnightblue" points="1535.06,-199.53 1543.42,-193.01 1532.82,-192.9 1535.06,-199.53"/>
</g>
<!-- Node33 -->
<g id="node33" class="node">
<title>Node33</title>
<g id="a_node33"><a xlink:title=" ">
<polygon fill="white" stroke="#bfbfbf" points="1668.09,-174 1668.09,-193 1801.09,-193 1801.09,-174 1668.09,-174"/>
<text text-anchor="middle" x="1734.59" y="-181" font-family="Helvetica,sans-Serif" font-size="10.00">stk_mesh/base/Part.hpp</text>
</a>
</g>
</g>
<!-- Node3&#45;&gt;Node33 -->
<g id="edge38" class="edge">
<title>Node3&#45;&gt;Node33</title>
<path fill="none" stroke="midnightblue" d="M1444.88,-235.48C1498.56,-226.67 1584.49,-212.34 1658.59,-199 1665.77,-197.71 1673.32,-196.31 1680.77,-194.91"/>
<polygon fill="midnightblue" stroke="midnightblue" points="1681.63,-198.31 1690.81,-193.01 1680.33,-191.43 1681.63,-198.31"/>
</g>
<!-- Node34 -->
<g id="node34" class="node">
<title>Node34</title>
<g id="a_node34"><a xlink:title=" ">
<polygon fill="white" stroke="#bfbfbf" points="1819.59,-174 1819.59,-193 1937.59,-193 1937.59,-174 1819.59,-174"/>
<text text-anchor="middle" x="1878.59" y="-181" font-family="Helvetica,sans-Serif" font-size="10.00">stk_search/Point.hpp</text>
</a>
</g>
</g>
<!-- Node3&#45;&gt;Node34 -->
<g id="edge39" class="edge">
<title>Node3&#45;&gt;Node34</title>
<path fill="none" stroke="midnightblue" d="M1479.39,-237.28C1564.18,-230.09 1696.71,-217.22 1810.59,-199 1817.47,-197.9 1824.71,-196.55 1831.8,-195.14"/>
<polygon fill="midnightblue" stroke="midnightblue" points="1832.93,-198.48 1842.01,-193.02 1831.51,-191.62 1832.93,-198.48"/>
</g>
<!-- Node5 -->
<g id="node5" class="node">
<title>Node5</title>
<g id="a_node5"><a xlink:href="_alg_traits_8h.html" target="_top" xlink:title=" ">
<polygon fill="white" stroke="black" points="1959.59,-112.5 1959.59,-131.5 2027.59,-131.5 2027.59,-112.5 1959.59,-112.5"/>
<text text-anchor="middle" x="1993.59" y="-119.5" font-family="Helvetica,sans-Serif" font-size="10.00">AlgTraits.h</text>
</a>
</g>
</g>
<!-- Node4&#45;&gt;Node5 -->
<g id="edge4" class="edge">
<title>Node4&#45;&gt;Node5</title>
<path fill="none" stroke="midnightblue" d="M2204.34,-173.98C2160.43,-163.36 2085.4,-145.21 2037.71,-133.67"/>
<polygon fill="midnightblue" stroke="midnightblue" points="2038.51,-130.27 2027.97,-131.32 2036.87,-137.07 2038.51,-130.27"/>
</g>
<!-- Node7 -->
<g id="node7" class="node">
<title>Node7</title>
<g id="a_node7"><a xlink:href="_simd_interface_8h.html" target="_top" xlink:title="STK SIMD Interface.">
<polygon fill="white" stroke="black" points="2351.59,-112.5 2351.59,-131.5 2445.59,-131.5 2445.59,-112.5 2351.59,-112.5"/>
<text text-anchor="middle" x="2398.59" y="-119.5" font-family="Helvetica,sans-Serif" font-size="10.00">SimdInterface.h</text>
</a>
</g>
</g>
<!-- Node4&#45;&gt;Node7 -->
<g id="edge6" class="edge">
<title>Node4&#45;&gt;Node7</title>
<path fill="none" stroke="midnightblue" d="M2262.37,-173.98C2289.64,-163.77 2335.5,-146.61 2366.39,-135.05"/>
<polygon fill="midnightblue" stroke="midnightblue" points="2367.71,-138.29 2375.85,-131.51 2365.25,-131.74 2367.71,-138.29"/>
</g>
<!-- Node11 -->
<g id="node11" class="node">
<title>Node11</title>
<g id="a_node11"><a xlink:href="_kokkos_interface_8h.html" target="_top" xlink:title=" ">
<polygon fill="white" stroke="black" points="1992.59,-56.5 1992.59,-75.5 2096.59,-75.5 2096.59,-56.5 1992.59,-56.5"/>
<text text-anchor="middle" x="2044.59" y="-63.5" font-family="Helvetica,sans-Serif" font-size="10.00">KokkosInterface.h</text>
</a>
</g>
</g>
<!-- Node4&#45;&gt;Node11 -->
<g id="edge10" class="edge">
<title>Node4&#45;&gt;Node11</title>
<path fill="none" stroke="midnightblue" d="M2239.87,-173.76C2239.84,-158.92 2237.54,-128.74 2220.59,-112 2204.4,-96.02 2150.56,-83.76 2106.65,-76.1"/>
<polygon fill="midnightblue" stroke="midnightblue" points="2107.04,-72.62 2096.59,-74.4 2105.87,-79.52 2107.04,-72.62"/>
</g>
<!-- Node15 -->
<g id="node15" class="node">
<title>Node15</title>
<g id="a_node15"><a xlink:title=" ">
<polygon fill="white" stroke="#bfbfbf" points="2046.09,-112.5 2046.09,-131.5 2211.09,-131.5 2211.09,-112.5 2046.09,-112.5"/>
<text text-anchor="middle" x="2128.59" y="-119.5" font-family="Helvetica,sans-Serif" font-size="10.00">stk_util/util/ReportHandler.hpp</text>
</a>
</g>
</g>
<!-- Node4&#45;&gt;Node15 -->
<g id="edge15" class="edge">
<title>Node4&#45;&gt;Node15</title>
<path fill="none" stroke="midnightblue" d="M2223.68,-173.98C2205.3,-164.12 2174.83,-147.79 2153.34,-136.27"/>
<polygon fill="midnightblue" stroke="midnightblue" points="2154.93,-133.15 2144.46,-131.51 2151.62,-139.32 2154.93,-133.15"/>
</g>
<!-- Node16 -->
<g id="node16" class="node">
<title>Node16</title>
<g id="a_node16"><a xlink:title=" ">
<polygon fill="white" stroke="#bfbfbf" points="2268.09,-112.5 2268.09,-131.5 2333.09,-131.5 2333.09,-112.5 2268.09,-112.5"/>
<text text-anchor="middle" x="2300.59" y="-119.5" font-family="Helvetica,sans-Serif" font-size="10.00">stdexcept</text>
</a>
</g>
</g>
<!-- Node4&#45;&gt;Node16 -->
<g id="edge16" class="edge">
<title>Node4&#45;&gt;Node16</title>
<path fill="none" stroke="midnightblue" d="M2248.32,-173.98C2257.75,-164.78 2272.95,-149.96 2284.53,-138.66"/>
<polygon fill="midnightblue" stroke="midnightblue" points="2287.15,-141 2291.86,-131.51 2282.26,-135.99 2287.15,-141"/>
</g>
<!-- Node6 -->
<g id="node6" class="node">
<title>Node6</title>
<g id="a_node6"><a xlink:title=" ">
<polygon fill="white" stroke="#bfbfbf" points="2115.09,-56.5 2115.09,-75.5 2260.09,-75.5 2260.09,-56.5 2115.09,-56.5"/>
<text text-anchor="middle" x="2187.59" y="-63.5" font-family="Helvetica,sans-Serif" font-size="10.00">stk_topology/topology.hpp</text>
</a>
</g>
</g>
<!-- Node5&#45;&gt;Node6 -->
<g id="edge5" class="edge">
<title>Node5&#45;&gt;Node6</title>
<path fill="none" stroke="midnightblue" d="M2024.32,-112.44C2057.53,-103.2 2110.58,-88.44 2147.14,-78.26"/>
<polygon fill="midnightblue" stroke="midnightblue" points="2148.29,-81.57 2156.99,-75.52 2146.42,-74.83 2148.29,-81.57"/>
</g>
<!-- Node8 -->
<g id="node8" class="node">
<title>Node8</title>
<g id="a_node8"><a xlink:title=" ">
<polygon fill="white" stroke="#bfbfbf" points="2278.59,-56.5 2278.59,-75.5 2388.59,-75.5 2388.59,-56.5 2278.59,-56.5"/>
<text text-anchor="middle" x="2333.59" y="-63.5" font-family="Helvetica,sans-Serif" font-size="10.00">stk_simd/Simd.hpp</text>
</a>
</g>
</g>
<!-- Node7&#45;&gt;Node8 -->
<g id="edge7" class="edge">
<title>Node7&#45;&gt;Node8</title>
<path fill="none" stroke="midnightblue" d="M2388.14,-112.32C2378.44,-104.26 2363.77,-92.08 2352.09,-82.37"/>
<polygon fill="midnightblue" stroke="midnightblue" points="2354.15,-79.53 2344.22,-75.83 2349.67,-84.92 2354.15,-79.53"/>
</g>
<!-- Node9 -->
<g id="node9" class="node">
<title>Node9</title>
<g id="a_node9"><a xlink:title=" ">
<polygon fill="white" stroke="#bfbfbf" points="2205.09,-0.5 2205.09,-19.5 2318.09,-19.5 2318.09,-0.5 2205.09,-0.5"/>
<text text-anchor="middle" x="2261.59" y="-7.5" font-family="Helvetica,sans-Serif" font-size="10.00">Kokkos_Macros.hpp</text>
</a>
</g>
</g>
<!-- Node7&#45;&gt;Node9 -->
<g id="edge8" class="edge">
<title>Node7&#45;&gt;Node9</title>
<path fill="none" stroke="midnightblue" d="M2401.31,-112.44C2405.01,-98.99 2409.88,-72.74 2397.59,-56 2381.4,-33.96 2354.03,-22.55 2328.07,-16.7"/>
<polygon fill="midnightblue" stroke="midnightblue" points="2328.71,-13.26 2318.21,-14.73 2327.33,-20.13 2328.71,-13.26"/>
</g>
<!-- Node10 -->
<g id="node10" class="node">
<title>Node10</title>
<g id="a_node10"><a xlink:title=" ">
<polygon fill="white" stroke="#bfbfbf" points="483.09,-56.5 483.09,-75.5 530.09,-75.5 530.09,-56.5 483.09,-56.5"/>
<text text-anchor="middle" x="506.59" y="-63.5" font-family="Helvetica,sans-Serif" font-size="10.00">vector</text>
</a>
</g>
</g>
<!-- Node7&#45;&gt;Node10 -->
<g id="edge9" class="edge">
<title>Node7&#45;&gt;Node10</title>
<path fill="none" stroke="midnightblue" d="M2351.29,-112.93C2348.35,-112.57 2345.43,-112.26 2342.59,-112 1594.81,-44.27 1403.78,-106.95 653.59,-76 614.79,-74.4 570.3,-71.53 540.52,-69.46"/>
<polygon fill="midnightblue" stroke="midnightblue" points="540.47,-65.95 530.25,-68.74 539.98,-72.93 540.47,-65.95"/>
</g>
<!-- Node11&#45;&gt;Node9 -->
<g id="edge13" class="edge">
<title>Node11&#45;&gt;Node9</title>
<path fill="none" stroke="midnightblue" d="M2078.97,-56.44C2116.51,-47.1 2176.72,-32.12 2217.65,-21.93"/>
<polygon fill="midnightblue" stroke="midnightblue" points="2218.5,-25.33 2227.36,-19.52 2216.81,-18.53 2218.5,-25.33"/>
</g>
<!-- Node12 -->
<g id="node12" class="node">
<title>Node12</title>
<g id="a_node12"><a xlink:title=" ">
<polygon fill="white" stroke="#bfbfbf" points="2034.09,-0.5 2034.09,-19.5 2087.09,-19.5 2087.09,-0.5 2034.09,-0.5"/>
<text text-anchor="middle" x="2060.59" y="-7.5" font-family="Helvetica,sans-Serif" font-size="10.00">cstddef</text>
</a>
</g>
</g>
<!-- Node11&#45;&gt;Node12 -->
<g id="edge11" class="edge">
<title>Node11&#45;&gt;Node12</title>
<path fill="none" stroke="midnightblue" d="M2047.23,-56.08C2049.37,-48.85 2052.46,-38.41 2055.13,-29.4"/>
<polygon fill="midnightblue" stroke="midnightblue" points="2058.51,-30.33 2057.99,-19.75 2051.8,-28.34 2058.51,-30.33"/>
</g>
<!-- Node11&#45;&gt;Node13 -->
<g id="edge12" class="edge">
<title>Node11&#45;&gt;Node13</title>
<path fill="none" stroke="midnightblue" d="M2096.67,-57.38C2100.03,-56.9 2103.35,-56.44 2106.59,-56 2199.58,-43.27 2306.63,-29.66 2377.6,-20.78"/>
<polygon fill="midnightblue" stroke="midnightblue" points="2378.32,-24.22 2387.81,-19.51 2377.45,-17.27 2378.32,-24.22"/>
</g>
<!-- Node14 -->
<g id="node14" class="node">
<title>Node14</title>
<g id="a_node14"><a xlink:title=" ">
<polygon fill="white" stroke="#bfbfbf" points="1915.59,-0.5 1915.59,-19.5 2015.59,-19.5 2015.59,-0.5 1915.59,-0.5"/>
<text text-anchor="middle" x="1965.59" y="-7.5" font-family="Helvetica,sans-Serif" font-size="10.00">Kokkos_Core.hpp</text>
</a>
</g>
</g>
<!-- Node11&#45;&gt;Node14 -->
<g id="edge14" class="edge">
<title>Node11&#45;&gt;Node14</title>
<path fill="none" stroke="midnightblue" d="M2031.89,-56.32C2019.68,-47.98 2001.01,-35.21 1986.58,-25.35"/>
<polygon fill="midnightblue" stroke="midnightblue" points="1988.48,-22.41 1978.25,-19.65 1984.53,-28.19 1988.48,-22.41"/>
</g>
<!-- Node17&#45;&gt;Node5 -->
<g id="edge23" class="edge">
<title>Node17&#45;&gt;Node5</title>
<path fill="none" stroke="midnightblue" d="M2030.97,-168.4C2023.85,-159.75 2014.7,-148.64 2007.24,-139.58"/>
<polygon fill="midnightblue" stroke="midnightblue" points="2009.77,-137.15 2000.71,-131.66 2004.37,-141.6 2009.77,-137.15"/>
</g>
<!-- Node17&#45;&gt;Node15 -->
<g id="edge22" class="edge">
<title>Node17&#45;&gt;Node15</title>
<path fill="none" stroke="midnightblue" d="M2062.97,-168.4C2076.49,-159.04 2094.2,-146.79 2107.8,-137.38"/>
<polygon fill="midnightblue" stroke="midnightblue" points="2109.84,-140.23 2116.07,-131.66 2105.86,-134.47 2109.84,-140.23"/>
</g>
<!-- Node18 -->
<g id="node18" class="node">
<title>Node18</title>
<g id="a_node18"><a xlink:title=" ">
<polygon fill="white" stroke="#bfbfbf" points="490.59,-0.5 490.59,-19.5 534.59,-19.5 534.59,-0.5 490.59,-0.5"/>
<text text-anchor="middle" x="512.59" y="-7.5" font-family="Helvetica,sans-Serif" font-size="10.00">string</text>
</a>
</g>
</g>
<!-- Node17&#45;&gt;Node18 -->
<g id="edge18" class="edge">
<title>Node17&#45;&gt;Node18</title>
<path fill="none" stroke="midnightblue" d="M1955.56,-168.91C1790.68,-143.55 1421.26,-88.67 1108.59,-56 893.87,-33.56 634.52,-17.88 544.89,-12.78"/>
<polygon fill="midnightblue" stroke="midnightblue" points="545,-9.28 534.82,-12.22 544.6,-16.27 545,-9.28"/>
</g>
<!-- Node19 -->
<g id="node19" class="node">
<title>Node19</title>
<g id="a_node19"><a xlink:title=" ">
<polygon fill="white" stroke="#bfbfbf" points="221.59,-0.5 221.59,-19.5 259.59,-19.5 259.59,-0.5 221.59,-0.5"/>
<text text-anchor="middle" x="240.59" y="-7.5" font-family="Helvetica,sans-Serif" font-size="10.00">map</text>
</a>
</g>
</g>
<!-- Node17&#45;&gt;Node19 -->
<g id="edge19" class="edge">
<title>Node17&#45;&gt;Node19</title>
<path fill="none" stroke="midnightblue" d="M1955.52,-168.84C1952.51,-168.53 1949.52,-168.25 1946.59,-168 1893.07,-163.48 51.2,-170.33 13.59,-132 -50.97,-66.23 136.04,-27.87 211,-15.47"/>
<polygon fill="midnightblue" stroke="midnightblue" points="211.89,-18.87 221.2,-13.82 210.77,-11.96 211.89,-18.87"/>
</g>
<!-- Node20 -->
<g id="node20" class="node">
<title>Node20</title>
<g id="a_node20"><a xlink:title=" ">
<polygon fill="white" stroke="#bfbfbf" points="134.59,-56.5 134.59,-75.5 192.59,-75.5 192.59,-56.5 134.59,-56.5"/>
<text text-anchor="middle" x="163.59" y="-63.5" font-family="Helvetica,sans-Serif" font-size="10.00">memory</text>
</a>
</g>
</g>
<!-- Node17&#45;&gt;Node20 -->
<g id="edge20" class="edge">
<title>Node17&#45;&gt;Node20</title>
<path fill="none" stroke="midnightblue" d="M1955.52,-168.85C1952.51,-168.54 1949.52,-168.25 1946.59,-168 1850.64,-159.79 299.53,-175.43 213.59,-132 193.99,-122.1 179.86,-100.54 171.72,-84.96"/>
<polygon fill="midnightblue" stroke="midnightblue" points="174.77,-83.22 167.24,-75.77 168.47,-86.29 174.77,-83.22"/>
</g>
<!-- Node21 -->
<g id="node21" class="node">
<title>Node21</title>
<g id="a_node21"><a xlink:title=" ">
<polygon fill="white" stroke="#bfbfbf" points="1766.09,-56.5 1766.09,-75.5 1835.09,-75.5 1835.09,-56.5 1766.09,-56.5"/>
<text text-anchor="middle" x="1800.59" y="-63.5" font-family="Helvetica,sans-Serif" font-size="10.00">type_traits</text>
</a>
</g>
</g>
<!-- Node17&#45;&gt;Node21 -->
<g id="edge21" class="edge">
<title>Node17&#45;&gt;Node21</title>
<path fill="none" stroke="midnightblue" d="M1957.9,-168.5C1876.97,-154.91 1766.77,-135.81 1763.59,-132 1750.8,-116.7 1766.67,-96.36 1781.41,-82.54"/>
<polygon fill="midnightblue" stroke="midnightblue" points="1784.1,-84.84 1789.3,-75.61 1779.48,-79.58 1784.1,-84.84"/>
</g>
<!-- Node22 -->
<g id="node22" class="node">
<title>Node22</title>
<g id="a_node22"><a xlink:href="_create_device_expression_8h.html" target="_top" xlink:title=" ">
<polygon fill="white" stroke="black" points="1772.09,-112.5 1772.09,-131.5 1941.09,-131.5 1941.09,-112.5 1772.09,-112.5"/>
<text text-anchor="middle" x="1856.59" y="-119.5" font-family="Helvetica,sans-Serif" font-size="10.00">utils/CreateDeviceExpression.h</text>
</a>
</g>
</g>
<!-- Node17&#45;&gt;Node22 -->
<g id="edge24" class="edge">
<title>Node17&#45;&gt;Node22</title>
<path fill="none" stroke="midnightblue" d="M1998.51,-168.4C1966.37,-158.12 1923.33,-144.35 1893.1,-134.68"/>
<polygon fill="midnightblue" stroke="midnightblue" points="1893.97,-131.28 1883.38,-131.57 1891.84,-137.95 1893.97,-131.28"/>
</g>
<!-- Node22&#45;&gt;Node11 -->
<g id="edge26" class="edge">
<title>Node22&#45;&gt;Node11</title>
<path fill="none" stroke="midnightblue" d="M1886.37,-112.44C1918.41,-103.24 1969.52,-88.56 2004.94,-78.39"/>
<polygon fill="midnightblue" stroke="midnightblue" points="2006.29,-81.64 2014.94,-75.52 2004.36,-74.91 2006.29,-81.64"/>
</g>
<!-- Node22&#45;&gt;Node21 -->
<g id="edge25" class="edge">
<title>Node22&#45;&gt;Node21</title>
<path fill="none" stroke="midnightblue" d="M1847.59,-112.32C1839.39,-104.42 1827.08,-92.55 1817.11,-82.94"/>
<polygon fill="midnightblue" stroke="midnightblue" points="1819.37,-80.26 1809.75,-75.83 1814.52,-85.29 1819.37,-80.26"/>
</g>
<!-- Node24 -->
<g id="node24" class="node">
<title>Node24</title>
<g id="a_node24"><a xlink:title=" ">
<polygon fill="white" stroke="#bfbfbf" points="970.59,-56.5 970.59,-75.5 1014.59,-75.5 1014.59,-56.5 970.59,-56.5"/>
<text text-anchor="middle" x="992.59" y="-63.5" font-family="Helvetica,sans-Serif" font-size="10.00">mpi.h</text>
</a>
</g>
</g>
<!-- Node23&#45;&gt;Node24 -->
<g id="edge28" class="edge">
<title>Node23&#45;&gt;Node24</title>
<path fill="none" stroke="midnightblue" d="M981.73,-112.08C983.45,-104.93 985.93,-94.64 988.09,-85.69"/>
<polygon fill="midnightblue" stroke="midnightblue" points="991.54,-86.29 990.48,-75.75 984.73,-84.65 991.54,-86.29"/>
</g>
<!-- Node25 -->
<g id="node25" class="node">
<title>Node25</title>
<g id="a_node25"><a xlink:title=" ">
<polygon fill="white" stroke="#bfbfbf" points="897.09,-56.5 897.09,-75.5 952.09,-75.5 952.09,-56.5 897.09,-56.5"/>
<text text-anchor="middle" x="924.59" y="-63.5" font-family="Helvetica,sans-Serif" font-size="10.00">fstream</text>
</a>
</g>
</g>
<!-- Node23&#45;&gt;Node25 -->
<g id="edge29" class="edge">
<title>Node23&#45;&gt;Node25</title>
<path fill="none" stroke="midnightblue" d="M970.5,-112.08C962.41,-104.14 950.39,-92.34 940.67,-82.8"/>
<polygon fill="midnightblue" stroke="midnightblue" points="943.09,-80.26 933.5,-75.75 938.18,-85.25 943.09,-80.26"/>
</g>
<!-- Node26 -->
<g id="node26" class="node">
<title>Node26</title>
<g id="a_node26"><a xlink:title=" ">
<polygon fill="white" stroke="#bfbfbf" points="1033.09,-56.5 1033.09,-75.5 1100.09,-75.5 1100.09,-56.5 1033.09,-56.5"/>
<text text-anchor="middle" x="1066.59" y="-63.5" font-family="Helvetica,sans-Serif" font-size="10.00">streambuf</text>
</a>
</g>
</g>
<!-- Node23&#45;&gt;Node26 -->
<g id="edge30" class="edge">
<title>Node23&#45;&gt;Node26</title>
<path fill="none" stroke="midnightblue" d="M993.56,-112.32C1007.13,-103.9 1027.97,-90.97 1043.91,-81.07"/>
<polygon fill="midnightblue" stroke="midnightblue" points="1045.99,-83.9 1052.64,-75.65 1042.3,-77.95 1045.99,-83.9"/>
</g>
<!-- Node35&#45;&gt;Node10 -->
<g id="edge75" class="edge">
<title>Node35&#45;&gt;Node10</title>
<path fill="none" stroke="midnightblue" d="M506.59,-173.82C506.59,-155.26 506.59,-111.34 506.59,-85.97"/>
<polygon fill="midnightblue" stroke="midnightblue" points="510.09,-85.78 506.59,-75.78 503.09,-85.78 510.09,-85.78"/>
</g>
<!-- Node35&#45;&gt;Node18 -->
<g id="edge74" class="edge">
<title>Node35&#45;&gt;Node18</title>
<path fill="none" stroke="midnightblue" d="M546.89,-173.94C585.34,-164.86 639.19,-149.44 651.59,-132 686.42,-82.98 595.16,-40.71 544.2,-21.71"/>
<polygon fill="midnightblue" stroke="midnightblue" points="545.19,-18.34 534.59,-18.22 542.8,-24.92 545.19,-18.34"/>
</g>
<!-- Node35&#45;&gt;Node23 -->
<g id="edge70" class="edge">
<title>Node35&#45;&gt;Node23</title>
<path fill="none" stroke="midnightblue" d="M536.04,-173.95C544.55,-171.73 553.88,-169.54 562.59,-168 725.28,-139.2 769.05,-155.56 932.59,-132 934.05,-131.79 935.54,-131.56 937.04,-131.33"/>
<polygon fill="midnightblue" stroke="midnightblue" points="937.76,-134.76 947.03,-129.64 936.59,-127.85 937.76,-134.76"/>
</g>
<!-- Node35&#45;&gt;Node25 -->
<g id="edge73" class="edge">
<title>Node35&#45;&gt;Node25</title>
<path fill="none" stroke="midnightblue" d="M548.46,-174.1C559.83,-171.96 572.16,-169.77 583.59,-168 648.85,-157.88 821.88,-165.85 878.59,-132 896.72,-121.18 909.59,-100.13 917.02,-84.91"/>
<polygon fill="midnightblue" stroke="midnightblue" points="920.35,-86.05 921.3,-75.5 913.97,-83.16 920.35,-86.05"/>
</g>
<!-- Node36 -->
<g id="node36" class="node">
<title>Node36</title>
<g id="a_node36"><a xlink:href="_boundary_conditions_8h.html" target="_top" xlink:title=" ">
<polygon fill="white" stroke="black" points="222.59,-112.5 222.59,-131.5 346.59,-131.5 346.59,-112.5 222.59,-112.5"/>
<text text-anchor="middle" x="284.59" y="-119.5" font-family="Helvetica,sans-Serif" font-size="10.00">BoundaryConditions.h</text>
</a>
</g>
</g>
<!-- Node35&#45;&gt;Node36 -->
<g id="edge41" class="edge">
<title>Node35&#45;&gt;Node36</title>
<path fill="none" stroke="midnightblue" d="M474.78,-173.98C435.71,-163.5 369.32,-145.71 326.22,-134.16"/>
<polygon fill="midnightblue" stroke="midnightblue" points="326.9,-130.72 316.33,-131.51 325.09,-137.48 326.9,-130.72"/>
</g>
<!-- Node37 -->
<g id="node37" class="node">
<title>Node37</title>
<g id="a_node37"><a xlink:href="_enums_8h.html" target="_top" xlink:title=" ">
<polygon fill="white" stroke="black" points="211.09,-56.5 211.09,-75.5 270.09,-75.5 270.09,-56.5 211.09,-56.5"/>
<text text-anchor="middle" x="240.59" y="-63.5" font-family="Helvetica,sans-Serif" font-size="10.00">Enums.h</text>
</a>
</g>
</g>
<!-- Node35&#45;&gt;Node37 -->
<g id="edge49" class="edge">
<title>Node35&#45;&gt;Node37</title>
<path fill="none" stroke="midnightblue" d="M465.08,-181.66C392.04,-179.21 245.26,-169.6 213.59,-132 201.72,-117.91 213.18,-97.88 224.62,-83.79"/>
<polygon fill="midnightblue" stroke="midnightblue" points="227.58,-85.72 231.53,-75.89 222.31,-81.11 227.58,-85.72"/>
</g>
<!-- Node38 -->
<g id="node38" class="node">
<title>Node38</title>
<g id="a_node38"><a xlink:href="_initial_conditions_8h.html" target="_top" xlink:title=" ">
<polygon fill="white" stroke="black" points="23.09,-112.5 23.09,-131.5 128.09,-131.5 128.09,-112.5 23.09,-112.5"/>
<text text-anchor="middle" x="75.59" y="-119.5" font-family="Helvetica,sans-Serif" font-size="10.00">InitialConditions.h</text>
</a>
</g>
</g>
<!-- Node35&#45;&gt;Node38 -->
<g id="edge50" class="edge">
<title>Node35&#45;&gt;Node38</title>
<path fill="none" stroke="midnightblue" d="M464.87,-176.74C388.89,-166.25 227.58,-143.98 138.3,-131.66"/>
<polygon fill="midnightblue" stroke="midnightblue" points="138.69,-128.18 128.31,-130.28 137.74,-135.11 138.69,-128.18"/>
</g>
<!-- Node39 -->
<g id="node39" class="node">
<title>Node39</title>
<g id="a_node39"><a xlink:href="_material_propertys_8h.html" target="_top" xlink:title=" ">
<polygon fill="white" stroke="black" points="365.09,-112.5 365.09,-131.5 478.09,-131.5 478.09,-112.5 365.09,-112.5"/>
<text text-anchor="middle" x="421.59" y="-119.5" font-family="Helvetica,sans-Serif" font-size="10.00">MaterialPropertys.h</text>
</a>
</g>
</g>
<!-- Node35&#45;&gt;Node39 -->
<g id="edge56" class="edge">
<title>Node35&#45;&gt;Node39</title>
<path fill="none" stroke="midnightblue" d="M494.41,-173.98C480.77,-164.43 458.45,-148.81 442.11,-137.37"/>
<polygon fill="midnightblue" stroke="midnightblue" points="443.94,-134.38 433.74,-131.51 439.93,-140.11 443.94,-134.38"/>
</g>
<!-- Node40 -->
<g id="node40" class="node">
<title>Node40</title>
<g id="a_node40"><a xlink:href="_nalu_parsed_types_8h.html" target="_top" xlink:title=" ">
<polygon fill="white" stroke="black" points="534.59,-112.5 534.59,-131.5 642.59,-131.5 642.59,-112.5 534.59,-112.5"/>
<text text-anchor="middle" x="588.59" y="-119.5" font-family="Helvetica,sans-Serif" font-size="10.00">NaluParsedTypes.h</text>
</a>
</g>
</g>
<!-- Node35&#45;&gt;Node40 -->
<g id="edge61" class="edge">
<title>Node35&#45;&gt;Node40</title>
<path fill="none" stroke="midnightblue" d="M518.33,-173.98C531.36,-164.52 552.62,-149.1 568.34,-137.69"/>
<polygon fill="midnightblue" stroke="midnightblue" points="570.82,-140.21 576.86,-131.51 566.71,-134.55 570.82,-140.21"/>
</g>
<!-- Node41 -->
<g id="node41" class="node">
<title>Node41</title>
<g id="a_node41"><a xlink:href="_nalu_parsing_helper_8h.html" target="_top" xlink:title=" ">
<polygon fill="white" stroke="black" points="737.09,-112.5 737.09,-131.5 852.09,-131.5 852.09,-112.5 737.09,-112.5"/>
<text text-anchor="middle" x="794.59" y="-119.5" font-family="Helvetica,sans-Serif" font-size="10.00">NaluParsingHelper.h</text>
</a>
</g>
</g>
<!-- Node35&#45;&gt;Node41 -->
<g id="edge64" class="edge">
<title>Node35&#45;&gt;Node41</title>
<path fill="none" stroke="midnightblue" d="M538.19,-173.95C546.13,-171.91 554.65,-169.79 562.59,-168 621.3,-154.72 688.93,-141.88 735.96,-133.34"/>
<polygon fill="midnightblue" stroke="midnightblue" points="736.75,-136.75 745.97,-131.53 735.51,-129.86 736.75,-136.75"/>
</g>
<!-- Node42 -->
<g id="node42" class="node">
<title>Node42</title>
<g id="a_node42"><a xlink:title=" ">
<polygon fill="white" stroke="#bfbfbf" points="663.09,-56.5 663.09,-75.5 762.09,-75.5 762.09,-56.5 663.09,-56.5"/>
<text text-anchor="middle" x="712.59" y="-63.5" font-family="Helvetica,sans-Serif" font-size="10.00">yaml&#45;cpp/yaml.h</text>
</a>
</g>
</g>
<!-- Node35&#45;&gt;Node42 -->
<g id="edge71" class="edge">
<title>Node35&#45;&gt;Node42</title>
<path fill="none" stroke="midnightblue" d="M539.59,-173.92C589.51,-160.83 679.03,-136.87 684.59,-132 698.27,-119.99 705.5,-100.1 709.15,-85.48"/>
<polygon fill="midnightblue" stroke="midnightblue" points="712.61,-86.05 711.3,-75.54 705.77,-84.58 712.61,-86.05"/>
</g>
<!-- Node43 -->
<g id="node43" class="node">
<title>Node43</title>
<g id="a_node43"><a xlink:title=" ">
<polygon fill="white" stroke="#bfbfbf" points="818.59,-56.5 818.59,-75.5 878.59,-75.5 878.59,-56.5 818.59,-56.5"/>
<text text-anchor="middle" x="848.59" y="-63.5" font-family="Helvetica,sans-Serif" font-size="10.00">iostream</text>
</a>
</g>
</g>
<!-- Node35&#45;&gt;Node43 -->
<g id="edge72" class="edge">
<title>Node35&#45;&gt;Node43</title>
<path fill="none" stroke="midnightblue" d="M536.64,-173.93C544.99,-171.77 554.1,-169.6 562.59,-168 628.13,-155.61 816.34,-181.91 860.59,-132 871.97,-119.16 865.96,-99.15 859,-84.72"/>
<polygon fill="midnightblue" stroke="midnightblue" points="862.02,-82.96 854.22,-75.78 855.85,-86.25 862.02,-82.96"/>
</g>
<!-- Node36&#45;&gt;Node10 -->
<g id="edge47" class="edge">
<title>Node36&#45;&gt;Node10</title>
<path fill="none" stroke="midnightblue" d="M319.76,-112.44C361.8,-102.22 431.64,-85.23 472.98,-75.18"/>
<polygon fill="midnightblue" stroke="midnightblue" points="473.95,-78.54 482.84,-72.78 472.29,-71.74 473.95,-78.54"/>
</g>
<!-- Node36&#45;&gt;Node18 -->
<g id="edge46" class="edge">
<title>Node36&#45;&gt;Node18</title>
<path fill="none" stroke="midnightblue" d="M302.48,-112.37C342.27,-93.17 438.29,-46.84 485.49,-24.07"/>
<polygon fill="midnightblue" stroke="midnightblue" points="487.29,-27.09 494.78,-19.59 484.25,-20.78 487.29,-27.09"/>
</g>
<!-- Node36&#45;&gt;Node19 -->
<g id="edge45" class="edge">
<title>Node36&#45;&gt;Node19</title>
<path fill="none" stroke="midnightblue" d="M285.4,-112.19C286.23,-99.31 286.47,-74.82 278.59,-56 274.02,-45.11 265.84,-34.88 258.24,-26.94"/>
<polygon fill="midnightblue" stroke="midnightblue" points="260.57,-24.33 250.98,-19.82 255.67,-29.32 260.57,-24.33"/>
</g>
<!-- Node36&#45;&gt;Node20 -->
<g id="edge48" class="edge">
<title>Node36&#45;&gt;Node20</title>
<path fill="none" stroke="midnightblue" d="M265.41,-112.44C245.68,-103.64 214.7,-89.81 192.09,-79.72"/>
<polygon fill="midnightblue" stroke="midnightblue" points="193.23,-76.4 182.67,-75.52 190.37,-82.79 193.23,-76.4"/>
</g>
<!-- Node36&#45;&gt;Node37 -->
<g id="edge42" class="edge">
<title>Node36&#45;&gt;Node37</title>
<path fill="none" stroke="midnightblue" d="M277.32,-112.08C271.04,-104.38 261.8,-93.03 254.15,-83.65"/>
<polygon fill="midnightblue" stroke="midnightblue" points="256.75,-81.29 247.72,-75.75 251.32,-85.71 256.75,-81.29"/>
</g>
<!-- Node37&#45;&gt;Node18 -->
<g id="edge43" class="edge">
<title>Node37&#45;&gt;Node18</title>
<path fill="none" stroke="midnightblue" d="M270.21,-59.12C321.72,-48.89 427.33,-27.93 480.5,-17.37"/>
<polygon fill="midnightblue" stroke="midnightblue" points="481.28,-20.78 490.41,-15.4 479.92,-13.92 481.28,-20.78"/>
</g>
<!-- Node37&#45;&gt;Node19 -->
<g id="edge44" class="edge">
<title>Node37&#45;&gt;Node19</title>
<path fill="none" stroke="midnightblue" d="M240.59,-56.08C240.59,-49.01 240.59,-38.86 240.59,-29.99"/>
<polygon fill="midnightblue" stroke="midnightblue" points="244.09,-29.75 240.59,-19.75 237.09,-29.75 244.09,-29.75"/>
</g>
<!-- Node38&#45;&gt;Node10 -->
<g id="edge54" class="edge">
<title>Node38&#45;&gt;Node10</title>
<path fill="none" stroke="midnightblue" d="M128.43,-114.38C218.2,-103.13 398,-80.6 472.76,-71.24"/>
<polygon fill="midnightblue" stroke="midnightblue" points="473.52,-74.67 483.01,-69.95 472.65,-67.72 473.52,-74.67"/>
</g>
<!-- Node38&#45;&gt;Node18 -->
<g id="edge53" class="edge">
<title>Node38&#45;&gt;Node18</title>
<path fill="none" stroke="midnightblue" d="M79.36,-112.47C86.25,-98.06 102.3,-69.19 125.59,-56 185.99,-21.78 398.37,-13.5 480.15,-11.57"/>
<polygon fill="midnightblue" stroke="midnightblue" points="480.43,-15.06 490.35,-11.35 480.27,-8.07 480.43,-15.06"/>
</g>
<!-- Node38&#45;&gt;Node19 -->
<g id="edge52" class="edge">
<title>Node38&#45;&gt;Node19</title>
<path fill="none" stroke="midnightblue" d="M75.33,-112.14C75.44,-98.28 77.71,-71.47 92.59,-56 123.91,-23.42 178.01,-14.23 211.4,-11.75"/>
<polygon fill="midnightblue" stroke="midnightblue" points="211.68,-15.24 221.46,-11.17 211.27,-8.26 211.68,-15.24"/>
</g>
<!-- Node38&#45;&gt;Node20 -->
<g id="edge55" class="edge">
<title>Node38&#45;&gt;Node20</title>
<path fill="none" stroke="midnightblue" d="M89.72,-112.32C103.45,-103.9 124.52,-90.97 140.65,-81.07"/>
<polygon fill="midnightblue" stroke="midnightblue" points="142.79,-83.87 149.48,-75.65 139.13,-77.9 142.79,-83.87"/>
</g>
<!-- Node38&#45;&gt;Node37 -->
<g id="edge51" class="edge">
<title>Node38&#45;&gt;Node37</title>
<path fill="none" stroke="midnightblue" d="M101.73,-112.44C129.61,-103.32 173.93,-88.81 204.98,-78.65"/>
<polygon fill="midnightblue" stroke="midnightblue" points="206.15,-81.95 214.56,-75.52 203.97,-75.3 206.15,-81.95"/>
</g>
<!-- Node39&#45;&gt;Node10 -->
<g id="edge60" class="edge">
<title>Node39&#45;&gt;Node10</title>
<path fill="none" stroke="midnightblue" d="M435.24,-112.32C448.5,-103.9 468.85,-90.97 484.43,-81.07"/>
<polygon fill="midnightblue" stroke="midnightblue" points="486.4,-83.97 492.96,-75.65 482.64,-78.06 486.4,-83.97"/>
</g>
<!-- Node39&#45;&gt;Node18 -->
<g id="edge59" class="edge">
<title>Node39&#45;&gt;Node18</title>
<path fill="none" stroke="midnightblue" d="M428.54,-112.08C438.41,-99.47 457.12,-75.77 473.59,-56 481.62,-46.35 490.82,-35.72 498.26,-27.22"/>
<polygon fill="midnightblue" stroke="midnightblue" points="501.03,-29.36 505.01,-19.54 495.78,-24.74 501.03,-29.36"/>
</g>
<!-- Node39&#45;&gt;Node19 -->
<g id="edge58" class="edge">
<title>Node39&#45;&gt;Node19</title>
<path fill="none" stroke="midnightblue" d="M407.38,-112.37C376.19,-93.41 301.47,-48 263.53,-24.94"/>
<polygon fill="midnightblue" stroke="midnightblue" points="265.09,-21.79 254.72,-19.59 261.45,-27.78 265.09,-21.79"/>
</g>
<!-- Node39&#45;&gt;Node37 -->
<g id="edge57" class="edge">
<title>Node39&#45;&gt;Node37</title>
<path fill="none" stroke="midnightblue" d="M392.91,-112.44C362.06,-103.24 312.86,-88.56 278.76,-78.39"/>
<polygon fill="midnightblue" stroke="midnightblue" points="279.71,-75.02 269.13,-75.52 277.71,-81.73 279.71,-75.02"/>
</g>
<!-- Node40&#45;&gt;Node10 -->
<g id="edge63" class="edge">
<title>Node40&#45;&gt;Node10</title>
<path fill="none" stroke="midnightblue" d="M575.41,-112.32C562.74,-103.98 543.35,-91.21 528.38,-81.35"/>
<polygon fill="midnightblue" stroke="midnightblue" points="530,-78.23 519.73,-75.65 526.15,-84.08 530,-78.23"/>
</g>
<!-- Node40&#45;&gt;Node18 -->
<g id="edge62" class="edge">
<title>Node40&#45;&gt;Node18</title>
<path fill="none" stroke="midnightblue" d="M582.62,-112.37C570.08,-94.22 540.78,-51.8 524.32,-27.99"/>
<polygon fill="midnightblue" stroke="midnightblue" points="527.08,-25.83 518.52,-19.59 521.33,-29.81 527.08,-25.83"/>
</g>
<!-- Node41&#45;&gt;Node10 -->
<g id="edge69" class="edge">
<title>Node41&#45;&gt;Node10</title>
<path fill="none" stroke="midnightblue" d="M748.95,-112.44C690.93,-101.56 592.1,-83.03 540.39,-73.34"/>
<polygon fill="midnightblue" stroke="midnightblue" points="540.88,-69.87 530.4,-71.47 539.59,-76.75 540.88,-69.87"/>
</g>
<!-- Node41&#45;&gt;Node18 -->
<g id="edge68" class="edge">
<title>Node41&#45;&gt;Node18</title>
<path fill="none" stroke="midnightblue" d="M794.04,-112.29C792.65,-98.15 787.77,-70.33 770.59,-56 736.81,-27.85 606.83,-16.55 545.27,-12.71"/>
<polygon fill="midnightblue" stroke="midnightblue" points="545.15,-9.19 534.96,-12.09 544.74,-16.18 545.15,-9.19"/>
</g>
<!-- Node41&#45;&gt;Node25 -->
<g id="edge67" class="edge">
<title>Node41&#45;&gt;Node25</title>
<path fill="none" stroke="midnightblue" d="M815.18,-112.44C836.58,-103.56 870.27,-89.56 894.61,-79.45"/>
<polygon fill="midnightblue" stroke="midnightblue" points="896.19,-82.58 904.08,-75.52 893.5,-76.12 896.19,-82.58"/>
</g>
<!-- Node41&#45;&gt;Node42 -->
<g id="edge65" class="edge">
<title>Node41&#45;&gt;Node42</title>
<path fill="none" stroke="midnightblue" d="M781.41,-112.32C768.74,-103.98 749.35,-91.21 734.38,-81.35"/>
<polygon fill="midnightblue" stroke="midnightblue" points="736,-78.23 725.73,-75.65 732.15,-84.08 736,-78.23"/>
</g>
<!-- Node41&#45;&gt;Node43 -->
<g id="edge66" class="edge">
<title>Node41&#45;&gt;Node43</title>
<path fill="none" stroke="midnightblue" d="M803.5,-112.08C811.37,-104.22 823.02,-92.57 832.5,-83.08"/>
<polygon fill="midnightblue" stroke="midnightblue" points="835.24,-85.3 839.83,-75.75 830.29,-80.35 835.24,-85.3"/>
</g>
</g>
</svg>
        <g id="navigator" transform="translate(0 0)" fill="#404254">
                <rect fill="#f2f5e9" fill-opacity="0.5" stroke="#606060" stroke-width=".5" x="0" y="0" width="60" height="60"/>
                <use id="zoomplus" xlink:href="#zoomPlus" x="17" y="9" onmousedown="handleZoom(evt,'in')"/>
                <use id="zoomminus" xlink:href="#zoomMin" x="42" y="9" onmousedown="handleZoom(evt,'out')"/>
                <use id="reset" xlink:href="#resetDef" x="30" y="36" onmousedown="handleReset()"/>
                <g id="arrowUp" xlink:href="#dirArrow" transform="translate(30 24)" onmousedown="handlePan(0,-1)">
                  <use xlink:href="#rim" fill="#404040">
                        <set attributeName="fill" to="#808080" begin="arrowUp.mouseover" end="arrowUp.mouseout"/>
                  </use>
                  <path fill="none" stroke="white" stroke-width="1.5" d="M0,-3.0v7 M-2.5,-0.5L0,-3.0L2.5,-0.5"/>
                </g>
                <g id="arrowRight" xlink:href="#dirArrow" transform="rotate(90) translate(36 -43)" onmousedown="handlePan(1,0)">
                  <use xlink:href="#rim" fill="#404040">
                        <set attributeName="fill" to="#808080" begin="arrowRight.mouseover" end="arrowRight.mouseout"/>
                  </use>
                  <path fill="none" stroke="white" stroke-width="1.5" d="M0,-3.0v7 M-2.5,-0.5L0,-3.0L2.5,-0.5"/>
                </g>
                <g id="arrowDown" xlink:href="#dirArrow" transform="rotate(180) translate(-30 -48)" onmousedown="handlePan(0,1)">
                  <use xlink:href="#rim" fill="#404040">
                        <set attributeName="fill" to="#808080" begin="arrowDown.mouseover" end="arrowDown.mouseout"/>
                  </use>
                  <path fill="none" stroke="white" stroke-width="1.5" d="M0,-3.0v7 M-2.5,-0.5L0,-3.0L2.5,-0.5"/>
                </g>
                <g id="arrowLeft" xlink:href="#dirArrow" transform="rotate(270) translate(-36 17)" onmousedown="handlePan(-1,0)">
                  <use xlink:href="#rim" fill="#404040">
                        <set attributeName="fill" to="#808080" begin="arrowLeft.mouseover" end="arrowLeft.mouseout"/>
                  </use>
                  <path fill="none" stroke="white" stroke-width="1.5" d="M0,-3.0v7 M-2.5,-0.5L0,-3.0L2.5,-0.5"/>
                </g>
        </g>
        <svg viewBox="0 0 15 15" width="100%" height="30px" preserveAspectRatio="xMaxYMin meet">
         <g id="arrow_out" transform="scale(0.3 0.3)">
          <a xlink:href="_utilities_actuator_8_c__incl_org.svg" target="_base">
           <rect id="button" ry="5" rx="5" y="6" x="6" height="38" width="38"
                fill="#f2f5e9" fill-opacity="0.5" stroke="#606060" stroke-width="1.0"/>
           <path id="arrow"
             d="M 11.500037,31.436501 C 11.940474,20.09759 22.043105,11.32322 32.158766,21.979434 L 37.068811,17.246167 C 37.068811,17.246167 37.088388,32 37.088388,32 L 22.160133,31.978069 C 22.160133,31.978069 26.997745,27.140456 26.997745,27.140456 C 18.528582,18.264221 13.291696,25.230495 11.500037,31.436501 z"
             style="fill:#404040;"/>
          </a>
         </g>
        </svg>
</svg>
