<?xml version="1.0" encoding="UTF-8" standalone="no"?>
<!DOCTYPE svg PUBLIC "-//W3C//DTD SVG 1.1//EN"
 "http://www.w3.org/Graphics/SVG/1.1/DTD/svg11.dtd">
<!-- Generated by graphviz version 2.43.0 (0)
 -->
<!-- Title: UtilitiesActuator.h Pages: 1 -->
<!--zoomable 258 -->

<svg id="main" version="1.1" xmlns="http://www.w3.org/2000/svg" xmlns:xlink="http://www.w3.org/1999/xlink" xml:space="preserve" onload="init(evt)">
<style type="text/css"><![CDATA[
.node, .edge {opacity: 0.7;}
.node.selected, .edge.selected {opacity: 1;}
.edge:hover path { stroke: red; }
.edge:hover polygon { stroke: red; fill: red; }
]]></style>

<defs>
  <circle id="rim" cx="0" cy="0" r="7"/>
  <circle id="rim2" cx="0" cy="0" r="3.5"/>
  <g id="zoomPlus">
    <use xlink:href="#rim" fill="#404040"><set attributeName="fill" to="#808080" begin="zoomplus.mouseover" end="zoomplus.mouseout"/></use>
    <path d="M-4,0h8M0,-4v8" fill="none" stroke="white" stroke-width="1.5" pointer-events="none"/>
  </g>
  <g id="zoomMin">
    <use xlink:href="#rim" fill="#404040"><set attributeName="fill" to="#808080" begin="zoomminus.mouseover" end="zoomminus.mouseout"/></use>
    <path d="M-4,0h8" fill="none" stroke="white" stroke-width="1.5" pointer-events="none"/>
  </g>
  <g id="arrowUp" transform="translate(30 24)">
    <use xlink:href="#rim"/>
    <path pointer-events="none" fill="none" stroke="white" stroke-width="1.5" d="M0,-3.0v7 M-2.5,-0.5L0,-3.0L2.5,-0.5"/>
  </g>
  <g id="arrowRight" transform="rotate(90) translate(36 -43)">
    <use xlink:href="#rim"/>
    <path pointer-events="none" fill="none" stroke="white" stroke-width="1.5" d="M0,-3.0v7 M-2.5,-0.5L0,-3.0L2.5,-0.5"/>
  </g>
  <g id="arrowDown" transform="rotate(180) translate(-30 -48)">
    <use xlink:href="#rim"/>
    <path pointer-events="none" fill="none" stroke="white" stroke-width="1.5" d="M0,-3.0v7 M-2.5,-0.5L0,-3.0L2.5,-0.5"/>
  </g>
  <g id="arrowLeft" transform="rotate(270) translate(-36 17)">
    <use xlink:href="#rim"/>
    <path pointer-events="none" fill="none" stroke="white" stroke-width="1.5" d="M0,-3.0v7 M-2.5,-0.5L0,-3.0L2.5,-0.5"/>
  </g>
  <g id="resetDef">
    <use xlink:href="#rim2" fill="#404040"><set attributeName="fill" to="#808080" begin="reset.mouseover" end="reset.mouseout"/></use>
  </g>
</defs>
<script type="application/ecmascript">
var viewWidth = 2403;
var viewHeight = 258;
var sectionId = 'dynsection-0';
</script>
<script type="application/ecmascript" xlink:href="svg.min.js"/>
<svg id="graph" class="graph">
<g id="viewport">
<title>UtilitiesActuator.h</title>
<!-- Node1 -->
<g id="Node000001" class="node">
<title>Node1</title>
<g id="a_Node000001"><a xlink:title=" ">
<polygon fill="#999999" stroke="#666666" points="1445,-250 1341,-250 1341,-231 1445,-231 1445,-250"/>
<text text-anchor="middle" x="1393" y="-238" font-family="Helvetica,sans-Serif" font-size="10.00">UtilitiesActuator.h</text>
</a>
</g>
</g>
<!-- Node2 -->
<g id="Node000002" class="node">
<title>Node2</title>
<g id="a_Node000002"><a xlink:href="_master_element_8h.html" target="_top" xlink:title=" ">
<polygon fill="white" stroke="#666666" points="819.5,-189.5 636.5,-189.5 636.5,-170.5 819.5,-170.5 819.5,-189.5"/>
<text text-anchor="middle" x="728" y="-177.5" font-family="Helvetica,sans-Serif" font-size="10.00">master_element/MasterElement.h</text>
</a>
</g>
</g>
<!-- Node1&#45;&gt;Node2 -->
<g id="edge1_Node000001_Node000002" class="edge">
<title>Node1&#45;&gt;Node2</title>
<g id="a_edge1_Node000001_Node000002"><a xlink:title=" ">
<path fill="none" stroke="#63b8ff" d="M1340.82,-234.91C1230.86,-225.24 973.65,-202.61 829.86,-189.96"/>
<polygon fill="#63b8ff" stroke="#63b8ff" points="829.98,-186.46 819.71,-189.07 829.36,-193.43 829.98,-186.46"/>
</a>
</g>
</g>
<!-- Node11 -->
<g id="Node000011" class="node">
<title>Node11</title>
<g id="a_Node000011"><a xlink:title=" ">
<polygon fill="#e0e0e0" stroke="#999999" points="917.5,-19 776.5,-19 776.5,0 917.5,0 917.5,-19"/>
<text text-anchor="middle" x="847" y="-7" font-family="Helvetica,sans-Serif" font-size="10.00">stk_mesh/base/Entity.hpp</text>
</a>
</g>
</g>
<!-- Node1&#45;&gt;Node11 -->
<g id="edge30_Node000001_Node000011" class="edge">
<title>Node1&#45;&gt;Node11</title>
<g id="a_edge30_Node000001_Node000011"><a xlink:title=" ">
<path fill="none" stroke="#63b8ff" d="M1340.66,-237.27C1233.51,-232.23 996.87,-218.56 969,-195 919.67,-153.3 970.37,-105.42 930,-55 918.41,-40.52 900.79,-30.13 884.76,-23.06"/>
<polygon fill="#63b8ff" stroke="#63b8ff" points="885.63,-19.63 875.05,-19.07 882.98,-26.11 885.63,-19.63"/>
</a>
</g>
</g>
<!-- Node15 -->
<g id="Node000015" class="node">
<title>Node15</title>
<g id="a_Node000015"><a xlink:href="_master_element_repo_8h.html" target="_top" xlink:title=" ">
<polygon fill="white" stroke="#666666" points="408,-195 234,-195 234,-165 408,-165 408,-195"/>
<text text-anchor="start" x="242" y="-183" font-family="Helvetica,sans-Serif" font-size="10.00">master_element/MasterElement</text>
<text text-anchor="middle" x="321" y="-172" font-family="Helvetica,sans-Serif" font-size="10.00">Repo.h</text>
</a>
</g>
</g>
<!-- Node1&#45;&gt;Node15 -->
<g id="edge15_Node000001_Node000015" class="edge">
<title>Node1&#45;&gt;Node15</title>
<g id="a_edge15_Node000001_Node000015"><a xlink:title=" ">
<path fill="none" stroke="#63b8ff" d="M1340.93,-236.66C1172.33,-227.46 639.44,-198.38 418.47,-186.32"/>
<polygon fill="#63b8ff" stroke="#63b8ff" points="418.36,-182.81 408.19,-185.76 417.98,-189.8 418.36,-182.81"/>
</a>
</g>
</g>
<!-- Node21 -->
<g id="Node000021" class="node">
<title>Node21</title>
<g id="a_Node000021"><a xlink:href="_nalu_env_8h.html" target="_top" xlink:title=" ">
<polygon fill="white" stroke="#666666" points="1043.5,-189.5 978.5,-189.5 978.5,-170.5 1043.5,-170.5 1043.5,-189.5"/>
<text text-anchor="middle" x="1011" y="-177.5" font-family="Helvetica,sans-Serif" font-size="10.00">NaluEnv.h</text>
</a>
</g>
</g>
<!-- Node1&#45;&gt;Node21 -->
<g id="edge25_Node000001_Node000021" class="edge">
<title>Node1&#45;&gt;Node21</title>
<g id="a_edge25_Node000001_Node000021"><a xlink:title=" ">
<path fill="none" stroke="#63b8ff" d="M1340.9,-235.8C1273.7,-230.32 1153.52,-218.11 1053,-195 1049.95,-194.3 1046.81,-193.47 1043.69,-192.56"/>
<polygon fill="#63b8ff" stroke="#63b8ff" points="1044.47,-189.14 1033.88,-189.51 1042.39,-195.83 1044.47,-189.14"/>
</a>
</g>
</g>
<!-- Node25 -->
<g id="Node000025" class="node">
<title>Node25</title>
<g id="a_Node000025"><a xlink:title=" ">
<polygon fill="#e0e0e0" stroke="#999999" points="1220.5,-189.5 1061.5,-189.5 1061.5,-170.5 1220.5,-170.5 1220.5,-189.5"/>
<text text-anchor="middle" x="1141" y="-177.5" font-family="Helvetica,sans-Serif" font-size="10.00">stk_mesh/base/BulkData.hpp</text>
</a>
</g>
</g>
<!-- Node1&#45;&gt;Node25 -->
<g id="edge29_Node000001_Node000025" class="edge">
<title>Node1&#45;&gt;Node25</title>
<g id="a_edge29_Node000001_Node000025"><a xlink:title=" ">
<path fill="none" stroke="#63b8ff" d="M1356.36,-230.99C1311.75,-220.64 1236.37,-203.14 1187.66,-191.83"/>
<polygon fill="#63b8ff" stroke="#63b8ff" points="1188.22,-188.37 1177.69,-189.52 1186.64,-195.19 1188.22,-188.37"/>
</a>
</g>
</g>
<!-- Node26 -->
<g id="Node000026" class="node">
<title>Node26</title>
<g id="a_Node000026"><a xlink:title=" ">
<polygon fill="#e0e0e0" stroke="#999999" points="1375.5,-189.5 1238.5,-189.5 1238.5,-170.5 1375.5,-170.5 1375.5,-189.5"/>
<text text-anchor="middle" x="1307" y="-177.5" font-family="Helvetica,sans-Serif" font-size="10.00">stk_mesh/base/Field.hpp</text>
</a>
</g>
</g>
<!-- Node1&#45;&gt;Node26 -->
<g id="edge31_Node000001_Node000026" class="edge">
<title>Node1&#45;&gt;Node26</title>
<g id="a_edge31_Node000001_Node000026"><a xlink:title=" ">
<path fill="none" stroke="#63b8ff" d="M1380.31,-230.87C1366.59,-221.54 1344.5,-206.51 1328.15,-195.38"/>
<polygon fill="#63b8ff" stroke="#63b8ff" points="1329.98,-192.4 1319.74,-189.67 1326.04,-198.19 1329.98,-192.4"/>
</a>
</g>
</g>
<!-- Node27 -->
<g id="Node000027" class="node">
<title>Node27</title>
<g id="a_Node000027"><a xlink:title=" ">
<polygon fill="#e0e0e0" stroke="#999999" points="1566.5,-189.5 1393.5,-189.5 1393.5,-170.5 1566.5,-170.5 1566.5,-189.5"/>
<text text-anchor="middle" x="1480" y="-177.5" font-family="Helvetica,sans-Serif" font-size="10.00">stk_mesh/base/FieldParallel.hpp</text>
</a>
</g>
</g>
<!-- Node1&#45;&gt;Node27 -->
<g id="edge32_Node000001_Node000027" class="edge">
<title>Node1&#45;&gt;Node27</title>
<g id="a_edge32_Node000001_Node000027"><a xlink:title=" ">
<path fill="none" stroke="#63b8ff" d="M1405.84,-230.87C1419.72,-221.54 1442.07,-206.51 1458.61,-195.38"/>
<polygon fill="#63b8ff" stroke="#63b8ff" points="1460.76,-198.15 1467.11,-189.67 1456.86,-192.34 1460.76,-198.15"/>
</a>
</g>
</g>
<!-- Node28 -->
<g id="Node000028" class="node">
<title>Node28</title>
<g id="a_Node000028"><a xlink:title=" ">
<polygon fill="#e0e0e0" stroke="#999999" points="1755,-189.5 1585,-189.5 1585,-170.5 1755,-170.5 1755,-189.5"/>
<text text-anchor="middle" x="1670" y="-177.5" font-family="Helvetica,sans-Serif" font-size="10.00">stk_mesh/base/GetBuckets.hpp</text>
</a>
</g>
</g>
<!-- Node1&#45;&gt;Node28 -->
<g id="edge33_Node000001_Node000028" class="edge">
<title>Node1&#45;&gt;Node28</title>
<g id="a_edge33_Node000001_Node000028"><a xlink:title=" ">
<path fill="none" stroke="#63b8ff" d="M1433.28,-230.99C1482.62,-220.57 1566.21,-202.92 1619.72,-191.62"/>
<polygon fill="#63b8ff" stroke="#63b8ff" points="1620.61,-195.01 1629.67,-189.52 1619.17,-188.16 1620.61,-195.01"/>
</a>
</g>
</g>
<!-- Node29 -->
<g id="Node000029" class="node">
<title>Node29</title>
<g id="a_Node000029"><a xlink:title=" ">
<polygon fill="#e0e0e0" stroke="#999999" points="1926.5,-189.5 1773.5,-189.5 1773.5,-170.5 1926.5,-170.5 1926.5,-189.5"/>
<text text-anchor="middle" x="1850" y="-177.5" font-family="Helvetica,sans-Serif" font-size="10.00">stk_mesh/base/Selector.hpp</text>
</a>
</g>
</g>
<!-- Node1&#45;&gt;Node29 -->
<g id="edge34_Node000001_Node000029" class="edge">
<title>Node1&#45;&gt;Node29</title>
<g id="a_edge34_Node000001_Node000029"><a xlink:title=" ">
<path fill="none" stroke="#63b8ff" d="M1445.01,-233.96C1516.85,-226.15 1650.47,-211.04 1764,-195 1772.29,-193.83 1781.01,-192.51 1789.6,-191.16"/>
<polygon fill="#63b8ff" stroke="#63b8ff" points="1790.25,-194.6 1799.58,-189.57 1789.15,-187.69 1790.25,-194.6"/>
</a>
</g>
</g>
<!-- Node30 -->
<g id="Node000030" class="node">
<title>Node30</title>
<g id="a_Node000030"><a xlink:title=" ">
<polygon fill="#e0e0e0" stroke="#999999" points="2107,-189.5 1945,-189.5 1945,-170.5 2107,-170.5 2107,-189.5"/>
<text text-anchor="middle" x="2026" y="-177.5" font-family="Helvetica,sans-Serif" font-size="10.00">stk_mesh/base/MetaData.hpp</text>
</a>
</g>
</g>
<!-- Node1&#45;&gt;Node30 -->
<g id="edge35_Node000001_Node000030" class="edge">
<title>Node1&#45;&gt;Node30</title>
<g id="a_edge35_Node000001_Node000030"><a xlink:title=" ">
<path fill="none" stroke="#63b8ff" d="M1445.16,-236.49C1542.07,-230.61 1756.36,-216.3 1936,-195 1945.44,-193.88 1955.41,-192.51 1965.14,-191.08"/>
<polygon fill="#63b8ff" stroke="#63b8ff" points="1965.79,-194.52 1975.16,-189.57 1964.75,-187.6 1965.79,-194.52"/>
</a>
</g>
</g>
<!-- Node31 -->
<g id="Node000031" class="node">
<title>Node31</title>
<g id="a_Node000031"><a xlink:title=" ">
<polygon fill="#e0e0e0" stroke="#999999" points="2258.5,-189.5 2125.5,-189.5 2125.5,-170.5 2258.5,-170.5 2258.5,-189.5"/>
<text text-anchor="middle" x="2192" y="-177.5" font-family="Helvetica,sans-Serif" font-size="10.00">stk_mesh/base/Part.hpp</text>
</a>
</g>
</g>
<!-- Node1&#45;&gt;Node31 -->
<g id="edge36_Node000001_Node000031" class="edge">
<title>Node1&#45;&gt;Node31</title>
<g id="a_edge36_Node000001_Node000031"><a xlink:title=" ">
<path fill="none" stroke="#63b8ff" d="M1445.37,-238.44C1564.74,-235.56 1866.04,-225.6 2116,-195 2124.05,-194.01 2132.53,-192.71 2140.79,-191.3"/>
<polygon fill="#63b8ff" stroke="#63b8ff" points="2141.49,-194.73 2150.72,-189.54 2140.27,-187.84 2141.49,-194.73"/>
</a>
</g>
</g>
<!-- Node32 -->
<g id="Node000032" class="node">
<title>Node32</title>
<g id="a_Node000032"><a xlink:title=" ">
<polygon fill="#e0e0e0" stroke="#999999" points="2395,-189.5 2277,-189.5 2277,-170.5 2395,-170.5 2395,-189.5"/>
<text text-anchor="middle" x="2336" y="-177.5" font-family="Helvetica,sans-Serif" font-size="10.00">stk_search/Point.hpp</text>
</a>
</g>
</g>
<!-- Node1&#45;&gt;Node32 -->
<g id="edge37_Node000001_Node000032" class="edge">
<title>Node1&#45;&gt;Node32</title>
<g id="a_edge37_Node000001_Node000032"><a xlink:title=" ">
<path fill="none" stroke="#63b8ff" d="M1445.02,-239.61C1580.92,-239.3 1957.56,-234.62 2268,-195 2275.15,-194.09 2282.67,-192.84 2290,-191.46"/>
<polygon fill="#63b8ff" stroke="#63b8ff" points="2290.69,-194.89 2299.82,-189.51 2289.33,-188.02 2290.69,-194.89"/>
</a>
</g>
</g>
<!-- Node3 -->
<g id="Node000003" class="node">
<title>Node3</title>
<g id="a_Node000003"><a xlink:href="_alg_traits_8h.html" target="_top" xlink:title=" ">
<polygon fill="white" stroke="#666666" points="670,-129 602,-129 602,-110 670,-110 670,-129"/>
<text text-anchor="middle" x="636" y="-117" font-family="Helvetica,sans-Serif" font-size="10.00">AlgTraits.h</text>
</a>
</g>
</g>
<!-- Node2&#45;&gt;Node3 -->
<g id="edge2_Node000002_Node000003" class="edge">
<title>Node2&#45;&gt;Node3</title>
<g id="a_edge2_Node000002_Node000003"><a xlink:title=" ">
<path fill="none" stroke="#63b8ff" d="M714.43,-170.37C699.61,-160.95 675.67,-145.73 658.14,-134.58"/>
<polygon fill="#63b8ff" stroke="#63b8ff" points="659.95,-131.58 649.63,-129.17 656.19,-137.49 659.95,-131.58"/>
</a>
</g>
</g>
<!-- Node5 -->
<g id="Node000005" class="node">
<title>Node5</title>
<g id="a_Node000005"><a xlink:href="_simd_interface_8h.html" target="_top" xlink:title="STK SIMD Interface.">
<polygon fill="white" stroke="#666666" points="904,-129 810,-129 810,-110 904,-110 904,-129"/>
<text text-anchor="middle" x="857" y="-117" font-family="Helvetica,sans-Serif" font-size="10.00">SimdInterface.h</text>
</a>
</g>
</g>
<!-- Node2&#45;&gt;Node5 -->
<g id="edge4_Node000002_Node000005" class="edge">
<title>Node2&#45;&gt;Node5</title>
<g id="a_edge4_Node000002_Node000005"><a xlink:title=" ">
<path fill="none" stroke="#63b8ff" d="M746.76,-170.49C768.35,-160.7 804.03,-144.52 828.93,-133.23"/>
<polygon fill="#63b8ff" stroke="#63b8ff" points="830.56,-136.33 838.22,-129.02 827.67,-129.96 830.56,-136.33"/>
</a>
</g>
</g>
<!-- Node9 -->
<g id="Node000009" class="node">
<title>Node9</title>
<g id="a_Node000009"><a xlink:href="_kokkos_interface_8h.html" target="_top" xlink:title=" ">
<polygon fill="white" stroke="#666666" points="526,-74 422,-74 422,-55 526,-55 526,-74"/>
<text text-anchor="middle" x="474" y="-62" font-family="Helvetica,sans-Serif" font-size="10.00">KokkosInterface.h</text>
</a>
</g>
</g>
<!-- Node2&#45;&gt;Node9 -->
<g id="edge8_Node000002_Node000009" class="edge">
<title>Node2&#45;&gt;Node9</title>
<g id="a_edge8_Node000002_Node000009"><a xlink:title=" ">
<path fill="none" stroke="#63b8ff" d="M724.34,-170.2C717.67,-155.3 702.05,-125.22 679,-110 666.71,-101.88 588.08,-86.25 531.86,-75.85"/>
<polygon fill="#63b8ff" stroke="#63b8ff" points="532.47,-72.4 522,-74.03 531.2,-79.28 532.47,-72.4"/>
</a>
</g>
</g>
<!-- Node13 -->
<g id="Node000013" class="node">
<title>Node13</title>
<g id="a_Node000013"><a xlink:title=" ">
<polygon fill="#e0e0e0" stroke="#999999" points="583.5,-129 418.5,-129 418.5,-110 583.5,-110 583.5,-129"/>
<text text-anchor="middle" x="501" y="-117" font-family="Helvetica,sans-Serif" font-size="10.00">stk_util/util/ReportHandler.hpp</text>
</a>
</g>
</g>
<!-- Node2&#45;&gt;Node13 -->
<g id="edge13_Node000002_Node000013" class="edge">
<title>Node2&#45;&gt;Node13</title>
<g id="a_edge13_Node000002_Node000013"><a xlink:title=" ">
<path fill="none" stroke="#63b8ff" d="M694.99,-170.49C655.06,-160.2 587.76,-142.86 543.86,-131.54"/>
<polygon fill="#63b8ff" stroke="#63b8ff" points="544.6,-128.12 534.05,-129.02 542.86,-134.9 544.6,-128.12"/>
</a>
</g>
</g>
<!-- Node14 -->
<g id="Node000014" class="node">
<title>Node14</title>
<g id="a_Node000014"><a xlink:title=" ">
<polygon fill="#e0e0e0" stroke="#999999" points="791.5,-129 726.5,-129 726.5,-110 791.5,-110 791.5,-129"/>
<text text-anchor="middle" x="759" y="-117" font-family="Helvetica,sans-Serif" font-size="10.00">stdexcept</text>
</a>
</g>
</g>
<!-- Node2&#45;&gt;Node14 -->
<g id="edge14_Node000002_Node000014" class="edge">
<title>Node2&#45;&gt;Node14</title>
<g id="a_edge14_Node000002_Node000014"><a xlink:title=" ">
<path fill="none" stroke="#63b8ff" d="M732.57,-170.37C737.06,-161.9 744.03,-148.74 749.69,-138.07"/>
<polygon fill="#63b8ff" stroke="#63b8ff" points="752.82,-139.64 754.41,-129.17 746.63,-136.36 752.82,-139.64"/>
</a>
</g>
</g>
<!-- Node4 -->
<g id="Node000004" class="node">
<title>Node4</title>
<g id="a_Node000004"><a xlink:title=" ">
<polygon fill="#e0e0e0" stroke="#999999" points="689.5,-74 544.5,-74 544.5,-55 689.5,-55 689.5,-74"/>
<text text-anchor="middle" x="617" y="-62" font-family="Helvetica,sans-Serif" font-size="10.00">stk_topology/topology.hpp</text>
</a>
</g>
</g>
<!-- Node3&#45;&gt;Node4 -->
<g id="edge3_Node000003_Node000004" class="edge">
<title>Node3&#45;&gt;Node4</title>
<g id="a_edge3_Node000003_Node000004"><a xlink:title=" ">
<path fill="none" stroke="#63b8ff" d="M632.86,-109.75C630.32,-102.65 626.64,-92.4 623.47,-83.56"/>
<polygon fill="#63b8ff" stroke="#63b8ff" points="626.75,-82.32 620.08,-74.09 620.16,-84.68 626.75,-82.32"/>
</a>
</g>
</g>
<!-- Node6 -->
<g id="Node000006" class="node">
<title>Node6</title>
<g id="a_Node000006"><a xlink:title=" ">
<polygon fill="#e0e0e0" stroke="#999999" points="856,-74 746,-74 746,-55 856,-55 856,-74"/>
<text text-anchor="middle" x="801" y="-62" font-family="Helvetica,sans-Serif" font-size="10.00">stk_simd/Simd.hpp</text>
</a>
</g>
</g>
<!-- Node5&#45;&gt;Node6 -->
<g id="edge5_Node000005_Node000006" class="edge">
<title>Node5&#45;&gt;Node6</title>
<g id="a_edge5_Node000005_Node000006"><a xlink:title=" ">
<path fill="none" stroke="#63b8ff" d="M848,-109.98C839.81,-102.23 827.49,-90.58 817.53,-81.14"/>
<polygon fill="#63b8ff" stroke="#63b8ff" points="819.83,-78.5 810.16,-74.17 815.02,-83.59 819.83,-78.5"/>
</a>
</g>
</g>
<!-- Node7 -->
<g id="Node000007" class="node">
<title>Node7</title>
<g id="a_Node000007"><a xlink:title=" ">
<polygon fill="#e0e0e0" stroke="#999999" points="703.5,-19 590.5,-19 590.5,0 703.5,0 703.5,-19"/>
<text text-anchor="middle" x="647" y="-7" font-family="Helvetica,sans-Serif" font-size="10.00">Kokkos_Macros.hpp</text>
</a>
</g>
</g>
<!-- Node5&#45;&gt;Node7 -->
<g id="edge6_Node000005_Node000007" class="edge">
<title>Node5&#45;&gt;Node7</title>
<g id="a_edge6_Node000005_Node000007"><a xlink:title=" ">
<path fill="none" stroke="#63b8ff" d="M827.48,-109.92C802.62,-102.14 766.49,-89.53 737,-74 710.63,-60.11 683.02,-39.6 665.44,-25.68"/>
<polygon fill="#63b8ff" stroke="#63b8ff" points="667.21,-22.61 657.23,-19.07 662.82,-28.06 667.21,-22.61"/>
</a>
</g>
</g>
<!-- Node8 -->
<g id="Node000008" class="node">
<title>Node8</title>
<g id="a_Node000008"><a xlink:title=" ">
<polygon fill="#e0e0e0" stroke="#999999" points="921.5,-74 874.5,-74 874.5,-55 921.5,-55 921.5,-74"/>
<text text-anchor="middle" x="898" y="-62" font-family="Helvetica,sans-Serif" font-size="10.00">vector</text>
</a>
</g>
</g>
<!-- Node5&#45;&gt;Node8 -->
<g id="edge7_Node000005_Node000008" class="edge">
<title>Node5&#45;&gt;Node8</title>
<g id="a_edge7_Node000005_Node000008"><a xlink:title=" ">
<path fill="none" stroke="#63b8ff" d="M863.77,-109.75C869.56,-102.26 878.06,-91.28 885.14,-82.13"/>
<polygon fill="#63b8ff" stroke="#63b8ff" points="888.01,-84.14 891.36,-74.09 882.47,-79.86 888.01,-84.14"/>
</a>
</g>
</g>
<!-- Node9&#45;&gt;Node7 -->
<g id="edge11_Node000009_Node000007" class="edge">
<title>Node9&#45;&gt;Node7</title>
<g id="a_edge11_Node000009_Node000007"><a xlink:title=" ">
<path fill="none" stroke="#63b8ff" d="M501.8,-54.98C530.97,-46.05 577,-31.94 609.4,-22.02"/>
<polygon fill="#63b8ff" stroke="#63b8ff" points="610.45,-25.36 618.99,-19.08 608.4,-18.66 610.45,-25.36"/>
</a>
</g>
</g>
<!-- Node10 -->
<g id="Node000010" class="node">
<title>Node10</title>
<g id="a_Node000010"><a xlink:title=" ">
<polygon fill="#e0e0e0" stroke="#999999" points="548.5,-19 495.5,-19 495.5,0 548.5,0 548.5,-19"/>
<text text-anchor="middle" x="522" y="-7" font-family="Helvetica,sans-Serif" font-size="10.00">cstddef</text>
</a>
</g>
</g>
<!-- Node9&#45;&gt;Node10 -->
<g id="edge9_Node000009_Node000010" class="edge">
<title>Node9&#45;&gt;Node10</title>
<g id="a_edge9_Node000009_Node000010"><a xlink:title=" ">
<path fill="none" stroke="#63b8ff" d="M481.93,-54.75C488.85,-47.11 499.07,-35.82 507.45,-26.56"/>
<polygon fill="#63b8ff" stroke="#63b8ff" points="510.1,-28.85 514.22,-19.09 504.91,-24.15 510.1,-28.85"/>
</a>
</g>
</g>
<!-- Node9&#45;&gt;Node11 -->
<g id="edge10_Node000009_Node000011" class="edge">
<title>Node9&#45;&gt;Node11</title>
<g id="a_edge10_Node000009_Node000011"><a xlink:title=" ">
<path fill="none" stroke="#63b8ff" d="M526.26,-56.07C591.75,-46.77 704.22,-30.79 777.07,-20.44"/>
<polygon fill="#63b8ff" stroke="#63b8ff" points="777.67,-23.89 787.08,-19.01 776.69,-16.96 777.67,-23.89"/>
</a>
</g>
</g>
<!-- Node12 -->
<g id="Node000012" class="node">
<title>Node12</title>
<g id="a_Node000012"><a xlink:title=" ">
<polygon fill="#e0e0e0" stroke="#999999" points="477,-19 377,-19 377,0 477,0 477,-19"/>
<text text-anchor="middle" x="427" y="-7" font-family="Helvetica,sans-Serif" font-size="10.00">Kokkos_Core.hpp</text>
</a>
</g>
</g>
<!-- Node9&#45;&gt;Node12 -->
<g id="edge12_Node000009_Node000012" class="edge">
<title>Node9&#45;&gt;Node12</title>
<g id="a_edge12_Node000009_Node000012"><a xlink:title=" ">
<path fill="none" stroke="#63b8ff" d="M466.24,-54.75C459.53,-47.18 449.66,-36.05 441.49,-26.84"/>
<polygon fill="#63b8ff" stroke="#63b8ff" points="443.87,-24.25 434.62,-19.09 438.63,-28.89 443.87,-24.25"/>
</a>
</g>
</g>
<!-- Node15&#45;&gt;Node3 -->
<g id="edge21_Node000015_Node000003" class="edge">
<title>Node15&#45;&gt;Node3</title>
<g id="a_edge21_Node000015_Node000003"><a xlink:title=" ">
<path fill="none" stroke="#63b8ff" d="M398.13,-164.95C452.37,-155.02 526.65,-141.34 592,-129 592.1,-128.98 592.2,-128.96 592.3,-128.94"/>
<polygon fill="#63b8ff" stroke="#63b8ff" points="592.73,-132.43 601.9,-127.12 591.42,-125.55 592.73,-132.43"/>
</a>
</g>
</g>
<!-- Node15&#45;&gt;Node13 -->
<g id="edge20_Node000015_Node000013" class="edge">
<title>Node15&#45;&gt;Node13</title>
<g id="a_edge20_Node000015_Node000013"><a xlink:title=" ">
<path fill="none" stroke="#63b8ff" d="M364.11,-164.99C394.91,-154.98 435.87,-141.67 464.93,-132.22"/>
<polygon fill="#63b8ff" stroke="#63b8ff" points="466.25,-135.47 474.68,-129.05 464.09,-128.82 466.25,-135.47"/>
</a>
</g>
</g>
<!-- Node16 -->
<g id="Node000016" class="node">
<title>Node16</title>
<g id="a_Node000016"><a xlink:title=" ">
<polygon fill="#e0e0e0" stroke="#999999" points="120,-129 76,-129 76,-110 120,-110 120,-129"/>
<text text-anchor="middle" x="98" y="-117" font-family="Helvetica,sans-Serif" font-size="10.00">string</text>
</a>
</g>
</g>
<!-- Node15&#45;&gt;Node16 -->
<g id="edge16_Node000015_Node000016" class="edge">
<title>Node15&#45;&gt;Node16</title>
<g id="a_edge16_Node000015_Node000016"><a xlink:title=" ">
<path fill="none" stroke="#63b8ff" d="M267.59,-164.99C224.66,-153.73 165.81,-138.29 129.92,-128.87"/>
<polygon fill="#63b8ff" stroke="#63b8ff" points="130.56,-125.42 120,-126.27 128.78,-132.19 130.56,-125.42"/>
</a>
</g>
</g>
<!-- Node17 -->
<g id="Node000017" class="node">
<title>Node17</title>
<g id="a_Node000017"><a xlink:title=" ">
<polygon fill="#e0e0e0" stroke="#999999" points="400,-129 362,-129 362,-110 400,-110 400,-129"/>
<text text-anchor="middle" x="381" y="-117" font-family="Helvetica,sans-Serif" font-size="10.00">map</text>
</a>
</g>
</g>
<!-- Node15&#45;&gt;Node17 -->
<g id="edge17_Node000015_Node000017" class="edge">
<title>Node15&#45;&gt;Node17</title>
<g id="a_edge17_Node000015_Node000017"><a xlink:title=" ">
<path fill="none" stroke="#63b8ff" d="M335.52,-164.84C344.32,-156.26 355.57,-145.3 364.67,-136.42"/>
<polygon fill="#63b8ff" stroke="#63b8ff" points="367.29,-138.75 372.01,-129.27 362.41,-133.74 367.29,-138.75"/>
</a>
</g>
</g>
<!-- Node18 -->
<g id="Node000018" class="node">
<title>Node18</title>
<g id="a_Node000018"><a xlink:title=" ">
<polygon fill="#e0e0e0" stroke="#999999" points="58,-129 0,-129 0,-110 58,-110 58,-129"/>
<text text-anchor="middle" x="29" y="-117" font-family="Helvetica,sans-Serif" font-size="10.00">memory</text>
</a>
</g>
</g>
<!-- Node15&#45;&gt;Node18 -->
<g id="edge18_Node000015_Node000018" class="edge">
<title>Node15&#45;&gt;Node18</title>
<g id="a_edge18_Node000015_Node000018"><a xlink:title=" ">
<path fill="none" stroke="#63b8ff" d="M246.99,-164.95C198.74,-155.67 134.15,-143.02 68.2,-129.21"/>
<polygon fill="#63b8ff" stroke="#63b8ff" points="68.54,-125.7 58.03,-127.07 67.1,-132.56 68.54,-125.7"/>
</a>
</g>
</g>
<!-- Node19 -->
<g id="Node000019" class="node">
<title>Node19</title>
<g id="a_Node000019"><a xlink:title=" ">
<polygon fill="#e0e0e0" stroke="#999999" points="238.5,-74 169.5,-74 169.5,-55 238.5,-55 238.5,-74"/>
<text text-anchor="middle" x="204" y="-62" font-family="Helvetica,sans-Serif" font-size="10.00">type_traits</text>
</a>
</g>
</g>
<!-- Node15&#45;&gt;Node19 -->
<g id="edge19_Node000015_Node000019" class="edge">
<title>Node15&#45;&gt;Node19</title>
<g id="a_edge19_Node000015_Node000019"><a xlink:title=" ">
<path fill="none" stroke="#63b8ff" d="M233.77,-170.53C207.77,-163.46 181.98,-150.94 166,-129 154.51,-113.23 170.03,-93.82 184.55,-80.64"/>
<polygon fill="#63b8ff" stroke="#63b8ff" points="186.99,-83.17 192.34,-74.02 182.46,-77.83 186.99,-83.17"/>
</a>
</g>
</g>
<!-- Node20 -->
<g id="Node000020" class="node">
<title>Node20</title>
<g id="a_Node000020"><a xlink:href="_create_device_expression_8h.html" target="_top" xlink:title=" ">
<polygon fill="white" stroke="#666666" points="344.5,-129 175.5,-129 175.5,-110 344.5,-110 344.5,-129"/>
<text text-anchor="middle" x="260" y="-117" font-family="Helvetica,sans-Serif" font-size="10.00">utils/CreateDeviceExpression.h</text>
</a>
</g>
</g>
<!-- Node15&#45;&gt;Node20 -->
<g id="edge22_Node000015_Node000020" class="edge">
<title>Node15&#45;&gt;Node20</title>
<g id="a_edge22_Node000015_Node000020"><a xlink:title=" ">
<path fill="none" stroke="#63b8ff" d="M306.23,-164.84C297.29,-156.26 285.86,-145.3 276.6,-136.42"/>
<polygon fill="#63b8ff" stroke="#63b8ff" points="278.78,-133.66 269.14,-129.27 273.94,-138.71 278.78,-133.66"/>
</a>
</g>
</g>
<!-- Node20&#45;&gt;Node9 -->
<g id="edge24_Node000020_Node000009" class="edge">
<title>Node20&#45;&gt;Node9</title>
<g id="a_edge24_Node000020_Node000009"><a xlink:title=" ">
<path fill="none" stroke="#63b8ff" d="M294.38,-109.98C331.09,-100.89 389.38,-86.46 429.55,-76.51"/>
<polygon fill="#63b8ff" stroke="#63b8ff" points="430.48,-79.88 439.35,-74.08 428.8,-73.09 430.48,-79.88"/>
</a>
</g>
</g>
<!-- Node20&#45;&gt;Node19 -->
<g id="edge23_Node000020_Node000019" class="edge">
<title>Node20&#45;&gt;Node19</title>
<g id="a_edge23_Node000020_Node000019"><a xlink:title=" ">
<path fill="none" stroke="#63b8ff" d="M251,-109.98C242.81,-102.23 230.49,-90.58 220.53,-81.14"/>
<polygon fill="#63b8ff" stroke="#63b8ff" points="222.83,-78.5 213.16,-74.17 218.02,-83.59 222.83,-78.5"/>
</a>
</g>
</g>
<!-- Node22 -->
<g id="Node000022" class="node">
<title>Node22</title>
<g id="a_Node000022"><a xlink:title=" ">
<polygon fill="#e0e0e0" stroke="#999999" points="1022,-129 978,-129 978,-110 1022,-110 1022,-129"/>
<text text-anchor="middle" x="1000" y="-117" font-family="Helvetica,sans-Serif" font-size="10.00">mpi.h</text>
</a>
</g>
</g>
<!-- Node21&#45;&gt;Node22 -->
<g id="edge26_Node000021_Node000022" class="edge">
<title>Node21&#45;&gt;Node22</title>
<g id="a_edge26_Node000021_Node000022"><a xlink:title=" ">
<path fill="none" stroke="#63b8ff" d="M1009.38,-170.37C1007.83,-162.16 1005.46,-149.54 1003.49,-139.05"/>
<polygon fill="#63b8ff" stroke="#63b8ff" points="1006.92,-138.35 1001.63,-129.17 1000.04,-139.64 1006.92,-138.35"/>
</a>
</g>
</g>
<!-- Node23 -->
<g id="Node000023" class="node">
<title>Node23</title>
<g id="a_Node000023"><a xlink:title=" ">
<polygon fill="#e0e0e0" stroke="#999999" points="1095.5,-129 1040.5,-129 1040.5,-110 1095.5,-110 1095.5,-129"/>
<text text-anchor="middle" x="1068" y="-117" font-family="Helvetica,sans-Serif" font-size="10.00">fstream</text>
</a>
</g>
</g>
<!-- Node21&#45;&gt;Node23 -->
<g id="edge27_Node000021_Node000023" class="edge">
<title>Node21&#45;&gt;Node23</title>
<g id="a_edge27_Node000021_Node000023"><a xlink:title=" ">
<path fill="none" stroke="#63b8ff" d="M1019.41,-170.37C1028.08,-161.47 1041.8,-147.39 1052.46,-136.45"/>
<polygon fill="#63b8ff" stroke="#63b8ff" points="1055.08,-138.77 1059.55,-129.17 1050.07,-133.89 1055.08,-138.77"/>
</a>
</g>
</g>
<!-- Node24 -->
<g id="Node000024" class="node">
<title>Node24</title>
<g id="a_Node000024"><a xlink:title=" ">
<polygon fill="#e0e0e0" stroke="#999999" points="1180.5,-129 1113.5,-129 1113.5,-110 1180.5,-110 1180.5,-129"/>
<text text-anchor="middle" x="1147" y="-117" font-family="Helvetica,sans-Serif" font-size="10.00">streambuf</text>
</a>
</g>
</g>
<!-- Node21&#45;&gt;Node24 -->
<g id="edge28_Node000021_Node000024" class="edge">
<title>Node21&#45;&gt;Node24</title>
<g id="a_edge28_Node000021_Node000024"><a xlink:title=" ">
<path fill="none" stroke="#63b8ff" d="M1030.78,-170.49C1053.64,-160.66 1091.49,-144.38 1117.76,-133.08"/>
<polygon fill="#63b8ff" stroke="#63b8ff" points="1119.4,-136.18 1127.2,-129.02 1116.63,-129.75 1119.4,-136.18"/>
</a>
</g>
</g>
</g>
</svg>

<g id="navigator" transform="translate(0 0)" fill="#404254">
  <rect fill="#f2f5e9" fill-opacity="0.5" stroke="#606060" stroke-width=".5" x="0" y="0" width="60" height="60"/>
  <use id="zoomplus" xlink:href="#zoomPlus" x="17" y="9" onmousedown="handleZoom(evt,'in')"/>
  <use id="zoomminus" xlink:href="#zoomMin" x="42" y="9" onmousedown="handleZoom(evt,'out')"/>
  <use id="reset" xlink:href="#resetDef" x="30" y="36" onmousedown="handleReset()"/>
   <use id="arrowup" xlink:href="#arrowUp" x="0" y="0" onmousedown="handlePan(0,-1)"/>
  <use id="arrowright" xlink:href="#arrowRight" x="0" y="0" onmousedown="handlePan(1,0)"/>
  <use id="arrowdown" xlink:href="#arrowDown" x="0" y="0" onmousedown="handlePan(0,1)"/>
  <use id="arrowleft" xlink:href="#arrowLeft" x="0" y="0" onmousedown="handlePan(-1,0)"/>
</g>
<svg viewBox="0 0 15 15" width="100%" height="30px" preserveAspectRatio="xMaxYMin meet">
 <g id="arrow_out" transform="scale(0.3 0.3)">
  <a xlink:href="_utilities_actuator_8h__incl_org.svg" target="_base">
   <rect id="button" ry="5" rx="5" y="6" x="6" height="38" width="38"
        fill="#f2f5e9" fill-opacity="0.5" stroke="#606060" stroke-width="1.0"/>
   <path id="arrow"
     d="M 11.500037,31.436501 C 11.940474,20.09759 22.043105,11.32322 32.158766,21.979434 L 37.068811,17.246167 C 37.068811,17.246167 37.088388,32 37.088388,32 L 22.160133,31.978069 C 22.160133,31.978069 26.997745,27.140456 26.997745,27.140456 C 18.528582,18.264221 13.291696,25.230495 11.500037,31.436501 z"
     style="fill:#404040;"/>
  </a>
 </g>
</svg>

<style type='text/css'>
<![CDATA[
[data-mouse-over-selected='false'] { opacity: 0.7; }
[data-mouse-over-selected='true']  { opacity: 1.0; }
]]>
</style>
<script type="application/ecmascript"><![CDATA[
document.addEventListener('DOMContentLoaded', (event) => {
  highlightEdges();
  highlightAdjacentNodes();
});
]]></script>
</svg>
