<?xml version="1.0" encoding="UTF-8" standalone="no"?>
<!DOCTYPE svg PUBLIC "-//W3C//DTD SVG 1.1//EN"
 "http://www.w3.org/Graphics/SVG/1.1/DTD/svg11.dtd">
<!-- Generated by graphviz version 2.43.0 (0)
 -->
<!-- Title: VariableDensityNonIsoEnthalpySrcNodeSuppAlg.h Pages: 1 -->
<svg width="346pt" height="106pt"
 viewBox="0.00 0.00 345.50 106.00" xmlns="http://www.w3.org/2000/svg" xmlns:xlink="http://www.w3.org/1999/xlink">
<g id="graph0" class="graph" transform="scale(1 1) rotate(0) translate(4 102)">
<title>VariableDensityNonIsoEnthalpySrcNodeSuppAlg.h</title>
<polygon fill="white" stroke="transparent" points="-4,4 -4,-102 341.5,-102 341.5,4 -4,4"/>
<!-- Node1 -->
<g id="node1" class="node">
<title>Node1</title>
<g id="a_node1"><a xlink:title=" ">
<polygon fill="#bfbfbf" stroke="black" points="78.5,-67.5 78.5,-97.5 248.5,-97.5 248.5,-67.5 78.5,-67.5"/>
<text text-anchor="start" x="86.5" y="-85.5" font-family="Helvetica,sans-Serif" font-size="10.00">VariableDensityNonIsoEnthalpy</text>
<text text-anchor="middle" x="163.5" y="-74.5" font-family="Helvetica,sans-Serif" font-size="10.00">SrcNodeSuppAlg.h</text>
</a>
</g>
</g>
<!-- Node2 -->
<g id="node2" class="node">
<title>Node2</title>
<g id="a_node2"><a xlink:href="_enthalpy_equation_system_8_c.html" target="_top" xlink:title=" ">
<polygon fill="white" stroke="black" points="0,-6 0,-25 149,-25 149,-6 0,-6"/>
<text text-anchor="middle" x="74.5" y="-13" font-family="Helvetica,sans-Serif" font-size="10.00">EnthalpyEquationSystem.C</text>
</a>
</g>
</g>
<!-- Node1&#45;&gt;Node2 -->
<g id="edge1" class="edge">
<title>Node1&#45;&gt;Node2</title>
<path fill="none" stroke="midnightblue" d="M135.85,-61.31C119.14,-49.1 98.7,-34.18 86.15,-25.01"/>
<polygon fill="midnightblue" stroke="midnightblue" points="134.05,-64.32 144.19,-67.4 138.18,-58.67 134.05,-64.32"/>
</g>
<!-- Node3 -->
<g id="node3" class="node">
<title>Node3</title>
<g id="a_node3"><a xlink:href="_variable_density_non_iso_enthalpy_src_node_supp_alg_8_c.html" target="_top" xlink:title=" ">
<polygon fill="white" stroke="black" points="167.5,-0.5 167.5,-30.5 337.5,-30.5 337.5,-0.5 167.5,-0.5"/>
<text text-anchor="start" x="175.5" y="-18.5" font-family="Helvetica,sans-Serif" font-size="10.00">VariableDensityNonIsoEnthalpy</text>
<text text-anchor="middle" x="252.5" y="-7.5" font-family="Helvetica,sans-Serif" font-size="10.00">SrcNodeSuppAlg.C</text>
</a>
</g>
</g>
<!-- Node1&#45;&gt;Node3 -->
<g id="edge2" class="edge">
<title>Node1&#45;&gt;Node3</title>
<path fill="none" stroke="midnightblue" d="M190.95,-61.45C204.64,-51.45 220.87,-39.6 233.23,-30.58"/>
<polygon fill="midnightblue" stroke="midnightblue" points="188.82,-58.67 182.81,-67.4 192.95,-64.32 188.82,-58.67"/>
</g>
</g>
</svg>
