<?xml version="1.0" encoding="UTF-8" standalone="no"?>
<!DOCTYPE svg PUBLIC "-//W3C//DTD SVG 1.1//EN"
 "http://www.w3.org/Graphics/SVG/1.1/DTD/svg11.dtd">
<!-- Generated by graphviz version 2.43.0 (0)
 -->
<!-- Title: VariableDensityMomentumSrcNodeSuppAlg.h Pages: 1 -->
<svg width="344pt" height="104pt"
 viewBox="0.00 0.00 343.50 104.00" xmlns="http://www.w3.org/2000/svg" xmlns:xlink="http://www.w3.org/1999/xlink">
<g id="graph0" class="graph" transform="scale(1 1) rotate(0) translate(4 100)">
<title>VariableDensityMomentumSrcNodeSuppAlg.h</title>
<!-- Node1 -->
<g id="Node000001" class="node">
<title>Node1</title>
<g id="a_Node000001"><a xlink:title=" ">
<polygon fill="#999999" stroke="#666666" points="246.5,-96 81.5,-96 81.5,-66 246.5,-66 246.5,-96"/>
<text text-anchor="start" x="89.5" y="-84" font-family="Helvetica,sans-Serif" font-size="10.00">VariableDensityMomentumSrc</text>
<text text-anchor="middle" x="164" y="-73" font-family="Helvetica,sans-Serif" font-size="10.00">NodeSuppAlg.h</text>
</a>
</g>
</g>
<!-- Node2 -->
<g id="Node000002" class="node">
<title>Node2</title>
<g id="a_Node000002"><a xlink:href="_low_mach_equation_system_8_c.html" target="_top" xlink:title=" ">
<polygon fill="white" stroke="#666666" points="152,-24.5 0,-24.5 0,-5.5 152,-5.5 152,-24.5"/>
<text text-anchor="middle" x="76" y="-12.5" font-family="Helvetica,sans-Serif" font-size="10.00">LowMachEquationSystem.C</text>
</a>
</g>
</g>
<!-- Node1&#45;&gt;Node2 -->
<g id="edge1_Node000001_Node000002" class="edge">
<title>Node1&#45;&gt;Node2</title>
<g id="a_edge1_Node000001_Node000002"><a xlink:title=" ">
<path fill="none" stroke="#63b8ff" d="M136.33,-59.87C120.04,-48.03 100.27,-33.65 87.91,-24.66"/>
<polygon fill="#63b8ff" stroke="#63b8ff" points="134.32,-62.75 144.47,-65.8 138.44,-57.08 134.32,-62.75"/>
</a>
</g>
</g>
<!-- Node3 -->
<g id="Node000003" class="node">
<title>Node3</title>
<g id="a_Node000003"><a xlink:href="_variable_density_momentum_src_node_supp_alg_8_c.html" target="_top" xlink:title=" ">
<polygon fill="white" stroke="#666666" points="335.5,-30 170.5,-30 170.5,0 335.5,0 335.5,-30"/>
<text text-anchor="start" x="178.5" y="-18" font-family="Helvetica,sans-Serif" font-size="10.00">VariableDensityMomentumSrc</text>
<text text-anchor="middle" x="253" y="-7" font-family="Helvetica,sans-Serif" font-size="10.00">NodeSuppAlg.C</text>
</a>
</g>
</g>
<!-- Node1&#45;&gt;Node3 -->
<g id="edge2_Node000001_Node000003" class="edge">
<title>Node1&#45;&gt;Node3</title>
<g id="a_edge2_Node000001_Node000003"><a xlink:title=" ">
<path fill="none" stroke="#63b8ff" d="M192.16,-59.75C205.54,-50.13 221.22,-38.86 233.3,-30.16"/>
<polygon fill="#63b8ff" stroke="#63b8ff" points="189.83,-57.12 183.75,-65.8 193.91,-62.8 189.83,-57.12"/>
</a>
</g>
</g>
</g>
</svg>
