<?xml version="1.0" encoding="UTF-8" standalone="no"?>
<!DOCTYPE svg PUBLIC "-//W3C//DTD SVG 1.1//EN"
 "http://www.w3.org/Graphics/SVG/1.1/DTD/svg11.dtd">
<!-- Generated by graphviz version 2.43.0 (0)
 -->
<!-- Title: WallFuncGeometryAlg.h Pages: 1 -->
<svg width="884pt" height="93pt"
 viewBox="0.00 0.00 884.00 93.00" xmlns="http://www.w3.org/2000/svg" xmlns:xlink="http://www.w3.org/1999/xlink">
<g id="graph0" class="graph" transform="scale(1 1) rotate(0) translate(4 89)">
<title>WallFuncGeometryAlg.h</title>
<!-- Node1 -->
<g id="Node000001" class="node">
<title>Node1</title>
<g id="a_Node000001"><a xlink:title=" ">
<polygon fill="#999999" stroke="#666666" points="512,-85 378,-85 378,-66 512,-66 512,-85"/>
<text text-anchor="middle" x="445" y="-73" font-family="Helvetica,sans-Serif" font-size="10.00">WallFuncGeometryAlg.h</text>
</a>
</g>
</g>
<!-- Node2 -->
<g id="Node000002" class="node">
<title>Node2</title>
<g id="a_Node000002"><a xlink:href="_chien_k_epsilon_equation_system_8_c.html" target="_top" xlink:title=" ">
<polygon fill="white" stroke="#666666" points="176,-24.5 0,-24.5 0,-5.5 176,-5.5 176,-24.5"/>
<text text-anchor="middle" x="88" y="-12.5" font-family="Helvetica,sans-Serif" font-size="10.00">ChienKEpsilonEquationSystem.C</text>
</a>
</g>
</g>
<!-- Node1&#45;&gt;Node2 -->
<g id="edge1_Node000001_Node000002" class="edge">
<title>Node1&#45;&gt;Node2</title>
<g id="a_edge1_Node000001_Node000002"><a xlink:title=" ">
<path fill="none" stroke="#63b8ff" d="M382.83,-64.31C314.03,-53.04 204.38,-35.07 139.97,-24.52"/>
<polygon fill="#63b8ff" stroke="#63b8ff" points="382.65,-67.83 393.09,-65.99 383.79,-60.92 382.65,-67.83"/>
</a>
</g>
</g>
<!-- Node3 -->
<g id="Node000003" class="node">
<title>Node3</title>
<g id="a_Node000003"><a xlink:href="_low_mach_equation_system_8_c.html" target="_top" xlink:title=" ">
<polygon fill="white" stroke="#666666" points="346,-24.5 194,-24.5 194,-5.5 346,-5.5 346,-24.5"/>
<text text-anchor="middle" x="270" y="-12.5" font-family="Helvetica,sans-Serif" font-size="10.00">LowMachEquationSystem.C</text>
</a>
</g>
</g>
<!-- Node1&#45;&gt;Node3 -->
<g id="edge2_Node000001_Node000003" class="edge">
<title>Node1&#45;&gt;Node3</title>
<g id="a_edge2_Node000001_Node000003"><a xlink:title=" ">
<path fill="none" stroke="#63b8ff" d="M410.05,-62.82C376.2,-51.5 325.69,-34.62 295.48,-24.52"/>
<polygon fill="#63b8ff" stroke="#63b8ff" points="408.96,-66.14 419.55,-65.99 411.18,-59.5 408.96,-66.14"/>
</a>
</g>
</g>
<!-- Node4 -->
<g id="Node000004" class="node">
<title>Node4</title>
<g id="a_Node000004"><a xlink:href="_shear_stress_transport_equation_system_8_c.html" target="_top" xlink:title=" ">
<polygon fill="white" stroke="#666666" points="526,-30 364,-30 364,0 526,0 526,-30"/>
<text text-anchor="start" x="372" y="-18" font-family="Helvetica,sans-Serif" font-size="10.00">ShearStressTransportEquation</text>
<text text-anchor="middle" x="445" y="-7" font-family="Helvetica,sans-Serif" font-size="10.00">System.C</text>
</a>
</g>
</g>
<!-- Node1&#45;&gt;Node4 -->
<g id="edge3_Node000001_Node000004" class="edge">
<title>Node1&#45;&gt;Node4</title>
<g id="a_edge3_Node000001_Node000004"><a xlink:title=" ">
<path fill="none" stroke="#63b8ff" d="M445,-55.65C445,-47.36 445,-37.78 445,-30.11"/>
<polygon fill="#63b8ff" stroke="#63b8ff" points="441.5,-55.87 445,-65.87 448.5,-55.87 441.5,-55.87"/>
</a>
</g>
</g>
<!-- Node5 -->
<g id="Node000005" class="node">
<title>Node5</title>
<g id="a_Node000005"><a xlink:href="_wall_func_geometry_alg_8_c.html" target="_top" xlink:title=" ">
<polygon fill="white" stroke="#666666" points="678,-24.5 544,-24.5 544,-5.5 678,-5.5 678,-24.5"/>
<text text-anchor="middle" x="611" y="-12.5" font-family="Helvetica,sans-Serif" font-size="10.00">WallFuncGeometryAlg.C</text>
</a>
</g>
</g>
<!-- Node1&#45;&gt;Node5 -->
<g id="edge4_Node000001_Node000005" class="edge">
<title>Node1&#45;&gt;Node5</title>
<g id="a_edge4_Node000001_Node000005"><a xlink:title=" ">
<path fill="none" stroke="#63b8ff" d="M478.98,-62.52C511.08,-51.21 558.42,-34.53 586.83,-24.52"/>
<polygon fill="#63b8ff" stroke="#63b8ff" points="477.41,-59.37 469.14,-65.99 479.73,-65.97 477.41,-59.37"/>
</a>
</g>
</g>
<!-- Node6 -->
<g id="Node000006" class="node">
<title>Node6</title>
<g id="a_Node000006"><a xlink:href="_wilcox_k_omega_equation_system_8_c.html" target="_top" xlink:title=" ">
<polygon fill="white" stroke="#666666" points="876,-24.5 696,-24.5 696,-5.5 876,-5.5 876,-24.5"/>
<text text-anchor="middle" x="786" y="-12.5" font-family="Helvetica,sans-Serif" font-size="10.00">WilcoxKOmegaEquationSystem.C</text>
</a>
</g>
</g>
<!-- Node1&#45;&gt;Node6 -->
<g id="edge5_Node000001_Node000006" class="edge">
<title>Node1&#45;&gt;Node6</title>
<g id="a_edge5_Node000001_Node000006"><a xlink:title=" ">
<path fill="none" stroke="#63b8ff" d="M504.79,-64.24C570.53,-52.96 674.96,-35.05 736.36,-24.52"/>
<polygon fill="#63b8ff" stroke="#63b8ff" points="503.85,-60.85 494.58,-65.99 505.03,-67.75 503.85,-60.85"/>
</a>
</g>
</g>
</g>
</svg>
