<?xml version="1.0" encoding="UTF-8" standalone="no"?>
<!DOCTYPE svg PUBLIC "-//W3C//DTD SVG 1.1//EN"
 "http://www.w3.org/Graphics/SVG/1.1/DTD/svg11.dtd">
<!-- Generated by graphviz version 2.43.0 (0)
 -->
<!-- Title: WienerMilenkovic.h Pages: 1 -->
<svg width="478pt" height="302pt"
 viewBox="0.00 0.00 477.69 302.00" xmlns="http://www.w3.org/2000/svg" xmlns:xlink="http://www.w3.org/1999/xlink">
<g id="graph0" class="graph" transform="scale(1 1) rotate(0) translate(4 298)">
<title>WienerMilenkovic.h</title>
<!-- Node1 -->
<g id="Node000001" class="node">
<title>Node1</title>
<g id="a_Node000001"><a xlink:title=" ">
<polygon fill="#999999" stroke="#666666" points="200,-294 87,-294 87,-275 200,-275 200,-294"/>
<text text-anchor="middle" x="143.5" y="-282" font-family="Helvetica,sans-Serif" font-size="10.00">WienerMilenkovic.h</text>
</a>
</g>
</g>
<!-- Node2 -->
<g id="Node000002" class="node">
<title>Node2</title>
<g id="a_Node000002"><a xlink:href="vector_8h.html" target="_top" xlink:title=" ">
<polygon fill="white" stroke="#666666" points="220.5,-129 150.5,-129 150.5,-110 220.5,-110 220.5,-129"/>
<text text-anchor="middle" x="185.5" y="-117" font-family="Helvetica,sans-Serif" font-size="10.00">vs/vector.h</text>
</a>
</g>
</g>
<!-- Node1&#45;&gt;Node2 -->
<g id="edge1_Node000001_Node000002" class="edge">
<title>Node1&#45;&gt;Node2</title>
<g id="a_edge1_Node000001_Node000002"><a xlink:title=" ">
<path fill="none" stroke="#63b8ff" d="M136.74,-274.98C127.99,-262.89 114.55,-240 120.5,-220 130.25,-187.24 154.59,-155.22 170.56,-136.7"/>
<polygon fill="#63b8ff" stroke="#63b8ff" points="173.21,-138.98 177.23,-129.18 167.98,-134.34 173.21,-138.98"/>
</a>
</g>
</g>
<!-- Node9 -->
<g id="Node000009" class="node">
<title>Node9</title>
<g id="a_Node000009"><a xlink:title=" ">
<polygon fill="#e0e0e0" stroke="#999999" points="127,-19 0,-19 0,0 127,0 127,-19"/>
<text text-anchor="middle" x="63.5" y="-7" font-family="Helvetica,sans-Serif" font-size="10.00">stk_math/StkMath.hpp</text>
</a>
</g>
</g>
<!-- Node1&#45;&gt;Node9 -->
<g id="edge11_Node000001_Node000009" class="edge">
<title>Node1&#45;&gt;Node9</title>
<g id="a_edge11_Node000001_Node000009"><a xlink:title=" ">
<path fill="none" stroke="#63b8ff" d="M130.65,-274.77C108.03,-258.25 63.5,-220.07 63.5,-175.5 63.5,-175.5 63.5,-175.5 63.5,-118.5 63.5,-87.19 63.5,-50.77 63.5,-29.23"/>
<polygon fill="#63b8ff" stroke="#63b8ff" points="67,-29.18 63.5,-19.18 60,-29.18 67,-29.18"/>
</a>
</g>
</g>
<!-- Node10 -->
<g id="Node000010" class="node">
<title>Node10</title>
<g id="a_Node000010"><a xlink:title=" ">
<polygon fill="#e0e0e0" stroke="#999999" points="243,-239 130,-239 130,-220 243,-220 243,-239"/>
<text text-anchor="middle" x="186.5" y="-227" font-family="Helvetica,sans-Serif" font-size="10.00">Kokkos_Macros.hpp</text>
</a>
</g>
</g>
<!-- Node1&#45;&gt;Node10 -->
<g id="edge10_Node000001_Node000010" class="edge">
<title>Node1&#45;&gt;Node10</title>
<g id="a_edge10_Node000001_Node000010"><a xlink:title=" ">
<path fill="none" stroke="#63b8ff" d="M150.6,-274.75C156.67,-267.26 165.59,-256.28 173.01,-247.13"/>
<polygon fill="#63b8ff" stroke="#63b8ff" points="175.95,-249.06 179.53,-239.09 170.51,-244.65 175.95,-249.06"/>
</a>
</g>
</g>
<!-- Node11 -->
<g id="Node000011" class="node">
<title>Node11</title>
<g id="a_Node000011"><a xlink:href="vector__space_8h.html" target="_top" xlink:title=" ">
<polygon fill="white" stroke="#666666" points="365.5,-239 261.5,-239 261.5,-220 365.5,-220 365.5,-239"/>
<text text-anchor="middle" x="313.5" y="-227" font-family="Helvetica,sans-Serif" font-size="10.00">vs/vector_space.h</text>
</a>
</g>
</g>
<!-- Node1&#45;&gt;Node11 -->
<g id="edge12_Node000001_Node000011" class="edge">
<title>Node1&#45;&gt;Node11</title>
<g id="a_edge12_Node000001_Node000011"><a xlink:title=" ">
<path fill="none" stroke="#63b8ff" d="M170.81,-274.98C199.35,-266.09 244.33,-252.07 276.14,-242.15"/>
<polygon fill="#63b8ff" stroke="#63b8ff" points="277.47,-245.4 285.97,-239.08 275.38,-238.72 277.47,-245.4"/>
</a>
</g>
</g>
<!-- Node3 -->
<g id="Node000003" class="node">
<title>Node3</title>
<g id="a_Node000003"><a xlink:title=" ">
<polygon fill="#e0e0e0" stroke="#999999" points="467.5,-19 367.5,-19 367.5,0 467.5,0 467.5,-19"/>
<text text-anchor="middle" x="417.5" y="-7" font-family="Helvetica,sans-Serif" font-size="10.00">Kokkos_Core.hpp</text>
</a>
</g>
</g>
<!-- Node2&#45;&gt;Node3 -->
<g id="edge2_Node000002_Node000003" class="edge">
<title>Node2&#45;&gt;Node3</title>
<g id="a_edge2_Node000002_Node000003"><a xlink:title=" ">
<path fill="none" stroke="#63b8ff" d="M207.43,-109.94C229.21,-101.32 263.45,-87.4 292.5,-74 327.62,-57.8 367.31,-37.25 392.35,-23.98"/>
<polygon fill="#63b8ff" stroke="#63b8ff" points="394.32,-26.9 401.51,-19.12 391.04,-20.72 394.32,-26.9"/>
</a>
</g>
</g>
<!-- Node4 -->
<g id="Node000004" class="node">
<title>Node4</title>
<g id="a_Node000004"><a xlink:href="vstraits_8h.html" target="_top" xlink:title=" ">
<polygon fill="white" stroke="#666666" points="283,-74 206,-74 206,-55 283,-55 283,-74"/>
<text text-anchor="middle" x="244.5" y="-62" font-family="Helvetica,sans-Serif" font-size="10.00">vs/vstraits.h</text>
</a>
</g>
</g>
<!-- Node2&#45;&gt;Node4 -->
<g id="edge3_Node000002_Node000004" class="edge">
<title>Node2&#45;&gt;Node4</title>
<g id="a_edge3_Node000002_Node000004"><a xlink:title=" ">
<path fill="none" stroke="#63b8ff" d="M194.98,-109.98C203.7,-102.15 216.84,-90.34 227.4,-80.86"/>
<polygon fill="#63b8ff" stroke="#63b8ff" points="229.75,-83.46 234.85,-74.17 225.07,-78.25 229.75,-83.46"/>
</a>
</g>
</g>
<!-- Node6 -->
<g id="Node000006" class="node">
<title>Node6</title>
<g id="a_Node000006"><a xlink:href="vector_i_8h.html" target="_top" xlink:title=" ">
<polygon fill="white" stroke="#666666" points="187.5,-74 113.5,-74 113.5,-55 187.5,-55 187.5,-74"/>
<text text-anchor="middle" x="150.5" y="-62" font-family="Helvetica,sans-Serif" font-size="10.00">vs/vectorI.h</text>
</a>
</g>
</g>
<!-- Node2&#45;&gt;Node6 -->
<g id="edge5_Node000002_Node000006" class="edge">
<title>Node2&#45;&gt;Node6</title>
<g id="a_edge5_Node000002_Node000006"><a xlink:title=" ">
<path fill="none" stroke="#63b8ff" d="M174.55,-109.75C168.2,-102.49 160.84,-91.95 155.65,-82.98"/>
<polygon fill="#63b8ff" stroke="#63b8ff" points="158.75,-81.35 151.04,-74.09 152.54,-84.58 158.75,-81.35"/>
</a>
</g>
</g>
<!-- Node5 -->
<g id="Node000005" class="node">
<title>Node5</title>
<g id="a_Node000005"><a xlink:title=" ">
<polygon fill="#e0e0e0" stroke="#999999" points="266.5,-19 222.5,-19 222.5,0 266.5,0 266.5,-19"/>
<text text-anchor="middle" x="244.5" y="-7" font-family="Helvetica,sans-Serif" font-size="10.00">limits</text>
</a>
</g>
</g>
<!-- Node4&#45;&gt;Node5 -->
<g id="edge4_Node000004_Node000005" class="edge">
<title>Node4&#45;&gt;Node5</title>
<g id="a_edge4_Node000004_Node000005"><a xlink:title=" ">
<path fill="none" stroke="#63b8ff" d="M244.5,-54.75C244.5,-47.8 244.5,-37.85 244.5,-29.13"/>
<polygon fill="#63b8ff" stroke="#63b8ff" points="248,-29.09 244.5,-19.09 241,-29.09 248,-29.09"/>
</a>
</g>
</g>
<!-- Node6&#45;&gt;Node2 -->
<g id="edge9_Node000006_Node000002" class="edge">
<title>Node6&#45;&gt;Node2</title>
<g id="a_edge9_Node000006_Node000002"><a xlink:title=" ">
<path fill="none" stroke="#63b8ff" d="M161.3,-74.09C167.64,-81.29 175.01,-91.82 180.23,-100.82"/>
<polygon fill="#63b8ff" stroke="#63b8ff" points="177.16,-102.5 184.89,-109.75 183.37,-99.26 177.16,-102.5"/>
</a>
</g>
</g>
<!-- Node7 -->
<g id="Node000007" class="node">
<title>Node7</title>
<g id="a_Node000007"><a xlink:title=" ">
<polygon fill="#e0e0e0" stroke="#999999" points="202,-19 145,-19 145,0 202,0 202,-19"/>
<text text-anchor="middle" x="173.5" y="-7" font-family="Helvetica,sans-Serif" font-size="10.00">ostream</text>
</a>
</g>
</g>
<!-- Node6&#45;&gt;Node7 -->
<g id="edge6_Node000006_Node000007" class="edge">
<title>Node6&#45;&gt;Node7</title>
<g id="a_edge6_Node000006_Node000007"><a xlink:title=" ">
<path fill="none" stroke="#63b8ff" d="M154.3,-54.75C157.41,-47.57 161.92,-37.18 165.79,-28.27"/>
<polygon fill="#63b8ff" stroke="#63b8ff" points="169,-29.66 169.77,-19.09 162.58,-26.87 169,-29.66"/>
</a>
</g>
</g>
<!-- Node8 -->
<g id="Node000008" class="node">
<title>Node8</title>
<g id="a_Node000008"><a xlink:title=" ">
<polygon fill="#e0e0e0" stroke="#999999" points="335,-19 288,-19 288,0 335,0 335,-19"/>
<text text-anchor="middle" x="311.5" y="-7" font-family="Helvetica,sans-Serif" font-size="10.00">cmath</text>
</a>
</g>
</g>
<!-- Node6&#45;&gt;Node8 -->
<g id="edge7_Node000006_Node000008" class="edge">
<title>Node6&#45;&gt;Node8</title>
<g id="a_edge7_Node000006_Node000008"><a xlink:title=" ">
<path fill="none" stroke="#63b8ff" d="M176.37,-54.98C204,-45.89 247.89,-31.44 278.11,-21.49"/>
<polygon fill="#63b8ff" stroke="#63b8ff" points="279.39,-24.75 287.8,-18.3 277.2,-18.11 279.39,-24.75"/>
</a>
</g>
</g>
<!-- Node6&#45;&gt;Node9 -->
<g id="edge8_Node000006_Node000009" class="edge">
<title>Node6&#45;&gt;Node9</title>
<g id="a_edge8_Node000006_Node000009"><a xlink:title=" ">
<path fill="none" stroke="#63b8ff" d="M136.52,-54.98C123.03,-46.77 102.37,-34.18 86.46,-24.49"/>
<polygon fill="#63b8ff" stroke="#63b8ff" points="88.09,-21.38 77.73,-19.17 84.45,-27.36 88.09,-21.38"/>
</a>
</g>
</g>
<!-- Node11&#45;&gt;Node2 -->
<g id="edge13_Node000011_Node000002" class="edge">
<title>Node11&#45;&gt;Node2</title>
<g id="a_edge13_Node000011_Node000002"><a xlink:title=" ">
<path fill="none" stroke="#63b8ff" d="M303.03,-219.66C281.26,-201.3 230.91,-158.81 203.71,-135.87"/>
<polygon fill="#63b8ff" stroke="#63b8ff" points="205.66,-132.93 195.76,-129.16 201.15,-138.28 205.66,-132.93"/>
</a>
</g>
</g>
<!-- Node12 -->
<g id="Node000012" class="node">
<title>Node12</title>
<g id="a_Node000012"><a xlink:href="tensor_8h.html" target="_top" xlink:title=" ">
<polygon fill="white" stroke="#666666" points="348.5,-184 278.5,-184 278.5,-165 348.5,-165 348.5,-184"/>
<text text-anchor="middle" x="313.5" y="-172" font-family="Helvetica,sans-Serif" font-size="10.00">vs/tensor.h</text>
</a>
</g>
</g>
<!-- Node11&#45;&gt;Node12 -->
<g id="edge14_Node000011_Node000012" class="edge">
<title>Node11&#45;&gt;Node12</title>
<g id="a_edge14_Node000011_Node000012"><a xlink:title=" ">
<path fill="none" stroke="#63b8ff" d="M313.5,-219.75C313.5,-212.8 313.5,-202.85 313.5,-194.13"/>
<polygon fill="#63b8ff" stroke="#63b8ff" points="317,-194.09 313.5,-184.09 310,-194.09 317,-194.09"/>
</a>
</g>
</g>
<!-- Node12&#45;&gt;Node2 -->
<g id="edge17_Node000012_Node000002" class="edge">
<title>Node12&#45;&gt;Node2</title>
<g id="a_edge17_Node000012_Node000002"><a xlink:title=" ">
<path fill="none" stroke="#63b8ff" d="M292.93,-164.98C272.07,-156.34 239.53,-142.87 215.73,-133.02"/>
<polygon fill="#63b8ff" stroke="#63b8ff" points="217.02,-129.76 206.44,-129.17 214.34,-136.23 217.02,-129.76"/>
</a>
</g>
</g>
<!-- Node12&#45;&gt;Node3 -->
<g id="edge15_Node000012_Node000003" class="edge">
<title>Node12&#45;&gt;Node3</title>
<g id="a_edge15_Node000012_Node000003"><a xlink:title=" ">
<path fill="none" stroke="#63b8ff" d="M340.89,-164.89C377.21,-151.83 439.83,-123.16 466.5,-74 476.4,-55.76 458.17,-37.24 441.2,-24.94"/>
<polygon fill="#63b8ff" stroke="#63b8ff" points="442.84,-21.83 432.6,-19.12 438.92,-27.62 442.84,-21.83"/>
</a>
</g>
</g>
<!-- Node12&#45;&gt;Node4 -->
<g id="edge16_Node000012_Node000004" class="edge">
<title>Node12&#45;&gt;Node4</title>
<g id="a_edge16_Node000012_Node000004"><a xlink:title=" ">
<path fill="none" stroke="#63b8ff" d="M301.84,-164.78C291.56,-156.55 276.8,-143.36 267.5,-129 258.54,-115.16 252.48,-97.36 248.84,-84.13"/>
<polygon fill="#63b8ff" stroke="#63b8ff" points="252.19,-83.12 246.34,-74.28 245.41,-84.84 252.19,-83.12"/>
</a>
</g>
</g>
<!-- Node13 -->
<g id="Node000013" class="node">
<title>Node13</title>
<g id="a_Node000013"><a xlink:href="tensor_i_8h.html" target="_top" xlink:title=" ">
<polygon fill="white" stroke="#666666" points="350.5,-129 276.5,-129 276.5,-110 350.5,-110 350.5,-129"/>
<text text-anchor="middle" x="313.5" y="-117" font-family="Helvetica,sans-Serif" font-size="10.00">vs/tensorI.h</text>
</a>
</g>
</g>
<!-- Node12&#45;&gt;Node13 -->
<g id="edge18_Node000012_Node000013" class="edge">
<title>Node12&#45;&gt;Node13</title>
<g id="a_edge18_Node000012_Node000013"><a xlink:title=" ">
<path fill="none" stroke="#63b8ff" d="M308.33,-164.75C306.84,-157.8 306.4,-147.85 307.02,-139.13"/>
<polygon fill="#63b8ff" stroke="#63b8ff" points="310.51,-139.47 308.37,-129.09 303.57,-138.53 310.51,-139.47"/>
</a>
</g>
</g>
<!-- Node13&#45;&gt;Node8 -->
<g id="edge19_Node000013_Node000008" class="edge">
<title>Node13&#45;&gt;Node8</title>
<g id="a_edge19_Node000013_Node000008"><a xlink:title=" ">
<path fill="none" stroke="#63b8ff" d="M313.34,-109.66C313.01,-92.17 312.28,-52.8 311.85,-29.27"/>
<polygon fill="#63b8ff" stroke="#63b8ff" points="315.34,-29.09 311.66,-19.16 308.35,-29.22 315.34,-29.09"/>
</a>
</g>
</g>
<!-- Node13&#45;&gt;Node12 -->
<g id="edge20_Node000013_Node000012" class="edge">
<title>Node13&#45;&gt;Node12</title>
<g id="a_edge20_Node000013_Node000012"><a xlink:title=" ">
<path fill="none" stroke="#63b8ff" d="M318.63,-129.09C320.14,-135.99 320.59,-145.93 319.99,-154.66"/>
<polygon fill="#63b8ff" stroke="#63b8ff" points="316.5,-154.38 318.67,-164.75 323.44,-155.29 316.5,-154.38"/>
</a>
</g>
</g>
<!-- Node14 -->
<g id="Node000014" class="node">
<title>Node14</title>
<g id="a_Node000014"><a xlink:href="trig__ops_8h.html" target="_top" xlink:title="Trigonometric utilities.">
<polygon fill="white" stroke="#666666" points="457,-74 378,-74 378,-55 457,-55 457,-74"/>
<text text-anchor="middle" x="417.5" y="-62" font-family="Helvetica,sans-Serif" font-size="10.00">vs/trig_ops.h</text>
</a>
</g>
</g>
<!-- Node13&#45;&gt;Node14 -->
<g id="edge21_Node000013_Node000014" class="edge">
<title>Node13&#45;&gt;Node14</title>
<g id="a_edge21_Node000013_Node000014"><a xlink:title=" ">
<path fill="none" stroke="#63b8ff" d="M330.21,-109.98C346.71,-101.57 372.2,-88.59 391.38,-78.81"/>
<polygon fill="#63b8ff" stroke="#63b8ff" points="393.17,-81.83 400.49,-74.17 389.99,-75.59 393.17,-81.83"/>
</a>
</g>
</g>
<!-- Node14&#45;&gt;Node3 -->
<g id="edge23_Node000014_Node000003" class="edge">
<title>Node14&#45;&gt;Node3</title>
<g id="a_edge23_Node000014_Node000003"><a xlink:title=" ">
<path fill="none" stroke="#63b8ff" d="M417.5,-54.75C417.5,-47.8 417.5,-37.85 417.5,-29.13"/>
<polygon fill="#63b8ff" stroke="#63b8ff" points="421,-29.09 417.5,-19.09 414,-29.09 421,-29.09"/>
</a>
</g>
</g>
<!-- Node14&#45;&gt;Node8 -->
<g id="edge22_Node000014_Node000008" class="edge">
<title>Node14&#45;&gt;Node8</title>
<g id="a_edge22_Node000014_Node000008"><a xlink:title=" ">
<path fill="none" stroke="#63b8ff" d="M400.47,-54.98C383.57,-46.54 357.44,-33.47 337.86,-23.68"/>
<polygon fill="#63b8ff" stroke="#63b8ff" points="339.35,-20.51 328.84,-19.17 336.22,-26.77 339.35,-20.51"/>
</a>
</g>
</g>
</g>
</svg>
