<?xml version="1.0" encoding="UTF-8" standalone="no"?>
<!DOCTYPE svg PUBLIC "-//W3C//DTD SVG 1.1//EN"
 "http://www.w3.org/Graphics/SVG/1.1/DTD/svg11.dtd">
<!-- Generated by graphviz version 2.43.0 (0)
 -->
<!-- Title: WindEnergyTaylorVortexPressureAuxFunction.C Pages: 1 -->
<svg width="548pt" height="162pt"
 viewBox="0.00 0.00 548.00 162.00" xmlns="http://www.w3.org/2000/svg" xmlns:xlink="http://www.w3.org/1999/xlink">
<g id="graph0" class="graph" transform="scale(1 1) rotate(0) translate(4 158)">
<title>WindEnergyTaylorVortexPressureAuxFunction.C</title>
<polygon fill="white" stroke="transparent" points="-4,4 -4,-158 544,-158 544,4 -4,4"/>
<!-- Node1 -->
<g id="node1" class="node">
<title>Node1</title>
<g id="a_node1"><a xlink:title=" ">
<polygon fill="#bfbfbf" stroke="black" points="225,-123.5 225,-153.5 403,-153.5 403,-123.5 225,-123.5"/>
<text text-anchor="start" x="233" y="-141.5" font-family="Helvetica,sans-Serif" font-size="10.00">WindEnergyTaylorVortexPressure</text>
<text text-anchor="middle" x="314" y="-130.5" font-family="Helvetica,sans-Serif" font-size="10.00">AuxFunction.C</text>
</a>
</g>
</g>
<!-- Node2 -->
<g id="node2" class="node">
<title>Node2</title>
<g id="a_node2"><a xlink:href="_wind_energy_taylor_vortex_pressure_aux_function_8h.html" target="_top" xlink:title=" ">
<polygon fill="white" stroke="black" points="0,-56.5 0,-86.5 188,-86.5 188,-56.5 0,-56.5"/>
<text text-anchor="start" x="8" y="-74.5" font-family="Helvetica,sans-Serif" font-size="10.00">user_functions/WindEnergy</text>
<text text-anchor="middle" x="94" y="-63.5" font-family="Helvetica,sans-Serif" font-size="10.00">TaylorVortexPressureAuxFunction.h</text>
</a>
</g>
</g>
<!-- Node1&#45;&gt;Node2 -->
<g id="edge1" class="edge">
<title>Node1&#45;&gt;Node2</title>
<path fill="none" stroke="midnightblue" d="M266.53,-123.48C232.82,-113.51 187.37,-100.09 151.58,-89.51"/>
<polygon fill="midnightblue" stroke="midnightblue" points="152.34,-86.09 141.76,-86.61 150.36,-92.8 152.34,-86.09"/>
</g>
<!-- Node4 -->
<g id="node4" class="node">
<title>Node4</title>
<g id="a_node4"><a xlink:title=" ">
<polygon fill="white" stroke="#bfbfbf" points="138.5,-0.5 138.5,-19.5 185.5,-19.5 185.5,-0.5 138.5,-0.5"/>
<text text-anchor="middle" x="162" y="-7.5" font-family="Helvetica,sans-Serif" font-size="10.00">vector</text>
</a>
</g>
</g>
<!-- Node1&#45;&gt;Node4 -->
<g id="edge9" class="edge">
<title>Node1&#45;&gt;Node4</title>
<path fill="none" stroke="midnightblue" d="M288.76,-123.45C272.72,-114.02 251.86,-100.84 235,-87 212.57,-68.59 189.91,-43.82 175.91,-27.63"/>
<polygon fill="midnightblue" stroke="midnightblue" points="178.24,-24.96 169.09,-19.62 172.91,-29.5 178.24,-24.96"/>
</g>
<!-- Node5 -->
<g id="node5" class="node">
<title>Node5</title>
<g id="a_node5"><a xlink:href="_nalu_env_8h.html" target="_top" xlink:title=" ">
<polygon fill="white" stroke="black" points="244.5,-62 244.5,-81 309.5,-81 309.5,-62 244.5,-62"/>
<text text-anchor="middle" x="277" y="-69" font-family="Helvetica,sans-Serif" font-size="10.00">NaluEnv.h</text>
</a>
</g>
</g>
<!-- Node1&#45;&gt;Node5 -->
<g id="edge4" class="edge">
<title>Node1&#45;&gt;Node5</title>
<path fill="none" stroke="midnightblue" d="M305.97,-123.4C300.37,-113.56 292.87,-100.38 286.9,-89.89"/>
<polygon fill="midnightblue" stroke="midnightblue" points="289.94,-88.15 281.95,-81.19 283.85,-91.62 289.94,-88.15"/>
</g>
<!-- Node9 -->
<g id="node9" class="node">
<title>Node9</title>
<g id="a_node9"><a xlink:title=" ">
<polygon fill="white" stroke="#bfbfbf" points="327.5,-62 327.5,-81 374.5,-81 374.5,-62 327.5,-62"/>
<text text-anchor="middle" x="351" y="-69" font-family="Helvetica,sans-Serif" font-size="10.00">cmath</text>
</a>
</g>
</g>
<!-- Node1&#45;&gt;Node9 -->
<g id="edge8" class="edge">
<title>Node1&#45;&gt;Node9</title>
<path fill="none" stroke="midnightblue" d="M322.03,-123.4C327.63,-113.56 335.13,-100.38 341.1,-89.89"/>
<polygon fill="midnightblue" stroke="midnightblue" points="344.15,-91.62 346.05,-81.19 338.06,-88.15 344.15,-91.62"/>
</g>
<!-- Node10 -->
<g id="node10" class="node">
<title>Node10</title>
<g id="a_node10"><a xlink:title=" ">
<polygon fill="white" stroke="#bfbfbf" points="392.5,-62 392.5,-81 457.5,-81 457.5,-62 392.5,-62"/>
<text text-anchor="middle" x="425" y="-69" font-family="Helvetica,sans-Serif" font-size="10.00">stdexcept</text>
</a>
</g>
</g>
<!-- Node1&#45;&gt;Node10 -->
<g id="edge10" class="edge">
<title>Node1&#45;&gt;Node10</title>
<path fill="none" stroke="midnightblue" d="M338.09,-123.4C356.96,-112.34 383.06,-97.06 401.72,-86.13"/>
<polygon fill="midnightblue" stroke="midnightblue" points="403.61,-89.08 410.47,-81.01 400.07,-83.04 403.61,-89.08"/>
</g>
<!-- Node11 -->
<g id="node11" class="node">
<title>Node11</title>
<g id="a_node11"><a xlink:title=" ">
<polygon fill="white" stroke="#bfbfbf" points="476,-62 476,-81 540,-81 540,-62 476,-62"/>
<text text-anchor="middle" x="508" y="-69" font-family="Helvetica,sans-Serif" font-size="10.00">algorithm</text>
</a>
</g>
</g>
<!-- Node1&#45;&gt;Node11 -->
<g id="edge11" class="edge">
<title>Node1&#45;&gt;Node11</title>
<path fill="none" stroke="midnightblue" d="M357.28,-123.49C387.96,-113.48 430.08,-99.62 467,-87 469.44,-86.17 471.95,-85.3 474.49,-84.42"/>
<polygon fill="midnightblue" stroke="midnightblue" points="475.9,-87.63 484.18,-81.02 473.59,-81.02 475.9,-87.63"/>
</g>
<!-- Node3 -->
<g id="node3" class="node">
<title>Node3</title>
<g id="a_node3"><a xlink:href="_aux_function_8h.html" target="_top" xlink:title=" ">
<polygon fill="white" stroke="black" points="34,-0.5 34,-19.5 120,-19.5 120,-0.5 34,-0.5"/>
<text text-anchor="middle" x="77" y="-7.5" font-family="Helvetica,sans-Serif" font-size="10.00">AuxFunction.h</text>
</a>
</g>
</g>
<!-- Node2&#45;&gt;Node3 -->
<g id="edge2" class="edge">
<title>Node2&#45;&gt;Node3</title>
<path fill="none" stroke="midnightblue" d="M89.97,-56.4C87.65,-48.29 84.72,-38.01 82.22,-29.28"/>
<polygon fill="midnightblue" stroke="midnightblue" points="85.59,-28.31 79.47,-19.66 78.86,-30.23 85.59,-28.31"/>
</g>
<!-- Node2&#45;&gt;Node4 -->
<g id="edge3" class="edge">
<title>Node2&#45;&gt;Node4</title>
<path fill="none" stroke="midnightblue" d="M110.12,-56.4C120.4,-47.4 133.75,-35.72 144.33,-26.47"/>
<polygon fill="midnightblue" stroke="midnightblue" points="146.88,-28.88 152.11,-19.66 142.27,-23.61 146.88,-28.88"/>
</g>
<!-- Node6 -->
<g id="node6" class="node">
<title>Node6</title>
<g id="a_node6"><a xlink:title=" ">
<polygon fill="white" stroke="#bfbfbf" points="204,-0.5 204,-19.5 248,-19.5 248,-0.5 204,-0.5"/>
<text text-anchor="middle" x="226" y="-7.5" font-family="Helvetica,sans-Serif" font-size="10.00">mpi.h</text>
</a>
</g>
</g>
<!-- Node5&#45;&gt;Node6 -->
<g id="edge5" class="edge">
<title>Node5&#45;&gt;Node6</title>
<path fill="none" stroke="midnightblue" d="M269.69,-61.98C261.97,-52.96 249.59,-38.52 239.98,-27.31"/>
<polygon fill="midnightblue" stroke="midnightblue" points="242.46,-24.82 233.29,-19.51 237.14,-29.38 242.46,-24.82"/>
</g>
<!-- Node7 -->
<g id="node7" class="node">
<title>Node7</title>
<g id="a_node7"><a xlink:title=" ">
<polygon fill="white" stroke="#bfbfbf" points="266.5,-0.5 266.5,-19.5 321.5,-19.5 321.5,-0.5 266.5,-0.5"/>
<text text-anchor="middle" x="294" y="-7.5" font-family="Helvetica,sans-Serif" font-size="10.00">fstream</text>
</a>
</g>
</g>
<!-- Node5&#45;&gt;Node7 -->
<g id="edge6" class="edge">
<title>Node5&#45;&gt;Node7</title>
<path fill="none" stroke="midnightblue" d="M279.44,-61.98C281.86,-53.49 285.66,-40.2 288.77,-29.32"/>
<polygon fill="midnightblue" stroke="midnightblue" points="292.19,-30.09 291.57,-19.51 285.46,-28.16 292.19,-30.09"/>
</g>
<!-- Node8 -->
<g id="node8" class="node">
<title>Node8</title>
<g id="a_node8"><a xlink:title=" ">
<polygon fill="white" stroke="#bfbfbf" points="339.5,-0.5 339.5,-19.5 406.5,-19.5 406.5,-0.5 339.5,-0.5"/>
<text text-anchor="middle" x="373" y="-7.5" font-family="Helvetica,sans-Serif" font-size="10.00">streambuf</text>
</a>
</g>
</g>
<!-- Node5&#45;&gt;Node8 -->
<g id="edge7" class="edge">
<title>Node5&#45;&gt;Node8</title>
<path fill="none" stroke="midnightblue" d="M290.75,-61.98C306.37,-52.3 332.06,-36.37 350.58,-24.89"/>
<polygon fill="midnightblue" stroke="midnightblue" points="352.62,-27.75 359.27,-19.51 348.93,-21.8 352.62,-27.75"/>
</g>
</g>
</svg>
