<?xml version="1.0" encoding="UTF-8" standalone="no"?>
<!DOCTYPE svg PUBLIC "-//W3C//DTD SVG 1.1//EN"
 "http://www.w3.org/Graphics/SVG/1.1/DTD/svg11.dtd">
<!-- Generated by graphviz version 2.43.0 (0)
 -->
<!-- Title: sierra::nalu::PropertyEvaluator Pages: 1 -->
<svg width="579pt" height="758pt"
 viewBox="0.00 0.00 579.00 758.00" xmlns="http://www.w3.org/2000/svg" xmlns:xlink="http://www.w3.org/1999/xlink">
<g id="graph0" class="graph" transform="scale(1 1) rotate(0) translate(4 754)">
<title>sierra::nalu::PropertyEvaluator</title>
<!-- Node1 -->
<g id="Node000001" class="node">
<title>Node1</title>
<g id="a_Node000001"><a xlink:title=" ">
<polygon fill="#999999" stroke="#666666" points="165,-384.5 0,-384.5 0,-365.5 165,-365.5 165,-384.5"/>
<text text-anchor="middle" x="82.5" y="-372.5" font-family="Helvetica,sans-Serif" font-size="10.00">sierra::nalu::PropertyEvaluator</text>
</a>
</g>
</g>
<!-- Node2 -->
<g id="Node000002" class="node">
<title>Node2</title>
<g id="a_Node000002"><a xlink:href="classsierra_1_1nalu_1_1_constant_property_evaluator.html" target="_top" xlink:title=" ">
<polygon fill="white" stroke="#666666" points="368.5,-750 206.5,-750 206.5,-720 368.5,-720 368.5,-750"/>
<text text-anchor="start" x="214.5" y="-738" font-family="Helvetica,sans-Serif" font-size="10.00">sierra::nalu::ConstantProperty</text>
<text text-anchor="middle" x="287.5" y="-727" font-family="Helvetica,sans-Serif" font-size="10.00">Evaluator</text>
</a>
</g>
</g>
<!-- Node1&#45;&gt;Node2 -->
<g id="edge1_Node000001_Node000002" class="edge">
<title>Node1&#45;&gt;Node2</title>
<g id="a_edge1_Node000001_Node000002"><a xlink:title=" ">
<path fill="none" stroke="#63b8ff" d="M84.35,-395.02C87.93,-452.93 106.39,-622.15 201,-711 204.6,-714.38 208.63,-717.29 212.93,-719.79"/>
<polygon fill="#63b8ff" stroke="#63b8ff" points="87.83,-394.5 83.81,-384.7 80.84,-394.87 87.83,-394.5"/>
</a>
</g>
</g>
<!-- Node3 -->
<g id="Node000003" class="node">
<title>Node3</title>
<g id="a_Node000003"><a xlink:href="classsierra_1_1nalu_1_1_enthalpy_const_cpk_property_evaluator.html" target="_top" xlink:title=" ">
<polygon fill="white" stroke="#666666" points="361.5,-702 213.5,-702 213.5,-672 361.5,-672 361.5,-702"/>
<text text-anchor="start" x="221.5" y="-690" font-family="Helvetica,sans-Serif" font-size="10.00">sierra::nalu::EnthalpyConst</text>
<text text-anchor="middle" x="287.5" y="-679" font-family="Helvetica,sans-Serif" font-size="10.00">CpkPropertyEvaluator</text>
</a>
</g>
</g>
<!-- Node1&#45;&gt;Node3 -->
<g id="edge2_Node000001_Node000003" class="edge">
<title>Node1&#45;&gt;Node3</title>
<g id="a_edge2_Node000001_Node000003"><a xlink:title=" ">
<path fill="none" stroke="#63b8ff" d="M85.66,-394.89C92.4,-447.05 117.84,-588.8 201,-663 204.8,-666.39 209.03,-669.3 213.54,-671.8"/>
<polygon fill="#63b8ff" stroke="#63b8ff" points="89.1,-394.18 84.43,-384.67 82.15,-395.01 89.1,-394.18"/>
</a>
</g>
</g>
<!-- Node4 -->
<g id="Node000004" class="node">
<title>Node4</title>
<g id="a_Node000004"><a xlink:href="classsierra_1_1nalu_1_1_enthalpy_const_spec_heat_property_evaluator.html" target="_top" xlink:title=" ">
<polygon fill="white" stroke="#666666" points="363,-654 212,-654 212,-624 363,-624 363,-654"/>
<text text-anchor="start" x="220" y="-642" font-family="Helvetica,sans-Serif" font-size="10.00">sierra::nalu::EnthalpyConst</text>
<text text-anchor="middle" x="287.5" y="-631" font-family="Helvetica,sans-Serif" font-size="10.00">SpecHeatPropertyEvaluator</text>
</a>
</g>
</g>
<!-- Node1&#45;&gt;Node4 -->
<g id="edge3_Node000001_Node000004" class="edge">
<title>Node1&#45;&gt;Node4</title>
<g id="a_edge3_Node000001_Node000004"><a xlink:title=" ">
<path fill="none" stroke="#63b8ff" d="M87.32,-394.31C97.37,-439.9 128.89,-554.92 201,-615 205.15,-618.45 209.76,-621.41 214.63,-623.95"/>
<polygon fill="#63b8ff" stroke="#63b8ff" points="90.74,-393.58 85.26,-384.52 83.89,-395.02 90.74,-393.58"/>
</a>
</g>
</g>
<!-- Node5 -->
<g id="Node000005" class="node">
<title>Node5</title>
<g id="a_Node000005"><a xlink:href="classsierra_1_1nalu_1_1_ideal_gas_t_p_property_evaluator.html" target="_top" xlink:title=" ">
<polygon fill="white" stroke="#666666" points="374,-606 201,-606 201,-576 374,-576 374,-606"/>
<text text-anchor="start" x="209" y="-594" font-family="Helvetica,sans-Serif" font-size="10.00">sierra::nalu::IdealGasTPProperty</text>
<text text-anchor="middle" x="287.5" y="-583" font-family="Helvetica,sans-Serif" font-size="10.00">Evaluator</text>
</a>
</g>
</g>
<!-- Node1&#45;&gt;Node5 -->
<g id="edge4_Node000001_Node000005" class="edge">
<title>Node1&#45;&gt;Node5</title>
<g id="a_edge4_Node000001_Node000005"><a xlink:title=" ">
<path fill="none" stroke="#63b8ff" d="M89.85,-394.31C103.63,-433.14 140.03,-520.88 201,-567 205.55,-570.44 210.57,-573.39 215.83,-575.91"/>
<polygon fill="#63b8ff" stroke="#63b8ff" points="93.12,-393.06 86.56,-384.73 86.5,-395.33 93.12,-393.06"/>
</a>
</g>
</g>
<!-- Node6 -->
<g id="Node000006" class="node">
<title>Node6</title>
<g id="a_Node000006"><a xlink:href="classsierra_1_1nalu_1_1_ideal_gas_t_property_evaluator.html" target="_top" xlink:title=" ">
<polygon fill="white" stroke="#666666" points="371,-558 204,-558 204,-528 371,-528 371,-558"/>
<text text-anchor="start" x="212" y="-546" font-family="Helvetica,sans-Serif" font-size="10.00">sierra::nalu::IdealGasTProperty</text>
<text text-anchor="middle" x="287.5" y="-535" font-family="Helvetica,sans-Serif" font-size="10.00">Evaluator</text>
</a>
</g>
</g>
<!-- Node1&#45;&gt;Node6 -->
<g id="edge5_Node000001_Node000006" class="edge">
<title>Node1&#45;&gt;Node6</title>
<g id="a_edge5_Node000001_Node000006"><a xlink:title=" ">
<path fill="none" stroke="#63b8ff" d="M93.57,-393.64C111.19,-424.48 150.59,-485.97 201,-519 206.29,-522.46 212.07,-525.43 218.06,-527.98"/>
<polygon fill="#63b8ff" stroke="#63b8ff" points="96.55,-391.81 88.63,-384.78 90.44,-395.22 96.55,-391.81"/>
</a>
</g>
</g>
<!-- Node7 -->
<g id="Node000007" class="node">
<title>Node7</title>
<g id="a_Node000007"><a xlink:href="classsierra_1_1nalu_1_1_ideal_gas_t_yk_property_evaluator.html" target="_top" xlink:title=" ">
<polygon fill="white" stroke="#666666" points="356.5,-510 218.5,-510 218.5,-480 356.5,-480 356.5,-510"/>
<text text-anchor="start" x="226.5" y="-498" font-family="Helvetica,sans-Serif" font-size="10.00">sierra::nalu::IdealGasTYk</text>
<text text-anchor="middle" x="287.5" y="-487" font-family="Helvetica,sans-Serif" font-size="10.00">PropertyEvaluator</text>
</a>
</g>
</g>
<!-- Node1&#45;&gt;Node7 -->
<g id="edge6_Node000001_Node000007" class="edge">
<title>Node1&#45;&gt;Node7</title>
<g id="a_edge6_Node000001_Node000007"><a xlink:title=" ">
<path fill="none" stroke="#63b8ff" d="M99.83,-392.14C121.16,-413.57 160.59,-449.99 201,-471 207.57,-474.41 214.68,-477.39 221.89,-479.97"/>
<polygon fill="#63b8ff" stroke="#63b8ff" points="102.07,-389.42 92.57,-384.72 97.06,-394.32 102.07,-389.42"/>
</a>
</g>
</g>
<!-- Node8 -->
<g id="Node000008" class="node">
<title>Node8</title>
<g id="a_Node000008"><a xlink:href="classsierra_1_1nalu_1_1_ideal_gas_yk_property_evaluator.html" target="_top" xlink:title=" ">
<polygon fill="white" stroke="#666666" points="353.5,-462 221.5,-462 221.5,-432 353.5,-432 353.5,-462"/>
<text text-anchor="start" x="229.5" y="-450" font-family="Helvetica,sans-Serif" font-size="10.00">sierra::nalu::IdealGasYk</text>
<text text-anchor="middle" x="287.5" y="-439" font-family="Helvetica,sans-Serif" font-size="10.00">PropertyEvaluator</text>
</a>
</g>
</g>
<!-- Node1&#45;&gt;Node8 -->
<g id="edge7_Node000001_Node000008" class="edge">
<title>Node1&#45;&gt;Node8</title>
<g id="a_edge7_Node000001_Node000008"><a xlink:title=" ">
<path fill="none" stroke="#63b8ff" d="M114.3,-388.71C137.79,-398.89 171.09,-412.73 201,-423 210.04,-426.1 219.72,-429.11 229.19,-431.89"/>
<polygon fill="#63b8ff" stroke="#63b8ff" points="115.44,-385.39 104.88,-384.59 112.64,-391.8 115.44,-385.39"/>
</a>
</g>
</g>
<!-- Node9 -->
<g id="Node000009" class="node">
<title>Node9</title>
<g id="a_Node000009"><a xlink:href="classsierra_1_1nalu_1_1_polynomial_property_evaluator.html" target="_top" xlink:title=" ">
<polygon fill="white" stroke="#666666" points="353.5,-414 221.5,-414 221.5,-384 353.5,-384 353.5,-414"/>
<text text-anchor="start" x="229.5" y="-402" font-family="Helvetica,sans-Serif" font-size="10.00">sierra::nalu::Polynomial</text>
<text text-anchor="middle" x="287.5" y="-391" font-family="Helvetica,sans-Serif" font-size="10.00">PropertyEvaluator</text>
</a>
</g>
</g>
<!-- Node1&#45;&gt;Node9 -->
<g id="edge8_Node000001_Node000009" class="edge">
<title>Node1&#45;&gt;Node9</title>
<g id="a_edge8_Node000001_Node000009"><a xlink:title=" ">
<path fill="none" stroke="#63b8ff" d="M174.37,-385.74C190.22,-387.62 206.41,-389.53 221.39,-391.3"/>
<polygon fill="#63b8ff" stroke="#63b8ff" points="174.36,-382.22 164.02,-384.52 173.54,-389.17 174.36,-382.22"/>
</a>
</g>
</g>
<!-- Node14 -->
<g id="Node000014" class="node">
<title>Node14</title>
<g id="a_Node000014"><a xlink:href="classsierra_1_1nalu_1_1_specific_heat_const_cpk_property_evaluator.html" target="_top" xlink:title=" ">
<polygon fill="white" stroke="#666666" points="363,-366 212,-366 212,-336 363,-336 363,-366"/>
<text text-anchor="start" x="220" y="-354" font-family="Helvetica,sans-Serif" font-size="10.00">sierra::nalu::SpecificHeat</text>
<text text-anchor="middle" x="287.5" y="-343" font-family="Helvetica,sans-Serif" font-size="10.00">ConstCpkPropertyEvaluator</text>
</a>
</g>
</g>
<!-- Node1&#45;&gt;Node14 -->
<g id="edge13_Node000001_Node000014" class="edge">
<title>Node1&#45;&gt;Node14</title>
<g id="a_edge13_Node000001_Node000014"><a xlink:title=" ">
<path fill="none" stroke="#63b8ff" d="M174.05,-364.29C186.63,-362.81 199.44,-361.29 211.69,-359.84"/>
<polygon fill="#63b8ff" stroke="#63b8ff" points="173.54,-360.83 164.02,-365.48 174.36,-367.78 173.54,-360.83"/>
</a>
</g>
</g>
<!-- Node15 -->
<g id="Node000015" class="node">
<title>Node15</title>
<g id="a_Node000015"><a xlink:href="classsierra_1_1nalu_1_1_sutherlands_property_evaluator.html" target="_top" xlink:title=" ">
<polygon fill="white" stroke="#666666" points="355,-318 220,-318 220,-288 355,-288 355,-318"/>
<text text-anchor="start" x="228" y="-306" font-family="Helvetica,sans-Serif" font-size="10.00">sierra::nalu::Sutherlands</text>
<text text-anchor="middle" x="287.5" y="-295" font-family="Helvetica,sans-Serif" font-size="10.00">PropertyEvaluator</text>
</a>
</g>
</g>
<!-- Node1&#45;&gt;Node15 -->
<g id="edge14_Node000001_Node000015" class="edge">
<title>Node1&#45;&gt;Node15</title>
<g id="a_edge14_Node000001_Node000015"><a xlink:title=" ">
<path fill="none" stroke="#63b8ff" d="M114.3,-361.29C137.79,-351.11 171.09,-337.27 201,-327 210.04,-323.9 219.72,-320.89 229.19,-318.11"/>
<polygon fill="#63b8ff" stroke="#63b8ff" points="112.64,-358.2 104.88,-365.41 115.44,-364.61 112.64,-358.2"/>
</a>
</g>
</g>
<!-- Node16 -->
<g id="Node000016" class="node">
<title>Node16</title>
<g id="a_Node000016"><a xlink:href="classsierra_1_1nalu_1_1_sutherlands_yk_property_evaluator.html" target="_top" xlink:title=" ">
<polygon fill="white" stroke="#666666" points="355,-270 220,-270 220,-240 355,-240 355,-270"/>
<text text-anchor="start" x="228" y="-258" font-family="Helvetica,sans-Serif" font-size="10.00">sierra::nalu::Sutherlands</text>
<text text-anchor="middle" x="287.5" y="-247" font-family="Helvetica,sans-Serif" font-size="10.00">YkPropertyEvaluator</text>
</a>
</g>
</g>
<!-- Node1&#45;&gt;Node16 -->
<g id="edge15_Node000001_Node000016" class="edge">
<title>Node1&#45;&gt;Node16</title>
<g id="a_edge15_Node000001_Node000016"><a xlink:title=" ">
<path fill="none" stroke="#63b8ff" d="M99.83,-357.86C121.16,-336.43 160.59,-300.01 201,-279 207.57,-275.59 214.68,-272.61 221.89,-270.03"/>
<polygon fill="#63b8ff" stroke="#63b8ff" points="97.06,-355.68 92.57,-365.28 102.07,-360.58 97.06,-355.68"/>
</a>
</g>
</g>
<!-- Node18 -->
<g id="Node000018" class="node">
<title>Node18</title>
<g id="a_Node000018"><a xlink:href="classsierra_1_1nalu_1_1_water_density_t_property_evaluator.html" target="_top" xlink:title=" ">
<polygon fill="white" stroke="#666666" points="359,-222 216,-222 216,-192 359,-192 359,-222"/>
<text text-anchor="start" x="224" y="-210" font-family="Helvetica,sans-Serif" font-size="10.00">sierra::nalu::WaterDensity</text>
<text text-anchor="middle" x="287.5" y="-199" font-family="Helvetica,sans-Serif" font-size="10.00">TPropertyEvaluator</text>
</a>
</g>
</g>
<!-- Node1&#45;&gt;Node18 -->
<g id="edge17_Node000001_Node000018" class="edge">
<title>Node1&#45;&gt;Node18</title>
<g id="a_edge17_Node000001_Node000018"><a xlink:title=" ">
<path fill="none" stroke="#63b8ff" d="M93.57,-356.36C111.19,-325.52 150.59,-264.03 201,-231 206.29,-227.54 212.07,-224.57 218.06,-222.02"/>
<polygon fill="#63b8ff" stroke="#63b8ff" points="90.44,-354.78 88.63,-365.22 96.55,-358.19 90.44,-354.78"/>
</a>
</g>
</g>
<!-- Node19 -->
<g id="Node000019" class="node">
<title>Node19</title>
<g id="a_Node000019"><a xlink:href="classsierra_1_1nalu_1_1_water_enthalpy_t_property_evaluator.html" target="_top" xlink:title=" ">
<polygon fill="white" stroke="#666666" points="362,-174 213,-174 213,-144 362,-144 362,-174"/>
<text text-anchor="start" x="221" y="-162" font-family="Helvetica,sans-Serif" font-size="10.00">sierra::nalu::WaterEnthalpy</text>
<text text-anchor="middle" x="287.5" y="-151" font-family="Helvetica,sans-Serif" font-size="10.00">TPropertyEvaluator</text>
</a>
</g>
</g>
<!-- Node1&#45;&gt;Node19 -->
<g id="edge18_Node000001_Node000019" class="edge">
<title>Node1&#45;&gt;Node19</title>
<g id="a_edge18_Node000001_Node000019"><a xlink:title=" ">
<path fill="none" stroke="#63b8ff" d="M89.85,-355.69C103.63,-316.86 140.03,-229.12 201,-183 205.55,-179.56 210.57,-176.61 215.83,-174.09"/>
<polygon fill="#63b8ff" stroke="#63b8ff" points="86.5,-354.67 86.56,-365.27 93.12,-356.94 86.5,-354.67"/>
</a>
</g>
</g>
<!-- Node20 -->
<g id="Node000020" class="node">
<title>Node20</title>
<g id="a_Node000020"><a xlink:href="classsierra_1_1nalu_1_1_water_spec_heat_t_property_evaluator.html" target="_top" xlink:title=" ">
<polygon fill="white" stroke="#666666" points="363.5,-126 211.5,-126 211.5,-96 363.5,-96 363.5,-126"/>
<text text-anchor="start" x="219.5" y="-114" font-family="Helvetica,sans-Serif" font-size="10.00">sierra::nalu::WaterSpecHeat</text>
<text text-anchor="middle" x="287.5" y="-103" font-family="Helvetica,sans-Serif" font-size="10.00">TPropertyEvaluator</text>
</a>
</g>
</g>
<!-- Node1&#45;&gt;Node20 -->
<g id="edge19_Node000001_Node000020" class="edge">
<title>Node1&#45;&gt;Node20</title>
<g id="a_edge19_Node000001_Node000020"><a xlink:title=" ">
<path fill="none" stroke="#63b8ff" d="M87.32,-355.69C97.37,-310.1 128.89,-195.08 201,-135 205.15,-131.55 209.76,-128.59 214.63,-126.05"/>
<polygon fill="#63b8ff" stroke="#63b8ff" points="83.89,-354.98 85.26,-365.48 90.74,-356.42 83.89,-354.98"/>
</a>
</g>
</g>
<!-- Node21 -->
<g id="Node000021" class="node">
<title>Node21</title>
<g id="a_Node000021"><a xlink:href="classsierra_1_1nalu_1_1_water_thermal_cond_t_property_evaluator.html" target="_top" xlink:title=" ">
<polygon fill="white" stroke="#666666" points="360.5,-78 214.5,-78 214.5,-48 360.5,-48 360.5,-78"/>
<text text-anchor="start" x="222.5" y="-66" font-family="Helvetica,sans-Serif" font-size="10.00">sierra::nalu::WaterThermal</text>
<text text-anchor="middle" x="287.5" y="-55" font-family="Helvetica,sans-Serif" font-size="10.00">CondTPropertyEvaluator</text>
</a>
</g>
</g>
<!-- Node1&#45;&gt;Node21 -->
<g id="edge20_Node000001_Node000021" class="edge">
<title>Node1&#45;&gt;Node21</title>
<g id="a_edge20_Node000001_Node000021"><a xlink:title=" ">
<path fill="none" stroke="#63b8ff" d="M85.66,-355.11C92.4,-302.95 117.84,-161.2 201,-87 205.03,-83.41 209.55,-80.35 214.36,-77.74"/>
<polygon fill="#63b8ff" stroke="#63b8ff" points="82.15,-354.99 84.43,-365.33 89.1,-355.82 82.15,-354.99"/>
</a>
</g>
</g>
<!-- Node22 -->
<g id="Node000022" class="node">
<title>Node22</title>
<g id="a_Node000022"><a xlink:href="classsierra_1_1nalu_1_1_water_viscosity_t_property_evaluator.html" target="_top" xlink:title=" ">
<polygon fill="white" stroke="#666666" points="362.5,-30 212.5,-30 212.5,0 362.5,0 362.5,-30"/>
<text text-anchor="start" x="220.5" y="-18" font-family="Helvetica,sans-Serif" font-size="10.00">sierra::nalu::WaterViscosity</text>
<text text-anchor="middle" x="287.5" y="-7" font-family="Helvetica,sans-Serif" font-size="10.00">TPropertyEvaluator</text>
</a>
</g>
</g>
<!-- Node1&#45;&gt;Node22 -->
<g id="edge21_Node000001_Node000022" class="edge">
<title>Node1&#45;&gt;Node22</title>
<g id="a_edge21_Node000001_Node000022"><a xlink:title=" ">
<path fill="none" stroke="#63b8ff" d="M84.35,-354.98C87.93,-297.07 106.39,-127.85 201,-39 204.6,-35.62 208.63,-32.71 212.93,-30.21"/>
<polygon fill="#63b8ff" stroke="#63b8ff" points="80.84,-355.13 83.81,-365.3 87.83,-355.5 80.84,-355.13"/>
</a>
</g>
</g>
<!-- Node10 -->
<g id="Node000010" class="node">
<title>Node10</title>
<g id="a_Node000010"><a xlink:href="classsierra_1_1nalu_1_1_enthalpy_property_evaluator.html" target="_top" xlink:title=" ">
<polygon fill="white" stroke="#666666" points="571,-486 410,-486 410,-456 571,-456 571,-486"/>
<text text-anchor="start" x="418" y="-474" font-family="Helvetica,sans-Serif" font-size="10.00">sierra::nalu::EnthalpyProperty</text>
<text text-anchor="middle" x="490.5" y="-463" font-family="Helvetica,sans-Serif" font-size="10.00">Evaluator</text>
</a>
</g>
</g>
<!-- Node9&#45;&gt;Node10 -->
<g id="edge9_Node000009_Node000010" class="edge">
<title>Node9&#45;&gt;Node10</title>
<g id="a_edge9_Node000009_Node000010"><a xlink:title=" ">
<path fill="none" stroke="#63b8ff" d="M360.53,-417.42C365.15,-419.15 369.67,-421.01 374,-423 391.47,-431.03 392.61,-438.8 410,-447 417.04,-450.32 424.65,-453.31 432.27,-455.95"/>
<polygon fill="#63b8ff" stroke="#63b8ff" points="361.57,-414.08 350.97,-414.05 359.24,-420.68 361.57,-414.08"/>
</a>
</g>
</g>
<!-- Node11 -->
<g id="Node000011" class="node">
<title>Node11</title>
<g id="a_Node000011"><a xlink:href="classsierra_1_1nalu_1_1_enthalpy_t_yk_property_evaluator.html" target="_top" xlink:title=" ">
<polygon fill="white" stroke="#666666" points="559.5,-438 421.5,-438 421.5,-408 559.5,-408 559.5,-438"/>
<text text-anchor="start" x="429.5" y="-426" font-family="Helvetica,sans-Serif" font-size="10.00">sierra::nalu::EnthalpyTYk</text>
<text text-anchor="middle" x="490.5" y="-415" font-family="Helvetica,sans-Serif" font-size="10.00">PropertyEvaluator</text>
</a>
</g>
</g>
<!-- Node9&#45;&gt;Node11 -->
<g id="edge10_Node000009_Node000011" class="edge">
<title>Node9&#45;&gt;Node11</title>
<g id="a_edge10_Node000009_Node000011"><a xlink:title=" ">
<path fill="none" stroke="#63b8ff" d="M363.82,-407.99C382.73,-410.25 402.92,-412.66 421.46,-414.88"/>
<polygon fill="#63b8ff" stroke="#63b8ff" points="364.1,-404.5 353.76,-406.79 363.27,-411.45 364.1,-404.5"/>
</a>
</g>
</g>
<!-- Node12 -->
<g id="Node000012" class="node">
<title>Node12</title>
<g id="a_Node000012"><a xlink:href="classsierra_1_1nalu_1_1_specific_heat_property_evaluator.html" target="_top" xlink:title=" ">
<polygon fill="white" stroke="#666666" points="559.5,-390 421.5,-390 421.5,-360 559.5,-360 559.5,-390"/>
<text text-anchor="start" x="429.5" y="-378" font-family="Helvetica,sans-Serif" font-size="10.00">sierra::nalu::SpecificHeat</text>
<text text-anchor="middle" x="490.5" y="-367" font-family="Helvetica,sans-Serif" font-size="10.00">PropertyEvaluator</text>
</a>
</g>
</g>
<!-- Node9&#45;&gt;Node12 -->
<g id="edge11_Node000009_Node000012" class="edge">
<title>Node9&#45;&gt;Node12</title>
<g id="a_edge11_Node000009_Node000012"><a xlink:title=" ">
<path fill="none" stroke="#63b8ff" d="M363.82,-390.01C382.73,-387.75 402.92,-385.34 421.46,-383.12"/>
<polygon fill="#63b8ff" stroke="#63b8ff" points="363.27,-386.55 353.76,-391.21 364.1,-393.5 363.27,-386.55"/>
</a>
</g>
</g>
<!-- Node13 -->
<g id="Node000013" class="node">
<title>Node13</title>
<g id="a_Node000013"><a xlink:href="classsierra_1_1nalu_1_1_specific_heat_t_yk_property_evaluator.html" target="_top" xlink:title=" ">
<polygon fill="white" stroke="#666666" points="559.5,-342 421.5,-342 421.5,-312 559.5,-312 559.5,-342"/>
<text text-anchor="start" x="429.5" y="-330" font-family="Helvetica,sans-Serif" font-size="10.00">sierra::nalu::SpecificHeat</text>
<text text-anchor="middle" x="490.5" y="-319" font-family="Helvetica,sans-Serif" font-size="10.00">TYkPropertyEvaluator</text>
</a>
</g>
</g>
<!-- Node9&#45;&gt;Node13 -->
<g id="edge12_Node000009_Node000013" class="edge">
<title>Node9&#45;&gt;Node13</title>
<g id="a_edge12_Node000009_Node000013"><a xlink:title=" ">
<path fill="none" stroke="#63b8ff" d="M360.53,-380.58C365.15,-378.85 369.67,-376.99 374,-375 391.47,-366.97 392.61,-359.2 410,-351 417.04,-347.68 424.65,-344.69 432.27,-342.05"/>
<polygon fill="#63b8ff" stroke="#63b8ff" points="359.24,-377.32 350.97,-383.95 361.57,-383.92 359.24,-377.32"/>
</a>
</g>
</g>
<!-- Node17 -->
<g id="Node000017" class="node">
<title>Node17</title>
<g id="a_Node000017"><a xlink:href="classsierra_1_1nalu_1_1_sutherlands_yk_tref_property_evaluator.html" target="_top" xlink:title=" ">
<polygon fill="white" stroke="#666666" points="558,-270 423,-270 423,-240 558,-240 558,-270"/>
<text text-anchor="start" x="431" y="-258" font-family="Helvetica,sans-Serif" font-size="10.00">sierra::nalu::Sutherlands</text>
<text text-anchor="middle" x="490.5" y="-247" font-family="Helvetica,sans-Serif" font-size="10.00">YkTrefPropertyEvaluator</text>
</a>
</g>
</g>
<!-- Node16&#45;&gt;Node17 -->
<g id="edge16_Node000016_Node000017" class="edge">
<title>Node16&#45;&gt;Node17</title>
<g id="a_edge16_Node000016_Node000017"><a xlink:title=" ">
<path fill="none" stroke="#63b8ff" d="M365.22,-255C384.15,-255 404.27,-255 422.69,-255"/>
<polygon fill="#63b8ff" stroke="#63b8ff" points="365.15,-251.5 355.15,-255 365.15,-258.5 365.15,-251.5"/>
</a>
</g>
</g>
</g>
</svg>
