<?xml version="1.0" encoding="UTF-8" standalone="no"?>
<!DOCTYPE svg PUBLIC "-//W3C//DTD SVG 1.1//EN"
 "http://www.w3.org/Graphics/SVG/1.1/DTD/svg11.dtd">
<!-- Generated by graphviz version 2.43.0 (0)
 -->
<!-- Title: sierra::nalu::SutherlandsYkTrefPropertyEvaluator Pages: 1 -->
<svg width="470pt" height="380pt"
 viewBox="0.00 0.00 469.50 380.00" xmlns="http://www.w3.org/2000/svg" xmlns:xlink="http://www.w3.org/1999/xlink">
<g id="graph0" class="graph" transform="scale(1 1) rotate(0) translate(4 376)">
<title>sierra::nalu::SutherlandsYkTrefPropertyEvaluator</title>
<!-- Node1 -->
<g id="Node000001" class="node">
<title>Node1</title>
<g id="a_Node000001"><a xlink:title=" ">
<polygon fill="#999999" stroke="#666666" points="199,-30 64,-30 64,0 199,0 199,-30"/>
<text text-anchor="start" x="72" y="-18" font-family="Helvetica,sans-Serif" font-size="10.00">sierra::nalu::Sutherlands</text>
<text text-anchor="middle" x="131.5" y="-7" font-family="Helvetica,sans-Serif" font-size="10.00">YkTrefPropertyEvaluator</text>
</a>
</g>
</g>
<!-- Node2 -->
<g id="Node000002" class="node">
<title>Node2</title>
<g id="a_Node000002"><a xlink:href="classsierra_1_1nalu_1_1_sutherlands_yk_property_evaluator.html" target="_top" xlink:title=" ">
<polygon fill="white" stroke="#666666" points="199,-97 64,-97 64,-67 199,-67 199,-97"/>
<text text-anchor="start" x="72" y="-85" font-family="Helvetica,sans-Serif" font-size="10.00">sierra::nalu::Sutherlands</text>
<text text-anchor="middle" x="131.5" y="-74" font-family="Helvetica,sans-Serif" font-size="10.00">YkPropertyEvaluator</text>
</a>
</g>
</g>
<!-- Node2&#45;&gt;Node1 -->
<g id="edge1_Node000001_Node000002" class="edge">
<title>Node2&#45;&gt;Node1</title>
<g id="a_edge1_Node000001_Node000002"><a xlink:title=" ">
<path fill="none" stroke="#63b8ff" d="M131.5,-56.61C131.5,-47.65 131.5,-37.82 131.5,-30.08"/>
<polygon fill="#63b8ff" stroke="#63b8ff" points="128,-56.9 131.5,-66.9 135,-56.9 128,-56.9"/>
</a>
</g>
</g>
<!-- Node3 -->
<g id="Node000003" class="node">
<title>Node3</title>
<g id="a_Node000003"><a xlink:href="classsierra_1_1nalu_1_1_property_evaluator.html" target="_top" xlink:title=" ">
<polygon fill="white" stroke="#666666" points="165,-168.5 0,-168.5 0,-149.5 165,-149.5 165,-168.5"/>
<text text-anchor="middle" x="82.5" y="-156.5" font-family="Helvetica,sans-Serif" font-size="10.00">sierra::nalu::PropertyEvaluator</text>
</a>
</g>
</g>
<!-- Node3&#45;&gt;Node2 -->
<g id="edge2_Node000002_Node000003" class="edge">
<title>Node3&#45;&gt;Node2</title>
<g id="a_edge2_Node000002_Node000003"><a xlink:title=" ">
<path fill="none" stroke="#63b8ff" d="M93.76,-140.76C102.41,-127.53 114.19,-109.49 122.28,-97.11"/>
<polygon fill="#63b8ff" stroke="#63b8ff" points="90.66,-139.11 88.12,-149.4 96.52,-142.94 90.66,-139.11"/>
</a>
</g>
</g>
<!-- Node4 -->
<g id="Node000004" class="node">
<title>Node4</title>
<g id="a_Node000004"><a xlink:title=" ">
<polygon fill="white" stroke="#666666" points="314,-174 183,-174 183,-144 314,-144 314,-174"/>
<text text-anchor="start" x="191" y="-162" font-family="Helvetica,sans-Serif" font-size="10.00">std::vector&lt; std::vector</text>
<text text-anchor="middle" x="248.5" y="-151" font-family="Helvetica,sans-Serif" font-size="10.00">&lt; double &gt; &gt;</text>
</a>
</g>
</g>
<!-- Node4&#45;&gt;Node2 -->
<g id="edge3_Node000002_Node000004" class="edge">
<title>Node4&#45;&gt;Node2</title>
<g id="a_edge3_Node000002_Node000004"><a xlink:title=" ">
<path fill="none" stroke="#9a32cd" stroke-dasharray="5,2" d="M217.93,-138.4C197.68,-125.43 171.6,-108.71 153.41,-97.04"/>
<polygon fill="#9a32cd" stroke="#9a32cd" points="216.19,-141.44 226.49,-143.89 219.96,-135.55 216.19,-141.44"/>
</a>
</g>
<text text-anchor="middle" x="243.5" y="-118" font-family="Helvetica,sans-Serif" font-size="10.00" fill="grey"> polynomialCoeffs_</text>
</g>
<!-- Node5 -->
<g id="Node000005" class="node">
<title>Node5</title>
<g id="a_Node000005"><a xlink:title=" ">
<polygon fill="white" stroke="#666666" points="461.5,-240 337.5,-240 337.5,-221 461.5,-221 461.5,-240"/>
<text text-anchor="middle" x="399.5" y="-228" font-family="Helvetica,sans-Serif" font-size="10.00">std::vector&lt; double &gt;</text>
</a>
</g>
</g>
<!-- Node5&#45;&gt;Node4 -->
<g id="edge4_Node000004_Node000005" class="edge">
<title>Node5&#45;&gt;Node4</title>
<g id="a_edge4_Node000004_Node000005"><a xlink:title=" ">
<path fill="none" stroke="#9a32cd" stroke-dasharray="5,2" d="M371.6,-216.66C345.31,-204.56 306.02,-186.47 278.93,-174.01"/>
<polygon fill="#9a32cd" stroke="#9a32cd" points="370.44,-219.98 380.98,-220.98 373.36,-213.62 370.44,-219.98"/>
</a>
</g>
<text text-anchor="middle" x="362" y="-195" font-family="Helvetica,sans-Serif" font-size="10.00" fill="grey"> elements</text>
</g>
<!-- Node6 -->
<g id="Node000006" class="node">
<title>Node6</title>
<g id="a_Node000006"><a xlink:title=" ">
<polygon fill="white" stroke="#666666" points="251,-306 154,-306 154,-287 251,-287 251,-306"/>
<text text-anchor="middle" x="202.5" y="-294" font-family="Helvetica,sans-Serif" font-size="10.00">std::vector&lt; T &gt;</text>
</a>
</g>
</g>
<!-- Node6&#45;&gt;Node4 -->
<g id="edge7_Node000004_Node000006" class="edge">
<title>Node6&#45;&gt;Node4</title>
<g id="a_edge7_Node000004_Node000006"><a xlink:title=" ">
<path fill="none" stroke="orange" stroke-dasharray="5,2" d="M196.36,-277.05C192.24,-261.6 188.69,-239.21 195.5,-221 202.52,-202.21 218.24,-185.38 230.74,-174.18"/>
<polygon fill="orange" stroke="orange" points="193.09,-278.34 199.32,-286.91 199.8,-276.33 193.09,-278.34"/>
</a>
</g>
<text text-anchor="middle" x="262" y="-228" font-family="Helvetica,sans-Serif" font-size="10.00" fill="grey"> &lt; std::vector&lt; double &gt; &gt;</text>
</g>
<!-- Node6&#45;&gt;Node5 -->
<g id="edge5_Node000005_Node000006" class="edge">
<title>Node6&#45;&gt;Node5</title>
<g id="a_edge5_Node000005_Node000006"><a xlink:title=" ">
<path fill="none" stroke="orange" stroke-dasharray="5,2" d="M238.94,-283.66C277.82,-271.03 338.48,-251.32 373.04,-240.1"/>
<polygon fill="orange" stroke="orange" points="237.5,-280.45 229.07,-286.87 239.66,-287.11 237.5,-280.45"/>
</a>
</g>
<text text-anchor="middle" x="342" y="-261" font-family="Helvetica,sans-Serif" font-size="10.00" fill="grey"> &lt; double &gt;</text>
</g>
<!-- Node7 -->
<g id="Node000007" class="node">
<title>Node7</title>
<g id="a_Node000007"><a xlink:title=" ">
<polygon fill="white" stroke="#666666" points="217,-372 188,-372 188,-353 217,-353 217,-372"/>
<text text-anchor="middle" x="202.5" y="-360" font-family="Helvetica,sans-Serif" font-size="10.00">T</text>
</a>
</g>
</g>
<!-- Node7&#45;&gt;Node6 -->
<g id="edge6_Node000006_Node000007" class="edge">
<title>Node7&#45;&gt;Node6</title>
<g id="a_edge6_Node000006_Node000007"><a xlink:title=" ">
<path fill="none" stroke="#9a32cd" stroke-dasharray="5,2" d="M202.5,-342.58C202.5,-330.63 202.5,-315.72 202.5,-306.41"/>
<polygon fill="#9a32cd" stroke="#9a32cd" points="199,-342.87 202.5,-352.87 206,-342.87 199,-342.87"/>
</a>
</g>
<text text-anchor="middle" x="227" y="-327" font-family="Helvetica,sans-Serif" font-size="10.00" fill="grey"> elements</text>
</g>
</g>
</svg>
