<?xml version="1.0" encoding="UTF-8" standalone="no"?>
<!DOCTYPE svg PUBLIC "-//W3C//DTD SVG 1.1//EN"
 "http://www.w3.org/Graphics/SVG/1.1/DTD/svg11.dtd">
<!-- Generated by graphviz version 2.43.0 (0)
 -->
<!-- Title: sierra::nalu::ContinuityMassBDFNodeKernel Pages: 1 -->
<svg width="343pt" height="231pt"
 viewBox="0.00 0.00 342.50 231.00" xmlns="http://www.w3.org/2000/svg" xmlns:xlink="http://www.w3.org/1999/xlink">
<g id="graph0" class="graph" transform="scale(1 1) rotate(0) translate(4 227)">
<title>sierra::nalu::ContinuityMassBDFNodeKernel</title>
<polygon fill="white" stroke="transparent" points="-4,4 -4,-227 338.5,-227 338.5,4 -4,4"/>
<!-- Node1 -->
<g id="node1" class="node">
<title>Node1</title>
<g id="a_node1"><a xlink:title=" ">
<polygon fill="#bfbfbf" stroke="black" points="31.5,-0.5 31.5,-30.5 159.5,-30.5 159.5,-0.5 31.5,-0.5"/>
<text text-anchor="start" x="39.5" y="-18.5" font-family="Helvetica,sans-Serif" font-size="10.00">sierra::nalu::Continuity</text>
<text text-anchor="middle" x="95.5" y="-7.5" font-family="Helvetica,sans-Serif" font-size="10.00">MassBDFNodeKernel</text>
</a>
</g>
</g>
<!-- Node2 -->
<g id="node2" class="node">
<title>Node2</title>
<g id="a_node2"><a xlink:href="classsierra_1_1nalu_1_1_n_g_p_node_kernel.html" target="_top" xlink:title=" ">
<polygon fill="white" stroke="black" points="0,-68.5 0,-98.5 191,-98.5 191,-68.5 0,-68.5"/>
<text text-anchor="start" x="8" y="-86.5" font-family="Helvetica,sans-Serif" font-size="10.00">sierra::nalu::NGPNodeKernel</text>
<text text-anchor="middle" x="95.5" y="-75.5" font-family="Helvetica,sans-Serif" font-size="10.00">&lt; ContinuityMassBDFNodeKernel &gt;</text>
</a>
</g>
</g>
<!-- Node2&#45;&gt;Node1 -->
<g id="edge1" class="edge">
<title>Node2&#45;&gt;Node1</title>
<path fill="none" stroke="midnightblue" d="M95.5,-58.03C95.5,-48.86 95.5,-38.74 95.5,-30.79"/>
<polygon fill="midnightblue" stroke="midnightblue" points="92,-58.18 95.5,-68.18 99,-58.18 92,-58.18"/>
</g>
<!-- Node3 -->
<g id="node3" class="node">
<title>Node3</title>
<g id="a_node3"><a xlink:href="classsierra_1_1nalu_1_1_node_kernel.html" target="_top" xlink:title=" ">
<polygon fill="white" stroke="black" points="24.5,-203.5 24.5,-222.5 158.5,-222.5 158.5,-203.5 24.5,-203.5"/>
<text text-anchor="middle" x="91.5" y="-210.5" font-family="Helvetica,sans-Serif" font-size="10.00">sierra::nalu::NodeKernel</text>
</a>
</g>
</g>
<!-- Node3&#45;&gt;Node2 -->
<g id="edge2" class="edge">
<title>Node3&#45;&gt;Node2</title>
<path fill="none" stroke="midnightblue" d="M92.1,-192.9C92.91,-167.05 94.34,-121.54 95.06,-98.59"/>
<polygon fill="midnightblue" stroke="midnightblue" points="88.59,-193.13 91.77,-203.24 95.59,-193.35 88.59,-193.13"/>
</g>
<!-- Node4 -->
<g id="node4" class="node">
<title>Node4</title>
<g id="a_node4"><a xlink:href="classsierra_1_1nalu_1_1_n_g_p_node_kernel.html" target="_top" xlink:title=" ">
<polygon fill="white" stroke="black" points="108,-146.5 108,-165.5 291,-165.5 291,-146.5 108,-146.5"/>
<text text-anchor="middle" x="199.5" y="-153.5" font-family="Helvetica,sans-Serif" font-size="10.00">sierra::nalu::NGPNodeKernel&lt; T &gt;</text>
</a>
</g>
</g>
<!-- Node3&#45;&gt;Node4 -->
<g id="edge4" class="edge">
<title>Node3&#45;&gt;Node4</title>
<path fill="none" stroke="midnightblue" d="M117.39,-198.82C137.66,-188.49 165.27,-174.43 182.74,-165.53"/>
<polygon fill="midnightblue" stroke="midnightblue" points="115.7,-195.75 108.38,-203.41 118.87,-201.99 115.7,-195.75"/>
</g>
<!-- Node4&#45;&gt;Node2 -->
<g id="edge3" class="edge">
<title>Node4&#45;&gt;Node2</title>
<path fill="none" stroke="orange" stroke-dasharray="5,2" d="M178.06,-140.47C159.95,-128.19 134.18,-110.72 116.26,-98.58"/>
<polygon fill="orange" stroke="orange" points="176.51,-143.64 186.75,-146.36 180.43,-137.85 176.51,-143.64"/>
<text text-anchor="middle" x="245.5" y="-120" font-family="Helvetica,sans-Serif" font-size="10.00"> &lt; ContinuityMassBDFNodeKernel &gt;</text>
</g>
</g>
</svg>
