<?xml version="1.0" encoding="UTF-8" standalone="no"?>
<!DOCTYPE svg PUBLIC "-//W3C//DTD SVG 1.1//EN"
 "http://www.w3.org/Graphics/SVG/1.1/DTD/svg11.dtd">
<!-- Generated by graphviz version 2.43.0 (0)
 -->
<!-- Title: tioga_nalu::TiogaBlock Pages: 1 -->
<svg width="968pt" height="421pt"
 viewBox="0.00 0.00 968.00 420.50" xmlns="http://www.w3.org/2000/svg" xmlns:xlink="http://www.w3.org/1999/xlink">
<g id="graph0" class="graph" transform="scale(1 1) rotate(0) translate(4 416.5)">
<title>tioga_nalu::TiogaBlock</title>
<polygon fill="white" stroke="transparent" points="-4,4 -4,-416.5 964,-416.5 964,4 -4,4"/>
<!-- Node1 -->
<g id="node1" class="node">
<title>Node1</title>
<g id="a_node1"><a xlink:title="Interface to convert STK Mesh Part(s) to TIOGA blocks.">
<polygon fill="#bfbfbf" stroke="black" points="832,-247 832,-266 960,-266 960,-247 832,-247"/>
<text text-anchor="middle" x="896" y="-254" font-family="Helvetica,sans-Serif" font-size="10.00">tioga_nalu::TiogaBlock</text>
</a>
</g>
</g>
<!-- Node2 -->
<g id="node2" class="node">
<title>Node2</title>
<g id="a_node2"><a xlink:title=" ">
<polygon fill="white" stroke="#bfbfbf" points="593,-392 593,-411 706,-411 706,-392 593,-392"/>
<text text-anchor="middle" x="649.5" y="-399" font-family="Helvetica,sans-Serif" font-size="10.00">std::map&lt; int, int &gt;</text>
</a>
</g>
</g>
<!-- Node2&#45;&gt;Node1 -->
<g id="edge1" class="edge">
<title>Node2&#45;&gt;Node1</title>
<path fill="none" stroke="#9a32cd" stroke-dasharray="5,2" d="M716.33,-404.4C748,-402.9 785.22,-396.63 814,-378.5 857.88,-350.85 883.26,-289.8 891.76,-266.13"/>
<polygon fill="#9a32cd" stroke="#9a32cd" points="716.15,-400.9 706.27,-404.73 716.38,-407.9 716.15,-400.9"/>
<text text-anchor="middle" x="777.5" y="-404.5" font-family="Helvetica,sans-Serif" font-size="10.00"> conn_map_</text>
</g>
<!-- Node3 -->
<g id="node3" class="node">
<title>Node3</title>
<g id="a_node3"><a xlink:title=" ">
<polygon fill="white" stroke="#bfbfbf" points="334,-390 334,-409 435,-409 435,-390 334,-390"/>
<text text-anchor="middle" x="384.5" y="-397" font-family="Helvetica,sans-Serif" font-size="10.00">std::map&lt; K, T &gt;</text>
</a>
</g>
</g>
<!-- Node3&#45;&gt;Node2 -->
<g id="edge2" class="edge">
<title>Node3&#45;&gt;Node2</title>
<path fill="none" stroke="orange" stroke-dasharray="5,2" d="M445.31,-399.95C489.51,-400.29 549.29,-400.75 592.55,-401.07"/>
<polygon fill="orange" stroke="orange" points="445.3,-396.45 435.28,-399.88 445.25,-403.45 445.3,-396.45"/>
<text text-anchor="middle" x="520.5" y="-403.5" font-family="Helvetica,sans-Serif" font-size="10.00"> &lt; int, int &gt;</text>
</g>
<!-- Node4 -->
<g id="node4" class="node">
<title>Node4</title>
<g id="a_node4"><a xlink:title=" ">
<polygon fill="white" stroke="#bfbfbf" points="56.5,-390 56.5,-409 85.5,-409 85.5,-390 56.5,-390"/>
<text text-anchor="middle" x="71" y="-397" font-family="Helvetica,sans-Serif" font-size="10.00">K</text>
</a>
</g>
</g>
<!-- Node4&#45;&gt;Node3 -->
<g id="edge3" class="edge">
<title>Node4&#45;&gt;Node3</title>
<path fill="none" stroke="#9a32cd" stroke-dasharray="5,2" d="M96.1,-399.5C146.97,-399.5 266.17,-399.5 334,-399.5"/>
<polygon fill="#9a32cd" stroke="#9a32cd" points="95.79,-396 85.79,-399.5 95.79,-403 95.79,-396"/>
<text text-anchor="middle" x="223" y="-402.5" font-family="Helvetica,sans-Serif" font-size="10.00"> keys</text>
</g>
<!-- Node5 -->
<g id="node5" class="node">
<title>Node5</title>
<g id="a_node5"><a xlink:title=" ">
<polygon fill="white" stroke="#bfbfbf" points="56.5,-333 56.5,-352 85.5,-352 85.5,-333 56.5,-333"/>
<text text-anchor="middle" x="71" y="-340" font-family="Helvetica,sans-Serif" font-size="10.00">T</text>
</a>
</g>
</g>
<!-- Node5&#45;&gt;Node3 -->
<g id="edge4" class="edge">
<title>Node5&#45;&gt;Node3</title>
<path fill="none" stroke="#9a32cd" stroke-dasharray="5,2" d="M95.78,-346.85C146.47,-356.13 266.03,-378 334,-390.44"/>
<polygon fill="#9a32cd" stroke="#9a32cd" points="96.25,-343.38 85.79,-345.02 94.99,-350.27 96.25,-343.38"/>
<text text-anchor="middle" x="223" y="-383.5" font-family="Helvetica,sans-Serif" font-size="10.00"> elements</text>
</g>
<!-- Node10 -->
<g id="node10" class="node">
<title>Node10</title>
<g id="a_node10"><a xlink:title=" ">
<polygon fill="white" stroke="#bfbfbf" points="336,-315 336,-334 433,-334 433,-315 336,-315"/>
<text text-anchor="middle" x="384.5" y="-322" font-family="Helvetica,sans-Serif" font-size="10.00">std::vector&lt; T &gt;</text>
</a>
</g>
</g>
<!-- Node5&#45;&gt;Node10 -->
<g id="edge10" class="edge">
<title>Node5&#45;&gt;Node10</title>
<path fill="none" stroke="#9a32cd" stroke-dasharray="5,2" d="M95.66,-338.56C113.34,-335.8 138.11,-332.28 160,-330.5 220.55,-325.57 290.59,-324.43 335.9,-324.28"/>
<polygon fill="#9a32cd" stroke="#9a32cd" points="94.99,-335.13 85.67,-340.17 96.1,-342.04 94.99,-335.13"/>
<text text-anchor="middle" x="223" y="-333.5" font-family="Helvetica,sans-Serif" font-size="10.00"> elements</text>
</g>
<!-- Node6 -->
<g id="node6" class="node">
<title>Node6</title>
<g id="a_node6"><a xlink:href="classtioga__nalu_1_1_tioga_options.html" target="_top" xlink:title="Options to control TIOGA overset hole&#45;cut behavior.">
<polygon fill="white" stroke="black" points="580.5,-168 580.5,-187 718.5,-187 718.5,-168 580.5,-168"/>
<text text-anchor="middle" x="649.5" y="-175" font-family="Helvetica,sans-Serif" font-size="10.00">tioga_nalu::TiogaOptions</text>
</a>
</g>
</g>
<!-- Node6&#45;&gt;Node1 -->
<g id="edge5" class="edge">
<title>Node6&#45;&gt;Node1</title>
<path fill="none" stroke="#9a32cd" stroke-dasharray="5,2" d="M728.81,-179.71C756.47,-182.51 787.31,-188.01 814,-198.5 842.65,-209.76 870.62,-233.4 885,-246.77"/>
<polygon fill="#9a32cd" stroke="#9a32cd" points="729.06,-176.22 718.78,-178.79 728.42,-183.19 729.06,-176.22"/>
<text text-anchor="middle" x="777.5" y="-201.5" font-family="Helvetica,sans-Serif" font-size="10.00"> tiogaOpts_</text>
</g>
<!-- Node7 -->
<g id="node7" class="node">
<title>Node7</title>
<g id="a_node7"><a xlink:title=" ">
<polygon fill="white" stroke="#bfbfbf" points="352,-230 352,-249 417,-249 417,-230 352,-230"/>
<text text-anchor="middle" x="384.5" y="-237" font-family="Helvetica,sans-Serif" font-size="10.00">std::string</text>
</a>
</g>
</g>
<!-- Node7&#45;&gt;Node1 -->
<g id="edge6" class="edge">
<title>Node7&#45;&gt;Node1</title>
<path fill="none" stroke="#9a32cd" stroke-dasharray="5,2" d="M427.26,-236.22C491.07,-231.76 616.67,-225.12 723,-232.5 762.55,-235.25 806.85,-241.5 840.59,-246.94"/>
<polygon fill="#9a32cd" stroke="#9a32cd" points="426.91,-232.74 417.19,-236.94 427.41,-239.72 426.91,-232.74"/>
<text text-anchor="middle" x="649.5" y="-246.5" font-family="Helvetica,sans-Serif" font-size="10.00"> block_name_</text>
<text text-anchor="middle" x="649.5" y="-235.5" font-family="Helvetica,sans-Serif" font-size="10.00">coords_name_</text>
</g>
<!-- Node17 -->
<g id="node17" class="node">
<title>Node17</title>
<g id="a_node17"><a xlink:title=" ">
<polygon fill="white" stroke="#bfbfbf" points="579.5,-264 579.5,-283 719.5,-283 719.5,-264 579.5,-264"/>
<text text-anchor="middle" x="649.5" y="-271" font-family="Helvetica,sans-Serif" font-size="10.00">std::vector&lt; std::string &gt;</text>
</a>
</g>
</g>
<!-- Node7&#45;&gt;Node17 -->
<g id="edge21" class="edge">
<title>Node7&#45;&gt;Node17</title>
<path fill="none" stroke="#9a32cd" stroke-dasharray="5,2" d="M427.37,-243.03C462.37,-246.18 513.55,-251.26 558,-257.5 571.11,-259.34 585.24,-261.67 598.34,-263.98"/>
<polygon fill="#9a32cd" stroke="#9a32cd" points="427.33,-239.51 417.06,-242.12 426.71,-246.49 427.33,-239.51"/>
<text text-anchor="middle" x="520.5" y="-260.5" font-family="Helvetica,sans-Serif" font-size="10.00"> elements</text>
</g>
<!-- Node8 -->
<g id="node8" class="node">
<title>Node8</title>
<g id="a_node8"><a xlink:title=" ">
<polygon fill="white" stroke="#bfbfbf" points="19,-224.5 19,-254.5 123,-254.5 123,-224.5 19,-224.5"/>
<text text-anchor="start" x="27" y="-242.5" font-family="Helvetica,sans-Serif" font-size="10.00">std::basic_string&lt;</text>
<text text-anchor="middle" x="71" y="-231.5" font-family="Helvetica,sans-Serif" font-size="10.00"> Char &gt;</text>
</a>
</g>
</g>
<!-- Node8&#45;&gt;Node7 -->
<g id="edge7" class="edge">
<title>Node8&#45;&gt;Node7</title>
<path fill="none" stroke="midnightblue" d="M133.31,-239.5C199.02,-239.5 300.74,-239.5 351.88,-239.5"/>
<polygon fill="midnightblue" stroke="midnightblue" points="133.09,-236 123.09,-239.5 133.09,-243 133.09,-236"/>
</g>
<!-- Node9 -->
<g id="node9" class="node">
<title>Node9</title>
<g id="a_node9"><a xlink:title=" ">
<polygon fill="white" stroke="#bfbfbf" points="590.5,-345 590.5,-364 708.5,-364 708.5,-345 590.5,-345"/>
<text text-anchor="middle" x="649.5" y="-352" font-family="Helvetica,sans-Serif" font-size="10.00">std::vector&lt; Part * &gt;</text>
</a>
</g>
</g>
<!-- Node9&#45;&gt;Node1 -->
<g id="edge8" class="edge">
<title>Node9&#45;&gt;Node1</title>
<path fill="none" stroke="#9a32cd" stroke-dasharray="5,2" d="M718.56,-346.93C748.8,-341.82 784.21,-333.38 814,-319.5 843.07,-305.96 871.3,-280.31 885.51,-266.28"/>
<polygon fill="#9a32cd" stroke="#9a32cd" points="717.84,-343.5 708.52,-348.54 718.94,-350.41 717.84,-343.5"/>
<text text-anchor="middle" x="777.5" y="-366.5" font-family="Helvetica,sans-Serif" font-size="10.00"> blkParts_</text>
<text text-anchor="middle" x="777.5" y="-355.5" font-family="Helvetica,sans-Serif" font-size="10.00">ovsetParts_</text>
<text text-anchor="middle" x="777.5" y="-344.5" font-family="Helvetica,sans-Serif" font-size="10.00">wallParts_</text>
</g>
<!-- Node10&#45;&gt;Node9 -->
<g id="edge9" class="edge">
<title>Node10&#45;&gt;Node9</title>
<path fill="none" stroke="orange" stroke-dasharray="5,2" d="M443.29,-331.09C486.89,-336.07 546.47,-342.86 590.2,-347.85"/>
<polygon fill="orange" stroke="orange" points="443.46,-327.59 433.13,-329.93 442.67,-334.54 443.46,-327.59"/>
<text text-anchor="middle" x="520.5" y="-346.5" font-family="Helvetica,sans-Serif" font-size="10.00"> &lt; Part * &gt;</text>
</g>
<!-- Node11 -->
<g id="node11" class="node">
<title>Node11</title>
<g id="a_node11"><a xlink:title=" ">
<polygon fill="white" stroke="#bfbfbf" points="597.5,-305 597.5,-324 701.5,-324 701.5,-305 597.5,-305"/>
<text text-anchor="middle" x="649.5" y="-312" font-family="Helvetica,sans-Serif" font-size="10.00">std::vector&lt; int &gt;</text>
</a>
</g>
</g>
<!-- Node10&#45;&gt;Node11 -->
<g id="edge12" class="edge">
<title>Node10&#45;&gt;Node11</title>
<path fill="none" stroke="orange" stroke-dasharray="5,2" d="M443.24,-322.3C489.22,-320.56 552.98,-318.13 597.18,-316.45"/>
<polygon fill="orange" stroke="orange" points="442.99,-318.81 433.13,-322.69 443.25,-325.81 442.99,-318.81"/>
<text text-anchor="middle" x="520.5" y="-323.5" font-family="Helvetica,sans-Serif" font-size="10.00"> &lt; int &gt;</text>
</g>
<!-- Node10&#45;&gt;Node17 -->
<g id="edge22" class="edge">
<title>Node10&#45;&gt;Node17</title>
<path fill="none" stroke="orange" stroke-dasharray="5,2" d="M435.91,-312.64C451.02,-309.21 467.65,-305.57 483,-302.5 518.47,-295.4 558.4,-288.37 590.16,-283.01"/>
<polygon fill="orange" stroke="orange" points="434.7,-309.32 425.73,-314.96 436.26,-316.15 434.7,-309.32"/>
<text text-anchor="middle" x="520.5" y="-305.5" font-family="Helvetica,sans-Serif" font-size="10.00"> &lt; std::string &gt;</text>
</g>
<!-- Node11&#45;&gt;Node1 -->
<g id="edge11" class="edge">
<title>Node11&#45;&gt;Node1</title>
<path fill="none" stroke="#9a32cd" stroke-dasharray="5,2" d="M711.87,-309.19C742.87,-305.58 780.85,-299.73 814,-290.5 836.04,-284.36 860.06,-273.74 876.17,-266"/>
<polygon fill="#9a32cd" stroke="#9a32cd" points="711.19,-305.74 701.64,-310.33 711.96,-312.7 711.19,-305.74"/>
<text text-anchor="middle" x="777.5" y="-307.5" font-family="Helvetica,sans-Serif" font-size="10.00"> receptor_info_</text>
</g>
<!-- Node12 -->
<g id="node12" class="node">
<title>Node12</title>
<g id="a_node12"><a xlink:href="structtioga__nalu_1_1_ngp_tioga_block.html" target="_top" xlink:title="Data representing an unstructured mesh block.">
<polygon fill="white" stroke="black" points="576,-89 576,-108 723,-108 723,-89 576,-89"/>
<text text-anchor="middle" x="649.5" y="-96" font-family="Helvetica,sans-Serif" font-size="10.00">tioga_nalu::NgpTiogaBlock</text>
</a>
</g>
</g>
<!-- Node12&#45;&gt;Node1 -->
<g id="edge13" class="edge">
<title>Node12&#45;&gt;Node1</title>
<path fill="none" stroke="#9a32cd" stroke-dasharray="5,2" d="M695.1,-111.1C729.59,-122.19 777.46,-140.63 814,-166.5 846.94,-189.82 876.03,-228.79 888.52,-246.81"/>
<polygon fill="#9a32cd" stroke="#9a32cd" points="695.89,-107.68 685.3,-108.03 693.79,-114.36 695.89,-107.68"/>
<text text-anchor="middle" x="777.5" y="-169.5" font-family="Helvetica,sans-Serif" font-size="10.00"> bdata_</text>
</g>
<!-- Node13 -->
<g id="node13" class="node">
<title>Node13</title>
<g id="a_node13"><a xlink:href="structtioga__nalu_1_1_overset_array_type.html" target="_top" xlink:title=" ">
<polygon fill="white" stroke="black" points="315.5,-105.5 315.5,-135.5 453.5,-135.5 453.5,-105.5 315.5,-105.5"/>
<text text-anchor="start" x="323.5" y="-123.5" font-family="Helvetica,sans-Serif" font-size="10.00">tioga_nalu::OversetArray</text>
<text text-anchor="middle" x="384.5" y="-112.5" font-family="Helvetica,sans-Serif" font-size="10.00">Type&lt; int * &gt;</text>
</a>
</g>
</g>
<!-- Node13&#45;&gt;Node12 -->
<g id="edge14" class="edge">
<title>Node13&#45;&gt;Node12</title>
<path fill="none" stroke="#9a32cd" stroke-dasharray="5,2" d="M463.87,-113.94C499.29,-110.98 540.9,-107.5 575.64,-104.59"/>
<polygon fill="#9a32cd" stroke="#9a32cd" points="463.24,-110.48 453.57,-114.81 463.83,-117.46 463.24,-110.48"/>
<text text-anchor="middle" x="520.5" y="-191.5" font-family="Helvetica,sans-Serif" font-size="10.00"> connect_</text>
<text text-anchor="middle" x="520.5" y="-180.5" font-family="Helvetica,sans-Serif" font-size="10.00">eid_map_</text>
<text text-anchor="middle" x="520.5" y="-169.5" font-family="Helvetica,sans-Serif" font-size="10.00">iblank_</text>
<text text-anchor="middle" x="520.5" y="-158.5" font-family="Helvetica,sans-Serif" font-size="10.00">iblank_cell_</text>
<text text-anchor="middle" x="520.5" y="-147.5" font-family="Helvetica,sans-Serif" font-size="10.00">num_cells_</text>
<text text-anchor="middle" x="520.5" y="-136.5" font-family="Helvetica,sans-Serif" font-size="10.00">num_verts_</text>
<text text-anchor="middle" x="520.5" y="-125.5" font-family="Helvetica,sans-Serif" font-size="10.00">ovsetIDs_</text>
<text text-anchor="middle" x="520.5" y="-114.5" font-family="Helvetica,sans-Serif" font-size="10.00">wallIDs_</text>
</g>
<!-- Node14 -->
<g id="node14" class="node">
<title>Node14</title>
<g id="a_node14"><a xlink:href="structtioga__nalu_1_1_overset_array_type.html" target="_top" xlink:title=" ">
<polygon fill="white" stroke="black" points="0,-56.5 0,-86.5 142,-86.5 142,-56.5 0,-56.5"/>
<text text-anchor="start" x="8" y="-74.5" font-family="Helvetica,sans-Serif" font-size="10.00">tioga_nalu::OversetArray</text>
<text text-anchor="middle" x="71" y="-63.5" font-family="Helvetica,sans-Serif" font-size="10.00">Type&lt; T, Layout, Space &gt;</text>
</a>
</g>
</g>
<!-- Node14&#45;&gt;Node13 -->
<g id="edge15" class="edge">
<title>Node14&#45;&gt;Node13</title>
<path fill="none" stroke="orange" stroke-dasharray="5,2" d="M151.98,-85.2C154.69,-85.64 157.37,-86.08 160,-86.5 212.12,-94.91 271.16,-103.86 315.47,-110.47"/>
<polygon fill="orange" stroke="orange" points="152.55,-81.74 142.11,-83.57 151.41,-88.65 152.55,-81.74"/>
<text text-anchor="middle" x="223" y="-107.5" font-family="Helvetica,sans-Serif" font-size="10.00"> &lt; int * &gt;</text>
</g>
<!-- Node15 -->
<g id="node15" class="node">
<title>Node15</title>
<g id="a_node15"><a xlink:href="structtioga__nalu_1_1_overset_array_type.html" target="_top" xlink:title=" ">
<polygon fill="white" stroke="black" points="304,-56.5 304,-86.5 465,-86.5 465,-56.5 304,-56.5"/>
<text text-anchor="start" x="312" y="-74.5" font-family="Helvetica,sans-Serif" font-size="10.00">tioga_nalu::OversetArray</text>
<text text-anchor="middle" x="384.5" y="-63.5" font-family="Helvetica,sans-Serif" font-size="10.00">Type&lt; stk::mesh::EntityId * &gt;</text>
</a>
</g>
</g>
<!-- Node14&#45;&gt;Node15 -->
<g id="edge17" class="edge">
<title>Node14&#45;&gt;Node15</title>
<path fill="none" stroke="orange" stroke-dasharray="5,2" d="M152.35,-71.5C198.94,-71.5 257.39,-71.5 303.86,-71.5"/>
<polygon fill="orange" stroke="orange" points="152.3,-68 142.3,-71.5 152.3,-75 152.3,-68"/>
<text text-anchor="middle" x="223" y="-74.5" font-family="Helvetica,sans-Serif" font-size="10.00"> &lt; stk::mesh::EntityId * &gt;</text>
</g>
<!-- Node16 -->
<g id="node16" class="node">
<title>Node16</title>
<g id="a_node16"><a xlink:href="structtioga__nalu_1_1_overset_array_type.html" target="_top" xlink:title=" ">
<polygon fill="white" stroke="black" points="315.5,-0.5 315.5,-30.5 453.5,-30.5 453.5,-0.5 315.5,-0.5"/>
<text text-anchor="start" x="323.5" y="-18.5" font-family="Helvetica,sans-Serif" font-size="10.00">tioga_nalu::OversetArray</text>
<text text-anchor="middle" x="384.5" y="-7.5" font-family="Helvetica,sans-Serif" font-size="10.00">Type&lt; double * &gt;</text>
</a>
</g>
</g>
<!-- Node14&#45;&gt;Node16 -->
<g id="edge19" class="edge">
<title>Node14&#45;&gt;Node16</title>
<path fill="none" stroke="orange" stroke-dasharray="5,2" d="M152.21,-57.08C202.74,-48 267.28,-36.39 315.33,-27.75"/>
<polygon fill="orange" stroke="orange" points="151.52,-53.65 142.3,-58.86 152.76,-60.54 151.52,-53.65"/>
<text text-anchor="middle" x="223" y="-58.5" font-family="Helvetica,sans-Serif" font-size="10.00"> &lt; double * &gt;</text>
</g>
<!-- Node15&#45;&gt;Node12 -->
<g id="edge16" class="edge">
<title>Node15&#45;&gt;Node12</title>
<path fill="none" stroke="#9a32cd" stroke-dasharray="5,2" d="M475.27,-72.93C501.97,-74.09 531.23,-76.09 558,-79.5 575.2,-81.69 593.99,-85.41 609.98,-88.99"/>
<polygon fill="#9a32cd" stroke="#9a32cd" points="475.3,-69.43 465.17,-72.52 475.02,-76.42 475.3,-69.43"/>
<text text-anchor="middle" x="520.5" y="-93.5" font-family="Helvetica,sans-Serif" font-size="10.00"> cell_gid_</text>
<text text-anchor="middle" x="520.5" y="-82.5" font-family="Helvetica,sans-Serif" font-size="10.00">node_gid_</text>
</g>
<!-- Node16&#45;&gt;Node12 -->
<g id="edge18" class="edge">
<title>Node16&#45;&gt;Node12</title>
<path fill="none" stroke="#9a32cd" stroke-dasharray="5,2" d="M463.99,-9.35C494.26,-9.59 528.6,-13.14 558,-24.5 593.78,-38.33 626.06,-72.07 640.5,-88.79"/>
<polygon fill="#9a32cd" stroke="#9a32cd" points="463.88,-5.85 453.89,-9.39 463.91,-12.85 463.88,-5.85"/>
<text text-anchor="middle" x="520.5" y="-60.5" font-family="Helvetica,sans-Serif" font-size="10.00"> cell_res_</text>
<text text-anchor="middle" x="520.5" y="-49.5" font-family="Helvetica,sans-Serif" font-size="10.00">node_res_</text>
<text text-anchor="middle" x="520.5" y="-38.5" font-family="Helvetica,sans-Serif" font-size="10.00">qsol_</text>
<text text-anchor="middle" x="520.5" y="-27.5" font-family="Helvetica,sans-Serif" font-size="10.00">xyz_</text>
</g>
<!-- Node17&#45;&gt;Node1 -->
<g id="edge20" class="edge">
<title>Node17&#45;&gt;Node1</title>
<path fill="none" stroke="#9a32cd" stroke-dasharray="5,2" d="M705.85,-262.19C717.42,-260.26 729.57,-258.54 741,-257.5 770.82,-254.79 804.03,-254.26 831.95,-254.52"/>
<polygon fill="#9a32cd" stroke="#9a32cd" points="705.12,-258.77 695.87,-263.94 706.33,-265.66 705.12,-258.77"/>
<text text-anchor="middle" x="777.5" y="-282.5" font-family="Helvetica,sans-Serif" font-size="10.00"> blkNames_</text>
<text text-anchor="middle" x="777.5" y="-271.5" font-family="Helvetica,sans-Serif" font-size="10.00">ovsetNames_</text>
<text text-anchor="middle" x="777.5" y="-260.5" font-family="Helvetica,sans-Serif" font-size="10.00">wallNames_</text>
</g>
</g>
</svg>
