<?xml version="1.0" encoding="UTF-8" standalone="no"?>
<!DOCTYPE svg PUBLIC "-//W3C//DTD SVG 1.1//EN"
 "http://www.w3.org/Graphics/SVG/1.1/DTD/svg11.dtd">
<!-- Generated by graphviz version 2.43.0 (0)
 -->
<!-- Title: sierra::nalu::BSpline2D Pages: 1 -->
<!--zoomable 119 -->
<svg id="main" version="1.1" xmlns="http://www.w3.org/2000/svg" xmlns:xlink="http://www.w3.org/1999/xlink" xml:space="preserve" onload="init(evt)">
<style type="text/css"><![CDATA[
.edge:hover path { stroke: red; }
.edge:hover polygon { stroke: red; fill: red; }
]]></style>
<script type="text/javascript"><![CDATA[
var edges = document.getElementsByTagName('g');
if (edges && edges.length) {
  for (var i=0;i<edges.length;i++) {
    if (edges[i].id.substr(0,4)=='edge') {
      edges[i].setAttribute('class','edge');
    }
  }
}
]]></script>
        <defs>
                <circle id="rim" cx="0" cy="0" r="7"/>
                <circle id="rim2" cx="0" cy="0" r="3.5"/>
                <g id="zoomPlus">
                        <use xlink:href="#rim" fill="#404040">
                                <set attributeName="fill" to="#808080" begin="zoomplus.mouseover" end="zoomplus.mouseout"/>
                        </use>
                        <path d="M-4,0h8M0,-4v8" fill="none" stroke="white" stroke-width="1.5" pointer-events="none"/>
                </g>
                <g id="zoomMin">
                        <use xlink:href="#rim" fill="#404040">
                                <set attributeName="fill" to="#808080" begin="zoomminus.mouseover" end="zoomminus.mouseout"/>
                        </use>
                        <path d="M-4,0h8" fill="none" stroke="white" stroke-width="1.5" pointer-events="none"/>
                </g>
                <g id="dirArrow">
                        <path fill="none" stroke="white" stroke-width="1.5" d="M0,-3.0v7 M-2.5,-0.5L0,-3.0L2.5,-0.5"/>
                </g>
               <g id="resetDef">
                       <use xlink:href="#rim2" fill="#404040">
                               <set attributeName="fill" to="#808080" begin="reset.mouseover" end="reset.mouseout"/>
                       </use>
               </g>
        </defs>

<script type="text/javascript">
var viewWidth = 1169;
var viewHeight = 119;
var sectionId = 'dynsection-1';
</script>
<script xlink:href="svgpan.js"/>
<svg id="graph" class="graph">
<g id="viewport">
<title>sierra::nalu::BSpline2D</title>
<polygon fill="white" stroke="transparent" points="-4,4 -4,-114.5 1165,-114.5 1165,4 -4,4"/>
<!-- Node1 -->
<g id="node1" class="node">
<title>Node1</title>
<g id="a_node1"><a xlink:title=" ">
<polygon fill="#bfbfbf" stroke="black" points="1033,-58 1033,-77 1161,-77 1161,-58 1033,-58"/>
<text text-anchor="middle" x="1097" y="-65" font-family="Helvetica,sans-Serif" font-size="10.00">sierra::nalu::BSpline2D</text>
</a>
</g>
</g>
<!-- Node2 -->
<g id="node2" class="node">
<title>Node2</title>
<g id="a_node2"><a xlink:href="classsierra_1_1nalu_1_1_b_spline.html" target="_top" xlink:title="Base class for B&#45;Splines.">
<polygon fill="white" stroke="black" points="311,-91 311,-110 425,-110 425,-91 311,-91"/>
<text text-anchor="middle" x="368" y="-98" font-family="Helvetica,sans-Serif" font-size="10.00">sierra::nalu::BSpline</text>
</a>
</g>
</g>
<!-- Node2&#45;&gt;Node1 -->
<g id="edge1" class="edge">
<title>Node2&#45;&gt;Node1</title>
<path fill="none" stroke="midnightblue" d="M435.25,-98.8C468.75,-97.9 510.04,-96.73 547,-95.5 755.04,-88.58 807.52,-94.27 1015,-77.5 1020.79,-77.03 1026.8,-76.46 1032.82,-75.82"/>
<polygon fill="midnightblue" stroke="midnightblue" points="435.03,-95.31 425.12,-99.07 435.21,-102.3 435.03,-95.31"/>
</g>
<!-- Node3 -->
<g id="node3" class="node">
<title>Node3</title>
<g id="a_node3"><a xlink:href="classsierra_1_1nalu_1_1_b_spline1_d.html" target="_top" xlink:title="Support for B&#45;Spline of a curve.">
<polygon fill="white" stroke="black" points="565,-44 565,-63 693,-63 693,-44 565,-44"/>
<text text-anchor="middle" x="629" y="-51" font-family="Helvetica,sans-Serif" font-size="10.00">sierra::nalu::BSpline1D</text>
</a>
</g>
</g>
<!-- Node2&#45;&gt;Node3 -->
<g id="edge3" class="edge">
<title>Node2&#45;&gt;Node3</title>
<path fill="none" stroke="midnightblue" d="M435.55,-92.52C469.12,-88.06 510.38,-81.9 547,-74.5 562.81,-71.31 580.13,-66.93 594.69,-63.01"/>
<polygon fill="midnightblue" stroke="midnightblue" points="434.85,-89.09 425.39,-93.86 435.76,-96.03 434.85,-89.09"/>
</g>
<!-- Node3&#45;&gt;Node1 -->
<g id="edge2" class="edge">
<title>Node3&#45;&gt;Node1</title>
<path fill="none" stroke="#9a32cd" stroke-dasharray="5,2" d="M703.54,-55.71C794.3,-58.44 947.1,-63.03 1032.81,-65.6"/>
<polygon fill="#9a32cd" stroke="#9a32cd" points="703.43,-52.2 693.33,-55.4 703.22,-59.2 703.43,-52.2"/>
<text text-anchor="middle" x="853" y="-64.5" font-family="Helvetica,sans-Serif" font-size="10.00"> sp1_</text>
</g>
<!-- Node7 -->
<g id="node7" class="node">
<title>Node7</title>
<g id="a_node7"><a xlink:title=" ">
<polygon fill="white" stroke="#bfbfbf" points="778,-0.5 778,-30.5 928,-30.5 928,-0.5 778,-0.5"/>
<text text-anchor="start" x="786" y="-18.5" font-family="Helvetica,sans-Serif" font-size="10.00">std::vector&lt; const</text>
<text text-anchor="middle" x="853" y="-7.5" font-family="Helvetica,sans-Serif" font-size="10.00"> sierra::nalu::BSpline1D * &gt;</text>
</a>
</g>
</g>
<!-- Node3&#45;&gt;Node7 -->
<g id="edge8" class="edge">
<title>Node3&#45;&gt;Node7</title>
<path fill="none" stroke="#9a32cd" stroke-dasharray="5,2" d="M695.77,-42.24C721.54,-37.83 751.24,-32.75 777.77,-28.21"/>
<polygon fill="#9a32cd" stroke="#9a32cd" points="695,-38.82 685.73,-43.96 696.18,-45.72 695,-38.82"/>
<text text-anchor="middle" x="735.5" y="-42.5" font-family="Helvetica,sans-Serif" font-size="10.00"> elements</text>
</g>
<!-- Node4 -->
<g id="node4" class="node">
<title>Node4</title>
<g id="a_node4"><a xlink:title=" ">
<polygon fill="white" stroke="#bfbfbf" points="306,-28 306,-47 430,-47 430,-28 306,-28"/>
<text text-anchor="middle" x="368" y="-35" font-family="Helvetica,sans-Serif" font-size="10.00">std::vector&lt; double &gt;</text>
</a>
</g>
</g>
<!-- Node4&#45;&gt;Node3 -->
<g id="edge4" class="edge">
<title>Node4&#45;&gt;Node3</title>
<path fill="none" stroke="#9a32cd" stroke-dasharray="5,2" d="M440.4,-37.08C472.96,-37.4 511.98,-38.52 547,-41.5 554.37,-42.13 562.08,-42.99 569.7,-43.98"/>
<polygon fill="#9a32cd" stroke="#9a32cd" points="440.09,-33.57 430.06,-37 440.04,-40.57 440.09,-33.57"/>
<text text-anchor="middle" x="497.5" y="-66.5" font-family="Helvetica,sans-Serif" font-size="10.00"> basisFun_</text>
<text text-anchor="middle" x="497.5" y="-55.5" font-family="Helvetica,sans-Serif" font-size="10.00">controlPts_</text>
<text text-anchor="middle" x="497.5" y="-44.5" font-family="Helvetica,sans-Serif" font-size="10.00">knots_</text>
</g>
<!-- Node5 -->
<g id="node5" class="node">
<title>Node5</title>
<g id="a_node5"><a xlink:title=" ">
<polygon fill="white" stroke="#bfbfbf" points="114,-2 114,-21 211,-21 211,-2 114,-2"/>
<text text-anchor="middle" x="162.5" y="-9" font-family="Helvetica,sans-Serif" font-size="10.00">std::vector&lt; T &gt;</text>
</a>
</g>
</g>
<!-- Node5&#45;&gt;Node4 -->
<g id="edge5" class="edge">
<title>Node5&#45;&gt;Node4</title>
<path fill="none" stroke="orange" stroke-dasharray="5,2" d="M221.42,-18.9C247.76,-22.27 278.95,-26.25 305.68,-29.67"/>
<polygon fill="orange" stroke="orange" points="221.57,-15.39 211.21,-17.6 220.69,-22.34 221.57,-15.39"/>
<text text-anchor="middle" x="258.5" y="-30.5" font-family="Helvetica,sans-Serif" font-size="10.00"> &lt; double &gt;</text>
</g>
<!-- Node5&#45;&gt;Node7 -->
<g id="edge9" class="edge">
<title>Node5&#45;&gt;Node7</title>
<path fill="none" stroke="orange" stroke-dasharray="5,2" d="M221.21,-11.26C296.26,-11.01 431.43,-10.74 547,-11.5 625.77,-12.02 715.98,-13.28 777.73,-14.25"/>
<polygon fill="orange" stroke="orange" points="221.02,-7.76 211.03,-11.3 221.04,-14.76 221.02,-7.76"/>
<text text-anchor="start" x="448" y="-25.5" font-family="Helvetica,sans-Serif" font-size="10.00"> &lt; const sierra::nalu</text>
<text text-anchor="middle" x="497.5" y="-14.5" font-family="Helvetica,sans-Serif" font-size="10.00">::BSpline1D * &gt;</text>
</g>
<!-- Node6 -->
<g id="node6" class="node">
<title>Node6</title>
<g id="a_node6"><a xlink:title=" ">
<polygon fill="white" stroke="#bfbfbf" points="0,-2 0,-21 29,-21 29,-2 0,-2"/>
<text text-anchor="middle" x="14.5" y="-9" font-family="Helvetica,sans-Serif" font-size="10.00">T</text>
</a>
</g>
</g>
<!-- Node6&#45;&gt;Node5 -->
<g id="edge6" class="edge">
<title>Node6&#45;&gt;Node5</title>
<path fill="none" stroke="#9a32cd" stroke-dasharray="5,2" d="M39.39,-11.5C59.54,-11.5 89.02,-11.5 113.96,-11.5"/>
<polygon fill="#9a32cd" stroke="#9a32cd" points="39.24,-8 29.24,-11.5 39.24,-15 39.24,-8"/>
<text text-anchor="middle" x="71.5" y="-14.5" font-family="Helvetica,sans-Serif" font-size="10.00"> elements</text>
</g>
<!-- Node7&#45;&gt;Node1 -->
<g id="edge7" class="edge">
<title>Node7&#45;&gt;Node1</title>
<path fill="none" stroke="#9a32cd" stroke-dasharray="5,2" d="M938.28,-27.46C963.13,-31.57 990.28,-36.64 1015,-42.5 1032.9,-46.74 1052.63,-52.8 1068.14,-57.89"/>
<polygon fill="#9a32cd" stroke="#9a32cd" points="938.58,-23.97 928.15,-25.82 937.46,-30.87 938.58,-23.97"/>
<text text-anchor="middle" x="980.5" y="-45.5" font-family="Helvetica,sans-Serif" font-size="10.00"> dim2Splines_</text>
</g>
</g>
</svg>
        <g id="navigator" transform="translate(0 0)" fill="#404254">
                <rect fill="#f2f5e9" fill-opacity="0.5" stroke="#606060" stroke-width=".5" x="0" y="0" width="60" height="60"/>
                <use id="zoomplus" xlink:href="#zoomPlus" x="17" y="9" onmousedown="handleZoom(evt,'in')"/>
                <use id="zoomminus" xlink:href="#zoomMin" x="42" y="9" onmousedown="handleZoom(evt,'out')"/>
                <use id="reset" xlink:href="#resetDef" x="30" y="36" onmousedown="handleReset()"/>
                <g id="arrowUp" xlink:href="#dirArrow" transform="translate(30 24)" onmousedown="handlePan(0,-1)">
                  <use xlink:href="#rim" fill="#404040">
                        <set attributeName="fill" to="#808080" begin="arrowUp.mouseover" end="arrowUp.mouseout"/>
                  </use>
                  <path fill="none" stroke="white" stroke-width="1.5" d="M0,-3.0v7 M-2.5,-0.5L0,-3.0L2.5,-0.5"/>
                </g>
                <g id="arrowRight" xlink:href="#dirArrow" transform="rotate(90) translate(36 -43)" onmousedown="handlePan(1,0)">
                  <use xlink:href="#rim" fill="#404040">
                        <set attributeName="fill" to="#808080" begin="arrowRight.mouseover" end="arrowRight.mouseout"/>
                  </use>
                  <path fill="none" stroke="white" stroke-width="1.5" d="M0,-3.0v7 M-2.5,-0.5L0,-3.0L2.5,-0.5"/>
                </g>
                <g id="arrowDown" xlink:href="#dirArrow" transform="rotate(180) translate(-30 -48)" onmousedown="handlePan(0,1)">
                  <use xlink:href="#rim" fill="#404040">
                        <set attributeName="fill" to="#808080" begin="arrowDown.mouseover" end="arrowDown.mouseout"/>
                  </use>
                  <path fill="none" stroke="white" stroke-width="1.5" d="M0,-3.0v7 M-2.5,-0.5L0,-3.0L2.5,-0.5"/>
                </g>
                <g id="arrowLeft" xlink:href="#dirArrow" transform="rotate(270) translate(-36 17)" onmousedown="handlePan(-1,0)">
                  <use xlink:href="#rim" fill="#404040">
                        <set attributeName="fill" to="#808080" begin="arrowLeft.mouseover" end="arrowLeft.mouseout"/>
                  </use>
                  <path fill="none" stroke="white" stroke-width="1.5" d="M0,-3.0v7 M-2.5,-0.5L0,-3.0L2.5,-0.5"/>
                </g>
        </g>
        <svg viewBox="0 0 15 15" width="100%" height="30px" preserveAspectRatio="xMaxYMin meet">
         <g id="arrow_out" transform="scale(0.3 0.3)">
          <a xlink:href="classsierra_1_1nalu_1_1_b_spline2_d__coll__graph_org.svg" target="_base">
           <rect id="button" ry="5" rx="5" y="6" x="6" height="38" width="38"
                fill="#f2f5e9" fill-opacity="0.5" stroke="#606060" stroke-width="1.0"/>
           <path id="arrow"
             d="M 11.500037,31.436501 C 11.940474,20.09759 22.043105,11.32322 32.158766,21.979434 L 37.068811,17.246167 C 37.068811,17.246167 37.088388,32 37.088388,32 L 22.160133,31.978069 C 22.160133,31.978069 26.997745,27.140456 26.997745,27.140456 C 18.528582,18.264221 13.291696,25.230495 11.500037,31.436501 z"
             style="fill:#404040;"/>
          </a>
         </g>
        </svg>
</svg>
