<?xml version="1.0" encoding="UTF-8" standalone="no"?>
<!DOCTYPE svg PUBLIC "-//W3C//DTD SVG 1.1//EN"
 "http://www.w3.org/Graphics/SVG/1.1/DTD/svg11.dtd">
<!-- Generated by graphviz version 2.43.0 (0)
 -->
<!-- Title: sierra::nalu::MultiDimViews&lt; T, TEAMHANDLETYPE, SHMEM &gt; Pages: 1 -->
<svg width="604pt" height="278pt"
 viewBox="0.00 0.00 604.00 277.50" xmlns="http://www.w3.org/2000/svg" xmlns:xlink="http://www.w3.org/1999/xlink">
<g id="graph0" class="graph" transform="scale(1 1) rotate(0) translate(4 273.5)">
<title>sierra::nalu::MultiDimViews&lt; T, TEAMHANDLETYPE, SHMEM &gt;</title>
<!-- Node1 -->
<g id="Node000001" class="node">
<title>Node1</title>
<g id="a_Node000001"><a xlink:title=" ">
<polygon fill="#999999" stroke="#666666" points="187,-153.5 0,-153.5 0,-123.5 187,-123.5 187,-153.5"/>
<text text-anchor="start" x="8" y="-141.5" font-family="Helvetica,sans-Serif" font-size="10.00">sierra::nalu::MultiDimViews</text>
<text text-anchor="middle" x="93.5" y="-130.5" font-family="Helvetica,sans-Serif" font-size="10.00">&lt; T, TEAMHANDLETYPE, SHMEM &gt;</text>
</a>
</g>
</g>
<!-- Node2 -->
<g id="Node000002" class="node">
<title>Node2</title>
<g id="a_Node000002"><a xlink:href="classsierra_1_1nalu_1_1_multi_dim_views.html" target="_top" xlink:title=" ">
<polygon fill="white" stroke="#666666" points="596,-266.5 396,-266.5 396,-236.5 596,-236.5 596,-266.5"/>
<text text-anchor="start" x="404" y="-254.5" font-family="Helvetica,sans-Serif" font-size="10.00">sierra::nalu::MultiDimViews</text>
<text text-anchor="middle" x="496" y="-243.5" font-family="Helvetica,sans-Serif" font-size="10.00">&lt; T, TeamHandleType, HostShmem &gt;</text>
</a>
</g>
</g>
<!-- Node1&#45;&gt;Node2 -->
<g id="edge1_Node000001_Node000002" class="edge">
<title>Node1&#45;&gt;Node2</title>
<g id="a_edge1_Node000001_Node000002"><a xlink:title=" ">
<path fill="none" stroke="orange" stroke-dasharray="5,2" d="M119.33,-160.03C140.59,-177.19 172.78,-200.3 205,-212.5 265.93,-235.57 338.6,-245.31 395.95,-249.29"/>
<polygon fill="orange" stroke="orange" points="121.41,-157.2 111.47,-153.54 116.96,-162.61 121.41,-157.2"/>
</a>
</g>
<text text-anchor="start" x="235" y="-261.5" font-family="Helvetica,sans-Serif" font-size="10.00" fill="grey"> &lt; T, TeamHandleType,</text>
<text text-anchor="middle" x="291.5" y="-250.5" font-family="Helvetica,sans-Serif" font-size="10.00" fill="grey"> HostShmem &gt;</text>
</g>
<!-- Node3 -->
<g id="Node000003" class="node">
<title>Node3</title>
<g id="a_Node000003"><a xlink:href="classsierra_1_1nalu_1_1_multi_dim_views.html" target="_top" xlink:title=" ">
<polygon fill="white" stroke="#666666" points="577,-218 415,-218 415,-177 577,-177 577,-218"/>
<text text-anchor="start" x="423" y="-206" font-family="Helvetica,sans-Serif" font-size="10.00">sierra::nalu::MultiDimViews</text>
<text text-anchor="start" x="423" y="-195" font-family="Helvetica,sans-Serif" font-size="10.00">&lt; double, TEAMHANDLETYPE,</text>
<text text-anchor="middle" x="496" y="-184" font-family="Helvetica,sans-Serif" font-size="10.00"> SHMEM &gt;</text>
</a>
</g>
</g>
<!-- Node1&#45;&gt;Node3 -->
<g id="edge2_Node000001_Node000003" class="edge">
<title>Node1&#45;&gt;Node3</title>
<g id="a_edge2_Node000001_Node000003"><a xlink:title=" ">
<path fill="none" stroke="orange" stroke-dasharray="5,2" d="M162.73,-155.88C176.65,-159.05 191.25,-162.11 205,-164.5 275.52,-176.76 356.5,-185.54 414.94,-190.95"/>
<polygon fill="orange" stroke="orange" points="163.26,-152.41 152.73,-153.56 161.68,-159.23 163.26,-152.41"/>
</a>
</g>
<text text-anchor="start" x="217" y="-200.5" font-family="Helvetica,sans-Serif" font-size="10.00" fill="grey"> &lt; double, TEAMHANDLETYPE,</text>
<text text-anchor="middle" x="291.5" y="-189.5" font-family="Helvetica,sans-Serif" font-size="10.00" fill="grey"> SHMEM &gt;</text>
</g>
<!-- Node4 -->
<g id="Node000004" class="node">
<title>Node4</title>
<g id="a_Node000004"><a xlink:href="classsierra_1_1nalu_1_1_multi_dim_views.html" target="_top" xlink:title=" ">
<polygon fill="white" stroke="#666666" points="589,-159 403,-159 403,-118 589,-118 589,-159"/>
<text text-anchor="start" x="411" y="-147" font-family="Helvetica,sans-Serif" font-size="10.00">sierra::nalu::MultiDimViews</text>
<text text-anchor="start" x="411" y="-136" font-family="Helvetica,sans-Serif" font-size="10.00">&lt; DoubleType, TEAMHANDLETYPE,</text>
<text text-anchor="middle" x="496" y="-125" font-family="Helvetica,sans-Serif" font-size="10.00"> SHMEM &gt;</text>
</a>
</g>
</g>
<!-- Node1&#45;&gt;Node4 -->
<g id="edge3_Node000001_Node000004" class="edge">
<title>Node1&#45;&gt;Node4</title>
<g id="a_edge3_Node000001_Node000004"><a xlink:title=" ">
<path fill="none" stroke="orange" stroke-dasharray="5,2" d="M197.17,-138.5C260.64,-138.5 341.43,-138.5 402.85,-138.5"/>
<polygon fill="orange" stroke="orange" points="197.14,-135 187.14,-138.5 197.14,-142 197.14,-135"/>
</a>
</g>
<text text-anchor="start" x="205" y="-152.5" font-family="Helvetica,sans-Serif" font-size="10.00" fill="grey"> &lt; DoubleType, TEAMHANDLETYPE,</text>
<text text-anchor="middle" x="291.5" y="-141.5" font-family="Helvetica,sans-Serif" font-size="10.00" fill="grey"> SHMEM &gt;</text>
</g>
<!-- Node5 -->
<g id="Node000005" class="node">
<title>Node5</title>
<g id="a_Node000005"><a xlink:href="classsierra_1_1nalu_1_1_multi_dim_views.html" target="_top" xlink:title=" ">
<polygon fill="white" stroke="#666666" points="584.5,-100 407.5,-100 407.5,-59 584.5,-59 584.5,-100"/>
<text text-anchor="start" x="415.5" y="-88" font-family="Helvetica,sans-Serif" font-size="10.00">sierra::nalu::MultiDimViews</text>
<text text-anchor="start" x="415.5" y="-77" font-family="Helvetica,sans-Serif" font-size="10.00">&lt; DoubleType, TeamHandleType,</text>
<text text-anchor="middle" x="496" y="-66" font-family="Helvetica,sans-Serif" font-size="10.00"> ShmemType &gt;</text>
</a>
</g>
</g>
<!-- Node1&#45;&gt;Node5 -->
<g id="edge4_Node000001_Node000005" class="edge">
<title>Node1&#45;&gt;Node5</title>
<g id="a_edge4_Node000001_Node000005"><a xlink:title=" ">
<path fill="none" stroke="orange" stroke-dasharray="5,2" d="M162.73,-121.12C176.65,-117.95 191.25,-114.89 205,-112.5 272.52,-100.76 349.64,-92.21 407.37,-86.76"/>
<polygon fill="orange" stroke="orange" points="161.68,-117.77 152.73,-123.44 163.26,-124.59 161.68,-117.77"/>
</a>
</g>
<text text-anchor="start" x="222" y="-126.5" font-family="Helvetica,sans-Serif" font-size="10.00" fill="grey"> &lt; DoubleType, TeamHandle</text>
<text text-anchor="middle" x="291.5" y="-115.5" font-family="Helvetica,sans-Serif" font-size="10.00" fill="grey">Type, ShmemType &gt;</text>
</g>
<!-- Node6 -->
<g id="Node000006" class="node">
<title>Node6</title>
<g id="a_Node000006"><a xlink:href="classsierra_1_1nalu_1_1_multi_dim_views.html" target="_top" xlink:title=" ">
<polygon fill="white" stroke="#666666" points="572.5,-41 419.5,-41 419.5,0 572.5,0 572.5,-41"/>
<text text-anchor="start" x="427.5" y="-29" font-family="Helvetica,sans-Serif" font-size="10.00">sierra::nalu::MultiDimViews</text>
<text text-anchor="start" x="427.5" y="-18" font-family="Helvetica,sans-Serif" font-size="10.00">&lt; double, TeamHandleType,</text>
<text text-anchor="middle" x="496" y="-7" font-family="Helvetica,sans-Serif" font-size="10.00"> ShmemType &gt;</text>
</a>
</g>
</g>
<!-- Node1&#45;&gt;Node6 -->
<g id="edge5_Node000001_Node000006" class="edge">
<title>Node1&#45;&gt;Node6</title>
<g id="a_edge5_Node000001_Node000006"><a xlink:title=" ">
<path fill="none" stroke="orange" stroke-dasharray="5,2" d="M119.32,-116.79C140.58,-99.46 172.77,-76.07 205,-63.5 274.47,-36.41 359.4,-26.25 419.35,-22.5"/>
<polygon fill="orange" stroke="orange" points="116.91,-114.25 111.46,-123.33 121.39,-119.63 116.91,-114.25"/>
</a>
</g>
<text text-anchor="start" x="221.5" y="-77.5" font-family="Helvetica,sans-Serif" font-size="10.00" fill="grey"> &lt; double, TeamHandleType,</text>
<text text-anchor="middle" x="291.5" y="-66.5" font-family="Helvetica,sans-Serif" font-size="10.00" fill="grey"> ShmemType &gt;</text>
</g>
</g>
</svg>
