<?xml version="1.0" encoding="UTF-8" standalone="no"?>
<!DOCTYPE svg PUBLIC "-//W3C//DTD SVG 1.1//EN"
 "http://www.w3.org/Graphics/SVG/1.1/DTD/svg11.dtd">
<!-- Generated by graphviz version 2.43.0 (0)
 -->
<!-- Title: sierra::nalu::MomentumActuatorNodeKernel Pages: 1 -->
<svg width="346pt" height="227pt"
 viewBox="0.00 0.00 345.50 227.00" xmlns="http://www.w3.org/2000/svg" xmlns:xlink="http://www.w3.org/1999/xlink">

<svg id="main" version="1.1" xmlns="http://www.w3.org/2000/svg" xmlns:xlink="http://www.w3.org/1999/xlink" xml:space="preserve" onload="init(evt)">
<style type="text/css"><![CDATA[
.node, .edge {opacity: 0.7;}
.node.selected, .edge.selected {opacity: 1;}
.edge:hover path { stroke: red; }
.edge:hover polygon { stroke: red; fill: red; }
]]></style>
<script type="application/ecmascript" xlink:href="svg.min.js"/>
<svg id="graph" class="graph">
<g id="graph0" class="graph" transform="scale(1 1) rotate(0) translate(4 223)">
<title>sierra::nalu::MomentumActuatorNodeKernel</title>
<!-- Node1 -->
<g id="Node000001" class="node">
<title>Node1</title>
<g id="a_Node000001"><a xlink:title=" ">
<polygon fill="#999999" stroke="#666666" points="184,-30 9,-30 9,0 184,0 184,-30"/>
<text text-anchor="start" x="17" y="-18" font-family="Helvetica,sans-Serif" font-size="10.00">sierra::nalu::MomentumActuator</text>
<text text-anchor="middle" x="96.5" y="-7" font-family="Helvetica,sans-Serif" font-size="10.00">NodeKernel</text>
</a>
</g>
</g>
<!-- Node2 -->
<g id="Node000002" class="node">
<title>Node2</title>
<g id="a_Node000002"><a xlink:href="classsierra_1_1nalu_1_1_n_g_p_node_kernel.html" target="_top" xlink:title=" ">
<polygon fill="white" stroke="#666666" points="193,-97 0,-97 0,-67 193,-67 193,-97"/>
<text text-anchor="start" x="8" y="-85" font-family="Helvetica,sans-Serif" font-size="10.00">sierra::nalu::NGPNodeKernel</text>
<text text-anchor="middle" x="96.5" y="-74" font-family="Helvetica,sans-Serif" font-size="10.00">&lt; MomentumActuatorNodeKernel &gt;</text>
</a>
</g>
</g>
<!-- Node2&#45;&gt;Node1 -->
<g id="edge1_Node000001_Node000002" class="edge">
<title>Node2&#45;&gt;Node1</title>
<g id="a_edge1_Node000001_Node000002"><a xlink:title=" ">
<path fill="none" stroke="#63b8ff" d="M96.5,-56.61C96.5,-47.65 96.5,-37.82 96.5,-30.08"/>
<polygon fill="#63b8ff" stroke="#63b8ff" points="93,-56.9 96.5,-66.9 100,-56.9 93,-56.9"/>
</a>
</g>
</g>
<!-- Node3 -->
<g id="Node000003" class="node">
<title>Node3</title>
<g id="a_Node000003"><a xlink:href="classsierra_1_1nalu_1_1_node_kernel.html" target="_top" xlink:title=" ">
<polygon fill="white" stroke="#666666" points="159.5,-219 25.5,-219 25.5,-200 159.5,-200 159.5,-219"/>
<text text-anchor="middle" x="92.5" y="-207" font-family="Helvetica,sans-Serif" font-size="10.00">sierra::nalu::NodeKernel</text>
</a>
</g>
</g>
<!-- Node3&#45;&gt;Node2 -->
<g id="edge2_Node000002_Node000003" class="edge">
<title>Node3&#45;&gt;Node2</title>
<g id="a_edge2_Node000002_Node000003"><a xlink:title=" ">
<path fill="none" stroke="#63b8ff" d="M93.1,-189.76C93.9,-164.48 95.32,-120.02 96.05,-97.27"/>
<polygon fill="#63b8ff" stroke="#63b8ff" points="89.6,-189.77 92.77,-199.87 96.59,-189.99 89.6,-189.77"/>
</a>
</g>
</g>
<!-- Node4 -->
<g id="Node000004" class="node">
<title>Node4</title>
<g id="a_Node000004"><a xlink:href="classsierra_1_1nalu_1_1_n_g_p_node_kernel.html" target="_top" xlink:title=" ">
<polygon fill="white" stroke="#666666" points="292,-163 109,-163 109,-144 292,-144 292,-163"/>
<text text-anchor="middle" x="200.5" y="-151" font-family="Helvetica,sans-Serif" font-size="10.00">sierra::nalu::NGPNodeKernel&lt; T &gt;</text>
</a>
</g>
</g>
<!-- Node3&#45;&gt;Node4 -->
<g id="edge4_Node000004_Node000003" class="edge">
<title>Node3&#45;&gt;Node4</title>
<g id="a_edge4_Node000004_Node000003"><a xlink:title=" ">
<path fill="none" stroke="#63b8ff" d="M119.05,-195.23C139.05,-185.23 165.89,-171.81 183.19,-163.15"/>
<polygon fill="#63b8ff" stroke="#63b8ff" points="117.23,-192.22 109.85,-199.82 120.36,-198.48 117.23,-192.22"/>
</a>
</g>
</g>
<!-- Node4&#45;&gt;Node2 -->
<g id="edge3_Node000002_Node000004" class="edge">
<title>Node4&#45;&gt;Node2</title>
<g id="a_edge3_Node000002_Node000004"><a xlink:title=" ">
<path fill="none" stroke="orange" stroke-dasharray="5,2" d="M179.12,-138.21C161.14,-126.19 135.57,-109.11 117.66,-97.14"/>
<polygon fill="orange" stroke="orange" points="177.49,-141.33 187.75,-143.98 181.38,-135.51 177.49,-141.33"/>
</a>
</g>
<text text-anchor="middle" x="247.5" y="-118" font-family="Helvetica,sans-Serif" font-size="10.00" fill="grey"> &lt; MomentumActuatorNodeKernel &gt;</text>
</g>
</g>
</svg>
</svg>

<style type='text/css'>
<![CDATA[
[data-mouse-over-selected='false'] { opacity: 0.7; }
[data-mouse-over-selected='true']  { opacity: 1.0; }
]]>
</style>
<script type="application/ecmascript"><![CDATA[
document.addEventListener('DOMContentLoaded', (event) => {
  highlightEdges();
  highlightAdjacentNodes();
});
]]></script>
</svg>
