<?xml version="1.0" encoding="UTF-8" standalone="no"?>
<!DOCTYPE svg PUBLIC "-//W3C//DTD SVG 1.1//EN"
 "http://www.w3.org/Graphics/SVG/1.1/DTD/svg11.dtd">
<!-- Generated by graphviz version 2.43.0 (0)
 -->
<!-- Title: sierra::nalu::MasterElement Pages: 1 -->
<!--zoomable 598 -->
<svg id="main" version="1.1" xmlns="http://www.w3.org/2000/svg" xmlns:xlink="http://www.w3.org/1999/xlink" xml:space="preserve" onload="init(evt)">
<style type="text/css"><![CDATA[
.edge:hover path { stroke: red; }
.edge:hover polygon { stroke: red; fill: red; }
]]></style>
<script type="text/javascript"><![CDATA[
var edges = document.getElementsByTagName('g');
if (edges && edges.length) {
  for (var i=0;i<edges.length;i++) {
    if (edges[i].id.substr(0,4)=='edge') {
      edges[i].setAttribute('class','edge');
    }
  }
}
]]></script>
        <defs>
                <circle id="rim" cx="0" cy="0" r="7"/>
                <circle id="rim2" cx="0" cy="0" r="3.5"/>
                <g id="zoomPlus">
                        <use xlink:href="#rim" fill="#404040">
                                <set attributeName="fill" to="#808080" begin="zoomplus.mouseover" end="zoomplus.mouseout"/>
                        </use>
                        <path d="M-4,0h8M0,-4v8" fill="none" stroke="white" stroke-width="1.5" pointer-events="none"/>
                </g>
                <g id="zoomMin">
                        <use xlink:href="#rim" fill="#404040">
                                <set attributeName="fill" to="#808080" begin="zoomminus.mouseover" end="zoomminus.mouseout"/>
                        </use>
                        <path d="M-4,0h8" fill="none" stroke="white" stroke-width="1.5" pointer-events="none"/>
                </g>
                <g id="dirArrow">
                        <path fill="none" stroke="white" stroke-width="1.5" d="M0,-3.0v7 M-2.5,-0.5L0,-3.0L2.5,-0.5"/>
                </g>
               <g id="resetDef">
                       <use xlink:href="#rim2" fill="#404040">
                               <set attributeName="fill" to="#808080" begin="reset.mouseover" end="reset.mouseout"/>
                       </use>
               </g>
        </defs>

<script type="text/javascript">
var viewWidth = 338;
var viewHeight = 598;
var sectionId = 'dynsection-0';
</script>
<script xlink:href="svgpan.js"/>
<svg id="graph" class="graph">
<g id="viewport">
<title>sierra::nalu::MasterElement</title>
<polygon fill="white" stroke="transparent" points="-4,4 -4,-594 334,-594 334,4 -4,4"/>
<!-- Node1 -->
<g id="node1" class="node">
<title>Node1</title>
<g id="a_node1"><a xlink:title=" ">
<polygon fill="#bfbfbf" stroke="black" points="0,-285.5 0,-304.5 152,-304.5 152,-285.5 0,-285.5"/>
<text text-anchor="middle" x="76" y="-292.5" font-family="Helvetica,sans-Serif" font-size="10.00">sierra::nalu::MasterElement</text>
</a>
</g>
</g>
<!-- Node2 -->
<g id="node2" class="node">
<title>Node2</title>
<g id="a_node2"><a xlink:href="classsierra_1_1nalu_1_1_edge2_d_s_c_s.html" target="_top" xlink:title=" ">
<polygon fill="white" stroke="black" points="192,-570.5 192,-589.5 326,-589.5 326,-570.5 192,-570.5"/>
<text text-anchor="middle" x="259" y="-577.5" font-family="Helvetica,sans-Serif" font-size="10.00">sierra::nalu::Edge2DSCS</text>
</a>
</g>
</g>
<!-- Node1&#45;&gt;Node2 -->
<g id="edge1" class="edge">
<title>Node1&#45;&gt;Node2</title>
<path fill="none" stroke="midnightblue" d="M79.32,-314.72C86.21,-364.02 111.06,-493.48 188,-561 192.45,-564.9 197.62,-568.01 203.11,-570.49"/>
<polygon fill="midnightblue" stroke="midnightblue" points="82.79,-314.19 78.03,-304.73 75.84,-315.1 82.79,-314.19"/>
</g>
<!-- Node3 -->
<g id="node3" class="node">
<title>Node3</title>
<g id="a_node3"><a xlink:href="classsierra_1_1nalu_1_1_hex8_f_e_m.html" target="_top" xlink:title=" ">
<polygon fill="white" stroke="black" points="197,-532.5 197,-551.5 321,-551.5 321,-532.5 197,-532.5"/>
<text text-anchor="middle" x="259" y="-539.5" font-family="Helvetica,sans-Serif" font-size="10.00">sierra::nalu::Hex8FEM</text>
</a>
</g>
</g>
<!-- Node1&#45;&gt;Node3 -->
<g id="edge2" class="edge">
<title>Node1&#45;&gt;Node3</title>
<path fill="none" stroke="midnightblue" d="M80.79,-314.54C90.41,-358.69 119.99,-466.71 188,-523 192.66,-526.85 198.03,-529.93 203.68,-532.39"/>
<polygon fill="midnightblue" stroke="midnightblue" points="84.18,-313.62 78.72,-304.53 77.32,-315.04 84.18,-313.62"/>
</g>
<!-- Node4 -->
<g id="node4" class="node">
<title>Node4</title>
<g id="a_node4"><a xlink:href="classsierra_1_1nalu_1_1_hex_s_c_s.html" target="_top" xlink:title=" ">
<polygon fill="white" stroke="black" points="201,-494.5 201,-513.5 317,-513.5 317,-494.5 201,-494.5"/>
<text text-anchor="middle" x="259" y="-501.5" font-family="Helvetica,sans-Serif" font-size="10.00">sierra::nalu::HexSCS</text>
</a>
</g>
</g>
<!-- Node1&#45;&gt;Node4 -->
<g id="edge3" class="edge">
<title>Node1&#45;&gt;Node4</title>
<path fill="none" stroke="midnightblue" d="M82.87,-314.64C95.49,-353.37 128.92,-439.76 188,-485 193.1,-488.9 198.94,-492.01 205.04,-494.47"/>
<polygon fill="midnightblue" stroke="midnightblue" points="86.07,-313.15 79.74,-304.65 79.39,-315.24 86.07,-313.15"/>
</g>
<!-- Node5 -->
<g id="node5" class="node">
<title>Node5</title>
<g id="a_node5"><a xlink:href="classsierra_1_1nalu_1_1_hex_s_c_v.html" target="_top" xlink:title=" ">
<polygon fill="white" stroke="black" points="201,-456.5 201,-475.5 317,-475.5 317,-456.5 201,-456.5"/>
<text text-anchor="middle" x="259" y="-463.5" font-family="Helvetica,sans-Serif" font-size="10.00">sierra::nalu::HexSCV</text>
</a>
</g>
</g>
<!-- Node1&#45;&gt;Node5 -->
<g id="edge4" class="edge">
<title>Node1&#45;&gt;Node5</title>
<path fill="none" stroke="midnightblue" d="M85.47,-313.8C101.02,-346.12 137.23,-412.08 188,-447 193.6,-450.85 199.96,-453.93 206.49,-456.38"/>
<polygon fill="midnightblue" stroke="midnightblue" points="88.57,-312.15 81.16,-304.58 82.23,-315.12 88.57,-312.15"/>
</g>
<!-- Node6 -->
<g id="node6" class="node">
<title>Node6</title>
<g id="a_node6"><a xlink:href="classsierra_1_1nalu_1_1_pyr_s_c_s.html" target="_top" xlink:title=" ">
<polygon fill="white" stroke="black" points="203,-418.5 203,-437.5 315,-437.5 315,-418.5 203,-418.5"/>
<text text-anchor="middle" x="259" y="-425.5" font-family="Helvetica,sans-Serif" font-size="10.00">sierra::nalu::PyrSCS</text>
</a>
</g>
</g>
<!-- Node1&#45;&gt;Node6 -->
<g id="edge5" class="edge">
<title>Node1&#45;&gt;Node6</title>
<path fill="none" stroke="midnightblue" d="M89.51,-312.92C108.09,-338.17 145.38,-383.92 188,-409 194.51,-412.83 201.82,-415.91 209.18,-418.38"/>
<polygon fill="midnightblue" stroke="midnightblue" points="92.22,-310.7 83.54,-304.63 86.54,-314.79 92.22,-310.7"/>
</g>
<!-- Node7 -->
<g id="node7" class="node">
<title>Node7</title>
<g id="a_node7"><a xlink:href="classsierra_1_1nalu_1_1_pyr_s_c_v.html" target="_top" xlink:title=" ">
<polygon fill="white" stroke="black" points="202.5,-380.5 202.5,-399.5 315.5,-399.5 315.5,-380.5 202.5,-380.5"/>
<text text-anchor="middle" x="259" y="-387.5" font-family="Helvetica,sans-Serif" font-size="10.00">sierra::nalu::PyrSCV</text>
</a>
</g>
</g>
<!-- Node1&#45;&gt;Node7 -->
<g id="edge6" class="edge">
<title>Node1&#45;&gt;Node7</title>
<path fill="none" stroke="midnightblue" d="M96.09,-311.06C117.3,-328.15 153.15,-354.9 188,-371 196.12,-374.75 205.12,-377.88 213.88,-380.45"/>
<polygon fill="midnightblue" stroke="midnightblue" points="98.16,-308.22 88.2,-304.6 93.72,-313.64 98.16,-308.22"/>
</g>
<!-- Node8 -->
<g id="node8" class="node">
<title>Node8</title>
<g id="a_node8"><a xlink:href="classsierra_1_1nalu_1_1_quad3_d_s_c_s.html" target="_top" xlink:title=" ">
<polygon fill="white" stroke="black" points="191.5,-342.5 191.5,-361.5 326.5,-361.5 326.5,-342.5 191.5,-342.5"/>
<text text-anchor="middle" x="259" y="-349.5" font-family="Helvetica,sans-Serif" font-size="10.00">sierra::nalu::Quad3DSCS</text>
</a>
</g>
</g>
<!-- Node1&#45;&gt;Node8 -->
<g id="edge7" class="edge">
<title>Node1&#45;&gt;Node8</title>
<path fill="none" stroke="midnightblue" d="M112.76,-307.9C134.42,-315.55 162.67,-325.23 188,-333 198.72,-336.28 210.44,-339.58 221.18,-342.49"/>
<polygon fill="midnightblue" stroke="midnightblue" points="113.9,-304.59 103.31,-304.54 111.56,-311.19 113.9,-304.59"/>
</g>
<!-- Node9 -->
<g id="node9" class="node">
<title>Node9</title>
<g id="a_node9"><a xlink:href="classsierra_1_1nalu_1_1_quad42_d_s_c_s.html" target="_top" xlink:title=" ">
<polygon fill="white" stroke="black" points="188.5,-304.5 188.5,-323.5 329.5,-323.5 329.5,-304.5 188.5,-304.5"/>
<text text-anchor="middle" x="259" y="-311.5" font-family="Helvetica,sans-Serif" font-size="10.00">sierra::nalu::Quad42DSCS</text>
</a>
</g>
</g>
<!-- Node1&#45;&gt;Node9 -->
<g id="edge8" class="edge">
<title>Node1&#45;&gt;Node9</title>
<path fill="none" stroke="midnightblue" d="M162.34,-303.96C171.02,-304.87 179.77,-305.79 188.26,-306.68"/>
<polygon fill="midnightblue" stroke="midnightblue" points="162.5,-300.46 152.19,-302.89 161.77,-307.42 162.5,-300.46"/>
</g>
<!-- Node10 -->
<g id="node10" class="node">
<title>Node10</title>
<g id="a_node10"><a xlink:href="classsierra_1_1nalu_1_1_quad42_d_s_c_v.html" target="_top" xlink:title=" ">
<polygon fill="white" stroke="black" points="188,-266.5 188,-285.5 330,-285.5 330,-266.5 188,-266.5"/>
<text text-anchor="middle" x="259" y="-273.5" font-family="Helvetica,sans-Serif" font-size="10.00">sierra::nalu::Quad42DSCV</text>
</a>
</g>
</g>
<!-- Node1&#45;&gt;Node10 -->
<g id="edge9" class="edge">
<title>Node1&#45;&gt;Node10</title>
<path fill="none" stroke="midnightblue" d="M162.25,-286.05C170.87,-285.15 179.55,-284.24 187.97,-283.35"/>
<polygon fill="midnightblue" stroke="midnightblue" points="161.77,-282.58 152.19,-287.11 162.5,-289.54 161.77,-282.58"/>
</g>
<!-- Node11 -->
<g id="node11" class="node">
<title>Node11</title>
<g id="a_node11"><a xlink:href="classsierra_1_1nalu_1_1_tet_s_c_s.html" target="_top" xlink:title=" ">
<polygon fill="white" stroke="black" points="204,-228.5 204,-247.5 314,-247.5 314,-228.5 204,-228.5"/>
<text text-anchor="middle" x="259" y="-235.5" font-family="Helvetica,sans-Serif" font-size="10.00">sierra::nalu::TetSCS</text>
</a>
</g>
</g>
<!-- Node1&#45;&gt;Node11 -->
<g id="edge10" class="edge">
<title>Node1&#45;&gt;Node11</title>
<path fill="none" stroke="midnightblue" d="M112.76,-282.1C134.42,-274.45 162.67,-264.77 188,-257 198.72,-253.72 210.44,-250.42 221.18,-247.51"/>
<polygon fill="midnightblue" stroke="midnightblue" points="111.56,-278.81 103.31,-285.46 113.9,-285.41 111.56,-278.81"/>
</g>
<!-- Node12 -->
<g id="node12" class="node">
<title>Node12</title>
<g id="a_node12"><a xlink:href="classsierra_1_1nalu_1_1_tet_s_c_v.html" target="_top" xlink:title=" ">
<polygon fill="white" stroke="black" points="203.5,-190.5 203.5,-209.5 314.5,-209.5 314.5,-190.5 203.5,-190.5"/>
<text text-anchor="middle" x="259" y="-197.5" font-family="Helvetica,sans-Serif" font-size="10.00">sierra::nalu::TetSCV</text>
</a>
</g>
</g>
<!-- Node1&#45;&gt;Node12 -->
<g id="edge11" class="edge">
<title>Node1&#45;&gt;Node12</title>
<path fill="none" stroke="midnightblue" d="M96.09,-278.94C117.3,-261.85 153.15,-235.1 188,-219 196.12,-215.25 205.12,-212.12 213.88,-209.55"/>
<polygon fill="midnightblue" stroke="midnightblue" points="93.72,-276.36 88.2,-285.4 98.16,-281.78 93.72,-276.36"/>
</g>
<!-- Node13 -->
<g id="node13" class="node">
<title>Node13</title>
<g id="a_node13"><a xlink:href="classsierra_1_1nalu_1_1_tri32_d_s_c_s.html" target="_top" xlink:title=" ">
<polygon fill="white" stroke="black" points="195.5,-152.5 195.5,-171.5 322.5,-171.5 322.5,-152.5 195.5,-152.5"/>
<text text-anchor="middle" x="259" y="-159.5" font-family="Helvetica,sans-Serif" font-size="10.00">sierra::nalu::Tri32DSCS</text>
</a>
</g>
</g>
<!-- Node1&#45;&gt;Node13 -->
<g id="edge12" class="edge">
<title>Node1&#45;&gt;Node13</title>
<path fill="none" stroke="midnightblue" d="M89.51,-277.08C108.09,-251.83 145.38,-206.08 188,-181 194.51,-177.17 201.82,-174.09 209.18,-171.62"/>
<polygon fill="midnightblue" stroke="midnightblue" points="86.54,-275.21 83.54,-285.37 92.22,-279.3 86.54,-275.21"/>
</g>
<!-- Node14 -->
<g id="node14" class="node">
<title>Node14</title>
<g id="a_node14"><a xlink:href="classsierra_1_1nalu_1_1_tri32_d_s_c_v.html" target="_top" xlink:title=" ">
<polygon fill="white" stroke="black" points="195,-114.5 195,-133.5 323,-133.5 323,-114.5 195,-114.5"/>
<text text-anchor="middle" x="259" y="-121.5" font-family="Helvetica,sans-Serif" font-size="10.00">sierra::nalu::Tri32DSCV</text>
</a>
</g>
</g>
<!-- Node1&#45;&gt;Node14 -->
<g id="edge13" class="edge">
<title>Node1&#45;&gt;Node14</title>
<path fill="none" stroke="midnightblue" d="M85.47,-276.2C101.02,-243.88 137.23,-177.92 188,-143 193.6,-139.15 199.96,-136.07 206.49,-133.62"/>
<polygon fill="midnightblue" stroke="midnightblue" points="82.23,-274.88 81.16,-285.42 88.57,-277.85 82.23,-274.88"/>
</g>
<!-- Node15 -->
<g id="node15" class="node">
<title>Node15</title>
<g id="a_node15"><a xlink:href="classsierra_1_1nalu_1_1_tri3_d_s_c_s.html" target="_top" xlink:title=" ">
<polygon fill="white" stroke="black" points="198.5,-76.5 198.5,-95.5 319.5,-95.5 319.5,-76.5 198.5,-76.5"/>
<text text-anchor="middle" x="259" y="-83.5" font-family="Helvetica,sans-Serif" font-size="10.00">sierra::nalu::Tri3DSCS</text>
</a>
</g>
</g>
<!-- Node1&#45;&gt;Node15 -->
<g id="edge14" class="edge">
<title>Node1&#45;&gt;Node15</title>
<path fill="none" stroke="midnightblue" d="M82.87,-275.36C95.49,-236.63 128.92,-150.24 188,-105 193.1,-101.1 198.94,-97.99 205.04,-95.53"/>
<polygon fill="midnightblue" stroke="midnightblue" points="79.39,-274.76 79.74,-285.35 86.07,-276.85 79.39,-274.76"/>
</g>
<!-- Node16 -->
<g id="node16" class="node">
<title>Node16</title>
<g id="a_node16"><a xlink:href="classsierra_1_1nalu_1_1_wed_s_c_s.html" target="_top" xlink:title=" ">
<polygon fill="white" stroke="black" points="200.5,-38.5 200.5,-57.5 317.5,-57.5 317.5,-38.5 200.5,-38.5"/>
<text text-anchor="middle" x="259" y="-45.5" font-family="Helvetica,sans-Serif" font-size="10.00">sierra::nalu::WedSCS</text>
</a>
</g>
</g>
<!-- Node1&#45;&gt;Node16 -->
<g id="edge15" class="edge">
<title>Node1&#45;&gt;Node16</title>
<path fill="none" stroke="midnightblue" d="M80.79,-275.46C90.41,-231.31 119.99,-123.29 188,-67 192.66,-63.15 198.03,-60.07 203.68,-57.61"/>
<polygon fill="midnightblue" stroke="midnightblue" points="77.32,-274.96 78.72,-285.47 84.18,-276.38 77.32,-274.96"/>
</g>
<!-- Node17 -->
<g id="node17" class="node">
<title>Node17</title>
<g id="a_node17"><a xlink:href="classsierra_1_1nalu_1_1_wed_s_c_v.html" target="_top" xlink:title=" ">
<polygon fill="white" stroke="black" points="200,-0.5 200,-19.5 318,-19.5 318,-0.5 200,-0.5"/>
<text text-anchor="middle" x="259" y="-7.5" font-family="Helvetica,sans-Serif" font-size="10.00">sierra::nalu::WedSCV</text>
</a>
</g>
</g>
<!-- Node1&#45;&gt;Node17 -->
<g id="edge16" class="edge">
<title>Node1&#45;&gt;Node17</title>
<path fill="none" stroke="midnightblue" d="M79.32,-275.28C86.21,-225.98 111.06,-96.52 188,-29 192.45,-25.1 197.62,-21.99 203.11,-19.51"/>
<polygon fill="midnightblue" stroke="midnightblue" points="75.84,-274.9 78.03,-285.27 82.79,-275.81 75.84,-274.9"/>
</g>
</g>
</svg>
        <g id="navigator" transform="translate(0 0)" fill="#404254">
                <rect fill="#f2f5e9" fill-opacity="0.5" stroke="#606060" stroke-width=".5" x="0" y="0" width="60" height="60"/>
                <use id="zoomplus" xlink:href="#zoomPlus" x="17" y="9" onmousedown="handleZoom(evt,'in')"/>
                <use id="zoomminus" xlink:href="#zoomMin" x="42" y="9" onmousedown="handleZoom(evt,'out')"/>
                <use id="reset" xlink:href="#resetDef" x="30" y="36" onmousedown="handleReset()"/>
                <g id="arrowUp" xlink:href="#dirArrow" transform="translate(30 24)" onmousedown="handlePan(0,-1)">
                  <use xlink:href="#rim" fill="#404040">
                        <set attributeName="fill" to="#808080" begin="arrowUp.mouseover" end="arrowUp.mouseout"/>
                  </use>
                  <path fill="none" stroke="white" stroke-width="1.5" d="M0,-3.0v7 M-2.5,-0.5L0,-3.0L2.5,-0.5"/>
                </g>
                <g id="arrowRight" xlink:href="#dirArrow" transform="rotate(90) translate(36 -43)" onmousedown="handlePan(1,0)">
                  <use xlink:href="#rim" fill="#404040">
                        <set attributeName="fill" to="#808080" begin="arrowRight.mouseover" end="arrowRight.mouseout"/>
                  </use>
                  <path fill="none" stroke="white" stroke-width="1.5" d="M0,-3.0v7 M-2.5,-0.5L0,-3.0L2.5,-0.5"/>
                </g>
                <g id="arrowDown" xlink:href="#dirArrow" transform="rotate(180) translate(-30 -48)" onmousedown="handlePan(0,1)">
                  <use xlink:href="#rim" fill="#404040">
                        <set attributeName="fill" to="#808080" begin="arrowDown.mouseover" end="arrowDown.mouseout"/>
                  </use>
                  <path fill="none" stroke="white" stroke-width="1.5" d="M0,-3.0v7 M-2.5,-0.5L0,-3.0L2.5,-0.5"/>
                </g>
                <g id="arrowLeft" xlink:href="#dirArrow" transform="rotate(270) translate(-36 17)" onmousedown="handlePan(-1,0)">
                  <use xlink:href="#rim" fill="#404040">
                        <set attributeName="fill" to="#808080" begin="arrowLeft.mouseover" end="arrowLeft.mouseout"/>
                  </use>
                  <path fill="none" stroke="white" stroke-width="1.5" d="M0,-3.0v7 M-2.5,-0.5L0,-3.0L2.5,-0.5"/>
                </g>
        </g>
        <svg viewBox="0 0 15 15" width="100%" height="30px" preserveAspectRatio="xMaxYMin meet">
         <g id="arrow_out" transform="scale(0.3 0.3)">
          <a xlink:href="classsierra_1_1nalu_1_1_master_element__inherit__graph_org.svg" target="_base">
           <rect id="button" ry="5" rx="5" y="6" x="6" height="38" width="38"
                fill="#f2f5e9" fill-opacity="0.5" stroke="#606060" stroke-width="1.0"/>
           <path id="arrow"
             d="M 11.500037,31.436501 C 11.940474,20.09759 22.043105,11.32322 32.158766,21.979434 L 37.068811,17.246167 C 37.068811,17.246167 37.088388,32 37.088388,32 L 22.160133,31.978069 C 22.160133,31.978069 26.997745,27.140456 26.997745,27.140456 C 18.528582,18.264221 13.291696,25.230495 11.500037,31.436501 z"
             style="fill:#404040;"/>
          </a>
         </g>
        </svg>
</svg>
