<?xml version="1.0" encoding="UTF-8" standalone="no"?>
<!DOCTYPE svg PUBLIC "-//W3C//DTD SVG 1.1//EN"
 "http://www.w3.org/Graphics/SVG/1.1/DTD/svg11.dtd">
<!-- Generated by graphviz version 2.43.0 (0)
 -->
<!-- Title: sierra::nalu::MomentumABLForceNodeKernel Pages: 1 -->
<svg width="1033pt" height="78pt"
 viewBox="0.00 0.00 1033.00 77.50" xmlns="http://www.w3.org/2000/svg" xmlns:xlink="http://www.w3.org/1999/xlink">
<g id="graph0" class="graph" transform="scale(1 1) rotate(0) translate(4 73.5)">
<title>sierra::nalu::MomentumABLForceNodeKernel</title>
<polygon fill="white" stroke="transparent" points="-4,4 -4,-73.5 1029,-73.5 1029,4 -4,4"/>
<!-- Node1 -->
<g id="node1" class="node">
<title>Node1</title>
<g id="a_node1"><a xlink:title=" ">
<polygon fill="#bfbfbf" stroke="black" points="846,-8 846,-38 1025,-38 1025,-8 846,-8"/>
<text text-anchor="start" x="854" y="-26" font-family="Helvetica,sans-Serif" font-size="10.00">sierra::nalu::MomentumABLForce</text>
<text text-anchor="middle" x="935.5" y="-15" font-family="Helvetica,sans-Serif" font-size="10.00">NodeKernel</text>
</a>
</g>
</g>
<!-- Node2 -->
<g id="node2" class="node">
<title>Node2</title>
<g id="a_node2"><a xlink:href="classsierra_1_1nalu_1_1_n_g_p_node_kernel.html" target="_top" xlink:title=" ">
<polygon fill="white" stroke="black" points="574,-39 574,-69 771,-69 771,-39 574,-39"/>
<text text-anchor="start" x="582" y="-57" font-family="Helvetica,sans-Serif" font-size="10.00">sierra::nalu::NGPNodeKernel</text>
<text text-anchor="middle" x="672.5" y="-46" font-family="Helvetica,sans-Serif" font-size="10.00">&lt; MomentumABLForceNodeKernel &gt;</text>
</a>
</g>
</g>
<!-- Node2&#45;&gt;Node1 -->
<g id="edge1" class="edge">
<title>Node2&#45;&gt;Node1</title>
<path fill="none" stroke="midnightblue" d="M781.18,-41.21C802.63,-38.66 824.93,-36.01 845.67,-33.55"/>
<polygon fill="midnightblue" stroke="midnightblue" points="780.58,-37.76 771.06,-42.41 781.4,-44.71 780.58,-37.76"/>
</g>
<!-- Node3 -->
<g id="node3" class="node">
<title>Node3</title>
<g id="a_node3"><a xlink:href="classsierra_1_1nalu_1_1_node_kernel.html" target="_top" xlink:title=" ">
<polygon fill="white" stroke="black" points="0,-41.5 0,-60.5 134,-60.5 134,-41.5 0,-41.5"/>
<text text-anchor="middle" x="67" y="-48.5" font-family="Helvetica,sans-Serif" font-size="10.00">sierra::nalu::NodeKernel</text>
</a>
</g>
</g>
<!-- Node3&#45;&gt;Node2 -->
<g id="edge2" class="edge">
<title>Node3&#45;&gt;Node2</title>
<path fill="none" stroke="midnightblue" d="M144.22,-55.74C146.85,-55.84 149.44,-55.92 152,-56 331.48,-61.34 376.45,-57.55 556,-56 561.82,-55.95 567.8,-55.89 573.83,-55.81"/>
<polygon fill="midnightblue" stroke="midnightblue" points="144.15,-52.23 134.01,-55.3 143.86,-59.22 144.15,-52.23"/>
</g>
<!-- Node4 -->
<g id="node4" class="node">
<title>Node4</title>
<g id="a_node4"><a xlink:href="classsierra_1_1nalu_1_1_n_g_p_node_kernel.html" target="_top" xlink:title=" ">
<polygon fill="white" stroke="black" points="171,-22.5 171,-41.5 354,-41.5 354,-22.5 171,-22.5"/>
<text text-anchor="middle" x="262.5" y="-29.5" font-family="Helvetica,sans-Serif" font-size="10.00">sierra::nalu::NGPNodeKernel&lt; T &gt;</text>
</a>
</g>
</g>
<!-- Node3&#45;&gt;Node4 -->
<g id="edge4" class="edge">
<title>Node3&#45;&gt;Node4</title>
<path fill="none" stroke="midnightblue" d="M144.17,-43.52C152.9,-42.66 161.86,-41.78 170.76,-40.91"/>
<polygon fill="midnightblue" stroke="midnightblue" points="143.66,-40.05 134.05,-44.51 144.34,-47.02 143.66,-40.05"/>
</g>
<!-- Node4&#45;&gt;Node2 -->
<g id="edge3" class="edge">
<title>Node4&#45;&gt;Node2</title>
<path fill="none" stroke="orange" stroke-dasharray="5,2" d="M364.12,-35.64C420.55,-37.89 492.22,-41.1 556,-45 561.82,-45.36 567.81,-45.75 573.84,-46.16"/>
<polygon fill="orange" stroke="orange" points="364.26,-32.15 354.13,-35.25 363.98,-39.14 364.26,-32.15"/>
<text text-anchor="middle" x="464" y="-48" font-family="Helvetica,sans-Serif" font-size="10.00"> &lt; MomentumABLForceNodeKernel &gt;</text>
</g>
<!-- Node5 -->
<g id="node5" class="node">
<title>Node5</title>
<g id="a_node5"><a xlink:href="classsierra_1_1nalu_1_1_a_b_l_vector_interpolator.html" target="_top" xlink:title="NGP&#45;friendly source interpolation class for use with ABL forcing term.">
<polygon fill="white" stroke="black" points="581,-0.5 581,-19.5 764,-19.5 764,-0.5 581,-0.5"/>
<text text-anchor="middle" x="672.5" y="-7.5" font-family="Helvetica,sans-Serif" font-size="10.00">sierra::nalu::ABLVectorInterpolator</text>
</a>
</g>
</g>
<!-- Node5&#45;&gt;Node1 -->
<g id="edge5" class="edge">
<title>Node5&#45;&gt;Node1</title>
<path fill="none" stroke="#9a32cd" stroke-dasharray="5,2" d="M774.1,-15.01C797.75,-16.19 822.79,-17.44 845.87,-18.59"/>
<polygon fill="#9a32cd" stroke="#9a32cd" points="774.21,-11.51 764.05,-14.51 773.87,-18.5 774.21,-11.51"/>
<text text-anchor="middle" x="808.5" y="-21" font-family="Helvetica,sans-Serif" font-size="10.00"> ablSrc_</text>
</g>
</g>
</svg>
