<?xml version="1.0" encoding="UTF-8" standalone="no"?>
<!DOCTYPE svg PUBLIC "-//W3C//DTD SVG 1.1//EN"
 "http://www.w3.org/Graphics/SVG/1.1/DTD/svg11.dtd">
<!-- Generated by graphviz version 2.43.0 (0)
 -->
<!-- Title: sierra::nalu::NgpMotionKernel&lt; T &gt; Pages: 1 -->
<svg width="938pt" height="278pt"
 viewBox="0.00 0.00 938.00 278.00" xmlns="http://www.w3.org/2000/svg" xmlns:xlink="http://www.w3.org/1999/xlink">
<g id="graph0" class="graph" transform="scale(1 1) rotate(0) translate(4 274)">
<title>sierra::nalu::NgpMotionKernel&lt; T &gt;</title>
<!-- Node1 -->
<g id="Node000001" class="node">
<title>Node1</title>
<g id="a_Node000001"><a xlink:title=" ">
<polygon fill="#999999" stroke="#666666" points="358,-144.5 168,-144.5 168,-125.5 358,-125.5 358,-144.5"/>
<text text-anchor="middle" x="263" y="-132.5" font-family="Helvetica,sans-Serif" font-size="10.00">sierra::nalu::NgpMotionKernel&lt; T &gt;</text>
</a>
</g>
</g>
<!-- Node3 -->
<g id="Node000003" class="node">
<title>Node3</title>
<g id="a_Node000003"><a xlink:href="classsierra_1_1nalu_1_1_ngp_motion_kernel.html" target="_top" xlink:title=" ">
<polygon fill="white" stroke="#666666" points="729,-270 538,-270 538,-240 729,-240 729,-270"/>
<text text-anchor="start" x="546" y="-258" font-family="Helvetica,sans-Serif" font-size="10.00">sierra::nalu::NgpMotionKernel</text>
<text text-anchor="middle" x="633.5" y="-247" font-family="Helvetica,sans-Serif" font-size="10.00">&lt; MotionDeformingInteriorKernel &gt;</text>
</a>
</g>
</g>
<!-- Node1&#45;&gt;Node3 -->
<g id="edge2_Node000001_Node000003" class="edge">
<title>Node1&#45;&gt;Node3</title>
<g id="a_edge2_Node000001_Node000003"><a xlink:title=" ">
<path fill="none" stroke="orange" stroke-dasharray="5,2" d="M283.95,-150.96C305.42,-167.31 341.19,-192.22 376,-206 427.53,-226.4 488.34,-238.49 537.82,-245.55"/>
<polygon fill="orange" stroke="orange" points="285.98,-148.1 275.93,-144.74 281.69,-153.63 285.98,-148.1"/>
</a>
</g>
<text text-anchor="start" x="380" y="-256" font-family="Helvetica,sans-Serif" font-size="10.00" fill="grey"> &lt; MotionDeformingInterior</text>
<text text-anchor="middle" x="448" y="-245" font-family="Helvetica,sans-Serif" font-size="10.00" fill="grey">Kernel &gt;</text>
</g>
<!-- Node5 -->
<g id="Node000005" class="node">
<title>Node5</title>
<g id="a_Node000005"><a xlink:href="classsierra_1_1nalu_1_1_ngp_motion_kernel.html" target="_top" xlink:title=" ">
<polygon fill="white" stroke="#666666" points="714,-222 553,-222 553,-192 714,-192 714,-222"/>
<text text-anchor="start" x="561" y="-210" font-family="Helvetica,sans-Serif" font-size="10.00">sierra::nalu::NgpMotionKernel</text>
<text text-anchor="middle" x="633.5" y="-199" font-family="Helvetica,sans-Serif" font-size="10.00">&lt; MotionRotationKernel &gt;</text>
</a>
</g>
</g>
<!-- Node1&#45;&gt;Node5 -->
<g id="edge4_Node000001_Node000005" class="edge">
<title>Node1&#45;&gt;Node5</title>
<g id="a_edge4_Node000001_Node000005"><a xlink:title=" ">
<path fill="none" stroke="orange" stroke-dasharray="5,2" d="M304.76,-147.46C325.88,-153.62 352.17,-160.82 376,-166 434.83,-178.8 502.05,-189.4 552.92,-196.61"/>
<polygon fill="orange" stroke="orange" points="305.73,-144.1 295.15,-144.63 303.75,-150.81 305.73,-144.1"/>
</a>
</g>
<text text-anchor="middle" x="448" y="-194" font-family="Helvetica,sans-Serif" font-size="10.00" fill="grey"> &lt; MotionRotationKernel &gt;</text>
</g>
<!-- Node7 -->
<g id="Node000007" class="node">
<title>Node7</title>
<g id="a_Node000007"><a xlink:href="classsierra_1_1nalu_1_1_ngp_motion_kernel.html" target="_top" xlink:title=" ">
<polygon fill="white" stroke="#666666" points="714,-174 553,-174 553,-144 714,-144 714,-174"/>
<text text-anchor="start" x="561" y="-162" font-family="Helvetica,sans-Serif" font-size="10.00">sierra::nalu::NgpMotionKernel</text>
<text text-anchor="middle" x="633.5" y="-151" font-family="Helvetica,sans-Serif" font-size="10.00">&lt; MotionScalingKernel &gt;</text>
</a>
</g>
</g>
<!-- Node1&#45;&gt;Node7 -->
<g id="edge6_Node000001_Node000007" class="edge">
<title>Node1&#45;&gt;Node7</title>
<g id="a_edge6_Node000001_Node000007"><a xlink:title=" ">
<path fill="none" stroke="orange" stroke-dasharray="5,2" d="M368.45,-141.8C427.05,-145.62 498.99,-150.3 552.97,-153.82"/>
<polygon fill="orange" stroke="orange" points="368.63,-138.31 358.42,-141.15 368.17,-145.29 368.63,-138.31"/>
</a>
</g>
<text text-anchor="middle" x="448" y="-154" font-family="Helvetica,sans-Serif" font-size="10.00" fill="grey"> &lt; MotionScalingKernel &gt;</text>
</g>
<!-- Node9 -->
<g id="Node000009" class="node">
<title>Node9</title>
<g id="a_Node000009"><a xlink:href="classsierra_1_1nalu_1_1_ngp_motion_kernel.html" target="_top" xlink:title=" ">
<polygon fill="white" stroke="#666666" points="714,-126 553,-126 553,-96 714,-96 714,-126"/>
<text text-anchor="start" x="561" y="-114" font-family="Helvetica,sans-Serif" font-size="10.00">sierra::nalu::NgpMotionKernel</text>
<text text-anchor="middle" x="633.5" y="-103" font-family="Helvetica,sans-Serif" font-size="10.00">&lt; MotionTranslationKernel &gt;</text>
</a>
</g>
</g>
<!-- Node1&#45;&gt;Node9 -->
<g id="edge8_Node000001_Node000009" class="edge">
<title>Node1&#45;&gt;Node9</title>
<g id="a_edge8_Node000001_Node000009"><a xlink:title=" ">
<path fill="none" stroke="orange" stroke-dasharray="5,2" d="M368.25,-127.52C370.86,-127.35 373.45,-127.17 376,-127 435.21,-123.04 502.13,-118.87 552.77,-115.79"/>
<polygon fill="orange" stroke="orange" points="367.84,-124.04 358.1,-128.22 368.32,-131.03 367.84,-124.04"/>
</a>
</g>
<text text-anchor="middle" x="448" y="-130" font-family="Helvetica,sans-Serif" font-size="10.00" fill="grey"> &lt; MotionTranslationKernel &gt;</text>
</g>
<!-- Node11 -->
<g id="Node000011" class="node">
<title>Node11</title>
<g id="a_Node000011"><a xlink:href="classsierra_1_1nalu_1_1_ngp_motion_kernel.html" target="_top" xlink:title=" ">
<polygon fill="white" stroke="#666666" points="714,-78 553,-78 553,-48 714,-48 714,-78"/>
<text text-anchor="start" x="561" y="-66" font-family="Helvetica,sans-Serif" font-size="10.00">sierra::nalu::NgpMotionKernel</text>
<text text-anchor="middle" x="633.5" y="-55" font-family="Helvetica,sans-Serif" font-size="10.00">&lt; MotionWavesKernel &gt;</text>
</a>
</g>
</g>
<!-- Node1&#45;&gt;Node11 -->
<g id="edge10_Node000001_Node000011" class="edge">
<title>Node1&#45;&gt;Node11</title>
<g id="a_edge10_Node000001_Node000011"><a xlink:title=" ">
<path fill="none" stroke="orange" stroke-dasharray="5,2" d="M304.76,-122.54C325.88,-116.38 352.17,-109.18 376,-104 434.83,-91.2 502.05,-80.6 552.92,-73.39"/>
<polygon fill="orange" stroke="orange" points="303.75,-119.19 295.15,-125.37 305.73,-125.9 303.75,-119.19"/>
</a>
</g>
<text text-anchor="middle" x="448" y="-107" font-family="Helvetica,sans-Serif" font-size="10.00" fill="grey"> &lt; MotionWavesKernel &gt;</text>
</g>
<!-- Node13 -->
<g id="Node000013" class="node">
<title>Node13</title>
<g id="a_Node000013"><a xlink:href="classsierra_1_1nalu_1_1_ngp_motion_kernel.html" target="_top" xlink:title=" ">
<polygon fill="white" stroke="#666666" points="714,-30 553,-30 553,0 714,0 714,-30"/>
<text text-anchor="start" x="561" y="-18" font-family="Helvetica,sans-Serif" font-size="10.00">sierra::nalu::NgpMotionKernel</text>
<text text-anchor="middle" x="633.5" y="-7" font-family="Helvetica,sans-Serif" font-size="10.00">&lt; TurbineSurrogateKernel &gt;</text>
</a>
</g>
</g>
<!-- Node1&#45;&gt;Node13 -->
<g id="edge12_Node000001_Node000013" class="edge">
<title>Node1&#45;&gt;Node13</title>
<g id="a_edge12_Node000001_Node000013"><a xlink:title=" ">
<path fill="none" stroke="orange" stroke-dasharray="5,2" d="M283.95,-119.04C305.42,-102.69 341.19,-77.78 376,-64 432.91,-41.48 501.13,-29.08 552.9,-22.4"/>
<polygon fill="orange" stroke="orange" points="281.69,-116.37 275.93,-125.26 285.98,-121.9 281.69,-116.37"/>
</a>
</g>
<text text-anchor="middle" x="448" y="-67" font-family="Helvetica,sans-Serif" font-size="10.00" fill="grey"> &lt; TurbineSurrogateKernel &gt;</text>
</g>
<!-- Node2 -->
<g id="Node000002" class="node">
<title>Node2</title>
<g id="a_Node000002"><a xlink:href="classsierra_1_1nalu_1_1_ngp_motion.html" target="_top" xlink:title=" ">
<polygon fill="white" stroke="#666666" points="131,-144.5 0,-144.5 0,-125.5 131,-125.5 131,-144.5"/>
<text text-anchor="middle" x="65.5" y="-132.5" font-family="Helvetica,sans-Serif" font-size="10.00">sierra::nalu::NgpMotion</text>
</a>
</g>
</g>
<!-- Node2&#45;&gt;Node1 -->
<g id="edge1_Node000001_Node000002" class="edge">
<title>Node2&#45;&gt;Node1</title>
<g id="a_edge1_Node000001_Node000002"><a xlink:title=" ">
<path fill="none" stroke="#63b8ff" d="M141.16,-135C149.88,-135 158.87,-135 167.81,-135"/>
<polygon fill="#63b8ff" stroke="#63b8ff" points="141.06,-131.5 131.06,-135 141.06,-138.5 141.06,-131.5"/>
</a>
</g>
</g>
<!-- Node4 -->
<g id="Node000004" class="node">
<title>Node4</title>
<g id="a_Node000004"><a xlink:href="classsierra_1_1nalu_1_1_motion_deforming_interior_kernel.html" target="_top" xlink:title=" ">
<polygon fill="white" stroke="#666666" points="929.5,-270 766.5,-270 766.5,-240 929.5,-240 929.5,-270"/>
<text text-anchor="start" x="774.5" y="-258" font-family="Helvetica,sans-Serif" font-size="10.00">sierra::nalu::MotionDeforming</text>
<text text-anchor="middle" x="848" y="-247" font-family="Helvetica,sans-Serif" font-size="10.00">InteriorKernel</text>
</a>
</g>
</g>
<!-- Node3&#45;&gt;Node4 -->
<g id="edge3_Node000003_Node000004" class="edge">
<title>Node3&#45;&gt;Node4</title>
<g id="a_edge3_Node000003_Node000004"><a xlink:title=" ">
<path fill="none" stroke="#63b8ff" d="M739.45,-255C748.51,-255 757.57,-255 766.39,-255"/>
<polygon fill="#63b8ff" stroke="#63b8ff" points="739.25,-251.5 729.25,-255 739.25,-258.5 739.25,-251.5"/>
</a>
</g>
</g>
<!-- Node6 -->
<g id="Node000006" class="node">
<title>Node6</title>
<g id="a_Node000006"><a xlink:href="classsierra_1_1nalu_1_1_motion_rotation_kernel.html" target="_top" xlink:title=" ">
<polygon fill="white" stroke="#666666" points="924,-222 772,-222 772,-192 924,-192 924,-222"/>
<text text-anchor="start" x="780" y="-210" font-family="Helvetica,sans-Serif" font-size="10.00">sierra::nalu::MotionRotation</text>
<text text-anchor="middle" x="848" y="-199" font-family="Helvetica,sans-Serif" font-size="10.00">Kernel</text>
</a>
</g>
</g>
<!-- Node5&#45;&gt;Node6 -->
<g id="edge5_Node000005_Node000006" class="edge">
<title>Node5&#45;&gt;Node6</title>
<g id="a_edge5_Node000005_Node000006"><a xlink:title=" ">
<path fill="none" stroke="#63b8ff" d="M724.49,-207C740.23,-207 756.46,-207 771.74,-207"/>
<polygon fill="#63b8ff" stroke="#63b8ff" points="724.23,-203.5 714.23,-207 724.23,-210.5 724.23,-203.5"/>
</a>
</g>
</g>
<!-- Node8 -->
<g id="Node000008" class="node">
<title>Node8</title>
<g id="a_Node000008"><a xlink:href="classsierra_1_1nalu_1_1_motion_scaling_kernel.html" target="_top" xlink:title=" ">
<polygon fill="white" stroke="#666666" points="921,-174 775,-174 775,-144 921,-144 921,-174"/>
<text text-anchor="start" x="783" y="-162" font-family="Helvetica,sans-Serif" font-size="10.00">sierra::nalu::MotionScaling</text>
<text text-anchor="middle" x="848" y="-151" font-family="Helvetica,sans-Serif" font-size="10.00">Kernel</text>
</a>
</g>
</g>
<!-- Node7&#45;&gt;Node8 -->
<g id="edge7_Node000007_Node000008" class="edge">
<title>Node7&#45;&gt;Node8</title>
<g id="a_edge7_Node000007_Node000008"><a xlink:title=" ">
<path fill="none" stroke="#63b8ff" d="M724.6,-159C741.38,-159 758.72,-159 774.88,-159"/>
<polygon fill="#63b8ff" stroke="#63b8ff" points="724.23,-155.5 714.23,-159 724.23,-162.5 724.23,-155.5"/>
</a>
</g>
</g>
<!-- Node10 -->
<g id="Node000010" class="node">
<title>Node10</title>
<g id="a_Node000010"><a xlink:href="classsierra_1_1nalu_1_1_motion_translation_kernel.html" target="_top" xlink:title=" ">
<polygon fill="white" stroke="#666666" points="930,-126 766,-126 766,-96 930,-96 930,-126"/>
<text text-anchor="start" x="774" y="-114" font-family="Helvetica,sans-Serif" font-size="10.00">sierra::nalu::MotionTranslation</text>
<text text-anchor="middle" x="848" y="-103" font-family="Helvetica,sans-Serif" font-size="10.00">Kernel</text>
</a>
</g>
</g>
<!-- Node9&#45;&gt;Node10 -->
<g id="edge9_Node000009_Node000010" class="edge">
<title>Node9&#45;&gt;Node10</title>
<g id="a_edge9_Node000009_Node000010"><a xlink:title=" ">
<path fill="none" stroke="#63b8ff" d="M724.6,-111C738.26,-111 752.3,-111 765.76,-111"/>
<polygon fill="#63b8ff" stroke="#63b8ff" points="724.23,-107.5 714.23,-111 724.23,-114.5 724.23,-107.5"/>
</a>
</g>
</g>
<!-- Node12 -->
<g id="Node000012" class="node">
<title>Node12</title>
<g id="a_Node000012"><a xlink:href="classsierra_1_1nalu_1_1_motion_waves_kernel.html" target="_top" xlink:title=" ">
<polygon fill="white" stroke="#666666" points="919.5,-78 776.5,-78 776.5,-48 919.5,-48 919.5,-78"/>
<text text-anchor="start" x="784.5" y="-66" font-family="Helvetica,sans-Serif" font-size="10.00">sierra::nalu::MotionWaves</text>
<text text-anchor="middle" x="848" y="-55" font-family="Helvetica,sans-Serif" font-size="10.00">Kernel</text>
</a>
</g>
</g>
<!-- Node11&#45;&gt;Node12 -->
<g id="edge11_Node000011_Node000012" class="edge">
<title>Node11&#45;&gt;Node12</title>
<g id="a_edge11_Node000011_Node000012"><a xlink:title=" ">
<path fill="none" stroke="#63b8ff" d="M724.36,-63C741.7,-63 759.63,-63 776.26,-63"/>
<polygon fill="#63b8ff" stroke="#63b8ff" points="724.23,-59.5 714.23,-63 724.23,-66.5 724.23,-59.5"/>
</a>
</g>
</g>
<!-- Node14 -->
<g id="Node000014" class="node">
<title>Node14</title>
<g id="a_Node000014"><a xlink:href="classsierra_1_1nalu_1_1_turbine_surrogate_kernel.html" target="_top" xlink:title=" ">
<polygon fill="white" stroke="#666666" points="928,-30 768,-30 768,0 928,0 928,-30"/>
<text text-anchor="start" x="776" y="-18" font-family="Helvetica,sans-Serif" font-size="10.00">sierra::nalu::TurbineSurrogate</text>
<text text-anchor="middle" x="848" y="-7" font-family="Helvetica,sans-Serif" font-size="10.00">Kernel</text>
</a>
</g>
</g>
<!-- Node13&#45;&gt;Node14 -->
<g id="edge13_Node000013_Node000014" class="edge">
<title>Node13&#45;&gt;Node14</title>
<g id="a_edge13_Node000013_Node000014"><a xlink:title=" ">
<path fill="none" stroke="#63b8ff" d="M724.62,-15C739,-15 753.78,-15 767.88,-15"/>
<polygon fill="#63b8ff" stroke="#63b8ff" points="724.23,-11.5 714.23,-15 724.23,-18.5 724.23,-11.5"/>
</a>
</g>
</g>
</g>
</svg>
