<?xml version="1.0" encoding="UTF-8" standalone="no"?>
<!DOCTYPE svg PUBLIC "-//W3C//DTD SVG 1.1//EN"
 "http://www.w3.org/Graphics/SVG/1.1/DTD/svg11.dtd">
<!-- Generated by graphviz version 2.43.0 (0)
 -->
<!-- Title: sierra::nalu::MomentumGclSrcNodeKernel Pages: 1 -->
<svg width="329pt" height="227pt"
 viewBox="0.00 0.00 329.00 227.00" xmlns="http://www.w3.org/2000/svg" xmlns:xlink="http://www.w3.org/1999/xlink">

<svg id="main" version="1.1" xmlns="http://www.w3.org/2000/svg" xmlns:xlink="http://www.w3.org/1999/xlink" xml:space="preserve" onload="init(evt)">
<style type="text/css"><![CDATA[
.node, .edge {opacity: 0.7;}
.node.selected, .edge.selected {opacity: 1;}
.edge:hover path { stroke: red; }
.edge:hover polygon { stroke: red; fill: red; }
]]></style>
<script type="application/ecmascript" xlink:href="svg.min.js"/>
<svg id="graph" class="graph">
<g id="graph0" class="graph" transform="scale(1 1) rotate(0) translate(4 223)">
<title>sierra::nalu::MomentumGclSrcNodeKernel</title>
<!-- Node1 -->
<g id="Node000001" class="node">
<title>Node1</title>
<g id="a_Node000001"><a xlink:title=" ">
<polygon fill="#999999" stroke="#666666" points="165.5,-30 16.5,-30 16.5,0 165.5,0 165.5,-30"/>
<text text-anchor="start" x="24.5" y="-18" font-family="Helvetica,sans-Serif" font-size="10.00">sierra::nalu::MomentumGcl</text>
<text text-anchor="middle" x="91" y="-7" font-family="Helvetica,sans-Serif" font-size="10.00">SrcNodeKernel</text>
</a>
</g>
</g>
<!-- Node2 -->
<g id="Node000002" class="node">
<title>Node2</title>
<g id="a_Node000002"><a xlink:href="classsierra_1_1nalu_1_1_n_g_p_node_kernel.html" target="_top" xlink:title=" ">
<polygon fill="white" stroke="#666666" points="182,-97 0,-97 0,-67 182,-67 182,-97"/>
<text text-anchor="start" x="8" y="-85" font-family="Helvetica,sans-Serif" font-size="10.00">sierra::nalu::NGPNodeKernel</text>
<text text-anchor="middle" x="91" y="-74" font-family="Helvetica,sans-Serif" font-size="10.00">&lt; MomentumGclSrcNodeKernel &gt;</text>
</a>
</g>
</g>
<!-- Node2&#45;&gt;Node1 -->
<g id="edge1_Node000001_Node000002" class="edge">
<title>Node2&#45;&gt;Node1</title>
<g id="a_edge1_Node000001_Node000002"><a xlink:title=" ">
<path fill="none" stroke="#63b8ff" d="M91,-56.61C91,-47.65 91,-37.82 91,-30.08"/>
<polygon fill="#63b8ff" stroke="#63b8ff" points="87.5,-56.9 91,-66.9 94.5,-56.9 87.5,-56.9"/>
</a>
</g>
</g>
<!-- Node3 -->
<g id="Node000003" class="node">
<title>Node3</title>
<g id="a_Node000003"><a xlink:href="classsierra_1_1nalu_1_1_node_kernel.html" target="_top" xlink:title=" ">
<polygon fill="white" stroke="#666666" points="154,-219 20,-219 20,-200 154,-200 154,-219"/>
<text text-anchor="middle" x="87" y="-207" font-family="Helvetica,sans-Serif" font-size="10.00">sierra::nalu::NodeKernel</text>
</a>
</g>
</g>
<!-- Node3&#45;&gt;Node2 -->
<g id="edge2_Node000002_Node000003" class="edge">
<title>Node3&#45;&gt;Node2</title>
<g id="a_edge2_Node000002_Node000003"><a xlink:title=" ">
<path fill="none" stroke="#63b8ff" d="M87.6,-189.76C88.4,-164.48 89.82,-120.02 90.55,-97.27"/>
<polygon fill="#63b8ff" stroke="#63b8ff" points="84.1,-189.77 87.27,-199.87 91.09,-189.99 84.1,-189.77"/>
</a>
</g>
</g>
<!-- Node4 -->
<g id="Node000004" class="node">
<title>Node4</title>
<g id="a_Node000004"><a xlink:href="classsierra_1_1nalu_1_1_n_g_p_node_kernel.html" target="_top" xlink:title=" ">
<polygon fill="white" stroke="#666666" points="286.5,-163 103.5,-163 103.5,-144 286.5,-144 286.5,-163"/>
<text text-anchor="middle" x="195" y="-151" font-family="Helvetica,sans-Serif" font-size="10.00">sierra::nalu::NGPNodeKernel&lt; T &gt;</text>
</a>
</g>
</g>
<!-- Node3&#45;&gt;Node4 -->
<g id="edge4_Node000004_Node000003" class="edge">
<title>Node3&#45;&gt;Node4</title>
<g id="a_edge4_Node000004_Node000003"><a xlink:title=" ">
<path fill="none" stroke="#63b8ff" d="M113.55,-195.23C133.55,-185.23 160.39,-171.81 177.69,-163.15"/>
<polygon fill="#63b8ff" stroke="#63b8ff" points="111.73,-192.22 104.35,-199.82 114.86,-198.48 111.73,-192.22"/>
</a>
</g>
</g>
<!-- Node4&#45;&gt;Node2 -->
<g id="edge3_Node000002_Node000004" class="edge">
<title>Node4&#45;&gt;Node2</title>
<g id="a_edge3_Node000002_Node000004"><a xlink:title=" ">
<path fill="none" stroke="orange" stroke-dasharray="5,2" d="M173.62,-138.21C155.64,-126.19 130.07,-109.11 112.16,-97.14"/>
<polygon fill="orange" stroke="orange" points="171.99,-141.33 182.25,-143.98 175.88,-135.51 171.99,-141.33"/>
</a>
</g>
<text text-anchor="middle" x="236.5" y="-118" font-family="Helvetica,sans-Serif" font-size="10.00" fill="grey"> &lt; MomentumGclSrcNodeKernel &gt;</text>
</g>
</g>
</svg>
</svg>

<style type='text/css'>
<![CDATA[
[data-mouse-over-selected='false'] { opacity: 0.7; }
[data-mouse-over-selected='true']  { opacity: 1.0; }
]]>
</style>
<script type="application/ecmascript"><![CDATA[
document.addEventListener('DOMContentLoaded', (event) => {
  highlightEdges();
  highlightAdjacentNodes();
});
]]></script>
</svg>
