<?xml version="1.0" encoding="UTF-8" standalone="no"?>
<!DOCTYPE svg PUBLIC "-//W3C//DTD SVG 1.1//EN"
 "http://www.w3.org/Graphics/SVG/1.1/DTD/svg11.dtd">
<!-- Generated by graphviz version 2.43.0 (0)
 -->
<!-- Title: sierra::nalu::TKESSTDESNodeKernel Pages: 1 -->
<svg width="288pt" height="231pt"
 viewBox="0.00 0.00 287.50 231.00" xmlns="http://www.w3.org/2000/svg" xmlns:xlink="http://www.w3.org/1999/xlink">
<g id="graph0" class="graph" transform="scale(1 1) rotate(0) translate(4 227)">
<title>sierra::nalu::TKESSTDESNodeKernel</title>
<polygon fill="white" stroke="transparent" points="-4,4 -4,-227 283.5,-227 283.5,4 -4,4"/>
<!-- Node1 -->
<g id="node1" class="node">
<title>Node1</title>
<g id="a_node1"><a xlink:title=" ">
<polygon fill="#bfbfbf" stroke="black" points="0,-0.5 0,-30.5 159,-30.5 159,-0.5 0,-0.5"/>
<text text-anchor="start" x="8" y="-18.5" font-family="Helvetica,sans-Serif" font-size="10.00">sierra::nalu::TKESSTDESNode</text>
<text text-anchor="middle" x="79.5" y="-7.5" font-family="Helvetica,sans-Serif" font-size="10.00">Kernel</text>
</a>
</g>
</g>
<!-- Node2 -->
<g id="node2" class="node">
<title>Node2</title>
<g id="a_node2"><a xlink:href="classsierra_1_1nalu_1_1_n_g_p_node_kernel.html" target="_top" xlink:title=" ">
<polygon fill="white" stroke="black" points="2,-68.5 2,-98.5 157,-98.5 157,-68.5 2,-68.5"/>
<text text-anchor="start" x="10" y="-86.5" font-family="Helvetica,sans-Serif" font-size="10.00">sierra::nalu::NGPNodeKernel</text>
<text text-anchor="middle" x="79.5" y="-75.5" font-family="Helvetica,sans-Serif" font-size="10.00">&lt; TKESSTDESNodeKernel &gt;</text>
</a>
</g>
</g>
<!-- Node2&#45;&gt;Node1 -->
<g id="edge1" class="edge">
<title>Node2&#45;&gt;Node1</title>
<path fill="none" stroke="midnightblue" d="M79.5,-58.03C79.5,-48.86 79.5,-38.74 79.5,-30.79"/>
<polygon fill="midnightblue" stroke="midnightblue" points="76,-58.18 79.5,-68.18 83,-58.18 76,-58.18"/>
</g>
<!-- Node3 -->
<g id="node3" class="node">
<title>Node3</title>
<g id="a_node3"><a xlink:href="classsierra_1_1nalu_1_1_node_kernel.html" target="_top" xlink:title=" ">
<polygon fill="white" stroke="black" points="8.5,-203.5 8.5,-222.5 142.5,-222.5 142.5,-203.5 8.5,-203.5"/>
<text text-anchor="middle" x="75.5" y="-210.5" font-family="Helvetica,sans-Serif" font-size="10.00">sierra::nalu::NodeKernel</text>
</a>
</g>
</g>
<!-- Node3&#45;&gt;Node2 -->
<g id="edge2" class="edge">
<title>Node3&#45;&gt;Node2</title>
<path fill="none" stroke="midnightblue" d="M76.1,-192.9C76.91,-167.05 78.34,-121.54 79.06,-98.59"/>
<polygon fill="midnightblue" stroke="midnightblue" points="72.59,-193.13 75.77,-203.24 79.59,-193.35 72.59,-193.13"/>
</g>
<!-- Node4 -->
<g id="node4" class="node">
<title>Node4</title>
<g id="a_node4"><a xlink:href="classsierra_1_1nalu_1_1_n_g_p_node_kernel.html" target="_top" xlink:title=" ">
<polygon fill="white" stroke="black" points="92,-146.5 92,-165.5 275,-165.5 275,-146.5 92,-146.5"/>
<text text-anchor="middle" x="183.5" y="-153.5" font-family="Helvetica,sans-Serif" font-size="10.00">sierra::nalu::NGPNodeKernel&lt; T &gt;</text>
</a>
</g>
</g>
<!-- Node3&#45;&gt;Node4 -->
<g id="edge4" class="edge">
<title>Node3&#45;&gt;Node4</title>
<path fill="none" stroke="midnightblue" d="M101.39,-198.82C121.66,-188.49 149.27,-174.43 166.74,-165.53"/>
<polygon fill="midnightblue" stroke="midnightblue" points="99.7,-195.75 92.37,-203.41 102.87,-201.99 99.7,-195.75"/>
</g>
<!-- Node4&#45;&gt;Node2 -->
<g id="edge3" class="edge">
<title>Node4&#45;&gt;Node2</title>
<path fill="none" stroke="orange" stroke-dasharray="5,2" d="M162.06,-140.47C143.95,-128.19 118.18,-110.72 100.26,-98.58"/>
<polygon fill="orange" stroke="orange" points="160.51,-143.64 170.75,-146.36 164.43,-137.85 160.51,-143.64"/>
<text text-anchor="middle" x="210" y="-120" font-family="Helvetica,sans-Serif" font-size="10.00"> &lt; TKESSTDESNodeKernel &gt;</text>
</g>
</g>
</svg>
