<?xml version="1.0" encoding="UTF-8" standalone="no"?>
<!DOCTYPE svg PUBLIC "-//W3C//DTD SVG 1.1//EN"
 "http://www.w3.org/Graphics/SVG/1.1/DTD/svg11.dtd">
<!-- Generated by graphviz version 2.43.0 (0)
 -->
<!-- Title: sierra::nalu::MomentumBoussinesqNodeKernel Pages: 1 -->
<svg width="447pt" height="182pt"
 viewBox="0.00 0.00 446.50 182.00" xmlns="http://www.w3.org/2000/svg" xmlns:xlink="http://www.w3.org/1999/xlink">
<g id="graph0" class="graph" transform="scale(1 1) rotate(0) translate(4 178)">
<title>sierra::nalu::MomentumBoussinesqNodeKernel</title>
<!-- Node1 -->
<g id="Node000001" class="node">
<title>Node1</title>
<g id="a_Node000001"><a xlink:title=" ">
<polygon fill="#999999" stroke="#666666" points="189,-118 0,-118 0,-88 189,-88 189,-118"/>
<text text-anchor="start" x="8" y="-106" font-family="Helvetica,sans-Serif" font-size="10.00">sierra::nalu::MomentumBoussinesq</text>
<text text-anchor="middle" x="94.5" y="-95" font-family="Helvetica,sans-Serif" font-size="10.00">NodeKernel</text>
</a>
</g>
</g>
<!-- Node2 -->
<g id="Node000002" class="node">
<title>Node2</title>
<g id="a_Node000002"><a xlink:href="classsierra_1_1nalu_1_1_n_g_p_node_kernel.html" target="_top" xlink:title=" ">
<polygon fill="white" stroke="#666666" points="306,-30 99,-30 99,0 306,0 306,-30"/>
<text text-anchor="start" x="107" y="-18" font-family="Helvetica,sans-Serif" font-size="10.00">sierra::nalu::NGPNodeKernel</text>
<text text-anchor="middle" x="202.5" y="-7" font-family="Helvetica,sans-Serif" font-size="10.00">&lt; MomentumBoussinesqNodeKernel &gt;</text>
</a>
</g>
</g>
<!-- Node1&#45;&gt;Node2 -->
<g id="edge3_Node000002_Node000001" class="edge">
<title>Node1&#45;&gt;Node2</title>
<g id="a_edge3_Node000002_Node000001"><a xlink:title=" ">
<path fill="none" stroke="#9a32cd" stroke-dasharray="5,2" d="M91.16,-77.24C91.13,-67.18 92.97,-56.06 99.5,-48 105.69,-40.36 113.67,-34.51 122.45,-30.03"/>
<polygon fill="#9a32cd" stroke="#9a32cd" points="87.69,-77.77 91.79,-87.54 94.67,-77.34 87.69,-77.77"/>
</a>
</g>
<text text-anchor="middle" x="132.5" y="-56.5" font-family="Helvetica,sans-Serif" font-size="10.00" fill="grey"> deviceCopy_</text>
</g>
<!-- Node2&#45;&gt;Node1 -->
<g id="edge1_Node000001_Node000002" class="edge">
<title>Node2&#45;&gt;Node1</title>
<g id="a_edge1_Node000001_Node000002"><a xlink:title=" ">
<path fill="none" stroke="#63b8ff" d="M192.39,-39.21C186.87,-49.72 179.17,-61.64 169.5,-70 160.93,-77.41 150.39,-83.31 139.96,-87.92"/>
<polygon fill="#63b8ff" stroke="#63b8ff" points="195.6,-40.61 196.84,-30.09 189.31,-37.54 195.6,-40.61"/>
</a>
</g>
</g>
<!-- Node3 -->
<g id="Node000003" class="node">
<title>Node3</title>
<g id="a_Node000003"><a xlink:href="classsierra_1_1nalu_1_1_node_kernel.html" target="_top" xlink:title=" ">
<polygon fill="white" stroke="#666666" points="296.5,-174 162.5,-174 162.5,-155 296.5,-155 296.5,-174"/>
<text text-anchor="middle" x="229.5" y="-162" font-family="Helvetica,sans-Serif" font-size="10.00">sierra::nalu::NodeKernel</text>
</a>
</g>
</g>
<!-- Node3&#45;&gt;Node2 -->
<g id="edge2_Node000002_Node000003" class="edge">
<title>Node3&#45;&gt;Node2</title>
<g id="a_edge2_Node000002_Node000003"><a xlink:title=" ">
<path fill="none" stroke="#63b8ff" d="M226.07,-144.76C220.6,-114.9 210.04,-57.18 205.13,-30.35"/>
<polygon fill="#63b8ff" stroke="#63b8ff" points="222.65,-145.51 227.89,-154.71 229.53,-144.25 222.65,-145.51"/>
</a>
</g>
</g>
<!-- Node4 -->
<g id="Node000004" class="node">
<title>Node4</title>
<g id="a_Node000004"><a xlink:href="classsierra_1_1nalu_1_1_n_g_p_node_kernel.html" target="_top" xlink:title=" ">
<polygon fill="white" stroke="#666666" points="429,-112.5 246,-112.5 246,-93.5 429,-93.5 429,-112.5"/>
<text text-anchor="middle" x="337.5" y="-100.5" font-family="Helvetica,sans-Serif" font-size="10.00">sierra::nalu::NGPNodeKernel&lt; T &gt;</text>
</a>
</g>
</g>
<!-- Node3&#45;&gt;Node4 -->
<g id="edge5_Node000004_Node000003" class="edge">
<title>Node3&#45;&gt;Node4</title>
<g id="a_edge5_Node000004_Node000003"><a xlink:title=" ">
<path fill="none" stroke="#63b8ff" d="M253.9,-150.06C274.8,-138.54 304.26,-122.31 322.05,-112.51"/>
<polygon fill="#63b8ff" stroke="#63b8ff" points="252.04,-147.08 244.97,-154.98 255.42,-153.22 252.04,-147.08"/>
</a>
</g>
</g>
<!-- Node4&#45;&gt;Node2 -->
<g id="edge4_Node000002_Node000004" class="edge">
<title>Node4&#45;&gt;Node2</title>
<g id="a_edge4_Node000002_Node000004"><a xlink:title=" ">
<path fill="none" stroke="orange" stroke-dasharray="5,2" d="M315.62,-88.06C290.63,-72.14 249.95,-46.22 224.78,-30.2"/>
<polygon fill="orange" stroke="orange" points="313.75,-91.02 324.06,-93.44 317.51,-85.11 313.75,-91.02"/>
</a>
</g>
<text text-anchor="start" x="286.5" y="-62" font-family="Helvetica,sans-Serif" font-size="10.00" fill="grey"> &lt; MomentumBoussinesqNode</text>
<text text-anchor="middle" x="362.5" y="-51" font-family="Helvetica,sans-Serif" font-size="10.00" fill="grey">Kernel &gt;</text>
</g>
</g>
</svg>
