<?xml version="1.0" encoding="UTF-8" standalone="no"?>
<!DOCTYPE svg PUBLIC "-//W3C//DTD SVG 1.1//EN"
 "http://www.w3.org/Graphics/SVG/1.1/DTD/svg11.dtd">
<!-- Generated by graphviz version 2.43.0 (0)
 -->
<!-- Title: sierra::nalu::BSpline5D Pages: 1 -->
<!--zoomable 447 -->

<svg id="main" version="1.1" xmlns="http://www.w3.org/2000/svg" xmlns:xlink="http://www.w3.org/1999/xlink" xml:space="preserve" onload="init(evt)">
<style type="text/css"><![CDATA[
.node, .edge {opacity: 0.7;}
.node.selected, .edge.selected {opacity: 1;}
.edge:hover path { stroke: red; }
.edge:hover polygon { stroke: red; fill: red; }
]]></style>

<defs>
  <circle id="rim" cx="0" cy="0" r="7"/>
  <circle id="rim2" cx="0" cy="0" r="3.5"/>
  <g id="zoomPlus">
    <use xlink:href="#rim" fill="#404040"><set attributeName="fill" to="#808080" begin="zoomplus.mouseover" end="zoomplus.mouseout"/></use>
    <path d="M-4,0h8M0,-4v8" fill="none" stroke="white" stroke-width="1.5" pointer-events="none"/>
  </g>
  <g id="zoomMin">
    <use xlink:href="#rim" fill="#404040"><set attributeName="fill" to="#808080" begin="zoomminus.mouseover" end="zoomminus.mouseout"/></use>
    <path d="M-4,0h8" fill="none" stroke="white" stroke-width="1.5" pointer-events="none"/>
  </g>
  <g id="arrowUp" transform="translate(30 24)">
    <use xlink:href="#rim"/>
    <path pointer-events="none" fill="none" stroke="white" stroke-width="1.5" d="M0,-3.0v7 M-2.5,-0.5L0,-3.0L2.5,-0.5"/>
  </g>
  <g id="arrowRight" transform="rotate(90) translate(36 -43)">
    <use xlink:href="#rim"/>
    <path pointer-events="none" fill="none" stroke="white" stroke-width="1.5" d="M0,-3.0v7 M-2.5,-0.5L0,-3.0L2.5,-0.5"/>
  </g>
  <g id="arrowDown" transform="rotate(180) translate(-30 -48)">
    <use xlink:href="#rim"/>
    <path pointer-events="none" fill="none" stroke="white" stroke-width="1.5" d="M0,-3.0v7 M-2.5,-0.5L0,-3.0L2.5,-0.5"/>
  </g>
  <g id="arrowLeft" transform="rotate(270) translate(-36 17)">
    <use xlink:href="#rim"/>
    <path pointer-events="none" fill="none" stroke="white" stroke-width="1.5" d="M0,-3.0v7 M-2.5,-0.5L0,-3.0L2.5,-0.5"/>
  </g>
  <g id="resetDef">
    <use xlink:href="#rim2" fill="#404040"><set attributeName="fill" to="#808080" begin="reset.mouseover" end="reset.mouseout"/></use>
  </g>
</defs>
<script type="application/ecmascript">
var viewWidth = 2592;
var viewHeight = 447;
var sectionId = 'dynsection-1';
</script>
<script type="application/ecmascript" xlink:href="svg.min.js"/>
<svg id="graph" class="graph">
<g id="viewport">
<title>sierra::nalu::BSpline5D</title>
<!-- Node1 -->
<g id="Node000001" class="node">
<title>Node1</title>
<g id="a_Node000001"><a xlink:title=" ">
<polygon fill="#999999" stroke="#666666" points="2584,-409.5 2456,-409.5 2456,-390.5 2584,-390.5 2584,-409.5"/>
<text text-anchor="middle" x="2520" y="-397.5" font-family="Helvetica,sans-Serif" font-size="10.00">sierra::nalu::BSpline5D</text>
</a>
</g>
</g>
<!-- Node2 -->
<g id="Node000002" class="node">
<title>Node2</title>
<g id="a_Node000002"><a xlink:href="classsierra_1_1nalu_1_1_b_spline.html" target="_top" xlink:title="Base class for B&#45;Splines.">
<polygon fill="white" stroke="#666666" points="425,-268.5 311,-268.5 311,-249.5 425,-249.5 425,-268.5"/>
<text text-anchor="middle" x="368" y="-256.5" font-family="Helvetica,sans-Serif" font-size="10.00">sierra::nalu::BSpline</text>
</a>
</g>
</g>
<!-- Node2&#45;&gt;Node1 -->
<g id="edge1_Node000001_Node000002" class="edge">
<title>Node2&#45;&gt;Node1</title>
<g id="a_edge1_Node000001_Node000002"><a xlink:title=" ">
<path fill="none" stroke="#63b8ff" d="M381.75,-276.75C415.99,-322.16 515.06,-439 628,-439 628,-439 628,-439 2314,-439 2376.86,-439 2448.67,-421.09 2488.44,-409.54"/>
<polygon fill="#63b8ff" stroke="#63b8ff" points="384.54,-274.64 375.78,-268.68 378.91,-278.8 384.54,-274.64"/>
</a>
</g>
</g>
<!-- Node4 -->
<g id="Node000004" class="node">
<title>Node4</title>
<g id="a_Node000004"><a xlink:href="classsierra_1_1nalu_1_1_b_spline4_d.html" target="_top" xlink:title=" ">
<polygon fill="white" stroke="#666666" points="2153,-177.5 2025,-177.5 2025,-158.5 2153,-158.5 2153,-177.5"/>
<text text-anchor="middle" x="2089" y="-165.5" font-family="Helvetica,sans-Serif" font-size="10.00">sierra::nalu::BSpline4D</text>
</a>
</g>
</g>
<!-- Node2&#45;&gt;Node4 -->
<g id="edge4_Node000004_Node000002" class="edge">
<title>Node2&#45;&gt;Node4</title>
<g id="a_edge4_Node000004_Node000002"><a xlink:title=" ">
<path fill="none" stroke="#63b8ff" d="M398.97,-245.19C413.56,-238.8 431.48,-231.44 448,-226 704.23,-141.7 774.76,-114 1044.5,-114 1044.5,-114 1044.5,-114 1883,-114 1952.01,-114 2029.9,-142.97 2066.64,-158.47"/>
<polygon fill="#63b8ff" stroke="#63b8ff" points="397.17,-242.15 389.46,-249.42 400.02,-248.55 397.17,-242.15"/>
</a>
</g>
</g>
<!-- Node6 -->
<g id="Node000006" class="node">
<title>Node6</title>
<g id="a_Node000006"><a xlink:href="classsierra_1_1nalu_1_1_b_spline3_d.html" target="_top" xlink:title=" ">
<polygon fill="white" stroke="#666666" points="1722,-237.5 1594,-237.5 1594,-218.5 1722,-218.5 1722,-237.5"/>
<text text-anchor="middle" x="1658" y="-225.5" font-family="Helvetica,sans-Serif" font-size="10.00">sierra::nalu::BSpline3D</text>
</a>
</g>
</g>
<!-- Node2&#45;&gt;Node6 -->
<g id="edge7_Node000006_Node000002" class="edge">
<title>Node2&#45;&gt;Node6</title>
<g id="a_edge7_Node000006_Node000002"><a xlink:title=" ">
<path fill="none" stroke="#63b8ff" d="M435.26,-256.89C602.47,-251.56 1029.42,-238 1044.5,-238 1044.5,-238 1044.5,-238 1452,-238 1499.57,-238 1553.27,-235.28 1593.78,-232.68"/>
<polygon fill="#63b8ff" stroke="#63b8ff" points="434.98,-253.39 425.1,-257.21 435.21,-260.39 434.98,-253.39"/>
</a>
</g>
</g>
<!-- Node8 -->
<g id="Node000008" class="node">
<title>Node8</title>
<g id="a_Node000008"><a xlink:href="classsierra_1_1nalu_1_1_b_spline2_d.html" target="_top" xlink:title=" ">
<polygon fill="white" stroke="#666666" points="1241,-208.5 1113,-208.5 1113,-189.5 1241,-189.5 1241,-208.5"/>
<text text-anchor="middle" x="1177" y="-196.5" font-family="Helvetica,sans-Serif" font-size="10.00">sierra::nalu::BSpline2D</text>
</a>
</g>
</g>
<!-- Node2&#45;&gt;Node8 -->
<g id="edge10_Node000008_Node000002" class="edge">
<title>Node2&#45;&gt;Node8</title>
<g id="a_edge10_Node000008_Node000002"><a xlink:title=" ">
<path fill="none" stroke="#63b8ff" d="M430.34,-247.77C436.3,-246.79 442.26,-245.85 448,-245 564.44,-227.83 593.63,-222.79 711,-214 854.37,-203.26 1023.18,-200.2 1112.73,-199.34"/>
<polygon fill="#63b8ff" stroke="#63b8ff" points="429.63,-244.34 420.35,-249.45 430.79,-251.24 429.63,-244.34"/>
</a>
</g>
</g>
<!-- Node10 -->
<g id="Node000010" class="node">
<title>Node10</title>
<g id="a_Node000010"><a xlink:href="classsierra_1_1nalu_1_1_b_spline1_d.html" target="_top" xlink:title="Support for B&#45;Spline of a curve.">
<polygon fill="white" stroke="#666666" points="693,-332.5 565,-332.5 565,-313.5 693,-313.5 693,-332.5"/>
<text text-anchor="middle" x="629" y="-320.5" font-family="Helvetica,sans-Serif" font-size="10.00">sierra::nalu::BSpline1D</text>
</a>
</g>
</g>
<!-- Node2&#45;&gt;Node10 -->
<g id="edge13_Node000010_Node000002" class="edge">
<title>Node2&#45;&gt;Node10</title>
<g id="a_edge13_Node000010_Node000002"><a xlink:title=" ">
<path fill="none" stroke="#63b8ff" d="M417.37,-270.95C467.06,-283.23 543.45,-302.11 589.29,-313.44"/>
<polygon fill="#63b8ff" stroke="#63b8ff" points="418.04,-267.51 407.5,-268.51 416.36,-274.31 418.04,-267.51"/>
</a>
</g>
</g>
<!-- Node3 -->
<g id="Node000003" class="node">
<title>Node3</title>
<g id="a_Node000003"><a xlink:title=" ">
<polygon fill="white" stroke="#666666" points="2388,-183 2238,-183 2238,-153 2388,-153 2388,-183"/>
<text text-anchor="start" x="2246" y="-171" font-family="Helvetica,sans-Serif" font-size="10.00">std::vector&lt; const</text>
<text text-anchor="middle" x="2313" y="-160" font-family="Helvetica,sans-Serif" font-size="10.00"> sierra::nalu::BSpline4D * &gt;</text>
</a>
</g>
</g>
<!-- Node3&#45;&gt;Node1 -->
<g id="edge2_Node000001_Node000003" class="edge">
<title>Node3&#45;&gt;Node1</title>
<g id="a_edge2_Node000001_Node000003"><a xlink:title=" ">
<path fill="none" stroke="#9a32cd" stroke-dasharray="5,2" d="M2334.21,-190.88C2378.1,-240.54 2480.58,-356.52 2510.6,-390.49"/>
<polygon fill="#9a32cd" stroke="#9a32cd" points="2336.7,-188.4 2327.45,-183.22 2331.45,-193.03 2336.7,-188.4"/>
</a>
</g>
<text text-anchor="middle" x="2422" y="-307" font-family="Helvetica,sans-Serif" font-size="10.00" fill="grey"> sp4d_</text>
</g>
<!-- Node4&#45;&gt;Node3 -->
<g id="edge3_Node000003_Node000004" class="edge">
<title>Node4&#45;&gt;Node3</title>
<g id="a_edge3_Node000003_Node000004"><a xlink:title=" ">
<path fill="none" stroke="#9a32cd" stroke-dasharray="5,2" d="M2163.12,-168C2187.1,-168 2213.76,-168 2237.82,-168"/>
<polygon fill="#9a32cd" stroke="#9a32cd" points="2163.02,-164.5 2153.02,-168 2163.02,-171.5 2163.02,-164.5"/>
</a>
</g>
<text text-anchor="middle" x="2195.5" y="-171" font-family="Helvetica,sans-Serif" font-size="10.00" fill="grey"> elements</text>
</g>
<!-- Node5 -->
<g id="Node000005" class="node">
<title>Node5</title>
<g id="a_Node000005"><a xlink:title=" ">
<polygon fill="white" stroke="#666666" points="1957,-183 1807,-183 1807,-153 1957,-153 1957,-183"/>
<text text-anchor="start" x="1815" y="-171" font-family="Helvetica,sans-Serif" font-size="10.00">std::vector&lt; const</text>
<text text-anchor="middle" x="1882" y="-160" font-family="Helvetica,sans-Serif" font-size="10.00"> sierra::nalu::BSpline3D * &gt;</text>
</a>
</g>
</g>
<!-- Node5&#45;&gt;Node4 -->
<g id="edge5_Node000004_Node000005" class="edge">
<title>Node5&#45;&gt;Node4</title>
<g id="a_edge5_Node000004_Node000005"><a xlink:title=" ">
<path fill="none" stroke="#9a32cd" stroke-dasharray="5,2" d="M1967.03,-168C1986.38,-168 2006.64,-168 2024.93,-168"/>
<polygon fill="#9a32cd" stroke="#9a32cd" points="1967.01,-164.5 1957.01,-168 1967.01,-171.5 1967.01,-164.5"/>
</a>
</g>
<text text-anchor="middle" x="1991" y="-171" font-family="Helvetica,sans-Serif" font-size="10.00" fill="grey"> sp3d_</text>
</g>
<!-- Node6&#45;&gt;Node5 -->
<g id="edge6_Node000005_Node000006" class="edge">
<title>Node6&#45;&gt;Node5</title>
<g id="a_edge6_Node000005_Node000006"><a xlink:title=" ">
<path fill="none" stroke="#9a32cd" stroke-dasharray="5,2" d="M1704.12,-215.81C1739.11,-206.35 1787.79,-193.19 1825.23,-183.07"/>
<polygon fill="#9a32cd" stroke="#9a32cd" points="1702.92,-212.5 1694.18,-218.49 1704.74,-219.26 1702.92,-212.5"/>
</a>
</g>
<text text-anchor="middle" x="1764.5" y="-208" font-family="Helvetica,sans-Serif" font-size="10.00" fill="grey"> elements</text>
</g>
<!-- Node7 -->
<g id="Node000007" class="node">
<title>Node7</title>
<g id="a_Node000007"><a xlink:title=" ">
<polygon fill="white" stroke="#666666" points="1526,-210 1376,-210 1376,-180 1526,-180 1526,-210"/>
<text text-anchor="start" x="1384" y="-198" font-family="Helvetica,sans-Serif" font-size="10.00">std::vector&lt; const</text>
<text text-anchor="middle" x="1451" y="-187" font-family="Helvetica,sans-Serif" font-size="10.00"> sierra::nalu::BSpline2D * &gt;</text>
</a>
</g>
</g>
<!-- Node7&#45;&gt;Node6 -->
<g id="edge8_Node000006_Node000007" class="edge">
<title>Node7&#45;&gt;Node6</title>
<g id="a_edge8_Node000006_Node000007"><a xlink:title=" ">
<path fill="none" stroke="#9a32cd" stroke-dasharray="5,2" d="M1536.27,-206.78C1549.58,-208.77 1563.17,-210.88 1576,-213 1586.16,-214.68 1597.01,-216.6 1607.36,-218.49"/>
<polygon fill="#9a32cd" stroke="#9a32cd" points="1536.57,-203.29 1526.17,-205.28 1535.55,-210.21 1536.57,-203.29"/>
</a>
</g>
<text text-anchor="middle" x="1560" y="-216" font-family="Helvetica,sans-Serif" font-size="10.00" fill="grey"> sp2d_</text>
</g>
<!-- Node8&#45;&gt;Node7 -->
<g id="edge9_Node000007_Node000008" class="edge">
<title>Node8&#45;&gt;Node7</title>
<g id="a_edge9_Node000007_Node000008"><a xlink:title=" ">
<path fill="none" stroke="#9a32cd" stroke-dasharray="5,2" d="M1251.2,-197.92C1289.76,-197.36 1336.95,-196.66 1375.67,-196.09"/>
<polygon fill="#9a32cd" stroke="#9a32cd" points="1251.03,-194.43 1241.09,-198.07 1251.14,-201.42 1251.03,-194.43"/>
</a>
</g>
<text text-anchor="middle" x="1308.5" y="-200" font-family="Helvetica,sans-Serif" font-size="10.00" fill="grey"> elements</text>
</g>
<!-- Node9 -->
<g id="Node000009" class="node">
<title>Node9</title>
<g id="a_Node000009"><a xlink:title=" ">
<polygon fill="white" stroke="#666666" points="978,-172 828,-172 828,-142 978,-142 978,-172"/>
<text text-anchor="start" x="836" y="-160" font-family="Helvetica,sans-Serif" font-size="10.00">std::vector&lt; const</text>
<text text-anchor="middle" x="903" y="-149" font-family="Helvetica,sans-Serif" font-size="10.00"> sierra::nalu::BSpline1D * &gt;</text>
</a>
</g>
</g>
<!-- Node9&#45;&gt;Node8 -->
<g id="edge11_Node000008_Node000009" class="edge">
<title>Node9&#45;&gt;Node8</title>
<g id="a_edge11_Node000008_Node000009"><a xlink:title=" ">
<path fill="none" stroke="#9a32cd" stroke-dasharray="5,2" d="M988.58,-161.43C1021.94,-164.09 1060.47,-168.32 1095,-175 1113.14,-178.51 1133.05,-184.38 1148.59,-189.43"/>
<polygon fill="#9a32cd" stroke="#9a32cd" points="988.64,-157.92 978.4,-160.65 988.1,-164.9 988.64,-157.92"/>
</a>
</g>
<text text-anchor="middle" x="1045.5" y="-178" font-family="Helvetica,sans-Serif" font-size="10.00" fill="grey"> dim2Splines_</text>
</g>
<!-- Node10&#45;&gt;Node1 -->
<g id="edge24_Node000001_Node000010" class="edge">
<title>Node10&#45;&gt;Node1</title>
<g id="a_edge24_Node000001_Node000010"><a xlink:title=" ">
<path fill="none" stroke="#9a32cd" stroke-dasharray="5,2" d="M656.21,-337.24C671.76,-345.19 692.07,-354.73 711,-361 793.24,-388.26 815.36,-400 902,-400 902,-400 902,-400 2314,-400 2361.51,-400 2415.22,-400 2455.74,-400"/>
<polygon fill="#9a32cd" stroke="#9a32cd" points="657.69,-334.06 647.2,-332.54 654.45,-340.27 657.69,-334.06"/>
</a>
</g>
<text text-anchor="middle" x="1658" y="-403" font-family="Helvetica,sans-Serif" font-size="10.00" fill="grey"> sp1_</text>
</g>
<!-- Node10&#45;&gt;Node4 -->
<g id="edge22_Node000004_Node000010" class="edge">
<title>Node10&#45;&gt;Node4</title>
<g id="a_edge22_Node000004_Node000010"><a xlink:title=" ">
<path fill="none" stroke="#9a32cd" stroke-dasharray="5,2" d="M682.26,-334.69C736.8,-345.86 824.95,-361 902,-361 902,-361 902,-361 1309.5,-361 1617.93,-361 1975.44,-216.51 2066.2,-177.57"/>
<polygon fill="#9a32cd" stroke="#9a32cd" points="682.65,-331.2 672.15,-332.59 681.23,-338.05 682.65,-331.2"/>
</a>
</g>
<text text-anchor="middle" x="1451" y="-361" font-family="Helvetica,sans-Serif" font-size="10.00" fill="grey"> sp1_</text>
</g>
<!-- Node10&#45;&gt;Node6 -->
<g id="edge20_Node000006_Node000010" class="edge">
<title>Node10&#45;&gt;Node6</title>
<g id="a_edge20_Node000006_Node000010"><a xlink:title=" ">
<path fill="none" stroke="#9a32cd" stroke-dasharray="5,2" d="M703.33,-322.79C863.2,-321.18 1254.62,-310.98 1576,-252 1594.32,-248.64 1614.4,-242.71 1629.98,-237.58"/>
<polygon fill="#9a32cd" stroke="#9a32cd" points="703.1,-319.29 693.13,-322.89 703.16,-326.29 703.1,-319.29"/>
</a>
</g>
<text text-anchor="middle" x="1177" y="-309" font-family="Helvetica,sans-Serif" font-size="10.00" fill="grey"> sp1_</text>
</g>
<!-- Node10&#45;&gt;Node8 -->
<g id="edge18_Node000008_Node000010" class="edge">
<title>Node10&#45;&gt;Node8</title>
<g id="a_edge18_Node000008_Node000010"><a xlink:title=" ">
<path fill="none" stroke="#9a32cd" stroke-dasharray="5,2" d="M681.92,-311.21C789.58,-286.76 1035.32,-230.95 1133.92,-208.56"/>
<polygon fill="#9a32cd" stroke="#9a32cd" points="680.91,-307.85 671.94,-313.48 682.46,-314.67 680.91,-307.85"/>
</a>
</g>
<text text-anchor="middle" x="903" y="-280" font-family="Helvetica,sans-Serif" font-size="10.00" fill="grey"> sp1_</text>
</g>
<!-- Node10&#45;&gt;Node9 -->
<g id="edge12_Node000009_Node000010" class="edge">
<title>Node10&#45;&gt;Node9</title>
<g id="a_edge12_Node000009_Node000010"><a xlink:title=" ">
<path fill="none" stroke="#9a32cd" stroke-dasharray="5,2" d="M648.8,-306.56C664.77,-293 688.61,-273.66 711,-259 764.31,-224.1 830.76,-190.7 869.58,-172.11"/>
<polygon fill="#9a32cd" stroke="#9a32cd" points="646.1,-304.27 640.8,-313.44 650.66,-309.58 646.1,-304.27"/>
</a>
</g>
<text text-anchor="middle" x="760.5" y="-262" font-family="Helvetica,sans-Serif" font-size="10.00" fill="grey"> elements</text>
</g>
<!-- Node11 -->
<g id="Node000011" class="node">
<title>Node11</title>
<g id="a_Node000011"><a xlink:title=" ">
<polygon fill="white" stroke="#666666" points="430,-393.5 306,-393.5 306,-374.5 430,-374.5 430,-393.5"/>
<text text-anchor="middle" x="368" y="-381.5" font-family="Helvetica,sans-Serif" font-size="10.00">std::vector&lt; double &gt;</text>
</a>
</g>
</g>
<!-- Node11&#45;&gt;Node10 -->
<g id="edge14_Node000010_Node000011" class="edge">
<title>Node11&#45;&gt;Node10</title>
<g id="a_edge14_Node000010_Node000011"><a xlink:title=" ">
<path fill="none" stroke="#9a32cd" stroke-dasharray="5,2" d="M419.23,-372.17C468.27,-360.62 541.94,-343.27 587.39,-332.56"/>
<polygon fill="#9a32cd" stroke="#9a32cd" points="418.4,-368.77 409.47,-374.47 420,-375.58 418.4,-368.77"/>
</a>
</g>
<text text-anchor="middle" x="497.5" y="-389" font-family="Helvetica,sans-Serif" font-size="10.00" fill="grey"> basisFun_</text>
<text text-anchor="middle" x="497.5" y="-378" font-family="Helvetica,sans-Serif" font-size="10.00" fill="grey">controlPts_</text>
<text text-anchor="middle" x="497.5" y="-367" font-family="Helvetica,sans-Serif" font-size="10.00" fill="grey">knots_</text>
</g>
<!-- Node12 -->
<g id="Node000012" class="node">
<title>Node12</title>
<g id="a_Node000012"><a xlink:title=" ">
<polygon fill="white" stroke="#666666" points="211,-85.5 114,-85.5 114,-66.5 211,-66.5 211,-85.5"/>
<text text-anchor="middle" x="162.5" y="-73.5" font-family="Helvetica,sans-Serif" font-size="10.00">std::vector&lt; T &gt;</text>
</a>
</g>
</g>
<!-- Node12&#45;&gt;Node3 -->
<g id="edge23_Node000003_Node000012" class="edge">
<title>Node12&#45;&gt;Node3</title>
<g id="a_edge23_Node000003_Node000012"><a xlink:title=" ">
<path fill="none" stroke="orange" stroke-dasharray="5,2" d="M187.07,-60.87C223.91,-38.7 298.11,0 367,0 367,0 367,0 2090,0 2190.78,0 2274.66,-111.44 2302.32,-152.79"/>
<polygon fill="orange" stroke="orange" points="184.8,-58.15 178.11,-66.37 188.46,-64.12 184.8,-58.15"/>
</a>
</g>
<text text-anchor="start" x="1259" y="-14" font-family="Helvetica,sans-Serif" font-size="10.00" fill="grey"> &lt; const sierra::nalu</text>
<text text-anchor="middle" x="1308.5" y="-3" font-family="Helvetica,sans-Serif" font-size="10.00" fill="grey">::BSpline4D * &gt;</text>
</g>
<!-- Node12&#45;&gt;Node5 -->
<g id="edge21_Node000005_Node000012" class="edge">
<title>Node12&#45;&gt;Node5</title>
<g id="a_edge21_Node000005_Node000012"><a xlink:title=" ">
<path fill="none" stroke="orange" stroke-dasharray="5,2" d="M204.73,-63.68C245.55,-52.58 310.01,-38 367,-38 367,-38 367,-38 1659,-38 1749,-38 1834.86,-118.54 1867.34,-152.83"/>
<polygon fill="orange" stroke="orange" points="203.58,-60.36 194.88,-66.41 205.46,-67.11 203.58,-60.36"/>
</a>
</g>
<text text-anchor="start" x="996" y="-52" font-family="Helvetica,sans-Serif" font-size="10.00" fill="grey"> &lt; const sierra::nalu</text>
<text text-anchor="middle" x="1045.5" y="-41" font-family="Helvetica,sans-Serif" font-size="10.00" fill="grey">::BSpline3D * &gt;</text>
</g>
<!-- Node12&#45;&gt;Node7 -->
<g id="edge19_Node000007_Node000012" class="edge">
<title>Node12&#45;&gt;Node7</title>
<g id="a_edge19_Node000007_Node000012"><a xlink:title=" ">
<path fill="none" stroke="orange" stroke-dasharray="5,2" d="M221.21,-76C261.95,-76 317.82,-76 367,-76 367,-76 367,-76 1178,-76 1280.57,-76 1388.04,-147.91 1430.81,-179.93"/>
<polygon fill="orange" stroke="orange" points="221.2,-72.5 211.2,-76 221.2,-79.5 221.2,-72.5"/>
</a>
</g>
<text text-anchor="start" x="711" y="-90" font-family="Helvetica,sans-Serif" font-size="10.00" fill="grey"> &lt; const sierra::nalu</text>
<text text-anchor="middle" x="760.5" y="-79" font-family="Helvetica,sans-Serif" font-size="10.00" fill="grey">::BSpline2D * &gt;</text>
</g>
<!-- Node12&#45;&gt;Node9 -->
<g id="edge17_Node000009_Node000012" class="edge">
<title>Node12&#45;&gt;Node9</title>
<g id="a_edge17_Node000009_Node000012"><a xlink:title=" ">
<path fill="none" stroke="orange" stroke-dasharray="5,2" d="M214.32,-87.53C219.26,-88.45 224.22,-89.3 229,-90 369.29,-110.64 405.88,-102.09 547,-116 644.24,-125.59 756.2,-138.9 827.97,-147.72"/>
<polygon fill="orange" stroke="orange" points="214.72,-84.04 204.23,-85.56 213.37,-90.91 214.72,-84.04"/>
</a>
</g>
<text text-anchor="start" x="448" y="-130" font-family="Helvetica,sans-Serif" font-size="10.00" fill="grey"> &lt; const sierra::nalu</text>
<text text-anchor="middle" x="497.5" y="-119" font-family="Helvetica,sans-Serif" font-size="10.00" fill="grey">::BSpline1D * &gt;</text>
</g>
<!-- Node12&#45;&gt;Node11 -->
<g id="edge15_Node000011_Node000012" class="edge">
<title>Node12&#45;&gt;Node11</title>
<g id="a_edge15_Node000011_Node000012"><a xlink:title=" ">
<path fill="none" stroke="orange" stroke-dasharray="5,2" d="M175.4,-94.01C213.5,-151.67 331.63,-330.47 360.56,-374.25"/>
<polygon fill="orange" stroke="orange" points="178.25,-91.97 169.81,-85.56 172.41,-95.83 178.25,-91.97"/>
</a>
</g>
<text text-anchor="middle" x="258.5" y="-260" font-family="Helvetica,sans-Serif" font-size="10.00" fill="grey"> &lt; double &gt;</text>
</g>
<!-- Node13 -->
<g id="Node000013" class="node">
<title>Node13</title>
<g id="a_Node000013"><a xlink:title=" ">
<polygon fill="white" stroke="#666666" points="29,-85.5 0,-85.5 0,-66.5 29,-66.5 29,-85.5"/>
<text text-anchor="middle" x="14.5" y="-73.5" font-family="Helvetica,sans-Serif" font-size="10.00">T</text>
</a>
</g>
</g>
<!-- Node13&#45;&gt;Node12 -->
<g id="edge16_Node000012_Node000013" class="edge">
<title>Node13&#45;&gt;Node12</title>
<g id="a_edge16_Node000012_Node000013"><a xlink:title=" ">
<path fill="none" stroke="#9a32cd" stroke-dasharray="5,2" d="M39.39,-76C59.54,-76 89.02,-76 113.96,-76"/>
<polygon fill="#9a32cd" stroke="#9a32cd" points="39.24,-72.5 29.24,-76 39.24,-79.5 39.24,-72.5"/>
</a>
</g>
<text text-anchor="middle" x="71.5" y="-79" font-family="Helvetica,sans-Serif" font-size="10.00" fill="grey"> elements</text>
</g>
</g>
</svg>

<g id="navigator" transform="translate(0 0)" fill="#404254">
  <rect fill="#f2f5e9" fill-opacity="0.5" stroke="#606060" stroke-width=".5" x="0" y="0" width="60" height="60"/>
  <use id="zoomplus" xlink:href="#zoomPlus" x="17" y="9" onmousedown="handleZoom(evt,'in')"/>
  <use id="zoomminus" xlink:href="#zoomMin" x="42" y="9" onmousedown="handleZoom(evt,'out')"/>
  <use id="reset" xlink:href="#resetDef" x="30" y="36" onmousedown="handleReset()"/>
   <use id="arrowup" xlink:href="#arrowUp" x="0" y="0" onmousedown="handlePan(0,-1)"/>
  <use id="arrowright" xlink:href="#arrowRight" x="0" y="0" onmousedown="handlePan(1,0)"/>
  <use id="arrowdown" xlink:href="#arrowDown" x="0" y="0" onmousedown="handlePan(0,1)"/>
  <use id="arrowleft" xlink:href="#arrowLeft" x="0" y="0" onmousedown="handlePan(-1,0)"/>
</g>
<svg viewBox="0 0 15 15" width="100%" height="30px" preserveAspectRatio="xMaxYMin meet">
 <g id="arrow_out" transform="scale(0.3 0.3)">
  <a xlink:href="classsierra_1_1nalu_1_1_b_spline5_d__coll__graph_org.svg" target="_base">
   <rect id="button" ry="5" rx="5" y="6" x="6" height="38" width="38"
        fill="#f2f5e9" fill-opacity="0.5" stroke="#606060" stroke-width="1.0"/>
   <path id="arrow"
     d="M 11.500037,31.436501 C 11.940474,20.09759 22.043105,11.32322 32.158766,21.979434 L 37.068811,17.246167 C 37.068811,17.246167 37.088388,32 37.088388,32 L 22.160133,31.978069 C 22.160133,31.978069 26.997745,27.140456 26.997745,27.140456 C 18.528582,18.264221 13.291696,25.230495 11.500037,31.436501 z"
     style="fill:#404040;"/>
  </a>
 </g>
</svg>

<style type='text/css'>
<![CDATA[
[data-mouse-over-selected='false'] { opacity: 0.7; }
[data-mouse-over-selected='true']  { opacity: 1.0; }
]]>
</style>
<script type="application/ecmascript"><![CDATA[
document.addEventListener('DOMContentLoaded', (event) => {
  highlightEdges();
  highlightAdjacentNodes();
});
]]></script>
</svg>
