<?xml version="1.0" encoding="UTF-8" standalone="no"?>
<!DOCTYPE svg PUBLIC "-//W3C//DTD SVG 1.1//EN"
 "http://www.w3.org/Graphics/SVG/1.1/DTD/svg11.dtd">
<!-- Generated by graphviz version 2.43.0 (0)
 -->
<!-- Title: sierra::nalu::ActuatorExecutor Pages: 1 -->
<svg width="345pt" height="134pt"
 viewBox="0.00 0.00 345.00 134.00" xmlns="http://www.w3.org/2000/svg" xmlns:xlink="http://www.w3.org/1999/xlink">
<g id="graph0" class="graph" transform="scale(1 1) rotate(0) translate(4 130)">
<title>sierra::nalu::ActuatorExecutor</title>
<!-- Node1 -->
<g id="Node000001" class="node">
<title>Node1</title>
<g id="a_Node000001"><a xlink:title="Interface class for actuator execution model.">
<polygon fill="#999999" stroke="#666666" points="161,-72.5 0,-72.5 0,-53.5 161,-53.5 161,-72.5"/>
<text text-anchor="middle" x="80.5" y="-60.5" font-family="Helvetica,sans-Serif" font-size="10.00">sierra::nalu::ActuatorExecutor</text>
</a>
</g>
</g>
<!-- Node2 -->
<g id="Node000002" class="node">
<title>Node2</title>
<g id="a_Node000002"><a xlink:href="classsierra_1_1nalu_1_1_actuator_disk_fast_n_g_p.html" target="_top" xlink:title=" ">
<polygon fill="white" stroke="#666666" points="337,-126 197,-126 197,-96 337,-96 337,-126"/>
<text text-anchor="start" x="205" y="-114" font-family="Helvetica,sans-Serif" font-size="10.00">sierra::nalu::ActuatorDisk</text>
<text text-anchor="middle" x="267" y="-103" font-family="Helvetica,sans-Serif" font-size="10.00">FastNGP</text>
</a>
</g>
</g>
<!-- Node1&#45;&gt;Node2 -->
<g id="edge1_Node000001_Node000002" class="edge">
<title>Node1&#45;&gt;Node2</title>
<g id="a_edge1_Node000001_Node000002"><a xlink:title=" ">
<path fill="none" stroke="#63b8ff" d="M128.09,-75.12C152.38,-81.44 182.33,-89.23 208.1,-95.94"/>
<polygon fill="#63b8ff" stroke="#63b8ff" points="128.95,-71.73 118.39,-72.6 127.19,-78.5 128.95,-71.73"/>
</a>
</g>
</g>
<!-- Node3 -->
<g id="Node000003" class="node">
<title>Node3</title>
<g id="a_Node000003"><a xlink:href="classsierra_1_1nalu_1_1_actuator_line_fast_n_g_p.html" target="_top" xlink:title=" ">
<polygon fill="white" stroke="#666666" points="336.5,-78 197.5,-78 197.5,-48 336.5,-48 336.5,-78"/>
<text text-anchor="start" x="205.5" y="-66" font-family="Helvetica,sans-Serif" font-size="10.00">sierra::nalu::ActuatorLine</text>
<text text-anchor="middle" x="267" y="-55" font-family="Helvetica,sans-Serif" font-size="10.00">FastNGP</text>
</a>
</g>
</g>
<!-- Node1&#45;&gt;Node3 -->
<g id="edge2_Node000001_Node000003" class="edge">
<title>Node1&#45;&gt;Node3</title>
<g id="a_edge2_Node000001_Node000003"><a xlink:title=" ">
<path fill="none" stroke="#63b8ff" d="M171.34,-63C180.1,-63 188.89,-63 197.4,-63"/>
<polygon fill="#63b8ff" stroke="#63b8ff" points="171.08,-59.5 161.08,-63 171.08,-66.5 171.08,-59.5"/>
</a>
</g>
</g>
<!-- Node4 -->
<g id="Node000004" class="node">
<title>Node4</title>
<g id="a_Node000004"><a xlink:href="classsierra_1_1nalu_1_1_actuator_line_simple_n_g_p.html" target="_top" xlink:title=" ">
<polygon fill="white" stroke="#666666" points="336.5,-30 197.5,-30 197.5,0 336.5,0 336.5,-30"/>
<text text-anchor="start" x="205.5" y="-18" font-family="Helvetica,sans-Serif" font-size="10.00">sierra::nalu::ActuatorLine</text>
<text text-anchor="middle" x="267" y="-7" font-family="Helvetica,sans-Serif" font-size="10.00">SimpleNGP</text>
</a>
</g>
</g>
<!-- Node1&#45;&gt;Node4 -->
<g id="edge3_Node000001_Node000004" class="edge">
<title>Node1&#45;&gt;Node4</title>
<g id="a_edge3_Node000001_Node000004"><a xlink:title=" ">
<path fill="none" stroke="#63b8ff" d="M128.09,-50.88C152.38,-44.56 182.33,-36.77 208.1,-30.06"/>
<polygon fill="#63b8ff" stroke="#63b8ff" points="127.19,-47.5 118.39,-53.4 128.95,-54.27 127.19,-47.5"/>
</a>
</g>
</g>
</g>
</svg>
