<?xml version="1.0" encoding="UTF-8" standalone="no"?>
<!DOCTYPE svg PUBLIC "-//W3C//DTD SVG 1.1//EN"
 "http://www.w3.org/Graphics/SVG/1.1/DTD/svg11.dtd">
<!-- Generated by graphviz version 2.43.0 (0)
 -->
<!-- Title: sierra::nalu::PecletFunctionBase Pages: 1 -->
<!--zoomable 328 -->
<svg id="main" version="1.1" xmlns="http://www.w3.org/2000/svg" xmlns:xlink="http://www.w3.org/1999/xlink" xml:space="preserve" onload="init(evt)">
<style type="text/css"><![CDATA[
.edge:hover path { stroke: red; }
.edge:hover polygon { stroke: red; fill: red; }
]]></style>
<script type="text/javascript"><![CDATA[
var edges = document.getElementsByTagName('g');
if (edges && edges.length) {
  for (var i=0;i<edges.length;i++) {
    if (edges[i].id.substr(0,4)=='edge') {
      edges[i].setAttribute('class','edge');
    }
  }
}
]]></script>
        <defs>
                <circle id="rim" cx="0" cy="0" r="7"/>
                <circle id="rim2" cx="0" cy="0" r="3.5"/>
                <g id="zoomPlus">
                        <use xlink:href="#rim" fill="#404040">
                                <set attributeName="fill" to="#808080" begin="zoomplus.mouseover" end="zoomplus.mouseout"/>
                        </use>
                        <path d="M-4,0h8M0,-4v8" fill="none" stroke="white" stroke-width="1.5" pointer-events="none"/>
                </g>
                <g id="zoomMin">
                        <use xlink:href="#rim" fill="#404040">
                                <set attributeName="fill" to="#808080" begin="zoomminus.mouseover" end="zoomminus.mouseout"/>
                        </use>
                        <path d="M-4,0h8" fill="none" stroke="white" stroke-width="1.5" pointer-events="none"/>
                </g>
                <g id="dirArrow">
                        <path fill="none" stroke="white" stroke-width="1.5" d="M0,-3.0v7 M-2.5,-0.5L0,-3.0L2.5,-0.5"/>
                </g>
               <g id="resetDef">
                       <use xlink:href="#rim2" fill="#404040">
                               <set attributeName="fill" to="#808080" begin="reset.mouseover" end="reset.mouseout"/>
                       </use>
               </g>
        </defs>

<script type="text/javascript">
var viewWidth = 776;
var viewHeight = 328;
var sectionId = 'dynsection-0';
</script>
<script xlink:href="svgpan.js"/>
<svg id="graph" class="graph">
<g id="viewport">
<title>sierra::nalu::PecletFunctionBase</title>
<polygon fill="white" stroke="transparent" points="-4,4 -4,-323.5 772,-323.5 772,4 -4,4"/>
<!-- Node1 -->
<g id="node1" class="node">
<title>Node1</title>
<g id="a_node1"><a xlink:title="Non&#45;templated empty base class for storing pointers to templated instances.">
<polygon fill="#bfbfbf" stroke="black" points="0,-140 0,-159 173,-159 173,-140 0,-140"/>
<text text-anchor="middle" x="86.5" y="-147" font-family="Helvetica,sans-Serif" font-size="10.00">sierra::nalu::PecletFunctionBase</text>
</a>
</g>
</g>
<!-- Node2 -->
<g id="node2" class="node">
<title>Node2</title>
<g id="a_node2"><a xlink:href="classsierra_1_1nalu_1_1_peclet_function.html" target="_top" xlink:title=" ">
<polygon fill="white" stroke="black" points="589,-278 589,-319 768,-319 768,-278 589,-278"/>
<text text-anchor="start" x="597" y="-307" font-family="Helvetica,sans-Serif" font-size="10.00">sierra::nalu::PecletFunction</text>
<text text-anchor="start" x="597" y="-296" font-family="Helvetica,sans-Serif" font-size="10.00">&lt; AssembleEdgeSolverAlgorithm</text>
<text text-anchor="middle" x="678.5" y="-285" font-family="Helvetica,sans-Serif" font-size="10.00">::DblType &gt;</text>
</a>
</g>
</g>
<!-- Node1&#45;&gt;Node2 -->
<g id="edge1" class="edge">
<title>Node1&#45;&gt;Node2</title>
<path fill="none" stroke="midnightblue" d="M104.22,-165.99C126.39,-186.79 167.66,-221.94 210,-239.5 334.31,-291.05 491.89,-300.71 588.66,-301.03"/>
<polygon fill="midnightblue" stroke="midnightblue" points="106.6,-163.42 96.95,-159.04 101.76,-168.48 106.6,-163.42"/>
</g>
<!-- Node3 -->
<g id="node3" class="node">
<title>Node3</title>
<g id="a_node3"><a xlink:href="classsierra_1_1nalu_1_1_peclet_function.html" target="_top" xlink:title=" ">
<polygon fill="white" stroke="black" points="604,-217.5 604,-247.5 753,-247.5 753,-217.5 604,-217.5"/>
<text text-anchor="start" x="612" y="-235.5" font-family="Helvetica,sans-Serif" font-size="10.00">sierra::nalu::PecletFunction</text>
<text text-anchor="middle" x="678.5" y="-224.5" font-family="Helvetica,sans-Serif" font-size="10.00">&lt; double &gt;</text>
</a>
</g>
</g>
<!-- Node1&#45;&gt;Node3 -->
<g id="edge2" class="edge">
<title>Node1&#45;&gt;Node3</title>
<path fill="none" stroke="midnightblue" d="M118.17,-163.05C173.92,-186.85 296.2,-235.29 405,-252.5 477.87,-264.02 497.54,-259.34 571,-252.5 582.89,-251.39 595.44,-249.6 607.58,-247.54"/>
<polygon fill="midnightblue" stroke="midnightblue" points="119.43,-159.78 108.86,-159.04 116.66,-166.21 119.43,-159.78"/>
</g>
<!-- Node4 -->
<g id="node4" class="node">
<title>Node4</title>
<g id="a_node4"><a xlink:href="classsierra_1_1nalu_1_1_peclet_function.html" target="_top" xlink:title=" ">
<polygon fill="white" stroke="black" points="604,-56.5 604,-86.5 753,-86.5 753,-56.5 604,-56.5"/>
<text text-anchor="start" x="612" y="-74.5" font-family="Helvetica,sans-Serif" font-size="10.00">sierra::nalu::PecletFunction</text>
<text text-anchor="middle" x="678.5" y="-63.5" font-family="Helvetica,sans-Serif" font-size="10.00">&lt; DblType &gt;</text>
</a>
</g>
</g>
<!-- Node1&#45;&gt;Node4 -->
<g id="edge3" class="edge">
<title>Node1&#45;&gt;Node4</title>
<path fill="none" stroke="midnightblue" d="M121.75,-136.25C179.23,-114.79 299.2,-73.36 405,-58.5 478.06,-48.24 497.36,-54.02 571,-58.5 581.69,-59.15 592.95,-60.16 603.99,-61.35"/>
<polygon fill="midnightblue" stroke="midnightblue" points="120.22,-133.08 112.09,-139.88 122.68,-139.63 120.22,-133.08"/>
</g>
<!-- Node5 -->
<g id="node5" class="node">
<title>Node5</title>
<g id="a_node5"><a xlink:href="classsierra_1_1nalu_1_1_peclet_function.html" target="_top" xlink:title=" ">
<polygon fill="white" stroke="black" points="604,-0.5 604,-30.5 753,-30.5 753,-0.5 604,-0.5"/>
<text text-anchor="start" x="612" y="-18.5" font-family="Helvetica,sans-Serif" font-size="10.00">sierra::nalu::PecletFunction</text>
<text text-anchor="middle" x="678.5" y="-7.5" font-family="Helvetica,sans-Serif" font-size="10.00">&lt; DoubleType &gt;</text>
</a>
</g>
</g>
<!-- Node1&#45;&gt;Node5 -->
<g id="edge4" class="edge">
<title>Node1&#45;&gt;Node5</title>
<path fill="none" stroke="midnightblue" d="M103.69,-132.75C125.56,-111.32 166.8,-75.02 210,-58.5 341.89,-8.05 509.38,-6.19 603.88,-10.26"/>
<polygon fill="midnightblue" stroke="midnightblue" points="101.13,-130.36 96.54,-139.9 106.08,-135.3 101.13,-130.36"/>
</g>
<!-- Node6 -->
<g id="node6" class="node">
<title>Node6</title>
<g id="a_node6"><a xlink:href="classsierra_1_1nalu_1_1_peclet_function.html" target="_top" xlink:title=" ">
<polygon fill="white" stroke="black" points="210,-140 210,-159 387,-159 387,-140 210,-140"/>
<text text-anchor="middle" x="298.5" y="-147" font-family="Helvetica,sans-Serif" font-size="10.00">sierra::nalu::PecletFunction&lt; T &gt;</text>
</a>
</g>
</g>
<!-- Node1&#45;&gt;Node6 -->
<g id="edge5" class="edge">
<title>Node1&#45;&gt;Node6</title>
<path fill="none" stroke="midnightblue" d="M183.43,-149.5C192.17,-149.5 201,-149.5 209.67,-149.5"/>
<polygon fill="midnightblue" stroke="midnightblue" points="183.22,-146 173.22,-149.5 183.22,-153 183.22,-146"/>
</g>
<!-- Node6&#45;&gt;Node2 -->
<g id="edge8" class="edge">
<title>Node6&#45;&gt;Node2</title>
<path fill="none" stroke="orange" stroke-dasharray="5,2" d="M323.36,-164.24C344.34,-176.81 375.98,-194.8 405,-207.5 470.69,-236.24 548.52,-261.4 604.16,-277.93"/>
<polygon fill="orange" stroke="orange" points="325.15,-161.24 314.78,-159.05 321.53,-167.22 325.15,-161.24"/>
<text text-anchor="start" x="405" y="-279.5" font-family="Helvetica,sans-Serif" font-size="10.00"> &lt; AssembleEdgeSolverAlgorithm</text>
<text text-anchor="middle" x="488" y="-268.5" font-family="Helvetica,sans-Serif" font-size="10.00">::DblType &gt;</text>
</g>
<!-- Node6&#45;&gt;Node3 -->
<g id="edge9" class="edge">
<title>Node6&#45;&gt;Node3</title>
<path fill="none" stroke="orange" stroke-dasharray="5,2" d="M349.9,-161.25C367.3,-165.11 386.96,-169.23 405,-172.5 478.35,-185.78 498.5,-179.16 571,-196.5 593.78,-201.95 618.6,-210.2 638.55,-217.43"/>
<polygon fill="orange" stroke="orange" points="350.47,-157.79 339.94,-159.02 348.94,-164.62 350.47,-157.79"/>
<text text-anchor="middle" x="488" y="-199.5" font-family="Helvetica,sans-Serif" font-size="10.00"> &lt; double &gt;</text>
</g>
<!-- Node6&#45;&gt;Node4 -->
<g id="edge10" class="edge">
<title>Node6&#45;&gt;Node4</title>
<path fill="none" stroke="orange" stroke-dasharray="5,2" d="M336.23,-136.6C356.35,-129.9 381.83,-121.98 405,-116.5 477.74,-99.3 497.26,-101.73 571,-89.5 581.64,-87.74 592.87,-85.86 603.89,-84"/>
<polygon fill="orange" stroke="orange" points="334.88,-133.36 326.53,-139.88 337.12,-139.99 334.88,-133.36"/>
<text text-anchor="middle" x="488" y="-119.5" font-family="Helvetica,sans-Serif" font-size="10.00"> &lt; DblType &gt;</text>
</g>
<!-- Node6&#45;&gt;Node5 -->
<g id="edge11" class="edge">
<title>Node6&#45;&gt;Node5</title>
<path fill="none" stroke="orange" stroke-dasharray="5,2" d="M318.08,-133.29C338.17,-116.6 371.79,-91.04 405,-76.5 469.17,-48.4 547.72,-32.59 603.97,-24.14"/>
<polygon fill="orange" stroke="orange" points="315.71,-130.71 310.34,-139.84 320.23,-136.05 315.71,-130.71"/>
<text text-anchor="middle" x="488" y="-79.5" font-family="Helvetica,sans-Serif" font-size="10.00"> &lt; DoubleType &gt;</text>
</g>
<!-- Node7 -->
<g id="node7" class="node">
<title>Node7</title>
<g id="a_node7"><a xlink:href="classsierra_1_1nalu_1_1_classic_peclet_function.html" target="_top" xlink:title=" ">
<polygon fill="white" stroke="black" points="607.5,-108.5 607.5,-138.5 749.5,-138.5 749.5,-108.5 607.5,-108.5"/>
<text text-anchor="start" x="615.5" y="-126.5" font-family="Helvetica,sans-Serif" font-size="10.00">sierra::nalu::ClassicPeclet</text>
<text text-anchor="middle" x="678.5" y="-115.5" font-family="Helvetica,sans-Serif" font-size="10.00">Function&lt; T &gt;</text>
</a>
</g>
</g>
<!-- Node6&#45;&gt;Node7 -->
<g id="edge6" class="edge">
<title>Node6&#45;&gt;Node7</title>
<path fill="none" stroke="midnightblue" d="M397.55,-142.76C463.3,-138.23 548.33,-132.38 607.34,-128.33"/>
<polygon fill="midnightblue" stroke="midnightblue" points="396.91,-139.29 387.17,-143.47 397.39,-146.28 396.91,-139.29"/>
</g>
<!-- Node8 -->
<g id="node8" class="node">
<title>Node8</title>
<g id="a_node8"><a xlink:href="classsierra_1_1nalu_1_1_tanh_function.html" target="_top" xlink:title=" ">
<polygon fill="white" stroke="black" points="593.5,-158 593.5,-177 763.5,-177 763.5,-158 593.5,-158"/>
<text text-anchor="middle" x="678.5" y="-165" font-family="Helvetica,sans-Serif" font-size="10.00">sierra::nalu::TanhFunction&lt; T &gt;</text>
</a>
</g>
</g>
<!-- Node6&#45;&gt;Node8 -->
<g id="edge7" class="edge">
<title>Node6&#45;&gt;Node8</title>
<path fill="none" stroke="midnightblue" d="M397.53,-154.17C458.2,-157.06 535.31,-160.73 593.23,-163.49"/>
<polygon fill="midnightblue" stroke="midnightblue" points="397.33,-150.65 387.17,-153.67 396.99,-157.65 397.33,-150.65"/>
</g>
</g>
</svg>
        <g id="navigator" transform="translate(0 0)" fill="#404254">
                <rect fill="#f2f5e9" fill-opacity="0.5" stroke="#606060" stroke-width=".5" x="0" y="0" width="60" height="60"/>
                <use id="zoomplus" xlink:href="#zoomPlus" x="17" y="9" onmousedown="handleZoom(evt,'in')"/>
                <use id="zoomminus" xlink:href="#zoomMin" x="42" y="9" onmousedown="handleZoom(evt,'out')"/>
                <use id="reset" xlink:href="#resetDef" x="30" y="36" onmousedown="handleReset()"/>
                <g id="arrowUp" xlink:href="#dirArrow" transform="translate(30 24)" onmousedown="handlePan(0,-1)">
                  <use xlink:href="#rim" fill="#404040">
                        <set attributeName="fill" to="#808080" begin="arrowUp.mouseover" end="arrowUp.mouseout"/>
                  </use>
                  <path fill="none" stroke="white" stroke-width="1.5" d="M0,-3.0v7 M-2.5,-0.5L0,-3.0L2.5,-0.5"/>
                </g>
                <g id="arrowRight" xlink:href="#dirArrow" transform="rotate(90) translate(36 -43)" onmousedown="handlePan(1,0)">
                  <use xlink:href="#rim" fill="#404040">
                        <set attributeName="fill" to="#808080" begin="arrowRight.mouseover" end="arrowRight.mouseout"/>
                  </use>
                  <path fill="none" stroke="white" stroke-width="1.5" d="M0,-3.0v7 M-2.5,-0.5L0,-3.0L2.5,-0.5"/>
                </g>
                <g id="arrowDown" xlink:href="#dirArrow" transform="rotate(180) translate(-30 -48)" onmousedown="handlePan(0,1)">
                  <use xlink:href="#rim" fill="#404040">
                        <set attributeName="fill" to="#808080" begin="arrowDown.mouseover" end="arrowDown.mouseout"/>
                  </use>
                  <path fill="none" stroke="white" stroke-width="1.5" d="M0,-3.0v7 M-2.5,-0.5L0,-3.0L2.5,-0.5"/>
                </g>
                <g id="arrowLeft" xlink:href="#dirArrow" transform="rotate(270) translate(-36 17)" onmousedown="handlePan(-1,0)">
                  <use xlink:href="#rim" fill="#404040">
                        <set attributeName="fill" to="#808080" begin="arrowLeft.mouseover" end="arrowLeft.mouseout"/>
                  </use>
                  <path fill="none" stroke="white" stroke-width="1.5" d="M0,-3.0v7 M-2.5,-0.5L0,-3.0L2.5,-0.5"/>
                </g>
        </g>
        <svg viewBox="0 0 15 15" width="100%" height="30px" preserveAspectRatio="xMaxYMin meet">
         <g id="arrow_out" transform="scale(0.3 0.3)">
          <a xlink:href="classsierra_1_1nalu_1_1_peclet_function_base__inherit__graph_org.svg" target="_base">
           <rect id="button" ry="5" rx="5" y="6" x="6" height="38" width="38"
                fill="#f2f5e9" fill-opacity="0.5" stroke="#606060" stroke-width="1.0"/>
           <path id="arrow"
             d="M 11.500037,31.436501 C 11.940474,20.09759 22.043105,11.32322 32.158766,21.979434 L 37.068811,17.246167 C 37.068811,17.246167 37.088388,32 37.088388,32 L 22.160133,31.978069 C 22.160133,31.978069 26.997745,27.140456 26.997745,27.140456 C 18.528582,18.264221 13.291696,25.230495 11.500037,31.436501 z"
             style="fill:#404040;"/>
          </a>
         </g>
        </svg>
</svg>
