<?xml version="1.0" encoding="UTF-8" standalone="no"?>
<!DOCTYPE svg PUBLIC "-//W3C//DTD SVG 1.1//EN"
 "http://www.w3.org/Graphics/SVG/1.1/DTD/svg11.dtd">
<!-- Generated by graphviz version 2.43.0 (0)
 -->
<!-- Title: sierra::nalu::EnthalpyTYkPropertyEvaluator Pages: 1 -->
<svg width="1150pt" height="123pt"
 viewBox="0.00 0.00 1150.00 122.50" xmlns="http://www.w3.org/2000/svg" xmlns:xlink="http://www.w3.org/1999/xlink">
<g id="graph0" class="graph" transform="scale(1 1) rotate(0) translate(4 118.5)">
<title>sierra::nalu::EnthalpyTYkPropertyEvaluator</title>
<!-- Node1 -->
<g id="Node000001" class="node">
<title>Node1</title>
<g id="a_Node000001"><a xlink:title=" ">
<polygon fill="#999999" stroke="#666666" points="1142,-81 1004,-81 1004,-51 1142,-51 1142,-81"/>
<text text-anchor="start" x="1012" y="-69" font-family="Helvetica,sans-Serif" font-size="10.00">sierra::nalu::EnthalpyTYk</text>
<text text-anchor="middle" x="1073" y="-58" font-family="Helvetica,sans-Serif" font-size="10.00">PropertyEvaluator</text>
</a>
</g>
</g>
<!-- Node2 -->
<g id="Node000002" class="node">
<title>Node2</title>
<g id="a_Node000002"><a xlink:href="classsierra_1_1nalu_1_1_polynomial_property_evaluator.html" target="_top" xlink:title=" ">
<polygon fill="white" stroke="#666666" points="967,-81 835,-81 835,-51 967,-51 967,-81"/>
<text text-anchor="start" x="843" y="-69" font-family="Helvetica,sans-Serif" font-size="10.00">sierra::nalu::Polynomial</text>
<text text-anchor="middle" x="901" y="-58" font-family="Helvetica,sans-Serif" font-size="10.00">PropertyEvaluator</text>
</a>
</g>
</g>
<!-- Node2&#45;&gt;Node1 -->
<g id="edge1_Node000001_Node000002" class="edge">
<title>Node2&#45;&gt;Node1</title>
<g id="a_edge1_Node000001_Node000002"><a xlink:title=" ">
<path fill="none" stroke="#63b8ff" d="M977.46,-66C986.24,-66 995.16,-66 1003.83,-66"/>
<polygon fill="#63b8ff" stroke="#63b8ff" points="977.24,-62.5 967.24,-66 977.24,-69.5 977.24,-62.5"/>
</a>
</g>
</g>
<!-- Node3 -->
<g id="Node000003" class="node">
<title>Node3</title>
<g id="a_Node000003"><a xlink:href="classsierra_1_1nalu_1_1_property_evaluator.html" target="_top" xlink:title=" ">
<polygon fill="white" stroke="#666666" points="689,-114.5 524,-114.5 524,-95.5 689,-95.5 689,-114.5"/>
<text text-anchor="middle" x="606.5" y="-102.5" font-family="Helvetica,sans-Serif" font-size="10.00">sierra::nalu::PropertyEvaluator</text>
</a>
</g>
</g>
<!-- Node3&#45;&gt;Node2 -->
<g id="edge2_Node000002_Node000003" class="edge">
<title>Node3&#45;&gt;Node2</title>
<g id="a_edge2_Node000002_Node000003"><a xlink:title=" ">
<path fill="none" stroke="#63b8ff" d="M699.37,-95.01C736.02,-90.77 778.56,-85.53 817,-80 822.79,-79.17 828.79,-78.25 834.8,-77.3"/>
<polygon fill="#63b8ff" stroke="#63b8ff" points="698.74,-91.56 689.2,-96.18 699.54,-98.51 698.74,-91.56"/>
</a>
</g>
</g>
<!-- Node4 -->
<g id="Node000004" class="node">
<title>Node4</title>
<g id="a_Node000004"><a xlink:title=" ">
<polygon fill="white" stroke="#666666" points="434.5,-55.5 310.5,-55.5 310.5,-36.5 434.5,-36.5 434.5,-55.5"/>
<text text-anchor="middle" x="372.5" y="-43.5" font-family="Helvetica,sans-Serif" font-size="10.00">std::vector&lt; double &gt;</text>
</a>
</g>
</g>
<!-- Node4&#45;&gt;Node2 -->
<g id="edge3_Node000002_Node000004" class="edge">
<title>Node4&#45;&gt;Node2</title>
<g id="a_edge3_Node000002_Node000004"><a xlink:title=" ">
<path fill="none" stroke="#9a32cd" stroke-dasharray="5,2" d="M444.86,-49.47C448.96,-49.66 453.04,-49.83 457,-50 591.18,-55.64 748.27,-61.02 834.69,-63.88"/>
<polygon fill="#9a32cd" stroke="#9a32cd" points="444.75,-45.97 434.6,-49.01 444.44,-52.96 444.75,-45.97"/>
</a>
</g>
<text text-anchor="middle" x="606.5" y="-61" font-family="Helvetica,sans-Serif" font-size="10.00" fill="grey"> mw_</text>
</g>
<!-- Node7 -->
<g id="Node000007" class="node">
<title>Node7</title>
<g id="a_Node000007"><a xlink:title=" ">
<polygon fill="white" stroke="#666666" points="672,-30 541,-30 541,0 672,0 672,-30"/>
<text text-anchor="start" x="549" y="-18" font-family="Helvetica,sans-Serif" font-size="10.00">std::vector&lt; std::vector</text>
<text text-anchor="middle" x="606.5" y="-7" font-family="Helvetica,sans-Serif" font-size="10.00">&lt; double &gt; &gt;</text>
</a>
</g>
</g>
<!-- Node4&#45;&gt;Node7 -->
<g id="edge7_Node000007_Node000004" class="edge">
<title>Node4&#45;&gt;Node7</title>
<g id="a_edge7_Node000007_Node000004"><a xlink:title=" ">
<path fill="none" stroke="#9a32cd" stroke-dasharray="5,2" d="M444.92,-36.46C475.46,-32.38 510.86,-27.65 540.65,-23.67"/>
<polygon fill="#9a32cd" stroke="#9a32cd" points="444.21,-33.02 434.76,-37.81 445.13,-39.96 444.21,-33.02"/>
</a>
</g>
<text text-anchor="middle" x="481.5" y="-38" font-family="Helvetica,sans-Serif" font-size="10.00" fill="grey"> elements</text>
</g>
<!-- Node5 -->
<g id="Node000005" class="node">
<title>Node5</title>
<g id="a_Node000005"><a xlink:title=" ">
<polygon fill="white" stroke="#666666" points="211,-32.5 114,-32.5 114,-13.5 211,-13.5 211,-32.5"/>
<text text-anchor="middle" x="162.5" y="-20.5" font-family="Helvetica,sans-Serif" font-size="10.00">std::vector&lt; T &gt;</text>
</a>
</g>
</g>
<!-- Node5&#45;&gt;Node4 -->
<g id="edge4_Node000004_Node000005" class="edge">
<title>Node5&#45;&gt;Node4</title>
<g id="a_edge4_Node000004_Node000005"><a xlink:title=" ">
<path fill="none" stroke="orange" stroke-dasharray="5,2" d="M221.51,-29.42C249.12,-32.47 282.15,-36.12 310.17,-39.22"/>
<polygon fill="orange" stroke="orange" points="221.54,-25.9 211.22,-28.28 220.77,-32.85 221.54,-25.9"/>
</a>
</g>
<text text-anchor="middle" x="258.5" y="-40" font-family="Helvetica,sans-Serif" font-size="10.00" fill="grey"> &lt; double &gt;</text>
</g>
<!-- Node5&#45;&gt;Node7 -->
<g id="edge8_Node000007_Node000005" class="edge">
<title>Node5&#45;&gt;Node7</title>
<g id="a_edge8_Node000007_Node000005"><a xlink:title=" ">
<path fill="none" stroke="orange" stroke-dasharray="5,2" d="M221.33,-19.56C247.22,-18.17 278.13,-16.73 306,-16 386.96,-13.88 480.27,-13.97 540.93,-14.36"/>
<polygon fill="orange" stroke="orange" points="221.1,-16.07 211.3,-20.11 221.48,-23.05 221.1,-16.07"/>
</a>
</g>
<text text-anchor="middle" x="372.5" y="-19" font-family="Helvetica,sans-Serif" font-size="10.00" fill="grey"> &lt; std::vector&lt; double &gt; &gt;</text>
</g>
<!-- Node6 -->
<g id="Node000006" class="node">
<title>Node6</title>
<g id="a_Node000006"><a xlink:title=" ">
<polygon fill="white" stroke="#666666" points="29,-32.5 0,-32.5 0,-13.5 29,-13.5 29,-32.5"/>
<text text-anchor="middle" x="14.5" y="-20.5" font-family="Helvetica,sans-Serif" font-size="10.00">T</text>
</a>
</g>
</g>
<!-- Node6&#45;&gt;Node5 -->
<g id="edge5_Node000005_Node000006" class="edge">
<title>Node6&#45;&gt;Node5</title>
<g id="a_edge5_Node000005_Node000006"><a xlink:title=" ">
<path fill="none" stroke="#9a32cd" stroke-dasharray="5,2" d="M39.39,-23C59.54,-23 89.02,-23 113.96,-23"/>
<polygon fill="#9a32cd" stroke="#9a32cd" points="39.24,-19.5 29.24,-23 39.24,-26.5 39.24,-19.5"/>
</a>
</g>
<text text-anchor="middle" x="71.5" y="-26" font-family="Helvetica,sans-Serif" font-size="10.00" fill="grey"> elements</text>
</g>
<!-- Node7&#45;&gt;Node2 -->
<g id="edge6_Node000002_Node000007" class="edge">
<title>Node7&#45;&gt;Node2</title>
<g id="a_edge6_Node000002_Node000007"><a xlink:title=" ">
<path fill="none" stroke="#9a32cd" stroke-dasharray="5,2" d="M682.46,-7.59C722.99,-5.78 773.49,-7.09 817,-19 840.32,-25.38 864.04,-39.77 880.11,-50.96"/>
<polygon fill="#9a32cd" stroke="#9a32cd" points="682.19,-4.1 672.39,-8.12 682.56,-11.09 682.19,-4.1"/>
</a>
</g>
<text text-anchor="start" x="707" y="-44" font-family="Helvetica,sans-Serif" font-size="10.00" fill="grey"> highPolynomialCoeffs</text>
<text text-anchor="middle" x="762" y="-33" font-family="Helvetica,sans-Serif" font-size="10.00" fill="grey">_</text>
<text text-anchor="middle" x="762" y="-22" font-family="Helvetica,sans-Serif" font-size="10.00" fill="grey">lowPolynomialCoeffs_</text>
</g>
</g>
</svg>
