<?xml version="1.0" encoding="UTF-8" standalone="no"?>
<!DOCTYPE svg PUBLIC "-//W3C//DTD SVG 1.1//EN"
 "http://www.w3.org/Graphics/SVG/1.1/DTD/svg11.dtd">
<!-- Generated by graphviz version 2.43.0 (0)
 -->
<!-- Title: sierra::nalu::PostProcessingData Pages: 1 -->
<svg width="419pt" height="253pt"
 viewBox="0.00 0.00 419.00 253.00" xmlns="http://www.w3.org/2000/svg" xmlns:xlink="http://www.w3.org/1999/xlink">
<g id="graph0" class="graph" transform="scale(1 1) rotate(0) translate(4 249)">
<title>sierra::nalu::PostProcessingData</title>
<polygon fill="white" stroke="transparent" points="-4,4 -4,-249 415,-249 415,4 -4,4"/>
<!-- Node1 -->
<g id="node1" class="node">
<title>Node1</title>
<g id="a_node1"><a xlink:title=" ">
<polygon fill="#bfbfbf" stroke="black" points="125,-0.5 125,-19.5 299,-19.5 299,-0.5 125,-0.5"/>
<text text-anchor="middle" x="212" y="-7.5" font-family="Helvetica,sans-Serif" font-size="10.00">sierra::nalu::PostProcessingData</text>
</a>
</g>
</g>
<!-- Node2 -->
<g id="node2" class="node">
<title>Node2</title>
<g id="a_node2"><a xlink:title=" ">
<polygon fill="white" stroke="#bfbfbf" points="240.5,-147.5 240.5,-166.5 305.5,-166.5 305.5,-147.5 240.5,-147.5"/>
<text text-anchor="middle" x="273" y="-154.5" font-family="Helvetica,sans-Serif" font-size="10.00">std::string</text>
</a>
</g>
</g>
<!-- Node2&#45;&gt;Node1 -->
<g id="edge1" class="edge">
<title>Node2&#45;&gt;Node1</title>
<path fill="none" stroke="#9a32cd" stroke-dasharray="5,2" d="M294.78,-140.6C298.12,-137.19 301.09,-133.29 303,-129 314.32,-103.57 353.1,-113.58 289,-38 281.76,-29.47 271.66,-23.63 261.15,-19.63"/>
<polygon fill="#9a32cd" stroke="#9a32cd" points="292.37,-138.06 287.14,-147.27 296.97,-143.33 292.37,-138.06"/>
<text text-anchor="middle" x="367.5" y="-92" font-family="Helvetica,sans-Serif" font-size="10.00"> outputFileName_</text>
<text text-anchor="middle" x="367.5" y="-81" font-family="Helvetica,sans-Serif" font-size="10.00">physics_</text>
<text text-anchor="middle" x="367.5" y="-70" font-family="Helvetica,sans-Serif" font-size="10.00">type_</text>
</g>
<!-- Node4 -->
<g id="node4" class="node">
<title>Node4</title>
<g id="a_node4"><a xlink:title=" ">
<polygon fill="white" stroke="#bfbfbf" points="142,-74 142,-93 282,-93 282,-74 142,-74"/>
<text text-anchor="middle" x="212" y="-81" font-family="Helvetica,sans-Serif" font-size="10.00">std::vector&lt; std::string &gt;</text>
</a>
</g>
</g>
<!-- Node2&#45;&gt;Node4 -->
<g id="edge4" class="edge">
<title>Node2&#45;&gt;Node4</title>
<path fill="none" stroke="#9a32cd" stroke-dasharray="5,2" d="M258.98,-139.57C246.71,-125.19 229.36,-104.85 219.54,-93.34"/>
<polygon fill="#9a32cd" stroke="#9a32cd" points="256.37,-141.9 265.52,-147.23 261.69,-137.35 256.37,-141.9"/>
<text text-anchor="middle" x="274.5" y="-121" font-family="Helvetica,sans-Serif" font-size="10.00"> elements</text>
</g>
<!-- Node3 -->
<g id="node3" class="node">
<title>Node3</title>
<g id="a_node3"><a xlink:title=" ">
<polygon fill="white" stroke="#bfbfbf" points="221,-214.5 221,-244.5 325,-244.5 325,-214.5 221,-214.5"/>
<text text-anchor="start" x="229" y="-232.5" font-family="Helvetica,sans-Serif" font-size="10.00">std::basic_string&lt;</text>
<text text-anchor="middle" x="273" y="-221.5" font-family="Helvetica,sans-Serif" font-size="10.00"> Char &gt;</text>
</a>
</g>
</g>
<!-- Node3&#45;&gt;Node2 -->
<g id="edge2" class="edge">
<title>Node3&#45;&gt;Node2</title>
<path fill="none" stroke="midnightblue" d="M273,-204.09C273,-191.21 273,-176.2 273,-166.89"/>
<polygon fill="midnightblue" stroke="midnightblue" points="269.5,-204.23 273,-214.23 276.5,-204.23 269.5,-204.23"/>
</g>
<!-- Node4&#45;&gt;Node1 -->
<g id="edge3" class="edge">
<title>Node4&#45;&gt;Node1</title>
<path fill="none" stroke="#9a32cd" stroke-dasharray="5,2" d="M212,-63.59C212,-49.43 212,-30.7 212,-19.84"/>
<polygon fill="#9a32cd" stroke="#9a32cd" points="208.5,-63.73 212,-73.73 215.5,-63.73 208.5,-63.73"/>
<text text-anchor="middle" x="248.5" y="-41" font-family="Helvetica,sans-Serif" font-size="10.00"> targetNames_</text>
</g>
<!-- Node5 -->
<g id="node5" class="node">
<title>Node5</title>
<g id="a_node5"><a xlink:title=" ">
<polygon fill="white" stroke="#bfbfbf" points="82.5,-147.5 82.5,-166.5 179.5,-166.5 179.5,-147.5 82.5,-147.5"/>
<text text-anchor="middle" x="131" y="-154.5" font-family="Helvetica,sans-Serif" font-size="10.00">std::vector&lt; T &gt;</text>
</a>
</g>
</g>
<!-- Node5&#45;&gt;Node4 -->
<g id="edge5" class="edge">
<title>Node5&#45;&gt;Node4</title>
<path fill="none" stroke="orange" stroke-dasharray="5,2" d="M143.04,-139.11C148.41,-132.16 155.09,-124.29 162,-118 172.66,-108.29 186.36,-99.32 196.72,-93.1"/>
<polygon fill="orange" stroke="orange" points="140.16,-137.11 137,-147.23 145.78,-141.29 140.16,-137.11"/>
<text text-anchor="middle" x="199.5" y="-121" font-family="Helvetica,sans-Serif" font-size="10.00"> &lt; std::string &gt;</text>
</g>
<!-- Node7 -->
<g id="node7" class="node">
<title>Node7</title>
<g id="a_node7"><a xlink:title=" ">
<polygon fill="white" stroke="#bfbfbf" points="0,-74 0,-93 124,-93 124,-74 0,-74"/>
<text text-anchor="middle" x="62" y="-81" font-family="Helvetica,sans-Serif" font-size="10.00">std::vector&lt; double &gt;</text>
</a>
</g>
</g>
<!-- Node5&#45;&gt;Node7 -->
<g id="edge8" class="edge">
<title>Node5&#45;&gt;Node7</title>
<path fill="none" stroke="orange" stroke-dasharray="5,2" d="M89.48,-143C82.87,-139.37 76.68,-134.77 72,-129 63.72,-118.79 61.97,-103.11 61.77,-93.35"/>
<polygon fill="orange" stroke="orange" points="88.12,-146.23 98.65,-147.39 91.14,-139.91 88.12,-146.23"/>
<text text-anchor="middle" x="101.5" y="-121" font-family="Helvetica,sans-Serif" font-size="10.00"> &lt; double &gt;</text>
</g>
<!-- Node6 -->
<g id="node6" class="node">
<title>Node6</title>
<g id="a_node6"><a xlink:title=" ">
<polygon fill="white" stroke="#bfbfbf" points="116.5,-220 116.5,-239 145.5,-239 145.5,-220 116.5,-220"/>
<text text-anchor="middle" x="131" y="-227" font-family="Helvetica,sans-Serif" font-size="10.00">T</text>
</a>
</g>
</g>
<!-- Node6&#45;&gt;Node5 -->
<g id="edge6" class="edge">
<title>Node6&#45;&gt;Node5</title>
<path fill="none" stroke="#9a32cd" stroke-dasharray="5,2" d="M131,-209.44C131,-195.53 131,-177.32 131,-166.72"/>
<polygon fill="#9a32cd" stroke="#9a32cd" points="127.5,-209.86 131,-219.86 134.5,-209.86 127.5,-209.86"/>
<text text-anchor="middle" x="155.5" y="-188" font-family="Helvetica,sans-Serif" font-size="10.00"> elements</text>
</g>
<!-- Node7&#45;&gt;Node1 -->
<g id="edge7" class="edge">
<title>Node7&#45;&gt;Node1</title>
<path fill="none" stroke="#9a32cd" stroke-dasharray="5,2" d="M85.01,-68.82C101,-59.57 122.96,-47.38 143,-38 157.68,-31.13 174.62,-24.48 188.05,-19.5"/>
<polygon fill="#9a32cd" stroke="#9a32cd" points="83.21,-65.82 76.34,-73.88 86.74,-71.86 83.21,-65.82"/>
<text text-anchor="middle" x="175.5" y="-41" font-family="Helvetica,sans-Serif" font-size="10.00"> parameters_</text>
</g>
</g>
</svg>
