<?xml version="1.0" encoding="UTF-8" standalone="no"?>
<!DOCTYPE svg PUBLIC "-//W3C//DTD SVG 1.1//EN"
 "http://www.w3.org/Graphics/SVG/1.1/DTD/svg11.dtd">
<!-- Generated by graphviz version 2.43.0 (0)
 -->
<!-- Title: sierra::nalu::MomentumBoussinesqNodeKernel Pages: 1 -->
<svg width="331pt" height="242pt"
 viewBox="0.00 0.00 330.50 242.00" xmlns="http://www.w3.org/2000/svg" xmlns:xlink="http://www.w3.org/1999/xlink">
<g id="graph0" class="graph" transform="scale(1 1) rotate(0) translate(4 238)">
<title>sierra::nalu::MomentumBoussinesqNodeKernel</title>
<polygon fill="white" stroke="transparent" points="-4,4 -4,-238 326.5,-238 326.5,4 -4,4"/>
<!-- Node1 -->
<g id="node1" class="node">
<title>Node1</title>
<g id="a_node1"><a xlink:title=" ">
<polygon fill="#bfbfbf" stroke="black" points="9,-0.5 9,-30.5 198,-30.5 198,-0.5 9,-0.5"/>
<text text-anchor="start" x="17" y="-18.5" font-family="Helvetica,sans-Serif" font-size="10.00">sierra::nalu::MomentumBoussinesq</text>
<text text-anchor="middle" x="103.5" y="-7.5" font-family="Helvetica,sans-Serif" font-size="10.00">NodeKernel</text>
</a>
</g>
</g>
<!-- Node2 -->
<g id="node2" class="node">
<title>Node2</title>
<g id="a_node2"><a xlink:href="classsierra_1_1nalu_1_1_n_g_p_node_kernel.html" target="_top" xlink:title=" ">
<polygon fill="white" stroke="black" points="0,-68.5 0,-98.5 207,-98.5 207,-68.5 0,-68.5"/>
<text text-anchor="start" x="8" y="-86.5" font-family="Helvetica,sans-Serif" font-size="10.00">sierra::nalu::NGPNodeKernel</text>
<text text-anchor="middle" x="103.5" y="-75.5" font-family="Helvetica,sans-Serif" font-size="10.00">&lt; MomentumBoussinesqNodeKernel &gt;</text>
</a>
</g>
</g>
<!-- Node2&#45;&gt;Node1 -->
<g id="edge1" class="edge">
<title>Node2&#45;&gt;Node1</title>
<path fill="none" stroke="midnightblue" d="M103.5,-58.03C103.5,-48.86 103.5,-38.74 103.5,-30.79"/>
<polygon fill="midnightblue" stroke="midnightblue" points="100,-58.18 103.5,-68.18 107,-58.18 100,-58.18"/>
</g>
<!-- Node3 -->
<g id="node3" class="node">
<title>Node3</title>
<g id="a_node3"><a xlink:href="classsierra_1_1nalu_1_1_node_kernel.html" target="_top" xlink:title=" ">
<polygon fill="white" stroke="black" points="32.5,-214.5 32.5,-233.5 166.5,-233.5 166.5,-214.5 32.5,-214.5"/>
<text text-anchor="middle" x="99.5" y="-221.5" font-family="Helvetica,sans-Serif" font-size="10.00">sierra::nalu::NodeKernel</text>
</a>
</g>
</g>
<!-- Node3&#45;&gt;Node2 -->
<g id="edge2" class="edge">
<title>Node3&#45;&gt;Node2</title>
<path fill="none" stroke="midnightblue" d="M100.04,-204.25C100.85,-176.19 102.36,-123.88 103.09,-98.73"/>
<polygon fill="midnightblue" stroke="midnightblue" points="96.54,-204.24 99.75,-214.34 103.54,-204.44 96.54,-204.24"/>
</g>
<!-- Node4 -->
<g id="node4" class="node">
<title>Node4</title>
<g id="a_node4"><a xlink:href="classsierra_1_1nalu_1_1_n_g_p_node_kernel.html" target="_top" xlink:title=" ">
<polygon fill="white" stroke="black" points="116,-157.5 116,-176.5 299,-176.5 299,-157.5 116,-157.5"/>
<text text-anchor="middle" x="207.5" y="-164.5" font-family="Helvetica,sans-Serif" font-size="10.00">sierra::nalu::NGPNodeKernel&lt; T &gt;</text>
</a>
</g>
</g>
<!-- Node3&#45;&gt;Node4 -->
<g id="edge4" class="edge">
<title>Node3&#45;&gt;Node4</title>
<path fill="none" stroke="midnightblue" d="M125.39,-209.82C145.66,-199.49 173.27,-185.43 190.74,-176.53"/>
<polygon fill="midnightblue" stroke="midnightblue" points="123.7,-206.75 116.38,-214.41 126.87,-212.99 123.7,-206.75"/>
</g>
<!-- Node4&#45;&gt;Node2 -->
<g id="edge3" class="edge">
<title>Node4&#45;&gt;Node2</title>
<path fill="none" stroke="orange" stroke-dasharray="5,2" d="M188.38,-151.01C169.29,-136.05 140.17,-113.24 121.49,-98.6"/>
<polygon fill="orange" stroke="orange" points="186.34,-153.86 196.37,-157.28 190.66,-148.35 186.34,-153.86"/>
<text text-anchor="start" x="170.5" y="-131" font-family="Helvetica,sans-Serif" font-size="10.00"> &lt; MomentumBoussinesqNode</text>
<text text-anchor="middle" x="246.5" y="-120" font-family="Helvetica,sans-Serif" font-size="10.00">Kernel &gt;</text>
</g>
</g>
</svg>
