<?xml version="1.0" encoding="UTF-8" standalone="no"?>
<!DOCTYPE svg PUBLIC "-//W3C//DTD SVG 1.1//EN"
 "http://www.w3.org/Graphics/SVG/1.1/DTD/svg11.dtd">
<!-- Generated by graphviz version 2.43.0 (0)
 -->
<!-- Title: sierra::nalu::KernelBuilderLog Pages: 1 -->
<svg width="353pt" height="331pt"
 viewBox="0.00 0.00 353.00 331.00" xmlns="http://www.w3.org/2000/svg" xmlns:xlink="http://www.w3.org/1999/xlink">
<g id="graph0" class="graph" transform="scale(1 1) rotate(0) translate(4 327)">
<title>sierra::nalu::KernelBuilderLog</title>
<polygon fill="white" stroke="transparent" points="-4,4 -4,-327 349,-327 349,4 -4,4"/>
<!-- Node1 -->
<g id="node1" class="node">
<title>Node1</title>
<g id="a_node1"><a xlink:title=" ">
<polygon fill="#bfbfbf" stroke="black" points="75,-0.5 75,-19.5 235,-19.5 235,-0.5 75,-0.5"/>
<text text-anchor="middle" x="155" y="-7.5" font-family="Helvetica,sans-Serif" font-size="10.00">sierra::nalu::KernelBuilderLog</text>
</a>
</g>
</g>
<!-- Node2 -->
<g id="node2" class="node">
<title>Node2</title>
<g id="a_node2"><a xlink:title=" ">
<polygon fill="white" stroke="#bfbfbf" points="86,-78.5 86,-108.5 224,-108.5 224,-78.5 86,-78.5"/>
<text text-anchor="start" x="94" y="-96.5" font-family="Helvetica,sans-Serif" font-size="10.00">std::map&lt; std::string,</text>
<text text-anchor="middle" x="155" y="-85.5" font-family="Helvetica,sans-Serif" font-size="10.00"> std::set&lt; std::string &gt; &gt;</text>
</a>
</g>
</g>
<!-- Node2&#45;&gt;Node1 -->
<g id="edge1" class="edge">
<title>Node2&#45;&gt;Node1</title>
<path fill="none" stroke="#9a32cd" stroke-dasharray="5,2" d="M155,-68.25C155,-51.78 155,-30.99 155,-19.54"/>
<polygon fill="#9a32cd" stroke="#9a32cd" points="151.5,-68.3 155,-78.3 158.5,-68.3 151.5,-68.3"/>
<text text-anchor="middle" x="203" y="-52" font-family="Helvetica,sans-Serif" font-size="10.00"> builtKernelNames_</text>
<text text-anchor="middle" x="203" y="-41" font-family="Helvetica,sans-Serif" font-size="10.00">validKernelNames_</text>
</g>
<!-- Node3 -->
<g id="node3" class="node">
<title>Node3</title>
<g id="a_node3"><a xlink:title=" ">
<polygon fill="white" stroke="#bfbfbf" points="93,-157.5 93,-176.5 217,-176.5 217,-157.5 93,-157.5"/>
<text text-anchor="middle" x="155" y="-164.5" font-family="Helvetica,sans-Serif" font-size="10.00">std::set&lt; std::string &gt;</text>
</a>
</g>
</g>
<!-- Node3&#45;&gt;Node2 -->
<g id="edge2" class="edge">
<title>Node3&#45;&gt;Node2</title>
<path fill="none" stroke="#9a32cd" stroke-dasharray="5,2" d="M155,-146.9C155,-134.82 155,-119.47 155,-108.51"/>
<polygon fill="#9a32cd" stroke="#9a32cd" points="151.5,-147.23 155,-157.23 158.5,-147.23 151.5,-147.23"/>
<text text-anchor="middle" x="179.5" y="-130" font-family="Helvetica,sans-Serif" font-size="10.00"> elements</text>
</g>
<!-- Node4 -->
<g id="node4" class="node">
<title>Node4</title>
<g id="a_node4"><a xlink:title=" ">
<polygon fill="white" stroke="#bfbfbf" points="19.5,-225.5 19.5,-244.5 84.5,-244.5 84.5,-225.5 19.5,-225.5"/>
<text text-anchor="middle" x="52" y="-232.5" font-family="Helvetica,sans-Serif" font-size="10.00">std::string</text>
</a>
</g>
</g>
<!-- Node4&#45;&gt;Node2 -->
<g id="edge7" class="edge">
<title>Node4&#45;&gt;Node2</title>
<path fill="none" stroke="#9a32cd" stroke-dasharray="5,2" d="M48.92,-214.85C47.24,-198.11 47.31,-173.78 58,-156 71.25,-133.95 95.78,-118.51 116.85,-108.61"/>
<polygon fill="#9a32cd" stroke="#9a32cd" points="45.49,-215.58 50.26,-225.05 52.43,-214.68 45.49,-215.58"/>
<text text-anchor="middle" x="71" y="-164.5" font-family="Helvetica,sans-Serif" font-size="10.00"> keys</text>
</g>
<!-- Node4&#45;&gt;Node3 -->
<g id="edge3" class="edge">
<title>Node4&#45;&gt;Node3</title>
<path fill="none" stroke="#9a32cd" stroke-dasharray="5,2" d="M74.14,-219.81C94.63,-206.69 124.41,-187.6 141.53,-176.63"/>
<polygon fill="#9a32cd" stroke="#9a32cd" points="72,-217.03 65.47,-225.37 75.77,-222.92 72,-217.03"/>
<text text-anchor="middle" x="123" y="-199" font-family="Helvetica,sans-Serif" font-size="10.00"> keys</text>
</g>
<!-- Node5 -->
<g id="node5" class="node">
<title>Node5</title>
<g id="a_node5"><a xlink:title=" ">
<polygon fill="white" stroke="#bfbfbf" points="0,-292.5 0,-322.5 104,-322.5 104,-292.5 0,-292.5"/>
<text text-anchor="start" x="8" y="-310.5" font-family="Helvetica,sans-Serif" font-size="10.00">std::basic_string&lt;</text>
<text text-anchor="middle" x="52" y="-299.5" font-family="Helvetica,sans-Serif" font-size="10.00"> Char &gt;</text>
</a>
</g>
</g>
<!-- Node5&#45;&gt;Node4 -->
<g id="edge4" class="edge">
<title>Node5&#45;&gt;Node4</title>
<path fill="none" stroke="midnightblue" d="M52,-282.09C52,-269.21 52,-254.2 52,-244.89"/>
<polygon fill="midnightblue" stroke="midnightblue" points="48.5,-282.23 52,-292.23 55.5,-282.23 48.5,-282.23"/>
</g>
<!-- Node6 -->
<g id="node6" class="node">
<title>Node6</title>
<g id="a_node6"><a xlink:title=" ">
<polygon fill="white" stroke="#bfbfbf" points="107,-225.5 107,-244.5 189,-244.5 189,-225.5 107,-225.5"/>
<text text-anchor="middle" x="148" y="-232.5" font-family="Helvetica,sans-Serif" font-size="10.00">std::set&lt; K &gt;</text>
</a>
</g>
</g>
<!-- Node6&#45;&gt;Node3 -->
<g id="edge5" class="edge">
<title>Node6&#45;&gt;Node3</title>
<path fill="none" stroke="orange" stroke-dasharray="5,2" d="M149.97,-215.42C151.31,-202.8 153.02,-186.66 154.06,-176.84"/>
<polygon fill="orange" stroke="orange" points="146.49,-215.06 148.92,-225.37 153.45,-215.8 146.49,-215.06"/>
<text text-anchor="middle" x="189.5" y="-199" font-family="Helvetica,sans-Serif" font-size="10.00"> &lt; std::string &gt;</text>
</g>
<!-- Node7 -->
<g id="node7" class="node">
<title>Node7</title>
<g id="a_node7"><a xlink:title=" ">
<polygon fill="white" stroke="#bfbfbf" points="162.5,-298 162.5,-317 191.5,-317 191.5,-298 162.5,-298"/>
<text text-anchor="middle" x="177" y="-305" font-family="Helvetica,sans-Serif" font-size="10.00">K</text>
</a>
</g>
</g>
<!-- Node7&#45;&gt;Node6 -->
<g id="edge6" class="edge">
<title>Node7&#45;&gt;Node6</title>
<path fill="none" stroke="#9a32cd" stroke-dasharray="5,2" d="M163.64,-289.6C160.38,-284.78 157.2,-279.38 155,-274 151.09,-264.44 149.35,-252.63 148.58,-244.74"/>
<polygon fill="#9a32cd" stroke="#9a32cd" points="161.04,-291.97 169.77,-297.97 166.68,-287.83 161.04,-291.97"/>
<text text-anchor="middle" x="168" y="-266" font-family="Helvetica,sans-Serif" font-size="10.00"> keys</text>
</g>
<!-- Node8 -->
<g id="node8" class="node">
<title>Node8</title>
<g id="a_node8"><a xlink:title=" ">
<polygon fill="white" stroke="#bfbfbf" points="207.5,-225.5 207.5,-244.5 308.5,-244.5 308.5,-225.5 207.5,-225.5"/>
<text text-anchor="middle" x="258" y="-232.5" font-family="Helvetica,sans-Serif" font-size="10.00">std::map&lt; K, T &gt;</text>
</a>
</g>
</g>
<!-- Node7&#45;&gt;Node8 -->
<g id="edge9" class="edge">
<title>Node7&#45;&gt;Node8</title>
<path fill="none" stroke="#9a32cd" stroke-dasharray="5,2" d="M194.71,-291.08C211.04,-276.87 234.71,-256.27 247.99,-244.72"/>
<polygon fill="#9a32cd" stroke="#9a32cd" points="192.18,-288.65 186.93,-297.86 196.77,-293.93 192.18,-288.65"/>
<text text-anchor="middle" x="238" y="-266" font-family="Helvetica,sans-Serif" font-size="10.00"> keys</text>
</g>
<!-- Node8&#45;&gt;Node2 -->
<g id="edge8" class="edge">
<title>Node8&#45;&gt;Node2</title>
<path fill="none" stroke="orange" stroke-dasharray="5,2" d="M253.54,-215.33C247.1,-191.96 233.11,-151.98 208,-127 200.88,-119.92 191.94,-113.7 183.44,-108.64"/>
<polygon fill="orange" stroke="orange" points="250.23,-216.52 256.11,-225.33 257.01,-214.77 250.23,-216.52"/>
<text text-anchor="start" x="241" y="-170" font-family="Helvetica,sans-Serif" font-size="10.00"> &lt; std::string, std</text>
<text text-anchor="middle" x="293" y="-159" font-family="Helvetica,sans-Serif" font-size="10.00">::set&lt; std::string &gt; &gt;</text>
</g>
<!-- Node9 -->
<g id="node9" class="node">
<title>Node9</title>
<g id="a_node9"><a xlink:title=" ">
<polygon fill="white" stroke="#bfbfbf" points="243.5,-298 243.5,-317 272.5,-317 272.5,-298 243.5,-298"/>
<text text-anchor="middle" x="258" y="-305" font-family="Helvetica,sans-Serif" font-size="10.00">T</text>
</a>
</g>
</g>
<!-- Node9&#45;&gt;Node8 -->
<g id="edge10" class="edge">
<title>Node9&#45;&gt;Node8</title>
<path fill="none" stroke="#9a32cd" stroke-dasharray="5,2" d="M258,-287.44C258,-273.53 258,-255.32 258,-244.72"/>
<polygon fill="#9a32cd" stroke="#9a32cd" points="254.5,-287.86 258,-297.86 261.5,-287.86 254.5,-287.86"/>
<text text-anchor="middle" x="282.5" y="-266" font-family="Helvetica,sans-Serif" font-size="10.00"> elements</text>
</g>
</g>
</svg>
