<?xml version="1.0" encoding="UTF-8" standalone="no"?>
<!DOCTYPE svg PUBLIC "-//W3C//DTD SVG 1.1//EN"
 "http://www.w3.org/Graphics/SVG/1.1/DTD/svg11.dtd">
<!-- Generated by graphviz version 2.43.0 (0)
 -->
<!-- Title: sierra::nalu::AveragingInfo Pages: 1 -->
<!--zoomable 334 -->
<svg id="main" version="1.1" xmlns="http://www.w3.org/2000/svg" xmlns:xlink="http://www.w3.org/1999/xlink" xml:space="preserve" onload="init(evt)">
<style type="text/css"><![CDATA[
.edge:hover path { stroke: red; }
.edge:hover polygon { stroke: red; fill: red; }
]]></style>
<script type="text/javascript"><![CDATA[
var edges = document.getElementsByTagName('g');
if (edges && edges.length) {
  for (var i=0;i<edges.length;i++) {
    if (edges[i].id.substr(0,4)=='edge') {
      edges[i].setAttribute('class','edge');
    }
  }
}
]]></script>
        <defs>
                <circle id="rim" cx="0" cy="0" r="7"/>
                <circle id="rim2" cx="0" cy="0" r="3.5"/>
                <g id="zoomPlus">
                        <use xlink:href="#rim" fill="#404040">
                                <set attributeName="fill" to="#808080" begin="zoomplus.mouseover" end="zoomplus.mouseout"/>
                        </use>
                        <path d="M-4,0h8M0,-4v8" fill="none" stroke="white" stroke-width="1.5" pointer-events="none"/>
                </g>
                <g id="zoomMin">
                        <use xlink:href="#rim" fill="#404040">
                                <set attributeName="fill" to="#808080" begin="zoomminus.mouseover" end="zoomminus.mouseout"/>
                        </use>
                        <path d="M-4,0h8" fill="none" stroke="white" stroke-width="1.5" pointer-events="none"/>
                </g>
                <g id="dirArrow">
                        <path fill="none" stroke="white" stroke-width="1.5" d="M0,-3.0v7 M-2.5,-0.5L0,-3.0L2.5,-0.5"/>
                </g>
               <g id="resetDef">
                       <use xlink:href="#rim2" fill="#404040">
                               <set attributeName="fill" to="#808080" begin="reset.mouseover" end="reset.mouseout"/>
                       </use>
               </g>
        </defs>

<script type="text/javascript">
var viewWidth = 915;
var viewHeight = 334;
var sectionId = 'dynsection-0';
</script>
<script xlink:href="svgpan.js"/>
<svg id="graph" class="graph">
<g id="viewport">
<title>sierra::nalu::AveragingInfo</title>
<polygon fill="white" stroke="transparent" points="-4,4 -4,-330 911,-330 911,4 -4,4"/>
<!-- Node1 -->
<g id="node1" class="node">
<title>Node1</title>
<g id="a_node1"><a xlink:title=" ">
<polygon fill="#bfbfbf" stroke="black" points="762,-107.5 762,-126.5 907,-126.5 907,-107.5 762,-107.5"/>
<text text-anchor="middle" x="834.5" y="-114.5" font-family="Helvetica,sans-Serif" font-size="10.00">sierra::nalu::AveragingInfo</text>
</a>
</g>
</g>
<!-- Node2 -->
<g id="node2" class="node">
<title>Node2</title>
<g id="a_node2"><a xlink:title=" ">
<polygon fill="white" stroke="#bfbfbf" points="452,-108.5 452,-127.5 587,-127.5 587,-108.5 452,-108.5"/>
<text text-anchor="middle" x="519.5" y="-115.5" font-family="Helvetica,sans-Serif" font-size="10.00">std::vector&lt; unsigned &gt;</text>
</a>
</g>
</g>
<!-- Node2&#45;&gt;Node1 -->
<g id="edge1" class="edge">
<title>Node2&#45;&gt;Node1</title>
<path fill="none" stroke="#9a32cd" stroke-dasharray="5,2" d="M597.42,-117.75C647.66,-117.59 712.81,-117.39 761.94,-117.23"/>
<polygon fill="#9a32cd" stroke="#9a32cd" points="597.25,-114.25 587.26,-117.79 597.27,-121.25 597.25,-114.25"/>
<text text-anchor="middle" x="681.5" y="-154" font-family="Helvetica,sans-Serif" font-size="10.00"> favreFieldSizeVec_</text>
<text text-anchor="start" x="627" y="-143" font-family="Helvetica,sans-Serif" font-size="10.00">resolvedFieldSizeVec</text>
<text text-anchor="middle" x="681.5" y="-132" font-family="Helvetica,sans-Serif" font-size="10.00">_</text>
<text text-anchor="middle" x="681.5" y="-121" font-family="Helvetica,sans-Serif" font-size="10.00">reynoldsFieldSizeVec_</text>
</g>
<!-- Node3 -->
<g id="node3" class="node">
<title>Node3</title>
<g id="a_node3"><a xlink:title=" ">
<polygon fill="white" stroke="#bfbfbf" points="189,-88.5 189,-107.5 286,-107.5 286,-88.5 189,-88.5"/>
<text text-anchor="middle" x="237.5" y="-95.5" font-family="Helvetica,sans-Serif" font-size="10.00">std::vector&lt; T &gt;</text>
</a>
</g>
</g>
<!-- Node3&#45;&gt;Node2 -->
<g id="edge2" class="edge">
<title>Node3&#45;&gt;Node2</title>
<path fill="none" stroke="orange" stroke-dasharray="5,2" d="M296.56,-102.15C341.82,-105.38 404.71,-109.87 452,-113.25"/>
<polygon fill="orange" stroke="orange" points="296.54,-98.64 286.32,-101.42 296.04,-105.62 296.54,-98.64"/>
<text text-anchor="middle" x="362" y="-114" font-family="Helvetica,sans-Serif" font-size="10.00"> &lt; unsigned &gt;</text>
</g>
<!-- Node5 -->
<g id="node5" class="node">
<title>Node5</title>
<g id="a_node5"><a xlink:title=" ">
<polygon fill="white" stroke="#bfbfbf" points="460.5,-70.5 460.5,-89.5 578.5,-89.5 578.5,-70.5 460.5,-70.5"/>
<text text-anchor="middle" x="519.5" y="-77.5" font-family="Helvetica,sans-Serif" font-size="10.00">std::vector&lt; Part * &gt;</text>
</a>
</g>
</g>
<!-- Node3&#45;&gt;Node5 -->
<g id="edge5" class="edge">
<title>Node3&#45;&gt;Node5</title>
<path fill="none" stroke="orange" stroke-dasharray="5,2" d="M284.17,-86.25C290.78,-84.93 297.54,-83.78 304,-83 356.69,-76.67 417.19,-76.46 460.47,-77.51"/>
<polygon fill="orange" stroke="orange" points="283,-82.92 273.95,-88.45 284.47,-89.77 283,-82.92"/>
<text text-anchor="middle" x="362" y="-86" font-family="Helvetica,sans-Serif" font-size="10.00"> &lt; Part * &gt;</text>
</g>
<!-- Node8 -->
<g id="node8" class="node">
<title>Node8</title>
<g id="a_node8"><a xlink:title=" ">
<polygon fill="white" stroke="#bfbfbf" points="438,-0.5 438,-41.5 601,-41.5 601,-0.5 438,-0.5"/>
<text text-anchor="start" x="446" y="-29.5" font-family="Helvetica,sans-Serif" font-size="10.00">std::vector&lt; std::pair</text>
<text text-anchor="start" x="446" y="-18.5" font-family="Helvetica,sans-Serif" font-size="10.00">&lt; stk::mesh::FieldBase</text>
<text text-anchor="middle" x="519.5" y="-7.5" font-family="Helvetica,sans-Serif" font-size="10.00"> *, stk::mesh::FieldBase * &gt; &gt;</text>
</a>
</g>
</g>
<!-- Node3&#45;&gt;Node8 -->
<g id="edge9" class="edge">
<title>Node3&#45;&gt;Node8</title>
<path fill="none" stroke="orange" stroke-dasharray="5,2" d="M252.83,-80.65C264.95,-67.32 283.57,-49.75 304,-41 345.86,-23.08 396.42,-17.68 437.94,-16.94"/>
<polygon fill="orange" stroke="orange" points="250.1,-78.46 246.17,-88.29 255.38,-83.06 250.1,-78.46"/>
<text text-anchor="start" x="304" y="-66" font-family="Helvetica,sans-Serif" font-size="10.00"> &lt; std::pair&lt; stk::mesh</text>
<text text-anchor="start" x="304" y="-55" font-family="Helvetica,sans-Serif" font-size="10.00">::FieldBase *, stk::mesh</text>
<text text-anchor="middle" x="362" y="-44" font-family="Helvetica,sans-Serif" font-size="10.00">::FieldBase * &gt; &gt;</text>
</g>
<!-- Node9 -->
<g id="node9" class="node">
<title>Node9</title>
<g id="a_node9"><a xlink:title=" ">
<polygon fill="white" stroke="#bfbfbf" points="449.5,-174.5 449.5,-193.5 589.5,-193.5 589.5,-174.5 449.5,-174.5"/>
<text text-anchor="middle" x="519.5" y="-181.5" font-family="Helvetica,sans-Serif" font-size="10.00">std::vector&lt; std::string &gt;</text>
</a>
</g>
</g>
<!-- Node3&#45;&gt;Node9 -->
<g id="edge12" class="edge">
<title>Node3&#45;&gt;Node9</title>
<path fill="none" stroke="orange" stroke-dasharray="5,2" d="M268.12,-111.7C279.24,-116.57 292.07,-121.86 304,-126 362.86,-146.43 432.82,-164.16 476.45,-174.47"/>
<polygon fill="orange" stroke="orange" points="269.42,-108.45 258.86,-107.58 266.57,-114.84 269.42,-108.45"/>
<text text-anchor="middle" x="362" y="-163" font-family="Helvetica,sans-Serif" font-size="10.00"> &lt; std::string &gt;</text>
</g>
<!-- Node4 -->
<g id="node4" class="node">
<title>Node4</title>
<g id="a_node4"><a xlink:title=" ">
<polygon fill="white" stroke="#bfbfbf" points="37.5,-88.5 37.5,-107.5 66.5,-107.5 66.5,-88.5 37.5,-88.5"/>
<text text-anchor="middle" x="52" y="-95.5" font-family="Helvetica,sans-Serif" font-size="10.00">T</text>
</a>
</g>
</g>
<!-- Node4&#45;&gt;Node3 -->
<g id="edge3" class="edge">
<title>Node4&#45;&gt;Node3</title>
<path fill="none" stroke="#9a32cd" stroke-dasharray="5,2" d="M76.96,-98C105.28,-98 153.06,-98 188.97,-98"/>
<polygon fill="#9a32cd" stroke="#9a32cd" points="76.79,-94.5 66.79,-98 76.79,-101.5 76.79,-94.5"/>
<text text-anchor="middle" x="146.5" y="-101" font-family="Helvetica,sans-Serif" font-size="10.00"> elements</text>
</g>
<!-- Node5&#45;&gt;Node1 -->
<g id="edge4" class="edge">
<title>Node5&#45;&gt;Node1</title>
<path fill="none" stroke="#9a32cd" stroke-dasharray="5,2" d="M589.02,-86.11C633.31,-90.29 692.14,-96.28 744,-103 754.14,-104.31 764.9,-105.86 775.31,-107.44"/>
<polygon fill="#9a32cd" stroke="#9a32cd" points="589.23,-82.61 578.95,-85.17 588.58,-89.58 589.23,-82.61"/>
<text text-anchor="middle" x="681.5" y="-106" font-family="Helvetica,sans-Serif" font-size="10.00"> partVec_</text>
</g>
<!-- Node6 -->
<g id="node6" class="node">
<title>Node6</title>
<g id="a_node6"><a xlink:title=" ">
<polygon fill="white" stroke="#bfbfbf" points="205,-226.5 205,-245.5 270,-245.5 270,-226.5 205,-226.5"/>
<text text-anchor="middle" x="237.5" y="-233.5" font-family="Helvetica,sans-Serif" font-size="10.00">std::string</text>
</a>
</g>
</g>
<!-- Node6&#45;&gt;Node1 -->
<g id="edge6" class="edge">
<title>Node6&#45;&gt;Node1</title>
<path fill="none" stroke="#9a32cd" stroke-dasharray="5,2" d="M269.26,-249.42C352.43,-283.5 586.13,-364.43 744,-273 801.01,-239.98 824.84,-155.42 831.46,-126.71"/>
<polygon fill="#9a32cd" stroke="#9a32cd" points="270.45,-246.13 259.88,-245.51 267.76,-252.59 270.45,-246.13"/>
<text text-anchor="middle" x="519.5" y="-318" font-family="Helvetica,sans-Serif" font-size="10.00"> name_</text>
</g>
<!-- Node6&#45;&gt;Node9 -->
<g id="edge11" class="edge">
<title>Node6&#45;&gt;Node9</title>
<path fill="none" stroke="#9a32cd" stroke-dasharray="5,2" d="M280.18,-228.26C330,-219.01 413.38,-203.52 467.14,-193.54"/>
<polygon fill="#9a32cd" stroke="#9a32cd" points="279.27,-224.87 270.08,-230.14 280.55,-231.75 279.27,-224.87"/>
<text text-anchor="middle" x="362" y="-226" font-family="Helvetica,sans-Serif" font-size="10.00"> elements</text>
</g>
<!-- Node7 -->
<g id="node7" class="node">
<title>Node7</title>
<g id="a_node7"><a xlink:title=" ">
<polygon fill="white" stroke="#bfbfbf" points="0,-221 0,-251 104,-251 104,-221 0,-221"/>
<text text-anchor="start" x="8" y="-239" font-family="Helvetica,sans-Serif" font-size="10.00">std::basic_string&lt;</text>
<text text-anchor="middle" x="52" y="-228" font-family="Helvetica,sans-Serif" font-size="10.00"> Char &gt;</text>
</a>
</g>
</g>
<!-- Node7&#45;&gt;Node6 -->
<g id="edge7" class="edge">
<title>Node7&#45;&gt;Node6</title>
<path fill="none" stroke="midnightblue" d="M114.21,-236C144.61,-236 180.06,-236 204.94,-236"/>
<polygon fill="midnightblue" stroke="midnightblue" points="114.12,-232.5 104.11,-236 114.11,-239.5 114.12,-232.5"/>
</g>
<!-- Node8&#45;&gt;Node1 -->
<g id="edge8" class="edge">
<title>Node8&#45;&gt;Node1</title>
<path fill="none" stroke="#9a32cd" stroke-dasharray="5,2" d="M611.31,-17.37C653.13,-18.71 702.55,-24.69 744,-42 779.36,-56.76 811.29,-90.61 825.58,-107.31"/>
<polygon fill="#9a32cd" stroke="#9a32cd" points="611.21,-13.86 601.13,-17.13 611.04,-20.86 611.21,-13.86"/>
<text text-anchor="middle" x="681.5" y="-78" font-family="Helvetica,sans-Serif" font-size="10.00"> favreFieldVecPair_</text>
<text text-anchor="start" x="628.5" y="-67" font-family="Helvetica,sans-Serif" font-size="10.00">resolvedFieldVecPair</text>
<text text-anchor="middle" x="681.5" y="-56" font-family="Helvetica,sans-Serif" font-size="10.00">_</text>
<text text-anchor="middle" x="681.5" y="-45" font-family="Helvetica,sans-Serif" font-size="10.00">reynoldsFieldVecPair_</text>
</g>
<!-- Node9&#45;&gt;Node1 -->
<g id="edge10" class="edge">
<title>Node9&#45;&gt;Node1</title>
<path fill="none" stroke="#9a32cd" stroke-dasharray="5,2" d="M599.91,-183.24C643.22,-181.08 697.37,-175.51 744,-162 771.9,-153.92 801.48,-137.23 818.68,-126.6"/>
<polygon fill="#9a32cd" stroke="#9a32cd" points="599.54,-179.76 589.71,-183.7 599.85,-186.75 599.54,-179.76"/>
<text text-anchor="middle" x="681.5" y="-261" font-family="Helvetica,sans-Serif" font-size="10.00"> favreFieldNameVec_</text>
<text text-anchor="start" x="619" y="-250" font-family="Helvetica,sans-Serif" font-size="10.00">movingAvgFieldNameVec</text>
<text text-anchor="middle" x="681.5" y="-239" font-family="Helvetica,sans-Serif" font-size="10.00">_</text>
<text text-anchor="start" x="619" y="-228" font-family="Helvetica,sans-Serif" font-size="10.00">resolvedFieldNameVec</text>
<text text-anchor="middle" x="681.5" y="-217" font-family="Helvetica,sans-Serif" font-size="10.00">_</text>
<text text-anchor="start" x="619" y="-206" font-family="Helvetica,sans-Serif" font-size="10.00">reynoldsFieldNameVec</text>
<text text-anchor="middle" x="681.5" y="-195" font-family="Helvetica,sans-Serif" font-size="10.00">_</text>
<text text-anchor="middle" x="681.5" y="-184" font-family="Helvetica,sans-Serif" font-size="10.00">targetNames_</text>
</g>
</g>
</svg>
        <g id="navigator" transform="translate(0 0)" fill="#404254">
                <rect fill="#f2f5e9" fill-opacity="0.5" stroke="#606060" stroke-width=".5" x="0" y="0" width="60" height="60"/>
                <use id="zoomplus" xlink:href="#zoomPlus" x="17" y="9" onmousedown="handleZoom(evt,'in')"/>
                <use id="zoomminus" xlink:href="#zoomMin" x="42" y="9" onmousedown="handleZoom(evt,'out')"/>
                <use id="reset" xlink:href="#resetDef" x="30" y="36" onmousedown="handleReset()"/>
                <g id="arrowUp" xlink:href="#dirArrow" transform="translate(30 24)" onmousedown="handlePan(0,-1)">
                  <use xlink:href="#rim" fill="#404040">
                        <set attributeName="fill" to="#808080" begin="arrowUp.mouseover" end="arrowUp.mouseout"/>
                  </use>
                  <path fill="none" stroke="white" stroke-width="1.5" d="M0,-3.0v7 M-2.5,-0.5L0,-3.0L2.5,-0.5"/>
                </g>
                <g id="arrowRight" xlink:href="#dirArrow" transform="rotate(90) translate(36 -43)" onmousedown="handlePan(1,0)">
                  <use xlink:href="#rim" fill="#404040">
                        <set attributeName="fill" to="#808080" begin="arrowRight.mouseover" end="arrowRight.mouseout"/>
                  </use>
                  <path fill="none" stroke="white" stroke-width="1.5" d="M0,-3.0v7 M-2.5,-0.5L0,-3.0L2.5,-0.5"/>
                </g>
                <g id="arrowDown" xlink:href="#dirArrow" transform="rotate(180) translate(-30 -48)" onmousedown="handlePan(0,1)">
                  <use xlink:href="#rim" fill="#404040">
                        <set attributeName="fill" to="#808080" begin="arrowDown.mouseover" end="arrowDown.mouseout"/>
                  </use>
                  <path fill="none" stroke="white" stroke-width="1.5" d="M0,-3.0v7 M-2.5,-0.5L0,-3.0L2.5,-0.5"/>
                </g>
                <g id="arrowLeft" xlink:href="#dirArrow" transform="rotate(270) translate(-36 17)" onmousedown="handlePan(-1,0)">
                  <use xlink:href="#rim" fill="#404040">
                        <set attributeName="fill" to="#808080" begin="arrowLeft.mouseover" end="arrowLeft.mouseout"/>
                  </use>
                  <path fill="none" stroke="white" stroke-width="1.5" d="M0,-3.0v7 M-2.5,-0.5L0,-3.0L2.5,-0.5"/>
                </g>
        </g>
        <svg viewBox="0 0 15 15" width="100%" height="30px" preserveAspectRatio="xMaxYMin meet">
         <g id="arrow_out" transform="scale(0.3 0.3)">
          <a xlink:href="classsierra_1_1nalu_1_1_averaging_info__coll__graph_org.svg" target="_base">
           <rect id="button" ry="5" rx="5" y="6" x="6" height="38" width="38"
                fill="#f2f5e9" fill-opacity="0.5" stroke="#606060" stroke-width="1.0"/>
           <path id="arrow"
             d="M 11.500037,31.436501 C 11.940474,20.09759 22.043105,11.32322 32.158766,21.979434 L 37.068811,17.246167 C 37.068811,17.246167 37.088388,32 37.088388,32 L 22.160133,31.978069 C 22.160133,31.978069 26.997745,27.140456 26.997745,27.140456 C 18.528582,18.264221 13.291696,25.230495 11.500037,31.436501 z"
             style="fill:#404040;"/>
          </a>
         </g>
        </svg>
</svg>
