<?xml version="1.0" encoding="UTF-8" standalone="no"?>
<!DOCTYPE svg PUBLIC "-//W3C//DTD SVG 1.1//EN"
 "http://www.w3.org/Graphics/SVG/1.1/DTD/svg11.dtd">
<!-- Generated by graphviz version 2.43.0 (0)
 -->
<!-- Title: sierra::nalu::PromotedElementIO Pages: 1 -->
<svg width="1570pt" height="720pt"
 viewBox="0.00 0.00 1570.00 720.06" xmlns="http://www.w3.org/2000/svg" xmlns:xlink="http://www.w3.org/1999/xlink">
<g id="graph0" class="graph" transform="scale(1 1) rotate(0) translate(4 716.06)">
<title>sierra::nalu::PromotedElementIO</title>
<polygon fill="white" stroke="transparent" points="-4,4 -4,-716.06 1566,-716.06 1566,4 -4,4"/>
<!-- Node1 -->
<g id="node1" class="node">
<title>Node1</title>
<g id="a_node1"><a xlink:title=" ">
<polygon fill="#bfbfbf" stroke="black" points="1386,-493.56 1386,-512.56 1562,-512.56 1562,-493.56 1386,-493.56"/>
<text text-anchor="middle" x="1474" y="-500.56" font-family="Helvetica,sans-Serif" font-size="10.00">sierra::nalu::PromotedElementIO</text>
</a>
</g>
</g>
<!-- Node2 -->
<g id="node2" class="node">
<title>Node2</title>
<g id="a_node2"><a xlink:title=" ">
<polygon fill="white" stroke="#bfbfbf" points="589,-653.06 589,-683.06 709,-683.06 709,-653.06 589,-653.06"/>
<text text-anchor="start" x="597" y="-671.06" font-family="Helvetica,sans-Serif" font-size="10.00">std::unique_ptr&lt; Ioss</text>
<text text-anchor="middle" x="649" y="-660.06" font-family="Helvetica,sans-Serif" font-size="10.00">::Region &gt;</text>
</a>
</g>
</g>
<!-- Node2&#45;&gt;Node1 -->
<g id="edge1" class="edge">
<title>Node2&#45;&gt;Node1</title>
<path fill="none" stroke="#9a32cd" stroke-dasharray="5,2" d="M719.59,-681.1C854.2,-702.64 1155.63,-732.59 1368,-617.06 1415.75,-591.09 1453.52,-535.13 1467.33,-512.67"/>
<polygon fill="#9a32cd" stroke="#9a32cd" points="719.85,-677.6 709.42,-679.44 718.72,-684.51 719.85,-677.6"/>
<text text-anchor="middle" x="994" y="-704.06" font-family="Helvetica,sans-Serif" font-size="10.00"> output_</text>
</g>
<!-- Node3 -->
<g id="node3" class="node">
<title>Node3</title>
<g id="a_node3"><a xlink:title=" ">
<polygon fill="white" stroke="#bfbfbf" points="114,-619.56 114,-638.56 232,-638.56 232,-619.56 114,-619.56"/>
<text text-anchor="middle" x="173" y="-626.56" font-family="Helvetica,sans-Serif" font-size="10.00">std::unique_ptr&lt; T &gt;</text>
</a>
</g>
</g>
<!-- Node3&#45;&gt;Node2 -->
<g id="edge2" class="edge">
<title>Node3&#45;&gt;Node2</title>
<path fill="none" stroke="orange" stroke-dasharray="5,2" d="M242.28,-634.68C335.34,-642.34 500.49,-655.93 588.66,-663.18"/>
<polygon fill="orange" stroke="orange" points="242.38,-631.18 232.12,-633.84 241.8,-638.15 242.38,-631.18"/>
<text text-anchor="middle" x="324" y="-649.06" font-family="Helvetica,sans-Serif" font-size="10.00"> &lt; Ioss::Region &gt;</text>
</g>
<!-- Node4 -->
<g id="node4" class="node">
<title>Node4</title>
<g id="a_node4"><a xlink:title=" ">
<polygon fill="white" stroke="#bfbfbf" points="0,-455.56 0,-474.56 29,-474.56 29,-455.56 0,-455.56"/>
<text text-anchor="middle" x="14.5" y="-462.56" font-family="Helvetica,sans-Serif" font-size="10.00">T</text>
</a>
</g>
</g>
<!-- Node4&#45;&gt;Node3 -->
<g id="edge3" class="edge">
<title>Node4&#45;&gt;Node3</title>
<path fill="none" stroke="#9a32cd" stroke-dasharray="5,2" d="M16.97,-484.66C19.59,-506.97 26.86,-543.39 47,-567.06 69.92,-594 107.35,-610.38 135.29,-619.48"/>
<polygon fill="#9a32cd" stroke="#9a32cd" points="20.45,-484.3 16,-474.69 13.49,-484.98 20.45,-484.3"/>
<text text-anchor="middle" x="71.5" y="-605.06" font-family="Helvetica,sans-Serif" font-size="10.00"> ptr</text>
</g>
<!-- Node8 -->
<g id="node8" class="node">
<title>Node8</title>
<g id="a_node8"><a xlink:title=" ">
<polygon fill="white" stroke="#bfbfbf" points="762.5,-506.56 762.5,-525.56 863.5,-525.56 863.5,-506.56 762.5,-506.56"/>
<text text-anchor="middle" x="813" y="-513.56" font-family="Helvetica,sans-Serif" font-size="10.00">std::map&lt; K, T &gt;</text>
</a>
</g>
</g>
<!-- Node4&#45;&gt;Node8 -->
<g id="edge9" class="edge">
<title>Node4&#45;&gt;Node8</title>
<path fill="none" stroke="#9a32cd" stroke-dasharray="5,2" d="M39.1,-470.66C100.66,-484.95 271.38,-522.52 416,-535.06 484.63,-541.01 502.12,-536.06 571,-535.06 632.35,-534.17 647.87,-536.38 709,-531.06 726.46,-529.54 745.48,-527.02 762.37,-524.48"/>
<polygon fill="#9a32cd" stroke="#9a32cd" points="39.75,-467.22 29.22,-468.35 38.16,-474.04 39.75,-467.22"/>
<text text-anchor="middle" x="324" y="-536.06" font-family="Helvetica,sans-Serif" font-size="10.00"> elements</text>
</g>
<!-- Node13 -->
<g id="node13" class="node">
<title>Node13</title>
<g id="a_node13"><a xlink:title=" ">
<polygon fill="white" stroke="#bfbfbf" points="124.5,-355.56 124.5,-374.56 221.5,-374.56 221.5,-355.56 124.5,-355.56"/>
<text text-anchor="middle" x="173" y="-362.56" font-family="Helvetica,sans-Serif" font-size="10.00">std::vector&lt; T &gt;</text>
</a>
</g>
</g>
<!-- Node4&#45;&gt;Node13 -->
<g id="edge16" class="edge">
<title>Node4&#45;&gt;Node13</title>
<path fill="none" stroke="#9a32cd" stroke-dasharray="5,2" d="M37.86,-450.77C70.23,-430.09 129.27,-392.37 156.94,-374.69"/>
<polygon fill="#9a32cd" stroke="#9a32cd" points="35.66,-448.03 29.11,-456.36 39.43,-453.93 35.66,-448.03"/>
<text text-anchor="middle" x="71.5" y="-446.06" font-family="Helvetica,sans-Serif" font-size="10.00"> elements</text>
</g>
<!-- Node17 -->
<g id="node17" class="node">
<title>Node17</title>
<g id="a_node17"><a xlink:title=" ">
<polygon fill="white" stroke="#bfbfbf" points="127,-204.56 127,-223.56 219,-223.56 219,-204.56 127,-204.56"/>
<text text-anchor="middle" x="173" y="-211.56" font-family="Helvetica,sans-Serif" font-size="10.00">std::array&lt; T &gt;</text>
</a>
</g>
</g>
<!-- Node4&#45;&gt;Node17 -->
<g id="edge22" class="edge">
<title>Node4&#45;&gt;Node17</title>
<path fill="none" stroke="#9a32cd" stroke-dasharray="5,2" d="M24,-445.73C29.99,-432.6 38.42,-414.99 47,-400.06 87.31,-329.89 144.64,-250.96 164.72,-223.83"/>
<polygon fill="#9a32cd" stroke="#9a32cd" points="20.68,-444.59 19.78,-455.15 27.06,-447.46 20.68,-444.59"/>
<text text-anchor="middle" x="71.5" y="-403.06" font-family="Helvetica,sans-Serif" font-size="10.00"> elements</text>
</g>
<!-- Node5 -->
<g id="node5" class="node">
<title>Node5</title>
<g id="a_node5"><a xlink:title=" ">
<polygon fill="white" stroke="#bfbfbf" points="1100.5,-589.56 1100.5,-630.56 1222.5,-630.56 1222.5,-589.56 1100.5,-589.56"/>
<text text-anchor="start" x="1108.5" y="-618.56" font-family="Helvetica,sans-Serif" font-size="10.00">std::map&lt; const std</text>
<text text-anchor="start" x="1108.5" y="-607.56" font-family="Helvetica,sans-Serif" font-size="10.00">::string, const stk</text>
<text text-anchor="middle" x="1161.5" y="-596.56" font-family="Helvetica,sans-Serif" font-size="10.00">::mesh::FieldBase * &gt;</text>
</a>
</g>
</g>
<!-- Node5&#45;&gt;Node1 -->
<g id="edge4" class="edge">
<title>Node5&#45;&gt;Node1</title>
<path fill="none" stroke="#9a32cd" stroke-dasharray="5,2" d="M1232.88,-605.1C1273.53,-600.45 1324.97,-591.45 1368,-574.06 1405.95,-558.73 1444.18,-528.2 1462.25,-512.65"/>
<polygon fill="#9a32cd" stroke="#9a32cd" points="1232.35,-601.64 1222.79,-606.2 1233.1,-608.6 1232.35,-601.64"/>
<text text-anchor="middle" x="1310" y="-605.06" font-family="Helvetica,sans-Serif" font-size="10.00"> fields_</text>
</g>
<!-- Node6 -->
<g id="node6" class="node">
<title>Node6</title>
<g id="a_node6"><a xlink:title=" ">
<polygon fill="white" stroke="#bfbfbf" points="780.5,-604.56 780.5,-623.56 845.5,-623.56 845.5,-604.56 780.5,-604.56"/>
<text text-anchor="middle" x="813" y="-611.56" font-family="Helvetica,sans-Serif" font-size="10.00">std::string</text>
</a>
</g>
</g>
<!-- Node6&#45;&gt;Node1 -->
<g id="edge17" class="edge">
<title>Node6&#45;&gt;Node1</title>
<path fill="none" stroke="#9a32cd" stroke-dasharray="5,2" d="M843.72,-600.26C863.96,-591.43 891.58,-580.47 917,-574.06 965.96,-561.72 1317.95,-524.74 1368,-518.06 1380.87,-516.34 1394.61,-514.44 1407.77,-512.57"/>
<polygon fill="#9a32cd" stroke="#9a32cd" points="842.13,-597.14 834.42,-604.4 844.98,-603.53 842.13,-597.14"/>
<text text-anchor="middle" x="1161.5" y="-552.06" font-family="Helvetica,sans-Serif" font-size="10.00"> fileName_</text>
</g>
<!-- Node6&#45;&gt;Node5 -->
<g id="edge5" class="edge">
<title>Node6&#45;&gt;Node5</title>
<path fill="none" stroke="#9a32cd" stroke-dasharray="5,2" d="M855.93,-615.45C906.82,-616.89 995.23,-618.6 1071,-616.06 1080.49,-615.74 1090.55,-615.24 1100.35,-614.65"/>
<polygon fill="#9a32cd" stroke="#9a32cd" points="855.76,-611.94 845.66,-615.15 855.56,-618.94 855.76,-611.94"/>
<text text-anchor="middle" x="994" y="-620.06" font-family="Helvetica,sans-Serif" font-size="10.00"> keys</text>
</g>
<!-- Node7 -->
<g id="node7" class="node">
<title>Node7</title>
<g id="a_node7"><a xlink:title=" ">
<polygon fill="white" stroke="#bfbfbf" points="441.5,-599.06 441.5,-629.06 545.5,-629.06 545.5,-599.06 441.5,-599.06"/>
<text text-anchor="start" x="449.5" y="-617.06" font-family="Helvetica,sans-Serif" font-size="10.00">std::basic_string&lt;</text>
<text text-anchor="middle" x="493.5" y="-606.06" font-family="Helvetica,sans-Serif" font-size="10.00"> Char &gt;</text>
</a>
</g>
</g>
<!-- Node7&#45;&gt;Node6 -->
<g id="edge6" class="edge">
<title>Node7&#45;&gt;Node6</title>
<path fill="none" stroke="midnightblue" d="M555.54,-614.06C622.73,-614.06 728.13,-614.06 780.41,-614.06"/>
<polygon fill="midnightblue" stroke="midnightblue" points="555.51,-610.56 545.51,-614.06 555.51,-617.56 555.51,-610.56"/>
</g>
<!-- Node8&#45;&gt;Node5 -->
<g id="edge7" class="edge">
<title>Node8&#45;&gt;Node5</title>
<path fill="none" stroke="orange" stroke-dasharray="5,2" d="M858.96,-528.26C920.64,-544.99 1031.66,-575.11 1100.41,-593.76"/>
<polygon fill="orange" stroke="orange" points="859.7,-524.83 849.13,-525.59 857.87,-531.59 859.7,-524.83"/>
<text text-anchor="start" x="917" y="-598.06" font-family="Helvetica,sans-Serif" font-size="10.00"> &lt; const std::string,</text>
<text text-anchor="middle" x="994" y="-587.06" font-family="Helvetica,sans-Serif" font-size="10.00"> const stk::mesh::FieldBase * &gt;</text>
</g>
<!-- Node10 -->
<g id="node10" class="node">
<title>Node10</title>
<g id="a_node10"><a xlink:title=" ">
<polygon fill="white" stroke="#bfbfbf" points="1104,-482.56 1104,-523.56 1219,-523.56 1219,-482.56 1104,-482.56"/>
<text text-anchor="start" x="1112" y="-511.56" font-family="Helvetica,sans-Serif" font-size="10.00">std::map&lt; const stk</text>
<text text-anchor="start" x="1112" y="-500.56" font-family="Helvetica,sans-Serif" font-size="10.00">::mesh::Part *, Ioss</text>
<text text-anchor="middle" x="1161.5" y="-489.56" font-family="Helvetica,sans-Serif" font-size="10.00">::SideBlock * &gt;</text>
</a>
</g>
</g>
<!-- Node8&#45;&gt;Node10 -->
<g id="edge11" class="edge">
<title>Node8&#45;&gt;Node10</title>
<path fill="none" stroke="orange" stroke-dasharray="5,2" d="M873.67,-513.82C938.22,-511.4 1040.37,-507.57 1103.75,-505.19"/>
<polygon fill="orange" stroke="orange" points="873.51,-510.33 863.65,-514.2 873.77,-517.32 873.51,-510.33"/>
<text text-anchor="start" x="930.5" y="-525.06" font-family="Helvetica,sans-Serif" font-size="10.00"> &lt; const stk::mesh::</text>
<text text-anchor="middle" x="994" y="-514.06" font-family="Helvetica,sans-Serif" font-size="10.00">Part *, Ioss::SideBlock * &gt;</text>
</g>
<!-- Node11 -->
<g id="node11" class="node">
<title>Node11</title>
<g id="a_node11"><a xlink:title=" ">
<polygon fill="white" stroke="#bfbfbf" points="1104,-422.56 1104,-463.56 1219,-463.56 1219,-422.56 1104,-422.56"/>
<text text-anchor="start" x="1112" y="-451.56" font-family="Helvetica,sans-Serif" font-size="10.00">std::map&lt; const stk</text>
<text text-anchor="start" x="1112" y="-440.56" font-family="Helvetica,sans-Serif" font-size="10.00">::mesh::Part *, Ioss</text>
<text text-anchor="middle" x="1161.5" y="-429.56" font-family="Helvetica,sans-Serif" font-size="10.00">::ElementBlock * &gt;</text>
</a>
</g>
</g>
<!-- Node8&#45;&gt;Node11 -->
<g id="edge13" class="edge">
<title>Node8&#45;&gt;Node11</title>
<path fill="none" stroke="orange" stroke-dasharray="5,2" d="M864.17,-503.68C875.82,-500.16 888.01,-495.93 899,-491.06 907.57,-487.26 908.19,-483.27 917,-480.06 978.46,-457.65 1053.44,-448.81 1103.81,-445.33"/>
<polygon fill="orange" stroke="orange" points="863.19,-500.32 854.56,-506.47 865.14,-507.04 863.19,-500.32"/>
<text text-anchor="start" x="921" y="-494.06" font-family="Helvetica,sans-Serif" font-size="10.00"> &lt; const stk::mesh::</text>
<text text-anchor="middle" x="994" y="-483.06" font-family="Helvetica,sans-Serif" font-size="10.00">Part *, Ioss::ElementBlock * &gt;</text>
</g>
<!-- Node9 -->
<g id="node9" class="node">
<title>Node9</title>
<g id="a_node9"><a xlink:title=" ">
<polygon fill="white" stroke="#bfbfbf" points="479,-506.56 479,-525.56 508,-525.56 508,-506.56 479,-506.56"/>
<text text-anchor="middle" x="493.5" y="-513.56" font-family="Helvetica,sans-Serif" font-size="10.00">K</text>
</a>
</g>
</g>
<!-- Node9&#45;&gt;Node8 -->
<g id="edge8" class="edge">
<title>Node9&#45;&gt;Node8</title>
<path fill="none" stroke="#9a32cd" stroke-dasharray="5,2" d="M518.29,-516.06C569.87,-516.06 692.91,-516.06 762.26,-516.06"/>
<polygon fill="#9a32cd" stroke="#9a32cd" points="518.14,-512.56 508.14,-516.06 518.14,-519.56 518.14,-512.56"/>
<text text-anchor="middle" x="649" y="-519.06" font-family="Helvetica,sans-Serif" font-size="10.00"> keys</text>
</g>
<!-- Node10&#45;&gt;Node1 -->
<g id="edge10" class="edge">
<title>Node10&#45;&gt;Node1</title>
<path fill="none" stroke="#9a32cd" stroke-dasharray="5,2" d="M1229.19,-503.06C1274.93,-503.06 1336.09,-503.06 1385.7,-503.06"/>
<polygon fill="#9a32cd" stroke="#9a32cd" points="1229.09,-499.56 1219.09,-503.06 1229.09,-506.56 1229.09,-499.56"/>
<text text-anchor="middle" x="1310" y="-506.06" font-family="Helvetica,sans-Serif" font-size="10.00"> sideBlockPointers_</text>
</g>
<!-- Node11&#45;&gt;Node1 -->
<g id="edge12" class="edge">
<title>Node11&#45;&gt;Node1</title>
<path fill="none" stroke="#9a32cd" stroke-dasharray="5,2" d="M1228.95,-455.9C1287.28,-467.17 1370.81,-483.32 1423.46,-493.49"/>
<polygon fill="#9a32cd" stroke="#9a32cd" points="1229.57,-452.46 1219.09,-454 1228.24,-459.33 1229.57,-452.46"/>
<text text-anchor="middle" x="1310" y="-484.06" font-family="Helvetica,sans-Serif" font-size="10.00"> elementBlockPointers_</text>
</g>
<!-- Node12 -->
<g id="node12" class="node">
<title>Node12</title>
<g id="a_node12"><a xlink:title=" ">
<polygon fill="white" stroke="#bfbfbf" points="935,-400.56 935,-419.56 1053,-419.56 1053,-400.56 935,-400.56"/>
<text text-anchor="middle" x="994" y="-407.56" font-family="Helvetica,sans-Serif" font-size="10.00">std::vector&lt; Part * &gt;</text>
</a>
</g>
</g>
<!-- Node12&#45;&gt;Node1 -->
<g id="edge14" class="edge">
<title>Node12&#45;&gt;Node1</title>
<path fill="none" stroke="#9a32cd" stroke-dasharray="5,2" d="M1063.04,-399.76C1111.22,-394.41 1177.11,-391.03 1234,-402.06 1322.89,-419.3 1419.53,-471.73 1456.95,-493.47"/>
<polygon fill="#9a32cd" stroke="#9a32cd" points="1062.57,-396.29 1053.04,-400.93 1063.38,-403.24 1062.57,-396.29"/>
<text text-anchor="middle" x="1161.5" y="-405.06" font-family="Helvetica,sans-Serif" font-size="10.00"> superElemParts_</text>
</g>
<!-- Node13&#45;&gt;Node12 -->
<g id="edge15" class="edge">
<title>Node13&#45;&gt;Node12</title>
<path fill="none" stroke="orange" stroke-dasharray="5,2" d="M202.03,-378.89C216.12,-385.31 233.64,-392.52 250,-397.06 321.82,-417.02 341.65,-415.72 416,-421.06 605.37,-434.68 830.55,-422.11 934.76,-414.66"/>
<polygon fill="orange" stroke="orange" points="203.42,-375.68 192.88,-374.61 200.46,-382.02 203.42,-375.68"/>
<text text-anchor="middle" x="493.5" y="-429.06" font-family="Helvetica,sans-Serif" font-size="10.00"> &lt; Part * &gt;</text>
</g>
<!-- Node15 -->
<g id="node15" class="node">
<title>Node15</title>
<g id="a_node15"><a xlink:title=" ">
<polygon fill="white" stroke="#bfbfbf" points="727,-352.06 727,-382.06 899,-382.06 899,-352.06 727,-352.06"/>
<text text-anchor="start" x="735" y="-370.06" font-family="Helvetica,sans-Serif" font-size="10.00">std::vector&lt; std::array</text>
<text text-anchor="middle" x="813" y="-359.06" font-family="Helvetica,sans-Serif" font-size="10.00">&lt; int, nodesInBaseElement &gt; &gt;</text>
</a>
</g>
</g>
<!-- Node13&#45;&gt;Node15 -->
<g id="edge23" class="edge">
<title>Node13&#45;&gt;Node15</title>
<path fill="none" stroke="orange" stroke-dasharray="5,2" d="M231.7,-373.33C280.64,-379.9 352.75,-388.55 416,-392.06 546.1,-399.3 579.47,-396.17 709,-382.06 714.84,-381.43 720.85,-380.71 726.91,-379.94"/>
<polygon fill="orange" stroke="orange" points="232,-369.83 221.62,-371.96 231.06,-376.77 232,-369.83"/>
<text text-anchor="start" x="429" y="-409.06" font-family="Helvetica,sans-Serif" font-size="10.00"> &lt; std::array&lt; int,</text>
<text text-anchor="middle" x="493.5" y="-398.06" font-family="Helvetica,sans-Serif" font-size="10.00"> nodesInBaseElement &gt; &gt;</text>
</g>
<!-- Node18 -->
<g id="node18" class="node">
<title>Node18</title>
<g id="a_node18"><a xlink:title=" ">
<polygon fill="white" stroke="#bfbfbf" points="750,-250.06 750,-280.06 876,-280.06 876,-250.06 750,-250.06"/>
<text text-anchor="start" x="758" y="-268.06" font-family="Helvetica,sans-Serif" font-size="10.00">std::vector&lt; std::array</text>
<text text-anchor="middle" x="813" y="-257.06" font-family="Helvetica,sans-Serif" font-size="10.00">&lt; int, dimension &gt; &gt;</text>
</a>
</g>
</g>
<!-- Node13&#45;&gt;Node18 -->
<g id="edge27" class="edge">
<title>Node13&#45;&gt;Node18</title>
<path fill="none" stroke="orange" stroke-dasharray="5,2" d="M196.93,-349.99C211.51,-341.18 231.14,-330.71 250,-325.06 446.35,-266.23 505.52,-304.84 709,-280.06 722.27,-278.45 736.48,-276.51 749.97,-274.58"/>
<polygon fill="orange" stroke="orange" points="194.77,-347.21 188.13,-355.47 198.47,-353.15 194.77,-347.21"/>
<text text-anchor="start" x="449.5" y="-305.06" font-family="Helvetica,sans-Serif" font-size="10.00"> &lt; std::array&lt; int,</text>
<text text-anchor="middle" x="493.5" y="-294.06" font-family="Helvetica,sans-Serif" font-size="10.00"> dimension &gt; &gt;</text>
</g>
<!-- Node20 -->
<g id="node20" class="node">
<title>Node20</title>
<g id="a_node20"><a xlink:title=" ">
<polygon fill="white" stroke="#bfbfbf" points="745,-200.06 745,-230.06 881,-230.06 881,-200.06 745,-200.06"/>
<text text-anchor="start" x="753" y="-218.06" font-family="Helvetica,sans-Serif" font-size="10.00">std::vector&lt; std::array</text>
<text text-anchor="middle" x="813" y="-207.06" font-family="Helvetica,sans-Serif" font-size="10.00">&lt; int, dimension &#45; 1 &gt; &gt;</text>
</a>
</g>
</g>
<!-- Node13&#45;&gt;Node20 -->
<g id="edge31" class="edge">
<title>Node13&#45;&gt;Node20</title>
<path fill="none" stroke="orange" stroke-dasharray="5,2" d="M178.51,-345.15C186.73,-314.08 207.38,-254.94 250,-229.06 291.3,-203.99 604.9,-209.33 744.89,-213.03"/>
<polygon fill="orange" stroke="orange" points="175.02,-344.67 176.03,-355.22 181.82,-346.35 175.02,-344.67"/>
<text text-anchor="start" x="447" y="-225.06" font-family="Helvetica,sans-Serif" font-size="10.00"> &lt; std::array&lt; int,</text>
<text text-anchor="middle" x="493.5" y="-214.06" font-family="Helvetica,sans-Serif" font-size="10.00"> dimension &#45; 1 &gt; &gt;</text>
</g>
<!-- Node22 -->
<g id="node22" class="node">
<title>Node22</title>
<g id="a_node22"><a xlink:title=" ">
<polygon fill="white" stroke="#bfbfbf" points="441.5,-109.56 441.5,-128.56 545.5,-128.56 545.5,-109.56 441.5,-109.56"/>
<text text-anchor="middle" x="493.5" y="-116.56" font-family="Helvetica,sans-Serif" font-size="10.00">std::vector&lt; int &gt;</text>
</a>
</g>
</g>
<!-- Node13&#45;&gt;Node22 -->
<g id="edge33" class="edge">
<title>Node13&#45;&gt;Node22</title>
<path fill="none" stroke="orange" stroke-dasharray="5,2" d="M183.62,-346.22C196.19,-321 218.21,-274.61 232,-233.06 243.21,-199.3 223.86,-179.2 250,-155.06 301.43,-107.56 386.9,-106.24 441.42,-111.37"/>
<polygon fill="orange" stroke="orange" points="180.39,-344.87 179.01,-355.38 186.64,-348.02 180.39,-344.87"/>
<text text-anchor="middle" x="324" y="-158.06" font-family="Helvetica,sans-Serif" font-size="10.00"> &lt; int &gt;</text>
</g>
<!-- Node14 -->
<g id="node14" class="node">
<title>Node14</title>
<g id="a_node14"><a xlink:href="structsierra_1_1nalu_1_1_hex_n_element_description.html" target="_top" xlink:title=" ">
<polygon fill="white" stroke="black" points="1089,-200.06 1089,-230.06 1234,-230.06 1234,-200.06 1089,-200.06"/>
<text text-anchor="start" x="1097" y="-218.06" font-family="Helvetica,sans-Serif" font-size="10.00">sierra::nalu::HexNElement</text>
<text text-anchor="middle" x="1161.5" y="-207.06" font-family="Helvetica,sans-Serif" font-size="10.00">Description</text>
</a>
</g>
</g>
<!-- Node14&#45;&gt;Node1 -->
<g id="edge18" class="edge">
<title>Node14&#45;&gt;Node1</title>
<path fill="none" stroke="#9a32cd" stroke-dasharray="5,2" d="M1195.48,-235.6C1237.94,-262.9 1312.81,-314.02 1368,-368.06 1411.07,-410.23 1451.86,-470.41 1466.9,-493.52"/>
<polygon fill="#9a32cd" stroke="#9a32cd" points="1197.25,-232.57 1186.93,-230.14 1193.48,-238.47 1197.25,-232.57"/>
<text text-anchor="middle" x="1310" y="-371.06" font-family="Helvetica,sans-Serif" font-size="10.00"> elem_</text>
</g>
<!-- Node15&#45;&gt;Node14 -->
<g id="edge19" class="edge">
<title>Node15&#45;&gt;Node14</title>
<path fill="none" stroke="#9a32cd" stroke-dasharray="5,2" d="M868.5,-348.63C921.25,-330.16 1002.98,-299.81 1071,-267.06 1093.99,-255.99 1119.01,-241.2 1136.74,-230.23"/>
<polygon fill="#9a32cd" stroke="#9a32cd" points="867.29,-345.35 859,-351.94 869.6,-351.96 867.29,-345.35"/>
<text text-anchor="middle" x="994" y="-333.06" font-family="Helvetica,sans-Serif" font-size="10.00"> subElementConnectivity</text>
</g>
<!-- Node16 -->
<g id="node16" class="node">
<title>Node16</title>
<g id="a_node16"><a xlink:title=" ">
<polygon fill="white" stroke="#bfbfbf" points="428,-352.06 428,-382.06 559,-382.06 559,-352.06 428,-352.06"/>
<text text-anchor="start" x="436" y="-370.06" font-family="Helvetica,sans-Serif" font-size="10.00">std::array&lt; int, nodesIn</text>
<text text-anchor="middle" x="493.5" y="-359.06" font-family="Helvetica,sans-Serif" font-size="10.00">BaseElement &gt;</text>
</a>
</g>
</g>
<!-- Node16&#45;&gt;Node15 -->
<g id="edge20" class="edge">
<title>Node16&#45;&gt;Node15</title>
<path fill="none" stroke="#9a32cd" stroke-dasharray="5,2" d="M569.31,-367.06C616.6,-367.06 677.83,-367.06 726.97,-367.06"/>
<polygon fill="#9a32cd" stroke="#9a32cd" points="569.13,-363.56 559.13,-367.06 569.13,-370.56 569.13,-363.56"/>
<text text-anchor="middle" x="649" y="-370.06" font-family="Helvetica,sans-Serif" font-size="10.00"> elements</text>
</g>
<!-- Node17&#45;&gt;Node16 -->
<g id="edge21" class="edge">
<title>Node17&#45;&gt;Node16</title>
<path fill="none" stroke="orange" stroke-dasharray="5,2" d="M195.52,-229.62C210.42,-240.04 230.93,-253.69 250,-264.06 317.51,-300.78 400.85,-333.66 450.17,-351.93"/>
<polygon fill="orange" stroke="orange" points="197.22,-226.53 187.04,-223.61 193.17,-232.25 197.22,-226.53"/>
<text text-anchor="middle" x="324" y="-332.06" font-family="Helvetica,sans-Serif" font-size="10.00"> &lt; int, nodesInBaseElement &gt;</text>
</g>
<!-- Node19 -->
<g id="node19" class="node">
<title>Node19</title>
<g id="a_node19"><a xlink:title=" ">
<polygon fill="white" stroke="#bfbfbf" points="416,-255.56 416,-274.56 571,-274.56 571,-255.56 416,-255.56"/>
<text text-anchor="middle" x="493.5" y="-262.56" font-family="Helvetica,sans-Serif" font-size="10.00">std::array&lt; int, dimension &gt;</text>
</a>
</g>
</g>
<!-- Node17&#45;&gt;Node19 -->
<g id="edge26" class="edge">
<title>Node17&#45;&gt;Node19</title>
<path fill="none" stroke="orange" stroke-dasharray="5,2" d="M229.19,-222.9C286.1,-232.01 374.54,-246.17 432.98,-255.53"/>
<polygon fill="orange" stroke="orange" points="229.72,-219.44 219.3,-221.32 228.62,-226.35 229.72,-219.44"/>
<text text-anchor="middle" x="324" y="-252.06" font-family="Helvetica,sans-Serif" font-size="10.00"> &lt; int, dimension &gt;</text>
</g>
<!-- Node21 -->
<g id="node21" class="node">
<title>Node21</title>
<g id="a_node21"><a xlink:title=" ">
<polygon fill="white" stroke="#bfbfbf" points="421.5,-148.06 421.5,-178.06 565.5,-178.06 565.5,-148.06 421.5,-148.06"/>
<text text-anchor="start" x="429.5" y="-166.06" font-family="Helvetica,sans-Serif" font-size="10.00">std::array&lt; int, dimension</text>
<text text-anchor="middle" x="493.5" y="-155.06" font-family="Helvetica,sans-Serif" font-size="10.00"> &#45; 1 &gt;</text>
</a>
</g>
</g>
<!-- Node17&#45;&gt;Node21 -->
<g id="edge30" class="edge">
<title>Node17&#45;&gt;Node21</title>
<path fill="none" stroke="orange" stroke-dasharray="5,2" d="M209.71,-201.21C222.3,-197.1 236.65,-192.89 250,-190.06 306.99,-178.01 372.71,-171.12 421.35,-167.32"/>
<polygon fill="orange" stroke="orange" points="208.41,-197.95 200.04,-204.45 210.64,-204.59 208.41,-197.95"/>
<text text-anchor="middle" x="324" y="-193.06" font-family="Helvetica,sans-Serif" font-size="10.00"> &lt; int, dimension &#45; 1 &gt;</text>
</g>
<!-- Node23 -->
<g id="node23" class="node">
<title>Node23</title>
<g id="a_node23"><a xlink:title=" ">
<polygon fill="white" stroke="#bfbfbf" points="750,-81.06 750,-111.06 876,-111.06 876,-81.06 750,-81.06"/>
<text text-anchor="start" x="758" y="-99.06" font-family="Helvetica,sans-Serif" font-size="10.00">std::array&lt; std::vector</text>
<text text-anchor="middle" x="813" y="-88.06" font-family="Helvetica,sans-Serif" font-size="10.00">&lt; int &gt;, numEdges &gt;</text>
</a>
</g>
</g>
<!-- Node17&#45;&gt;Node23 -->
<g id="edge36" class="edge">
<title>Node17&#45;&gt;Node23</title>
<path fill="none" stroke="orange" stroke-dasharray="5,2" d="M181.82,-194.89C193,-170.07 216.06,-127.45 250,-106.06 331.42,-54.75 621.02,-76.57 749.65,-89.29"/>
<polygon fill="orange" stroke="orange" points="178.49,-193.76 177.75,-204.33 184.92,-196.53 178.49,-193.76"/>
<text text-anchor="start" x="448" y="-91.06" font-family="Helvetica,sans-Serif" font-size="10.00"> &lt; std::vector&lt; int</text>
<text text-anchor="middle" x="493.5" y="-80.06" font-family="Helvetica,sans-Serif" font-size="10.00"> &gt;, numEdges &gt;</text>
</g>
<!-- Node24 -->
<g id="node24" class="node">
<title>Node24</title>
<g id="a_node24"><a xlink:title=" ">
<polygon fill="white" stroke="#bfbfbf" points="750,-29.06 750,-59.06 876,-59.06 876,-29.06 750,-29.06"/>
<text text-anchor="start" x="758" y="-47.06" font-family="Helvetica,sans-Serif" font-size="10.00">std::array&lt; std::vector</text>
<text text-anchor="middle" x="813" y="-36.06" font-family="Helvetica,sans-Serif" font-size="10.00">&lt; int &gt;, numFaces &gt;</text>
</a>
</g>
</g>
<!-- Node17&#45;&gt;Node24 -->
<g id="edge39" class="edge">
<title>Node17&#45;&gt;Node24</title>
<path fill="none" stroke="orange" stroke-dasharray="5,2" d="M178.38,-194.75C186.58,-163.39 207.4,-101.93 250,-72.06 405.18,36.74 647.91,-3.28 756.38,-29.05"/>
<polygon fill="orange" stroke="orange" points="174.98,-193.93 175.99,-204.48 181.77,-195.6 174.98,-193.93"/>
<text text-anchor="start" x="448" y="-22.06" font-family="Helvetica,sans-Serif" font-size="10.00"> &lt; std::vector&lt; int</text>
<text text-anchor="middle" x="493.5" y="-11.06" font-family="Helvetica,sans-Serif" font-size="10.00"> &gt;, numFaces &gt;</text>
</g>
<!-- Node18&#45;&gt;Node14 -->
<g id="edge24" class="edge">
<title>Node18&#45;&gt;Node14</title>
<path fill="none" stroke="#9a32cd" stroke-dasharray="5,2" d="M886.18,-255.83C937.73,-249.1 1008.71,-239.52 1071,-230.06 1076.76,-229.19 1082.73,-228.25 1088.72,-227.29"/>
<polygon fill="#9a32cd" stroke="#9a32cd" points="885.6,-252.38 876.13,-257.14 886.5,-259.32 885.6,-252.38"/>
<text text-anchor="middle" x="994" y="-255.06" font-family="Helvetica,sans-Serif" font-size="10.00"> inverseNodeMap</text>
</g>
<!-- Node19&#45;&gt;Node18 -->
<g id="edge25" class="edge">
<title>Node19&#45;&gt;Node18</title>
<path fill="none" stroke="#9a32cd" stroke-dasharray="5,2" d="M581.5,-265.06C634.86,-265.06 701.93,-265.06 749.94,-265.06"/>
<polygon fill="#9a32cd" stroke="#9a32cd" points="581.36,-261.56 571.36,-265.06 581.36,-268.56 581.36,-261.56"/>
<text text-anchor="middle" x="649" y="-268.06" font-family="Helvetica,sans-Serif" font-size="10.00"> elements</text>
</g>
<!-- Node20&#45;&gt;Node14 -->
<g id="edge28" class="edge">
<title>Node20&#45;&gt;Node14</title>
<path fill="none" stroke="#9a32cd" stroke-dasharray="5,2" d="M891.26,-215.06C950.39,-215.06 1031.34,-215.06 1088.99,-215.06"/>
<polygon fill="#9a32cd" stroke="#9a32cd" points="891.22,-211.56 881.22,-215.06 891.22,-218.56 891.22,-211.56"/>
<text text-anchor="middle" x="994" y="-218.06" font-family="Helvetica,sans-Serif" font-size="10.00"> inverseNodeMapBC</text>
</g>
<!-- Node21&#45;&gt;Node20 -->
<g id="edge29" class="edge">
<title>Node21&#45;&gt;Node20</title>
<path fill="none" stroke="#9a32cd" stroke-dasharray="5,2" d="M575.85,-171.11C616.08,-175.65 665.27,-182.03 709,-190.06 724.02,-192.82 740.13,-196.42 755.04,-200.02"/>
<polygon fill="#9a32cd" stroke="#9a32cd" points="576.15,-167.62 565.82,-170 575.37,-174.58 576.15,-167.62"/>
<text text-anchor="middle" x="649" y="-193.06" font-family="Helvetica,sans-Serif" font-size="10.00"> elements</text>
</g>
<!-- Node22&#45;&gt;Node14 -->
<g id="edge32" class="edge">
<title>Node22&#45;&gt;Node14</title>
<path fill="none" stroke="#9a32cd" stroke-dasharray="5,2" d="M555.62,-124.38C660.33,-133.55 866,-151.87 899,-157.06 969.63,-168.17 1049.75,-186.85 1102.48,-200.01"/>
<polygon fill="#9a32cd" stroke="#9a32cd" points="555.77,-120.88 545.5,-123.5 555.16,-127.85 555.77,-120.88"/>
<text text-anchor="middle" x="813" y="-182.06" font-family="Helvetica,sans-Serif" font-size="10.00"> nodeMap</text>
<text text-anchor="middle" x="813" y="-171.06" font-family="Helvetica,sans-Serif" font-size="10.00">nodeMapBC</text>
<text text-anchor="middle" x="813" y="-160.06" font-family="Helvetica,sans-Serif" font-size="10.00">volumeNodeConnectivities</text>
</g>
<!-- Node22&#45;&gt;Node23 -->
<g id="edge35" class="edge">
<title>Node22&#45;&gt;Node23</title>
<path fill="none" stroke="#9a32cd" stroke-dasharray="5,2" d="M555.63,-114.63C611.51,-110.59 693.77,-104.63 749.94,-100.56"/>
<polygon fill="#9a32cd" stroke="#9a32cd" points="555.23,-111.15 545.51,-115.37 555.74,-118.14 555.23,-111.15"/>
<text text-anchor="middle" x="649" y="-115.06" font-family="Helvetica,sans-Serif" font-size="10.00"> elements</text>
</g>
<!-- Node22&#45;&gt;Node24 -->
<g id="edge38" class="edge">
<title>Node22&#45;&gt;Node24</title>
<path fill="none" stroke="#9a32cd" stroke-dasharray="5,2" d="M534.31,-106.44C555.14,-99.91 578.45,-92.76 589,-90.06 642.81,-76.29 704.72,-63.78 749.64,-55.29"/>
<polygon fill="#9a32cd" stroke="#9a32cd" points="533.15,-103.13 524.66,-109.47 535.25,-109.81 533.15,-103.13"/>
<text text-anchor="middle" x="649" y="-93.06" font-family="Helvetica,sans-Serif" font-size="10.00"> elements</text>
</g>
<!-- Node23&#45;&gt;Node14 -->
<g id="edge34" class="edge">
<title>Node23&#45;&gt;Node14</title>
<path fill="none" stroke="#9a32cd" stroke-dasharray="5,2" d="M886.24,-90.82C939.83,-89.9 1013.27,-95.04 1071,-123.06 1106.88,-140.48 1136.34,-178.52 1150.82,-199.83"/>
<polygon fill="#9a32cd" stroke="#9a32cd" points="886.05,-87.33 876.14,-91.07 886.23,-94.33 886.05,-87.33"/>
<text text-anchor="middle" x="994" y="-126.06" font-family="Helvetica,sans-Serif" font-size="10.00"> edgeNodeConnectivities</text>
</g>
<!-- Node24&#45;&gt;Node14 -->
<g id="edge37" class="edge">
<title>Node24&#45;&gt;Node14</title>
<path fill="none" stroke="#9a32cd" stroke-dasharray="5,2" d="M886,-33.5C940.8,-29.21 1015.91,-31.71 1071,-66.06 1121.44,-97.52 1147.25,-168.8 1156.47,-199.98"/>
<polygon fill="#9a32cd" stroke="#9a32cd" points="885.67,-30.02 876.02,-34.38 886.28,-36.99 885.67,-30.02"/>
<text text-anchor="middle" x="994" y="-80.06" font-family="Helvetica,sans-Serif" font-size="10.00"> faceNodeConnectivities</text>
<text text-anchor="middle" x="994" y="-69.06" font-family="Helvetica,sans-Serif" font-size="10.00">sideOrdinalMap</text>
</g>
</g>
</svg>
