<?xml version="1.0" encoding="UTF-8" standalone="no"?>
<!DOCTYPE svg PUBLIC "-//W3C//DTD SVG 1.1//EN"
 "http://www.w3.org/Graphics/SVG/1.1/DTD/svg11.dtd">
<!-- Generated by graphviz version 2.43.0 (0)
 -->
<!-- Title: sierra::nalu::ChiConverter Pages: 1 -->
<!--zoomable 595 -->

<svg id="main" version="1.1" xmlns="http://www.w3.org/2000/svg" xmlns:xlink="http://www.w3.org/1999/xlink" xml:space="preserve" onload="init(evt)">
<style type="text/css"><![CDATA[
.node, .edge {opacity: 0.7;}
.node.selected, .edge.selected {opacity: 1;}
.edge:hover path { stroke: red; }
.edge:hover polygon { stroke: red; fill: red; }
]]></style>

<defs>
  <circle id="rim" cx="0" cy="0" r="7"/>
  <circle id="rim2" cx="0" cy="0" r="3.5"/>
  <g id="zoomPlus">
    <use xlink:href="#rim" fill="#404040"><set attributeName="fill" to="#808080" begin="zoomplus.mouseover" end="zoomplus.mouseout"/></use>
    <path d="M-4,0h8M0,-4v8" fill="none" stroke="white" stroke-width="1.5" pointer-events="none"/>
  </g>
  <g id="zoomMin">
    <use xlink:href="#rim" fill="#404040"><set attributeName="fill" to="#808080" begin="zoomminus.mouseover" end="zoomminus.mouseout"/></use>
    <path d="M-4,0h8" fill="none" stroke="white" stroke-width="1.5" pointer-events="none"/>
  </g>
  <g id="arrowUp" transform="translate(30 24)">
    <use xlink:href="#rim"/>
    <path pointer-events="none" fill="none" stroke="white" stroke-width="1.5" d="M0,-3.0v7 M-2.5,-0.5L0,-3.0L2.5,-0.5"/>
  </g>
  <g id="arrowRight" transform="rotate(90) translate(36 -43)">
    <use xlink:href="#rim"/>
    <path pointer-events="none" fill="none" stroke="white" stroke-width="1.5" d="M0,-3.0v7 M-2.5,-0.5L0,-3.0L2.5,-0.5"/>
  </g>
  <g id="arrowDown" transform="rotate(180) translate(-30 -48)">
    <use xlink:href="#rim"/>
    <path pointer-events="none" fill="none" stroke="white" stroke-width="1.5" d="M0,-3.0v7 M-2.5,-0.5L0,-3.0L2.5,-0.5"/>
  </g>
  <g id="arrowLeft" transform="rotate(270) translate(-36 17)">
    <use xlink:href="#rim"/>
    <path pointer-events="none" fill="none" stroke="white" stroke-width="1.5" d="M0,-3.0v7 M-2.5,-0.5L0,-3.0L2.5,-0.5"/>
  </g>
  <g id="resetDef">
    <use xlink:href="#rim2" fill="#404040"><set attributeName="fill" to="#808080" begin="reset.mouseover" end="reset.mouseout"/></use>
  </g>
</defs>
<script type="application/ecmascript">
var viewWidth = 1645;
var viewHeight = 595;
var sectionId = 'dynsection-1';
</script>
<script type="application/ecmascript" xlink:href="svg.min.js"/>
<svg id="graph" class="graph">
<g id="viewport">
<title>sierra::nalu::ChiConverter</title>
<!-- Node1 -->
<g id="Node000001" class="node">
<title>Node1</title>
<g id="a_Node000001"><a xlink:title="Calculates reference scalar dissipation rate.">
<polygon fill="#999999" stroke="#666666" points="1637,-44.43 1496,-44.43 1496,-25.43 1637,-25.43 1637,-44.43"/>
<text text-anchor="middle" x="1566.5" y="-32.43" font-family="Helvetica,sans-Serif" font-size="10.00">sierra::nalu::ChiConverter</text>
</a>
</g>
</g>
<!-- Node2 -->
<g id="Node000002" class="node">
<title>Node2</title>
<g id="a_Node000002"><a xlink:href="classsierra_1_1nalu_1_1_converter.html" target="_top" xlink:title="Provides arbitrary processing of input data before handing off values to a Table for interpolation.">
<polygon fill="white" stroke="#666666" points="849,-62.43 724,-62.43 724,-43.43 849,-43.43 849,-62.43"/>
<text text-anchor="middle" x="786.5" y="-50.43" font-family="Helvetica,sans-Serif" font-size="10.00">sierra::nalu::Converter</text>
</a>
</g>
</g>
<!-- Node2&#45;&gt;Node1 -->
<g id="edge1_Node000001_Node000002" class="edge">
<title>Node2&#45;&gt;Node1</title>
<g id="a_edge1_Node000001_Node000002"><a xlink:title=" ">
<path fill="none" stroke="#63b8ff" d="M859.59,-51.27C1008.59,-47.82 1348.81,-39.95 1495.77,-36.55"/>
<polygon fill="#63b8ff" stroke="#63b8ff" points="859.11,-47.78 849.2,-51.51 859.28,-54.77 859.11,-47.78"/>
</a>
</g>
</g>
<!-- Node10 -->
<g id="Node000010" class="node">
<title>Node10</title>
<g id="a_Node000010"><a xlink:title=" ">
<polygon fill="white" stroke="#666666" points="1142,-223.93 994,-223.93 994,-193.93 1142,-193.93 1142,-223.93"/>
<text text-anchor="start" x="1002" y="-211.93" font-family="Helvetica,sans-Serif" font-size="10.00">std::vector&lt; const</text>
<text text-anchor="middle" x="1068" y="-200.93" font-family="Helvetica,sans-Serif" font-size="10.00"> sierra::nalu::Converter * &gt;</text>
</a>
</g>
</g>
<!-- Node2&#45;&gt;Node10 -->
<g id="edge14_Node000010_Node000002" class="edge">
<title>Node2&#45;&gt;Node10</title>
<g id="a_edge14_Node000010_Node000002"><a xlink:title=" ">
<path fill="none" stroke="#9a32cd" stroke-dasharray="5,2" d="M795.78,-71.87C808.07,-97.64 833.67,-143.28 870,-166.93 871.38,-167.83 939.45,-182.24 995.18,-193.93"/>
<polygon fill="#9a32cd" stroke="#9a32cd" points="798.94,-70.38 791.59,-62.75 792.58,-73.3 798.94,-70.38"/>
</a>
</g>
<text text-anchor="middle" x="923" y="-192.93" font-family="Helvetica,sans-Serif" font-size="10.00" fill="grey"> elements</text>
</g>
<!-- Node3 -->
<g id="Node000003" class="node">
<title>Node3</title>
<g id="a_Node000003"><a xlink:title=" ">
<polygon fill="white" stroke="#666666" points="272,-71.43 207,-71.43 207,-52.43 272,-52.43 272,-71.43"/>
<text text-anchor="middle" x="239.5" y="-59.43" font-family="Helvetica,sans-Serif" font-size="10.00">std::string</text>
</a>
</g>
</g>
<!-- Node3&#45;&gt;Node2 -->
<g id="edge2_Node000002_Node000003" class="edge">
<title>Node3&#45;&gt;Node2</title>
<g id="a_edge2_Node000002_Node000003"><a xlink:title=" ">
<path fill="none" stroke="#9a32cd" stroke-dasharray="5,2" d="M282.17,-56.23C290.7,-55.28 299.63,-54.44 308,-53.93 457.16,-44.97 633,-48.13 724,-50.79"/>
<polygon fill="#9a32cd" stroke="#9a32cd" points="281.54,-52.78 272.03,-57.43 282.37,-59.73 281.54,-52.78"/>
</a>
</g>
<text text-anchor="middle" x="482" y="-63.93" font-family="Helvetica,sans-Serif" font-size="10.00" fill="grey"> converterType_</text>
<text text-anchor="middle" x="482" y="-52.93" font-family="Helvetica,sans-Serif" font-size="10.00" fill="grey">name_</text>
</g>
<!-- Node5 -->
<g id="Node000005" class="node">
<title>Node5</title>
<g id="a_Node000005"><a xlink:title=" ">
<polygon fill="white" stroke="#666666" points="552,-104.43 412,-104.43 412,-85.43 552,-85.43 552,-104.43"/>
<text text-anchor="middle" x="482" y="-92.43" font-family="Helvetica,sans-Serif" font-size="10.00">std::vector&lt; std::string &gt;</text>
</a>
</g>
</g>
<!-- Node3&#45;&gt;Node5 -->
<g id="edge5_Node000005_Node000003" class="edge">
<title>Node3&#45;&gt;Node5</title>
<g id="a_edge5_Node000005_Node000003"><a xlink:title=" ">
<path fill="none" stroke="#9a32cd" stroke-dasharray="5,2" d="M282.29,-58.35C313.36,-56.61 356.66,-56.16 394,-62.93 417.91,-67.27 443.88,-77.63 461.17,-85.39"/>
<polygon fill="#9a32cd" stroke="#9a32cd" points="282.01,-54.86 272.25,-58.98 282.45,-61.84 282.01,-54.86"/>
</a>
</g>
<text text-anchor="middle" x="351" y="-65.93" font-family="Helvetica,sans-Serif" font-size="10.00" fill="grey"> elements</text>
</g>
<!-- Node8 -->
<g id="Node000008" class="node">
<title>Node8</title>
<g id="a_Node000008"><a xlink:href="classsierra_1_1nalu_1_1_h_d_f5_table.html" target="_top" xlink:title="Object to manage property evaluation as a function of a set of input chemical state variables.">
<polygon fill="white" stroke="#666666" points="1379,-284.43 1249,-284.43 1249,-265.43 1379,-265.43 1379,-284.43"/>
<text text-anchor="middle" x="1314" y="-272.43" font-family="Helvetica,sans-Serif" font-size="10.00">sierra::nalu::HDF5Table</text>
</a>
</g>
</g>
<!-- Node3&#45;&gt;Node8 -->
<g id="edge11_Node000008_Node000003" class="edge">
<title>Node3&#45;&gt;Node8</title>
<g id="a_edge11_Node000008_Node000003"><a xlink:title=" ">
<path fill="none" stroke="#9a32cd" stroke-dasharray="5,2" d="M282.16,-51.57C381.45,-28.39 639.58,22.99 852,-11.93 1029.5,-41.11 1095.43,-35.71 1231,-153.93 1269.44,-187.46 1298.07,-242.93 1308.59,-265.22"/>
<polygon fill="#9a32cd" stroke="#9a32cd" points="281.15,-48.21 272.23,-53.92 282.76,-55.03 281.15,-48.21"/>
</a>
</g>
<text text-anchor="middle" x="786.5" y="-25.93" font-family="Helvetica,sans-Serif" font-size="10.00" fill="grey"> name_</text>
<text text-anchor="middle" x="786.5" y="-14.93" font-family="Helvetica,sans-Serif" font-size="10.00" fill="grey">tablePropName_</text>
</g>
<!-- Node9 -->
<g id="Node000009" class="node">
<title>Node9</title>
<g id="a_Node000009"><a xlink:href="classsierra_1_1nalu_1_1_h5_i_o.html" target="_top" xlink:title="Simple wrapper around the HDF5 library to make usage easier.">
<polygon fill="white" stroke="#666666" points="687,-229.43 586,-229.43 586,-210.43 687,-210.43 687,-229.43"/>
<text text-anchor="middle" x="636.5" y="-217.43" font-family="Helvetica,sans-Serif" font-size="10.00">sierra::nalu::H5IO</text>
</a>
</g>
</g>
<!-- Node3&#45;&gt;Node9 -->
<g id="edge10_Node000009_Node000003" class="edge">
<title>Node3&#45;&gt;Node9</title>
<g id="a_edge10_Node000009_Node000003"><a xlink:title=" ">
<path fill="none" stroke="#9a32cd" stroke-dasharray="5,2" d="M243.9,-81.59C250.37,-112.3 267.58,-170.95 308,-197.93 352.2,-227.44 505.81,-225.63 585.96,-222.47"/>
<polygon fill="#9a32cd" stroke="#9a32cd" points="247.32,-80.8 241.98,-71.64 240.44,-82.13 247.32,-80.8"/>
</a>
</g>
<text text-anchor="middle" x="351" y="-233.93" font-family="Helvetica,sans-Serif" font-size="10.00" fill="grey"> fileName_</text>
<text text-anchor="middle" x="351" y="-222.93" font-family="Helvetica,sans-Serif" font-size="10.00" fill="grey">groupName_</text>
</g>
<!-- Node15 -->
<g id="Node000015" class="node">
<title>Node15</title>
<g id="a_Node000015"><a xlink:title=" ">
<polygon fill="white" stroke="#666666" points="543,-169.93 421,-169.93 421,-139.93 543,-139.93 543,-169.93"/>
<text text-anchor="start" x="429" y="-157.93" font-family="Helvetica,sans-Serif" font-size="10.00">std::map&lt; std::string,</text>
<text text-anchor="middle" x="482" y="-146.93" font-family="Helvetica,sans-Serif" font-size="10.00"> std::string &gt;</text>
</a>
</g>
</g>
<!-- Node3&#45;&gt;Node15 -->
<g id="edge27_Node000015_Node000003" class="edge">
<title>Node3&#45;&gt;Node15</title>
<g id="a_edge27_Node000015_Node000003"><a xlink:title=" ">
<path fill="none" stroke="#9a32cd" stroke-dasharray="5,2" d="M260.33,-78.09C273.24,-87.92 290.82,-100.06 308,-107.93 343.97,-124.42 355.82,-120.56 394,-130.93 404.58,-133.81 415.89,-136.91 426.72,-139.89"/>
<polygon fill="#9a32cd" stroke="#9a32cd" points="262.23,-75.13 252.2,-71.73 257.92,-80.65 262.23,-75.13"/>
</a>
</g>
<text text-anchor="middle" x="351" y="-144.93" font-family="Helvetica,sans-Serif" font-size="10.00" fill="grey"> elements</text>
<text text-anchor="middle" x="351" y="-133.93" font-family="Helvetica,sans-Serif" font-size="10.00" fill="grey">keys</text>
</g>
<!-- Node4 -->
<g id="Node000004" class="node">
<title>Node4</title>
<g id="a_Node000004"><a xlink:title=" ">
<polygon fill="white" stroke="#666666" points="104,-76.93 0,-76.93 0,-46.93 104,-46.93 104,-76.93"/>
<text text-anchor="start" x="8" y="-64.93" font-family="Helvetica,sans-Serif" font-size="10.00">std::basic_string&lt;</text>
<text text-anchor="middle" x="52" y="-53.93" font-family="Helvetica,sans-Serif" font-size="10.00"> Char &gt;</text>
</a>
</g>
</g>
<!-- Node4&#45;&gt;Node3 -->
<g id="edge3_Node000003_Node000004" class="edge">
<title>Node4&#45;&gt;Node3</title>
<g id="a_edge3_Node000003_Node000004"><a xlink:title=" ">
<path fill="none" stroke="#63b8ff" d="M114.46,-61.93C145.44,-61.93 181.69,-61.93 206.98,-61.93"/>
<polygon fill="#63b8ff" stroke="#63b8ff" points="114.18,-58.43 104.18,-61.93 114.18,-65.43 114.18,-58.43"/>
</a>
</g>
</g>
<!-- Node5&#45;&gt;Node2 -->
<g id="edge4_Node000002_Node000005" class="edge">
<title>Node5&#45;&gt;Node2</title>
<g id="a_edge4_Node000002_Node000005"><a xlink:title=" ">
<path fill="none" stroke="#9a32cd" stroke-dasharray="5,2" d="M527.89,-82.83C541.35,-79.55 556.2,-76.26 570,-73.93 621.52,-65.25 680.63,-59.8 723.89,-56.64"/>
<polygon fill="#9a32cd" stroke="#9a32cd" points="526.76,-79.51 517.9,-85.33 528.45,-86.3 526.76,-79.51"/>
</a>
</g>
<text text-anchor="middle" x="636.5" y="-76.93" font-family="Helvetica,sans-Serif" font-size="10.00" fill="grey"> inputNames_</text>
</g>
<!-- Node5&#45;&gt;Node8 -->
<g id="edge12_Node000008_Node000005" class="edge">
<title>Node5&#45;&gt;Node8</title>
<g id="a_edge12_Node000008_Node000005"><a xlink:title=" ">
<path fill="none" stroke="#9a32cd" stroke-dasharray="5,2" d="M562.48,-92.42C660.29,-90.49 831.19,-90.93 976,-110.93 1051.28,-121.33 1069.37,-129.58 1142,-151.93 1182.32,-164.34 1196.03,-161.34 1231,-184.93 1264.82,-207.75 1294.25,-247.32 1306.69,-265.41"/>
<polygon fill="#9a32cd" stroke="#9a32cd" points="562.3,-88.92 552.38,-92.63 562.45,-95.92 562.3,-88.92"/>
</a>
</g>
<text text-anchor="start" x="870" y="-135.93" font-family="Helvetica,sans-Serif" font-size="10.00" fill="grey"> indVarTableNameVec</text>
<text text-anchor="middle" x="923" y="-124.93" font-family="Helvetica,sans-Serif" font-size="10.00" fill="grey">_</text>
<text text-anchor="middle" x="923" y="-113.93" font-family="Helvetica,sans-Serif" font-size="10.00" fill="grey">inputNames_</text>
</g>
<!-- Node6 -->
<g id="Node000006" class="node">
<title>Node6</title>
<g id="a_Node000006"><a xlink:title=" ">
<polygon fill="white" stroke="#666666" points="288,-338.43 191,-338.43 191,-319.43 288,-319.43 288,-338.43"/>
<text text-anchor="middle" x="239.5" y="-326.43" font-family="Helvetica,sans-Serif" font-size="10.00">std::vector&lt; T &gt;</text>
</a>
</g>
</g>
<!-- Node6&#45;&gt;Node5 -->
<g id="edge6_Node000005_Node000006" class="edge">
<title>Node6&#45;&gt;Node5</title>
<g id="a_edge6_Node000005_Node000006"><a xlink:title=" ">
<path fill="none" stroke="orange" stroke-dasharray="5,2" d="M288.49,-312.75C289.02,-312.16 289.52,-311.56 290,-310.93 319.25,-272.66 272.56,-127.55 308,-94.93 322.92,-81.21 370.21,-81.96 411.59,-85.73"/>
<polygon fill="orange" stroke="orange" points="286.13,-310.16 280.62,-319.21 290.57,-315.57 286.13,-310.16"/>
</a>
</g>
<text text-anchor="middle" x="351" y="-97.93" font-family="Helvetica,sans-Serif" font-size="10.00" fill="grey"> &lt; std::string &gt;</text>
</g>
<!-- Node6&#45;&gt;Node10 -->
<g id="edge15_Node000010_Node000006" class="edge">
<title>Node6&#45;&gt;Node10</title>
<g id="a_edge15_Node000010_Node000006"><a xlink:title=" ">
<path fill="none" stroke="orange" stroke-dasharray="5,2" d="M298.1,-317.67C301.45,-317.07 304.76,-316.49 308,-315.93 556.76,-273.48 619.94,-268.94 870,-234.93 910.85,-229.38 956.49,-223.34 993.54,-218.49"/>
<polygon fill="orange" stroke="orange" points="297.23,-314.27 288.03,-319.52 298.49,-321.16 297.23,-314.27"/>
</a>
</g>
<text text-anchor="start" x="587" y="-287.93" font-family="Helvetica,sans-Serif" font-size="10.00" fill="grey"> &lt; const sierra::nalu</text>
<text text-anchor="middle" x="636.5" y="-276.93" font-family="Helvetica,sans-Serif" font-size="10.00" fill="grey">::Converter * &gt;</text>
</g>
<!-- Node11 -->
<g id="Node000011" class="node">
<title>Node11</title>
<g id="a_Node000011"><a xlink:title=" ">
<polygon fill="white" stroke="#666666" points="544,-459.93 420,-459.93 420,-429.93 544,-429.93 544,-459.93"/>
<text text-anchor="start" x="428" y="-447.93" font-family="Helvetica,sans-Serif" font-size="10.00">std::vector&lt; unsigned</text>
<text text-anchor="middle" x="482" y="-436.93" font-family="Helvetica,sans-Serif" font-size="10.00"> int &gt;</text>
</a>
</g>
</g>
<!-- Node6&#45;&gt;Node11 -->
<g id="edge17_Node000011_Node000006" class="edge">
<title>Node6&#45;&gt;Node11</title>
<g id="a_edge17_Node000011_Node000006"><a xlink:title=" ">
<path fill="none" stroke="orange" stroke-dasharray="5,2" d="M269.63,-342.98C315.14,-364.93 402.72,-407.18 449.59,-429.78"/>
<polygon fill="orange" stroke="orange" points="271.12,-339.82 260.59,-338.62 268.08,-346.12 271.12,-339.82"/>
</a>
</g>
<text text-anchor="middle" x="351" y="-402.93" font-family="Helvetica,sans-Serif" font-size="10.00" fill="grey"> &lt; unsigned int &gt;</text>
</g>
<!-- Node12 -->
<g id="Node000012" class="node">
<title>Node12</title>
<g id="a_Node000012"><a xlink:title=" ">
<polygon fill="white" stroke="#666666" points="852,-540.93 721,-540.93 721,-510.93 852,-510.93 852,-540.93"/>
<text text-anchor="start" x="729" y="-528.93" font-family="Helvetica,sans-Serif" font-size="10.00">std::vector&lt; std::vector</text>
<text text-anchor="middle" x="786.5" y="-517.93" font-family="Helvetica,sans-Serif" font-size="10.00">&lt; unsigned int &gt; &gt;</text>
</a>
</g>
</g>
<!-- Node6&#45;&gt;Node12 -->
<g id="edge20_Node000012_Node000006" class="edge">
<title>Node6&#45;&gt;Node12</title>
<g id="a_edge20_Node000012_Node000006"><a xlink:title=" ">
<path fill="none" stroke="orange" stroke-dasharray="5,2" d="M251.42,-347.08C263.45,-365.89 284.25,-395.25 308,-414.93 348.1,-448.17 362.89,-451.6 412,-468.93 516.22,-505.73 645.06,-518.78 720.95,-523.4"/>
<polygon fill="orange" stroke="orange" points="254.37,-345.18 246.11,-338.55 248.43,-348.88 254.37,-345.18"/>
</a>
</g>
<text text-anchor="start" x="421" y="-517.93" font-family="Helvetica,sans-Serif" font-size="10.00" fill="grey"> &lt; std::vector&lt; unsigned</text>
<text text-anchor="middle" x="482" y="-506.93" font-family="Helvetica,sans-Serif" font-size="10.00" fill="grey"> int &gt; &gt;</text>
</g>
<!-- Node13 -->
<g id="Node000013" class="node">
<title>Node13</title>
<g id="a_Node000013"><a xlink:title=" ">
<polygon fill="white" stroke="#666666" points="544,-360.43 420,-360.43 420,-341.43 544,-341.43 544,-360.43"/>
<text text-anchor="middle" x="482" y="-348.43" font-family="Helvetica,sans-Serif" font-size="10.00">std::vector&lt; double &gt;</text>
</a>
</g>
</g>
<!-- Node6&#45;&gt;Node13 -->
<g id="edge22_Node000013_Node000006" class="edge">
<title>Node6&#45;&gt;Node13</title>
<g id="a_edge22_Node000013_Node000006"><a xlink:title=" ">
<path fill="none" stroke="orange" stroke-dasharray="5,2" d="M298.08,-334.2C334.84,-337.56 382.44,-341.92 419.87,-345.34"/>
<polygon fill="orange" stroke="orange" points="298.29,-330.71 288.02,-333.28 297.65,-337.68 298.29,-330.71"/>
</a>
</g>
<text text-anchor="middle" x="351" y="-344.93" font-family="Helvetica,sans-Serif" font-size="10.00" fill="grey"> &lt; double &gt;</text>
</g>
<!-- Node14 -->
<g id="Node000014" class="node">
<title>Node14</title>
<g id="a_Node000014"><a xlink:title=" ">
<polygon fill="white" stroke="#666666" points="852,-312.93 721,-312.93 721,-282.93 852,-282.93 852,-312.93"/>
<text text-anchor="start" x="729" y="-300.93" font-family="Helvetica,sans-Serif" font-size="10.00">std::vector&lt; std::vector</text>
<text text-anchor="middle" x="786.5" y="-289.93" font-family="Helvetica,sans-Serif" font-size="10.00">&lt; double &gt; &gt;</text>
</a>
</g>
</g>
<!-- Node6&#45;&gt;Node14 -->
<g id="edge25_Node000014_Node000006" class="edge">
<title>Node6&#45;&gt;Node14</title>
<g id="a_edge25_Node000014_Node000006"><a xlink:title=" ">
<path fill="none" stroke="orange" stroke-dasharray="5,2" d="M298.56,-325.63C401.17,-319.79 613.82,-307.7 720.91,-301.61"/>
<polygon fill="orange" stroke="orange" points="298.17,-322.15 288.39,-326.21 298.57,-329.14 298.17,-322.15"/>
</a>
</g>
<text text-anchor="middle" x="482" y="-321.93" font-family="Helvetica,sans-Serif" font-size="10.00" fill="grey"> &lt; std::vector&lt; double &gt; &gt;</text>
</g>
<!-- Node7 -->
<g id="Node000007" class="node">
<title>Node7</title>
<g id="a_Node000007"><a xlink:title=" ">
<polygon fill="white" stroke="#666666" points="66.5,-332.43 37.5,-332.43 37.5,-313.43 66.5,-313.43 66.5,-332.43"/>
<text text-anchor="middle" x="52" y="-320.43" font-family="Helvetica,sans-Serif" font-size="10.00">T</text>
</a>
</g>
</g>
<!-- Node7&#45;&gt;Node6 -->
<g id="edge7_Node000006_Node000007" class="edge">
<title>Node7&#45;&gt;Node6</title>
<g id="a_edge7_Node000006_Node000007"><a xlink:title=" ">
<path fill="none" stroke="#9a32cd" stroke-dasharray="5,2" d="M76.91,-323.71C105.54,-324.63 154.21,-326.21 190.67,-327.39"/>
<polygon fill="#9a32cd" stroke="#9a32cd" points="76.75,-320.2 66.64,-323.37 76.52,-327.2 76.75,-320.2"/>
</a>
</g>
<text text-anchor="middle" x="146.5" y="-328.93" font-family="Helvetica,sans-Serif" font-size="10.00" fill="grey"> elements</text>
</g>
<!-- Node16 -->
<g id="Node000016" class="node">
<title>Node16</title>
<g id="a_Node000016"><a xlink:title=" ">
<polygon fill="white" stroke="#666666" points="290,-301.43 189,-301.43 189,-282.43 290,-282.43 290,-301.43"/>
<text text-anchor="middle" x="239.5" y="-289.43" font-family="Helvetica,sans-Serif" font-size="10.00">std::map&lt; K, T &gt;</text>
</a>
</g>
</g>
<!-- Node7&#45;&gt;Node16 -->
<g id="edge30_Node000016_Node000007" class="edge">
<title>Node7&#45;&gt;Node16</title>
<g id="a_edge30_Node000016_Node000007"><a xlink:title=" ">
<path fill="none" stroke="#9a32cd" stroke-dasharray="5,2" d="M76.91,-318.23C90.18,-315.67 106.98,-312.51 122,-309.93 143.89,-306.18 168.15,-302.38 188.84,-299.24"/>
<polygon fill="#9a32cd" stroke="#9a32cd" points="75.87,-314.86 66.72,-320.21 77.21,-321.74 75.87,-314.86"/>
</a>
</g>
<text text-anchor="middle" x="146.5" y="-312.93" font-family="Helvetica,sans-Serif" font-size="10.00" fill="grey"> elements</text>
</g>
<!-- Node8&#45;&gt;Node1 -->
<g id="edge8_Node000001_Node000008" class="edge">
<title>Node8&#45;&gt;Node1</title>
<g id="a_edge8_Node000001_Node000008"><a xlink:title=" ">
<path fill="none" stroke="#9a32cd" stroke-dasharray="5,2" d="M1332.41,-258.25C1381.08,-211.63 1517.45,-80.97 1555.52,-44.5"/>
<polygon fill="#9a32cd" stroke="#9a32cd" points="1329.93,-255.78 1325.13,-265.23 1334.77,-260.84 1329.93,-255.78"/>
</a>
</g>
<text text-anchor="middle" x="1437.5" y="-193.93" font-family="Helvetica,sans-Serif" font-size="10.00" fill="grey"> fChiMeanTable_</text>
</g>
<!-- Node9&#45;&gt;Node8 -->
<g id="edge9_Node000008_Node000009" class="edge">
<title>Node9&#45;&gt;Node8</title>
<g id="a_edge9_Node000008_Node000009"><a xlink:title=" ">
<path fill="none" stroke="#9a32cd" stroke-dasharray="5,2" d="M697.46,-224.81C824.19,-235.13 1118.33,-259.08 1248.75,-269.7"/>
<polygon fill="#9a32cd" stroke="#9a32cd" points="697.42,-221.3 687.17,-223.98 696.85,-228.28 697.42,-221.3"/>
</a>
</g>
<text text-anchor="middle" x="923" y="-249.93" font-family="Helvetica,sans-Serif" font-size="10.00" fill="grey"> fileIO_</text>
</g>
<!-- Node10&#45;&gt;Node8 -->
<g id="edge13_Node000008_Node000010" class="edge">
<title>Node10&#45;&gt;Node8</title>
<g id="a_edge13_Node000008_Node000010"><a xlink:title=" ">
<path fill="none" stroke="#9a32cd" stroke-dasharray="5,2" d="M1152.27,-211.49C1177.99,-214.04 1206.1,-218.68 1231,-226.93 1257.62,-235.76 1285.04,-254.03 1300.47,-265.31"/>
<polygon fill="#9a32cd" stroke="#9a32cd" points="1152.43,-207.99 1142.16,-210.57 1151.8,-214.96 1152.43,-207.99"/>
</a>
</g>
<text text-anchor="middle" x="1195.5" y="-229.93" font-family="Helvetica,sans-Serif" font-size="10.00" fill="grey"> converters_</text>
</g>
<!-- Node11&#45;&gt;Node8 -->
<g id="edge16_Node000008_Node000011" class="edge">
<title>Node11&#45;&gt;Node8</title>
<g id="a_edge16_Node000008_Node000011"><a xlink:title=" ">
<path fill="none" stroke="#9a32cd" stroke-dasharray="5,2" d="M554.56,-449.36C651.48,-453.58 829.22,-454.98 976,-420.93 1106.44,-390.67 1249.65,-311.81 1296.9,-284.45"/>
<polygon fill="#9a32cd" stroke="#9a32cd" points="554.44,-445.85 544.29,-448.89 554.12,-452.85 554.44,-445.85"/>
</a>
</g>
<text text-anchor="middle" x="923" y="-473.93" font-family="Helvetica,sans-Serif" font-size="10.00" fill="grey"> convTableIndex_</text>
<text text-anchor="middle" x="923" y="-462.93" font-family="Helvetica,sans-Serif" font-size="10.00" fill="grey">directInputIndex_</text>
<text text-anchor="middle" x="923" y="-451.93" font-family="Helvetica,sans-Serif" font-size="10.00" fill="grey">indexIndVar_</text>
<text text-anchor="middle" x="923" y="-440.93" font-family="Helvetica,sans-Serif" font-size="10.00" fill="grey">inputLogScale_</text>
</g>
<!-- Node11&#45;&gt;Node12 -->
<g id="edge19_Node000012_Node000011" class="edge">
<title>Node11&#45;&gt;Node12</title>
<g id="a_edge19_Node000012_Node000011"><a xlink:title=" ">
<path fill="none" stroke="#9a32cd" stroke-dasharray="5,2" d="M554.28,-456.46C607.91,-465.7 676.55,-478.91 703,-489.93 711.87,-493.63 712.44,-497.56 721,-501.93 727.28,-505.14 734.09,-508.14 740.85,-510.86"/>
<polygon fill="#9a32cd" stroke="#9a32cd" points="554.55,-452.96 544.11,-454.72 553.38,-459.86 554.55,-452.96"/>
</a>
</g>
<text text-anchor="middle" x="636.5" y="-492.93" font-family="Helvetica,sans-Serif" font-size="10.00" fill="grey"> elements</text>
</g>
<!-- Node12&#45;&gt;Node8 -->
<g id="edge18_Node000008_Node000012" class="edge">
<title>Node12&#45;&gt;Node8</title>
<g id="a_edge18_Node000008_Node000012"><a xlink:title=" ">
<path fill="none" stroke="#9a32cd" stroke-dasharray="5,2" d="M850.57,-543.31C945.4,-565.25 1124.88,-589.95 1231,-497.93 1298.63,-439.29 1310.52,-319.83 1312.58,-284.8"/>
<polygon fill="#9a32cd" stroke="#9a32cd" points="851.36,-539.9 840.82,-540.99 849.75,-546.71 851.36,-539.9"/>
</a>
</g>
<text text-anchor="middle" x="1068" y="-565.93" font-family="Helvetica,sans-Serif" font-size="10.00" fill="grey"> convInputIndex_</text>
</g>
<!-- Node13&#45;&gt;Node8 -->
<g id="edge21_Node000008_Node000013" class="edge">
<title>Node13&#45;&gt;Node8</title>
<g id="a_edge21_Node000008_Node000013"><a xlink:title=" ">
<path fill="none" stroke="#9a32cd" stroke-dasharray="5,2" d="M554.31,-348.88C597.39,-347.42 653.38,-345.15 703,-341.93 898.47,-329.26 947,-321.45 1142,-302.93 1181.58,-299.17 1191.78,-300.43 1231,-293.93 1245.99,-291.45 1262.34,-287.85 1276.46,-284.45"/>
<polygon fill="#9a32cd" stroke="#9a32cd" points="554.09,-345.38 544.21,-349.21 554.32,-352.38 554.09,-345.38"/>
</a>
</g>
<text text-anchor="middle" x="923" y="-408.93" font-family="Helvetica,sans-Serif" font-size="10.00" fill="grey"> converterBuf_</text>
<text text-anchor="middle" x="923" y="-397.93" font-family="Helvetica,sans-Serif" font-size="10.00" fill="grey">inputMax_</text>
<text text-anchor="middle" x="923" y="-386.93" font-family="Helvetica,sans-Serif" font-size="10.00" fill="grey">inputMin_</text>
<text text-anchor="start" x="871.5" y="-375.93" font-family="Helvetica,sans-Serif" font-size="10.00" fill="grey">lookupBufferChecked</text>
<text text-anchor="middle" x="923" y="-364.93" font-family="Helvetica,sans-Serif" font-size="10.00" fill="grey">_</text>
<text text-anchor="middle" x="923" y="-353.93" font-family="Helvetica,sans-Serif" font-size="10.00" fill="grey">lookupBuffer_</text>
<text text-anchor="middle" x="923" y="-342.93" font-family="Helvetica,sans-Serif" font-size="10.00" fill="grey">meshMax_</text>
<text text-anchor="middle" x="923" y="-331.93" font-family="Helvetica,sans-Serif" font-size="10.00" fill="grey">meshMin_</text>
</g>
<!-- Node13&#45;&gt;Node14 -->
<g id="edge24_Node000014_Node000013" class="edge">
<title>Node13&#45;&gt;Node14</title>
<g id="a_edge24_Node000014_Node000013"><a xlink:title=" ">
<path fill="none" stroke="#9a32cd" stroke-dasharray="5,2" d="M531.61,-339.09C544.09,-336.23 557.51,-333.32 570,-330.93 620.37,-321.3 677.79,-312.62 720.69,-306.58"/>
<polygon fill="#9a32cd" stroke="#9a32cd" points="530.8,-335.69 521.85,-341.36 532.38,-342.5 530.8,-335.69"/>
</a>
</g>
<text text-anchor="middle" x="636.5" y="-333.93" font-family="Helvetica,sans-Serif" font-size="10.00" fill="grey"> elements</text>
</g>
<!-- Node20 -->
<g id="Node000020" class="node">
<title>Node20</title>
<g id="a_Node000020"><a xlink:href="structsierra_1_1nalu_1_1_clip_event.html" target="_top" xlink:title=" ">
<polygon fill="white" stroke="#666666" points="848.5,-492.43 724.5,-492.43 724.5,-473.43 848.5,-473.43 848.5,-492.43"/>
<text text-anchor="middle" x="786.5" y="-480.43" font-family="Helvetica,sans-Serif" font-size="10.00">sierra::nalu::ClipEvent</text>
</a>
</g>
</g>
<!-- Node13&#45;&gt;Node20 -->
<g id="edge34_Node000020_Node000013" class="edge">
<title>Node13&#45;&gt;Node20</title>
<g id="a_edge34_Node000020_Node000013"><a xlink:title=" ">
<path fill="none" stroke="#9a32cd" stroke-dasharray="5,2" d="M515.27,-364.39C558.26,-382.39 636.61,-415.47 703,-444.93 724.33,-454.4 748.57,-465.62 765.23,-473.41"/>
<polygon fill="#9a32cd" stroke="#9a32cd" points="516.47,-361.1 505.89,-360.47 513.77,-367.56 516.47,-361.1"/>
</a>
</g>
<text text-anchor="middle" x="636.5" y="-447.93" font-family="Helvetica,sans-Serif" font-size="10.00" fill="grey"> values</text>
</g>
<!-- Node14&#45;&gt;Node8 -->
<g id="edge23_Node000008_Node000014" class="edge">
<title>Node14&#45;&gt;Node8</title>
<g id="a_edge23_Node000008_Node000014"><a xlink:title=" ">
<path fill="none" stroke="#9a32cd" stroke-dasharray="5,2" d="M862.27,-294.66C965.88,-290.13 1151.34,-282.01 1248.93,-277.74"/>
<polygon fill="#9a32cd" stroke="#9a32cd" points="862.04,-291.17 852.2,-295.1 862.34,-298.16 862.04,-291.17"/>
</a>
</g>
<text text-anchor="middle" x="1068" y="-290.93" font-family="Helvetica,sans-Serif" font-size="10.00" fill="grey"> mesh_</text>
</g>
<!-- Node15&#45;&gt;Node8 -->
<g id="edge26_Node000008_Node000015" class="edge">
<title>Node15&#45;&gt;Node8</title>
<g id="a_edge26_Node000008_Node000015"><a xlink:title=" ">
<path fill="none" stroke="#9a32cd" stroke-dasharray="5,2" d="M553.26,-150.64C649.06,-145.73 825.93,-140.04 976,-153.93 1050.73,-160.85 1068.82,-168.26 1142,-184.93 1181.94,-194.03 1194.48,-190.36 1231,-208.93 1260.64,-224.01 1289.58,-251.01 1303.84,-265.36"/>
<polygon fill="#9a32cd" stroke="#9a32cd" points="552.92,-147.15 543.12,-151.17 553.29,-154.14 552.92,-147.15"/>
</a>
</g>
<text text-anchor="middle" x="923" y="-156.93" font-family="Helvetica,sans-Serif" font-size="10.00" fill="grey"> attributes_</text>
</g>
<!-- Node16&#45;&gt;Node15 -->
<g id="edge28_Node000015_Node000016" class="edge">
<title>Node16&#45;&gt;Node15</title>
<g id="a_edge28_Node000015_Node000016"><a xlink:title=" ">
<path fill="none" stroke="orange" stroke-dasharray="5,2" d="M245.77,-272.73C254.17,-246.13 273.28,-198.8 308,-175.93 326.13,-163.99 378.29,-158.84 420.64,-156.62"/>
<polygon fill="orange" stroke="orange" points="242.39,-271.84 242.9,-282.42 249.1,-273.83 242.39,-271.84"/>
</a>
</g>
<text text-anchor="start" x="308.5" y="-189.93" font-family="Helvetica,sans-Serif" font-size="10.00" fill="grey"> &lt; std::string, std</text>
<text text-anchor="middle" x="351" y="-178.93" font-family="Helvetica,sans-Serif" font-size="10.00" fill="grey">::string &gt;</text>
</g>
<!-- Node17 -->
<g id="Node000017" class="node">
<title>Node17</title>
<g id="a_Node000017"><a xlink:title=" ">
<polygon fill="white" stroke="#666666" points="66.5,-384.43 37.5,-384.43 37.5,-365.43 66.5,-365.43 66.5,-384.43"/>
<text text-anchor="middle" x="52" y="-372.43" font-family="Helvetica,sans-Serif" font-size="10.00">K</text>
</a>
</g>
</g>
<!-- Node17&#45;&gt;Node16 -->
<g id="edge29_Node000016_Node000017" class="edge">
<title>Node17&#45;&gt;Node16</title>
<g id="a_edge29_Node000016_Node000017"><a xlink:title=" ">
<path fill="none" stroke="#9a32cd" stroke-dasharray="5,2" d="M76.79,-373.2C102.4,-370.25 143.2,-362.31 171,-340.93 183.33,-331.46 177.09,-320.93 189,-310.93 193.58,-307.09 199.03,-303.97 204.61,-301.46"/>
<polygon fill="#9a32cd" stroke="#9a32cd" points="76.44,-369.72 66.83,-374.18 77.12,-376.68 76.44,-369.72"/>
</a>
</g>
<text text-anchor="middle" x="146.5" y="-365.93" font-family="Helvetica,sans-Serif" font-size="10.00" fill="grey"> keys</text>
</g>
<!-- Node21 -->
<g id="Node000021" class="node">
<title>Node21</title>
<g id="a_Node000021"><a xlink:title=" ">
<polygon fill="white" stroke="#666666" points="392,-563.43 310,-563.43 310,-544.43 392,-544.43 392,-563.43"/>
<text text-anchor="middle" x="351" y="-551.43" font-family="Helvetica,sans-Serif" font-size="10.00">std::set&lt; K &gt;</text>
</a>
</g>
</g>
<!-- Node17&#45;&gt;Node21 -->
<g id="edge36_Node000021_Node000017" class="edge">
<title>Node17&#45;&gt;Node21</title>
<g id="a_edge36_Node000021_Node000017"><a xlink:title=" ">
<path fill="none" stroke="#9a32cd" stroke-dasharray="5,2" d="M75.31,-388.47C119.62,-415.35 221.84,-477.27 308,-528.93 316.44,-533.99 325.86,-539.6 333.63,-544.22"/>
<polygon fill="#9a32cd" stroke="#9a32cd" points="76.89,-385.34 66.53,-383.14 73.26,-391.32 76.89,-385.34"/>
</a>
</g>
<text text-anchor="middle" x="146.5" y="-447.93" font-family="Helvetica,sans-Serif" font-size="10.00" fill="grey"> keys</text>
</g>
<!-- Node18 -->
<g id="Node000018" class="node">
<title>Node18</title>
<g id="a_Node000018"><a xlink:href="classsierra_1_1nalu_1_1_b_spline.html" target="_top" xlink:title="Base class for B&#45;Splines.">
<polygon fill="white" stroke="#666666" points="1125,-448.43 1011,-448.43 1011,-429.43 1125,-429.43 1125,-448.43"/>
<text text-anchor="middle" x="1068" y="-436.43" font-family="Helvetica,sans-Serif" font-size="10.00">sierra::nalu::BSpline</text>
</a>
</g>
</g>
<!-- Node18&#45;&gt;Node8 -->
<g id="edge31_Node000008_Node000018" class="edge">
<title>Node18&#45;&gt;Node8</title>
<g id="a_edge31_Node000008_Node000018"><a xlink:title=" ">
<path fill="none" stroke="#9a32cd" stroke-dasharray="5,2" d="M1135.07,-441.91C1166.48,-440.3 1203.15,-433.74 1231,-414.93 1279.32,-382.3 1303.11,-310.9 1310.45,-284.77"/>
<polygon fill="#9a32cd" stroke="#9a32cd" points="1134.94,-438.41 1125.08,-442.27 1135.19,-445.41 1134.94,-438.41"/>
</a>
</g>
<text text-anchor="middle" x="1195.5" y="-441.93" font-family="Helvetica,sans-Serif" font-size="10.00" fill="grey"> spline_</text>
</g>
<!-- Node19 -->
<g id="Node000019" class="node">
<title>Node19</title>
<g id="a_Node000019"><a xlink:title=" ">
<polygon fill="white" stroke="#666666" points="1132,-507.43 1004,-507.43 1004,-466.43 1132,-466.43 1132,-507.43"/>
<text text-anchor="start" x="1012" y="-495.43" font-family="Helvetica,sans-Serif" font-size="10.00">std::set&lt; ClipEvent,</text>
<text text-anchor="start" x="1012" y="-484.43" font-family="Helvetica,sans-Serif" font-size="10.00"> ClipEventSortCriterion</text>
<text text-anchor="middle" x="1068" y="-473.43" font-family="Helvetica,sans-Serif" font-size="10.00">&lt; ClipEvent &gt; &gt;</text>
</a>
</g>
</g>
<!-- Node19&#45;&gt;Node8 -->
<g id="edge32_Node000008_Node000019" class="edge">
<title>Node19&#45;&gt;Node8</title>
<g id="a_edge32_Node000008_Node000019"><a xlink:title=" ">
<path fill="none" stroke="#9a32cd" stroke-dasharray="5,2" d="M1142.43,-486.18C1172.58,-482.5 1206.16,-473.66 1231,-453.93 1288.02,-408.66 1306.92,-314.81 1311.66,-284.56"/>
<polygon fill="#9a32cd" stroke="#9a32cd" points="1141.94,-482.72 1132.36,-487.24 1142.67,-489.68 1141.94,-482.72"/>
</a>
</g>
<text text-anchor="middle" x="1195.5" y="-485.93" font-family="Helvetica,sans-Serif" font-size="10.00" fill="grey"> clipEventLog_</text>
</g>
<!-- Node20&#45;&gt;Node19 -->
<g id="edge33_Node000019_Node000020" class="edge">
<title>Node20&#45;&gt;Node19</title>
<g id="a_edge33_Node000019_Node000020"><a xlink:title=" ">
<path fill="none" stroke="#9a32cd" stroke-dasharray="5,2" d="M858.8,-489.36C862.59,-489.58 866.34,-489.78 870,-489.93 914.77,-491.83 965.31,-491 1003.98,-489.74"/>
<polygon fill="#9a32cd" stroke="#9a32cd" points="858.94,-485.86 848.73,-488.71 858.49,-492.85 858.94,-485.86"/>
</a>
</g>
<text text-anchor="middle" x="923" y="-493.93" font-family="Helvetica,sans-Serif" font-size="10.00" fill="grey"> keys</text>
</g>
<!-- Node21&#45;&gt;Node19 -->
<g id="edge35_Node000019_Node000021" class="edge">
<title>Node21&#45;&gt;Node19</title>
<g id="a_edge35_Node000019_Node000021"><a xlink:title=" ">
<path fill="none" stroke="orange" stroke-dasharray="5,2" d="M402.13,-558.08C492.59,-564.56 688.89,-574 852,-549.93 907.79,-541.7 969.36,-522.58 1012.26,-507.55"/>
<polygon fill="orange" stroke="orange" points="402.38,-554.59 392.15,-557.35 401.87,-561.57 402.38,-554.59"/>
</a>
</g>
<text text-anchor="start" x="570" y="-578.93" font-family="Helvetica,sans-Serif" font-size="10.00" fill="grey"> &lt; ClipEvent, ClipEventSort</text>
<text text-anchor="middle" x="636.5" y="-567.93" font-family="Helvetica,sans-Serif" font-size="10.00" fill="grey">Criterion&lt; ClipEvent &gt; &gt;</text>
</g>
</g>
</svg>

<g id="navigator" transform="translate(0 0)" fill="#404254">
  <rect fill="#f2f5e9" fill-opacity="0.5" stroke="#606060" stroke-width=".5" x="0" y="0" width="60" height="60"/>
  <use id="zoomplus" xlink:href="#zoomPlus" x="17" y="9" onmousedown="handleZoom(evt,'in')"/>
  <use id="zoomminus" xlink:href="#zoomMin" x="42" y="9" onmousedown="handleZoom(evt,'out')"/>
  <use id="reset" xlink:href="#resetDef" x="30" y="36" onmousedown="handleReset()"/>
   <use id="arrowup" xlink:href="#arrowUp" x="0" y="0" onmousedown="handlePan(0,-1)"/>
  <use id="arrowright" xlink:href="#arrowRight" x="0" y="0" onmousedown="handlePan(1,0)"/>
  <use id="arrowdown" xlink:href="#arrowDown" x="0" y="0" onmousedown="handlePan(0,1)"/>
  <use id="arrowleft" xlink:href="#arrowLeft" x="0" y="0" onmousedown="handlePan(-1,0)"/>
</g>
<svg viewBox="0 0 15 15" width="100%" height="30px" preserveAspectRatio="xMaxYMin meet">
 <g id="arrow_out" transform="scale(0.3 0.3)">
  <a xlink:href="classsierra_1_1nalu_1_1_chi_converter__coll__graph_org.svg" target="_base">
   <rect id="button" ry="5" rx="5" y="6" x="6" height="38" width="38"
        fill="#f2f5e9" fill-opacity="0.5" stroke="#606060" stroke-width="1.0"/>
   <path id="arrow"
     d="M 11.500037,31.436501 C 11.940474,20.09759 22.043105,11.32322 32.158766,21.979434 L 37.068811,17.246167 C 37.068811,17.246167 37.088388,32 37.088388,32 L 22.160133,31.978069 C 22.160133,31.978069 26.997745,27.140456 26.997745,27.140456 C 18.528582,18.264221 13.291696,25.230495 11.500037,31.436501 z"
     style="fill:#404040;"/>
  </a>
 </g>
</svg>

<style type='text/css'>
<![CDATA[
[data-mouse-over-selected='false'] { opacity: 0.7; }
[data-mouse-over-selected='true']  { opacity: 1.0; }
]]>
</style>
<script type="application/ecmascript"><![CDATA[
document.addEventListener('DOMContentLoaded', (event) => {
  highlightEdges();
  highlightAdjacentNodes();
});
]]></script>
</svg>
