<?xml version="1.0" encoding="UTF-8" standalone="no"?>
<!DOCTYPE svg PUBLIC "-//W3C//DTD SVG 1.1//EN"
 "http://www.w3.org/Graphics/SVG/1.1/DTD/svg11.dtd">
<!-- Generated by graphviz version 2.43.0 (0)
 -->
<!-- Title: sierra::nalu::WallDistEdgeSolverAlg Pages: 1 -->
<svg width="164pt" height="214pt"
 viewBox="0.00 0.00 164.00 214.00" xmlns="http://www.w3.org/2000/svg" xmlns:xlink="http://www.w3.org/1999/xlink">
<g id="graph0" class="graph" transform="scale(1 1) rotate(0) translate(4 210)">
<title>sierra::nalu::WallDistEdgeSolverAlg</title>
<!-- Node1 -->
<g id="Node000001" class="node">
<title>Node1</title>
<g id="a_Node000001"><a xlink:title=" ">
<polygon fill="#999999" stroke="#666666" points="149,-30 7,-30 7,0 149,0 149,-30"/>
<text text-anchor="start" x="15" y="-18" font-family="Helvetica,sans-Serif" font-size="10.00">sierra::nalu::WallDistEdge</text>
<text text-anchor="middle" x="78" y="-7" font-family="Helvetica,sans-Serif" font-size="10.00">SolverAlg</text>
</a>
</g>
</g>
<!-- Node2 -->
<g id="Node000002" class="node">
<title>Node2</title>
<g id="a_Node000002"><a xlink:href="classsierra_1_1nalu_1_1_assemble_edge_solver_algorithm.html" target="_top" xlink:title=" ">
<polygon fill="white" stroke="#666666" points="152.5,-96 3.5,-96 3.5,-66 152.5,-66 152.5,-96"/>
<text text-anchor="start" x="11.5" y="-84" font-family="Helvetica,sans-Serif" font-size="10.00">sierra::nalu::AssembleEdge</text>
<text text-anchor="middle" x="78" y="-73" font-family="Helvetica,sans-Serif" font-size="10.00">SolverAlgorithm</text>
</a>
</g>
</g>
<!-- Node2&#45;&gt;Node1 -->
<g id="edge1_Node000001_Node000002" class="edge">
<title>Node2&#45;&gt;Node1</title>
<g id="a_edge1_Node000001_Node000002"><a xlink:title=" ">
<path fill="none" stroke="#63b8ff" d="M78,-55.54C78,-46.96 78,-37.61 78,-30.16"/>
<polygon fill="#63b8ff" stroke="#63b8ff" points="74.5,-55.8 78,-65.8 81.5,-55.8 74.5,-55.8"/>
</a>
</g>
</g>
<!-- Node3 -->
<g id="Node000003" class="node">
<title>Node3</title>
<g id="a_Node000003"><a xlink:href="classsierra_1_1nalu_1_1_solver_algorithm.html" target="_top" xlink:title=" ">
<polygon fill="white" stroke="#666666" points="156,-151 0,-151 0,-132 156,-132 156,-151"/>
<text text-anchor="middle" x="78" y="-139" font-family="Helvetica,sans-Serif" font-size="10.00">sierra::nalu::SolverAlgorithm</text>
</a>
</g>
</g>
<!-- Node3&#45;&gt;Node2 -->
<g id="edge2_Node000002_Node000003" class="edge">
<title>Node3&#45;&gt;Node2</title>
<g id="a_edge2_Node000002_Node000003"><a xlink:title=" ">
<path fill="none" stroke="#63b8ff" d="M78,-121.65C78,-113.36 78,-103.78 78,-96.11"/>
<polygon fill="#63b8ff" stroke="#63b8ff" points="74.5,-121.87 78,-131.87 81.5,-121.87 74.5,-121.87"/>
</a>
</g>
</g>
<!-- Node4 -->
<g id="Node000004" class="node">
<title>Node4</title>
<g id="a_Node000004"><a xlink:href="classsierra_1_1nalu_1_1_algorithm.html" target="_top" xlink:title=" ">
<polygon fill="white" stroke="#666666" points="140.5,-206 15.5,-206 15.5,-187 140.5,-187 140.5,-206"/>
<text text-anchor="middle" x="78" y="-194" font-family="Helvetica,sans-Serif" font-size="10.00">sierra::nalu::Algorithm</text>
</a>
</g>
</g>
<!-- Node4&#45;&gt;Node3 -->
<g id="edge3_Node000003_Node000004" class="edge">
<title>Node4&#45;&gt;Node3</title>
<g id="a_edge3_Node000003_Node000004"><a xlink:title=" ">
<path fill="none" stroke="#63b8ff" d="M78,-176.66C78,-167.93 78,-157.99 78,-151.09"/>
<polygon fill="#63b8ff" stroke="#63b8ff" points="74.5,-176.75 78,-186.75 81.5,-176.75 74.5,-176.75"/>
</a>
</g>
</g>
</g>
</svg>
