<?xml version="1.0" encoding="UTF-8" standalone="no"?>
<!DOCTYPE svg PUBLIC "-//W3C//DTD SVG 1.1//EN"
 "http://www.w3.org/Graphics/SVG/1.1/DTD/svg11.dtd">
<!-- Generated by graphviz version 2.43.0 (0)
 -->
<!-- Title: sierra::nalu::ScratchViews&lt; T, TEAMHANDLETYPE, SHMEM &gt; Pages: 1 -->
<svg width="590pt" height="110pt"
 viewBox="0.00 0.00 590.00 110.00" xmlns="http://www.w3.org/2000/svg" xmlns:xlink="http://www.w3.org/1999/xlink">
<g id="graph0" class="graph" transform="scale(1 1) rotate(0) translate(4 106)">
<title>sierra::nalu::ScratchViews&lt; T, TEAMHANDLETYPE, SHMEM &gt;</title>
<polygon fill="white" stroke="transparent" points="-4,4 -4,-106 586,-106 586,4 -4,4"/>
<!-- Node1 -->
<g id="node1" class="node">
<title>Node1</title>
<g id="a_node1"><a xlink:title=" ">
<polygon fill="#bfbfbf" stroke="black" points="0,-36 0,-66 187,-66 187,-36 0,-36"/>
<text text-anchor="start" x="8" y="-54" font-family="Helvetica,sans-Serif" font-size="10.00">sierra::nalu::ScratchViews</text>
<text text-anchor="middle" x="93.5" y="-43" font-family="Helvetica,sans-Serif" font-size="10.00">&lt; T, TEAMHANDLETYPE, SHMEM &gt;</text>
</a>
</g>
</g>
<!-- Node2 -->
<g id="node2" class="node">
<title>Node2</title>
<g id="a_node2"><a xlink:href="classsierra_1_1nalu_1_1_scratch_views.html" target="_top" xlink:title=" ">
<polygon fill="white" stroke="black" points="400.5,-60.5 400.5,-101.5 577.5,-101.5 577.5,-60.5 400.5,-60.5"/>
<text text-anchor="start" x="408.5" y="-89.5" font-family="Helvetica,sans-Serif" font-size="10.00">sierra::nalu::ScratchViews</text>
<text text-anchor="start" x="408.5" y="-78.5" font-family="Helvetica,sans-Serif" font-size="10.00">&lt; DoubleType, TeamHandleType,</text>
<text text-anchor="middle" x="489" y="-67.5" font-family="Helvetica,sans-Serif" font-size="10.00"> ShmemType &gt;</text>
</a>
</g>
</g>
<!-- Node1&#45;&gt;Node2 -->
<g id="edge1" class="edge">
<title>Node1&#45;&gt;Node2</title>
<path fill="none" stroke="orange" stroke-dasharray="5,2" d="M197.61,-58.86C260.61,-63.66 340.3,-69.74 400.25,-74.31"/>
<polygon fill="orange" stroke="orange" points="197.49,-55.34 187.26,-58.07 196.96,-62.32 197.49,-55.34"/>
<text text-anchor="start" x="222" y="-86" font-family="Helvetica,sans-Serif" font-size="10.00"> &lt; DoubleType, TeamHandle</text>
<text text-anchor="middle" x="291.5" y="-75" font-family="Helvetica,sans-Serif" font-size="10.00">Type, ShmemType &gt;</text>
</g>
<!-- Node3 -->
<g id="node3" class="node">
<title>Node3</title>
<g id="a_node3"><a xlink:href="classsierra_1_1nalu_1_1_scratch_views.html" target="_top" xlink:title=" ">
<polygon fill="white" stroke="black" points="396,-0.5 396,-41.5 582,-41.5 582,-0.5 396,-0.5"/>
<text text-anchor="start" x="404" y="-29.5" font-family="Helvetica,sans-Serif" font-size="10.00">sierra::nalu::ScratchViews</text>
<text text-anchor="start" x="404" y="-18.5" font-family="Helvetica,sans-Serif" font-size="10.00">&lt; DoubleType, TEAMHANDLETYPE,</text>
<text text-anchor="middle" x="489" y="-7.5" font-family="Helvetica,sans-Serif" font-size="10.00"> SHMEM &gt;</text>
</a>
</g>
</g>
<!-- Node1&#45;&gt;Node3 -->
<g id="edge2" class="edge">
<title>Node1&#45;&gt;Node3</title>
<path fill="none" stroke="orange" stroke-dasharray="5,2" d="M190.45,-34.66C195.36,-34.05 200.24,-33.49 205,-33 268.47,-26.51 340.3,-23.51 395.71,-22.14"/>
<polygon fill="orange" stroke="orange" points="189.79,-31.22 180.33,-35.99 190.7,-38.16 189.79,-31.22"/>
<text text-anchor="start" x="205" y="-47" font-family="Helvetica,sans-Serif" font-size="10.00"> &lt; DoubleType, TEAMHANDLETYPE,</text>
<text text-anchor="middle" x="291.5" y="-36" font-family="Helvetica,sans-Serif" font-size="10.00"> SHMEM &gt;</text>
</g>
</g>
</svg>
