<?xml version="1.0" encoding="UTF-8" standalone="no"?>
<!DOCTYPE svg PUBLIC "-//W3C//DTD SVG 1.1//EN"
 "http://www.w3.org/Graphics/SVG/1.1/DTD/svg11.dtd">
<!-- Generated by graphviz version 2.43.0 (0)
 -->
<!-- Title: sierra::nalu::SteadyTaylorVortexMomentumSrcNodeSuppAlg Pages: 1 -->
<svg width="193pt" height="106pt"
 viewBox="0.00 0.00 193.00 106.00" xmlns="http://www.w3.org/2000/svg" xmlns:xlink="http://www.w3.org/1999/xlink">
<g id="graph0" class="graph" transform="scale(1 1) rotate(0) translate(4 102)">
<title>sierra::nalu::SteadyTaylorVortexMomentumSrcNodeSuppAlg</title>
<polygon fill="white" stroke="transparent" points="-4,4 -4,-102 189,-102 189,4 -4,4"/>
<!-- Node1 -->
<g id="node1" class="node">
<title>Node1</title>
<g id="a_node1"><a xlink:title=" ">
<polygon fill="#bfbfbf" stroke="black" points="0,-0.5 0,-30.5 185,-30.5 185,-0.5 0,-0.5"/>
<text text-anchor="start" x="8" y="-18.5" font-family="Helvetica,sans-Serif" font-size="10.00">sierra::nalu::SteadyTaylor</text>
<text text-anchor="middle" x="92.5" y="-7.5" font-family="Helvetica,sans-Serif" font-size="10.00">VortexMomentumSrcNodeSuppAlg</text>
</a>
</g>
</g>
<!-- Node2 -->
<g id="node2" class="node">
<title>Node2</title>
<g id="a_node2"><a xlink:href="classsierra_1_1nalu_1_1_supplemental_algorithm.html" target="_top" xlink:title=" ">
<polygon fill="white" stroke="black" points="20,-67.5 20,-97.5 165,-97.5 165,-67.5 20,-67.5"/>
<text text-anchor="start" x="28" y="-85.5" font-family="Helvetica,sans-Serif" font-size="10.00">sierra::nalu::Supplemental</text>
<text text-anchor="middle" x="92.5" y="-74.5" font-family="Helvetica,sans-Serif" font-size="10.00">Algorithm</text>
</a>
</g>
</g>
<!-- Node2&#45;&gt;Node1 -->
<g id="edge1" class="edge">
<title>Node2&#45;&gt;Node1</title>
<path fill="none" stroke="midnightblue" d="M92.5,-57.11C92.5,-48.15 92.5,-38.32 92.5,-30.58"/>
<polygon fill="midnightblue" stroke="midnightblue" points="89,-57.4 92.5,-67.4 96,-57.4 89,-57.4"/>
</g>
</g>
</svg>
