<?xml version="1.0" encoding="UTF-8" standalone="no"?>
<!DOCTYPE svg PUBLIC "-//W3C//DTD SVG 1.1//EN"
 "http://www.w3.org/Graphics/SVG/1.1/DTD/svg11.dtd">
<!-- Generated by graphviz version 2.43.0 (0)
 -->
<!-- Title: sierra::nalu::MeshMotionAlg Pages: 1 -->
<svg width="563pt" height="640pt"
 viewBox="0.00 0.00 563.00 640.00" xmlns="http://www.w3.org/2000/svg" xmlns:xlink="http://www.w3.org/1999/xlink">
<g id="graph0" class="graph" transform="scale(1 1) rotate(0) translate(4 636)">
<title>sierra::nalu::MeshMotionAlg</title>
<!-- Node1 -->
<g id="Node000001" class="node">
<title>Node1</title>
<g id="a_Node000001"><a xlink:title=" ">
<polygon fill="#999999" stroke="#666666" points="276.5,-19 123.5,-19 123.5,0 276.5,0 276.5,-19"/>
<text text-anchor="middle" x="200" y="-7" font-family="Helvetica,sans-Serif" font-size="10.00">sierra::nalu::MeshMotionAlg</text>
</a>
</g>
</g>
<!-- Node2 -->
<g id="Node000002" class="node">
<title>Node2</title>
<g id="a_Node000002"><a xlink:title=" ">
<polygon fill="white" stroke="#666666" points="298.5,-96 101.5,-96 101.5,-66 298.5,-66 298.5,-96"/>
<text text-anchor="start" x="109.5" y="-84" font-family="Helvetica,sans-Serif" font-size="10.00">std::vector&lt; std::shared</text>
<text text-anchor="middle" x="200" y="-73" font-family="Helvetica,sans-Serif" font-size="10.00">_ptr&lt; sierra::nalu::FrameMoving &gt; &gt;</text>
</a>
</g>
</g>
<!-- Node2&#45;&gt;Node1 -->
<g id="edge1_Node000001_Node000002" class="edge">
<title>Node2&#45;&gt;Node1</title>
<g id="a_edge1_Node000001_Node000002"><a xlink:title=" ">
<path fill="none" stroke="#9a32cd" stroke-dasharray="5,2" d="M200,-55.56C200,-42.95 200,-28.35 200,-19.27"/>
<polygon fill="#9a32cd" stroke="#9a32cd" points="196.5,-55.94 200,-65.94 203.5,-55.94 196.5,-55.94"/>
</a>
</g>
<text text-anchor="middle" x="247" y="-40" font-family="Helvetica,sans-Serif" font-size="10.00" fill="grey"> movingFrameVec_</text>
</g>
<!-- Node3 -->
<g id="Node000003" class="node">
<title>Node3</title>
<g id="a_Node000003"><a xlink:title=" ">
<polygon fill="white" stroke="#666666" points="325,-173 197,-173 197,-143 325,-143 325,-173"/>
<text text-anchor="start" x="205" y="-161" font-family="Helvetica,sans-Serif" font-size="10.00">std::shared_ptr&lt; sierra</text>
<text text-anchor="middle" x="261" y="-150" font-family="Helvetica,sans-Serif" font-size="10.00">::nalu::FrameMoving &gt;</text>
</a>
</g>
</g>
<!-- Node3&#45;&gt;Node2 -->
<g id="edge2_Node000002_Node000003" class="edge">
<title>Node3&#45;&gt;Node2</title>
<g id="a_edge2_Node000002_Node000003"><a xlink:title=" ">
<path fill="none" stroke="#9a32cd" stroke-dasharray="5,2" d="M243.19,-135.1C232.93,-122.49 220.35,-107.03 211.42,-96.04"/>
<polygon fill="#9a32cd" stroke="#9a32cd" points="240.5,-137.34 249.53,-142.89 245.93,-132.93 240.5,-137.34"/>
</a>
</g>
<text text-anchor="middle" x="258.5" y="-117" font-family="Helvetica,sans-Serif" font-size="10.00" fill="grey"> elements</text>
</g>
<!-- Node4 -->
<g id="Node000004" class="node">
<title>Node4</title>
<g id="a_Node000004"><a xlink:href="classsierra_1_1nalu_1_1_frame_moving.html" target="_top" xlink:title=" ">
<polygon fill="white" stroke="#666666" points="375,-239 231,-239 231,-220 375,-220 375,-239"/>
<text text-anchor="middle" x="303" y="-227" font-family="Helvetica,sans-Serif" font-size="10.00">sierra::nalu::FrameMoving</text>
</a>
</g>
</g>
<!-- Node4&#45;&gt;Node3 -->
<g id="edge3_Node000003_Node000004" class="edge">
<title>Node4&#45;&gt;Node3</title>
<g id="a_edge3_Node000003_Node000004"><a xlink:title=" ">
<path fill="none" stroke="#9a32cd" stroke-dasharray="5,2" d="M292.51,-211.14C285.42,-199.41 276.18,-184.12 269.54,-173.14"/>
<polygon fill="#9a32cd" stroke="#9a32cd" points="289.68,-213.23 297.85,-219.98 295.67,-209.61 289.68,-213.23"/>
</a>
</g>
<text text-anchor="middle" x="293.5" y="-194" font-family="Helvetica,sans-Serif" font-size="10.00" fill="grey"> ptr</text>
</g>
<!-- Node5 -->
<g id="Node000005" class="node">
<title>Node5</title>
<g id="a_Node000005"><a xlink:href="classsierra_1_1nalu_1_1_frame_base.html" target="_top" xlink:title=" ">
<polygon fill="white" stroke="#666666" points="404,-316 272,-316 272,-297 404,-297 404,-316"/>
<text text-anchor="middle" x="338" y="-304" font-family="Helvetica,sans-Serif" font-size="10.00">sierra::nalu::FrameBase</text>
</a>
</g>
</g>
<!-- Node5&#45;&gt;Node4 -->
<g id="edge4_Node000004_Node000005" class="edge">
<title>Node5&#45;&gt;Node4</title>
<g id="a_edge4_Node000004_Node000005"><a xlink:title=" ">
<path fill="none" stroke="#63b8ff" d="M334.46,-287.07C332.23,-277.73 328.85,-266.41 324,-257 320.67,-250.53 315.64,-244.11 311.33,-239.21"/>
<polygon fill="#63b8ff" stroke="#63b8ff" points="331.05,-287.84 336.56,-296.89 337.89,-286.38 331.05,-287.84"/>
</a>
</g>
</g>
<!-- Node6 -->
<g id="Node000006" class="node">
<title>Node6</title>
<g id="a_Node000006"><a xlink:title=" ">
<polygon fill="white" stroke="#666666" points="516.5,-404 333.5,-404 333.5,-374 516.5,-374 516.5,-404"/>
<text text-anchor="start" x="341.5" y="-392" font-family="Helvetica,sans-Serif" font-size="10.00">std::vector&lt; std::unique</text>
<text text-anchor="middle" x="425" y="-381" font-family="Helvetica,sans-Serif" font-size="10.00">_ptr&lt; sierra::nalu::NgpMotion &gt; &gt;</text>
</a>
</g>
</g>
<!-- Node6&#45;&gt;Node5 -->
<g id="edge5_Node000005_Node000006" class="edge">
<title>Node6&#45;&gt;Node5</title>
<g id="a_edge5_Node000005_Node000006"><a xlink:title=" ">
<path fill="none" stroke="#9a32cd" stroke-dasharray="5,2" d="M402.17,-366.87C384.4,-350.44 360.65,-328.46 347.6,-316.38"/>
<polygon fill="#9a32cd" stroke="#9a32cd" points="400.13,-369.76 409.85,-373.98 404.88,-364.62 400.13,-369.76"/>
</a>
</g>
<text text-anchor="middle" x="428.5" y="-342.5" font-family="Helvetica,sans-Serif" font-size="10.00" fill="grey"> motionKernels_</text>
</g>
<!-- Node7 -->
<g id="Node000007" class="node">
<title>Node7</title>
<g id="a_Node000007"><a xlink:title=" ">
<polygon fill="white" stroke="#666666" points="505,-492 377,-492 377,-462 505,-462 505,-492"/>
<text text-anchor="start" x="385" y="-480" font-family="Helvetica,sans-Serif" font-size="10.00">std::unique_ptr&lt; sierra</text>
<text text-anchor="middle" x="441" y="-469" font-family="Helvetica,sans-Serif" font-size="10.00">::nalu::NgpMotion &gt;</text>
</a>
</g>
</g>
<!-- Node7&#45;&gt;Node6 -->
<g id="edge6_Node000006_Node000007" class="edge">
<title>Node7&#45;&gt;Node6</title>
<g id="a_edge6_Node000006_Node000007"><a xlink:title=" ">
<path fill="none" stroke="#9a32cd" stroke-dasharray="5,2" d="M436.52,-451.93C433.66,-436.57 430.06,-417.18 427.65,-404.22"/>
<polygon fill="#9a32cd" stroke="#9a32cd" points="433.09,-452.61 438.36,-461.8 439.97,-451.33 433.09,-452.61"/>
</a>
</g>
<text text-anchor="middle" x="458.5" y="-430.5" font-family="Helvetica,sans-Serif" font-size="10.00" fill="grey"> elements</text>
</g>
<!-- Node8 -->
<g id="Node000008" class="node">
<title>Node8</title>
<g id="a_Node000008"><a xlink:href="classsierra_1_1nalu_1_1_ngp_motion.html" target="_top" xlink:title=" ">
<polygon fill="white" stroke="#666666" points="531.5,-566 400.5,-566 400.5,-547 531.5,-547 531.5,-566"/>
<text text-anchor="middle" x="466" y="-554" font-family="Helvetica,sans-Serif" font-size="10.00">sierra::nalu::NgpMotion</text>
</a>
</g>
</g>
<!-- Node8&#45;&gt;Node7 -->
<g id="edge7_Node000007_Node000008" class="edge">
<title>Node8&#45;&gt;Node7</title>
<g id="a_edge7_Node000007_Node000008"><a xlink:title=" ">
<path fill="none" stroke="#9a32cd" stroke-dasharray="5,2" d="M460.06,-537.09C455.62,-523.32 449.63,-504.76 445.56,-492.14"/>
<polygon fill="#9a32cd" stroke="#9a32cd" points="456.83,-538.47 463.23,-546.91 463.49,-536.32 456.83,-538.47"/>
</a>
</g>
<text text-anchor="middle" x="465.5" y="-517" font-family="Helvetica,sans-Serif" font-size="10.00" fill="grey"> ptr</text>
</g>
<!-- Node9 -->
<g id="Node000009" class="node">
<title>Node9</title>
<g id="a_Node000009"><a xlink:href="structsierra_1_1nalu_1_1mm_1_1_three_d_vec_type.html" target="_top" xlink:title=" ">
<polygon fill="white" stroke="#666666" points="555,-632 377,-632 377,-613 555,-613 555,-632"/>
<text text-anchor="middle" x="466" y="-620" font-family="Helvetica,sans-Serif" font-size="10.00">sierra::nalu::mm::ThreeDVecType</text>
</a>
</g>
</g>
<!-- Node9&#45;&gt;Node8 -->
<g id="edge8_Node000008_Node000009" class="edge">
<title>Node9&#45;&gt;Node8</title>
<g id="a_edge8_Node000008_Node000009"><a xlink:title=" ">
<path fill="none" stroke="#9a32cd" stroke-dasharray="5,2" d="M466,-602.58C466,-590.63 466,-575.72 466,-566.41"/>
<polygon fill="#9a32cd" stroke="#9a32cd" points="462.5,-602.87 466,-612.87 469.5,-602.87 462.5,-602.87"/>
</a>
</g>
<text text-anchor="middle" x="484.5" y="-587" font-family="Helvetica,sans-Serif" font-size="10.00" fill="grey"> origin_</text>
</g>
<!-- Node10 -->
<g id="Node000010" class="node">
<title>Node10</title>
<g id="a_Node000010"><a xlink:title=" ">
<polygon fill="white" stroke="#666666" points="362,-566 244,-566 244,-547 362,-547 362,-566"/>
<text text-anchor="middle" x="303" y="-554" font-family="Helvetica,sans-Serif" font-size="10.00">std::unique_ptr&lt; T &gt;</text>
</a>
</g>
</g>
<!-- Node10&#45;&gt;Node7 -->
<g id="edge9_Node000007_Node000010" class="edge">
<title>Node10&#45;&gt;Node7</title>
<g id="a_edge9_Node000007_Node000010"><a xlink:title=" ">
<path fill="none" stroke="orange" stroke-dasharray="5,2" d="M300.4,-536.87C300.18,-527.75 301.65,-517.21 308,-510 317.5,-499.22 347.73,-491.48 376.97,-486.32"/>
<polygon fill="orange" stroke="orange" points="296.93,-537.32 301.29,-546.98 303.9,-536.71 296.93,-537.32"/>
</a>
</g>
<text text-anchor="middle" x="378" y="-517" font-family="Helvetica,sans-Serif" font-size="10.00" fill="grey"> &lt; sierra::nalu::NgpMotion &gt;</text>
</g>
<!-- Node11 -->
<g id="Node000011" class="node">
<title>Node11</title>
<g id="a_Node000011"><a xlink:title=" ">
<polygon fill="white" stroke="#666666" points="191.5,-632 162.5,-632 162.5,-613 191.5,-613 191.5,-632"/>
<text text-anchor="middle" x="177" y="-620" font-family="Helvetica,sans-Serif" font-size="10.00">T</text>
</a>
</g>
</g>
<!-- Node11&#45;&gt;Node10 -->
<g id="edge10_Node000010_Node000011" class="edge">
<title>Node11&#45;&gt;Node10</title>
<g id="a_edge10_Node000010_Node000011"><a xlink:title=" ">
<path fill="none" stroke="#9a32cd" stroke-dasharray="5,2" d="M201.09,-609.26C225.98,-596.62 264.19,-577.21 286.07,-566.1"/>
<polygon fill="#9a32cd" stroke="#9a32cd" points="199.28,-606.26 191.95,-613.91 202.45,-612.5 199.28,-606.26"/>
</a>
</g>
<text text-anchor="middle" x="255.5" y="-587" font-family="Helvetica,sans-Serif" font-size="10.00" fill="grey"> ptr</text>
</g>
<!-- Node12 -->
<g id="Node000012" class="node">
<title>Node12</title>
<g id="a_Node000012"><a xlink:title=" ">
<polygon fill="white" stroke="#666666" points="238.5,-486.5 141.5,-486.5 141.5,-467.5 238.5,-467.5 238.5,-486.5"/>
<text text-anchor="middle" x="190" y="-474.5" font-family="Helvetica,sans-Serif" font-size="10.00">std::vector&lt; T &gt;</text>
</a>
</g>
</g>
<!-- Node11&#45;&gt;Node12 -->
<g id="edge12_Node000012_Node000011" class="edge">
<title>Node11&#45;&gt;Node12</title>
<g id="a_edge12_Node000012_Node000011"><a xlink:title=" ">
<path fill="none" stroke="#9a32cd" stroke-dasharray="5,2" d="M178.68,-602.94C181.52,-571.64 187.14,-509.52 189.21,-486.68"/>
<polygon fill="#9a32cd" stroke="#9a32cd" points="175.19,-602.68 177.77,-612.95 182.16,-603.31 175.19,-602.68"/>
</a>
</g>
<text text-anchor="middle" x="207.5" y="-554" font-family="Helvetica,sans-Serif" font-size="10.00" fill="grey"> elements</text>
</g>
<!-- Node14 -->
<g id="Node000014" class="node">
<title>Node14</title>
<g id="a_Node000014"><a xlink:title=" ">
<polygon fill="white" stroke="#666666" points="123,-529 5,-529 5,-510 123,-510 123,-529"/>
<text text-anchor="middle" x="64" y="-517" font-family="Helvetica,sans-Serif" font-size="10.00">std::shared_ptr&lt; T &gt;</text>
</a>
</g>
</g>
<!-- Node11&#45;&gt;Node14 -->
<g id="edge16_Node000014_Node000011" class="edge">
<title>Node11&#45;&gt;Node14</title>
<g id="a_edge16_Node000014_Node000011"><a xlink:title=" ">
<path fill="none" stroke="#9a32cd" stroke-dasharray="5,2" d="M159.09,-606.35C154.78,-602.66 150.21,-598.71 146,-595 119.45,-571.6 88.7,-543.35 73.51,-529.31"/>
<polygon fill="#9a32cd" stroke="#9a32cd" points="157,-609.17 166.88,-612.98 161.54,-603.84 157,-609.17"/>
</a>
</g>
<text text-anchor="middle" x="154.5" y="-587" font-family="Helvetica,sans-Serif" font-size="10.00" fill="grey"> ptr</text>
</g>
<!-- Node12&#45;&gt;Node2 -->
<g id="edge17_Node000002_Node000012" class="edge">
<title>Node12&#45;&gt;Node2</title>
<g id="a_edge17_Node000002_Node000012"><a xlink:title=" ">
<path fill="none" stroke="orange" stroke-dasharray="5,2" d="M182.85,-457.76C176.77,-440.56 169,-413.93 169,-390 169,-390 169,-390 169,-157 169,-134.46 181.11,-110.8 190.19,-96.22"/>
<polygon fill="orange" stroke="orange" points="179.58,-458.98 186.34,-467.14 186.14,-456.54 179.58,-458.98"/>
</a>
</g>
<text text-anchor="start" x="169" y="-271" font-family="Helvetica,sans-Serif" font-size="10.00" fill="grey"> &lt; std::shared_ptr&lt;</text>
<text text-anchor="middle" x="246" y="-260" font-family="Helvetica,sans-Serif" font-size="10.00" fill="grey"> sierra::nalu::FrameMoving &gt; &gt;</text>
</g>
<!-- Node12&#45;&gt;Node6 -->
<g id="edge11_Node000006_Node000012" class="edge">
<title>Node12&#45;&gt;Node6</title>
<g id="a_edge11_Node000006_Node000012"><a xlink:title=" ">
<path fill="none" stroke="orange" stroke-dasharray="5,2" d="M219.12,-463.15C230.81,-457.67 244.27,-450.94 256,-444 270.54,-435.4 271.59,-428.93 287,-422 303.82,-414.44 322.63,-408.56 340.82,-404.03"/>
<polygon fill="orange" stroke="orange" points="217.42,-460.09 209.79,-467.44 220.34,-466.45 217.42,-460.09"/>
</a>
</g>
<text text-anchor="start" x="287" y="-436" font-family="Helvetica,sans-Serif" font-size="10.00" fill="grey"> &lt; std::unique_ptr&lt;</text>
<text text-anchor="middle" x="357" y="-425" font-family="Helvetica,sans-Serif" font-size="10.00" fill="grey"> sierra::nalu::NgpMotion &gt; &gt;</text>
</g>
<!-- Node13 -->
<g id="Node000013" class="node">
<title>Node13</title>
<g id="a_Node000013"><a xlink:title=" ">
<polygon fill="white" stroke="#666666" points="315,-398.5 197,-398.5 197,-379.5 315,-379.5 315,-398.5"/>
<text text-anchor="middle" x="256" y="-386.5" font-family="Helvetica,sans-Serif" font-size="10.00">std::vector&lt; Part * &gt;</text>
</a>
</g>
</g>
<!-- Node12&#45;&gt;Node13 -->
<g id="edge14_Node000013_Node000012" class="edge">
<title>Node12&#45;&gt;Node13</title>
<g id="a_edge14_Node000013_Node000012"><a xlink:title=" ">
<path fill="none" stroke="orange" stroke-dasharray="5,2" d="M190.9,-457.49C192.26,-446.31 195.48,-432.27 203,-422 210.68,-411.51 222.94,-403.78 233.74,-398.56"/>
<polygon fill="orange" stroke="orange" points="187.41,-457.23 190.08,-467.49 194.39,-457.81 187.41,-457.23"/>
</a>
</g>
<text text-anchor="middle" x="229.5" y="-430.5" font-family="Helvetica,sans-Serif" font-size="10.00" fill="grey"> &lt; Part * &gt;</text>
</g>
<!-- Node13&#45;&gt;Node5 -->
<g id="edge13_Node000005_Node000013" class="edge">
<title>Node13&#45;&gt;Node5</title>
<g id="a_edge13_Node000005_Node000013"><a xlink:title=" ">
<path fill="none" stroke="#9a32cd" stroke-dasharray="5,2" d="M268.14,-371.29C276.67,-360.11 288.73,-345.41 301,-334 308.18,-327.33 317.08,-320.9 324.36,-316.05"/>
<polygon fill="#9a32cd" stroke="#9a32cd" points="265.28,-369.27 262.11,-379.38 270.89,-373.46 265.28,-369.27"/>
</a>
</g>
<text text-anchor="middle" x="330" y="-348" font-family="Helvetica,sans-Serif" font-size="10.00" fill="grey"> partVecBc_</text>
<text text-anchor="middle" x="330" y="-337" font-family="Helvetica,sans-Serif" font-size="10.00" fill="grey">partVec_</text>
</g>
<!-- Node14&#45;&gt;Node3 -->
<g id="edge15_Node000003_Node000014" class="edge">
<title>Node14&#45;&gt;Node3</title>
<g id="a_edge15_Node000003_Node000014"><a xlink:title=" ">
<path fill="none" stroke="orange" stroke-dasharray="5,2" d="M42.98,-503.57C24.33,-488.39 0,-463.05 0,-434 0,-434 0,-434 0,-228.5 0,-187.88 119.54,-170.41 196.82,-163.36"/>
<polygon fill="orange" stroke="orange" points="41,-506.45 51.05,-509.8 45.27,-500.91 41,-506.45"/>
</a>
</g>
<text text-anchor="middle" x="77" y="-342.5" font-family="Helvetica,sans-Serif" font-size="10.00" fill="grey"> &lt; sierra::nalu::FrameMoving &gt;</text>
</g>
</g>
</svg>
