<?xml version="1.0" encoding="UTF-8" standalone="no"?>
<!DOCTYPE svg PUBLIC "-//W3C//DTD SVG 1.1//EN"
 "http://www.w3.org/Graphics/SVG/1.1/DTD/svg11.dtd">
<!-- Generated by graphviz version 2.43.0 (0)
 -->
<!-- Title: sierra::nalu::PostProcessingInfo Pages: 1 -->
<svg width="526pt" height="404pt"
 viewBox="0.00 0.00 526.00 404.00" xmlns="http://www.w3.org/2000/svg" xmlns:xlink="http://www.w3.org/1999/xlink">
<g id="graph0" class="graph" transform="scale(1 1) rotate(0) translate(4 400)">
<title>sierra::nalu::PostProcessingInfo</title>
<!-- Node1 -->
<g id="Node000001" class="node">
<title>Node1</title>
<g id="a_Node000001"><a xlink:title=" ">
<polygon fill="#999999" stroke="#666666" points="170,-19 0,-19 0,0 170,0 170,-19"/>
<text text-anchor="middle" x="85" y="-7" font-family="Helvetica,sans-Serif" font-size="10.00">sierra::nalu::PostProcessingInfo</text>
</a>
</g>
</g>
<!-- Node2 -->
<g id="Node000002" class="node">
<title>Node2</title>
<g id="a_Node000002"><a xlink:title=" ">
<polygon fill="white" stroke="#666666" points="168,-96 2,-96 2,-66 168,-66 168,-96"/>
<text text-anchor="start" x="10" y="-84" font-family="Helvetica,sans-Serif" font-size="10.00">std::vector&lt; sierra</text>
<text text-anchor="middle" x="85" y="-73" font-family="Helvetica,sans-Serif" font-size="10.00">::nalu::PostProcessingData * &gt;</text>
</a>
</g>
</g>
<!-- Node2&#45;&gt;Node1 -->
<g id="edge1_Node000001_Node000002" class="edge">
<title>Node2&#45;&gt;Node1</title>
<g id="a_edge1_Node000001_Node000002"><a xlink:title=" ">
<path fill="none" stroke="#9a32cd" stroke-dasharray="5,2" d="M85,-55.56C85,-42.95 85,-28.35 85,-19.27"/>
<polygon fill="#9a32cd" stroke="#9a32cd" points="81.5,-55.94 85,-65.94 88.5,-55.94 81.5,-55.94"/>
</a>
</g>
<text text-anchor="middle" x="115.5" y="-40" font-family="Helvetica,sans-Serif" font-size="10.00" fill="grey"> ppDataVec_</text>
</g>
<!-- Node3 -->
<g id="Node000003" class="node">
<title>Node3</title>
<g id="a_Node000003"><a xlink:href="classsierra_1_1nalu_1_1_post_processing_data.html" target="_top" xlink:title=" ">
<polygon fill="white" stroke="#666666" points="372,-162 198,-162 198,-143 372,-143 372,-162"/>
<text text-anchor="middle" x="285" y="-150" font-family="Helvetica,sans-Serif" font-size="10.00">sierra::nalu::PostProcessingData</text>
</a>
</g>
</g>
<!-- Node3&#45;&gt;Node2 -->
<g id="edge2_Node000002_Node000003" class="edge">
<title>Node3&#45;&gt;Node2</title>
<g id="a_edge2_Node000002_Node000003"><a xlink:title=" ">
<path fill="none" stroke="#9a32cd" stroke-dasharray="5,2" d="M250.77,-139.6C215.99,-127.52 162.13,-108.8 125.31,-96.01"/>
<polygon fill="#9a32cd" stroke="#9a32cd" points="249.88,-143 260.48,-142.98 252.18,-136.39 249.88,-143"/>
</a>
</g>
<text text-anchor="middle" x="227.5" y="-117" font-family="Helvetica,sans-Serif" font-size="10.00" fill="grey"> elements</text>
</g>
<!-- Node4 -->
<g id="Node000004" class="node">
<title>Node4</title>
<g id="a_Node000004"><a xlink:title=" ">
<polygon fill="white" stroke="#666666" points="424.5,-319 359.5,-319 359.5,-300 424.5,-300 424.5,-319"/>
<text text-anchor="middle" x="392" y="-307" font-family="Helvetica,sans-Serif" font-size="10.00">std::string</text>
</a>
</g>
</g>
<!-- Node4&#45;&gt;Node3 -->
<g id="edge3_Node000003_Node000004" class="edge">
<title>Node4&#45;&gt;Node3</title>
<g id="a_edge3_Node000003_Node000004"><a xlink:title=" ">
<path fill="none" stroke="#9a32cd" stroke-dasharray="5,2" d="M407.29,-291.45C409.22,-288.48 410.9,-285.28 412,-282 423.1,-248.85 458.34,-248.12 392,-180 384.12,-171.91 374.19,-166.14 363.57,-162.06"/>
<polygon fill="#9a32cd" stroke="#9a32cd" points="404.38,-289.49 401.08,-299.56 409.93,-293.75 404.38,-289.49"/>
</a>
</g>
<text text-anchor="middle" x="474.5" y="-245" font-family="Helvetica,sans-Serif" font-size="10.00" fill="grey"> outputFileName_</text>
<text text-anchor="middle" x="474.5" y="-234" font-family="Helvetica,sans-Serif" font-size="10.00" fill="grey">physics_</text>
<text text-anchor="middle" x="474.5" y="-223" font-family="Helvetica,sans-Serif" font-size="10.00" fill="grey">type_</text>
</g>
<!-- Node9 -->
<g id="Node000009" class="node">
<title>Node9</title>
<g id="a_Node000009"><a xlink:title=" ">
<polygon fill="white" stroke="#666666" points="390,-246 250,-246 250,-227 390,-227 390,-246"/>
<text text-anchor="middle" x="320" y="-234" font-family="Helvetica,sans-Serif" font-size="10.00">std::vector&lt; std::string &gt;</text>
</a>
</g>
</g>
<!-- Node4&#45;&gt;Node9 -->
<g id="edge9_Node000009_Node000004" class="edge">
<title>Node4&#45;&gt;Node9</title>
<g id="a_edge9_Node000009_Node000004"><a xlink:title=" ">
<path fill="none" stroke="#9a32cd" stroke-dasharray="5,2" d="M374.66,-292.98C370.78,-289.42 366.72,-285.61 363,-282 350.52,-269.87 336.62,-255.27 328.09,-246.19"/>
<polygon fill="#9a32cd" stroke="#9a32cd" points="372.44,-295.69 382.19,-299.81 377.14,-290.5 372.44,-295.69"/>
</a>
</g>
<text text-anchor="middle" x="387.5" y="-274" font-family="Helvetica,sans-Serif" font-size="10.00" fill="grey"> elements</text>
</g>
<!-- Node5 -->
<g id="Node000005" class="node">
<title>Node5</title>
<g id="a_Node000005"><a xlink:title=" ">
<polygon fill="white" stroke="#666666" points="444,-396 340,-396 340,-366 444,-366 444,-396"/>
<text text-anchor="start" x="348" y="-384" font-family="Helvetica,sans-Serif" font-size="10.00">std::basic_string&lt;</text>
<text text-anchor="middle" x="392" y="-373" font-family="Helvetica,sans-Serif" font-size="10.00"> Char &gt;</text>
</a>
</g>
</g>
<!-- Node5&#45;&gt;Node4 -->
<g id="edge4_Node000004_Node000005" class="edge">
<title>Node5&#45;&gt;Node4</title>
<g id="a_edge4_Node000004_Node000005"><a xlink:title=" ">
<path fill="none" stroke="#63b8ff" d="M392,-355.56C392,-342.95 392,-328.35 392,-319.27"/>
<polygon fill="#63b8ff" stroke="#63b8ff" points="388.5,-355.94 392,-365.94 395.5,-355.94 388.5,-355.94"/>
</a>
</g>
</g>
<!-- Node6 -->
<g id="Node000006" class="node">
<title>Node6</title>
<g id="a_Node000006"><a xlink:title=" ">
<polygon fill="white" stroke="#666666" points="232,-246 108,-246 108,-227 232,-227 232,-246"/>
<text text-anchor="middle" x="170" y="-234" font-family="Helvetica,sans-Serif" font-size="10.00">std::vector&lt; double &gt;</text>
</a>
</g>
</g>
<!-- Node6&#45;&gt;Node3 -->
<g id="edge5_Node000003_Node000006" class="edge">
<title>Node6&#45;&gt;Node3</title>
<g id="a_edge5_Node000003_Node000006"><a xlink:title=" ">
<path fill="none" stroke="#9a32cd" stroke-dasharray="5,2" d="M193.51,-221.21C201.91,-215.66 211.21,-208.96 219,-202 228.64,-193.39 228,-188.18 238,-180 246.55,-173 257.21,-166.82 266.21,-162.2"/>
<polygon fill="#9a32cd" stroke="#9a32cd" points="191.41,-218.41 184.87,-226.75 195.18,-224.3 191.41,-218.41"/>
</a>
</g>
<text text-anchor="middle" x="270.5" y="-188.5" font-family="Helvetica,sans-Serif" font-size="10.00" fill="grey"> parameters_</text>
</g>
<!-- Node7 -->
<g id="Node000007" class="node">
<title>Node7</title>
<g id="a_Node000007"><a xlink:title=" ">
<polygon fill="white" stroke="#666666" points="218.5,-319 121.5,-319 121.5,-300 218.5,-300 218.5,-319"/>
<text text-anchor="middle" x="170" y="-307" font-family="Helvetica,sans-Serif" font-size="10.00">std::vector&lt; T &gt;</text>
</a>
</g>
</g>
<!-- Node7&#45;&gt;Node2 -->
<g id="edge11_Node000002_Node000007" class="edge">
<title>Node7&#45;&gt;Node2</title>
<g id="a_edge11_Node000002_Node000007"><a xlink:title=" ">
<path fill="none" stroke="orange" stroke-dasharray="5,2" d="M146.02,-294.21C119.33,-276.56 78.31,-243.68 66,-202 55.01,-164.78 69.63,-119.07 78.73,-96.3"/>
<polygon fill="orange" stroke="orange" points="144.48,-297.38 154.8,-299.81 148.25,-291.48 144.48,-297.38"/>
</a>
</g>
<text text-anchor="start" x="66" y="-194" font-family="Helvetica,sans-Serif" font-size="10.00" fill="grey"> &lt; sierra::nalu::PostProcessing</text>
<text text-anchor="middle" x="140.5" y="-183" font-family="Helvetica,sans-Serif" font-size="10.00" fill="grey">Data * &gt;</text>
</g>
<!-- Node7&#45;&gt;Node6 -->
<g id="edge6_Node000006_Node000007" class="edge">
<title>Node7&#45;&gt;Node6</title>
<g id="a_edge6_Node000006_Node000007"><a xlink:title=" ">
<path fill="none" stroke="orange" stroke-dasharray="5,2" d="M170,-289.73C170,-275.66 170,-257.06 170,-246.28"/>
<polygon fill="orange" stroke="orange" points="166.5,-289.79 170,-299.79 173.5,-289.79 166.5,-289.79"/>
</a>
</g>
<text text-anchor="middle" x="199.5" y="-274" font-family="Helvetica,sans-Serif" font-size="10.00" fill="grey"> &lt; double &gt;</text>
</g>
<!-- Node7&#45;&gt;Node9 -->
<g id="edge10_Node000009_Node000007" class="edge">
<title>Node7&#45;&gt;Node9</title>
<g id="a_edge10_Node000009_Node000007"><a xlink:title=" ">
<path fill="none" stroke="orange" stroke-dasharray="5,2" d="M200.89,-296.05C211.17,-291.76 222.65,-286.82 233,-282 258.23,-270.26 286.84,-255.3 304.14,-246.06"/>
<polygon fill="orange" stroke="orange" points="199.37,-292.89 191.46,-299.94 202.04,-299.36 199.37,-292.89"/>
</a>
</g>
<text text-anchor="middle" x="292.5" y="-274" font-family="Helvetica,sans-Serif" font-size="10.00" fill="grey"> &lt; std::string &gt;</text>
</g>
<!-- Node8 -->
<g id="Node000008" class="node">
<title>Node8</title>
<g id="a_Node000008"><a xlink:title=" ">
<polygon fill="white" stroke="#666666" points="184.5,-390.5 155.5,-390.5 155.5,-371.5 184.5,-371.5 184.5,-390.5"/>
<text text-anchor="middle" x="170" y="-378.5" font-family="Helvetica,sans-Serif" font-size="10.00">T</text>
</a>
</g>
</g>
<!-- Node8&#45;&gt;Node7 -->
<g id="edge7_Node000007_Node000008" class="edge">
<title>Node8&#45;&gt;Node7</title>
<g id="a_edge7_Node000007_Node000008"><a xlink:title=" ">
<path fill="none" stroke="#9a32cd" stroke-dasharray="5,2" d="M170,-361.21C170,-347.5 170,-329.55 170,-319.09"/>
<polygon fill="#9a32cd" stroke="#9a32cd" points="166.5,-361.48 170,-371.48 173.5,-361.48 166.5,-361.48"/>
</a>
</g>
<text text-anchor="middle" x="194.5" y="-340" font-family="Helvetica,sans-Serif" font-size="10.00" fill="grey"> elements</text>
</g>
<!-- Node9&#45;&gt;Node3 -->
<g id="edge8_Node000003_Node000009" class="edge">
<title>Node9&#45;&gt;Node3</title>
<g id="a_edge8_Node000003_Node000009"><a xlink:title=" ">
<path fill="none" stroke="#9a32cd" stroke-dasharray="5,2" d="M317.84,-216.9C316.02,-205.76 312.75,-191.56 307,-180 303.7,-173.36 298.43,-166.94 293.88,-162.08"/>
<polygon fill="#9a32cd" stroke="#9a32cd" points="314.37,-217.39 319.21,-226.81 321.3,-216.42 314.37,-217.39"/>
</a>
</g>
<text text-anchor="middle" x="351.5" y="-188.5" font-family="Helvetica,sans-Serif" font-size="10.00" fill="grey"> targetNames_</text>
</g>
</g>
</svg>
