<?xml version="1.0" encoding="UTF-8" standalone="no"?>
<!DOCTYPE svg PUBLIC "-//W3C//DTD SVG 1.1//EN"
 "http://www.w3.org/Graphics/SVG/1.1/DTD/svg11.dtd">
<!-- Generated by graphviz version 2.43.0 (0)
 -->
<!-- Title: sierra::nalu::WallDistElemKernel&lt; AlgTraits &gt; Pages: 1 -->
<svg width="832pt" height="86pt"
 viewBox="0.00 0.00 832.00 86.00" xmlns="http://www.w3.org/2000/svg" xmlns:xlink="http://www.w3.org/1999/xlink">
<g id="graph0" class="graph" transform="scale(1 1) rotate(0) translate(4 82)">
<title>sierra::nalu::WallDistElemKernel&lt; AlgTraits &gt;</title>
<!-- Node1 -->
<g id="Node000001" class="node">
<title>Node1</title>
<g id="a_Node000001"><a xlink:title=" ">
<polygon fill="#999999" stroke="#666666" points="824,-42.5 681,-42.5 681,-12.5 824,-12.5 824,-42.5"/>
<text text-anchor="start" x="689" y="-30.5" font-family="Helvetica,sans-Serif" font-size="10.00">sierra::nalu::WallDistElem</text>
<text text-anchor="middle" x="752.5" y="-19.5" font-family="Helvetica,sans-Serif" font-size="10.00">Kernel&lt; AlgTraits &gt;</text>
</a>
</g>
</g>
<!-- Node2 -->
<g id="Node000002" class="node">
<title>Node2</title>
<g id="a_Node000002"><a xlink:href="classsierra_1_1nalu_1_1_n_g_p_kernel.html" target="_top" xlink:title=" ">
<polygon fill="white" stroke="#666666" points="592,-78 460,-78 460,-37 592,-37 592,-78"/>
<text text-anchor="start" x="468" y="-66" font-family="Helvetica,sans-Serif" font-size="10.00">sierra::nalu::NGPKernel</text>
<text text-anchor="start" x="468" y="-55" font-family="Helvetica,sans-Serif" font-size="10.00">&lt; WallDistElemKernel&lt;</text>
<text text-anchor="middle" x="526" y="-44" font-family="Helvetica,sans-Serif" font-size="10.00"> AlgTraits &gt; &gt;</text>
</a>
</g>
</g>
<!-- Node2&#45;&gt;Node1 -->
<g id="edge1_Node000001_Node000002" class="edge">
<title>Node2&#45;&gt;Node1</title>
<g id="a_edge1_Node000001_Node000002"><a xlink:title=" ">
<path fill="none" stroke="#63b8ff" d="M602.2,-47.45C627.64,-44.05 655.94,-40.27 681,-36.92"/>
<polygon fill="#63b8ff" stroke="#63b8ff" points="601.68,-43.99 592.24,-48.78 602.61,-50.93 601.68,-43.99"/>
</a>
</g>
</g>
<!-- Node3 -->
<g id="Node000003" class="node">
<title>Node3</title>
<g id="a_Node000003"><a xlink:href="classsierra_1_1nalu_1_1_kernel.html" target="_top" xlink:title="Base class for computational kernels in Nalu.">
<polygon fill="white" stroke="#666666" points="108,-66 0,-66 0,-47 108,-47 108,-66"/>
<text text-anchor="middle" x="54" y="-54" font-family="Helvetica,sans-Serif" font-size="10.00">sierra::nalu::Kernel</text>
</a>
</g>
</g>
<!-- Node3&#45;&gt;Node2 -->
<g id="edge2_Node000002_Node000003" class="edge">
<title>Node3&#45;&gt;Node2</title>
<g id="a_edge2_Node000002_Node000003"><a xlink:title=" ">
<path fill="none" stroke="#63b8ff" d="M118.26,-61.18C120.87,-61.3 123.46,-61.41 126,-61.5 261.92,-66.28 296.03,-64.42 432,-61.5 441.05,-61.31 450.59,-61 459.97,-60.65"/>
<polygon fill="#63b8ff" stroke="#63b8ff" points="118.26,-57.68 108.09,-60.65 117.9,-64.67 118.26,-57.68"/>
</a>
</g>
</g>
<!-- Node4 -->
<g id="Node000004" class="node">
<title>Node4</title>
<g id="a_Node000004"><a xlink:href="classsierra_1_1nalu_1_1_n_g_p_kernel.html" target="_top" xlink:title="Kernel that can be transferred to a device.">
<polygon fill="white" stroke="#666666" points="303,-47 145,-47 145,-28 303,-28 303,-47"/>
<text text-anchor="middle" x="224" y="-35" font-family="Helvetica,sans-Serif" font-size="10.00">sierra::nalu::NGPKernel&lt; T &gt;</text>
</a>
</g>
</g>
<!-- Node3&#45;&gt;Node4 -->
<g id="edge4_Node000004_Node000003" class="edge">
<title>Node3&#45;&gt;Node4</title>
<g id="a_edge4_Node000004_Node000003"><a xlink:title=" ">
<path fill="none" stroke="#63b8ff" d="M118.16,-49.36C126.83,-48.38 135.82,-47.36 144.72,-46.35"/>
<polygon fill="#63b8ff" stroke="#63b8ff" points="117.7,-45.89 108.16,-50.49 118.49,-52.84 117.7,-45.89"/>
</a>
</g>
</g>
<!-- Node4&#45;&gt;Node2 -->
<g id="edge3_Node000002_Node000004" class="edge">
<title>Node4&#45;&gt;Node2</title>
<g id="a_edge3_Node000002_Node000004"><a xlink:title=" ">
<path fill="none" stroke="orange" stroke-dasharray="5,2" d="M313.52,-34.83C350.25,-34.64 393.27,-35.6 432,-39.5 441.08,-40.42 450.6,-41.78 459.93,-43.36"/>
<polygon fill="orange" stroke="orange" points="313.3,-31.33 303.33,-34.92 313.36,-38.33 313.3,-31.33"/>
</a>
</g>
<text text-anchor="start" x="321" y="-53.5" font-family="Helvetica,sans-Serif" font-size="10.00" fill="grey"> &lt; WallDistElemKernel</text>
<text text-anchor="middle" x="376.5" y="-42.5" font-family="Helvetica,sans-Serif" font-size="10.00" fill="grey">&lt; AlgTraits &gt; &gt;</text>
</g>
<!-- Node5 -->
<g id="Node000005" class="node">
<title>Node5</title>
<g id="a_Node000005"><a xlink:href="classsierra_1_1nalu_1_1_master_element.html" target="_top" xlink:title=" ">
<polygon fill="white" stroke="#666666" points="602,-19 450,-19 450,0 602,0 602,-19"/>
<text text-anchor="middle" x="526" y="-7" font-family="Helvetica,sans-Serif" font-size="10.00">sierra::nalu::MasterElement</text>
</a>
</g>
</g>
<!-- Node5&#45;&gt;Node1 -->
<g id="edge5_Node000001_Node000005" class="edge">
<title>Node5&#45;&gt;Node1</title>
<g id="a_edge5_Node000001_Node000005"><a xlink:title=" ">
<path fill="none" stroke="#9a32cd" stroke-dasharray="5,2" d="M612.58,-12.09C629.32,-12.93 646.72,-14.04 663,-15.5 668.71,-16.01 674.62,-16.63 680.56,-17.3"/>
<polygon fill="#9a32cd" stroke="#9a32cd" points="612.41,-8.58 602.26,-11.6 612.08,-15.57 612.41,-8.58"/>
</a>
</g>
<text text-anchor="middle" x="641.5" y="-29.5" font-family="Helvetica,sans-Serif" font-size="10.00" fill="grey"> meSCS_</text>
<text text-anchor="middle" x="641.5" y="-18.5" font-family="Helvetica,sans-Serif" font-size="10.00" fill="grey">meSCV_</text>
</g>
</g>
</svg>
