<?xml version="1.0" encoding="UTF-8" standalone="no"?>
<!DOCTYPE svg PUBLIC "-//W3C//DTD SVG 1.1//EN"
 "http://www.w3.org/Graphics/SVG/1.1/DTD/svg11.dtd">
<!-- Generated by graphviz version 2.43.0 (0)
 -->
<!-- Title: sierra::nalu::EdgeKernel Pages: 1 -->
<svg width="979pt" height="53pt"
 viewBox="0.00 0.00 979.00 52.50" xmlns="http://www.w3.org/2000/svg" xmlns:xlink="http://www.w3.org/1999/xlink">
<g id="graph0" class="graph" transform="scale(1 1) rotate(0) translate(4 48.5)">
<title>sierra::nalu::EdgeKernel</title>
<polygon fill="white" stroke="transparent" points="-4,4 -4,-48.5 975,-48.5 975,4 -4,4"/>
<!-- Node1 -->
<g id="node1" class="node">
<title>Node1</title>
<g id="a_node1"><a xlink:title=" ">
<polygon fill="#bfbfbf" stroke="black" points="0,-19.5 0,-38.5 132,-38.5 132,-19.5 0,-19.5"/>
<text text-anchor="middle" x="66" y="-26.5" font-family="Helvetica,sans-Serif" font-size="10.00">sierra::nalu::EdgeKernel</text>
</a>
</g>
</g>
<!-- Node2 -->
<g id="node2" class="node">
<title>Node2</title>
<g id="a_node2"><a xlink:href="classsierra_1_1nalu_1_1_n_g_p_edge_kernel.html" target="_top" xlink:title=" ">
<polygon fill="white" stroke="black" points="538,-14 538,-44 744,-44 744,-14 538,-14"/>
<text text-anchor="start" x="546" y="-32" font-family="Helvetica,sans-Serif" font-size="10.00">sierra::nalu::NGPEdgeKernel</text>
<text text-anchor="middle" x="641" y="-21" font-family="Helvetica,sans-Serif" font-size="10.00">&lt; MomentumSSTAMSDiffEdgeKernel &gt;</text>
</a>
</g>
</g>
<!-- Node1&#45;&gt;Node2 -->
<g id="edge1" class="edge">
<title>Node1&#45;&gt;Node2</title>
<path fill="none" stroke="midnightblue" d="M142.31,-33.74C144.91,-33.84 147.47,-33.92 150,-34 314.37,-38.95 355.59,-37.42 520,-34 525.84,-33.88 531.83,-33.72 537.88,-33.54"/>
<polygon fill="midnightblue" stroke="midnightblue" points="142.37,-30.23 132.23,-33.3 142.07,-37.23 142.37,-30.23"/>
</g>
<!-- Node4 -->
<g id="node4" class="node">
<title>Node4</title>
<g id="a_node4"><a xlink:href="classsierra_1_1nalu_1_1_n_g_p_edge_kernel.html" target="_top" xlink:title=" ">
<polygon fill="white" stroke="black" points="169,-0.5 169,-19.5 351,-19.5 351,-0.5 169,-0.5"/>
<text text-anchor="middle" x="260" y="-7.5" font-family="Helvetica,sans-Serif" font-size="10.00">sierra::nalu::NGPEdgeKernel&lt; T &gt;</text>
</a>
</g>
</g>
<!-- Node1&#45;&gt;Node4 -->
<g id="edge3" class="edge">
<title>Node1&#45;&gt;Node4</title>
<path fill="none" stroke="midnightblue" d="M142.16,-21.56C150.92,-20.7 159.92,-19.8 168.86,-18.92"/>
<polygon fill="midnightblue" stroke="midnightblue" points="141.61,-18.1 132,-22.57 142.3,-25.07 141.61,-18.1"/>
</g>
<!-- Node3 -->
<g id="node3" class="node">
<title>Node3</title>
<g id="a_node3"><a xlink:href="classsierra_1_1nalu_1_1_momentum_s_s_t_a_m_s_diff_edge_kernel.html" target="_top" xlink:title=" ">
<polygon fill="white" stroke="black" points="781,-14 781,-44 971,-44 971,-14 781,-14"/>
<text text-anchor="start" x="789" y="-32" font-family="Helvetica,sans-Serif" font-size="10.00">sierra::nalu::MomentumSSTAMSDiff</text>
<text text-anchor="middle" x="876" y="-21" font-family="Helvetica,sans-Serif" font-size="10.00">EdgeKernel</text>
</a>
</g>
</g>
<!-- Node2&#45;&gt;Node3 -->
<g id="edge2" class="edge">
<title>Node2&#45;&gt;Node3</title>
<path fill="none" stroke="midnightblue" d="M754.26,-29C763.2,-29 772.18,-29 780.97,-29"/>
<polygon fill="midnightblue" stroke="midnightblue" points="754.2,-25.5 744.2,-29 754.2,-32.5 754.2,-25.5"/>
</g>
<!-- Node4&#45;&gt;Node2 -->
<g id="edge4" class="edge">
<title>Node4&#45;&gt;Node2</title>
<path fill="none" stroke="orange" stroke-dasharray="5,2" d="M361.12,-7.68C409.23,-7.35 467.67,-8.11 520,-12 527.03,-12.52 534.27,-13.2 541.56,-13.98"/>
<polygon fill="orange" stroke="orange" points="360.99,-4.18 351.02,-7.76 361.05,-11.18 360.99,-4.18"/>
<text text-anchor="start" x="369" y="-26" font-family="Helvetica,sans-Serif" font-size="10.00"> &lt; MomentumSSTAMSDiffEdge</text>
<text text-anchor="middle" x="444.5" y="-15" font-family="Helvetica,sans-Serif" font-size="10.00">Kernel &gt;</text>
</g>
</g>
</svg>
