<?xml version="1.0" encoding="UTF-8" standalone="no"?>
<!DOCTYPE svg PUBLIC "-//W3C//DTD SVG 1.1//EN"
 "http://www.w3.org/Graphics/SVG/1.1/DTD/svg11.dtd">
<!-- Generated by graphviz version 2.43.0 (0)
 -->
<!-- Title: sierra::nalu::matrix_free::MatrixFreeSolver Pages: 1 -->
<svg width="212pt" height="239pt"
 viewBox="0.00 0.00 211.50 239.00" xmlns="http://www.w3.org/2000/svg" xmlns:xlink="http://www.w3.org/1999/xlink">
<g id="graph0" class="graph" transform="scale(1 1) rotate(0) translate(4 235)">
<title>sierra::nalu::matrix_free::MatrixFreeSolver</title>
<polygon fill="white" stroke="transparent" points="-4,4 -4,-235 207.5,-235 207.5,4 -4,4"/>
<!-- Node1 -->
<g id="node1" class="node">
<title>Node1</title>
<g id="a_node1"><a xlink:title=" ">
<polygon fill="#bfbfbf" stroke="black" points="23,-0.5 23,-30.5 154,-30.5 154,-0.5 23,-0.5"/>
<text text-anchor="start" x="31" y="-18.5" font-family="Helvetica,sans-Serif" font-size="10.00">sierra::nalu::matrix</text>
<text text-anchor="middle" x="88.5" y="-7.5" font-family="Helvetica,sans-Serif" font-size="10.00">_free::MatrixFreeSolver</text>
</a>
</g>
</g>
<!-- Node2 -->
<g id="node2" class="node">
<title>Node2</title>
<g id="a_node2"><a xlink:href="class_belos_1_1_linear_problem.html" target="_top" xlink:title=" ">
<polygon fill="white" stroke="black" points="0,-78.5 0,-119.5 177,-119.5 177,-78.5 0,-78.5"/>
<text text-anchor="start" x="8" y="-107.5" font-family="Helvetica,sans-Serif" font-size="10.00">Belos::LinearProblem</text>
<text text-anchor="start" x="8" y="-96.5" font-family="Helvetica,sans-Serif" font-size="10.00">&lt; typename mv_type::scalar</text>
<text text-anchor="middle" x="88.5" y="-85.5" font-family="Helvetica,sans-Serif" font-size="10.00">_type, mv_type, base_op_type &gt;</text>
</a>
</g>
</g>
<!-- Node2&#45;&gt;Node1 -->
<g id="edge1" class="edge">
<title>Node2&#45;&gt;Node1</title>
<path fill="none" stroke="#9a32cd" stroke-dasharray="5,2" d="M88.5,-68.03C88.5,-55.26 88.5,-40.97 88.5,-30.68"/>
<polygon fill="#9a32cd" stroke="#9a32cd" points="85,-68.27 88.5,-78.27 92,-68.27 85,-68.27"/>
<text text-anchor="middle" x="113" y="-52" font-family="Helvetica,sans-Serif" font-size="10.00"> problem_</text>
</g>
<!-- Node3 -->
<g id="node3" class="node">
<title>Node3</title>
<g id="a_node3"><a xlink:href="class_belos_1_1_linear_problem.html" target="_top" xlink:title=" ">
<polygon fill="white" stroke="black" points="27.5,-189.5 27.5,-230.5 149.5,-230.5 149.5,-189.5 27.5,-189.5"/>
<text text-anchor="start" x="35.5" y="-218.5" font-family="Helvetica,sans-Serif" font-size="10.00">Belos::LinearProblem</text>
<text text-anchor="start" x="35.5" y="-207.5" font-family="Helvetica,sans-Serif" font-size="10.00">&lt; Scalar, MultiVector,</text>
<text text-anchor="middle" x="88.5" y="-196.5" font-family="Helvetica,sans-Serif" font-size="10.00"> Operator &gt;</text>
</a>
</g>
</g>
<!-- Node3&#45;&gt;Node2 -->
<g id="edge2" class="edge">
<title>Node3&#45;&gt;Node2</title>
<path fill="none" stroke="orange" stroke-dasharray="5,2" d="M88.5,-179.05C88.5,-160.1 88.5,-136.14 88.5,-119.59"/>
<polygon fill="orange" stroke="orange" points="85,-179.26 88.5,-189.26 92,-179.26 85,-179.26"/>
<text text-anchor="start" x="88.5" y="-163" font-family="Helvetica,sans-Serif" font-size="10.00"> &lt; typename mv_type</text>
<text text-anchor="start" x="88.5" y="-152" font-family="Helvetica,sans-Serif" font-size="10.00">::scalar_type, mv_type,</text>
<text text-anchor="middle" x="146" y="-141" font-family="Helvetica,sans-Serif" font-size="10.00"> base_op_type &gt;</text>
</g>
</g>
</svg>
