<?xml version="1.0" encoding="UTF-8" standalone="no"?>
<!DOCTYPE svg PUBLIC "-//W3C//DTD SVG 1.1//EN"
 "http://www.w3.org/Graphics/SVG/1.1/DTD/svg11.dtd">
<!-- Generated by graphviz version 2.43.0 (0)
 -->
<!-- Title: sierra::nalu::OversetConstraintBase Pages: 1 -->
<svg width="751pt" height="182pt"
 viewBox="0.00 0.00 751.00 182.00" xmlns="http://www.w3.org/2000/svg" xmlns:xlink="http://www.w3.org/1999/xlink">
<g id="graph0" class="graph" transform="scale(1 1) rotate(0) translate(4 178)">
<title>sierra::nalu::OversetConstraintBase</title>
<!-- Node1 -->
<g id="Node000001" class="node">
<title>Node1</title>
<g id="a_Node000001"><a xlink:title=" ">
<polygon fill="#999999" stroke="#666666" points="543,-96.5 353,-96.5 353,-77.5 543,-77.5 543,-96.5"/>
<text text-anchor="middle" x="448" y="-84.5" font-family="Helvetica,sans-Serif" font-size="10.00">sierra::nalu::OversetConstraintBase</text>
</a>
</g>
</g>
<!-- Node4 -->
<g id="Node000004" class="node">
<title>Node4</title>
<g id="a_Node000004"><a xlink:href="classsierra_1_1nalu_1_1_assemble_overset_decoupled_algorithm.html" target="_top" xlink:title=" ">
<polygon fill="white" stroke="#666666" points="743,-174 579,-174 579,-144 743,-144 743,-174"/>
<text text-anchor="start" x="587" y="-162" font-family="Helvetica,sans-Serif" font-size="10.00">sierra::nalu::AssembleOverset</text>
<text text-anchor="middle" x="661" y="-151" font-family="Helvetica,sans-Serif" font-size="10.00">DecoupledAlgorithm</text>
</a>
</g>
</g>
<!-- Node1&#45;&gt;Node4 -->
<g id="edge3_Node000001_Node000004" class="edge">
<title>Node1&#45;&gt;Node4</title>
<g id="a_edge3_Node000001_Node000004"><a xlink:title=" ">
<path fill="none" stroke="#63b8ff" d="M482.71,-100.14C508.83,-110.15 546,-124.03 579,-135 588.05,-138.01 597.72,-141.03 607.12,-143.88"/>
<polygon fill="#63b8ff" stroke="#63b8ff" points="483.86,-96.83 473.27,-96.5 481.35,-103.36 483.86,-96.83"/>
</a>
</g>
</g>
<!-- Node5 -->
<g id="Node000005" class="node">
<title>Node5</title>
<g id="a_Node000005"><a xlink:href="classsierra_1_1nalu_1_1_assemble_overset_pressure_algorithm.html" target="_top" xlink:title="Populate the Continuity linear system for the overset constraint rows.">
<polygon fill="white" stroke="#666666" points="743,-126 579,-126 579,-96 743,-96 743,-126"/>
<text text-anchor="start" x="587" y="-114" font-family="Helvetica,sans-Serif" font-size="10.00">sierra::nalu::AssembleOverset</text>
<text text-anchor="middle" x="661" y="-103" font-family="Helvetica,sans-Serif" font-size="10.00">PressureAlgorithm</text>
</a>
</g>
</g>
<!-- Node1&#45;&gt;Node5 -->
<g id="edge4_Node000001_Node000005" class="edge">
<title>Node1&#45;&gt;Node5</title>
<g id="a_edge4_Node000001_Node000005"><a xlink:title=" ">
<path fill="none" stroke="#63b8ff" d="M542.74,-97.66C554.77,-99.03 567.01,-100.42 578.82,-101.77"/>
<polygon fill="#63b8ff" stroke="#63b8ff" points="543.03,-94.17 532.7,-96.52 542.24,-101.13 543.03,-94.17"/>
</a>
</g>
</g>
<!-- Node6 -->
<g id="Node000006" class="node">
<title>Node6</title>
<g id="a_Node000006"><a xlink:href="classsierra_1_1nalu_1_1_assemble_overset_solver_constraint_algorithm.html" target="_top" xlink:title=" ">
<polygon fill="white" stroke="#666666" points="743,-78 579,-78 579,-48 743,-48 743,-78"/>
<text text-anchor="start" x="587" y="-66" font-family="Helvetica,sans-Serif" font-size="10.00">sierra::nalu::AssembleOverset</text>
<text text-anchor="middle" x="661" y="-55" font-family="Helvetica,sans-Serif" font-size="10.00">SolverConstraintAlgorithm</text>
</a>
</g>
</g>
<!-- Node1&#45;&gt;Node6 -->
<g id="edge5_Node000001_Node000006" class="edge">
<title>Node1&#45;&gt;Node6</title>
<g id="a_edge5_Node000001_Node000006"><a xlink:title=" ">
<path fill="none" stroke="#63b8ff" d="M542.74,-76.34C554.77,-74.97 567.01,-73.58 578.82,-72.23"/>
<polygon fill="#63b8ff" stroke="#63b8ff" points="542.24,-72.87 532.7,-77.48 543.03,-79.83 542.24,-72.87"/>
</a>
</g>
</g>
<!-- Node7 -->
<g id="Node000007" class="node">
<title>Node7</title>
<g id="a_Node000007"><a xlink:href="classsierra_1_1nalu_1_1_assemble_overset_wall_dist_algorithm.html" target="_top" xlink:title="Populate the Continuity linear system for the overset constraint rows.">
<polygon fill="white" stroke="#666666" points="743,-30 579,-30 579,0 743,0 743,-30"/>
<text text-anchor="start" x="587" y="-18" font-family="Helvetica,sans-Serif" font-size="10.00">sierra::nalu::AssembleOverset</text>
<text text-anchor="middle" x="661" y="-7" font-family="Helvetica,sans-Serif" font-size="10.00">WallDistAlgorithm</text>
</a>
</g>
</g>
<!-- Node1&#45;&gt;Node7 -->
<g id="edge6_Node000001_Node000007" class="edge">
<title>Node1&#45;&gt;Node7</title>
<g id="a_edge6_Node000001_Node000007"><a xlink:title=" ">
<path fill="none" stroke="#63b8ff" d="M482.71,-73.86C508.83,-63.85 546,-49.97 579,-39 588.05,-35.99 597.72,-32.97 607.12,-30.12"/>
<polygon fill="#63b8ff" stroke="#63b8ff" points="481.35,-70.64 473.27,-77.5 483.86,-77.17 481.35,-70.64"/>
</a>
</g>
</g>
<!-- Node2 -->
<g id="Node000002" class="node">
<title>Node2</title>
<g id="a_Node000002"><a xlink:href="classsierra_1_1nalu_1_1_solver_algorithm.html" target="_top" xlink:title=" ">
<polygon fill="white" stroke="#666666" points="317,-96.5 161,-96.5 161,-77.5 317,-77.5 317,-96.5"/>
<text text-anchor="middle" x="239" y="-84.5" font-family="Helvetica,sans-Serif" font-size="10.00">sierra::nalu::SolverAlgorithm</text>
</a>
</g>
</g>
<!-- Node2&#45;&gt;Node1 -->
<g id="edge1_Node000001_Node000002" class="edge">
<title>Node2&#45;&gt;Node1</title>
<g id="a_edge1_Node000001_Node000002"><a xlink:title=" ">
<path fill="none" stroke="#63b8ff" d="M327.25,-87C335.66,-87 344.22,-87 352.69,-87"/>
<polygon fill="#63b8ff" stroke="#63b8ff" points="327.08,-83.5 317.08,-87 327.08,-90.5 327.08,-83.5"/>
</a>
</g>
</g>
<!-- Node3 -->
<g id="Node000003" class="node">
<title>Node3</title>
<g id="a_Node000003"><a xlink:href="classsierra_1_1nalu_1_1_algorithm.html" target="_top" xlink:title=" ">
<polygon fill="white" stroke="#666666" points="125,-96.5 0,-96.5 0,-77.5 125,-77.5 125,-96.5"/>
<text text-anchor="middle" x="62.5" y="-84.5" font-family="Helvetica,sans-Serif" font-size="10.00">sierra::nalu::Algorithm</text>
</a>
</g>
</g>
<!-- Node3&#45;&gt;Node2 -->
<g id="edge2_Node000002_Node000003" class="edge">
<title>Node3&#45;&gt;Node2</title>
<g id="a_edge2_Node000002_Node000003"><a xlink:title=" ">
<path fill="none" stroke="#63b8ff" d="M135.21,-87C143.66,-87 152.31,-87 160.83,-87"/>
<polygon fill="#63b8ff" stroke="#63b8ff" points="135.02,-83.5 125.02,-87 135.02,-90.5 135.02,-83.5"/>
</a>
</g>
</g>
</g>
</svg>
