<?xml version="1.0" encoding="UTF-8" standalone="no"?>
<!DOCTYPE svg PUBLIC "-//W3C//DTD SVG 1.1//EN"
 "http://www.w3.org/Graphics/SVG/1.1/DTD/svg11.dtd">
<!-- Generated by graphviz version 2.43.0 (0)
 -->
<!-- Title: sierra::nalu::KynemaSixDof Pages: 1 -->
<svg width="1997pt" height="586pt"
 viewBox="0.00 0.00 1997.00 586.44" xmlns="http://www.w3.org/2000/svg" xmlns:xlink="http://www.w3.org/1999/xlink">
<g id="graph0" class="graph" transform="scale(1 1) rotate(0) translate(4 582.44)">
<title>sierra::nalu::KynemaSixDof</title>
<!-- Node1 -->
<g id="Node000001" class="node">
<title>Node1</title>
<g id="a_Node000001"><a xlink:title=" ">
<polygon fill="#999999" stroke="#666666" points="1989,-271.94 1840,-271.94 1840,-252.94 1989,-252.94 1989,-271.94"/>
<text text-anchor="middle" x="1914.5" y="-259.94" font-family="Helvetica,sans-Serif" font-size="10.00">sierra::nalu::KynemaSixDof</text>
</a>
</g>
</g>
<!-- Node2 -->
<g id="Node000002" class="node">
<title>Node2</title>
<g id="a_Node000002"><a xlink:title=" ">
<polygon fill="white" stroke="#666666" points="516.5,-549.44 400.5,-549.44 400.5,-519.44 516.5,-519.44 516.5,-549.44"/>
<text text-anchor="start" x="408.5" y="-537.44" font-family="Helvetica,sans-Serif" font-size="10.00">std::shared_ptr&lt; stk</text>
<text text-anchor="middle" x="458.5" y="-526.44" font-family="Helvetica,sans-Serif" font-size="10.00">::mesh::BulkData &gt;</text>
</a>
</g>
</g>
<!-- Node2&#45;&gt;Node1 -->
<g id="edge1_Node000001_Node000002" class="edge">
<title>Node2&#45;&gt;Node1</title>
<g id="a_edge1_Node000001_Node000002"><a xlink:title=" ">
<path fill="none" stroke="#9a32cd" stroke-dasharray="5,2" d="M526.79,-546.14C587.23,-555.63 678.52,-567.44 758.5,-567.44 758.5,-567.44 758.5,-567.44 1678.5,-567.44 1831.24,-567.44 1898.54,-324.45 1911.24,-272.24"/>
<polygon fill="#9a32cd" stroke="#9a32cd" points="527.04,-542.64 516.61,-544.52 525.94,-549.55 527.04,-542.64"/>
</a>
</g>
<text text-anchor="middle" x="1246.5" y="-570.44" font-family="Helvetica,sans-Serif" font-size="10.00" fill="grey"> bulk_</text>
</g>
<!-- Node8 -->
<g id="Node000008" class="node">
<title>Node8</title>
<g id="a_Node000008"><a xlink:href="structsierra_1_1nalu_1_1_point_mass.html" target="_top" xlink:title=" ">
<polygon fill="white" stroke="#666666" points="1469,-297.94 1341,-297.94 1341,-278.94 1469,-278.94 1469,-297.94"/>
<text text-anchor="middle" x="1405" y="-285.94" font-family="Helvetica,sans-Serif" font-size="10.00">sierra::nalu::PointMass</text>
</a>
</g>
</g>
<!-- Node2&#45;&gt;Node8 -->
<g id="edge26_Node000008_Node000002" class="edge">
<title>Node2&#45;&gt;Node8</title>
<g id="a_edge26_Node000008_Node000002"><a xlink:title=" ">
<path fill="none" stroke="#9a32cd" stroke-dasharray="5,2" d="M526.96,-534.91C707.64,-534.89 1197.3,-525.99 1323,-432.44 1370.86,-396.82 1394.42,-324.02 1401.57,-297.97"/>
<polygon fill="#9a32cd" stroke="#9a32cd" points="526.79,-531.41 516.79,-534.91 526.79,-538.41 526.79,-531.41"/>
</a>
</g>
<text text-anchor="middle" x="917.5" y="-528.44" font-family="Helvetica,sans-Serif" font-size="10.00" fill="grey"> bulk</text>
</g>
<!-- Node19 -->
<g id="Node000019" class="node">
<title>Node19</title>
<g id="a_Node000019"><a xlink:href="classsierra_1_1nalu_1_1_calc_loads.html" target="_top" xlink:title=" ">
<polygon fill="white" stroke="#666666" points="823,-365.94 696,-365.94 696,-346.94 823,-346.94 823,-365.94"/>
<text text-anchor="middle" x="759.5" y="-353.94" font-family="Helvetica,sans-Serif" font-size="10.00">sierra::nalu::CalcLoads</text>
</a>
</g>
</g>
<!-- Node2&#45;&gt;Node19 -->
<g id="edge30_Node000019_Node000002" class="edge">
<title>Node2&#45;&gt;Node19</title>
<g id="a_edge30_Node000019_Node000002"><a xlink:title=" ">
<path fill="none" stroke="#9a32cd" stroke-dasharray="5,2" d="M495.03,-514.34C538.47,-489.65 614.1,-446.24 678,-407.44 701.19,-393.36 727.71,-376.39 743.77,-366.01"/>
<polygon fill="#9a32cd" stroke="#9a32cd" points="493.23,-511.34 486.26,-519.32 496.69,-517.43 493.23,-511.34"/>
</a>
</g>
<text text-anchor="middle" x="610" y="-489.44" font-family="Helvetica,sans-Serif" font-size="10.00" fill="grey"> bulk_</text>
</g>
<!-- Node3 -->
<g id="Node000003" class="node">
<title>Node3</title>
<g id="a_Node000003"><a xlink:title=" ">
<polygon fill="white" stroke="#666666" points="232,-421.94 114,-421.94 114,-402.94 232,-402.94 232,-421.94"/>
<text text-anchor="middle" x="173" y="-409.94" font-family="Helvetica,sans-Serif" font-size="10.00">std::shared_ptr&lt; T &gt;</text>
</a>
</g>
</g>
<!-- Node3&#45;&gt;Node2 -->
<g id="edge2_Node000002_Node000003" class="edge">
<title>Node3&#45;&gt;Node2</title>
<g id="a_edge2_Node000002_Node000003"><a xlink:title=" ">
<path fill="none" stroke="orange" stroke-dasharray="5,2" d="M183.51,-431.01C195.73,-452.77 219.11,-488.07 250,-505.44 295.97,-531.29 356.44,-537.16 400.23,-537.39"/>
<polygon fill="orange" stroke="orange" points="186.52,-429.21 178.7,-422.07 180.36,-432.53 186.52,-429.21"/>
</a>
</g>
<text text-anchor="middle" x="312.5" y="-539.44" font-family="Helvetica,sans-Serif" font-size="10.00" fill="grey"> &lt; stk::mesh::BulkData &gt;</text>
</g>
<!-- Node9 -->
<g id="Node000009" class="node">
<title>Node9</title>
<g id="a_Node000009"><a xlink:title=" ">
<polygon fill="white" stroke="#666666" points="994,-447.44 841,-447.44 841,-417.44 994,-417.44 994,-447.44"/>
<text text-anchor="start" x="849" y="-435.44" font-family="Helvetica,sans-Serif" font-size="10.00">std::shared_ptr&lt; kynema</text>
<text text-anchor="middle" x="917.5" y="-424.44" font-family="Helvetica,sans-Serif" font-size="10.00">::interfaces::cfd::Interface &gt;</text>
</a>
</g>
</g>
<!-- Node3&#45;&gt;Node9 -->
<g id="edge10_Node000009_Node000003" class="edge">
<title>Node3&#45;&gt;Node9</title>
<g id="a_edge10_Node000009_Node000003"><a xlink:title=" ">
<path fill="none" stroke="orange" stroke-dasharray="5,2" d="M242.36,-414.28C381.36,-418.03 696.01,-426.5 840.89,-430.4"/>
<polygon fill="orange" stroke="orange" points="242.35,-410.78 232.26,-414.01 242.16,-417.78 242.35,-410.78"/>
</a>
</g>
<text text-anchor="start" x="404" y="-435.44" font-family="Helvetica,sans-Serif" font-size="10.00" fill="grey"> &lt; kynema::interfaces</text>
<text text-anchor="middle" x="458.5" y="-424.44" font-family="Helvetica,sans-Serif" font-size="10.00" fill="grey">::cfd::Interface &gt;</text>
</g>
<!-- Node18 -->
<g id="Node000018" class="node">
<title>Node18</title>
<g id="a_Node000018"><a xlink:title=" ">
<polygon fill="white" stroke="#666666" points="1146,-396.44 1018,-396.44 1018,-366.44 1146,-366.44 1146,-396.44"/>
<text text-anchor="start" x="1026" y="-384.44" font-family="Helvetica,sans-Serif" font-size="10.00">std::shared_ptr&lt; sierra</text>
<text text-anchor="middle" x="1082" y="-373.44" font-family="Helvetica,sans-Serif" font-size="10.00">::nalu::CalcLoads &gt;</text>
</a>
</g>
</g>
<!-- Node3&#45;&gt;Node18 -->
<g id="edge31_Node000018_Node000003" class="edge">
<title>Node3&#45;&gt;Node18</title>
<g id="a_edge31_Node000018_Node000003"><a xlink:title=" ">
<path fill="none" stroke="orange" stroke-dasharray="5,2" d="M242.19,-410.11C412.21,-404.3 853.02,-389.23 1017.7,-383.6"/>
<polygon fill="orange" stroke="orange" points="241.99,-406.62 232.12,-410.45 242.23,-413.61 241.99,-406.62"/>
</a>
</g>
<text text-anchor="middle" x="610" y="-402.44" font-family="Helvetica,sans-Serif" font-size="10.00" fill="grey"> &lt; sierra::nalu::CalcLoads &gt;</text>
</g>
<!-- Node4 -->
<g id="Node000004" class="node">
<title>Node4</title>
<g id="a_Node000004"><a xlink:title=" ">
<polygon fill="white" stroke="#666666" points="29,-248.94 0,-248.94 0,-229.94 29,-229.94 29,-248.94"/>
<text text-anchor="middle" x="14.5" y="-236.94" font-family="Helvetica,sans-Serif" font-size="10.00">T</text>
</a>
</g>
</g>
<!-- Node4&#45;&gt;Node3 -->
<g id="edge3_Node000003_Node000004" class="edge">
<title>Node4&#45;&gt;Node3</title>
<g id="a_edge3_Node000003_Node000004"><a xlink:title=" ">
<path fill="none" stroke="#9a32cd" stroke-dasharray="5,2" d="M31.11,-256.7C63.63,-292.64 137.71,-374.54 163.2,-402.71"/>
<polygon fill="#9a32cd" stroke="#9a32cd" points="33.44,-254.06 24.14,-248.99 28.25,-258.75 33.44,-254.06"/>
</a>
</g>
<text text-anchor="middle" x="71.5" y="-328.44" font-family="Helvetica,sans-Serif" font-size="10.00" fill="grey"> ptr</text>
</g>
<!-- Node6 -->
<g id="Node000006" class="node">
<title>Node6</title>
<g id="a_Node000006"><a xlink:title=" ">
<polygon fill="white" stroke="#666666" points="219,-88.94 127,-88.94 127,-69.94 219,-69.94 219,-88.94"/>
<text text-anchor="middle" x="173" y="-76.94" font-family="Helvetica,sans-Serif" font-size="10.00">std::array&lt; T &gt;</text>
</a>
</g>
</g>
<!-- Node4&#45;&gt;Node6 -->
<g id="edge6_Node000006_Node000004" class="edge">
<title>Node4&#45;&gt;Node6</title>
<g id="a_edge6_Node000006_Node000004"><a xlink:title=" ">
<path fill="none" stroke="#9a32cd" stroke-dasharray="5,2" d="M31.86,-222.72C64.46,-189.38 136.64,-115.59 162.53,-89.12"/>
<polygon fill="#9a32cd" stroke="#9a32cd" points="29.31,-220.32 24.82,-229.91 34.32,-225.21 29.31,-220.32"/>
</a>
</g>
<text text-anchor="middle" x="71.5" y="-208.44" font-family="Helvetica,sans-Serif" font-size="10.00" fill="grey"> elements</text>
</g>
<!-- Node13 -->
<g id="Node000013" class="node">
<title>Node13</title>
<g id="a_Node000013"><a xlink:title=" ">
<polygon fill="white" stroke="#666666" points="221.5,-248.94 124.5,-248.94 124.5,-229.94 221.5,-229.94 221.5,-248.94"/>
<text text-anchor="middle" x="173" y="-236.94" font-family="Helvetica,sans-Serif" font-size="10.00">std::vector&lt; T &gt;</text>
</a>
</g>
</g>
<!-- Node4&#45;&gt;Node13 -->
<g id="edge18_Node000013_Node000004" class="edge">
<title>Node4&#45;&gt;Node13</title>
<g id="a_edge18_Node000013_Node000004"><a xlink:title=" ">
<path fill="none" stroke="#9a32cd" stroke-dasharray="5,2" d="M39.12,-239.44C61.64,-239.44 96.21,-239.44 124.45,-239.44"/>
<polygon fill="#9a32cd" stroke="#9a32cd" points="39.11,-235.94 29.11,-239.44 39.11,-242.94 39.11,-235.94"/>
</a>
</g>
<text text-anchor="middle" x="71.5" y="-242.44" font-family="Helvetica,sans-Serif" font-size="10.00" fill="grey"> elements</text>
</g>
<!-- Node5 -->
<g id="Node000005" class="node">
<title>Node5</title>
<g id="a_Node000005"><a xlink:title=" ">
<polygon fill="white" stroke="#666666" points="524,-88.94 393,-88.94 393,-69.94 524,-69.94 524,-88.94"/>
<text text-anchor="middle" x="458.5" y="-76.94" font-family="Helvetica,sans-Serif" font-size="10.00">std::array&lt; double, 3 &gt;</text>
</a>
</g>
</g>
<!-- Node5&#45;&gt;Node1 -->
<g id="edge4_Node000001_Node000005" class="edge">
<title>Node5&#45;&gt;Node1</title>
<g id="a_edge4_Node000001_Node000005"><a xlink:title=" ">
<path fill="none" stroke="#9a32cd" stroke-dasharray="5,2" d="M477.53,-62.82C493.27,-49.39 517.4,-31.31 542,-22.44 632.87,10.32 661.91,-3.44 758.5,-3.44 758.5,-3.44 758.5,-3.44 1678.5,-3.44 1816.02,-3.44 1894.15,-206.19 1910.34,-252.92"/>
<polygon fill="#9a32cd" stroke="#9a32cd" points="474.89,-60.48 469.69,-69.72 479.51,-65.74 474.89,-60.48"/>
</a>
</g>
<text text-anchor="middle" x="1246.5" y="-6.44" font-family="Helvetica,sans-Serif" font-size="10.00" fill="grey"> gravity_</text>
</g>
<!-- Node5&#45;&gt;Node8 -->
<g id="edge13_Node000008_Node000005" class="edge">
<title>Node5&#45;&gt;Node8</title>
<g id="a_edge13_Node000008_Node000005"><a xlink:title=" ">
<path fill="none" stroke="#9a32cd" stroke-dasharray="5,2" d="M534.28,-75.6C719.53,-67.48 1194.08,-55.65 1323,-139.44 1374.6,-172.98 1395.93,-251.07 1402.03,-278.61"/>
<polygon fill="#9a32cd" stroke="#9a32cd" points="533.92,-72.11 524.09,-76.05 534.23,-79.1 533.92,-72.11"/>
</a>
</g>
<text text-anchor="middle" x="917.5" y="-78.44" font-family="Helvetica,sans-Serif" font-size="10.00" fill="grey"> center_of_mass</text>
</g>
<!-- Node12 -->
<g id="Node000012" class="node">
<title>Node12</title>
<g id="a_Node000012"><a xlink:href="structsierra_1_1nalu_1_1_tether.html" target="_top" xlink:title=" ">
<polygon fill="white" stroke="#666666" points="813,-127.94 706,-127.94 706,-108.94 813,-108.94 813,-127.94"/>
<text text-anchor="middle" x="759.5" y="-115.94" font-family="Helvetica,sans-Serif" font-size="10.00">sierra::nalu::Tether</text>
</a>
</g>
</g>
<!-- Node5&#45;&gt;Node12 -->
<g id="edge16_Node000012_Node000005" class="edge">
<title>Node5&#45;&gt;Node12</title>
<g id="a_edge16_Node000012_Node000005"><a xlink:title=" ">
<path fill="none" stroke="#9a32cd" stroke-dasharray="5,2" d="M534.1,-89.17C587.44,-96.13 657.94,-105.32 705.57,-111.54"/>
<polygon fill="#9a32cd" stroke="#9a32cd" points="534.38,-85.68 524.01,-87.86 533.47,-92.62 534.38,-85.68"/>
</a>
</g>
<text text-anchor="middle" x="610" y="-121.44" font-family="Helvetica,sans-Serif" font-size="10.00" fill="grey"> anchor_position</text>
<text text-anchor="middle" x="610" y="-110.44" font-family="Helvetica,sans-Serif" font-size="10.00" fill="grey">fairlead_position</text>
</g>
<!-- Node6&#45;&gt;Node5 -->
<g id="edge5_Node000005_Node000006" class="edge">
<title>Node6&#45;&gt;Node5</title>
<g id="a_edge5_Node000005_Node000006"><a xlink:title=" ">
<path fill="none" stroke="orange" stroke-dasharray="5,2" d="M229.51,-79.44C276.4,-79.44 343.6,-79.44 392.9,-79.44"/>
<polygon fill="orange" stroke="orange" points="229.23,-75.94 219.23,-79.44 229.23,-82.94 229.23,-75.94"/>
</a>
</g>
<text text-anchor="middle" x="312.5" y="-82.44" font-family="Helvetica,sans-Serif" font-size="10.00" fill="grey"> &lt; double, 3 &gt;</text>
</g>
<!-- Node10 -->
<g id="Node000010" class="node">
<title>Node10</title>
<g id="a_Node000010"><a xlink:title=" ">
<polygon fill="white" stroke="#666666" points="675.5,-50.94 544.5,-50.94 544.5,-31.94 675.5,-31.94 675.5,-50.94"/>
<text text-anchor="middle" x="610" y="-38.94" font-family="Helvetica,sans-Serif" font-size="10.00">std::array&lt; double, 9 &gt;</text>
</a>
</g>
</g>
<!-- Node6&#45;&gt;Node10 -->
<g id="edge12_Node000010_Node000006" class="edge">
<title>Node6&#45;&gt;Node10</title>
<g id="a_edge12_Node000010_Node000006"><a xlink:title=" ">
<path fill="none" stroke="orange" stroke-dasharray="5,2" d="M227.16,-68.03C234.8,-66.66 242.58,-65.41 250,-64.44 352.34,-51.12 472.15,-45.41 544.23,-43.04"/>
<polygon fill="orange" stroke="orange" points="226.43,-64.61 217.24,-69.89 227.72,-71.49 226.43,-64.61"/>
</a>
</g>
<text text-anchor="middle" x="312.5" y="-67.44" font-family="Helvetica,sans-Serif" font-size="10.00" fill="grey"> &lt; double, 9 &gt;</text>
</g>
<!-- Node7 -->
<g id="Node000007" class="node">
<title>Node7</title>
<g id="a_Node000007"><a xlink:title=" ">
<polygon fill="white" stroke="#666666" points="1733,-303.44 1622,-303.44 1622,-273.44 1733,-273.44 1733,-303.44"/>
<text text-anchor="start" x="1630" y="-291.44" font-family="Helvetica,sans-Serif" font-size="10.00">std::vector&lt; sierra</text>
<text text-anchor="middle" x="1677.5" y="-280.44" font-family="Helvetica,sans-Serif" font-size="10.00">::nalu::PointMass &gt;</text>
</a>
</g>
</g>
<!-- Node7&#45;&gt;Node1 -->
<g id="edge7_Node000001_Node000007" class="edge">
<title>Node7&#45;&gt;Node1</title>
<g id="a_edge7_Node000001_Node000007"><a xlink:title=" ">
<path fill="none" stroke="#9a32cd" stroke-dasharray="5,2" d="M1743.32,-281.27C1773.19,-277.96 1808.8,-274.02 1839.71,-270.61"/>
<polygon fill="#9a32cd" stroke="#9a32cd" points="1742.56,-277.83 1733,-282.41 1743.33,-284.79 1742.56,-277.83"/>
</a>
</g>
<text text-anchor="middle" x="1786.5" y="-282.44" font-family="Helvetica,sans-Serif" font-size="10.00" fill="grey"> point_bodies_</text>
</g>
<!-- Node8&#45;&gt;Node7 -->
<g id="edge8_Node000007_Node000008" class="edge">
<title>Node8&#45;&gt;Node7</title>
<g id="a_edge8_Node000007_Node000008"><a xlink:title=" ">
<path fill="none" stroke="#9a32cd" stroke-dasharray="5,2" d="M1479.33,-288.44C1524.17,-288.44 1580.59,-288.44 1621.57,-288.44"/>
<polygon fill="#9a32cd" stroke="#9a32cd" points="1479.08,-284.94 1469.08,-288.44 1479.08,-291.94 1479.08,-284.94"/>
</a>
</g>
<text text-anchor="middle" x="1545.5" y="-291.44" font-family="Helvetica,sans-Serif" font-size="10.00" fill="grey"> elements</text>
</g>
<!-- Node9&#45;&gt;Node8 -->
<g id="edge9_Node000008_Node000009" class="edge">
<title>Node9&#45;&gt;Node8</title>
<g id="a_edge9_Node000008_Node000009"><a xlink:title=" ">
<path fill="none" stroke="#9a32cd" stroke-dasharray="5,2" d="M1004.26,-444.14C1090.41,-451.66 1224.2,-451.45 1323,-396.44 1364.16,-373.52 1390.62,-320.02 1400.09,-298.08"/>
<polygon fill="#9a32cd" stroke="#9a32cd" points="1004.54,-440.66 994.26,-443.22 1003.89,-447.63 1004.54,-440.66"/>
</a>
</g>
<text text-anchor="middle" x="1082" y="-450.44" font-family="Helvetica,sans-Serif" font-size="10.00" fill="grey"> kynema_interface</text>
</g>
<!-- Node10&#45;&gt;Node8 -->
<g id="edge11_Node000008_Node000010" class="edge">
<title>Node10&#45;&gt;Node8</title>
<g id="a_edge11_Node000008_Node000010"><a xlink:title=" ">
<path fill="none" stroke="#9a32cd" stroke-dasharray="5,2" d="M685.73,-39.22C858.15,-34.77 1272.88,-28.12 1323,-65.44 1395.02,-119.07 1403.12,-243.07 1403.94,-278.7"/>
<polygon fill="#9a32cd" stroke="#9a32cd" points="685.63,-35.72 675.72,-39.48 685.81,-42.72 685.63,-35.72"/>
</a>
</g>
<text text-anchor="middle" x="917.5" y="-39.44" font-family="Helvetica,sans-Serif" font-size="10.00" fill="grey"> moments_of_inertia</text>
</g>
<!-- Node11 -->
<g id="Node000011" class="node">
<title>Node11</title>
<g id="a_Node000011"><a xlink:title=" ">
<polygon fill="white" stroke="#666666" points="1135.5,-214.44 1028.5,-214.44 1028.5,-184.44 1135.5,-184.44 1135.5,-214.44"/>
<text text-anchor="start" x="1036.5" y="-202.44" font-family="Helvetica,sans-Serif" font-size="10.00">std::vector&lt; sierra</text>
<text text-anchor="middle" x="1082" y="-191.44" font-family="Helvetica,sans-Serif" font-size="10.00">::nalu::Tether &gt;</text>
</a>
</g>
</g>
<!-- Node11&#45;&gt;Node8 -->
<g id="edge14_Node000008_Node000011" class="edge">
<title>Node11&#45;&gt;Node8</title>
<g id="a_edge14_Node000008_Node000011"><a xlink:title=" ">
<path fill="none" stroke="#9a32cd" stroke-dasharray="5,2" d="M1145.64,-195.69C1195.51,-194.96 1266.13,-199.09 1323,-222.44 1353.88,-235.12 1382.21,-263.67 1395.71,-278.72"/>
<polygon fill="#9a32cd" stroke="#9a32cd" points="1145.57,-192.19 1135.64,-195.9 1145.72,-199.19 1145.57,-192.19"/>
</a>
</g>
<text text-anchor="middle" x="1246.5" y="-225.44" font-family="Helvetica,sans-Serif" font-size="10.00" fill="grey"> tethers</text>
</g>
<!-- Node12&#45;&gt;Node11 -->
<g id="edge15_Node000011_Node000012" class="edge">
<title>Node12&#45;&gt;Node11</title>
<g id="a_edge15_Node000011_Node000012"><a xlink:title=" ">
<path fill="none" stroke="#9a32cd" stroke-dasharray="5,2" d="M809.77,-130.45C857.06,-142.03 930.48,-160.16 994,-176.44 1005.05,-179.27 1016.87,-182.36 1028.12,-185.33"/>
<polygon fill="#9a32cd" stroke="#9a32cd" points="810.34,-126.99 799.79,-128.01 808.68,-133.79 810.34,-126.99"/>
</a>
</g>
<text text-anchor="middle" x="917.5" y="-179.44" font-family="Helvetica,sans-Serif" font-size="10.00" fill="grey"> elements</text>
</g>
<!-- Node13&#45;&gt;Node7 -->
<g id="edge32_Node000007_Node000013" class="edge">
<title>Node13&#45;&gt;Node7</title>
<g id="a_edge32_Node000007_Node000013"><a xlink:title=" ">
<path fill="none" stroke="orange" stroke-dasharray="5,2" d="M183.35,-258.22C213.93,-316.66 317.1,-491.44 457.5,-491.44 457.5,-491.44 457.5,-491.44 1406,-491.44 1531.06,-491.44 1635.27,-350.91 1666.75,-303.7"/>
<polygon fill="orange" stroke="orange" points="186.31,-256.32 178.64,-249.01 180.08,-259.51 186.31,-256.32"/>
</a>
</g>
<text text-anchor="middle" x="917.5" y="-494.44" font-family="Helvetica,sans-Serif" font-size="10.00" fill="grey"> &lt; sierra::nalu::PointMass &gt;</text>
</g>
<!-- Node13&#45;&gt;Node11 -->
<g id="edge17_Node000011_Node000013" class="edge">
<title>Node13&#45;&gt;Node11</title>
<g id="a_edge17_Node000011_Node000013"><a xlink:title=" ">
<path fill="none" stroke="orange" stroke-dasharray="5,2" d="M232.01,-236.33C238.08,-236.02 244.17,-235.72 250,-235.44 544.25,-221.32 897.23,-206.85 1028.49,-201.55"/>
<polygon fill="orange" stroke="orange" points="231.64,-232.85 221.84,-236.86 232,-239.84 231.64,-232.85"/>
</a>
</g>
<text text-anchor="middle" x="610" y="-224.44" font-family="Helvetica,sans-Serif" font-size="10.00" fill="grey"> &lt; sierra::nalu::Tether &gt;</text>
</g>
<!-- Node14 -->
<g id="Node000014" class="node">
<title>Node14</title>
<g id="a_Node000014"><a xlink:title=" ">
<polygon fill="white" stroke="#666666" points="1152,-251.94 1012,-251.94 1012,-232.94 1152,-232.94 1152,-251.94"/>
<text text-anchor="middle" x="1082" y="-239.94" font-family="Helvetica,sans-Serif" font-size="10.00">std::vector&lt; std::string &gt;</text>
</a>
</g>
</g>
<!-- Node13&#45;&gt;Node14 -->
<g id="edge22_Node000014_Node000013" class="edge">
<title>Node13&#45;&gt;Node14</title>
<g id="a_edge22_Node000014_Node000013"><a xlink:title=" ">
<path fill="none" stroke="orange" stroke-dasharray="5,2" d="M231.92,-239.63C391.83,-240.16 839.05,-241.64 1011.74,-242.21"/>
<polygon fill="orange" stroke="orange" points="231.82,-236.13 221.81,-239.6 231.79,-243.13 231.82,-236.13"/>
</a>
</g>
<text text-anchor="middle" x="610" y="-243.44" font-family="Helvetica,sans-Serif" font-size="10.00" fill="grey"> &lt; std::string &gt;</text>
</g>
<!-- Node17 -->
<g id="Node000017" class="node">
<title>Node17</title>
<g id="a_Node000017"><a xlink:title=" ">
<polygon fill="white" stroke="#666666" points="517.5,-334.94 399.5,-334.94 399.5,-315.94 517.5,-315.94 517.5,-334.94"/>
<text text-anchor="middle" x="458.5" y="-322.94" font-family="Helvetica,sans-Serif" font-size="10.00">std::vector&lt; Part * &gt;</text>
</a>
</g>
</g>
<!-- Node13&#45;&gt;Node17 -->
<g id="edge24_Node000017_Node000013" class="edge">
<title>Node13&#45;&gt;Node17</title>
<g id="a_edge24_Node000017_Node000013"><a xlink:title=" ">
<path fill="none" stroke="orange" stroke-dasharray="5,2" d="M214.53,-251.98C258.46,-265.54 330.64,-287.72 393,-306.44 403.4,-309.56 414.75,-312.92 425,-315.94"/>
<polygon fill="orange" stroke="orange" points="215.38,-248.58 204.8,-248.97 213.32,-255.27 215.38,-248.58"/>
</a>
</g>
<text text-anchor="middle" x="312.5" y="-301.44" font-family="Helvetica,sans-Serif" font-size="10.00" fill="grey"> &lt; Part * &gt;</text>
</g>
<!-- Node20 -->
<g id="Node000020" class="node">
<title>Node20</title>
<g id="a_Node000020"><a xlink:title=" ">
<polygon fill="white" stroke="#666666" points="1323,-178.44 1170,-178.44 1170,-148.44 1323,-148.44 1323,-178.44"/>
<text text-anchor="start" x="1178" y="-166.44" font-family="Helvetica,sans-Serif" font-size="10.00">std::vector&lt; kynema</text>
<text text-anchor="middle" x="1246.5" y="-155.44" font-family="Helvetica,sans-Serif" font-size="10.00">::interfaces::cfd::Interface &gt;</text>
</a>
</g>
</g>
<!-- Node13&#45;&gt;Node20 -->
<g id="edge34_Node000020_Node000013" class="edge">
<title>Node13&#45;&gt;Node20</title>
<g id="a_edge34_Node000020_Node000013"><a xlink:title=" ">
<path fill="none" stroke="orange" stroke-dasharray="5,2" d="M201.88,-225.5C251.81,-201.86 360.38,-156.44 457.5,-156.44 457.5,-156.44 457.5,-156.44 918.5,-156.44 1004.67,-156.44 1103.58,-158.9 1169.85,-160.9"/>
<polygon fill="orange" stroke="orange" points="200.19,-222.43 192.69,-229.92 203.22,-228.74 200.19,-222.43"/>
</a>
</g>
<text text-anchor="start" x="555.5" y="-170.44" font-family="Helvetica,sans-Serif" font-size="10.00" fill="grey"> &lt; kynema::interfaces</text>
<text text-anchor="middle" x="610" y="-159.44" font-family="Helvetica,sans-Serif" font-size="10.00" fill="grey">::cfd::Interface &gt;</text>
</g>
<!-- Node14&#45;&gt;Node8 -->
<g id="edge19_Node000008_Node000014" class="edge">
<title>Node14&#45;&gt;Node8</title>
<g id="a_edge19_Node000008_Node000014"><a xlink:title=" ">
<path fill="none" stroke="#9a32cd" stroke-dasharray="5,2" d="M1162.37,-238.34C1209.62,-237.72 1270.42,-240.13 1323,-252.44 1346.52,-257.95 1371.66,-270.24 1387.58,-278.92"/>
<polygon fill="#9a32cd" stroke="#9a32cd" points="1162.14,-234.84 1152.2,-238.52 1162.26,-241.84 1162.14,-234.84"/>
</a>
</g>
<text text-anchor="middle" x="1246.5" y="-266.44" font-family="Helvetica,sans-Serif" font-size="10.00" fill="grey"> forcing_surface_names</text>
<text text-anchor="middle" x="1246.5" y="-255.44" font-family="Helvetica,sans-Serif" font-size="10.00" fill="grey">moving_mesh_block_names</text>
</g>
<!-- Node15 -->
<g id="Node000015" class="node">
<title>Node15</title>
<g id="a_Node000015"><a xlink:title=" ">
<polygon fill="white" stroke="#666666" points="792,-289.94 727,-289.94 727,-270.94 792,-270.94 792,-289.94"/>
<text text-anchor="middle" x="759.5" y="-277.94" font-family="Helvetica,sans-Serif" font-size="10.00">std::string</text>
</a>
</g>
</g>
<!-- Node15&#45;&gt;Node8 -->
<g id="edge25_Node000008_Node000015" class="edge">
<title>Node15&#45;&gt;Node8</title>
<g id="a_edge25_Node000008_Node000015"><a xlink:title=" ">
<path fill="none" stroke="#9a32cd" stroke-dasharray="5,2" d="M802.46,-280.96C912.52,-282.33 1209.96,-286.03 1340.79,-287.66"/>
<polygon fill="#9a32cd" stroke="#9a32cd" points="802.45,-277.46 792.41,-280.84 802.37,-284.46 802.45,-277.46"/>
</a>
</g>
<text text-anchor="middle" x="1082" y="-298.44" font-family="Helvetica,sans-Serif" font-size="10.00" fill="grey"> output_file_name</text>
<text text-anchor="middle" x="1082" y="-287.44" font-family="Helvetica,sans-Serif" font-size="10.00" fill="grey">restart_file_name</text>
</g>
<!-- Node15&#45;&gt;Node14 -->
<g id="edge20_Node000014_Node000015" class="edge">
<title>Node15&#45;&gt;Node14</title>
<g id="a_edge20_Node000014_Node000015"><a xlink:title=" ">
<path fill="none" stroke="#9a32cd" stroke-dasharray="5,2" d="M802.2,-271.29C814.64,-268.79 828.33,-266.28 841,-264.44 898.35,-256.14 963.89,-250.38 1011.98,-246.84"/>
<polygon fill="#9a32cd" stroke="#9a32cd" points="801.19,-267.92 792.1,-273.36 802.6,-274.78 801.19,-267.92"/>
</a>
</g>
<text text-anchor="middle" x="917.5" y="-267.44" font-family="Helvetica,sans-Serif" font-size="10.00" fill="grey"> elements</text>
</g>
<!-- Node16 -->
<g id="Node000016" class="node">
<title>Node16</title>
<g id="a_Node000016"><a xlink:title=" ">
<polygon fill="white" stroke="#666666" points="510.5,-297.44 406.5,-297.44 406.5,-267.44 510.5,-267.44 510.5,-297.44"/>
<text text-anchor="start" x="414.5" y="-285.44" font-family="Helvetica,sans-Serif" font-size="10.00">std::basic_string&lt;</text>
<text text-anchor="middle" x="458.5" y="-274.44" font-family="Helvetica,sans-Serif" font-size="10.00"> Char &gt;</text>
</a>
</g>
</g>
<!-- Node16&#45;&gt;Node15 -->
<g id="edge21_Node000015_Node000016" class="edge">
<title>Node16&#45;&gt;Node15</title>
<g id="a_edge21_Node000015_Node000016"><a xlink:title=" ">
<path fill="none" stroke="#63b8ff" d="M520.7,-282.03C583.3,-281.61 678.1,-280.98 726.94,-280.65"/>
<polygon fill="#63b8ff" stroke="#63b8ff" points="520.54,-278.53 510.56,-282.1 520.58,-285.53 520.54,-278.53"/>
</a>
</g>
</g>
<!-- Node17&#45;&gt;Node8 -->
<g id="edge23_Node000008_Node000017" class="edge">
<title>Node17&#45;&gt;Node8</title>
<g id="a_edge23_Node000008_Node000017"><a xlink:title=" ">
<path fill="none" stroke="#9a32cd" stroke-dasharray="5,2" d="M528.03,-324.79C652.38,-323.43 923.52,-319.59 1152,-310.44 1228.07,-307.39 1247.27,-308.25 1323,-300.44 1329.79,-299.74 1336.88,-298.88 1343.92,-297.95"/>
<polygon fill="#9a32cd" stroke="#9a32cd" points="527.85,-321.29 517.89,-324.9 527.93,-328.29 527.85,-321.29"/>
</a>
</g>
<text text-anchor="middle" x="917.5" y="-333.44" font-family="Helvetica,sans-Serif" font-size="10.00" fill="grey"> forcing_surfaces</text>
<text text-anchor="middle" x="917.5" y="-322.44" font-family="Helvetica,sans-Serif" font-size="10.00" fill="grey">moving_mesh_blocks</text>
</g>
<!-- Node17&#45;&gt;Node19 -->
<g id="edge29_Node000019_Node000017" class="edge">
<title>Node17&#45;&gt;Node19</title>
<g id="a_edge29_Node000019_Node000017"><a xlink:title=" ">
<path fill="none" stroke="#9a32cd" stroke-dasharray="5,2" d="M527.68,-332.51C578.22,-337.75 646.56,-344.84 695.75,-349.94"/>
<polygon fill="#9a32cd" stroke="#9a32cd" points="527.81,-329 517.5,-331.45 527.09,-335.97 527.81,-329"/>
</a>
</g>
<text text-anchor="middle" x="610" y="-349.44" font-family="Helvetica,sans-Serif" font-size="10.00" fill="grey"> partVec_</text>
</g>
<!-- Node18&#45;&gt;Node8 -->
<g id="edge27_Node000008_Node000018" class="edge">
<title>Node18&#45;&gt;Node8</title>
<g id="a_edge27_Node000008_Node000018"><a xlink:title=" ">
<path fill="none" stroke="#9a32cd" stroke-dasharray="5,2" d="M1156.2,-382.78C1205.13,-381.27 1270.01,-374.5 1323,-352.44 1353.11,-339.91 1381.35,-312.85 1395.16,-298.25"/>
<polygon fill="#9a32cd" stroke="#9a32cd" points="1155.92,-379.29 1146.01,-383.03 1156.09,-386.29 1155.92,-379.29"/>
</a>
</g>
<text text-anchor="middle" x="1246.5" y="-384.44" font-family="Helvetica,sans-Serif" font-size="10.00" fill="grey"> calc_loads</text>
</g>
<!-- Node19&#45;&gt;Node18 -->
<g id="edge28_Node000018_Node000019" class="edge">
<title>Node19&#45;&gt;Node18</title>
<g id="a_edge28_Node000018_Node000019"><a xlink:title=" ">
<path fill="none" stroke="#9a32cd" stroke-dasharray="5,2" d="M833.25,-358.97C879.38,-360.94 940.27,-364.25 994,-369.44 1001.74,-370.19 1009.85,-371.12 1017.87,-372.12"/>
<polygon fill="#9a32cd" stroke="#9a32cd" points="833.18,-355.46 823.04,-358.54 832.89,-362.45 833.18,-355.46"/>
</a>
</g>
<text text-anchor="middle" x="917.5" y="-372.44" font-family="Helvetica,sans-Serif" font-size="10.00" fill="grey"> ptr</text>
</g>
<!-- Node20&#45;&gt;Node1 -->
<g id="edge33_Node000001_Node000020" class="edge">
<title>Node20&#45;&gt;Node1</title>
<g id="a_edge33_Node000001_Node000020"><a xlink:title=" ">
<path fill="none" stroke="#9a32cd" stroke-dasharray="5,2" d="M1333.17,-176.18C1468.47,-196.29 1728.61,-234.96 1849.21,-252.88"/>
<polygon fill="#9a32cd" stroke="#9a32cd" points="1333.66,-172.71 1323.25,-174.7 1332.63,-179.63 1333.66,-172.71"/>
</a>
</g>
<text text-anchor="middle" x="1545.5" y="-219.44" font-family="Helvetica,sans-Serif" font-size="10.00" fill="grey"> point_body_interfaces_</text>
</g>
</g>
</svg>
