<?xml version="1.0" encoding="UTF-8" standalone="no"?>
<!DOCTYPE svg PUBLIC "-//W3C//DTD SVG 1.1//EN"
 "http://www.w3.org/Graphics/SVG/1.1/DTD/svg11.dtd">
<!-- Generated by graphviz version 2.43.0 (0)
 -->
<!-- Title: sierra::nalu::MomentumMassBDFNodeKernel Pages: 1 -->
<svg width="352pt" height="231pt"
 viewBox="0.00 0.00 351.50 231.00" xmlns="http://www.w3.org/2000/svg" xmlns:xlink="http://www.w3.org/1999/xlink">
<g id="graph0" class="graph" transform="scale(1 1) rotate(0) translate(4 227)">
<title>sierra::nalu::MomentumMassBDFNodeKernel</title>
<polygon fill="white" stroke="transparent" points="-4,4 -4,-227 347.5,-227 347.5,4 -4,4"/>
<!-- Node1 -->
<g id="node1" class="node">
<title>Node1</title>
<g id="a_node1"><a xlink:title=" ">
<polygon fill="#bfbfbf" stroke="black" points="19,-0.5 19,-30.5 178,-30.5 178,-0.5 19,-0.5"/>
<text text-anchor="start" x="27" y="-18.5" font-family="Helvetica,sans-Serif" font-size="10.00">sierra::nalu::MomentumMass</text>
<text text-anchor="middle" x="98.5" y="-7.5" font-family="Helvetica,sans-Serif" font-size="10.00">BDFNodeKernel</text>
</a>
</g>
</g>
<!-- Node2 -->
<g id="node2" class="node">
<title>Node2</title>
<g id="a_node2"><a xlink:href="classsierra_1_1nalu_1_1_n_g_p_node_kernel.html" target="_top" xlink:title=" ">
<polygon fill="white" stroke="black" points="0,-68.5 0,-98.5 197,-98.5 197,-68.5 0,-68.5"/>
<text text-anchor="start" x="8" y="-86.5" font-family="Helvetica,sans-Serif" font-size="10.00">sierra::nalu::NGPNodeKernel</text>
<text text-anchor="middle" x="98.5" y="-75.5" font-family="Helvetica,sans-Serif" font-size="10.00">&lt; MomentumMassBDFNodeKernel &gt;</text>
</a>
</g>
</g>
<!-- Node2&#45;&gt;Node1 -->
<g id="edge1" class="edge">
<title>Node2&#45;&gt;Node1</title>
<path fill="none" stroke="midnightblue" d="M98.5,-58.03C98.5,-48.86 98.5,-38.74 98.5,-30.79"/>
<polygon fill="midnightblue" stroke="midnightblue" points="95,-58.18 98.5,-68.18 102,-58.18 95,-58.18"/>
</g>
<!-- Node3 -->
<g id="node3" class="node">
<title>Node3</title>
<g id="a_node3"><a xlink:href="classsierra_1_1nalu_1_1_node_kernel.html" target="_top" xlink:title=" ">
<polygon fill="white" stroke="black" points="27.5,-203.5 27.5,-222.5 161.5,-222.5 161.5,-203.5 27.5,-203.5"/>
<text text-anchor="middle" x="94.5" y="-210.5" font-family="Helvetica,sans-Serif" font-size="10.00">sierra::nalu::NodeKernel</text>
</a>
</g>
</g>
<!-- Node3&#45;&gt;Node2 -->
<g id="edge2" class="edge">
<title>Node3&#45;&gt;Node2</title>
<path fill="none" stroke="midnightblue" d="M95.1,-192.9C95.91,-167.05 97.34,-121.54 98.06,-98.59"/>
<polygon fill="midnightblue" stroke="midnightblue" points="91.59,-193.13 94.77,-203.24 98.59,-193.35 91.59,-193.13"/>
</g>
<!-- Node4 -->
<g id="node4" class="node">
<title>Node4</title>
<g id="a_node4"><a xlink:href="classsierra_1_1nalu_1_1_n_g_p_node_kernel.html" target="_top" xlink:title=" ">
<polygon fill="white" stroke="black" points="111,-146.5 111,-165.5 294,-165.5 294,-146.5 111,-146.5"/>
<text text-anchor="middle" x="202.5" y="-153.5" font-family="Helvetica,sans-Serif" font-size="10.00">sierra::nalu::NGPNodeKernel&lt; T &gt;</text>
</a>
</g>
</g>
<!-- Node3&#45;&gt;Node4 -->
<g id="edge4" class="edge">
<title>Node3&#45;&gt;Node4</title>
<path fill="none" stroke="midnightblue" d="M120.39,-198.82C140.66,-188.49 168.27,-174.43 185.74,-165.53"/>
<polygon fill="midnightblue" stroke="midnightblue" points="118.7,-195.75 111.38,-203.41 121.87,-201.99 118.7,-195.75"/>
</g>
<!-- Node4&#45;&gt;Node2 -->
<g id="edge3" class="edge">
<title>Node4&#45;&gt;Node2</title>
<path fill="none" stroke="orange" stroke-dasharray="5,2" d="M181.06,-140.47C162.95,-128.19 137.18,-110.72 119.26,-98.58"/>
<polygon fill="orange" stroke="orange" points="179.51,-143.64 189.75,-146.36 183.43,-137.85 179.51,-143.64"/>
<text text-anchor="middle" x="251.5" y="-120" font-family="Helvetica,sans-Serif" font-size="10.00"> &lt; MomentumMassBDFNodeKernel &gt;</text>
</g>
</g>
</svg>
