<?xml version="1.0" encoding="UTF-8" standalone="no"?>
<!DOCTYPE svg PUBLIC "-//W3C//DTD SVG 1.1//EN"
 "http://www.w3.org/Graphics/SVG/1.1/DTD/svg11.dtd">
<!-- Generated by graphviz version 2.43.0 (0)
 -->
<!-- Title: sierra::nalu::ScalarFluxBCElemKernel&lt; BcAlgTraits &gt; Pages: 1 -->
<svg width="869pt" height="88pt"
 viewBox="0.00 0.00 869.00 88.00" xmlns="http://www.w3.org/2000/svg" xmlns:xlink="http://www.w3.org/1999/xlink">
<g id="graph0" class="graph" transform="scale(1 1) rotate(0) translate(4 84)">
<title>sierra::nalu::ScalarFluxBCElemKernel&lt; BcAlgTraits &gt;</title>
<polygon fill="white" stroke="transparent" points="-4,4 -4,-84 865,-84 865,4 -4,4"/>
<!-- Node1 -->
<g id="node1" class="node">
<title>Node1</title>
<g id="a_node1"><a xlink:title=" ">
<polygon fill="#bfbfbf" stroke="black" points="699,-8 699,-38 861,-38 861,-8 699,-8"/>
<text text-anchor="start" x="707" y="-26" font-family="Helvetica,sans-Serif" font-size="10.00">sierra::nalu::ScalarFlux</text>
<text text-anchor="middle" x="780" y="-15" font-family="Helvetica,sans-Serif" font-size="10.00">BCElemKernel&lt; BcAlgTraits &gt;</text>
</a>
</g>
</g>
<!-- Node2 -->
<g id="node2" class="node">
<title>Node2</title>
<g id="a_node2"><a xlink:href="classsierra_1_1nalu_1_1_n_g_p_kernel.html" target="_top" xlink:title=" ">
<polygon fill="white" stroke="black" points="476,-38.5 476,-79.5 624,-79.5 624,-38.5 476,-38.5"/>
<text text-anchor="start" x="484" y="-67.5" font-family="Helvetica,sans-Serif" font-size="10.00">sierra::nalu::NGPKernel</text>
<text text-anchor="start" x="484" y="-56.5" font-family="Helvetica,sans-Serif" font-size="10.00">&lt; ScalarFluxBCElemKernel</text>
<text text-anchor="middle" x="550" y="-45.5" font-family="Helvetica,sans-Serif" font-size="10.00">&lt; BcAlgTraits &gt; &gt;</text>
</a>
</g>
</g>
<!-- Node2&#45;&gt;Node1 -->
<g id="edge1" class="edge">
<title>Node2&#45;&gt;Node1</title>
<path fill="none" stroke="midnightblue" d="M634,-45.89C655.15,-42.56 677.83,-38.97 698.83,-35.66"/>
<polygon fill="midnightblue" stroke="midnightblue" points="633.41,-42.44 624.08,-47.46 634.5,-49.36 633.41,-42.44"/>
</g>
<!-- Node3 -->
<g id="node3" class="node">
<title>Node3</title>
<g id="a_node3"><a xlink:href="classsierra_1_1nalu_1_1_kernel.html" target="_top" xlink:title="Base class for computational kernels in Nalu.">
<polygon fill="white" stroke="black" points="0,-48.5 0,-67.5 108,-67.5 108,-48.5 0,-48.5"/>
<text text-anchor="middle" x="54" y="-55.5" font-family="Helvetica,sans-Serif" font-size="10.00">sierra::nalu::Kernel</text>
</a>
</g>
</g>
<!-- Node3&#45;&gt;Node2 -->
<g id="edge2" class="edge">
<title>Node3&#45;&gt;Node2</title>
<path fill="none" stroke="midnightblue" d="M118.26,-62.68C120.87,-62.8 123.46,-62.91 126,-63 272.58,-68.15 309.37,-66.15 456,-63 462.46,-62.86 469.18,-62.67 475.9,-62.44"/>
<polygon fill="midnightblue" stroke="midnightblue" points="118.26,-59.18 108.09,-62.15 117.9,-66.17 118.26,-59.18"/>
</g>
<!-- Node4 -->
<g id="node4" class="node">
<title>Node4</title>
<g id="a_node4"><a xlink:href="classsierra_1_1nalu_1_1_n_g_p_kernel.html" target="_top" xlink:title="Kernel that can be transferred to a device.">
<polygon fill="white" stroke="black" points="145,-29.5 145,-48.5 303,-48.5 303,-29.5 145,-29.5"/>
<text text-anchor="middle" x="224" y="-36.5" font-family="Helvetica,sans-Serif" font-size="10.00">sierra::nalu::NGPKernel&lt; T &gt;</text>
</a>
</g>
</g>
<!-- Node3&#45;&gt;Node4 -->
<g id="edge4" class="edge">
<title>Node3&#45;&gt;Node4</title>
<path fill="none" stroke="midnightblue" d="M118.16,-50.86C126.83,-49.88 135.82,-48.86 144.72,-47.85"/>
<polygon fill="midnightblue" stroke="midnightblue" points="117.7,-47.39 108.16,-51.99 118.49,-54.34 117.7,-47.39"/>
</g>
<!-- Node4&#45;&gt;Node2 -->
<g id="edge3" class="edge">
<title>Node4&#45;&gt;Node2</title>
<path fill="none" stroke="orange" stroke-dasharray="5,2" d="M313.43,-36C356.53,-35.49 409.08,-36.3 456,-41 462.46,-41.65 469.15,-42.52 475.83,-43.54"/>
<polygon fill="orange" stroke="orange" points="313.2,-32.5 303.25,-36.14 313.3,-39.5 313.2,-32.5"/>
<text text-anchor="start" x="321" y="-55" font-family="Helvetica,sans-Serif" font-size="10.00"> &lt; ScalarFluxBCElemKernel</text>
<text text-anchor="middle" x="388.5" y="-44" font-family="Helvetica,sans-Serif" font-size="10.00">&lt; BcAlgTraits &gt; &gt;</text>
</g>
<!-- Node5 -->
<g id="node5" class="node">
<title>Node5</title>
<g id="a_node5"><a xlink:href="classsierra_1_1nalu_1_1_master_element.html" target="_top" xlink:title=" ">
<polygon fill="white" stroke="black" points="474,-0.5 474,-19.5 626,-19.5 626,-0.5 474,-0.5"/>
<text text-anchor="middle" x="550" y="-7.5" font-family="Helvetica,sans-Serif" font-size="10.00">sierra::nalu::MasterElement</text>
</a>
</g>
</g>
<!-- Node5&#45;&gt;Node1 -->
<g id="edge5" class="edge">
<title>Node5&#45;&gt;Node1</title>
<path fill="none" stroke="#9a32cd" stroke-dasharray="5,2" d="M636.49,-14.87C656.88,-16.04 678.56,-17.27 698.7,-18.42"/>
<polygon fill="#9a32cd" stroke="#9a32cd" points="636.47,-11.37 626.29,-14.29 636.07,-18.36 636.47,-11.37"/>
<text text-anchor="middle" x="662.5" y="-21" font-family="Helvetica,sans-Serif" font-size="10.00"> meFC_</text>
</g>
</g>
</svg>
