<?xml version="1.0" encoding="UTF-8" standalone="no"?>
<!DOCTYPE svg PUBLIC "-//W3C//DTD SVG 1.1//EN"
 "http://www.w3.org/Graphics/SVG/1.1/DTD/svg11.dtd">
<!-- Generated by graphviz version 2.43.0 (0)
 -->
<!-- Title: sierra::nalu::TKESSTBLTM2015NodeKernel Pages: 1 -->
<svg width="431pt" height="171pt"
 viewBox="0.00 0.00 431.00 171.00" xmlns="http://www.w3.org/2000/svg" xmlns:xlink="http://www.w3.org/1999/xlink">

<svg id="main" version="1.1" xmlns="http://www.w3.org/2000/svg" xmlns:xlink="http://www.w3.org/1999/xlink" xml:space="preserve" onload="init(evt)">
<style type="text/css"><![CDATA[
.node, .edge {opacity: 0.7;}
.node.selected, .edge.selected {opacity: 1;}
.edge:hover path { stroke: red; }
.edge:hover polygon { stroke: red; fill: red; }
]]></style>
<script type="application/ecmascript" xlink:href="svg.min.js"/>
<svg id="graph" class="graph">
<g id="graph0" class="graph" transform="scale(1 1) rotate(0) translate(4 167)">
<title>sierra::nalu::TKESSTBLTM2015NodeKernel</title>
<!-- Node1 -->
<g id="Node000001" class="node">
<title>Node1</title>
<g id="a_Node000001"><a xlink:title=" ">
<polygon fill="#999999" stroke="#666666" points="164,-107 0,-107 0,-77 164,-77 164,-107"/>
<text text-anchor="start" x="8" y="-95" font-family="Helvetica,sans-Serif" font-size="10.00">sierra::nalu::TKESSTBLTM2015</text>
<text text-anchor="middle" x="82" y="-84" font-family="Helvetica,sans-Serif" font-size="10.00">NodeKernel</text>
</a>
</g>
</g>
<!-- Node2 -->
<g id="Node000002" class="node">
<title>Node2</title>
<g id="a_Node000002"><a xlink:href="classsierra_1_1nalu_1_1_n_g_p_node_kernel.html" target="_top" xlink:title=" ">
<polygon fill="white" stroke="#666666" points="270,-30 88,-30 88,0 270,0 270,-30"/>
<text text-anchor="start" x="96" y="-18" font-family="Helvetica,sans-Serif" font-size="10.00">sierra::nalu::NGPNodeKernel</text>
<text text-anchor="middle" x="179" y="-7" font-family="Helvetica,sans-Serif" font-size="10.00">&lt; TKESSTBLTM2015NodeKernel &gt;</text>
</a>
</g>
</g>
<!-- Node1&#45;&gt;Node2 -->
<g id="edge3_Node000002_Node000001" class="edge">
<title>Node1&#45;&gt;Node2</title>
<g id="a_edge3_Node000002_Node000001"><a xlink:title=" ">
<path fill="none" stroke="#9a32cd" stroke-dasharray="5,2" d="M77.03,-66.91C76.91,-60.26 78.1,-53.4 82,-48 87.51,-40.38 94.89,-34.55 103.14,-30.09"/>
<polygon fill="#9a32cd" stroke="#9a32cd" points="73.56,-67.35 78.08,-76.94 80.52,-66.63 73.56,-67.35"/>
</a>
</g>
<text text-anchor="middle" x="115" y="-51" font-family="Helvetica,sans-Serif" font-size="10.00" fill="grey"> deviceCopy_</text>
</g>
<!-- Node2&#45;&gt;Node1 -->
<g id="edge1_Node000001_Node000002" class="edge">
<title>Node2&#45;&gt;Node1</title>
<g id="a_edge1_Node000001_Node000002"><a xlink:title=" ">
<path fill="none" stroke="#63b8ff" d="M167.67,-39.42C163.47,-46.37 158.2,-53.57 152,-59 143.66,-66.31 133.37,-72.24 123.27,-76.92"/>
<polygon fill="#63b8ff" stroke="#63b8ff" points="170.94,-40.73 172.71,-30.28 164.81,-37.35 170.94,-40.73"/>
</a>
</g>
</g>
<!-- Node3 -->
<g id="Node000003" class="node">
<title>Node3</title>
<g id="a_Node000003"><a xlink:href="classsierra_1_1nalu_1_1_node_kernel.html" target="_top" xlink:title=" ">
<polygon fill="white" stroke="#666666" points="271,-163 137,-163 137,-144 271,-144 271,-163"/>
<text text-anchor="middle" x="204" y="-151" font-family="Helvetica,sans-Serif" font-size="10.00">sierra::nalu::NodeKernel</text>
</a>
</g>
</g>
<!-- Node3&#45;&gt;Node2 -->
<g id="edge2_Node000002_Node000003" class="edge">
<title>Node3&#45;&gt;Node2</title>
<g id="a_edge2_Node000002_Node000003"><a xlink:title=" ">
<path fill="none" stroke="#63b8ff" d="M200.62,-134.02C195.55,-106.37 186.11,-54.81 181.57,-30.02"/>
<polygon fill="#63b8ff" stroke="#63b8ff" points="197.19,-134.76 202.44,-143.96 204.08,-133.49 197.19,-134.76"/>
</a>
</g>
</g>
<!-- Node4 -->
<g id="Node000004" class="node">
<title>Node4</title>
<g id="a_Node000004"><a xlink:href="classsierra_1_1nalu_1_1_n_g_p_node_kernel.html" target="_top" xlink:title=" ">
<polygon fill="white" stroke="#666666" points="403.5,-101.5 220.5,-101.5 220.5,-82.5 403.5,-82.5 403.5,-101.5"/>
<text text-anchor="middle" x="312" y="-89.5" font-family="Helvetica,sans-Serif" font-size="10.00">sierra::nalu::NGPNodeKernel&lt; T &gt;</text>
</a>
</g>
</g>
<!-- Node3&#45;&gt;Node4 -->
<g id="edge5_Node000004_Node000003" class="edge">
<title>Node3&#45;&gt;Node4</title>
<g id="a_edge5_Node000004_Node000003"><a xlink:title=" ">
<path fill="none" stroke="#63b8ff" d="M228.4,-139.06C249.3,-127.54 278.76,-111.31 296.55,-101.51"/>
<polygon fill="#63b8ff" stroke="#63b8ff" points="226.54,-136.08 219.47,-143.98 229.92,-142.22 226.54,-136.08"/>
</a>
</g>
</g>
<!-- Node4&#45;&gt;Node2 -->
<g id="edge4_Node000002_Node000004" class="edge">
<title>Node4&#45;&gt;Node2</title>
<g id="a_edge4_Node000002_Node000004"><a xlink:title=" ">
<path fill="none" stroke="orange" stroke-dasharray="5,2" d="M288.01,-77.47C264.28,-64.09 228.11,-43.69 204.03,-30.11"/>
<polygon fill="orange" stroke="orange" points="286.31,-80.53 296.74,-82.4 289.75,-74.44 286.31,-80.53"/>
</a>
</g>
<text text-anchor="middle" x="338.5" y="-51" font-family="Helvetica,sans-Serif" font-size="10.00" fill="grey"> &lt; TKESSTBLTM2015NodeKernel &gt;</text>
</g>
</g>
</svg>
</svg>

<style type='text/css'>
<![CDATA[
[data-mouse-over-selected='false'] { opacity: 0.7; }
[data-mouse-over-selected='true']  { opacity: 1.0; }
]]>
</style>
<script type="application/ecmascript"><![CDATA[
document.addEventListener('DOMContentLoaded', (event) => {
  highlightEdges();
  highlightAdjacentNodes();
});
]]></script>
</svg>
