<?xml version="1.0" encoding="UTF-8" standalone="no"?>
<!DOCTYPE svg PUBLIC "-//W3C//DTD SVG 1.1//EN"
 "http://www.w3.org/Graphics/SVG/1.1/DTD/svg11.dtd">
<!-- Generated by graphviz version 2.43.0 (0)
 -->
<!-- Title: sierra::nalu::BSpline4D Pages: 1 -->
<!--zoomable 339 -->
<svg id="main" version="1.1" xmlns="http://www.w3.org/2000/svg" xmlns:xlink="http://www.w3.org/1999/xlink" xml:space="preserve" onload="init(evt)">
<style type="text/css"><![CDATA[
.edge:hover path { stroke: red; }
.edge:hover polygon { stroke: red; fill: red; }
]]></style>
<script type="text/javascript"><![CDATA[
var edges = document.getElementsByTagName('g');
if (edges && edges.length) {
  for (var i=0;i<edges.length;i++) {
    if (edges[i].id.substr(0,4)=='edge') {
      edges[i].setAttribute('class','edge');
    }
  }
}
]]></script>
        <defs>
                <circle id="rim" cx="0" cy="0" r="7"/>
                <circle id="rim2" cx="0" cy="0" r="3.5"/>
                <g id="zoomPlus">
                        <use xlink:href="#rim" fill="#404040">
                                <set attributeName="fill" to="#808080" begin="zoomplus.mouseover" end="zoomplus.mouseout"/>
                        </use>
                        <path d="M-4,0h8M0,-4v8" fill="none" stroke="white" stroke-width="1.5" pointer-events="none"/>
                </g>
                <g id="zoomMin">
                        <use xlink:href="#rim" fill="#404040">
                                <set attributeName="fill" to="#808080" begin="zoomminus.mouseover" end="zoomminus.mouseout"/>
                        </use>
                        <path d="M-4,0h8" fill="none" stroke="white" stroke-width="1.5" pointer-events="none"/>
                </g>
                <g id="dirArrow">
                        <path fill="none" stroke="white" stroke-width="1.5" d="M0,-3.0v7 M-2.5,-0.5L0,-3.0L2.5,-0.5"/>
                </g>
               <g id="resetDef">
                       <use xlink:href="#rim2" fill="#404040">
                               <set attributeName="fill" to="#808080" begin="reset.mouseover" end="reset.mouseout"/>
                       </use>
               </g>
        </defs>

<script type="text/javascript">
var viewWidth = 2111;
var viewHeight = 339;
var sectionId = 'dynsection-1';
</script>
<script xlink:href="svgpan.js"/>
<svg id="graph" class="graph">
<g id="viewport">
<title>sierra::nalu::BSpline4D</title>
<polygon fill="white" stroke="transparent" points="-4,4 -4,-335 2107,-335 2107,4 -4,4"/>
<!-- Node1 -->
<g id="node1" class="node">
<title>Node1</title>
<g id="a_node1"><a xlink:title=" ">
<polygon fill="#bfbfbf" stroke="black" points="1975,-96.5 1975,-115.5 2103,-115.5 2103,-96.5 1975,-96.5"/>
<text text-anchor="middle" x="2039" y="-103.5" font-family="Helvetica,sans-Serif" font-size="10.00">sierra::nalu::BSpline4D</text>
</a>
</g>
</g>
<!-- Node2 -->
<g id="node2" class="node">
<title>Node2</title>
<g id="a_node2"><a xlink:href="classsierra_1_1nalu_1_1_b_spline.html" target="_top" xlink:title="Base class for B&#45;Splines.">
<polygon fill="white" stroke="black" points="311,-264.5 311,-283.5 425,-283.5 425,-264.5 311,-264.5"/>
<text text-anchor="middle" x="368" y="-271.5" font-family="Helvetica,sans-Serif" font-size="10.00">sierra::nalu::BSpline</text>
</a>
</g>
</g>
<!-- Node2&#45;&gt;Node1 -->
<g id="edge1" class="edge">
<title>Node2&#45;&gt;Node1</title>
<path fill="none" stroke="midnightblue" d="M403.16,-287.04C416.93,-291.94 433.07,-297.23 448,-301 526.64,-320.85 546.9,-331 628,-331 628,-331 628,-331 1833,-331 1951.37,-331 2019.55,-158.73 2034.74,-115.67"/>
<polygon fill="midnightblue" stroke="midnightblue" points="404.19,-283.69 393.59,-283.57 401.8,-290.27 404.19,-283.69"/>
</g>
<!-- Node3 -->
<g id="node3" class="node">
<title>Node3</title>
<g id="a_node3"><a xlink:href="classsierra_1_1nalu_1_1_b_spline1_d.html" target="_top" xlink:title="Support for B&#45;Spline of a curve.">
<polygon fill="white" stroke="black" points="565,-137.5 565,-156.5 693,-156.5 693,-137.5 565,-137.5"/>
<text text-anchor="middle" x="629" y="-144.5" font-family="Helvetica,sans-Serif" font-size="10.00">sierra::nalu::BSpline1D</text>
</a>
</g>
</g>
<!-- Node2&#45;&gt;Node3 -->
<g id="edge3" class="edge">
<title>Node2&#45;&gt;Node3</title>
<path fill="none" stroke="midnightblue" d="M382.01,-256.36C396.25,-238.3 420.71,-210.74 448,-195 483.86,-174.32 528.86,-162.32 564.9,-155.49"/>
<polygon fill="midnightblue" stroke="midnightblue" points="379.18,-254.3 375.88,-264.36 384.74,-258.55 379.18,-254.3"/>
</g>
<!-- Node8 -->
<g id="node8" class="node">
<title>Node8</title>
<g id="a_node8"><a xlink:href="classsierra_1_1nalu_1_1_b_spline3_d.html" target="_top" xlink:title=" ">
<polygon fill="white" stroke="black" points="1544,-112.5 1544,-131.5 1672,-131.5 1672,-112.5 1544,-112.5"/>
<text text-anchor="middle" x="1608" y="-119.5" font-family="Helvetica,sans-Serif" font-size="10.00">sierra::nalu::BSpline3D</text>
</a>
</g>
</g>
<!-- Node2&#45;&gt;Node8 -->
<g id="edge9" class="edge">
<title>Node2&#45;&gt;Node8</title>
<path fill="none" stroke="midnightblue" d="M435.39,-281.56C487.65,-286.86 562.38,-293 628,-293 628,-293 628,-293 1402,-293 1503.5,-293 1581.36,-167.86 1601.75,-131.68"/>
<polygon fill="midnightblue" stroke="midnightblue" points="435.55,-278.06 425.25,-280.51 434.83,-285.02 435.55,-278.06"/>
</g>
<!-- Node10 -->
<g id="node10" class="node">
<title>Node10</title>
<g id="a_node10"><a xlink:href="classsierra_1_1nalu_1_1_b_spline2_d.html" target="_top" xlink:title=" ">
<polygon fill="white" stroke="black" points="1113,-178.5 1113,-197.5 1241,-197.5 1241,-178.5 1113,-178.5"/>
<text text-anchor="middle" x="1177" y="-185.5" font-family="Helvetica,sans-Serif" font-size="10.00">sierra::nalu::BSpline2D</text>
</a>
</g>
</g>
<!-- Node2&#45;&gt;Node10 -->
<g id="edge13" class="edge">
<title>Node2&#45;&gt;Node10</title>
<path fill="none" stroke="midnightblue" d="M435.52,-271.49C547.65,-266.87 781.3,-255.55 978,-235 1030.26,-229.54 1044.08,-230.97 1095,-218 1115.49,-212.78 1137.98,-204.21 1154.05,-197.56"/>
<polygon fill="midnightblue" stroke="midnightblue" points="435.23,-268 425.38,-271.9 435.52,-274.99 435.23,-268"/>
</g>
<!-- Node3&#45;&gt;Node1 -->
<g id="edge2" class="edge">
<title>Node3&#45;&gt;Node1</title>
<path fill="none" stroke="#9a32cd" stroke-dasharray="5,2" d="M682.29,-135.35C806.24,-108.78 1127.89,-46 1400,-46 1400,-46 1400,-46 1833,-46 1904.01,-46 1983.5,-79.57 2019.04,-96.49"/>
<polygon fill="#9a32cd" stroke="#9a32cd" points="681.35,-131.97 672.32,-137.5 682.83,-138.81 681.35,-131.97"/>
<text text-anchor="middle" x="1401" y="-51" font-family="Helvetica,sans-Serif" font-size="10.00"> sp1_</text>
</g>
<!-- Node3&#45;&gt;Node8 -->
<g id="edge10" class="edge">
<title>Node3&#45;&gt;Node8</title>
<path fill="none" stroke="#9a32cd" stroke-dasharray="5,2" d="M703.52,-145.12C888.44,-140.39 1370.49,-128.05 1543.79,-123.62"/>
<polygon fill="#9a32cd" stroke="#9a32cd" points="703.26,-141.62 693.35,-145.38 703.44,-148.62 703.26,-141.62"/>
<text text-anchor="middle" x="1177" y="-138" font-family="Helvetica,sans-Serif" font-size="10.00"> sp1_</text>
</g>
<!-- Node3&#45;&gt;Node10 -->
<g id="edge14" class="edge">
<title>Node3&#45;&gt;Node10</title>
<path fill="none" stroke="#9a32cd" stroke-dasharray="5,2" d="M703.32,-152.51C811.29,-160.61 1011.23,-175.63 1112.98,-183.27"/>
<polygon fill="#9a32cd" stroke="#9a32cd" points="703.4,-149 693.17,-151.74 702.88,-155.98 703.4,-149"/>
<text text-anchor="middle" x="903" y="-176" font-family="Helvetica,sans-Serif" font-size="10.00"> sp1_</text>
</g>
<!-- Node11 -->
<g id="node11" class="node">
<title>Node11</title>
<g id="a_node11"><a xlink:title=" ">
<polygon fill="white" stroke="#bfbfbf" points="828,-196 828,-226 978,-226 978,-196 828,-196"/>
<text text-anchor="start" x="836" y="-214" font-family="Helvetica,sans-Serif" font-size="10.00">std::vector&lt; const</text>
<text text-anchor="middle" x="903" y="-203" font-family="Helvetica,sans-Serif" font-size="10.00"> sierra::nalu::BSpline1D * &gt;</text>
</a>
</g>
</g>
<!-- Node3&#45;&gt;Node11 -->
<g id="edge16" class="edge">
<title>Node3&#45;&gt;Node11</title>
<path fill="none" stroke="#9a32cd" stroke-dasharray="5,2" d="M673.64,-159.27C685.71,-162.55 698.84,-166.01 711,-169 750.07,-178.6 793.9,-188.31 829.7,-195.97"/>
<polygon fill="#9a32cd" stroke="#9a32cd" points="674.37,-155.84 663.8,-156.57 672.52,-162.59 674.37,-155.84"/>
<text text-anchor="middle" x="760.5" y="-195" font-family="Helvetica,sans-Serif" font-size="10.00"> elements</text>
</g>
<!-- Node4 -->
<g id="node4" class="node">
<title>Node4</title>
<g id="a_node4"><a xlink:title=" ">
<polygon fill="white" stroke="#bfbfbf" points="306,-81.5 306,-100.5 430,-100.5 430,-81.5 306,-81.5"/>
<text text-anchor="middle" x="368" y="-88.5" font-family="Helvetica,sans-Serif" font-size="10.00">std::vector&lt; double &gt;</text>
</a>
</g>
</g>
<!-- Node4&#45;&gt;Node3 -->
<g id="edge4" class="edge">
<title>Node4&#45;&gt;Node3</title>
<path fill="none" stroke="#9a32cd" stroke-dasharray="5,2" d="M438.24,-102.29C471.32,-108.07 511.36,-115.66 547,-124 563.65,-127.9 582,-133.04 597.02,-137.47"/>
<polygon fill="#9a32cd" stroke="#9a32cd" points="438.67,-98.81 428.22,-100.55 437.47,-105.71 438.67,-98.81"/>
<text text-anchor="middle" x="497.5" y="-149" font-family="Helvetica,sans-Serif" font-size="10.00"> basisFun_</text>
<text text-anchor="middle" x="497.5" y="-138" font-family="Helvetica,sans-Serif" font-size="10.00">controlPts_</text>
<text text-anchor="middle" x="497.5" y="-127" font-family="Helvetica,sans-Serif" font-size="10.00">knots_</text>
</g>
<!-- Node5 -->
<g id="node5" class="node">
<title>Node5</title>
<g id="a_node5"><a xlink:title=" ">
<polygon fill="white" stroke="#bfbfbf" points="114,-55.5 114,-74.5 211,-74.5 211,-55.5 114,-55.5"/>
<text text-anchor="middle" x="162.5" y="-62.5" font-family="Helvetica,sans-Serif" font-size="10.00">std::vector&lt; T &gt;</text>
</a>
</g>
</g>
<!-- Node5&#45;&gt;Node4 -->
<g id="edge5" class="edge">
<title>Node5&#45;&gt;Node4</title>
<path fill="none" stroke="orange" stroke-dasharray="5,2" d="M221.42,-72.4C247.76,-75.77 278.95,-79.75 305.68,-83.17"/>
<polygon fill="orange" stroke="orange" points="221.57,-68.89 211.21,-71.1 220.69,-75.84 221.57,-68.89"/>
<text text-anchor="middle" x="258.5" y="-84" font-family="Helvetica,sans-Serif" font-size="10.00"> &lt; double &gt;</text>
</g>
<!-- Node7 -->
<g id="node7" class="node">
<title>Node7</title>
<g id="a_node7"><a xlink:title=" ">
<polygon fill="white" stroke="#bfbfbf" points="1757,-91 1757,-121 1907,-121 1907,-91 1757,-91"/>
<text text-anchor="start" x="1765" y="-109" font-family="Helvetica,sans-Serif" font-size="10.00">std::vector&lt; const</text>
<text text-anchor="middle" x="1832" y="-98" font-family="Helvetica,sans-Serif" font-size="10.00"> sierra::nalu::BSpline3D * &gt;</text>
</a>
</g>
</g>
<!-- Node5&#45;&gt;Node7 -->
<g id="edge19" class="edge">
<title>Node5&#45;&gt;Node7</title>
<path fill="none" stroke="orange" stroke-dasharray="5,2" d="M190.22,-50.6C228.32,-31.46 300.95,0 367,0 367,0 367,0 1284.5,0 1473.2,0 1691.96,-61.66 1785.16,-90.93"/>
<polygon fill="orange" stroke="orange" points="188.16,-47.73 180.87,-55.41 191.36,-53.95 188.16,-47.73"/>
<text text-anchor="start" x="996" y="-14" font-family="Helvetica,sans-Serif" font-size="10.00"> &lt; const sierra::nalu</text>
<text text-anchor="middle" x="1045.5" y="-3" font-family="Helvetica,sans-Serif" font-size="10.00">::BSpline3D * &gt;</text>
</g>
<!-- Node9 -->
<g id="node9" class="node">
<title>Node9</title>
<g id="a_node9"><a xlink:title=" ">
<polygon fill="white" stroke="#bfbfbf" points="1326,-76 1326,-106 1476,-106 1476,-76 1326,-76"/>
<text text-anchor="start" x="1334" y="-94" font-family="Helvetica,sans-Serif" font-size="10.00">std::vector&lt; const</text>
<text text-anchor="middle" x="1401" y="-83" font-family="Helvetica,sans-Serif" font-size="10.00"> sierra::nalu::BSpline2D * &gt;</text>
</a>
</g>
</g>
<!-- Node5&#45;&gt;Node9 -->
<g id="edge18" class="edge">
<title>Node5&#45;&gt;Node9</title>
<path fill="none" stroke="orange" stroke-dasharray="5,2" d="M221.05,-55.87C261.72,-50.21 317.56,-44 367,-44 367,-44 367,-44 1046.5,-44 1145.25,-44 1258.17,-62.24 1329.27,-76"/>
<polygon fill="orange" stroke="orange" points="220.46,-52.42 211.05,-57.3 221.45,-59.35 220.46,-52.42"/>
<text text-anchor="start" x="711" y="-58" font-family="Helvetica,sans-Serif" font-size="10.00"> &lt; const sierra::nalu</text>
<text text-anchor="middle" x="760.5" y="-47" font-family="Helvetica,sans-Serif" font-size="10.00">::BSpline2D * &gt;</text>
</g>
<!-- Node5&#45;&gt;Node11 -->
<g id="edge17" class="edge">
<title>Node5&#45;&gt;Node11</title>
<path fill="none" stroke="orange" stroke-dasharray="5,2" d="M190.95,-79.14C202.52,-84.8 216.24,-91.12 229,-96 433.96,-174.39 492.66,-181.07 711,-203 749.47,-206.86 792.48,-208.87 827.94,-209.9"/>
<polygon fill="orange" stroke="orange" points="192.32,-75.91 181.8,-74.59 189.2,-82.18 192.32,-75.91"/>
<text text-anchor="start" x="448" y="-199" font-family="Helvetica,sans-Serif" font-size="10.00"> &lt; const sierra::nalu</text>
<text text-anchor="middle" x="497.5" y="-188" font-family="Helvetica,sans-Serif" font-size="10.00">::BSpline1D * &gt;</text>
</g>
<!-- Node6 -->
<g id="node6" class="node">
<title>Node6</title>
<g id="a_node6"><a xlink:title=" ">
<polygon fill="white" stroke="#bfbfbf" points="0,-55.5 0,-74.5 29,-74.5 29,-55.5 0,-55.5"/>
<text text-anchor="middle" x="14.5" y="-62.5" font-family="Helvetica,sans-Serif" font-size="10.00">T</text>
</a>
</g>
</g>
<!-- Node6&#45;&gt;Node5 -->
<g id="edge6" class="edge">
<title>Node6&#45;&gt;Node5</title>
<path fill="none" stroke="#9a32cd" stroke-dasharray="5,2" d="M39.39,-65C59.54,-65 89.02,-65 113.96,-65"/>
<polygon fill="#9a32cd" stroke="#9a32cd" points="39.24,-61.5 29.24,-65 39.24,-68.5 39.24,-61.5"/>
<text text-anchor="middle" x="71.5" y="-68" font-family="Helvetica,sans-Serif" font-size="10.00"> elements</text>
</g>
<!-- Node7&#45;&gt;Node1 -->
<g id="edge7" class="edge">
<title>Node7&#45;&gt;Node1</title>
<path fill="none" stroke="#9a32cd" stroke-dasharray="5,2" d="M1917.03,-106C1936.38,-106 1956.64,-106 1974.93,-106"/>
<polygon fill="#9a32cd" stroke="#9a32cd" points="1917.01,-102.5 1907.01,-106 1917.01,-109.5 1917.01,-102.5"/>
<text text-anchor="middle" x="1941" y="-109" font-family="Helvetica,sans-Serif" font-size="10.00"> sp3d_</text>
</g>
<!-- Node8&#45;&gt;Node7 -->
<g id="edge8" class="edge">
<title>Node8&#45;&gt;Node7</title>
<path fill="none" stroke="#9a32cd" stroke-dasharray="5,2" d="M1682.12,-116.73C1706.1,-115 1732.76,-113.08 1756.82,-111.35"/>
<polygon fill="#9a32cd" stroke="#9a32cd" points="1681.74,-113.25 1672.02,-117.46 1682.25,-120.23 1681.74,-113.25"/>
<text text-anchor="middle" x="1714.5" y="-119" font-family="Helvetica,sans-Serif" font-size="10.00"> elements</text>
</g>
<!-- Node9&#45;&gt;Node8 -->
<g id="edge11" class="edge">
<title>Node9&#45;&gt;Node8</title>
<path fill="none" stroke="#9a32cd" stroke-dasharray="5,2" d="M1486.03,-103.71C1505.38,-106.63 1525.64,-109.7 1543.93,-112.46"/>
<polygon fill="#9a32cd" stroke="#9a32cd" points="1486.42,-100.23 1476.01,-102.19 1485.37,-107.15 1486.42,-100.23"/>
<text text-anchor="middle" x="1510" y="-113" font-family="Helvetica,sans-Serif" font-size="10.00"> sp2d_</text>
</g>
<!-- Node10&#45;&gt;Node9 -->
<g id="edge12" class="edge">
<title>Node10&#45;&gt;Node9</title>
<path fill="none" stroke="#9a32cd" stroke-dasharray="5,2" d="M1209.37,-174.29C1250.55,-156.3 1322.59,-124.82 1365.34,-106.14"/>
<polygon fill="#9a32cd" stroke="#9a32cd" points="1207.86,-171.13 1200.1,-178.34 1210.66,-177.55 1207.86,-171.13"/>
<text text-anchor="middle" x="1283.5" y="-155" font-family="Helvetica,sans-Serif" font-size="10.00"> elements</text>
</g>
<!-- Node11&#45;&gt;Node10 -->
<g id="edge15" class="edge">
<title>Node11&#45;&gt;Node10</title>
<path fill="none" stroke="#9a32cd" stroke-dasharray="5,2" d="M988.38,-203.87C1028.56,-200.47 1075.8,-196.47 1112.83,-193.34"/>
<polygon fill="#9a32cd" stroke="#9a32cd" points="987.99,-200.38 978.33,-204.72 988.58,-207.36 987.99,-200.38"/>
<text text-anchor="middle" x="1045.5" y="-206" font-family="Helvetica,sans-Serif" font-size="10.00"> dim2Splines_</text>
</g>
</g>
</svg>
        <g id="navigator" transform="translate(0 0)" fill="#404254">
                <rect fill="#f2f5e9" fill-opacity="0.5" stroke="#606060" stroke-width=".5" x="0" y="0" width="60" height="60"/>
                <use id="zoomplus" xlink:href="#zoomPlus" x="17" y="9" onmousedown="handleZoom(evt,'in')"/>
                <use id="zoomminus" xlink:href="#zoomMin" x="42" y="9" onmousedown="handleZoom(evt,'out')"/>
                <use id="reset" xlink:href="#resetDef" x="30" y="36" onmousedown="handleReset()"/>
                <g id="arrowUp" xlink:href="#dirArrow" transform="translate(30 24)" onmousedown="handlePan(0,-1)">
                  <use xlink:href="#rim" fill="#404040">
                        <set attributeName="fill" to="#808080" begin="arrowUp.mouseover" end="arrowUp.mouseout"/>
                  </use>
                  <path fill="none" stroke="white" stroke-width="1.5" d="M0,-3.0v7 M-2.5,-0.5L0,-3.0L2.5,-0.5"/>
                </g>
                <g id="arrowRight" xlink:href="#dirArrow" transform="rotate(90) translate(36 -43)" onmousedown="handlePan(1,0)">
                  <use xlink:href="#rim" fill="#404040">
                        <set attributeName="fill" to="#808080" begin="arrowRight.mouseover" end="arrowRight.mouseout"/>
                  </use>
                  <path fill="none" stroke="white" stroke-width="1.5" d="M0,-3.0v7 M-2.5,-0.5L0,-3.0L2.5,-0.5"/>
                </g>
                <g id="arrowDown" xlink:href="#dirArrow" transform="rotate(180) translate(-30 -48)" onmousedown="handlePan(0,1)">
                  <use xlink:href="#rim" fill="#404040">
                        <set attributeName="fill" to="#808080" begin="arrowDown.mouseover" end="arrowDown.mouseout"/>
                  </use>
                  <path fill="none" stroke="white" stroke-width="1.5" d="M0,-3.0v7 M-2.5,-0.5L0,-3.0L2.5,-0.5"/>
                </g>
                <g id="arrowLeft" xlink:href="#dirArrow" transform="rotate(270) translate(-36 17)" onmousedown="handlePan(-1,0)">
                  <use xlink:href="#rim" fill="#404040">
                        <set attributeName="fill" to="#808080" begin="arrowLeft.mouseover" end="arrowLeft.mouseout"/>
                  </use>
                  <path fill="none" stroke="white" stroke-width="1.5" d="M0,-3.0v7 M-2.5,-0.5L0,-3.0L2.5,-0.5"/>
                </g>
        </g>
        <svg viewBox="0 0 15 15" width="100%" height="30px" preserveAspectRatio="xMaxYMin meet">
         <g id="arrow_out" transform="scale(0.3 0.3)">
          <a xlink:href="classsierra_1_1nalu_1_1_b_spline4_d__coll__graph_org.svg" target="_base">
           <rect id="button" ry="5" rx="5" y="6" x="6" height="38" width="38"
                fill="#f2f5e9" fill-opacity="0.5" stroke="#606060" stroke-width="1.0"/>
           <path id="arrow"
             d="M 11.500037,31.436501 C 11.940474,20.09759 22.043105,11.32322 32.158766,21.979434 L 37.068811,17.246167 C 37.068811,17.246167 37.088388,32 37.088388,32 L 22.160133,31.978069 C 22.160133,31.978069 26.997745,27.140456 26.997745,27.140456 C 18.528582,18.264221 13.291696,25.230495 11.500037,31.436501 z"
             style="fill:#404040;"/>
          </a>
         </g>
        </svg>
</svg>
