<?xml version="1.0" encoding="UTF-8" standalone="no"?>
<!DOCTYPE svg PUBLIC "-//W3C//DTD SVG 1.1//EN"
 "http://www.w3.org/Graphics/SVG/1.1/DTD/svg11.dtd">
<!-- Generated by graphviz version 2.43.0 (0)
 -->
<!-- Title: sierra::nalu::AveragingInfo Pages: 1 -->
<!--zoomable 319 -->

<svg id="main" version="1.1" xmlns="http://www.w3.org/2000/svg" xmlns:xlink="http://www.w3.org/1999/xlink" xml:space="preserve" onload="init(evt)">
<style type="text/css"><![CDATA[
.node, .edge {opacity: 0.7;}
.node.selected, .edge.selected {opacity: 1;}
.edge:hover path { stroke: red; }
.edge:hover polygon { stroke: red; fill: red; }
]]></style>

<defs>
  <circle id="rim" cx="0" cy="0" r="7"/>
  <circle id="rim2" cx="0" cy="0" r="3.5"/>
  <g id="zoomPlus">
    <use xlink:href="#rim" fill="#404040"><set attributeName="fill" to="#808080" begin="zoomplus.mouseover" end="zoomplus.mouseout"/></use>
    <path d="M-4,0h8M0,-4v8" fill="none" stroke="white" stroke-width="1.5" pointer-events="none"/>
  </g>
  <g id="zoomMin">
    <use xlink:href="#rim" fill="#404040"><set attributeName="fill" to="#808080" begin="zoomminus.mouseover" end="zoomminus.mouseout"/></use>
    <path d="M-4,0h8" fill="none" stroke="white" stroke-width="1.5" pointer-events="none"/>
  </g>
  <g id="arrowUp" transform="translate(30 24)">
    <use xlink:href="#rim"/>
    <path pointer-events="none" fill="none" stroke="white" stroke-width="1.5" d="M0,-3.0v7 M-2.5,-0.5L0,-3.0L2.5,-0.5"/>
  </g>
  <g id="arrowRight" transform="rotate(90) translate(36 -43)">
    <use xlink:href="#rim"/>
    <path pointer-events="none" fill="none" stroke="white" stroke-width="1.5" d="M0,-3.0v7 M-2.5,-0.5L0,-3.0L2.5,-0.5"/>
  </g>
  <g id="arrowDown" transform="rotate(180) translate(-30 -48)">
    <use xlink:href="#rim"/>
    <path pointer-events="none" fill="none" stroke="white" stroke-width="1.5" d="M0,-3.0v7 M-2.5,-0.5L0,-3.0L2.5,-0.5"/>
  </g>
  <g id="arrowLeft" transform="rotate(270) translate(-36 17)">
    <use xlink:href="#rim"/>
    <path pointer-events="none" fill="none" stroke="white" stroke-width="1.5" d="M0,-3.0v7 M-2.5,-0.5L0,-3.0L2.5,-0.5"/>
  </g>
  <g id="resetDef">
    <use xlink:href="#rim2" fill="#404040"><set attributeName="fill" to="#808080" begin="reset.mouseover" end="reset.mouseout"/></use>
  </g>
</defs>
<script type="application/ecmascript">
var viewWidth = 915;
var viewHeight = 319;
var sectionId = 'dynsection-0';
</script>
<script type="application/ecmascript" xlink:href="svg.min.js"/>
<svg id="graph" class="graph">
<g id="viewport">
<title>sierra::nalu::AveragingInfo</title>
<!-- Node1 -->
<g id="Node000001" class="node">
<title>Node1</title>
<g id="a_Node000001"><a xlink:title=" ">
<polygon fill="#999999" stroke="#666666" points="907,-180.16 762,-180.16 762,-161.16 907,-161.16 907,-180.16"/>
<text text-anchor="middle" x="834.5" y="-168.16" font-family="Helvetica,sans-Serif" font-size="10.00">sierra::nalu::AveragingInfo</text>
</a>
</g>
</g>
<!-- Node2 -->
<g id="Node000002" class="node">
<title>Node2</title>
<g id="a_Node000002"><a xlink:title=" ">
<polygon fill="white" stroke="#666666" points="270,-54.16 205,-54.16 205,-35.16 270,-35.16 270,-54.16"/>
<text text-anchor="middle" x="237.5" y="-42.16" font-family="Helvetica,sans-Serif" font-size="10.00">std::string</text>
</a>
</g>
</g>
<!-- Node2&#45;&gt;Node1 -->
<g id="edge1_Node000001_Node000002" class="edge">
<title>Node2&#45;&gt;Node1</title>
<g id="a_edge1_Node000001_Node000002"><a xlink:title=" ">
<path fill="none" stroke="#9a32cd" stroke-dasharray="5,2" d="M279.91,-32.69C370.91,-8.89 592.28,34.94 744,-51.66 789.57,-77.68 819.15,-137.26 829.44,-160.82"/>
<polygon fill="#9a32cd" stroke="#9a32cd" points="278.99,-29.31 270.23,-35.27 280.8,-36.07 278.99,-29.31"/>
</a>
</g>
<text text-anchor="middle" x="519.5" y="-8.66" font-family="Helvetica,sans-Serif" font-size="10.00" fill="grey"> name_</text>
</g>
<!-- Node4 -->
<g id="Node000004" class="node">
<title>Node4</title>
<g id="a_Node000004"><a xlink:title=" ">
<polygon fill="white" stroke="#666666" points="589.5,-75.16 449.5,-75.16 449.5,-56.16 589.5,-56.16 589.5,-75.16"/>
<text text-anchor="middle" x="519.5" y="-63.16" font-family="Helvetica,sans-Serif" font-size="10.00">std::vector&lt; std::string &gt;</text>
</a>
</g>
</g>
<!-- Node2&#45;&gt;Node4 -->
<g id="edge4_Node000004_Node000002" class="edge">
<title>Node2&#45;&gt;Node4</title>
<g id="a_edge4_Node000004_Node000002"><a xlink:title=" ">
<path fill="none" stroke="#9a32cd" stroke-dasharray="5,2" d="M280.27,-47.8C324.93,-51.15 396.45,-56.51 449.49,-60.49"/>
<polygon fill="#9a32cd" stroke="#9a32cd" points="280.31,-44.29 270.08,-47.03 279.79,-51.27 280.31,-44.29"/>
</a>
</g>
<text text-anchor="middle" x="362" y="-61.66" font-family="Helvetica,sans-Serif" font-size="10.00" fill="grey"> elements</text>
</g>
<!-- Node3 -->
<g id="Node000003" class="node">
<title>Node3</title>
<g id="a_Node000003"><a xlink:title=" ">
<polygon fill="white" stroke="#666666" points="104,-59.66 0,-59.66 0,-29.66 104,-29.66 104,-59.66"/>
<text text-anchor="start" x="8" y="-47.66" font-family="Helvetica,sans-Serif" font-size="10.00">std::basic_string&lt;</text>
<text text-anchor="middle" x="52" y="-36.66" font-family="Helvetica,sans-Serif" font-size="10.00"> Char &gt;</text>
</a>
</g>
</g>
<!-- Node3&#45;&gt;Node2 -->
<g id="edge2_Node000002_Node000003" class="edge">
<title>Node3&#45;&gt;Node2</title>
<g id="a_edge2_Node000002_Node000003"><a xlink:title=" ">
<path fill="none" stroke="#63b8ff" d="M114.21,-44.66C144.61,-44.66 180.06,-44.66 204.94,-44.66"/>
<polygon fill="#63b8ff" stroke="#63b8ff" points="114.12,-41.16 104.11,-44.66 114.11,-48.16 114.12,-41.16"/>
</a>
</g>
</g>
<!-- Node4&#45;&gt;Node1 -->
<g id="edge3_Node000001_Node000004" class="edge">
<title>Node4&#45;&gt;Node1</title>
<g id="a_edge3_Node000001_Node000004"><a xlink:title=" ">
<path fill="none" stroke="#9a32cd" stroke-dasharray="5,2" d="M599.77,-55.56C644.11,-53.27 699.27,-56.18 744,-76.66 784.36,-95.15 815.6,-140.85 827.86,-160.93"/>
<polygon fill="#9a32cd" stroke="#9a32cd" points="599.39,-52.07 589.62,-56.18 599.82,-59.06 599.39,-52.07"/>
</a>
</g>
<text text-anchor="middle" x="681.5" y="-156.66" font-family="Helvetica,sans-Serif" font-size="10.00" fill="grey"> favreFieldNameVec_</text>
<text text-anchor="start" x="619" y="-145.66" font-family="Helvetica,sans-Serif" font-size="10.00" fill="grey">movingAvgFieldNameVec</text>
<text text-anchor="middle" x="681.5" y="-134.66" font-family="Helvetica,sans-Serif" font-size="10.00" fill="grey">_</text>
<text text-anchor="start" x="619" y="-123.66" font-family="Helvetica,sans-Serif" font-size="10.00" fill="grey">resolvedFieldNameVec</text>
<text text-anchor="middle" x="681.5" y="-112.66" font-family="Helvetica,sans-Serif" font-size="10.00" fill="grey">_</text>
<text text-anchor="start" x="619" y="-101.66" font-family="Helvetica,sans-Serif" font-size="10.00" fill="grey">reynoldsFieldNameVec</text>
<text text-anchor="middle" x="681.5" y="-90.66" font-family="Helvetica,sans-Serif" font-size="10.00" fill="grey">_</text>
<text text-anchor="middle" x="681.5" y="-79.66" font-family="Helvetica,sans-Serif" font-size="10.00" fill="grey">targetNames_</text>
</g>
<!-- Node5 -->
<g id="Node000005" class="node">
<title>Node5</title>
<g id="a_Node000005"><a xlink:title=" ">
<polygon fill="white" stroke="#666666" points="286,-196.16 189,-196.16 189,-177.16 286,-177.16 286,-196.16"/>
<text text-anchor="middle" x="237.5" y="-184.16" font-family="Helvetica,sans-Serif" font-size="10.00">std::vector&lt; T &gt;</text>
</a>
</g>
</g>
<!-- Node5&#45;&gt;Node4 -->
<g id="edge5_Node000004_Node000005" class="edge">
<title>Node5&#45;&gt;Node4</title>
<g id="a_edge5_Node000004_Node000005"><a xlink:title=" ">
<path fill="none" stroke="orange" stroke-dasharray="5,2" d="M263.63,-171.89C275.66,-165.07 290.38,-157.07 304,-150.66 369.78,-119.7 450.11,-89.92 491.29,-75.2"/>
<polygon fill="orange" stroke="orange" points="261.55,-169.04 254.63,-177.06 265.04,-175.11 261.55,-169.04"/>
</a>
</g>
<text text-anchor="middle" x="362" y="-153.66" font-family="Helvetica,sans-Serif" font-size="10.00" fill="grey"> &lt; std::string &gt;</text>
</g>
<!-- Node7 -->
<g id="Node000007" class="node">
<title>Node7</title>
<g id="a_Node000007"><a xlink:title=" ">
<polygon fill="white" stroke="#666666" points="578.5,-178.16 460.5,-178.16 460.5,-159.16 578.5,-159.16 578.5,-178.16"/>
<text text-anchor="middle" x="519.5" y="-166.16" font-family="Helvetica,sans-Serif" font-size="10.00">std::vector&lt; Part * &gt;</text>
</a>
</g>
</g>
<!-- Node5&#45;&gt;Node7 -->
<g id="edge8_Node000007_Node000005" class="edge">
<title>Node5&#45;&gt;Node7</title>
<g id="a_edge8_Node000007_Node000005"><a xlink:title=" ">
<path fill="none" stroke="orange" stroke-dasharray="5,2" d="M284.17,-174.91C290.78,-173.59 297.54,-172.44 304,-171.66 356.69,-165.33 417.19,-165.12 460.47,-166.18"/>
<polygon fill="orange" stroke="orange" points="283,-171.59 273.95,-177.11 284.47,-178.43 283,-171.59"/>
</a>
</g>
<text text-anchor="middle" x="362" y="-174.66" font-family="Helvetica,sans-Serif" font-size="10.00" fill="grey"> &lt; Part * &gt;</text>
</g>
<!-- Node8 -->
<g id="Node000008" class="node">
<title>Node8</title>
<g id="a_Node000008"><a xlink:title=" ">
<polygon fill="white" stroke="#666666" points="601,-283.16 438,-283.16 438,-242.16 601,-242.16 601,-283.16"/>
<text text-anchor="start" x="446" y="-271.16" font-family="Helvetica,sans-Serif" font-size="10.00">std::vector&lt; std::pair</text>
<text text-anchor="start" x="446" y="-260.16" font-family="Helvetica,sans-Serif" font-size="10.00">&lt; stk::mesh::FieldBase</text>
<text text-anchor="middle" x="519.5" y="-249.16" font-family="Helvetica,sans-Serif" font-size="10.00"> *, stk::mesh::FieldBase * &gt; &gt;</text>
</a>
</g>
</g>
<!-- Node5&#45;&gt;Node8 -->
<g id="edge10_Node000008_Node000005" class="edge">
<title>Node5&#45;&gt;Node8</title>
<g id="a_edge10_Node000008_Node000005"><a xlink:title=" ">
<path fill="none" stroke="orange" stroke-dasharray="5,2" d="M268.33,-200.19C279.39,-204.87 292.12,-209.89 304,-213.66 347.59,-227.52 397.34,-239.14 437.94,-247.58"/>
<polygon fill="orange" stroke="orange" points="269.68,-196.96 259.12,-196.2 266.9,-203.38 269.68,-196.96"/>
</a>
</g>
<text text-anchor="start" x="304" y="-268.66" font-family="Helvetica,sans-Serif" font-size="10.00" fill="grey"> &lt; std::pair&lt; stk::mesh</text>
<text text-anchor="start" x="304" y="-257.66" font-family="Helvetica,sans-Serif" font-size="10.00" fill="grey">::FieldBase *, stk::mesh</text>
<text text-anchor="middle" x="362" y="-246.66" font-family="Helvetica,sans-Serif" font-size="10.00" fill="grey">::FieldBase * &gt; &gt;</text>
</g>
<!-- Node9 -->
<g id="Node000009" class="node">
<title>Node9</title>
<g id="a_Node000009"><a xlink:title=" ">
<polygon fill="white" stroke="#666666" points="587,-215.16 452,-215.16 452,-196.16 587,-196.16 587,-215.16"/>
<text text-anchor="middle" x="519.5" y="-203.16" font-family="Helvetica,sans-Serif" font-size="10.00">std::vector&lt; unsigned &gt;</text>
</a>
</g>
</g>
<!-- Node5&#45;&gt;Node9 -->
<g id="edge12_Node000009_Node000005" class="edge">
<title>Node5&#45;&gt;Node9</title>
<g id="a_edge12_Node000009_Node000005"><a xlink:title=" ">
<path fill="none" stroke="orange" stroke-dasharray="5,2" d="M296.56,-190.6C341.82,-193.67 404.71,-197.94 452,-201.15"/>
<polygon fill="orange" stroke="orange" points="296.53,-187.09 286.32,-189.91 296.06,-194.08 296.53,-187.09"/>
</a>
</g>
<text text-anchor="middle" x="362" y="-201.66" font-family="Helvetica,sans-Serif" font-size="10.00" fill="grey"> &lt; unsigned &gt;</text>
</g>
<!-- Node6 -->
<g id="Node000006" class="node">
<title>Node6</title>
<g id="a_Node000006"><a xlink:title=" ">
<polygon fill="white" stroke="#666666" points="66.5,-196.16 37.5,-196.16 37.5,-177.16 66.5,-177.16 66.5,-196.16"/>
<text text-anchor="middle" x="52" y="-184.16" font-family="Helvetica,sans-Serif" font-size="10.00">T</text>
</a>
</g>
</g>
<!-- Node6&#45;&gt;Node5 -->
<g id="edge6_Node000005_Node000006" class="edge">
<title>Node6&#45;&gt;Node5</title>
<g id="a_edge6_Node000005_Node000006"><a xlink:title=" ">
<path fill="none" stroke="#9a32cd" stroke-dasharray="5,2" d="M76.96,-186.66C105.28,-186.66 153.06,-186.66 188.97,-186.66"/>
<polygon fill="#9a32cd" stroke="#9a32cd" points="76.79,-183.16 66.79,-186.66 76.79,-190.16 76.79,-183.16"/>
</a>
</g>
<text text-anchor="middle" x="146.5" y="-189.66" font-family="Helvetica,sans-Serif" font-size="10.00" fill="grey"> elements</text>
</g>
<!-- Node7&#45;&gt;Node1 -->
<g id="edge7_Node000001_Node000007" class="edge">
<title>Node7&#45;&gt;Node1</title>
<g id="a_edge7_Node000001_Node000007"><a xlink:title=" ">
<path fill="none" stroke="#9a32cd" stroke-dasharray="5,2" d="M588.94,-169.1C640.15,-169.43 709.99,-169.87 761.94,-170.21"/>
<polygon fill="#9a32cd" stroke="#9a32cd" points="588.66,-165.6 578.64,-169.04 588.62,-172.6 588.66,-165.6"/>
</a>
</g>
<text text-anchor="middle" x="681.5" y="-172.66" font-family="Helvetica,sans-Serif" font-size="10.00" fill="grey"> partVec_</text>
</g>
<!-- Node8&#45;&gt;Node1 -->
<g id="edge9_Node000001_Node000008" class="edge">
<title>Node8&#45;&gt;Node1</title>
<g id="a_edge9_Node000001_Node000008"><a xlink:title=" ">
<path fill="none" stroke="#9a32cd" stroke-dasharray="5,2" d="M611.42,-267.01C653.15,-266 702.48,-260.46 744,-243.66 778.94,-229.52 810.83,-196.78 825.31,-180.39"/>
<polygon fill="#9a32cd" stroke="#9a32cd" points="611.2,-263.51 601.26,-267.17 611.31,-270.51 611.2,-263.51"/>
</a>
</g>
<text text-anchor="middle" x="681.5" y="-302.66" font-family="Helvetica,sans-Serif" font-size="10.00" fill="grey"> favreFieldVecPair_</text>
<text text-anchor="start" x="628.5" y="-291.66" font-family="Helvetica,sans-Serif" font-size="10.00" fill="grey">resolvedFieldVecPair</text>
<text text-anchor="middle" x="681.5" y="-280.66" font-family="Helvetica,sans-Serif" font-size="10.00" fill="grey">_</text>
<text text-anchor="middle" x="681.5" y="-269.66" font-family="Helvetica,sans-Serif" font-size="10.00" fill="grey">reynoldsFieldVecPair_</text>
</g>
<!-- Node9&#45;&gt;Node1 -->
<g id="edge11_Node000001_Node000009" class="edge">
<title>Node9&#45;&gt;Node1</title>
<g id="a_edge11_Node000001_Node000009"><a xlink:title=" ">
<path fill="none" stroke="#9a32cd" stroke-dasharray="5,2" d="M597.21,-198.36C640.37,-194.1 695.23,-188.44 744,-182.66 750.54,-181.89 757.34,-181.05 764.14,-180.18"/>
<polygon fill="#9a32cd" stroke="#9a32cd" points="596.67,-194.89 587.06,-199.35 597.35,-201.86 596.67,-194.89"/>
</a>
</g>
<text text-anchor="middle" x="681.5" y="-231.66" font-family="Helvetica,sans-Serif" font-size="10.00" fill="grey"> favreFieldSizeVec_</text>
<text text-anchor="start" x="627" y="-220.66" font-family="Helvetica,sans-Serif" font-size="10.00" fill="grey">resolvedFieldSizeVec</text>
<text text-anchor="middle" x="681.5" y="-209.66" font-family="Helvetica,sans-Serif" font-size="10.00" fill="grey">_</text>
<text text-anchor="middle" x="681.5" y="-198.66" font-family="Helvetica,sans-Serif" font-size="10.00" fill="grey">reynoldsFieldSizeVec_</text>
</g>
</g>
</svg>

<g id="navigator" transform="translate(0 0)" fill="#404254">
  <rect fill="#f2f5e9" fill-opacity="0.5" stroke="#606060" stroke-width=".5" x="0" y="0" width="60" height="60"/>
  <use id="zoomplus" xlink:href="#zoomPlus" x="17" y="9" onmousedown="handleZoom(evt,'in')"/>
  <use id="zoomminus" xlink:href="#zoomMin" x="42" y="9" onmousedown="handleZoom(evt,'out')"/>
  <use id="reset" xlink:href="#resetDef" x="30" y="36" onmousedown="handleReset()"/>
   <use id="arrowup" xlink:href="#arrowUp" x="0" y="0" onmousedown="handlePan(0,-1)"/>
  <use id="arrowright" xlink:href="#arrowRight" x="0" y="0" onmousedown="handlePan(1,0)"/>
  <use id="arrowdown" xlink:href="#arrowDown" x="0" y="0" onmousedown="handlePan(0,1)"/>
  <use id="arrowleft" xlink:href="#arrowLeft" x="0" y="0" onmousedown="handlePan(-1,0)"/>
</g>
<svg viewBox="0 0 15 15" width="100%" height="30px" preserveAspectRatio="xMaxYMin meet">
 <g id="arrow_out" transform="scale(0.3 0.3)">
  <a xlink:href="classsierra_1_1nalu_1_1_averaging_info__coll__graph_org.svg" target="_base">
   <rect id="button" ry="5" rx="5" y="6" x="6" height="38" width="38"
        fill="#f2f5e9" fill-opacity="0.5" stroke="#606060" stroke-width="1.0"/>
   <path id="arrow"
     d="M 11.500037,31.436501 C 11.940474,20.09759 22.043105,11.32322 32.158766,21.979434 L 37.068811,17.246167 C 37.068811,17.246167 37.088388,32 37.088388,32 L 22.160133,31.978069 C 22.160133,31.978069 26.997745,27.140456 26.997745,27.140456 C 18.528582,18.264221 13.291696,25.230495 11.500037,31.436501 z"
     style="fill:#404040;"/>
  </a>
 </g>
</svg>

<style type='text/css'>
<![CDATA[
[data-mouse-over-selected='false'] { opacity: 0.7; }
[data-mouse-over-selected='true']  { opacity: 1.0; }
]]>
</style>
<script type="application/ecmascript"><![CDATA[
document.addEventListener('DOMContentLoaded', (event) => {
  highlightEdges();
  highlightAdjacentNodes();
});
]]></script>
</svg>
