<?xml version="1.0" encoding="UTF-8" standalone="no"?>
<!DOCTYPE svg PUBLIC "-//W3C//DTD SVG 1.1//EN"
 "http://www.w3.org/Graphics/SVG/1.1/DTD/svg11.dtd">
<!-- Generated by graphviz version 2.43.0 (0)
 -->
<!-- Title: sierra::nalu::DataProbeSpecInfo Pages: 1 -->
<!--zoomable 605 -->

<svg id="main" version="1.1" xmlns="http://www.w3.org/2000/svg" xmlns:xlink="http://www.w3.org/1999/xlink" xml:space="preserve" onload="init(evt)">
<style type="text/css"><![CDATA[
.node, .edge {opacity: 0.7;}
.node.selected, .edge.selected {opacity: 1;}
.edge:hover path { stroke: red; }
.edge:hover polygon { stroke: red; fill: red; }
]]></style>

<defs>
  <circle id="rim" cx="0" cy="0" r="7"/>
  <circle id="rim2" cx="0" cy="0" r="3.5"/>
  <g id="zoomPlus">
    <use xlink:href="#rim" fill="#404040"><set attributeName="fill" to="#808080" begin="zoomplus.mouseover" end="zoomplus.mouseout"/></use>
    <path d="M-4,0h8M0,-4v8" fill="none" stroke="white" stroke-width="1.5" pointer-events="none"/>
  </g>
  <g id="zoomMin">
    <use xlink:href="#rim" fill="#404040"><set attributeName="fill" to="#808080" begin="zoomminus.mouseover" end="zoomminus.mouseout"/></use>
    <path d="M-4,0h8" fill="none" stroke="white" stroke-width="1.5" pointer-events="none"/>
  </g>
  <g id="arrowUp" transform="translate(30 24)">
    <use xlink:href="#rim"/>
    <path pointer-events="none" fill="none" stroke="white" stroke-width="1.5" d="M0,-3.0v7 M-2.5,-0.5L0,-3.0L2.5,-0.5"/>
  </g>
  <g id="arrowRight" transform="rotate(90) translate(36 -43)">
    <use xlink:href="#rim"/>
    <path pointer-events="none" fill="none" stroke="white" stroke-width="1.5" d="M0,-3.0v7 M-2.5,-0.5L0,-3.0L2.5,-0.5"/>
  </g>
  <g id="arrowDown" transform="rotate(180) translate(-30 -48)">
    <use xlink:href="#rim"/>
    <path pointer-events="none" fill="none" stroke="white" stroke-width="1.5" d="M0,-3.0v7 M-2.5,-0.5L0,-3.0L2.5,-0.5"/>
  </g>
  <g id="arrowLeft" transform="rotate(270) translate(-36 17)">
    <use xlink:href="#rim"/>
    <path pointer-events="none" fill="none" stroke="white" stroke-width="1.5" d="M0,-3.0v7 M-2.5,-0.5L0,-3.0L2.5,-0.5"/>
  </g>
  <g id="resetDef">
    <use xlink:href="#rim2" fill="#404040"><set attributeName="fill" to="#808080" begin="reset.mouseover" end="reset.mouseout"/></use>
  </g>
</defs>
<script type="application/ecmascript">
var viewWidth = 1822;
var viewHeight = 605;
var sectionId = 'dynsection-0';
</script>
<script type="application/ecmascript" xlink:href="svg.min.js"/>
<svg id="graph" class="graph">
<g id="viewport">
<title>sierra::nalu::DataProbeSpecInfo</title>
<!-- Node1 -->
<g id="Node000001" class="node">
<title>Node1</title>
<g id="a_Node000001"><a xlink:title=" ">
<polygon fill="#999999" stroke="#666666" points="1814,-503.36 1644,-503.36 1644,-484.36 1814,-484.36 1814,-503.36"/>
<text text-anchor="middle" x="1729" y="-491.36" font-family="Helvetica,sans-Serif" font-size="10.00">sierra::nalu::DataProbeSpecInfo</text>
</a>
</g>
</g>
<!-- Node2 -->
<g id="Node000002" class="node">
<title>Node2</title>
<g id="a_Node000002"><a xlink:title=" ">
<polygon fill="white" stroke="#666666" points="530,-591.36 465,-591.36 465,-572.36 530,-572.36 530,-591.36"/>
<text text-anchor="middle" x="497.5" y="-579.36" font-family="Helvetica,sans-Serif" font-size="10.00">std::string</text>
</a>
</g>
</g>
<!-- Node2&#45;&gt;Node1 -->
<g id="edge1_Node000001_Node000002" class="edge">
<title>Node2&#45;&gt;Node1</title>
<g id="a_edge1_Node000001_Node000002"><a xlink:title=" ">
<path fill="none" stroke="#9a32cd" stroke-dasharray="5,2" d="M540.7,-581.44C603.53,-580.86 725.4,-579.86 829,-579.86 829,-579.86 829,-579.86 1462.5,-579.86 1560.86,-579.86 1670.17,-525.79 1711.22,-503.39"/>
<polygon fill="#9a32cd" stroke="#9a32cd" points="540.37,-577.95 530.4,-581.54 540.44,-584.95 540.37,-577.95"/>
</a>
</g>
<text text-anchor="middle" x="1163.5" y="-582.86" font-family="Helvetica,sans-Serif" font-size="10.00" fill="grey"> xferName_</text>
</g>
<!-- Node4 -->
<g id="Node000004" class="node">
<title>Node4</title>
<g id="a_Node000004"><a xlink:title=" ">
<polygon fill="white" stroke="#666666" points="900,-503.36 760,-503.36 760,-484.36 900,-484.36 900,-503.36"/>
<text text-anchor="middle" x="830" y="-491.36" font-family="Helvetica,sans-Serif" font-size="10.00">std::vector&lt; std::string &gt;</text>
</a>
</g>
</g>
<!-- Node2&#45;&gt;Node4 -->
<g id="edge4_Node000004_Node000002" class="edge">
<title>Node2&#45;&gt;Node4</title>
<g id="a_edge4_Node000004_Node000002"><a xlink:title=" ">
<path fill="none" stroke="#9a32cd" stroke-dasharray="5,2" d="M536.08,-569.09C550.38,-564.39 566.88,-559.17 582,-554.86 653.16,-534.6 736.94,-514.74 786.36,-503.43"/>
<polygon fill="#9a32cd" stroke="#9a32cd" points="534.95,-565.77 526.56,-572.24 537.16,-572.42 534.95,-565.77"/>
</a>
</g>
<text text-anchor="middle" x="662" y="-557.86" font-family="Helvetica,sans-Serif" font-size="10.00" fill="grey"> elements</text>
</g>
<!-- Node3 -->
<g id="Node000003" class="node">
<title>Node3</title>
<g id="a_Node000003"><a xlink:title=" ">
<polygon fill="white" stroke="#666666" points="234,-596.86 130,-596.86 130,-566.86 234,-566.86 234,-596.86"/>
<text text-anchor="start" x="138" y="-584.86" font-family="Helvetica,sans-Serif" font-size="10.00">std::basic_string&lt;</text>
<text text-anchor="middle" x="182" y="-573.86" font-family="Helvetica,sans-Serif" font-size="10.00"> Char &gt;</text>
</a>
</g>
</g>
<!-- Node3&#45;&gt;Node2 -->
<g id="edge2_Node000002_Node000003" class="edge">
<title>Node3&#45;&gt;Node2</title>
<g id="a_edge2_Node000002_Node000003"><a xlink:title=" ">
<path fill="none" stroke="#63b8ff" d="M244.35,-581.86C310.43,-581.86 413.02,-581.86 464.6,-581.86"/>
<polygon fill="#63b8ff" stroke="#63b8ff" points="244.07,-578.36 234.07,-581.86 244.07,-585.36 244.07,-578.36"/>
</a>
</g>
</g>
<!-- Node4&#45;&gt;Node1 -->
<g id="edge3_Node000001_Node000004" class="edge">
<title>Node4&#45;&gt;Node1</title>
<g id="a_edge3_Node000001_Node000004"><a xlink:title=" ">
<path fill="none" stroke="#9a32cd" stroke-dasharray="5,2" d="M910.31,-493.86C1078.81,-493.86 1471.15,-493.86 1643.85,-493.86"/>
<polygon fill="#9a32cd" stroke="#9a32cd" points="910.27,-490.36 900.27,-493.86 910.27,-497.36 910.27,-490.36"/>
</a>
</g>
<text text-anchor="middle" x="1314.5" y="-496.86" font-family="Helvetica,sans-Serif" font-size="10.00" fill="grey"> fromTargetNames_</text>
</g>
<!-- Node8 -->
<g id="Node000008" class="node">
<title>Node8</title>
<g id="a_Node000008"><a xlink:href="classsierra_1_1nalu_1_1_data_probe_info.html" target="_top" xlink:title=" ">
<polygon fill="white" stroke="#666666" points="1237,-286.36 1090,-286.36 1090,-267.36 1237,-267.36 1237,-286.36"/>
<text text-anchor="middle" x="1163.5" y="-274.36" font-family="Helvetica,sans-Serif" font-size="10.00">sierra::nalu::DataProbeInfo</text>
</a>
</g>
</g>
<!-- Node4&#45;&gt;Node8 -->
<g id="edge9_Node000008_Node000004" class="edge">
<title>Node4&#45;&gt;Node8</title>
<g id="a_edge9_Node000008_Node000004"><a xlink:title=" ">
<path fill="none" stroke="#9a32cd" stroke-dasharray="5,2" d="M873.5,-480.98C882.43,-477.75 891.66,-474.01 900,-469.86 908.61,-465.58 909.86,-462.98 918,-457.86 985.32,-415.58 1009.11,-415.49 1072,-366.86 1105.31,-341.11 1139.03,-304.01 1154.2,-286.59"/>
<polygon fill="#9a32cd" stroke="#9a32cd" points="872.29,-477.7 863.99,-484.28 874.58,-484.31 872.29,-477.7"/>
</a>
</g>
<text text-anchor="middle" x="995" y="-471.86" font-family="Helvetica,sans-Serif" font-size="10.00" fill="grey"> onlyOutputField_</text>
<text text-anchor="middle" x="995" y="-460.86" font-family="Helvetica,sans-Serif" font-size="10.00" fill="grey">partName_</text>
</g>
<!-- Node5 -->
<g id="Node000005" class="node">
<title>Node5</title>
<g id="a_Node000005"><a xlink:title=" ">
<polygon fill="white" stroke="#666666" points="230.5,-275.36 133.5,-275.36 133.5,-256.36 230.5,-256.36 230.5,-275.36"/>
<text text-anchor="middle" x="182" y="-263.36" font-family="Helvetica,sans-Serif" font-size="10.00">std::vector&lt; T &gt;</text>
</a>
</g>
</g>
<!-- Node5&#45;&gt;Node4 -->
<g id="edge5_Node000004_Node000005" class="edge">
<title>Node5&#45;&gt;Node4</title>
<g id="a_edge5_Node000004_Node000005"><a xlink:title=" ">
<path fill="none" stroke="orange" stroke-dasharray="5,2" d="M188.88,-285.35C199.33,-316.4 224.26,-376.55 268,-405.86 420.13,-507.8 646.84,-508.14 759.82,-500.65"/>
<polygon fill="orange" stroke="orange" points="192.16,-284.14 185.78,-275.69 185.5,-286.28 192.16,-284.14"/>
</a>
</g>
<text text-anchor="middle" x="497.5" y="-500.86" font-family="Helvetica,sans-Serif" font-size="10.00" fill="grey"> &lt; std::string &gt;</text>
</g>
<!-- Node7 -->
<g id="Node000007" class="node">
<title>Node7</title>
<g id="a_Node000007"><a xlink:title=" ">
<polygon fill="white" stroke="#666666" points="1531,-458.86 1392,-458.86 1392,-428.86 1531,-428.86 1531,-458.86"/>
<text text-anchor="start" x="1400" y="-446.86" font-family="Helvetica,sans-Serif" font-size="10.00">std::vector&lt; sierra</text>
<text text-anchor="middle" x="1461.5" y="-435.86" font-family="Helvetica,sans-Serif" font-size="10.00">::nalu::DataProbeInfo * &gt;</text>
</a>
</g>
</g>
<!-- Node5&#45;&gt;Node7 -->
<g id="edge27_Node000007_Node000005" class="edge">
<title>Node5&#45;&gt;Node7</title>
<g id="a_edge27_Node000007_Node000005"><a xlink:title=" ">
<path fill="none" stroke="orange" stroke-dasharray="5,2" d="M189.8,-285.36C201.27,-315.48 227.28,-373.25 268,-405.86 327.68,-453.66 355.55,-448.48 431,-460.86 489.33,-470.44 504.9,-462.07 564,-460.86 651.17,-459.08 672.85,-455.2 760,-452.86 991.61,-446.65 1266.42,-444.7 1391.88,-444.11"/>
<polygon fill="orange" stroke="orange" points="192.95,-283.79 186.23,-275.61 186.38,-286.2 192.95,-283.79"/>
</a>
</g>
<text text-anchor="start" x="766.5" y="-466.86" font-family="Helvetica,sans-Serif" font-size="10.00" fill="grey"> &lt; sierra::nalu::DataProbe</text>
<text text-anchor="middle" x="830" y="-455.86" font-family="Helvetica,sans-Serif" font-size="10.00" fill="grey">Info * &gt;</text>
</g>
<!-- Node9 -->
<g id="Node000009" class="node">
<title>Node9</title>
<g id="a_Node000009"><a xlink:title=" ">
<polygon fill="white" stroke="#666666" points="714,-387.36 610,-387.36 610,-368.36 714,-368.36 714,-387.36"/>
<text text-anchor="middle" x="662" y="-375.36" font-family="Helvetica,sans-Serif" font-size="10.00">std::vector&lt; int &gt;</text>
</a>
</g>
</g>
<!-- Node5&#45;&gt;Node9 -->
<g id="edge11_Node000009_Node000005" class="edge">
<title>Node5&#45;&gt;Node9</title>
<g id="a_edge11_Node000009_Node000005"><a xlink:title=" ">
<path fill="none" stroke="orange" stroke-dasharray="5,2" d="M194.3,-283.85C208.59,-304.82 235.33,-338.56 268,-353.86 380.66,-406.64 531.77,-396.5 609.71,-386.24"/>
<polygon fill="orange" stroke="orange" points="197.21,-281.91 188.79,-275.48 191.36,-285.76 197.21,-281.91"/>
</a>
</g>
<text text-anchor="middle" x="340.5" y="-393.86" font-family="Helvetica,sans-Serif" font-size="10.00" fill="grey"> &lt; int &gt;</text>
</g>
<!-- Node10 -->
<g id="Node000010" class="node">
<title>Node10</title>
<g id="a_Node000010"><a xlink:title=" ">
<polygon fill="white" stroke="#666666" points="557,-67.86 438,-67.86 438,-37.86 557,-37.86 557,-67.86"/>
<text text-anchor="start" x="446" y="-55.86" font-family="Helvetica,sans-Serif" font-size="10.00">std::vector&lt; sierra</text>
<text text-anchor="middle" x="497.5" y="-44.86" font-family="Helvetica,sans-Serif" font-size="10.00">::nalu::Coordinates &gt;</text>
</a>
</g>
</g>
<!-- Node5&#45;&gt;Node10 -->
<g id="edge14_Node000010_Node000005" class="edge">
<title>Node5&#45;&gt;Node10</title>
<g id="a_edge14_Node000010_Node000005"><a xlink:title=" ">
<path fill="none" stroke="orange" stroke-dasharray="5,2" d="M187.22,-246.1C195.83,-210.81 218.93,-137.18 268,-99.86 281.46,-89.63 374.6,-72.74 437.73,-62.24"/>
<polygon fill="orange" stroke="orange" points="183.75,-245.58 184.92,-256.11 190.57,-247.15 183.75,-245.58"/>
</a>
</g>
<text text-anchor="middle" x="340.5" y="-102.86" font-family="Helvetica,sans-Serif" font-size="10.00" fill="grey"> &lt; sierra::nalu::Coordinates &gt;</text>
</g>
<!-- Node12 -->
<g id="Node000012" class="node">
<title>Node12</title>
<g id="a_Node000012"><a xlink:title=" ">
<polygon fill="white" stroke="#666666" points="896.5,-316.86 763.5,-316.86 763.5,-286.86 896.5,-286.86 896.5,-316.86"/>
<text text-anchor="start" x="771.5" y="-304.86" font-family="Helvetica,sans-Serif" font-size="10.00">std::vector&lt; std::vector</text>
<text text-anchor="middle" x="830" y="-293.86" font-family="Helvetica,sans-Serif" font-size="10.00">&lt; stk::mesh::Entity &gt; &gt;</text>
</a>
</g>
</g>
<!-- Node5&#45;&gt;Node12 -->
<g id="edge18_Node000012_Node000005" class="edge">
<title>Node5&#45;&gt;Node12</title>
<g id="a_edge18_Node000012_Node000005"><a xlink:title=" ">
<path fill="none" stroke="orange" stroke-dasharray="5,2" d="M213.18,-279.49C229.16,-286.12 249.29,-293.56 268,-297.86 473.43,-345.08 531.71,-328.3 742,-313.86 748.85,-313.39 755.97,-312.72 763.07,-311.92"/>
<polygon fill="orange" stroke="orange" points="214.39,-276.2 203.82,-275.5 211.65,-282.64 214.39,-276.2"/>
</a>
</g>
<text text-anchor="start" x="451" y="-343.86" font-family="Helvetica,sans-Serif" font-size="10.00" fill="grey"> &lt; std::vector&lt; stk</text>
<text text-anchor="middle" x="497.5" y="-332.86" font-family="Helvetica,sans-Serif" font-size="10.00" fill="grey">::mesh::Entity &gt; &gt;</text>
</g>
<!-- Node13 -->
<g id="Node000013" class="node">
<title>Node13</title>
<g id="a_Node000013"><a xlink:title=" ">
<polygon fill="white" stroke="#666666" points="561.5,-303.86 433.5,-303.86 433.5,-273.86 561.5,-273.86 561.5,-303.86"/>
<text text-anchor="start" x="441.5" y="-291.86" font-family="Helvetica,sans-Serif" font-size="10.00">std::vector&lt; stk::mesh</text>
<text text-anchor="middle" x="497.5" y="-280.86" font-family="Helvetica,sans-Serif" font-size="10.00">::Entity &gt;</text>
</a>
</g>
</g>
<!-- Node5&#45;&gt;Node13 -->
<g id="edge17_Node000013_Node000005" class="edge">
<title>Node5&#45;&gt;Node13</title>
<g id="a_edge17_Node000013_Node000005"><a xlink:title=" ">
<path fill="none" stroke="orange" stroke-dasharray="5,2" d="M240.81,-270.1C295.36,-274.11 376.96,-280.09 433.24,-284.22"/>
<polygon fill="orange" stroke="orange" points="240.84,-266.6 230.61,-269.36 240.33,-273.58 240.84,-266.6"/>
</a>
</g>
<text text-anchor="middle" x="340.5" y="-285.86" font-family="Helvetica,sans-Serif" font-size="10.00" fill="grey"> &lt; stk::mesh::Entity &gt;</text>
</g>
<!-- Node14 -->
<g id="Node000014" class="node">
<title>Node14</title>
<g id="a_Node000014"><a xlink:title=" ">
<polygon fill="white" stroke="#666666" points="726,-267.86 598,-267.86 598,-237.86 726,-237.86 726,-267.86"/>
<text text-anchor="start" x="606" y="-255.86" font-family="Helvetica,sans-Serif" font-size="10.00">std::vector&lt; stk::mesh</text>
<text text-anchor="middle" x="662" y="-244.86" font-family="Helvetica,sans-Serif" font-size="10.00">::Part * &gt;</text>
</a>
</g>
</g>
<!-- Node5&#45;&gt;Node14 -->
<g id="edge20_Node000014_Node000005" class="edge">
<title>Node5&#45;&gt;Node14</title>
<g id="a_edge20_Node000014_Node000005"><a xlink:title=" ">
<path fill="none" stroke="orange" stroke-dasharray="5,2" d="M240.76,-259.79C249.86,-259.02 259.18,-258.33 268,-257.86 384.35,-251.66 520.33,-251.51 597.99,-252.09"/>
<polygon fill="orange" stroke="orange" points="240.25,-256.32 230.6,-260.7 240.87,-263.29 240.25,-256.32"/>
</a>
</g>
<text text-anchor="middle" x="340.5" y="-260.86" font-family="Helvetica,sans-Serif" font-size="10.00" fill="grey"> &lt; stk::mesh::Part * &gt;</text>
</g>
<!-- Node15 -->
<g id="Node000015" class="node">
<title>Node15</title>
<g id="a_Node000015"><a xlink:title=" ">
<polygon fill="white" stroke="#666666" points="742,-224.86 582,-224.86 582,-194.86 742,-194.86 742,-224.86"/>
<text text-anchor="start" x="590" y="-212.86" font-family="Helvetica,sans-Serif" font-size="10.00">std::vector&lt; DataProbeGeom</text>
<text text-anchor="middle" x="662" y="-201.86" font-family="Helvetica,sans-Serif" font-size="10.00">Type &gt;</text>
</a>
</g>
</g>
<!-- Node5&#45;&gt;Node15 -->
<g id="edge22_Node000015_Node000005" class="edge">
<title>Node5&#45;&gt;Node15</title>
<g id="a_edge22_Node000015_Node000005"><a xlink:title=" ">
<path fill="none" stroke="orange" stroke-dasharray="5,2" d="M217.44,-252.9C232.72,-247.68 251.04,-242.14 268,-238.86 375.48,-218.12 502.13,-211.98 582,-210.29"/>
<polygon fill="orange" stroke="orange" points="216.17,-249.64 207.89,-256.26 218.49,-256.25 216.17,-249.64"/>
</a>
</g>
<text text-anchor="middle" x="340.5" y="-241.86" font-family="Helvetica,sans-Serif" font-size="10.00" fill="grey"> &lt; DataProbeGeomType &gt;</text>
</g>
<!-- Node16 -->
<g id="Node000016" class="node">
<title>Node16</title>
<g id="a_Node000016"><a xlink:title=" ">
<polygon fill="white" stroke="#666666" points="895.5,-174.86 764.5,-174.86 764.5,-144.86 895.5,-144.86 895.5,-174.86"/>
<text text-anchor="start" x="772.5" y="-162.86" font-family="Helvetica,sans-Serif" font-size="10.00">std::vector&lt; std::vector</text>
<text text-anchor="middle" x="830" y="-151.86" font-family="Helvetica,sans-Serif" font-size="10.00">&lt; double &gt; &gt;</text>
</a>
</g>
</g>
<!-- Node5&#45;&gt;Node16 -->
<g id="edge26_Node000016_Node000005" class="edge">
<title>Node5&#45;&gt;Node16</title>
<g id="a_edge26_Node000016_Node000005"><a xlink:title=" ">
<path fill="none" stroke="orange" stroke-dasharray="5,2" d="M204.13,-250.5C220.68,-239.29 244.71,-224.72 268,-216.86 440.29,-158.71 657.91,-154.94 764.37,-157.25"/>
<polygon fill="orange" stroke="orange" points="201.97,-247.74 195.76,-256.32 205.97,-253.49 201.97,-247.74"/>
</a>
</g>
<text text-anchor="middle" x="497.5" y="-180.86" font-family="Helvetica,sans-Serif" font-size="10.00" fill="grey"> &lt; std::vector&lt; double &gt; &gt;</text>
</g>
<!-- Node17 -->
<g id="Node000017" class="node">
<title>Node17</title>
<g id="a_Node000017"><a xlink:title=" ">
<polygon fill="white" stroke="#666666" points="559.5,-132.36 435.5,-132.36 435.5,-113.36 559.5,-113.36 559.5,-132.36"/>
<text text-anchor="middle" x="497.5" y="-120.36" font-family="Helvetica,sans-Serif" font-size="10.00">std::vector&lt; double &gt;</text>
</a>
</g>
</g>
<!-- Node5&#45;&gt;Node17 -->
<g id="edge25_Node000017_Node000005" class="edge">
<title>Node5&#45;&gt;Node17</title>
<g id="a_edge25_Node000017_Node000005"><a xlink:title=" ">
<path fill="none" stroke="orange" stroke-dasharray="5,2" d="M190.23,-246.58C201.88,-218.56 227.64,-167.35 268,-143.86 318.62,-114.41 386.45,-111.86 435.03,-115.02"/>
<polygon fill="orange" stroke="orange" points="186.9,-245.5 186.46,-256.08 193.41,-248.08 186.9,-245.5"/>
</a>
</g>
<text text-anchor="middle" x="340.5" y="-146.86" font-family="Helvetica,sans-Serif" font-size="10.00" fill="grey"> &lt; double &gt;</text>
</g>
<!-- Node18 -->
<g id="Node000018" class="node">
<title>Node18</title>
<g id="a_Node000018"><a xlink:title=" ">
<polygon fill="white" stroke="#666666" points="1072,-546.86 918,-546.86 918,-516.86 1072,-516.86 1072,-546.86"/>
<text text-anchor="start" x="926" y="-534.86" font-family="Helvetica,sans-Serif" font-size="10.00">std::vector&lt; std::pair</text>
<text text-anchor="middle" x="995" y="-523.86" font-family="Helvetica,sans-Serif" font-size="10.00">&lt; std::string, std::string &gt; &gt;</text>
</a>
</g>
</g>
<!-- Node5&#45;&gt;Node18 -->
<g id="edge29_Node000018_Node000005" class="edge">
<title>Node5&#45;&gt;Node18</title>
<g id="a_edge29_Node000018_Node000005"><a xlink:title=" ">
<path fill="none" stroke="orange" stroke-dasharray="5,2" d="M183.92,-285.65C187.17,-330.25 201.82,-438.62 268,-488.86 318.82,-527.44 741.97,-531.91 917.82,-532.08"/>
<polygon fill="orange" stroke="orange" points="187.41,-285.3 183.31,-275.53 180.42,-285.73 187.41,-285.3"/>
</a>
</g>
<text text-anchor="start" x="438.5" y="-539.86" font-family="Helvetica,sans-Serif" font-size="10.00" fill="grey"> &lt; std::pair&lt; std::string,</text>
<text text-anchor="middle" x="497.5" y="-528.86" font-family="Helvetica,sans-Serif" font-size="10.00" fill="grey"> std::string &gt; &gt;</text>
</g>
<!-- Node19 -->
<g id="Node000019" class="node">
<title>Node19</title>
<g id="a_Node000019"><a xlink:title=" ">
<polygon fill="white" stroke="#666666" points="1374,-126.86 1255,-126.86 1255,-96.86 1374,-96.86 1374,-126.86"/>
<text text-anchor="start" x="1263" y="-114.86" font-family="Helvetica,sans-Serif" font-size="10.00">std::vector&lt; std::pair</text>
<text text-anchor="middle" x="1314.5" y="-103.86" font-family="Helvetica,sans-Serif" font-size="10.00">&lt; std::string, int &gt; &gt;</text>
</a>
</g>
</g>
<!-- Node5&#45;&gt;Node19 -->
<g id="edge31_Node000019_Node000005" class="edge">
<title>Node5&#45;&gt;Node19</title>
<g id="a_edge31_Node000019_Node000005"><a xlink:title=" ">
<path fill="none" stroke="orange" stroke-dasharray="5,2" d="M188.07,-246.32C200.96,-198.09 236.24,-75.39 268,-48.86 347.43,17.5 392.99,-3.86 496.5,-3.86 496.5,-3.86 496.5,-3.86 996,-3.86 1110.12,-3.86 1235.61,-67.17 1288.16,-96.85"/>
<polygon fill="orange" stroke="orange" points="184.64,-245.59 185.48,-256.15 191.41,-247.37 184.64,-245.59"/>
</a>
</g>
<text text-anchor="start" x="603" y="-17.86" font-family="Helvetica,sans-Serif" font-size="10.00" fill="grey"> &lt; std::pair&lt; std::string,</text>
<text text-anchor="middle" x="662" y="-6.86" font-family="Helvetica,sans-Serif" font-size="10.00" fill="grey"> int &gt; &gt;</text>
</g>
<!-- Node6 -->
<g id="Node000006" class="node">
<title>Node6</title>
<g id="a_Node000006"><a xlink:title=" ">
<polygon fill="white" stroke="#666666" points="29,-275.36 0,-275.36 0,-256.36 29,-256.36 29,-275.36"/>
<text text-anchor="middle" x="14.5" y="-263.36" font-family="Helvetica,sans-Serif" font-size="10.00">T</text>
</a>
</g>
</g>
<!-- Node6&#45;&gt;Node5 -->
<g id="edge6_Node000005_Node000006" class="edge">
<title>Node6&#45;&gt;Node5</title>
<g id="a_edge6_Node000005_Node000006"><a xlink:title=" ">
<path fill="none" stroke="#9a32cd" stroke-dasharray="5,2" d="M39.2,-265.86C63.68,-265.86 102.57,-265.86 133.43,-265.86"/>
<polygon fill="#9a32cd" stroke="#9a32cd" points="39.04,-262.36 29.04,-265.86 39.04,-269.36 39.04,-262.36"/>
</a>
</g>
<text text-anchor="middle" x="71.5" y="-268.86" font-family="Helvetica,sans-Serif" font-size="10.00" fill="grey"> elements</text>
</g>
<!-- Node7&#45;&gt;Node1 -->
<g id="edge7_Node000001_Node000007" class="edge">
<title>Node7&#45;&gt;Node1</title>
<g id="a_edge7_Node000001_Node000007"><a xlink:title=" ">
<path fill="none" stroke="#9a32cd" stroke-dasharray="5,2" d="M1541.3,-454.47C1568.25,-458.48 1598.53,-463.41 1626,-468.86 1648.18,-473.27 1672.8,-479.27 1692.3,-484.29"/>
<polygon fill="#9a32cd" stroke="#9a32cd" points="1541.55,-450.97 1531.15,-452.98 1540.53,-457.89 1541.55,-450.97"/>
</a>
</g>
<text text-anchor="middle" x="1587.5" y="-471.86" font-family="Helvetica,sans-Serif" font-size="10.00" fill="grey"> dataProbeInfo_</text>
</g>
<!-- Node8&#45;&gt;Node7 -->
<g id="edge8_Node000007_Node000008" class="edge">
<title>Node8&#45;&gt;Node7</title>
<g id="a_edge8_Node000007_Node000008"><a xlink:title=" ">
<path fill="none" stroke="#9a32cd" stroke-dasharray="5,2" d="M1190.62,-291.6C1246.56,-323.16 1377.43,-397 1433.85,-428.82"/>
<polygon fill="#9a32cd" stroke="#9a32cd" points="1192.12,-288.43 1181.69,-286.56 1188.68,-294.53 1192.12,-288.43"/>
</a>
</g>
<text text-anchor="middle" x="1314.5" y="-397.86" font-family="Helvetica,sans-Serif" font-size="10.00" fill="grey"> elements</text>
</g>
<!-- Node9&#45;&gt;Node8 -->
<g id="edge10_Node000008_Node000009" class="edge">
<title>Node9&#45;&gt;Node8</title>
<g id="a_edge10_Node000008_Node000009"><a xlink:title=" ">
<path fill="none" stroke="#9a32cd" stroke-dasharray="5,2" d="M724.02,-369.37C821.38,-355.57 1007.46,-328.09 1072,-310.86 1096,-304.46 1122.5,-294.09 1140.58,-286.49"/>
<polygon fill="#9a32cd" stroke="#9a32cd" points="723.44,-365.92 714.03,-370.79 724.42,-372.85 723.44,-365.92"/>
</a>
</g>
<text text-anchor="middle" x="830" y="-411.86" font-family="Helvetica,sans-Serif" font-size="10.00" fill="grey"> edge1NumPoints_</text>
<text text-anchor="middle" x="830" y="-400.86" font-family="Helvetica,sans-Serif" font-size="10.00" fill="grey">edge2NumPoints_</text>
<text text-anchor="middle" x="830" y="-389.86" font-family="Helvetica,sans-Serif" font-size="10.00" fill="grey">generateNewIds_</text>
<text text-anchor="middle" x="830" y="-378.86" font-family="Helvetica,sans-Serif" font-size="10.00" fill="grey">numPoints_</text>
<text text-anchor="middle" x="830" y="-367.86" font-family="Helvetica,sans-Serif" font-size="10.00" fill="grey">processorId_</text>
</g>
<!-- Node10&#45;&gt;Node8 -->
<g id="edge12_Node000008_Node000010" class="edge">
<title>Node10&#45;&gt;Node8</title>
<g id="a_edge12_Node000008_Node000010"><a xlink:title=" ">
<path fill="none" stroke="#9a32cd" stroke-dasharray="5,2" d="M567.26,-44.1C648.29,-35.99 786.31,-29.19 900,-58.86 984.09,-80.81 1006.66,-94.57 1072,-151.86 1112.69,-187.54 1145.51,-244.74 1157.55,-267.29"/>
<polygon fill="#9a32cd" stroke="#9a32cd" points="566.76,-40.63 557.18,-45.14 567.49,-47.59 566.76,-40.63"/>
</a>
</g>
<text text-anchor="middle" x="830" y="-127.86" font-family="Helvetica,sans-Serif" font-size="10.00" fill="grey"> cornerCoordinates_</text>
<text text-anchor="middle" x="830" y="-116.86" font-family="Helvetica,sans-Serif" font-size="10.00" fill="grey">edge1Vector_</text>
<text text-anchor="middle" x="830" y="-105.86" font-family="Helvetica,sans-Serif" font-size="10.00" fill="grey">edge2Vector_</text>
<text text-anchor="middle" x="830" y="-94.86" font-family="Helvetica,sans-Serif" font-size="10.00" fill="grey">offsetDir_</text>
<text text-anchor="start" x="781" y="-83.86" font-family="Helvetica,sans-Serif" font-size="10.00" fill="grey">tailCoordinates</text>
<text text-anchor="middle" x="830" y="-72.86" font-family="Helvetica,sans-Serif" font-size="10.00" fill="grey">_</text>
<text text-anchor="middle" x="830" y="-61.86" font-family="Helvetica,sans-Serif" font-size="10.00" fill="grey">tipCoordinates_</text>
</g>
<!-- Node11 -->
<g id="Node000011" class="node">
<title>Node11</title>
<g id="a_Node000011"><a xlink:href="structsierra_1_1nalu_1_1_coordinates.html" target="_top" xlink:title=" ">
<polygon fill="white" stroke="#666666" points="250,-62.36 114,-62.36 114,-43.36 250,-43.36 250,-62.36"/>
<text text-anchor="middle" x="182" y="-50.36" font-family="Helvetica,sans-Serif" font-size="10.00">sierra::nalu::Coordinates</text>
</a>
</g>
</g>
<!-- Node11&#45;&gt;Node10 -->
<g id="edge13_Node000010_Node000011" class="edge">
<title>Node11&#45;&gt;Node10</title>
<g id="a_edge13_Node000010_Node000011"><a xlink:title=" ">
<path fill="none" stroke="#9a32cd" stroke-dasharray="5,2" d="M260.28,-52.86C315.14,-52.86 387.66,-52.86 437.8,-52.86"/>
<polygon fill="#9a32cd" stroke="#9a32cd" points="260.25,-49.36 250.25,-52.86 260.25,-56.36 260.25,-49.36"/>
</a>
</g>
<text text-anchor="middle" x="340.5" y="-55.86" font-family="Helvetica,sans-Serif" font-size="10.00" fill="grey"> elements</text>
</g>
<!-- Node12&#45;&gt;Node8 -->
<g id="edge15_Node000008_Node000012" class="edge">
<title>Node12&#45;&gt;Node8</title>
<g id="a_edge15_Node000008_Node000012"><a xlink:title=" ">
<path fill="none" stroke="#9a32cd" stroke-dasharray="5,2" d="M906.92,-296.14C961.85,-291.99 1035.65,-286.43 1089.83,-282.34"/>
<polygon fill="#9a32cd" stroke="#9a32cd" points="906.6,-292.65 896.89,-296.89 907.12,-299.63 906.6,-292.65"/>
</a>
</g>
<text text-anchor="middle" x="995" y="-298.86" font-family="Helvetica,sans-Serif" font-size="10.00" fill="grey"> nodeVector_</text>
</g>
<!-- Node13&#45;&gt;Node12 -->
<g id="edge16_Node000012_Node000013" class="edge">
<title>Node13&#45;&gt;Node12</title>
<g id="a_edge16_Node000012_Node000013"><a xlink:title=" ">
<path fill="none" stroke="#9a32cd" stroke-dasharray="5,2" d="M571.91,-291.75C629.22,-294 708.11,-297.11 763.34,-299.28"/>
<polygon fill="#9a32cd" stroke="#9a32cd" points="571.96,-288.25 561.83,-291.35 571.69,-295.24 571.96,-288.25"/>
</a>
</g>
<text text-anchor="middle" x="662" y="-301.86" font-family="Helvetica,sans-Serif" font-size="10.00" fill="grey"> elements</text>
</g>
<!-- Node14&#45;&gt;Node8 -->
<g id="edge19_Node000008_Node000014" class="edge">
<title>Node14&#45;&gt;Node8</title>
<g id="a_edge19_Node000008_Node000014"><a xlink:title=" ">
<path fill="none" stroke="#9a32cd" stroke-dasharray="5,2" d="M736.09,-256.37C830.93,-260.93 995.42,-268.83 1089.98,-273.38"/>
<polygon fill="#9a32cd" stroke="#9a32cd" points="736.17,-252.87 726.01,-255.89 735.83,-259.87 736.17,-252.87"/>
</a>
</g>
<text text-anchor="middle" x="830" y="-266.86" font-family="Helvetica,sans-Serif" font-size="10.00" fill="grey"> part_</text>
</g>
<!-- Node15&#45;&gt;Node8 -->
<g id="edge21_Node000008_Node000015" class="edge">
<title>Node15&#45;&gt;Node8</title>
<g id="a_edge21_Node000008_Node000015"><a xlink:title=" ">
<path fill="none" stroke="#9a32cd" stroke-dasharray="5,2" d="M752.44,-220.25C835.39,-230.11 962.2,-245.79 1072,-261.86 1083.35,-263.52 1095.47,-265.44 1107.03,-267.33"/>
<polygon fill="#9a32cd" stroke="#9a32cd" points="752.64,-216.75 742.29,-219.04 751.81,-223.7 752.64,-216.75"/>
</a>
</g>
<text text-anchor="middle" x="830" y="-241.86" font-family="Helvetica,sans-Serif" font-size="10.00" fill="grey"> geomType_</text>
</g>
<!-- Node16&#45;&gt;Node8 -->
<g id="edge23_Node000008_Node000016" class="edge">
<title>Node16&#45;&gt;Node8</title>
<g id="a_edge23_Node000008_Node000016"><a xlink:title=" ">
<path fill="none" stroke="#9a32cd" stroke-dasharray="5,2" d="M905.88,-155.31C955.33,-155.27 1020.29,-161.03 1072,-185.86 1111.37,-204.77 1143.5,-248.07 1156.4,-267.33"/>
<polygon fill="#9a32cd" stroke="#9a32cd" points="905.54,-151.81 895.57,-155.4 905.6,-158.81 905.54,-151.81"/>
</a>
</g>
<text text-anchor="middle" x="995" y="-188.86" font-family="Helvetica,sans-Serif" font-size="10.00" fill="grey"> offsetSpacings_</text>
</g>
<!-- Node17&#45;&gt;Node16 -->
<g id="edge24_Node000016_Node000017" class="edge">
<title>Node17&#45;&gt;Node16</title>
<g id="a_edge24_Node000016_Node000017"><a xlink:title=" ">
<path fill="none" stroke="#9a32cd" stroke-dasharray="5,2" d="M569.83,-127.21C618.48,-130.61 684.29,-136.09 742,-143.86 749.31,-144.85 756.93,-146.02 764.5,-147.29"/>
<polygon fill="#9a32cd" stroke="#9a32cd" points="569.94,-123.71 559.72,-126.51 569.46,-130.69 569.94,-123.71"/>
</a>
</g>
<text text-anchor="middle" x="662" y="-146.86" font-family="Helvetica,sans-Serif" font-size="10.00" fill="grey"> elements</text>
</g>
<!-- Node18&#45;&gt;Node1 -->
<g id="edge28_Node000001_Node000018" class="edge">
<title>Node18&#45;&gt;Node1</title>
<g id="a_edge28_Node000001_Node000018"><a xlink:title=" ">
<path fill="none" stroke="#9a32cd" stroke-dasharray="5,2" d="M1082.64,-531.25C1204.24,-529.79 1432.38,-524.8 1626,-507.86 1638.91,-506.73 1652.69,-505.12 1665.81,-503.39"/>
<polygon fill="#9a32cd" stroke="#9a32cd" points="1082.24,-527.76 1072.28,-531.37 1082.32,-534.76 1082.24,-527.76"/>
</a>
</g>
<text text-anchor="middle" x="1314.5" y="-530.86" font-family="Helvetica,sans-Serif" font-size="10.00" fill="grey"> fromToName_</text>
</g>
<!-- Node19&#45;&gt;Node1 -->
<g id="edge30_Node000001_Node000019" class="edge">
<title>Node19&#45;&gt;Node1</title>
<g id="a_edge30_Node000001_Node000019"><a xlink:title=" ">
<path fill="none" stroke="#9a32cd" stroke-dasharray="5,2" d="M1339.37,-133.97C1417.56,-206.38 1664.03,-434.62 1717.64,-484.27"/>
<polygon fill="#9a32cd" stroke="#9a32cd" points="1341.64,-131.3 1331.93,-127.07 1336.88,-136.44 1341.64,-131.3"/>
</a>
</g>
<text text-anchor="middle" x="1461.5" y="-314.86" font-family="Helvetica,sans-Serif" font-size="10.00" fill="grey"> fieldInfo_</text>
</g>
</g>
</svg>

<g id="navigator" transform="translate(0 0)" fill="#404254">
  <rect fill="#f2f5e9" fill-opacity="0.5" stroke="#606060" stroke-width=".5" x="0" y="0" width="60" height="60"/>
  <use id="zoomplus" xlink:href="#zoomPlus" x="17" y="9" onmousedown="handleZoom(evt,'in')"/>
  <use id="zoomminus" xlink:href="#zoomMin" x="42" y="9" onmousedown="handleZoom(evt,'out')"/>
  <use id="reset" xlink:href="#resetDef" x="30" y="36" onmousedown="handleReset()"/>
   <use id="arrowup" xlink:href="#arrowUp" x="0" y="0" onmousedown="handlePan(0,-1)"/>
  <use id="arrowright" xlink:href="#arrowRight" x="0" y="0" onmousedown="handlePan(1,0)"/>
  <use id="arrowdown" xlink:href="#arrowDown" x="0" y="0" onmousedown="handlePan(0,1)"/>
  <use id="arrowleft" xlink:href="#arrowLeft" x="0" y="0" onmousedown="handlePan(-1,0)"/>
</g>
<svg viewBox="0 0 15 15" width="100%" height="30px" preserveAspectRatio="xMaxYMin meet">
 <g id="arrow_out" transform="scale(0.3 0.3)">
  <a xlink:href="classsierra_1_1nalu_1_1_data_probe_spec_info__coll__graph_org.svg" target="_base">
   <rect id="button" ry="5" rx="5" y="6" x="6" height="38" width="38"
        fill="#f2f5e9" fill-opacity="0.5" stroke="#606060" stroke-width="1.0"/>
   <path id="arrow"
     d="M 11.500037,31.436501 C 11.940474,20.09759 22.043105,11.32322 32.158766,21.979434 L 37.068811,17.246167 C 37.068811,17.246167 37.088388,32 37.088388,32 L 22.160133,31.978069 C 22.160133,31.978069 26.997745,27.140456 26.997745,27.140456 C 18.528582,18.264221 13.291696,25.230495 11.500037,31.436501 z"
     style="fill:#404040;"/>
  </a>
 </g>
</svg>

<style type='text/css'>
<![CDATA[
[data-mouse-over-selected='false'] { opacity: 0.7; }
[data-mouse-over-selected='true']  { opacity: 1.0; }
]]>
</style>
<script type="application/ecmascript"><![CDATA[
document.addEventListener('DOMContentLoaded', (event) => {
  highlightEdges();
  highlightAdjacentNodes();
});
]]></script>
</svg>
