<?xml version="1.0" encoding="UTF-8" standalone="no"?>
<!DOCTYPE svg PUBLIC "-//W3C//DTD SVG 1.1//EN"
 "http://www.w3.org/Graphics/SVG/1.1/DTD/svg11.dtd">
<!-- Generated by graphviz version 2.43.0 (0)
 -->
<!-- Title: sierra::nalu::LidarLineOfSite Pages: 1 -->
<!--zoomable 558 -->

<svg id="main" version="1.1" xmlns="http://www.w3.org/2000/svg" xmlns:xlink="http://www.w3.org/1999/xlink" xml:space="preserve" onload="init(evt)">
<style type="text/css"><![CDATA[
.node, .edge {opacity: 0.7;}
.node.selected, .edge.selected {opacity: 1;}
.edge:hover path { stroke: red; }
.edge:hover polygon { stroke: red; fill: red; }
]]></style>

<defs>
  <circle id="rim" cx="0" cy="0" r="7"/>
  <circle id="rim2" cx="0" cy="0" r="3.5"/>
  <g id="zoomPlus">
    <use xlink:href="#rim" fill="#404040"><set attributeName="fill" to="#808080" begin="zoomplus.mouseover" end="zoomplus.mouseout"/></use>
    <path d="M-4,0h8M0,-4v8" fill="none" stroke="white" stroke-width="1.5" pointer-events="none"/>
  </g>
  <g id="zoomMin">
    <use xlink:href="#rim" fill="#404040"><set attributeName="fill" to="#808080" begin="zoomminus.mouseover" end="zoomminus.mouseout"/></use>
    <path d="M-4,0h8" fill="none" stroke="white" stroke-width="1.5" pointer-events="none"/>
  </g>
  <g id="arrowUp" transform="translate(30 24)">
    <use xlink:href="#rim"/>
    <path pointer-events="none" fill="none" stroke="white" stroke-width="1.5" d="M0,-3.0v7 M-2.5,-0.5L0,-3.0L2.5,-0.5"/>
  </g>
  <g id="arrowRight" transform="rotate(90) translate(36 -43)">
    <use xlink:href="#rim"/>
    <path pointer-events="none" fill="none" stroke="white" stroke-width="1.5" d="M0,-3.0v7 M-2.5,-0.5L0,-3.0L2.5,-0.5"/>
  </g>
  <g id="arrowDown" transform="rotate(180) translate(-30 -48)">
    <use xlink:href="#rim"/>
    <path pointer-events="none" fill="none" stroke="white" stroke-width="1.5" d="M0,-3.0v7 M-2.5,-0.5L0,-3.0L2.5,-0.5"/>
  </g>
  <g id="arrowLeft" transform="rotate(270) translate(-36 17)">
    <use xlink:href="#rim"/>
    <path pointer-events="none" fill="none" stroke="white" stroke-width="1.5" d="M0,-3.0v7 M-2.5,-0.5L0,-3.0L2.5,-0.5"/>
  </g>
  <g id="resetDef">
    <use xlink:href="#rim2" fill="#404040"><set attributeName="fill" to="#808080" begin="reset.mouseover" end="reset.mouseout"/></use>
  </g>
</defs>
<script type="application/ecmascript">
var viewWidth = 1755;
var viewHeight = 558;
var sectionId = 'dynsection-0';
</script>
<script type="application/ecmascript" xlink:href="svg.min.js"/>
<svg id="graph" class="graph">
<g id="viewport">
<title>sierra::nalu::LidarLineOfSite</title>
<!-- Node1 -->
<g id="Node000001" class="node">
<title>Node1</title>
<g id="a_Node000001"><a xlink:title=" ">
<polygon fill="#999999" stroke="#666666" points="1747,-216 1595,-216 1595,-197 1747,-197 1747,-216"/>
<text text-anchor="middle" x="1671" y="-204" font-family="Helvetica,sans-Serif" font-size="10.00">sierra::nalu::LidarLineOfSite</text>
</a>
</g>
</g>
<!-- Node2 -->
<g id="Node000002" class="node">
<title>Node2</title>
<g id="a_Node000002"><a xlink:title=" ">
<polygon fill="white" stroke="#666666" points="1449,-457.5 1296,-457.5 1296,-427.5 1449,-427.5 1449,-457.5"/>
<text text-anchor="start" x="1304" y="-445.5" font-family="Helvetica,sans-Serif" font-size="10.00">std::unique_ptr&lt; sierra</text>
<text text-anchor="middle" x="1372.5" y="-434.5" font-family="Helvetica,sans-Serif" font-size="10.00">::nalu::SegmentGenerator &gt;</text>
</a>
</g>
</g>
<!-- Node2&#45;&gt;Node1 -->
<g id="edge1_Node000001_Node000002" class="edge">
<title>Node2&#45;&gt;Node1</title>
<g id="a_edge1_Node000001_Node000002"><a xlink:title=" ">
<path fill="none" stroke="#9a32cd" stroke-dasharray="5,2" d="M1436.12,-424.22C1479.25,-409.3 1535.97,-384.87 1577,-349.5 1623.21,-309.67 1655.27,-241.35 1666.03,-216.18"/>
<polygon fill="#9a32cd" stroke="#9a32cd" points="1434.93,-420.92 1426.58,-427.44 1437.17,-427.55 1434.93,-420.92"/>
</a>
</g>
<text text-anchor="middle" x="1528.5" y="-408.5" font-family="Helvetica,sans-Serif" font-size="10.00" fill="grey"> segGen</text>
</g>
<!-- Node3 -->
<g id="Node000003" class="node">
<title>Node3</title>
<g id="a_Node000003"><a xlink:href="classsierra_1_1nalu_1_1_segment_generator.html" target="_top" xlink:title=" ">
<polygon fill="white" stroke="#666666" points="1068,-489 898,-489 898,-470 1068,-470 1068,-489"/>
<text text-anchor="middle" x="983" y="-477" font-family="Helvetica,sans-Serif" font-size="10.00">sierra::nalu::SegmentGenerator</text>
</a>
</g>
</g>
<!-- Node3&#45;&gt;Node2 -->
<g id="edge2_Node000002_Node000003" class="edge">
<title>Node3&#45;&gt;Node2</title>
<g id="a_edge2_Node000002_Node000003"><a xlink:title=" ">
<path fill="none" stroke="#9a32cd" stroke-dasharray="5,2" d="M1078.06,-473.59C1132.71,-469.8 1202.84,-464.3 1265,-457.5 1275.02,-456.4 1285.56,-455.1 1295.94,-453.73"/>
<polygon fill="#9a32cd" stroke="#9a32cd" points="1077.78,-470.1 1068.05,-474.28 1078.26,-477.09 1077.78,-470.1"/>
</a>
</g>
<text text-anchor="middle" x="1175.5" y="-475.5" font-family="Helvetica,sans-Serif" font-size="10.00" fill="grey"> ptr</text>
</g>
<!-- Node4 -->
<g id="Node000004" class="node">
<title>Node4</title>
<g id="a_Node000004"><a xlink:title=" ">
<polygon fill="white" stroke="#666666" points="1042,-452 924,-452 924,-433 1042,-433 1042,-452"/>
<text text-anchor="middle" x="983" y="-440" font-family="Helvetica,sans-Serif" font-size="10.00">std::unique_ptr&lt; T &gt;</text>
</a>
</g>
</g>
<!-- Node4&#45;&gt;Node2 -->
<g id="edge3_Node000002_Node000004" class="edge">
<title>Node4&#45;&gt;Node2</title>
<g id="a_edge3_Node000002_Node000004"><a xlink:title=" ">
<path fill="none" stroke="orange" stroke-dasharray="5,2" d="M1052.22,-442.5C1120.41,-442.5 1225.02,-442.5 1295.75,-442.5"/>
<polygon fill="orange" stroke="orange" points="1052.01,-439 1042.01,-442.5 1052.01,-446 1052.01,-439"/>
</a>
</g>
<text text-anchor="middle" x="1175.5" y="-445.5" font-family="Helvetica,sans-Serif" font-size="10.00" fill="grey"> &lt; sierra::nalu::SegmentGenerator &gt;</text>
</g>
<!-- Node11 -->
<g id="Node000011" class="node">
<title>Node11</title>
<g id="a_Node000011"><a xlink:title=" ">
<polygon fill="white" stroke="#666666" points="1462,-288.5 1283,-288.5 1283,-258.5 1462,-258.5 1462,-288.5"/>
<text text-anchor="start" x="1291" y="-276.5" font-family="Helvetica,sans-Serif" font-size="10.00">std::unique_ptr&lt; sierra</text>
<text text-anchor="middle" x="1372.5" y="-265.5" font-family="Helvetica,sans-Serif" font-size="10.00">::nalu::LocalVolumeSearchData &gt;</text>
</a>
</g>
</g>
<!-- Node4&#45;&gt;Node11 -->
<g id="edge29_Node000011_Node000004" class="edge">
<title>Node4&#45;&gt;Node11</title>
<g id="a_edge29_Node000011_Node000004"><a xlink:title=" ">
<path fill="none" stroke="orange" stroke-dasharray="5,2" d="M1048.54,-430.51C1055.18,-428.73 1061.77,-426.73 1068,-424.5 1093.31,-415.44 1258.8,-325.21 1283,-313.5 1300.61,-304.98 1320.43,-295.97 1336.84,-288.66"/>
<polygon fill="orange" stroke="orange" points="1047.66,-427.12 1038.81,-432.96 1049.37,-433.91 1047.66,-427.12"/>
</a>
</g>
<text text-anchor="start" x="1106.5" y="-429.5" font-family="Helvetica,sans-Serif" font-size="10.00" fill="grey"> &lt; sierra::nalu::LocalVolume</text>
<text text-anchor="middle" x="1175.5" y="-418.5" font-family="Helvetica,sans-Serif" font-size="10.00" fill="grey">SearchData &gt;</text>
</g>
<!-- Node5 -->
<g id="Node000005" class="node">
<title>Node5</title>
<g id="a_Node000005"><a xlink:title=" ">
<polygon fill="white" stroke="#666666" points="29,-455 0,-455 0,-436 29,-436 29,-455"/>
<text text-anchor="middle" x="14.5" y="-443" font-family="Helvetica,sans-Serif" font-size="10.00">T</text>
</a>
</g>
</g>
<!-- Node5&#45;&gt;Node4 -->
<g id="edge4_Node000004_Node000005" class="edge">
<title>Node5&#45;&gt;Node4</title>
<g id="a_edge4_Node000004_Node000005"><a xlink:title=" ">
<path fill="none" stroke="#9a32cd" stroke-dasharray="5,2" d="M26.51,-463.54C31.95,-471.34 39.04,-480.13 47,-486.5 89.84,-520.8 104.12,-538.5 159,-538.5 159,-538.5 159,-538.5 690.5,-538.5 788.87,-538.5 803.71,-489.52 898,-461.5 909.75,-458.01 922.59,-454.8 934.62,-452.06"/>
<polygon fill="#9a32cd" stroke="#9a32cd" points="29.35,-461.48 20.95,-455.03 23.49,-465.31 29.35,-461.48"/>
</a>
</g>
<text text-anchor="middle" x="406.5" y="-541.5" font-family="Helvetica,sans-Serif" font-size="10.00" fill="grey"> ptr</text>
</g>
<!-- Node9 -->
<g id="Node000009" class="node">
<title>Node9</title>
<g id="a_Node000009"><a xlink:title=" ">
<polygon fill="white" stroke="#666666" points="1033.5,-34 932.5,-34 932.5,-15 1033.5,-15 1033.5,-34"/>
<text text-anchor="middle" x="983" y="-22" font-family="Helvetica,sans-Serif" font-size="10.00">std::map&lt; K, T &gt;</text>
</a>
</g>
</g>
<!-- Node5&#45;&gt;Node9 -->
<g id="edge10_Node000009_Node000005" class="edge">
<title>Node5&#45;&gt;Node9</title>
<g id="a_edge10_Node000009_Node000005"><a xlink:title=" ">
<path fill="none" stroke="#9a32cd" stroke-dasharray="5,2" d="M18.24,-425.35C29.81,-344.45 77.79,-47.5 159,-47.5 159,-47.5 159,-47.5 690.5,-47.5 775.66,-47.5 874.38,-37.62 932.32,-30.82"/>
<polygon fill="#9a32cd" stroke="#9a32cd" points="14.72,-425.27 16.8,-435.66 21.65,-426.24 14.72,-425.27"/>
</a>
</g>
<text text-anchor="middle" x="406.5" y="-50.5" font-family="Helvetica,sans-Serif" font-size="10.00" fill="grey"> elements</text>
</g>
<!-- Node14 -->
<g id="Node000014" class="node">
<title>Node14</title>
<g id="a_Node000014"><a xlink:title=" ">
<polygon fill="white" stroke="#666666" points="455,-317 358,-317 358,-298 455,-298 455,-317"/>
<text text-anchor="middle" x="406.5" y="-305" font-family="Helvetica,sans-Serif" font-size="10.00">std::vector&lt; T &gt;</text>
</a>
</g>
</g>
<!-- Node5&#45;&gt;Node14 -->
<g id="edge15_Node000014_Node000005" class="edge">
<title>Node5&#45;&gt;Node14</title>
<g id="a_edge15_Node000014_Node000005"><a xlink:title=" ">
<path fill="none" stroke="#9a32cd" stroke-dasharray="5,2" d="M38.81,-437.25C106.97,-413.13 305.66,-342.83 378.41,-317.09"/>
<polygon fill="#9a32cd" stroke="#9a32cd" points="37.64,-433.95 29.38,-440.59 39.98,-440.55 37.64,-433.95"/>
</a>
</g>
<text text-anchor="middle" x="160" y="-412.5" font-family="Helvetica,sans-Serif" font-size="10.00" fill="grey"> elements</text>
</g>
<!-- Node19 -->
<g id="Node000019" class="node">
<title>Node19</title>
<g id="a_Node000019"><a xlink:title=" ">
<polygon fill="white" stroke="#666666" points="206,-455 114,-455 114,-436 206,-436 206,-455"/>
<text text-anchor="middle" x="160" y="-443" font-family="Helvetica,sans-Serif" font-size="10.00">std::array&lt; T &gt;</text>
</a>
</g>
</g>
<!-- Node5&#45;&gt;Node19 -->
<g id="edge23_Node000019_Node000005" class="edge">
<title>Node5&#45;&gt;Node19</title>
<g id="a_edge23_Node000019_Node000005"><a xlink:title=" ">
<path fill="none" stroke="#9a32cd" stroke-dasharray="5,2" d="M39.18,-445.5C59.42,-445.5 89.11,-445.5 113.88,-445.5"/>
<polygon fill="#9a32cd" stroke="#9a32cd" points="39,-442 29,-445.5 39,-449 39,-442"/>
</a>
</g>
<text text-anchor="middle" x="71.5" y="-448.5" font-family="Helvetica,sans-Serif" font-size="10.00" fill="grey"> elements</text>
</g>
<!-- Node25 -->
<g id="Node000025" class="node">
<title>Node25</title>
<g id="a_Node000025"><a xlink:href="structvs_1_1_vector_t.html" target="_top" xlink:title="Vector in 3D space.">
<polygon fill="white" stroke="#666666" points="323,-499 224,-499 224,-480 323,-480 323,-499"/>
<text text-anchor="middle" x="273.5" y="-487" font-family="Helvetica,sans-Serif" font-size="10.00">vs::VectorT&lt; T &gt;</text>
</a>
</g>
</g>
<!-- Node5&#45;&gt;Node25 -->
<g id="edge37_Node000025_Node000005" class="edge">
<title>Node5&#45;&gt;Node25</title>
<g id="a_edge37_Node000025_Node000005"><a xlink:title=" ">
<path fill="none" stroke="#9a32cd" stroke-dasharray="5,2" d="M38.44,-457.44C41.27,-458.61 44.17,-459.67 47,-460.5 106.26,-477.94 177.34,-484.89 223.64,-487.67"/>
<polygon fill="#9a32cd" stroke="#9a32cd" points="39.78,-454.2 29.24,-453.2 36.86,-460.56 39.78,-454.2"/>
</a>
</g>
<text text-anchor="middle" x="71.5" y="-474.5" font-family="Helvetica,sans-Serif" font-size="10.00" fill="grey"> vv</text>
</g>
<!-- Node6 -->
<g id="Node000006" class="node">
<title>Node6</title>
<g id="a_Node000006"><a xlink:title=" ">
<polygon fill="white" stroke="#666666" points="1433.5,-48.5 1311.5,-48.5 1311.5,-18.5 1433.5,-18.5 1433.5,-48.5"/>
<text text-anchor="start" x="1319.5" y="-36.5" font-family="Helvetica,sans-Serif" font-size="10.00">std::map&lt; std::string,</text>
<text text-anchor="middle" x="1372.5" y="-25.5" font-family="Helvetica,sans-Serif" font-size="10.00"> int &gt;</text>
</a>
</g>
</g>
<!-- Node6&#45;&gt;Node1 -->
<g id="edge5_Node000001_Node000006" class="edge">
<title>Node6&#45;&gt;Node1</title>
<g id="a_edge5_Node000001_Node000006"><a xlink:title=" ">
<path fill="none" stroke="#9a32cd" stroke-dasharray="5,2" d="M1443.79,-28.12C1485.5,-28.25 1537.72,-34.5 1577,-59.5 1630.24,-93.39 1658.54,-169.92 1667.13,-196.88"/>
<polygon fill="#9a32cd" stroke="#9a32cd" points="1443.67,-24.62 1433.7,-28.21 1443.73,-31.62 1443.67,-24.62"/>
</a>
</g>
<text text-anchor="middle" x="1528.5" y="-62.5" font-family="Helvetica,sans-Serif" font-size="10.00" fill="grey"> ncVarIDs_</text>
</g>
<!-- Node7 -->
<g id="Node000007" class="node">
<title>Node7</title>
<g id="a_Node000007"><a xlink:title=" ">
<polygon fill="white" stroke="#666666" points="1015.5,-96 950.5,-96 950.5,-77 1015.5,-77 1015.5,-96"/>
<text text-anchor="middle" x="983" y="-84" font-family="Helvetica,sans-Serif" font-size="10.00">std::string</text>
</a>
</g>
</g>
<!-- Node7&#45;&gt;Node1 -->
<g id="edge33_Node000001_Node000007" class="edge">
<title>Node7&#45;&gt;Node1</title>
<g id="a_edge33_Node000001_Node000007"><a xlink:title=" ">
<path fill="none" stroke="#9a32cd" stroke-dasharray="5,2" d="M1025.87,-82C1110.04,-74.22 1305.13,-62.69 1462,-102.5 1540.66,-122.46 1624.02,-175.19 1656.21,-196.93"/>
<polygon fill="#9a32cd" stroke="#9a32cd" points="1025.31,-78.53 1015.69,-82.97 1025.97,-85.5 1025.31,-78.53"/>
</a>
</g>
<text text-anchor="middle" x="1372.5" y="-116.5" font-family="Helvetica,sans-Serif" font-size="10.00" fill="grey"> fname_</text>
<text text-anchor="middle" x="1372.5" y="-105.5" font-family="Helvetica,sans-Serif" font-size="10.00" fill="grey">name_</text>
</g>
<!-- Node7&#45;&gt;Node6 -->
<g id="edge6_Node000006_Node000007" class="edge">
<title>Node7&#45;&gt;Node6</title>
<g id="a_edge6_Node000006_Node000007"><a xlink:title=" ">
<path fill="none" stroke="#9a32cd" stroke-dasharray="5,2" d="M1024.14,-74.21C1042.79,-68.93 1065.36,-63.15 1086,-59.5 1163.07,-45.89 1253.18,-39.19 1311.23,-36.05"/>
<polygon fill="#9a32cd" stroke="#9a32cd" points="1023.14,-70.85 1014.5,-76.99 1025.08,-77.58 1023.14,-70.85"/>
</a>
</g>
<text text-anchor="middle" x="1175.5" y="-62.5" font-family="Helvetica,sans-Serif" font-size="10.00" fill="grey"> keys</text>
</g>
<!-- Node22 -->
<g id="Node000022" class="node">
<title>Node22</title>
<g id="a_Node000022"><a xlink:title=" ">
<polygon fill="white" stroke="#666666" points="1442.5,-153 1302.5,-153 1302.5,-134 1442.5,-134 1442.5,-153"/>
<text text-anchor="middle" x="1372.5" y="-141" font-family="Helvetica,sans-Serif" font-size="10.00">std::vector&lt; std::string &gt;</text>
</a>
</g>
</g>
<!-- Node7&#45;&gt;Node22 -->
<g id="edge31_Node000022_Node000007" class="edge">
<title>Node7&#45;&gt;Node22</title>
<g id="a_edge31_Node000022_Node000007"><a xlink:title=" ">
<path fill="none" stroke="#9a32cd" stroke-dasharray="5,2" d="M1025.91,-90.66C1092.65,-97.4 1220.11,-110.7 1265,-118.5 1288.76,-122.63 1315.16,-128.81 1335.73,-134"/>
<polygon fill="#9a32cd" stroke="#9a32cd" points="1026.04,-87.16 1015.74,-89.64 1025.34,-94.12 1026.04,-87.16"/>
</a>
</g>
<text text-anchor="middle" x="1175.5" y="-121.5" font-family="Helvetica,sans-Serif" font-size="10.00" fill="grey"> elements</text>
</g>
<!-- Node8 -->
<g id="Node000008" class="node">
<title>Node8</title>
<g id="a_Node000008"><a xlink:title=" ">
<polygon fill="white" stroke="#666666" points="741.5,-105.5 637.5,-105.5 637.5,-75.5 741.5,-75.5 741.5,-105.5"/>
<text text-anchor="start" x="645.5" y="-93.5" font-family="Helvetica,sans-Serif" font-size="10.00">std::basic_string&lt;</text>
<text text-anchor="middle" x="689.5" y="-82.5" font-family="Helvetica,sans-Serif" font-size="10.00"> Char &gt;</text>
</a>
</g>
</g>
<!-- Node8&#45;&gt;Node7 -->
<g id="edge7_Node000007_Node000008" class="edge">
<title>Node8&#45;&gt;Node7</title>
<g id="a_edge7_Node000007_Node000008"><a xlink:title=" ">
<path fill="none" stroke="#63b8ff" d="M751.82,-89.66C812.46,-88.83 902.87,-87.59 950.32,-86.93"/>
<polygon fill="#63b8ff" stroke="#63b8ff" points="751.56,-86.16 741.61,-89.8 751.66,-93.16 751.56,-86.16"/>
</a>
</g>
</g>
<!-- Node9&#45;&gt;Node6 -->
<g id="edge8_Node000006_Node000009" class="edge">
<title>Node9&#45;&gt;Node6</title>
<g id="a_edge8_Node000006_Node000009"><a xlink:title=" ">
<path fill="none" stroke="orange" stroke-dasharray="5,2" d="M1043.77,-23.48C1100.67,-22.8 1188.71,-22.5 1265,-25.5 1280.01,-26.09 1296.18,-27.11 1311.28,-28.22"/>
<polygon fill="orange" stroke="orange" points="1043.47,-19.98 1033.51,-23.61 1043.56,-26.98 1043.47,-19.98"/>
</a>
</g>
<text text-anchor="middle" x="1175.5" y="-28.5" font-family="Helvetica,sans-Serif" font-size="10.00" fill="grey"> &lt; std::string, int &gt;</text>
</g>
<!-- Node10 -->
<g id="Node000010" class="node">
<title>Node10</title>
<g id="a_Node000010"><a xlink:title=" ">
<polygon fill="white" stroke="#666666" points="704,-19 675,-19 675,0 704,0 704,-19"/>
<text text-anchor="middle" x="689.5" y="-7" font-family="Helvetica,sans-Serif" font-size="10.00">K</text>
</a>
</g>
</g>
<!-- Node10&#45;&gt;Node9 -->
<g id="edge9_Node000009_Node000010" class="edge">
<title>Node10&#45;&gt;Node9</title>
<g id="a_edge9_Node000009_Node000010"><a xlink:title=" ">
<path fill="none" stroke="#9a32cd" stroke-dasharray="5,2" d="M714.38,-10.73C761.87,-13.17 868.99,-18.68 932.36,-21.95"/>
<polygon fill="#9a32cd" stroke="#9a32cd" points="714.34,-7.22 704.17,-10.2 713.98,-14.21 714.34,-7.22"/>
</a>
</g>
<text text-anchor="middle" x="830" y="-22.5" font-family="Helvetica,sans-Serif" font-size="10.00" fill="grey"> keys</text>
</g>
<!-- Node11&#45;&gt;Node1 -->
<g id="edge11_Node000001_Node000011" class="edge">
<title>Node11&#45;&gt;Node1</title>
<g id="a_edge11_Node000001_Node000011"><a xlink:title=" ">
<path fill="none" stroke="#9a32cd" stroke-dasharray="5,2" d="M1450.04,-256.2C1506.7,-243.4 1581.77,-226.44 1627.94,-216.01"/>
<polygon fill="#9a32cd" stroke="#9a32cd" points="1449.02,-252.85 1440.04,-258.46 1450.57,-259.67 1449.02,-252.85"/>
</a>
</g>
<text text-anchor="middle" x="1528.5" y="-251.5" font-family="Helvetica,sans-Serif" font-size="10.00" fill="grey"> search_data_</text>
</g>
<!-- Node12 -->
<g id="Node000012" class="node">
<title>Node12</title>
<g id="a_Node000012"><a xlink:href="structsierra_1_1nalu_1_1_local_volume_search_data.html" target="_top" xlink:title=" ">
<polygon fill="white" stroke="#666666" points="1053,-288.5 913,-288.5 913,-258.5 1053,-258.5 1053,-288.5"/>
<text text-anchor="start" x="921" y="-276.5" font-family="Helvetica,sans-Serif" font-size="10.00">sierra::nalu::LocalVolume</text>
<text text-anchor="middle" x="983" y="-265.5" font-family="Helvetica,sans-Serif" font-size="10.00">SearchData</text>
</a>
</g>
</g>
<!-- Node12&#45;&gt;Node11 -->
<g id="edge12_Node000011_Node000012" class="edge">
<title>Node12&#45;&gt;Node11</title>
<g id="a_edge12_Node000011_Node000012"><a xlink:title=" ">
<path fill="none" stroke="#9a32cd" stroke-dasharray="5,2" d="M1063.28,-273.5C1127.03,-273.5 1216.57,-273.5 1282.72,-273.5"/>
<polygon fill="#9a32cd" stroke="#9a32cd" points="1063.28,-270 1053.28,-273.5 1063.28,-277 1063.28,-270"/>
</a>
</g>
<text text-anchor="middle" x="1175.5" y="-276.5" font-family="Helvetica,sans-Serif" font-size="10.00" fill="grey"> ptr</text>
</g>
<!-- Node13 -->
<g id="Node000013" class="node">
<title>Node13</title>
<g id="a_Node000013"><a xlink:title=" ">
<polygon fill="white" stroke="#666666" points="755.5,-199.5 623.5,-199.5 623.5,-169.5 755.5,-169.5 755.5,-199.5"/>
<text text-anchor="start" x="631.5" y="-187.5" font-family="Helvetica,sans-Serif" font-size="10.00">std::vector&lt; std::pair</text>
<text text-anchor="middle" x="689.5" y="-176.5" font-family="Helvetica,sans-Serif" font-size="10.00">&lt; sphere_t, ident_t &gt; &gt;</text>
</a>
</g>
</g>
<!-- Node13&#45;&gt;Node12 -->
<g id="edge13_Node000012_Node000013" class="edge">
<title>Node13&#45;&gt;Node12</title>
<g id="a_edge13_Node000012_Node000013"><a xlink:title=" ">
<path fill="none" stroke="#9a32cd" stroke-dasharray="5,2" d="M765.73,-196.71C800.94,-203.45 843.15,-213.02 880,-225.5 905.95,-234.29 934.02,-247.82 954.14,-258.28"/>
<polygon fill="#9a32cd" stroke="#9a32cd" points="765.99,-193.2 755.52,-194.8 764.7,-200.08 765.99,-193.2"/>
</a>
</g>
<text text-anchor="middle" x="830" y="-228.5" font-family="Helvetica,sans-Serif" font-size="10.00" fill="grey"> search_points</text>
</g>
<!-- Node14&#45;&gt;Node13 -->
<g id="edge14_Node000013_Node000014" class="edge">
<title>Node14&#45;&gt;Node13</title>
<g id="a_edge14_Node000013_Node000014"><a xlink:title=" ">
<path fill="none" stroke="orange" stroke-dasharray="5,2" d="M416.73,-288.69C429.55,-264.81 455.16,-224.45 490,-205.5 530.49,-183.48 582.49,-178.67 623.1,-179.14"/>
<polygon fill="orange" stroke="orange" points="413.5,-287.31 412.03,-297.8 419.72,-290.52 413.5,-287.31"/>
</a>
</g>
<text text-anchor="start" x="495" y="-219.5" font-family="Helvetica,sans-Serif" font-size="10.00" fill="grey"> &lt; std::pair&lt; sphere</text>
<text text-anchor="middle" x="544.5" y="-208.5" font-family="Helvetica,sans-Serif" font-size="10.00" fill="grey">_t, ident_t &gt; &gt;</text>
</g>
<!-- Node15 -->
<g id="Node000015" class="node">
<title>Node15</title>
<g id="a_Node000015"><a xlink:title=" ">
<polygon fill="white" stroke="#666666" points="749,-285.5 630,-285.5 630,-255.5 749,-255.5 749,-285.5"/>
<text text-anchor="start" x="638" y="-273.5" font-family="Helvetica,sans-Serif" font-size="10.00">std::vector&lt; std::pair</text>
<text text-anchor="middle" x="689.5" y="-262.5" font-family="Helvetica,sans-Serif" font-size="10.00">&lt; box_t, ident_t &gt; &gt;</text>
</a>
</g>
</g>
<!-- Node14&#45;&gt;Node15 -->
<g id="edge17_Node000015_Node000014" class="edge">
<title>Node14&#45;&gt;Node15</title>
<g id="a_edge17_Node000015_Node000014"><a xlink:title=" ">
<path fill="none" stroke="orange" stroke-dasharray="5,2" d="M439.52,-294.28C454.57,-288.68 472.93,-282.72 490,-279.5 536.44,-270.75 590.03,-268.79 629.81,-268.85"/>
<polygon fill="orange" stroke="orange" points="438.23,-291.03 430.15,-297.88 440.74,-297.56 438.23,-291.03"/>
</a>
</g>
<text text-anchor="start" x="496.5" y="-293.5" font-family="Helvetica,sans-Serif" font-size="10.00" fill="grey"> &lt; std::pair&lt; box_t,</text>
<text text-anchor="middle" x="544.5" y="-282.5" font-family="Helvetica,sans-Serif" font-size="10.00" fill="grey"> ident_t &gt; &gt;</text>
</g>
<!-- Node16 -->
<g id="Node000016" class="node">
<title>Node16</title>
<g id="a_Node000016"><a xlink:title=" ">
<polygon fill="white" stroke="#666666" points="751.5,-333.5 627.5,-333.5 627.5,-303.5 751.5,-303.5 751.5,-333.5"/>
<text text-anchor="start" x="635.5" y="-321.5" font-family="Helvetica,sans-Serif" font-size="10.00">std::vector&lt; std::pair</text>
<text text-anchor="middle" x="689.5" y="-310.5" font-family="Helvetica,sans-Serif" font-size="10.00">&lt; ident_t, ident_t &gt; &gt;</text>
</a>
</g>
</g>
<!-- Node14&#45;&gt;Node16 -->
<g id="edge19_Node000016_Node000014" class="edge">
<title>Node14&#45;&gt;Node16</title>
<g id="a_edge19_Node000016_Node000014"><a xlink:title=" ">
<path fill="none" stroke="orange" stroke-dasharray="5,2" d="M465.52,-306.21C503.52,-305.75 554.25,-305.89 599,-308.5 608.21,-309.04 617.93,-309.86 627.43,-310.8"/>
<polygon fill="orange" stroke="orange" points="465.11,-302.71 455.16,-306.35 465.2,-309.71 465.11,-302.71"/>
</a>
</g>
<text text-anchor="start" x="499" y="-322.5" font-family="Helvetica,sans-Serif" font-size="10.00" fill="grey"> &lt; std::pair&lt; ident</text>
<text text-anchor="middle" x="544.5" y="-311.5" font-family="Helvetica,sans-Serif" font-size="10.00" fill="grey">_t, ident_t &gt; &gt;</text>
</g>
<!-- Node17 -->
<g id="Node000017" class="node">
<title>Node17</title>
<g id="a_Node000017"><a xlink:title=" ">
<polygon fill="white" stroke="#666666" points="752.5,-381.5 626.5,-381.5 626.5,-351.5 752.5,-351.5 752.5,-381.5"/>
<text text-anchor="start" x="634.5" y="-369.5" font-family="Helvetica,sans-Serif" font-size="10.00">std::vector&lt; std::array</text>
<text text-anchor="middle" x="689.5" y="-358.5" font-family="Helvetica,sans-Serif" font-size="10.00">&lt; double, 3 &gt; &gt;</text>
</a>
</g>
</g>
<!-- Node14&#45;&gt;Node17 -->
<g id="edge24_Node000017_Node000014" class="edge">
<title>Node14&#45;&gt;Node17</title>
<g id="a_edge24_Node000017_Node000014"><a xlink:title=" ">
<path fill="none" stroke="orange" stroke-dasharray="5,2" d="M448.76,-319.81C461.88,-323.51 476.49,-327.4 490,-330.5 535.23,-340.88 586.82,-350.16 626.06,-356.7"/>
<polygon fill="orange" stroke="orange" points="449.63,-316.42 439.06,-317.04 447.71,-323.15 449.63,-316.42"/>
</a>
</g>
<text text-anchor="start" x="490" y="-365.5" font-family="Helvetica,sans-Serif" font-size="10.00" fill="grey"> &lt; std::array&lt; double,</text>
<text text-anchor="middle" x="544.5" y="-354.5" font-family="Helvetica,sans-Serif" font-size="10.00" fill="grey"> 3 &gt; &gt;</text>
</g>
<!-- Node20 -->
<g id="Node000020" class="node">
<title>Node20</title>
<g id="a_Node000020"><a xlink:title=" ">
<polygon fill="white" stroke="#666666" points="751.5,-419 627.5,-419 627.5,-400 751.5,-400 751.5,-419"/>
<text text-anchor="middle" x="689.5" y="-407" font-family="Helvetica,sans-Serif" font-size="10.00">std::vector&lt; double &gt;</text>
</a>
</g>
</g>
<!-- Node14&#45;&gt;Node20 -->
<g id="edge26_Node000020_Node000014" class="edge">
<title>Node14&#45;&gt;Node20</title>
<g id="a_edge26_Node000020_Node000014"><a xlink:title=" ">
<path fill="none" stroke="orange" stroke-dasharray="5,2" d="M423.18,-324.79C438.58,-340.63 463.56,-363.39 490,-375.5 502.44,-381.2 573.85,-392.63 627.49,-400.67"/>
<polygon fill="orange" stroke="orange" points="425.45,-322.1 416.04,-317.24 420.36,-326.91 425.45,-322.1"/>
</a>
</g>
<text text-anchor="middle" x="544.5" y="-398.5" font-family="Helvetica,sans-Serif" font-size="10.00" fill="grey"> &lt; double &gt;</text>
</g>
<!-- Node21 -->
<g id="Node000021" class="node">
<title>Node21</title>
<g id="a_Node000021"><a xlink:title=" ">
<polygon fill="white" stroke="#666666" points="741.5,-237 637.5,-237 637.5,-218 741.5,-218 741.5,-237"/>
<text text-anchor="middle" x="689.5" y="-225" font-family="Helvetica,sans-Serif" font-size="10.00">std::vector&lt; int &gt;</text>
</a>
</g>
</g>
<!-- Node14&#45;&gt;Node21 -->
<g id="edge28_Node000021_Node000014" class="edge">
<title>Node14&#45;&gt;Node21</title>
<g id="a_edge28_Node000021_Node000014"><a xlink:title=" ">
<path fill="none" stroke="orange" stroke-dasharray="5,2" d="M426.59,-291.39C442.49,-278.9 466.3,-262.28 490,-253.5 537.91,-235.75 596.25,-229.81 637.24,-227.97"/>
<polygon fill="orange" stroke="orange" points="424.2,-288.82 418.61,-297.83 428.59,-294.27 424.2,-288.82"/>
</a>
</g>
<text text-anchor="middle" x="544.5" y="-256.5" font-family="Helvetica,sans-Serif" font-size="10.00" fill="grey"> &lt; int &gt;</text>
</g>
<!-- Node14&#45;&gt;Node22 -->
<g id="edge32_Node000022_Node000014" class="edge">
<title>Node14&#45;&gt;Node22</title>
<g id="a_edge32_Node000022_Node000014"><a xlink:title=" ">
<path fill="none" stroke="orange" stroke-dasharray="5,2" d="M413.6,-288.29C424.06,-258.79 448.41,-202.99 490,-176.5 557.74,-133.36 1106.24,-138.76 1302.21,-142.12"/>
<polygon fill="orange" stroke="orange" points="410.25,-287.27 410.37,-297.86 416.88,-289.51 410.25,-287.27"/>
</a>
</g>
<text text-anchor="middle" x="830" y="-146.5" font-family="Helvetica,sans-Serif" font-size="10.00" fill="grey"> &lt; std::string &gt;</text>
</g>
<!-- Node24 -->
<g id="Node000024" class="node">
<title>Node24</title>
<g id="a_Node000024"><a xlink:title=" ">
<polygon fill="white" stroke="#666666" points="762,-456 617,-456 617,-437 762,-437 762,-456"/>
<text text-anchor="middle" x="689.5" y="-444" font-family="Helvetica,sans-Serif" font-size="10.00">std::vector&lt; vs::VectorT &gt;</text>
</a>
</g>
</g>
<!-- Node14&#45;&gt;Node24 -->
<g id="edge38_Node000024_Node000014" class="edge">
<title>Node14&#45;&gt;Node24</title>
<g id="a_edge38_Node000024_Node000014"><a xlink:title=" ">
<path fill="none" stroke="orange" stroke-dasharray="5,2" d="M417.16,-326.25C430.3,-349.72 456.11,-389.3 490,-409.5 491.59,-410.45 577.84,-426.32 636.12,-436.96"/>
<polygon fill="orange" stroke="orange" points="420.15,-324.42 412.32,-317.28 413.99,-327.74 420.15,-324.42"/>
</a>
</g>
<text text-anchor="middle" x="544.5" y="-432.5" font-family="Helvetica,sans-Serif" font-size="10.00" fill="grey"> &lt; vs::VectorT &gt;</text>
</g>
<!-- Node15&#45;&gt;Node12 -->
<g id="edge16_Node000012_Node000015" class="edge">
<title>Node15&#45;&gt;Node12</title>
<g id="a_edge16_Node000012_Node000015"><a xlink:title=" ">
<path fill="none" stroke="#9a32cd" stroke-dasharray="5,2" d="M759.39,-271.21C805.73,-271.69 866.58,-272.31 912.95,-272.79"/>
<polygon fill="#9a32cd" stroke="#9a32cd" points="759.17,-267.71 749.14,-271.1 759.1,-274.71 759.17,-267.71"/>
</a>
</g>
<text text-anchor="middle" x="830" y="-274.5" font-family="Helvetica,sans-Serif" font-size="10.00" fill="grey"> search_boxes</text>
</g>
<!-- Node16&#45;&gt;Node12 -->
<g id="edge18_Node000012_Node000016" class="edge">
<title>Node16&#45;&gt;Node12</title>
<g id="a_edge18_Node000012_Node000016"><a xlink:title=" ">
<path fill="none" stroke="#9a32cd" stroke-dasharray="5,2" d="M761.5,-307.54C807.51,-300.44 867.15,-291.23 912.79,-284.18"/>
<polygon fill="#9a32cd" stroke="#9a32cd" points="760.96,-304.08 751.61,-309.07 762.02,-311 760.96,-304.08"/>
</a>
</g>
<text text-anchor="middle" x="830" y="-306.5" font-family="Helvetica,sans-Serif" font-size="10.00" fill="grey"> search_matches</text>
</g>
<!-- Node17&#45;&gt;Node12 -->
<g id="edge20_Node000012_Node000017" class="edge">
<title>Node17&#45;&gt;Node12</title>
<g id="a_edge20_Node000012_Node000017"><a xlink:title=" ">
<path fill="none" stroke="#9a32cd" stroke-dasharray="5,2" d="M752.73,-348.72C761.86,-346.23 771.16,-343.75 780,-341.5 824.2,-330.25 836.72,-332.88 880,-318.5 904.8,-310.26 931.81,-298.2 951.8,-288.63"/>
<polygon fill="#9a32cd" stroke="#9a32cd" points="751.63,-345.39 742.92,-351.42 753.49,-352.14 751.63,-345.39"/>
</a>
</g>
<text text-anchor="middle" x="830" y="-344.5" font-family="Helvetica,sans-Serif" font-size="10.00" fill="grey"> interpolated_values</text>
</g>
<!-- Node18 -->
<g id="Node000018" class="node">
<title>Node18</title>
<g id="a_Node000018"><a xlink:title=" ">
<polygon fill="white" stroke="#666666" points="472,-455 341,-455 341,-436 472,-436 472,-455"/>
<text text-anchor="middle" x="406.5" y="-443" font-family="Helvetica,sans-Serif" font-size="10.00">std::array&lt; double, 3 &gt;</text>
</a>
</g>
</g>
<!-- Node18&#45;&gt;Node17 -->
<g id="edge21_Node000017_Node000018" class="edge">
<title>Node18&#45;&gt;Node17</title>
<g id="a_edge21_Node000017_Node000018"><a xlink:title=" ">
<path fill="none" stroke="#9a32cd" stroke-dasharray="5,2" d="M447.86,-457.51C489.74,-467.36 555.13,-475.09 599,-443.5 618.85,-429.21 599.73,-408.82 617,-391.5 620.9,-387.59 625.44,-384.29 630.32,-381.5"/>
<polygon fill="#9a32cd" stroke="#9a32cd" points="448.55,-454.08 438,-455.05 446.86,-460.87 448.55,-454.08"/>
</a>
</g>
<text text-anchor="middle" x="544.5" y="-468.5" font-family="Helvetica,sans-Serif" font-size="10.00" fill="grey"> elements</text>
</g>
<!-- Node19&#45;&gt;Node18 -->
<g id="edge22_Node000018_Node000019" class="edge">
<title>Node19&#45;&gt;Node18</title>
<g id="a_edge22_Node000018_Node000019"><a xlink:title=" ">
<path fill="none" stroke="orange" stroke-dasharray="5,2" d="M216.23,-445.5C253.21,-445.5 302.02,-445.5 340.82,-445.5"/>
<polygon fill="orange" stroke="orange" points="216.13,-442 206.13,-445.5 216.13,-449 216.13,-442"/>
</a>
</g>
<text text-anchor="middle" x="273.5" y="-448.5" font-family="Helvetica,sans-Serif" font-size="10.00" fill="grey"> &lt; double, 3 &gt;</text>
</g>
<!-- Node20&#45;&gt;Node12 -->
<g id="edge25_Node000012_Node000020" class="edge">
<title>Node20&#45;&gt;Node12</title>
<g id="a_edge25_Node000012_Node000020"><a xlink:title=" ">
<path fill="none" stroke="#9a32cd" stroke-dasharray="5,2" d="M737.8,-397.3C745.89,-395.11 754.2,-392.79 762,-390.5 814.86,-374.98 831.26,-378.2 880,-352.5 913.48,-334.84 947.21,-306.07 966.27,-288.55"/>
<polygon fill="#9a32cd" stroke="#9a32cd" points="736.83,-393.94 728.08,-399.9 738.65,-400.7 736.83,-393.94"/>
</a>
</g>
<text text-anchor="middle" x="830" y="-387.5" font-family="Helvetica,sans-Serif" font-size="10.00" fill="grey"> dist</text>
</g>
<!-- Node23 -->
<g id="Node000023" class="node">
<title>Node23</title>
<g id="a_Node000023"><a xlink:href="structsierra_1_1nalu_1_1_radar_filter.html" target="_top" xlink:title=" ">
<polygon fill="white" stroke="#666666" points="1048.5,-415 917.5,-415 917.5,-396 1048.5,-396 1048.5,-415"/>
<text text-anchor="middle" x="983" y="-403" font-family="Helvetica,sans-Serif" font-size="10.00">sierra::nalu::RadarFilter</text>
</a>
</g>
</g>
<!-- Node20&#45;&gt;Node23 -->
<g id="edge39_Node000023_Node000020" class="edge">
<title>Node20&#45;&gt;Node23</title>
<g id="a_edge39_Node000023_Node000020"><a xlink:title=" ">
<path fill="none" stroke="#9a32cd" stroke-dasharray="5,2" d="M761.83,-408.52C809.37,-407.87 871.35,-407.02 917.44,-406.39"/>
<polygon fill="#9a32cd" stroke="#9a32cd" points="761.56,-405.02 751.61,-408.66 761.66,-412.02 761.56,-405.02"/>
</a>
</g>
<text text-anchor="middle" x="830" y="-410.5" font-family="Helvetica,sans-Serif" font-size="10.00" fill="grey"> weights</text>
</g>
<!-- Node21&#45;&gt;Node12 -->
<g id="edge27_Node000012_Node000021" class="edge">
<title>Node21&#45;&gt;Node12</title>
<g id="a_edge27_Node000012_Node000021"><a xlink:title=" ">
<path fill="none" stroke="#9a32cd" stroke-dasharray="5,2" d="M751.8,-236.11C788.93,-241.44 837.24,-248.57 880,-255.5 890.65,-257.23 901.91,-259.13 912.91,-261.04"/>
<polygon fill="#9a32cd" stroke="#9a32cd" points="752.03,-232.61 741.63,-234.66 751.04,-239.54 752.03,-232.61"/>
</a>
</g>
<text text-anchor="middle" x="830" y="-258.5" font-family="Helvetica,sans-Serif" font-size="10.00" fill="grey"> ownership</text>
</g>
<!-- Node22&#45;&gt;Node1 -->
<g id="edge30_Node000001_Node000022" class="edge">
<title>Node22&#45;&gt;Node1</title>
<g id="a_edge30_Node000001_Node000022"><a xlink:title=" ">
<path fill="none" stroke="#9a32cd" stroke-dasharray="5,2" d="M1428.39,-155.16C1485.03,-167.2 1572.33,-185.75 1625.03,-196.95"/>
<polygon fill="#9a32cd" stroke="#9a32cd" points="1429.04,-151.72 1418.53,-153.07 1427.59,-158.57 1429.04,-151.72"/>
</a>
</g>
<text text-anchor="middle" x="1528.5" y="-189.5" font-family="Helvetica,sans-Serif" font-size="10.00" fill="grey"> fromTargetNames_</text>
</g>
<!-- Node23&#45;&gt;Node1 -->
<g id="edge34_Node000001_Node000023" class="edge">
<title>Node23&#45;&gt;Node1</title>
<g id="a_edge34_Node000001_Node000023"><a xlink:title=" ">
<path fill="none" stroke="#9a32cd" stroke-dasharray="5,2" d="M1006.15,-390.22C1026.11,-377.23 1056.73,-359.19 1086,-349.5 1296.31,-279.86 1374.59,-353.57 1577,-263.5 1607.1,-250.1 1639.25,-228.59 1656.75,-216.17"/>
<polygon fill="#9a32cd" stroke="#9a32cd" points="1004.16,-387.34 997.77,-395.79 1008.04,-393.17 1004.16,-387.34"/>
</a>
</g>
<text text-anchor="middle" x="1372.5" y="-317.5" font-family="Helvetica,sans-Serif" font-size="10.00" fill="grey"> radar_data_</text>
</g>
<!-- Node24&#45;&gt;Node23 -->
<g id="edge35_Node000023_Node000024" class="edge">
<title>Node24&#45;&gt;Node23</title>
<g id="a_edge35_Node000023_Node000024"><a xlink:title=" ">
<path fill="none" stroke="#9a32cd" stroke-dasharray="5,2" d="M772.31,-436.85C805.74,-432.72 844.76,-427.67 880,-422.5 895.36,-420.25 911.99,-417.58 927.27,-415.03"/>
<polygon fill="#9a32cd" stroke="#9a32cd" points="771.63,-433.41 762.13,-438.1 772.48,-440.35 771.63,-433.41"/>
</a>
</g>
<text text-anchor="middle" x="830" y="-438.5" font-family="Helvetica,sans-Serif" font-size="10.00" fill="grey"> rays</text>
</g>
<!-- Node25&#45;&gt;Node24 -->
<g id="edge36_Node000024_Node000025" class="edge">
<title>Node25&#45;&gt;Node24</title>
<g id="a_edge36_Node000024_Node000025"><a xlink:title=" ">
<path fill="none" stroke="#9a32cd" stroke-dasharray="5,2" d="M333.22,-492.51C398.67,-494.66 507.35,-494.67 599,-477.5 622.92,-473.02 649.1,-463.36 666.93,-456"/>
<polygon fill="#9a32cd" stroke="#9a32cd" points="333.22,-489 323.1,-492.14 332.97,-496 333.22,-489"/>
</a>
</g>
<text text-anchor="middle" x="406.5" y="-495.5" font-family="Helvetica,sans-Serif" font-size="10.00" fill="grey"> elements</text>
</g>
</g>
</svg>

<g id="navigator" transform="translate(0 0)" fill="#404254">
  <rect fill="#f2f5e9" fill-opacity="0.5" stroke="#606060" stroke-width=".5" x="0" y="0" width="60" height="60"/>
  <use id="zoomplus" xlink:href="#zoomPlus" x="17" y="9" onmousedown="handleZoom(evt,'in')"/>
  <use id="zoomminus" xlink:href="#zoomMin" x="42" y="9" onmousedown="handleZoom(evt,'out')"/>
  <use id="reset" xlink:href="#resetDef" x="30" y="36" onmousedown="handleReset()"/>
   <use id="arrowup" xlink:href="#arrowUp" x="0" y="0" onmousedown="handlePan(0,-1)"/>
  <use id="arrowright" xlink:href="#arrowRight" x="0" y="0" onmousedown="handlePan(1,0)"/>
  <use id="arrowdown" xlink:href="#arrowDown" x="0" y="0" onmousedown="handlePan(0,1)"/>
  <use id="arrowleft" xlink:href="#arrowLeft" x="0" y="0" onmousedown="handlePan(-1,0)"/>
</g>
<svg viewBox="0 0 15 15" width="100%" height="30px" preserveAspectRatio="xMaxYMin meet">
 <g id="arrow_out" transform="scale(0.3 0.3)">
  <a xlink:href="classsierra_1_1nalu_1_1_lidar_line_of_site__coll__graph_org.svg" target="_base">
   <rect id="button" ry="5" rx="5" y="6" x="6" height="38" width="38"
        fill="#f2f5e9" fill-opacity="0.5" stroke="#606060" stroke-width="1.0"/>
   <path id="arrow"
     d="M 11.500037,31.436501 C 11.940474,20.09759 22.043105,11.32322 32.158766,21.979434 L 37.068811,17.246167 C 37.068811,17.246167 37.088388,32 37.088388,32 L 22.160133,31.978069 C 22.160133,31.978069 26.997745,27.140456 26.997745,27.140456 C 18.528582,18.264221 13.291696,25.230495 11.500037,31.436501 z"
     style="fill:#404040;"/>
  </a>
 </g>
</svg>

<style type='text/css'>
<![CDATA[
[data-mouse-over-selected='false'] { opacity: 0.7; }
[data-mouse-over-selected='true']  { opacity: 1.0; }
]]>
</style>
<script type="application/ecmascript"><![CDATA[
document.addEventListener('DOMContentLoaded', (event) => {
  highlightEdges();
  highlightAdjacentNodes();
});
]]></script>
</svg>
