<?xml version="1.0" encoding="UTF-8" standalone="no"?>
<!DOCTYPE svg PUBLIC "-//W3C//DTD SVG 1.1//EN"
 "http://www.w3.org/Graphics/SVG/1.1/DTD/svg11.dtd">
<!-- Generated by graphviz version 2.43.0 (0)
 -->
<!-- Title: sierra::nalu::ScalarFaceFluxBCElemKernel&lt; BcAlgTraits &gt; Pages: 1 -->
<svg width="930pt" height="86pt"
 viewBox="0.00 0.00 930.00 86.00" xmlns="http://www.w3.org/2000/svg" xmlns:xlink="http://www.w3.org/1999/xlink">
<g id="graph0" class="graph" transform="scale(1 1) rotate(0) translate(4 82)">
<title>sierra::nalu::ScalarFaceFluxBCElemKernel&lt; BcAlgTraits &gt;</title>
<!-- Node1 -->
<g id="Node000001" class="node">
<title>Node1</title>
<g id="a_Node000001"><a xlink:title="This class applies the computed wall heat flux field to the boundary.">
<polygon fill="#999999" stroke="#666666" points="922,-37.5 739,-37.5 739,-7.5 922,-7.5 922,-37.5"/>
<text text-anchor="start" x="747" y="-25.5" font-family="Helvetica,sans-Serif" font-size="10.00">sierra::nalu::ScalarFace</text>
<text text-anchor="middle" x="830.5" y="-14.5" font-family="Helvetica,sans-Serif" font-size="10.00">FluxBCElemKernel&lt; BcAlgTraits &gt;</text>
</a>
</g>
</g>
<!-- Node2 -->
<g id="Node000002" class="node">
<title>Node2</title>
<g id="a_Node000002"><a xlink:href="classsierra_1_1nalu_1_1_n_g_p_kernel.html" target="_top" xlink:title=" ">
<polygon fill="white" stroke="#666666" points="666,-78 496,-78 496,-37 666,-37 666,-78"/>
<text text-anchor="start" x="504" y="-66" font-family="Helvetica,sans-Serif" font-size="10.00">sierra::nalu::NGPKernel</text>
<text text-anchor="start" x="504" y="-55" font-family="Helvetica,sans-Serif" font-size="10.00">&lt; ScalarFaceFluxBCElemKernel</text>
<text text-anchor="middle" x="581" y="-44" font-family="Helvetica,sans-Serif" font-size="10.00">&lt; BcAlgTraits &gt; &gt;</text>
</a>
</g>
</g>
<!-- Node2&#45;&gt;Node1 -->
<g id="edge1_Node000001_Node000002" class="edge">
<title>Node2&#45;&gt;Node1</title>
<g id="a_edge1_Node000001_Node000002"><a xlink:title=" ">
<path fill="none" stroke="#63b8ff" d="M676.13,-44.19C696.68,-41.28 718.4,-38.21 738.82,-35.32"/>
<polygon fill="#63b8ff" stroke="#63b8ff" points="675.55,-40.74 666.14,-45.6 676.53,-47.67 675.55,-40.74"/>
</a>
</g>
</g>
<!-- Node3 -->
<g id="Node000003" class="node">
<title>Node3</title>
<g id="a_Node000003"><a xlink:href="classsierra_1_1nalu_1_1_kernel.html" target="_top" xlink:title="Base class for computational kernels in Nalu.">
<polygon fill="white" stroke="#666666" points="108,-66 0,-66 0,-47 108,-47 108,-66"/>
<text text-anchor="middle" x="54" y="-54" font-family="Helvetica,sans-Serif" font-size="10.00">sierra::nalu::Kernel</text>
</a>
</g>
</g>
<!-- Node3&#45;&gt;Node2 -->
<g id="edge2_Node000002_Node000003" class="edge">
<title>Node3&#45;&gt;Node2</title>
<g id="a_edge2_Node000002_Node000003"><a xlink:title=" ">
<path fill="none" stroke="#63b8ff" d="M118.26,-61.18C120.87,-61.3 123.46,-61.41 126,-61.5 282.35,-67 321.59,-64.57 478,-61.5 483.85,-61.39 489.88,-61.23 495.96,-61.06"/>
<polygon fill="#63b8ff" stroke="#63b8ff" points="118.26,-57.68 108.09,-60.65 117.9,-64.67 118.26,-57.68"/>
</a>
</g>
</g>
<!-- Node4 -->
<g id="Node000004" class="node">
<title>Node4</title>
<g id="a_Node000004"><a xlink:href="classsierra_1_1nalu_1_1_n_g_p_kernel.html" target="_top" xlink:title="Kernel that can be transferred to a device.">
<polygon fill="white" stroke="#666666" points="303,-47 145,-47 145,-28 303,-28 303,-47"/>
<text text-anchor="middle" x="224" y="-35" font-family="Helvetica,sans-Serif" font-size="10.00">sierra::nalu::NGPKernel&lt; T &gt;</text>
</a>
</g>
</g>
<!-- Node3&#45;&gt;Node4 -->
<g id="edge4_Node000004_Node000003" class="edge">
<title>Node3&#45;&gt;Node4</title>
<g id="a_edge4_Node000004_Node000003"><a xlink:title=" ">
<path fill="none" stroke="#63b8ff" d="M118.16,-49.36C126.83,-48.38 135.82,-47.36 144.72,-46.35"/>
<polygon fill="#63b8ff" stroke="#63b8ff" points="117.7,-45.89 108.16,-50.49 118.49,-52.84 117.7,-45.89"/>
</a>
</g>
</g>
<!-- Node4&#45;&gt;Node2 -->
<g id="edge3_Node000002_Node000004" class="edge">
<title>Node4&#45;&gt;Node2</title>
<g id="a_edge3_Node000002_Node000004"><a xlink:title=" ">
<path fill="none" stroke="orange" stroke-dasharray="5,2" d="M313.42,-34.6C362.08,-33.9 423.48,-34.51 478,-39.5 483.82,-40.03 489.81,-40.72 495.82,-41.51"/>
<polygon fill="orange" stroke="orange" points="313.18,-31.1 303.24,-34.76 313.29,-38.1 313.18,-31.1"/>
</a>
</g>
<text text-anchor="start" x="321" y="-53.5" font-family="Helvetica,sans-Serif" font-size="10.00" fill="grey"> &lt; ScalarFaceFluxBCElemKernel</text>
<text text-anchor="middle" x="399.5" y="-42.5" font-family="Helvetica,sans-Serif" font-size="10.00" fill="grey">&lt; BcAlgTraits &gt; &gt;</text>
</g>
<!-- Node5 -->
<g id="Node000005" class="node">
<title>Node5</title>
<g id="a_Node000005"><a xlink:href="classsierra_1_1nalu_1_1_master_element.html" target="_top" xlink:title=" ">
<polygon fill="white" stroke="#666666" points="657,-19 505,-19 505,0 657,0 657,-19"/>
<text text-anchor="middle" x="581" y="-7" font-family="Helvetica,sans-Serif" font-size="10.00">sierra::nalu::MasterElement</text>
</a>
</g>
</g>
<!-- Node5&#45;&gt;Node1 -->
<g id="edge5_Node000001_Node000005" class="edge">
<title>Node5&#45;&gt;Node1</title>
<g id="a_edge5_Node000001_Node000005"><a xlink:title=" ">
<path fill="none" stroke="#9a32cd" stroke-dasharray="5,2" d="M667.37,-13.98C690.46,-15.2 715.53,-16.51 738.9,-17.74"/>
<polygon fill="#9a32cd" stroke="#9a32cd" points="667.44,-10.48 657.27,-13.45 667.07,-17.47 667.44,-10.48"/>
</a>
</g>
<text text-anchor="middle" x="702.5" y="-20.5" font-family="Helvetica,sans-Serif" font-size="10.00" fill="grey"> meFC_</text>
</g>
</g>
</svg>
