<?xml version="1.0" encoding="UTF-8" standalone="no"?>
<!DOCTYPE svg PUBLIC "-//W3C//DTD SVG 1.1//EN"
 "http://www.w3.org/Graphics/SVG/1.1/DTD/svg11.dtd">
<!-- Generated by graphviz version 2.43.0 (0)
 -->
<!-- Title: sierra::nalu::ActuatorLineFastNGP Pages: 1 -->
<svg width="1839pt" height="225pt"
 viewBox="0.00 0.00 1839.00 225.00" xmlns="http://www.w3.org/2000/svg" xmlns:xlink="http://www.w3.org/1999/xlink">
<g id="graph0" class="graph" transform="scale(1 1) rotate(0) translate(4 221)">
<title>sierra::nalu::ActuatorLineFastNGP</title>
<!-- Node1 -->
<g id="Node000001" class="node">
<title>Node1</title>
<g id="a_Node000001"><a xlink:title=" ">
<polygon fill="#999999" stroke="#666666" points="1831,-115 1692,-115 1692,-85 1831,-85 1831,-115"/>
<text text-anchor="start" x="1700" y="-103" font-family="Helvetica,sans-Serif" font-size="10.00">sierra::nalu::ActuatorLine</text>
<text text-anchor="middle" x="1761.5" y="-92" font-family="Helvetica,sans-Serif" font-size="10.00">FastNGP</text>
</a>
</g>
</g>
<!-- Node2 -->
<g id="Node000002" class="node">
<title>Node2</title>
<g id="a_Node000002"><a xlink:href="classsierra_1_1nalu_1_1_actuator_executor.html" target="_top" xlink:title="Interface class for actuator execution model.">
<polygon fill="white" stroke="#666666" points="1608.5,-109.5 1447.5,-109.5 1447.5,-90.5 1608.5,-90.5 1608.5,-109.5"/>
<text text-anchor="middle" x="1528" y="-97.5" font-family="Helvetica,sans-Serif" font-size="10.00">sierra::nalu::ActuatorExecutor</text>
</a>
</g>
</g>
<!-- Node2&#45;&gt;Node1 -->
<g id="edge1_Node000001_Node000002" class="edge">
<title>Node2&#45;&gt;Node1</title>
<g id="a_edge1_Node000001_Node000002"><a xlink:title=" ">
<path fill="none" stroke="#63b8ff" d="M1618.95,-100C1643.18,-100 1669.01,-100 1691.88,-100"/>
<polygon fill="#63b8ff" stroke="#63b8ff" points="1618.67,-96.5 1608.67,-100 1618.67,-103.5 1618.67,-96.5"/>
</a>
</g>
</g>
<!-- Node3 -->
<g id="Node000003" class="node">
<title>Node3</title>
<g id="a_Node000003"><a xlink:href="classsierra_1_1nalu_1_1_filtered_lifting_line_correction.html" target="_top" xlink:title=" ">
<polygon fill="white" stroke="#666666" points="1330.5,-115 1186.5,-115 1186.5,-85 1330.5,-85 1330.5,-115"/>
<text text-anchor="start" x="1194.5" y="-103" font-family="Helvetica,sans-Serif" font-size="10.00">sierra::nalu::FilteredLifting</text>
<text text-anchor="middle" x="1258.5" y="-92" font-family="Helvetica,sans-Serif" font-size="10.00">LineCorrection</text>
</a>
</g>
</g>
<!-- Node3&#45;&gt;Node2 -->
<g id="edge2_Node000002_Node000003" class="edge">
<title>Node3&#45;&gt;Node2</title>
<g id="a_edge2_Node000002_Node000003"><a xlink:title=" ">
<path fill="none" stroke="#9a32cd" stroke-dasharray="5,2" d="M1341.12,-100C1374.87,-100 1413.85,-100 1447.38,-100"/>
<polygon fill="#9a32cd" stroke="#9a32cd" points="1340.83,-96.5 1330.83,-100 1340.83,-103.5 1340.83,-96.5"/>
</a>
</g>
<text text-anchor="middle" x="1394" y="-103" font-family="Helvetica,sans-Serif" font-size="10.00" fill="grey"> fLiftLineCorr_</text>
</g>
<!-- Node4 -->
<g id="Node000004" class="node">
<title>Node4</title>
<g id="a_Node000004"><a xlink:href="structsierra_1_1nalu_1_1_actuator_bulk.html" target="_top" xlink:title="Where field data is stored and accessed for actuators This object lives on host but the views can be ...">
<polygon fill="white" stroke="#666666" points="1015,-158.5 875,-158.5 875,-139.5 1015,-139.5 1015,-158.5"/>
<text text-anchor="middle" x="945" y="-146.5" font-family="Helvetica,sans-Serif" font-size="10.00">sierra::nalu::ActuatorBulk</text>
</a>
</g>
</g>
<!-- Node4&#45;&gt;Node3 -->
<g id="edge3_Node000003_Node000004" class="edge">
<title>Node4&#45;&gt;Node3</title>
<g id="a_edge3_Node000003_Node000004"><a xlink:title=" ">
<path fill="none" stroke="#9a32cd" stroke-dasharray="5,2" d="M1012.57,-137.81C1020.47,-136.51 1028.41,-135.21 1036,-134 1086.13,-125.97 1142.71,-117.3 1186.14,-110.72"/>
<polygon fill="#9a32cd" stroke="#9a32cd" points="1011.93,-134.36 1002.63,-139.45 1013.07,-141.27 1011.93,-134.36"/>
</a>
</g>
<text text-anchor="middle" x="1096.5" y="-137" font-family="Helvetica,sans-Serif" font-size="10.00" fill="grey"> actBulk_</text>
</g>
<!-- Node14 -->
<g id="Node000014" class="node">
<title>Node14</title>
<g id="a_Node000014"><a xlink:href="structsierra_1_1nalu_1_1_actuator_bulk_f_a_s_t.html" target="_top" xlink:title=" ">
<polygon fill="white" stroke="#666666" points="1610,-168.5 1446,-168.5 1446,-149.5 1610,-149.5 1610,-168.5"/>
<text text-anchor="middle" x="1528" y="-156.5" font-family="Helvetica,sans-Serif" font-size="10.00">sierra::nalu::ActuatorBulkFAST</text>
</a>
</g>
</g>
<!-- Node4&#45;&gt;Node14 -->
<g id="edge17_Node000014_Node000004" class="edge">
<title>Node4&#45;&gt;Node14</title>
<g id="a_edge17_Node000014_Node000004"><a xlink:title=" ">
<path fill="none" stroke="#63b8ff" d="M1025.28,-150.36C1135.58,-152.26 1334.29,-155.68 1445.67,-157.6"/>
<polygon fill="#63b8ff" stroke="#63b8ff" points="1025.28,-146.86 1015.22,-150.19 1025.16,-153.86 1025.28,-146.86"/>
</a>
</g>
</g>
<!-- Node5 -->
<g id="Node000005" class="node">
<title>Node5</title>
<g id="a_Node000005"><a xlink:href="structsierra_1_1nalu_1_1_actuator_meta.html" target="_top" xlink:title="Meta data for working with actuator fields This is an example of meta data that will be used to const...">
<polygon fill="white" stroke="#666666" points="1016.5,-63.5 873.5,-63.5 873.5,-44.5 1016.5,-44.5 1016.5,-63.5"/>
<text text-anchor="middle" x="945" y="-51.5" font-family="Helvetica,sans-Serif" font-size="10.00">sierra::nalu::ActuatorMeta</text>
</a>
</g>
</g>
<!-- Node5&#45;&gt;Node3 -->
<g id="edge4_Node000003_Node000005" class="edge">
<title>Node5&#45;&gt;Node3</title>
<g id="a_edge4_Node000003_Node000005"><a xlink:title=" ">
<path fill="none" stroke="#9a32cd" stroke-dasharray="5,2" d="M1026.78,-59.29C1066.23,-62.57 1114.29,-67.6 1157,-75 1172.15,-77.62 1188.39,-81.28 1203.3,-84.99"/>
<polygon fill="#9a32cd" stroke="#9a32cd" points="1026.93,-55.79 1016.68,-58.47 1026.36,-62.76 1026.93,-55.79"/>
</a>
</g>
<text text-anchor="middle" x="1096.5" y="-78" font-family="Helvetica,sans-Serif" font-size="10.00" fill="grey"> actMeta_</text>
</g>
<!-- Node13 -->
<g id="Node000013" class="node">
<title>Node13</title>
<g id="a_Node000013"><a xlink:href="structsierra_1_1nalu_1_1_actuator_meta_f_a_s_t.html" target="_top" xlink:title=" ">
<polygon fill="white" stroke="#666666" points="1342,-50.5 1175,-50.5 1175,-31.5 1342,-31.5 1342,-50.5"/>
<text text-anchor="middle" x="1258.5" y="-38.5" font-family="Helvetica,sans-Serif" font-size="10.00">sierra::nalu::ActuatorMetaFAST</text>
</a>
</g>
</g>
<!-- Node5&#45;&gt;Node13 -->
<g id="edge14_Node000013_Node000005" class="edge">
<title>Node5&#45;&gt;Node13</title>
<g id="a_edge14_Node000013_Node000005"><a xlink:title=" ">
<path fill="none" stroke="#63b8ff" d="M1026.82,-50.63C1072.36,-48.73 1129.14,-46.36 1174.96,-44.44"/>
<polygon fill="#63b8ff" stroke="#63b8ff" points="1026.53,-47.14 1016.68,-51.05 1026.82,-54.13 1026.53,-47.14"/>
</a>
</g>
</g>
<!-- Node6 -->
<g id="Node000006" class="node">
<title>Node6</title>
<g id="a_Node000006"><a xlink:title=" ">
<polygon fill="white" stroke="#666666" points="718,-31.5 578,-31.5 578,-12.5 718,-12.5 718,-31.5"/>
<text text-anchor="middle" x="648" y="-19.5" font-family="Helvetica,sans-Serif" font-size="10.00">std::vector&lt; std::string &gt;</text>
</a>
</g>
</g>
<!-- Node6&#45;&gt;Node5 -->
<g id="edge5_Node000005_Node000006" class="edge">
<title>Node6&#45;&gt;Node5</title>
<g id="a_edge5_Node000005_Node000006"><a xlink:title=" ">
<path fill="none" stroke="#9a32cd" stroke-dasharray="5,2" d="M728.23,-30.59C773.49,-35.5 829.75,-41.61 873.48,-46.35"/>
<polygon fill="#9a32cd" stroke="#9a32cd" points="728.48,-27.1 718.16,-29.5 727.73,-34.06 728.48,-27.1"/>
</a>
</g>
<text text-anchor="middle" x="801" y="-47" font-family="Helvetica,sans-Serif" font-size="10.00" fill="grey"> searchTargetNames_</text>
</g>
<!-- Node6&#45;&gt;Node13 -->
<g id="edge15_Node000013_Node000006" class="edge">
<title>Node6&#45;&gt;Node13</title>
<g id="a_edge15_Node000013_Node000006"><a xlink:title=" ">
<path fill="none" stroke="#9a32cd" stroke-dasharray="5,2" d="M728.31,-18.02C770.9,-16.08 824.3,-13.96 872,-13 936.88,-11.69 953.22,-9.23 1018,-13 1077.76,-16.48 1145.49,-24.81 1193.64,-31.48"/>
<polygon fill="#9a32cd" stroke="#9a32cd" points="728.12,-14.53 718.29,-18.48 728.44,-21.52 728.12,-14.53"/>
</a>
</g>
<text text-anchor="middle" x="945" y="-27" font-family="Helvetica,sans-Serif" font-size="10.00" fill="grey"> turbineNames_</text>
<text text-anchor="middle" x="945" y="-16" font-family="Helvetica,sans-Serif" font-size="10.00" fill="grey">turbineOutputFileNames_</text>
</g>
<!-- Node7 -->
<g id="Node000007" class="node">
<title>Node7</title>
<g id="a_Node000007"><a xlink:title=" ">
<polygon fill="white" stroke="#666666" points="312,-24.5 247,-24.5 247,-5.5 312,-5.5 312,-24.5"/>
<text text-anchor="middle" x="279.5" y="-12.5" font-family="Helvetica,sans-Serif" font-size="10.00">std::string</text>
</a>
</g>
</g>
<!-- Node7&#45;&gt;Node6 -->
<g id="edge6_Node000006_Node000007" class="edge">
<title>Node7&#45;&gt;Node6</title>
<g id="a_edge6_Node000006_Node000007"><a xlink:title=" ">
<path fill="none" stroke="#9a32cd" stroke-dasharray="5,2" d="M322.51,-14.42C375.21,-13.86 468.31,-13.44 548,-16 557.64,-16.31 567.8,-16.77 577.79,-17.3"/>
<polygon fill="#9a32cd" stroke="#9a32cd" points="322.18,-10.92 312.22,-14.54 322.26,-17.92 322.18,-10.92"/>
</a>
</g>
<text text-anchor="middle" x="468" y="-19" font-family="Helvetica,sans-Serif" font-size="10.00" fill="grey"> elements</text>
</g>
<!-- Node8 -->
<g id="Node000008" class="node">
<title>Node8</title>
<g id="a_Node000008"><a xlink:title=" ">
<polygon fill="white" stroke="#666666" points="104,-30 0,-30 0,0 104,0 104,-30"/>
<text text-anchor="start" x="8" y="-18" font-family="Helvetica,sans-Serif" font-size="10.00">std::basic_string&lt;</text>
<text text-anchor="middle" x="52" y="-7" font-family="Helvetica,sans-Serif" font-size="10.00"> Char &gt;</text>
</a>
</g>
</g>
<!-- Node8&#45;&gt;Node7 -->
<g id="edge7_Node000007_Node000008" class="edge">
<title>Node8&#45;&gt;Node7</title>
<g id="a_edge7_Node000007_Node000008"><a xlink:title=" ">
<path fill="none" stroke="#63b8ff" d="M114.2,-15C156.98,-15 212.38,-15 246.67,-15"/>
<polygon fill="#63b8ff" stroke="#63b8ff" points="114.17,-11.5 104.17,-15 114.17,-18.5 114.17,-11.5"/>
</a>
</g>
</g>
<!-- Node9 -->
<g id="Node000009" class="node">
<title>Node9</title>
<g id="a_Node000009"><a xlink:title=" ">
<polygon fill="white" stroke="#666666" points="328,-80.5 231,-80.5 231,-61.5 328,-61.5 328,-80.5"/>
<text text-anchor="middle" x="279.5" y="-68.5" font-family="Helvetica,sans-Serif" font-size="10.00">std::vector&lt; T &gt;</text>
</a>
</g>
</g>
<!-- Node9&#45;&gt;Node6 -->
<g id="edge8_Node000006_Node000009" class="edge">
<title>Node9&#45;&gt;Node6</title>
<g id="a_edge8_Node000006_Node000009"><a xlink:title=" ">
<path fill="none" stroke="orange" stroke-dasharray="5,2" d="M338.1,-63.3C403.06,-54.61 508.65,-40.5 577.97,-31.23"/>
<polygon fill="orange" stroke="orange" points="337.49,-59.85 328.04,-64.64 338.41,-66.79 337.49,-59.85"/>
</a>
</g>
<text text-anchor="middle" x="468" y="-60" font-family="Helvetica,sans-Serif" font-size="10.00" fill="grey"> &lt; std::string &gt;</text>
</g>
<!-- Node11 -->
<g id="Node000011" class="node">
<title>Node11</title>
<g id="a_Node000011"><a xlink:title=" ">
<polygon fill="white" stroke="#666666" points="730,-115 566,-115 566,-85 730,-85 730,-115"/>
<text text-anchor="start" x="574" y="-103" font-family="Helvetica,sans-Serif" font-size="10.00">std::vector&lt; sierra</text>
<text text-anchor="middle" x="648" y="-92" font-family="Helvetica,sans-Serif" font-size="10.00">::nalu::BladeDistributionInfo &gt;</text>
</a>
</g>
</g>
<!-- Node9&#45;&gt;Node11 -->
<g id="edge12_Node000011_Node000009" class="edge">
<title>Node9&#45;&gt;Node11</title>
<g id="a_edge12_Node000011_Node000009"><a xlink:title=" ">
<path fill="none" stroke="orange" stroke-dasharray="5,2" d="M338.13,-71.07C392.42,-71.67 475.96,-74.01 548,-82 555.29,-82.81 562.86,-83.84 570.41,-84.99"/>
<polygon fill="orange" stroke="orange" points="338.04,-67.56 328,-70.97 337.97,-74.56 338.04,-67.56"/>
</a>
</g>
<text text-anchor="start" x="388" y="-96" font-family="Helvetica,sans-Serif" font-size="10.00" fill="grey"> &lt; sierra::nalu::BladeDistribution</text>
<text text-anchor="middle" x="468" y="-85" font-family="Helvetica,sans-Serif" font-size="10.00" fill="grey">Info &gt;</text>
</g>
<!-- Node10 -->
<g id="Node000010" class="node">
<title>Node10</title>
<g id="a_Node000010"><a xlink:title=" ">
<polygon fill="white" stroke="#666666" points="66.5,-80.5 37.5,-80.5 37.5,-61.5 66.5,-61.5 66.5,-80.5"/>
<text text-anchor="middle" x="52" y="-68.5" font-family="Helvetica,sans-Serif" font-size="10.00">T</text>
</a>
</g>
</g>
<!-- Node10&#45;&gt;Node9 -->
<g id="edge9_Node000009_Node000010" class="edge">
<title>Node10&#45;&gt;Node9</title>
<g id="a_edge9_Node000009_Node000010"><a xlink:title=" ">
<path fill="none" stroke="#9a32cd" stroke-dasharray="5,2" d="M76.93,-71C113.36,-71 183.47,-71 230.63,-71"/>
<polygon fill="#9a32cd" stroke="#9a32cd" points="76.77,-67.5 66.77,-71 76.77,-74.5 76.77,-67.5"/>
</a>
</g>
<text text-anchor="middle" x="146.5" y="-74" font-family="Helvetica,sans-Serif" font-size="10.00" fill="grey"> elements</text>
</g>
<!-- Node11&#45;&gt;Node3 -->
<g id="edge10_Node000003_Node000011" class="edge">
<title>Node11&#45;&gt;Node3</title>
<g id="a_edge10_Node000003_Node000011"><a xlink:title=" ">
<path fill="none" stroke="#9a32cd" stroke-dasharray="5,2" d="M740.18,-100C862.09,-100 1075.66,-100 1186.39,-100"/>
<polygon fill="#9a32cd" stroke="#9a32cd" points="740.12,-96.5 730.12,-100 740.12,-103.5 740.12,-96.5"/>
</a>
</g>
<text text-anchor="middle" x="945" y="-103" font-family="Helvetica,sans-Serif" font-size="10.00" fill="grey"> bladeDistInfo_</text>
</g>
<!-- Node12 -->
<g id="Node000012" class="node">
<title>Node12</title>
<g id="a_Node000012"><a xlink:href="structsierra_1_1nalu_1_1_blade_distribution_info.html" target="_top" xlink:title="Data structure for caching blade specific info.">
<polygon fill="white" stroke="#666666" points="370,-137.5 189,-137.5 189,-118.5 370,-118.5 370,-137.5"/>
<text text-anchor="middle" x="279.5" y="-125.5" font-family="Helvetica,sans-Serif" font-size="10.00">sierra::nalu::BladeDistributionInfo</text>
</a>
</g>
</g>
<!-- Node12&#45;&gt;Node11 -->
<g id="edge11_Node000011_Node000012" class="edge">
<title>Node12&#45;&gt;Node11</title>
<g id="a_edge11_Node000011_Node000012"><a xlink:title=" ">
<path fill="none" stroke="#9a32cd" stroke-dasharray="5,2" d="M380.48,-120.36C438.68,-115.92 511.11,-110.38 565.77,-106.21"/>
<polygon fill="#9a32cd" stroke="#9a32cd" points="379.86,-116.9 370.16,-121.15 380.39,-123.88 379.86,-116.9"/>
</a>
</g>
<text text-anchor="middle" x="468" y="-122" font-family="Helvetica,sans-Serif" font-size="10.00" fill="grey"> elements</text>
</g>
<!-- Node13&#45;&gt;Node1 -->
<g id="edge13_Node000001_Node000013" class="edge">
<title>Node13&#45;&gt;Node1</title>
<g id="a_edge13_Node000001_Node000013"><a xlink:title=" ">
<path fill="none" stroke="#9a32cd" stroke-dasharray="5,2" d="M1352.51,-46.29C1423.32,-50.97 1523.08,-58.94 1610,-71 1636.88,-74.73 1666.24,-80.09 1691.82,-85.19"/>
<polygon fill="#9a32cd" stroke="#9a32cd" points="1352.48,-42.78 1342.28,-45.63 1352.03,-49.77 1352.48,-42.78"/>
</a>
</g>
<text text-anchor="middle" x="1528" y="-74" font-family="Helvetica,sans-Serif" font-size="10.00" fill="grey"> actMeta_</text>
</g>
<!-- Node14&#45;&gt;Node1 -->
<g id="edge16_Node000001_Node000014" class="edge">
<title>Node14&#45;&gt;Node1</title>
<g id="a_edge16_Node000001_Node000014"><a xlink:title=" ">
<path fill="none" stroke="#9a32cd" stroke-dasharray="5,2" d="M1576.27,-146.95C1612.45,-137.73 1662.57,-124.96 1701.4,-115.06"/>
<polygon fill="#9a32cd" stroke="#9a32cd" points="1575.28,-143.59 1566.45,-149.46 1577.01,-150.38 1575.28,-143.59"/>
</a>
</g>
<text text-anchor="middle" x="1651" y="-136" font-family="Helvetica,sans-Serif" font-size="10.00" fill="grey"> actBulk_</text>
</g>
<!-- Node15 -->
<g id="Node000015" class="node">
<title>Node15</title>
<g id="a_Node000015"><a xlink:href="structsierra_1_1nalu_1_1_act_dual_view_helper.html" target="_top" xlink:title=" ">
<polygon fill="white" stroke="#666666" points="1342,-217 1175,-217 1175,-187 1342,-187 1342,-217"/>
<text text-anchor="start" x="1183" y="-205" font-family="Helvetica,sans-Serif" font-size="10.00">sierra::nalu::ActDualView</text>
<text text-anchor="middle" x="1258.5" y="-194" font-family="Helvetica,sans-Serif" font-size="10.00">Helper&lt; ActuatorMemSpace &gt;</text>
</a>
</g>
</g>
<!-- Node15&#45;&gt;Node14 -->
<g id="edge18_Node000014_Node000015" class="edge">
<title>Node15&#45;&gt;Node14</title>
<g id="a_edge18_Node000014_Node000015"><a xlink:title=" ">
<path fill="none" stroke="#9a32cd" stroke-dasharray="5,2" d="M1352.41,-187.06C1390.59,-180.93 1433.68,-174 1467.49,-168.57"/>
<polygon fill="#9a32cd" stroke="#9a32cd" points="1351.62,-183.65 1342.31,-188.69 1352.74,-190.56 1351.62,-183.65"/>
</a>
</g>
<text text-anchor="middle" x="1394" y="-188" font-family="Helvetica,sans-Serif" font-size="10.00" fill="grey"> dvHelper_</text>
</g>
<!-- Node16 -->
<g id="Node000016" class="node">
<title>Node16</title>
<g id="a_Node000016"><a xlink:href="structsierra_1_1nalu_1_1_act_dual_view_helper.html" target="_top" xlink:title=" ">
<polygon fill="white" stroke="#666666" points="1018,-217 872,-217 872,-187 1018,-187 1018,-217"/>
<text text-anchor="start" x="880" y="-205" font-family="Helvetica,sans-Serif" font-size="10.00">sierra::nalu::ActDualView</text>
<text text-anchor="middle" x="945" y="-194" font-family="Helvetica,sans-Serif" font-size="10.00">Helper&lt; memory_space &gt;</text>
</a>
</g>
</g>
<!-- Node16&#45;&gt;Node15 -->
<g id="edge19_Node000015_Node000016" class="edge">
<title>Node16&#45;&gt;Node15</title>
<g id="a_edge19_Node000015_Node000016"><a xlink:title=" ">
<path fill="none" stroke="orange" stroke-dasharray="5,2" d="M1028.33,-202C1073.6,-202 1129.6,-202 1174.92,-202"/>
<polygon fill="orange" stroke="orange" points="1028.25,-198.5 1018.25,-202 1028.25,-205.5 1028.25,-198.5"/>
</a>
</g>
<text text-anchor="middle" x="1096.5" y="-205" font-family="Helvetica,sans-Serif" font-size="10.00" fill="grey"> &lt; ActuatorMemSpace &gt;</text>
</g>
</g>
</svg>
