<?xml version="1.0" encoding="UTF-8" standalone="no"?>
<!DOCTYPE svg PUBLIC "-//W3C//DTD SVG 1.1//EN"
 "http://www.w3.org/Graphics/SVG/1.1/DTD/svg11.dtd">
<!-- Generated by graphviz version 2.43.0 (0)
 -->
<!-- Title: sierra::nalu::ScalarFaceFluxBCElemKernel&lt; BcAlgTraits &gt; Pages: 1 -->
<svg width="318pt" height="253pt"
 viewBox="0.00 0.00 317.50 253.00" xmlns="http://www.w3.org/2000/svg" xmlns:xlink="http://www.w3.org/1999/xlink">
<g id="graph0" class="graph" transform="scale(1 1) rotate(0) translate(4 249)">
<title>sierra::nalu::ScalarFaceFluxBCElemKernel&lt; BcAlgTraits &gt;</title>
<polygon fill="white" stroke="transparent" points="-4,4 -4,-249 313.5,-249 313.5,4 -4,4"/>
<!-- Node1 -->
<g id="node1" class="node">
<title>Node1</title>
<g id="a_node1"><a xlink:title="This class applies the computed wall heat flux field to the boundary.">
<polygon fill="#bfbfbf" stroke="black" points="0,-0.5 0,-30.5 183,-30.5 183,-0.5 0,-0.5"/>
<text text-anchor="start" x="8" y="-18.5" font-family="Helvetica,sans-Serif" font-size="10.00">sierra::nalu::ScalarFace</text>
<text text-anchor="middle" x="91.5" y="-7.5" font-family="Helvetica,sans-Serif" font-size="10.00">FluxBCElemKernel&lt; BcAlgTraits &gt;</text>
</a>
</g>
</g>
<!-- Node2 -->
<g id="node2" class="node">
<title>Node2</title>
<g id="a_node2"><a xlink:href="classsierra_1_1nalu_1_1_n_g_p_kernel.html" target="_top" xlink:title=" ">
<polygon fill="white" stroke="black" points="6.5,-68.5 6.5,-109.5 176.5,-109.5 176.5,-68.5 6.5,-68.5"/>
<text text-anchor="start" x="14.5" y="-97.5" font-family="Helvetica,sans-Serif" font-size="10.00">sierra::nalu::NGPKernel</text>
<text text-anchor="start" x="14.5" y="-86.5" font-family="Helvetica,sans-Serif" font-size="10.00">&lt; ScalarFaceFluxBCElemKernel</text>
<text text-anchor="middle" x="91.5" y="-75.5" font-family="Helvetica,sans-Serif" font-size="10.00">&lt; BcAlgTraits &gt; &gt;</text>
</a>
</g>
</g>
<!-- Node2&#45;&gt;Node1 -->
<g id="edge1" class="edge">
<title>Node2&#45;&gt;Node1</title>
<path fill="none" stroke="midnightblue" d="M91.5,-58.16C91.5,-48.69 91.5,-38.65 91.5,-30.8"/>
<polygon fill="midnightblue" stroke="midnightblue" points="88,-58.46 91.5,-68.46 95,-58.46 88,-58.46"/>
</g>
<!-- Node3 -->
<g id="node3" class="node">
<title>Node3</title>
<g id="a_node3"><a xlink:href="classsierra_1_1nalu_1_1_kernel.html" target="_top" xlink:title="Base class for computational kernels in Nalu.">
<polygon fill="white" stroke="black" points="33.5,-225.5 33.5,-244.5 141.5,-244.5 141.5,-225.5 33.5,-225.5"/>
<text text-anchor="middle" x="87.5" y="-232.5" font-family="Helvetica,sans-Serif" font-size="10.00">sierra::nalu::Kernel</text>
</a>
</g>
</g>
<!-- Node3&#45;&gt;Node2 -->
<g id="edge2" class="edge">
<title>Node3&#45;&gt;Node2</title>
<path fill="none" stroke="midnightblue" d="M88.02,-215.26C88.78,-187.92 90.19,-137.32 90.96,-109.53"/>
<polygon fill="midnightblue" stroke="midnightblue" points="84.52,-215.33 87.74,-225.42 91.51,-215.52 84.52,-215.33"/>
</g>
<!-- Node4 -->
<g id="node4" class="node">
<title>Node4</title>
<g id="a_node4"><a xlink:href="classsierra_1_1nalu_1_1_n_g_p_kernel.html" target="_top" xlink:title="Kernel that can be transferred to a device.">
<polygon fill="white" stroke="black" points="103.5,-168.5 103.5,-187.5 261.5,-187.5 261.5,-168.5 103.5,-168.5"/>
<text text-anchor="middle" x="182.5" y="-175.5" font-family="Helvetica,sans-Serif" font-size="10.00">sierra::nalu::NGPKernel&lt; T &gt;</text>
</a>
</g>
</g>
<!-- Node3&#45;&gt;Node4 -->
<g id="edge4" class="edge">
<title>Node3&#45;&gt;Node4</title>
<path fill="none" stroke="midnightblue" d="M111,-220.39C128.76,-210.11 152.6,-196.31 167.76,-187.53"/>
<polygon fill="midnightblue" stroke="midnightblue" points="109.24,-217.37 102.34,-225.41 112.75,-223.42 109.24,-217.37"/>
</g>
<!-- Node4&#45;&gt;Node2 -->
<g id="edge3" class="edge">
<title>Node4&#45;&gt;Node2</title>
<path fill="none" stroke="orange" stroke-dasharray="5,2" d="M165.87,-161.1C150.73,-146.63 128.34,-125.22 112.09,-109.68"/>
<polygon fill="orange" stroke="orange" points="163.8,-163.96 173.44,-168.34 168.63,-158.9 163.8,-163.96"/>
<text text-anchor="start" x="152.5" y="-142" font-family="Helvetica,sans-Serif" font-size="10.00"> &lt; ScalarFaceFluxBCElemKernel</text>
<text text-anchor="middle" x="231" y="-131" font-family="Helvetica,sans-Serif" font-size="10.00">&lt; BcAlgTraits &gt; &gt;</text>
</g>
</g>
</svg>
