<?xml version="1.0" encoding="UTF-8" standalone="no"?>
<!DOCTYPE svg PUBLIC "-//W3C//DTD SVG 1.1//EN"
 "http://www.w3.org/Graphics/SVG/1.1/DTD/svg11.dtd">
<!-- Generated by graphviz version 2.43.0 (0)
 -->
<!-- Title: sierra::nalu::OutputInfo Pages: 1 -->
<svg width="296pt" height="316pt"
 viewBox="0.00 0.00 296.00 316.00" xmlns="http://www.w3.org/2000/svg" xmlns:xlink="http://www.w3.org/1999/xlink">
<g id="graph0" class="graph" transform="scale(1 1) rotate(0) translate(4 312)">
<title>sierra::nalu::OutputInfo</title>
<!-- Node1 -->
<g id="Node000001" class="node">
<title>Node1</title>
<g id="a_Node000001"><a xlink:title=" ">
<polygon fill="#999999" stroke="#666666" points="186.5,-19 57.5,-19 57.5,0 186.5,0 186.5,-19"/>
<text text-anchor="middle" x="122" y="-7" font-family="Helvetica,sans-Serif" font-size="10.00">sierra::nalu::OutputInfo</text>
</a>
</g>
</g>
<!-- Node2 -->
<g id="Node000002" class="node">
<title>Node2</title>
<g id="a_Node000002"><a xlink:title=" ">
<polygon fill="white" stroke="#666666" points="194.5,-231 129.5,-231 129.5,-212 194.5,-212 194.5,-231"/>
<text text-anchor="middle" x="162" y="-219" font-family="Helvetica,sans-Serif" font-size="10.00">std::string</text>
</a>
</g>
</g>
<!-- Node2&#45;&gt;Node1 -->
<g id="edge1_Node000001_Node000002" class="edge">
<title>Node2&#45;&gt;Node1</title>
<g id="a_edge1_Node000001_Node000002"><a xlink:title=" ">
<path fill="none" stroke="#9a32cd" stroke-dasharray="5,2" d="M168.85,-201.85C180.46,-166.8 199.91,-89.91 169,-37 164.28,-28.91 156.07,-23.1 147.82,-19.02"/>
<polygon fill="#9a32cd" stroke="#9a32cd" points="165.41,-201.08 165.43,-211.67 172.02,-203.38 165.41,-201.08"/>
</a>
</g>
<text text-anchor="middle" x="236.5" y="-157" font-family="Helvetica,sans-Serif" font-size="10.00" fill="grey"> catalystFileName_</text>
<text text-anchor="start" x="185" y="-146" font-family="Helvetica,sans-Serif" font-size="10.00" fill="grey">catalystParseJson</text>
<text text-anchor="middle" x="236.5" y="-135" font-family="Helvetica,sans-Serif" font-size="10.00" fill="grey">_</text>
<text text-anchor="middle" x="236.5" y="-124" font-family="Helvetica,sans-Serif" font-size="10.00" fill="grey">outputDBName_</text>
<text text-anchor="start" x="185" y="-113" font-family="Helvetica,sans-Serif" font-size="10.00" fill="grey">paraviewScriptName</text>
<text text-anchor="middle" x="236.5" y="-102" font-family="Helvetica,sans-Serif" font-size="10.00" fill="grey">_</text>
<text text-anchor="middle" x="236.5" y="-91" font-family="Helvetica,sans-Serif" font-size="10.00" fill="grey">restartDBName_</text>
</g>
<!-- Node4 -->
<g id="Node000004" class="node">
<title>Node4</title>
<g id="a_Node000004"><a xlink:title=" ">
<polygon fill="white" stroke="#666666" points="124,-136 0,-136 0,-117 124,-117 124,-136"/>
<text text-anchor="middle" x="62" y="-124" font-family="Helvetica,sans-Serif" font-size="10.00">std::set&lt; std::string &gt;</text>
</a>
</g>
</g>
<!-- Node2&#45;&gt;Node4 -->
<g id="edge4_Node000004_Node000002" class="edge">
<title>Node2&#45;&gt;Node4</title>
<g id="a_edge4_Node000004_Node000002"><a xlink:title=" ">
<path fill="none" stroke="#9a32cd" stroke-dasharray="5,2" d="M145.43,-205.09C124.18,-185.33 88.08,-151.76 71.21,-136.06"/>
<polygon fill="#9a32cd" stroke="#9a32cd" points="143.07,-207.67 152.77,-211.92 147.83,-202.54 143.07,-207.67"/>
</a>
</g>
<text text-anchor="middle" x="146" y="-186" font-family="Helvetica,sans-Serif" font-size="10.00" fill="grey"> keys</text>
</g>
<!-- Node3 -->
<g id="Node000003" class="node">
<title>Node3</title>
<g id="a_Node000003"><a xlink:title=" ">
<polygon fill="white" stroke="#666666" points="214,-308 110,-308 110,-278 214,-278 214,-308"/>
<text text-anchor="start" x="118" y="-296" font-family="Helvetica,sans-Serif" font-size="10.00">std::basic_string&lt;</text>
<text text-anchor="middle" x="162" y="-285" font-family="Helvetica,sans-Serif" font-size="10.00"> Char &gt;</text>
</a>
</g>
</g>
<!-- Node3&#45;&gt;Node2 -->
<g id="edge2_Node000002_Node000003" class="edge">
<title>Node3&#45;&gt;Node2</title>
<g id="a_edge2_Node000002_Node000003"><a xlink:title=" ">
<path fill="none" stroke="#63b8ff" d="M162,-267.56C162,-254.95 162,-240.35 162,-231.27"/>
<polygon fill="#63b8ff" stroke="#63b8ff" points="158.5,-267.94 162,-277.94 165.5,-267.94 158.5,-267.94"/>
</a>
</g>
</g>
<!-- Node4&#45;&gt;Node1 -->
<g id="edge3_Node000001_Node000004" class="edge">
<title>Node4&#45;&gt;Node1</title>
<g id="a_edge3_Node000001_Node000004"><a xlink:title=" ">
<path fill="none" stroke="#9a32cd" stroke-dasharray="5,2" d="M56.8,-106.95C52.59,-87.79 49.34,-57.84 63,-37 68.42,-28.73 77.08,-23.02 86.12,-19.08"/>
<polygon fill="#9a32cd" stroke="#9a32cd" points="53.45,-107.98 59.27,-116.83 60.24,-106.28 53.45,-107.98"/>
</a>
</g>
<text text-anchor="start" x="63" y="-62" font-family="Helvetica,sans-Serif" font-size="10.00" fill="grey"> outputFieldNameSet</text>
<text text-anchor="middle" x="116" y="-51" font-family="Helvetica,sans-Serif" font-size="10.00" fill="grey">_</text>
<text text-anchor="middle" x="116" y="-40" font-family="Helvetica,sans-Serif" font-size="10.00" fill="grey">restartFieldNameSet_</text>
</g>
<!-- Node5 -->
<g id="Node000005" class="node">
<title>Node5</title>
<g id="a_Node000005"><a xlink:title=" ">
<polygon fill="white" stroke="#666666" points="85,-231 3,-231 3,-212 85,-212 85,-231"/>
<text text-anchor="middle" x="44" y="-219" font-family="Helvetica,sans-Serif" font-size="10.00">std::set&lt; K &gt;</text>
</a>
</g>
</g>
<!-- Node5&#45;&gt;Node4 -->
<g id="edge5_Node000004_Node000005" class="edge">
<title>Node5&#45;&gt;Node4</title>
<g id="a_edge5_Node000004_Node000005"><a xlink:title=" ">
<path fill="none" stroke="orange" stroke-dasharray="5,2" d="M43.51,-201.45C43.63,-195.51 44.03,-188.95 45,-183 47.76,-166.09 54.35,-147.17 58.47,-136.36"/>
<polygon fill="orange" stroke="orange" points="40.02,-201.82 43.57,-211.8 47.02,-201.78 40.02,-201.82"/>
</a>
</g>
<text text-anchor="middle" x="82.5" y="-186" font-family="Helvetica,sans-Serif" font-size="10.00" fill="grey"> &lt; std::string &gt;</text>
</g>
<!-- Node6 -->
<g id="Node000006" class="node">
<title>Node6</title>
<g id="a_Node000006"><a xlink:title=" ">
<polygon fill="white" stroke="#666666" points="58.5,-302.5 29.5,-302.5 29.5,-283.5 58.5,-283.5 58.5,-302.5"/>
<text text-anchor="middle" x="44" y="-290.5" font-family="Helvetica,sans-Serif" font-size="10.00">K</text>
</a>
</g>
</g>
<!-- Node6&#45;&gt;Node5 -->
<g id="edge6_Node000005_Node000006" class="edge">
<title>Node6&#45;&gt;Node5</title>
<g id="a_edge6_Node000005_Node000006"><a xlink:title=" ">
<path fill="none" stroke="#9a32cd" stroke-dasharray="5,2" d="M44,-273.21C44,-259.5 44,-241.55 44,-231.09"/>
<polygon fill="#9a32cd" stroke="#9a32cd" points="40.5,-273.48 44,-283.48 47.5,-273.48 40.5,-273.48"/>
</a>
</g>
<text text-anchor="middle" x="57" y="-252" font-family="Helvetica,sans-Serif" font-size="10.00" fill="grey"> keys</text>
</g>
</g>
</svg>
