<?xml version="1.0" encoding="UTF-8" standalone="no"?>
<!DOCTYPE svg PUBLIC "-//W3C//DTD SVG 1.1//EN"
 "http://www.w3.org/Graphics/SVG/1.1/DTD/svg11.dtd">
<!-- Generated by graphviz version 2.43.0 (0)
 -->
<!-- Title: sierra::nalu::EnthalpyABLForceNodeKernel Pages: 1 -->
<svg width="991pt" height="78pt"
 viewBox="0.00 0.00 991.00 77.50" xmlns="http://www.w3.org/2000/svg" xmlns:xlink="http://www.w3.org/1999/xlink">
<g id="graph0" class="graph" transform="scale(1 1) rotate(0) translate(4 73.5)">
<title>sierra::nalu::EnthalpyABLForceNodeKernel</title>
<polygon fill="white" stroke="transparent" points="-4,4 -4,-73.5 987,-73.5 987,4 -4,4"/>
<!-- Node1 -->
<g id="node1" class="node">
<title>Node1</title>
<g id="a_node1"><a xlink:title=" ">
<polygon fill="#bfbfbf" stroke="black" points="818,-8 818,-38 983,-38 983,-8 818,-8"/>
<text text-anchor="start" x="826" y="-26" font-family="Helvetica,sans-Serif" font-size="10.00">sierra::nalu::EnthalpyABLForce</text>
<text text-anchor="middle" x="900.5" y="-15" font-family="Helvetica,sans-Serif" font-size="10.00">NodeKernel</text>
</a>
</g>
</g>
<!-- Node2 -->
<g id="node2" class="node">
<title>Node2</title>
<g id="a_node2"><a xlink:href="classsierra_1_1nalu_1_1_n_g_p_node_kernel.html" target="_top" xlink:title=" ">
<polygon fill="white" stroke="black" points="560,-39 560,-69 743,-69 743,-39 560,-39"/>
<text text-anchor="start" x="568" y="-57" font-family="Helvetica,sans-Serif" font-size="10.00">sierra::nalu::NGPNodeKernel</text>
<text text-anchor="middle" x="651.5" y="-46" font-family="Helvetica,sans-Serif" font-size="10.00">&lt; EnthalpyABLForceNodeKernel &gt;</text>
</a>
</g>
</g>
<!-- Node2&#45;&gt;Node1 -->
<g id="edge1" class="edge">
<title>Node2&#45;&gt;Node1</title>
<path fill="none" stroke="midnightblue" d="M753.22,-41.36C774.75,-38.66 797.23,-35.84 817.93,-33.24"/>
<polygon fill="midnightblue" stroke="midnightblue" points="752.56,-37.91 743.07,-42.63 753.43,-44.86 752.56,-37.91"/>
</g>
<!-- Node3 -->
<g id="node3" class="node">
<title>Node3</title>
<g id="a_node3"><a xlink:href="classsierra_1_1nalu_1_1_node_kernel.html" target="_top" xlink:title=" ">
<polygon fill="white" stroke="black" points="0,-41.5 0,-60.5 134,-60.5 134,-41.5 0,-41.5"/>
<text text-anchor="middle" x="67" y="-48.5" font-family="Helvetica,sans-Serif" font-size="10.00">sierra::nalu::NodeKernel</text>
</a>
</g>
</g>
<!-- Node3&#45;&gt;Node2 -->
<g id="edge2" class="edge">
<title>Node3&#45;&gt;Node2</title>
<path fill="none" stroke="midnightblue" d="M144.22,-55.74C146.85,-55.84 149.44,-55.92 152,-56 325.26,-61.15 368.67,-57.6 542,-56 547.84,-55.95 553.86,-55.88 559.92,-55.79"/>
<polygon fill="midnightblue" stroke="midnightblue" points="144.15,-52.23 134.01,-55.3 143.86,-59.22 144.15,-52.23"/>
</g>
<!-- Node4 -->
<g id="node4" class="node">
<title>Node4</title>
<g id="a_node4"><a xlink:href="classsierra_1_1nalu_1_1_n_g_p_node_kernel.html" target="_top" xlink:title=" ">
<polygon fill="white" stroke="black" points="171,-22.5 171,-41.5 354,-41.5 354,-22.5 171,-22.5"/>
<text text-anchor="middle" x="262.5" y="-29.5" font-family="Helvetica,sans-Serif" font-size="10.00">sierra::nalu::NGPNodeKernel&lt; T &gt;</text>
</a>
</g>
</g>
<!-- Node3&#45;&gt;Node4 -->
<g id="edge4" class="edge">
<title>Node3&#45;&gt;Node4</title>
<path fill="none" stroke="midnightblue" d="M144.17,-43.52C152.9,-42.66 161.86,-41.78 170.76,-40.91"/>
<polygon fill="midnightblue" stroke="midnightblue" points="143.66,-40.05 134.05,-44.51 144.34,-47.02 143.66,-40.05"/>
</g>
<!-- Node4&#45;&gt;Node2 -->
<g id="edge3" class="edge">
<title>Node4&#45;&gt;Node2</title>
<path fill="none" stroke="orange" stroke-dasharray="5,2" d="M364.23,-35.82C417.17,-38.06 483.12,-41.19 542,-45 547.85,-45.38 553.87,-45.8 559.94,-46.24"/>
<polygon fill="orange" stroke="orange" points="364.3,-32.32 354.17,-35.4 364.01,-39.32 364.3,-32.32"/>
<text text-anchor="middle" x="457" y="-48" font-family="Helvetica,sans-Serif" font-size="10.00"> &lt; EnthalpyABLForceNodeKernel &gt;</text>
</g>
<!-- Node5 -->
<g id="node5" class="node">
<title>Node5</title>
<g id="a_node5"><a xlink:href="classsierra_1_1nalu_1_1_a_b_l_scalar_interpolator.html" target="_top" xlink:title="NGP&#45;friendly source interpolation class for use with ABL forcing term.">
<polygon fill="white" stroke="black" points="560,-0.5 560,-19.5 743,-19.5 743,-0.5 560,-0.5"/>
<text text-anchor="middle" x="651.5" y="-7.5" font-family="Helvetica,sans-Serif" font-size="10.00">sierra::nalu::ABLScalarInterpolator</text>
</a>
</g>
</g>
<!-- Node5&#45;&gt;Node1 -->
<g id="edge5" class="edge">
<title>Node5&#45;&gt;Node1</title>
<path fill="none" stroke="#9a32cd" stroke-dasharray="5,2" d="M753.22,-15.3C774.75,-16.43 797.23,-17.62 817.93,-18.71"/>
<polygon fill="#9a32cd" stroke="#9a32cd" points="753.24,-11.8 743.07,-14.77 752.87,-18.79 753.24,-11.8"/>
<text text-anchor="middle" x="780.5" y="-21" font-family="Helvetica,sans-Serif" font-size="10.00"> ablSrc_</text>
</g>
</g>
</svg>
