<?xml version="1.0" encoding="UTF-8" standalone="no"?>
<!DOCTYPE svg PUBLIC "-//W3C//DTD SVG 1.1//EN"
 "http://www.w3.org/Graphics/SVG/1.1/DTD/svg11.dtd">
<!-- Generated by graphviz version 2.43.0 (0)
 -->
<!-- Title: sierra::nalu::AssembleOversetDecoupledAlgorithm Pages: 1 -->
<svg width="198pt" height="207pt"
 viewBox="0.00 0.00 198.00 207.00" xmlns="http://www.w3.org/2000/svg" xmlns:xlink="http://www.w3.org/1999/xlink">
<g id="graph0" class="graph" transform="scale(1 1) rotate(0) translate(4 203)">
<title>sierra::nalu::AssembleOversetDecoupledAlgorithm</title>
<polygon fill="white" stroke="transparent" points="-4,4 -4,-203 194,-203 194,4 -4,4"/>
<!-- Node1 -->
<g id="node1" class="node">
<title>Node1</title>
<g id="a_node1"><a xlink:title=" ">
<polygon fill="#bfbfbf" stroke="black" points="13,-0.5 13,-30.5 177,-30.5 177,-0.5 13,-0.5"/>
<text text-anchor="start" x="21" y="-18.5" font-family="Helvetica,sans-Serif" font-size="10.00">sierra::nalu::AssembleOverset</text>
<text text-anchor="middle" x="95" y="-7.5" font-family="Helvetica,sans-Serif" font-size="10.00">DecoupledAlgorithm</text>
</a>
</g>
</g>
<!-- Node2 -->
<g id="node2" class="node">
<title>Node2</title>
<g id="a_node2"><a xlink:href="classsierra_1_1nalu_1_1_overset_constraint_base.html" target="_top" xlink:title=" ">
<polygon fill="white" stroke="black" points="0,-67.5 0,-86.5 190,-86.5 190,-67.5 0,-67.5"/>
<text text-anchor="middle" x="95" y="-74.5" font-family="Helvetica,sans-Serif" font-size="10.00">sierra::nalu::OversetConstraintBase</text>
</a>
</g>
</g>
<!-- Node2&#45;&gt;Node1 -->
<g id="edge1" class="edge">
<title>Node2&#45;&gt;Node1</title>
<path fill="none" stroke="midnightblue" d="M95,-57.23C95,-48.59 95,-38.5 95,-30.52"/>
<polygon fill="midnightblue" stroke="midnightblue" points="91.5,-57.48 95,-67.48 98.5,-57.48 91.5,-57.48"/>
</g>
<!-- Node3 -->
<g id="node3" class="node">
<title>Node3</title>
<g id="a_node3"><a xlink:href="classsierra_1_1nalu_1_1_solver_algorithm.html" target="_top" xlink:title=" ">
<polygon fill="white" stroke="black" points="17,-123.5 17,-142.5 173,-142.5 173,-123.5 17,-123.5"/>
<text text-anchor="middle" x="95" y="-130.5" font-family="Helvetica,sans-Serif" font-size="10.00">sierra::nalu::SolverAlgorithm</text>
</a>
</g>
</g>
<!-- Node3&#45;&gt;Node2 -->
<g id="edge2" class="edge">
<title>Node3&#45;&gt;Node2</title>
<path fill="none" stroke="midnightblue" d="M95,-112.8C95,-103.91 95,-93.78 95,-86.75"/>
<polygon fill="midnightblue" stroke="midnightblue" points="91.5,-113.08 95,-123.08 98.5,-113.08 91.5,-113.08"/>
</g>
<!-- Node4 -->
<g id="node4" class="node">
<title>Node4</title>
<g id="a_node4"><a xlink:href="classsierra_1_1nalu_1_1_algorithm.html" target="_top" xlink:title=" ">
<polygon fill="white" stroke="black" points="32.5,-179.5 32.5,-198.5 157.5,-198.5 157.5,-179.5 32.5,-179.5"/>
<text text-anchor="middle" x="95" y="-186.5" font-family="Helvetica,sans-Serif" font-size="10.00">sierra::nalu::Algorithm</text>
</a>
</g>
</g>
<!-- Node4&#45;&gt;Node3 -->
<g id="edge3" class="edge">
<title>Node4&#45;&gt;Node3</title>
<path fill="none" stroke="midnightblue" d="M95,-168.8C95,-159.91 95,-149.78 95,-142.75"/>
<polygon fill="midnightblue" stroke="midnightblue" points="91.5,-169.08 95,-179.08 98.5,-169.08 91.5,-169.08"/>
</g>
</g>
</svg>
