<?xml version="1.0" encoding="UTF-8" standalone="no"?>
<!DOCTYPE svg PUBLIC "-//W3C//DTD SVG 1.1//EN"
 "http://www.w3.org/Graphics/SVG/1.1/DTD/svg11.dtd">
<!-- Generated by graphviz version 2.43.0 (0)
 -->
<!-- Title: sierra::nalu::MomentumSSTAMSDiffEdgeKernel Pages: 1 -->
<svg width="328pt" height="238pt"
 viewBox="0.00 0.00 328.00 238.00" xmlns="http://www.w3.org/2000/svg" xmlns:xlink="http://www.w3.org/1999/xlink">

<svg id="main" version="1.1" xmlns="http://www.w3.org/2000/svg" xmlns:xlink="http://www.w3.org/1999/xlink" xml:space="preserve" onload="init(evt)">
<style type="text/css"><![CDATA[
.node, .edge {opacity: 0.7;}
.node.selected, .edge.selected {opacity: 1;}
.edge:hover path { stroke: red; }
.edge:hover polygon { stroke: red; fill: red; }
]]></style>
<script type="application/ecmascript" xlink:href="svg.min.js"/>
<svg id="graph" class="graph">
<g id="graph0" class="graph" transform="scale(1 1) rotate(0) translate(4 234)">
<title>sierra::nalu::MomentumSSTAMSDiffEdgeKernel</title>
<!-- Node1 -->
<g id="Node000001" class="node">
<title>Node1</title>
<g id="a_Node000001"><a xlink:title=" ">
<polygon fill="#999999" stroke="#666666" points="198,-30 8,-30 8,0 198,0 198,-30"/>
<text text-anchor="start" x="16" y="-18" font-family="Helvetica,sans-Serif" font-size="10.00">sierra::nalu::MomentumSSTAMSDiff</text>
<text text-anchor="middle" x="103" y="-7" font-family="Helvetica,sans-Serif" font-size="10.00">EdgeKernel</text>
</a>
</g>
</g>
<!-- Node2 -->
<g id="Node000002" class="node">
<title>Node2</title>
<g id="a_Node000002"><a xlink:href="classsierra_1_1nalu_1_1_n_g_p_edge_kernel.html" target="_top" xlink:title=" ">
<polygon fill="white" stroke="#666666" points="206,-97 0,-97 0,-67 206,-67 206,-97"/>
<text text-anchor="start" x="8" y="-85" font-family="Helvetica,sans-Serif" font-size="10.00">sierra::nalu::NGPEdgeKernel</text>
<text text-anchor="middle" x="103" y="-74" font-family="Helvetica,sans-Serif" font-size="10.00">&lt; MomentumSSTAMSDiffEdgeKernel &gt;</text>
</a>
</g>
</g>
<!-- Node2&#45;&gt;Node1 -->
<g id="edge1_Node000001_Node000002" class="edge">
<title>Node2&#45;&gt;Node1</title>
<g id="a_edge1_Node000001_Node000002"><a xlink:title=" ">
<path fill="none" stroke="#63b8ff" d="M103,-56.61C103,-47.65 103,-37.82 103,-30.08"/>
<polygon fill="#63b8ff" stroke="#63b8ff" points="99.5,-56.9 103,-66.9 106.5,-56.9 99.5,-56.9"/>
</a>
</g>
</g>
<!-- Node3 -->
<g id="Node000003" class="node">
<title>Node3</title>
<g id="a_Node000003"><a xlink:href="classsierra_1_1nalu_1_1_edge_kernel.html" target="_top" xlink:title=" ">
<polygon fill="white" stroke="#666666" points="165,-230 33,-230 33,-211 165,-211 165,-230"/>
<text text-anchor="middle" x="99" y="-218" font-family="Helvetica,sans-Serif" font-size="10.00">sierra::nalu::EdgeKernel</text>
</a>
</g>
</g>
<!-- Node3&#45;&gt;Node2 -->
<g id="edge2_Node000002_Node000003" class="edge">
<title>Node3&#45;&gt;Node2</title>
<g id="a_edge2_Node000002_Node000003"><a xlink:title=" ">
<path fill="none" stroke="#63b8ff" d="M99.55,-200.65C100.37,-172.91 101.87,-121.7 102.59,-97.02"/>
<polygon fill="#63b8ff" stroke="#63b8ff" points="96.04,-200.86 99.25,-210.96 103.04,-201.07 96.04,-200.86"/>
</a>
</g>
</g>
<!-- Node4 -->
<g id="Node000004" class="node">
<title>Node4</title>
<g id="a_Node000004"><a xlink:href="classsierra_1_1nalu_1_1_n_g_p_edge_kernel.html" target="_top" xlink:title=" ">
<polygon fill="white" stroke="#666666" points="297,-174 115,-174 115,-155 297,-155 297,-174"/>
<text text-anchor="middle" x="206" y="-162" font-family="Helvetica,sans-Serif" font-size="10.00">sierra::nalu::NGPEdgeKernel&lt; T &gt;</text>
</a>
</g>
</g>
<!-- Node3&#45;&gt;Node4 -->
<g id="edge4_Node000004_Node000003" class="edge">
<title>Node3&#45;&gt;Node4</title>
<g id="a_edge4_Node000004_Node000003"><a xlink:title=" ">
<path fill="none" stroke="#63b8ff" d="M125.3,-206.23C145.11,-196.23 171.71,-182.81 188.85,-174.15"/>
<polygon fill="#63b8ff" stroke="#63b8ff" points="123.54,-203.19 116.19,-210.82 126.7,-209.44 123.54,-203.19"/>
</a>
</g>
</g>
<!-- Node4&#45;&gt;Node2 -->
<g id="edge3_Node000002_Node000004" class="edge">
<title>Node4&#45;&gt;Node2</title>
<g id="a_edge3_Node000002_Node000004"><a xlink:title=" ">
<path fill="none" stroke="orange" stroke-dasharray="5,2" d="M186.86,-148.54C168.08,-133.86 139.64,-111.64 121.19,-97.22"/>
<polygon fill="orange" stroke="orange" points="184.94,-151.48 194.98,-154.89 189.25,-145.97 184.94,-151.48"/>
</a>
</g>
<text text-anchor="start" x="169" y="-129" font-family="Helvetica,sans-Serif" font-size="10.00" fill="grey"> &lt; MomentumSSTAMSDiffEdge</text>
<text text-anchor="middle" x="244.5" y="-118" font-family="Helvetica,sans-Serif" font-size="10.00" fill="grey">Kernel &gt;</text>
</g>
</g>
</svg>
</svg>

<style type='text/css'>
<![CDATA[
[data-mouse-over-selected='false'] { opacity: 0.7; }
[data-mouse-over-selected='true']  { opacity: 1.0; }
]]>
</style>
<script type="application/ecmascript"><![CDATA[
document.addEventListener('DOMContentLoaded', (event) => {
  highlightEdges();
  highlightAdjacentNodes();
});
]]></script>
</svg>
