<?xml version="1.0" encoding="UTF-8" standalone="no"?>
<!DOCTYPE svg PUBLIC "-//W3C//DTD SVG 1.1//EN"
 "http://www.w3.org/Graphics/SVG/1.1/DTD/svg11.dtd">
<!-- Generated by graphviz version 2.43.0 (0)
 -->
<!-- Title: sierra::nalu::DataProbeSpecInfo Pages: 1 -->
<svg width="1822pt" height="640pt"
 viewBox="0.00 0.00 1822.00 640.00" xmlns="http://www.w3.org/2000/svg" xmlns:xlink="http://www.w3.org/1999/xlink">
<g id="graph0" class="graph" transform="scale(1 1) rotate(0) translate(4 636)">
<title>sierra::nalu::DataProbeSpecInfo</title>
<polygon fill="white" stroke="transparent" points="-4,4 -4,-636 1818,-636 1818,4 -4,4"/>
<!-- Node1 -->
<g id="node1" class="node">
<title>Node1</title>
<g id="a_node1"><a xlink:title=" ">
<polygon fill="#bfbfbf" stroke="black" points="1644,-404.5 1644,-423.5 1814,-423.5 1814,-404.5 1644,-404.5"/>
<text text-anchor="middle" x="1729" y="-411.5" font-family="Helvetica,sans-Serif" font-size="10.00">sierra::nalu::DataProbeSpecInfo</text>
</a>
</g>
</g>
<!-- Node2 -->
<g id="node2" class="node">
<title>Node2</title>
<g id="a_node2"><a xlink:title=" ">
<polygon fill="white" stroke="#bfbfbf" points="1392,-443 1392,-473 1531,-473 1531,-443 1392,-443"/>
<text text-anchor="start" x="1400" y="-461" font-family="Helvetica,sans-Serif" font-size="10.00">std::vector&lt; sierra</text>
<text text-anchor="middle" x="1461.5" y="-450" font-family="Helvetica,sans-Serif" font-size="10.00">::nalu::DataProbeInfo * &gt;</text>
</a>
</g>
</g>
<!-- Node2&#45;&gt;Node1 -->
<g id="edge1" class="edge">
<title>Node2&#45;&gt;Node1</title>
<path fill="none" stroke="#9a32cd" stroke-dasharray="5,2" d="M1541.28,-444.94C1582.7,-438.08 1632.56,-429.82 1670.34,-423.56"/>
<polygon fill="#9a32cd" stroke="#9a32cd" points="1540.51,-441.52 1531.22,-446.61 1541.66,-448.43 1540.51,-441.52"/>
<text text-anchor="middle" x="1587.5" y="-445" font-family="Helvetica,sans-Serif" font-size="10.00"> dataProbeInfo_</text>
</g>
<!-- Node3 -->
<g id="node3" class="node">
<title>Node3</title>
<g id="a_node3"><a xlink:href="classsierra_1_1nalu_1_1_data_probe_info.html" target="_top" xlink:title=" ">
<polygon fill="white" stroke="black" points="1055,-309.5 1055,-328.5 1202,-328.5 1202,-309.5 1055,-309.5"/>
<text text-anchor="middle" x="1128.5" y="-316.5" font-family="Helvetica,sans-Serif" font-size="10.00">sierra::nalu::DataProbeInfo</text>
</a>
</g>
</g>
<!-- Node3&#45;&gt;Node2 -->
<g id="edge2" class="edge">
<title>Node3&#45;&gt;Node2</title>
<path fill="none" stroke="#9a32cd" stroke-dasharray="5,2" d="M1212.03,-329.82C1261.18,-338.68 1323.61,-354.26 1374,-381 1404.01,-396.93 1432.1,-425.38 1447.72,-442.88"/>
<polygon fill="#9a32cd" stroke="#9a32cd" points="1212.52,-326.36 1202.06,-328.09 1211.32,-333.25 1212.52,-326.36"/>
<text text-anchor="middle" x="1297" y="-384" font-family="Helvetica,sans-Serif" font-size="10.00"> elements</text>
</g>
<!-- Node4 -->
<g id="node4" class="node">
<title>Node4</title>
<g id="a_node4"><a xlink:title=" ">
<polygon fill="white" stroke="#bfbfbf" points="582,-315 582,-345 742,-345 742,-315 582,-315"/>
<text text-anchor="start" x="590" y="-333" font-family="Helvetica,sans-Serif" font-size="10.00">std::vector&lt; DataProbeGeom</text>
<text text-anchor="middle" x="662" y="-322" font-family="Helvetica,sans-Serif" font-size="10.00">Type &gt;</text>
</a>
</g>
</g>
<!-- Node4&#45;&gt;Node3 -->
<g id="edge3" class="edge">
<title>Node4&#45;&gt;Node3</title>
<path fill="none" stroke="#9a32cd" stroke-dasharray="5,2" d="M752.67,-331.29C828.47,-331.91 939.9,-331.67 1037,-327 1042.83,-326.72 1048.86,-326.35 1054.92,-325.93"/>
<polygon fill="#9a32cd" stroke="#9a32cd" points="752.24,-327.79 742.21,-331.2 752.18,-334.79 752.24,-327.79"/>
<text text-anchor="middle" x="830" y="-334" font-family="Helvetica,sans-Serif" font-size="10.00"> geomType_</text>
</g>
<!-- Node5 -->
<g id="node5" class="node">
<title>Node5</title>
<g id="a_node5"><a xlink:title=" ">
<polygon fill="white" stroke="#bfbfbf" points="133.5,-331.5 133.5,-350.5 230.5,-350.5 230.5,-331.5 133.5,-331.5"/>
<text text-anchor="middle" x="182" y="-338.5" font-family="Helvetica,sans-Serif" font-size="10.00">std::vector&lt; T &gt;</text>
</a>
</g>
</g>
<!-- Node5&#45;&gt;Node2 -->
<g id="edge25" class="edge">
<title>Node5&#45;&gt;Node2</title>
<path fill="none" stroke="orange" stroke-dasharray="5,2" d="M184.96,-360.97C190.22,-403.28 208.55,-502.31 268,-554 346.9,-622.61 391.94,-610 496.5,-610 496.5,-610 496.5,-610 1129.5,-610 1240.33,-610 1294.5,-638.22 1374,-561 1399.52,-536.21 1368.44,-509.66 1392,-483 1395.44,-479.11 1399.53,-475.83 1403.98,-473.05"/>
<polygon fill="orange" stroke="orange" points="188.42,-360.39 183.82,-350.84 181.46,-361.17 188.42,-360.39"/>
<text text-anchor="start" x="766.5" y="-624" font-family="Helvetica,sans-Serif" font-size="10.00"> &lt; sierra::nalu::DataProbe</text>
<text text-anchor="middle" x="830" y="-613" font-family="Helvetica,sans-Serif" font-size="10.00">Info * &gt;</text>
</g>
<!-- Node5&#45;&gt;Node4 -->
<g id="edge4" class="edge">
<title>Node5&#45;&gt;Node4</title>
<path fill="none" stroke="orange" stroke-dasharray="5,2" d="M240.76,-334.89C249.86,-334.12 259.18,-333.45 268,-333 376.69,-327.48 502.5,-327.67 581.9,-328.6"/>
<polygon fill="orange" stroke="orange" points="240.25,-331.42 230.6,-335.79 240.87,-338.39 240.25,-331.42"/>
<text text-anchor="middle" x="340.5" y="-336" font-family="Helvetica,sans-Serif" font-size="10.00"> &lt; DataProbeGeomType &gt;</text>
</g>
<!-- Node7 -->
<g id="node7" class="node">
<title>Node7</title>
<g id="a_node7"><a xlink:title=" ">
<polygon fill="white" stroke="#bfbfbf" points="764.5,-284 764.5,-314 895.5,-314 895.5,-284 764.5,-284"/>
<text text-anchor="start" x="772.5" y="-302" font-family="Helvetica,sans-Serif" font-size="10.00">std::vector&lt; std::vector</text>
<text text-anchor="middle" x="830" y="-291" font-family="Helvetica,sans-Serif" font-size="10.00">&lt; double &gt; &gt;</text>
</a>
</g>
</g>
<!-- Node5&#45;&gt;Node7 -->
<g id="edge9" class="edge">
<title>Node5&#45;&gt;Node7</title>
<path fill="none" stroke="orange" stroke-dasharray="5,2" d="M197.72,-323.77C213.29,-306.87 239.5,-281.94 268,-270 335.13,-241.86 358.29,-257.56 431,-254 490.04,-251.11 505.08,-249.23 564,-254 643.89,-260.47 663.02,-269.31 742,-283 749.26,-284.26 756.86,-285.61 764.41,-286.97"/>
<polygon fill="orange" stroke="orange" points="195.02,-321.54 190.97,-331.34 200.24,-326.21 195.02,-321.54"/>
<text text-anchor="middle" x="497.5" y="-257" font-family="Helvetica,sans-Serif" font-size="10.00"> &lt; std::vector&lt; double &gt; &gt;</text>
</g>
<!-- Node8 -->
<g id="node8" class="node">
<title>Node8</title>
<g id="a_node8"><a xlink:title=" ">
<polygon fill="white" stroke="#bfbfbf" points="435.5,-274.5 435.5,-293.5 559.5,-293.5 559.5,-274.5 435.5,-274.5"/>
<text text-anchor="middle" x="497.5" y="-281.5" font-family="Helvetica,sans-Serif" font-size="10.00">std::vector&lt; double &gt;</text>
</a>
</g>
</g>
<!-- Node5&#45;&gt;Node8 -->
<g id="edge8" class="edge">
<title>Node5&#45;&gt;Node8</title>
<path fill="none" stroke="orange" stroke-dasharray="5,2" d="M202.34,-325.02C218.7,-312.57 243.35,-296.23 268,-289 322.83,-272.91 388.27,-273.34 435.04,-276.79"/>
<polygon fill="orange" stroke="orange" points="199.85,-322.52 194.16,-331.45 204.18,-328.02 199.85,-322.52"/>
<text text-anchor="middle" x="340.5" y="-292" font-family="Helvetica,sans-Serif" font-size="10.00"> &lt; double &gt;</text>
</g>
<!-- Node9 -->
<g id="node9" class="node">
<title>Node9</title>
<g id="a_node9"><a xlink:title=" ">
<polygon fill="white" stroke="#bfbfbf" points="610,-196.5 610,-215.5 714,-215.5 714,-196.5 610,-196.5"/>
<text text-anchor="middle" x="662" y="-203.5" font-family="Helvetica,sans-Serif" font-size="10.00">std::vector&lt; int &gt;</text>
</a>
</g>
</g>
<!-- Node5&#45;&gt;Node9 -->
<g id="edge11" class="edge">
<title>Node5&#45;&gt;Node9</title>
<path fill="none" stroke="orange" stroke-dasharray="5,2" d="M189.95,-322C201.36,-293.91 226.98,-242.25 268,-220 383.22,-157.5 546.67,-180.87 621.2,-196.47"/>
<polygon fill="orange" stroke="orange" points="186.62,-320.91 186.27,-331.49 193.14,-323.43 186.62,-320.91"/>
<text text-anchor="middle" x="340.5" y="-223" font-family="Helvetica,sans-Serif" font-size="10.00"> &lt; int &gt;</text>
</g>
<!-- Node10 -->
<g id="node10" class="node">
<title>Node10</title>
<g id="a_node10"><a xlink:title=" ">
<polygon fill="white" stroke="#bfbfbf" points="598,-444 598,-474 726,-474 726,-444 598,-444"/>
<text text-anchor="start" x="606" y="-462" font-family="Helvetica,sans-Serif" font-size="10.00">std::vector&lt; stk::mesh</text>
<text text-anchor="middle" x="662" y="-451" font-family="Helvetica,sans-Serif" font-size="10.00">::Part * &gt;</text>
</a>
</g>
</g>
<!-- Node5&#45;&gt;Node10 -->
<g id="edge13" class="edge">
<title>Node5&#45;&gt;Node10</title>
<path fill="none" stroke="orange" stroke-dasharray="5,2" d="M193.93,-359.26C208.02,-380.91 234.71,-416.06 268,-432 374.87,-483.16 517.08,-477.44 597.86,-468.4"/>
<polygon fill="orange" stroke="orange" points="196.8,-357.25 188.52,-350.64 190.87,-360.97 196.8,-357.25"/>
<text text-anchor="middle" x="340.5" y="-472" font-family="Helvetica,sans-Serif" font-size="10.00"> &lt; stk::mesh::Part * &gt;</text>
</g>
<!-- Node11 -->
<g id="node11" class="node">
<title>Node11</title>
<g id="a_node11"><a xlink:title=" ">
<polygon fill="white" stroke="#bfbfbf" points="760,-154.5 760,-173.5 900,-173.5 900,-154.5 760,-154.5"/>
<text text-anchor="middle" x="830" y="-161.5" font-family="Helvetica,sans-Serif" font-size="10.00">std::vector&lt; std::string &gt;</text>
</a>
</g>
</g>
<!-- Node5&#45;&gt;Node11 -->
<g id="edge17" class="edge">
<title>Node5&#45;&gt;Node11</title>
<path fill="none" stroke="orange" stroke-dasharray="5,2" d="M186.92,-321.01C195.07,-285.43 217.44,-211.7 268,-178 307.95,-151.37 619.01,-157.45 759.97,-161.66"/>
<polygon fill="orange" stroke="orange" points="183.43,-320.61 184.76,-331.12 190.28,-322.08 183.43,-320.61"/>
<text text-anchor="middle" x="497.5" y="-163" font-family="Helvetica,sans-Serif" font-size="10.00"> &lt; std::string &gt;</text>
</g>
<!-- Node14 -->
<g id="node14" class="node">
<title>Node14</title>
<g id="a_node14"><a xlink:title=" ">
<polygon fill="white" stroke="#bfbfbf" points="763.5,-381 763.5,-411 896.5,-411 896.5,-381 763.5,-381"/>
<text text-anchor="start" x="771.5" y="-399" font-family="Helvetica,sans-Serif" font-size="10.00">std::vector&lt; std::vector</text>
<text text-anchor="middle" x="830" y="-388" font-family="Helvetica,sans-Serif" font-size="10.00">&lt; stk::mesh::Entity &gt; &gt;</text>
</a>
</g>
</g>
<!-- Node5&#45;&gt;Node14 -->
<g id="edge21" class="edge">
<title>Node5&#45;&gt;Node14</title>
<path fill="none" stroke="orange" stroke-dasharray="5,2" d="M212.51,-354.7C228.58,-361.58 249.01,-369.41 268,-374 443.04,-416.3 657.61,-409 763.5,-401.67"/>
<polygon fill="orange" stroke="orange" points="213.68,-351.39 203.12,-350.57 210.87,-357.8 213.68,-351.39"/>
<text text-anchor="start" x="451" y="-420" font-family="Helvetica,sans-Serif" font-size="10.00"> &lt; std::vector&lt; stk</text>
<text text-anchor="middle" x="497.5" y="-409" font-family="Helvetica,sans-Serif" font-size="10.00">::mesh::Entity &gt; &gt;</text>
</g>
<!-- Node15 -->
<g id="node15" class="node">
<title>Node15</title>
<g id="a_node15"><a xlink:title=" ">
<polygon fill="white" stroke="#bfbfbf" points="433.5,-351 433.5,-381 561.5,-381 561.5,-351 433.5,-351"/>
<text text-anchor="start" x="441.5" y="-369" font-family="Helvetica,sans-Serif" font-size="10.00">std::vector&lt; stk::mesh</text>
<text text-anchor="middle" x="497.5" y="-358" font-family="Helvetica,sans-Serif" font-size="10.00">::Entity &gt;</text>
</a>
</g>
</g>
<!-- Node5&#45;&gt;Node15 -->
<g id="edge20" class="edge">
<title>Node5&#45;&gt;Node15</title>
<path fill="none" stroke="orange" stroke-dasharray="5,2" d="M240.81,-345.61C295.36,-349.96 376.96,-356.47 433.24,-360.95"/>
<polygon fill="orange" stroke="orange" points="240.86,-342.1 230.61,-344.8 240.3,-349.08 240.86,-342.1"/>
<text text-anchor="middle" x="340.5" y="-362" font-family="Helvetica,sans-Serif" font-size="10.00"> &lt; stk::mesh::Entity &gt;</text>
</g>
<!-- Node16 -->
<g id="node16" class="node">
<title>Node16</title>
<g id="a_node16"><a xlink:title=" ">
<polygon fill="white" stroke="#bfbfbf" points="438,-83 438,-113 557,-113 557,-83 438,-83"/>
<text text-anchor="start" x="446" y="-101" font-family="Helvetica,sans-Serif" font-size="10.00">std::vector&lt; sierra</text>
<text text-anchor="middle" x="497.5" y="-90" font-family="Helvetica,sans-Serif" font-size="10.00">::nalu::Coordinates &gt;</text>
</a>
</g>
</g>
<!-- Node5&#45;&gt;Node16 -->
<g id="edge24" class="edge">
<title>Node5&#45;&gt;Node16</title>
<path fill="none" stroke="orange" stroke-dasharray="5,2" d="M184.88,-321.31C189.97,-279.65 208,-182.54 268,-135 269.68,-133.67 370.77,-117.65 437.92,-107.13"/>
<polygon fill="orange" stroke="orange" points="181.39,-320.96 183.78,-331.28 188.35,-321.73 181.39,-320.96"/>
<text text-anchor="middle" x="340.5" y="-138" font-family="Helvetica,sans-Serif" font-size="10.00"> &lt; sierra::nalu::Coordinates &gt;</text>
</g>
<!-- Node18 -->
<g id="node18" class="node">
<title>Node18</title>
<g id="a_node18"><a xlink:title=" ">
<polygon fill="white" stroke="#bfbfbf" points="918,-487 918,-517 1037,-517 1037,-487 918,-487"/>
<text text-anchor="start" x="926" y="-505" font-family="Helvetica,sans-Serif" font-size="10.00">std::vector&lt; std::pair</text>
<text text-anchor="middle" x="977.5" y="-494" font-family="Helvetica,sans-Serif" font-size="10.00">&lt; std::string, int &gt; &gt;</text>
</a>
</g>
</g>
<!-- Node5&#45;&gt;Node18 -->
<g id="edge28" class="edge">
<title>Node5&#45;&gt;Node18</title>
<path fill="none" stroke="orange" stroke-dasharray="5,2" d="M188.05,-360.64C197.54,-393.01 221.41,-456.71 268,-484 377.22,-547.99 768.53,-520.75 917.95,-507.59"/>
<polygon fill="orange" stroke="orange" points="191.31,-359.31 185.28,-350.6 184.56,-361.18 191.31,-359.31"/>
<text text-anchor="start" x="438.5" y="-538" font-family="Helvetica,sans-Serif" font-size="10.00"> &lt; std::pair&lt; std::string,</text>
<text text-anchor="middle" x="497.5" y="-527" font-family="Helvetica,sans-Serif" font-size="10.00"> int &gt; &gt;</text>
</g>
<!-- Node19 -->
<g id="node19" class="node">
<title>Node19</title>
<g id="a_node19"><a xlink:title=" ">
<polygon fill="white" stroke="#bfbfbf" points="1220,-521 1220,-551 1374,-551 1374,-521 1220,-521"/>
<text text-anchor="start" x="1228" y="-539" font-family="Helvetica,sans-Serif" font-size="10.00">std::vector&lt; std::pair</text>
<text text-anchor="middle" x="1297" y="-528" font-family="Helvetica,sans-Serif" font-size="10.00">&lt; std::string, std::string &gt; &gt;</text>
</a>
</g>
</g>
<!-- Node5&#45;&gt;Node19 -->
<g id="edge31" class="edge">
<title>Node5&#45;&gt;Node19</title>
<path fill="none" stroke="orange" stroke-dasharray="5,2" d="M186.73,-360.66C194.74,-397.13 217.13,-475.2 268,-515 349.8,-579 392.64,-564 496.5,-564 496.5,-564 496.5,-564 978.5,-564 1061.23,-564 1155.61,-554.45 1219.82,-546.51"/>
<polygon fill="orange" stroke="orange" points="190.14,-359.85 184.7,-350.76 183.28,-361.26 190.14,-359.85"/>
<text text-anchor="start" x="603" y="-578" font-family="Helvetica,sans-Serif" font-size="10.00"> &lt; std::pair&lt; std::string,</text>
<text text-anchor="middle" x="662" y="-567" font-family="Helvetica,sans-Serif" font-size="10.00"> std::string &gt; &gt;</text>
</g>
<!-- Node6 -->
<g id="node6" class="node">
<title>Node6</title>
<g id="a_node6"><a xlink:title=" ">
<polygon fill="white" stroke="#bfbfbf" points="0,-331.5 0,-350.5 29,-350.5 29,-331.5 0,-331.5"/>
<text text-anchor="middle" x="14.5" y="-338.5" font-family="Helvetica,sans-Serif" font-size="10.00">T</text>
</a>
</g>
</g>
<!-- Node6&#45;&gt;Node5 -->
<g id="edge5" class="edge">
<title>Node6&#45;&gt;Node5</title>
<path fill="none" stroke="#9a32cd" stroke-dasharray="5,2" d="M39.2,-341C63.68,-341 102.57,-341 133.43,-341"/>
<polygon fill="#9a32cd" stroke="#9a32cd" points="39.04,-337.5 29.04,-341 39.04,-344.5 39.04,-337.5"/>
<text text-anchor="middle" x="71.5" y="-344" font-family="Helvetica,sans-Serif" font-size="10.00"> elements</text>
</g>
<!-- Node7&#45;&gt;Node3 -->
<g id="edge6" class="edge">
<title>Node7&#45;&gt;Node3</title>
<path fill="none" stroke="#9a32cd" stroke-dasharray="5,2" d="M905.84,-304.05C951.51,-307.13 1009.61,-311.05 1054.87,-314.1"/>
<polygon fill="#9a32cd" stroke="#9a32cd" points="905.91,-300.55 895.7,-303.36 905.44,-307.53 905.91,-300.55"/>
<text text-anchor="middle" x="977.5" y="-315" font-family="Helvetica,sans-Serif" font-size="10.00"> offsetSpacings_</text>
</g>
<!-- Node8&#45;&gt;Node7 -->
<g id="edge7" class="edge">
<title>Node8&#45;&gt;Node7</title>
<path fill="none" stroke="#9a32cd" stroke-dasharray="5,2" d="M569.63,-287.2C618.19,-289.39 683.98,-292.36 742,-295 749.25,-295.33 756.84,-295.68 764.39,-296.02"/>
<polygon fill="#9a32cd" stroke="#9a32cd" points="569.69,-283.7 559.54,-286.74 569.38,-290.69 569.69,-283.7"/>
<text text-anchor="middle" x="662" y="-298" font-family="Helvetica,sans-Serif" font-size="10.00"> elements</text>
</g>
<!-- Node9&#45;&gt;Node3 -->
<g id="edge10" class="edge">
<title>Node9&#45;&gt;Node3</title>
<path fill="none" stroke="#9a32cd" stroke-dasharray="5,2" d="M724.45,-203.78C772.8,-203.43 841.55,-206.02 900,-220 983.37,-239.94 1074.59,-288.7 1111.09,-309.43"/>
<polygon fill="#9a32cd" stroke="#9a32cd" points="724.1,-200.28 714.14,-203.9 724.19,-207.28 724.1,-200.28"/>
<text text-anchor="middle" x="830" y="-267" font-family="Helvetica,sans-Serif" font-size="10.00"> edge1NumPoints_</text>
<text text-anchor="middle" x="830" y="-256" font-family="Helvetica,sans-Serif" font-size="10.00">edge2NumPoints_</text>
<text text-anchor="middle" x="830" y="-245" font-family="Helvetica,sans-Serif" font-size="10.00">generateNewIds_</text>
<text text-anchor="middle" x="830" y="-234" font-family="Helvetica,sans-Serif" font-size="10.00">numPoints_</text>
<text text-anchor="middle" x="830" y="-223" font-family="Helvetica,sans-Serif" font-size="10.00">processorId_</text>
</g>
<!-- Node10&#45;&gt;Node3 -->
<g id="edge12" class="edge">
<title>Node10&#45;&gt;Node3</title>
<path fill="none" stroke="#9a32cd" stroke-dasharray="5,2" d="M736.44,-460.58C814.67,-459.46 940.32,-449.51 1037,-403 1074.09,-385.16 1106.45,-346.83 1120.31,-328.78"/>
<polygon fill="#9a32cd" stroke="#9a32cd" points="736.16,-457.08 726.19,-460.67 736.23,-464.08 736.16,-457.08"/>
<text text-anchor="middle" x="830" y="-462" font-family="Helvetica,sans-Serif" font-size="10.00"> part_</text>
</g>
<!-- Node11&#45;&gt;Node1 -->
<g id="edge29" class="edge">
<title>Node11&#45;&gt;Node1</title>
<path fill="none" stroke="#9a32cd" stroke-dasharray="5,2" d="M909.86,-153.57C948.46,-150.42 995.46,-149.52 1037,-157 1316.97,-207.38 1631.63,-363.99 1709.73,-404.4"/>
<polygon fill="#9a32cd" stroke="#9a32cd" points="909.37,-150.1 899.72,-154.46 909.99,-157.07 909.37,-150.1"/>
<text text-anchor="middle" x="1297" y="-257" font-family="Helvetica,sans-Serif" font-size="10.00"> fromTargetNames_</text>
</g>
<!-- Node11&#45;&gt;Node3 -->
<g id="edge14" class="edge">
<title>Node11&#45;&gt;Node3</title>
<path fill="none" stroke="#9a32cd" stroke-dasharray="5,2" d="M910.44,-160.41C959.11,-159.62 1015.99,-161.67 1037,-174 1090.49,-205.39 1116.96,-282.17 1124.88,-309.31"/>
<polygon fill="#9a32cd" stroke="#9a32cd" points="910.12,-156.92 900.19,-160.62 910.26,-163.91 910.12,-156.92"/>
<text text-anchor="middle" x="977.5" y="-188" font-family="Helvetica,sans-Serif" font-size="10.00"> onlyOutputField_</text>
<text text-anchor="middle" x="977.5" y="-177" font-family="Helvetica,sans-Serif" font-size="10.00">partName_</text>
</g>
<!-- Node12 -->
<g id="node12" class="node">
<title>Node12</title>
<g id="a_node12"><a xlink:title=" ">
<polygon fill="white" stroke="#bfbfbf" points="465,-7.5 465,-26.5 530,-26.5 530,-7.5 465,-7.5"/>
<text text-anchor="middle" x="497.5" y="-14.5" font-family="Helvetica,sans-Serif" font-size="10.00">std::string</text>
</a>
</g>
</g>
<!-- Node12&#45;&gt;Node1 -->
<g id="edge26" class="edge">
<title>Node12&#45;&gt;Node1</title>
<path fill="none" stroke="#9a32cd" stroke-dasharray="5,2" d="M540.67,-13.44C603.45,-8.46 725.26,0 829,0 829,0 829,0 1462.5,0 1661.02,0 1717.94,-341.48 1726.72,-404.17"/>
<polygon fill="#9a32cd" stroke="#9a32cd" points="540.06,-9.98 530.38,-14.27 540.63,-16.96 540.06,-9.98"/>
<text text-anchor="middle" x="1128.5" y="-3" font-family="Helvetica,sans-Serif" font-size="10.00"> xferName_</text>
</g>
<!-- Node12&#45;&gt;Node11 -->
<g id="edge15" class="edge">
<title>Node12&#45;&gt;Node11</title>
<path fill="none" stroke="#9a32cd" stroke-dasharray="5,2" d="M526.23,-31.23C573.52,-55.21 673.08,-104.55 760,-140 772.68,-145.17 786.95,-150.25 799.2,-154.4"/>
<polygon fill="#9a32cd" stroke="#9a32cd" points="527.73,-28.06 517.23,-26.64 524.55,-34.3 527.73,-28.06"/>
<text text-anchor="middle" x="662" y="-135" font-family="Helvetica,sans-Serif" font-size="10.00"> elements</text>
</g>
<!-- Node13 -->
<g id="node13" class="node">
<title>Node13</title>
<g id="a_node13"><a xlink:title=" ">
<polygon fill="white" stroke="#bfbfbf" points="130,-2 130,-32 234,-32 234,-2 130,-2"/>
<text text-anchor="start" x="138" y="-20" font-family="Helvetica,sans-Serif" font-size="10.00">std::basic_string&lt;</text>
<text text-anchor="middle" x="182" y="-9" font-family="Helvetica,sans-Serif" font-size="10.00"> Char &gt;</text>
</a>
</g>
</g>
<!-- Node13&#45;&gt;Node12 -->
<g id="edge16" class="edge">
<title>Node13&#45;&gt;Node12</title>
<path fill="none" stroke="midnightblue" d="M244.35,-17C310.43,-17 413.02,-17 464.6,-17"/>
<polygon fill="midnightblue" stroke="midnightblue" points="244.07,-13.5 234.07,-17 244.07,-20.5 244.07,-13.5"/>
</g>
<!-- Node14&#45;&gt;Node3 -->
<g id="edge18" class="edge">
<title>Node14&#45;&gt;Node3</title>
<path fill="none" stroke="#9a32cd" stroke-dasharray="5,2" d="M906.8,-390.46C946.31,-386.11 995.02,-378.44 1037,-365 1065.03,-356.03 1095,-339.19 1112.46,-328.56"/>
<polygon fill="#9a32cd" stroke="#9a32cd" points="906.28,-386.99 896.71,-391.52 907.02,-393.95 906.28,-386.99"/>
<text text-anchor="middle" x="977.5" y="-391" font-family="Helvetica,sans-Serif" font-size="10.00"> nodeVector_</text>
</g>
<!-- Node15&#45;&gt;Node14 -->
<g id="edge19" class="edge">
<title>Node15&#45;&gt;Node14</title>
<path fill="none" stroke="#9a32cd" stroke-dasharray="5,2" d="M571.91,-372.66C629.22,-377.87 708.11,-385.03 763.34,-390.04"/>
<polygon fill="#9a32cd" stroke="#9a32cd" points="572.11,-369.17 561.83,-371.75 571.48,-376.14 572.11,-369.17"/>
<text text-anchor="middle" x="662" y="-390" font-family="Helvetica,sans-Serif" font-size="10.00"> elements</text>
</g>
<!-- Node16&#45;&gt;Node3 -->
<g id="edge22" class="edge">
<title>Node16&#45;&gt;Node3</title>
<path fill="none" stroke="#9a32cd" stroke-dasharray="5,2" d="M558.73,-80.37C638.53,-59.96 782.87,-33.29 900,-68 969.62,-88.63 987.4,-103.97 1037,-157 1082.78,-205.94 1113.91,-282.3 1123.98,-309.21"/>
<polygon fill="#9a32cd" stroke="#9a32cd" points="557.65,-77.04 548.86,-82.95 559.42,-83.81 557.65,-77.04"/>
<text text-anchor="middle" x="830" y="-137" font-family="Helvetica,sans-Serif" font-size="10.00"> cornerCoordinates_</text>
<text text-anchor="middle" x="830" y="-126" font-family="Helvetica,sans-Serif" font-size="10.00">edge1Vector_</text>
<text text-anchor="middle" x="830" y="-115" font-family="Helvetica,sans-Serif" font-size="10.00">edge2Vector_</text>
<text text-anchor="middle" x="830" y="-104" font-family="Helvetica,sans-Serif" font-size="10.00">offsetDir_</text>
<text text-anchor="start" x="781" y="-93" font-family="Helvetica,sans-Serif" font-size="10.00">tailCoordinates</text>
<text text-anchor="middle" x="830" y="-82" font-family="Helvetica,sans-Serif" font-size="10.00">_</text>
<text text-anchor="middle" x="830" y="-71" font-family="Helvetica,sans-Serif" font-size="10.00">tipCoordinates_</text>
</g>
<!-- Node17 -->
<g id="node17" class="node">
<title>Node17</title>
<g id="a_node17"><a xlink:href="structsierra_1_1nalu_1_1_coordinates.html" target="_top" xlink:title=" ">
<polygon fill="white" stroke="black" points="114,-88.5 114,-107.5 250,-107.5 250,-88.5 114,-88.5"/>
<text text-anchor="middle" x="182" y="-95.5" font-family="Helvetica,sans-Serif" font-size="10.00">sierra::nalu::Coordinates</text>
</a>
</g>
</g>
<!-- Node17&#45;&gt;Node16 -->
<g id="edge23" class="edge">
<title>Node17&#45;&gt;Node16</title>
<path fill="none" stroke="#9a32cd" stroke-dasharray="5,2" d="M260.28,-98C315.14,-98 387.66,-98 437.8,-98"/>
<polygon fill="#9a32cd" stroke="#9a32cd" points="260.25,-94.5 250.25,-98 260.25,-101.5 260.25,-94.5"/>
<text text-anchor="middle" x="340.5" y="-101" font-family="Helvetica,sans-Serif" font-size="10.00"> elements</text>
</g>
<!-- Node18&#45;&gt;Node1 -->
<g id="edge27" class="edge">
<title>Node18&#45;&gt;Node1</title>
<path fill="none" stroke="#9a32cd" stroke-dasharray="5,2" d="M1047.04,-488.49C1128.82,-472.9 1269.84,-447.64 1392,-434 1477.52,-424.45 1575.82,-419.27 1643.91,-416.59"/>
<polygon fill="#9a32cd" stroke="#9a32cd" points="1046.29,-485.07 1037.12,-490.39 1047.6,-491.95 1046.29,-485.07"/>
<text text-anchor="middle" x="1297" y="-460" font-family="Helvetica,sans-Serif" font-size="10.00"> fieldInfo_</text>
</g>
<!-- Node19&#45;&gt;Node1 -->
<g id="edge30" class="edge">
<title>Node19&#45;&gt;Node1</title>
<path fill="none" stroke="#9a32cd" stroke-dasharray="5,2" d="M1384.18,-520C1451.1,-506.44 1545.71,-484.78 1626,-457 1654.88,-447.01 1687.23,-432.84 1707.6,-423.54"/>
<polygon fill="#9a32cd" stroke="#9a32cd" points="1383.21,-516.62 1374.09,-522.02 1384.59,-523.49 1383.21,-516.62"/>
<text text-anchor="middle" x="1461.5" y="-521" font-family="Helvetica,sans-Serif" font-size="10.00"> fromToName_</text>
</g>
</g>
</svg>
