<?xml version="1.0" encoding="UTF-8" standalone="no"?>
<!DOCTYPE svg PUBLIC "-//W3C//DTD SVG 1.1//EN"
 "http://www.w3.org/Graphics/SVG/1.1/DTD/svg11.dtd">
<!-- Generated by graphviz version 2.43.0 (0)
 -->
<!-- Title: sierra::nalu::RadarSegmentGenerator Pages: 1 -->
<!--zoomable 153 -->
<svg id="main" version="1.1" xmlns="http://www.w3.org/2000/svg" xmlns:xlink="http://www.w3.org/1999/xlink" xml:space="preserve" onload="init(evt)">
<style type="text/css"><![CDATA[
.edge:hover path { stroke: red; }
.edge:hover polygon { stroke: red; fill: red; }
]]></style>
<script type="text/javascript"><![CDATA[
var edges = document.getElementsByTagName('g');
if (edges && edges.length) {
  for (var i=0;i<edges.length;i++) {
    if (edges[i].id.substr(0,4)=='edge') {
      edges[i].setAttribute('class','edge');
    }
  }
}
]]></script>
        <defs>
                <circle id="rim" cx="0" cy="0" r="7"/>
                <circle id="rim2" cx="0" cy="0" r="3.5"/>
                <g id="zoomPlus">
                        <use xlink:href="#rim" fill="#404040">
                                <set attributeName="fill" to="#808080" begin="zoomplus.mouseover" end="zoomplus.mouseout"/>
                        </use>
                        <path d="M-4,0h8M0,-4v8" fill="none" stroke="white" stroke-width="1.5" pointer-events="none"/>
                </g>
                <g id="zoomMin">
                        <use xlink:href="#rim" fill="#404040">
                                <set attributeName="fill" to="#808080" begin="zoomminus.mouseover" end="zoomminus.mouseout"/>
                        </use>
                        <path d="M-4,0h8" fill="none" stroke="white" stroke-width="1.5" pointer-events="none"/>
                </g>
                <g id="dirArrow">
                        <path fill="none" stroke="white" stroke-width="1.5" d="M0,-3.0v7 M-2.5,-0.5L0,-3.0L2.5,-0.5"/>
                </g>
               <g id="resetDef">
                       <use xlink:href="#rim2" fill="#404040">
                               <set attributeName="fill" to="#808080" begin="reset.mouseover" end="reset.mouseout"/>
                       </use>
               </g>
        </defs>

<script type="text/javascript">
var viewWidth = 789;
var viewHeight = 153;
var sectionId = 'dynsection-1';
</script>
<script xlink:href="svgpan.js"/>
<svg id="graph" class="graph">
<g id="viewport">
<title>sierra::nalu::RadarSegmentGenerator</title>
<polygon fill="white" stroke="transparent" points="-4,4 -4,-149 785,-149 785,4 -4,4"/>
<!-- Node1 -->
<g id="node1" class="node">
<title>Node1</title>
<g id="a_node1"><a xlink:title=" ">
<polygon fill="#bfbfbf" stroke="black" points="632,-60 632,-90 781,-90 781,-60 632,-60"/>
<text text-anchor="start" x="640" y="-78" font-family="Helvetica,sans-Serif" font-size="10.00">sierra::nalu::RadarSegment</text>
<text text-anchor="middle" x="706.5" y="-67" font-family="Helvetica,sans-Serif" font-size="10.00">Generator</text>
</a>
</g>
</g>
<!-- Node2 -->
<g id="node2" class="node">
<title>Node2</title>
<g id="a_node2"><a xlink:href="classsierra_1_1nalu_1_1_segment_generator.html" target="_top" xlink:title=" ">
<polygon fill="white" stroke="black" points="341,-125.5 341,-144.5 511,-144.5 511,-125.5 341,-125.5"/>
<text text-anchor="middle" x="426" y="-132.5" font-family="Helvetica,sans-Serif" font-size="10.00">sierra::nalu::SegmentGenerator</text>
</a>
</g>
</g>
<!-- Node2&#45;&gt;Node1 -->
<g id="edge1" class="edge">
<title>Node2&#45;&gt;Node1</title>
<path fill="none" stroke="midnightblue" d="M505.6,-123.83C539.19,-118.47 578.71,-111.38 614,-103 629.19,-99.39 645.57,-94.66 660.2,-90.11"/>
<polygon fill="midnightblue" stroke="midnightblue" points="504.71,-120.43 495.37,-125.44 505.8,-127.35 504.71,-120.43"/>
</g>
<!-- Node3 -->
<g id="node3" class="node">
<title>Node3</title>
<g id="a_node3"><a xlink:title=" ">
<polygon fill="white" stroke="#bfbfbf" points="350,-87.5 350,-106.5 502,-106.5 502,-87.5 350,-87.5"/>
<text text-anchor="middle" x="426" y="-94.5" font-family="Helvetica,sans-Serif" font-size="10.00">std::array&lt; vs::VectorT, 8 &gt;</text>
</a>
</g>
</g>
<!-- Node3&#45;&gt;Node1 -->
<g id="edge2" class="edge">
<title>Node3&#45;&gt;Node1</title>
<path fill="none" stroke="#9a32cd" stroke-dasharray="5,2" d="M512.41,-90.25C550.48,-87.25 594.89,-83.74 631.52,-80.84"/>
<polygon fill="#9a32cd" stroke="#9a32cd" points="512.06,-86.77 502.37,-91.05 512.61,-93.75 512.06,-86.77"/>
<text text-anchor="middle" x="571.5" y="-91" font-family="Helvetica,sans-Serif" font-size="10.00"> box_</text>
</g>
<!-- Node4 -->
<g id="node4" class="node">
<title>Node4</title>
<g id="a_node4"><a xlink:href="structvs_1_1_vector_t.html" target="_top" xlink:title="Vector in 3D space.">
<polygon fill="white" stroke="black" points="114,-100.5 114,-119.5 213,-119.5 213,-100.5 114,-100.5"/>
<text text-anchor="middle" x="163.5" y="-107.5" font-family="Helvetica,sans-Serif" font-size="10.00">vs::VectorT&lt; T &gt;</text>
</a>
</g>
</g>
<!-- Node4&#45;&gt;Node3 -->
<g id="edge3" class="edge">
<title>Node4&#45;&gt;Node3</title>
<path fill="none" stroke="#9a32cd" stroke-dasharray="5,2" d="M223.44,-107.06C260.88,-105.19 309.7,-102.75 349.91,-100.75"/>
<polygon fill="#9a32cd" stroke="#9a32cd" points="223.01,-103.58 213.19,-107.57 223.35,-110.57 223.01,-103.58"/>
<text text-anchor="middle" x="277" y="-109" font-family="Helvetica,sans-Serif" font-size="10.00"> elements</text>
</g>
<!-- Node5 -->
<g id="node5" class="node">
<title>Node5</title>
<g id="a_node5"><a xlink:title=" ">
<polygon fill="white" stroke="#bfbfbf" points="0,-59.5 0,-78.5 29,-78.5 29,-59.5 0,-59.5"/>
<text text-anchor="middle" x="14.5" y="-66.5" font-family="Helvetica,sans-Serif" font-size="10.00">T</text>
</a>
</g>
</g>
<!-- Node5&#45;&gt;Node4 -->
<g id="edge4" class="edge">
<title>Node5&#45;&gt;Node4</title>
<path fill="none" stroke="#9a32cd" stroke-dasharray="5,2" d="M38.41,-79.78C41.27,-80.95 44.18,-82.05 47,-83 68.57,-90.24 93.04,-96.26 113.89,-100.77"/>
<polygon fill="#9a32cd" stroke="#9a32cd" points="39.64,-76.5 29.08,-75.71 36.84,-82.91 39.64,-76.5"/>
<text text-anchor="middle" x="71.5" y="-99" font-family="Helvetica,sans-Serif" font-size="10.00"> vv</text>
</g>
<!-- Node6 -->
<g id="node6" class="node">
<title>Node6</title>
<g id="a_node6"><a xlink:title=" ">
<polygon fill="white" stroke="#bfbfbf" points="117.5,-59.5 117.5,-78.5 209.5,-78.5 209.5,-59.5 117.5,-59.5"/>
<text text-anchor="middle" x="163.5" y="-66.5" font-family="Helvetica,sans-Serif" font-size="10.00">std::array&lt; T &gt;</text>
</a>
</g>
</g>
<!-- Node5&#45;&gt;Node6 -->
<g id="edge6" class="edge">
<title>Node5&#45;&gt;Node6</title>
<path fill="none" stroke="#9a32cd" stroke-dasharray="5,2" d="M39.33,-69C60.38,-69 91.64,-69 117.4,-69"/>
<polygon fill="#9a32cd" stroke="#9a32cd" points="39.07,-65.5 29.07,-69 39.07,-72.5 39.07,-65.5"/>
<text text-anchor="middle" x="71.5" y="-72" font-family="Helvetica,sans-Serif" font-size="10.00"> elements</text>
</g>
<!-- Node9 -->
<g id="node9" class="node">
<title>Node9</title>
<g id="a_node9"><a xlink:title=" ">
<polygon fill="white" stroke="#bfbfbf" points="115,-15.5 115,-34.5 212,-34.5 212,-15.5 115,-15.5"/>
<text text-anchor="middle" x="163.5" y="-22.5" font-family="Helvetica,sans-Serif" font-size="10.00">std::vector&lt; T &gt;</text>
</a>
</g>
</g>
<!-- Node5&#45;&gt;Node9 -->
<g id="edge11" class="edge">
<title>Node5&#45;&gt;Node9</title>
<path fill="none" stroke="#9a32cd" stroke-dasharray="5,2" d="M38.38,-57.46C41.25,-56.21 44.17,-55.02 47,-54 69.18,-46.02 94.51,-39.4 115.78,-34.51"/>
<polygon fill="#9a32cd" stroke="#9a32cd" points="36.63,-54.42 29.05,-61.82 39.59,-60.76 36.63,-54.42"/>
<text text-anchor="middle" x="71.5" y="-57" font-family="Helvetica,sans-Serif" font-size="10.00"> elements</text>
</g>
<!-- Node6&#45;&gt;Node3 -->
<g id="edge5" class="edge">
<title>Node6&#45;&gt;Node3</title>
<path fill="none" stroke="orange" stroke-dasharray="5,2" d="M219.9,-74.95C257.77,-79.03 308.42,-84.47 349.91,-88.93"/>
<polygon fill="orange" stroke="orange" points="219.9,-71.43 209.58,-73.85 219.15,-78.39 219.9,-71.43"/>
<text text-anchor="middle" x="277" y="-88" font-family="Helvetica,sans-Serif" font-size="10.00"> &lt; vs::VectorT, 8 &gt;</text>
</g>
<!-- Node7 -->
<g id="node7" class="node">
<title>Node7</title>
<g id="a_node7"><a xlink:title=" ">
<polygon fill="white" stroke="#bfbfbf" points="360.5,-38.5 360.5,-57.5 491.5,-57.5 491.5,-38.5 360.5,-38.5"/>
<text text-anchor="middle" x="426" y="-45.5" font-family="Helvetica,sans-Serif" font-size="10.00">std::array&lt; double, 3 &gt;</text>
</a>
</g>
</g>
<!-- Node6&#45;&gt;Node7 -->
<g id="edge8" class="edge">
<title>Node6&#45;&gt;Node7</title>
<path fill="none" stroke="orange" stroke-dasharray="5,2" d="M198.22,-56.16C208.58,-52.81 220.12,-49.68 231,-48 273.77,-41.41 322.49,-41.43 360.4,-43.09"/>
<polygon fill="orange" stroke="orange" points="197.05,-52.86 188.71,-59.39 199.3,-59.49 197.05,-52.86"/>
<text text-anchor="middle" x="277" y="-51" font-family="Helvetica,sans-Serif" font-size="10.00"> &lt; double, 3 &gt;</text>
</g>
<!-- Node7&#45;&gt;Node1 -->
<g id="edge7" class="edge">
<title>Node7&#45;&gt;Node1</title>
<path fill="none" stroke="#9a32cd" stroke-dasharray="5,2" d="M502.28,-40.85C536.56,-39.12 577.53,-39.17 614,-45 632.32,-47.93 651.96,-53.96 668.33,-59.85"/>
<polygon fill="#9a32cd" stroke="#9a32cd" points="501.65,-37.38 491.87,-41.44 502.05,-44.37 501.65,-37.38"/>
<text text-anchor="middle" x="571.5" y="-70" font-family="Helvetica,sans-Serif" font-size="10.00"> axis_</text>
<text text-anchor="middle" x="571.5" y="-59" font-family="Helvetica,sans-Serif" font-size="10.00">center_</text>
<text text-anchor="middle" x="571.5" y="-48" font-family="Helvetica,sans-Serif" font-size="10.00">ground_normal_</text>
</g>
<!-- Node8 -->
<g id="node8" class="node">
<title>Node8</title>
<g id="a_node8"><a xlink:title=" ">
<polygon fill="white" stroke="#bfbfbf" points="364,-0.5 364,-19.5 488,-19.5 488,-0.5 364,-0.5"/>
<text text-anchor="middle" x="426" y="-7.5" font-family="Helvetica,sans-Serif" font-size="10.00">std::vector&lt; double &gt;</text>
</a>
</g>
</g>
<!-- Node8&#45;&gt;Node1 -->
<g id="edge9" class="edge">
<title>Node8&#45;&gt;Node1</title>
<path fill="none" stroke="#9a32cd" stroke-dasharray="5,2" d="M498.66,-8.17C534.04,-9.07 576.96,-12.88 614,-24 639.95,-31.79 666.69,-47.79 684.51,-59.8"/>
<polygon fill="#9a32cd" stroke="#9a32cd" points="498.48,-4.67 488.42,-7.99 498.36,-11.67 498.48,-4.67"/>
<text text-anchor="middle" x="571.5" y="-27" font-family="Helvetica,sans-Serif" font-size="10.00"> elevation_table_</text>
</g>
<!-- Node9&#45;&gt;Node8 -->
<g id="edge10" class="edge">
<title>Node9&#45;&gt;Node8</title>
<path fill="none" stroke="orange" stroke-dasharray="5,2" d="M222.33,-14.93C225.26,-14.58 228.16,-14.26 231,-14 275.28,-9.9 325.47,-8.97 363.71,-9.02"/>
<polygon fill="orange" stroke="orange" points="221.8,-11.47 212.34,-16.25 222.71,-18.41 221.8,-11.47"/>
<text text-anchor="middle" x="277" y="-17" font-family="Helvetica,sans-Serif" font-size="10.00"> &lt; double &gt;</text>
</g>
</g>
</svg>
        <g id="navigator" transform="translate(0 0)" fill="#404254">
                <rect fill="#f2f5e9" fill-opacity="0.5" stroke="#606060" stroke-width=".5" x="0" y="0" width="60" height="60"/>
                <use id="zoomplus" xlink:href="#zoomPlus" x="17" y="9" onmousedown="handleZoom(evt,'in')"/>
                <use id="zoomminus" xlink:href="#zoomMin" x="42" y="9" onmousedown="handleZoom(evt,'out')"/>
                <use id="reset" xlink:href="#resetDef" x="30" y="36" onmousedown="handleReset()"/>
                <g id="arrowUp" xlink:href="#dirArrow" transform="translate(30 24)" onmousedown="handlePan(0,-1)">
                  <use xlink:href="#rim" fill="#404040">
                        <set attributeName="fill" to="#808080" begin="arrowUp.mouseover" end="arrowUp.mouseout"/>
                  </use>
                  <path fill="none" stroke="white" stroke-width="1.5" d="M0,-3.0v7 M-2.5,-0.5L0,-3.0L2.5,-0.5"/>
                </g>
                <g id="arrowRight" xlink:href="#dirArrow" transform="rotate(90) translate(36 -43)" onmousedown="handlePan(1,0)">
                  <use xlink:href="#rim" fill="#404040">
                        <set attributeName="fill" to="#808080" begin="arrowRight.mouseover" end="arrowRight.mouseout"/>
                  </use>
                  <path fill="none" stroke="white" stroke-width="1.5" d="M0,-3.0v7 M-2.5,-0.5L0,-3.0L2.5,-0.5"/>
                </g>
                <g id="arrowDown" xlink:href="#dirArrow" transform="rotate(180) translate(-30 -48)" onmousedown="handlePan(0,1)">
                  <use xlink:href="#rim" fill="#404040">
                        <set attributeName="fill" to="#808080" begin="arrowDown.mouseover" end="arrowDown.mouseout"/>
                  </use>
                  <path fill="none" stroke="white" stroke-width="1.5" d="M0,-3.0v7 M-2.5,-0.5L0,-3.0L2.5,-0.5"/>
                </g>
                <g id="arrowLeft" xlink:href="#dirArrow" transform="rotate(270) translate(-36 17)" onmousedown="handlePan(-1,0)">
                  <use xlink:href="#rim" fill="#404040">
                        <set attributeName="fill" to="#808080" begin="arrowLeft.mouseover" end="arrowLeft.mouseout"/>
                  </use>
                  <path fill="none" stroke="white" stroke-width="1.5" d="M0,-3.0v7 M-2.5,-0.5L0,-3.0L2.5,-0.5"/>
                </g>
        </g>
        <svg viewBox="0 0 15 15" width="100%" height="30px" preserveAspectRatio="xMaxYMin meet">
         <g id="arrow_out" transform="scale(0.3 0.3)">
          <a xlink:href="classsierra_1_1nalu_1_1_radar_segment_generator__coll__graph_org.svg" target="_base">
           <rect id="button" ry="5" rx="5" y="6" x="6" height="38" width="38"
                fill="#f2f5e9" fill-opacity="0.5" stroke="#606060" stroke-width="1.0"/>
           <path id="arrow"
             d="M 11.500037,31.436501 C 11.940474,20.09759 22.043105,11.32322 32.158766,21.979434 L 37.068811,17.246167 C 37.068811,17.246167 37.088388,32 37.088388,32 L 22.160133,31.978069 C 22.160133,31.978069 26.997745,27.140456 26.997745,27.140456 C 18.528582,18.264221 13.291696,25.230495 11.500037,31.436501 z"
             style="fill:#404040;"/>
          </a>
         </g>
        </svg>
</svg>
