<?xml version="1.0" encoding="UTF-8" standalone="no"?>
<!DOCTYPE svg PUBLIC "-//W3C//DTD SVG 1.1//EN"
 "http://www.w3.org/Graphics/SVG/1.1/DTD/svg11.dtd">
<!-- Generated by graphviz version 2.43.0 (0)
 -->
<!-- Title: sierra::nalu::KernelBuilderLog Pages: 1 -->
<svg width="369pt" height="327pt"
 viewBox="0.00 0.00 368.50 327.00" xmlns="http://www.w3.org/2000/svg" xmlns:xlink="http://www.w3.org/1999/xlink">

<svg id="main" version="1.1" xmlns="http://www.w3.org/2000/svg" xmlns:xlink="http://www.w3.org/1999/xlink" xml:space="preserve" onload="init(evt)">
<style type="text/css"><![CDATA[
.node, .edge {opacity: 0.7;}
.node.selected, .edge.selected {opacity: 1;}
.edge:hover path { stroke: red; }
.edge:hover polygon { stroke: red; fill: red; }
]]></style>
<script type="application/ecmascript" xlink:href="svg.min.js"/>
<svg id="graph" class="graph">
<g id="graph0" class="graph" transform="scale(1 1) rotate(0) translate(4 323)">
<title>sierra::nalu::KernelBuilderLog</title>
<!-- Node1 -->
<g id="Node000001" class="node">
<title>Node1</title>
<g id="a_Node000001"><a xlink:title=" ">
<polygon fill="#999999" stroke="#666666" points="313.5,-19 153.5,-19 153.5,0 313.5,0 313.5,-19"/>
<text text-anchor="middle" x="233.5" y="-7" font-family="Helvetica,sans-Serif" font-size="10.00">sierra::nalu::KernelBuilderLog</text>
</a>
</g>
</g>
<!-- Node2 -->
<g id="Node000002" class="node">
<title>Node2</title>
<g id="a_Node000002"><a xlink:title=" ">
<polygon fill="white" stroke="#666666" points="302.5,-107 164.5,-107 164.5,-77 302.5,-77 302.5,-107"/>
<text text-anchor="start" x="172.5" y="-95" font-family="Helvetica,sans-Serif" font-size="10.00">std::map&lt; std::string,</text>
<text text-anchor="middle" x="233.5" y="-84" font-family="Helvetica,sans-Serif" font-size="10.00"> std::set&lt; std::string &gt; &gt;</text>
</a>
</g>
</g>
<!-- Node2&#45;&gt;Node1 -->
<g id="edge1_Node000001_Node000002" class="edge">
<title>Node2&#45;&gt;Node1</title>
<g id="a_edge1_Node000001_Node000002"><a xlink:title=" ">
<path fill="none" stroke="#9a32cd" stroke-dasharray="5,2" d="M233.5,-66.7C233.5,-50.7 233.5,-30.7 233.5,-19.38"/>
<polygon fill="#9a32cd" stroke="#9a32cd" points="230,-66.98 233.5,-76.98 237,-66.98 230,-66.98"/>
</a>
</g>
<text text-anchor="middle" x="281.5" y="-51" font-family="Helvetica,sans-Serif" font-size="10.00" fill="grey"> builtKernelNames_</text>
<text text-anchor="middle" x="281.5" y="-40" font-family="Helvetica,sans-Serif" font-size="10.00" fill="grey">validKernelNames_</text>
</g>
<!-- Node3 -->
<g id="Node000003" class="node">
<title>Node3</title>
<g id="a_Node000003"><a xlink:title=" ">
<polygon fill="white" stroke="#666666" points="341,-242 276,-242 276,-223 341,-223 341,-242"/>
<text text-anchor="middle" x="308.5" y="-230" font-family="Helvetica,sans-Serif" font-size="10.00">std::string</text>
</a>
</g>
</g>
<!-- Node3&#45;&gt;Node2 -->
<g id="edge2_Node000002_Node000003" class="edge">
<title>Node3&#45;&gt;Node2</title>
<g id="a_edge2_Node000002_Node000003"><a xlink:title=" ">
<path fill="none" stroke="#9a32cd" stroke-dasharray="5,2" d="M310.36,-212.38C311.26,-196.35 310.99,-173.09 304.5,-154 299.62,-139.64 297.29,-135.66 286.5,-125 279.46,-118.05 270.64,-111.96 262.22,-107.02"/>
<polygon fill="#9a32cd" stroke="#9a32cd" points="306.85,-212.37 309.57,-222.61 313.83,-212.9 306.85,-212.37"/>
</a>
</g>
<text text-anchor="middle" x="322.5" y="-162.5" font-family="Helvetica,sans-Serif" font-size="10.00" fill="grey"> keys</text>
</g>
<!-- Node5 -->
<g id="Node000005" class="node">
<title>Node5</title>
<g id="a_Node000005"><a xlink:title=" ">
<polygon fill="white" stroke="#666666" points="295.5,-174.5 171.5,-174.5 171.5,-155.5 295.5,-155.5 295.5,-174.5"/>
<text text-anchor="middle" x="233.5" y="-162.5" font-family="Helvetica,sans-Serif" font-size="10.00">std::set&lt; std::string &gt;</text>
</a>
</g>
</g>
<!-- Node3&#45;&gt;Node5 -->
<g id="edge5_Node000005_Node000003" class="edge">
<title>Node3&#45;&gt;Node5</title>
<g id="a_edge5_Node000005_Node000003"><a xlink:title=" ">
<path fill="none" stroke="#9a32cd" stroke-dasharray="5,2" d="M290.79,-216.03C276.05,-203.16 255.61,-185.31 243.55,-174.77"/>
<polygon fill="#9a32cd" stroke="#9a32cd" points="288.86,-219 298.7,-222.94 293.47,-213.72 288.86,-219"/>
</a>
</g>
<text text-anchor="middle" x="291.5" y="-197" font-family="Helvetica,sans-Serif" font-size="10.00" fill="grey"> keys</text>
</g>
<!-- Node4 -->
<g id="Node000004" class="node">
<title>Node4</title>
<g id="a_Node000004"><a xlink:title=" ">
<polygon fill="white" stroke="#666666" points="360.5,-319 256.5,-319 256.5,-289 360.5,-289 360.5,-319"/>
<text text-anchor="start" x="264.5" y="-307" font-family="Helvetica,sans-Serif" font-size="10.00">std::basic_string&lt;</text>
<text text-anchor="middle" x="308.5" y="-296" font-family="Helvetica,sans-Serif" font-size="10.00"> Char &gt;</text>
</a>
</g>
</g>
<!-- Node4&#45;&gt;Node3 -->
<g id="edge3_Node000003_Node000004" class="edge">
<title>Node4&#45;&gt;Node3</title>
<g id="a_edge3_Node000003_Node000004"><a xlink:title=" ">
<path fill="none" stroke="#63b8ff" d="M308.5,-278.56C308.5,-265.95 308.5,-251.35 308.5,-242.27"/>
<polygon fill="#63b8ff" stroke="#63b8ff" points="305,-278.94 308.5,-288.94 312,-278.94 305,-278.94"/>
</a>
</g>
</g>
<!-- Node5&#45;&gt;Node2 -->
<g id="edge4_Node000002_Node000005" class="edge">
<title>Node5&#45;&gt;Node2</title>
<g id="a_edge4_Node000002_Node000005"><a xlink:title=" ">
<path fill="none" stroke="#9a32cd" stroke-dasharray="5,2" d="M233.5,-145.1C233.5,-133.19 233.5,-118.06 233.5,-107.18"/>
<polygon fill="#9a32cd" stroke="#9a32cd" points="230,-145.29 233.5,-155.29 237,-145.29 230,-145.29"/>
</a>
</g>
<text text-anchor="middle" x="258" y="-128" font-family="Helvetica,sans-Serif" font-size="10.00" fill="grey"> elements</text>
</g>
<!-- Node6 -->
<g id="Node000006" class="node">
<title>Node6</title>
<g id="a_Node000006"><a xlink:title=" ">
<polygon fill="white" stroke="#666666" points="216.5,-242 134.5,-242 134.5,-223 216.5,-223 216.5,-242"/>
<text text-anchor="middle" x="175.5" y="-230" font-family="Helvetica,sans-Serif" font-size="10.00">std::set&lt; K &gt;</text>
</a>
</g>
</g>
<!-- Node6&#45;&gt;Node5 -->
<g id="edge6_Node000005_Node000006" class="edge">
<title>Node6&#45;&gt;Node5</title>
<g id="a_edge6_Node000005_Node000006"><a xlink:title=" ">
<path fill="none" stroke="orange" stroke-dasharray="5,2" d="M179.24,-212.93C181.2,-206.45 184.15,-199.45 188.5,-194 195.05,-185.8 204.69,-179.35 213.37,-174.72"/>
<polygon fill="orange" stroke="orange" points="175.76,-212.41 176.77,-222.96 182.56,-214.09 175.76,-212.41"/>
</a>
</g>
<text text-anchor="middle" x="226" y="-197" font-family="Helvetica,sans-Serif" font-size="10.00" fill="grey"> &lt; std::string &gt;</text>
</g>
<!-- Node7 -->
<g id="Node000007" class="node">
<title>Node7</title>
<g id="a_Node000007"><a xlink:title=" ">
<polygon fill="white" stroke="#666666" points="165,-313.5 136,-313.5 136,-294.5 165,-294.5 165,-313.5"/>
<text text-anchor="middle" x="150.5" y="-301.5" font-family="Helvetica,sans-Serif" font-size="10.00">K</text>
</a>
</g>
</g>
<!-- Node7&#45;&gt;Node6 -->
<g id="edge7_Node000006_Node000007" class="edge">
<title>Node7&#45;&gt;Node6</title>
<g id="a_edge7_Node000006_Node000007"><a xlink:title=" ">
<path fill="none" stroke="#9a32cd" stroke-dasharray="5,2" d="M156.96,-285.03C161.93,-271.22 168.57,-252.76 172.41,-242.09"/>
<polygon fill="#9a32cd" stroke="#9a32cd" points="153.66,-283.88 153.57,-294.48 160.24,-286.25 153.66,-283.88"/>
</a>
</g>
<text text-anchor="middle" x="178.5" y="-263" font-family="Helvetica,sans-Serif" font-size="10.00" fill="grey"> keys</text>
</g>
<!-- Node8 -->
<g id="Node000008" class="node">
<title>Node8</title>
<g id="a_Node000008"><a xlink:title=" ">
<polygon fill="white" stroke="#666666" points="101,-242 0,-242 0,-223 101,-223 101,-242"/>
<text text-anchor="middle" x="50.5" y="-230" font-family="Helvetica,sans-Serif" font-size="10.00">std::map&lt; K, T &gt;</text>
</a>
</g>
</g>
<!-- Node7&#45;&gt;Node8 -->
<g id="edge9_Node000008_Node000007" class="edge">
<title>Node7&#45;&gt;Node8</title>
<g id="a_edge9_Node000008_Node000007"><a xlink:title=" ">
<path fill="none" stroke="#9a32cd" stroke-dasharray="5,2" d="M135.24,-287.01C126.47,-278.36 114.94,-267.87 103.5,-260 93.33,-253.01 81.05,-246.75 70.87,-242.07"/>
<polygon fill="#9a32cd" stroke="#9a32cd" points="132.93,-289.65 142.44,-294.31 137.91,-284.74 132.93,-289.65"/>
</a>
</g>
<text text-anchor="middle" x="130.5" y="-263" font-family="Helvetica,sans-Serif" font-size="10.00" fill="grey"> keys</text>
</g>
<!-- Node8&#45;&gt;Node2 -->
<g id="edge8_Node000002_Node000008" class="edge">
<title>Node8&#45;&gt;Node2</title>
<g id="a_edge8_Node000002_Node000008"><a xlink:title=" ">
<path fill="none" stroke="orange" stroke-dasharray="5,2" d="M47.21,-212.79C45.3,-195.66 45.42,-170.54 58.5,-154 83.85,-121.95 127.11,-106.69 164.28,-99.44"/>
<polygon fill="orange" stroke="orange" points="43.75,-213.32 48.64,-222.72 50.68,-212.33 43.75,-213.32"/>
</a>
</g>
<text text-anchor="start" x="58.5" y="-168" font-family="Helvetica,sans-Serif" font-size="10.00" fill="grey"> &lt; std::string, std</text>
<text text-anchor="middle" x="110.5" y="-157" font-family="Helvetica,sans-Serif" font-size="10.00" fill="grey">::set&lt; std::string &gt; &gt;</text>
</g>
<!-- Node9 -->
<g id="Node000009" class="node">
<title>Node9</title>
<g id="a_Node000009"><a xlink:title=" ">
<polygon fill="white" stroke="#666666" points="65,-313.5 36,-313.5 36,-294.5 65,-294.5 65,-313.5"/>
<text text-anchor="middle" x="50.5" y="-301.5" font-family="Helvetica,sans-Serif" font-size="10.00">T</text>
</a>
</g>
</g>
<!-- Node9&#45;&gt;Node8 -->
<g id="edge10_Node000008_Node000009" class="edge">
<title>Node9&#45;&gt;Node8</title>
<g id="a_edge10_Node000008_Node000009"><a xlink:title=" ">
<path fill="none" stroke="#9a32cd" stroke-dasharray="5,2" d="M50.5,-284.21C50.5,-270.5 50.5,-252.55 50.5,-242.09"/>
<polygon fill="#9a32cd" stroke="#9a32cd" points="47,-284.48 50.5,-294.48 54,-284.48 47,-284.48"/>
</a>
</g>
<text text-anchor="middle" x="75" y="-263" font-family="Helvetica,sans-Serif" font-size="10.00" fill="grey"> elements</text>
</g>
</g>
</svg>
</svg>

<style type='text/css'>
<![CDATA[
[data-mouse-over-selected='false'] { opacity: 0.7; }
[data-mouse-over-selected='true']  { opacity: 1.0; }
]]>
</style>
<script type="application/ecmascript"><![CDATA[
document.addEventListener('DOMContentLoaded', (event) => {
  highlightEdges();
  highlightAdjacentNodes();
});
]]></script>
</svg>
