<?xml version="1.0" encoding="UTF-8" standalone="no"?>
<!DOCTYPE svg PUBLIC "-//W3C//DTD SVG 1.1//EN"
 "http://www.w3.org/Graphics/SVG/1.1/DTD/svg11.dtd">
<!-- Generated by graphviz version 2.43.0 (0)
 -->
<!-- Title: sierra::nalu::WallDistElemKernel&lt; AlgTraits &gt; Pages: 1 -->
<svg width="252pt" height="253pt"
 viewBox="0.00 0.00 251.50 253.00" xmlns="http://www.w3.org/2000/svg" xmlns:xlink="http://www.w3.org/1999/xlink">
<g id="graph0" class="graph" transform="scale(1 1) rotate(0) translate(4 249)">
<title>sierra::nalu::WallDistElemKernel&lt; AlgTraits &gt;</title>
<polygon fill="white" stroke="transparent" points="-4,4 -4,-249 247.5,-249 247.5,4 -4,4"/>
<!-- Node1 -->
<g id="node1" class="node">
<title>Node1</title>
<g id="a_node1"><a xlink:title=" ">
<polygon fill="#bfbfbf" stroke="black" points="0,-0.5 0,-30.5 143,-30.5 143,-0.5 0,-0.5"/>
<text text-anchor="start" x="8" y="-18.5" font-family="Helvetica,sans-Serif" font-size="10.00">sierra::nalu::WallDistElem</text>
<text text-anchor="middle" x="71.5" y="-7.5" font-family="Helvetica,sans-Serif" font-size="10.00">Kernel&lt; AlgTraits &gt;</text>
</a>
</g>
</g>
<!-- Node2 -->
<g id="node2" class="node">
<title>Node2</title>
<g id="a_node2"><a xlink:href="classsierra_1_1nalu_1_1_n_g_p_kernel.html" target="_top" xlink:title=" ">
<polygon fill="white" stroke="black" points="5.5,-68.5 5.5,-109.5 137.5,-109.5 137.5,-68.5 5.5,-68.5"/>
<text text-anchor="start" x="13.5" y="-97.5" font-family="Helvetica,sans-Serif" font-size="10.00">sierra::nalu::NGPKernel</text>
<text text-anchor="start" x="13.5" y="-86.5" font-family="Helvetica,sans-Serif" font-size="10.00">&lt; WallDistElemKernel&lt;</text>
<text text-anchor="middle" x="71.5" y="-75.5" font-family="Helvetica,sans-Serif" font-size="10.00"> AlgTraits &gt; &gt;</text>
</a>
</g>
</g>
<!-- Node2&#45;&gt;Node1 -->
<g id="edge1" class="edge">
<title>Node2&#45;&gt;Node1</title>
<path fill="none" stroke="midnightblue" d="M71.5,-58.16C71.5,-48.69 71.5,-38.65 71.5,-30.8"/>
<polygon fill="midnightblue" stroke="midnightblue" points="68,-58.46 71.5,-68.46 75,-58.46 68,-58.46"/>
</g>
<!-- Node3 -->
<g id="node3" class="node">
<title>Node3</title>
<g id="a_node3"><a xlink:href="classsierra_1_1nalu_1_1_kernel.html" target="_top" xlink:title="Base class for computational kernels in Nalu.">
<polygon fill="white" stroke="black" points="13.5,-225.5 13.5,-244.5 121.5,-244.5 121.5,-225.5 13.5,-225.5"/>
<text text-anchor="middle" x="67.5" y="-232.5" font-family="Helvetica,sans-Serif" font-size="10.00">sierra::nalu::Kernel</text>
</a>
</g>
</g>
<!-- Node3&#45;&gt;Node2 -->
<g id="edge2" class="edge">
<title>Node3&#45;&gt;Node2</title>
<path fill="none" stroke="midnightblue" d="M68.02,-215.26C68.78,-187.92 70.19,-137.32 70.96,-109.53"/>
<polygon fill="midnightblue" stroke="midnightblue" points="64.52,-215.33 67.74,-225.42 71.51,-215.52 64.52,-215.33"/>
</g>
<!-- Node4 -->
<g id="node4" class="node">
<title>Node4</title>
<g id="a_node4"><a xlink:href="classsierra_1_1nalu_1_1_n_g_p_kernel.html" target="_top" xlink:title="Kernel that can be transferred to a device.">
<polygon fill="white" stroke="black" points="83.5,-168.5 83.5,-187.5 241.5,-187.5 241.5,-168.5 83.5,-168.5"/>
<text text-anchor="middle" x="162.5" y="-175.5" font-family="Helvetica,sans-Serif" font-size="10.00">sierra::nalu::NGPKernel&lt; T &gt;</text>
</a>
</g>
</g>
<!-- Node3&#45;&gt;Node4 -->
<g id="edge4" class="edge">
<title>Node3&#45;&gt;Node4</title>
<path fill="none" stroke="midnightblue" d="M91,-220.39C108.76,-210.11 132.6,-196.31 147.76,-187.53"/>
<polygon fill="midnightblue" stroke="midnightblue" points="89.24,-217.37 82.34,-225.41 92.75,-223.42 89.24,-217.37"/>
</g>
<!-- Node4&#45;&gt;Node2 -->
<g id="edge3" class="edge">
<title>Node4&#45;&gt;Node2</title>
<path fill="none" stroke="orange" stroke-dasharray="5,2" d="M145.87,-161.1C130.73,-146.63 108.34,-125.22 92.09,-109.68"/>
<polygon fill="orange" stroke="orange" points="143.8,-163.96 153.44,-168.34 148.63,-158.9 143.8,-163.96"/>
<text text-anchor="start" x="132.5" y="-142" font-family="Helvetica,sans-Serif" font-size="10.00"> &lt; WallDistElemKernel</text>
<text text-anchor="middle" x="188" y="-131" font-family="Helvetica,sans-Serif" font-size="10.00">&lt; AlgTraits &gt; &gt;</text>
</g>
</g>
</svg>
