<?xml version="1.0" encoding="UTF-8" standalone="no"?>
<!DOCTYPE svg PUBLIC "-//W3C//DTD SVG 1.1//EN"
 "http://www.w3.org/Graphics/SVG/1.1/DTD/svg11.dtd">
<!-- Generated by graphviz version 2.43.0 (0)
 -->
<!-- Title: sierra::nalu::SDRSSTAMSNodeKernel Pages: 1 -->
<svg width="410pt" height="171pt"
 viewBox="0.00 0.00 409.50 171.00" xmlns="http://www.w3.org/2000/svg" xmlns:xlink="http://www.w3.org/1999/xlink">

<svg id="main" version="1.1" xmlns="http://www.w3.org/2000/svg" xmlns:xlink="http://www.w3.org/1999/xlink" xml:space="preserve" onload="init(evt)">
<style type="text/css"><![CDATA[
.node, .edge {opacity: 0.7;}
.node.selected, .edge.selected {opacity: 1;}
.edge:hover path { stroke: red; }
.edge:hover polygon { stroke: red; fill: red; }
]]></style>
<script type="application/ecmascript" xlink:href="svg.min.js"/>
<svg id="graph" class="graph">
<g id="graph0" class="graph" transform="scale(1 1) rotate(0) translate(4 167)">
<title>sierra::nalu::SDRSSTAMSNodeKernel</title>
<!-- Node1 -->
<g id="Node000001" class="node">
<title>Node1</title>
<g id="a_Node000001"><a xlink:title=" ">
<polygon fill="#999999" stroke="#666666" points="162,-107 0,-107 0,-77 162,-77 162,-107"/>
<text text-anchor="start" x="8" y="-95" font-family="Helvetica,sans-Serif" font-size="10.00">sierra::nalu::SDRSSTAMSNode</text>
<text text-anchor="middle" x="81" y="-84" font-family="Helvetica,sans-Serif" font-size="10.00">Kernel</text>
</a>
</g>
</g>
<!-- Node2 -->
<g id="Node000002" class="node">
<title>Node2</title>
<g id="a_Node000002"><a xlink:href="classsierra_1_1nalu_1_1_n_g_p_node_kernel.html" target="_top" xlink:title=" ">
<polygon fill="white" stroke="#666666" points="254.5,-30 99.5,-30 99.5,0 254.5,0 254.5,-30"/>
<text text-anchor="start" x="107.5" y="-18" font-family="Helvetica,sans-Serif" font-size="10.00">sierra::nalu::NGPNodeKernel</text>
<text text-anchor="middle" x="177" y="-7" font-family="Helvetica,sans-Serif" font-size="10.00">&lt; SDRSSTAMSNodeKernel &gt;</text>
</a>
</g>
</g>
<!-- Node1&#45;&gt;Node2 -->
<g id="edge3_Node000002_Node000001" class="edge">
<title>Node1&#45;&gt;Node2</title>
<g id="a_edge3_Node000002_Node000001"><a xlink:title=" ">
<path fill="none" stroke="#9a32cd" stroke-dasharray="5,2" d="M75.31,-66.91C75.03,-60.26 76.09,-53.4 80,-48 85.51,-40.38 92.89,-34.55 101.14,-30.09"/>
<polygon fill="#9a32cd" stroke="#9a32cd" points="71.85,-67.48 76.62,-76.94 78.79,-66.57 71.85,-67.48"/>
</a>
</g>
<text text-anchor="middle" x="113" y="-51" font-family="Helvetica,sans-Serif" font-size="10.00" fill="grey"> deviceCopy_</text>
</g>
<!-- Node2&#45;&gt;Node1 -->
<g id="edge1_Node000001_Node000002" class="edge">
<title>Node2&#45;&gt;Node1</title>
<g id="a_edge1_Node000001_Node000002"><a xlink:title=" ">
<path fill="none" stroke="#63b8ff" d="M165.65,-39.4C161.45,-46.35 156.18,-53.55 150,-59 141.78,-66.24 131.63,-72.16 121.68,-76.84"/>
<polygon fill="#63b8ff" stroke="#63b8ff" points="168.92,-40.71 170.69,-30.26 162.8,-37.33 168.92,-40.71"/>
</a>
</g>
</g>
<!-- Node3 -->
<g id="Node000003" class="node">
<title>Node3</title>
<g id="a_Node000003"><a xlink:href="classsierra_1_1nalu_1_1_node_kernel.html" target="_top" xlink:title=" ">
<polygon fill="white" stroke="#666666" points="269,-163 135,-163 135,-144 269,-144 269,-163"/>
<text text-anchor="middle" x="202" y="-151" font-family="Helvetica,sans-Serif" font-size="10.00">sierra::nalu::NodeKernel</text>
</a>
</g>
</g>
<!-- Node3&#45;&gt;Node2 -->
<g id="edge2_Node000002_Node000003" class="edge">
<title>Node3&#45;&gt;Node2</title>
<g id="a_edge2_Node000002_Node000003"><a xlink:title=" ">
<path fill="none" stroke="#63b8ff" d="M198.62,-134.02C193.55,-106.37 184.11,-54.81 179.57,-30.02"/>
<polygon fill="#63b8ff" stroke="#63b8ff" points="195.19,-134.76 200.44,-143.96 202.08,-133.49 195.19,-134.76"/>
</a>
</g>
</g>
<!-- Node4 -->
<g id="Node000004" class="node">
<title>Node4</title>
<g id="a_Node000004"><a xlink:href="classsierra_1_1nalu_1_1_n_g_p_node_kernel.html" target="_top" xlink:title=" ">
<polygon fill="white" stroke="#666666" points="401.5,-101.5 218.5,-101.5 218.5,-82.5 401.5,-82.5 401.5,-101.5"/>
<text text-anchor="middle" x="310" y="-89.5" font-family="Helvetica,sans-Serif" font-size="10.00">sierra::nalu::NGPNodeKernel&lt; T &gt;</text>
</a>
</g>
</g>
<!-- Node3&#45;&gt;Node4 -->
<g id="edge5_Node000004_Node000003" class="edge">
<title>Node3&#45;&gt;Node4</title>
<g id="a_edge5_Node000004_Node000003"><a xlink:title=" ">
<path fill="none" stroke="#63b8ff" d="M226.4,-139.06C247.3,-127.54 276.76,-111.31 294.55,-101.51"/>
<polygon fill="#63b8ff" stroke="#63b8ff" points="224.54,-136.08 217.47,-143.98 227.92,-142.22 224.54,-136.08"/>
</a>
</g>
</g>
<!-- Node4&#45;&gt;Node2 -->
<g id="edge4_Node000002_Node000004" class="edge">
<title>Node4&#45;&gt;Node2</title>
<g id="a_edge4_Node000002_Node000004"><a xlink:title=" ">
<path fill="none" stroke="orange" stroke-dasharray="5,2" d="M286.01,-77.47C262.28,-64.09 226.11,-43.69 202.03,-30.11"/>
<polygon fill="orange" stroke="orange" points="284.31,-80.53 294.74,-82.4 287.75,-74.44 284.31,-80.53"/>
</a>
</g>
<text text-anchor="middle" x="323" y="-51" font-family="Helvetica,sans-Serif" font-size="10.00" fill="grey"> &lt; SDRSSTAMSNodeKernel &gt;</text>
</g>
</g>
</svg>
</svg>

<style type='text/css'>
<![CDATA[
[data-mouse-over-selected='false'] { opacity: 0.7; }
[data-mouse-over-selected='true']  { opacity: 1.0; }
]]>
</style>
<script type="application/ecmascript"><![CDATA[
document.addEventListener('DOMContentLoaded', (event) => {
  highlightEdges();
  highlightAdjacentNodes();
});
]]></script>
</svg>
