<?xml version="1.0" encoding="UTF-8" standalone="no"?>
<!DOCTYPE svg PUBLIC "-//W3C//DTD SVG 1.1//EN"
 "http://www.w3.org/Graphics/SVG/1.1/DTD/svg11.dtd">
<!-- Generated by graphviz version 2.43.0 (0)
 -->
<!-- Title: sierra::nalu::VOFMassBDFNodeKernel Pages: 1 -->
<svg width="416pt" height="171pt"
 viewBox="0.00 0.00 416.00 171.00" xmlns="http://www.w3.org/2000/svg" xmlns:xlink="http://www.w3.org/1999/xlink">
<g id="graph0" class="graph" transform="scale(1 1) rotate(0) translate(4 167)">
<title>sierra::nalu::VOFMassBDFNodeKernel</title>
<!-- Node1 -->
<g id="Node000001" class="node">
<title>Node1</title>
<g id="a_Node000001"><a xlink:title=" ">
<polygon fill="#999999" stroke="#666666" points="169,-107 0,-107 0,-77 169,-77 169,-107"/>
<text text-anchor="start" x="8" y="-95" font-family="Helvetica,sans-Serif" font-size="10.00">sierra::nalu::VOFMassBDFNode</text>
<text text-anchor="middle" x="84.5" y="-84" font-family="Helvetica,sans-Serif" font-size="10.00">Kernel</text>
</a>
</g>
</g>
<!-- Node2 -->
<g id="Node000002" class="node">
<title>Node2</title>
<g id="a_Node000002"><a xlink:href="classsierra_1_1nalu_1_1_n_g_p_node_kernel.html" target="_top" xlink:title=" ">
<polygon fill="white" stroke="#666666" points="264,-30 103,-30 103,0 264,0 264,-30"/>
<text text-anchor="start" x="111" y="-18" font-family="Helvetica,sans-Serif" font-size="10.00">sierra::nalu::NGPNodeKernel</text>
<text text-anchor="middle" x="183.5" y="-7" font-family="Helvetica,sans-Serif" font-size="10.00">&lt; VOFMassBDFNodeKernel &gt;</text>
</a>
</g>
</g>
<!-- Node1&#45;&gt;Node2 -->
<g id="edge3_Node000002_Node000001" class="edge">
<title>Node1&#45;&gt;Node2</title>
<g id="a_edge3_Node000002_Node000001"><a xlink:title=" ">
<path fill="none" stroke="#9a32cd" stroke-dasharray="5,2" d="M80.81,-66.8C81,-60.15 82.47,-53.31 86.5,-48 92.29,-40.37 99.95,-34.54 108.44,-30.08"/>
<polygon fill="#9a32cd" stroke="#9a32cd" points="77.32,-67.05 81.36,-76.85 84.31,-66.67 77.32,-67.05"/>
</a>
</g>
<text text-anchor="middle" x="119.5" y="-51" font-family="Helvetica,sans-Serif" font-size="10.00" fill="grey"> deviceCopy_</text>
</g>
<!-- Node2&#45;&gt;Node1 -->
<g id="edge1_Node000001_Node000002" class="edge">
<title>Node2&#45;&gt;Node1</title>
<g id="a_edge1_Node000001_Node000002"><a xlink:title=" ">
<path fill="none" stroke="#63b8ff" d="M172.2,-39.46C168.01,-46.41 162.73,-53.6 156.5,-59 148.02,-66.35 137.59,-72.27 127.32,-76.93"/>
<polygon fill="#63b8ff" stroke="#63b8ff" points="175.48,-40.76 177.24,-30.31 169.35,-37.38 175.48,-40.76"/>
</a>
</g>
</g>
<!-- Node3 -->
<g id="Node000003" class="node">
<title>Node3</title>
<g id="a_Node000003"><a xlink:href="classsierra_1_1nalu_1_1_node_kernel.html" target="_top" xlink:title=" ">
<polygon fill="white" stroke="#666666" points="275.5,-163 141.5,-163 141.5,-144 275.5,-144 275.5,-163"/>
<text text-anchor="middle" x="208.5" y="-151" font-family="Helvetica,sans-Serif" font-size="10.00">sierra::nalu::NodeKernel</text>
</a>
</g>
</g>
<!-- Node3&#45;&gt;Node2 -->
<g id="edge2_Node000002_Node000003" class="edge">
<title>Node3&#45;&gt;Node2</title>
<g id="a_edge2_Node000002_Node000003"><a xlink:title=" ">
<path fill="none" stroke="#63b8ff" d="M205.12,-134.02C200.05,-106.37 190.61,-54.81 186.07,-30.02"/>
<polygon fill="#63b8ff" stroke="#63b8ff" points="201.69,-134.76 206.94,-143.96 208.58,-133.49 201.69,-134.76"/>
</a>
</g>
</g>
<!-- Node4 -->
<g id="Node000004" class="node">
<title>Node4</title>
<g id="a_Node000004"><a xlink:href="classsierra_1_1nalu_1_1_n_g_p_node_kernel.html" target="_top" xlink:title=" ">
<polygon fill="white" stroke="#666666" points="408,-101.5 225,-101.5 225,-82.5 408,-82.5 408,-101.5"/>
<text text-anchor="middle" x="316.5" y="-89.5" font-family="Helvetica,sans-Serif" font-size="10.00">sierra::nalu::NGPNodeKernel&lt; T &gt;</text>
</a>
</g>
</g>
<!-- Node3&#45;&gt;Node4 -->
<g id="edge5_Node000004_Node000003" class="edge">
<title>Node3&#45;&gt;Node4</title>
<g id="a_edge5_Node000004_Node000003"><a xlink:title=" ">
<path fill="none" stroke="#63b8ff" d="M232.9,-139.06C253.8,-127.54 283.26,-111.31 301.05,-101.51"/>
<polygon fill="#63b8ff" stroke="#63b8ff" points="231.04,-136.08 223.97,-143.98 234.42,-142.22 231.04,-136.08"/>
</a>
</g>
</g>
<!-- Node4&#45;&gt;Node2 -->
<g id="edge4_Node000002_Node000004" class="edge">
<title>Node4&#45;&gt;Node2</title>
<g id="a_edge4_Node000002_Node000004"><a xlink:title=" ">
<path fill="none" stroke="orange" stroke-dasharray="5,2" d="M292.51,-77.47C268.78,-64.09 232.61,-43.69 208.53,-30.11"/>
<polygon fill="orange" stroke="orange" points="290.81,-80.53 301.24,-82.4 294.25,-74.44 290.81,-80.53"/>
</a>
</g>
<text text-anchor="middle" x="332.5" y="-51" font-family="Helvetica,sans-Serif" font-size="10.00" fill="grey"> &lt; VOFMassBDFNodeKernel &gt;</text>
</g>
</g>
</svg>
