<?xml version="1.0" encoding="UTF-8" standalone="no"?>
<!DOCTYPE svg PUBLIC "-//W3C//DTD SVG 1.1//EN"
 "http://www.w3.org/Graphics/SVG/1.1/DTD/svg11.dtd">
<!-- Generated by graphviz version 2.43.0 (0)
 -->
<!-- Title: sierra::nalu::HypreLinearSolverConfig Pages: 1 -->
<!--zoomable 144 -->

<svg id="main" version="1.1" xmlns="http://www.w3.org/2000/svg" xmlns:xlink="http://www.w3.org/1999/xlink" xml:space="preserve" onload="init(evt)">
<style type="text/css"><![CDATA[
.node, .edge {opacity: 0.7;}
.node.selected, .edge.selected {opacity: 1;}
.edge:hover path { stroke: red; }
.edge:hover polygon { stroke: red; fill: red; }
]]></style>

<defs>
  <circle id="rim" cx="0" cy="0" r="7"/>
  <circle id="rim2" cx="0" cy="0" r="3.5"/>
  <g id="zoomPlus">
    <use xlink:href="#rim" fill="#404040"><set attributeName="fill" to="#808080" begin="zoomplus.mouseover" end="zoomplus.mouseout"/></use>
    <path d="M-4,0h8M0,-4v8" fill="none" stroke="white" stroke-width="1.5" pointer-events="none"/>
  </g>
  <g id="zoomMin">
    <use xlink:href="#rim" fill="#404040"><set attributeName="fill" to="#808080" begin="zoomminus.mouseover" end="zoomminus.mouseout"/></use>
    <path d="M-4,0h8" fill="none" stroke="white" stroke-width="1.5" pointer-events="none"/>
  </g>
  <g id="arrowUp" transform="translate(30 24)">
    <use xlink:href="#rim"/>
    <path pointer-events="none" fill="none" stroke="white" stroke-width="1.5" d="M0,-3.0v7 M-2.5,-0.5L0,-3.0L2.5,-0.5"/>
  </g>
  <g id="arrowRight" transform="rotate(90) translate(36 -43)">
    <use xlink:href="#rim"/>
    <path pointer-events="none" fill="none" stroke="white" stroke-width="1.5" d="M0,-3.0v7 M-2.5,-0.5L0,-3.0L2.5,-0.5"/>
  </g>
  <g id="arrowDown" transform="rotate(180) translate(-30 -48)">
    <use xlink:href="#rim"/>
    <path pointer-events="none" fill="none" stroke="white" stroke-width="1.5" d="M0,-3.0v7 M-2.5,-0.5L0,-3.0L2.5,-0.5"/>
  </g>
  <g id="arrowLeft" transform="rotate(270) translate(-36 17)">
    <use xlink:href="#rim"/>
    <path pointer-events="none" fill="none" stroke="white" stroke-width="1.5" d="M0,-3.0v7 M-2.5,-0.5L0,-3.0L2.5,-0.5"/>
  </g>
  <g id="resetDef">
    <use xlink:href="#rim2" fill="#404040"><set attributeName="fill" to="#808080" begin="reset.mouseover" end="reset.mouseout"/></use>
  </g>
</defs>
<script type="application/ecmascript">
var viewWidth = 905;
var viewHeight = 144;
var sectionId = 'dynsection-1';
</script>
<script type="application/ecmascript" xlink:href="svg.min.js"/>
<svg id="graph" class="graph">
<g id="viewport">
<title>sierra::nalu::HypreLinearSolverConfig</title>
<!-- Node1 -->
<g id="Node000001" class="node">
<title>Node1</title>
<g id="a_Node000001"><a xlink:title="User configuration parmeters for Hypre solvers and preconditioners.">
<polygon fill="#999999" stroke="#666666" points="897,-78 760,-78 760,-48 897,-48 897,-78"/>
<text text-anchor="start" x="768" y="-66" font-family="Helvetica,sans-Serif" font-size="10.00">sierra::nalu::HypreLinear</text>
<text text-anchor="middle" x="828.5" y="-55" font-family="Helvetica,sans-Serif" font-size="10.00">SolverConfig</text>
</a>
</g>
</g>
<!-- Node2 -->
<g id="Node000002" class="node">
<title>Node2</title>
<g id="a_Node000002"><a xlink:href="classsierra_1_1nalu_1_1_linear_solver_config.html" target="_top" xlink:title=" ">
<polygon fill="white" stroke="#666666" points="622.5,-78 484.5,-78 484.5,-48 622.5,-48 622.5,-78"/>
<text text-anchor="start" x="492.5" y="-66" font-family="Helvetica,sans-Serif" font-size="10.00">sierra::nalu::LinearSolver</text>
<text text-anchor="middle" x="553.5" y="-55" font-family="Helvetica,sans-Serif" font-size="10.00">Config</text>
</a>
</g>
</g>
<!-- Node2&#45;&gt;Node1 -->
<g id="edge1_Node000001_Node000002" class="edge">
<title>Node2&#45;&gt;Node1</title>
<g id="a_edge1_Node000001_Node000002"><a xlink:title=" ">
<path fill="none" stroke="#63b8ff" d="M632.69,-63C672.81,-63 721.2,-63 759.71,-63"/>
<polygon fill="#63b8ff" stroke="#63b8ff" points="632.69,-59.5 622.69,-63 632.69,-66.5 632.69,-59.5"/>
</a>
</g>
</g>
<!-- Node3 -->
<g id="Node000003" class="node">
<title>Node3</title>
<g id="a_Node000003"><a xlink:title=" ">
<polygon fill="white" stroke="#666666" points="270,-110.5 205,-110.5 205,-91.5 270,-91.5 270,-110.5"/>
<text text-anchor="middle" x="237.5" y="-98.5" font-family="Helvetica,sans-Serif" font-size="10.00">std::string</text>
</a>
</g>
</g>
<!-- Node3&#45;&gt;Node1 -->
<g id="edge7_Node000001_Node000003" class="edge">
<title>Node3&#45;&gt;Node1</title>
<g id="a_edge7_Node000001_Node000003"><a xlink:title=" ">
<path fill="none" stroke="#9a32cd" stroke-dasharray="5,2" d="M265.36,-114.85C276.93,-120.08 290.8,-125.39 304,-128 359.37,-138.96 374.74,-132.58 431,-128 547.46,-118.52 681.26,-93.62 759.86,-77.53"/>
<polygon fill="#9a32cd" stroke="#9a32cd" points="266.79,-111.66 256.25,-110.55 263.8,-117.99 266.79,-111.66"/>
</a>
</g>
<text text-anchor="middle" x="553.5" y="-128" font-family="Helvetica,sans-Serif" font-size="10.00" fill="grey"> bamgEuclidFile_</text>
</g>
<!-- Node3&#45;&gt;Node2 -->
<g id="edge2_Node000002_Node000003" class="edge">
<title>Node3&#45;&gt;Node2</title>
<g id="a_edge2_Node000002_Node000003"><a xlink:title=" ">
<path fill="none" stroke="#9a32cd" stroke-dasharray="5,2" d="M258.32,-85.35C270.69,-76.61 287.37,-66.58 304,-62 363.38,-45.66 433.8,-47.85 484.49,-52.99"/>
<polygon fill="#9a32cd" stroke="#9a32cd" points="256.11,-82.63 250.15,-91.39 260.27,-88.26 256.11,-82.63"/>
</a>
</g>
<text text-anchor="middle" x="367.5" y="-120" font-family="Helvetica,sans-Serif" font-size="10.00" fill="grey"> method_</text>
<text text-anchor="middle" x="367.5" y="-109" font-family="Helvetica,sans-Serif" font-size="10.00" fill="grey">name_</text>
<text text-anchor="middle" x="367.5" y="-98" font-family="Helvetica,sans-Serif" font-size="10.00" fill="grey">precond_</text>
<text text-anchor="start" x="320.5" y="-87" font-family="Helvetica,sans-Serif" font-size="10.00" fill="grey">preconditionerType</text>
<text text-anchor="middle" x="367.5" y="-76" font-family="Helvetica,sans-Serif" font-size="10.00" fill="grey">_</text>
<text text-anchor="middle" x="367.5" y="-65" font-family="Helvetica,sans-Serif" font-size="10.00" fill="grey">solverType_</text>
</g>
<!-- Node4 -->
<g id="Node000004" class="node">
<title>Node4</title>
<g id="a_Node000004"><a xlink:title=" ">
<polygon fill="white" stroke="#666666" points="104,-116 0,-116 0,-86 104,-86 104,-116"/>
<text text-anchor="start" x="8" y="-104" font-family="Helvetica,sans-Serif" font-size="10.00">std::basic_string&lt;</text>
<text text-anchor="middle" x="52" y="-93" font-family="Helvetica,sans-Serif" font-size="10.00"> Char &gt;</text>
</a>
</g>
</g>
<!-- Node4&#45;&gt;Node3 -->
<g id="edge3_Node000003_Node000004" class="edge">
<title>Node4&#45;&gt;Node3</title>
<g id="a_edge3_Node000003_Node000004"><a xlink:title=" ">
<path fill="none" stroke="#63b8ff" d="M114.21,-101C144.61,-101 180.06,-101 204.94,-101"/>
<polygon fill="#63b8ff" stroke="#63b8ff" points="114.12,-97.5 104.11,-101 114.11,-104.5 114.12,-97.5"/>
</a>
</g>
</g>
<!-- Node5 -->
<g id="Node000005" class="node">
<title>Node5</title>
<g id="a_Node000005"><a xlink:title=" ">
<polygon fill="white" stroke="#666666" points="658,-30 449,-30 449,0 658,0 658,-30"/>
<text text-anchor="start" x="457" y="-18" font-family="Helvetica,sans-Serif" font-size="10.00">std::vector&lt; Teuchos</text>
<text text-anchor="middle" x="553.5" y="-7" font-family="Helvetica,sans-Serif" font-size="10.00">::RCP&lt; Ifpack2::FunctionParameter &gt; &gt;</text>
</a>
</g>
</g>
<!-- Node5&#45;&gt;Node1 -->
<g id="edge4_Node000001_Node000005" class="edge">
<title>Node5&#45;&gt;Node1</title>
<g id="a_edge4_Node000001_Node000005"><a xlink:title=" ">
<path fill="none" stroke="#9a32cd" stroke-dasharray="5,2" d="M650.22,-31.83C686.42,-38.19 726.83,-45.3 759.92,-51.12"/>
<polygon fill="#9a32cd" stroke="#9a32cd" points="650.58,-28.34 640.13,-30.06 649.37,-35.23 650.58,-28.34"/>
</a>
</g>
<text text-anchor="middle" x="709" y="-50" font-family="Helvetica,sans-Serif" font-size="10.00" fill="grey"> funcParams_</text>
</g>
<!-- Node6 -->
<g id="Node000006" class="node">
<title>Node6</title>
<g id="a_Node000006"><a xlink:title=" ">
<polygon fill="white" stroke="#666666" points="286,-24.5 189,-24.5 189,-5.5 286,-5.5 286,-24.5"/>
<text text-anchor="middle" x="237.5" y="-12.5" font-family="Helvetica,sans-Serif" font-size="10.00">std::vector&lt; T &gt;</text>
</a>
</g>
</g>
<!-- Node6&#45;&gt;Node5 -->
<g id="edge5_Node000005_Node000006" class="edge">
<title>Node6&#45;&gt;Node5</title>
<g id="a_edge5_Node000005_Node000006"><a xlink:title=" ">
<path fill="none" stroke="orange" stroke-dasharray="5,2" d="M296.37,-15C338.96,-15 398.02,-15 448.69,-15"/>
<polygon fill="orange" stroke="orange" points="296.19,-11.5 286.19,-15 296.19,-18.5 296.19,-11.5"/>
</a>
</g>
<text text-anchor="start" x="304" y="-29" font-family="Helvetica,sans-Serif" font-size="10.00" fill="grey"> &lt; Teuchos::RCP&lt; Ifpack2</text>
<text text-anchor="middle" x="367.5" y="-18" font-family="Helvetica,sans-Serif" font-size="10.00" fill="grey">::FunctionParameter &gt; &gt;</text>
</g>
<!-- Node7 -->
<g id="Node000007" class="node">
<title>Node7</title>
<g id="a_Node000007"><a xlink:title=" ">
<polygon fill="white" stroke="#666666" points="66.5,-24.5 37.5,-24.5 37.5,-5.5 66.5,-5.5 66.5,-24.5"/>
<text text-anchor="middle" x="52" y="-12.5" font-family="Helvetica,sans-Serif" font-size="10.00">T</text>
</a>
</g>
</g>
<!-- Node7&#45;&gt;Node6 -->
<g id="edge6_Node000006_Node000007" class="edge">
<title>Node7&#45;&gt;Node6</title>
<g id="a_edge6_Node000006_Node000007"><a xlink:title=" ">
<path fill="none" stroke="#9a32cd" stroke-dasharray="5,2" d="M76.96,-15C105.28,-15 153.06,-15 188.97,-15"/>
<polygon fill="#9a32cd" stroke="#9a32cd" points="76.79,-11.5 66.79,-15 76.79,-18.5 76.79,-11.5"/>
</a>
</g>
<text text-anchor="middle" x="146.5" y="-18" font-family="Helvetica,sans-Serif" font-size="10.00" fill="grey"> elements</text>
</g>
</g>
</svg>

<g id="navigator" transform="translate(0 0)" fill="#404254">
  <rect fill="#f2f5e9" fill-opacity="0.5" stroke="#606060" stroke-width=".5" x="0" y="0" width="60" height="60"/>
  <use id="zoomplus" xlink:href="#zoomPlus" x="17" y="9" onmousedown="handleZoom(evt,'in')"/>
  <use id="zoomminus" xlink:href="#zoomMin" x="42" y="9" onmousedown="handleZoom(evt,'out')"/>
  <use id="reset" xlink:href="#resetDef" x="30" y="36" onmousedown="handleReset()"/>
   <use id="arrowup" xlink:href="#arrowUp" x="0" y="0" onmousedown="handlePan(0,-1)"/>
  <use id="arrowright" xlink:href="#arrowRight" x="0" y="0" onmousedown="handlePan(1,0)"/>
  <use id="arrowdown" xlink:href="#arrowDown" x="0" y="0" onmousedown="handlePan(0,1)"/>
  <use id="arrowleft" xlink:href="#arrowLeft" x="0" y="0" onmousedown="handlePan(-1,0)"/>
</g>
<svg viewBox="0 0 15 15" width="100%" height="30px" preserveAspectRatio="xMaxYMin meet">
 <g id="arrow_out" transform="scale(0.3 0.3)">
  <a xlink:href="classsierra_1_1nalu_1_1_hypre_linear_solver_config__coll__graph_org.svg" target="_base">
   <rect id="button" ry="5" rx="5" y="6" x="6" height="38" width="38"
        fill="#f2f5e9" fill-opacity="0.5" stroke="#606060" stroke-width="1.0"/>
   <path id="arrow"
     d="M 11.500037,31.436501 C 11.940474,20.09759 22.043105,11.32322 32.158766,21.979434 L 37.068811,17.246167 C 37.068811,17.246167 37.088388,32 37.088388,32 L 22.160133,31.978069 C 22.160133,31.978069 26.997745,27.140456 26.997745,27.140456 C 18.528582,18.264221 13.291696,25.230495 11.500037,31.436501 z"
     style="fill:#404040;"/>
  </a>
 </g>
</svg>

<style type='text/css'>
<![CDATA[
[data-mouse-over-selected='false'] { opacity: 0.7; }
[data-mouse-over-selected='true']  { opacity: 1.0; }
]]>
</style>
<script type="application/ecmascript"><![CDATA[
document.addEventListener('DOMContentLoaded', (event) => {
  highlightEdges();
  highlightAdjacentNodes();
});
]]></script>
</svg>
