<?xml version="1.0" encoding="UTF-8" standalone="no"?>
<!DOCTYPE svg PUBLIC "-//W3C//DTD SVG 1.1//EN"
 "http://www.w3.org/Graphics/SVG/1.1/DTD/svg11.dtd">
<!-- Generated by graphviz version 2.43.0 (0)
 -->
<!-- Title: sierra::nalu::MomentumSymmetryEdgeKernel&lt; BcAlgTraits &gt; Pages: 1 -->
<svg width="341pt" height="253pt"
 viewBox="0.00 0.00 341.00 253.00" xmlns="http://www.w3.org/2000/svg" xmlns:xlink="http://www.w3.org/1999/xlink">
<g id="graph0" class="graph" transform="scale(1 1) rotate(0) translate(4 249)">
<title>sierra::nalu::MomentumSymmetryEdgeKernel&lt; BcAlgTraits &gt;</title>
<polygon fill="white" stroke="transparent" points="-4,4 -4,-249 337,-249 337,4 -4,4"/>
<!-- Node1 -->
<g id="node1" class="node">
<title>Node1</title>
<g id="a_node1"><a xlink:title=" ">
<polygon fill="#bfbfbf" stroke="black" points="2.5,-0.5 2.5,-30.5 187.5,-30.5 187.5,-0.5 2.5,-0.5"/>
<text text-anchor="start" x="10.5" y="-18.5" font-family="Helvetica,sans-Serif" font-size="10.00">sierra::nalu::MomentumSymmetry</text>
<text text-anchor="middle" x="95" y="-7.5" font-family="Helvetica,sans-Serif" font-size="10.00">EdgeKernel&lt; BcAlgTraits &gt;</text>
</a>
</g>
</g>
<!-- Node2 -->
<g id="node2" class="node">
<title>Node2</title>
<g id="a_node2"><a xlink:href="classsierra_1_1nalu_1_1_n_g_p_kernel.html" target="_top" xlink:title=" ">
<polygon fill="white" stroke="black" points="0,-68.5 0,-109.5 190,-109.5 190,-68.5 0,-68.5"/>
<text text-anchor="start" x="8" y="-97.5" font-family="Helvetica,sans-Serif" font-size="10.00">sierra::nalu::NGPKernel</text>
<text text-anchor="start" x="8" y="-86.5" font-family="Helvetica,sans-Serif" font-size="10.00">&lt; MomentumSymmetryEdgeKernel</text>
<text text-anchor="middle" x="95" y="-75.5" font-family="Helvetica,sans-Serif" font-size="10.00">&lt; BcAlgTraits &gt; &gt;</text>
</a>
</g>
</g>
<!-- Node2&#45;&gt;Node1 -->
<g id="edge1" class="edge">
<title>Node2&#45;&gt;Node1</title>
<path fill="none" stroke="midnightblue" d="M95,-58.16C95,-48.69 95,-38.65 95,-30.8"/>
<polygon fill="midnightblue" stroke="midnightblue" points="91.5,-58.46 95,-68.46 98.5,-58.46 91.5,-58.46"/>
</g>
<!-- Node3 -->
<g id="node3" class="node">
<title>Node3</title>
<g id="a_node3"><a xlink:href="classsierra_1_1nalu_1_1_kernel.html" target="_top" xlink:title="Base class for computational kernels in Nalu.">
<polygon fill="white" stroke="black" points="37,-225.5 37,-244.5 145,-244.5 145,-225.5 37,-225.5"/>
<text text-anchor="middle" x="91" y="-232.5" font-family="Helvetica,sans-Serif" font-size="10.00">sierra::nalu::Kernel</text>
</a>
</g>
</g>
<!-- Node3&#45;&gt;Node2 -->
<g id="edge2" class="edge">
<title>Node3&#45;&gt;Node2</title>
<path fill="none" stroke="midnightblue" d="M91.52,-215.26C92.28,-187.92 93.69,-137.32 94.46,-109.53"/>
<polygon fill="midnightblue" stroke="midnightblue" points="88.02,-215.33 91.24,-225.42 95.01,-215.52 88.02,-215.33"/>
</g>
<!-- Node4 -->
<g id="node4" class="node">
<title>Node4</title>
<g id="a_node4"><a xlink:href="classsierra_1_1nalu_1_1_n_g_p_kernel.html" target="_top" xlink:title="Kernel that can be transferred to a device.">
<polygon fill="white" stroke="black" points="107,-168.5 107,-187.5 265,-187.5 265,-168.5 107,-168.5"/>
<text text-anchor="middle" x="186" y="-175.5" font-family="Helvetica,sans-Serif" font-size="10.00">sierra::nalu::NGPKernel&lt; T &gt;</text>
</a>
</g>
</g>
<!-- Node3&#45;&gt;Node4 -->
<g id="edge4" class="edge">
<title>Node3&#45;&gt;Node4</title>
<path fill="none" stroke="midnightblue" d="M114.5,-220.39C132.26,-210.11 156.1,-196.31 171.26,-187.53"/>
<polygon fill="midnightblue" stroke="midnightblue" points="112.74,-217.37 105.84,-225.41 116.25,-223.42 112.74,-217.37"/>
</g>
<!-- Node4&#45;&gt;Node2 -->
<g id="edge3" class="edge">
<title>Node4&#45;&gt;Node2</title>
<path fill="none" stroke="orange" stroke-dasharray="5,2" d="M169.37,-161.1C154.23,-146.63 131.84,-125.22 115.59,-109.68"/>
<polygon fill="orange" stroke="orange" points="167.3,-163.96 176.94,-168.34 172.13,-158.9 167.3,-163.96"/>
<text text-anchor="start" x="156" y="-142" font-family="Helvetica,sans-Serif" font-size="10.00"> &lt; MomentumSymmetryEdgeKernel</text>
<text text-anchor="middle" x="244.5" y="-131" font-family="Helvetica,sans-Serif" font-size="10.00">&lt; BcAlgTraits &gt; &gt;</text>
</g>
</g>
</svg>
