<?xml version="1.0" encoding="UTF-8" standalone="no"?>
<!DOCTYPE svg PUBLIC "-//W3C//DTD SVG 1.1//EN"
 "http://www.w3.org/Graphics/SVG/1.1/DTD/svg11.dtd">
<!-- Generated by graphviz version 2.43.0 (0)
 -->
<!-- Title: sierra::nalu::MotionRotationKernel Pages: 1 -->
<svg width="967pt" height="118pt"
 viewBox="0.00 0.00 967.00 117.50" xmlns="http://www.w3.org/2000/svg" xmlns:xlink="http://www.w3.org/1999/xlink">
<g id="graph0" class="graph" transform="scale(1 1) rotate(0) translate(4 113.5)">
<title>sierra::nalu::MotionRotationKernel</title>
<!-- Node1 -->
<g id="Node000001" class="node">
<title>Node1</title>
<g id="a_Node000001"><a xlink:title=" ">
<polygon fill="#999999" stroke="#666666" points="403,-102.5 251,-102.5 251,-72.5 403,-72.5 403,-102.5"/>
<text text-anchor="start" x="259" y="-90.5" font-family="Helvetica,sans-Serif" font-size="10.00">sierra::nalu::MotionRotation</text>
<text text-anchor="middle" x="327" y="-79.5" font-family="Helvetica,sans-Serif" font-size="10.00">Kernel</text>
</a>
</g>
</g>
<!-- Node2 -->
<g id="Node000002" class="node">
<title>Node2</title>
<g id="a_Node000002"><a xlink:href="classsierra_1_1nalu_1_1_ngp_motion_kernel.html" target="_top" xlink:title=" ">
<polygon fill="white" stroke="#666666" points="959,-81.5 798,-81.5 798,-51.5 959,-51.5 959,-81.5"/>
<text text-anchor="start" x="806" y="-69.5" font-family="Helvetica,sans-Serif" font-size="10.00">sierra::nalu::NgpMotionKernel</text>
<text text-anchor="middle" x="878.5" y="-58.5" font-family="Helvetica,sans-Serif" font-size="10.00">&lt; MotionRotationKernel &gt;</text>
</a>
</g>
</g>
<!-- Node1&#45;&gt;Node2 -->
<g id="edge4_Node000002_Node000001" class="edge">
<title>Node1&#45;&gt;Node2</title>
<g id="a_edge4_Node000002_Node000001"><a xlink:title=" ">
<path fill="none" stroke="#9a32cd" stroke-dasharray="5,2" d="M413.22,-97.44C416.18,-97.5 419.12,-97.53 422,-97.5 581.18,-95.97 622.05,-106.26 780,-86.5 790.2,-85.22 800.93,-83.46 811.38,-81.5"/>
<polygon fill="#9a32cd" stroke="#9a32cd" points="413.22,-93.93 403.09,-97.05 412.95,-100.93 413.22,-93.93"/>
</a>
</g>
<text text-anchor="middle" x="535" y="-101.5" font-family="Helvetica,sans-Serif" font-size="10.00" fill="grey"> deviceCopy_</text>
</g>
<!-- Node2&#45;&gt;Node1 -->
<g id="edge1_Node000001_Node000002" class="edge">
<title>Node2&#45;&gt;Node1</title>
<g id="a_edge1_Node000001_Node000002"><a xlink:title=" ">
<path fill="none" stroke="#63b8ff" d="M787.68,-69.93C680.57,-74.03 503.48,-80.79 403.25,-84.62"/>
<polygon fill="#63b8ff" stroke="#63b8ff" points="787.96,-73.42 797.82,-69.55 787.69,-66.43 787.96,-73.42"/>
</a>
</g>
</g>
<!-- Node3 -->
<g id="Node000003" class="node">
<title>Node3</title>
<g id="a_Node000003"><a xlink:href="classsierra_1_1nalu_1_1_ngp_motion.html" target="_top" xlink:title=" ">
<polygon fill="white" stroke="#666666" points="392.5,-54 261.5,-54 261.5,-35 392.5,-35 392.5,-54"/>
<text text-anchor="middle" x="327" y="-42" font-family="Helvetica,sans-Serif" font-size="10.00">sierra::nalu::NgpMotion</text>
</a>
</g>
</g>
<!-- Node3&#45;&gt;Node2 -->
<g id="edge2_Node000002_Node000003" class="edge">
<title>Node3&#45;&gt;Node2</title>
<g id="a_edge2_Node000002_Node000003"><a xlink:title=" ">
<path fill="none" stroke="#63b8ff" d="M402.69,-47.49C505.96,-51.62 691.58,-59.06 797.56,-63.3"/>
<polygon fill="#63b8ff" stroke="#63b8ff" points="402.78,-43.99 392.65,-47.09 402.5,-50.99 402.78,-43.99"/>
</a>
</g>
</g>
<!-- Node5 -->
<g id="Node000005" class="node">
<title>Node5</title>
<g id="a_Node000005"><a xlink:href="classsierra_1_1nalu_1_1_ngp_motion_kernel.html" target="_top" xlink:title=" ">
<polygon fill="white" stroke="#666666" points="630,-19 440,-19 440,0 630,0 630,-19"/>
<text text-anchor="middle" x="535" y="-7" font-family="Helvetica,sans-Serif" font-size="10.00">sierra::nalu::NgpMotionKernel&lt; T &gt;</text>
</a>
</g>
</g>
<!-- Node3&#45;&gt;Node5 -->
<g id="edge6_Node000005_Node000003" class="edge">
<title>Node3&#45;&gt;Node5</title>
<g id="a_edge6_Node000005_Node000003"><a xlink:title=" ">
<path fill="none" stroke="#63b8ff" d="M394.17,-33.26C421.19,-28.67 452.11,-23.41 477.99,-19.02"/>
<polygon fill="#63b8ff" stroke="#63b8ff" points="393.29,-29.86 384.02,-34.98 394.46,-36.76 393.29,-29.86"/>
</a>
</g>
</g>
<!-- Node4 -->
<g id="Node000004" class="node">
<title>Node4</title>
<g id="a_Node000004"><a xlink:href="structsierra_1_1nalu_1_1mm_1_1_three_d_vec_type.html" target="_top" xlink:title=" ">
<polygon fill="white" stroke="#666666" points="178,-75 0,-75 0,-56 178,-56 178,-75"/>
<text text-anchor="middle" x="89" y="-63" font-family="Helvetica,sans-Serif" font-size="10.00">sierra::nalu::mm::ThreeDVecType</text>
</a>
</g>
</g>
<!-- Node4&#45;&gt;Node1 -->
<g id="edge7_Node000001_Node000004" class="edge">
<title>Node4&#45;&gt;Node1</title>
<g id="a_edge7_Node000001_Node000004"><a xlink:title=" ">
<path fill="none" stroke="#9a32cd" stroke-dasharray="5,2" d="M188.36,-74.67C209.18,-76.61 230.84,-78.63 250.66,-80.48"/>
<polygon fill="#9a32cd" stroke="#9a32cd" points="188.5,-71.17 178.21,-73.72 187.85,-78.14 188.5,-71.17"/>
</a>
</g>
<text text-anchor="middle" x="214.5" y="-80.5" font-family="Helvetica,sans-Serif" font-size="10.00" fill="grey"> axis_</text>
</g>
<!-- Node4&#45;&gt;Node3 -->
<g id="edge3_Node000003_Node000004" class="edge">
<title>Node4&#45;&gt;Node3</title>
<g id="a_edge3_Node000003_Node000004"><a xlink:title=" ">
<path fill="none" stroke="#9a32cd" stroke-dasharray="5,2" d="M166.06,-54.73C176.11,-53.52 186.3,-52.4 196,-51.5 217.27,-49.53 240.55,-48.06 261.46,-46.99"/>
<polygon fill="#9a32cd" stroke="#9a32cd" points="165.56,-51.27 156.07,-55.97 166.42,-58.21 165.56,-51.27"/>
</a>
</g>
<text text-anchor="middle" x="214.5" y="-54.5" font-family="Helvetica,sans-Serif" font-size="10.00" fill="grey"> origin_</text>
</g>
<!-- Node5&#45;&gt;Node2 -->
<g id="edge5_Node000002_Node000005" class="edge">
<title>Node5&#45;&gt;Node2</title>
<g id="a_edge5_Node000002_Node000005"><a xlink:title=" ">
<path fill="none" stroke="orange" stroke-dasharray="5,2" d="M640.23,-6.62C683.94,-7.58 734.97,-11.55 780,-22.5 805.26,-28.64 832.05,-41.23 851.15,-51.37"/>
<polygon fill="orange" stroke="orange" points="640.22,-3.12 630.16,-6.45 640.1,-10.12 640.22,-3.12"/>
</a>
</g>
<text text-anchor="middle" x="714" y="-25.5" font-family="Helvetica,sans-Serif" font-size="10.00" fill="grey"> &lt; MotionRotationKernel &gt;</text>
</g>
</g>
</svg>
