<?xml version="1.0" encoding="UTF-8" standalone="no"?>
<!DOCTYPE svg PUBLIC "-//W3C//DTD SVG 1.1//EN"
 "http://www.w3.org/Graphics/SVG/1.1/DTD/svg11.dtd">
<!-- Generated by graphviz version 2.43.0 (0)
 -->
<!-- Title: sierra::nalu::ScalarEdgeOpenSolverAlg&lt; BcAlgTraits &gt; Pages: 1 -->
<svg width="883pt" height="88pt"
 viewBox="0.00 0.00 883.00 88.00" xmlns="http://www.w3.org/2000/svg" xmlns:xlink="http://www.w3.org/1999/xlink">
<g id="graph0" class="graph" transform="scale(1 1) rotate(0) translate(4 84)">
<title>sierra::nalu::ScalarEdgeOpenSolverAlg&lt; BcAlgTraits &gt;</title>
<polygon fill="white" stroke="transparent" points="-4,4 -4,-84 879,-84 879,4 -4,4"/>
<!-- Node1 -->
<g id="node1" class="node">
<title>Node1</title>
<g id="a_node1"><a xlink:title=" ">
<polygon fill="#bfbfbf" stroke="black" points="710,-13 710,-43 875,-43 875,-13 710,-13"/>
<text text-anchor="start" x="718" y="-31" font-family="Helvetica,sans-Serif" font-size="10.00">sierra::nalu::ScalarEdge</text>
<text text-anchor="middle" x="792.5" y="-20" font-family="Helvetica,sans-Serif" font-size="10.00">OpenSolverAlg&lt; BcAlgTraits &gt;</text>
</a>
</g>
</g>
<!-- Node2 -->
<g id="node2" class="node">
<title>Node2</title>
<g id="a_node2"><a xlink:href="classsierra_1_1nalu_1_1_n_g_p_kernel.html" target="_top" xlink:title=" ">
<polygon fill="white" stroke="black" points="480,-38.5 480,-79.5 634,-79.5 634,-38.5 480,-38.5"/>
<text text-anchor="start" x="488" y="-67.5" font-family="Helvetica,sans-Serif" font-size="10.00">sierra::nalu::NGPKernel</text>
<text text-anchor="start" x="488" y="-56.5" font-family="Helvetica,sans-Serif" font-size="10.00">&lt; ScalarEdgeOpenSolverAlg</text>
<text text-anchor="middle" x="557" y="-45.5" font-family="Helvetica,sans-Serif" font-size="10.00">&lt; BcAlgTraits &gt; &gt;</text>
</a>
</g>
</g>
<!-- Node2&#45;&gt;Node1 -->
<g id="edge1" class="edge">
<title>Node2&#45;&gt;Node1</title>
<path fill="none" stroke="midnightblue" d="M644.2,-47.56C665.66,-44.71 688.6,-41.66 709.84,-38.84"/>
<polygon fill="midnightblue" stroke="midnightblue" points="643.59,-44.11 634.13,-48.89 644.51,-51.05 643.59,-44.11"/>
</g>
<!-- Node3 -->
<g id="node3" class="node">
<title>Node3</title>
<g id="a_node3"><a xlink:href="classsierra_1_1nalu_1_1_kernel.html" target="_top" xlink:title="Base class for computational kernels in Nalu.">
<polygon fill="white" stroke="black" points="0,-48.5 0,-67.5 108,-67.5 108,-48.5 0,-48.5"/>
<text text-anchor="middle" x="54" y="-55.5" font-family="Helvetica,sans-Serif" font-size="10.00">sierra::nalu::Kernel</text>
</a>
</g>
</g>
<!-- Node3&#45;&gt;Node2 -->
<g id="edge2" class="edge">
<title>Node3&#45;&gt;Node2</title>
<path fill="none" stroke="midnightblue" d="M118.26,-62.68C120.87,-62.8 123.46,-62.91 126,-63 275.24,-68.25 312.7,-66.18 462,-63 467.8,-62.88 473.79,-62.71 479.82,-62.52"/>
<polygon fill="midnightblue" stroke="midnightblue" points="118.26,-59.18 108.09,-62.15 117.9,-66.17 118.26,-59.18"/>
</g>
<!-- Node4 -->
<g id="node4" class="node">
<title>Node4</title>
<g id="a_node4"><a xlink:href="classsierra_1_1nalu_1_1_n_g_p_kernel.html" target="_top" xlink:title="Kernel that can be transferred to a device.">
<polygon fill="white" stroke="black" points="145,-29.5 145,-48.5 303,-48.5 303,-29.5 145,-29.5"/>
<text text-anchor="middle" x="224" y="-36.5" font-family="Helvetica,sans-Serif" font-size="10.00">sierra::nalu::NGPKernel&lt; T &gt;</text>
</a>
</g>
</g>
<!-- Node3&#45;&gt;Node4 -->
<g id="edge4" class="edge">
<title>Node3&#45;&gt;Node4</title>
<path fill="none" stroke="midnightblue" d="M118.16,-50.86C126.83,-49.88 135.82,-48.86 144.72,-47.85"/>
<polygon fill="midnightblue" stroke="midnightblue" points="117.7,-47.39 108.16,-51.99 118.49,-54.34 117.7,-47.39"/>
</g>
<!-- Node4&#45;&gt;Node2 -->
<g id="edge3" class="edge">
<title>Node4&#45;&gt;Node2</title>
<path fill="none" stroke="orange" stroke-dasharray="5,2" d="M313.35,-35.96C358.01,-35.39 413,-36.14 462,-41 467.87,-41.58 473.92,-42.35 479.99,-43.24"/>
<polygon fill="orange" stroke="orange" points="313.06,-32.47 303.11,-36.12 313.16,-39.47 313.06,-32.47"/>
<text text-anchor="start" x="321" y="-55" font-family="Helvetica,sans-Serif" font-size="10.00"> &lt; ScalarEdgeOpenSolverAlg</text>
<text text-anchor="middle" x="391.5" y="-44" font-family="Helvetica,sans-Serif" font-size="10.00">&lt; BcAlgTraits &gt; &gt;</text>
</g>
<!-- Node5 -->
<g id="node5" class="node">
<title>Node5</title>
<g id="a_node5"><a xlink:href="classsierra_1_1nalu_1_1_master_element.html" target="_top" xlink:title=" ">
<polygon fill="white" stroke="black" points="481,-0.5 481,-19.5 633,-19.5 633,-0.5 481,-0.5"/>
<text text-anchor="middle" x="557" y="-7.5" font-family="Helvetica,sans-Serif" font-size="10.00">sierra::nalu::MasterElement</text>
</a>
</g>
</g>
<!-- Node5&#45;&gt;Node1 -->
<g id="edge5" class="edge">
<title>Node5&#45;&gt;Node1</title>
<path fill="none" stroke="#9a32cd" stroke-dasharray="5,2" d="M643.18,-13.71C659.4,-14.62 676.23,-15.72 692,-17 697.8,-17.47 703.79,-18.01 709.82,-18.59"/>
<polygon fill="#9a32cd" stroke="#9a32cd" points="643.35,-10.21 633.17,-13.16 642.97,-17.2 643.35,-10.21"/>
<text text-anchor="middle" x="672" y="-31" font-family="Helvetica,sans-Serif" font-size="10.00"> meFC_</text>
<text text-anchor="middle" x="672" y="-20" font-family="Helvetica,sans-Serif" font-size="10.00">meSCS_</text>
</g>
</g>
</svg>
