<?xml version="1.0" encoding="UTF-8" standalone="no"?>
<!DOCTYPE svg PUBLIC "-//W3C//DTD SVG 1.1//EN"
 "http://www.w3.org/Graphics/SVG/1.1/DTD/svg11.dtd">
<!-- Generated by graphviz version 2.43.0 (0)
 -->
<!-- Title: sierra::nalu::MomentumSSTAMSForcingNodeKernel Pages: 1 -->
<svg width="484pt" height="182pt"
 viewBox="0.00 0.00 484.00 182.00" xmlns="http://www.w3.org/2000/svg" xmlns:xlink="http://www.w3.org/1999/xlink">

<svg id="main" version="1.1" xmlns="http://www.w3.org/2000/svg" xmlns:xlink="http://www.w3.org/1999/xlink" xml:space="preserve" onload="init(evt)">
<style type="text/css"><![CDATA[
.node, .edge {opacity: 0.7;}
.node.selected, .edge.selected {opacity: 1;}
.edge:hover path { stroke: red; }
.edge:hover polygon { stroke: red; fill: red; }
]]></style>
<script type="application/ecmascript" xlink:href="svg.min.js"/>
<svg id="graph" class="graph">
<g id="graph0" class="graph" transform="scale(1 1) rotate(0) translate(4 178)">
<title>sierra::nalu::MomentumSSTAMSForcingNodeKernel</title>
<!-- Node1 -->
<g id="Node000001" class="node">
<title>Node1</title>
<g id="a_Node000001"><a xlink:title=" ">
<polygon fill="#999999" stroke="#666666" points="208,-118 0,-118 0,-88 208,-88 208,-118"/>
<text text-anchor="start" x="8" y="-106" font-family="Helvetica,sans-Serif" font-size="10.00">sierra::nalu::MomentumSSTAMSForcing</text>
<text text-anchor="middle" x="104" y="-95" font-family="Helvetica,sans-Serif" font-size="10.00">NodeKernel</text>
</a>
</g>
</g>
<!-- Node2 -->
<g id="Node000002" class="node">
<title>Node2</title>
<g id="a_Node000002"><a xlink:href="classsierra_1_1nalu_1_1_n_g_p_node_kernel.html" target="_top" xlink:title=" ">
<polygon fill="white" stroke="#666666" points="333,-30 107,-30 107,0 333,0 333,-30"/>
<text text-anchor="start" x="115" y="-18" font-family="Helvetica,sans-Serif" font-size="10.00">sierra::nalu::NGPNodeKernel</text>
<text text-anchor="middle" x="220" y="-7" font-family="Helvetica,sans-Serif" font-size="10.00">&lt; MomentumSSTAMSForcingNodeKernel &gt;</text>
</a>
</g>
</g>
<!-- Node1&#45;&gt;Node2 -->
<g id="edge3_Node000002_Node000001" class="edge">
<title>Node1&#45;&gt;Node2</title>
<g id="a_edge3_Node000002_Node000001"><a xlink:title=" ">
<path fill="none" stroke="#9a32cd" stroke-dasharray="5,2" d="M101.62,-77.83C101.89,-67.56 104.07,-56.11 111,-48 117.47,-40.43 125.63,-34.6 134.56,-30.12"/>
<polygon fill="#9a32cd" stroke="#9a32cd" points="98.12,-78.02 101.91,-87.91 105.12,-77.82 98.12,-78.02"/>
</a>
</g>
<text text-anchor="middle" x="144" y="-56.5" font-family="Helvetica,sans-Serif" font-size="10.00" fill="grey"> deviceCopy_</text>
</g>
<!-- Node2&#45;&gt;Node1 -->
<g id="edge1_Node000001_Node000002" class="edge">
<title>Node2&#45;&gt;Node1</title>
<g id="a_edge1_Node000001_Node000002"><a xlink:title=" ">
<path fill="none" stroke="#63b8ff" d="M207.47,-38.89C200.75,-49.49 191.66,-61.56 181,-70 171.69,-77.37 160.45,-83.3 149.46,-87.96"/>
<polygon fill="#63b8ff" stroke="#63b8ff" points="210.61,-40.47 212.74,-30.09 204.6,-36.87 210.61,-40.47"/>
</a>
</g>
</g>
<!-- Node3 -->
<g id="Node000003" class="node">
<title>Node3</title>
<g id="a_Node000003"><a xlink:href="classsierra_1_1nalu_1_1_node_kernel.html" target="_top" xlink:title=" ">
<polygon fill="white" stroke="#666666" points="315,-174 181,-174 181,-155 315,-155 315,-174"/>
<text text-anchor="middle" x="248" y="-162" font-family="Helvetica,sans-Serif" font-size="10.00">sierra::nalu::NodeKernel</text>
</a>
</g>
</g>
<!-- Node3&#45;&gt;Node2 -->
<g id="edge2_Node000002_Node000003" class="edge">
<title>Node3&#45;&gt;Node2</title>
<g id="a_edge2_Node000002_Node000003"><a xlink:title=" ">
<path fill="none" stroke="#63b8ff" d="M244.44,-144.76C238.77,-114.9 227.82,-57.18 222.72,-30.35"/>
<polygon fill="#63b8ff" stroke="#63b8ff" points="241.03,-145.54 246.33,-154.71 247.91,-144.24 241.03,-145.54"/>
</a>
</g>
</g>
<!-- Node4 -->
<g id="Node000004" class="node">
<title>Node4</title>
<g id="a_Node000004"><a xlink:href="classsierra_1_1nalu_1_1_n_g_p_node_kernel.html" target="_top" xlink:title=" ">
<polygon fill="white" stroke="#666666" points="447.5,-112.5 264.5,-112.5 264.5,-93.5 447.5,-93.5 447.5,-112.5"/>
<text text-anchor="middle" x="356" y="-100.5" font-family="Helvetica,sans-Serif" font-size="10.00">sierra::nalu::NGPNodeKernel&lt; T &gt;</text>
</a>
</g>
</g>
<!-- Node3&#45;&gt;Node4 -->
<g id="edge5_Node000004_Node000003" class="edge">
<title>Node3&#45;&gt;Node4</title>
<g id="a_edge5_Node000004_Node000003"><a xlink:title=" ">
<path fill="none" stroke="#63b8ff" d="M272.4,-150.06C293.3,-138.54 322.76,-122.31 340.55,-112.51"/>
<polygon fill="#63b8ff" stroke="#63b8ff" points="270.54,-147.08 263.47,-154.98 273.92,-153.22 270.54,-147.08"/>
</a>
</g>
</g>
<!-- Node4&#45;&gt;Node2 -->
<g id="edge4_Node000002_Node000004" class="edge">
<title>Node4&#45;&gt;Node2</title>
<g id="a_edge4_Node000002_Node000004"><a xlink:title=" ">
<path fill="none" stroke="orange" stroke-dasharray="5,2" d="M333.96,-88.06C308.78,-72.14 267.8,-46.22 242.45,-30.2"/>
<polygon fill="orange" stroke="orange" points="332.14,-91.05 342.46,-93.44 335.88,-85.14 332.14,-91.05"/>
</a>
</g>
<text text-anchor="start" x="305" y="-62" font-family="Helvetica,sans-Serif" font-size="10.00" fill="grey"> &lt; MomentumSSTAMSForcingNode</text>
<text text-anchor="middle" x="390.5" y="-51" font-family="Helvetica,sans-Serif" font-size="10.00" fill="grey">Kernel &gt;</text>
</g>
</g>
</svg>
</svg>

<style type='text/css'>
<![CDATA[
[data-mouse-over-selected='false'] { opacity: 0.7; }
[data-mouse-over-selected='true']  { opacity: 1.0; }
]]>
</style>
<script type="application/ecmascript"><![CDATA[
document.addEventListener('DOMContentLoaded', (event) => {
  highlightEdges();
  highlightAdjacentNodes();
});
]]></script>
</svg>
