<?xml version="1.0" encoding="UTF-8" standalone="no"?>
<!DOCTYPE svg PUBLIC "-//W3C//DTD SVG 1.1//EN"
 "http://www.w3.org/Graphics/SVG/1.1/DTD/svg11.dtd">
<!-- Generated by graphviz version 2.43.0 (0)
 -->
<!-- Title: sierra::nalu::BSpline3D Pages: 1 -->
<svg width="1650pt" height="278pt"
 viewBox="0.00 0.00 1650.00 278.48" xmlns="http://www.w3.org/2000/svg" xmlns:xlink="http://www.w3.org/1999/xlink">
<g id="graph0" class="graph" transform="scale(1 1) rotate(0) translate(4 274.48)">
<title>sierra::nalu::BSpline3D</title>
<polygon fill="white" stroke="transparent" points="-4,4 -4,-274.48 1646,-274.48 1646,4 -4,4"/>
<!-- Node1 -->
<g id="node1" class="node">
<title>Node1</title>
<g id="a_node1"><a xlink:title=" ">
<polygon fill="#bfbfbf" stroke="black" points="1514,-184.98 1514,-203.98 1642,-203.98 1642,-184.98 1514,-184.98"/>
<text text-anchor="middle" x="1578" y="-191.98" font-family="Helvetica,sans-Serif" font-size="10.00">sierra::nalu::BSpline3D</text>
</a>
</g>
</g>
<!-- Node2 -->
<g id="node2" class="node">
<title>Node2</title>
<g id="a_node2"><a xlink:href="classsierra_1_1nalu_1_1_b_spline.html" target="_top" xlink:title="Base class for B&#45;Splines.">
<polygon fill="white" stroke="black" points="311,-222.98 311,-241.98 425,-241.98 425,-222.98 311,-222.98"/>
<text text-anchor="middle" x="368" y="-229.98" font-family="Helvetica,sans-Serif" font-size="10.00">sierra::nalu::BSpline</text>
</a>
</g>
</g>
<!-- Node2&#45;&gt;Node1 -->
<g id="edge1" class="edge">
<title>Node2&#45;&gt;Node1</title>
<path fill="none" stroke="midnightblue" d="M419.06,-244.24C470.99,-255.4 554.72,-270.48 628,-270.48 628,-270.48 628,-270.48 1372,-270.48 1447.54,-270.48 1529.51,-224.55 1562.27,-204.1"/>
<polygon fill="midnightblue" stroke="midnightblue" points="419.63,-240.78 409.11,-242.07 418.13,-247.62 419.63,-240.78"/>
</g>
<!-- Node3 -->
<g id="node3" class="node">
<title>Node3</title>
<g id="a_node3"><a xlink:href="classsierra_1_1nalu_1_1_b_spline1_d.html" target="_top" xlink:title="Support for B&#45;Spline of a curve.">
<polygon fill="white" stroke="black" points="565,-145.98 565,-164.98 693,-164.98 693,-145.98 565,-145.98"/>
<text text-anchor="middle" x="629" y="-152.98" font-family="Helvetica,sans-Serif" font-size="10.00">sierra::nalu::BSpline1D</text>
</a>
</g>
</g>
<!-- Node2&#45;&gt;Node3 -->
<g id="edge3" class="edge">
<title>Node2&#45;&gt;Node3</title>
<path fill="none" stroke="midnightblue" d="M410.84,-220.04C462.4,-204.71 548.89,-179 595.65,-165.1"/>
<polygon fill="midnightblue" stroke="midnightblue" points="409.61,-216.75 401.02,-222.96 411.6,-223.46 409.61,-216.75"/>
</g>
<!-- Node8 -->
<g id="node8" class="node">
<title>Node8</title>
<g id="a_node8"><a xlink:href="classsierra_1_1nalu_1_1_b_spline2_d.html" target="_top" xlink:title=" ">
<polygon fill="white" stroke="black" points="1083,-138.98 1083,-157.98 1211,-157.98 1211,-138.98 1083,-138.98"/>
<text text-anchor="middle" x="1147" y="-145.98" font-family="Helvetica,sans-Serif" font-size="10.00">sierra::nalu::BSpline2D</text>
</a>
</g>
</g>
<!-- Node2&#45;&gt;Node8 -->
<g id="edge9" class="edge">
<title>Node2&#45;&gt;Node8</title>
<path fill="none" stroke="midnightblue" d="M435.41,-231.27C521.9,-229.15 677.67,-223.44 810,-208.48 924.28,-195.55 951.91,-185.4 1065,-164.48 1075.85,-162.47 1087.51,-160.22 1098.49,-158.06"/>
<polygon fill="midnightblue" stroke="midnightblue" points="435.13,-227.78 425.21,-231.51 435.29,-234.78 435.13,-227.78"/>
</g>
<!-- Node3&#45;&gt;Node1 -->
<g id="edge2" class="edge">
<title>Node3&#45;&gt;Node1</title>
<path fill="none" stroke="#9a32cd" stroke-dasharray="5,2" d="M680.83,-167.18C735.24,-178.67 824.24,-194.48 902,-194.48 902,-194.48 902,-194.48 1372,-194.48 1419.51,-194.48 1473.22,-194.48 1513.74,-194.48"/>
<polygon fill="#9a32cd" stroke="#9a32cd" points="681.26,-163.69 670.75,-165.02 679.79,-170.54 681.26,-163.69"/>
<text text-anchor="middle" x="1147" y="-197.48" font-family="Helvetica,sans-Serif" font-size="10.00"> sp1_</text>
</g>
<!-- Node3&#45;&gt;Node8 -->
<g id="edge10" class="edge">
<title>Node3&#45;&gt;Node8</title>
<path fill="none" stroke="#9a32cd" stroke-dasharray="5,2" d="M703.19,-154.49C804.83,-153.11 987.01,-150.64 1082.95,-149.33"/>
<polygon fill="#9a32cd" stroke="#9a32cd" points="702.97,-150.99 693.01,-154.62 703.06,-157.99 702.97,-150.99"/>
<text text-anchor="middle" x="903" y="-156.48" font-family="Helvetica,sans-Serif" font-size="10.00"> sp1_</text>
</g>
<!-- Node9 -->
<g id="node9" class="node">
<title>Node9</title>
<g id="a_node9"><a xlink:title=" ">
<polygon fill="white" stroke="#bfbfbf" points="828,-88.48 828,-118.48 978,-118.48 978,-88.48 828,-88.48"/>
<text text-anchor="start" x="836" y="-106.48" font-family="Helvetica,sans-Serif" font-size="10.00">std::vector&lt; const</text>
<text text-anchor="middle" x="903" y="-95.48" font-family="Helvetica,sans-Serif" font-size="10.00"> sierra::nalu::BSpline1D * &gt;</text>
</a>
</g>
</g>
<!-- Node3&#45;&gt;Node9 -->
<g id="edge12" class="edge">
<title>Node3&#45;&gt;Node9</title>
<path fill="none" stroke="#9a32cd" stroke-dasharray="5,2" d="M666.69,-142.8C680.45,-138.4 696.32,-133.76 711,-130.48 749.08,-121.97 792.05,-115.61 827.58,-111.21"/>
<polygon fill="#9a32cd" stroke="#9a32cd" points="665.5,-139.51 657.08,-145.94 667.67,-146.16 665.5,-139.51"/>
<text text-anchor="middle" x="760.5" y="-133.48" font-family="Helvetica,sans-Serif" font-size="10.00"> elements</text>
</g>
<!-- Node4 -->
<g id="node4" class="node">
<title>Node4</title>
<g id="a_node4"><a xlink:title=" ">
<polygon fill="white" stroke="#bfbfbf" points="306,-108.98 306,-127.98 430,-127.98 430,-108.98 306,-108.98"/>
<text text-anchor="middle" x="368" y="-115.98" font-family="Helvetica,sans-Serif" font-size="10.00">std::vector&lt; double &gt;</text>
</a>
</g>
</g>
<!-- Node4&#45;&gt;Node3 -->
<g id="edge4" class="edge">
<title>Node4&#45;&gt;Node3</title>
<path fill="none" stroke="#9a32cd" stroke-dasharray="5,2" d="M440.27,-128.66C479.21,-134.22 527.02,-141.05 564.65,-146.43"/>
<polygon fill="#9a32cd" stroke="#9a32cd" points="440.45,-125.15 430.05,-127.2 439.46,-132.08 440.45,-125.15"/>
<text text-anchor="middle" x="497.5" y="-169.48" font-family="Helvetica,sans-Serif" font-size="10.00"> basisFun_</text>
<text text-anchor="middle" x="497.5" y="-158.48" font-family="Helvetica,sans-Serif" font-size="10.00">controlPts_</text>
<text text-anchor="middle" x="497.5" y="-147.48" font-family="Helvetica,sans-Serif" font-size="10.00">knots_</text>
</g>
<!-- Node5 -->
<g id="node5" class="node">
<title>Node5</title>
<g id="a_node5"><a xlink:title=" ">
<polygon fill="white" stroke="#bfbfbf" points="114,-49.98 114,-68.98 211,-68.98 211,-49.98 114,-49.98"/>
<text text-anchor="middle" x="162.5" y="-56.98" font-family="Helvetica,sans-Serif" font-size="10.00">std::vector&lt; T &gt;</text>
</a>
</g>
</g>
<!-- Node5&#45;&gt;Node4 -->
<g id="edge5" class="edge">
<title>Node5&#45;&gt;Node4</title>
<path fill="none" stroke="orange" stroke-dasharray="5,2" d="M206.44,-71.93C244.58,-82.99 299.5,-98.91 334.2,-108.97"/>
<polygon fill="orange" stroke="orange" points="207.23,-68.51 196.65,-69.09 205.28,-75.24 207.23,-68.51"/>
<text text-anchor="middle" x="258.5" y="-97.48" font-family="Helvetica,sans-Serif" font-size="10.00"> &lt; double &gt;</text>
</g>
<!-- Node7 -->
<g id="node7" class="node">
<title>Node7</title>
<g id="a_node7"><a xlink:title=" ">
<polygon fill="white" stroke="#bfbfbf" points="1296,-133.48 1296,-163.48 1446,-163.48 1446,-133.48 1296,-133.48"/>
<text text-anchor="start" x="1304" y="-151.48" font-family="Helvetica,sans-Serif" font-size="10.00">std::vector&lt; const</text>
<text text-anchor="middle" x="1371" y="-140.48" font-family="Helvetica,sans-Serif" font-size="10.00"> sierra::nalu::BSpline2D * &gt;</text>
</a>
</g>
</g>
<!-- Node5&#45;&gt;Node7 -->
<g id="edge14" class="edge">
<title>Node5&#45;&gt;Node7</title>
<path fill="none" stroke="orange" stroke-dasharray="5,2" d="M221.21,-59.48C261.95,-59.48 317.82,-59.48 367,-59.48 367,-59.48 367,-59.48 1148,-59.48 1226.48,-59.48 1310.08,-107.99 1348.47,-133.38"/>
<polygon fill="orange" stroke="orange" points="221.2,-55.98 211.2,-59.48 221.2,-62.98 221.2,-55.98"/>
<text text-anchor="start" x="711" y="-73.48" font-family="Helvetica,sans-Serif" font-size="10.00"> &lt; const sierra::nalu</text>
<text text-anchor="middle" x="760.5" y="-62.48" font-family="Helvetica,sans-Serif" font-size="10.00">::BSpline2D * &gt;</text>
</g>
<!-- Node5&#45;&gt;Node9 -->
<g id="edge13" class="edge">
<title>Node5&#45;&gt;Node9</title>
<path fill="none" stroke="orange" stroke-dasharray="5,2" d="M207.19,-47.4C313.88,-20.14 594.69,38.14 810,-37.48 840.6,-48.23 869.97,-72.54 886.99,-88.46"/>
<polygon fill="orange" stroke="orange" points="206.22,-44.04 197.42,-49.94 207.98,-50.82 206.22,-44.04"/>
<text text-anchor="start" x="448" y="-19.48" font-family="Helvetica,sans-Serif" font-size="10.00"> &lt; const sierra::nalu</text>
<text text-anchor="middle" x="497.5" y="-8.48" font-family="Helvetica,sans-Serif" font-size="10.00">::BSpline1D * &gt;</text>
</g>
<!-- Node6 -->
<g id="node6" class="node">
<title>Node6</title>
<g id="a_node6"><a xlink:title=" ">
<polygon fill="white" stroke="#bfbfbf" points="0,-49.98 0,-68.98 29,-68.98 29,-49.98 0,-49.98"/>
<text text-anchor="middle" x="14.5" y="-56.98" font-family="Helvetica,sans-Serif" font-size="10.00">T</text>
</a>
</g>
</g>
<!-- Node6&#45;&gt;Node5 -->
<g id="edge6" class="edge">
<title>Node6&#45;&gt;Node5</title>
<path fill="none" stroke="#9a32cd" stroke-dasharray="5,2" d="M39.39,-59.48C59.54,-59.48 89.02,-59.48 113.96,-59.48"/>
<polygon fill="#9a32cd" stroke="#9a32cd" points="39.24,-55.98 29.24,-59.48 39.24,-62.98 39.24,-55.98"/>
<text text-anchor="middle" x="71.5" y="-62.48" font-family="Helvetica,sans-Serif" font-size="10.00"> elements</text>
</g>
<!-- Node7&#45;&gt;Node1 -->
<g id="edge7" class="edge">
<title>Node7&#45;&gt;Node1</title>
<path fill="none" stroke="#9a32cd" stroke-dasharray="5,2" d="M1456.24,-161.21C1469.6,-163.67 1483.22,-166.44 1496,-169.48 1513.9,-173.74 1533.63,-179.8 1549.14,-184.88"/>
<polygon fill="#9a32cd" stroke="#9a32cd" points="1456.55,-157.71 1446.09,-159.39 1455.31,-164.6 1456.55,-157.71"/>
<text text-anchor="middle" x="1480" y="-172.48" font-family="Helvetica,sans-Serif" font-size="10.00"> sp2d_</text>
</g>
<!-- Node8&#45;&gt;Node7 -->
<g id="edge8" class="edge">
<title>Node8&#45;&gt;Node7</title>
<path fill="none" stroke="#9a32cd" stroke-dasharray="5,2" d="M1221.12,-148.48C1245.1,-148.48 1271.76,-148.48 1295.82,-148.48"/>
<polygon fill="#9a32cd" stroke="#9a32cd" points="1221.02,-144.98 1211.02,-148.48 1221.02,-151.98 1221.02,-144.98"/>
<text text-anchor="middle" x="1253.5" y="-151.48" font-family="Helvetica,sans-Serif" font-size="10.00"> elements</text>
</g>
<!-- Node9&#45;&gt;Node8 -->
<g id="edge11" class="edge">
<title>Node9&#45;&gt;Node8</title>
<path fill="none" stroke="#9a32cd" stroke-dasharray="5,2" d="M988.37,-116.77C1013.11,-120.9 1040.18,-125.64 1065,-130.48 1078.01,-133.01 1092.13,-136.05 1104.88,-138.9"/>
<polygon fill="#9a32cd" stroke="#9a32cd" points="988.73,-113.28 978.29,-115.1 987.58,-120.19 988.73,-113.28"/>
<text text-anchor="middle" x="1030.5" y="-133.48" font-family="Helvetica,sans-Serif" font-size="10.00"> dim2Splines_</text>
</g>
</g>
</svg>
