<?xml version="1.0" encoding="UTF-8" standalone="no"?>
<!DOCTYPE svg PUBLIC "-//W3C//DTD SVG 1.1//EN"
 "http://www.w3.org/Graphics/SVG/1.1/DTD/svg11.dtd">
<!-- Generated by graphviz version 2.43.0 (0)
 -->
<!-- Title: sierra::nalu::MomentumGclSrcNodeKernel Pages: 1 -->
<svg width="329pt" height="231pt"
 viewBox="0.00 0.00 329.00 231.00" xmlns="http://www.w3.org/2000/svg" xmlns:xlink="http://www.w3.org/1999/xlink">
<g id="graph0" class="graph" transform="scale(1 1) rotate(0) translate(4 227)">
<title>sierra::nalu::MomentumGclSrcNodeKernel</title>
<polygon fill="white" stroke="transparent" points="-4,4 -4,-227 325,-227 325,4 -4,4"/>
<!-- Node1 -->
<g id="node1" class="node">
<title>Node1</title>
<g id="a_node1"><a xlink:title=" ">
<polygon fill="#bfbfbf" stroke="black" points="16.5,-0.5 16.5,-30.5 165.5,-30.5 165.5,-0.5 16.5,-0.5"/>
<text text-anchor="start" x="24.5" y="-18.5" font-family="Helvetica,sans-Serif" font-size="10.00">sierra::nalu::MomentumGcl</text>
<text text-anchor="middle" x="91" y="-7.5" font-family="Helvetica,sans-Serif" font-size="10.00">SrcNodeKernel</text>
</a>
</g>
</g>
<!-- Node2 -->
<g id="node2" class="node">
<title>Node2</title>
<g id="a_node2"><a xlink:href="classsierra_1_1nalu_1_1_n_g_p_node_kernel.html" target="_top" xlink:title=" ">
<polygon fill="white" stroke="black" points="0,-68.5 0,-98.5 182,-98.5 182,-68.5 0,-68.5"/>
<text text-anchor="start" x="8" y="-86.5" font-family="Helvetica,sans-Serif" font-size="10.00">sierra::nalu::NGPNodeKernel</text>
<text text-anchor="middle" x="91" y="-75.5" font-family="Helvetica,sans-Serif" font-size="10.00">&lt; MomentumGclSrcNodeKernel &gt;</text>
</a>
</g>
</g>
<!-- Node2&#45;&gt;Node1 -->
<g id="edge1" class="edge">
<title>Node2&#45;&gt;Node1</title>
<path fill="none" stroke="midnightblue" d="M91,-58.03C91,-48.86 91,-38.74 91,-30.79"/>
<polygon fill="midnightblue" stroke="midnightblue" points="87.5,-58.18 91,-68.18 94.5,-58.18 87.5,-58.18"/>
</g>
<!-- Node3 -->
<g id="node3" class="node">
<title>Node3</title>
<g id="a_node3"><a xlink:href="classsierra_1_1nalu_1_1_node_kernel.html" target="_top" xlink:title=" ">
<polygon fill="white" stroke="black" points="20,-203.5 20,-222.5 154,-222.5 154,-203.5 20,-203.5"/>
<text text-anchor="middle" x="87" y="-210.5" font-family="Helvetica,sans-Serif" font-size="10.00">sierra::nalu::NodeKernel</text>
</a>
</g>
</g>
<!-- Node3&#45;&gt;Node2 -->
<g id="edge2" class="edge">
<title>Node3&#45;&gt;Node2</title>
<path fill="none" stroke="midnightblue" d="M87.6,-192.9C88.41,-167.05 89.84,-121.54 90.56,-98.59"/>
<polygon fill="midnightblue" stroke="midnightblue" points="84.09,-193.13 87.27,-203.24 91.09,-193.35 84.09,-193.13"/>
</g>
<!-- Node4 -->
<g id="node4" class="node">
<title>Node4</title>
<g id="a_node4"><a xlink:href="classsierra_1_1nalu_1_1_n_g_p_node_kernel.html" target="_top" xlink:title=" ">
<polygon fill="white" stroke="black" points="103.5,-146.5 103.5,-165.5 286.5,-165.5 286.5,-146.5 103.5,-146.5"/>
<text text-anchor="middle" x="195" y="-153.5" font-family="Helvetica,sans-Serif" font-size="10.00">sierra::nalu::NGPNodeKernel&lt; T &gt;</text>
</a>
</g>
</g>
<!-- Node3&#45;&gt;Node4 -->
<g id="edge4" class="edge">
<title>Node3&#45;&gt;Node4</title>
<path fill="none" stroke="midnightblue" d="M112.89,-198.82C133.16,-188.49 160.77,-174.43 178.24,-165.53"/>
<polygon fill="midnightblue" stroke="midnightblue" points="111.2,-195.75 103.88,-203.41 114.37,-201.99 111.2,-195.75"/>
</g>
<!-- Node4&#45;&gt;Node2 -->
<g id="edge3" class="edge">
<title>Node4&#45;&gt;Node2</title>
<path fill="none" stroke="orange" stroke-dasharray="5,2" d="M173.56,-140.47C155.45,-128.19 129.68,-110.72 111.76,-98.58"/>
<polygon fill="orange" stroke="orange" points="172.01,-143.64 182.25,-146.36 175.93,-137.85 172.01,-143.64"/>
<text text-anchor="middle" x="236.5" y="-120" font-family="Helvetica,sans-Serif" font-size="10.00"> &lt; MomentumGclSrcNodeKernel &gt;</text>
</g>
</g>
</svg>
