<?xml version="1.0" encoding="UTF-8" standalone="no"?>
<!DOCTYPE svg PUBLIC "-//W3C//DTD SVG 1.1//EN"
 "http://www.w3.org/Graphics/SVG/1.1/DTD/svg11.dtd">
<!-- Generated by graphviz version 2.43.0 (0)
 -->
<!-- Title: sierra::nalu::PecletFunction&lt; T &gt; Pages: 1 -->
<svg width="776pt" height="285pt"
 viewBox="0.00 0.00 776.00 285.00" xmlns="http://www.w3.org/2000/svg" xmlns:xlink="http://www.w3.org/1999/xlink">
<g id="graph0" class="graph" transform="scale(1 1) rotate(0) translate(4 281)">
<title>sierra::nalu::PecletFunction&lt; T &gt;</title>
<polygon fill="white" stroke="transparent" points="-4,4 -4,-281 772,-281 772,4 -4,4"/>
<!-- Node1 -->
<g id="node1" class="node">
<title>Node1</title>
<g id="a_node1"><a xlink:title=" ">
<polygon fill="#bfbfbf" stroke="black" points="210,-131 210,-150 387,-150 387,-131 210,-131"/>
<text text-anchor="middle" x="298.5" y="-138" font-family="Helvetica,sans-Serif" font-size="10.00">sierra::nalu::PecletFunction&lt; T &gt;</text>
</a>
</g>
</g>
<!-- Node3 -->
<g id="node3" class="node">
<title>Node3</title>
<g id="a_node3"><a xlink:href="classsierra_1_1nalu_1_1_classic_peclet_function.html" target="_top" xlink:title=" ">
<polygon fill="white" stroke="black" points="607.5,-246.5 607.5,-276.5 749.5,-276.5 749.5,-246.5 607.5,-246.5"/>
<text text-anchor="start" x="615.5" y="-264.5" font-family="Helvetica,sans-Serif" font-size="10.00">sierra::nalu::ClassicPeclet</text>
<text text-anchor="middle" x="678.5" y="-253.5" font-family="Helvetica,sans-Serif" font-size="10.00">Function&lt; T &gt;</text>
</a>
</g>
</g>
<!-- Node1&#45;&gt;Node3 -->
<g id="edge2" class="edge">
<title>Node1&#45;&gt;Node3</title>
<path fill="none" stroke="midnightblue" d="M318,-156.76C338.03,-173.44 371.6,-198.83 405,-212.5 470.51,-239.3 550.81,-251.48 607.22,-257"/>
<polygon fill="midnightblue" stroke="midnightblue" points="320.17,-154.01 310.29,-150.2 315.64,-159.35 320.17,-154.01"/>
</g>
<!-- Node4 -->
<g id="node4" class="node">
<title>Node4</title>
<g id="a_node4"><a xlink:href="classsierra_1_1nalu_1_1_tanh_function.html" target="_top" xlink:title=" ">
<polygon fill="white" stroke="black" points="593.5,-208 593.5,-227 763.5,-227 763.5,-208 593.5,-208"/>
<text text-anchor="middle" x="678.5" y="-215" font-family="Helvetica,sans-Serif" font-size="10.00">sierra::nalu::TanhFunction&lt; T &gt;</text>
</a>
</g>
</g>
<!-- Node1&#45;&gt;Node4 -->
<g id="edge3" class="edge">
<title>Node1&#45;&gt;Node4</title>
<path fill="none" stroke="midnightblue" d="M326.1,-154.75C346.96,-165.26 377.05,-179 405,-186.5 466.85,-203.1 538.93,-210.82 593.42,-214.4"/>
<polygon fill="midnightblue" stroke="midnightblue" points="327.7,-151.63 317.2,-150.18 324.5,-157.86 327.7,-151.63"/>
</g>
<!-- Node5 -->
<g id="node5" class="node">
<title>Node5</title>
<g id="a_node5"><a xlink:href="classsierra_1_1nalu_1_1_peclet_function.html" target="_top" xlink:title=" ">
<polygon fill="white" stroke="black" points="589,-148 589,-189 768,-189 768,-148 589,-148"/>
<text text-anchor="start" x="597" y="-177" font-family="Helvetica,sans-Serif" font-size="10.00">sierra::nalu::PecletFunction</text>
<text text-anchor="start" x="597" y="-166" font-family="Helvetica,sans-Serif" font-size="10.00">&lt; AssembleEdgeSolverAlgorithm</text>
<text text-anchor="middle" x="678.5" y="-155" font-family="Helvetica,sans-Serif" font-size="10.00">::DblType &gt;</text>
</a>
</g>
</g>
<!-- Node1&#45;&gt;Node5 -->
<g id="edge4" class="edge">
<title>Node1&#45;&gt;Node5</title>
<path fill="none" stroke="orange" stroke-dasharray="5,2" d="M397.29,-147.74C456.53,-152.13 531.51,-157.69 589,-161.94"/>
<polygon fill="orange" stroke="orange" points="397.4,-144.24 387.17,-146.99 396.88,-151.22 397.4,-144.24"/>
<text text-anchor="start" x="405" y="-174.5" font-family="Helvetica,sans-Serif" font-size="10.00"> &lt; AssembleEdgeSolverAlgorithm</text>
<text text-anchor="middle" x="488" y="-163.5" font-family="Helvetica,sans-Serif" font-size="10.00">::DblType &gt;</text>
</g>
<!-- Node6 -->
<g id="node6" class="node">
<title>Node6</title>
<g id="a_node6"><a xlink:href="classsierra_1_1nalu_1_1_peclet_function.html" target="_top" xlink:title=" ">
<polygon fill="white" stroke="black" points="604,-98.5 604,-128.5 753,-128.5 753,-98.5 604,-98.5"/>
<text text-anchor="start" x="612" y="-116.5" font-family="Helvetica,sans-Serif" font-size="10.00">sierra::nalu::PecletFunction</text>
<text text-anchor="middle" x="678.5" y="-105.5" font-family="Helvetica,sans-Serif" font-size="10.00">&lt; double &gt;</text>
</a>
</g>
</g>
<!-- Node1&#45;&gt;Node6 -->
<g id="edge5" class="edge">
<title>Node1&#45;&gt;Node6</title>
<path fill="none" stroke="orange" stroke-dasharray="5,2" d="M397.36,-133.51C461.9,-128.9 545.07,-122.96 603.97,-118.75"/>
<polygon fill="orange" stroke="orange" points="396.9,-130.03 387.17,-134.24 397.39,-137.02 396.9,-130.03"/>
<text text-anchor="middle" x="488" y="-136.5" font-family="Helvetica,sans-Serif" font-size="10.00"> &lt; double &gt;</text>
</g>
<!-- Node7 -->
<g id="node7" class="node">
<title>Node7</title>
<g id="a_node7"><a xlink:href="classsierra_1_1nalu_1_1_peclet_function.html" target="_top" xlink:title=" ">
<polygon fill="white" stroke="black" points="604,-49.5 604,-79.5 753,-79.5 753,-49.5 604,-49.5"/>
<text text-anchor="start" x="612" y="-67.5" font-family="Helvetica,sans-Serif" font-size="10.00">sierra::nalu::PecletFunction</text>
<text text-anchor="middle" x="678.5" y="-56.5" font-family="Helvetica,sans-Serif" font-size="10.00">&lt; DblType &gt;</text>
</a>
</g>
</g>
<!-- Node1&#45;&gt;Node7 -->
<g id="edge6" class="edge">
<title>Node1&#45;&gt;Node7</title>
<path fill="none" stroke="orange" stroke-dasharray="5,2" d="M334.66,-127.62C354.99,-120.56 381.18,-112.14 405,-106.5 471.49,-90.77 548.56,-79.52 603.74,-72.65"/>
<polygon fill="orange" stroke="orange" points="333.46,-124.33 325.19,-130.95 335.78,-130.93 333.46,-124.33"/>
<text text-anchor="middle" x="488" y="-109.5" font-family="Helvetica,sans-Serif" font-size="10.00"> &lt; DblType &gt;</text>
</g>
<!-- Node8 -->
<g id="node8" class="node">
<title>Node8</title>
<g id="a_node8"><a xlink:href="classsierra_1_1nalu_1_1_peclet_function.html" target="_top" xlink:title=" ">
<polygon fill="white" stroke="black" points="604,-0.5 604,-30.5 753,-30.5 753,-0.5 604,-0.5"/>
<text text-anchor="start" x="612" y="-18.5" font-family="Helvetica,sans-Serif" font-size="10.00">sierra::nalu::PecletFunction</text>
<text text-anchor="middle" x="678.5" y="-7.5" font-family="Helvetica,sans-Serif" font-size="10.00">&lt; DoubleType &gt;</text>
</a>
</g>
</g>
<!-- Node1&#45;&gt;Node8 -->
<g id="edge7" class="edge">
<title>Node1&#45;&gt;Node8</title>
<path fill="none" stroke="orange" stroke-dasharray="5,2" d="M316.83,-123.9C336.54,-106.03 370.5,-78.19 405,-63.5 468.87,-36.31 547.46,-24.53 603.8,-19.41"/>
<polygon fill="orange" stroke="orange" points="314.25,-121.52 309.29,-130.89 319.01,-126.66 314.25,-121.52"/>
<text text-anchor="middle" x="488" y="-66.5" font-family="Helvetica,sans-Serif" font-size="10.00"> &lt; DoubleType &gt;</text>
</g>
<!-- Node2 -->
<g id="node2" class="node">
<title>Node2</title>
<g id="a_node2"><a xlink:href="classsierra_1_1nalu_1_1_peclet_function_base.html" target="_top" xlink:title="Non&#45;templated empty base class for storing pointers to templated instances.">
<polygon fill="white" stroke="black" points="0,-131 0,-150 173,-150 173,-131 0,-131"/>
<text text-anchor="middle" x="86.5" y="-138" font-family="Helvetica,sans-Serif" font-size="10.00">sierra::nalu::PecletFunctionBase</text>
</a>
</g>
</g>
<!-- Node2&#45;&gt;Node1 -->
<g id="edge1" class="edge">
<title>Node2&#45;&gt;Node1</title>
<path fill="none" stroke="midnightblue" d="M183.43,-140.5C192.17,-140.5 201,-140.5 209.67,-140.5"/>
<polygon fill="midnightblue" stroke="midnightblue" points="183.22,-137 173.22,-140.5 183.22,-144 183.22,-137"/>
</g>
</g>
</svg>
