<?xml version="1.0" encoding="UTF-8" standalone="no"?>
<!DOCTYPE svg PUBLIC "-//W3C//DTD SVG 1.1//EN"
 "http://www.w3.org/Graphics/SVG/1.1/DTD/svg11.dtd">
<!-- Generated by graphviz version 2.43.0 (0)
 -->
<!-- Title: sierra::nalu::fsiTurbine Pages: 1 -->
<!--zoomable 701 -->

<svg id="main" version="1.1" xmlns="http://www.w3.org/2000/svg" xmlns:xlink="http://www.w3.org/1999/xlink" xml:space="preserve" onload="init(evt)">
<style type="text/css"><![CDATA[
.node, .edge {opacity: 0.7;}
.node.selected, .edge.selected {opacity: 1;}
.edge:hover path { stroke: red; }
.edge:hover polygon { stroke: red; fill: red; }
]]></style>

<defs>
  <circle id="rim" cx="0" cy="0" r="7"/>
  <circle id="rim2" cx="0" cy="0" r="3.5"/>
  <g id="zoomPlus">
    <use xlink:href="#rim" fill="#404040"><set attributeName="fill" to="#808080" begin="zoomplus.mouseover" end="zoomplus.mouseout"/></use>
    <path d="M-4,0h8M0,-4v8" fill="none" stroke="white" stroke-width="1.5" pointer-events="none"/>
  </g>
  <g id="zoomMin">
    <use xlink:href="#rim" fill="#404040"><set attributeName="fill" to="#808080" begin="zoomminus.mouseover" end="zoomminus.mouseout"/></use>
    <path d="M-4,0h8" fill="none" stroke="white" stroke-width="1.5" pointer-events="none"/>
  </g>
  <g id="arrowUp" transform="translate(30 24)">
    <use xlink:href="#rim"/>
    <path pointer-events="none" fill="none" stroke="white" stroke-width="1.5" d="M0,-3.0v7 M-2.5,-0.5L0,-3.0L2.5,-0.5"/>
  </g>
  <g id="arrowRight" transform="rotate(90) translate(36 -43)">
    <use xlink:href="#rim"/>
    <path pointer-events="none" fill="none" stroke="white" stroke-width="1.5" d="M0,-3.0v7 M-2.5,-0.5L0,-3.0L2.5,-0.5"/>
  </g>
  <g id="arrowDown" transform="rotate(180) translate(-30 -48)">
    <use xlink:href="#rim"/>
    <path pointer-events="none" fill="none" stroke="white" stroke-width="1.5" d="M0,-3.0v7 M-2.5,-0.5L0,-3.0L2.5,-0.5"/>
  </g>
  <g id="arrowLeft" transform="rotate(270) translate(-36 17)">
    <use xlink:href="#rim"/>
    <path pointer-events="none" fill="none" stroke="white" stroke-width="1.5" d="M0,-3.0v7 M-2.5,-0.5L0,-3.0L2.5,-0.5"/>
  </g>
  <g id="resetDef">
    <use xlink:href="#rim2" fill="#404040"><set attributeName="fill" to="#808080" begin="reset.mouseover" end="reset.mouseout"/></use>
  </g>
</defs>
<script type="application/ecmascript">
var viewWidth = 1484;
var viewHeight = 701;
var sectionId = 'dynsection-0';
</script>
<script type="application/ecmascript" xlink:href="svg.min.js"/>
<svg id="graph" class="graph">
<g id="viewport">
<title>sierra::nalu::fsiTurbine</title>
<!-- Node1 -->
<g id="Node000001" class="node">
<title>Node1</title>
<g id="a_Node000001"><a xlink:title=" ">
<polygon fill="#999999" stroke="#666666" points="1476,-313.5 1351,-313.5 1351,-294.5 1476,-294.5 1476,-313.5"/>
<text text-anchor="middle" x="1413.5" y="-301.5" font-family="Helvetica,sans-Serif" font-size="10.00">sierra::nalu::fsiTurbine</text>
</a>
</g>
</g>
<!-- Node2 -->
<g id="Node000002" class="node">
<title>Node2</title>
<g id="a_Node000002"><a xlink:title=" ">
<polygon fill="white" stroke="#666666" points="596.5,-514 489.5,-514 489.5,-484 596.5,-484 596.5,-514"/>
<text text-anchor="start" x="497.5" y="-502" font-family="Helvetica,sans-Serif" font-size="10.00">std::vector&lt; aero::</text>
<text text-anchor="middle" x="543" y="-491" font-family="Helvetica,sans-Serif" font-size="10.00">SixDOF &gt;</text>
</a>
</g>
</g>
<!-- Node2&#45;&gt;Node1 -->
<g id="edge1_Node000001_Node000002" class="edge">
<title>Node2&#45;&gt;Node1</title>
<g id="a_edge1_Node000001_Node000002"><a xlink:title=" ">
<path fill="none" stroke="#9a32cd" stroke-dasharray="5,2" d="M606.85,-505.62C724.51,-516.02 985.02,-529.62 1194,-473 1261.55,-454.7 1278.65,-443.09 1333,-399 1365.23,-372.85 1394.05,-332.13 1406.28,-313.68"/>
<polygon fill="#9a32cd" stroke="#9a32cd" points="606.86,-502.1 596.59,-504.69 606.23,-509.08 606.86,-502.1"/>
</a>
</g>
<text text-anchor="middle" x="991" y="-514" font-family="Helvetica,sans-Serif" font-size="10.00" fill="grey"> bldDefStiff_</text>
</g>
<!-- Node3 -->
<g id="Node000003" class="node">
<title>Node3</title>
<g id="a_Node000003"><a xlink:href="structaero_1_1_six_d_o_f.html" target="_top" xlink:title="A struct to capture six degrees of freedom with a rotation and translation components called out as s...">
<polygon fill="white" stroke="#666666" points="288,-522.5 208,-522.5 208,-503.5 288,-503.5 288,-522.5"/>
<text text-anchor="middle" x="248" y="-510.5" font-family="Helvetica,sans-Serif" font-size="10.00">aero::SixDOF</text>
</a>
</g>
</g>
<!-- Node3&#45;&gt;Node2 -->
<g id="edge2_Node000002_Node000003" class="edge">
<title>Node3&#45;&gt;Node2</title>
<g id="a_edge2_Node000002_Node000003"><a xlink:title=" ">
<path fill="none" stroke="#9a32cd" stroke-dasharray="5,2" d="M298.38,-510.64C351.37,-508.11 435.21,-504.1 489.41,-501.51"/>
<polygon fill="#9a32cd" stroke="#9a32cd" points="298.03,-507.15 288.21,-511.13 298.37,-514.15 298.03,-507.15"/>
</a>
</g>
<text text-anchor="middle" x="390" y="-512" font-family="Helvetica,sans-Serif" font-size="10.00" fill="grey"> elements</text>
</g>
<!-- Node4 -->
<g id="Node000004" class="node">
<title>Node4</title>
<g id="a_Node000004"><a xlink:title=" ">
<polygon fill="white" stroke="#666666" points="296.5,-330.5 199.5,-330.5 199.5,-311.5 296.5,-311.5 296.5,-330.5"/>
<text text-anchor="middle" x="248" y="-318.5" font-family="Helvetica,sans-Serif" font-size="10.00">std::vector&lt; T &gt;</text>
</a>
</g>
</g>
<!-- Node4&#45;&gt;Node2 -->
<g id="edge3_Node000002_Node000004" class="edge">
<title>Node4&#45;&gt;Node2</title>
<g id="a_edge3_Node000002_Node000004"><a xlink:title=" ">
<path fill="none" stroke="orange" stroke-dasharray="5,2" d="M259.25,-339.81C279.36,-376.68 322.32,-455.06 325,-457 338.21,-466.56 429.57,-481.94 489.46,-491.2"/>
<polygon fill="orange" stroke="orange" points="262.09,-337.71 254.23,-330.61 255.94,-341.06 262.09,-337.71"/>
</a>
</g>
<text text-anchor="middle" x="390" y="-488" font-family="Helvetica,sans-Serif" font-size="10.00" fill="grey"> &lt; aero::SixDOF &gt;</text>
</g>
<!-- Node6 -->
<g id="Node000006" class="node">
<title>Node6</title>
<g id="a_Node000006"><a xlink:title=" ">
<polygon fill="white" stroke="#666666" points="761,-320.5 637,-320.5 637,-301.5 761,-301.5 761,-320.5"/>
<text text-anchor="middle" x="699" y="-308.5" font-family="Helvetica,sans-Serif" font-size="10.00">std::vector&lt; double &gt;</text>
</a>
</g>
</g>
<!-- Node4&#45;&gt;Node6 -->
<g id="edge6_Node000006_Node000004" class="edge">
<title>Node4&#45;&gt;Node6</title>
<g id="a_edge6_Node000006_Node000004"><a xlink:title=" ">
<path fill="none" stroke="orange" stroke-dasharray="5,2" d="M306.88,-319.71C391.98,-317.82 550.15,-314.29 637,-312.36"/>
<polygon fill="orange" stroke="orange" points="306.55,-316.22 296.63,-319.94 306.7,-323.22 306.55,-316.22"/>
</a>
</g>
<text text-anchor="middle" x="390" y="-322" font-family="Helvetica,sans-Serif" font-size="10.00" fill="grey"> &lt; double &gt;</text>
</g>
<!-- Node7 -->
<g id="Node000007" class="node">
<title>Node7</title>
<g id="a_Node000007"><a xlink:title=" ">
<polygon fill="white" stroke="#666666" points="913.5,-469 787.5,-469 787.5,-439 913.5,-439 913.5,-469"/>
<text text-anchor="start" x="795.5" y="-457" font-family="Helvetica,sans-Serif" font-size="10.00">std::vector&lt; std::array</text>
<text text-anchor="middle" x="850.5" y="-446" font-family="Helvetica,sans-Serif" font-size="10.00">&lt; double, 2 &gt; &gt;</text>
</a>
</g>
</g>
<!-- Node4&#45;&gt;Node7 -->
<g id="edge11_Node000007_Node000004" class="edge">
<title>Node4&#45;&gt;Node7</title>
<g id="a_edge11_Node000007_Node000004"><a xlink:title=" ">
<path fill="none" stroke="orange" stroke-dasharray="5,2" d="M306.99,-331.05C313.07,-332.06 319.16,-333.06 325,-334 521.25,-365.43 581.1,-331.67 767,-402 790.44,-410.87 814.35,-426.86 830.35,-438.78"/>
<polygon fill="orange" stroke="orange" points="307.26,-327.55 296.81,-329.34 306.09,-334.45 307.26,-327.55"/>
</a>
</g>
<text text-anchor="start" x="488.5" y="-373" font-family="Helvetica,sans-Serif" font-size="10.00" fill="grey"> &lt; std::array&lt; double,</text>
<text text-anchor="middle" x="543" y="-362" font-family="Helvetica,sans-Serif" font-size="10.00" fill="grey"> 2 &gt; &gt;</text>
</g>
<!-- Node20 -->
<g id="Node000020" class="node">
<title>Node20</title>
<g id="a_Node000020"><a xlink:title=" ">
<polygon fill="white" stroke="#666666" points="602,-426.5 484,-426.5 484,-407.5 602,-407.5 602,-426.5"/>
<text text-anchor="middle" x="543" y="-414.5" font-family="Helvetica,sans-Serif" font-size="10.00">std::vector&lt; Part * &gt;</text>
</a>
</g>
</g>
<!-- Node4&#45;&gt;Node20 -->
<g id="edge25_Node000020_Node000004" class="edge">
<title>Node4&#45;&gt;Node20</title>
<g id="a_edge25_Node000020_Node000004"><a xlink:title=" ">
<path fill="none" stroke="orange" stroke-dasharray="5,2" d="M265.38,-338.04C279.75,-351.91 301.91,-370.79 325,-381 375.64,-403.39 438.53,-411.97 483.55,-415.2"/>
<polygon fill="orange" stroke="orange" points="267.8,-335.52 258.25,-330.95 262.87,-340.48 267.8,-335.52"/>
</a>
</g>
<text text-anchor="middle" x="390" y="-415" font-family="Helvetica,sans-Serif" font-size="10.00" fill="grey"> &lt; Part * &gt;</text>
</g>
<!-- Node22 -->
<g id="Node000022" class="node">
<title>Node22</title>
<g id="a_Node000022"><a xlink:title=" ">
<polygon fill="white" stroke="#666666" points="613,-174.5 473,-174.5 473,-155.5 613,-155.5 613,-174.5"/>
<text text-anchor="middle" x="543" y="-162.5" font-family="Helvetica,sans-Serif" font-size="10.00">std::vector&lt; std::string &gt;</text>
</a>
</g>
</g>
<!-- Node4&#45;&gt;Node22 -->
<g id="edge31_Node000022_Node000004" class="edge">
<title>Node4&#45;&gt;Node22</title>
<g id="a_edge31_Node000022_Node000004"><a xlink:title=" ">
<path fill="none" stroke="orange" stroke-dasharray="5,2" d="M254.56,-301.47C263.92,-272.5 285.75,-218.81 325,-193 337.28,-184.93 414.01,-176.38 472.78,-170.89"/>
<polygon fill="orange" stroke="orange" points="251.15,-300.66 251.58,-311.25 257.84,-302.71 251.15,-300.66"/>
</a>
</g>
<text text-anchor="middle" x="390" y="-196" font-family="Helvetica,sans-Serif" font-size="10.00" fill="grey"> &lt; std::string &gt;</text>
</g>
<!-- Node23 -->
<g id="Node000023" class="node">
<title>Node23</title>
<g id="a_Node000023"><a xlink:title=" ">
<polygon fill="white" stroke="#666666" points="916,-231 785,-231 785,-201 916,-201 916,-231"/>
<text text-anchor="start" x="793" y="-219" font-family="Helvetica,sans-Serif" font-size="10.00">std::vector&lt; std::vector</text>
<text text-anchor="middle" x="850.5" y="-208" font-family="Helvetica,sans-Serif" font-size="10.00">&lt; std::string &gt; &gt;</text>
</a>
</g>
</g>
<!-- Node4&#45;&gt;Node23 -->
<g id="edge35_Node000023_Node000004" class="edge">
<title>Node4&#45;&gt;Node23</title>
<g id="a_edge35_Node000023_Node000004"><a xlink:title=" ">
<path fill="none" stroke="orange" stroke-dasharray="5,2" d="M259.79,-302.64C272.57,-282.8 295.85,-252.15 325,-238 404.23,-199.55 662.73,-206.62 784.69,-212.39"/>
<polygon fill="orange" stroke="orange" points="256.66,-301.04 254.38,-311.39 262.62,-304.72 256.66,-301.04"/>
</a>
</g>
<text text-anchor="start" x="496.5" y="-225" font-family="Helvetica,sans-Serif" font-size="10.00" fill="grey"> &lt; std::vector&lt; std</text>
<text text-anchor="middle" x="543" y="-214" font-family="Helvetica,sans-Serif" font-size="10.00" fill="grey">::string &gt; &gt;</text>
</g>
<!-- Node24 -->
<g id="Node000024" class="node">
<title>Node24</title>
<g id="a_Node000024"><a xlink:title=" ">
<polygon fill="white" stroke="#666666" points="607,-288 479,-288 479,-258 607,-258 607,-288"/>
<text text-anchor="start" x="487" y="-276" font-family="Helvetica,sans-Serif" font-size="10.00">std::vector&lt; stk::mesh</text>
<text text-anchor="middle" x="543" y="-265" font-family="Helvetica,sans-Serif" font-size="10.00">::PartVector &gt;</text>
</a>
</g>
</g>
<!-- Node4&#45;&gt;Node24 -->
<g id="edge37_Node000024_Node000004" class="edge">
<title>Node4&#45;&gt;Node24</title>
<g id="a_edge37_Node000024_Node000004"><a xlink:title=" ">
<path fill="none" stroke="#9a32cd" stroke-dasharray="5,2" d="M262.35,-303.5C276.03,-287.16 298.94,-263.85 325,-254 381.6,-232.61 452.22,-245.38 497.22,-257.97"/>
<polygon fill="#9a32cd" stroke="#9a32cd" points="259.62,-301.32 256.07,-311.31 265.07,-305.71 259.62,-301.32"/>
</a>
</g>
<text text-anchor="middle" x="390" y="-257" font-family="Helvetica,sans-Serif" font-size="10.00" fill="grey"> elements</text>
</g>
<!-- Node4&#45;&gt;Node24 -->
<g id="edge38_Node000024_Node000004" class="edge">
<title>Node4&#45;&gt;Node24</title>
<g id="a_edge38_Node000024_Node000004"><a xlink:title=" ">
<path fill="none" stroke="orange" stroke-dasharray="5,2" d="M275.42,-306.88C289.69,-299.94 307.85,-292.18 325,-288 375.81,-275.6 435.16,-272.23 478.93,-271.74"/>
<polygon fill="orange" stroke="orange" points="273.58,-303.88 266.22,-311.5 276.73,-310.14 273.58,-303.88"/>
</a>
</g>
<text text-anchor="middle" x="390" y="-291" font-family="Helvetica,sans-Serif" font-size="10.00" fill="grey"> &lt; stk::mesh::PartVector &gt;</text>
</g>
<!-- Node5 -->
<g id="Node000005" class="node">
<title>Node5</title>
<g id="a_Node000005"><a xlink:title=" ">
<polygon fill="white" stroke="#666666" points="66.5,-454.5 37.5,-454.5 37.5,-435.5 66.5,-435.5 66.5,-454.5"/>
<text text-anchor="middle" x="52" y="-442.5" font-family="Helvetica,sans-Serif" font-size="10.00">T</text>
</a>
</g>
</g>
<!-- Node5&#45;&gt;Node4 -->
<g id="edge4_Node000004_Node000005" class="edge">
<title>Node5&#45;&gt;Node4</title>
<g id="a_edge4_Node000004_Node000005"><a xlink:title=" ">
<path fill="none" stroke="#9a32cd" stroke-dasharray="5,2" d="M75.14,-430.85C115.07,-405.33 198.11,-352.25 232.05,-330.55"/>
<polygon fill="#9a32cd" stroke="#9a32cd" points="73.18,-427.95 66.64,-436.28 76.95,-433.84 73.18,-427.95"/>
</a>
</g>
<text text-anchor="middle" x="146.5" y="-400" font-family="Helvetica,sans-Serif" font-size="10.00" fill="grey"> elements</text>
</g>
<!-- Node9 -->
<g id="Node000009" class="node">
<title>Node9</title>
<g id="a_Node000009"><a xlink:title=" ">
<polygon fill="white" stroke="#666666" points="294,-454.5 202,-454.5 202,-435.5 294,-435.5 294,-454.5"/>
<text text-anchor="middle" x="248" y="-442.5" font-family="Helvetica,sans-Serif" font-size="10.00">std::array&lt; T &gt;</text>
</a>
</g>
</g>
<!-- Node5&#45;&gt;Node9 -->
<g id="edge10_Node000009_Node000005" class="edge">
<title>Node5&#45;&gt;Node9</title>
<g id="a_edge10_Node000009_Node000005"><a xlink:title=" ">
<path fill="none" stroke="#9a32cd" stroke-dasharray="5,2" d="M76.95,-445C108.06,-445 162.98,-445 201.99,-445"/>
<polygon fill="#9a32cd" stroke="#9a32cd" points="76.64,-441.5 66.64,-445 76.64,-448.5 76.64,-441.5"/>
</a>
</g>
<text text-anchor="middle" x="146.5" y="-448" font-family="Helvetica,sans-Serif" font-size="10.00" fill="grey"> elements</text>
</g>
<!-- Node13 -->
<g id="Node000013" class="node">
<title>Node13</title>
<g id="a_Node000013"><a xlink:title=" ">
<polygon fill="white" stroke="#666666" points="305,-106 191,-106 191,-76 305,-76 305,-106"/>
<text text-anchor="start" x="199" y="-94" font-family="Helvetica,sans-Serif" font-size="10.00">std::unordered_map</text>
<text text-anchor="middle" x="248" y="-83" font-family="Helvetica,sans-Serif" font-size="10.00">&lt; K, T &gt;</text>
</a>
</g>
</g>
<!-- Node5&#45;&gt;Node13 -->
<g id="edge17_Node000013_Node000005" class="edge">
<title>Node5&#45;&gt;Node13</title>
<g id="a_edge17_Node000013_Node000005"><a xlink:title=" ">
<path fill="none" stroke="#9a32cd" stroke-dasharray="5,2" d="M58.11,-425.62C72.27,-374.53 115.87,-233.52 189,-138 198.53,-125.55 212.01,-114.37 223.58,-106.04"/>
<polygon fill="#9a32cd" stroke="#9a32cd" points="54.71,-424.79 55.47,-435.36 61.46,-426.63 54.71,-424.79"/>
</a>
</g>
<text text-anchor="middle" x="146.5" y="-251" font-family="Helvetica,sans-Serif" font-size="10.00" fill="grey"> elements</text>
</g>
<!-- Node17 -->
<g id="Node000017" class="node">
<title>Node17</title>
<g id="a_Node000017"><a xlink:title=" ">
<polygon fill="white" stroke="#666666" points="307,-618.5 189,-618.5 189,-599.5 307,-599.5 307,-618.5"/>
<text text-anchor="middle" x="248" y="-606.5" font-family="Helvetica,sans-Serif" font-size="10.00">std::shared_ptr&lt; T &gt;</text>
</a>
</g>
</g>
<!-- Node5&#45;&gt;Node17 -->
<g id="edge21_Node000017_Node000005" class="edge">
<title>Node5&#45;&gt;Node17</title>
<g id="a_edge21_Node000017_Node000005"><a xlink:title=" ">
<path fill="none" stroke="#9a32cd" stroke-dasharray="5,2" d="M57.49,-464.42C65.33,-493.87 84.4,-549.49 122,-579 140.96,-593.88 166.17,-601.55 188.98,-605.43"/>
<polygon fill="#9a32cd" stroke="#9a32cd" points="60.83,-463.38 55.02,-454.53 54.04,-465.08 60.83,-463.38"/>
</a>
</g>
<text text-anchor="middle" x="146.5" y="-604" font-family="Helvetica,sans-Serif" font-size="10.00" fill="grey"> ptr</text>
</g>
<!-- Node21 -->
<g id="Node000021" class="node">
<title>Node21</title>
<g id="a_Node000021"><a xlink:title=" ">
<polygon fill="white" stroke="#666666" points="449,-581.5 331,-581.5 331,-562.5 449,-562.5 449,-581.5"/>
<text text-anchor="middle" x="390" y="-569.5" font-family="Helvetica,sans-Serif" font-size="10.00">std::unique_ptr&lt; T &gt;</text>
</a>
</g>
</g>
<!-- Node5&#45;&gt;Node21 -->
<g id="edge28_Node000021_Node000005" class="edge">
<title>Node5&#45;&gt;Node21</title>
<g id="a_edge28_Node000021_Node000005"><a xlink:title=" ">
<path fill="none" stroke="#9a32cd" stroke-dasharray="5,2" d="M72.59,-460.91C97.92,-480.65 144.12,-513.91 189,-532 234.81,-550.47 290.09,-560.69 330.9,-566.16"/>
<polygon fill="#9a32cd" stroke="#9a32cd" points="74.55,-458 64.54,-454.54 70.21,-463.49 74.55,-458"/>
</a>
</g>
<text text-anchor="middle" x="146.5" y="-526" font-family="Helvetica,sans-Serif" font-size="10.00" fill="grey"> ptr</text>
</g>
<!-- Node6&#45;&gt;Node1 -->
<g id="edge5_Node000001_Node000006" class="edge">
<title>Node6&#45;&gt;Node1</title>
<g id="a_edge5_Node000001_Node000006"><a xlink:title=" ">
<path fill="none" stroke="#9a32cd" stroke-dasharray="5,2" d="M771.33,-309.58C817.69,-308.71 879.42,-307.64 934,-307 1083.73,-305.25 1259.83,-304.48 1350.94,-304.17"/>
<polygon fill="#9a32cd" stroke="#9a32cd" points="771.02,-306.09 761.09,-309.77 771.16,-313.08 771.02,-306.09"/>
</a>
</g>
<text text-anchor="middle" x="991" y="-310" font-family="Helvetica,sans-Serif" font-size="10.00" fill="grey"> bld_dr_</text>
</g>
<!-- Node7&#45;&gt;Node1 -->
<g id="edge7_Node000001_Node000007" class="edge">
<title>Node7&#45;&gt;Node1</title>
<g id="a_edge7_Node000001_Node000007"><a xlink:title=" ">
<path fill="none" stroke="#9a32cd" stroke-dasharray="5,2" d="M924.2,-464.46C961.48,-467.94 1007.46,-469.3 1048,-462 1181.01,-438.07 1212.37,-416.92 1333,-356 1357.88,-343.44 1384.56,-324.8 1399.82,-313.58"/>
<polygon fill="#9a32cd" stroke="#9a32cd" points="924.23,-460.95 913.93,-463.43 923.53,-467.91 924.23,-460.95"/>
</a>
</g>
<text text-anchor="middle" x="1130" y="-461" font-family="Helvetica,sans-Serif" font-size="10.00" fill="grey"> bld_rmm_</text>
</g>
<!-- Node8 -->
<g id="Node000008" class="node">
<title>Node8</title>
<g id="a_Node000008"><a xlink:title=" ">
<polygon fill="white" stroke="#666666" points="608.5,-463.5 477.5,-463.5 477.5,-444.5 608.5,-444.5 608.5,-463.5"/>
<text text-anchor="middle" x="543" y="-451.5" font-family="Helvetica,sans-Serif" font-size="10.00">std::array&lt; double, 2 &gt;</text>
</a>
</g>
</g>
<!-- Node8&#45;&gt;Node7 -->
<g id="edge8_Node000007_Node000008" class="edge">
<title>Node8&#45;&gt;Node7</title>
<g id="a_edge8_Node000007_Node000008"><a xlink:title=" ">
<path fill="none" stroke="#9a32cd" stroke-dasharray="5,2" d="M618.91,-454C670.66,-454 738.68,-454 787.41,-454"/>
<polygon fill="#9a32cd" stroke="#9a32cd" points="618.79,-450.5 608.79,-454 618.79,-457.5 618.79,-450.5"/>
</a>
</g>
<text text-anchor="middle" x="699" y="-457" font-family="Helvetica,sans-Serif" font-size="10.00" fill="grey"> elements</text>
</g>
<!-- Node9&#45;&gt;Node8 -->
<g id="edge9_Node000008_Node000009" class="edge">
<title>Node9&#45;&gt;Node8</title>
<g id="a_edge9_Node000008_Node000009"><a xlink:title=" ">
<path fill="none" stroke="orange" stroke-dasharray="5,2" d="M304.21,-443.97C345.71,-443.51 403.96,-443.53 455,-446 462.27,-446.35 469.88,-446.85 477.43,-447.43"/>
<polygon fill="orange" stroke="orange" points="303.99,-440.47 294.04,-444.09 304.08,-447.47 303.99,-440.47"/>
</a>
</g>
<text text-anchor="middle" x="390" y="-449" font-family="Helvetica,sans-Serif" font-size="10.00" fill="grey"> &lt; double, 2 &gt;</text>
</g>
<!-- Node10 -->
<g id="Node000010" class="node">
<title>Node10</title>
<g id="a_Node000010"><a xlink:title=" ">
<polygon fill="white" stroke="#666666" points="600,-105 486,-105 486,-75 600,-75 600,-105"/>
<text text-anchor="start" x="494" y="-93" font-family="Helvetica,sans-Serif" font-size="10.00">std::unordered_map</text>
<text text-anchor="middle" x="543" y="-82" font-family="Helvetica,sans-Serif" font-size="10.00">&lt; std::string, int &gt;</text>
</a>
</g>
</g>
<!-- Node10&#45;&gt;Node1 -->
<g id="edge12_Node000001_Node000010" class="edge">
<title>Node10&#45;&gt;Node1</title>
<g id="a_edge12_Node000001_Node000010"><a xlink:title=" ">
<path fill="none" stroke="#9a32cd" stroke-dasharray="5,2" d="M610.23,-82.14C706.69,-71.87 891.41,-56.69 1048,-70 1113.6,-75.58 1130.07,-79.27 1194,-95 1257.05,-110.52 1284.02,-97.37 1333,-140 1383.12,-183.63 1404.51,-266.04 1410.58,-294.24"/>
<polygon fill="#9a32cd" stroke="#9a32cd" points="609.6,-78.68 600.04,-83.24 610.36,-85.64 609.6,-78.68"/>
</a>
</g>
<text text-anchor="middle" x="991" y="-73" font-family="Helvetica,sans-Serif" font-size="10.00" fill="grey"> ncVarIDs_</text>
</g>
<!-- Node11 -->
<g id="Node000011" class="node">
<title>Node11</title>
<g id="a_Node000011"><a xlink:title=" ">
<polygon fill="white" stroke="#666666" points="280.5,-166.5 215.5,-166.5 215.5,-147.5 280.5,-147.5 280.5,-166.5"/>
<text text-anchor="middle" x="248" y="-154.5" font-family="Helvetica,sans-Serif" font-size="10.00">std::string</text>
</a>
</g>
</g>
<!-- Node11&#45;&gt;Node10 -->
<g id="edge13_Node000010_Node000011" class="edge">
<title>Node11&#45;&gt;Node10</title>
<g id="a_edge13_Node000010_Node000011"><a xlink:title=" ">
<path fill="none" stroke="#9a32cd" stroke-dasharray="5,2" d="M290.67,-147.47C341.81,-135.78 428.72,-115.9 485.74,-102.86"/>
<polygon fill="#9a32cd" stroke="#9a32cd" points="289.6,-144.13 280.63,-149.77 291.16,-150.95 289.6,-144.13"/>
</a>
</g>
<text text-anchor="middle" x="390" y="-143" font-family="Helvetica,sans-Serif" font-size="10.00" fill="grey"> keys</text>
</g>
<!-- Node11&#45;&gt;Node22 -->
<g id="edge30_Node000022_Node000011" class="edge">
<title>Node11&#45;&gt;Node22</title>
<g id="a_edge30_Node000022_Node000011"><a xlink:title=" ">
<path fill="none" stroke="#9a32cd" stroke-dasharray="5,2" d="M290.82,-156.68C332.45,-156.54 398.17,-156.77 455,-159 460.75,-159.23 466.71,-159.52 472.69,-159.85"/>
<polygon fill="#9a32cd" stroke="#9a32cd" points="290.76,-153.18 280.78,-156.73 290.79,-160.18 290.76,-153.18"/>
</a>
</g>
<text text-anchor="middle" x="390" y="-162" font-family="Helvetica,sans-Serif" font-size="10.00" fill="grey"> elements</text>
</g>
<!-- Node12 -->
<g id="Node000012" class="node">
<title>Node12</title>
<g id="a_Node000012"><a xlink:title=" ">
<polygon fill="white" stroke="#666666" points="104,-172 0,-172 0,-142 104,-142 104,-172"/>
<text text-anchor="start" x="8" y="-160" font-family="Helvetica,sans-Serif" font-size="10.00">std::basic_string&lt;</text>
<text text-anchor="middle" x="52" y="-149" font-family="Helvetica,sans-Serif" font-size="10.00"> Char &gt;</text>
</a>
</g>
</g>
<!-- Node12&#45;&gt;Node11 -->
<g id="edge14_Node000011_Node000012" class="edge">
<title>Node12&#45;&gt;Node11</title>
<g id="a_edge14_Node000011_Node000012"><a xlink:title=" ">
<path fill="none" stroke="#63b8ff" d="M114.39,-157C147.91,-157 188.01,-157 215.27,-157"/>
<polygon fill="#63b8ff" stroke="#63b8ff" points="114.23,-153.5 104.22,-157 114.22,-160.5 114.23,-153.5"/>
</a>
</g>
</g>
<!-- Node13&#45;&gt;Node10 -->
<g id="edge15_Node000010_Node000013" class="edge">
<title>Node13&#45;&gt;Node10</title>
<g id="a_edge15_Node000010_Node000013"><a xlink:title=" ">
<path fill="none" stroke="orange" stroke-dasharray="5,2" d="M315.47,-90.77C366.76,-90.6 436.95,-90.36 485.54,-90.19"/>
<polygon fill="orange" stroke="orange" points="315.13,-87.27 305.15,-90.81 315.16,-94.27 315.13,-87.27"/>
</a>
</g>
<text text-anchor="middle" x="390" y="-94" font-family="Helvetica,sans-Serif" font-size="10.00" fill="grey"> &lt; std::string, int &gt;</text>
</g>
<!-- Node14 -->
<g id="Node000014" class="node">
<title>Node14</title>
<g id="a_Node000014"><a xlink:title=" ">
<polygon fill="white" stroke="#666666" points="66.5,-100.5 37.5,-100.5 37.5,-81.5 66.5,-81.5 66.5,-100.5"/>
<text text-anchor="middle" x="52" y="-88.5" font-family="Helvetica,sans-Serif" font-size="10.00">K</text>
</a>
</g>
</g>
<!-- Node14&#45;&gt;Node13 -->
<g id="edge16_Node000013_Node000014" class="edge">
<title>Node14&#45;&gt;Node13</title>
<g id="a_edge16_Node000013_Node000014"><a xlink:title=" ">
<path fill="none" stroke="#9a32cd" stroke-dasharray="5,2" d="M76.78,-91C105.03,-91 153.11,-91 190.98,-91"/>
<polygon fill="#9a32cd" stroke="#9a32cd" points="76.64,-87.5 66.64,-91 76.64,-94.5 76.64,-87.5"/>
</a>
</g>
<text text-anchor="middle" x="146.5" y="-94" font-family="Helvetica,sans-Serif" font-size="10.00" fill="grey"> keys</text>
</g>
<!-- Node15 -->
<g id="Node000015" class="node">
<title>Node15</title>
<g id="a_Node000015"><a xlink:href="structsierra_1_1nalu_1_1_deflection_ramping_params.html" target="_top" xlink:title=" ">
<polygon fill="white" stroke="#666666" points="1193.5,-30 1066.5,-30 1066.5,0 1193.5,0 1193.5,-30"/>
<text text-anchor="start" x="1074.5" y="-18" font-family="Helvetica,sans-Serif" font-size="10.00">sierra::nalu::Deflection</text>
<text text-anchor="middle" x="1130" y="-7" font-family="Helvetica,sans-Serif" font-size="10.00">RampingParams</text>
</a>
</g>
</g>
<!-- Node15&#45;&gt;Node1 -->
<g id="edge18_Node000001_Node000015" class="edge">
<title>Node15&#45;&gt;Node1</title>
<g id="a_edge18_Node000001_Node000015"><a xlink:title=" ">
<path fill="none" stroke="#9a32cd" stroke-dasharray="5,2" d="M1204.12,-2.67C1246.24,0.21 1297.67,-4.01 1333,-33 1375.55,-67.91 1404.61,-250 1411.12,-294.29"/>
<polygon fill="#9a32cd" stroke="#9a32cd" points="1203.58,0.79 1193.9,-3.52 1204.15,-6.18 1203.58,0.79"/>
</a>
</g>
<text text-anchor="middle" x="1272.5" y="-36" font-family="Helvetica,sans-Serif" font-size="10.00" fill="grey"> deflectionRampParams_</text>
</g>
<!-- Node16 -->
<g id="Node000016" class="node">
<title>Node16</title>
<g id="a_Node000016"><a xlink:title=" ">
<polygon fill="white" stroke="#666666" points="601,-631 485,-631 485,-601 601,-601 601,-631"/>
<text text-anchor="start" x="493" y="-619" font-family="Helvetica,sans-Serif" font-size="10.00">std::shared_ptr&lt; stk</text>
<text text-anchor="middle" x="543" y="-608" font-family="Helvetica,sans-Serif" font-size="10.00">::mesh::BulkData &gt;</text>
</a>
</g>
</g>
<!-- Node16&#45;&gt;Node1 -->
<g id="edge19_Node000001_Node000016" class="edge">
<title>Node16&#45;&gt;Node1</title>
<g id="a_edge19_Node000001_Node000016"><a xlink:title=" ">
<path fill="none" stroke="#9a32cd" stroke-dasharray="5,2" d="M604.65,-633.78C748.62,-671.99 1115.19,-745.18 1333,-573 1375.88,-539.1 1404.69,-357.78 1411.13,-313.68"/>
<polygon fill="#9a32cd" stroke="#9a32cd" points="605.24,-630.32 594.67,-631.1 603.42,-637.08 605.24,-630.32"/>
</a>
</g>
<text text-anchor="middle" x="991" y="-685" font-family="Helvetica,sans-Serif" font-size="10.00" fill="grey"> bulk_</text>
</g>
<!-- Node19 -->
<g id="Node000019" class="node">
<title>Node19</title>
<g id="a_Node000019"><a xlink:href="classsierra_1_1nalu_1_1_calc_loads.html" target="_top" xlink:title=" ">
<polygon fill="white" stroke="#666666" points="914,-546.5 787,-546.5 787,-527.5 914,-527.5 914,-546.5"/>
<text text-anchor="middle" x="850.5" y="-534.5" font-family="Helvetica,sans-Serif" font-size="10.00">sierra::nalu::CalcLoads</text>
</a>
</g>
</g>
<!-- Node16&#45;&gt;Node19 -->
<g id="edge26_Node000019_Node000016" class="edge">
<title>Node16&#45;&gt;Node19</title>
<g id="a_edge26_Node000019_Node000016"><a xlink:title=" ">
<path fill="none" stroke="#9a32cd" stroke-dasharray="5,2" d="M562.57,-592.95C578.56,-575.04 603.38,-551.55 631,-541 682.21,-521.44 745.23,-522.68 790.4,-527.48"/>
<polygon fill="#9a32cd" stroke="#9a32cd" points="559.75,-590.85 555.87,-600.71 565.05,-595.43 559.75,-590.85"/>
</a>
</g>
<text text-anchor="middle" x="699" y="-544" font-family="Helvetica,sans-Serif" font-size="10.00" fill="grey"> bulk_</text>
</g>
<!-- Node17&#45;&gt;Node16 -->
<g id="edge20_Node000016_Node000017" class="edge">
<title>Node17&#45;&gt;Node16</title>
<g id="a_edge20_Node000016_Node000017"><a xlink:title=" ">
<path fill="none" stroke="orange" stroke-dasharray="5,2" d="M317.49,-610.64C368.35,-611.85 436.94,-613.49 484.87,-614.64"/>
<polygon fill="orange" stroke="orange" points="317.32,-607.13 307.24,-610.39 317.15,-614.13 317.32,-607.13"/>
</a>
</g>
<text text-anchor="middle" x="390" y="-616" font-family="Helvetica,sans-Serif" font-size="10.00" fill="grey"> &lt; stk::mesh::BulkData &gt;</text>
</g>
<!-- Node18 -->
<g id="Node000018" class="node">
<title>Node18</title>
<g id="a_Node000018"><a xlink:title=" ">
<polygon fill="white" stroke="#666666" points="1194,-567 1066,-567 1066,-537 1194,-537 1194,-567"/>
<text text-anchor="start" x="1074" y="-555" font-family="Helvetica,sans-Serif" font-size="10.00">std::unique_ptr&lt; sierra</text>
<text text-anchor="middle" x="1130" y="-544" font-family="Helvetica,sans-Serif" font-size="10.00">::nalu::CalcLoads &gt;</text>
</a>
</g>
</g>
<!-- Node18&#45;&gt;Node1 -->
<g id="edge22_Node000001_Node000018" class="edge">
<title>Node18&#45;&gt;Node1</title>
<g id="a_edge22_Node000001_Node000018"><a xlink:title=" ">
<path fill="none" stroke="#9a32cd" stroke-dasharray="5,2" d="M1204.31,-558.96C1246.26,-559.01 1297.44,-551.9 1333,-523 1401.11,-467.63 1410.87,-348.77 1412.27,-313.84"/>
<polygon fill="#9a32cd" stroke="#9a32cd" points="1204.18,-555.45 1194.13,-558.81 1204.08,-562.45 1204.18,-555.45"/>
</a>
</g>
<text text-anchor="middle" x="1272.5" y="-561" font-family="Helvetica,sans-Serif" font-size="10.00" fill="grey"> calc_loads_</text>
</g>
<!-- Node19&#45;&gt;Node18 -->
<g id="edge23_Node000018_Node000019" class="edge">
<title>Node19&#45;&gt;Node18</title>
<g id="a_edge23_Node000018_Node000019"><a xlink:title=" ">
<path fill="none" stroke="#9a32cd" stroke-dasharray="5,2" d="M924.16,-540.93C968.08,-543.3 1023.52,-546.3 1065.65,-548.58"/>
<polygon fill="#9a32cd" stroke="#9a32cd" points="924.3,-537.43 914.12,-540.38 923.92,-544.42 924.3,-537.43"/>
</a>
</g>
<text text-anchor="middle" x="991" y="-550" font-family="Helvetica,sans-Serif" font-size="10.00" fill="grey"> ptr</text>
</g>
<!-- Node20&#45;&gt;Node1 -->
<g id="edge32_Node000001_Node000020" class="edge">
<title>Node20&#45;&gt;Node1</title>
<g id="a_edge32_Node000001_Node000020"><a xlink:title=" ">
<path fill="none" stroke="#9a32cd" stroke-dasharray="5,2" d="M590.56,-405.01C663.3,-386.83 808.57,-352.75 934,-337 1110.15,-314.87 1156.56,-337.66 1333,-318 1343.03,-316.88 1353.7,-315.29 1363.87,-313.57"/>
<polygon fill="#9a32cd" stroke="#9a32cd" points="589.63,-401.63 580.79,-407.47 591.34,-408.42 589.63,-401.63"/>
</a>
</g>
<text text-anchor="middle" x="991" y="-450" font-family="Helvetica,sans-Serif" font-size="10.00" fill="grey"> bndyPartVec_</text>
<text text-anchor="middle" x="991" y="-439" font-family="Helvetica,sans-Serif" font-size="10.00" fill="grey">hubBndyParts_</text>
<text text-anchor="middle" x="991" y="-428" font-family="Helvetica,sans-Serif" font-size="10.00" fill="grey">hubParts_</text>
<text text-anchor="start" x="948.5" y="-417" font-family="Helvetica,sans-Serif" font-size="10.00" fill="grey">nacelleBndyParts</text>
<text text-anchor="middle" x="991" y="-406" font-family="Helvetica,sans-Serif" font-size="10.00" fill="grey">_</text>
<text text-anchor="start" x="948.5" y="-395" font-family="Helvetica,sans-Serif" font-size="10.00" fill="grey">nacelleParts</text>
<text text-anchor="middle" x="991" y="-384" font-family="Helvetica,sans-Serif" font-size="10.00" fill="grey">_</text>
<text text-anchor="middle" x="991" y="-373" font-family="Helvetica,sans-Serif" font-size="10.00" fill="grey">partVec_</text>
<text text-anchor="start" x="948.5" y="-362" font-family="Helvetica,sans-Serif" font-size="10.00" fill="grey">twrBndyParts</text>
<text text-anchor="middle" x="991" y="-351" font-family="Helvetica,sans-Serif" font-size="10.00" fill="grey">_</text>
<text text-anchor="middle" x="991" y="-340" font-family="Helvetica,sans-Serif" font-size="10.00" fill="grey">twrParts_</text>
</g>
<!-- Node20&#45;&gt;Node19 -->
<g id="edge24_Node000019_Node000020" class="edge">
<title>Node20&#45;&gt;Node19</title>
<g id="a_edge24_Node000019_Node000020"><a xlink:title=" ">
<path fill="none" stroke="#9a32cd" stroke-dasharray="5,2" d="M612.31,-407.02C659.9,-403.8 722.55,-407.38 767,-439 782.56,-450.07 773.74,-462.59 785,-478 799.69,-498.09 822.03,-516.66 836.19,-527.4"/>
<polygon fill="#9a32cd" stroke="#9a32cd" points="611.79,-403.55 602.1,-407.84 612.34,-410.53 611.79,-403.55"/>
</a>
</g>
<text text-anchor="middle" x="699" y="-442" font-family="Helvetica,sans-Serif" font-size="10.00" fill="grey"> partVec_</text>
</g>
<!-- Node21&#45;&gt;Node18 -->
<g id="edge27_Node000018_Node000021" class="edge">
<title>Node21&#45;&gt;Node18</title>
<g id="a_edge27_Node000018_Node000021"><a xlink:title=" ">
<path fill="none" stroke="orange" stroke-dasharray="5,2" d="M459.17,-572.96C578.6,-574.18 833.39,-574.69 1048,-561 1053.79,-560.63 1059.8,-560.15 1065.82,-559.6"/>
<polygon fill="orange" stroke="orange" points="459.12,-569.46 449.08,-572.86 459.04,-576.46 459.12,-569.46"/>
</a>
</g>
<text text-anchor="middle" x="699" y="-576" font-family="Helvetica,sans-Serif" font-size="10.00" fill="grey"> &lt; sierra::nalu::CalcLoads &gt;</text>
</g>
<!-- Node22&#45;&gt;Node1 -->
<g id="edge29_Node000001_Node000022" class="edge">
<title>Node22&#45;&gt;Node1</title>
<g id="a_edge29_Node000001_Node000022"><a xlink:title=" ">
<path fill="none" stroke="#9a32cd" stroke-dasharray="5,2" d="M578.98,-152.01C661.31,-123.2 873.54,-59.23 1048,-95 1182.98,-122.68 1220.66,-137.23 1333,-217 1364.86,-239.63 1393.44,-276.92 1405.89,-294.4"/>
<polygon fill="#9a32cd" stroke="#9a32cd" points="577.62,-148.78 569.37,-155.42 579.96,-155.38 577.62,-148.78"/>
</a>
</g>
<text text-anchor="middle" x="991" y="-197" font-family="Helvetica,sans-Serif" font-size="10.00" fill="grey"> bndryPartNames_</text>
<text text-anchor="middle" x="991" y="-186" font-family="Helvetica,sans-Serif" font-size="10.00" fill="grey">hubBndyPartNames_</text>
<text text-anchor="middle" x="991" y="-175" font-family="Helvetica,sans-Serif" font-size="10.00" fill="grey">hubPartNames_</text>
<text text-anchor="start" x="934" y="-164" font-family="Helvetica,sans-Serif" font-size="10.00" fill="grey">nacelleBndyPartNames</text>
<text text-anchor="middle" x="991" y="-153" font-family="Helvetica,sans-Serif" font-size="10.00" fill="grey">_</text>
<text text-anchor="start" x="934" y="-142" font-family="Helvetica,sans-Serif" font-size="10.00" fill="grey">nacellePartNames</text>
<text text-anchor="middle" x="991" y="-131" font-family="Helvetica,sans-Serif" font-size="10.00" fill="grey">_</text>
<text text-anchor="start" x="934" y="-120" font-family="Helvetica,sans-Serif" font-size="10.00" fill="grey">twrBndyPartNames</text>
<text text-anchor="middle" x="991" y="-109" font-family="Helvetica,sans-Serif" font-size="10.00" fill="grey">_</text>
<text text-anchor="middle" x="991" y="-98" font-family="Helvetica,sans-Serif" font-size="10.00" fill="grey">twrPartNames_</text>
</g>
<!-- Node22&#45;&gt;Node23 -->
<g id="edge34_Node000023_Node000022" class="edge">
<title>Node22&#45;&gt;Node23</title>
<g id="a_edge34_Node000023_Node000022"><a xlink:title=" ">
<path fill="none" stroke="#9a32cd" stroke-dasharray="5,2" d="M623.31,-172.09C666.12,-176.64 719.72,-183.5 767,-193 777.79,-195.17 789.23,-198.01 800.05,-200.94"/>
<polygon fill="#9a32cd" stroke="#9a32cd" points="623.55,-168.6 613.24,-171.05 622.82,-175.56 623.55,-168.6"/>
</a>
</g>
<text text-anchor="middle" x="699" y="-196" font-family="Helvetica,sans-Serif" font-size="10.00" fill="grey"> elements</text>
</g>
<!-- Node23&#45;&gt;Node1 -->
<g id="edge33_Node000001_Node000023" class="edge">
<title>Node23&#45;&gt;Node1</title>
<g id="a_edge33_Node000001_Node000023"><a xlink:title=" ">
<path fill="none" stroke="#9a32cd" stroke-dasharray="5,2" d="M926.16,-211.86C995.75,-209.13 1102.29,-207.86 1194,-219 1257.03,-226.66 1274.67,-226.91 1333,-252 1359.06,-263.21 1385.99,-282.83 1400.86,-294.5"/>
<polygon fill="#9a32cd" stroke="#9a32cd" points="926.01,-208.36 916.17,-212.27 926.3,-215.36 926.01,-208.36"/>
</a>
</g>
<text text-anchor="start" x="1075.5" y="-244" font-family="Helvetica,sans-Serif" font-size="10.00" fill="grey"> bladeBndyPartNames</text>
<text text-anchor="middle" x="1130" y="-233" font-family="Helvetica,sans-Serif" font-size="10.00" fill="grey">_</text>
<text text-anchor="middle" x="1130" y="-222" font-family="Helvetica,sans-Serif" font-size="10.00" fill="grey">bladePartNames_</text>
</g>
<!-- Node24&#45;&gt;Node1 -->
<g id="edge36_Node000001_Node000024" class="edge">
<title>Node24&#45;&gt;Node1</title>
<g id="a_edge36_Node000001_Node000024"><a xlink:title=" ">
<path fill="none" stroke="#9a32cd" stroke-dasharray="5,2" d="M617.39,-272.57C715.54,-272.3 894.94,-272.84 1048,-279 1154.63,-283.29 1278.55,-292.74 1350.97,-298.71"/>
<polygon fill="#9a32cd" stroke="#9a32cd" points="617.27,-269.07 607.28,-272.61 617.29,-276.07 617.27,-269.07"/>
</a>
</g>
<text text-anchor="middle" x="991" y="-293" font-family="Helvetica,sans-Serif" font-size="10.00" fill="grey"> bladeBndyParts_</text>
<text text-anchor="middle" x="991" y="-282" font-family="Helvetica,sans-Serif" font-size="10.00" fill="grey">bladeParts_</text>
</g>
</g>
</svg>

<g id="navigator" transform="translate(0 0)" fill="#404254">
  <rect fill="#f2f5e9" fill-opacity="0.5" stroke="#606060" stroke-width=".5" x="0" y="0" width="60" height="60"/>
  <use id="zoomplus" xlink:href="#zoomPlus" x="17" y="9" onmousedown="handleZoom(evt,'in')"/>
  <use id="zoomminus" xlink:href="#zoomMin" x="42" y="9" onmousedown="handleZoom(evt,'out')"/>
  <use id="reset" xlink:href="#resetDef" x="30" y="36" onmousedown="handleReset()"/>
   <use id="arrowup" xlink:href="#arrowUp" x="0" y="0" onmousedown="handlePan(0,-1)"/>
  <use id="arrowright" xlink:href="#arrowRight" x="0" y="0" onmousedown="handlePan(1,0)"/>
  <use id="arrowdown" xlink:href="#arrowDown" x="0" y="0" onmousedown="handlePan(0,1)"/>
  <use id="arrowleft" xlink:href="#arrowLeft" x="0" y="0" onmousedown="handlePan(-1,0)"/>
</g>
<svg viewBox="0 0 15 15" width="100%" height="30px" preserveAspectRatio="xMaxYMin meet">
 <g id="arrow_out" transform="scale(0.3 0.3)">
  <a xlink:href="classsierra_1_1nalu_1_1fsi_turbine__coll__graph_org.svg" target="_base">
   <rect id="button" ry="5" rx="5" y="6" x="6" height="38" width="38"
        fill="#f2f5e9" fill-opacity="0.5" stroke="#606060" stroke-width="1.0"/>
   <path id="arrow"
     d="M 11.500037,31.436501 C 11.940474,20.09759 22.043105,11.32322 32.158766,21.979434 L 37.068811,17.246167 C 37.068811,17.246167 37.088388,32 37.088388,32 L 22.160133,31.978069 C 22.160133,31.978069 26.997745,27.140456 26.997745,27.140456 C 18.528582,18.264221 13.291696,25.230495 11.500037,31.436501 z"
     style="fill:#404040;"/>
  </a>
 </g>
</svg>

<style type='text/css'>
<![CDATA[
[data-mouse-over-selected='false'] { opacity: 0.7; }
[data-mouse-over-selected='true']  { opacity: 1.0; }
]]>
</style>
<script type="application/ecmascript"><![CDATA[
document.addEventListener('DOMContentLoaded', (event) => {
  highlightEdges();
  highlightAdjacentNodes();
});
]]></script>
</svg>
