<?xml version="1.0" encoding="UTF-8" standalone="no"?>
<!DOCTYPE svg PUBLIC "-//W3C//DTD SVG 1.1//EN"
 "http://www.w3.org/Graphics/SVG/1.1/DTD/svg11.dtd">
<!-- Generated by graphviz version 2.43.0 (0)
 -->
<!-- Title: aero Pages: 1 -->
<svg width="400pt" height="247pt"
 viewBox="0.00 0.00 400.00 247.00" xmlns="http://www.w3.org/2000/svg" xmlns:xlink="http://www.w3.org/1999/xlink">
<g id="graph0" class="graph" transform="scale(1 1) rotate(0) translate(4 243)">
<title>aero</title>
<polygon fill="white" stroke="transparent" points="-4,4 -4,-243 396,-243 396,4 -4,4"/>
<g id="clust1" class="cluster">
<title>clusterdir_d44c64559bbebec7f509842c48db8b23</title>
<g id="a_clust1"><a xlink:href="dir_d44c64559bbebec7f509842c48db8b23.html" target="_top" xlink:title="include">
<polygon fill="#ddddee" stroke="black" points="8,-8 8,-231 384,-231 384,-8 8,-8"/>
<text text-anchor="middle" x="196" y="-219" font-family="Helvetica,sans-Serif" font-size="10.00">include</text>
</a>
</g>
</g>
<g id="clust2" class="cluster">
<title>clusterdir_738a2fe09d1e4847c3af30e59395846c</title>
<g id="a_clust2"><a xlink:href="dir_738a2fe09d1e4847c3af30e59395846c.html" target="_top">
<polygon fill="#eeeeff" stroke="black" points="16,-80 16,-204 314,-204 314,-80 16,-80"/>
</a>
</g>
</g>
<!-- dir_c9a0c753886135922068087f5d9e5878 -->
<g id="node1" class="node">
<title>dir_c9a0c753886135922068087f5d9e5878</title>
<g id="a_node1"><a xlink:href="dir_c9a0c753886135922068087f5d9e5878.html" target="_top" xlink:title="master_element">
<polygon fill="none" stroke="black" points="171.5,-52 74.5,-52 74.5,-16 171.5,-16 171.5,-52"/>
<text text-anchor="middle" x="123" y="-31.5" font-family="Helvetica,sans-Serif" font-size="10.00">master_element</text>
</a>
</g>
</g>
<!-- dir_90a4e20af6a1458dc6efaa8a376a9224 -->
<g id="node2" class="node">
<title>dir_90a4e20af6a1458dc6efaa8a376a9224</title>
<g id="a_node2"><a xlink:href="dir_90a4e20af6a1458dc6efaa8a376a9224.html" target="_top" xlink:title="vs">
<polygon fill="none" stroke="black" points="376,-124 322,-124 322,-88 376,-88 376,-124"/>
<text text-anchor="middle" x="349" y="-103.5" font-family="Helvetica,sans-Serif" font-size="10.00">vs</text>
</a>
</g>
</g>
<!-- dir_738a2fe09d1e4847c3af30e59395846c -->
<g id="node3" class="node">
<title>dir_738a2fe09d1e4847c3af30e59395846c</title>
<text text-anchor="middle" x="123" y="-175.5" font-family="Helvetica,sans-Serif" font-size="10.00">aero</text>
</g>
<!-- dir_272f7846ea1d2076829aa6fdccfccaee -->
<g id="node4" class="node">
<title>dir_272f7846ea1d2076829aa6fdccfccaee</title>
<g id="a_node4"><a xlink:href="dir_272f7846ea1d2076829aa6fdccfccaee.html" target="_top" xlink:title="actuator">
<polygon fill="white" stroke="black" points="151.5,-124 94.5,-124 94.5,-88 151.5,-88 151.5,-124"/>
<text text-anchor="middle" x="123" y="-103.5" font-family="Helvetica,sans-Serif" font-size="10.00">actuator</text>
</a>
</g>
</g>
<!-- dir_738a2fe09d1e4847c3af30e59395846c&#45;&gt;dir_272f7846ea1d2076829aa6fdccfccaee -->
<g id="edge3" class="edge">
<title>dir_738a2fe09d1e4847c3af30e59395846c&#45;&gt;dir_272f7846ea1d2076829aa6fdccfccaee</title>
<path fill="none" stroke="black" d="M123,-159.7C123,-151.98 123,-142.71 123,-134.11"/>
<polygon fill="black" stroke="black" points="126.5,-134.1 123,-124.1 119.5,-134.1 126.5,-134.1"/>
<g id="a_edge3&#45;headlabel"><a xlink:href="dir_000008_000009.html" target="_top" xlink:title="1">
<text text-anchor="middle" x="129.34" y="-135.2" font-family="Helvetica,sans-Serif" font-size="10.00">1</text>
</a>
</g>
</g>
<!-- dir_272f7846ea1d2076829aa6fdccfccaee&#45;&gt;dir_c9a0c753886135922068087f5d9e5878 -->
<g id="edge4" class="edge">
<title>dir_272f7846ea1d2076829aa6fdccfccaee&#45;&gt;dir_c9a0c753886135922068087f5d9e5878</title>
<path fill="none" stroke="black" d="M123,-87.7C123,-79.98 123,-70.71 123,-62.11"/>
<polygon fill="black" stroke="black" points="126.5,-62.1 123,-52.1 119.5,-62.1 126.5,-62.1"/>
<g id="a_edge4&#45;headlabel"><a xlink:href="dir_000009_000030.html" target="_top" xlink:title="2">
<text text-anchor="middle" x="129.34" y="-63.2" font-family="Helvetica,sans-Serif" font-size="10.00">2</text>
</a>
</g>
</g>
<!-- dir_745c43850e8abcc5e607a9a82a0ce0d1 -->
<g id="node5" class="node">
<title>dir_745c43850e8abcc5e607a9a82a0ce0d1</title>
<g id="a_node5"><a xlink:href="dir_745c43850e8abcc5e607a9a82a0ce0d1.html" target="_top" xlink:title="aero_utils">
<polygon fill="white" stroke="black" points="305.5,-196 240.5,-196 240.5,-160 305.5,-160 305.5,-196"/>
<text text-anchor="middle" x="273" y="-175.5" font-family="Helvetica,sans-Serif" font-size="10.00">aero_utils</text>
</a>
</g>
</g>
<!-- dir_745c43850e8abcc5e607a9a82a0ce0d1&#45;&gt;dir_90a4e20af6a1458dc6efaa8a376a9224 -->
<g id="edge1" class="edge">
<title>dir_745c43850e8abcc5e607a9a82a0ce0d1&#45;&gt;dir_90a4e20af6a1458dc6efaa8a376a9224</title>
<path fill="none" stroke="black" d="M291.79,-159.7C301.17,-151.05 312.68,-140.45 322.91,-131.03"/>
<polygon fill="black" stroke="black" points="325.45,-133.45 330.43,-124.1 320.7,-128.3 325.45,-133.45"/>
<g id="a_edge1&#45;headlabel"><a xlink:href="dir_000029_000042.html" target="_top" xlink:title="4">
<text text-anchor="middle" x="324.72" y="-135.48" font-family="Helvetica,sans-Serif" font-size="10.00">4</text>
</a>
</g>
</g>
<!-- dir_9f3e3510a6b1118ca16f15fb1a233e04 -->
<g id="node6" class="node">
<title>dir_9f3e3510a6b1118ca16f15fb1a233e04</title>
<g id="a_node6"><a xlink:href="dir_9f3e3510a6b1118ca16f15fb1a233e04.html" target="_top" xlink:title="fsi">
<polygon fill="white" stroke="black" points="222,-196 168,-196 168,-160 222,-160 222,-196"/>
<text text-anchor="middle" x="195" y="-175.5" font-family="Helvetica,sans-Serif" font-size="10.00">fsi</text>
</a>
</g>
</g>
<!-- dir_9f3e3510a6b1118ca16f15fb1a233e04&#45;&gt;dir_90a4e20af6a1458dc6efaa8a376a9224 -->
<g id="edge2" class="edge">
<title>dir_9f3e3510a6b1118ca16f15fb1a233e04&#45;&gt;dir_90a4e20af6a1458dc6efaa8a376a9224</title>
<path fill="none" stroke="black" d="M222.03,-164.45C225.38,-162.93 228.76,-161.42 232,-160 266.98,-144.65 278.83,-142.29 312.61,-126.5"/>
<polygon fill="black" stroke="black" points="314.17,-129.63 321.7,-122.18 311.16,-123.31 314.17,-129.63"/>
<g id="a_edge2&#45;headlabel"><a xlink:href="dir_000021_000042.html" target="_top" xlink:title="2">
<text text-anchor="middle" x="312.14" y="-131.24" font-family="Helvetica,sans-Serif" font-size="10.00">2</text>
</a>
</g>
</g>
<!-- dir_4150fe609639814b198f19b0b83efef9 -->
<g id="node7" class="node">
<title>dir_4150fe609639814b198f19b0b83efef9</title>
<g id="a_node7"><a xlink:href="dir_4150fe609639814b198f19b0b83efef9.html" target="_top" xlink:title="solids">
<polygon fill="white" stroke="black" points="78,-196 24,-196 24,-160 78,-160 78,-196"/>
<text text-anchor="middle" x="51" y="-175.5" font-family="Helvetica,sans-Serif" font-size="10.00">solids</text>
</a>
</g>
</g>
</g>
</svg>
