<?xml version="1.0" encoding="UTF-8" standalone="no"?>
<!DOCTYPE svg PUBLIC "-//W3C//DTD SVG 1.1//EN"
 "http://www.w3.org/Graphics/SVG/1.1/DTD/svg11.dtd">
<!-- Generated by graphviz version 2.43.0 (0)
 -->
<!-- Title: master_element Pages: 1 -->
<svg width="136pt" height="167pt"
 viewBox="0.00 0.00 136.00 167.00" xmlns="http://www.w3.org/2000/svg" xmlns:xlink="http://www.w3.org/1999/xlink">
<g id="graph0" class="graph" transform="scale(1 1) rotate(0) translate(4 163)">
<title>master_element</title>
<polygon fill="white" stroke="transparent" points="-4,4 -4,-163 132,-163 132,4 -4,4"/>
<g id="clust1" class="cluster">
<title>clusterdir_d44c64559bbebec7f509842c48db8b23</title>
<g id="a_clust1"><a xlink:href="dir_d44c64559bbebec7f509842c48db8b23.html" target="_top" xlink:title="include">
<polygon fill="#ddddee" stroke="black" points="8,-8 8,-151 120,-151 120,-8 8,-8"/>
<text text-anchor="middle" x="64" y="-139" font-family="Helvetica,sans-Serif" font-size="10.00">include</text>
</a>
</g>
</g>
<!-- dir_821002d4f10779a80d4fb17bc32f21f1 -->
<g id="node1" class="node">
<title>dir_821002d4f10779a80d4fb17bc32f21f1</title>
<g id="a_node1"><a xlink:href="dir_821002d4f10779a80d4fb17bc32f21f1.html" target="_top" xlink:title="utils">
<polygon fill="none" stroke="black" points="91,-52 37,-52 37,-16 91,-16 91,-52"/>
<text text-anchor="middle" x="64" y="-31.5" font-family="Helvetica,sans-Serif" font-size="10.00">utils</text>
</a>
</g>
</g>
<!-- dir_c9a0c753886135922068087f5d9e5878 -->
<g id="node2" class="node">
<title>dir_c9a0c753886135922068087f5d9e5878</title>
<g id="a_node2"><a xlink:href="dir_c9a0c753886135922068087f5d9e5878.html" target="_top" xlink:title="master_element">
<polygon fill="#eeeeff" stroke="black" points="112.5,-124 15.5,-124 15.5,-88 112.5,-88 112.5,-124"/>
<text text-anchor="middle" x="64" y="-103.5" font-family="Helvetica,sans-Serif" font-size="10.00">master_element</text>
</a>
</g>
</g>
<!-- dir_c9a0c753886135922068087f5d9e5878&#45;&gt;dir_821002d4f10779a80d4fb17bc32f21f1 -->
<g id="edge1" class="edge">
<title>dir_c9a0c753886135922068087f5d9e5878&#45;&gt;dir_821002d4f10779a80d4fb17bc32f21f1</title>
<path fill="none" stroke="black" d="M64,-87.7C64,-79.98 64,-70.71 64,-62.11"/>
<polygon fill="black" stroke="black" points="67.5,-62.1 64,-52.1 60.5,-62.1 67.5,-62.1"/>
<g id="a_edge1&#45;headlabel"><a xlink:href="dir_000030_000012.html" target="_top" xlink:title="1">
<text text-anchor="middle" x="70.34" y="-63.2" font-family="Helvetica,sans-Serif" font-size="10.00">1</text>
</a>
</g>
</g>
</g>
</svg>
