<?xml version="1.0" encoding="UTF-8" standalone="no"?>
<!DOCTYPE svg PUBLIC "-//W3C//DTD SVG 1.1//EN"
 "http://www.w3.org/Graphics/SVG/1.1/DTD/svg11.dtd">
<!-- Generated by graphviz version 2.43.0 (0)
 -->
<!-- Title: ngp_utils Pages: 1 -->
<svg width="157pt" height="239pt"
 viewBox="0.00 0.00 157.00 239.00" xmlns="http://www.w3.org/2000/svg" xmlns:xlink="http://www.w3.org/1999/xlink">
<g id="graph0" class="graph" transform="scale(1 1) rotate(0) translate(4 235)">
<title>ngp_utils</title>
<polygon fill="white" stroke="transparent" points="-4,4 -4,-235 153,-235 153,4 -4,4"/>
<g id="clust1" class="cluster">
<title>clusterdir_d44c64559bbebec7f509842c48db8b23</title>
<g id="a_clust1"><a xlink:href="dir_d44c64559bbebec7f509842c48db8b23.html" target="_top" xlink:title="include">
<polygon fill="#ddddee" stroke="black" points="8,-8 8,-223 141,-223 141,-8 8,-8"/>
<text text-anchor="middle" x="74.5" y="-211" font-family="Helvetica,sans-Serif" font-size="10.00">include</text>
</a>
</g>
</g>
<!-- dir_821002d4f10779a80d4fb17bc32f21f1 -->
<g id="node1" class="node">
<title>dir_821002d4f10779a80d4fb17bc32f21f1</title>
<g id="a_node1"><a xlink:href="dir_821002d4f10779a80d4fb17bc32f21f1.html" target="_top" xlink:title="utils">
<polygon fill="none" stroke="black" points="91,-52 37,-52 37,-16 91,-16 91,-52"/>
<text text-anchor="middle" x="64" y="-31.5" font-family="Helvetica,sans-Serif" font-size="10.00">utils</text>
</a>
</g>
</g>
<!-- dir_c9a0c753886135922068087f5d9e5878 -->
<g id="node2" class="node">
<title>dir_c9a0c753886135922068087f5d9e5878</title>
<g id="a_node2"><a xlink:href="dir_c9a0c753886135922068087f5d9e5878.html" target="_top" xlink:title="master_element">
<polygon fill="none" stroke="black" points="133.5,-124 36.5,-124 36.5,-88 133.5,-88 133.5,-124"/>
<text text-anchor="middle" x="85" y="-103.5" font-family="Helvetica,sans-Serif" font-size="10.00">master_element</text>
</a>
</g>
</g>
<!-- dir_c9a0c753886135922068087f5d9e5878&#45;&gt;dir_821002d4f10779a80d4fb17bc32f21f1 -->
<g id="edge3" class="edge">
<title>dir_c9a0c753886135922068087f5d9e5878&#45;&gt;dir_821002d4f10779a80d4fb17bc32f21f1</title>
<path fill="none" stroke="black" d="M79.81,-87.7C77.47,-79.9 74.65,-70.51 72.05,-61.83"/>
<polygon fill="black" stroke="black" points="75.36,-60.68 69.13,-52.1 68.65,-62.69 75.36,-60.68"/>
<g id="a_edge3&#45;headlabel"><a xlink:href="dir_000030_000012.html" target="_top" xlink:title="1">
<text text-anchor="middle" x="79.11" y="-60.8" font-family="Helvetica,sans-Serif" font-size="10.00">1</text>
</a>
</g>
</g>
<!-- dir_abde9a9987e0621523b6e0cb4ed7f7a8 -->
<g id="node3" class="node">
<title>dir_abde9a9987e0621523b6e0cb4ed7f7a8</title>
<g id="a_node3"><a xlink:href="dir_abde9a9987e0621523b6e0cb4ed7f7a8.html" target="_top" xlink:title="ngp_utils">
<polygon fill="#eeeeff" stroke="black" points="96.5,-196 35.5,-196 35.5,-160 96.5,-160 96.5,-196"/>
<text text-anchor="middle" x="66" y="-175.5" font-family="Helvetica,sans-Serif" font-size="10.00">ngp_utils</text>
</a>
</g>
</g>
<!-- dir_abde9a9987e0621523b6e0cb4ed7f7a8&#45;&gt;dir_821002d4f10779a80d4fb17bc32f21f1 -->
<g id="edge1" class="edge">
<title>dir_abde9a9987e0621523b6e0cb4ed7f7a8&#45;&gt;dir_821002d4f10779a80d4fb17bc32f21f1</title>
<path fill="none" stroke="black" d="M49.54,-159.92C41.35,-150.22 32.3,-137.37 28,-124 23.1,-108.77 23.3,-103.29 28,-88 31.01,-78.22 36.51,-68.62 42.32,-60.33"/>
<polygon fill="black" stroke="black" points="45.19,-62.33 48.39,-52.23 39.59,-58.13 45.19,-62.33"/>
<g id="a_edge1&#45;headlabel"><a xlink:href="dir_000040_000012.html" target="_top" xlink:title="1">
<text text-anchor="middle" x="45.31" y="-64.41" font-family="Helvetica,sans-Serif" font-size="10.00">1</text>
</a>
</g>
</g>
<!-- dir_abde9a9987e0621523b6e0cb4ed7f7a8&#45;&gt;dir_c9a0c753886135922068087f5d9e5878 -->
<g id="edge2" class="edge">
<title>dir_abde9a9987e0621523b6e0cb4ed7f7a8&#45;&gt;dir_c9a0c753886135922068087f5d9e5878</title>
<path fill="none" stroke="black" d="M70.7,-159.7C72.81,-151.9 75.36,-142.51 77.72,-133.83"/>
<polygon fill="black" stroke="black" points="81.12,-134.67 80.36,-124.1 74.36,-132.84 81.12,-134.67"/>
<g id="a_edge2&#45;headlabel"><a xlink:href="dir_000040_000030.html" target="_top" xlink:title="1">
<text text-anchor="middle" x="82.91" y="-136.38" font-family="Helvetica,sans-Serif" font-size="10.00">1</text>
</a>
</g>
</g>
</g>
</svg>
