<?xml version="1.0" encoding="UTF-8" standalone="no"?>
<!DOCTYPE svg PUBLIC "-//W3C//DTD SVG 1.1//EN"
 "http://www.w3.org/Graphics/SVG/1.1/DTD/svg11.dtd">
<!-- Generated by graphviz version 2.43.0 (0)
 -->
<!-- Title: element_promotion Pages: 1 -->
<svg width="154pt" height="151pt"
 viewBox="0.00 0.00 154.00 151.00" xmlns="http://www.w3.org/2000/svg" xmlns:xlink="http://www.w3.org/1999/xlink">
<g id="graph0" class="graph" transform="scale(1 1) rotate(0) translate(4 147)">
<title>element_promotion</title>
<polygon fill="white" stroke="transparent" points="-4,4 -4,-147 150,-147 150,4 -4,4"/>
<g id="clust1" class="cluster">
<title>clusterdir_68267d1309a1af8e8297ef4c3efbcdba</title>
<g id="a_clust1"><a xlink:href="dir_68267d1309a1af8e8297ef4c3efbcdba.html" target="_top" xlink:title="src">
<polygon fill="#ddddee" stroke="black" points="8,-64 8,-135 138,-135 138,-64 8,-64"/>
<text text-anchor="middle" x="73" y="-123" font-family="Helvetica,sans-Serif" font-size="10.00">src</text>
</a>
</g>
</g>
<!-- dir_959e2400a5b153d3f71cf7af47495838 -->
<g id="node1" class="node">
<title>dir_959e2400a5b153d3f71cf7af47495838</title>
<g id="a_node1"><a xlink:href="dir_959e2400a5b153d3f71cf7af47495838.html" target="_top" xlink:title="element_promotion">
<polygon fill="#eeeeff" stroke="black" points="129.5,-108 16.5,-108 16.5,-72 129.5,-72 129.5,-108"/>
<text text-anchor="middle" x="73" y="-87.5" font-family="Helvetica,sans-Serif" font-size="10.00">element_promotion</text>
</a>
</g>
</g>
<!-- dir_d44c64559bbebec7f509842c48db8b23 -->
<g id="node2" class="node">
<title>dir_d44c64559bbebec7f509842c48db8b23</title>
<g id="a_node2"><a xlink:href="dir_d44c64559bbebec7f509842c48db8b23.html" target="_top" xlink:title="include">
<polygon fill="white" stroke="red" points="100,-36 46,-36 46,0 100,0 100,-36"/>
<text text-anchor="middle" x="73" y="-15.5" font-family="Helvetica,sans-Serif" font-size="10.00">include</text>
</a>
</g>
</g>
<!-- dir_959e2400a5b153d3f71cf7af47495838&#45;&gt;dir_d44c64559bbebec7f509842c48db8b23 -->
<g id="edge1" class="edge">
<title>dir_959e2400a5b153d3f71cf7af47495838&#45;&gt;dir_d44c64559bbebec7f509842c48db8b23</title>
<path fill="none" stroke="black" d="M73,-71.7C73,-63.98 73,-54.71 73,-46.11"/>
<polygon fill="black" stroke="black" points="76.5,-46.1 73,-36.1 69.5,-46.1 76.5,-46.1"/>
<g id="a_edge1&#45;headlabel"><a xlink:href="dir_000035_000002.html" target="_top" xlink:title="15">
<text text-anchor="middle" x="79.34" y="-47.2" font-family="Helvetica,sans-Serif" font-size="10.00">15</text>
</a>
</g>
</g>
</g>
</svg>
