<?xml version="1.0" encoding="UTF-8" standalone="no"?>
<!DOCTYPE svg PUBLIC "-//W3C//DTD SVG 1.1//EN"
 "http://www.w3.org/Graphics/SVG/1.1/DTD/svg11.dtd">
<!-- Generated by graphviz version 2.43.0 (0)
 -->
<!-- Title: displacements.h Pages: 1 -->
<svg width="474pt" height="364pt"
 viewBox="0.00 0.00 474.20 364.00" xmlns="http://www.w3.org/2000/svg" xmlns:xlink="http://www.w3.org/1999/xlink">
<g id="graph0" class="graph" transform="scale(1 1) rotate(0) translate(4 360)">
<title>displacements.h</title>
<polygon fill="white" stroke="transparent" points="-4,4 -4,-360 470.2,-360 470.2,4 -4,4"/>
<!-- Node1 -->
<g id="node1" class="node">
<title>Node1</title>
<g id="a_node1"><a xlink:title=" ">
<polygon fill="#bfbfbf" stroke="black" points="134,-336.5 134,-355.5 231,-355.5 231,-336.5 134,-336.5"/>
<text text-anchor="middle" x="182.5" y="-343.5" font-family="Helvetica,sans-Serif" font-size="10.00">displacements.h</text>
</a>
</g>
</g>
<!-- Node2 -->
<g id="node2" class="node">
<title>Node2</title>
<g id="a_node2"><a xlink:href="vector_8h.html" target="_top" xlink:title=" ">
<polygon fill="white" stroke="black" points="124.5,-112.5 124.5,-131.5 194.5,-131.5 194.5,-112.5 124.5,-112.5"/>
<text text-anchor="middle" x="159.5" y="-119.5" font-family="Helvetica,sans-Serif" font-size="10.00">vs/vector.h</text>
</a>
</g>
</g>
<!-- Node1&#45;&gt;Node2 -->
<g id="edge1" class="edge">
<title>Node1&#45;&gt;Node2</title>
<path fill="none" stroke="midnightblue" d="M135.17,-336.42C114.4,-330.05 91.95,-319.02 79.5,-300 43.41,-244.85 109.05,-170.75 142.13,-138.77"/>
<polygon fill="midnightblue" stroke="midnightblue" points="144.87,-140.99 149.75,-131.59 140.07,-135.9 144.87,-140.99"/>
</g>
<!-- Node10 -->
<g id="node10" class="node">
<title>Node10</title>
<g id="a_node10"><a xlink:title=" ">
<polygon fill="white" stroke="#bfbfbf" points="270,-224.5 270,-243.5 383,-243.5 383,-224.5 270,-224.5"/>
<text text-anchor="middle" x="326.5" y="-231.5" font-family="Helvetica,sans-Serif" font-size="10.00">Kokkos_Macros.hpp</text>
</a>
</g>
</g>
<!-- Node1&#45;&gt;Node10 -->
<g id="edge10" class="edge">
<title>Node1&#45;&gt;Node10</title>
<path fill="none" stroke="midnightblue" d="M214.49,-336.47C236.33,-329.43 264.93,-317.68 285.5,-300 300.48,-287.12 311.85,-267.4 318.77,-253.05"/>
<polygon fill="midnightblue" stroke="midnightblue" points="322.05,-254.29 323.01,-243.74 315.68,-251.39 322.05,-254.29"/>
</g>
<!-- Node11 -->
<g id="node11" class="node">
<title>Node11</title>
<g id="a_node11"><a xlink:href="_wiener_milenkovic_8h.html" target="_top" xlink:title=" ">
<polygon fill="white" stroke="black" points="88.5,-280.5 88.5,-299.5 276.5,-299.5 276.5,-280.5 88.5,-280.5"/>
<text text-anchor="middle" x="182.5" y="-287.5" font-family="Helvetica,sans-Serif" font-size="10.00">aero/aero_utils/WienerMilenkovic.h</text>
</a>
</g>
</g>
<!-- Node1&#45;&gt;Node11 -->
<g id="edge11" class="edge">
<title>Node1&#45;&gt;Node11</title>
<path fill="none" stroke="midnightblue" d="M182.5,-336.08C182.5,-329.01 182.5,-318.86 182.5,-309.99"/>
<polygon fill="midnightblue" stroke="midnightblue" points="186,-309.75 182.5,-299.75 179,-309.75 186,-309.75"/>
</g>
<!-- Node3 -->
<g id="node3" class="node">
<title>Node3</title>
<g id="a_node3"><a xlink:title=" ">
<polygon fill="white" stroke="#bfbfbf" points="363.5,-0.5 363.5,-19.5 463.5,-19.5 463.5,-0.5 363.5,-0.5"/>
<text text-anchor="middle" x="413.5" y="-7.5" font-family="Helvetica,sans-Serif" font-size="10.00">Kokkos_Core.hpp</text>
</a>
</g>
</g>
<!-- Node2&#45;&gt;Node3 -->
<g id="edge2" class="edge">
<title>Node2&#45;&gt;Node3</title>
<path fill="none" stroke="midnightblue" d="M187.39,-112.43C213.61,-104.08 253.76,-90.55 287.5,-76 323.98,-60.27 364.54,-38.54 389.54,-24.63"/>
<polygon fill="midnightblue" stroke="midnightblue" points="391.3,-27.65 398.31,-19.71 387.88,-21.54 391.3,-27.65"/>
</g>
<!-- Node4 -->
<g id="node4" class="node">
<title>Node4</title>
<g id="a_node4"><a xlink:href="vstraits_8h.html" target="_top" xlink:title=" ">
<polygon fill="white" stroke="black" points="202,-56.5 202,-75.5 279,-75.5 279,-56.5 202,-56.5"/>
<text text-anchor="middle" x="240.5" y="-63.5" font-family="Helvetica,sans-Serif" font-size="10.00">vs/vstraits.h</text>
</a>
</g>
</g>
<!-- Node2&#45;&gt;Node4 -->
<g id="edge3" class="edge">
<title>Node2&#45;&gt;Node4</title>
<path fill="none" stroke="midnightblue" d="M172.51,-112.32C185.03,-103.98 204.18,-91.21 218.97,-81.35"/>
<polygon fill="midnightblue" stroke="midnightblue" points="221.14,-84.11 227.52,-75.65 217.26,-78.29 221.14,-84.11"/>
</g>
<!-- Node6 -->
<g id="node6" class="node">
<title>Node6</title>
<g id="a_node6"><a xlink:href="vector_i_8h.html" target="_top" xlink:title=" ">
<polygon fill="white" stroke="black" points="109.5,-56.5 109.5,-75.5 183.5,-75.5 183.5,-56.5 109.5,-56.5"/>
<text text-anchor="middle" x="146.5" y="-63.5" font-family="Helvetica,sans-Serif" font-size="10.00">vs/vectorI.h</text>
</a>
</g>
</g>
<!-- Node2&#45;&gt;Node6 -->
<g id="edge5" class="edge">
<title>Node2&#45;&gt;Node6</title>
<path fill="none" stroke="midnightblue" d="M152.19,-112.08C148.99,-105.01 146.11,-94.86 144.59,-85.99"/>
<polygon fill="midnightblue" stroke="midnightblue" points="148.04,-85.31 143.48,-75.75 141.08,-86.07 148.04,-85.31"/>
</g>
<!-- Node5 -->
<g id="node5" class="node">
<title>Node5</title>
<g id="a_node5"><a xlink:title=" ">
<polygon fill="white" stroke="#bfbfbf" points="220.5,-0.5 220.5,-19.5 264.5,-19.5 264.5,-0.5 220.5,-0.5"/>
<text text-anchor="middle" x="242.5" y="-7.5" font-family="Helvetica,sans-Serif" font-size="10.00">limits</text>
</a>
</g>
</g>
<!-- Node4&#45;&gt;Node5 -->
<g id="edge4" class="edge">
<title>Node4&#45;&gt;Node5</title>
<path fill="none" stroke="midnightblue" d="M240.83,-56.08C241.09,-49.01 241.47,-38.86 241.8,-29.99"/>
<polygon fill="midnightblue" stroke="midnightblue" points="245.3,-29.87 242.18,-19.75 238.31,-29.61 245.3,-29.87"/>
</g>
<!-- Node6&#45;&gt;Node2 -->
<g id="edge9" class="edge">
<title>Node6&#45;&gt;Node2</title>
<path fill="none" stroke="midnightblue" d="M153.74,-75.75C156.97,-82.86 159.9,-93.14 161.42,-102.1"/>
<polygon fill="midnightblue" stroke="midnightblue" points="157.95,-102.53 162.52,-112.08 164.91,-101.76 157.95,-102.53"/>
</g>
<!-- Node7 -->
<g id="node7" class="node">
<title>Node7</title>
<g id="a_node7"><a xlink:title=" ">
<polygon fill="white" stroke="#bfbfbf" points="145,-0.5 145,-19.5 202,-19.5 202,-0.5 145,-0.5"/>
<text text-anchor="middle" x="173.5" y="-7.5" font-family="Helvetica,sans-Serif" font-size="10.00">ostream</text>
</a>
</g>
</g>
<!-- Node6&#45;&gt;Node7 -->
<g id="edge6" class="edge">
<title>Node6&#45;&gt;Node7</title>
<path fill="none" stroke="midnightblue" d="M150.96,-56.08C154.65,-48.69 160.02,-37.95 164.59,-28.81"/>
<polygon fill="midnightblue" stroke="midnightblue" points="167.78,-30.26 169.12,-19.75 161.52,-27.13 167.78,-30.26"/>
</g>
<!-- Node8 -->
<g id="node8" class="node">
<title>Node8</title>
<g id="a_node8"><a xlink:title=" ">
<polygon fill="white" stroke="#bfbfbf" points="284,-0.5 284,-19.5 331,-19.5 331,-0.5 284,-0.5"/>
<text text-anchor="middle" x="307.5" y="-7.5" font-family="Helvetica,sans-Serif" font-size="10.00">cmath</text>
</a>
</g>
</g>
<!-- Node6&#45;&gt;Node8 -->
<g id="edge7" class="edge">
<title>Node6&#45;&gt;Node8</title>
<path fill="none" stroke="midnightblue" d="M172.01,-56.44C199.65,-47.17 243.87,-32.34 274.22,-22.16"/>
<polygon fill="midnightblue" stroke="midnightblue" points="275.57,-25.4 283.94,-18.9 273.35,-18.76 275.57,-25.4"/>
</g>
<!-- Node9 -->
<g id="node9" class="node">
<title>Node9</title>
<g id="a_node9"><a xlink:title=" ">
<polygon fill="white" stroke="#bfbfbf" points="0,-0.5 0,-19.5 127,-19.5 127,-0.5 0,-0.5"/>
<text text-anchor="middle" x="63.5" y="-7.5" font-family="Helvetica,sans-Serif" font-size="10.00">stk_math/StkMath.hpp</text>
</a>
</g>
</g>
<!-- Node6&#45;&gt;Node9 -->
<g id="edge8" class="edge">
<title>Node6&#45;&gt;Node9</title>
<path fill="none" stroke="midnightblue" d="M133.16,-56.32C120.34,-47.98 100.72,-35.21 85.56,-25.35"/>
<polygon fill="midnightblue" stroke="midnightblue" points="87.09,-22.17 76.8,-19.65 83.28,-28.04 87.09,-22.17"/>
</g>
<!-- Node11&#45;&gt;Node2 -->
<g id="edge12" class="edge">
<title>Node11&#45;&gt;Node2</title>
<path fill="none" stroke="midnightblue" d="M169.72,-280.37C159.11,-272.36 144.77,-259.38 138.5,-244 124.34,-209.26 139.57,-165.11 150.47,-140.9"/>
<polygon fill="midnightblue" stroke="midnightblue" points="153.78,-142.09 154.92,-131.56 147.46,-139.08 153.78,-142.09"/>
</g>
<!-- Node11&#45;&gt;Node9 -->
<g id="edge14" class="edge">
<title>Node11&#45;&gt;Node9</title>
<path fill="none" stroke="midnightblue" d="M165.37,-280.41C136.55,-264.61 81.5,-228 81.5,-179 81.5,-179 81.5,-179 81.5,-121 81.5,-88.54 73.77,-51.38 68.44,-29.63"/>
<polygon fill="midnightblue" stroke="midnightblue" points="71.79,-28.59 65.93,-19.76 65.01,-30.32 71.79,-28.59"/>
</g>
<!-- Node11&#45;&gt;Node10 -->
<g id="edge13" class="edge">
<title>Node11&#45;&gt;Node10</title>
<path fill="none" stroke="midnightblue" d="M205.32,-280.44C229.33,-271.44 267.33,-257.19 294.37,-247.05"/>
<polygon fill="midnightblue" stroke="midnightblue" points="295.66,-250.3 303.79,-243.52 293.2,-243.75 295.66,-250.3"/>
</g>
<!-- Node12 -->
<g id="node12" class="node">
<title>Node12</title>
<g id="a_node12"><a xlink:href="vector__space_8h.html" target="_top" xlink:title=" ">
<polygon fill="white" stroke="black" points="147.5,-224.5 147.5,-243.5 251.5,-243.5 251.5,-224.5 147.5,-224.5"/>
<text text-anchor="middle" x="199.5" y="-231.5" font-family="Helvetica,sans-Serif" font-size="10.00">vs/vector_space.h</text>
</a>
</g>
</g>
<!-- Node11&#45;&gt;Node12 -->
<g id="edge15" class="edge">
<title>Node11&#45;&gt;Node12</title>
<path fill="none" stroke="midnightblue" d="M185.31,-280.08C187.58,-272.85 190.87,-262.41 193.71,-253.4"/>
<polygon fill="midnightblue" stroke="midnightblue" points="197.08,-254.34 196.75,-243.75 190.4,-252.24 197.08,-254.34"/>
</g>
<!-- Node12&#45;&gt;Node2 -->
<g id="edge16" class="edge">
<title>Node12&#45;&gt;Node2</title>
<path fill="none" stroke="midnightblue" d="M196.36,-224.37C189.88,-206.54 174.88,-165.3 166.14,-141.27"/>
<polygon fill="midnightblue" stroke="midnightblue" points="169.33,-139.79 162.62,-131.59 162.75,-142.19 169.33,-139.79"/>
</g>
<!-- Node13 -->
<g id="node13" class="node">
<title>Node13</title>
<g id="a_node13"><a xlink:href="tensor_8h.html" target="_top" xlink:title=" ">
<polygon fill="white" stroke="black" points="216.5,-168.5 216.5,-187.5 286.5,-187.5 286.5,-168.5 216.5,-168.5"/>
<text text-anchor="middle" x="251.5" y="-175.5" font-family="Helvetica,sans-Serif" font-size="10.00">vs/tensor.h</text>
</a>
</g>
</g>
<!-- Node12&#45;&gt;Node13 -->
<g id="edge17" class="edge">
<title>Node12&#45;&gt;Node13</title>
<path fill="none" stroke="midnightblue" d="M208.09,-224.08C215.66,-216.22 226.88,-204.57 236.01,-195.08"/>
<polygon fill="midnightblue" stroke="midnightblue" points="238.66,-197.38 243.07,-187.75 233.62,-192.53 238.66,-197.38"/>
</g>
<!-- Node13&#45;&gt;Node2 -->
<g id="edge20" class="edge">
<title>Node13&#45;&gt;Node2</title>
<path fill="none" stroke="midnightblue" d="M236.72,-168.32C222.23,-159.82 199.93,-146.73 183.01,-136.8"/>
<polygon fill="midnightblue" stroke="midnightblue" points="184.64,-133.7 174.24,-131.65 181.1,-139.74 184.64,-133.7"/>
</g>
<!-- Node13&#45;&gt;Node3 -->
<g id="edge18" class="edge">
<title>Node13&#45;&gt;Node3</title>
<path fill="none" stroke="midnightblue" d="M286.56,-171.98C335.99,-162.8 424.4,-138.15 462.5,-76 473.73,-57.67 454.32,-38.18 436.71,-25.37"/>
<polygon fill="midnightblue" stroke="midnightblue" points="438.58,-22.41 428.35,-19.66 434.63,-28.19 438.58,-22.41"/>
</g>
<!-- Node13&#45;&gt;Node4 -->
<g id="edge19" class="edge">
<title>Node13&#45;&gt;Node4</title>
<path fill="none" stroke="midnightblue" d="M250.64,-168.37C248.86,-150.62 244.77,-109.67 242.36,-85.6"/>
<polygon fill="midnightblue" stroke="midnightblue" points="245.84,-85.19 241.36,-75.59 238.87,-85.89 245.84,-85.19"/>
</g>
<!-- Node14 -->
<g id="node14" class="node">
<title>Node14</title>
<g id="a_node14"><a xlink:href="tensor_i_8h.html" target="_top" xlink:title=" ">
<polygon fill="white" stroke="black" points="269.5,-112.5 269.5,-131.5 343.5,-131.5 343.5,-112.5 269.5,-112.5"/>
<text text-anchor="middle" x="306.5" y="-119.5" font-family="Helvetica,sans-Serif" font-size="10.00">vs/tensorI.h</text>
</a>
</g>
</g>
<!-- Node13&#45;&gt;Node14 -->
<g id="edge21" class="edge">
<title>Node13&#45;&gt;Node14</title>
<path fill="none" stroke="midnightblue" d="M255.42,-168.08C261.96,-159.98 273.97,-147.87 284.84,-138.23"/>
<polygon fill="midnightblue" stroke="midnightblue" points="287.11,-140.9 292.46,-131.75 282.57,-135.57 287.11,-140.9"/>
</g>
<!-- Node14&#45;&gt;Node8 -->
<g id="edge22" class="edge">
<title>Node14&#45;&gt;Node8</title>
<path fill="none" stroke="midnightblue" d="M306.58,-112.37C306.74,-94.62 307.11,-53.67 307.33,-29.6"/>
<polygon fill="midnightblue" stroke="midnightblue" points="310.83,-29.62 307.42,-19.59 303.83,-29.56 310.83,-29.62"/>
</g>
<!-- Node14&#45;&gt;Node13 -->
<g id="edge23" class="edge">
<title>Node14&#45;&gt;Node13</title>
<path fill="none" stroke="midnightblue" d="M302.65,-131.83C296.11,-139.95 284.02,-152.15 273.1,-161.82"/>
<polygon fill="midnightblue" stroke="midnightblue" points="270.8,-159.18 265.45,-168.32 275.34,-164.51 270.8,-159.18"/>
</g>
<!-- Node15 -->
<g id="node15" class="node">
<title>Node15</title>
<g id="a_node15"><a xlink:href="trig__ops_8h.html" target="_top" xlink:title="Trigonometric utilities.">
<polygon fill="white" stroke="black" points="374,-56.5 374,-75.5 453,-75.5 453,-56.5 374,-56.5"/>
<text text-anchor="middle" x="413.5" y="-63.5" font-family="Helvetica,sans-Serif" font-size="10.00">vs/trig_ops.h</text>
</a>
</g>
</g>
<!-- Node14&#45;&gt;Node15 -->
<g id="edge24" class="edge">
<title>Node14&#45;&gt;Node15</title>
<path fill="none" stroke="midnightblue" d="M323.69,-112.32C340.85,-103.66 367.45,-90.24 387.25,-80.25"/>
<polygon fill="midnightblue" stroke="midnightblue" points="389,-83.28 396.35,-75.65 385.85,-77.04 389,-83.28"/>
</g>
<!-- Node15&#45;&gt;Node3 -->
<g id="edge26" class="edge">
<title>Node15&#45;&gt;Node3</title>
<path fill="none" stroke="midnightblue" d="M413.5,-56.08C413.5,-49.01 413.5,-38.86 413.5,-29.99"/>
<polygon fill="midnightblue" stroke="midnightblue" points="417,-29.75 413.5,-19.75 410,-29.75 417,-29.75"/>
</g>
<!-- Node15&#45;&gt;Node8 -->
<g id="edge25" class="edge">
<title>Node15&#45;&gt;Node8</title>
<path fill="none" stroke="midnightblue" d="M396.47,-56.32C379.47,-47.66 353.12,-34.24 333.51,-24.25"/>
<polygon fill="midnightblue" stroke="midnightblue" points="334.99,-21.08 324.49,-19.65 331.81,-27.31 334.99,-21.08"/>
</g>
</g>
</svg>
