<?xml version="1.0" encoding="UTF-8" standalone="no"?>
<!DOCTYPE svg PUBLIC "-//W3C//DTD SVG 1.1//EN"
 "http://www.w3.org/Graphics/SVG/1.1/DTD/svg11.dtd">
<!-- Generated by graphviz version 2.43.0 (0)
 -->
<!-- Title: Graphical Class Hierarchy Pages: 1 -->
<svg width="515pt" height="38pt"
 viewBox="0.00 0.00 515.00 38.00" xmlns="http://www.w3.org/2000/svg" xmlns:xlink="http://www.w3.org/1999/xlink">
<g id="graph0" class="graph" transform="scale(1 1) rotate(0) translate(4 34)">
<title>Graphical Class Hierarchy</title>
<!-- Node0 -->
<g id="Node000000" class="node">
<title>Node0</title>
<g id="a_Node000000"><a xlink:href="classsierra_1_1nalu_1_1_linear_solver.html" target="_top" xlink:title="An abstract representation of a linear solver in Nalu.">
<polygon fill="white" stroke="#666666" points="138,-24.5 0,-24.5 0,-5.5 138,-5.5 138,-24.5"/>
<text text-anchor="middle" x="69" y="-12.5" font-family="Helvetica,sans-Serif" font-size="10.00">sierra::nalu::LinearSolver</text>
</a>
</g>
</g>
<!-- Node1 -->
<g id="Node000001" class="node">
<title>Node1</title>
<g id="a_Node000001"><a xlink:href="classsierra_1_1nalu_1_1_hypre_direct_solver.html" target="_top" xlink:title="Nalu interface to Hypre Solvers and Preconditioners.">
<polygon fill="white" stroke="#666666" points="310,-30 174,-30 174,0 310,0 310,-30"/>
<text text-anchor="start" x="182" y="-18" font-family="Helvetica,sans-Serif" font-size="10.00">sierra::nalu::HypreDirect</text>
<text text-anchor="middle" x="242" y="-7" font-family="Helvetica,sans-Serif" font-size="10.00">Solver</text>
</a>
</g>
</g>
<!-- Node0&#45;&gt;Node1 -->
<g id="edge229_Node000000_Node000001" class="edge">
<title>Node0&#45;&gt;Node1</title>
<g id="a_edge229_Node000000_Node000001"><a xlink:title=" ">
<path fill="none" stroke="#63b8ff" d="M148.14,-15C156.78,-15 165.52,-15 174,-15"/>
<polygon fill="#63b8ff" stroke="#63b8ff" points="148.08,-11.5 138.08,-15 148.08,-18.5 148.08,-11.5"/>
</a>
</g>
</g>
<!-- Node2 -->
<g id="Node000002" class="node">
<title>Node2</title>
<g id="a_Node000002"><a xlink:href="classsierra_1_1nalu_1_1_hypre_u_v_w_solver.html" target="_top" xlink:title=" ">
<polygon fill="white" stroke="#666666" points="507,-24.5 346,-24.5 346,-5.5 507,-5.5 507,-24.5"/>
<text text-anchor="middle" x="426.5" y="-12.5" font-family="Helvetica,sans-Serif" font-size="10.00">sierra::nalu::HypreUVWSolver</text>
</a>
</g>
</g>
<!-- Node1&#45;&gt;Node2 -->
<g id="edge230_Node000001_Node000002" class="edge">
<title>Node1&#45;&gt;Node2</title>
<g id="a_edge230_Node000001_Node000002"><a xlink:title=" ">
<path fill="none" stroke="#63b8ff" d="M320.35,-15C328.76,-15 337.34,-15 345.79,-15"/>
<polygon fill="#63b8ff" stroke="#63b8ff" points="320.18,-11.5 310.18,-15 320.18,-18.5 320.18,-11.5"/>
</a>
</g>
</g>
</g>
</svg>
