<?xml version="1.0" encoding="UTF-8" standalone="no"?>
<!DOCTYPE svg PUBLIC "-//W3C//DTD SVG 1.1//EN"
 "http://www.w3.org/Graphics/SVG/1.1/DTD/svg11.dtd">
<!-- Generated by graphviz version 2.43.0 (0)
 -->
<!-- Title: Graphical Class Hierarchy Pages: 1 -->
<svg width="549pt" height="134pt"
 viewBox="0.00 0.00 549.00 134.00" xmlns="http://www.w3.org/2000/svg" xmlns:xlink="http://www.w3.org/1999/xlink">
<g id="graph0" class="graph" transform="scale(1 1) rotate(0) translate(4 130)">
<title>Graphical Class Hierarchy</title>
<!-- Node0 -->
<g id="Node000000" class="node">
<title>Node0</title>
<g id="a_Node000000"><a xlink:href="classsierra_1_1nalu_1_1_linear_system.html" target="_top" xlink:title=" ">
<polygon fill="white" stroke="#666666" points="144,-72.5 0,-72.5 0,-53.5 144,-53.5 144,-72.5"/>
<text text-anchor="middle" x="72" y="-60.5" font-family="Helvetica,sans-Serif" font-size="10.00">sierra::nalu::LinearSystem</text>
</a>
</g>
</g>
<!-- Node1 -->
<g id="Node000001" class="node">
<title>Node1</title>
<g id="a_Node000001"><a xlink:href="classsierra_1_1nalu_1_1_hypre_linear_system.html" target="_top" xlink:title="Nalu interface to populate a Hypre Linear System.">
<polygon fill="white" stroke="#666666" points="330.5,-126 193.5,-126 193.5,-96 330.5,-96 330.5,-126"/>
<text text-anchor="start" x="201.5" y="-114" font-family="Helvetica,sans-Serif" font-size="10.00">sierra::nalu::HypreLinear</text>
<text text-anchor="middle" x="262" y="-103" font-family="Helvetica,sans-Serif" font-size="10.00">System</text>
</a>
</g>
</g>
<!-- Node0&#45;&gt;Node1 -->
<g id="edge233_Node000000_Node000001" class="edge">
<title>Node0&#45;&gt;Node1</title>
<g id="a_edge233_Node000000_Node000001"><a xlink:title=" ">
<path fill="none" stroke="#63b8ff" d="M120.47,-75.12C145.23,-81.44 175.74,-89.23 202,-95.94"/>
<polygon fill="#63b8ff" stroke="#63b8ff" points="121.15,-71.68 110.59,-72.6 119.42,-78.46 121.15,-71.68"/>
</a>
</g>
</g>
<!-- Node3 -->
<g id="Node000003" class="node">
<title>Node3</title>
<g id="a_Node000003"><a xlink:href="classsierra_1_1nalu_1_1_tpetra_linear_system.html" target="_top" xlink:title=" ">
<polygon fill="white" stroke="#666666" points="331.5,-78 192.5,-78 192.5,-48 331.5,-48 331.5,-78"/>
<text text-anchor="start" x="200.5" y="-66" font-family="Helvetica,sans-Serif" font-size="10.00">sierra::nalu::TpetraLinear</text>
<text text-anchor="middle" x="262" y="-55" font-family="Helvetica,sans-Serif" font-size="10.00">System</text>
</a>
</g>
</g>
<!-- Node0&#45;&gt;Node3 -->
<g id="edge235_Node000000_Node000003" class="edge">
<title>Node0&#45;&gt;Node3</title>
<g id="a_edge235_Node000000_Node000003"><a xlink:title=" ">
<path fill="none" stroke="#63b8ff" d="M154.18,-63C166.89,-63 179.92,-63 192.31,-63"/>
<polygon fill="#63b8ff" stroke="#63b8ff" points="154.07,-59.5 144.07,-63 154.07,-66.5 154.07,-59.5"/>
</a>
</g>
</g>
<!-- Node4 -->
<g id="Node000004" class="node">
<title>Node4</title>
<g id="a_Node000004"><a xlink:href="classsierra_1_1nalu_1_1_tpetra_segregated_linear_system.html" target="_top" xlink:title=" ">
<polygon fill="white" stroke="#666666" points="344,-30 180,-30 180,0 344,0 344,-30"/>
<text text-anchor="start" x="188" y="-18" font-family="Helvetica,sans-Serif" font-size="10.00">sierra::nalu::TpetraSegregated</text>
<text text-anchor="middle" x="262" y="-7" font-family="Helvetica,sans-Serif" font-size="10.00">LinearSystem</text>
</a>
</g>
</g>
<!-- Node0&#45;&gt;Node4 -->
<g id="edge236_Node000000_Node000004" class="edge">
<title>Node0&#45;&gt;Node4</title>
<g id="a_edge236_Node000000_Node000004"><a xlink:title=" ">
<path fill="none" stroke="#63b8ff" d="M120.47,-50.88C145.23,-44.56 175.74,-36.77 202,-30.06"/>
<polygon fill="#63b8ff" stroke="#63b8ff" points="119.42,-47.54 110.59,-53.4 121.15,-54.32 119.42,-47.54"/>
</a>
</g>
</g>
<!-- Node2 -->
<g id="Node000002" class="node">
<title>Node2</title>
<g id="a_Node000002"><a xlink:href="classsierra_1_1nalu_1_1_hypre_u_v_w_linear_system.html" target="_top" xlink:title=" ">
<polygon fill="white" stroke="#666666" points="541,-126 380,-126 380,-96 541,-96 541,-126"/>
<text text-anchor="start" x="388" y="-114" font-family="Helvetica,sans-Serif" font-size="10.00">sierra::nalu::HypreUVWLinear</text>
<text text-anchor="middle" x="460.5" y="-103" font-family="Helvetica,sans-Serif" font-size="10.00">System</text>
</a>
</g>
</g>
<!-- Node1&#45;&gt;Node2 -->
<g id="edge234_Node000001_Node000002" class="edge">
<title>Node1&#45;&gt;Node2</title>
<g id="a_edge234_Node000001_Node000002"><a xlink:title=" ">
<path fill="none" stroke="#63b8ff" d="M340.81,-111C353.67,-111 367.01,-111 379.91,-111"/>
<polygon fill="#63b8ff" stroke="#63b8ff" points="340.62,-107.5 330.62,-111 340.62,-114.5 340.62,-107.5"/>
</a>
</g>
</g>
</g>
</svg>
