<?xml version="1.0" encoding="UTF-8" standalone="no"?>
<!DOCTYPE svg PUBLIC "-//W3C//DTD SVG 1.1//EN"
 "http://www.w3.org/Graphics/SVG/1.1/DTD/svg11.dtd">
<!-- Generated by graphviz version 2.43.0 (0)
 -->
<!-- Title: sierra::nalu::nalu_ngp::impl::SimpleNodeFieldOp&lt; Mesh, Field &gt;::Ops Pages: 1 -->
<svg width="227pt" height="128pt"
 viewBox="0.00 0.00 227.00 128.00" xmlns="http://www.w3.org/2000/svg" xmlns:xlink="http://www.w3.org/1999/xlink">
<g id="graph0" class="graph" transform="scale(1 1) rotate(0) translate(4 124)">
<title>sierra::nalu::nalu_ngp::impl::SimpleNodeFieldOp&lt; Mesh, Field &gt;::Ops</title>
<polygon fill="white" stroke="transparent" points="-4,4 -4,-124 223,-124 223,4 -4,4"/>
<!-- Node1 -->
<g id="node1" class="node">
<title>Node1</title>
<g id="a_node1"><a xlink:title="Implementation of supported operators for nodal fields.">
<polygon fill="#bfbfbf" stroke="black" points="0,-0.5 0,-41.5 156,-41.5 156,-0.5 0,-0.5"/>
<text text-anchor="start" x="8" y="-29.5" font-family="Helvetica,sans-Serif" font-size="10.00">sierra::nalu::nalu</text>
<text text-anchor="start" x="8" y="-18.5" font-family="Helvetica,sans-Serif" font-size="10.00">_ngp::impl::SimpleNodeField</text>
<text text-anchor="middle" x="78" y="-7.5" font-family="Helvetica,sans-Serif" font-size="10.00">Op&lt; Mesh, Field &gt;::Ops</text>
</a>
</g>
</g>
<!-- Node2 -->
<g id="node2" class="node">
<title>Node2</title>
<g id="a_node2"><a xlink:href="structsierra_1_1nalu_1_1nalu__ngp_1_1_entity_info.html" target="_top" xlink:title=" ">
<polygon fill="white" stroke="black" points="7,-89.5 7,-119.5 149,-119.5 149,-89.5 7,-89.5"/>
<text text-anchor="start" x="15" y="-107.5" font-family="Helvetica,sans-Serif" font-size="10.00">sierra::nalu::nalu</text>
<text text-anchor="middle" x="78" y="-96.5" font-family="Helvetica,sans-Serif" font-size="10.00">_ngp::EntityInfo&lt; Mesh &gt;</text>
</a>
</g>
</g>
<!-- Node2&#45;&gt;Node1 -->
<g id="edge1" class="edge">
<title>Node2&#45;&gt;Node1</title>
<path fill="none" stroke="#9a32cd" stroke-dasharray="5,2" d="M78,-79.07C78,-67.06 78,-52.79 78,-41.53"/>
<polygon fill="#9a32cd" stroke="#9a32cd" points="74.5,-79.3 78,-89.3 81.5,-79.3 74.5,-79.3"/>
<text text-anchor="middle" x="95" y="-63" font-family="Helvetica,sans-Serif" font-size="10.00"> einfo_</text>
</g>
<!-- Node2&#45;&gt;Node2 -->
<g id="edge2" class="edge">
<title>Node2&#45;&gt;Node2</title>
<path fill="none" stroke="orange" stroke-dasharray="5,2" d="M159.15,-109.43C164.06,-108.26 167,-106.62 167,-104.5 167,-101.2 159.83,-99.04 149.23,-98.04"/>
<polygon fill="orange" stroke="orange" points="158.58,-105.98 149.23,-110.96 159.64,-112.9 158.58,-105.98"/>
<text text-anchor="middle" x="193" y="-102" font-family="Helvetica,sans-Serif" font-size="10.00"> &lt; Mesh &gt;</text>
</g>
</g>
</svg>
