<?xml version="1.0" encoding="UTF-8" standalone="no"?>
<!DOCTYPE svg PUBLIC "-//W3C//DTD SVG 1.1//EN"
 "http://www.w3.org/Graphics/SVG/1.1/DTD/svg11.dtd">
<!-- Generated by graphviz version 2.43.0 (0)
 -->
<!-- Title: sierra::nalu::ActDualViewHelper&lt; memory_space &gt; Pages: 1 -->
<svg width="529pt" height="86pt"
 viewBox="0.00 0.00 529.00 86.00" xmlns="http://www.w3.org/2000/svg" xmlns:xlink="http://www.w3.org/1999/xlink">
<g id="graph0" class="graph" transform="scale(1 1) rotate(0) translate(4 82)">
<title>sierra::nalu::ActDualViewHelper&lt; memory_space &gt;</title>
<!-- Node1 -->
<g id="Node000001" class="node">
<title>Node1</title>
<g id="a_Node000001"><a xlink:title=" ">
<polygon fill="#999999" stroke="#666666" points="146,-54 0,-54 0,-24 146,-24 146,-54"/>
<text text-anchor="start" x="8" y="-42" font-family="Helvetica,sans-Serif" font-size="10.00">sierra::nalu::ActDualView</text>
<text text-anchor="middle" x="73" y="-31" font-family="Helvetica,sans-Serif" font-size="10.00">Helper&lt; memory_space &gt;</text>
</a>
</g>
</g>
<!-- Node2 -->
<g id="Node000002" class="node">
<title>Node2</title>
<g id="a_Node000002"><a xlink:href="structsierra_1_1nalu_1_1_act_dual_view_helper.html" target="_top" xlink:title=" ">
<polygon fill="white" stroke="#666666" points="521,-78 329,-78 329,-48 521,-48 521,-78"/>
<text text-anchor="start" x="337" y="-66" font-family="Helvetica,sans-Serif" font-size="10.00">sierra::nalu::ActDualView</text>
<text text-anchor="middle" x="425" y="-55" font-family="Helvetica,sans-Serif" font-size="10.00">Helper&lt; ActuatorFixedMemSpace &gt;</text>
</a>
</g>
</g>
<!-- Node1&#45;&gt;Node2 -->
<g id="edge1_Node000001_Node000002" class="edge">
<title>Node1&#45;&gt;Node2</title>
<g id="a_edge1_Node000001_Node000002"><a xlink:title=" ">
<path fill="none" stroke="orange" stroke-dasharray="5,2" d="M156.22,-44.64C207.9,-48.18 274.76,-52.77 328.74,-56.47"/>
<polygon fill="orange" stroke="orange" points="156.31,-41.14 146.1,-43.94 155.83,-48.12 156.31,-41.14"/>
</a>
</g>
<text text-anchor="middle" x="237.5" y="-58" font-family="Helvetica,sans-Serif" font-size="10.00" fill="grey"> &lt; ActuatorFixedMemSpace &gt;</text>
</g>
<!-- Node3 -->
<g id="Node000003" class="node">
<title>Node3</title>
<g id="a_Node000003"><a xlink:href="structsierra_1_1nalu_1_1_act_dual_view_helper.html" target="_top" xlink:title=" ">
<polygon fill="white" stroke="#666666" points="508.5,-30 341.5,-30 341.5,0 508.5,0 508.5,-30"/>
<text text-anchor="start" x="349.5" y="-18" font-family="Helvetica,sans-Serif" font-size="10.00">sierra::nalu::ActDualView</text>
<text text-anchor="middle" x="425" y="-7" font-family="Helvetica,sans-Serif" font-size="10.00">Helper&lt; ActuatorMemSpace &gt;</text>
</a>
</g>
</g>
<!-- Node1&#45;&gt;Node3 -->
<g id="edge2_Node000001_Node000003" class="edge">
<title>Node1&#45;&gt;Node3</title>
<g id="a_edge2_Node000001_Node000003"><a xlink:title=" ">
<path fill="none" stroke="orange" stroke-dasharray="5,2" d="M156.29,-30.63C158.89,-30.41 161.47,-30.2 164,-30 223.27,-25.33 290.26,-21.5 341.39,-18.88"/>
<polygon fill="orange" stroke="orange" points="155.84,-27.16 146.19,-31.51 156.45,-34.13 155.84,-27.16"/>
</a>
</g>
<text text-anchor="middle" x="237.5" y="-33" font-family="Helvetica,sans-Serif" font-size="10.00" fill="grey"> &lt; ActuatorMemSpace &gt;</text>
</g>
</g>
</svg>
