<?xml version="1.0" encoding="UTF-8" standalone="no"?>
<!DOCTYPE svg PUBLIC "-//W3C//DTD SVG 1.1//EN"
 "http://www.w3.org/Graphics/SVG/1.1/DTD/svg11.dtd">
<!-- Generated by graphviz version 2.43.0 (0)
 -->
<!-- Title: tioga_nalu::NgpTiogaBlock Pages: 1 -->
<!--zoomable 204 -->
<svg id="main" version="1.1" xmlns="http://www.w3.org/2000/svg" xmlns:xlink="http://www.w3.org/1999/xlink" xml:space="preserve" onload="init(evt)">
<style type="text/css"><![CDATA[
.edge:hover path { stroke: red; }
.edge:hover polygon { stroke: red; fill: red; }
]]></style>
<script type="text/javascript"><![CDATA[
var edges = document.getElementsByTagName('g');
if (edges && edges.length) {
  for (var i=0;i<edges.length;i++) {
    if (edges[i].id.substr(0,4)=='edge') {
      edges[i].setAttribute('class','edge');
    }
  }
}
]]></script>
        <defs>
                <circle id="rim" cx="0" cy="0" r="7"/>
                <circle id="rim2" cx="0" cy="0" r="3.5"/>
                <g id="zoomPlus">
                        <use xlink:href="#rim" fill="#404040">
                                <set attributeName="fill" to="#808080" begin="zoomplus.mouseover" end="zoomplus.mouseout"/>
                        </use>
                        <path d="M-4,0h8M0,-4v8" fill="none" stroke="white" stroke-width="1.5" pointer-events="none"/>
                </g>
                <g id="zoomMin">
                        <use xlink:href="#rim" fill="#404040">
                                <set attributeName="fill" to="#808080" begin="zoomminus.mouseover" end="zoomminus.mouseout"/>
                        </use>
                        <path d="M-4,0h8" fill="none" stroke="white" stroke-width="1.5" pointer-events="none"/>
                </g>
                <g id="dirArrow">
                        <path fill="none" stroke="white" stroke-width="1.5" d="M0,-3.0v7 M-2.5,-0.5L0,-3.0L2.5,-0.5"/>
                </g>
               <g id="resetDef">
                       <use xlink:href="#rim2" fill="#404040">
                               <set attributeName="fill" to="#808080" begin="reset.mouseover" end="reset.mouseout"/>
                       </use>
               </g>
        </defs>

<script type="text/javascript">
var viewWidth = 714;
var viewHeight = 204;
var sectionId = 'dynsection-0';
</script>
<script xlink:href="svgpan.js"/>
<svg id="graph" class="graph">
<g id="viewport">
<title>tioga_nalu::NgpTiogaBlock</title>
<polygon fill="white" stroke="transparent" points="-4,4 -4,-199.5 710,-199.5 710,4 -4,4"/>
<!-- Node1 -->
<g id="node1" class="node">
<title>Node1</title>
<g id="a_node1"><a xlink:title="Data representing an unstructured mesh block.">
<polygon fill="#bfbfbf" stroke="black" points="559,-66 559,-85 706,-85 706,-66 559,-66"/>
<text text-anchor="middle" x="632.5" y="-73" font-family="Helvetica,sans-Serif" font-size="10.00">tioga_nalu::NgpTiogaBlock</text>
</a>
</g>
</g>
<!-- Node2 -->
<g id="node2" class="node">
<title>Node2</title>
<g id="a_node2"><a xlink:href="structtioga__nalu_1_1_overset_array_type.html" target="_top" xlink:title=" ">
<polygon fill="white" stroke="black" points="315.5,-105.5 315.5,-135.5 453.5,-135.5 453.5,-105.5 315.5,-105.5"/>
<text text-anchor="start" x="323.5" y="-123.5" font-family="Helvetica,sans-Serif" font-size="10.00">tioga_nalu::OversetArray</text>
<text text-anchor="middle" x="384.5" y="-112.5" font-family="Helvetica,sans-Serif" font-size="10.00">Type&lt; int * &gt;</text>
</a>
</g>
</g>
<!-- Node2&#45;&gt;Node1 -->
<g id="edge1" class="edge">
<title>Node2&#45;&gt;Node1</title>
<path fill="none" stroke="#9a32cd" stroke-dasharray="5,2" d="M463.61,-111.13C488.44,-107.71 515.96,-103.44 541,-98.5 559.93,-94.77 580.81,-89.54 597.75,-85"/>
<polygon fill="#9a32cd" stroke="#9a32cd" points="462.95,-107.69 453.51,-112.5 463.89,-114.63 462.95,-107.69"/>
<text text-anchor="middle" x="512" y="-187.5" font-family="Helvetica,sans-Serif" font-size="10.00"> connect_</text>
<text text-anchor="middle" x="512" y="-176.5" font-family="Helvetica,sans-Serif" font-size="10.00">eid_map_</text>
<text text-anchor="middle" x="512" y="-165.5" font-family="Helvetica,sans-Serif" font-size="10.00">iblank_</text>
<text text-anchor="middle" x="512" y="-154.5" font-family="Helvetica,sans-Serif" font-size="10.00">iblank_cell_</text>
<text text-anchor="middle" x="512" y="-143.5" font-family="Helvetica,sans-Serif" font-size="10.00">num_cells_</text>
<text text-anchor="middle" x="512" y="-132.5" font-family="Helvetica,sans-Serif" font-size="10.00">num_verts_</text>
<text text-anchor="middle" x="512" y="-121.5" font-family="Helvetica,sans-Serif" font-size="10.00">ovsetIDs_</text>
<text text-anchor="middle" x="512" y="-110.5" font-family="Helvetica,sans-Serif" font-size="10.00">wallIDs_</text>
</g>
<!-- Node3 -->
<g id="node3" class="node">
<title>Node3</title>
<g id="a_node3"><a xlink:href="structtioga__nalu_1_1_overset_array_type.html" target="_top" xlink:title=" ">
<polygon fill="white" stroke="black" points="0,-56.5 0,-86.5 142,-86.5 142,-56.5 0,-56.5"/>
<text text-anchor="start" x="8" y="-74.5" font-family="Helvetica,sans-Serif" font-size="10.00">tioga_nalu::OversetArray</text>
<text text-anchor="middle" x="71" y="-63.5" font-family="Helvetica,sans-Serif" font-size="10.00">Type&lt; T, Layout, Space &gt;</text>
</a>
</g>
</g>
<!-- Node3&#45;&gt;Node2 -->
<g id="edge2" class="edge">
<title>Node3&#45;&gt;Node2</title>
<path fill="none" stroke="orange" stroke-dasharray="5,2" d="M151.98,-85.2C154.69,-85.64 157.37,-86.08 160,-86.5 212.12,-94.91 271.16,-103.86 315.47,-110.47"/>
<polygon fill="orange" stroke="orange" points="152.55,-81.74 142.11,-83.57 151.41,-88.65 152.55,-81.74"/>
<text text-anchor="middle" x="223" y="-107.5" font-family="Helvetica,sans-Serif" font-size="10.00"> &lt; int * &gt;</text>
</g>
<!-- Node4 -->
<g id="node4" class="node">
<title>Node4</title>
<g id="a_node4"><a xlink:href="structtioga__nalu_1_1_overset_array_type.html" target="_top" xlink:title=" ">
<polygon fill="white" stroke="black" points="304,-56.5 304,-86.5 465,-86.5 465,-56.5 304,-56.5"/>
<text text-anchor="start" x="312" y="-74.5" font-family="Helvetica,sans-Serif" font-size="10.00">tioga_nalu::OversetArray</text>
<text text-anchor="middle" x="384.5" y="-63.5" font-family="Helvetica,sans-Serif" font-size="10.00">Type&lt; stk::mesh::EntityId * &gt;</text>
</a>
</g>
</g>
<!-- Node3&#45;&gt;Node4 -->
<g id="edge4" class="edge">
<title>Node3&#45;&gt;Node4</title>
<path fill="none" stroke="orange" stroke-dasharray="5,2" d="M152.35,-71.5C198.94,-71.5 257.39,-71.5 303.86,-71.5"/>
<polygon fill="orange" stroke="orange" points="152.3,-68 142.3,-71.5 152.3,-75 152.3,-68"/>
<text text-anchor="middle" x="223" y="-74.5" font-family="Helvetica,sans-Serif" font-size="10.00"> &lt; stk::mesh::EntityId * &gt;</text>
</g>
<!-- Node5 -->
<g id="node5" class="node">
<title>Node5</title>
<g id="a_node5"><a xlink:href="structtioga__nalu_1_1_overset_array_type.html" target="_top" xlink:title=" ">
<polygon fill="white" stroke="black" points="315.5,-0.5 315.5,-30.5 453.5,-30.5 453.5,-0.5 315.5,-0.5"/>
<text text-anchor="start" x="323.5" y="-18.5" font-family="Helvetica,sans-Serif" font-size="10.00">tioga_nalu::OversetArray</text>
<text text-anchor="middle" x="384.5" y="-7.5" font-family="Helvetica,sans-Serif" font-size="10.00">Type&lt; double * &gt;</text>
</a>
</g>
</g>
<!-- Node3&#45;&gt;Node5 -->
<g id="edge6" class="edge">
<title>Node3&#45;&gt;Node5</title>
<path fill="none" stroke="orange" stroke-dasharray="5,2" d="M152.21,-57.08C202.74,-48 267.28,-36.39 315.33,-27.75"/>
<polygon fill="orange" stroke="orange" points="151.52,-53.65 142.3,-58.86 152.76,-60.54 151.52,-53.65"/>
<text text-anchor="middle" x="223" y="-57.5" font-family="Helvetica,sans-Serif" font-size="10.00"> &lt; double * &gt;</text>
</g>
<!-- Node4&#45;&gt;Node1 -->
<g id="edge3" class="edge">
<title>Node4&#45;&gt;Node1</title>
<path fill="none" stroke="#9a32cd" stroke-dasharray="5,2" d="M475.06,-72.96C502.63,-73.4 532.63,-73.89 558.91,-74.32"/>
<polygon fill="#9a32cd" stroke="#9a32cd" points="475.09,-69.46 465.03,-72.79 474.97,-76.46 475.09,-69.46"/>
<text text-anchor="middle" x="512" y="-87.5" font-family="Helvetica,sans-Serif" font-size="10.00"> cell_gid_</text>
<text text-anchor="middle" x="512" y="-76.5" font-family="Helvetica,sans-Serif" font-size="10.00">node_gid_</text>
</g>
<!-- Node5&#45;&gt;Node1 -->
<g id="edge5" class="edge">
<title>Node5&#45;&gt;Node1</title>
<path fill="none" stroke="#9a32cd" stroke-dasharray="5,2" d="M463.81,-13.13C488.88,-14.19 516.48,-17.3 541,-24.5 571.11,-33.34 602.1,-53.72 618.86,-65.87"/>
<polygon fill="#9a32cd" stroke="#9a32cd" points="463.72,-9.63 453.61,-12.81 463.49,-16.63 463.72,-9.63"/>
<text text-anchor="middle" x="512" y="-60.5" font-family="Helvetica,sans-Serif" font-size="10.00"> cell_res_</text>
<text text-anchor="middle" x="512" y="-49.5" font-family="Helvetica,sans-Serif" font-size="10.00">node_res_</text>
<text text-anchor="middle" x="512" y="-38.5" font-family="Helvetica,sans-Serif" font-size="10.00">qsol_</text>
<text text-anchor="middle" x="512" y="-27.5" font-family="Helvetica,sans-Serif" font-size="10.00">xyz_</text>
</g>
</g>
</svg>
        <g id="navigator" transform="translate(0 0)" fill="#404254">
                <rect fill="#f2f5e9" fill-opacity="0.5" stroke="#606060" stroke-width=".5" x="0" y="0" width="60" height="60"/>
                <use id="zoomplus" xlink:href="#zoomPlus" x="17" y="9" onmousedown="handleZoom(evt,'in')"/>
                <use id="zoomminus" xlink:href="#zoomMin" x="42" y="9" onmousedown="handleZoom(evt,'out')"/>
                <use id="reset" xlink:href="#resetDef" x="30" y="36" onmousedown="handleReset()"/>
                <g id="arrowUp" xlink:href="#dirArrow" transform="translate(30 24)" onmousedown="handlePan(0,-1)">
                  <use xlink:href="#rim" fill="#404040">
                        <set attributeName="fill" to="#808080" begin="arrowUp.mouseover" end="arrowUp.mouseout"/>
                  </use>
                  <path fill="none" stroke="white" stroke-width="1.5" d="M0,-3.0v7 M-2.5,-0.5L0,-3.0L2.5,-0.5"/>
                </g>
                <g id="arrowRight" xlink:href="#dirArrow" transform="rotate(90) translate(36 -43)" onmousedown="handlePan(1,0)">
                  <use xlink:href="#rim" fill="#404040">
                        <set attributeName="fill" to="#808080" begin="arrowRight.mouseover" end="arrowRight.mouseout"/>
                  </use>
                  <path fill="none" stroke="white" stroke-width="1.5" d="M0,-3.0v7 M-2.5,-0.5L0,-3.0L2.5,-0.5"/>
                </g>
                <g id="arrowDown" xlink:href="#dirArrow" transform="rotate(180) translate(-30 -48)" onmousedown="handlePan(0,1)">
                  <use xlink:href="#rim" fill="#404040">
                        <set attributeName="fill" to="#808080" begin="arrowDown.mouseover" end="arrowDown.mouseout"/>
                  </use>
                  <path fill="none" stroke="white" stroke-width="1.5" d="M0,-3.0v7 M-2.5,-0.5L0,-3.0L2.5,-0.5"/>
                </g>
                <g id="arrowLeft" xlink:href="#dirArrow" transform="rotate(270) translate(-36 17)" onmousedown="handlePan(-1,0)">
                  <use xlink:href="#rim" fill="#404040">
                        <set attributeName="fill" to="#808080" begin="arrowLeft.mouseover" end="arrowLeft.mouseout"/>
                  </use>
                  <path fill="none" stroke="white" stroke-width="1.5" d="M0,-3.0v7 M-2.5,-0.5L0,-3.0L2.5,-0.5"/>
                </g>
        </g>
        <svg viewBox="0 0 15 15" width="100%" height="30px" preserveAspectRatio="xMaxYMin meet">
         <g id="arrow_out" transform="scale(0.3 0.3)">
          <a xlink:href="structtioga__nalu_1_1_ngp_tioga_block__coll__graph_org.svg" target="_base">
           <rect id="button" ry="5" rx="5" y="6" x="6" height="38" width="38"
                fill="#f2f5e9" fill-opacity="0.5" stroke="#606060" stroke-width="1.0"/>
           <path id="arrow"
             d="M 11.500037,31.436501 C 11.940474,20.09759 22.043105,11.32322 32.158766,21.979434 L 37.068811,17.246167 C 37.068811,17.246167 37.088388,32 37.088388,32 L 22.160133,31.978069 C 22.160133,31.978069 26.997745,27.140456 26.997745,27.140456 C 18.528582,18.264221 13.291696,25.230495 11.500037,31.436501 z"
             style="fill:#404040;"/>
          </a>
         </g>
        </svg>
</svg>
