<?xml version="1.0" encoding="UTF-8" standalone="no"?>
<!DOCTYPE svg PUBLIC "-//W3C//DTD SVG 1.1//EN"
 "http://www.w3.org/Graphics/SVG/1.1/DTD/svg11.dtd">
<!-- Generated by graphviz version 2.43.0 (0)
 -->
<!-- Title: sierra::nalu::OversetUserData Pages: 1 -->
<svg width="1354pt" height="524pt"
 viewBox="0.00 0.00 1354.00 524.20" xmlns="http://www.w3.org/2000/svg" xmlns:xlink="http://www.w3.org/1999/xlink">
<g id="graph0" class="graph" transform="scale(1 1) rotate(0) translate(4 520.2)">
<title>sierra::nalu::OversetUserData</title>
<!-- Node1 -->
<g id="Node000001" class="node">
<title>Node1</title>
<g id="a_Node000001"><a xlink:title=" ">
<polygon fill="#999999" stroke="#666666" points="1346,-289.7 1185,-289.7 1185,-270.7 1346,-270.7 1346,-289.7"/>
<text text-anchor="middle" x="1265.5" y="-277.7" font-family="Helvetica,sans-Serif" font-size="10.00">sierra::nalu::OversetUserData</text>
</a>
</g>
</g>
<!-- Node2 -->
<g id="Node000002" class="node">
<title>Node2</title>
<g id="a_Node000002"><a xlink:href="structsierra_1_1nalu_1_1_user_data.html" target="_top" xlink:title=" ">
<polygon fill="white" stroke="#666666" points="1148,-289.7 1025,-289.7 1025,-270.7 1148,-270.7 1148,-289.7"/>
<text text-anchor="middle" x="1086.5" y="-277.7" font-family="Helvetica,sans-Serif" font-size="10.00">sierra::nalu::UserData</text>
</a>
</g>
</g>
<!-- Node2&#45;&gt;Node1 -->
<g id="edge1_Node000001_Node000002" class="edge">
<title>Node2&#45;&gt;Node1</title>
<g id="a_edge1_Node000001_Node000002"><a xlink:title=" ">
<path fill="none" stroke="#63b8ff" d="M1158.43,-280.2C1167.08,-280.2 1175.96,-280.2 1184.72,-280.2"/>
<polygon fill="#63b8ff" stroke="#63b8ff" points="1158.41,-276.7 1148.41,-280.2 1158.41,-283.7 1158.41,-276.7"/>
</a>
</g>
</g>
<!-- Node3 -->
<g id="Node000003" class="node">
<title>Node3</title>
<g id="a_Node000003"><a xlink:title=" ">
<polygon fill="white" stroke="#666666" points="860,-321.2 738,-321.2 738,-291.2 860,-291.2 860,-321.2"/>
<text text-anchor="start" x="746" y="-309.2" font-family="Helvetica,sans-Serif" font-size="10.00">std::map&lt; std::string,</text>
<text text-anchor="middle" x="799" y="-298.2" font-family="Helvetica,sans-Serif" font-size="10.00"> bool &gt;</text>
</a>
</g>
</g>
<!-- Node3&#45;&gt;Node2 -->
<g id="edge2_Node000002_Node000003" class="edge">
<title>Node3&#45;&gt;Node2</title>
<g id="a_edge2_Node000002_Node000003"><a xlink:title=" ">
<path fill="none" stroke="#9a32cd" stroke-dasharray="5,2" d="M870.39,-299.79C917.79,-295.47 979.68,-289.84 1024.89,-285.72"/>
<polygon fill="#9a32cd" stroke="#9a32cd" points="869.84,-296.33 860.2,-300.72 870.47,-303.3 869.84,-296.33"/>
</a>
</g>
<text text-anchor="middle" x="950.5" y="-299.2" font-family="Helvetica,sans-Serif" font-size="10.00" fill="grey"> bcDataSpecifiedMap_</text>
</g>
<!-- Node4 -->
<g id="Node000004" class="node">
<title>Node4</title>
<g id="a_Node000004"><a xlink:title=" ">
<polygon fill="white" stroke="#666666" points="270,-280.7 205,-280.7 205,-261.7 270,-261.7 270,-280.7"/>
<text text-anchor="middle" x="237.5" y="-268.7" font-family="Helvetica,sans-Serif" font-size="10.00">std::string</text>
</a>
</g>
</g>
<!-- Node4&#45;&gt;Node1 -->
<g id="edge27_Node000001_Node000004" class="edge">
<title>Node4&#45;&gt;Node1</title>
<g id="a_edge27_Node000001_Node000004"><a xlink:title=" ">
<path fill="none" stroke="#9a32cd" stroke-dasharray="5,2" d="M249.56,-289.42C278.75,-334.98 362.78,-450.2 466,-450.2 466,-450.2 466,-450.2 1087.5,-450.2 1180.81,-450.2 1244.01,-325.79 1260.32,-289.83"/>
<polygon fill="#9a32cd" stroke="#9a32cd" points="252.45,-287.44 244.17,-280.83 246.51,-291.16 252.45,-287.44"/>
</a>
</g>
<text text-anchor="middle" x="799" y="-508.2" font-family="Helvetica,sans-Serif" font-size="10.00" fill="grey"> backgroundBlock_</text>
<text text-anchor="start" x="748.5" y="-497.2" font-family="Helvetica,sans-Serif" font-size="10.00" fill="grey">backgroundCutBlock</text>
<text text-anchor="middle" x="799" y="-486.2" font-family="Helvetica,sans-Serif" font-size="10.00" fill="grey">_</text>
<text text-anchor="start" x="748.5" y="-475.2" font-family="Helvetica,sans-Serif" font-size="10.00" fill="grey">backgroundSurface</text>
<text text-anchor="middle" x="799" y="-464.2" font-family="Helvetica,sans-Serif" font-size="10.00" fill="grey">_</text>
<text text-anchor="middle" x="799" y="-453.2" font-family="Helvetica,sans-Serif" font-size="10.00" fill="grey">oversetSurface_</text>
</g>
<!-- Node4&#45;&gt;Node3 -->
<g id="edge3_Node000003_Node000004" class="edge">
<title>Node4&#45;&gt;Node3</title>
<g id="a_edge3_Node000003_Node000004"><a xlink:title=" ">
<path fill="none" stroke="#9a32cd" stroke-dasharray="5,2" d="M280.23,-278.51C288.11,-279.81 296.3,-281.1 304,-282.2 480.47,-307.55 525.81,-317.88 704,-312.2 714.95,-311.85 726.61,-311.28 737.85,-310.61"/>
<polygon fill="#9a32cd" stroke="#9a32cd" points="280.54,-275.02 270.1,-276.82 279.39,-281.92 280.54,-275.02"/>
</a>
</g>
<text text-anchor="middle" x="467" y="-313.2" font-family="Helvetica,sans-Serif" font-size="10.00" fill="grey"> keys</text>
</g>
<!-- Node9 -->
<g id="Node000009" class="node">
<title>Node9</title>
<g id="a_Node000009"><a xlink:title=" ">
<polygon fill="white" stroke="#666666" points="860,-273.2 738,-273.2 738,-243.2 860,-243.2 860,-273.2"/>
<text text-anchor="start" x="746" y="-261.2" font-family="Helvetica,sans-Serif" font-size="10.00">std::map&lt; std::string,</text>
<text text-anchor="middle" x="799" y="-250.2" font-family="Helvetica,sans-Serif" font-size="10.00"> UserDataType &gt;</text>
</a>
</g>
</g>
<!-- Node4&#45;&gt;Node9 -->
<g id="edge9_Node000009_Node000004" class="edge">
<title>Node4&#45;&gt;Node9</title>
<g id="a_edge9_Node000009_Node000004"><a xlink:title=" ">
<path fill="none" stroke="#9a32cd" stroke-dasharray="5,2" d="M280.31,-270.23C378.38,-267.95 623.56,-262.25 737.73,-259.6"/>
<polygon fill="#9a32cd" stroke="#9a32cd" points="280.1,-266.73 270.18,-270.47 280.26,-273.73 280.1,-266.73"/>
</a>
</g>
<text text-anchor="middle" x="467" y="-270.2" font-family="Helvetica,sans-Serif" font-size="10.00" fill="grey"> keys</text>
</g>
<!-- Node10 -->
<g id="Node000010" class="node">
<title>Node10</title>
<g id="a_Node000010"><a xlink:title=" ">
<polygon fill="white" stroke="#666666" points="860,-372.2 738,-372.2 738,-342.2 860,-342.2 860,-372.2"/>
<text text-anchor="start" x="746" y="-360.2" font-family="Helvetica,sans-Serif" font-size="10.00">std::map&lt; std::string,</text>
<text text-anchor="middle" x="799" y="-349.2" font-family="Helvetica,sans-Serif" font-size="10.00"> std::string &gt;</text>
</a>
</g>
</g>
<!-- Node4&#45;&gt;Node10 -->
<g id="edge12_Node000010_Node000004" class="edge">
<title>Node4&#45;&gt;Node10</title>
<g id="a_edge12_Node000010_Node000004"><a xlink:title=" ">
<path fill="none" stroke="#9a32cd" stroke-dasharray="5,2" d="M266.5,-285.06C277.97,-290.47 291.47,-296.49 304,-301.2 412.97,-342.21 439.8,-359.36 555,-376.2 620.53,-385.78 638.11,-382.79 704,-376.2 715.02,-375.1 726.65,-373.29 737.84,-371.21"/>
<polygon fill="#9a32cd" stroke="#9a32cd" points="267.94,-281.87 257.41,-280.71 264.91,-288.19 267.94,-281.87"/>
</a>
</g>
<text text-anchor="middle" x="467" y="-387.2" font-family="Helvetica,sans-Serif" font-size="10.00" fill="grey"> elements</text>
<text text-anchor="middle" x="467" y="-376.2" font-family="Helvetica,sans-Serif" font-size="10.00" fill="grey">keys</text>
</g>
<!-- Node11 -->
<g id="Node000011" class="node">
<title>Node11</title>
<g id="a_Node000011"><a xlink:title=" ">
<polygon fill="white" stroke="#666666" points="868,-128.2 730,-128.2 730,-98.2 868,-98.2 868,-128.2"/>
<text text-anchor="start" x="738" y="-116.2" font-family="Helvetica,sans-Serif" font-size="10.00">std::map&lt; std::string,</text>
<text text-anchor="middle" x="799" y="-105.2" font-family="Helvetica,sans-Serif" font-size="10.00"> std::vector&lt; double &gt; &gt;</text>
</a>
</g>
</g>
<!-- Node4&#45;&gt;Node11 -->
<g id="edge15_Node000011_Node000004" class="edge">
<title>Node4&#45;&gt;Node11</title>
<g id="a_edge15_Node000011_Node000004"><a xlink:title=" ">
<path fill="none" stroke="#9a32cd" stroke-dasharray="5,2" d="M258.24,-254.74C285.54,-231.91 336.3,-189.25 379,-152.2 387.08,-145.19 387.24,-140.6 397,-136.2 505.41,-87.38 647.29,-93.39 729.97,-102.85"/>
<polygon fill="#9a32cd" stroke="#9a32cd" points="255.67,-252.32 250.24,-261.42 260.16,-257.7 255.67,-252.32"/>
</a>
</g>
<text text-anchor="middle" x="467" y="-139.2" font-family="Helvetica,sans-Serif" font-size="10.00" fill="grey"> keys</text>
</g>
<!-- Node14 -->
<g id="Node000014" class="node">
<title>Node14</title>
<g id="a_Node000014"><a xlink:title=" ">
<polygon fill="white" stroke="#666666" points="876,-209.2 722,-209.2 722,-179.2 876,-179.2 876,-209.2"/>
<text text-anchor="start" x="730" y="-197.2" font-family="Helvetica,sans-Serif" font-size="10.00">std::map&lt; std::string,</text>
<text text-anchor="middle" x="799" y="-186.2" font-family="Helvetica,sans-Serif" font-size="10.00"> std::vector&lt; std::string &gt; &gt;</text>
</a>
</g>
</g>
<!-- Node4&#45;&gt;Node14 -->
<g id="edge21_Node000014_Node000004" class="edge">
<title>Node4&#45;&gt;Node14</title>
<g id="a_edge21_Node000014_Node000004"><a xlink:title=" ">
<path fill="none" stroke="#9a32cd" stroke-dasharray="5,2" d="M280.32,-265.12C340.87,-256.34 456.5,-239.69 555,-226.2 610.86,-218.55 673.99,-210.25 721.91,-204.02"/>
<polygon fill="#9a32cd" stroke="#9a32cd" points="279.77,-261.66 270.38,-266.56 280.78,-268.59 279.77,-261.66"/>
</a>
</g>
<text text-anchor="middle" x="467" y="-250.2" font-family="Helvetica,sans-Serif" font-size="10.00" fill="grey"> keys</text>
</g>
<!-- Node15 -->
<g id="Node000015" class="node">
<title>Node15</title>
<g id="a_Node000015"><a xlink:title=" ">
<polygon fill="white" stroke="#666666" points="537,-80.7 397,-80.7 397,-61.7 537,-61.7 537,-80.7"/>
<text text-anchor="middle" x="467" y="-68.7" font-family="Helvetica,sans-Serif" font-size="10.00">std::vector&lt; std::string &gt;</text>
</a>
</g>
</g>
<!-- Node4&#45;&gt;Node15 -->
<g id="edge23_Node000015_Node000004" class="edge">
<title>Node4&#45;&gt;Node15</title>
<g id="a_edge23_Node000015_Node000004"><a xlink:title=" ">
<path fill="none" stroke="#9a32cd" stroke-dasharray="5,2" d="M249.27,-252.77C259.78,-234.19 275.64,-204.44 286,-177.2 297.11,-147.98 281.58,-130.99 304,-109.2 317.46,-96.11 359.03,-86.52 396.68,-80.24"/>
<polygon fill="#9a32cd" stroke="#9a32cd" points="246.13,-251.21 244.19,-261.63 252.2,-254.7 246.13,-251.21"/>
</a>
</g>
<text text-anchor="middle" x="341.5" y="-112.2" font-family="Helvetica,sans-Serif" font-size="10.00" fill="grey"> elements</text>
</g>
<!-- Node5 -->
<g id="Node000005" class="node">
<title>Node5</title>
<g id="a_Node000005"><a xlink:title=" ">
<polygon fill="white" stroke="#666666" points="104,-286.2 0,-286.2 0,-256.2 104,-256.2 104,-286.2"/>
<text text-anchor="start" x="8" y="-274.2" font-family="Helvetica,sans-Serif" font-size="10.00">std::basic_string&lt;</text>
<text text-anchor="middle" x="52" y="-263.2" font-family="Helvetica,sans-Serif" font-size="10.00"> Char &gt;</text>
</a>
</g>
</g>
<!-- Node5&#45;&gt;Node4 -->
<g id="edge4_Node000004_Node000005" class="edge">
<title>Node5&#45;&gt;Node4</title>
<g id="a_edge4_Node000004_Node000005"><a xlink:title=" ">
<path fill="none" stroke="#63b8ff" d="M114.21,-271.2C144.61,-271.2 180.06,-271.2 204.94,-271.2"/>
<polygon fill="#63b8ff" stroke="#63b8ff" points="114.12,-267.7 104.11,-271.2 114.11,-274.7 114.12,-267.7"/>
</a>
</g>
</g>
<!-- Node6 -->
<g id="Node000006" class="node">
<title>Node6</title>
<g id="a_Node000006"><a xlink:title=" ">
<polygon fill="white" stroke="#666666" points="517.5,-175.7 416.5,-175.7 416.5,-156.7 517.5,-156.7 517.5,-175.7"/>
<text text-anchor="middle" x="467" y="-163.7" font-family="Helvetica,sans-Serif" font-size="10.00">std::map&lt; K, T &gt;</text>
</a>
</g>
</g>
<!-- Node6&#45;&gt;Node3 -->
<g id="edge5_Node000003_Node000006" class="edge">
<title>Node6&#45;&gt;Node3</title>
<g id="a_edge5_Node000003_Node000006"><a xlink:title=" ">
<path fill="none" stroke="orange" stroke-dasharray="5,2" d="M524.65,-180.38C529.22,-183.1 533.43,-186.34 537,-190.2 558.5,-213.49 531.88,-237.52 555,-259.2 580.9,-283.49 674.61,-296 737.8,-301.83"/>
<polygon fill="orange" stroke="orange" points="526.02,-177.15 515.51,-175.77 522.86,-183.4 526.02,-177.15"/>
</a>
</g>
<text text-anchor="middle" x="629.5" y="-300.2" font-family="Helvetica,sans-Serif" font-size="10.00" fill="grey"> &lt; std::string, bool &gt;</text>
</g>
<!-- Node6&#45;&gt;Node9 -->
<g id="edge10_Node000009_Node000006" class="edge">
<title>Node6&#45;&gt;Node9</title>
<g id="a_edge10_Node000009_Node000006"><a xlink:title=" ">
<path fill="none" stroke="orange" stroke-dasharray="5,2" d="M510.5,-179.08C519.43,-182.31 528.66,-186.06 537,-190.2 545.61,-194.48 546.17,-198.39 555,-202.2 614.53,-227.88 687.56,-242.68 737.93,-250.54"/>
<polygon fill="orange" stroke="orange" points="511.58,-175.76 500.99,-175.79 509.29,-182.37 511.58,-175.76"/>
</a>
</g>
<text text-anchor="middle" x="629.5" y="-247.2" font-family="Helvetica,sans-Serif" font-size="10.00" fill="grey"> &lt; std::string, UserDataType &gt;</text>
</g>
<!-- Node6&#45;&gt;Node10 -->
<g id="edge13_Node000010_Node000006" class="edge">
<title>Node6&#45;&gt;Node10</title>
<g id="a_edge13_Node000010_Node000006"><a xlink:title=" ">
<path fill="none" stroke="orange" stroke-dasharray="5,2" d="M526.02,-180.57C530.13,-183.25 533.88,-186.43 537,-190.2 571.94,-232.43 516.96,-272.74 555,-312.2 579.68,-337.8 674.27,-349.12 737.89,-353.91"/>
<polygon fill="orange" stroke="orange" points="527.59,-177.44 517.14,-175.74 524.25,-183.59 527.59,-177.44"/>
</a>
</g>
<text text-anchor="start" x="587" y="-364.2" font-family="Helvetica,sans-Serif" font-size="10.00" fill="grey"> &lt; std::string, std</text>
<text text-anchor="middle" x="629.5" y="-353.2" font-family="Helvetica,sans-Serif" font-size="10.00" fill="grey">::string &gt;</text>
</g>
<!-- Node6&#45;&gt;Node11 -->
<g id="edge19_Node000011_Node000006" class="edge">
<title>Node6&#45;&gt;Node11</title>
<g id="a_edge19_Node000011_Node000006"><a xlink:title=" ">
<path fill="none" stroke="orange" stroke-dasharray="5,2" d="M506.64,-153.62C521.61,-149.13 538.97,-144.4 555,-141.2 613.51,-129.51 680.99,-122.22 729.97,-118.02"/>
<polygon fill="orange" stroke="orange" points="505.24,-150.38 496.71,-156.66 507.29,-157.08 505.24,-150.38"/>
</a>
</g>
<text text-anchor="start" x="577.5" y="-155.2" font-family="Helvetica,sans-Serif" font-size="10.00" fill="grey"> &lt; std::string, std</text>
<text text-anchor="middle" x="629.5" y="-144.2" font-family="Helvetica,sans-Serif" font-size="10.00" fill="grey">::vector&lt; double &gt; &gt;</text>
</g>
<!-- Node6&#45;&gt;Node14 -->
<g id="edge25_Node000014_Node000006" class="edge">
<title>Node6&#45;&gt;Node14</title>
<g id="a_edge25_Node000014_Node000006"><a xlink:title=" ">
<path fill="none" stroke="orange" stroke-dasharray="5,2" d="M528.07,-166.32C575.88,-167 644.42,-169.27 704,-176.2 710.93,-177.01 718.12,-178.03 725.29,-179.19"/>
<polygon fill="orange" stroke="orange" points="527.93,-162.82 517.89,-166.19 527.85,-169.82 527.93,-162.82"/>
</a>
</g>
<text text-anchor="start" x="569.5" y="-190.2" font-family="Helvetica,sans-Serif" font-size="10.00" fill="grey"> &lt; std::string, std</text>
<text text-anchor="middle" x="629.5" y="-179.2" font-family="Helvetica,sans-Serif" font-size="10.00" fill="grey">::vector&lt; std::string &gt; &gt;</text>
</g>
<!-- Node7 -->
<g id="Node000007" class="node">
<title>Node7</title>
<g id="a_Node000007"><a xlink:title=" ">
<polygon fill="white" stroke="#666666" points="252,-125.7 223,-125.7 223,-106.7 252,-106.7 252,-125.7"/>
<text text-anchor="middle" x="237.5" y="-113.7" font-family="Helvetica,sans-Serif" font-size="10.00">K</text>
</a>
</g>
</g>
<!-- Node7&#45;&gt;Node6 -->
<g id="edge6_Node000006_Node000007" class="edge">
<title>Node7&#45;&gt;Node6</title>
<g id="a_edge6_Node000006_Node000007"><a xlink:title=" ">
<path fill="none" stroke="#9a32cd" stroke-dasharray="5,2" d="M262.3,-118.49C290.44,-121.48 338.56,-127.52 379,-137.2 400.37,-142.32 423.98,-150.35 441.21,-156.66"/>
<polygon fill="#9a32cd" stroke="#9a32cd" points="262.52,-114.99 252.21,-117.45 261.81,-121.95 262.52,-114.99"/>
</a>
</g>
<text text-anchor="middle" x="341.5" y="-140.2" font-family="Helvetica,sans-Serif" font-size="10.00" fill="grey"> keys</text>
</g>
<!-- Node8 -->
<g id="Node000008" class="node">
<title>Node8</title>
<g id="a_Node000008"><a xlink:title=" ">
<polygon fill="white" stroke="#666666" points="66.5,-141.7 37.5,-141.7 37.5,-122.7 66.5,-122.7 66.5,-141.7"/>
<text text-anchor="middle" x="52" y="-129.7" font-family="Helvetica,sans-Serif" font-size="10.00">T</text>
</a>
</g>
</g>
<!-- Node8&#45;&gt;Node6 -->
<g id="edge7_Node000006_Node000008" class="edge">
<title>Node8&#45;&gt;Node6</title>
<g id="a_edge7_Node000006_Node000008"><a xlink:title=" ">
<path fill="none" stroke="#9a32cd" stroke-dasharray="5,2" d="M76.91,-134.17C142.63,-139.58 326.98,-154.76 416.28,-162.11"/>
<polygon fill="#9a32cd" stroke="#9a32cd" points="76.99,-130.67 66.74,-133.33 76.42,-137.64 76.99,-130.67"/>
</a>
</g>
<text text-anchor="middle" x="237.5" y="-154.2" font-family="Helvetica,sans-Serif" font-size="10.00" fill="grey"> elements</text>
</g>
<!-- Node13 -->
<g id="Node000013" class="node">
<title>Node13</title>
<g id="a_Node000013"><a xlink:title=" ">
<polygon fill="white" stroke="#666666" points="286,-77.7 189,-77.7 189,-58.7 286,-58.7 286,-77.7"/>
<text text-anchor="middle" x="237.5" y="-65.7" font-family="Helvetica,sans-Serif" font-size="10.00">std::vector&lt; T &gt;</text>
</a>
</g>
</g>
<!-- Node8&#45;&gt;Node13 -->
<g id="edge18_Node000013_Node000008" class="edge">
<title>Node8&#45;&gt;Node13</title>
<g id="a_edge18_Node000013_Node000008"><a xlink:title=" ">
<path fill="none" stroke="#9a32cd" stroke-dasharray="5,2" d="M76.33,-124.07C110.24,-112.24 173.04,-90.34 209.11,-77.76"/>
<polygon fill="#9a32cd" stroke="#9a32cd" points="75.08,-120.79 66.79,-127.39 77.39,-127.4 75.08,-120.79"/>
</a>
</g>
<text text-anchor="middle" x="146.5" y="-111.2" font-family="Helvetica,sans-Serif" font-size="10.00" fill="grey"> elements</text>
</g>
<!-- Node9&#45;&gt;Node2 -->
<g id="edge8_Node000002_Node000009" class="edge">
<title>Node9&#45;&gt;Node2</title>
<g id="a_edge8_Node000002_Node000009"><a xlink:title=" ">
<path fill="none" stroke="#9a32cd" stroke-dasharray="5,2" d="M870.61,-258.52C910.7,-259.31 961.77,-261.32 1007,-266.2 1017.05,-267.29 1027.75,-268.89 1037.91,-270.63"/>
<polygon fill="#9a32cd" stroke="#9a32cd" points="870.45,-255.02 860.4,-258.34 870.33,-262.02 870.45,-255.02"/>
</a>
</g>
<text text-anchor="middle" x="950.5" y="-269.2" font-family="Helvetica,sans-Serif" font-size="10.00" fill="grey"> bcDataTypeMap_</text>
</g>
<!-- Node10&#45;&gt;Node2 -->
<g id="edge11_Node000002_Node000010" class="edge">
<title>Node10&#45;&gt;Node2</title>
<g id="a_edge11_Node000002_Node000010"><a xlink:title=" ">
<path fill="none" stroke="#9a32cd" stroke-dasharray="5,2" d="M870.45,-344.41C910.83,-336.37 962.22,-324.93 1007,-311.2 1026.61,-305.19 1048.25,-296.48 1063.83,-289.83"/>
<polygon fill="#9a32cd" stroke="#9a32cd" points="869.57,-341.02 860.44,-346.38 870.92,-347.88 869.57,-341.02"/>
</a>
</g>
<text text-anchor="middle" x="950.5" y="-353.2" font-family="Helvetica,sans-Serif" font-size="10.00" fill="grey"> functions</text>
<text text-anchor="middle" x="950.5" y="-342.2" font-family="Helvetica,sans-Serif" font-size="10.00" fill="grey">userFunctionMap_</text>
</g>
<!-- Node11&#45;&gt;Node2 -->
<g id="edge14_Node000002_Node000011" class="edge">
<title>Node11&#45;&gt;Node2</title>
<g id="a_edge14_Node000002_Node000011"><a xlink:title=" ">
<path fill="none" stroke="#9a32cd" stroke-dasharray="5,2" d="M862.95,-131.41C905.82,-145.58 962.63,-167.95 1007,-198.2 1037.78,-219.18 1065.9,-253.88 1078.51,-270.6"/>
<polygon fill="#9a32cd" stroke="#9a32cd" points="863.78,-128 853.19,-128.25 861.62,-134.66 863.78,-128"/>
</a>
</g>
<text text-anchor="middle" x="950.5" y="-201.2" font-family="Helvetica,sans-Serif" font-size="10.00" fill="grey"> functionParams_</text>
</g>
<!-- Node12 -->
<g id="Node000012" class="node">
<title>Node12</title>
<g id="a_Node000012"><a xlink:title=" ">
<polygon fill="white" stroke="#666666" points="529,-43.7 405,-43.7 405,-24.7 529,-24.7 529,-43.7"/>
<text text-anchor="middle" x="467" y="-31.7" font-family="Helvetica,sans-Serif" font-size="10.00">std::vector&lt; double &gt;</text>
</a>
</g>
</g>
<!-- Node12&#45;&gt;Node11 -->
<g id="edge16_Node000011_Node000012" class="edge">
<title>Node12&#45;&gt;Node11</title>
<g id="a_edge16_Node000011_Node000012"><a xlink:title=" ">
<path fill="none" stroke="#9a32cd" stroke-dasharray="5,2" d="M539.08,-23.7C587.08,-19.4 651.08,-19.17 704,-38.2 737.79,-50.35 768.61,-80.03 785.19,-98.2"/>
<polygon fill="#9a32cd" stroke="#9a32cd" points="538.7,-20.22 529.09,-24.67 539.38,-27.19 538.7,-20.22"/>
</a>
</g>
<text text-anchor="middle" x="629.5" y="-41.2" font-family="Helvetica,sans-Serif" font-size="10.00" fill="grey"> elements</text>
</g>
<!-- Node13&#45;&gt;Node12 -->
<g id="edge17_Node000012_Node000013" class="edge">
<title>Node13&#45;&gt;Node12</title>
<g id="a_edge17_Node000012_Node000013"><a xlink:title=" ">
<path fill="none" stroke="orange" stroke-dasharray="5,2" d="M290.36,-56.68C294.96,-55.79 299.56,-54.95 304,-54.2 337.12,-48.63 374.28,-43.93 404.66,-40.49"/>
<polygon fill="orange" stroke="orange" points="289.44,-53.29 280.33,-58.69 290.82,-60.16 289.44,-53.29"/>
</a>
</g>
<text text-anchor="middle" x="341.5" y="-57.2" font-family="Helvetica,sans-Serif" font-size="10.00" fill="grey"> &lt; double &gt;</text>
</g>
<!-- Node13&#45;&gt;Node15 -->
<g id="edge24_Node000015_Node000013" class="edge">
<title>Node13&#45;&gt;Node15</title>
<g id="a_edge24_Node000015_Node000013"><a xlink:title=" ">
<path fill="none" stroke="orange" stroke-dasharray="5,2" d="M296.48,-68.41C321.82,-68.55 351.88,-68.79 379,-69.2 384.74,-69.29 390.69,-69.39 396.67,-69.51"/>
<polygon fill="orange" stroke="orange" points="296.32,-64.91 286.3,-68.35 296.28,-71.91 296.32,-64.91"/>
</a>
</g>
<text text-anchor="middle" x="341.5" y="-72.2" font-family="Helvetica,sans-Serif" font-size="10.00" fill="grey"> &lt; std::string &gt;</text>
</g>
<!-- Node14&#45;&gt;Node2 -->
<g id="edge20_Node000002_Node000014" class="edge">
<title>Node14&#45;&gt;Node2</title>
<g id="a_edge20_Node000002_Node000014"><a xlink:title=" ">
<path fill="none" stroke="#9a32cd" stroke-dasharray="5,2" d="M886.22,-210.41C923.83,-218.55 968.12,-229.6 1007,-243.2 1028.62,-250.76 1052.24,-262.39 1067.86,-270.59"/>
<polygon fill="#9a32cd" stroke="#9a32cd" points="886.81,-206.96 876.3,-208.3 885.35,-213.81 886.81,-206.96"/>
</a>
</g>
<text text-anchor="middle" x="950.5" y="-246.2" font-family="Helvetica,sans-Serif" font-size="10.00" fill="grey"> functionStringParams_</text>
</g>
<!-- Node15&#45;&gt;Node1 -->
<g id="edge28_Node000001_Node000015" class="edge">
<title>Node15&#45;&gt;Node1</title>
<g id="a_edge28_Node000001_Node000015"><a xlink:title=" ">
<path fill="none" stroke="#9a32cd" stroke-dasharray="5,2" d="M529.75,-57.16C532.3,-55.67 534.73,-54.02 537,-52.2 550.33,-41.5 540.35,-27.02 555,-18.2 611.73,15.96 638.8,-6.63 704,-18.2 940.38,-60.14 1191.24,-228.55 1251.12,-270.63"/>
<polygon fill="#9a32cd" stroke="#9a32cd" points="528.12,-54.06 520.72,-61.65 531.23,-60.33 528.12,-54.06"/>
</a>
</g>
<text text-anchor="middle" x="950.5" y="-128.2" font-family="Helvetica,sans-Serif" font-size="10.00" fill="grey"> oversetBlockVec_</text>
</g>
<!-- Node15&#45;&gt;Node14 -->
<g id="edge22_Node000014_Node000015" class="edge">
<title>Node15&#45;&gt;Node14</title>
<g id="a_edge22_Node000014_Node000015"><a xlink:title=" ">
<path fill="none" stroke="#9a32cd" stroke-dasharray="5,2" d="M547.47,-66.26C596.46,-67.04 658.4,-75.27 704,-106.2 717.19,-115.14 711.41,-125.29 722,-137.2 736.79,-153.84 757.12,-168.78 773.03,-179.19"/>
<polygon fill="#9a32cd" stroke="#9a32cd" points="547.25,-62.76 537.23,-66.2 547.21,-69.76 547.25,-62.76"/>
</a>
</g>
<text text-anchor="middle" x="629.5" y="-109.2" font-family="Helvetica,sans-Serif" font-size="10.00" fill="grey"> elements</text>
</g>
<!-- Node16 -->
<g id="Node000016" class="node">
<title>Node16</title>
<g id="a_Node000016"><a xlink:href="structsierra_1_1nalu_1_1_temperature.html" target="_top" xlink:title=" ">
<polygon fill="white" stroke="#666666" points="868.5,-409.7 729.5,-409.7 729.5,-390.7 868.5,-390.7 868.5,-409.7"/>
<text text-anchor="middle" x="799" y="-397.7" font-family="Helvetica,sans-Serif" font-size="10.00">sierra::nalu::Temperature</text>
</a>
</g>
</g>
<!-- Node16&#45;&gt;Node2 -->
<g id="edge26_Node000002_Node000016" class="edge">
<title>Node16&#45;&gt;Node2</title>
<g id="a_edge26_Node000002_Node000016"><a xlink:title=" ">
<path fill="none" stroke="#9a32cd" stroke-dasharray="5,2" d="M878.94,-398.85C919.3,-395.27 968,-386.32 1007,-365.2 1041.09,-346.74 1068.4,-307.8 1079.77,-289.76"/>
<polygon fill="#9a32cd" stroke="#9a32cd" points="878.56,-395.37 868.87,-399.65 879.12,-402.35 878.56,-395.37"/>
</a>
</g>
<text text-anchor="middle" x="950.5" y="-399.2" font-family="Helvetica,sans-Serif" font-size="10.00" fill="grey"> temperature_</text>
</g>
</g>
</svg>
