<?xml version="1.0" encoding="UTF-8" standalone="no"?>
<!DOCTYPE svg PUBLIC "-//W3C//DTD SVG 1.1//EN"
 "http://www.w3.org/Graphics/SVG/1.1/DTD/svg11.dtd">
<!-- Generated by graphviz version 2.43.0 (0)
 -->
<!-- Title: sierra::nalu::PeriodicBoundaryConditionData Pages: 1 -->
<!--zoomable 545 -->

<svg id="main" version="1.1" xmlns="http://www.w3.org/2000/svg" xmlns:xlink="http://www.w3.org/1999/xlink" xml:space="preserve" onload="init(evt)">
<style type="text/css"><![CDATA[
.node, .edge {opacity: 0.7;}
.node.selected, .edge.selected {opacity: 1;}
.edge:hover path { stroke: red; }
.edge:hover polygon { stroke: red; fill: red; }
]]></style>

<defs>
  <circle id="rim" cx="0" cy="0" r="7"/>
  <circle id="rim2" cx="0" cy="0" r="3.5"/>
  <g id="zoomPlus">
    <use xlink:href="#rim" fill="#404040"><set attributeName="fill" to="#808080" begin="zoomplus.mouseover" end="zoomplus.mouseout"/></use>
    <path d="M-4,0h8M0,-4v8" fill="none" stroke="white" stroke-width="1.5" pointer-events="none"/>
  </g>
  <g id="zoomMin">
    <use xlink:href="#rim" fill="#404040"><set attributeName="fill" to="#808080" begin="zoomminus.mouseover" end="zoomminus.mouseout"/></use>
    <path d="M-4,0h8" fill="none" stroke="white" stroke-width="1.5" pointer-events="none"/>
  </g>
  <g id="arrowUp" transform="translate(30 24)">
    <use xlink:href="#rim"/>
    <path pointer-events="none" fill="none" stroke="white" stroke-width="1.5" d="M0,-3.0v7 M-2.5,-0.5L0,-3.0L2.5,-0.5"/>
  </g>
  <g id="arrowRight" transform="rotate(90) translate(36 -43)">
    <use xlink:href="#rim"/>
    <path pointer-events="none" fill="none" stroke="white" stroke-width="1.5" d="M0,-3.0v7 M-2.5,-0.5L0,-3.0L2.5,-0.5"/>
  </g>
  <g id="arrowDown" transform="rotate(180) translate(-30 -48)">
    <use xlink:href="#rim"/>
    <path pointer-events="none" fill="none" stroke="white" stroke-width="1.5" d="M0,-3.0v7 M-2.5,-0.5L0,-3.0L2.5,-0.5"/>
  </g>
  <g id="arrowLeft" transform="rotate(270) translate(-36 17)">
    <use xlink:href="#rim"/>
    <path pointer-events="none" fill="none" stroke="white" stroke-width="1.5" d="M0,-3.0v7 M-2.5,-0.5L0,-3.0L2.5,-0.5"/>
  </g>
  <g id="resetDef">
    <use xlink:href="#rim2" fill="#404040"><set attributeName="fill" to="#808080" begin="reset.mouseover" end="reset.mouseout"/></use>
  </g>
</defs>
<script type="application/ecmascript">
var viewWidth = 1722;
var viewHeight = 545;
var sectionId = 'dynsection-1';
</script>
<script type="application/ecmascript" xlink:href="svg.min.js"/>
<svg id="graph" class="graph">
<g id="viewport">
<title>sierra::nalu::PeriodicBoundaryConditionData</title>
<!-- Node1 -->
<g id="Node000001" class="node">
<title>Node1</title>
<g id="a_Node000001"><a xlink:title=" ">
<polygon fill="#999999" stroke="#666666" points="1714,-480.5 1551,-480.5 1551,-450.5 1714,-450.5 1714,-480.5"/>
<text text-anchor="start" x="1559" y="-468.5" font-family="Helvetica,sans-Serif" font-size="10.00">sierra::nalu::PeriodicBoundary</text>
<text text-anchor="middle" x="1632.5" y="-457.5" font-family="Helvetica,sans-Serif" font-size="10.00">ConditionData</text>
</a>
</g>
</g>
<!-- Node2 -->
<g id="Node000002" class="node">
<title>Node2</title>
<g id="a_Node000002"><a xlink:href="classsierra_1_1nalu_1_1_boundary_condition.html" target="_top" xlink:title=" ">
<polygon fill="white" stroke="#666666" points="725,-522 555,-522 555,-503 725,-503 725,-522"/>
<text text-anchor="middle" x="640" y="-510" font-family="Helvetica,sans-Serif" font-size="10.00">sierra::nalu::BoundaryCondition</text>
</a>
</g>
</g>
<!-- Node2&#45;&gt;Node1 -->
<g id="edge1_Node000001_Node000002" class="edge">
<title>Node2&#45;&gt;Node1</title>
<g id="a_edge1_Node000001_Node000002"><a xlink:title=" ">
<path fill="none" stroke="#63b8ff" d="M735.69,-511.22C804.34,-510.41 899.41,-509.5 983,-509.5 983,-509.5 983,-509.5 1382,-509.5 1450.4,-509.5 1527.76,-493.27 1577.96,-480.52"/>
<polygon fill="#63b8ff" stroke="#63b8ff" points="735.28,-507.73 725.33,-511.35 735.37,-514.73 735.28,-507.73"/>
</a>
</g>
</g>
<!-- Node3 -->
<g id="Node000003" class="node">
<title>Node3</title>
<g id="a_Node000003"><a xlink:title=" ">
<polygon fill="white" stroke="#666666" points="270,-343 205,-343 205,-324 270,-324 270,-343"/>
<text text-anchor="middle" x="237.5" y="-331" font-family="Helvetica,sans-Serif" font-size="10.00">std::string</text>
</a>
</g>
</g>
<!-- Node3&#45;&gt;Node2 -->
<g id="edge2_Node000002_Node000003" class="edge">
<title>Node3&#45;&gt;Node2</title>
<g id="a_edge2_Node000002_Node000003"><a xlink:title=" ">
<path fill="none" stroke="#9a32cd" stroke-dasharray="5,2" d="M241.2,-353.34C246.72,-385.54 262.5,-448.68 304,-479.5 388.57,-542.3 520.13,-533.02 590.58,-522.04"/>
<polygon fill="#9a32cd" stroke="#9a32cd" points="244.64,-352.69 239.65,-343.34 237.73,-353.76 244.64,-352.69"/>
</a>
</g>
<text text-anchor="middle" x="341.5" y="-528.5" font-family="Helvetica,sans-Serif" font-size="10.00" fill="grey"> bcName_</text>
<text text-anchor="middle" x="341.5" y="-517.5" font-family="Helvetica,sans-Serif" font-size="10.00" fill="grey">targetName_</text>
</g>
<!-- Node5 -->
<g id="Node000005" class="node">
<title>Node5</title>
<g id="a_Node000005"><a xlink:href="structsierra_1_1nalu_1_1_master_slave.html" target="_top" xlink:title=" ">
<polygon fill="white" stroke="#666666" points="1053,-475 915,-475 915,-456 1053,-456 1053,-475"/>
<text text-anchor="middle" x="984" y="-463" font-family="Helvetica,sans-Serif" font-size="10.00">sierra::nalu::MasterSlave</text>
</a>
</g>
</g>
<!-- Node3&#45;&gt;Node5 -->
<g id="edge5_Node000005_Node000003" class="edge">
<title>Node3&#45;&gt;Node5</title>
<g id="a_edge5_Node000005_Node000003"><a xlink:title=" ">
<path fill="none" stroke="#9a32cd" stroke-dasharray="5,2" d="M244.93,-352.78C253.97,-376.48 272.9,-415.74 304,-433.5 406.54,-492.07 763.71,-478.62 914.73,-469.96"/>
<polygon fill="#9a32cd" stroke="#9a32cd" points="248.13,-351.35 241.46,-343.12 241.54,-353.71 248.13,-351.35"/>
</a>
</g>
<text text-anchor="middle" x="467" y="-488.5" font-family="Helvetica,sans-Serif" font-size="10.00" fill="grey"> master_</text>
<text text-anchor="middle" x="467" y="-477.5" font-family="Helvetica,sans-Serif" font-size="10.00" fill="grey">slave_</text>
</g>
<!-- Node6 -->
<g id="Node000006" class="node">
<title>Node6</title>
<g id="a_Node000006"><a xlink:href="structsierra_1_1nalu_1_1_periodic_user_data.html" target="_top" xlink:title=" ">
<polygon fill="white" stroke="#666666" points="1462,-429 1300,-429 1300,-410 1462,-410 1462,-429"/>
<text text-anchor="middle" x="1381" y="-417" font-family="Helvetica,sans-Serif" font-size="10.00">sierra::nalu::PeriodicUserData</text>
</a>
</g>
</g>
<!-- Node3&#45;&gt;Node6 -->
<g id="edge32_Node000006_Node000003" class="edge">
<title>Node3&#45;&gt;Node6</title>
<g id="a_edge32_Node000006_Node000003"><a xlink:title=" ">
<path fill="none" stroke="#9a32cd" stroke-dasharray="5,2" d="M261.37,-348.51C301.2,-373.15 386.65,-419.5 466,-419.5 466,-419.5 466,-419.5 1133.5,-419.5 1189.03,-419.5 1251.59,-419.5 1299.79,-419.5"/>
<polygon fill="#9a32cd" stroke="#9a32cd" points="263.02,-345.41 252.69,-343.03 259.28,-351.33 263.02,-345.41"/>
</a>
</g>
<text text-anchor="middle" x="820" y="-422.5" font-family="Helvetica,sans-Serif" font-size="10.00" fill="grey"> searchMethodName_</text>
</g>
<!-- Node8 -->
<g id="Node000008" class="node">
<title>Node8</title>
<g id="a_Node000008"><a xlink:title=" ">
<polygon fill="white" stroke="#666666" points="881,-381.5 759,-381.5 759,-351.5 881,-351.5 881,-381.5"/>
<text text-anchor="start" x="767" y="-369.5" font-family="Helvetica,sans-Serif" font-size="10.00">std::map&lt; std::string,</text>
<text text-anchor="middle" x="820" y="-358.5" font-family="Helvetica,sans-Serif" font-size="10.00"> bool &gt;</text>
</a>
</g>
</g>
<!-- Node3&#45;&gt;Node8 -->
<g id="edge9_Node000008_Node000003" class="edge">
<title>Node3&#45;&gt;Node8</title>
<g id="a_edge9_Node000008_Node000003"><a xlink:title=" ">
<path fill="none" stroke="#9a32cd" stroke-dasharray="5,2" d="M279.95,-341.45C287.92,-342.87 296.21,-344.29 304,-345.5 489.43,-374.28 537.67,-388.42 725,-377.5 735.99,-376.86 747.67,-375.8 758.92,-374.59"/>
<polygon fill="#9a32cd" stroke="#9a32cd" points="280.56,-338 270.09,-339.65 279.3,-344.89 280.56,-338"/>
</a>
</g>
<text text-anchor="middle" x="467" y="-380.5" font-family="Helvetica,sans-Serif" font-size="10.00" fill="grey"> keys</text>
</g>
<!-- Node12 -->
<g id="Node000012" class="node">
<title>Node12</title>
<g id="a_Node000012"><a xlink:title=" ">
<polygon fill="white" stroke="#666666" points="881,-330.5 759,-330.5 759,-300.5 881,-300.5 881,-330.5"/>
<text text-anchor="start" x="767" y="-318.5" font-family="Helvetica,sans-Serif" font-size="10.00">std::map&lt; std::string,</text>
<text text-anchor="middle" x="820" y="-307.5" font-family="Helvetica,sans-Serif" font-size="10.00"> UserDataType &gt;</text>
</a>
</g>
</g>
<!-- Node3&#45;&gt;Node12 -->
<g id="edge14_Node000012_Node000003" class="edge">
<title>Node3&#45;&gt;Node12</title>
<g id="a_edge14_Node000012_Node000003"><a xlink:title=" ">
<path fill="none" stroke="#9a32cd" stroke-dasharray="5,2" d="M280.27,-332.49C364.43,-330.42 560.41,-325.37 725,-319.5 735.94,-319.11 747.59,-318.65 758.83,-318.18"/>
<polygon fill="#9a32cd" stroke="#9a32cd" points="280.01,-329 270.09,-332.74 280.18,-335.99 280.01,-329"/>
</a>
</g>
<text text-anchor="middle" x="467" y="-332.5" font-family="Helvetica,sans-Serif" font-size="10.00" fill="grey"> keys</text>
</g>
<!-- Node13 -->
<g id="Node000013" class="node">
<title>Node13</title>
<g id="a_Node000013"><a xlink:title=" ">
<polygon fill="white" stroke="#666666" points="881,-282.5 759,-282.5 759,-252.5 881,-252.5 881,-282.5"/>
<text text-anchor="start" x="767" y="-270.5" font-family="Helvetica,sans-Serif" font-size="10.00">std::map&lt; std::string,</text>
<text text-anchor="middle" x="820" y="-259.5" font-family="Helvetica,sans-Serif" font-size="10.00"> std::string &gt;</text>
</a>
</g>
</g>
<!-- Node3&#45;&gt;Node13 -->
<g id="edge17_Node000013_Node000003" class="edge">
<title>Node3&#45;&gt;Node13</title>
<g id="a_edge17_Node000013_Node000003"><a xlink:title=" ">
<path fill="none" stroke="#9a32cd" stroke-dasharray="5,2" d="M280.01,-323.35C311.84,-315.93 356.95,-306.21 397,-300.5 525.22,-282.21 676.92,-273.46 758.99,-269.79"/>
<polygon fill="#9a32cd" stroke="#9a32cd" points="279.1,-319.97 270.17,-325.67 280.7,-326.78 279.1,-319.97"/>
</a>
</g>
<text text-anchor="middle" x="467" y="-314.5" font-family="Helvetica,sans-Serif" font-size="10.00" fill="grey"> elements</text>
<text text-anchor="middle" x="467" y="-303.5" font-family="Helvetica,sans-Serif" font-size="10.00" fill="grey">keys</text>
</g>
<!-- Node14 -->
<g id="Node000014" class="node">
<title>Node14</title>
<g id="a_Node000014"><a xlink:title=" ">
<polygon fill="white" stroke="#666666" points="889,-104.5 751,-104.5 751,-74.5 889,-74.5 889,-104.5"/>
<text text-anchor="start" x="759" y="-92.5" font-family="Helvetica,sans-Serif" font-size="10.00">std::map&lt; std::string,</text>
<text text-anchor="middle" x="820" y="-81.5" font-family="Helvetica,sans-Serif" font-size="10.00"> std::vector&lt; double &gt; &gt;</text>
</a>
</g>
</g>
<!-- Node3&#45;&gt;Node14 -->
<g id="edge20_Node000014_Node000003" class="edge">
<title>Node3&#45;&gt;Node14</title>
<g id="a_edge20_Node000014_Node000003"><a xlink:title=" ">
<path fill="none" stroke="#9a32cd" stroke-dasharray="5,2" d="M244.65,-314.06C254.24,-283.35 273,-221.62 286,-168.5 295.59,-129.3 274.9,-107.47 304,-79.5 371.47,-14.65 632.07,-58.47 725,-69.5 735.11,-70.7 745.73,-72.46 756.06,-74.45"/>
<polygon fill="#9a32cd" stroke="#9a32cd" points="241.22,-313.31 241.56,-323.9 247.89,-315.41 241.22,-313.31"/>
</a>
</g>
<text text-anchor="middle" x="467" y="-51.5" font-family="Helvetica,sans-Serif" font-size="10.00" fill="grey"> keys</text>
</g>
<!-- Node17 -->
<g id="Node000017" class="node">
<title>Node17</title>
<g id="a_Node000017"><a xlink:title=" ">
<polygon fill="white" stroke="#666666" points="897,-189.5 743,-189.5 743,-159.5 897,-159.5 897,-189.5"/>
<text text-anchor="start" x="751" y="-177.5" font-family="Helvetica,sans-Serif" font-size="10.00">std::map&lt; std::string,</text>
<text text-anchor="middle" x="820" y="-166.5" font-family="Helvetica,sans-Serif" font-size="10.00"> std::vector&lt; std::string &gt; &gt;</text>
</a>
</g>
</g>
<!-- Node3&#45;&gt;Node17 -->
<g id="edge26_Node000017_Node000003" class="edge">
<title>Node3&#45;&gt;Node17</title>
<g id="a_edge26_Node000017_Node000003"><a xlink:title=" ">
<path fill="none" stroke="#9a32cd" stroke-dasharray="5,2" d="M264.03,-318.99C275.95,-312.54 290.47,-305.15 304,-299.5 412.17,-254.34 441.08,-246.1 555,-218.5 629.42,-200.47 649.48,-203.15 725,-190.5 730.8,-189.53 736.79,-188.52 742.82,-187.5"/>
<polygon fill="#9a32cd" stroke="#9a32cd" points="262.17,-316.02 255.09,-323.9 265.54,-322.15 262.17,-316.02"/>
</a>
</g>
<text text-anchor="middle" x="467" y="-265.5" font-family="Helvetica,sans-Serif" font-size="10.00" fill="grey"> keys</text>
</g>
<!-- Node18 -->
<g id="Node000018" class="node">
<title>Node18</title>
<g id="a_Node000018"><a xlink:title=" ">
<polygon fill="white" stroke="#666666" points="537,-104 397,-104 397,-85 537,-85 537,-104"/>
<text text-anchor="middle" x="467" y="-92" font-family="Helvetica,sans-Serif" font-size="10.00">std::vector&lt; std::string &gt;</text>
</a>
</g>
</g>
<!-- Node3&#45;&gt;Node18 -->
<g id="edge28_Node000018_Node000003" class="edge">
<title>Node3&#45;&gt;Node18</title>
<g id="a_edge28_Node000018_Node000003"><a xlink:title=" ">
<path fill="none" stroke="#9a32cd" stroke-dasharray="5,2" d="M243.74,-313.97C252.28,-285.16 271.59,-230.87 304,-195.5 330.11,-167.01 346.16,-171.87 379,-151.5 404.93,-135.41 434.54,-115.72 451.67,-104.2"/>
<polygon fill="#9a32cd" stroke="#9a32cd" points="240.35,-313.09 240.99,-323.67 247.08,-315 240.35,-313.09"/>
</a>
</g>
<text text-anchor="middle" x="341.5" y="-198.5" font-family="Helvetica,sans-Serif" font-size="10.00" fill="grey"> elements</text>
</g>
<!-- Node4 -->
<g id="Node000004" class="node">
<title>Node4</title>
<g id="a_Node000004"><a xlink:title=" ">
<polygon fill="white" stroke="#666666" points="104,-348.5 0,-348.5 0,-318.5 104,-318.5 104,-348.5"/>
<text text-anchor="start" x="8" y="-336.5" font-family="Helvetica,sans-Serif" font-size="10.00">std::basic_string&lt;</text>
<text text-anchor="middle" x="52" y="-325.5" font-family="Helvetica,sans-Serif" font-size="10.00"> Char &gt;</text>
</a>
</g>
</g>
<!-- Node4&#45;&gt;Node3 -->
<g id="edge3_Node000003_Node000004" class="edge">
<title>Node4&#45;&gt;Node3</title>
<g id="a_edge3_Node000003_Node000004"><a xlink:title=" ">
<path fill="none" stroke="#63b8ff" d="M114.21,-333.5C144.61,-333.5 180.06,-333.5 204.94,-333.5"/>
<polygon fill="#63b8ff" stroke="#63b8ff" points="114.12,-330 104.11,-333.5 114.11,-337 114.12,-330"/>
</a>
</g>
</g>
<!-- Node5&#45;&gt;Node1 -->
<g id="edge4_Node000001_Node000005" class="edge">
<title>Node5&#45;&gt;Node1</title>
<g id="a_edge4_Node000001_Node000005"><a xlink:title=" ">
<path fill="none" stroke="#9a32cd" stroke-dasharray="5,2" d="M1063.42,-465.5C1187.05,-465.5 1426.04,-465.5 1550.97,-465.5"/>
<polygon fill="#9a32cd" stroke="#9a32cd" points="1063.27,-462 1053.27,-465.5 1063.27,-469 1063.27,-462"/>
</a>
</g>
<text text-anchor="middle" x="1247" y="-468.5" font-family="Helvetica,sans-Serif" font-size="10.00" fill="grey"> masterSlave_</text>
</g>
<!-- Node6&#45;&gt;Node1 -->
<g id="edge6_Node000001_Node000006" class="edge">
<title>Node6&#45;&gt;Node1</title>
<g id="a_edge6_Node000001_Node000006"><a xlink:title=" ">
<path fill="none" stroke="#9a32cd" stroke-dasharray="5,2" d="M1472.27,-430.4C1492.33,-433.28 1513.45,-436.67 1533,-440.5 1547.28,-443.3 1562.59,-446.89 1576.78,-450.47"/>
<polygon fill="#9a32cd" stroke="#9a32cd" points="1472.6,-426.91 1462.21,-428.98 1471.62,-433.84 1472.6,-426.91"/>
</a>
</g>
<text text-anchor="middle" x="1506.5" y="-443.5" font-family="Helvetica,sans-Serif" font-size="10.00" fill="grey"> userData_</text>
</g>
<!-- Node7 -->
<g id="Node000007" class="node">
<title>Node7</title>
<g id="a_Node000007"><a xlink:href="structsierra_1_1nalu_1_1_user_data.html" target="_top" xlink:title=" ">
<polygon fill="white" stroke="#666666" points="1194,-277 1071,-277 1071,-258 1194,-258 1194,-277"/>
<text text-anchor="middle" x="1132.5" y="-265" font-family="Helvetica,sans-Serif" font-size="10.00">sierra::nalu::UserData</text>
</a>
</g>
</g>
<!-- Node7&#45;&gt;Node6 -->
<g id="edge7_Node000006_Node000007" class="edge">
<title>Node7&#45;&gt;Node6</title>
<g id="a_edge7_Node000006_Node000007"><a xlink:title=" ">
<path fill="none" stroke="#63b8ff" d="M1157.52,-282.31C1207.8,-313.32 1322.92,-384.3 1364.59,-410"/>
<polygon fill="#63b8ff" stroke="#63b8ff" points="1159.27,-279.28 1148.92,-277.01 1155.59,-285.24 1159.27,-279.28"/>
</a>
</g>
</g>
<!-- Node8&#45;&gt;Node7 -->
<g id="edge8_Node000007_Node000008" class="edge">
<title>Node8&#45;&gt;Node7</title>
<g id="a_edge8_Node000007_Node000008"><a xlink:title=" ">
<path fill="none" stroke="#9a32cd" stroke-dasharray="5,2" d="M891.51,-362.99C938.81,-358.59 1001.61,-348.69 1053,-326.5 1080.86,-314.47 1107.93,-290.64 1121.84,-277.24"/>
<polygon fill="#9a32cd" stroke="#9a32cd" points="891.02,-359.52 881.36,-363.87 891.63,-366.49 891.02,-359.52"/>
</a>
</g>
<text text-anchor="middle" x="984" y="-362.5" font-family="Helvetica,sans-Serif" font-size="10.00" fill="grey"> bcDataSpecifiedMap_</text>
</g>
<!-- Node9 -->
<g id="Node000009" class="node">
<title>Node9</title>
<g id="a_Node000009"><a xlink:title=" ">
<polygon fill="white" stroke="#666666" points="517.5,-177 416.5,-177 416.5,-158 517.5,-158 517.5,-177"/>
<text text-anchor="middle" x="467" y="-165" font-family="Helvetica,sans-Serif" font-size="10.00">std::map&lt; K, T &gt;</text>
</a>
</g>
</g>
<!-- Node9&#45;&gt;Node8 -->
<g id="edge10_Node000008_Node000009" class="edge">
<title>Node9&#45;&gt;Node8</title>
<g id="a_edge10_Node000008_Node000009"><a xlink:title=" ">
<path fill="none" stroke="orange" stroke-dasharray="5,2" d="M521.99,-181.77C527.71,-185.15 532.92,-189.33 537,-194.5 572.87,-239.94 514.54,-282.1 555,-323.5 582.59,-351.73 689.96,-361.43 758.98,-364.76"/>
<polygon fill="orange" stroke="orange" points="523.18,-178.45 512.67,-177.09 520.03,-184.7 523.18,-178.45"/>
</a>
</g>
<text text-anchor="middle" x="640" y="-365.5" font-family="Helvetica,sans-Serif" font-size="10.00" fill="grey"> &lt; std::string, bool &gt;</text>
</g>
<!-- Node9&#45;&gt;Node12 -->
<g id="edge15_Node000012_Node000009" class="edge">
<title>Node9&#45;&gt;Node12</title>
<g id="a_edge15_Node000012_Node000009"><a xlink:title=" ">
<path fill="none" stroke="orange" stroke-dasharray="5,2" d="M520.11,-181.48C526.43,-184.92 532.3,-189.19 537,-194.5 558.3,-218.55 531.6,-242.49 555,-264.5 583.81,-291.61 690.21,-305.18 758.81,-311.25"/>
<polygon fill="orange" stroke="orange" points="521.14,-178.1 510.61,-177.02 518.17,-184.44 521.14,-178.1"/>
</a>
</g>
<text text-anchor="middle" x="640" y="-311.5" font-family="Helvetica,sans-Serif" font-size="10.00" fill="grey"> &lt; std::string, UserDataType &gt;</text>
</g>
<!-- Node9&#45;&gt;Node13 -->
<g id="edge18_Node000013_Node000009" class="edge">
<title>Node9&#45;&gt;Node13</title>
<g id="a_edge18_Node000013_Node000009"><a xlink:title=" ">
<path fill="none" stroke="orange" stroke-dasharray="5,2" d="M507.56,-180.21C522.4,-184.87 539.43,-190.07 555,-194.5 630.07,-215.85 649.91,-217.21 725,-238.5 740.28,-242.83 756.86,-247.84 771.79,-252.47"/>
<polygon fill="orange" stroke="orange" points="508.28,-176.77 497.69,-177.1 506.17,-183.45 508.28,-176.77"/>
</a>
</g>
<text text-anchor="start" x="597.5" y="-252.5" font-family="Helvetica,sans-Serif" font-size="10.00" fill="grey"> &lt; std::string, std</text>
<text text-anchor="middle" x="640" y="-241.5" font-family="Helvetica,sans-Serif" font-size="10.00" fill="grey">::string &gt;</text>
</g>
<!-- Node9&#45;&gt;Node14 -->
<g id="edge24_Node000014_Node000009" class="edge">
<title>Node9&#45;&gt;Node14</title>
<g id="a_edge24_Node000014_Node000009"><a xlink:title=" ">
<path fill="none" stroke="orange" stroke-dasharray="5,2" d="M505.58,-154.84C520.82,-149.98 538.64,-144.61 555,-140.5 620.99,-123.94 697.41,-109.7 751,-100.52"/>
<polygon fill="orange" stroke="orange" points="504.42,-151.54 495.99,-157.95 506.58,-158.2 504.42,-151.54"/>
</a>
</g>
<text text-anchor="start" x="588" y="-154.5" font-family="Helvetica,sans-Serif" font-size="10.00" fill="grey"> &lt; std::string, std</text>
<text text-anchor="middle" x="640" y="-143.5" font-family="Helvetica,sans-Serif" font-size="10.00" fill="grey">::vector&lt; double &gt; &gt;</text>
</g>
<!-- Node9&#45;&gt;Node17 -->
<g id="edge30_Node000017_Node000009" class="edge">
<title>Node9&#45;&gt;Node17</title>
<g id="a_edge30_Node000017_Node000009"><a xlink:title=" ">
<path fill="none" stroke="orange" stroke-dasharray="5,2" d="M527.84,-166.72C579.93,-166.28 657.48,-166.22 725,-168.5 730.8,-168.7 736.8,-168.95 742.83,-169.25"/>
<polygon fill="orange" stroke="orange" points="527.73,-163.22 517.77,-166.81 527.8,-170.22 527.73,-163.22"/>
</a>
</g>
<text text-anchor="start" x="580" y="-182.5" font-family="Helvetica,sans-Serif" font-size="10.00" fill="grey"> &lt; std::string, std</text>
<text text-anchor="middle" x="640" y="-171.5" font-family="Helvetica,sans-Serif" font-size="10.00" fill="grey">::vector&lt; std::string &gt; &gt;</text>
</g>
<!-- Node10 -->
<g id="Node000010" class="node">
<title>Node10</title>
<g id="a_Node000010"><a xlink:title=" ">
<polygon fill="white" stroke="#666666" points="252,-125 223,-125 223,-106 252,-106 252,-125"/>
<text text-anchor="middle" x="237.5" y="-113" font-family="Helvetica,sans-Serif" font-size="10.00">K</text>
</a>
</g>
</g>
<!-- Node10&#45;&gt;Node9 -->
<g id="edge11_Node000009_Node000010" class="edge">
<title>Node10&#45;&gt;Node9</title>
<g id="a_edge11_Node000009_Node000010"><a xlink:title=" ">
<path fill="none" stroke="#9a32cd" stroke-dasharray="5,2" d="M262.33,-117.64C290.51,-120.49 338.66,-126.4 379,-136.5 401.24,-142.07 425.78,-151.09 443.11,-157.97"/>
<polygon fill="#9a32cd" stroke="#9a32cd" points="262.53,-114.14 252.24,-116.66 261.85,-121.11 262.53,-114.14"/>
</a>
</g>
<text text-anchor="middle" x="341.5" y="-139.5" font-family="Helvetica,sans-Serif" font-size="10.00" fill="grey"> keys</text>
</g>
<!-- Node11 -->
<g id="Node000011" class="node">
<title>Node11</title>
<g id="a_Node000011"><a xlink:title=" ">
<polygon fill="white" stroke="#666666" points="66.5,-144 37.5,-144 37.5,-125 66.5,-125 66.5,-144"/>
<text text-anchor="middle" x="52" y="-132" font-family="Helvetica,sans-Serif" font-size="10.00">T</text>
</a>
</g>
</g>
<!-- Node11&#45;&gt;Node9 -->
<g id="edge12_Node000009_Node000011" class="edge">
<title>Node11&#45;&gt;Node9</title>
<g id="a_edge12_Node000009_Node000011"><a xlink:title=" ">
<path fill="none" stroke="#9a32cd" stroke-dasharray="5,2" d="M76.91,-136.41C142.63,-141.66 326.98,-156.39 416.28,-163.53"/>
<polygon fill="#9a32cd" stroke="#9a32cd" points="76.99,-132.91 66.74,-135.6 76.43,-139.88 76.99,-132.91"/>
</a>
</g>
<text text-anchor="middle" x="237.5" y="-156.5" font-family="Helvetica,sans-Serif" font-size="10.00" fill="grey"> elements</text>
</g>
<!-- Node16 -->
<g id="Node000016" class="node">
<title>Node16</title>
<g id="a_Node000016"><a xlink:title=" ">
<polygon fill="white" stroke="#666666" points="286,-88 189,-88 189,-69 286,-69 286,-88"/>
<text text-anchor="middle" x="237.5" y="-76" font-family="Helvetica,sans-Serif" font-size="10.00">std::vector&lt; T &gt;</text>
</a>
</g>
</g>
<!-- Node11&#45;&gt;Node16 -->
<g id="edge23_Node000016_Node000011" class="edge">
<title>Node11&#45;&gt;Node16</title>
<g id="a_edge23_Node000016_Node000011"><a xlink:title=" ">
<path fill="none" stroke="#9a32cd" stroke-dasharray="5,2" d="M76.4,-127.36C109.09,-117.38 168.51,-99.25 205.04,-88.1"/>
<polygon fill="#9a32cd" stroke="#9a32cd" points="75.34,-124.02 66.79,-130.29 77.38,-130.72 75.34,-124.02"/>
</a>
</g>
<text text-anchor="middle" x="146.5" y="-116.5" font-family="Helvetica,sans-Serif" font-size="10.00" fill="grey"> elements</text>
</g>
<!-- Node12&#45;&gt;Node7 -->
<g id="edge13_Node000007_Node000012" class="edge">
<title>Node12&#45;&gt;Node7</title>
<g id="a_edge13_Node000007_Node000012"><a xlink:title=" ">
<path fill="none" stroke="#9a32cd" stroke-dasharray="5,2" d="M891.35,-312.36C937.65,-309.36 999.38,-303.57 1053,-292.5 1071.07,-288.77 1090.86,-282.45 1106.05,-277.1"/>
<polygon fill="#9a32cd" stroke="#9a32cd" points="890.89,-308.89 881.12,-313 891.32,-315.87 890.89,-308.89"/>
</a>
</g>
<text text-anchor="middle" x="984" y="-314.5" font-family="Helvetica,sans-Serif" font-size="10.00" fill="grey"> bcDataTypeMap_</text>
</g>
<!-- Node13&#45;&gt;Node7 -->
<g id="edge16_Node000007_Node000013" class="edge">
<title>Node13&#45;&gt;Node7</title>
<g id="a_edge16_Node000007_Node000013"><a xlink:title=" ">
<path fill="none" stroke="#9a32cd" stroke-dasharray="5,2" d="M891.44,-267.5C945.53,-267.5 1019.44,-267.5 1070.9,-267.5"/>
<polygon fill="#9a32cd" stroke="#9a32cd" points="891.24,-264 881.24,-267.5 891.24,-271 891.24,-264"/>
</a>
</g>
<text text-anchor="middle" x="984" y="-281.5" font-family="Helvetica,sans-Serif" font-size="10.00" fill="grey"> functions</text>
<text text-anchor="middle" x="984" y="-270.5" font-family="Helvetica,sans-Serif" font-size="10.00" fill="grey">userFunctionMap_</text>
</g>
<!-- Node14&#45;&gt;Node7 -->
<g id="edge19_Node000007_Node000014" class="edge">
<title>Node14&#45;&gt;Node7</title>
<g id="a_edge19_Node000007_Node000014"><a xlink:title=" ">
<path fill="none" stroke="#9a32cd" stroke-dasharray="5,2" d="M899.04,-105.26C946.61,-117.54 1006.91,-138.07 1053,-170.5 1087.55,-194.81 1115.01,-238.37 1126.14,-257.74"/>
<polygon fill="#9a32cd" stroke="#9a32cd" points="899.64,-101.81 889.09,-102.77 897.94,-108.6 899.64,-101.81"/>
</a>
</g>
<text text-anchor="middle" x="984" y="-173.5" font-family="Helvetica,sans-Serif" font-size="10.00" fill="grey"> functionParams_</text>
</g>
<!-- Node15 -->
<g id="Node000015" class="node">
<title>Node15</title>
<g id="a_Node000015"><a xlink:title=" ">
<polygon fill="white" stroke="#666666" points="529,-19 405,-19 405,0 529,0 529,-19"/>
<text text-anchor="middle" x="467" y="-7" font-family="Helvetica,sans-Serif" font-size="10.00">std::vector&lt; double &gt;</text>
</a>
</g>
</g>
<!-- Node15&#45;&gt;Node14 -->
<g id="edge21_Node000014_Node000015" class="edge">
<title>Node15&#45;&gt;Node14</title>
<g id="a_edge21_Node000014_Node000015"><a xlink:title=" ">
<path fill="none" stroke="#9a32cd" stroke-dasharray="5,2" d="M539.32,-6.35C591.93,-6.16 664.57,-10.4 725,-30.5 753.89,-40.11 782.92,-60.33 800.92,-74.4"/>
<polygon fill="#9a32cd" stroke="#9a32cd" points="539.04,-2.85 529.08,-6.45 539.11,-9.85 539.04,-2.85"/>
</a>
</g>
<text text-anchor="middle" x="640" y="-33.5" font-family="Helvetica,sans-Serif" font-size="10.00" fill="grey"> elements</text>
</g>
<!-- Node16&#45;&gt;Node15 -->
<g id="edge22_Node000015_Node000016" class="edge">
<title>Node16&#45;&gt;Node15</title>
<g id="a_edge22_Node000015_Node000016"><a xlink:title=" ">
<path fill="none" stroke="orange" stroke-dasharray="5,2" d="M255.87,-61.94C268.28,-51.14 285.92,-37.73 304,-30.5 335.86,-17.75 373.79,-12.36 404.94,-10.22"/>
<polygon fill="orange" stroke="orange" points="253.25,-59.6 248.18,-68.9 257.94,-64.79 253.25,-59.6"/>
</a>
</g>
<text text-anchor="middle" x="341.5" y="-33.5" font-family="Helvetica,sans-Serif" font-size="10.00" fill="grey"> &lt; double &gt;</text>
</g>
<!-- Node16&#45;&gt;Node18 -->
<g id="edge29_Node000018_Node000016" class="edge">
<title>Node16&#45;&gt;Node18</title>
<g id="a_edge29_Node000018_Node000016"><a xlink:title=" ">
<path fill="none" stroke="orange" stroke-dasharray="5,2" d="M296.27,-82.56C326.86,-84.71 364.64,-87.37 396.78,-89.63"/>
<polygon fill="orange" stroke="orange" points="296.41,-79.06 286.19,-81.85 295.92,-86.05 296.41,-79.06"/>
</a>
</g>
<text text-anchor="middle" x="341.5" y="-91.5" font-family="Helvetica,sans-Serif" font-size="10.00" fill="grey"> &lt; std::string &gt;</text>
</g>
<!-- Node17&#45;&gt;Node7 -->
<g id="edge25_Node000007_Node000017" class="edge">
<title>Node17&#45;&gt;Node7</title>
<g id="a_edge25_Node000007_Node000017"><a xlink:title=" ">
<path fill="none" stroke="#9a32cd" stroke-dasharray="5,2" d="M907.03,-183.73C951.65,-190.36 1006.42,-201.42 1053,-219.5 1078.02,-229.21 1104.01,-246.85 1118.92,-257.83"/>
<polygon fill="#9a32cd" stroke="#9a32cd" points="907.48,-180.26 897.08,-182.3 906.48,-187.19 907.48,-180.26"/>
</a>
</g>
<text text-anchor="middle" x="984" y="-222.5" font-family="Helvetica,sans-Serif" font-size="10.00" fill="grey"> functionStringParams_</text>
</g>
<!-- Node18&#45;&gt;Node17 -->
<g id="edge27_Node000017_Node000018" class="edge">
<title>Node18&#45;&gt;Node17</title>
<g id="a_edge27_Node000017_Node000018"><a xlink:title=" ">
<path fill="none" stroke="#9a32cd" stroke-dasharray="5,2" d="M510.64,-82.61C563.79,-70.23 656.03,-56.9 725,-90.5 736.67,-96.19 733.88,-104.27 743,-113.5 760,-130.71 781.72,-147.73 797.59,-159.4"/>
<polygon fill="#9a32cd" stroke="#9a32cd" points="509.76,-79.23 500.87,-84.98 511.41,-86.03 509.76,-79.23"/>
</a>
</g>
<text text-anchor="middle" x="640" y="-93.5" font-family="Helvetica,sans-Serif" font-size="10.00" fill="grey"> elements</text>
</g>
<!-- Node19 -->
<g id="Node000019" class="node">
<title>Node19</title>
<g id="a_Node000019"><a xlink:href="structsierra_1_1nalu_1_1_temperature.html" target="_top" xlink:title=" ">
<polygon fill="white" stroke="#666666" points="889.5,-234 750.5,-234 750.5,-215 889.5,-215 889.5,-234"/>
<text text-anchor="middle" x="820" y="-222" font-family="Helvetica,sans-Serif" font-size="10.00">sierra::nalu::Temperature</text>
</a>
</g>
</g>
<!-- Node19&#45;&gt;Node7 -->
<g id="edge31_Node000007_Node000019" class="edge">
<title>Node19&#45;&gt;Node7</title>
<g id="a_edge31_Node000007_Node000019"><a xlink:title=" ">
<path fill="none" stroke="#9a32cd" stroke-dasharray="5,2" d="M899.68,-232.64C944.68,-237.63 1002.13,-244.58 1053,-252.5 1063.15,-254.08 1073.98,-256 1084.27,-257.93"/>
<polygon fill="#9a32cd" stroke="#9a32cd" points="900.02,-229.15 889.69,-231.54 899.25,-236.11 900.02,-229.15"/>
</a>
</g>
<text text-anchor="middle" x="984" y="-255.5" font-family="Helvetica,sans-Serif" font-size="10.00" fill="grey"> temperature_</text>
</g>
</g>
</svg>

<g id="navigator" transform="translate(0 0)" fill="#404254">
  <rect fill="#f2f5e9" fill-opacity="0.5" stroke="#606060" stroke-width=".5" x="0" y="0" width="60" height="60"/>
  <use id="zoomplus" xlink:href="#zoomPlus" x="17" y="9" onmousedown="handleZoom(evt,'in')"/>
  <use id="zoomminus" xlink:href="#zoomMin" x="42" y="9" onmousedown="handleZoom(evt,'out')"/>
  <use id="reset" xlink:href="#resetDef" x="30" y="36" onmousedown="handleReset()"/>
   <use id="arrowup" xlink:href="#arrowUp" x="0" y="0" onmousedown="handlePan(0,-1)"/>
  <use id="arrowright" xlink:href="#arrowRight" x="0" y="0" onmousedown="handlePan(1,0)"/>
  <use id="arrowdown" xlink:href="#arrowDown" x="0" y="0" onmousedown="handlePan(0,1)"/>
  <use id="arrowleft" xlink:href="#arrowLeft" x="0" y="0" onmousedown="handlePan(-1,0)"/>
</g>
<svg viewBox="0 0 15 15" width="100%" height="30px" preserveAspectRatio="xMaxYMin meet">
 <g id="arrow_out" transform="scale(0.3 0.3)">
  <a xlink:href="structsierra_1_1nalu_1_1_periodic_boundary_condition_data__coll__graph_org.svg" target="_base">
   <rect id="button" ry="5" rx="5" y="6" x="6" height="38" width="38"
        fill="#f2f5e9" fill-opacity="0.5" stroke="#606060" stroke-width="1.0"/>
   <path id="arrow"
     d="M 11.500037,31.436501 C 11.940474,20.09759 22.043105,11.32322 32.158766,21.979434 L 37.068811,17.246167 C 37.068811,17.246167 37.088388,32 37.088388,32 L 22.160133,31.978069 C 22.160133,31.978069 26.997745,27.140456 26.997745,27.140456 C 18.528582,18.264221 13.291696,25.230495 11.500037,31.436501 z"
     style="fill:#404040;"/>
  </a>
 </g>
</svg>

<style type='text/css'>
<![CDATA[
[data-mouse-over-selected='false'] { opacity: 0.7; }
[data-mouse-over-selected='true']  { opacity: 1.0; }
]]>
</style>
<script type="application/ecmascript"><![CDATA[
document.addEventListener('DOMContentLoaded', (event) => {
  highlightEdges();
  highlightAdjacentNodes();
});
]]></script>
</svg>
