<?xml version="1.0" encoding="UTF-8" standalone="no"?>
<!DOCTYPE svg PUBLIC "-//W3C//DTD SVG 1.1//EN"
 "http://www.w3.org/Graphics/SVG/1.1/DTD/svg11.dtd">
<!-- Generated by graphviz version 2.43.0 (0)
 -->
<!-- Title: sierra::nalu::InflowUserData Pages: 1 -->
<svg width="1485pt" height="513pt"
 viewBox="0.00 0.00 1485.00 513.00" xmlns="http://www.w3.org/2000/svg" xmlns:xlink="http://www.w3.org/1999/xlink">
<g id="graph0" class="graph" transform="scale(1 1) rotate(0) translate(4 509)">
<title>sierra::nalu::InflowUserData</title>
<polygon fill="white" stroke="transparent" points="-4,4 -4,-509 1481,-509 1481,4 -4,4"/>
<!-- Node1 -->
<g id="node1" class="node">
<title>Node1</title>
<g id="a_node1"><a xlink:title=" ">
<polygon fill="#bfbfbf" stroke="black" points="1325,-161.5 1325,-180.5 1477,-180.5 1477,-161.5 1325,-161.5"/>
<text text-anchor="middle" x="1401" y="-168.5" font-family="Helvetica,sans-Serif" font-size="10.00">sierra::nalu::InflowUserData</text>
</a>
</g>
</g>
<!-- Node2 -->
<g id="node2" class="node">
<title>Node2</title>
<g id="a_node2"><a xlink:href="structsierra_1_1nalu_1_1_user_data.html" target="_top" xlink:title=" ">
<polygon fill="white" stroke="black" points="1069.5,-313.5 1069.5,-332.5 1192.5,-332.5 1192.5,-313.5 1069.5,-313.5"/>
<text text-anchor="middle" x="1131" y="-320.5" font-family="Helvetica,sans-Serif" font-size="10.00">sierra::nalu::UserData</text>
</a>
</g>
</g>
<!-- Node2&#45;&gt;Node1 -->
<g id="edge1" class="edge">
<title>Node2&#45;&gt;Node1</title>
<path fill="none" stroke="midnightblue" d="M1203.04,-318.95C1236.56,-314.39 1275.92,-305.04 1307,-286 1351.23,-258.91 1383.56,-202.97 1395.24,-180.58"/>
<polygon fill="midnightblue" stroke="midnightblue" points="1202.34,-315.51 1192.84,-320.21 1203.2,-322.45 1202.34,-315.51"/>
</g>
<!-- Node3 -->
<g id="node3" class="node">
<title>Node3</title>
<g id="a_node3"><a xlink:title=" ">
<polygon fill="white" stroke="#bfbfbf" points="738,-445 738,-475 860,-475 860,-445 738,-445"/>
<text text-anchor="start" x="746" y="-463" font-family="Helvetica,sans-Serif" font-size="10.00">std::map&lt; std::string,</text>
<text text-anchor="middle" x="799" y="-452" font-family="Helvetica,sans-Serif" font-size="10.00"> bool &gt;</text>
</a>
</g>
</g>
<!-- Node3&#45;&gt;Node2 -->
<g id="edge2" class="edge">
<title>Node3&#45;&gt;Node2</title>
<path fill="none" stroke="#9a32cd" stroke-dasharray="5,2" d="M870.36,-446.56C918.58,-435.73 983.13,-417.99 1036,-392 1069.25,-375.66 1103,-347.42 1119.54,-332.65"/>
<polygon fill="#9a32cd" stroke="#9a32cd" points="869.34,-443.2 860.33,-448.77 870.85,-450.04 869.34,-443.2"/>
<text text-anchor="middle" x="965" y="-442" font-family="Helvetica,sans-Serif" font-size="10.00"> bcDataSpecifiedMap_</text>
</g>
<!-- Node4 -->
<g id="node4" class="node">
<title>Node4</title>
<g id="a_node4"><a xlink:title=" ">
<polygon fill="white" stroke="#bfbfbf" points="205,-313.5 205,-332.5 270,-332.5 270,-313.5 205,-313.5"/>
<text text-anchor="middle" x="237.5" y="-320.5" font-family="Helvetica,sans-Serif" font-size="10.00">std::string</text>
</a>
</g>
</g>
<!-- Node4&#45;&gt;Node3 -->
<g id="edge3" class="edge">
<title>Node4&#45;&gt;Node3</title>
<path fill="none" stroke="#9a32cd" stroke-dasharray="5,2" d="M267.24,-338.35C274.19,-343.2 281.04,-349.13 286,-356 302.55,-378.92 282.77,-398.34 304,-417 425.74,-523.98 635.56,-496.87 738.09,-475.04"/>
<polygon fill="#9a32cd" stroke="#9a32cd" points="268.81,-335.2 258.5,-332.77 265.05,-341.1 268.81,-335.2"/>
<text text-anchor="middle" x="467" y="-497" font-family="Helvetica,sans-Serif" font-size="10.00"> keys</text>
</g>
<!-- Node9 -->
<g id="node9" class="node">
<title>Node9</title>
<g id="a_node9"><a xlink:title=" ">
<polygon fill="white" stroke="#bfbfbf" points="738,-386 738,-416 860,-416 860,-386 738,-386"/>
<text text-anchor="start" x="746" y="-404" font-family="Helvetica,sans-Serif" font-size="10.00">std::map&lt; std::string,</text>
<text text-anchor="middle" x="799" y="-393" font-family="Helvetica,sans-Serif" font-size="10.00"> UserDataType &gt;</text>
</a>
</g>
</g>
<!-- Node4&#45;&gt;Node9 -->
<g id="edge9" class="edge">
<title>Node4&#45;&gt;Node9</title>
<path fill="none" stroke="#9a32cd" stroke-dasharray="5,2" d="M268.47,-336.73C312.54,-356.88 390.34,-392.27 397,-394 514.58,-424.62 658.18,-416.75 737.7,-408.63"/>
<polygon fill="#9a32cd" stroke="#9a32cd" points="269.91,-333.54 259.36,-332.57 267,-339.91 269.91,-333.54"/>
<text text-anchor="middle" x="467" y="-417" font-family="Helvetica,sans-Serif" font-size="10.00"> keys</text>
</g>
<!-- Node10 -->
<g id="node10" class="node">
<title>Node10</title>
<g id="a_node10"><a xlink:title=" ">
<polygon fill="white" stroke="#bfbfbf" points="722,-308 722,-338 876,-338 876,-308 722,-308"/>
<text text-anchor="start" x="730" y="-326" font-family="Helvetica,sans-Serif" font-size="10.00">std::map&lt; std::string,</text>
<text text-anchor="middle" x="799" y="-315" font-family="Helvetica,sans-Serif" font-size="10.00"> std::vector&lt; std::string &gt; &gt;</text>
</a>
</g>
</g>
<!-- Node4&#45;&gt;Node10 -->
<g id="edge12" class="edge">
<title>Node4&#45;&gt;Node10</title>
<path fill="none" stroke="#9a32cd" stroke-dasharray="5,2" d="M280.42,-323C374.27,-323 602.39,-323 721.98,-323"/>
<polygon fill="#9a32cd" stroke="#9a32cd" points="280.18,-319.5 270.18,-323 280.18,-326.5 280.18,-319.5"/>
<text text-anchor="middle" x="467" y="-326" font-family="Helvetica,sans-Serif" font-size="10.00"> keys</text>
</g>
<!-- Node11 -->
<g id="node11" class="node">
<title>Node11</title>
<g id="a_node11"><a xlink:title=" ">
<polygon fill="white" stroke="#bfbfbf" points="397,-267.5 397,-286.5 537,-286.5 537,-267.5 397,-267.5"/>
<text text-anchor="middle" x="467" y="-274.5" font-family="Helvetica,sans-Serif" font-size="10.00">std::vector&lt; std::string &gt;</text>
</a>
</g>
</g>
<!-- Node4&#45;&gt;Node11 -->
<g id="edge14" class="edge">
<title>Node4&#45;&gt;Node11</title>
<path fill="none" stroke="#9a32cd" stroke-dasharray="5,2" d="M269.08,-309.62C279.93,-305.33 292.34,-300.94 304,-298 333.98,-290.45 367.79,-285.52 396.75,-282.35"/>
<polygon fill="#9a32cd" stroke="#9a32cd" points="267.56,-306.46 259.62,-313.48 270.21,-312.94 267.56,-306.46"/>
<text text-anchor="middle" x="341.5" y="-301" font-family="Helvetica,sans-Serif" font-size="10.00"> elements</text>
</g>
<!-- Node13 -->
<g id="node13" class="node">
<title>Node13</title>
<g id="a_node13"><a xlink:title=" ">
<polygon fill="white" stroke="#bfbfbf" points="738,-237 738,-267 860,-267 860,-237 738,-237"/>
<text text-anchor="start" x="746" y="-255" font-family="Helvetica,sans-Serif" font-size="10.00">std::map&lt; std::string,</text>
<text text-anchor="middle" x="799" y="-244" font-family="Helvetica,sans-Serif" font-size="10.00"> std::string &gt;</text>
</a>
</g>
</g>
<!-- Node4&#45;&gt;Node13 -->
<g id="edge19" class="edge">
<title>Node4&#45;&gt;Node13</title>
<path fill="none" stroke="#9a32cd" stroke-dasharray="5,2" d="M259.18,-306.95C267.88,-299.75 277.86,-290.89 286,-282 295.25,-271.9 292.58,-264.55 304,-257 339.34,-233.62 354.9,-240.83 397,-236 532.56,-220.45 568.1,-222.81 704,-235 714.98,-235.99 726.6,-237.61 737.79,-239.47"/>
<polygon fill="#9a32cd" stroke="#9a32cd" points="256.91,-304.29 251.32,-313.29 261.3,-309.74 256.91,-304.29"/>
<text text-anchor="middle" x="467" y="-250" font-family="Helvetica,sans-Serif" font-size="10.00"> elements</text>
<text text-anchor="middle" x="467" y="-239" font-family="Helvetica,sans-Serif" font-size="10.00">keys</text>
</g>
<!-- Node14 -->
<g id="node14" class="node">
<title>Node14</title>
<g id="a_node14"><a xlink:title=" ">
<polygon fill="white" stroke="#bfbfbf" points="730,-167 730,-197 868,-197 868,-167 730,-167"/>
<text text-anchor="start" x="738" y="-185" font-family="Helvetica,sans-Serif" font-size="10.00">std::map&lt; std::string,</text>
<text text-anchor="middle" x="799" y="-174" font-family="Helvetica,sans-Serif" font-size="10.00"> std::vector&lt; double &gt; &gt;</text>
</a>
</g>
</g>
<!-- Node4&#45;&gt;Node14 -->
<g id="edge22" class="edge">
<title>Node4&#45;&gt;Node14</title>
<path fill="none" stroke="#9a32cd" stroke-dasharray="5,2" d="M261.15,-307.36C269.87,-300.42 279.33,-291.64 286,-282 299.2,-262.92 286.92,-248.7 304,-233 389.16,-154.69 440.35,-179.47 555,-164 620.63,-155.14 638.07,-157.74 704,-164 712.44,-164.8 721.24,-166 729.93,-167.4"/>
<polygon fill="#9a32cd" stroke="#9a32cd" points="259,-304.6 253.13,-313.42 263.22,-310.18 259,-304.6"/>
<text text-anchor="middle" x="467" y="-181" font-family="Helvetica,sans-Serif" font-size="10.00"> keys</text>
</g>
<!-- Node5 -->
<g id="node5" class="node">
<title>Node5</title>
<g id="a_node5"><a xlink:title=" ">
<polygon fill="white" stroke="#bfbfbf" points="0,-385 0,-415 104,-415 104,-385 0,-385"/>
<text text-anchor="start" x="8" y="-403" font-family="Helvetica,sans-Serif" font-size="10.00">std::basic_string&lt;</text>
<text text-anchor="middle" x="52" y="-392" font-family="Helvetica,sans-Serif" font-size="10.00"> Char &gt;</text>
</a>
</g>
</g>
<!-- Node5&#45;&gt;Node4 -->
<g id="edge4" class="edge">
<title>Node5&#45;&gt;Node4</title>
<path fill="none" stroke="midnightblue" d="M98.3,-380.99C134.97,-365.6 185.09,-344.57 213.8,-332.52"/>
<polygon fill="midnightblue" stroke="midnightblue" points="96.68,-377.87 88.82,-384.97 99.39,-384.33 96.68,-377.87"/>
</g>
<!-- Node6 -->
<g id="node6" class="node">
<title>Node6</title>
<g id="a_node6"><a xlink:title=" ">
<polygon fill="white" stroke="#bfbfbf" points="416.5,-365.5 416.5,-384.5 517.5,-384.5 517.5,-365.5 416.5,-365.5"/>
<text text-anchor="middle" x="467" y="-372.5" font-family="Helvetica,sans-Serif" font-size="10.00">std::map&lt; K, T &gt;</text>
</a>
</g>
</g>
<!-- Node6&#45;&gt;Node3 -->
<g id="edge5" class="edge">
<title>Node6&#45;&gt;Node3</title>
<path fill="none" stroke="orange" stroke-dasharray="5,2" d="M503.17,-388.17C514.03,-392.26 526.02,-396.79 537,-401 545.02,-404.07 546.78,-405.54 555,-408 616.38,-426.37 688.31,-440.93 737.91,-449.91"/>
<polygon fill="orange" stroke="orange" points="504.18,-384.81 493.58,-384.57 501.71,-391.36 504.18,-384.81"/>
<text text-anchor="middle" x="629.5" y="-445" font-family="Helvetica,sans-Serif" font-size="10.00"> &lt; std::string, bool &gt;</text>
</g>
<!-- Node6&#45;&gt;Node9 -->
<g id="edge10" class="edge">
<title>Node6&#45;&gt;Node9</title>
<path fill="none" stroke="orange" stroke-dasharray="5,2" d="M527.76,-379.71C587.25,-384.4 678.07,-391.55 737.74,-396.25"/>
<polygon fill="orange" stroke="orange" points="528.01,-376.22 517.76,-378.92 527.46,-383.2 528.01,-376.22"/>
<text text-anchor="middle" x="629.5" y="-396" font-family="Helvetica,sans-Serif" font-size="10.00"> &lt; std::string, UserDataType &gt;</text>
</g>
<!-- Node6&#45;&gt;Node10 -->
<g id="edge17" class="edge">
<title>Node6&#45;&gt;Node10</title>
<path fill="none" stroke="orange" stroke-dasharray="5,2" d="M515.86,-363.14C528.54,-360.23 542.24,-357.3 555,-355 586.09,-349.39 662.88,-339.52 721.89,-332.22"/>
<polygon fill="orange" stroke="orange" points="514.9,-359.77 505.95,-365.45 516.49,-366.59 514.9,-359.77"/>
<text text-anchor="start" x="569.5" y="-369" font-family="Helvetica,sans-Serif" font-size="10.00"> &lt; std::string, std</text>
<text text-anchor="middle" x="629.5" y="-358" font-family="Helvetica,sans-Serif" font-size="10.00">::vector&lt; std::string &gt; &gt;</text>
</g>
<!-- Node6&#45;&gt;Node13 -->
<g id="edge20" class="edge">
<title>Node6&#45;&gt;Node13</title>
<path fill="none" stroke="orange" stroke-dasharray="5,2" d="M507.62,-361.09C518.58,-355.47 529.52,-347.92 537,-338 559.73,-307.86 525.76,-278.87 555,-255 581.96,-232.98 675.11,-238.1 737.93,-244.52"/>
<polygon fill="orange" stroke="orange" points="506.05,-357.95 498.47,-365.35 509.01,-364.3 506.05,-357.95"/>
<text text-anchor="start" x="587" y="-269" font-family="Helvetica,sans-Serif" font-size="10.00"> &lt; std::string, std</text>
<text text-anchor="middle" x="629.5" y="-258" font-family="Helvetica,sans-Serif" font-size="10.00">::string &gt;</text>
</g>
<!-- Node6&#45;&gt;Node14 -->
<g id="edge25" class="edge">
<title>Node6&#45;&gt;Node14</title>
<path fill="none" stroke="orange" stroke-dasharray="5,2" d="M508.34,-361.26C519.23,-355.67 529.94,-348.09 537,-338 569.19,-292.02 514.99,-252.37 555,-213 600.17,-168.55 675.08,-165.34 729.8,-170.43"/>
<polygon fill="orange" stroke="orange" points="506.82,-358.11 499.22,-365.5 509.77,-364.46 506.82,-358.11"/>
<text text-anchor="start" x="577.5" y="-227" font-family="Helvetica,sans-Serif" font-size="10.00"> &lt; std::string, std</text>
<text text-anchor="middle" x="629.5" y="-216" font-family="Helvetica,sans-Serif" font-size="10.00">::vector&lt; double &gt; &gt;</text>
</g>
<!-- Node7 -->
<g id="node7" class="node">
<title>Node7</title>
<g id="a_node7"><a xlink:title=" ">
<polygon fill="white" stroke="#bfbfbf" points="223,-404.5 223,-423.5 252,-423.5 252,-404.5 223,-404.5"/>
<text text-anchor="middle" x="237.5" y="-411.5" font-family="Helvetica,sans-Serif" font-size="10.00">K</text>
</a>
</g>
</g>
<!-- Node7&#45;&gt;Node6 -->
<g id="edge6" class="edge">
<title>Node7&#45;&gt;Node6</title>
<path fill="none" stroke="#9a32cd" stroke-dasharray="5,2" d="M262.14,-409.95C298.33,-403.74 368.31,-391.75 416.08,-383.56"/>
<polygon fill="#9a32cd" stroke="#9a32cd" points="261.31,-406.54 252.05,-411.68 262.5,-413.44 261.31,-406.54"/>
<text text-anchor="middle" x="341.5" y="-405" font-family="Helvetica,sans-Serif" font-size="10.00"> keys</text>
</g>
<!-- Node8 -->
<g id="node8" class="node">
<title>Node8</title>
<g id="a_node8"><a xlink:title=" ">
<polygon fill="white" stroke="#bfbfbf" points="37.5,-343.5 37.5,-362.5 66.5,-362.5 66.5,-343.5 37.5,-343.5"/>
<text text-anchor="middle" x="52" y="-350.5" font-family="Helvetica,sans-Serif" font-size="10.00">T</text>
</a>
</g>
</g>
<!-- Node8&#45;&gt;Node6 -->
<g id="edge7" class="edge">
<title>Node8&#45;&gt;Node6</title>
<path fill="none" stroke="#9a32cd" stroke-dasharray="5,2" d="M76.91,-354.27C142.63,-357.77 326.98,-367.59 416.28,-372.35"/>
<polygon fill="#9a32cd" stroke="#9a32cd" points="76.91,-350.77 66.74,-353.73 76.54,-357.76 76.91,-350.77"/>
<text text-anchor="middle" x="237.5" y="-368" font-family="Helvetica,sans-Serif" font-size="10.00"> elements</text>
</g>
<!-- Node12 -->
<g id="node12" class="node">
<title>Node12</title>
<g id="a_node12"><a xlink:title=" ">
<polygon fill="white" stroke="#bfbfbf" points="189,-253.5 189,-272.5 286,-272.5 286,-253.5 189,-253.5"/>
<text text-anchor="middle" x="237.5" y="-260.5" font-family="Helvetica,sans-Serif" font-size="10.00">std::vector&lt; T &gt;</text>
</a>
</g>
</g>
<!-- Node8&#45;&gt;Node12 -->
<g id="edge16" class="edge">
<title>Node8&#45;&gt;Node12</title>
<path fill="none" stroke="#9a32cd" stroke-dasharray="5,2" d="M76.12,-341.66C112.56,-323.79 182.71,-289.38 216.86,-272.63"/>
<polygon fill="#9a32cd" stroke="#9a32cd" points="74.23,-338.69 66.79,-346.24 77.31,-344.97 74.23,-338.69"/>
<text text-anchor="middle" x="146.5" y="-321" font-family="Helvetica,sans-Serif" font-size="10.00"> elements</text>
</g>
<!-- Node9&#45;&gt;Node2 -->
<g id="edge8" class="edge">
<title>Node9&#45;&gt;Node2</title>
<path fill="none" stroke="#9a32cd" stroke-dasharray="5,2" d="M870.16,-384.42C936.88,-368.65 1034.92,-345.47 1089.51,-332.57"/>
<polygon fill="#9a32cd" stroke="#9a32cd" points="869.07,-381.08 860.14,-386.78 870.68,-387.89 869.07,-381.08"/>
<text text-anchor="middle" x="965" y="-380" font-family="Helvetica,sans-Serif" font-size="10.00"> bcDataTypeMap_</text>
</g>
<!-- Node10&#45;&gt;Node2 -->
<g id="edge11" class="edge">
<title>Node10&#45;&gt;Node2</title>
<path fill="none" stroke="#9a32cd" stroke-dasharray="5,2" d="M886.3,-323C943.84,-323 1018.06,-323 1069.39,-323"/>
<polygon fill="#9a32cd" stroke="#9a32cd" points="886.12,-319.5 876.12,-323 886.12,-326.5 886.12,-319.5"/>
<text text-anchor="middle" x="965" y="-326" font-family="Helvetica,sans-Serif" font-size="10.00"> functionStringParams_</text>
</g>
<!-- Node11&#45;&gt;Node10 -->
<g id="edge13" class="edge">
<title>Node11&#45;&gt;Node10</title>
<path fill="none" stroke="#9a32cd" stroke-dasharray="5,2" d="M547.29,-280.66C593.3,-283.63 652.21,-288.88 704,-298 718.3,-300.52 733.6,-304.17 747.62,-307.9"/>
<polygon fill="#9a32cd" stroke="#9a32cd" points="547.28,-277.15 537.08,-280.03 546.85,-284.14 547.28,-277.15"/>
<text text-anchor="middle" x="629.5" y="-301" font-family="Helvetica,sans-Serif" font-size="10.00"> elements</text>
</g>
<!-- Node12&#45;&gt;Node11 -->
<g id="edge15" class="edge">
<title>Node12&#45;&gt;Node11</title>
<path fill="none" stroke="orange" stroke-dasharray="5,2" d="M296.26,-261.58C321.67,-261.43 351.85,-261.89 379,-264 389.05,-264.78 399.7,-266.03 409.97,-267.44"/>
<polygon fill="orange" stroke="orange" points="296.01,-258.08 286.05,-261.67 296.08,-265.08 296.01,-258.08"/>
<text text-anchor="middle" x="341.5" y="-267" font-family="Helvetica,sans-Serif" font-size="10.00"> &lt; std::string &gt;</text>
</g>
<!-- Node15 -->
<g id="node15" class="node">
<title>Node15</title>
<g id="a_node15"><a xlink:title=" ">
<polygon fill="white" stroke="#bfbfbf" points="405,-93.5 405,-112.5 529,-112.5 529,-93.5 405,-93.5"/>
<text text-anchor="middle" x="467" y="-100.5" font-family="Helvetica,sans-Serif" font-size="10.00">std::vector&lt; double &gt;</text>
</a>
</g>
</g>
<!-- Node12&#45;&gt;Node15 -->
<g id="edge24" class="edge">
<title>Node12&#45;&gt;Node15</title>
<path fill="none" stroke="orange" stroke-dasharray="5,2" d="M241.68,-243.24C247.78,-212.3 264.25,-152.96 304,-124 332.65,-103.12 371.95,-97.63 404.66,-97.47"/>
<polygon fill="orange" stroke="orange" points="238.2,-242.78 239.88,-253.25 245.09,-244.03 238.2,-242.78"/>
<text text-anchor="middle" x="341.5" y="-127" font-family="Helvetica,sans-Serif" font-size="10.00"> &lt; double &gt;</text>
</g>
<!-- Node13&#45;&gt;Node2 -->
<g id="edge18" class="edge">
<title>Node13&#45;&gt;Node2</title>
<path fill="none" stroke="#9a32cd" stroke-dasharray="5,2" d="M870.51,-261.99C917.83,-269.54 981.28,-281.29 1036,-297 1044.25,-299.37 1045.82,-301.4 1054,-304 1064.89,-307.46 1076.81,-310.7 1087.92,-313.48"/>
<polygon fill="#9a32cd" stroke="#9a32cd" points="870.78,-258.49 860.36,-260.4 869.7,-265.41 870.78,-258.49"/>
<text text-anchor="middle" x="965" y="-311" font-family="Helvetica,sans-Serif" font-size="10.00"> functions</text>
<text text-anchor="middle" x="965" y="-300" font-family="Helvetica,sans-Serif" font-size="10.00">userFunctionMap_</text>
</g>
<!-- Node14&#45;&gt;Node2 -->
<g id="edge21" class="edge">
<title>Node14&#45;&gt;Node2</title>
<path fill="none" stroke="#9a32cd" stroke-dasharray="5,2" d="M878.08,-186.63C929.05,-193.6 993.73,-210.51 1036,-251 1053.96,-268.21 1035.7,-287.15 1054,-304 1058.5,-308.15 1063.77,-311.42 1069.4,-314"/>
<polygon fill="#9a32cd" stroke="#9a32cd" points="878.44,-183.14 868.08,-185.36 877.56,-190.09 878.44,-183.14"/>
<text text-anchor="middle" x="965" y="-254" font-family="Helvetica,sans-Serif" font-size="10.00"> functionParams_</text>
</g>
<!-- Node15&#45;&gt;Node14 -->
<g id="edge23" class="edge">
<title>Node15&#45;&gt;Node14</title>
<path fill="none" stroke="#9a32cd" stroke-dasharray="5,2" d="M538.68,-92.66C588.79,-89.07 655.48,-92.2 704,-124 717.97,-133.16 709.16,-146.31 722,-157 726.59,-160.82 731.78,-164.07 737.24,-166.82"/>
<polygon fill="#9a32cd" stroke="#9a32cd" points="538.25,-89.19 528.57,-93.5 538.83,-96.16 538.25,-89.19"/>
<text text-anchor="middle" x="629.5" y="-127" font-family="Helvetica,sans-Serif" font-size="10.00"> elements</text>
</g>
<!-- Node23 -->
<g id="node23" class="node">
<title>Node23</title>
<g id="a_node23"><a xlink:href="structsierra_1_1nalu_1_1_mass_fraction.html" target="_top" xlink:title=" ">
<polygon fill="white" stroke="black" points="894,-52.5 894,-71.5 1036,-71.5 1036,-52.5 894,-52.5"/>
<text text-anchor="middle" x="965" y="-59.5" font-family="Helvetica,sans-Serif" font-size="10.00">sierra::nalu::MassFraction</text>
</a>
</g>
</g>
<!-- Node15&#45;&gt;Node23 -->
<g id="edge34" class="edge">
<title>Node15&#45;&gt;Node23</title>
<path fill="none" stroke="#9a32cd" stroke-dasharray="5,2" d="M502.53,-89.96C518.3,-84.61 537.35,-78.99 555,-76 672.69,-56.09 812.05,-56.28 893.96,-58.77"/>
<polygon fill="#9a32cd" stroke="#9a32cd" points="500.98,-86.79 492.7,-93.4 503.29,-93.4 500.98,-86.79"/>
<text text-anchor="middle" x="629.5" y="-79" font-family="Helvetica,sans-Serif" font-size="10.00"> massFraction_</text>
</g>
<!-- Node16 -->
<g id="node16" class="node">
<title>Node16</title>
<g id="a_node16"><a xlink:href="structsierra_1_1nalu_1_1_temperature.html" target="_top" xlink:title=" ">
<polygon fill="white" stroke="black" points="729.5,-128.5 729.5,-147.5 868.5,-147.5 868.5,-128.5 729.5,-128.5"/>
<text text-anchor="middle" x="799" y="-135.5" font-family="Helvetica,sans-Serif" font-size="10.00">sierra::nalu::Temperature</text>
</a>
</g>
</g>
<!-- Node16&#45;&gt;Node2 -->
<g id="edge26" class="edge">
<title>Node16&#45;&gt;Node2</title>
<path fill="none" stroke="#9a32cd" stroke-dasharray="5,2" d="M877.76,-127.97C929.68,-125.92 995.62,-133.06 1036,-174 1076.96,-215.53 1015.03,-260.6 1054,-304 1058.27,-308.76 1063.54,-312.41 1069.28,-315.2"/>
<polygon fill="#9a32cd" stroke="#9a32cd" points="877.38,-124.49 867.57,-128.5 877.74,-131.48 877.38,-124.49"/>
<text text-anchor="middle" x="965" y="-177" font-family="Helvetica,sans-Serif" font-size="10.00"> temperature_</text>
</g>
<!-- Node17 -->
<g id="node17" class="node">
<title>Node17</title>
<g id="a_node17"><a xlink:href="structsierra_1_1nalu_1_1_gamma_inf.html" target="_top" xlink:title=" ">
<polygon fill="white" stroke="black" points="1066.5,-275.5 1066.5,-294.5 1195.5,-294.5 1195.5,-275.5 1066.5,-275.5"/>
<text text-anchor="middle" x="1131" y="-282.5" font-family="Helvetica,sans-Serif" font-size="10.00">sierra::nalu::GammaInf</text>
</a>
</g>
</g>
<!-- Node17&#45;&gt;Node1 -->
<g id="edge27" class="edge">
<title>Node17&#45;&gt;Node1</title>
<path fill="none" stroke="#9a32cd" stroke-dasharray="5,2" d="M1206.1,-276.21C1238.24,-270.47 1275.62,-261.12 1307,-246 1341.94,-229.16 1375.46,-196.91 1390.99,-180.74"/>
<polygon fill="#9a32cd" stroke="#9a32cd" points="1205.14,-272.82 1195.87,-277.95 1206.31,-279.72 1205.14,-272.82"/>
<text text-anchor="middle" x="1266.5" y="-274" font-family="Helvetica,sans-Serif" font-size="10.00"> gamma_</text>
</g>
<!-- Node18 -->
<g id="node18" class="node">
<title>Node18</title>
<g id="a_node18"><a xlink:href="structsierra_1_1nalu_1_1_volume_of_fluid.html" target="_top" xlink:title=" ">
<polygon fill="white" stroke="black" points="1056.5,-237.5 1056.5,-256.5 1205.5,-256.5 1205.5,-237.5 1056.5,-237.5"/>
<text text-anchor="middle" x="1131" y="-244.5" font-family="Helvetica,sans-Serif" font-size="10.00">sierra::nalu::VolumeOfFluid</text>
</a>
</g>
</g>
<!-- Node18&#45;&gt;Node1 -->
<g id="edge28" class="edge">
<title>Node18&#45;&gt;Node1</title>
<path fill="none" stroke="#9a32cd" stroke-dasharray="5,2" d="M1204.07,-235.58C1235.99,-229.66 1273.76,-221.45 1307,-211 1333.32,-202.73 1362.34,-189.56 1380.84,-180.61"/>
<polygon fill="#9a32cd" stroke="#9a32cd" points="1203.14,-232.2 1193.93,-237.43 1204.39,-239.08 1203.14,-232.2"/>
<text text-anchor="middle" x="1266.5" y="-234" font-family="Helvetica,sans-Serif" font-size="10.00"> volumeOfFluid_</text>
</g>
<!-- Node19 -->
<g id="node19" class="node">
<title>Node19</title>
<g id="a_node19"><a xlink:href="structsierra_1_1nalu_1_1_spec_diss_rate.html" target="_top" xlink:title=" ">
<polygon fill="white" stroke="black" points="1059,-199.5 1059,-218.5 1203,-218.5 1203,-199.5 1059,-199.5"/>
<text text-anchor="middle" x="1131" y="-206.5" font-family="Helvetica,sans-Serif" font-size="10.00">sierra::nalu::SpecDissRate</text>
</a>
</g>
</g>
<!-- Node19&#45;&gt;Node1 -->
<g id="edge29" class="edge">
<title>Node19&#45;&gt;Node1</title>
<path fill="none" stroke="#9a32cd" stroke-dasharray="5,2" d="M1213.42,-198.8C1242.92,-194.97 1276.49,-190.46 1307,-186 1318.49,-184.32 1330.76,-182.42 1342.49,-180.54"/>
<polygon fill="#9a32cd" stroke="#9a32cd" points="1212.63,-195.37 1203.16,-200.13 1213.53,-202.32 1212.63,-195.37"/>
<text text-anchor="middle" x="1266.5" y="-199" font-family="Helvetica,sans-Serif" font-size="10.00"> sdr_</text>
</g>
<!-- Node20 -->
<g id="node20" class="node">
<title>Node20</title>
<g id="a_node20"><a xlink:href="structsierra_1_1nalu_1_1_mixture_fraction.html" target="_top" xlink:title=" ">
<polygon fill="white" stroke="black" points="1054,-161.5 1054,-180.5 1208,-180.5 1208,-161.5 1054,-161.5"/>
<text text-anchor="middle" x="1131" y="-168.5" font-family="Helvetica,sans-Serif" font-size="10.00">sierra::nalu::MixtureFraction</text>
</a>
</g>
</g>
<!-- Node20&#45;&gt;Node1 -->
<g id="edge30" class="edge">
<title>Node20&#45;&gt;Node1</title>
<path fill="none" stroke="#9a32cd" stroke-dasharray="5,2" d="M1218.09,-171C1252.38,-171 1291.5,-171 1324.66,-171"/>
<polygon fill="#9a32cd" stroke="#9a32cd" points="1218.08,-167.5 1208.08,-171 1218.08,-174.5 1218.08,-167.5"/>
<text text-anchor="middle" x="1266.5" y="-174" font-family="Helvetica,sans-Serif" font-size="10.00"> mixFrac_</text>
</g>
<!-- Node21 -->
<g id="node21" class="node">
<title>Node21</title>
<g id="a_node21"><a xlink:href="structsierra_1_1nalu_1_1_tot_diss_rate.html" target="_top" xlink:title=" ">
<polygon fill="white" stroke="black" points="1063.5,-123.5 1063.5,-142.5 1198.5,-142.5 1198.5,-123.5 1063.5,-123.5"/>
<text text-anchor="middle" x="1131" y="-130.5" font-family="Helvetica,sans-Serif" font-size="10.00">sierra::nalu::TotDissRate</text>
</a>
</g>
</g>
<!-- Node21&#45;&gt;Node1 -->
<g id="edge31" class="edge">
<title>Node21&#45;&gt;Node1</title>
<path fill="none" stroke="#9a32cd" stroke-dasharray="5,2" d="M1208.72,-142.59C1239.32,-146.54 1274.86,-151.3 1307,-156 1318.49,-157.68 1330.76,-159.58 1342.49,-161.46"/>
<polygon fill="#9a32cd" stroke="#9a32cd" points="1208.91,-139.09 1198.54,-141.28 1208.01,-146.03 1208.91,-139.09"/>
<text text-anchor="middle" x="1266.5" y="-159" font-family="Helvetica,sans-Serif" font-size="10.00"> tdr_</text>
</g>
<!-- Node22 -->
<g id="node22" class="node">
<title>Node22</title>
<g id="a_node22"><a xlink:href="structsierra_1_1nalu_1_1_turb_kin_energy.html" target="_top" xlink:title=" ">
<polygon fill="white" stroke="black" points="1057.5,-85.5 1057.5,-104.5 1204.5,-104.5 1204.5,-85.5 1057.5,-85.5"/>
<text text-anchor="middle" x="1131" y="-92.5" font-family="Helvetica,sans-Serif" font-size="10.00">sierra::nalu::TurbKinEnergy</text>
</a>
</g>
</g>
<!-- Node22&#45;&gt;Node1 -->
<g id="edge32" class="edge">
<title>Node22&#45;&gt;Node1</title>
<path fill="none" stroke="#9a32cd" stroke-dasharray="5,2" d="M1206.83,-106.27C1238.17,-111.93 1274.75,-119.8 1307,-130 1333.75,-138.46 1363.15,-152.23 1381.58,-161.45"/>
<polygon fill="#9a32cd" stroke="#9a32cd" points="1207.31,-102.8 1196.85,-104.5 1206.09,-109.69 1207.31,-102.8"/>
<text text-anchor="middle" x="1266.5" y="-133" font-family="Helvetica,sans-Serif" font-size="10.00"> tke_</text>
</g>
<!-- Node23&#45;&gt;Node1 -->
<g id="edge33" class="edge">
<title>Node23&#45;&gt;Node1</title>
<path fill="none" stroke="#9a32cd" stroke-dasharray="5,2" d="M1046.31,-55.6C1093.79,-53.65 1154.85,-54.33 1208,-65 1254.53,-74.34 1265.37,-82.22 1307,-105 1338.09,-122.01 1371.17,-147.5 1388.26,-161.3"/>
<polygon fill="#9a32cd" stroke="#9a32cd" points="1045.91,-52.12 1036.09,-56.07 1046.24,-59.11 1045.91,-52.12"/>
<text text-anchor="middle" x="1131" y="-68" font-family="Helvetica,sans-Serif" font-size="10.00"> massFraction_</text>
</g>
<!-- Node24 -->
<g id="node24" class="node">
<title>Node24</title>
<g id="a_node24"><a xlink:href="structsierra_1_1nalu_1_1_velocity.html" target="_top" xlink:title=" ">
<polygon fill="white" stroke="black" points="1073,-0.5 1073,-19.5 1189,-19.5 1189,-0.5 1073,-0.5"/>
<text text-anchor="middle" x="1131" y="-7.5" font-family="Helvetica,sans-Serif" font-size="10.00">sierra::nalu::Velocity</text>
</a>
</g>
</g>
<!-- Node24&#45;&gt;Node1 -->
<g id="edge35" class="edge">
<title>Node24&#45;&gt;Node1</title>
<path fill="none" stroke="#9a32cd" stroke-dasharray="5,2" d="M1199.17,-5.14C1233.7,-5.7 1275.1,-11.36 1307,-31 1358.68,-62.82 1387.77,-135.36 1396.87,-161.44"/>
<polygon fill="#9a32cd" stroke="#9a32cd" points="1199.17,-1.64 1189.16,-5.12 1199.15,-8.64 1199.17,-1.64"/>
<text text-anchor="middle" x="1266.5" y="-34" font-family="Helvetica,sans-Serif" font-size="10.00"> u_</text>
</g>
</g>
</svg>
