<?xml version="1.0" encoding="UTF-8" standalone="no"?>
<!DOCTYPE svg PUBLIC "-//W3C//DTD SVG 1.1//EN"
 "http://www.w3.org/Graphics/SVG/1.1/DTD/svg11.dtd">
<!-- Generated by graphviz version 2.43.0 (0)
 -->
<!-- Title: sierra::nalu::NonConformalUserData Pages: 1 -->
<!--zoomable 469 -->

<svg id="main" version="1.1" xmlns="http://www.w3.org/2000/svg" xmlns:xlink="http://www.w3.org/1999/xlink" xml:space="preserve" onload="init(evt)">
<style type="text/css"><![CDATA[
.node, .edge {opacity: 0.7;}
.node.selected, .edge.selected {opacity: 1;}
.edge:hover path { stroke: red; }
.edge:hover polygon { stroke: red; fill: red; }
]]></style>

<defs>
  <circle id="rim" cx="0" cy="0" r="7"/>
  <circle id="rim2" cx="0" cy="0" r="3.5"/>
  <g id="zoomPlus">
    <use xlink:href="#rim" fill="#404040"><set attributeName="fill" to="#808080" begin="zoomplus.mouseover" end="zoomplus.mouseout"/></use>
    <path d="M-4,0h8M0,-4v8" fill="none" stroke="white" stroke-width="1.5" pointer-events="none"/>
  </g>
  <g id="zoomMin">
    <use xlink:href="#rim" fill="#404040"><set attributeName="fill" to="#808080" begin="zoomminus.mouseover" end="zoomminus.mouseout"/></use>
    <path d="M-4,0h8" fill="none" stroke="white" stroke-width="1.5" pointer-events="none"/>
  </g>
  <g id="arrowUp" transform="translate(30 24)">
    <use xlink:href="#rim"/>
    <path pointer-events="none" fill="none" stroke="white" stroke-width="1.5" d="M0,-3.0v7 M-2.5,-0.5L0,-3.0L2.5,-0.5"/>
  </g>
  <g id="arrowRight" transform="rotate(90) translate(36 -43)">
    <use xlink:href="#rim"/>
    <path pointer-events="none" fill="none" stroke="white" stroke-width="1.5" d="M0,-3.0v7 M-2.5,-0.5L0,-3.0L2.5,-0.5"/>
  </g>
  <g id="arrowDown" transform="rotate(180) translate(-30 -48)">
    <use xlink:href="#rim"/>
    <path pointer-events="none" fill="none" stroke="white" stroke-width="1.5" d="M0,-3.0v7 M-2.5,-0.5L0,-3.0L2.5,-0.5"/>
  </g>
  <g id="arrowLeft" transform="rotate(270) translate(-36 17)">
    <use xlink:href="#rim"/>
    <path pointer-events="none" fill="none" stroke="white" stroke-width="1.5" d="M0,-3.0v7 M-2.5,-0.5L0,-3.0L2.5,-0.5"/>
  </g>
  <g id="resetDef">
    <use xlink:href="#rim2" fill="#404040"><set attributeName="fill" to="#808080" begin="reset.mouseover" end="reset.mouseout"/></use>
  </g>
</defs>
<script type="application/ecmascript">
var viewWidth = 1341;
var viewHeight = 469;
var sectionId = 'dynsection-1';
</script>
<script type="application/ecmascript" xlink:href="svg.min.js"/>
<svg id="graph" class="graph">
<g id="viewport">
<title>sierra::nalu::NonConformalUserData</title>
<!-- Node1 -->
<g id="Node000001" class="node">
<title>Node1</title>
<g id="a_Node000001"><a xlink:title=" ">
<polygon fill="#999999" stroke="#666666" points="1333,-30 1185,-30 1185,0 1333,0 1333,-30"/>
<text text-anchor="start" x="1193" y="-18" font-family="Helvetica,sans-Serif" font-size="10.00">sierra::nalu::NonConformal</text>
<text text-anchor="middle" x="1259" y="-7" font-family="Helvetica,sans-Serif" font-size="10.00">UserData</text>
</a>
</g>
</g>
<!-- Node2 -->
<g id="Node000002" class="node">
<title>Node2</title>
<g id="a_Node000002"><a xlink:href="structsierra_1_1nalu_1_1_user_data.html" target="_top" xlink:title=" ">
<polygon fill="white" stroke="#666666" points="1148,-249.5 1025,-249.5 1025,-230.5 1148,-230.5 1148,-249.5"/>
<text text-anchor="middle" x="1086.5" y="-237.5" font-family="Helvetica,sans-Serif" font-size="10.00">sierra::nalu::UserData</text>
</a>
</g>
</g>
<!-- Node2&#45;&gt;Node1 -->
<g id="edge1_Node000001_Node000002" class="edge">
<title>Node2&#45;&gt;Node1</title>
<g id="a_edge1_Node000001_Node000002"><a xlink:title=" ">
<path fill="none" stroke="#63b8ff" d="M1100.98,-222.21C1133.53,-179.26 1215.98,-70.46 1246.45,-30.24"/>
<polygon fill="#63b8ff" stroke="#63b8ff" points="1098.08,-220.25 1094.83,-230.33 1103.66,-224.48 1098.08,-220.25"/>
</a>
</g>
</g>
<!-- Node3 -->
<g id="Node000003" class="node">
<title>Node3</title>
<g id="a_Node000003"><a xlink:title=" ">
<polygon fill="white" stroke="#666666" points="860,-140 738,-140 738,-110 860,-110 860,-140"/>
<text text-anchor="start" x="746" y="-128" font-family="Helvetica,sans-Serif" font-size="10.00">std::map&lt; std::string,</text>
<text text-anchor="middle" x="799" y="-117" font-family="Helvetica,sans-Serif" font-size="10.00"> bool &gt;</text>
</a>
</g>
</g>
<!-- Node3&#45;&gt;Node2 -->
<g id="edge2_Node000002_Node000003" class="edge">
<title>Node3&#45;&gt;Node2</title>
<g id="a_edge2_Node000002_Node000003"><a xlink:title=" ">
<path fill="none" stroke="#9a32cd" stroke-dasharray="5,2" d="M868.58,-142.79C909.64,-154.51 962.36,-171.48 1007,-192 1031.09,-203.08 1056.95,-219.97 1072.15,-230.48"/>
<polygon fill="#9a32cd" stroke="#9a32cd" points="869.52,-139.42 858.94,-140.07 867.62,-146.15 869.52,-139.42"/>
</a>
</g>
<text text-anchor="middle" x="950.5" y="-195" font-family="Helvetica,sans-Serif" font-size="10.00" fill="grey"> bcDataSpecifiedMap_</text>
</g>
<!-- Node4 -->
<g id="Node000004" class="node">
<title>Node4</title>
<g id="a_Node000004"><a xlink:title=" ">
<polygon fill="white" stroke="#666666" points="270,-152.5 205,-152.5 205,-133.5 270,-133.5 270,-152.5"/>
<text text-anchor="middle" x="237.5" y="-140.5" font-family="Helvetica,sans-Serif" font-size="10.00">std::string</text>
</a>
</g>
</g>
<!-- Node4&#45;&gt;Node1 -->
<g id="edge27_Node000001_Node000004" class="edge">
<title>Node4&#45;&gt;Node1</title>
<g id="a_edge27_Node000001_Node000004"><a xlink:title=" ">
<path fill="none" stroke="#9a32cd" stroke-dasharray="5,2" d="M248.84,-124.82C260.18,-106.37 280.01,-78.14 304,-61 366.23,-16.55 389.52,-3 466,-3 466,-3 466,-3 1087.5,-3 1119.4,-3 1154.57,-5.12 1184.65,-7.57"/>
<polygon fill="#9a32cd" stroke="#9a32cd" points="245.8,-123.09 243.7,-133.47 251.81,-126.66 245.8,-123.09"/>
</a>
</g>
<text text-anchor="middle" x="799" y="-6" font-family="Helvetica,sans-Serif" font-size="10.00" fill="grey"> searchMethodName_</text>
</g>
<!-- Node4&#45;&gt;Node3 -->
<g id="edge3_Node000003_Node000004" class="edge">
<title>Node4&#45;&gt;Node3</title>
<g id="a_edge3_Node000003_Node000004"><a xlink:title=" ">
<path fill="none" stroke="#9a32cd" stroke-dasharray="5,2" d="M252.46,-125.51C264.59,-111.54 283.41,-92.61 304,-82 341.5,-62.68 355.03,-67.24 397,-63 532.91,-49.26 572.59,-40.69 704,-78 729.1,-85.13 755.49,-98.96 773.9,-109.78"/>
<polygon fill="#9a32cd" stroke="#9a32cd" points="249.55,-123.54 245.82,-133.45 254.92,-128.03 249.55,-123.54"/>
</a>
</g>
<text text-anchor="middle" x="467" y="-66" font-family="Helvetica,sans-Serif" font-size="10.00" fill="grey"> keys</text>
</g>
<!-- Node9 -->
<g id="Node000009" class="node">
<title>Node9</title>
<g id="a_Node000009"><a xlink:title=" ">
<polygon fill="white" stroke="#666666" points="860,-207 738,-207 738,-177 860,-177 860,-207"/>
<text text-anchor="start" x="746" y="-195" font-family="Helvetica,sans-Serif" font-size="10.00">std::map&lt; std::string,</text>
<text text-anchor="middle" x="799" y="-184" font-family="Helvetica,sans-Serif" font-size="10.00"> UserDataType &gt;</text>
</a>
</g>
</g>
<!-- Node4&#45;&gt;Node9 -->
<g id="edge9_Node000009_Node000004" class="edge">
<title>Node4&#45;&gt;Node9</title>
<g id="a_edge9_Node000009_Node000004"><a xlink:title=" ">
<path fill="none" stroke="#9a32cd" stroke-dasharray="5,2" d="M277.53,-130.5C360.89,-106.17 560.41,-60.71 704,-131 714.16,-135.97 712.99,-142.15 722,-149 735.88,-159.55 752.62,-169.3 766.86,-176.84"/>
<polygon fill="#9a32cd" stroke="#9a32cd" points="276.3,-127.22 267.72,-133.43 278.3,-133.92 276.3,-127.22"/>
</a>
</g>
<text text-anchor="middle" x="467" y="-106" font-family="Helvetica,sans-Serif" font-size="10.00" fill="grey"> keys</text>
</g>
<!-- Node10 -->
<g id="Node000010" class="node">
<title>Node10</title>
<g id="a_Node000010"><a xlink:title=" ">
<polygon fill="white" stroke="#666666" points="860,-255 738,-255 738,-225 860,-225 860,-255"/>
<text text-anchor="start" x="746" y="-243" font-family="Helvetica,sans-Serif" font-size="10.00">std::map&lt; std::string,</text>
<text text-anchor="middle" x="799" y="-232" font-family="Helvetica,sans-Serif" font-size="10.00"> std::string &gt;</text>
</a>
</g>
</g>
<!-- Node4&#45;&gt;Node10 -->
<g id="edge12_Node000010_Node000004" class="edge">
<title>Node4&#45;&gt;Node10</title>
<g id="a_edge12_Node000010_Node000004"><a xlink:title=" ">
<path fill="none" stroke="#9a32cd" stroke-dasharray="5,2" d="M280.42,-142.35C388.49,-141.04 670.51,-140.08 704,-165 723.28,-179.35 704.72,-199.29 722,-216 726.58,-220.42 731.96,-224.03 737.72,-226.98"/>
<polygon fill="#9a32cd" stroke="#9a32cd" points="280.17,-138.85 270.21,-142.48 280.26,-145.85 280.17,-138.85"/>
</a>
</g>
<text text-anchor="middle" x="467" y="-159" font-family="Helvetica,sans-Serif" font-size="10.00" fill="grey"> elements</text>
<text text-anchor="middle" x="467" y="-148" font-family="Helvetica,sans-Serif" font-size="10.00" fill="grey">keys</text>
</g>
<!-- Node11 -->
<g id="Node000011" class="node">
<title>Node11</title>
<g id="a_Node000011"><a xlink:title=" ">
<polygon fill="white" stroke="#666666" points="868,-382 730,-382 730,-352 868,-352 868,-382"/>
<text text-anchor="start" x="738" y="-370" font-family="Helvetica,sans-Serif" font-size="10.00">std::map&lt; std::string,</text>
<text text-anchor="middle" x="799" y="-359" font-family="Helvetica,sans-Serif" font-size="10.00"> std::vector&lt; double &gt; &gt;</text>
</a>
</g>
</g>
<!-- Node4&#45;&gt;Node11 -->
<g id="edge15_Node000011_Node000004" class="edge">
<title>Node4&#45;&gt;Node11</title>
<g id="a_edge15_Node000011_Node000004"><a xlink:title=" ">
<path fill="none" stroke="#9a32cd" stroke-dasharray="5,2" d="M249.15,-161.33C260.05,-180.92 276.68,-213.18 286,-243 300.77,-290.28 268.69,-318.25 304,-353 367.62,-415.62 615.37,-400.69 704,-390 717.84,-388.33 732.59,-385.33 746.2,-382.03"/>
<polygon fill="#9a32cd" stroke="#9a32cd" points="252.15,-159.53 244.17,-152.56 246.06,-162.99 252.15,-159.53"/>
</a>
</g>
<text text-anchor="middle" x="467" y="-402" font-family="Helvetica,sans-Serif" font-size="10.00" fill="grey"> keys</text>
</g>
<!-- Node14 -->
<g id="Node000014" class="node">
<title>Node14</title>
<g id="a_Node000014"><a xlink:title=" ">
<polygon fill="white" stroke="#666666" points="876,-303 722,-303 722,-273 876,-273 876,-303"/>
<text text-anchor="start" x="730" y="-291" font-family="Helvetica,sans-Serif" font-size="10.00">std::map&lt; std::string,</text>
<text text-anchor="middle" x="799" y="-280" font-family="Helvetica,sans-Serif" font-size="10.00"> std::vector&lt; std::string &gt; &gt;</text>
</a>
</g>
</g>
<!-- Node4&#45;&gt;Node14 -->
<g id="edge21_Node000014_Node000004" class="edge">
<title>Node4&#45;&gt;Node14</title>
<g id="a_edge21_Node000014_Node000004"><a xlink:title=" ">
<path fill="none" stroke="#9a32cd" stroke-dasharray="5,2" d="M280.1,-151.47C311.97,-157.69 357.11,-165.9 397,-171 464.97,-179.68 651.39,-156.1 704,-200 726.69,-218.93 701.44,-242.78 722,-264 725.37,-267.48 729.24,-270.45 733.41,-273"/>
<polygon fill="#9a32cd" stroke="#9a32cd" points="280.73,-148.03 270.24,-149.53 279.38,-154.9 280.73,-148.03"/>
</a>
</g>
<text text-anchor="middle" x="467" y="-177" font-family="Helvetica,sans-Serif" font-size="10.00" fill="grey"> keys</text>
</g>
<!-- Node15 -->
<g id="Node000015" class="node">
<title>Node15</title>
<g id="a_Node000015"><a xlink:title=" ">
<polygon fill="white" stroke="#666666" points="537,-342.5 397,-342.5 397,-323.5 537,-323.5 537,-342.5"/>
<text text-anchor="middle" x="467" y="-330.5" font-family="Helvetica,sans-Serif" font-size="10.00">std::vector&lt; std::string &gt;</text>
</a>
</g>
</g>
<!-- Node4&#45;&gt;Node15 -->
<g id="edge23_Node000015_Node000004" class="edge">
<title>Node4&#45;&gt;Node15</title>
<g id="a_edge23_Node000015_Node000004"><a xlink:title=" ">
<path fill="none" stroke="#9a32cd" stroke-dasharray="5,2" d="M253.04,-160.99C265.73,-176.17 285.02,-198.08 304,-215 334.65,-242.34 345.79,-244.83 379,-269 405.38,-288.2 436.09,-310.87 453.06,-323.42"/>
<polygon fill="#9a32cd" stroke="#9a32cd" points="255.45,-158.41 246.39,-152.92 250.05,-162.86 255.45,-158.41"/>
</a>
</g>
<text text-anchor="middle" x="341.5" y="-272" font-family="Helvetica,sans-Serif" font-size="10.00" fill="grey"> elements</text>
</g>
<!-- Node5 -->
<g id="Node000005" class="node">
<title>Node5</title>
<g id="a_Node000005"><a xlink:title=" ">
<polygon fill="white" stroke="#666666" points="104,-158 0,-158 0,-128 104,-128 104,-158"/>
<text text-anchor="start" x="8" y="-146" font-family="Helvetica,sans-Serif" font-size="10.00">std::basic_string&lt;</text>
<text text-anchor="middle" x="52" y="-135" font-family="Helvetica,sans-Serif" font-size="10.00"> Char &gt;</text>
</a>
</g>
</g>
<!-- Node5&#45;&gt;Node4 -->
<g id="edge4_Node000004_Node000005" class="edge">
<title>Node5&#45;&gt;Node4</title>
<g id="a_edge4_Node000004_Node000005"><a xlink:title=" ">
<path fill="none" stroke="#63b8ff" d="M114.21,-143C144.61,-143 180.06,-143 204.94,-143"/>
<polygon fill="#63b8ff" stroke="#63b8ff" points="114.12,-139.5 104.11,-143 114.11,-146.5 114.12,-139.5"/>
</a>
</g>
</g>
<!-- Node6 -->
<g id="Node000006" class="node">
<title>Node6</title>
<g id="a_Node000006"><a xlink:title=" ">
<polygon fill="white" stroke="#666666" points="517.5,-252.5 416.5,-252.5 416.5,-233.5 517.5,-233.5 517.5,-252.5"/>
<text text-anchor="middle" x="467" y="-240.5" font-family="Helvetica,sans-Serif" font-size="10.00">std::map&lt; K, T &gt;</text>
</a>
</g>
</g>
<!-- Node6&#45;&gt;Node3 -->
<g id="edge5_Node000003_Node000006" class="edge">
<title>Node6&#45;&gt;Node3</title>
<g id="a_edge5_Node000003_Node000006"><a xlink:title=" ">
<path fill="none" stroke="orange" stroke-dasharray="5,2" d="M513.59,-229.74C521.88,-226.1 530.08,-221.57 537,-216 548.23,-206.96 543.26,-197.38 555,-189 609.23,-150.27 685.26,-134.97 737.76,-128.93"/>
<polygon fill="orange" stroke="orange" points="512.23,-226.52 504.25,-233.49 514.84,-233.01 512.23,-226.52"/>
</a>
</g>
<text text-anchor="middle" x="629.5" y="-192" font-family="Helvetica,sans-Serif" font-size="10.00" fill="grey"> &lt; std::string, bool &gt;</text>
</g>
<!-- Node6&#45;&gt;Node9 -->
<g id="edge10_Node000009_Node000006" class="edge">
<title>Node6&#45;&gt;Node9</title>
<g id="a_edge10_Node000009_Node000006"><a xlink:title=" ">
<path fill="none" stroke="orange" stroke-dasharray="5,2" d="M521.28,-231.37C532.39,-229.11 544.06,-226.87 555,-225 617.11,-214.37 688.62,-205 737.91,-198.99"/>
<polygon fill="orange" stroke="orange" points="520.34,-227.99 511.26,-233.44 521.76,-234.85 520.34,-227.99"/>
</a>
</g>
<text text-anchor="middle" x="629.5" y="-228" font-family="Helvetica,sans-Serif" font-size="10.00" fill="grey"> &lt; std::string, UserDataType &gt;</text>
</g>
<!-- Node6&#45;&gt;Node10 -->
<g id="edge13_Node000010_Node000006" class="edge">
<title>Node6&#45;&gt;Node10</title>
<g id="a_edge13_Node000010_Node000006"><a xlink:title=" ">
<path fill="none" stroke="orange" stroke-dasharray="5,2" d="M528.13,-242.45C587.63,-241.91 678.2,-241.09 737.74,-240.55"/>
<polygon fill="orange" stroke="orange" points="527.73,-238.96 517.76,-242.55 527.79,-245.96 527.73,-238.96"/>
</a>
</g>
<text text-anchor="start" x="587" y="-256" font-family="Helvetica,sans-Serif" font-size="10.00" fill="grey"> &lt; std::string, std</text>
<text text-anchor="middle" x="629.5" y="-245" font-family="Helvetica,sans-Serif" font-size="10.00" fill="grey">::string &gt;</text>
</g>
<!-- Node6&#45;&gt;Node11 -->
<g id="edge19_Node000011_Node000006" class="edge">
<title>Node6&#45;&gt;Node11</title>
<g id="a_edge19_Node000011_Node000006"><a xlink:title=" ">
<path fill="none" stroke="orange" stroke-dasharray="5,2" d="M485.77,-259.82C500.27,-273.93 520.91,-294.94 537,-315 546.02,-326.25 542.65,-334.55 555,-342 583.51,-359.19 668.45,-364.7 729.88,-366.39"/>
<polygon fill="orange" stroke="orange" points="488.05,-257.15 478.42,-252.74 483.19,-262.19 488.05,-257.15"/>
</a>
</g>
<text text-anchor="start" x="577.5" y="-379" font-family="Helvetica,sans-Serif" font-size="10.00" fill="grey"> &lt; std::string, std</text>
<text text-anchor="middle" x="629.5" y="-368" font-family="Helvetica,sans-Serif" font-size="10.00" fill="grey">::vector&lt; double &gt; &gt;</text>
</g>
<!-- Node6&#45;&gt;Node14 -->
<g id="edge25_Node000014_Node000006" class="edge">
<title>Node6&#45;&gt;Node14</title>
<g id="a_edge25_Node000014_Node000006"><a xlink:title=" ">
<path fill="none" stroke="orange" stroke-dasharray="5,2" d="M508.79,-255.3C523.26,-259.26 539.75,-263.31 555,-266 610.38,-275.76 673.67,-281.31 721.77,-284.4"/>
<polygon fill="orange" stroke="orange" points="509.7,-251.92 499.13,-252.59 507.81,-258.66 509.7,-251.92"/>
</a>
</g>
<text text-anchor="start" x="569.5" y="-296" font-family="Helvetica,sans-Serif" font-size="10.00" fill="grey"> &lt; std::string, std</text>
<text text-anchor="middle" x="629.5" y="-285" font-family="Helvetica,sans-Serif" font-size="10.00" fill="grey">::vector&lt; std::string &gt; &gt;</text>
</g>
<!-- Node7 -->
<g id="Node000007" class="node">
<title>Node7</title>
<g id="a_Node000007"><a xlink:title=" ">
<polygon fill="white" stroke="#666666" points="252,-313.5 223,-313.5 223,-294.5 252,-294.5 252,-313.5"/>
<text text-anchor="middle" x="237.5" y="-301.5" font-family="Helvetica,sans-Serif" font-size="10.00">K</text>
</a>
</g>
</g>
<!-- Node7&#45;&gt;Node6 -->
<g id="edge6_Node000006_Node000007" class="edge">
<title>Node7&#45;&gt;Node6</title>
<g id="a_edge6_Node000006_Node000007"><a xlink:title=" ">
<path fill="none" stroke="#9a32cd" stroke-dasharray="5,2" d="M262.48,-302.2C290.8,-299.63 339.09,-293.84 379,-282 404.07,-274.56 431.34,-261.45 448.54,-252.5"/>
<polygon fill="#9a32cd" stroke="#9a32cd" points="262,-298.73 252.33,-303.06 262.59,-305.7 262,-298.73"/>
</a>
</g>
<text text-anchor="middle" x="341.5" y="-299" font-family="Helvetica,sans-Serif" font-size="10.00" fill="grey"> keys</text>
</g>
<!-- Node8 -->
<g id="Node000008" class="node">
<title>Node8</title>
<g id="a_Node000008"><a xlink:title=" ">
<polygon fill="white" stroke="#666666" points="66.5,-262.5 37.5,-262.5 37.5,-243.5 66.5,-243.5 66.5,-262.5"/>
<text text-anchor="middle" x="52" y="-250.5" font-family="Helvetica,sans-Serif" font-size="10.00">T</text>
</a>
</g>
</g>
<!-- Node8&#45;&gt;Node6 -->
<g id="edge7_Node000006_Node000008" class="edge">
<title>Node8&#45;&gt;Node6</title>
<g id="a_edge7_Node000006_Node000008"><a xlink:title=" ">
<path fill="none" stroke="#9a32cd" stroke-dasharray="5,2" d="M76.91,-252.42C142.63,-250.83 326.98,-246.37 416.28,-244.2"/>
<polygon fill="#9a32cd" stroke="#9a32cd" points="76.65,-248.93 66.74,-252.67 76.82,-255.92 76.65,-248.93"/>
</a>
</g>
<text text-anchor="middle" x="237.5" y="-252" font-family="Helvetica,sans-Serif" font-size="10.00" fill="grey"> elements</text>
</g>
<!-- Node13 -->
<g id="Node000013" class="node">
<title>Node13</title>
<g id="a_Node000013"><a xlink:title=" ">
<polygon fill="white" stroke="#666666" points="286,-350.5 189,-350.5 189,-331.5 286,-331.5 286,-350.5"/>
<text text-anchor="middle" x="237.5" y="-338.5" font-family="Helvetica,sans-Serif" font-size="10.00">std::vector&lt; T &gt;</text>
</a>
</g>
</g>
<!-- Node8&#45;&gt;Node13 -->
<g id="edge18_Node000013_Node000008" class="edge">
<title>Node8&#45;&gt;Node13</title>
<g id="a_edge18_Node000013_Node000008"><a xlink:title=" ">
<path fill="none" stroke="#9a32cd" stroke-dasharray="5,2" d="M75.56,-265.61C102.23,-280.29 148.16,-304.82 189,-323 195.61,-325.94 202.85,-328.84 209.65,-331.43"/>
<polygon fill="#9a32cd" stroke="#9a32cd" points="77.09,-262.46 66.65,-260.68 73.7,-268.58 77.09,-262.46"/>
</a>
</g>
<text text-anchor="middle" x="146.5" y="-317" font-family="Helvetica,sans-Serif" font-size="10.00" fill="grey"> elements</text>
</g>
<!-- Node9&#45;&gt;Node2 -->
<g id="edge8_Node000002_Node000009" class="edge">
<title>Node9&#45;&gt;Node2</title>
<g id="a_edge8_Node000002_Node000009"><a xlink:title=" ">
<path fill="none" stroke="#9a32cd" stroke-dasharray="5,2" d="M870.26,-202.65C910.37,-208.87 961.56,-217.04 1007,-225 1016.7,-226.7 1027.06,-228.61 1036.97,-230.48"/>
<polygon fill="#9a32cd" stroke="#9a32cd" points="870.73,-199.18 860.32,-201.12 869.66,-206.1 870.73,-199.18"/>
</a>
</g>
<text text-anchor="middle" x="950.5" y="-228" font-family="Helvetica,sans-Serif" font-size="10.00" fill="grey"> bcDataTypeMap_</text>
</g>
<!-- Node10&#45;&gt;Node2 -->
<g id="edge11_Node000002_Node000010" class="edge">
<title>Node10&#45;&gt;Node2</title>
<g id="a_edge11_Node000002_Node000010"><a xlink:title=" ">
<path fill="none" stroke="#9a32cd" stroke-dasharray="5,2" d="M870.39,-240C917.79,-240 979.68,-240 1024.89,-240"/>
<polygon fill="#9a32cd" stroke="#9a32cd" points="870.2,-236.5 860.2,-240 870.2,-243.5 870.2,-236.5"/>
</a>
</g>
<text text-anchor="middle" x="950.5" y="-254" font-family="Helvetica,sans-Serif" font-size="10.00" fill="grey"> functions</text>
<text text-anchor="middle" x="950.5" y="-243" font-family="Helvetica,sans-Serif" font-size="10.00" fill="grey">userFunctionMap_</text>
</g>
<!-- Node11&#45;&gt;Node2 -->
<g id="edge14_Node000002_Node000011" class="edge">
<title>Node11&#45;&gt;Node2</title>
<g id="a_edge14_Node000002_Node000011"><a xlink:title=" ">
<path fill="none" stroke="#9a32cd" stroke-dasharray="5,2" d="M867.77,-349.16C909.2,-336.95 962.58,-318.84 1007,-296 1032.75,-282.75 1059.55,-261.84 1074.22,-249.67"/>
<polygon fill="#9a32cd" stroke="#9a32cd" points="866.67,-345.83 858.05,-351.98 868.63,-352.55 866.67,-345.83"/>
</a>
</g>
<text text-anchor="middle" x="950.5" y="-343" font-family="Helvetica,sans-Serif" font-size="10.00" fill="grey"> functionParams_</text>
</g>
<!-- Node12 -->
<g id="Node000012" class="node">
<title>Node12</title>
<g id="a_Node000012"><a xlink:title=" ">
<polygon fill="white" stroke="#666666" points="529,-452.5 405,-452.5 405,-433.5 529,-433.5 529,-452.5"/>
<text text-anchor="middle" x="467" y="-440.5" font-family="Helvetica,sans-Serif" font-size="10.00">std::vector&lt; double &gt;</text>
</a>
</g>
</g>
<!-- Node12&#45;&gt;Node11 -->
<g id="edge16_Node000011_Node000012" class="edge">
<title>Node12&#45;&gt;Node11</title>
<g id="a_edge16_Node000011_Node000012"><a xlink:title=" ">
<path fill="none" stroke="#9a32cd" stroke-dasharray="5,2" d="M539.04,-450.38C588.59,-452.14 654.44,-447.4 704,-418 716.09,-410.83 710.74,-400.41 722,-392 727.12,-388.18 732.85,-384.92 738.81,-382.15"/>
<polygon fill="#9a32cd" stroke="#9a32cd" points="539.19,-446.89 529.04,-449.94 538.88,-453.88 539.19,-446.89"/>
</a>
</g>
<text text-anchor="middle" x="629.5" y="-453" font-family="Helvetica,sans-Serif" font-size="10.00" fill="grey"> elements</text>
</g>
<!-- Node13&#45;&gt;Node12 -->
<g id="edge17_Node000012_Node000013" class="edge">
<title>Node13&#45;&gt;Node12</title>
<g id="a_edge17_Node000012_Node000013"><a xlink:title=" ">
<path fill="none" stroke="orange" stroke-dasharray="5,2" d="M248.99,-359.77C260.16,-377.83 279.57,-404.35 304,-418 334.56,-435.07 373.15,-441.51 405,-443.59"/>
<polygon fill="orange" stroke="orange" points="251.76,-357.57 243.66,-350.74 245.73,-361.13 251.76,-357.57"/>
</a>
</g>
<text text-anchor="middle" x="341.5" y="-443" font-family="Helvetica,sans-Serif" font-size="10.00" fill="grey"> &lt; double &gt;</text>
</g>
<!-- Node13&#45;&gt;Node15 -->
<g id="edge24_Node000015_Node000013" class="edge">
<title>Node13&#45;&gt;Node15</title>
<g id="a_edge24_Node000015_Node000013"><a xlink:title=" ">
<path fill="none" stroke="orange" stroke-dasharray="5,2" d="M296.27,-338.97C326.86,-337.89 364.64,-336.56 396.78,-335.43"/>
<polygon fill="orange" stroke="orange" points="296.06,-335.47 286.19,-339.32 296.31,-342.47 296.06,-335.47"/>
</a>
</g>
<text text-anchor="middle" x="341.5" y="-341" font-family="Helvetica,sans-Serif" font-size="10.00" fill="grey"> &lt; std::string &gt;</text>
</g>
<!-- Node14&#45;&gt;Node2 -->
<g id="edge20_Node000002_Node000014" class="edge">
<title>Node14&#45;&gt;Node2</title>
<g id="a_edge20_Node000002_Node000014"><a xlink:title=" ">
<path fill="none" stroke="#9a32cd" stroke-dasharray="5,2" d="M886.62,-282.22C923.93,-278.74 967.88,-273.32 1007,-265 1025.05,-261.16 1044.84,-254.84 1060.03,-249.52"/>
<polygon fill="#9a32cd" stroke="#9a32cd" points="885.92,-278.77 876.28,-283.15 886.55,-285.74 885.92,-278.77"/>
</a>
</g>
<text text-anchor="middle" x="950.5" y="-284" font-family="Helvetica,sans-Serif" font-size="10.00" fill="grey"> functionStringParams_</text>
</g>
<!-- Node15&#45;&gt;Node14 -->
<g id="edge22_Node000014_Node000015" class="edge">
<title>Node15&#45;&gt;Node14</title>
<g id="a_edge22_Node000014_Node000015"><a xlink:title=" ">
<path fill="none" stroke="#9a32cd" stroke-dasharray="5,2" d="M547.22,-328.53C593.21,-325.21 652.12,-319.72 704,-311 716.43,-308.91 729.64,-306.07 742.11,-303.1"/>
<polygon fill="#9a32cd" stroke="#9a32cd" points="546.75,-325.06 537.02,-329.25 547.24,-332.04 546.75,-325.06"/>
</a>
</g>
<text text-anchor="middle" x="629.5" y="-330" font-family="Helvetica,sans-Serif" font-size="10.00" fill="grey"> elements</text>
</g>
<!-- Node16 -->
<g id="Node000016" class="node">
<title>Node16</title>
<g id="a_Node000016"><a xlink:href="structsierra_1_1nalu_1_1_temperature.html" target="_top" xlink:title=" ">
<polygon fill="white" stroke="#666666" points="868.5,-419.5 729.5,-419.5 729.5,-400.5 868.5,-400.5 868.5,-419.5"/>
<text text-anchor="middle" x="799" y="-407.5" font-family="Helvetica,sans-Serif" font-size="10.00">sierra::nalu::Temperature</text>
</a>
</g>
</g>
<!-- Node16&#45;&gt;Node2 -->
<g id="edge26_Node000002_Node000016" class="edge">
<title>Node16&#45;&gt;Node2</title>
<g id="a_edge26_Node000002_Node000016"><a xlink:title=" ">
<path fill="none" stroke="#9a32cd" stroke-dasharray="5,2" d="M878.63,-402.54C919.9,-395.49 969.54,-381.75 1007,-355 1046.54,-326.77 1072.38,-271.97 1081.66,-249.73"/>
<polygon fill="#9a32cd" stroke="#9a32cd" points="877.92,-399.11 868.6,-404.16 879.03,-406.03 877.92,-399.11"/>
</a>
</g>
<text text-anchor="middle" x="950.5" y="-402" font-family="Helvetica,sans-Serif" font-size="10.00" fill="grey"> temperature_</text>
</g>
</g>
</svg>

<g id="navigator" transform="translate(0 0)" fill="#404254">
  <rect fill="#f2f5e9" fill-opacity="0.5" stroke="#606060" stroke-width=".5" x="0" y="0" width="60" height="60"/>
  <use id="zoomplus" xlink:href="#zoomPlus" x="17" y="9" onmousedown="handleZoom(evt,'in')"/>
  <use id="zoomminus" xlink:href="#zoomMin" x="42" y="9" onmousedown="handleZoom(evt,'out')"/>
  <use id="reset" xlink:href="#resetDef" x="30" y="36" onmousedown="handleReset()"/>
   <use id="arrowup" xlink:href="#arrowUp" x="0" y="0" onmousedown="handlePan(0,-1)"/>
  <use id="arrowright" xlink:href="#arrowRight" x="0" y="0" onmousedown="handlePan(1,0)"/>
  <use id="arrowdown" xlink:href="#arrowDown" x="0" y="0" onmousedown="handlePan(0,1)"/>
  <use id="arrowleft" xlink:href="#arrowLeft" x="0" y="0" onmousedown="handlePan(-1,0)"/>
</g>
<svg viewBox="0 0 15 15" width="100%" height="30px" preserveAspectRatio="xMaxYMin meet">
 <g id="arrow_out" transform="scale(0.3 0.3)">
  <a xlink:href="structsierra_1_1nalu_1_1_non_conformal_user_data__coll__graph_org.svg" target="_base">
   <rect id="button" ry="5" rx="5" y="6" x="6" height="38" width="38"
        fill="#f2f5e9" fill-opacity="0.5" stroke="#606060" stroke-width="1.0"/>
   <path id="arrow"
     d="M 11.500037,31.436501 C 11.940474,20.09759 22.043105,11.32322 32.158766,21.979434 L 37.068811,17.246167 C 37.068811,17.246167 37.088388,32 37.088388,32 L 22.160133,31.978069 C 22.160133,31.978069 26.997745,27.140456 26.997745,27.140456 C 18.528582,18.264221 13.291696,25.230495 11.500037,31.436501 z"
     style="fill:#404040;"/>
  </a>
 </g>
</svg>

<style type='text/css'>
<![CDATA[
[data-mouse-over-selected='false'] { opacity: 0.7; }
[data-mouse-over-selected='true']  { opacity: 1.0; }
]]>
</style>
<script type="application/ecmascript"><![CDATA[
document.addEventListener('DOMContentLoaded', (event) => {
  highlightEdges();
  highlightAdjacentNodes();
});
]]></script>
</svg>
