<?xml version="1.0" encoding="UTF-8" standalone="no"?>
<!DOCTYPE svg PUBLIC "-//W3C//DTD SVG 1.1//EN"
 "http://www.w3.org/Graphics/SVG/1.1/DTD/svg11.dtd">
<!-- Generated by graphviz version 2.43.0 (0)
 -->
<!-- Title: sierra::nalu::InflowBoundaryConditionData Pages: 1 -->
<!--zoomable 621 -->
<svg id="main" version="1.1" xmlns="http://www.w3.org/2000/svg" xmlns:xlink="http://www.w3.org/1999/xlink" xml:space="preserve" onload="init(evt)">
<style type="text/css"><![CDATA[
.edge:hover path { stroke: red; }
.edge:hover polygon { stroke: red; fill: red; }
]]></style>
<script type="text/javascript"><![CDATA[
var edges = document.getElementsByTagName('g');
if (edges && edges.length) {
  for (var i=0;i<edges.length;i++) {
    if (edges[i].id.substr(0,4)=='edge') {
      edges[i].setAttribute('class','edge');
    }
  }
}
]]></script>
        <defs>
                <circle id="rim" cx="0" cy="0" r="7"/>
                <circle id="rim2" cx="0" cy="0" r="3.5"/>
                <g id="zoomPlus">
                        <use xlink:href="#rim" fill="#404040">
                                <set attributeName="fill" to="#808080" begin="zoomplus.mouseover" end="zoomplus.mouseout"/>
                        </use>
                        <path d="M-4,0h8M0,-4v8" fill="none" stroke="white" stroke-width="1.5" pointer-events="none"/>
                </g>
                <g id="zoomMin">
                        <use xlink:href="#rim" fill="#404040">
                                <set attributeName="fill" to="#808080" begin="zoomminus.mouseover" end="zoomminus.mouseout"/>
                        </use>
                        <path d="M-4,0h8" fill="none" stroke="white" stroke-width="1.5" pointer-events="none"/>
                </g>
                <g id="dirArrow">
                        <path fill="none" stroke="white" stroke-width="1.5" d="M0,-3.0v7 M-2.5,-0.5L0,-3.0L2.5,-0.5"/>
                </g>
               <g id="resetDef">
                       <use xlink:href="#rim2" fill="#404040">
                               <set attributeName="fill" to="#808080" begin="reset.mouseover" end="reset.mouseout"/>
                       </use>
               </g>
        </defs>

<script type="text/javascript">
var viewWidth = 1748;
var viewHeight = 621;
var sectionId = 'dynsection-1';
</script>
<script xlink:href="svgpan.js"/>
<svg id="graph" class="graph">
<g id="viewport">
<title>sierra::nalu::InflowBoundaryConditionData</title>
<polygon fill="white" stroke="transparent" points="-4,4 -4,-616.76 1744,-616.76 1744,4 -4,4"/>
<!-- Node1 -->
<g id="node1" class="node">
<title>Node1</title>
<g id="a_node1"><a xlink:title=" ">
<polygon fill="#bfbfbf" stroke="black" points="1587,-51.76 1587,-81.76 1740,-81.76 1740,-51.76 1587,-51.76"/>
<text text-anchor="start" x="1595" y="-69.76" font-family="Helvetica,sans-Serif" font-size="10.00">sierra::nalu::InflowBoundary</text>
<text text-anchor="middle" x="1663.5" y="-58.76" font-family="Helvetica,sans-Serif" font-size="10.00">ConditionData</text>
</a>
</g>
</g>
<!-- Node2 -->
<g id="node2" class="node">
<title>Node2</title>
<g id="a_node2"><a xlink:href="classsierra_1_1nalu_1_1_boundary_condition.html" target="_top" xlink:title=" ">
<polygon fill="white" stroke="black" points="555,-26.26 555,-45.26 725,-45.26 725,-26.26 555,-26.26"/>
<text text-anchor="middle" x="640" y="-33.26" font-family="Helvetica,sans-Serif" font-size="10.00">sierra::nalu::BoundaryCondition</text>
</a>
</g>
</g>
<!-- Node2&#45;&gt;Node1 -->
<g id="edge1" class="edge">
<title>Node2&#45;&gt;Node1</title>
<path fill="none" stroke="midnightblue" d="M735.07,-42.08C804.18,-46.18 900.39,-50.76 985,-50.76 985,-50.76 985,-50.76 1423,-50.76 1477.9,-50.76 1539.73,-55 1586.81,-59.11"/>
<polygon fill="midnightblue" stroke="midnightblue" points="735.26,-38.58 725.07,-41.48 734.84,-45.57 735.26,-38.58"/>
</g>
<!-- Node3 -->
<g id="node3" class="node">
<title>Node3</title>
<g id="a_node3"><a xlink:title=" ">
<polygon fill="white" stroke="#bfbfbf" points="205,-166.26 205,-185.26 270,-185.26 270,-166.26 205,-166.26"/>
<text text-anchor="middle" x="237.5" y="-173.26" font-family="Helvetica,sans-Serif" font-size="10.00">std::string</text>
</a>
</g>
</g>
<!-- Node3&#45;&gt;Node2 -->
<g id="edge2" class="edge">
<title>Node3&#45;&gt;Node2</title>
<path fill="none" stroke="#9a32cd" stroke-dasharray="5,2" d="M241.13,-155.71C246.52,-123.82 262.06,-62.45 304,-35.76 401.16,26.05 548.43,-7.75 610.17,-26.24"/>
<polygon fill="#9a32cd" stroke="#9a32cd" points="237.61,-155.59 239.58,-166 244.53,-156.64 237.61,-155.59"/>
<text text-anchor="middle" x="341.5" y="-49.76" font-family="Helvetica,sans-Serif" font-size="10.00"> bcName_</text>
<text text-anchor="middle" x="341.5" y="-38.76" font-family="Helvetica,sans-Serif" font-size="10.00">targetName_</text>
</g>
<!-- Node7 -->
<g id="node7" class="node">
<title>Node7</title>
<g id="a_node7"><a xlink:title=" ">
<polygon fill="white" stroke="#bfbfbf" points="759,-297.76 759,-327.76 881,-327.76 881,-297.76 759,-297.76"/>
<text text-anchor="start" x="767" y="-315.76" font-family="Helvetica,sans-Serif" font-size="10.00">std::map&lt; std::string,</text>
<text text-anchor="middle" x="820" y="-304.76" font-family="Helvetica,sans-Serif" font-size="10.00"> bool &gt;</text>
</a>
</g>
</g>
<!-- Node3&#45;&gt;Node7 -->
<g id="edge7" class="edge">
<title>Node3&#45;&gt;Node7</title>
<path fill="none" stroke="#9a32cd" stroke-dasharray="5,2" d="M250.85,-193.94C274.72,-227.47 330.72,-298.61 397,-331.76 462.63,-364.59 661.66,-406.81 725,-369.76 739.09,-361.52 730.4,-348.13 743,-337.76 747.72,-333.88 753.06,-330.6 758.68,-327.82"/>
<polygon fill="#9a32cd" stroke="#9a32cd" points="253.58,-191.74 244.99,-185.55 247.85,-195.75 253.58,-191.74"/>
<text text-anchor="middle" x="467" y="-374.76" font-family="Helvetica,sans-Serif" font-size="10.00"> keys</text>
</g>
<!-- Node11 -->
<g id="node11" class="node">
<title>Node11</title>
<g id="a_node11"><a xlink:title=" ">
<polygon fill="white" stroke="#bfbfbf" points="759,-248.76 759,-278.76 881,-278.76 881,-248.76 759,-248.76"/>
<text text-anchor="start" x="767" y="-266.76" font-family="Helvetica,sans-Serif" font-size="10.00">std::map&lt; std::string,</text>
<text text-anchor="middle" x="820" y="-255.76" font-family="Helvetica,sans-Serif" font-size="10.00"> UserDataType &gt;</text>
</a>
</g>
</g>
<!-- Node3&#45;&gt;Node11 -->
<g id="edge12" class="edge">
<title>Node3&#45;&gt;Node11</title>
<path fill="none" stroke="#9a32cd" stroke-dasharray="5,2" d="M252.82,-192.98C264.94,-206.17 283.56,-223.49 304,-231.76 384.85,-264.5 640.74,-265.95 758.55,-264.77"/>
<polygon fill="#9a32cd" stroke="#9a32cd" points="255.4,-190.6 246.16,-185.41 250.14,-195.23 255.4,-190.6"/>
<text text-anchor="middle" x="467" y="-264.76" font-family="Helvetica,sans-Serif" font-size="10.00"> keys</text>
</g>
<!-- Node12 -->
<g id="node12" class="node">
<title>Node12</title>
<g id="a_node12"><a xlink:title=" ">
<polygon fill="white" stroke="#bfbfbf" points="743,-108.76 743,-138.76 897,-138.76 897,-108.76 743,-108.76"/>
<text text-anchor="start" x="751" y="-126.76" font-family="Helvetica,sans-Serif" font-size="10.00">std::map&lt; std::string,</text>
<text text-anchor="middle" x="820" y="-115.76" font-family="Helvetica,sans-Serif" font-size="10.00"> std::vector&lt; std::string &gt; &gt;</text>
</a>
</g>
</g>
<!-- Node3&#45;&gt;Node12 -->
<g id="edge15" class="edge">
<title>Node3&#45;&gt;Node12</title>
<path fill="none" stroke="#9a32cd" stroke-dasharray="5,2" d="M259.88,-160.35C272.35,-151.8 288.61,-141.39 304,-133.76 343.43,-114.21 353.77,-107.98 397,-99.76 540.22,-72.53 580.74,-74.73 725,-95.76 742.69,-98.34 761.69,-103.52 777.93,-108.72"/>
<polygon fill="#9a32cd" stroke="#9a32cd" points="257.73,-157.58 251.54,-166.18 261.74,-163.32 257.73,-157.58"/>
<text text-anchor="middle" x="467" y="-102.76" font-family="Helvetica,sans-Serif" font-size="10.00"> keys</text>
</g>
<!-- Node13 -->
<g id="node13" class="node">
<title>Node13</title>
<g id="a_node13"><a xlink:title=" ">
<polygon fill="white" stroke="#bfbfbf" points="397,-120.26 397,-139.26 537,-139.26 537,-120.26 397,-120.26"/>
<text text-anchor="middle" x="467" y="-127.26" font-family="Helvetica,sans-Serif" font-size="10.00">std::vector&lt; std::string &gt;</text>
</a>
</g>
</g>
<!-- Node3&#45;&gt;Node13 -->
<g id="edge17" class="edge">
<title>Node3&#45;&gt;Node13</title>
<path fill="none" stroke="#9a32cd" stroke-dasharray="5,2" d="M269.08,-162.38C279.93,-158.09 292.34,-153.7 304,-150.76 333.98,-143.21 367.79,-138.28 396.75,-135.11"/>
<polygon fill="#9a32cd" stroke="#9a32cd" points="267.56,-159.22 259.62,-166.24 270.21,-165.7 267.56,-159.22"/>
<text text-anchor="middle" x="341.5" y="-153.76" font-family="Helvetica,sans-Serif" font-size="10.00"> elements</text>
</g>
<!-- Node15 -->
<g id="node15" class="node">
<title>Node15</title>
<g id="a_node15"><a xlink:title=" ">
<polygon fill="white" stroke="#bfbfbf" points="759,-193.76 759,-223.76 881,-223.76 881,-193.76 759,-193.76"/>
<text text-anchor="start" x="767" y="-211.76" font-family="Helvetica,sans-Serif" font-size="10.00">std::map&lt; std::string,</text>
<text text-anchor="middle" x="820" y="-200.76" font-family="Helvetica,sans-Serif" font-size="10.00"> std::string &gt;</text>
</a>
</g>
</g>
<!-- Node3&#45;&gt;Node15 -->
<g id="edge22" class="edge">
<title>Node3&#45;&gt;Node15</title>
<path fill="none" stroke="#9a32cd" stroke-dasharray="5,2" d="M280.28,-178.14C381.63,-183.9 640.91,-198.64 758.9,-205.35"/>
<polygon fill="#9a32cd" stroke="#9a32cd" points="280.31,-174.63 270.12,-177.56 279.91,-181.62 280.31,-174.63"/>
<text text-anchor="middle" x="467" y="-206.76" font-family="Helvetica,sans-Serif" font-size="10.00"> elements</text>
<text text-anchor="middle" x="467" y="-195.76" font-family="Helvetica,sans-Serif" font-size="10.00">keys</text>
</g>
<!-- Node16 -->
<g id="node16" class="node">
<title>Node16</title>
<g id="a_node16"><a xlink:title=" ">
<polygon fill="white" stroke="#bfbfbf" points="751,-389.76 751,-419.76 889,-419.76 889,-389.76 751,-389.76"/>
<text text-anchor="start" x="759" y="-407.76" font-family="Helvetica,sans-Serif" font-size="10.00">std::map&lt; std::string,</text>
<text text-anchor="middle" x="820" y="-396.76" font-family="Helvetica,sans-Serif" font-size="10.00"> std::vector&lt; double &gt; &gt;</text>
</a>
</g>
</g>
<!-- Node3&#45;&gt;Node16 -->
<g id="edge25" class="edge">
<title>Node3&#45;&gt;Node16</title>
<path fill="none" stroke="#9a32cd" stroke-dasharray="5,2" d="M245.04,-194.85C261.73,-239.99 310.83,-352.08 397,-386.76 459.25,-411.81 648.14,-410.25 750.81,-407.32"/>
<polygon fill="#9a32cd" stroke="#9a32cd" points="248.31,-193.6 241.64,-185.36 241.71,-195.96 248.31,-193.6"/>
<text text-anchor="middle" x="467" y="-408.76" font-family="Helvetica,sans-Serif" font-size="10.00"> keys</text>
</g>
<!-- Node4 -->
<g id="node4" class="node">
<title>Node4</title>
<g id="a_node4"><a xlink:title=" ">
<polygon fill="white" stroke="#bfbfbf" points="0,-160.76 0,-190.76 104,-190.76 104,-160.76 0,-160.76"/>
<text text-anchor="start" x="8" y="-178.76" font-family="Helvetica,sans-Serif" font-size="10.00">std::basic_string&lt;</text>
<text text-anchor="middle" x="52" y="-167.76" font-family="Helvetica,sans-Serif" font-size="10.00"> Char &gt;</text>
</a>
</g>
</g>
<!-- Node4&#45;&gt;Node3 -->
<g id="edge3" class="edge">
<title>Node4&#45;&gt;Node3</title>
<path fill="none" stroke="midnightblue" d="M114.21,-175.76C144.61,-175.76 180.06,-175.76 204.94,-175.76"/>
<polygon fill="midnightblue" stroke="midnightblue" points="114.12,-172.26 104.11,-175.76 114.11,-179.26 114.12,-172.26"/>
</g>
<!-- Node5 -->
<g id="node5" class="node">
<title>Node5</title>
<g id="a_node5"><a xlink:href="structsierra_1_1nalu_1_1_inflow_user_data.html" target="_top" xlink:title=" ">
<polygon fill="white" stroke="black" points="1346,-422.26 1346,-441.26 1498,-441.26 1498,-422.26 1346,-422.26"/>
<text text-anchor="middle" x="1422" y="-429.26" font-family="Helvetica,sans-Serif" font-size="10.00">sierra::nalu::InflowUserData</text>
</a>
</g>
</g>
<!-- Node5&#45;&gt;Node1 -->
<g id="edge4" class="edge">
<title>Node5&#45;&gt;Node1</title>
<path fill="none" stroke="#9a32cd" stroke-dasharray="5,2" d="M1435.03,-413.43C1476.66,-349.99 1614.08,-140.55 1652.46,-82.06"/>
<polygon fill="#9a32cd" stroke="#9a32cd" points="1431.97,-411.72 1429.41,-422 1437.82,-415.56 1431.97,-411.72"/>
<text text-anchor="middle" x="1542.5" y="-285.76" font-family="Helvetica,sans-Serif" font-size="10.00"> userData_</text>
</g>
<!-- Node6 -->
<g id="node6" class="node">
<title>Node6</title>
<g id="a_node6"><a xlink:href="structsierra_1_1nalu_1_1_user_data.html" target="_top" xlink:title=" ">
<polygon fill="white" stroke="black" points="1090.5,-280.26 1090.5,-299.26 1213.5,-299.26 1213.5,-280.26 1090.5,-280.26"/>
<text text-anchor="middle" x="1152" y="-287.26" font-family="Helvetica,sans-Serif" font-size="10.00">sierra::nalu::UserData</text>
</a>
</g>
</g>
<!-- Node6&#45;&gt;Node5 -->
<g id="edge5" class="edge">
<title>Node6&#45;&gt;Node5</title>
<path fill="none" stroke="midnightblue" d="M1223.79,-291.77C1257.25,-295.36 1296.63,-303.6 1328,-321.76 1371.5,-346.95 1404.02,-400.4 1415.99,-422.2"/>
<polygon fill="midnightblue" stroke="midnightblue" points="1223.89,-288.27 1213.61,-290.8 1223.23,-295.23 1223.89,-288.27"/>
</g>
<!-- Node7&#45;&gt;Node6 -->
<g id="edge6" class="edge">
<title>Node7&#45;&gt;Node6</title>
<path fill="none" stroke="#9a32cd" stroke-dasharray="5,2" d="M891.16,-307.87C950.33,-303.75 1034.15,-297.91 1090.43,-293.98"/>
<polygon fill="#9a32cd" stroke="#9a32cd" points="890.88,-304.38 881.14,-308.57 891.36,-311.37 890.88,-304.38"/>
<text text-anchor="middle" x="986" y="-309.76" font-family="Helvetica,sans-Serif" font-size="10.00"> bcDataSpecifiedMap_</text>
</g>
<!-- Node8 -->
<g id="node8" class="node">
<title>Node8</title>
<g id="a_node8"><a xlink:title=" ">
<polygon fill="white" stroke="#bfbfbf" points="416.5,-303.26 416.5,-322.26 517.5,-322.26 517.5,-303.26 416.5,-303.26"/>
<text text-anchor="middle" x="467" y="-310.26" font-family="Helvetica,sans-Serif" font-size="10.00">std::map&lt; K, T &gt;</text>
</a>
</g>
</g>
<!-- Node8&#45;&gt;Node7 -->
<g id="edge8" class="edge">
<title>Node8&#45;&gt;Node7</title>
<path fill="none" stroke="orange" stroke-dasharray="5,2" d="M527.55,-312.76C591.98,-312.76 694.16,-312.76 758.83,-312.76"/>
<polygon fill="orange" stroke="orange" points="527.55,-309.26 517.55,-312.76 527.55,-316.26 527.55,-309.26"/>
<text text-anchor="middle" x="640" y="-315.76" font-family="Helvetica,sans-Serif" font-size="10.00"> &lt; std::string, bool &gt;</text>
</g>
<!-- Node8&#45;&gt;Node11 -->
<g id="edge13" class="edge">
<title>Node8&#45;&gt;Node11</title>
<path fill="none" stroke="orange" stroke-dasharray="5,2" d="M527.5,-302.16C536.7,-300.62 546.1,-299.1 555,-297.76 624.8,-287.26 705.3,-277.18 758.87,-270.77"/>
<polygon fill="orange" stroke="orange" points="526.9,-298.71 517.63,-303.83 528.07,-305.61 526.9,-298.71"/>
<text text-anchor="middle" x="640" y="-300.76" font-family="Helvetica,sans-Serif" font-size="10.00"> &lt; std::string, UserDataType &gt;</text>
</g>
<!-- Node8&#45;&gt;Node12 -->
<g id="edge20" class="edge">
<title>Node8&#45;&gt;Node12</title>
<path fill="none" stroke="orange" stroke-dasharray="5,2" d="M495.99,-297.9C510.28,-288.94 526.77,-276.27 537,-260.76 555.41,-232.87 531.32,-211.35 555,-187.76 604.12,-138.84 683.87,-125 742.89,-122.08"/>
<polygon fill="orange" stroke="orange" points="493.81,-295.12 487,-303.24 497.39,-301.14 493.81,-295.12"/>
<text text-anchor="start" x="580" y="-201.76" font-family="Helvetica,sans-Serif" font-size="10.00"> &lt; std::string, std</text>
<text text-anchor="middle" x="640" y="-190.76" font-family="Helvetica,sans-Serif" font-size="10.00">::vector&lt; std::string &gt; &gt;</text>
</g>
<!-- Node8&#45;&gt;Node15 -->
<g id="edge23" class="edge">
<title>Node8&#45;&gt;Node15</title>
<path fill="none" stroke="orange" stroke-dasharray="5,2" d="M489.01,-296.75C512.35,-279.09 547.74,-252.75 555,-249.76 621.38,-222.45 703.97,-213.17 758.93,-210.11"/>
<polygon fill="orange" stroke="orange" points="486.58,-294.2 480.73,-303.03 490.82,-299.78 486.58,-294.2"/>
<text text-anchor="start" x="597.5" y="-263.76" font-family="Helvetica,sans-Serif" font-size="10.00"> &lt; std::string, std</text>
<text text-anchor="middle" x="640" y="-252.76" font-family="Helvetica,sans-Serif" font-size="10.00">::string &gt;</text>
</g>
<!-- Node8&#45;&gt;Node16 -->
<g id="edge28" class="edge">
<title>Node8&#45;&gt;Node16</title>
<path fill="none" stroke="orange" stroke-dasharray="5,2" d="M525.36,-324.45C577.72,-335.53 657.07,-353.32 725,-372.76 742.4,-377.74 761.34,-384.02 777.63,-389.69"/>
<polygon fill="orange" stroke="orange" points="525.76,-320.96 515.26,-322.33 524.32,-327.81 525.76,-320.96"/>
<text text-anchor="start" x="588" y="-386.76" font-family="Helvetica,sans-Serif" font-size="10.00"> &lt; std::string, std</text>
<text text-anchor="middle" x="640" y="-375.76" font-family="Helvetica,sans-Serif" font-size="10.00">::vector&lt; double &gt; &gt;</text>
</g>
<!-- Node9 -->
<g id="node9" class="node">
<title>Node9</title>
<g id="a_node9"><a xlink:title=" ">
<polygon fill="white" stroke="#bfbfbf" points="223,-352.26 223,-371.26 252,-371.26 252,-352.26 223,-352.26"/>
<text text-anchor="middle" x="237.5" y="-359.26" font-family="Helvetica,sans-Serif" font-size="10.00">K</text>
</a>
</g>
</g>
<!-- Node9&#45;&gt;Node8 -->
<g id="edge9" class="edge">
<title>Node9&#45;&gt;Node8</title>
<path fill="none" stroke="#9a32cd" stroke-dasharray="5,2" d="M262.06,-356.69C299.68,-348.58 373.95,-332.59 421.72,-322.3"/>
<polygon fill="#9a32cd" stroke="#9a32cd" points="261.09,-353.32 252.05,-358.84 262.56,-360.16 261.09,-353.32"/>
<text text-anchor="middle" x="341.5" y="-350.76" font-family="Helvetica,sans-Serif" font-size="10.00"> keys</text>
</g>
<!-- Node10 -->
<g id="node10" class="node">
<title>Node10</title>
<g id="a_node10"><a xlink:title=" ">
<polygon fill="white" stroke="#bfbfbf" points="37.5,-413.26 37.5,-432.26 66.5,-432.26 66.5,-413.26 37.5,-413.26"/>
<text text-anchor="middle" x="52" y="-420.26" font-family="Helvetica,sans-Serif" font-size="10.00">T</text>
</a>
</g>
</g>
<!-- Node10&#45;&gt;Node8 -->
<g id="edge10" class="edge">
<title>Node10&#45;&gt;Node8</title>
<path fill="none" stroke="#9a32cd" stroke-dasharray="5,2" d="M76.61,-426.8C119.55,-433.18 212.74,-442.58 286,-418.76 331.88,-403.84 342.87,-394.74 379,-362.76 388.72,-354.16 386.59,-347.51 397,-339.76 407.11,-332.24 419.59,-326.51 431.15,-322.32"/>
<polygon fill="#9a32cd" stroke="#9a32cd" points="77.01,-423.32 66.59,-425.23 75.92,-430.23 77.01,-423.32"/>
<text text-anchor="middle" x="237.5" y="-435.76" font-family="Helvetica,sans-Serif" font-size="10.00"> elements</text>
</g>
<!-- Node14 -->
<g id="node14" class="node">
<title>Node14</title>
<g id="a_node14"><a xlink:title=" ">
<polygon fill="white" stroke="#bfbfbf" points="189,-390.26 189,-409.26 286,-409.26 286,-390.26 189,-390.26"/>
<text text-anchor="middle" x="237.5" y="-397.26" font-family="Helvetica,sans-Serif" font-size="10.00">std::vector&lt; T &gt;</text>
</a>
</g>
</g>
<!-- Node10&#45;&gt;Node14 -->
<g id="edge19" class="edge">
<title>Node10&#45;&gt;Node14</title>
<path fill="none" stroke="#9a32cd" stroke-dasharray="5,2" d="M76.96,-419.76C105.28,-416.21 153.06,-410.22 188.97,-405.72"/>
<polygon fill="#9a32cd" stroke="#9a32cd" points="76.28,-416.32 66.79,-421.03 77.15,-423.26 76.28,-416.32"/>
<text text-anchor="middle" x="146.5" y="-416.76" font-family="Helvetica,sans-Serif" font-size="10.00"> elements</text>
</g>
<!-- Node11&#45;&gt;Node6 -->
<g id="edge11" class="edge">
<title>Node11&#45;&gt;Node6</title>
<path fill="none" stroke="#9a32cd" stroke-dasharray="5,2" d="M891.21,-268.96C938.15,-272.47 1001.29,-277.27 1057,-281.76 1067.77,-282.63 1079.24,-283.58 1090.33,-284.52"/>
<polygon fill="#9a32cd" stroke="#9a32cd" points="891.38,-265.46 881.15,-268.2 890.86,-272.44 891.38,-265.46"/>
<text text-anchor="middle" x="986" y="-284.76" font-family="Helvetica,sans-Serif" font-size="10.00"> bcDataTypeMap_</text>
</g>
<!-- Node12&#45;&gt;Node6 -->
<g id="edge14" class="edge">
<title>Node12&#45;&gt;Node6</title>
<path fill="none" stroke="#9a32cd" stroke-dasharray="5,2" d="M900.6,-141.39C948.14,-154.06 1008.5,-174.03 1057,-202.76 1093.73,-224.53 1128.24,-262.58 1143.2,-280.25"/>
<polygon fill="#9a32cd" stroke="#9a32cd" points="901.22,-137.94 890.66,-138.8 899.45,-144.71 901.22,-137.94"/>
<text text-anchor="middle" x="986" y="-205.76" font-family="Helvetica,sans-Serif" font-size="10.00"> functionStringParams_</text>
</g>
<!-- Node13&#45;&gt;Node12 -->
<g id="edge16" class="edge">
<title>Node13&#45;&gt;Node12</title>
<path fill="none" stroke="#9a32cd" stroke-dasharray="5,2" d="M505.03,-117.18C520.31,-112.61 538.31,-108.02 555,-105.76 629.87,-95.62 649.78,-98.63 725,-105.76 732.61,-106.48 740.52,-107.53 748.38,-108.75"/>
<polygon fill="#9a32cd" stroke="#9a32cd" points="503.94,-113.85 495.42,-120.15 506.01,-120.54 503.94,-113.85"/>
<text text-anchor="middle" x="640" y="-108.76" font-family="Helvetica,sans-Serif" font-size="10.00"> elements</text>
</g>
<!-- Node14&#45;&gt;Node13 -->
<g id="edge18" class="edge">
<title>Node14&#45;&gt;Node13</title>
<path fill="none" stroke="orange" stroke-dasharray="5,2" d="M282.15,-384.44C283.52,-383.3 284.81,-382.07 286,-380.76 305.27,-359.5 292.88,-345.21 304,-318.76 336.62,-241.16 332.41,-207.74 397,-153.76 404.49,-147.5 413.72,-142.83 422.96,-139.37"/>
<polygon fill="orange" stroke="orange" points="280,-381.66 273.58,-390.1 283.85,-387.5 280,-381.66"/>
<text text-anchor="middle" x="341.5" y="-321.76" font-family="Helvetica,sans-Serif" font-size="10.00"> &lt; std::string &gt;</text>
</g>
<!-- Node17 -->
<g id="node17" class="node">
<title>Node17</title>
<g id="a_node17"><a xlink:title=" ">
<polygon fill="white" stroke="#bfbfbf" points="405,-466.26 405,-485.26 529,-485.26 529,-466.26 405,-466.26"/>
<text text-anchor="middle" x="467" y="-473.26" font-family="Helvetica,sans-Serif" font-size="10.00">std::vector&lt; double &gt;</text>
</a>
</g>
</g>
<!-- Node14&#45;&gt;Node17 -->
<g id="edge27" class="edge">
<title>Node14&#45;&gt;Node17</title>
<path fill="none" stroke="orange" stroke-dasharray="5,2" d="M276.81,-412.56C322.2,-427.72 396.78,-452.64 437.42,-466.22"/>
<polygon fill="orange" stroke="orange" points="277.91,-409.24 267.31,-409.39 275.69,-415.88 277.91,-409.24"/>
<text text-anchor="middle" x="341.5" y="-446.76" font-family="Helvetica,sans-Serif" font-size="10.00"> &lt; double &gt;</text>
</g>
<!-- Node15&#45;&gt;Node6 -->
<g id="edge21" class="edge">
<title>Node15&#45;&gt;Node6</title>
<path fill="none" stroke="#9a32cd" stroke-dasharray="5,2" d="M891.4,-214.55C938.94,-219.73 1002.68,-229.16 1057,-245.76 1085.26,-254.4 1115.89,-270.03 1134.25,-280.15"/>
<polygon fill="#9a32cd" stroke="#9a32cd" points="891.52,-211.05 881.21,-213.48 890.79,-218.01 891.52,-211.05"/>
<text text-anchor="middle" x="986" y="-259.76" font-family="Helvetica,sans-Serif" font-size="10.00"> functions</text>
<text text-anchor="middle" x="986" y="-248.76" font-family="Helvetica,sans-Serif" font-size="10.00">userFunctionMap_</text>
</g>
<!-- Node16&#45;&gt;Node6 -->
<g id="edge24" class="edge">
<title>Node16&#45;&gt;Node6</title>
<path fill="none" stroke="#9a32cd" stroke-dasharray="5,2" d="M899.27,-410.16C949.68,-409.45 1013.65,-400.17 1057,-363.76 1075.09,-348.57 1057.97,-330.13 1075,-313.76 1081.58,-307.43 1089.83,-302.77 1098.43,-299.34"/>
<polygon fill="#9a32cd" stroke="#9a32cd" points="899.04,-406.66 889.05,-410.19 899.07,-413.66 899.04,-406.66"/>
<text text-anchor="middle" x="986" y="-411.76" font-family="Helvetica,sans-Serif" font-size="10.00"> functionParams_</text>
</g>
<!-- Node17&#45;&gt;Node16 -->
<g id="edge26" class="edge">
<title>Node17&#45;&gt;Node16</title>
<path fill="none" stroke="#9a32cd" stroke-dasharray="5,2" d="M498.63,-462.18C515.05,-455.4 535.81,-447.63 555,-442.76 628.9,-424.01 649.57,-430.88 725,-419.76 733.34,-418.53 742.08,-417.2 750.75,-415.85"/>
<polygon fill="#9a32cd" stroke="#9a32cd" points="496.87,-459.13 489.01,-466.24 499.59,-465.57 496.87,-459.13"/>
<text text-anchor="middle" x="640" y="-445.76" font-family="Helvetica,sans-Serif" font-size="10.00"> elements</text>
</g>
<!-- Node25 -->
<g id="node25" class="node">
<title>Node25</title>
<g id="a_node25"><a xlink:href="structsierra_1_1nalu_1_1_mass_fraction.html" target="_top" xlink:title=" ">
<polygon fill="white" stroke="black" points="915,-441.26 915,-460.26 1057,-460.26 1057,-441.26 915,-441.26"/>
<text text-anchor="middle" x="986" y="-448.26" font-family="Helvetica,sans-Serif" font-size="10.00">sierra::nalu::MassFraction</text>
</a>
</g>
</g>
<!-- Node17&#45;&gt;Node25 -->
<g id="edge37" class="edge">
<title>Node17&#45;&gt;Node25</title>
<path fill="none" stroke="#9a32cd" stroke-dasharray="5,2" d="M539.28,-472.32C638.23,-467.53 816.12,-458.93 914.59,-454.17"/>
<polygon fill="#9a32cd" stroke="#9a32cd" points="538.9,-468.83 529.08,-472.81 539.24,-475.82 538.9,-468.83"/>
<text text-anchor="middle" x="640" y="-473.76" font-family="Helvetica,sans-Serif" font-size="10.00"> massFraction_</text>
</g>
<!-- Node18 -->
<g id="node18" class="node">
<title>Node18</title>
<g id="a_node18"><a xlink:href="structsierra_1_1nalu_1_1_temperature.html" target="_top" xlink:title=" ">
<polygon fill="white" stroke="black" points="750.5,-347.26 750.5,-366.26 889.5,-366.26 889.5,-347.26 750.5,-347.26"/>
<text text-anchor="middle" x="820" y="-354.26" font-family="Helvetica,sans-Serif" font-size="10.00">sierra::nalu::Temperature</text>
</a>
</g>
</g>
<!-- Node18&#45;&gt;Node6 -->
<g id="edge29" class="edge">
<title>Node18&#45;&gt;Node6</title>
<path fill="none" stroke="#9a32cd" stroke-dasharray="5,2" d="M899.7,-350.48C946.13,-345.44 1005.68,-336.67 1057,-321.76 1065.41,-319.32 1066.81,-316.86 1075,-313.76 1088.85,-308.52 1104.39,-303.47 1117.8,-299.36"/>
<polygon fill="#9a32cd" stroke="#9a32cd" points="899.28,-347 889.7,-351.53 900.01,-353.96 899.28,-347"/>
<text text-anchor="middle" x="986" y="-351.76" font-family="Helvetica,sans-Serif" font-size="10.00"> temperature_</text>
</g>
<!-- Node19 -->
<g id="node19" class="node">
<title>Node19</title>
<g id="a_node19"><a xlink:href="structsierra_1_1nalu_1_1_gamma_inf.html" target="_top" xlink:title=" ">
<polygon fill="white" stroke="black" points="1087.5,-555.26 1087.5,-574.26 1216.5,-574.26 1216.5,-555.26 1087.5,-555.26"/>
<text text-anchor="middle" x="1152" y="-562.26" font-family="Helvetica,sans-Serif" font-size="10.00">sierra::nalu::GammaInf</text>
</a>
</g>
</g>
<!-- Node19&#45;&gt;Node5 -->
<g id="edge30" class="edge">
<title>Node19&#45;&gt;Node5</title>
<path fill="none" stroke="#9a32cd" stroke-dasharray="5,2" d="M1226.79,-558.39C1259.36,-553.2 1297.18,-543.8 1328,-526.76 1367.59,-504.88 1401.07,-460.82 1414.59,-441.37"/>
<polygon fill="#9a32cd" stroke="#9a32cd" points="1226.23,-554.93 1216.86,-559.86 1227.26,-561.85 1226.23,-554.93"/>
<text text-anchor="middle" x="1287.5" y="-556.76" font-family="Helvetica,sans-Serif" font-size="10.00"> gamma_</text>
</g>
<!-- Node20 -->
<g id="node20" class="node">
<title>Node20</title>
<g id="a_node20"><a xlink:href="structsierra_1_1nalu_1_1_volume_of_fluid.html" target="_top" xlink:title=" ">
<polygon fill="white" stroke="black" points="1077.5,-517.26 1077.5,-536.26 1226.5,-536.26 1226.5,-517.26 1077.5,-517.26"/>
<text text-anchor="middle" x="1152" y="-524.26" font-family="Helvetica,sans-Serif" font-size="10.00">sierra::nalu::VolumeOfFluid</text>
</a>
</g>
</g>
<!-- Node20&#45;&gt;Node5 -->
<g id="edge31" class="edge">
<title>Node20&#45;&gt;Node5</title>
<path fill="none" stroke="#9a32cd" stroke-dasharray="5,2" d="M1232.5,-515.34C1263.04,-509.45 1297.8,-500.89 1328,-488.76 1358.93,-476.34 1391.29,-454.06 1408.49,-441.34"/>
<polygon fill="#9a32cd" stroke="#9a32cd" points="1231.51,-511.96 1222.32,-517.23 1232.79,-518.84 1231.51,-511.96"/>
<text text-anchor="middle" x="1287.5" y="-514.76" font-family="Helvetica,sans-Serif" font-size="10.00"> volumeOfFluid_</text>
</g>
<!-- Node21 -->
<g id="node21" class="node">
<title>Node21</title>
<g id="a_node21"><a xlink:href="structsierra_1_1nalu_1_1_spec_diss_rate.html" target="_top" xlink:title=" ">
<polygon fill="white" stroke="black" points="1080,-479.26 1080,-498.26 1224,-498.26 1224,-479.26 1080,-479.26"/>
<text text-anchor="middle" x="1152" y="-486.26" font-family="Helvetica,sans-Serif" font-size="10.00">sierra::nalu::SpecDissRate</text>
</a>
</g>
</g>
<!-- Node21&#45;&gt;Node5 -->
<g id="edge32" class="edge">
<title>Node21&#45;&gt;Node5</title>
<path fill="none" stroke="#9a32cd" stroke-dasharray="5,2" d="M1229.25,-477.61C1260.07,-472.6 1295.88,-466.15 1328,-458.76 1349.3,-453.86 1372.95,-446.98 1391.07,-441.38"/>
<polygon fill="#9a32cd" stroke="#9a32cd" points="1228.32,-474.21 1219,-479.25 1229.43,-481.12 1228.32,-474.21"/>
<text text-anchor="middle" x="1287.5" y="-476.76" font-family="Helvetica,sans-Serif" font-size="10.00"> sdr_</text>
</g>
<!-- Node22 -->
<g id="node22" class="node">
<title>Node22</title>
<g id="a_node22"><a xlink:href="structsierra_1_1nalu_1_1_mixture_fraction.html" target="_top" xlink:title=" ">
<polygon fill="white" stroke="black" points="1075,-441.26 1075,-460.26 1229,-460.26 1229,-441.26 1075,-441.26"/>
<text text-anchor="middle" x="1152" y="-448.26" font-family="Helvetica,sans-Serif" font-size="10.00">sierra::nalu::MixtureFraction</text>
</a>
</g>
</g>
<!-- Node22&#45;&gt;Node5 -->
<g id="edge33" class="edge">
<title>Node22&#45;&gt;Node5</title>
<path fill="none" stroke="#9a32cd" stroke-dasharray="5,2" d="M1239.09,-444.66C1273.38,-442.23 1312.5,-439.45 1345.66,-437.1"/>
<polygon fill="#9a32cd" stroke="#9a32cd" points="1238.81,-441.17 1229.08,-445.37 1239.3,-448.15 1238.81,-441.17"/>
<text text-anchor="middle" x="1287.5" y="-446.76" font-family="Helvetica,sans-Serif" font-size="10.00"> mixFrac_</text>
</g>
<!-- Node23 -->
<g id="node23" class="node">
<title>Node23</title>
<g id="a_node23"><a xlink:href="structsierra_1_1nalu_1_1_tot_diss_rate.html" target="_top" xlink:title=" ">
<polygon fill="white" stroke="black" points="1084.5,-403.26 1084.5,-422.26 1219.5,-422.26 1219.5,-403.26 1084.5,-403.26"/>
<text text-anchor="middle" x="1152" y="-410.26" font-family="Helvetica,sans-Serif" font-size="10.00">sierra::nalu::TotDissRate</text>
</a>
</g>
</g>
<!-- Node23&#45;&gt;Node5 -->
<g id="edge34" class="edge">
<title>Node23&#45;&gt;Node5</title>
<path fill="none" stroke="#9a32cd" stroke-dasharray="5,2" d="M1229.7,-416.49C1260.3,-418.15 1295.83,-420.29 1328,-422.76 1333.82,-423.21 1339.85,-423.71 1345.9,-424.24"/>
<polygon fill="#9a32cd" stroke="#9a32cd" points="1229.69,-412.98 1219.52,-415.95 1229.32,-419.97 1229.69,-412.98"/>
<text text-anchor="middle" x="1287.5" y="-425.76" font-family="Helvetica,sans-Serif" font-size="10.00"> tdr_</text>
</g>
<!-- Node24 -->
<g id="node24" class="node">
<title>Node24</title>
<g id="a_node24"><a xlink:href="structsierra_1_1nalu_1_1_turb_kin_energy.html" target="_top" xlink:title=" ">
<polygon fill="white" stroke="black" points="1078.5,-365.26 1078.5,-384.26 1225.5,-384.26 1225.5,-365.26 1078.5,-365.26"/>
<text text-anchor="middle" x="1152" y="-372.26" font-family="Helvetica,sans-Serif" font-size="10.00">sierra::nalu::TurbKinEnergy</text>
</a>
</g>
</g>
<!-- Node24&#45;&gt;Node5 -->
<g id="edge35" class="edge">
<title>Node24&#45;&gt;Node5</title>
<path fill="none" stroke="#9a32cd" stroke-dasharray="5,2" d="M1236.05,-384.82C1265.31,-389.09 1298.3,-394.73 1328,-401.76 1351.11,-407.24 1376.76,-415.7 1395.26,-422.24"/>
<polygon fill="#9a32cd" stroke="#9a32cd" points="1236.27,-381.32 1225.87,-383.37 1235.28,-388.24 1236.27,-381.32"/>
<text text-anchor="middle" x="1287.5" y="-404.76" font-family="Helvetica,sans-Serif" font-size="10.00"> tke_</text>
</g>
<!-- Node25&#45;&gt;Node5 -->
<g id="edge36" class="edge">
<title>Node25&#45;&gt;Node5</title>
<path fill="none" stroke="#9a32cd" stroke-dasharray="5,2" d="M1040.46,-436.75C1046.68,-433.32 1052.42,-429.06 1057,-423.76 1080.56,-396.53 1046.85,-367.22 1075,-344.76 1181.52,-259.78 1360.49,-385.11 1408.72,-422.04"/>
<polygon fill="#9a32cd" stroke="#9a32cd" points="1038.62,-433.74 1031.1,-441.2 1041.63,-440.07 1038.62,-433.74"/>
<text text-anchor="middle" x="1152" y="-347.76" font-family="Helvetica,sans-Serif" font-size="10.00"> massFraction_</text>
</g>
<!-- Node26 -->
<g id="node26" class="node">
<title>Node26</title>
<g id="a_node26"><a xlink:href="structsierra_1_1nalu_1_1_velocity.html" target="_top" xlink:title=" ">
<polygon fill="white" stroke="black" points="1094,-593.26 1094,-612.26 1210,-612.26 1210,-593.26 1094,-593.26"/>
<text text-anchor="middle" x="1152" y="-600.26" font-family="Helvetica,sans-Serif" font-size="10.00">sierra::nalu::Velocity</text>
</a>
</g>
</g>
<!-- Node26&#45;&gt;Node5 -->
<g id="edge38" class="edge">
<title>Node26&#45;&gt;Node5</title>
<path fill="none" stroke="#9a32cd" stroke-dasharray="5,2" d="M1220.39,-601.69C1254.98,-598.31 1296.37,-589.63 1328,-568.76 1377.67,-535.99 1407.82,-466.64 1417.54,-441.3"/>
<polygon fill="#9a32cd" stroke="#9a32cd" points="1220.03,-598.21 1210.36,-602.55 1220.62,-605.19 1220.03,-598.21"/>
<text text-anchor="middle" x="1287.5" y="-600.76" font-family="Helvetica,sans-Serif" font-size="10.00"> u_</text>
</g>
</g>
</svg>
        <g id="navigator" transform="translate(0 0)" fill="#404254">
                <rect fill="#f2f5e9" fill-opacity="0.5" stroke="#606060" stroke-width=".5" x="0" y="0" width="60" height="60"/>
                <use id="zoomplus" xlink:href="#zoomPlus" x="17" y="9" onmousedown="handleZoom(evt,'in')"/>
                <use id="zoomminus" xlink:href="#zoomMin" x="42" y="9" onmousedown="handleZoom(evt,'out')"/>
                <use id="reset" xlink:href="#resetDef" x="30" y="36" onmousedown="handleReset()"/>
                <g id="arrowUp" xlink:href="#dirArrow" transform="translate(30 24)" onmousedown="handlePan(0,-1)">
                  <use xlink:href="#rim" fill="#404040">
                        <set attributeName="fill" to="#808080" begin="arrowUp.mouseover" end="arrowUp.mouseout"/>
                  </use>
                  <path fill="none" stroke="white" stroke-width="1.5" d="M0,-3.0v7 M-2.5,-0.5L0,-3.0L2.5,-0.5"/>
                </g>
                <g id="arrowRight" xlink:href="#dirArrow" transform="rotate(90) translate(36 -43)" onmousedown="handlePan(1,0)">
                  <use xlink:href="#rim" fill="#404040">
                        <set attributeName="fill" to="#808080" begin="arrowRight.mouseover" end="arrowRight.mouseout"/>
                  </use>
                  <path fill="none" stroke="white" stroke-width="1.5" d="M0,-3.0v7 M-2.5,-0.5L0,-3.0L2.5,-0.5"/>
                </g>
                <g id="arrowDown" xlink:href="#dirArrow" transform="rotate(180) translate(-30 -48)" onmousedown="handlePan(0,1)">
                  <use xlink:href="#rim" fill="#404040">
                        <set attributeName="fill" to="#808080" begin="arrowDown.mouseover" end="arrowDown.mouseout"/>
                  </use>
                  <path fill="none" stroke="white" stroke-width="1.5" d="M0,-3.0v7 M-2.5,-0.5L0,-3.0L2.5,-0.5"/>
                </g>
                <g id="arrowLeft" xlink:href="#dirArrow" transform="rotate(270) translate(-36 17)" onmousedown="handlePan(-1,0)">
                  <use xlink:href="#rim" fill="#404040">
                        <set attributeName="fill" to="#808080" begin="arrowLeft.mouseover" end="arrowLeft.mouseout"/>
                  </use>
                  <path fill="none" stroke="white" stroke-width="1.5" d="M0,-3.0v7 M-2.5,-0.5L0,-3.0L2.5,-0.5"/>
                </g>
        </g>
        <svg viewBox="0 0 15 15" width="100%" height="30px" preserveAspectRatio="xMaxYMin meet">
         <g id="arrow_out" transform="scale(0.3 0.3)">
          <a xlink:href="structsierra_1_1nalu_1_1_inflow_boundary_condition_data__coll__graph_org.svg" target="_base">
           <rect id="button" ry="5" rx="5" y="6" x="6" height="38" width="38"
                fill="#f2f5e9" fill-opacity="0.5" stroke="#606060" stroke-width="1.0"/>
           <path id="arrow"
             d="M 11.500037,31.436501 C 11.940474,20.09759 22.043105,11.32322 32.158766,21.979434 L 37.068811,17.246167 C 37.068811,17.246167 37.088388,32 37.088388,32 L 22.160133,31.978069 C 22.160133,31.978069 26.997745,27.140456 26.997745,27.140456 C 18.528582,18.264221 13.291696,25.230495 11.500037,31.436501 z"
             style="fill:#404040;"/>
          </a>
         </g>
        </svg>
</svg>
