<?xml version="1.0" encoding="UTF-8" standalone="no"?>
<!DOCTYPE svg PUBLIC "-//W3C//DTD SVG 1.1//EN"
 "http://www.w3.org/Graphics/SVG/1.1/DTD/svg11.dtd">
<!-- Generated by graphviz version 2.43.0 (0)
 -->
<!-- Title: tensorI.h Pages: 1 -->
<svg width="300pt" height="357pt"
 viewBox="0.00 0.00 300.00 357.00" xmlns="http://www.w3.org/2000/svg" xmlns:xlink="http://www.w3.org/1999/xlink">

<svg id="main" version="1.1" xmlns="http://www.w3.org/2000/svg" xmlns:xlink="http://www.w3.org/1999/xlink" xml:space="preserve" onload="init(evt)">
<style type="text/css"><![CDATA[
.node, .edge {opacity: 0.7;}
.node.selected, .edge.selected {opacity: 1;}
.edge:hover path { stroke: red; }
.edge:hover polygon { stroke: red; fill: red; }
]]></style>
<script type="application/ecmascript" xlink:href="svg.min.js"/>
<svg id="graph" class="graph">
<g id="graph0" class="graph" transform="scale(1 1) rotate(0) translate(4 353)">
<title>tensorI.h</title>
<!-- Node1 -->
<g id="Node000001" class="node">
<title>Node1</title>
<g id="a_Node000001"><a xlink:title=" ">
<polygon fill="#999999" stroke="#666666" points="132,-349 73,-349 73,-330 132,-330 132,-349"/>
<text text-anchor="middle" x="102.5" y="-337" font-family="Helvetica,sans-Serif" font-size="10.00">tensorI.h</text>
</a>
</g>
</g>
<!-- Node2 -->
<g id="Node000002" class="node">
<title>Node2</title>
<g id="a_Node000002"><a xlink:href="tensor_8h.html" target="_top" xlink:title=" ">
<polygon fill="white" stroke="#666666" points="130.5,-294 74.5,-294 74.5,-275 130.5,-275 130.5,-294"/>
<text text-anchor="middle" x="102.5" y="-282" font-family="Helvetica,sans-Serif" font-size="10.00">tensor.h</text>
</a>
</g>
</g>
<!-- Node1&#45;&gt;Node2 -->
<g id="edge1_Node000001_Node000002" class="edge">
<title>Node1&#45;&gt;Node2</title>
<g id="a_edge1_Node000001_Node000002"><a xlink:title=" ">
<path fill="none" stroke="#63b8ff" d="M96.01,-319.66C95.41,-310.93 95.86,-300.99 97.37,-294.09"/>
<polygon fill="#63b8ff" stroke="#63b8ff" points="92.56,-320.29 97.33,-329.75 99.5,-319.38 92.56,-320.29"/>
</a>
</g>
</g>
<!-- Node2&#45;&gt;Node1 -->
<g id="edge3_Node000002_Node000001" class="edge">
<title>Node2&#45;&gt;Node1</title>
<g id="a_edge3_Node000002_Node000001"><a xlink:title=" ">
<path fill="none" stroke="#63b8ff" d="M108.98,-304.13C109.6,-312.85 109.16,-322.8 107.67,-329.75"/>
<polygon fill="#63b8ff" stroke="#63b8ff" points="112.43,-303.53 107.63,-294.09 105.49,-304.47 112.43,-303.53"/>
</a>
</g>
</g>
<!-- Node3 -->
<g id="Node000003" class="node">
<title>Node3</title>
<g id="a_Node000003"><a xlink:href="_synthetic_lidar_8_c.html" target="_top" xlink:title=" ">
<polygon fill="white" stroke="#666666" points="95,-239 0,-239 0,-220 95,-220 95,-239"/>
<text text-anchor="middle" x="47.5" y="-227" font-family="Helvetica,sans-Serif" font-size="10.00">SyntheticLidar.C</text>
</a>
</g>
</g>
<!-- Node2&#45;&gt;Node3 -->
<g id="edge2_Node000002_Node000003" class="edge">
<title>Node2&#45;&gt;Node3</title>
<g id="a_edge2_Node000002_Node000003"><a xlink:title=" ">
<path fill="none" stroke="#63b8ff" d="M86.21,-267.8C76.46,-258.41 64.45,-246.83 56.41,-239.09"/>
<polygon fill="#63b8ff" stroke="#63b8ff" points="83.79,-270.33 93.42,-274.75 88.65,-265.29 83.79,-270.33"/>
</a>
</g>
</g>
<!-- Node4 -->
<g id="Node000004" class="node">
<title>Node4</title>
<g id="a_Node000004"><a xlink:href="vector__space_8h.html" target="_top" xlink:title=" ">
<polygon fill="white" stroke="#666666" points="203.5,-239 113.5,-239 113.5,-220 203.5,-220 203.5,-239"/>
<text text-anchor="middle" x="158.5" y="-227" font-family="Helvetica,sans-Serif" font-size="10.00">vector_space.h</text>
</a>
</g>
</g>
<!-- Node2&#45;&gt;Node4 -->
<g id="edge4_Node000002_Node000004" class="edge">
<title>Node2&#45;&gt;Node4</title>
<g id="a_edge4_Node000002_Node000004"><a xlink:title=" ">
<path fill="none" stroke="#63b8ff" d="M118.83,-268.04C128.76,-258.64 141.09,-246.98 149.34,-239.17"/>
<polygon fill="#63b8ff" stroke="#63b8ff" points="116.35,-265.57 111.5,-274.98 121.17,-270.65 116.35,-265.57"/>
</a>
</g>
</g>
<!-- Node5 -->
<g id="Node000005" class="node">
<title>Node5</title>
<g id="a_Node000005"><a xlink:href="_f_s_iturbine_8h.html" target="_top" xlink:title=" ">
<polygon fill="white" stroke="#666666" points="131.5,-184 57.5,-184 57.5,-165 131.5,-165 131.5,-184"/>
<text text-anchor="middle" x="94.5" y="-172" font-family="Helvetica,sans-Serif" font-size="10.00">FSIturbine.h</text>
</a>
</g>
</g>
<!-- Node4&#45;&gt;Node5 -->
<g id="edge5_Node000004_Node000005" class="edge">
<title>Node4&#45;&gt;Node5</title>
<g id="a_edge5_Node000004_Node000005"><a xlink:title=" ">
<path fill="none" stroke="#63b8ff" d="M140.51,-213.6C129.04,-204.11 114.59,-192.13 104.97,-184.17"/>
<polygon fill="#63b8ff" stroke="#63b8ff" points="138.28,-216.3 148.22,-219.98 142.75,-210.91 138.28,-216.3"/>
</a>
</g>
</g>
<!-- Node9 -->
<g id="Node000009" class="node">
<title>Node9</title>
<g id="a_Node000009"><a xlink:href="_wiener_milenkovic_8h.html" target="_top" xlink:title=" ">
<polygon fill="white" stroke="#666666" points="279,-184 166,-184 166,-165 279,-165 279,-184"/>
<text text-anchor="middle" x="222.5" y="-172" font-family="Helvetica,sans-Serif" font-size="10.00">WienerMilenkovic.h</text>
</a>
</g>
</g>
<!-- Node4&#45;&gt;Node9 -->
<g id="edge10_Node000004_Node000009" class="edge">
<title>Node4&#45;&gt;Node9</title>
<g id="a_edge10_Node000004_Node000009"><a xlink:title=" ">
<path fill="none" stroke="#63b8ff" d="M176.49,-213.6C187.96,-204.11 202.41,-192.13 212.03,-184.17"/>
<polygon fill="#63b8ff" stroke="#63b8ff" points="174.25,-210.91 168.78,-219.98 178.72,-216.3 174.25,-210.91"/>
</a>
</g>
</g>
<!-- Node6 -->
<g id="Node000006" class="node">
<title>Node6</title>
<g id="a_Node000006"><a xlink:href="_f_s_iturbine_8_c.html" target="_top" xlink:title=" ">
<polygon fill="white" stroke="#666666" points="156,-19 81,-19 81,0 156,0 156,-19"/>
<text text-anchor="middle" x="118.5" y="-7" font-family="Helvetica,sans-Serif" font-size="10.00">FSIturbine.C</text>
</a>
</g>
</g>
<!-- Node5&#45;&gt;Node6 -->
<g id="edge6_Node000005_Node000006" class="edge">
<title>Node5&#45;&gt;Node6</title>
<g id="a_edge6_Node000005_Node000006"><a xlink:title=" ">
<path fill="none" stroke="#63b8ff" d="M80.71,-156.83C63,-133.28 36.57,-89.3 54.5,-55 63.34,-38.09 81.86,-26.31 96.71,-19.13"/>
<polygon fill="#63b8ff" stroke="#63b8ff" points="78.03,-159.09 86.95,-164.8 83.54,-154.77 78.03,-159.09"/>
</a>
</g>
</g>
<!-- Node7 -->
<g id="Node000007" class="node">
<title>Node7</title>
<g id="a_Node000007"><a xlink:href="_openfast_f_s_i_8_c.html" target="_top" xlink:title=" ">
<polygon fill="white" stroke="#666666" points="149,-74 64,-74 64,-55 149,-55 149,-74"/>
<text text-anchor="middle" x="106.5" y="-62" font-family="Helvetica,sans-Serif" font-size="10.00">OpenfastFSI.C</text>
</a>
</g>
</g>
<!-- Node5&#45;&gt;Node7 -->
<g id="edge7_Node000005_Node000007" class="edge">
<title>Node5&#45;&gt;Node7</title>
<g id="a_edge7_Node000005_Node000007"><a xlink:title=" ">
<path fill="none" stroke="#63b8ff" d="M85.84,-155.34C80.88,-142.58 76.4,-125.15 80.5,-110 84.19,-96.35 93.23,-82.6 99.61,-74.07"/>
<polygon fill="#63b8ff" stroke="#63b8ff" points="82.75,-157.02 89.93,-164.81 89.17,-154.24 82.75,-157.02"/>
</a>
</g>
</g>
<!-- Node8 -->
<g id="Node000008" class="node">
<title>Node8</title>
<g id="a_Node000008"><a xlink:href="_openfast_f_s_i_8h.html" target="_top" xlink:title=" ">
<polygon fill="white" stroke="#666666" points="173.5,-129 89.5,-129 89.5,-110 173.5,-110 173.5,-129"/>
<text text-anchor="middle" x="131.5" y="-117" font-family="Helvetica,sans-Serif" font-size="10.00">OpenfastFSI.h</text>
</a>
</g>
</g>
<!-- Node5&#45;&gt;Node8 -->
<g id="edge8_Node000005_Node000008" class="edge">
<title>Node5&#45;&gt;Node8</title>
<g id="a_edge8_Node000005_Node000008"><a xlink:title=" ">
<path fill="none" stroke="#63b8ff" d="M106.45,-156.39C112.81,-147.27 120.37,-136.45 125.5,-129.09"/>
<polygon fill="#63b8ff" stroke="#63b8ff" points="103.46,-154.55 100.61,-164.75 109.2,-158.55 103.46,-154.55"/>
</a>
</g>
</g>
<!-- Node8&#45;&gt;Node7 -->
<g id="edge9_Node000008_Node000007" class="edge">
<title>Node8&#45;&gt;Node7</title>
<g id="a_edge9_Node000008_Node000007"><a xlink:title=" ">
<path fill="none" stroke="#63b8ff" d="M123.02,-100.53C118.81,-91.6 113.91,-81.22 110.55,-74.09"/>
<polygon fill="#63b8ff" stroke="#63b8ff" points="119.94,-102.2 127.37,-109.75 126.27,-99.21 119.94,-102.2"/>
</a>
</g>
</g>
<!-- Node10 -->
<g id="Node000010" class="node">
<title>Node10</title>
<g id="a_Node000010"><a xlink:href="displacements_8h.html" target="_top" xlink:title=" ">
<polygon fill="white" stroke="#666666" points="288,-129 191,-129 191,-110 288,-110 288,-129"/>
<text text-anchor="middle" x="239.5" y="-117" font-family="Helvetica,sans-Serif" font-size="10.00">displacements.h</text>
</a>
</g>
</g>
<!-- Node9&#45;&gt;Node10 -->
<g id="edge11_Node000009_Node000010" class="edge">
<title>Node9&#45;&gt;Node10</title>
<g id="a_edge11_Node000009_Node000010"><a xlink:title=" ">
<path fill="none" stroke="#63b8ff" d="M228.45,-154.95C231.27,-146.15 234.51,-136.06 236.75,-129.09"/>
<polygon fill="#63b8ff" stroke="#63b8ff" points="225.03,-154.16 225.31,-164.75 231.69,-156.29 225.03,-154.16"/>
</a>
</g>
</g>
<!-- Node11 -->
<g id="Node000011" class="node">
<title>Node11</title>
<g id="a_Node000011"><a xlink:href="_deflection_ramping_8h.html" target="_top" xlink:title=" ">
<polygon fill="white" stroke="#666666" points="292,-74 173,-74 173,-55 292,-55 292,-74"/>
<text text-anchor="middle" x="232.5" y="-62" font-family="Helvetica,sans-Serif" font-size="10.00">DeflectionRamping.h</text>
</a>
</g>
</g>
<!-- Node10&#45;&gt;Node11 -->
<g id="edge12_Node000010_Node000011" class="edge">
<title>Node10&#45;&gt;Node11</title>
<g id="a_edge12_Node000010_Node000011"><a xlink:title=" ">
<path fill="none" stroke="#63b8ff" d="M237.01,-99.66C235.86,-90.93 234.55,-80.99 233.63,-74.09"/>
<polygon fill="#63b8ff" stroke="#63b8ff" points="233.56,-100.29 238.34,-109.75 240.5,-99.38 233.56,-100.29"/>
</a>
</g>
</g>
<!-- Node11&#45;&gt;Node6 -->
<g id="edge13_Node000011_Node000006" class="edge">
<title>Node11&#45;&gt;Node6</title>
<g id="a_edge13_Node000011_Node000006"><a xlink:title=" ">
<path fill="none" stroke="#63b8ff" d="M205.11,-50.77C184.08,-40.99 155.61,-27.75 137.15,-19.17"/>
<polygon fill="#63b8ff" stroke="#63b8ff" points="203.64,-53.94 214.18,-54.98 206.59,-47.6 203.64,-53.94"/>
</a>
</g>
</g>
</g>
</svg>
</svg>

<style type='text/css'>
<![CDATA[
[data-mouse-over-selected='false'] { opacity: 0.7; }
[data-mouse-over-selected='true']  { opacity: 1.0; }
]]>
</style>
<script type="application/ecmascript"><![CDATA[
document.addEventListener('DOMContentLoaded', (event) => {
  highlightEdges();
  highlightAdjacentNodes();
});
]]></script>
</svg>
