<?xml version="1.0" encoding="UTF-8" standalone="no"?>
<!DOCTYPE svg PUBLIC "-//W3C//DTD SVG 1.1//EN"
 "http://www.w3.org/Graphics/SVG/1.1/DTD/svg11.dtd">
<!-- Generated by graphviz version 2.43.0 (0)
 -->
<!-- Title: tensor.h Pages: 1 -->
<svg width="336pt" height="302pt"
 viewBox="0.00 0.00 336.04 302.00" xmlns="http://www.w3.org/2000/svg" xmlns:xlink="http://www.w3.org/1999/xlink">

<svg id="main" version="1.1" xmlns="http://www.w3.org/2000/svg" xmlns:xlink="http://www.w3.org/1999/xlink" xml:space="preserve" onload="init(evt)">
<style type="text/css"><![CDATA[
.node, .edge {opacity: 0.7;}
.node.selected, .edge.selected {opacity: 1;}
.edge:hover path { stroke: red; }
.edge:hover polygon { stroke: red; fill: red; }
]]></style>
<script type="application/ecmascript" xlink:href="svg.min.js"/>
<svg id="graph" class="graph">
<g id="graph0" class="graph" transform="scale(1 1) rotate(0) translate(4 298)">
<title>tensor.h</title>
<!-- Node1 -->
<g id="Node000001" class="node">
<title>Node1</title>
<g id="a_Node000001"><a xlink:title=" ">
<polygon fill="#999999" stroke="#666666" points="209.5,-294 153.5,-294 153.5,-275 209.5,-275 209.5,-294"/>
<text text-anchor="middle" x="181.5" y="-282" font-family="Helvetica,sans-Serif" font-size="10.00">tensor.h</text>
</a>
</g>
</g>
<!-- Node2 -->
<g id="Node000002" class="node">
<title>Node2</title>
<g id="a_Node000002"><a xlink:href="_synthetic_lidar_8_c.html" target="_top" xlink:title=" ">
<polygon fill="white" stroke="#666666" points="95,-239 0,-239 0,-220 95,-220 95,-239"/>
<text text-anchor="middle" x="47.5" y="-227" font-family="Helvetica,sans-Serif" font-size="10.00">SyntheticLidar.C</text>
</a>
</g>
</g>
<!-- Node1&#45;&gt;Node2 -->
<g id="edge1_Node000001_Node000002" class="edge">
<title>Node1&#45;&gt;Node2</title>
<g id="a_edge1_Node000001_Node000002"><a xlink:title=" ">
<path fill="none" stroke="#63b8ff" d="M150.63,-271.29C125.8,-261.47 91.51,-247.91 69.42,-239.17"/>
<polygon fill="#63b8ff" stroke="#63b8ff" points="149.38,-274.56 159.97,-274.98 151.96,-268.05 149.38,-274.56"/>
</a>
</g>
</g>
<!-- Node3 -->
<g id="Node000003" class="node">
<title>Node3</title>
<g id="a_Node000003"><a xlink:href="_wiener_milenkovic_8h.html" target="_top" xlink:title=" ">
<polygon fill="white" stroke="#666666" points="199,-184 86,-184 86,-165 199,-165 199,-184"/>
<text text-anchor="middle" x="142.5" y="-172" font-family="Helvetica,sans-Serif" font-size="10.00">WienerMilenkovic.h</text>
</a>
</g>
</g>
<!-- Node1&#45;&gt;Node3 -->
<g id="edge2_Node000001_Node000003" class="edge">
<title>Node1&#45;&gt;Node3</title>
<g id="a_edge2_Node000001_Node000003"><a xlink:title=" ">
<path fill="none" stroke="#63b8ff" d="M162.93,-268.04C155.02,-260.25 146.68,-250.11 142.5,-239 135.51,-220.43 138.35,-196.58 140.65,-184.06"/>
<polygon fill="#63b8ff" stroke="#63b8ff" points="160.78,-270.81 170.51,-274.99 165.51,-265.65 160.78,-270.81"/>
</a>
</g>
</g>
<!-- Node8 -->
<g id="Node000008" class="node">
<title>Node8</title>
<g id="a_Node000008"><a xlink:href="tensor_i_8h.html" target="_top" xlink:title=" ">
<polygon fill="white" stroke="#666666" points="211,-239 152,-239 152,-220 211,-220 211,-239"/>
<text text-anchor="middle" x="181.5" y="-227" font-family="Helvetica,sans-Serif" font-size="10.00">tensorI.h</text>
</a>
</g>
</g>
<!-- Node1&#45;&gt;Node8 -->
<g id="edge7_Node000001_Node000008" class="edge">
<title>Node1&#45;&gt;Node8</title>
<g id="a_edge7_Node000001_Node000008"><a xlink:title=" ">
<path fill="none" stroke="#63b8ff" d="M175.01,-264.66C174.41,-255.93 174.86,-245.99 176.37,-239.09"/>
<polygon fill="#63b8ff" stroke="#63b8ff" points="171.56,-265.29 176.33,-274.75 178.5,-264.38 171.56,-265.29"/>
</a>
</g>
</g>
<!-- Node9 -->
<g id="Node000009" class="node">
<title>Node9</title>
<g id="a_Node000009"><a xlink:href="vector__space_8h.html" target="_top" xlink:title=" ">
<polygon fill="white" stroke="#666666" points="319.5,-239 229.5,-239 229.5,-220 319.5,-220 319.5,-239"/>
<text text-anchor="middle" x="274.5" y="-227" font-family="Helvetica,sans-Serif" font-size="10.00">vector_space.h</text>
</a>
</g>
</g>
<!-- Node1&#45;&gt;Node9 -->
<g id="edge9_Node000001_Node000009" class="edge">
<title>Node1&#45;&gt;Node9</title>
<g id="a_edge9_Node000001_Node000009"><a xlink:title=" ">
<path fill="none" stroke="#63b8ff" d="M205.25,-269.97C222.25,-260.28 244.63,-247.52 259.29,-239.17"/>
<polygon fill="#63b8ff" stroke="#63b8ff" points="203.4,-266.99 196.44,-274.98 206.86,-273.07 203.4,-266.99"/>
</a>
</g>
</g>
<!-- Node4 -->
<g id="Node000004" class="node">
<title>Node4</title>
<g id="a_Node000004"><a xlink:href="_openfast_f_s_i_8_c.html" target="_top" xlink:title=" ">
<polygon fill="white" stroke="#666666" points="252,-74 167,-74 167,-55 252,-55 252,-74"/>
<text text-anchor="middle" x="209.5" y="-62" font-family="Helvetica,sans-Serif" font-size="10.00">OpenfastFSI.C</text>
</a>
</g>
</g>
<!-- Node3&#45;&gt;Node4 -->
<g id="edge3_Node000003_Node000004" class="edge">
<title>Node3&#45;&gt;Node4</title>
<g id="a_edge3_Node000003_Node000004"><a xlink:title=" ">
<path fill="none" stroke="#63b8ff" d="M153.31,-156.07C167.85,-132.64 193.13,-91.89 204.13,-74.16"/>
<polygon fill="#63b8ff" stroke="#63b8ff" points="150.28,-154.32 147.98,-164.66 156.23,-158.01 150.28,-154.32"/>
</a>
</g>
</g>
<!-- Node5 -->
<g id="Node000005" class="node">
<title>Node5</title>
<g id="a_Node000005"><a xlink:href="displacements_8h.html" target="_top" xlink:title=" ">
<polygon fill="white" stroke="#666666" points="138,-129 41,-129 41,-110 138,-110 138,-129"/>
<text text-anchor="middle" x="89.5" y="-117" font-family="Helvetica,sans-Serif" font-size="10.00">displacements.h</text>
</a>
</g>
</g>
<!-- Node3&#45;&gt;Node5 -->
<g id="edge4_Node000003_Node000005" class="edge">
<title>Node3&#45;&gt;Node5</title>
<g id="a_edge4_Node000003_Node000005"><a xlink:title=" ">
<path fill="none" stroke="#63b8ff" d="M126.52,-157.52C117.18,-148.18 105.75,-136.75 98.09,-129.09"/>
<polygon fill="#63b8ff" stroke="#63b8ff" points="124.2,-160.15 133.75,-164.75 129.15,-155.2 124.2,-160.15"/>
</a>
</g>
</g>
<!-- Node6 -->
<g id="Node000006" class="node">
<title>Node6</title>
<g id="a_Node000006"><a xlink:href="_deflection_ramping_8h.html" target="_top" xlink:title=" ">
<polygon fill="white" stroke="#666666" points="149,-74 30,-74 30,-55 149,-55 149,-74"/>
<text text-anchor="middle" x="89.5" y="-62" font-family="Helvetica,sans-Serif" font-size="10.00">DeflectionRamping.h</text>
</a>
</g>
</g>
<!-- Node5&#45;&gt;Node6 -->
<g id="edge5_Node000005_Node000006" class="edge">
<title>Node5&#45;&gt;Node6</title>
<g id="a_edge5_Node000005_Node000006"><a xlink:title=" ">
<path fill="none" stroke="#63b8ff" d="M89.5,-99.66C89.5,-90.93 89.5,-80.99 89.5,-74.09"/>
<polygon fill="#63b8ff" stroke="#63b8ff" points="86,-99.75 89.5,-109.75 93,-99.75 86,-99.75"/>
</a>
</g>
</g>
<!-- Node7 -->
<g id="Node000007" class="node">
<title>Node7</title>
<g id="a_Node000007"><a xlink:href="_f_s_iturbine_8_c.html" target="_top" xlink:title=" ">
<polygon fill="white" stroke="#666666" points="254,-19 179,-19 179,0 254,0 254,-19"/>
<text text-anchor="middle" x="216.5" y="-7" font-family="Helvetica,sans-Serif" font-size="10.00">FSIturbine.C</text>
</a>
</g>
</g>
<!-- Node6&#45;&gt;Node7 -->
<g id="edge6_Node000006_Node000007" class="edge">
<title>Node6&#45;&gt;Node7</title>
<g id="a_edge6_Node000006_Node000007"><a xlink:title=" ">
<path fill="none" stroke="#63b8ff" d="M119.38,-51.03C142.87,-41.23 174.97,-27.83 195.72,-19.17"/>
<polygon fill="#63b8ff" stroke="#63b8ff" points="117.79,-47.9 109.9,-54.98 120.48,-54.36 117.79,-47.9"/>
</a>
</g>
</g>
<!-- Node8&#45;&gt;Node1 -->
<g id="edge8_Node000008_Node000001" class="edge">
<title>Node8&#45;&gt;Node1</title>
<g id="a_edge8_Node000008_Node000001"><a xlink:title=" ">
<path fill="none" stroke="#63b8ff" d="M187.98,-249.13C188.6,-257.85 188.16,-267.8 186.67,-274.75"/>
<polygon fill="#63b8ff" stroke="#63b8ff" points="191.43,-248.53 186.63,-239.09 184.49,-249.47 191.43,-248.53"/>
</a>
</g>
</g>
<!-- Node9&#45;&gt;Node3 -->
<g id="edge15_Node000009_Node000003" class="edge">
<title>Node9&#45;&gt;Node3</title>
<g id="a_edge15_Node000009_Node000003"><a xlink:title=" ">
<path fill="none" stroke="#63b8ff" d="M243.77,-216.16C219.33,-206.35 185.76,-192.87 164.09,-184.17"/>
<polygon fill="#63b8ff" stroke="#63b8ff" points="242.71,-219.51 253.29,-219.98 245.32,-213.01 242.71,-219.51"/>
</a>
</g>
</g>
<!-- Node10 -->
<g id="Node000010" class="node">
<title>Node10</title>
<g id="a_Node000010"><a xlink:href="_f_s_iturbine_8h.html" target="_top" xlink:title=" ">
<polygon fill="white" stroke="#666666" points="311.5,-184 237.5,-184 237.5,-165 311.5,-165 311.5,-184"/>
<text text-anchor="middle" x="274.5" y="-172" font-family="Helvetica,sans-Serif" font-size="10.00">FSIturbine.h</text>
</a>
</g>
</g>
<!-- Node9&#45;&gt;Node10 -->
<g id="edge10_Node000009_Node000010" class="edge">
<title>Node9&#45;&gt;Node10</title>
<g id="a_edge10_Node000009_Node000010"><a xlink:title=" ">
<path fill="none" stroke="#63b8ff" d="M274.5,-209.66C274.5,-200.93 274.5,-190.99 274.5,-184.09"/>
<polygon fill="#63b8ff" stroke="#63b8ff" points="271,-209.75 274.5,-219.75 278,-209.75 271,-209.75"/>
</a>
</g>
</g>
<!-- Node10&#45;&gt;Node4 -->
<g id="edge12_Node000010_Node000004" class="edge">
<title>Node10&#45;&gt;Node4</title>
<g id="a_edge12_Node000010_Node000004"><a xlink:title=" ">
<path fill="none" stroke="#63b8ff" d="M251.97,-158.89C241.8,-151.17 230.52,-140.85 223.5,-129 213.14,-111.52 210.43,-87.23 209.73,-74.35"/>
<polygon fill="#63b8ff" stroke="#63b8ff" points="249.96,-161.75 260.13,-164.73 254.04,-156.06 249.96,-161.75"/>
</a>
</g>
</g>
<!-- Node10&#45;&gt;Node7 -->
<g id="edge11_Node000010_Node000007" class="edge">
<title>Node10&#45;&gt;Node7</title>
<g id="a_edge11_Node000010_Node000007"><a xlink:title=" ">
<path fill="none" stroke="#63b8ff" d="M298.82,-159.19C315.75,-147.21 333.91,-129.06 325.5,-110 306.37,-66.63 257.96,-33.98 232.59,-19.21"/>
<polygon fill="#63b8ff" stroke="#63b8ff" points="296.64,-156.43 290.22,-164.86 300.49,-162.27 296.64,-156.43"/>
</a>
</g>
</g>
<!-- Node11 -->
<g id="Node000011" class="node">
<title>Node11</title>
<g id="a_Node000011"><a xlink:href="_openfast_f_s_i_8h.html" target="_top" xlink:title=" ">
<polygon fill="white" stroke="#666666" points="316.5,-129 232.5,-129 232.5,-110 316.5,-110 316.5,-129"/>
<text text-anchor="middle" x="274.5" y="-117" font-family="Helvetica,sans-Serif" font-size="10.00">OpenfastFSI.h</text>
</a>
</g>
</g>
<!-- Node10&#45;&gt;Node11 -->
<g id="edge13_Node000010_Node000011" class="edge">
<title>Node10&#45;&gt;Node11</title>
<g id="a_edge13_Node000010_Node000011"><a xlink:title=" ">
<path fill="none" stroke="#63b8ff" d="M274.5,-154.66C274.5,-145.93 274.5,-135.99 274.5,-129.09"/>
<polygon fill="#63b8ff" stroke="#63b8ff" points="271,-154.75 274.5,-164.75 278,-154.75 271,-154.75"/>
</a>
</g>
</g>
<!-- Node11&#45;&gt;Node4 -->
<g id="edge14_Node000011_Node000004" class="edge">
<title>Node11&#45;&gt;Node4</title>
<g id="a_edge14_Node000011_Node000004"><a xlink:title=" ">
<path fill="none" stroke="#63b8ff" d="M256.23,-103.6C244.58,-94.11 229.9,-82.13 220.13,-74.17"/>
<polygon fill="#63b8ff" stroke="#63b8ff" points="254.09,-106.38 264.06,-109.98 258.52,-100.95 254.09,-106.38"/>
</a>
</g>
</g>
</g>
</svg>
</svg>

<style type='text/css'>
<![CDATA[
[data-mouse-over-selected='false'] { opacity: 0.7; }
[data-mouse-over-selected='true']  { opacity: 1.0; }
]]>
</style>
<script type="application/ecmascript"><![CDATA[
document.addEventListener('DOMContentLoaded', (event) => {
  highlightEdges();
  highlightAdjacentNodes();
});
]]></script>
</svg>
