<?xml version="1.0" encoding="UTF-8" standalone="no"?>
<!DOCTYPE svg PUBLIC "-//W3C//DTD SVG 1.1//EN"
 "http://www.w3.org/Graphics/SVG/1.1/DTD/svg11.dtd">
<!-- Generated by graphviz version 2.43.0 (0)
 -->
<!-- Title: vector.h Pages: 1 -->
<!--zoomable 357 -->

<svg id="main" version="1.1" xmlns="http://www.w3.org/2000/svg" xmlns:xlink="http://www.w3.org/1999/xlink" xml:space="preserve" onload="init(evt)">
<style type="text/css"><![CDATA[
.node, .edge {opacity: 0.7;}
.node.selected, .edge.selected {opacity: 1;}
.edge:hover path { stroke: red; }
.edge:hover polygon { stroke: red; fill: red; }
]]></style>

<defs>
  <circle id="rim" cx="0" cy="0" r="7"/>
  <circle id="rim2" cx="0" cy="0" r="3.5"/>
  <g id="zoomPlus">
    <use xlink:href="#rim" fill="#404040"><set attributeName="fill" to="#808080" begin="zoomplus.mouseover" end="zoomplus.mouseout"/></use>
    <path d="M-4,0h8M0,-4v8" fill="none" stroke="white" stroke-width="1.5" pointer-events="none"/>
  </g>
  <g id="zoomMin">
    <use xlink:href="#rim" fill="#404040"><set attributeName="fill" to="#808080" begin="zoomminus.mouseover" end="zoomminus.mouseout"/></use>
    <path d="M-4,0h8" fill="none" stroke="white" stroke-width="1.5" pointer-events="none"/>
  </g>
  <g id="arrowUp" transform="translate(30 24)">
    <use xlink:href="#rim"/>
    <path pointer-events="none" fill="none" stroke="white" stroke-width="1.5" d="M0,-3.0v7 M-2.5,-0.5L0,-3.0L2.5,-0.5"/>
  </g>
  <g id="arrowRight" transform="rotate(90) translate(36 -43)">
    <use xlink:href="#rim"/>
    <path pointer-events="none" fill="none" stroke="white" stroke-width="1.5" d="M0,-3.0v7 M-2.5,-0.5L0,-3.0L2.5,-0.5"/>
  </g>
  <g id="arrowDown" transform="rotate(180) translate(-30 -48)">
    <use xlink:href="#rim"/>
    <path pointer-events="none" fill="none" stroke="white" stroke-width="1.5" d="M0,-3.0v7 M-2.5,-0.5L0,-3.0L2.5,-0.5"/>
  </g>
  <g id="arrowLeft" transform="rotate(270) translate(-36 17)">
    <use xlink:href="#rim"/>
    <path pointer-events="none" fill="none" stroke="white" stroke-width="1.5" d="M0,-3.0v7 M-2.5,-0.5L0,-3.0L2.5,-0.5"/>
  </g>
  <g id="resetDef">
    <use xlink:href="#rim2" fill="#404040"><set attributeName="fill" to="#808080" begin="reset.mouseover" end="reset.mouseout"/></use>
  </g>
</defs>
<script type="application/ecmascript">
var viewWidth = 741;
var viewHeight = 357;
var sectionId = 'dynsection-1';
</script>
<script type="application/ecmascript" xlink:href="svg.min.js"/>
<svg id="graph" class="graph">
<g id="viewport">
<title>vector.h</title>
<!-- Node1 -->
<g id="Node000001" class="node">
<title>Node1</title>
<g id="a_Node000001"><a xlink:title=" ">
<polygon fill="#999999" stroke="#666666" points="482.5,-349 426.5,-349 426.5,-330 482.5,-330 482.5,-349"/>
<text text-anchor="middle" x="454.5" y="-337" font-family="Helvetica,sans-Serif" font-size="10.00">vector.h</text>
</a>
</g>
</g>
<!-- Node2 -->
<g id="Node000002" class="node">
<title>Node2</title>
<g id="a_Node000002"><a xlink:href="_f_s_iturbine_8h.html" target="_top" xlink:title=" ">
<polygon fill="white" stroke="#666666" points="592.5,-184 518.5,-184 518.5,-165 592.5,-165 592.5,-184"/>
<text text-anchor="middle" x="555.5" y="-172" font-family="Helvetica,sans-Serif" font-size="10.00">FSIturbine.h</text>
</a>
</g>
</g>
<!-- Node1&#45;&gt;Node2 -->
<g id="edge1_Node000001_Node000002" class="edge">
<title>Node1&#45;&gt;Node2</title>
<g id="a_edge1_Node000001_Node000002"><a xlink:title=" ">
<path fill="none" stroke="#63b8ff" d="M492.45,-327.51C510.86,-320.51 532.06,-309.73 546.5,-294 569.62,-268.81 571.99,-253.89 567.5,-220 565.82,-207.31 561.55,-193.1 558.59,-184.23"/>
<polygon fill="#63b8ff" stroke="#63b8ff" points="491.1,-324.28 482.85,-330.93 493.44,-330.87 491.1,-324.28"/>
</a>
</g>
</g>
<!-- Node6 -->
<g id="Node000006" class="node">
<title>Node6</title>
<g id="a_Node000006"><a xlink:href="_lidar_patterns_8_c.html" target="_top" xlink:title=" ">
<polygon fill="white" stroke="#666666" points="203.5,-239 113.5,-239 113.5,-220 203.5,-220 203.5,-239"/>
<text text-anchor="middle" x="158.5" y="-227" font-family="Helvetica,sans-Serif" font-size="10.00">LidarPatterns.C</text>
</a>
</g>
</g>
<!-- Node1&#45;&gt;Node6 -->
<g id="edge6_Node000001_Node000006" class="edge">
<title>Node1&#45;&gt;Node6</title>
<g id="a_edge6_Node000001_Node000006"><a xlink:title=" ">
<path fill="none" stroke="#63b8ff" d="M416.16,-338.53C367.14,-337.02 281.03,-329.03 217.5,-294 192.99,-280.49 172.95,-253.09 163.82,-239.12"/>
<polygon fill="#63b8ff" stroke="#63b8ff" points="416.25,-342.04 426.33,-338.77 416.41,-335.04 416.25,-342.04"/>
</a>
</g>
</g>
<!-- Node7 -->
<g id="Node000007" class="node">
<title>Node7</title>
<g id="a_Node000007"><a xlink:href="_lidar_patterns_8h.html" target="_top" xlink:title=" ">
<polygon fill="white" stroke="#666666" points="165,-294 76,-294 76,-275 165,-275 165,-294"/>
<text text-anchor="middle" x="120.5" y="-282" font-family="Helvetica,sans-Serif" font-size="10.00">LidarPatterns.h</text>
</a>
</g>
</g>
<!-- Node1&#45;&gt;Node7 -->
<g id="edge7_Node000001_Node000007" class="edge">
<title>Node1&#45;&gt;Node7</title>
<g id="a_edge7_Node000001_Node000007"><a xlink:title=" ">
<path fill="none" stroke="#63b8ff" d="M416.14,-332.41C353.9,-322.54 231.23,-303.07 165.16,-292.59"/>
<polygon fill="#63b8ff" stroke="#63b8ff" points="415.89,-335.92 426.31,-334.03 416.98,-329 415.89,-335.92"/>
</a>
</g>
</g>
<!-- Node8 -->
<g id="Node000008" class="node">
<title>Node8</title>
<g id="a_Node000008"><a xlink:href="_synthetic_lidar_8h.html" target="_top" xlink:title=" ">
<polygon fill="white" stroke="#666666" points="95,-239 0,-239 0,-220 95,-220 95,-239"/>
<text text-anchor="middle" x="47.5" y="-227" font-family="Helvetica,sans-Serif" font-size="10.00">SyntheticLidar.h</text>
</a>
</g>
</g>
<!-- Node1&#45;&gt;Node8 -->
<g id="edge15_Node000001_Node000008" class="edge">
<title>Node1&#45;&gt;Node8</title>
<g id="a_edge15_Node000001_Node000008"><a xlink:title=" ">
<path fill="none" stroke="#63b8ff" d="M416.16,-339.27C328.87,-340.24 118.84,-337.82 66.5,-294 50.09,-280.26 47.5,-252.96 47.3,-239.06"/>
<polygon fill="#63b8ff" stroke="#63b8ff" points="416.47,-342.77 426.42,-339.14 416.38,-335.77 416.47,-342.77"/>
</a>
</g>
</g>
<!-- Node10 -->
<g id="Node000010" class="node">
<title>Node10</title>
<g id="a_Node000010"><a xlink:href="_synthetic_lidar_8_c.html" target="_top" xlink:title=" ">
<polygon fill="white" stroke="#666666" points="241,-184 146,-184 146,-165 241,-165 241,-184"/>
<text text-anchor="middle" x="193.5" y="-172" font-family="Helvetica,sans-Serif" font-size="10.00">SyntheticLidar.C</text>
</a>
</g>
</g>
<!-- Node1&#45;&gt;Node10 -->
<g id="edge14_Node000001_Node000010" class="edge">
<title>Node1&#45;&gt;Node10</title>
<g id="a_edge14_Node000001_Node000010"><a xlink:title=" ">
<path fill="none" stroke="#63b8ff" d="M416.24,-339.16C372.98,-337.98 302.47,-330.03 255.5,-294 245.74,-286.51 209.62,-210.16 197.5,-184.13"/>
<polygon fill="#63b8ff" stroke="#63b8ff" points="416.3,-342.66 426.36,-339.32 416.42,-335.66 416.3,-342.66"/>
</a>
</g>
</g>
<!-- Node11 -->
<g id="Node000011" class="node">
<title>Node11</title>
<g id="a_Node000011"><a xlink:href="_pt2_line_8h.html" target="_top" xlink:title=" ">
<polygon fill="white" stroke="#666666" points="683.5,-129 621.5,-129 621.5,-110 683.5,-110 683.5,-129"/>
<text text-anchor="middle" x="652.5" y="-117" font-family="Helvetica,sans-Serif" font-size="10.00">Pt2Line.h</text>
</a>
</g>
</g>
<!-- Node1&#45;&gt;Node11 -->
<g id="edge12_Node000001_Node000011" class="edge">
<title>Node1&#45;&gt;Node11</title>
<g id="a_edge12_Node000001_Node000011"><a xlink:title=" ">
<path fill="none" stroke="#63b8ff" d="M492.48,-330.97C516.41,-324.58 546.62,-313.27 567.5,-294 620.25,-245.32 644.21,-156.79 650.65,-129.05"/>
<polygon fill="#63b8ff" stroke="#63b8ff" points="491.51,-327.61 482.66,-333.42 493.21,-334.4 491.51,-327.61"/>
</a>
</g>
</g>
<!-- Node12 -->
<g id="Node000012" class="node">
<title>Node12</title>
<g id="a_Node000012"><a xlink:href="_wiener_milenkovic_8h.html" target="_top" xlink:title=" ">
<polygon fill="white" stroke="#666666" points="480,-184 367,-184 367,-165 480,-165 480,-184"/>
<text text-anchor="middle" x="423.5" y="-172" font-family="Helvetica,sans-Serif" font-size="10.00">WienerMilenkovic.h</text>
</a>
</g>
</g>
<!-- Node1&#45;&gt;Node12 -->
<g id="edge16_Node000001_Node000012" class="edge">
<title>Node1&#45;&gt;Node12</title>
<g id="a_edge16_Node000001_Node000012"><a xlink:title=" ">
<path fill="none" stroke="#63b8ff" d="M480.03,-324.89C517.13,-303.31 578.6,-259.62 550.5,-220 534.48,-197.42 506.08,-186.21 480.2,-180.68"/>
<polygon fill="#63b8ff" stroke="#63b8ff" points="478.18,-321.92 471.19,-329.88 481.62,-328.01 478.18,-321.92"/>
</a>
</g>
</g>
<!-- Node13 -->
<g id="Node000013" class="node">
<title>Node13</title>
<g id="a_Node000013"><a xlink:href="displacements_8h.html" target="_top" xlink:title=" ">
<polygon fill="white" stroke="#666666" points="387,-129 290,-129 290,-110 387,-110 387,-129"/>
<text text-anchor="middle" x="338.5" y="-117" font-family="Helvetica,sans-Serif" font-size="10.00">displacements.h</text>
</a>
</g>
</g>
<!-- Node1&#45;&gt;Node13 -->
<g id="edge21_Node000001_Node000013" class="edge">
<title>Node1&#45;&gt;Node13</title>
<g id="a_edge21_Node000001_Node000013"><a xlink:title=" ">
<path fill="none" stroke="#63b8ff" d="M416.88,-328.8C376.13,-315.97 313.6,-288.92 288.5,-239 268.34,-198.9 310.66,-148.72 329.78,-129.01"/>
<polygon fill="#63b8ff" stroke="#63b8ff" points="415.89,-332.16 426.48,-331.69 417.91,-325.45 415.89,-332.16"/>
</a>
</g>
</g>
<!-- Node15 -->
<g id="Node000015" class="node">
<title>Node15</title>
<g id="a_Node000015"><a xlink:href="tensor_8h.html" target="_top" xlink:title=" ">
<polygon fill="white" stroke="#666666" points="427.5,-294 371.5,-294 371.5,-275 427.5,-275 427.5,-294"/>
<text text-anchor="middle" x="399.5" y="-282" font-family="Helvetica,sans-Serif" font-size="10.00">tensor.h</text>
</a>
</g>
</g>
<!-- Node1&#45;&gt;Node15 -->
<g id="edge22_Node000001_Node000015" class="edge">
<title>Node1&#45;&gt;Node15</title>
<g id="a_edge22_Node000001_Node000015"><a xlink:title=" ">
<path fill="none" stroke="#63b8ff" d="M438.21,-322.8C428.46,-313.41 416.45,-301.83 408.41,-294.09"/>
<polygon fill="#63b8ff" stroke="#63b8ff" points="435.79,-325.33 445.42,-329.75 440.65,-320.29 435.79,-325.33"/>
</a>
</g>
</g>
<!-- Node17 -->
<g id="Node000017" class="node">
<title>Node17</title>
<g id="a_Node000017"><a xlink:href="vector__space_8h.html" target="_top" xlink:title=" ">
<polygon fill="white" stroke="#666666" points="541.5,-239 451.5,-239 451.5,-220 541.5,-220 541.5,-239"/>
<text text-anchor="middle" x="496.5" y="-227" font-family="Helvetica,sans-Serif" font-size="10.00">vector_space.h</text>
</a>
</g>
</g>
<!-- Node1&#45;&gt;Node17 -->
<g id="edge32_Node000001_Node000017" class="edge">
<title>Node1&#45;&gt;Node17</title>
<g id="a_edge32_Node000001_Node000017"><a xlink:title=" ">
<path fill="none" stroke="#63b8ff" d="M461.65,-320.12C470.81,-296.56 486.33,-256.66 493.13,-239.16"/>
<polygon fill="#63b8ff" stroke="#63b8ff" points="458.3,-319.07 457.94,-329.66 464.82,-321.61 458.3,-319.07"/>
</a>
</g>
</g>
<!-- Node18 -->
<g id="Node000018" class="node">
<title>Node18</title>
<g id="a_Node000018"><a xlink:href="vector_i_8h.html" target="_top" xlink:title=" ">
<polygon fill="white" stroke="#666666" points="733,-294 674,-294 674,-275 733,-275 733,-294"/>
<text text-anchor="middle" x="703.5" y="-282" font-family="Helvetica,sans-Serif" font-size="10.00">vectorI.h</text>
</a>
</g>
</g>
<!-- Node1&#45;&gt;Node18 -->
<g id="edge30_Node000001_Node000018" class="edge">
<title>Node1&#45;&gt;Node18</title>
<g id="a_edge30_Node000001_Node000018"><a xlink:title=" ">
<path fill="none" stroke="#63b8ff" d="M492.58,-329.27C542.47,-318.17 628.65,-299.9 673.95,-290.88"/>
<polygon fill="#63b8ff" stroke="#63b8ff" points="491.8,-325.86 482.81,-331.46 493.33,-332.69 491.8,-325.86"/>
</a>
</g>
</g>
<!-- Node3 -->
<g id="Node000003" class="node">
<title>Node3</title>
<g id="a_Node000003"><a xlink:href="_f_s_iturbine_8_c.html" target="_top" xlink:title=" ">
<polygon fill="white" stroke="#666666" points="631,-19 556,-19 556,0 631,0 631,-19"/>
<text text-anchor="middle" x="593.5" y="-7" font-family="Helvetica,sans-Serif" font-size="10.00">FSIturbine.C</text>
</a>
</g>
</g>
<!-- Node2&#45;&gt;Node3 -->
<g id="edge2_Node000002_Node000003" class="edge">
<title>Node2&#45;&gt;Node3</title>
<g id="a_edge2_Node000002_Node000003"><a xlink:title=" ">
<path fill="none" stroke="#63b8ff" d="M559.85,-154.83C568.05,-119.67 585.48,-44.9 591.45,-19.31"/>
<polygon fill="#63b8ff" stroke="#63b8ff" points="556.4,-154.2 557.54,-164.74 563.22,-155.79 556.4,-154.2"/>
</a>
</g>
</g>
<!-- Node4 -->
<g id="Node000004" class="node">
<title>Node4</title>
<g id="a_Node000004"><a xlink:href="_openfast_f_s_i_8_c.html" target="_top" xlink:title=" ">
<polygon fill="white" stroke="#666666" points="528,-74 443,-74 443,-55 528,-55 528,-74"/>
<text text-anchor="middle" x="485.5" y="-62" font-family="Helvetica,sans-Serif" font-size="10.00">OpenfastFSI.C</text>
</a>
</g>
</g>
<!-- Node2&#45;&gt;Node4 -->
<g id="edge3_Node000002_Node000004" class="edge">
<title>Node2&#45;&gt;Node4</title>
<g id="a_edge3_Node000002_Node000004"><a xlink:title=" ">
<path fill="none" stroke="#63b8ff" d="M552.74,-154.72C550.13,-141.42 545.26,-123.61 536.5,-110 526.83,-94.98 510.66,-82.11 499.12,-74.13"/>
<polygon fill="#63b8ff" stroke="#63b8ff" points="549.3,-155.37 554.44,-164.64 556.2,-154.19 549.3,-155.37"/>
</a>
</g>
</g>
<!-- Node5 -->
<g id="Node000005" class="node">
<title>Node5</title>
<g id="a_Node000005"><a xlink:href="_openfast_f_s_i_8h.html" target="_top" xlink:title=" ">
<polygon fill="white" stroke="#666666" points="527.5,-129 443.5,-129 443.5,-110 527.5,-110 527.5,-129"/>
<text text-anchor="middle" x="485.5" y="-117" font-family="Helvetica,sans-Serif" font-size="10.00">OpenfastFSI.h</text>
</a>
</g>
</g>
<!-- Node2&#45;&gt;Node5 -->
<g id="edge4_Node000002_Node000005" class="edge">
<title>Node2&#45;&gt;Node5</title>
<g id="a_edge4_Node000002_Node000005"><a xlink:title=" ">
<path fill="none" stroke="#63b8ff" d="M536.19,-158.88C523.59,-149.34 507.57,-137.21 496.95,-129.17"/>
<polygon fill="#63b8ff" stroke="#63b8ff" points="534.17,-161.74 544.25,-164.98 538.39,-156.16 534.17,-161.74"/>
</a>
</g>
</g>
<!-- Node5&#45;&gt;Node4 -->
<g id="edge5_Node000005_Node000004" class="edge">
<title>Node5&#45;&gt;Node4</title>
<g id="a_edge5_Node000005_Node000004"><a xlink:title=" ">
<path fill="none" stroke="#63b8ff" d="M485.5,-99.66C485.5,-90.93 485.5,-80.99 485.5,-74.09"/>
<polygon fill="#63b8ff" stroke="#63b8ff" points="482,-99.75 485.5,-109.75 489,-99.75 482,-99.75"/>
</a>
</g>
</g>
<!-- Node7&#45;&gt;Node6 -->
<g id="edge8_Node000007_Node000006" class="edge">
<title>Node7&#45;&gt;Node6</title>
<g id="a_edge8_Node000007_Node000006"><a xlink:title=" ">
<path fill="none" stroke="#63b8ff" d="M132.77,-266.39C139.31,-257.27 147.07,-246.45 152.34,-239.09"/>
<polygon fill="#63b8ff" stroke="#63b8ff" points="129.76,-264.58 126.77,-274.75 135.45,-268.66 129.76,-264.58"/>
</a>
</g>
</g>
<!-- Node7&#45;&gt;Node8 -->
<g id="edge9_Node000007_Node000008" class="edge">
<title>Node7&#45;&gt;Node8</title>
<g id="a_edge9_Node000007_Node000008"><a xlink:title=" ">
<path fill="none" stroke="#63b8ff" d="M100.36,-268.88C87.22,-259.34 70.52,-247.21 59.44,-239.17"/>
<polygon fill="#63b8ff" stroke="#63b8ff" points="98.62,-271.94 108.77,-274.98 102.74,-266.28 98.62,-271.94"/>
</a>
</g>
</g>
<!-- Node9 -->
<g id="Node000009" class="node">
<title>Node9</title>
<g id="a_Node000009"><a xlink:href="_realm_8_c.html" target="_top" xlink:title=" ">
<polygon fill="white" stroke="#666666" points="76.5,-184 18.5,-184 18.5,-165 76.5,-165 76.5,-184"/>
<text text-anchor="middle" x="47.5" y="-172" font-family="Helvetica,sans-Serif" font-size="10.00">Realm.C</text>
</a>
</g>
</g>
<!-- Node8&#45;&gt;Node9 -->
<g id="edge10_Node000008_Node000009" class="edge">
<title>Node8&#45;&gt;Node9</title>
<g id="a_edge10_Node000008_Node000009"><a xlink:title=" ">
<path fill="none" stroke="#63b8ff" d="M47.5,-209.66C47.5,-200.93 47.5,-190.99 47.5,-184.09"/>
<polygon fill="#63b8ff" stroke="#63b8ff" points="44,-209.75 47.5,-219.75 51,-209.75 44,-209.75"/>
</a>
</g>
</g>
<!-- Node8&#45;&gt;Node10 -->
<g id="edge11_Node000008_Node000010" class="edge">
<title>Node8&#45;&gt;Node10</title>
<g id="a_edge11_Node000008_Node000010"><a xlink:title=" ">
<path fill="none" stroke="#63b8ff" d="M80.42,-216.55C107.53,-206.71 145.33,-192.98 169.62,-184.17"/>
<polygon fill="#63b8ff" stroke="#63b8ff" points="79.16,-213.28 70.96,-219.98 81.55,-219.86 79.16,-213.28"/>
</a>
</g>
</g>
<!-- Node11&#45;&gt;Node3 -->
<g id="edge13_Node000011_Node000003" class="edge">
<title>Node11&#45;&gt;Node3</title>
<g id="a_edge13_Node000011_Node000003"><a xlink:title=" ">
<path fill="none" stroke="#63b8ff" d="M642.81,-100.76C629.98,-77.28 607.87,-36.81 598.23,-19.16"/>
<polygon fill="#63b8ff" stroke="#63b8ff" points="639.81,-102.56 647.67,-109.66 645.95,-99.21 639.81,-102.56"/>
</a>
</g>
</g>
<!-- Node12&#45;&gt;Node4 -->
<g id="edge17_Node000012_Node000004" class="edge">
<title>Node12&#45;&gt;Node4</title>
<g id="a_edge17_Node000012_Node000004"><a xlink:title=" ">
<path fill="none" stroke="#63b8ff" d="M423.51,-154.39C424.28,-141.17 426.86,-123.58 434.5,-110 443.14,-94.64 459.17,-82 470.95,-74.17"/>
<polygon fill="#63b8ff" stroke="#63b8ff" points="420,-154.58 423.22,-164.67 427,-154.78 420,-154.58"/>
</a>
</g>
</g>
<!-- Node12&#45;&gt;Node13 -->
<g id="edge18_Node000012_Node000013" class="edge">
<title>Node12&#45;&gt;Node13</title>
<g id="a_edge18_Node000012_Node000013"><a xlink:title=" ">
<path fill="none" stroke="#63b8ff" d="M400.93,-159.42C385.5,-149.81 365.55,-137.37 352.41,-129.17"/>
<polygon fill="#63b8ff" stroke="#63b8ff" points="399.51,-162.66 409.84,-164.98 403.21,-156.72 399.51,-162.66"/>
</a>
</g>
</g>
<!-- Node14 -->
<g id="Node000014" class="node">
<title>Node14</title>
<g id="a_Node000014"><a xlink:href="_deflection_ramping_8h.html" target="_top" xlink:title=" ">
<polygon fill="white" stroke="#666666" points="412,-74 293,-74 293,-55 412,-55 412,-74"/>
<text text-anchor="middle" x="352.5" y="-62" font-family="Helvetica,sans-Serif" font-size="10.00">DeflectionRamping.h</text>
</a>
</g>
</g>
<!-- Node13&#45;&gt;Node14 -->
<g id="edge19_Node000013_Node000014" class="edge">
<title>Node13&#45;&gt;Node14</title>
<g id="a_edge19_Node000013_Node000014"><a xlink:title=" ">
<path fill="none" stroke="#63b8ff" d="M343.4,-99.95C345.72,-91.15 348.39,-81.06 350.23,-74.09"/>
<polygon fill="#63b8ff" stroke="#63b8ff" points="339.98,-99.19 340.81,-109.75 346.75,-100.97 339.98,-99.19"/>
</a>
</g>
</g>
<!-- Node14&#45;&gt;Node3 -->
<g id="edge20_Node000014_Node000003" class="edge">
<title>Node14&#45;&gt;Node3</title>
<g id="a_edge20_Node000014_Node000003"><a xlink:title=" ">
<path fill="none" stroke="#63b8ff" d="M401.17,-52.8C446.77,-42.77 513.97,-27.99 555.67,-18.82"/>
<polygon fill="#63b8ff" stroke="#63b8ff" points="400.24,-49.42 391.22,-54.98 401.74,-56.26 400.24,-49.42"/>
</a>
</g>
</g>
<!-- Node15&#45;&gt;Node10 -->
<g id="edge23_Node000015_Node000010" class="edge">
<title>Node15&#45;&gt;Node10</title>
<g id="a_edge23_Node000015_Node000010"><a xlink:title=" ">
<path fill="none" stroke="#63b8ff" d="M394.08,-264.84C388.97,-250.51 379.92,-231.33 365.5,-220 329.85,-191.98 278.43,-181.47 241.11,-177.59"/>
<polygon fill="#63b8ff" stroke="#63b8ff" points="390.84,-266.19 397.24,-274.63 397.5,-264.04 390.84,-266.19"/>
</a>
</g>
</g>
<!-- Node15&#45;&gt;Node12 -->
<g id="edge24_Node000015_Node000012" class="edge">
<title>Node15&#45;&gt;Node12</title>
<g id="a_edge24_Node000015_Node000012"><a xlink:title=" ">
<path fill="none" stroke="#63b8ff" d="M403.65,-264.8C408.9,-241.2 417.71,-201.58 421.58,-184.16"/>
<polygon fill="#63b8ff" stroke="#63b8ff" points="400.22,-264.14 401.46,-274.66 407.05,-265.66 400.22,-264.14"/>
</a>
</g>
</g>
<!-- Node16 -->
<g id="Node000016" class="node">
<title>Node16</title>
<g id="a_Node000016"><a xlink:href="tensor_i_8h.html" target="_top" xlink:title=" ">
<polygon fill="white" stroke="#666666" points="357,-239 298,-239 298,-220 357,-220 357,-239"/>
<text text-anchor="middle" x="327.5" y="-227" font-family="Helvetica,sans-Serif" font-size="10.00">tensorI.h</text>
</a>
</g>
</g>
<!-- Node15&#45;&gt;Node16 -->
<g id="edge25_Node000015_Node000016" class="edge">
<title>Node15&#45;&gt;Node16</title>
<g id="a_edge25_Node000015_Node000016"><a xlink:title=" ">
<path fill="none" stroke="#63b8ff" d="M374.34,-269.42C360.09,-259.81 343.49,-247.37 334.13,-239.17"/>
<polygon fill="#63b8ff" stroke="#63b8ff" points="372.54,-272.43 382.82,-274.98 376.37,-266.57 372.54,-272.43"/>
</a>
</g>
</g>
<!-- Node15&#45;&gt;Node17 -->
<g id="edge27_Node000015_Node000017" class="edge">
<title>Node15&#45;&gt;Node17</title>
<g id="a_edge27_Node000015_Node000017"><a xlink:title=" ">
<path fill="none" stroke="#63b8ff" d="M424.27,-269.97C442,-260.28 465.35,-247.52 480.63,-239.17"/>
<polygon fill="#63b8ff" stroke="#63b8ff" points="422.18,-267.12 415.08,-274.98 425.54,-273.26 422.18,-267.12"/>
</a>
</g>
</g>
<!-- Node16&#45;&gt;Node15 -->
<g id="edge26_Node000016_Node000015" class="edge">
<title>Node16&#45;&gt;Node15</title>
<g id="a_edge26_Node000016_Node000015"><a xlink:title=" ">
<path fill="none" stroke="#63b8ff" d="M352.93,-244.76C367.21,-254.41 383.78,-266.84 393.05,-274.98"/>
<polygon fill="#63b8ff" stroke="#63b8ff" points="354.71,-241.74 344.43,-239.17 350.86,-247.59 354.71,-241.74"/>
</a>
</g>
</g>
<!-- Node17&#45;&gt;Node2 -->
<g id="edge28_Node000017_Node000002" class="edge">
<title>Node17&#45;&gt;Node2</title>
<g id="a_edge28_Node000017_Node000002"><a xlink:title=" ">
<path fill="none" stroke="#63b8ff" d="M513.7,-213.04C524.17,-203.64 537.15,-191.98 545.85,-184.17"/>
<polygon fill="#63b8ff" stroke="#63b8ff" points="511.08,-210.7 505.98,-219.98 515.76,-215.91 511.08,-210.7"/>
</a>
</g>
</g>
<!-- Node17&#45;&gt;Node12 -->
<g id="edge29_Node000017_Node000012" class="edge">
<title>Node17&#45;&gt;Node12</title>
<g id="a_edge29_Node000017_Node000012"><a xlink:title=" ">
<path fill="none" stroke="#63b8ff" d="M476.36,-213.88C463.22,-204.34 446.52,-192.21 435.44,-184.17"/>
<polygon fill="#63b8ff" stroke="#63b8ff" points="474.62,-216.94 484.77,-219.98 478.74,-211.28 474.62,-216.94"/>
</a>
</g>
</g>
<!-- Node18&#45;&gt;Node1 -->
<g id="edge31_Node000018_Node000001" class="edge">
<title>Node18&#45;&gt;Node1</title>
<g id="a_edge31_Node000018_Node000001"><a xlink:title=" ">
<path fill="none" stroke="#63b8ff" d="M663.95,-295.05C613.28,-306.31 526.99,-324.6 482.55,-333.42"/>
<polygon fill="#63b8ff" stroke="#63b8ff" points="664.89,-298.43 673.89,-292.83 663.36,-291.6 664.89,-298.43"/>
</a>
</g>
</g>
</g>
</svg>

<g id="navigator" transform="translate(0 0)" fill="#404254">
  <rect fill="#f2f5e9" fill-opacity="0.5" stroke="#606060" stroke-width=".5" x="0" y="0" width="60" height="60"/>
  <use id="zoomplus" xlink:href="#zoomPlus" x="17" y="9" onmousedown="handleZoom(evt,'in')"/>
  <use id="zoomminus" xlink:href="#zoomMin" x="42" y="9" onmousedown="handleZoom(evt,'out')"/>
  <use id="reset" xlink:href="#resetDef" x="30" y="36" onmousedown="handleReset()"/>
   <use id="arrowup" xlink:href="#arrowUp" x="0" y="0" onmousedown="handlePan(0,-1)"/>
  <use id="arrowright" xlink:href="#arrowRight" x="0" y="0" onmousedown="handlePan(1,0)"/>
  <use id="arrowdown" xlink:href="#arrowDown" x="0" y="0" onmousedown="handlePan(0,1)"/>
  <use id="arrowleft" xlink:href="#arrowLeft" x="0" y="0" onmousedown="handlePan(-1,0)"/>
</g>
<svg viewBox="0 0 15 15" width="100%" height="30px" preserveAspectRatio="xMaxYMin meet">
 <g id="arrow_out" transform="scale(0.3 0.3)">
  <a xlink:href="vector_8h__dep__incl_org.svg" target="_base">
   <rect id="button" ry="5" rx="5" y="6" x="6" height="38" width="38"
        fill="#f2f5e9" fill-opacity="0.5" stroke="#606060" stroke-width="1.0"/>
   <path id="arrow"
     d="M 11.500037,31.436501 C 11.940474,20.09759 22.043105,11.32322 32.158766,21.979434 L 37.068811,17.246167 C 37.068811,17.246167 37.088388,32 37.088388,32 L 22.160133,31.978069 C 22.160133,31.978069 26.997745,27.140456 26.997745,27.140456 C 18.528582,18.264221 13.291696,25.230495 11.500037,31.436501 z"
     style="fill:#404040;"/>
  </a>
 </g>
</svg>

<style type='text/css'>
<![CDATA[
[data-mouse-over-selected='false'] { opacity: 0.7; }
[data-mouse-over-selected='true']  { opacity: 1.0; }
]]>
</style>
<script type="application/ecmascript"><![CDATA[
document.addEventListener('DOMContentLoaded', (event) => {
  highlightEdges();
  highlightAdjacentNodes();
});
]]></script>
</svg>
