<?xml version="1.0" encoding="UTF-8" standalone="no"?>
<!DOCTYPE svg PUBLIC "-//W3C//DTD SVG 1.1//EN"
 "http://www.w3.org/Graphics/SVG/1.1/DTD/svg11.dtd">
<!-- Generated by graphviz version 2.43.0 (0)
 -->
<!-- Title: vector.h Pages: 1 -->
<svg width="450pt" height="140pt"
 viewBox="0.00 0.00 449.50 140.00" xmlns="http://www.w3.org/2000/svg" xmlns:xlink="http://www.w3.org/1999/xlink">
<g id="graph0" class="graph" transform="scale(1 1) rotate(0) translate(4 136)">
<title>vector.h</title>
<polygon fill="white" stroke="transparent" points="-4,4 -4,-136 445.5,-136 445.5,4 -4,4"/>
<!-- Node1 -->
<g id="node1" class="node">
<title>Node1</title>
<g id="a_node1"><a xlink:title=" ">
<polygon fill="#bfbfbf" stroke="black" points="176,-112.5 176,-131.5 232,-131.5 232,-112.5 176,-112.5"/>
<text text-anchor="middle" x="204" y="-119.5" font-family="Helvetica,sans-Serif" font-size="10.00">vector.h</text>
</a>
</g>
</g>
<!-- Node2 -->
<g id="node2" class="node">
<title>Node2</title>
<g id="a_node2"><a xlink:title=" ">
<polygon fill="white" stroke="#bfbfbf" points="0,-56.5 0,-75.5 100,-75.5 100,-56.5 0,-56.5"/>
<text text-anchor="middle" x="50" y="-63.5" font-family="Helvetica,sans-Serif" font-size="10.00">Kokkos_Core.hpp</text>
</a>
</g>
</g>
<!-- Node1&#45;&gt;Node2 -->
<g id="edge1" class="edge">
<title>Node1&#45;&gt;Node2</title>
<path fill="none" stroke="midnightblue" d="M179.6,-112.44C153.8,-103.4 112.92,-89.06 83.98,-78.92"/>
<polygon fill="midnightblue" stroke="midnightblue" points="84.88,-75.52 74.29,-75.52 82.57,-82.13 84.88,-75.52"/>
</g>
<!-- Node3 -->
<g id="node3" class="node">
<title>Node3</title>
<g id="a_node3"><a xlink:href="vstraits_8h.html" target="_top" xlink:title=" ">
<polygon fill="white" stroke="black" points="118.5,-56.5 118.5,-75.5 195.5,-75.5 195.5,-56.5 118.5,-56.5"/>
<text text-anchor="middle" x="157" y="-63.5" font-family="Helvetica,sans-Serif" font-size="10.00">vs/vstraits.h</text>
</a>
</g>
</g>
<!-- Node1&#45;&gt;Node3 -->
<g id="edge2" class="edge">
<title>Node1&#45;&gt;Node3</title>
<path fill="none" stroke="midnightblue" d="M196.24,-112.08C189.46,-104.3 179.46,-92.8 171.24,-83.37"/>
<polygon fill="midnightblue" stroke="midnightblue" points="173.82,-81 164.62,-75.75 168.54,-85.59 173.82,-81"/>
</g>
<!-- Node5 -->
<g id="node5" class="node">
<title>Node5</title>
<g id="a_node5"><a xlink:href="vector_i_8h.html" target="_top" xlink:title=" ">
<polygon fill="white" stroke="black" points="214,-56.5 214,-75.5 288,-75.5 288,-56.5 214,-56.5"/>
<text text-anchor="middle" x="251" y="-63.5" font-family="Helvetica,sans-Serif" font-size="10.00">vs/vectorI.h</text>
</a>
</g>
</g>
<!-- Node1&#45;&gt;Node5 -->
<g id="edge4" class="edge">
<title>Node1&#45;&gt;Node5</title>
<path fill="none" stroke="midnightblue" d="M206.59,-112.08C211.83,-104.14 221.76,-92.34 231.05,-82.8"/>
<polygon fill="midnightblue" stroke="midnightblue" points="233.55,-85.24 238.25,-75.75 228.66,-80.24 233.55,-85.24"/>
</g>
<!-- Node4 -->
<g id="node4" class="node">
<title>Node4</title>
<g id="a_node4"><a xlink:title=" ">
<polygon fill="white" stroke="#bfbfbf" points="112,-0.5 112,-19.5 156,-19.5 156,-0.5 112,-0.5"/>
<text text-anchor="middle" x="134" y="-7.5" font-family="Helvetica,sans-Serif" font-size="10.00">limits</text>
</a>
</g>
</g>
<!-- Node3&#45;&gt;Node4 -->
<g id="edge3" class="edge">
<title>Node3&#45;&gt;Node4</title>
<path fill="none" stroke="midnightblue" d="M153.2,-56.08C150.09,-48.77 145.58,-38.18 141.71,-29.1"/>
<polygon fill="midnightblue" stroke="midnightblue" points="144.87,-27.58 137.73,-19.75 138.43,-30.32 144.87,-27.58"/>
</g>
<!-- Node5&#45;&gt;Node1 -->
<g id="edge8" class="edge">
<title>Node5&#45;&gt;Node1</title>
<path fill="none" stroke="midnightblue" d="M248.46,-75.83C243.23,-83.79 233.24,-95.67 223.9,-105.25"/>
<polygon fill="midnightblue" stroke="midnightblue" points="221.37,-102.83 216.67,-112.32 226.27,-107.84 221.37,-102.83"/>
</g>
<!-- Node6 -->
<g id="node6" class="node">
<title>Node6</title>
<g id="a_node6"><a xlink:title=" ">
<polygon fill="white" stroke="#bfbfbf" points="174.5,-0.5 174.5,-19.5 231.5,-19.5 231.5,-0.5 174.5,-0.5"/>
<text text-anchor="middle" x="203" y="-7.5" font-family="Helvetica,sans-Serif" font-size="10.00">ostream</text>
</a>
</g>
</g>
<!-- Node5&#45;&gt;Node6 -->
<g id="edge5" class="edge">
<title>Node5&#45;&gt;Node6</title>
<path fill="none" stroke="midnightblue" d="M243.07,-56.08C236.15,-48.3 225.93,-36.8 217.55,-27.37"/>
<polygon fill="midnightblue" stroke="midnightblue" points="220.04,-24.9 210.78,-19.75 214.81,-29.55 220.04,-24.9"/>
</g>
<!-- Node7 -->
<g id="node7" class="node">
<title>Node7</title>
<g id="a_node7"><a xlink:title=" ">
<polygon fill="white" stroke="#bfbfbf" points="249.5,-0.5 249.5,-19.5 296.5,-19.5 296.5,-0.5 249.5,-0.5"/>
<text text-anchor="middle" x="273" y="-7.5" font-family="Helvetica,sans-Serif" font-size="10.00">cmath</text>
</a>
</g>
</g>
<!-- Node5&#45;&gt;Node7 -->
<g id="edge6" class="edge">
<title>Node5&#45;&gt;Node7</title>
<path fill="none" stroke="midnightblue" d="M254.63,-56.08C257.61,-48.77 261.93,-38.18 265.62,-29.1"/>
<polygon fill="midnightblue" stroke="midnightblue" points="268.9,-30.33 269.43,-19.75 262.42,-27.69 268.9,-30.33"/>
</g>
<!-- Node8 -->
<g id="node8" class="node">
<title>Node8</title>
<g id="a_node8"><a xlink:title=" ">
<polygon fill="white" stroke="#bfbfbf" points="314.5,-0.5 314.5,-19.5 441.5,-19.5 441.5,-0.5 314.5,-0.5"/>
<text text-anchor="middle" x="378" y="-7.5" font-family="Helvetica,sans-Serif" font-size="10.00">stk_math/StkMath.hpp</text>
</a>
</g>
</g>
<!-- Node5&#45;&gt;Node8 -->
<g id="edge7" class="edge">
<title>Node5&#45;&gt;Node8</title>
<path fill="none" stroke="midnightblue" d="M271.12,-56.44C292.02,-47.56 324.93,-33.56 348.72,-23.45"/>
<polygon fill="midnightblue" stroke="midnightblue" points="350.14,-26.65 357.97,-19.52 347.4,-20.21 350.14,-26.65"/>
</g>
</g>
</svg>
