<?xml version="1.0" encoding="UTF-8" standalone="no"?>
<!DOCTYPE svg PUBLIC "-//W3C//DTD SVG 1.1//EN"
 "http://www.w3.org/Graphics/SVG/1.1/DTD/svg11.dtd">
<!-- Generated by graphviz version 2.43.0 (0)
 -->
<!-- Title: vector_space.h Pages: 1 -->
<svg width="303pt" height="252pt"
 viewBox="0.00 0.00 303.00 252.00" xmlns="http://www.w3.org/2000/svg" xmlns:xlink="http://www.w3.org/1999/xlink">
<g id="graph0" class="graph" transform="scale(1 1) rotate(0) translate(4 248)">
<title>vector_space.h</title>
<polygon fill="white" stroke="transparent" points="-4,4 -4,-248 299,-248 299,4 -4,4"/>
<!-- Node1 -->
<g id="node1" class="node">
<title>Node1</title>
<g id="a_node1"><a xlink:title=" ">
<polygon fill="#bfbfbf" stroke="black" points="93.5,-224.5 93.5,-243.5 183.5,-243.5 183.5,-224.5 93.5,-224.5"/>
<text text-anchor="middle" x="138.5" y="-231.5" font-family="Helvetica,sans-Serif" font-size="10.00">vector_space.h</text>
</a>
</g>
</g>
<!-- Node2 -->
<g id="node2" class="node">
<title>Node2</title>
<g id="a_node2"><a xlink:href="_wiener_milenkovic_8h.html" target="_top" xlink:title=" ">
<polygon fill="white" stroke="black" points="26,-168.5 26,-187.5 139,-187.5 139,-168.5 26,-168.5"/>
<text text-anchor="middle" x="82.5" y="-175.5" font-family="Helvetica,sans-Serif" font-size="10.00">WienerMilenkovic.h</text>
</a>
</g>
</g>
<!-- Node1&#45;&gt;Node2 -->
<g id="edge1" class="edge">
<title>Node1&#45;&gt;Node2</title>
<path fill="none" stroke="midnightblue" d="M122.17,-217.25C112.24,-207.67 99.91,-195.79 91.66,-187.83"/>
<polygon fill="midnightblue" stroke="midnightblue" points="119.87,-219.9 129.5,-224.32 124.73,-214.86 119.87,-219.9"/>
</g>
<!-- Node6 -->
<g id="node6" class="node">
<title>Node6</title>
<g id="a_node6"><a xlink:href="_f_s_iturbine_8h.html" target="_top" xlink:title=" ">
<polygon fill="white" stroke="black" points="166.5,-168.5 166.5,-187.5 240.5,-187.5 240.5,-168.5 166.5,-168.5"/>
<text text-anchor="middle" x="203.5" y="-175.5" font-family="Helvetica,sans-Serif" font-size="10.00">FSIturbine.h</text>
</a>
</g>
</g>
<!-- Node1&#45;&gt;Node6 -->
<g id="edge5" class="edge">
<title>Node1&#45;&gt;Node6</title>
<path fill="none" stroke="midnightblue" d="M156.77,-217.82C168.42,-208.15 183.1,-195.95 192.87,-187.83"/>
<polygon fill="midnightblue" stroke="midnightblue" points="154.4,-215.24 148.94,-224.32 158.87,-220.63 154.4,-215.24"/>
</g>
<!-- Node3 -->
<g id="node3" class="node">
<title>Node3</title>
<g id="a_node3"><a xlink:href="displacements_8h.html" target="_top" xlink:title=" ">
<polygon fill="white" stroke="black" points="17,-112.5 17,-131.5 114,-131.5 114,-112.5 17,-112.5"/>
<text text-anchor="middle" x="65.5" y="-119.5" font-family="Helvetica,sans-Serif" font-size="10.00">displacements.h</text>
</a>
</g>
</g>
<!-- Node2&#45;&gt;Node3 -->
<g id="edge2" class="edge">
<title>Node2&#45;&gt;Node3</title>
<path fill="none" stroke="midnightblue" d="M76.64,-158.4C73.8,-149.36 70.52,-138.94 68.25,-131.75"/>
<polygon fill="midnightblue" stroke="midnightblue" points="73.35,-159.6 79.69,-168.08 80.03,-157.49 73.35,-159.6"/>
</g>
<!-- Node4 -->
<g id="node4" class="node">
<title>Node4</title>
<g id="a_node4"><a xlink:href="_deflection_ramping_8h.html" target="_top" xlink:title=" ">
<polygon fill="white" stroke="black" points="0,-56.5 0,-75.5 119,-75.5 119,-56.5 0,-56.5"/>
<text text-anchor="middle" x="59.5" y="-63.5" font-family="Helvetica,sans-Serif" font-size="10.00">DeflectionRamping.h</text>
</a>
</g>
</g>
<!-- Node3&#45;&gt;Node4 -->
<g id="edge3" class="edge">
<title>Node3&#45;&gt;Node4</title>
<path fill="none" stroke="midnightblue" d="M63.4,-102.1C62.4,-93.14 61.26,-82.86 60.47,-75.75"/>
<polygon fill="midnightblue" stroke="midnightblue" points="59.93,-102.53 64.51,-112.08 66.88,-101.76 59.93,-102.53"/>
</g>
<!-- Node5 -->
<g id="node5" class="node">
<title>Node5</title>
<g id="a_node5"><a xlink:href="_f_s_iturbine_8_c.html" target="_top" xlink:title=" ">
<polygon fill="white" stroke="black" points="66,-0.5 66,-19.5 141,-19.5 141,-0.5 66,-0.5"/>
<text text-anchor="middle" x="103.5" y="-7.5" font-family="Helvetica,sans-Serif" font-size="10.00">FSIturbine.C</text>
</a>
</g>
</g>
<!-- Node4&#45;&gt;Node5 -->
<g id="edge4" class="edge">
<title>Node4&#45;&gt;Node5</title>
<path fill="none" stroke="midnightblue" d="M73.23,-48.14C80.9,-38.74 90.13,-27.4 96.37,-19.75"/>
<polygon fill="midnightblue" stroke="midnightblue" points="70.37,-46.12 66.77,-56.08 75.8,-50.54 70.37,-46.12"/>
</g>
<!-- Node6&#45;&gt;Node5 -->
<g id="edge8" class="edge">
<title>Node6&#45;&gt;Node5</title>
<path fill="none" stroke="midnightblue" d="M188.91,-160.98C181.71,-152.67 173.16,-142.14 166.5,-132 145.66,-100.27 145.1,-89.64 127.5,-56 120.85,-43.29 113.01,-28.65 108.14,-19.61"/>
<polygon fill="midnightblue" stroke="midnightblue" points="186.29,-163.3 195.54,-168.47 191.53,-158.66 186.29,-163.3"/>
</g>
<!-- Node7 -->
<g id="node7" class="node">
<title>Node7</title>
<g id="a_node7"><a xlink:href="_openfast_f_s_i_8h.html" target="_top" xlink:title=" ">
<polygon fill="white" stroke="black" points="175.5,-112.5 175.5,-131.5 259.5,-131.5 259.5,-112.5 175.5,-112.5"/>
<text text-anchor="middle" x="217.5" y="-119.5" font-family="Helvetica,sans-Serif" font-size="10.00">OpenfastFSI.h</text>
</a>
</g>
</g>
<!-- Node6&#45;&gt;Node7 -->
<g id="edge6" class="edge">
<title>Node6&#45;&gt;Node7</title>
<path fill="none" stroke="midnightblue" d="M208.32,-158.4C210.67,-149.36 213.37,-138.94 215.23,-131.75"/>
<polygon fill="midnightblue" stroke="midnightblue" points="204.93,-157.52 205.81,-168.08 211.71,-159.28 204.93,-157.52"/>
</g>
<!-- Node8 -->
<g id="node8" class="node">
<title>Node8</title>
<g id="a_node8"><a xlink:href="_openfast_f_s_i_8_c.html" target="_top" xlink:title=" ">
<polygon fill="white" stroke="black" points="210,-56.5 210,-75.5 295,-75.5 295,-56.5 210,-56.5"/>
<text text-anchor="middle" x="252.5" y="-63.5" font-family="Helvetica,sans-Serif" font-size="10.00">OpenfastFSI.C</text>
</a>
</g>
</g>
<!-- Node6&#45;&gt;Node8 -->
<g id="edge9" class="edge">
<title>Node6&#45;&gt;Node8</title>
<path fill="none" stroke="midnightblue" d="M234.52,-163.67C247.49,-156.35 261.22,-145.89 268.5,-132 278.21,-113.47 266.35,-88.86 258.46,-75.89"/>
<polygon fill="midnightblue" stroke="midnightblue" points="232.57,-160.73 225.31,-168.45 235.8,-166.95 232.57,-160.73"/>
</g>
<!-- Node7&#45;&gt;Node8 -->
<g id="edge7" class="edge">
<title>Node7&#45;&gt;Node8</title>
<path fill="none" stroke="midnightblue" d="M228.8,-103.57C234.82,-94.27 241.97,-83.25 246.83,-75.75"/>
<polygon fill="midnightblue" stroke="midnightblue" points="225.78,-101.79 223.28,-112.08 231.66,-105.6 225.78,-101.79"/>
</g>
</g>
</svg>
